<svg width="523" height="465" viewBox="0 0 523 465" fill="none" xmlns="http://www.w3.org/2000/svg">
<g clip-path="url(#clip0_313_6908)">
<path d="M429.775 141.641L450.293 150.867C450.293 150.867 418.246 196.594 411.625 203.959C405.004 211.323 340.294 220.482 340.294 220.482L337.191 193.394L392.364 183.994L429.775 141.641Z" fill="#F8F8F8"/>
<path d="M408.682 206.128C408.548 206.141 408.414 204.508 407.719 201.991C407.384 200.732 406.85 199.259 406.127 197.692C405.392 196.139 404.455 194.479 403.292 192.872C402.115 191.265 400.817 189.872 399.573 188.694C398.303 187.543 397.072 186.578 395.975 185.869C393.795 184.436 392.284 183.807 392.337 183.686C392.351 183.646 392.739 183.767 393.434 184.048C394.13 184.302 395.093 184.784 396.243 185.467C397.393 186.137 398.677 187.074 400.015 188.239C401.326 189.417 402.663 190.837 403.867 192.484C405.057 194.144 405.993 195.844 406.729 197.451C407.425 199.071 407.92 200.585 408.214 201.883C408.508 203.182 408.669 204.253 408.695 204.99C408.722 205.713 408.722 206.128 408.682 206.128Z" fill="white"/>
<path d="M404.443 195.791C404.456 195.831 403.72 196.085 402.383 196.501C401.045 196.916 399.106 197.465 396.685 198.121C391.856 199.433 385.155 201.107 377.679 202.673C370.202 204.24 363.394 205.418 358.445 206.168C355.971 206.543 353.964 206.811 352.573 206.972C351.182 207.132 350.42 207.199 350.406 207.159C350.393 207.119 351.155 206.958 352.533 206.704C354.031 206.436 355.997 206.088 358.365 205.673C363.287 204.802 370.068 203.557 377.531 201.991C384.982 200.424 391.709 198.83 396.551 197.639C398.892 197.063 400.818 196.594 402.302 196.233C403.68 195.911 404.429 195.751 404.443 195.791Z" fill="white"/>
<path d="M434.99 144.614C435.138 144.748 426.832 154.375 416.452 166.145C406.073 177.915 397.54 187.342 397.393 187.208C397.245 187.074 405.551 177.446 415.931 165.676C426.323 153.92 434.857 144.493 434.99 144.614Z" fill="white"/>
<path d="M408.909 177.152C409.23 176.938 409.738 177.192 409.765 177.58C409.792 177.969 409.337 178.29 408.989 178.143C408.642 177.995 408.561 177.433 408.869 177.192" fill="white"/>
<path d="M375.31 198.951C375.631 198.737 376.139 198.991 376.166 199.379C376.192 199.768 375.738 200.089 375.39 199.942C375.042 199.795 374.962 199.232 375.269 198.991" fill="white"/>
<path d="M391.468 195.376C391.789 195.162 392.297 195.416 392.324 195.804C392.351 196.193 391.896 196.514 391.548 196.367C391.2 196.219 391.12 195.657 391.428 195.416" fill="white"/>
<path d="M418.071 166.855C418.392 166.641 418.901 166.895 418.927 167.283C418.954 167.672 418.499 167.993 418.152 167.846C417.804 167.698 417.724 167.136 418.031 166.895" fill="white"/>
<path d="M427.688 155.955C428.009 155.741 428.518 155.995 428.544 156.384C428.571 156.772 428.116 157.093 427.769 156.946C427.421 156.799 427.341 156.236 427.648 155.995" fill="white"/>
<path d="M389.126 186.753C389.274 187.703 380.954 189.846 370.548 191.533C360.129 193.22 351.569 193.823 351.408 192.872C351.261 191.921 359.567 189.779 369.986 188.092C380.406 186.391 388.979 185.802 389.126 186.753Z" fill="white"/>
<path d="M361.333 201.455C361.654 201.241 362.162 201.495 362.189 201.883C362.216 202.272 361.761 202.593 361.413 202.446C361.065 202.299 360.985 201.736 361.293 201.495" fill="white"/>
<path d="M331.412 189.484C336.923 187.435 343.53 189.605 347.275 194.131C351.02 198.67 351.997 205.151 350.405 210.815C348.813 216.479 341.27 224.138 336.16 226.267" fill="#263238"/>
<path d="M455.709 144.614C457.381 142.27 459.066 139.914 460.23 137.289C461.394 134.665 462.022 131.706 461.461 128.88C460.912 126.055 459.04 123.404 456.351 122.399C453.663 121.395 450.225 122.359 448.848 124.877C450.667 121.288 452.472 117.686 454.291 114.098C454.96 112.772 455.602 111.125 454.746 109.92C453.944 108.808 452.192 108.808 451.041 109.545C449.891 110.295 449.195 111.553 448.553 112.772C445.865 117.807 443.177 122.855 440.502 127.889C438.134 124.167 435.767 120.458 433.386 116.735C432.664 115.611 431.634 114.325 430.31 114.539C429.253 114.7 428.571 115.838 428.544 116.923C428.517 117.994 428.985 119.012 429.44 119.976C431.513 124.381 435.285 134.37 435.285 134.37L455.709 144.614Z" fill="#F8F8F8"/>
<path d="M336.174 225.49C336.067 225.383 338.006 223.897 340.333 220.83C341.484 219.291 342.674 217.322 343.436 214.912C344.239 212.515 344.466 209.703 344.252 206.784C343.864 200.906 341.617 195.911 339.517 192.725C338.488 191.091 337.431 189.939 336.521 189.39C335.612 188.828 334.997 188.801 335.01 188.734C335.01 188.721 335.17 188.708 335.451 188.748C335.746 188.788 336.16 188.908 336.655 189.163C337.658 189.672 338.835 190.837 339.919 192.457C342.166 195.63 344.547 200.732 344.948 206.744C345.175 209.73 344.908 212.649 344.038 215.113C343.209 217.603 341.925 219.612 340.708 221.138C339.491 222.678 338.327 223.763 337.498 224.473C336.695 225.182 336.2 225.53 336.174 225.49Z" fill="#455A64"/>
<path d="M429.774 141.641C436.488 145.792 440.046 147.774 447.215 151.095C449.609 152.206 452.579 153.237 454.732 151.697C456.284 150.586 456.805 148.417 456.391 146.555C455.99 144.694 454.812 143.087 453.555 141.654C449.65 137.263 444.487 134.022 438.842 132.429C436.823 131.853 434.696 131.491 432.65 131.947C430.603 132.402 428.664 133.808 428.089 135.816C427.473 137.838 427.781 140.315 429.774 141.641Z" fill="#263238"/>
<path d="M455.522 149.166C455.415 149.22 454.625 147.573 452.82 145.283C451.041 143.007 448.085 140.168 444.113 138.2C440.14 136.245 436.087 135.629 433.198 135.602C430.296 135.562 428.504 135.95 428.477 135.83C428.463 135.79 428.905 135.642 429.707 135.482C430.51 135.321 431.7 135.16 433.185 135.107C436.128 135.013 440.314 135.549 444.407 137.57C448.5 139.592 451.482 142.578 453.208 144.975C454.077 146.18 454.679 147.211 455.04 147.961C455.401 148.724 455.562 149.153 455.522 149.166Z" fill="#455A64"/>
<path d="M323.294 288.812C323.494 289.201 320.913 291.048 316.231 293.03C313.891 294.034 311.015 294.985 307.752 295.815C304.475 296.605 300.81 297.235 296.931 297.543C293.039 297.811 289.32 297.73 285.977 297.422C282.619 297.087 279.637 296.552 277.176 295.909C272.254 294.637 269.431 293.191 269.565 292.776C269.726 292.28 272.762 292.87 277.63 293.485C280.065 293.807 282.967 294.061 286.191 294.222C289.414 294.329 292.958 294.316 296.677 294.061C300.382 293.767 303.899 293.258 307.069 292.682C310.239 292.053 313.075 291.383 315.429 290.7C320.15 289.375 323.066 288.344 323.294 288.812Z" fill="#263238"/>
<path d="M321.556 296.19C321.703 296.619 319.228 297.971 314.921 299.404C310.628 300.837 304.475 302.216 297.574 302.725C290.659 303.22 284.372 302.738 279.918 301.948C275.451 301.158 272.816 300.181 272.896 299.739C273.084 298.721 283.971 300.288 297.32 299.257C310.681 298.333 321.221 295.213 321.556 296.19Z" fill="#263238"/>
<path d="M273.111 99.047C273.111 99.047 228.972 107.215 229.521 146.783C230.082 186.337 267.453 179.696 278.314 178.303C283.236 177.674 293.04 176.281 302.296 174.942C321.917 172.104 336.563 162.557 337.727 142.739C337.86 140.423 337.807 138.093 337.486 135.776C334.717 114.834 315.243 89.6605 273.111 99.047Z" fill="#F8F8F8"/>
<path d="M320.739 138.709L264.415 150.679C258.517 151.938 252.712 148.162 251.455 142.244C250.197 136.339 253.969 130.527 259.881 129.269L316.204 117.298C322.103 116.039 327.908 119.815 329.165 125.734C330.409 131.652 326.637 137.463 320.739 138.709Z" fill="#263238"/>
<path d="M272.012 142.311C273.948 142.311 275.516 140.74 275.516 138.802C275.516 136.865 273.948 135.294 272.012 135.294C270.077 135.294 268.508 136.865 268.508 138.802C268.508 140.74 270.077 142.311 272.012 142.311Z" fill="white"/>
<path d="M311.364 133.942C313.299 133.942 314.868 132.371 314.868 130.434C314.868 128.496 313.299 126.925 311.364 126.925C309.428 126.925 307.859 128.496 307.859 130.434C307.859 132.371 309.428 133.942 311.364 133.942Z" fill="white"/>
<path d="M290.31 119.922C290.216 119.962 289.534 118.409 288.424 115.932C287.327 113.455 285.575 110.134 282.954 106.961C280.372 103.76 277.216 101.631 274.688 100.734C272.16 99.8102 270.448 99.7969 270.461 99.663C270.461 99.6228 270.889 99.596 271.651 99.6362C272.414 99.6897 273.524 99.8504 274.848 100.266C277.496 101.056 280.84 103.225 283.489 106.505C286.164 109.746 287.889 113.187 288.879 115.731C289.387 117.003 289.762 118.034 290.002 118.757C290.243 119.494 290.35 119.909 290.31 119.922Z" fill="white"/>
<path d="M291.714 176.456C291.62 176.375 292.891 175.157 294.442 172.827C295.981 170.51 297.733 166.975 298.321 162.757C298.803 158.526 298.682 154.616 298.228 151.858C297.813 149.073 297.519 147.345 297.626 147.332C297.679 147.319 297.8 147.747 298 148.51C298.187 149.273 298.455 150.385 298.722 151.777C299.298 154.563 299.512 158.526 299.017 162.851C298.415 167.203 296.529 170.818 294.857 173.108C294.014 174.26 293.239 175.103 292.677 175.665C292.088 176.201 291.754 176.482 291.714 176.456Z" fill="white"/>
<path d="M332.711 159.263C327.642 155.955 321.583 154.415 315.537 154.04C309.505 153.665 303.446 154.375 297.467 155.286C283.637 157.375 269.486 160.642 258.277 169.024C255.121 171.394 252.165 174.26 250.707 177.928C250.707 177.928 256.646 180.379 268.496 179.589C280.347 178.799 304.797 174.541 304.797 174.541C304.797 174.541 317.303 172.425 324.365 167.149C331.427 161.874 332.711 159.263 332.711 159.263Z" fill="black"/>
<path d="M332.576 124.636C332.576 124.636 332.87 125.305 333.084 126.671C333.285 128.023 333.378 130.126 332.549 132.63C331.733 135.12 329.781 137.932 326.57 139.874C323.374 141.855 319.214 142.927 314.693 143.891C305.611 145.886 294.804 148.242 282.82 150.867C279.824 151.523 276.748 152.193 273.604 152.875C270.461 153.518 267.291 154.362 263.934 154.79C260.617 155.232 256.925 154.991 253.862 153.076C250.853 151.188 248.593 148.095 247.67 144.587C246.707 141.065 247.215 137.263 248.887 134.143C250.545 131.009 253.301 128.586 256.43 127.233C257.995 126.524 259.667 126.216 261.246 125.841C262.837 125.466 264.429 125.091 265.994 124.729C269.124 123.993 272.187 123.283 275.169 122.574C281.148 121.181 286.832 119.855 292.142 118.61C297.479 117.458 302.348 115.959 306.922 115.048C309.209 114.58 311.416 114.272 313.516 114.151C315.603 114.004 317.622 114.044 319.455 114.352C323.146 114.914 326.116 116.374 328.162 117.994C330.209 119.654 331.305 121.435 331.88 122.681C332.201 123.297 332.335 123.805 332.442 124.14C332.536 124.448 332.589 124.622 332.576 124.636C332.522 124.649 332.349 123.953 331.733 122.734C331.131 121.529 330.008 119.802 327.975 118.208C325.942 116.655 322.999 115.249 319.375 114.74C317.569 114.459 315.603 114.432 313.53 114.593C311.456 114.74 309.276 115.062 307.002 115.53C302.468 116.468 297.6 118.007 292.276 119.172C286.966 120.431 281.282 121.783 275.303 123.203C272.32 123.913 269.257 124.636 266.128 125.372C264.563 125.747 262.984 126.122 261.393 126.497C259.788 126.885 258.169 127.193 256.685 127.863C253.689 129.161 251.067 131.491 249.475 134.477C247.884 137.437 247.402 141.065 248.325 144.413C249.208 147.76 251.375 150.706 254.21 152.501C257.086 154.295 260.59 154.549 263.84 154.134C267.117 153.719 270.314 152.889 273.457 152.246C276.6 151.563 279.677 150.907 282.673 150.264C294.67 147.693 305.478 145.377 314.573 143.435C319.107 142.498 323.213 141.467 326.356 139.566C329.513 137.704 331.452 134.986 332.282 132.576C333.138 130.139 333.084 128.063 332.937 126.724C332.777 125.332 332.536 124.636 332.576 124.636Z" fill="white"/>
<path d="M230.135 153.317C230.082 153.25 230.871 152.487 232.289 151.429C233.707 150.371 235.766 149.032 238.187 147.841C240.622 146.649 242.936 145.832 244.634 145.364C246.333 144.895 247.416 144.734 247.443 144.815C247.496 145.029 243.283 146.1 238.495 148.47C233.707 150.813 230.269 153.505 230.135 153.317Z" fill="white"/>
<path d="M275.999 104.577C276.32 104.363 276.828 104.617 276.855 105.006C276.882 105.394 276.427 105.715 276.079 105.568C275.731 105.421 275.651 104.858 275.959 104.617" fill="white"/>
<path d="M283.007 114.821C283.328 114.606 283.836 114.861 283.863 115.249C283.89 115.637 283.435 115.959 283.087 115.811C282.739 115.664 282.659 115.102 282.967 114.861" fill="white"/>
<path d="M240.647 143.489C240.968 143.275 241.477 143.529 241.503 143.917C241.53 144.306 241.075 144.627 240.728 144.48C240.38 144.333 240.3 143.77 240.607 143.529" fill="white"/>
<path d="M231.901 148.175C232.222 147.961 232.731 148.216 232.757 148.604C232.784 148.992 232.329 149.314 231.982 149.166C231.634 149.019 231.554 148.457 231.861 148.216" fill="white"/>
<path d="M285.026 99.6897C285.133 100.185 281.161 101.323 274.888 103.332C268.655 105.367 260.001 108.367 252.016 114.098C248.07 116.963 244.78 120.311 242.252 123.698C239.738 127.099 237.972 130.5 236.902 133.527C234.709 139.579 234.976 143.77 234.388 143.784C234.174 143.797 233.853 142.779 233.692 140.864C233.532 138.95 233.692 136.138 234.548 132.79C235.391 129.443 237.076 125.613 239.644 121.837C242.225 118.061 245.716 114.379 249.983 111.272C254.25 108.219 258.731 105.983 262.904 104.363C267.09 102.743 270.969 101.685 274.246 100.948C280.8 99.5156 284.946 99.2478 285.026 99.6897Z" fill="white"/>
<path d="M242.359 163.239C241.784 163.989 239.229 162.945 237.357 160.32C235.484 157.696 235.337 154.938 236.233 154.643C237.156 154.308 238.628 156.129 240.192 158.298C241.744 160.481 242.975 162.476 242.359 163.239Z" fill="white"/>
<path d="M333.887 184.731C336.562 185.494 336.401 224.272 335.826 244.062C335.518 254.667 334.729 265.741 329.326 274.86C323.307 285.036 311.858 291.517 300.074 292.321C285.896 293.285 271.879 286.415 262.182 276.011C252.485 265.621 246.747 252.03 243.657 238.144C240.567 224.258 239.965 209.958 239.377 195.737C239.364 195.737 285.254 170.939 333.887 184.731Z" fill="#FFC800"/>
<path d="M241.503 214.484C241.182 226.977 243.389 241.411 247.389 251.842C251.722 263.13 258.022 273.32 268.521 281.823C270.621 283.523 273.992 285.599 277.831 287.661C280.867 289.308 283.609 290.098 286.632 290.955C291.621 292.387 294.55 286.215 295.54 281.113C296.516 276.011 294.684 270.669 291.58 266.504C288.477 262.34 284.211 259.193 279.85 256.395C275.477 253.596 270.929 251.039 266.89 247.771C259.961 242.134 254.852 234.529 251.04 226.441C247.241 218.353 244.66 209.757 242.105 201.201" fill="black"/>
<path d="M274.261 267.388C274.582 267.174 275.09 267.428 275.117 267.817C275.143 268.205 274.689 268.526 274.341 268.379C273.993 268.232 273.913 267.669 274.221 267.428" fill="white"/>
<path d="M291.421 266.705C291.742 266.491 292.25 266.745 292.277 267.134C292.304 267.522 291.849 267.843 291.501 267.696C291.153 267.549 291.073 266.986 291.381 266.745" fill="white"/>
<path d="M310.173 248.963C310.494 248.749 311.002 249.003 311.029 249.392C311.056 249.78 310.601 250.101 310.253 249.954C309.905 249.807 309.825 249.244 310.133 249.003" fill="white"/>
<path d="M301.56 205.151C301.881 204.936 302.389 205.191 302.416 205.579C302.442 205.967 301.988 206.289 301.64 206.141C301.292 205.994 301.212 205.432 301.519 205.191" fill="white"/>
<path d="M319.134 212.328C319.455 212.113 319.963 212.368 319.99 212.756C320.017 213.145 319.562 213.466 319.214 213.319C318.866 213.171 318.786 212.609 319.094 212.368" fill="white"/>
<path d="M254.8 262.313C255.121 262.099 255.629 262.353 255.656 262.742C255.683 263.13 255.228 263.451 254.88 263.304C254.532 263.157 254.452 262.594 254.76 262.353" fill="white"/>
<path d="M251.964 247.731C252.285 247.517 252.793 247.771 252.82 248.16C252.847 248.548 252.392 248.869 252.044 248.722C251.696 248.575 251.616 248.012 251.924 247.771" fill="white"/>
<path d="M250.733 234.529C251.054 234.314 251.563 234.569 251.589 234.957C251.616 235.345 251.161 235.667 250.814 235.519C250.466 235.372 250.386 234.81 250.693 234.569" fill="white"/>
<path d="M249.476 220.496C249.797 220.281 250.305 220.536 250.332 220.924C250.358 221.313 249.904 221.634 249.556 221.487C249.208 221.339 249.128 220.777 249.435 220.536" fill="white"/>
<path d="M329.581 208.9C329.902 208.686 330.41 208.94 330.437 209.328C330.464 209.717 330.009 210.038 329.661 209.891C329.314 209.743 329.233 209.181 329.541 208.94" fill="white"/>
<path d="M313.034 265.38C313.355 265.165 313.863 265.42 313.89 265.808C313.917 266.196 313.462 266.518 313.114 266.37C312.767 266.223 312.686 265.661 312.994 265.42" fill="white"/>
<path d="M314.921 279.238C315.242 279.024 315.75 279.279 315.777 279.667C315.804 280.055 315.349 280.377 315.001 280.229C314.653 280.082 314.573 279.52 314.881 279.279" fill="white"/>
<path d="M323.24 195.162C323.373 195.577 319.214 197.438 312.138 199.353C308.607 200.33 304.327 201.241 299.525 202.004C294.723 202.727 289.4 203.276 283.796 203.477C278.192 203.651 272.841 203.463 268 203.062C263.158 202.62 258.838 202.004 255.24 201.267C248.044 199.821 243.777 198.255 243.871 197.826C244.098 196.768 261.687 200.826 283.675 199.995C305.664 199.353 322.945 194.117 323.24 195.162Z" fill="white"/>
<path d="M272.656 284.755C272.642 284.768 272.388 284.581 271.92 284.179C271.452 283.791 270.783 283.188 269.967 282.372C268.336 280.751 266.062 278.181 264.31 274.378C263.427 272.49 262.731 270.307 262.076 267.977C261.38 265.647 260.698 263.143 259.989 260.506C258.585 255.23 257.221 249.378 255.99 243.192C253.516 230.82 252.218 219.451 251.55 211.23C251.229 207.106 251.055 203.771 250.974 201.468C250.948 200.37 250.921 199.487 250.908 198.804C250.894 198.201 250.908 197.88 250.934 197.88C250.961 197.88 251.001 198.201 251.055 198.804C251.108 199.473 251.175 200.357 251.255 201.455C251.416 203.758 251.67 207.079 252.044 211.19C252.834 219.398 254.211 230.726 256.672 243.058C257.889 249.231 259.24 255.069 260.605 260.345C261.3 262.983 261.956 265.487 262.624 267.817C263.266 270.16 263.922 272.302 264.751 274.177C266.41 277.926 268.59 280.51 270.155 282.184C270.93 283.028 271.572 283.657 272 284.086C272.455 284.501 272.669 284.742 272.656 284.755Z" fill="white"/>
<path d="M303.792 242.094C303.979 242.067 305.424 252.739 307.002 265.902C308.58 279.078 309.717 289.776 309.53 289.803C309.343 289.83 307.898 279.171 306.32 265.995C304.728 252.82 303.605 242.121 303.792 242.094Z" fill="white"/>
<path d="M283.662 181.999C283.702 181.972 284.037 182.307 284.625 182.963C285.2 183.606 286.03 184.557 287.033 185.748C289.052 188.118 291.794 191.412 294.79 195.095C295.165 195.55 295.539 196.005 295.901 196.46L296.034 196.634C296.088 196.688 296.155 196.728 296.195 196.849C296.235 196.942 296.275 197.05 296.302 197.143L296.342 197.371C296.409 197.665 296.436 197.96 296.462 198.241C296.583 199.366 296.65 200.451 296.703 201.482C296.81 203.544 296.85 205.392 296.877 206.945C296.904 208.498 296.904 209.757 296.89 210.627C296.877 211.498 296.85 211.98 296.81 211.98C296.703 211.98 296.569 210.065 296.382 206.958C296.288 205.351 296.181 203.517 296.048 201.508C295.981 200.491 295.901 199.406 295.78 198.308C295.74 198.04 295.713 197.759 295.66 197.505L295.62 197.304C295.606 197.264 295.593 197.237 295.58 197.197C295.58 197.13 295.406 197.023 295.352 196.902C294.991 196.46 294.617 196.005 294.242 195.536C291.246 191.868 288.557 188.507 286.645 186.07C285.682 184.851 284.919 183.847 284.398 183.151C283.89 182.428 283.622 182.026 283.662 181.999Z" fill="white"/>
<path d="M304.983 262.313C304.983 262.367 304.394 262.487 303.311 262.661C302.227 262.849 300.649 263.063 298.696 263.304C294.791 263.786 289.387 264.308 283.382 264.616C277.389 264.924 271.946 264.951 268.013 264.857C266.047 264.817 264.456 264.75 263.359 264.683C262.262 264.616 261.66 264.549 261.66 264.509C261.66 264.456 262.275 264.429 263.372 264.415C264.616 264.402 266.168 264.389 268.027 264.375C271.946 264.335 277.376 264.228 283.355 263.933C289.334 263.625 294.737 263.184 298.643 262.822C300.489 262.648 302.04 262.514 303.271 262.394C304.367 262.286 304.983 262.26 304.983 262.313Z" fill="white"/>
<path d="M336.014 210.587C336.041 210.627 335.707 210.868 335.092 211.243C334.476 211.631 333.567 212.154 332.403 212.729C330.089 213.894 326.759 215.247 322.96 216.372C319.162 217.496 315.644 218.179 313.089 218.568C310.535 218.956 308.929 219.05 308.916 218.956C308.903 218.849 310.481 218.581 312.996 218.085C315.523 217.577 318.988 216.813 322.759 215.702C326.518 214.591 329.848 213.332 332.189 212.288C334.556 211.243 335.961 210.48 336.014 210.587Z" fill="white"/>
<path d="M310.405 237.945C316.527 231.817 316.527 221.88 310.405 215.752C304.284 209.623 294.358 209.623 288.237 215.752C282.115 221.88 282.115 231.817 288.237 237.945C294.358 244.074 304.284 244.074 310.405 237.945Z" fill="#263238"/>
<path d="M303.53 237.484C309.398 235.167 312.28 228.526 309.965 222.651C307.651 216.775 301.017 213.891 295.148 216.208C289.279 218.525 286.398 225.167 288.712 231.042C291.027 236.917 297.661 239.802 303.53 237.484Z" fill="white"/>
<path d="M305.412 229.32C305.372 229.293 305.278 228.624 305.171 227.445C305.051 226.267 304.917 224.593 304.757 222.531L304.904 222.745C303.125 221.875 301.052 220.857 298.791 219.746L299.112 219.732C297.347 220.897 295.434 222.17 293.441 223.495C293.307 223.776 293.628 223.12 293.602 223.187V223.201V223.214V223.241V223.294V223.401L293.615 223.629L293.642 224.071L293.695 224.955C293.722 225.544 293.762 226.12 293.789 226.682C293.856 227.82 293.909 228.918 293.963 229.976L293.789 229.708C296.022 230.86 298.069 231.918 299.834 232.828L299.58 232.841C301.319 231.73 302.75 230.846 303.753 230.244C304.783 229.628 305.372 229.293 305.412 229.32C305.452 229.347 304.957 229.722 304.007 230.404C303.058 231.087 301.64 232.078 299.875 233.27L299.754 233.35L299.62 233.283C297.828 232.413 295.768 231.395 293.508 230.284L293.334 230.204L293.321 230.016C293.254 228.958 293.187 227.847 293.12 226.722C293.08 226.16 293.053 225.571 293.013 224.995L292.96 224.111L292.933 223.669L292.919 223.442V223.334V223.281V223.254V223.241V223.227C292.879 223.294 293.214 222.638 293.08 222.919C295.086 221.607 296.999 220.348 298.778 219.197L298.938 219.09L299.099 219.17C301.332 220.322 303.392 221.379 305.144 222.29L305.278 222.357V222.504C305.372 224.647 305.425 226.361 305.452 227.539C305.465 228.717 305.452 229.347 305.412 229.32Z" fill="#FFC800"/>
<path d="M239.363 195.737C239.363 195.737 285.294 170.617 333.886 184.731C333.886 184.731 313.074 204.508 239.363 195.737Z" fill="black"/>
<path d="M293.414 332.665C294.244 365.364 297.587 398.089 305.893 429.717C307.325 435.153 308.996 440.777 312.889 444.821C316.781 448.865 323.575 450.673 328.083 447.338C331.948 444.473 332.818 439.157 333.353 434.377C337.513 397.259 339.826 366.194 340.281 328.862C340.281 328.862 341.298 301.908 322.318 301.921C303.325 301.921 292.906 312.633 293.414 332.665Z" fill="#F8F8F8"/>
<path d="M306.682 304.84C309.05 301.961 313.852 302.176 316.741 304.519C319.643 306.862 320.927 310.692 321.342 314.401C322.693 326.131 316.928 337.378 314.881 349.001C312.915 360.195 314.413 371.684 313.878 383.025C313.33 394.38 310.855 405.949 301.974 413.033C301.974 413.033 293.387 369.314 294.604 352.616C295.487 340.431 306.682 304.84 306.682 304.84Z" fill="black"/>
<path d="M309.21 348.961C309.237 348.961 309.29 349.309 309.371 349.979C309.451 350.715 309.558 351.692 309.692 352.898C309.959 355.509 310.334 359.178 310.802 363.663C311.738 372.755 313.116 385.288 314.895 399.12C316.673 412.952 318.519 425.432 319.91 434.457C320.606 438.916 321.168 442.545 321.569 445.142C321.743 446.348 321.89 447.325 321.997 448.048C322.09 448.718 322.131 449.066 322.104 449.066C322.077 449.066 321.997 448.731 321.863 448.061C321.716 447.338 321.542 446.374 321.301 445.169C320.833 442.652 320.178 439.023 319.429 434.511C317.917 425.499 315.991 413.019 314.212 399.187C312.434 385.355 311.136 372.795 310.32 363.69C309.906 359.137 309.611 355.455 309.437 352.898C309.357 351.679 309.29 350.702 309.25 349.965C309.183 349.309 309.183 348.961 309.21 348.961Z" fill="white"/>
<path d="M281.229 356.325C290.097 360.664 302.75 357.142 308.903 348.158C315.042 339.186 316.968 328.059 318.734 317.32C319.322 313.718 319.804 309.647 317.57 306.755C315.015 303.461 310.187 303.3 306.014 303.434C292.799 303.863 279.571 304.291 266.356 304.72C266.356 304.72 251.938 308.857 251.938 317.574C251.924 326.305 269.111 350.394 281.229 356.325Z" fill="#263238"/>
<path d="M299.258 304.706C299.298 304.693 299.579 305.429 300.034 306.795C300.275 307.465 300.542 308.308 300.77 309.299C301.011 310.29 301.345 311.401 301.546 312.674C301.8 313.932 302.04 315.311 302.201 316.811C302.428 318.311 302.482 319.918 302.589 321.618C302.682 325.006 302.535 328.755 301.96 332.625C301.345 336.495 300.368 340.11 299.232 343.324C298.603 344.904 298.055 346.417 297.359 347.769C297.025 348.452 296.73 349.108 296.396 349.738C296.048 350.34 295.714 350.929 295.406 351.492C294.804 352.63 294.122 353.567 293.547 354.411C292.999 355.268 292.464 355.964 291.996 356.513C291.099 357.624 290.578 358.227 290.538 358.2C290.498 358.173 290.939 357.517 291.768 356.352C292.196 355.776 292.691 355.067 293.213 354.196C293.748 353.339 294.39 352.389 294.965 351.251C295.273 350.688 295.58 350.099 295.915 349.497C296.222 348.881 296.503 348.211 296.824 347.542C297.493 346.203 298.001 344.689 298.616 343.123C299.7 339.949 300.649 336.374 301.251 332.545C301.826 328.715 301.987 325.019 301.933 321.658C301.853 319.985 301.813 318.378 301.612 316.905C301.492 315.419 301.265 314.039 301.051 312.781C300.877 311.522 300.583 310.411 300.382 309.42C300.181 308.429 299.967 307.585 299.767 306.902C299.392 305.496 299.205 304.72 299.258 304.706Z" fill="#455A64"/>
<path d="M317.302 382.651C317.623 382.436 318.131 382.691 318.158 383.079C318.184 383.467 317.73 383.789 317.382 383.641C317.034 383.494 316.954 382.932 317.262 382.691" fill="white"/>
<path d="M320.698 411.305C321.019 411.091 321.527 411.346 321.554 411.734C321.581 412.122 321.126 412.444 320.778 412.296C320.431 412.149 320.35 411.587 320.658 411.346" fill="white"/>
<path d="M313.905 353.42C314.226 353.206 314.735 353.46 314.761 353.848C314.788 354.237 314.333 354.558 313.985 354.411C313.638 354.263 313.557 353.701 313.865 353.46" fill="white"/>
<path d="M322.45 464.612C331.521 464.612 338.875 457.25 338.875 448.169C338.875 439.087 331.521 431.725 322.45 431.725C313.379 431.725 306.025 439.087 306.025 448.169C306.025 457.25 313.379 464.612 322.45 464.612Z" fill="#263238"/>
<path d="M151.93 182.91C151.93 182.91 148.707 169.68 146.981 169.064C145.256 168.448 124.564 171.407 124.564 171.407C124.564 171.407 117.837 161.994 116.807 160.776C115.79 159.584 113.543 162.637 114.266 164.056C114.988 165.476 119.91 179.174 122.986 179.642C126.062 180.098 133.767 179.508 133.767 179.508L136.281 188.118L151.93 182.91Z" fill="#F8F8F8"/>
<path d="M241.37 234.06C228.316 238.813 219.97 241.237 206.902 246.111C199.653 248.816 190.424 251.802 183.589 253.556C179.028 254.734 173.798 255.096 169.384 253.168C165.626 251.534 162.871 248.254 160.396 244.973C148.8 229.614 142.339 210.172 137.832 191.452L153.521 188.493L181.904 228.249L233.492 210.587L241.999 231.583C242.708 232.4 242.387 233.685 241.37 234.06Z" fill="#F8F8F8"/>
<path d="M241.891 200.866C235.605 202.807 230.576 208.391 229.305 214.845C228.035 221.299 230.563 228.383 235.645 232.574C237.785 234.341 240.795 235.68 243.296 233.016C244.085 232.172 244.607 231.114 244.928 230.003C247.71 220.067 246.613 209.958 241.891 200.866Z" fill="#263238"/>
<path d="M233.974 205.887C233.961 205.874 234.028 205.767 234.162 205.592C234.309 205.418 234.523 205.151 234.897 204.883C235.084 204.762 235.325 204.628 235.633 204.602C235.954 204.588 236.221 204.655 236.556 204.776C236.877 204.896 237.184 205.137 237.412 205.432C237.626 205.713 237.853 206.008 238.081 206.316C239.993 208.779 242.08 212.703 243.029 217.416C243.979 222.129 243.605 226.548 242.708 229.574C242.227 231.087 241.465 232.185 240.782 232.761C240.1 233.337 239.605 233.471 239.592 233.444C239.565 233.39 240.007 233.176 240.595 232.574C241.184 231.971 241.839 230.9 242.24 229.44C242.989 226.495 243.284 222.156 242.361 217.563C241.438 212.97 239.472 209.114 237.706 206.61C237.251 205.981 236.93 205.338 236.422 205.137C235.887 204.869 235.432 204.883 235.071 205.11C234.349 205.552 234.028 205.941 233.974 205.887Z" fill="#455A64"/>
<path d="M181.905 228.249C181.958 228.249 182.038 228.65 182.132 229.4C182.252 230.15 182.306 231.248 182.266 232.6C182.212 233.953 182.012 235.573 181.543 237.3C181.062 239.028 180.34 240.889 179.31 242.697C177.223 246.312 174.388 248.896 172.167 250.423C171.057 251.186 170.108 251.735 169.425 252.056C168.743 252.378 168.369 252.538 168.342 252.498C168.275 252.378 169.76 251.628 171.886 250.021C174 248.428 176.688 245.843 178.708 242.348C179.711 240.594 180.42 238.8 180.928 237.126C181.41 235.439 181.664 233.886 181.771 232.56C181.985 229.922 181.771 228.262 181.905 228.249Z" fill="white"/>
<path d="M231.019 215.407C231.085 215.582 220.145 219.866 206.582 224.981C193.019 230.083 181.971 234.073 181.905 233.899C181.838 233.725 192.779 229.44 206.341 224.325C219.904 219.224 230.952 215.233 231.019 215.407Z" fill="white"/>
<path d="M142.928 191.024C142.955 191.011 143.049 191.225 143.209 191.64C143.383 192.135 143.61 192.725 143.878 193.448C144.44 195.028 145.269 197.304 146.352 200.089C148.492 205.673 151.702 213.292 155.782 221.46C157.828 225.53 159.901 229.36 161.868 232.788C163.874 236.189 165.72 239.242 167.378 241.719C168.181 242.978 168.957 244.089 169.639 245.053C170.307 246.031 170.896 246.874 171.404 247.544C171.846 248.173 172.22 248.682 172.528 249.11C172.782 249.472 172.902 249.673 172.875 249.686C172.862 249.7 172.702 249.526 172.407 249.191C172.073 248.789 171.672 248.294 171.177 247.705C170.642 247.062 170.027 246.245 169.318 245.281C168.609 244.33 167.806 243.232 166.964 241.987C165.238 239.537 163.339 236.497 161.306 233.109C159.313 229.681 157.213 225.865 155.153 221.768C151.06 213.573 147.904 205.9 145.884 200.263C144.854 197.451 144.105 195.135 143.624 193.528C143.41 192.791 143.236 192.176 143.089 191.68C142.955 191.252 142.915 191.024 142.928 191.024Z" fill="white"/>
<path d="M192.055 233.082C192.389 232.882 192.389 232.319 192.068 232.132C191.747 231.931 191.239 232.199 191.226 232.574C191.199 232.962 191.667 233.27 192.015 233.109" fill="white"/>
<path d="M170.174 239.55C170.508 239.349 170.508 238.787 170.187 238.599C169.866 238.398 169.358 238.666 169.345 239.041C169.318 239.429 169.786 239.737 170.134 239.577" fill="white"/>
<path d="M160.276 224.004C160.61 223.803 160.61 223.241 160.289 223.053C159.968 222.852 159.46 223.12 159.446 223.495C159.42 223.883 159.888 224.191 160.236 224.031" fill="white"/>
<path d="M204.856 228.57C205.19 228.369 205.19 227.807 204.869 227.619C204.548 227.418 204.04 227.686 204.026 228.061C204 228.449 204.468 228.757 204.816 228.597" fill="white"/>
<path d="M219.313 223.602C219.634 223.388 220.143 223.642 220.169 224.031C220.196 224.419 219.741 224.74 219.394 224.593C219.046 224.446 218.966 223.883 219.273 223.642" fill="white"/>
<path d="M137.471 191.546C143.865 191.011 147.128 190.582 153.414 189.297C155.514 188.868 157.949 188.105 158.604 186.056C159.086 184.583 158.377 182.91 157.2 181.892C156.036 180.874 154.498 180.379 152.986 180.071C148.332 179.093 143.383 179.482 138.929 181.169C137.337 181.771 135.772 182.561 134.649 183.847C133.539 185.132 132.95 186.98 133.539 188.574C134.141 190.167 135.532 191.64 137.471 191.546Z" fill="#263238"/>
<path d="M157.908 184.008C157.854 184.115 156.543 183.432 154.256 182.829C151.996 182.213 148.705 181.798 145.174 182.441C141.643 183.084 138.714 184.623 136.815 185.989C134.889 187.355 133.899 188.466 133.819 188.373C133.792 188.346 133.993 188.038 134.434 187.529C134.875 187.02 135.571 186.337 136.521 185.588C138.393 184.088 141.403 182.401 145.054 181.745C148.705 181.075 152.116 181.597 154.39 182.347C155.54 182.722 156.423 183.11 157.025 183.432C157.627 183.753 157.934 183.967 157.908 184.008Z" fill="#455A64"/>
<path d="M244.446 333.053C245.276 365.752 248.619 398.478 256.926 430.105C258.357 435.542 260.029 441.166 263.921 445.209C267.813 449.253 274.608 451.061 279.115 447.727C282.981 444.861 283.85 439.545 284.385 434.765C288.545 397.648 290.859 366.582 291.313 329.251C291.313 329.251 292.33 302.296 273.35 302.31C254.357 302.31 243.925 313.022 244.446 333.053Z" fill="#F8F8F8"/>
<path d="M260.323 434.778C259.854 434.845 258.33 427.949 256.256 416.728C254.197 405.508 251.588 389.935 249.582 372.608C248.566 363.958 247.803 355.656 247.188 348.158C246.519 340.659 246.078 333.723 246.827 327.898C247.482 322.073 249.341 317.507 251.201 314.803C251.695 314.16 252.123 313.571 252.511 313.062C252.899 312.566 253.314 312.218 253.621 311.924C254.25 311.335 254.611 311.067 254.705 311.147C254.798 311.227 254.598 311.643 254.17 312.366C253.969 312.727 253.648 313.129 253.367 313.664C253.073 314.2 252.752 314.803 252.378 315.486C250.973 318.257 249.609 322.569 249.288 328.126C248.887 333.683 249.555 340.351 250.398 347.85C251.187 355.361 252.043 363.57 253.06 372.206C255.066 389.453 257.286 405.039 258.717 416.354C260.135 427.668 260.791 434.711 260.323 434.778Z" fill="white"/>
<path d="M270.742 449.106C270.728 449.106 270.688 448.985 270.621 448.731C270.554 448.45 270.461 448.088 270.34 447.633C270.1 446.615 269.765 445.183 269.337 443.375C268.495 439.679 267.384 434.296 266.167 427.628C263.76 414.278 261.245 395.679 259.466 375.072C258.557 364.761 257.834 354.933 257.192 345.988C256.885 341.516 256.577 337.271 256.31 333.294C256.029 329.318 255.801 325.595 256.002 322.181C256.176 318.779 256.778 315.713 257.714 313.169C258.65 310.625 259.868 308.59 261.071 307.103C262.275 305.617 263.425 304.653 264.228 304.077C265.044 303.488 265.525 303.274 265.525 303.274C265.606 303.367 263.613 304.278 261.272 307.264C260.122 308.75 258.958 310.772 258.075 313.29C257.179 315.807 256.631 318.833 256.484 322.194C256.323 325.568 256.564 329.264 256.871 333.241C257.166 337.218 257.487 341.462 257.821 345.935C258.49 354.879 259.226 364.708 260.148 375.005C261.927 395.612 264.362 414.184 266.635 427.548C267.799 434.229 268.829 439.612 269.591 443.321C269.966 445.142 270.26 446.575 270.461 447.593C270.541 448.048 270.621 448.423 270.675 448.704C270.742 448.972 270.755 449.106 270.742 449.106Z" fill="white"/>
<path d="M271.196 464.987C280.268 464.987 287.621 457.625 287.621 448.544C287.621 439.462 280.268 432.1 271.196 432.1C262.125 432.1 254.771 439.462 254.771 448.544C254.771 457.625 262.125 464.987 271.196 464.987Z" fill="#263238"/>
<path d="M262.61 360.262C262.931 360.048 263.44 360.302 263.466 360.691C263.493 361.079 263.038 361.4 262.691 361.253C262.343 361.106 262.263 360.543 262.57 360.302" fill="white"/>
<path d="M260.938 335.571C261.259 335.357 261.768 335.611 261.794 335.999C261.821 336.388 261.366 336.709 261.019 336.562C260.671 336.414 260.591 335.852 260.898 335.611" fill="white"/>
<path d="M264.671 390.604C264.992 390.39 265.5 390.644 265.527 391.033C265.554 391.421 265.099 391.742 264.751 391.595C264.403 391.448 264.323 390.885 264.631 390.644" fill="white"/>
<path d="M268.843 424.696C269.164 424.481 269.672 424.736 269.699 425.124C269.726 425.512 269.271 425.834 268.923 425.687C268.575 425.539 268.495 424.977 268.803 424.736" fill="white"/>
<path d="M287.3 445.29C287.327 445.316 287.006 445.691 286.337 446.267C285.682 446.856 284.665 447.633 283.314 448.463C280.639 450.11 276.426 451.771 271.544 451.891C266.675 452.012 262.382 450.539 259.627 449.026C258.236 448.276 257.179 447.539 256.497 446.977C255.815 446.428 255.467 446.08 255.494 446.04C255.574 445.932 257.059 447.205 259.841 448.584C262.596 449.963 266.782 451.302 271.517 451.181C276.252 451.074 280.358 449.534 283.06 448.021C285.789 446.535 287.22 445.183 287.3 445.29Z" fill="#455A64"/>
<path d="M299.713 133.312C299.767 133.286 300.168 134.451 299.687 136.285C299.432 137.182 298.938 138.227 298.082 139.151C297.226 140.074 295.982 140.811 294.577 141.146C293.159 141.467 291.715 141.347 290.551 140.878C289.374 140.423 288.478 139.7 287.863 138.99C286.619 137.544 286.472 136.325 286.539 136.325C286.659 136.272 286.967 137.396 288.224 138.655C288.839 139.271 289.709 139.9 290.779 140.275C291.849 140.664 293.146 140.757 294.43 140.463C295.714 140.168 296.838 139.525 297.64 138.709C298.443 137.892 298.951 136.955 299.245 136.138C299.794 134.477 299.593 133.326 299.713 133.312Z" fill="white"/>
<path d="M521.514 50.588C516.927 34.5466 499.512 19.63 482.833 19.6835C468.883 15.5594 450.077 23.2453 442.614 31.5204C432.81 42.3932 426.617 57.4438 430.629 71.5302C434.642 85.6167 445.904 97.2527 459.574 102.488C475.142 108.46 493.868 105.996 506.828 95.4986C519.789 85.0141 526.102 66.6294 521.514 50.588Z" fill="#FFC800"/>
<path opacity="0.8" d="M521.514 50.588C516.927 34.5466 499.512 19.63 482.833 19.6835C468.883 15.5594 450.077 23.2453 442.614 31.5204C432.81 42.3932 426.617 57.4438 430.629 71.5302C434.642 85.6167 445.904 97.2527 459.574 102.488C475.142 108.46 493.868 105.996 506.828 95.4986C519.789 85.0141 526.102 66.6294 521.514 50.588Z" fill="white"/>
<path d="M497.547 74.4493C497.533 74.4493 497.52 74.2886 497.52 73.994C497.506 73.6593 497.507 73.2308 497.493 72.6952C497.48 71.5168 497.453 69.8565 497.426 67.7542C497.399 63.4426 497.359 57.3099 497.306 49.7578L497.44 49.9855C491.354 46.4906 484.078 42.3129 476.053 37.7067H476.387C469.793 41.5229 462.57 45.7006 455.053 50.0658C454.893 50.3336 455.267 49.7043 455.227 49.7712V49.7846V49.8114V49.865V49.9721V50.1729V50.5746V51.378V52.9849C455.227 54.0561 455.227 55.1273 455.227 56.1851C455.227 58.3007 455.227 60.403 455.227 62.4651C455.227 66.5893 455.214 70.5929 455.214 74.4359L455.053 74.1547C463.052 78.8011 470.261 83.0056 476.36 86.554H476.106C482.66 82.8181 487.997 79.792 491.728 77.6629C493.561 76.6319 495.005 75.8285 496.035 75.2527C496.503 74.9983 496.878 74.7974 497.172 74.6367C497.399 74.5028 497.533 74.4359 497.547 74.4493C497.56 74.4493 497.44 74.5296 497.199 74.6903C496.918 74.8644 496.57 75.0786 496.129 75.3464C495.126 75.949 493.721 76.7792 491.929 77.8504C488.197 80.0464 482.874 83.1663 476.333 87.0093L476.2 87.0896L476.066 87.0093C469.94 83.4876 462.704 79.3367 454.679 74.7305L454.518 74.6367V74.4493C454.518 70.6063 454.505 66.6026 454.505 62.4785C454.505 60.4164 454.505 58.3275 454.505 56.1985C454.505 55.1407 454.505 54.0695 454.505 52.9982V51.3914V50.588V50.1863V49.9855V49.8783V49.8114V49.7846V49.7712C454.465 49.8382 454.839 49.1954 454.679 49.4632C462.209 45.1248 469.432 40.9471 476.039 37.1443L476.2 37.0506L476.36 37.1443C484.359 41.7907 491.608 46.022 497.667 49.5436L497.801 49.6239V49.7712C497.747 57.3634 497.707 63.5363 497.68 67.8747C497.654 69.9636 497.627 71.5972 497.614 72.7755C497.6 73.2977 497.587 73.7128 497.587 74.0342C497.573 74.302 497.56 74.4493 497.547 74.4493Z" fill="#FFC800"/>
<path d="M497.546 49.7712C497.573 49.8114 496.998 50.1997 495.941 50.8558C494.764 51.5655 493.239 52.4894 491.42 53.6008C487.595 55.8905 482.271 59.0104 476.373 62.4115C475.677 62.4115 476.172 62.4115 476.012 62.4115H475.998L475.985 62.3981L475.945 62.3847L475.878 62.3446L475.744 62.2642L475.463 62.1036L474.915 61.7822C474.554 61.5679 474.193 61.3671 473.832 61.1528C473.109 60.7378 472.414 60.3227 471.718 59.921C470.341 59.1175 469.003 58.3275 467.719 57.5911C465.205 56.1048 462.931 54.7657 460.965 53.6008C459.146 52.4894 457.621 51.5789 456.444 50.8558C455.387 50.1997 454.812 49.8114 454.839 49.7712C454.866 49.731 455.481 50.039 456.578 50.6282C457.781 51.2977 459.346 52.1547 461.205 53.1723C463.185 54.2971 465.486 55.5959 468.027 57.0287C469.311 57.7651 470.648 58.5284 472.039 59.3318C472.735 59.7335 473.444 60.1352 474.166 60.5503C474.527 60.7511 474.888 60.9654 475.249 61.1796L475.798 61.501L476.079 61.6617L476.212 61.742L476.279 61.7822L476.319 61.7956L476.333 61.809H476.346C476.199 61.809 476.694 61.809 476.012 61.809C481.91 58.4079 487.26 55.3549 491.153 53.1723C493.025 52.1413 494.577 51.2843 495.781 50.6282C496.904 50.0256 497.519 49.7177 497.546 49.7712Z" fill="#FFC800"/>
<path d="M476.24 86.4736C476.053 86.4736 475.893 80.9569 475.893 74.1547C475.893 67.3525 476.053 61.8358 476.24 61.8358C476.428 61.8358 476.588 67.3525 476.588 74.1547C476.588 80.9569 476.428 86.4736 476.24 86.4736Z" fill="#FFC800"/>
<path d="M194.316 131.25V143.194H0V12.9349H12.974" fill="#FFC800"/>
<path opacity="0.8" d="M194.316 131.25V143.194H0V12.9349H12.974" fill="white"/>
<path d="M207.878 0.348145H13.5625V130.608H207.878V0.348145Z" fill="white"/>
<path d="M207.879 130.608C207.879 130.608 207.865 129.791 207.852 128.238C207.838 126.671 207.838 124.368 207.825 121.368C207.812 115.343 207.785 106.492 207.758 95.1772C207.718 72.5479 207.678 40.0232 207.611 0.361534L207.892 0.642728C154.337 0.642728 86.7922 0.669508 13.576 0.696288H13.5626L13.9104 0.348144C13.897 46.745 13.8836 90.879 13.8836 130.608L13.5626 130.286C70.7687 130.353 119.308 130.407 153.562 130.447C170.695 130.487 184.258 130.514 193.554 130.527C198.195 130.541 201.766 130.554 204.187 130.567C205.391 130.581 206.3 130.581 206.929 130.581C207.558 130.594 207.879 130.608 207.879 130.608C207.879 130.608 207.584 130.621 206.969 130.621C206.354 130.621 205.444 130.634 204.254 130.634C201.846 130.648 198.289 130.661 193.674 130.675C184.392 130.688 170.856 130.728 153.749 130.755C119.441 130.795 70.8355 130.849 13.5492 130.916H13.2282V130.594C13.2416 90.879 13.2282 46.7584 13.2148 0.348144V0H13.5626H13.576C86.7922 0.0267803 154.337 0.0535606 207.879 0.0669508H208.159V0.348144C208.093 40.0767 208.052 72.6684 208.012 95.3379C207.986 106.639 207.959 115.463 207.945 121.476C207.932 124.462 207.919 126.738 207.919 128.291C207.905 129.831 207.879 130.608 207.879 130.608Z" fill="#FFC800"/>
<path d="M13.5625 11.9708C13.5625 11.7833 57.0321 11.6227 110.64 11.6227C164.262 11.6227 207.718 11.7833 207.718 11.9708C207.718 12.1583 164.262 12.3189 110.64 12.3189C57.0321 12.3189 13.5625 12.1717 13.5625 11.9708Z" fill="#FFC800"/>
<path d="M21.2261 6.10591C21.2261 6.96288 20.5306 7.65917 19.6746 7.65917C18.8186 7.65917 18.123 6.96288 18.123 6.10591C18.123 5.24894 18.8186 4.55265 19.6746 4.55265C20.5306 4.55265 21.2261 5.24894 21.2261 6.10591Z" fill="#FFC800"/>
<path d="M26.562 6.10591C26.562 6.96288 25.8665 7.65917 25.0105 7.65917C24.1545 7.65917 23.459 6.96288 23.459 6.10591C23.459 5.24894 24.1545 4.55265 25.0105 4.55265C25.8665 4.55265 26.562 5.24894 26.562 6.10591Z" fill="#FFC800"/>
<path d="M31.8335 6.10591C31.8335 6.96288 31.138 7.65917 30.282 7.65917C29.426 7.65917 28.7305 6.96288 28.7305 6.10591C28.7305 5.24894 29.426 4.55265 30.282 4.55265C31.138 4.55265 31.8335 5.24894 31.8335 6.10591Z" fill="#FFC800"/>
<g opacity="0.6">
<path d="M21.2261 6.10591C21.2261 6.96288 20.5306 7.65917 19.6746 7.65917C18.8186 7.65917 18.123 6.96288 18.123 6.10591C18.123 5.24894 18.8186 4.55265 19.6746 4.55265C20.5306 4.55265 21.2261 5.24894 21.2261 6.10591Z" fill="white"/>
<path d="M26.562 6.10591C26.562 6.96288 25.8665 7.65917 25.0105 7.65917C24.1545 7.65917 23.459 6.96288 23.459 6.10591C23.459 5.24894 24.1545 4.55265 25.0105 4.55265C25.8665 4.55265 26.562 5.24894 26.562 6.10591Z" fill="white"/>
<path d="M31.8335 6.10591C31.8335 6.96288 31.138 7.65917 30.282 7.65917C29.426 7.65917 28.7305 6.96288 28.7305 6.10591C28.7305 5.24894 29.426 4.55265 30.282 4.55265C31.138 4.55265 31.8335 5.24894 31.8335 6.10591Z" fill="white"/>
</g>
<path d="M82.0968 25.5618H30.2676V77.4487H82.0968V25.5618Z" fill="#FFC800"/>
<path d="M181.236 40.224C181.236 40.4115 161.026 40.5722 136.081 40.5722C111.136 40.5722 90.9258 40.4115 90.9258 40.224C90.9258 40.0366 111.136 39.8759 136.081 39.8759C161.026 39.8759 181.236 40.0366 181.236 40.224Z" fill="#FFC800"/>
<path d="M181.236 49.8649C181.236 50.0524 161.026 50.2131 136.081 50.2131C111.136 50.2131 90.9258 50.0524 90.9258 49.8649C90.9258 49.6775 111.136 49.5168 136.081 49.5168C161.026 49.5168 181.236 49.6775 181.236 49.8649Z" fill="#FFC800"/>
<path d="M181.236 59.5059C181.236 59.6933 161.026 59.854 136.081 59.854C111.136 59.854 90.9258 59.6933 90.9258 59.5059C90.9258 59.3184 111.136 59.1577 136.081 59.1577C161.026 59.1577 181.236 59.3184 181.236 59.5059Z" fill="#FFC800"/>
<path d="M144.306 69.1468C144.306 69.2003 143.557 69.2405 142.206 69.2807C140.735 69.3075 138.809 69.3476 136.482 69.3878C131.653 69.4547 124.979 69.4949 117.609 69.4949C110.239 69.4949 103.565 69.4547 98.7366 69.3878C96.4227 69.3476 94.4967 69.3075 93.012 69.2807C91.6611 69.2405 90.9121 69.1869 90.9121 69.1468C90.9121 69.0932 91.6611 69.053 93.012 69.0129C94.4833 68.9861 96.4093 68.9459 98.7366 68.9057C103.565 68.8388 110.239 68.7986 117.609 68.7986C124.979 68.7986 131.653 68.8388 136.482 68.9057C138.796 68.9459 140.722 68.9861 142.206 69.0129C143.557 69.053 144.306 69.1066 144.306 69.1468Z" fill="#FFC800"/>
<path d="M57.874 94.9496H33.5176V119.333H57.874V94.9496Z" fill="#FFC800"/>
<path opacity="0.6" d="M57.874 94.9496H33.5176V119.333H57.874V94.9496Z" fill="white"/>
<path d="M102.054 94.9496H77.6973V119.333H102.054V94.9496Z" fill="#FFC800"/>
<path opacity="0.6" d="M102.054 94.9496H77.6973V119.333H102.054V94.9496Z" fill="white"/>
<path d="M146.231 94.9496H121.875V119.333H146.231V94.9496Z" fill="#FFC800"/>
<path opacity="0.6" d="M146.231 94.9496H121.875V119.333H146.231V94.9496Z" fill="white"/>
<path d="M190.397 94.9496H166.041V119.333H190.397V94.9496Z" fill="#FFC800"/>
<path opacity="0.6" d="M190.397 94.9496H166.041V119.333H190.397V94.9496Z" fill="white"/>
</g>
<defs>
<clipPath id="clip0_313_6908">
<rect width="523" height="465" fill="white"/>
</clipPath>
</defs>
</svg>
