<svg width="78" height="79" viewBox="0 0 78 79" fill="none" xmlns="http://www.w3.org/2000/svg">
<path d="M36.5603 0.460938C38.1857 0.460938 39.8103 0.460938 41.4358 0.460938C42.7385 0.630838 44.0477 0.756891 45.3413 0.977945C53.37 2.3472 60.34 5.84204 66.1709 11.5264C72.1764 17.3816 75.9394 24.4526 77.3994 32.7211C77.6499 34.1369 77.8025 35.5701 78 36.9951C78 38.6192 78 40.2424 78 41.8665C77.957 42.0629 77.8894 42.2565 77.8738 42.4557C77.4204 48.4186 75.6404 53.9596 72.65 59.1361C64.8937 72.5646 49.1545 80.2631 33.7874 78.0553C23.369 76.5591 14.8165 71.7014 8.31269 63.4347C1.87201 55.2484 -0.786562 45.8701 0.199881 35.5235C0.983368 27.3089 4.1557 20.0507 9.6072 13.8438C15.6794 6.92995 23.2638 2.63494 32.3521 1.05011C33.7463 0.806221 35.1569 0.654588 36.5603 0.460938ZM10.1201 27.9045C29.3699 19.9073 48.627 19.9018 67.8869 27.9026C64.4147 18.1991 53.6717 7.97767 38.3795 8.2581C23.7776 8.52665 13.4278 18.496 10.1201 27.9045ZM45.4236 69.9412C52.4366 68.3491 58.2172 64.9237 62.7874 59.5188C67.1171 54.398 69.5051 48.467 70.081 41.7587C69.6349 41.7587 69.2811 41.7295 68.9346 41.7633C66.5037 41.9989 64.2081 42.7196 62.0962 43.9217C54.5064 48.2405 49.5001 54.694 46.6294 62.862C45.845 65.0936 45.4501 67.411 45.4236 69.9412ZM7.8958 41.7194C8.65826 49.8244 11.8699 56.6369 17.7209 62.1614C21.9135 66.1203 26.8549 68.6752 32.6263 69.9357C32.5303 68.9035 32.4856 68.0202 32.3612 67.1479C31.6993 62.4884 29.8261 58.3067 27.1959 54.4537C23.9861 49.7504 20.0247 45.8564 14.8146 43.3782C12.6671 42.357 10.4108 41.7496 7.8958 41.7194ZM44.8293 39.4422C44.8358 36.1876 42.2476 33.598 38.9902 33.6016C35.763 33.6053 33.1922 36.1547 33.1639 39.3783C33.1356 42.631 35.7091 45.2389 38.9646 45.2572C42.2211 45.2755 44.8229 42.695 44.8293 39.4422Z" fill="#595959"/>
</svg>
