<svg width="1917" height="968" viewBox="0 0 1917 968" fill="none" xmlns="http://www.w3.org/2000/svg">
<path d="M2274 59.1808V-31H1070.07C1261.28 -28.9153 1686.18 -4.81012 1732.93 78.391C1746.86 103.185 1747.68 121.896 1738.7 136.322C1678.5 232.965 1449.35 238.045 1227.6 323.243C883.113 455.593 984.728 616.3 696.082 698.392C426.871 774.96 220.144 631.42 8.71038 741.38C6.02277 742.78 3.38844 744.204 0.777786 745.641V967.414H2274V543.818C2239.71 507.501 2219.45 479.18 2222.19 439.905C2235.48 249.124 2025.99 269.86 2016.17 164.795C2008.49 82.8007 2163.96 56.5369 2274 59.1808Z" fill="#CFD4D9"/>
</svg>
