<svg width="486" height="483" viewBox="0 0 486 483" fill="none" xmlns="http://www.w3.org/2000/svg">
<path d="M416.459 0.595642H214.868V135.138H416.459V0.595642Z" stroke="#EBEBEB" stroke-miterlimit="10"/>
<path d="M224.172 6.34947C224.172 7.49309 223.256 8.41037 222.114 8.41037C220.972 8.41037 220.056 7.49309 220.056 6.34947C220.056 5.20585 220.972 4.28857 222.114 4.28857C223.256 4.28857 224.172 5.20585 224.172 6.34947Z" fill="#A6A6A6"/>
<path d="M232.583 6.34947C232.583 7.49309 231.667 8.41037 230.525 8.41037C229.383 8.41037 228.467 7.49309 228.467 6.34947C228.467 5.20585 229.383 4.28857 230.525 4.28857C231.655 4.28857 232.583 5.20585 232.583 6.34947Z" fill="#EBEBEB"/>
<path d="M240.984 6.34947C240.984 7.49309 240.068 8.41037 238.925 8.41037C237.783 8.41037 236.867 7.49309 236.867 6.34947C236.867 5.20585 237.783 4.28857 238.925 4.28857C240.056 4.28857 240.984 5.20585 240.984 6.34947Z" fill="#FFC727"/>
<path d="M214.868 12.5322H416.459" stroke="#EBEBEB" stroke-miterlimit="10"/>
<path d="M0 481.273C155.678 480.546 330.322 480.534 486 481.273C330.322 481.999 155.678 481.999 0 481.273Z" fill="#263238"/>
<path d="M450.974 330.267H234.095V22.1219H474.507V306.668L450.974 330.267Z" fill="white"/>
<path d="M450.973 330.267C450.866 330.303 234.071 330.375 233.963 330.398C233.88 330.375 233.856 22.1814 233.797 22.1219V21.8241H234.094C234.213 21.7645 474.566 21.9908 474.685 21.9551C474.78 21.967 474.471 306.609 474.53 306.668C474.53 306.68 450.973 330.256 450.973 330.267ZM450.973 330.267C450.961 330.279 474.53 306.621 474.507 306.668L474.352 22.1219C475.399 22.4793 233.868 22.3363 234.106 22.4197L234.404 22.1219L234.237 330.267C233.416 329.958 451.14 330.351 450.973 330.267Z" fill="#263238"/>
<path d="M474.519 22.1219H234.095V30.7109H474.519V22.1219Z" fill="#FFC727"/>
<path d="M240.388 26.4104C240.388 27.2086 239.734 27.8638 238.937 27.8638C238.14 27.8638 237.485 27.2086 237.485 26.4104C237.485 25.6123 238.14 24.9571 238.937 24.9571C239.746 24.9571 240.388 25.6123 240.388 26.4104Z" fill="#C7C7C7"/>
<path d="M246.313 26.4104C246.313 27.2086 245.659 27.8638 244.862 27.8638C244.065 27.8638 243.41 27.2086 243.41 26.4104C243.41 25.6123 244.065 24.9571 244.862 24.9571C245.659 24.9571 246.313 25.6123 246.313 26.4104Z" fill="white"/>
<path d="M252.238 26.4104C252.238 27.2086 251.584 27.8638 250.786 27.8638C249.989 27.8638 249.335 27.2086 249.335 26.4104C249.335 25.6123 249.989 24.9571 250.786 24.9571C251.584 24.9571 252.238 25.6123 252.238 26.4104Z" fill="#455A64"/>
<path d="M328.513 56.347H324.623L323.837 58.4317C323.695 58.7891 323.361 58.9916 323.004 58.9916C322.897 58.9916 322.79 58.9797 322.695 58.944C322.231 58.7653 322.005 58.2531 322.16 57.7885L325.705 48.3417C325.848 47.9843 326.205 47.758 326.55 47.7818C326.919 47.7699 327.252 47.9843 327.395 48.3417L330.94 57.7885C331.095 58.2531 330.881 58.7653 330.417 58.944C330.333 58.9797 330.226 58.9916 330.107 58.9916C329.75 58.9916 329.417 58.7891 329.286 58.4317L328.513 56.347ZM327.859 54.5839L326.562 51.1412L325.265 54.5839H327.859Z" fill="#263238"/>
<path d="M340.565 57.6693C340.719 58.1339 340.47 58.6343 340.006 58.7891C339.946 58.801 339.815 58.8368 339.649 58.8368C339.649 58.8368 339.649 58.8368 339.637 58.8368C339.482 58.8368 339.232 58.801 339.006 58.6581C338.804 58.5271 338.625 58.3245 338.495 58.0982C338.269 57.6336 338.161 57.0499 338.161 56.1683C338.15 55.8586 338.078 55.6561 337.971 55.4774C337.876 55.2987 337.686 55.1438 337.495 55.0128C337.162 54.7865 336.746 54.6554 336.603 54.6316H334.711V58.1101C334.711 58.5866 334.307 58.9916 333.819 58.9916C333.319 58.9916 332.938 58.5866 332.938 58.1101V48.6514C332.938 48.1511 333.319 47.7699 333.819 47.7699C333.819 47.7699 333.819 47.7699 333.831 47.7699H336.686C338.59 47.7699 340.113 49.3066 340.113 51.2127C340.113 52.2729 339.637 53.2021 338.863 53.8454C339.078 54.0002 339.268 54.2027 339.423 54.441C339.744 54.9056 339.958 55.5012 339.958 56.1683C339.946 56.6448 339.994 56.9546 340.017 57.1094C340.255 57.2047 340.47 57.3953 340.565 57.6693ZM338.316 51.2127C338.316 50.2835 337.578 49.5449 336.662 49.5449H334.687V52.8447H336.662C337.578 52.8566 338.316 52.118 338.316 51.2127Z" fill="#263238"/>
<path d="M349.69 49.5568H347.144V58.122C347.144 58.6224 346.763 59.0036 346.264 59.0036C345.788 59.0036 345.383 58.6224 345.383 58.122V49.5568H342.849C342.349 49.5568 341.969 49.1399 341.969 48.6633C341.969 48.163 342.349 47.7818 342.849 47.7818H349.69C350.166 47.7818 350.571 48.163 350.571 48.6633C350.571 49.1279 350.178 49.5568 349.69 49.5568Z" fill="#263238"/>
<path d="M353.331 48.6514C353.331 48.1511 353.712 47.7699 354.211 47.7699C354.687 47.7699 355.104 48.1511 355.104 48.6514V58.1101C355.104 58.6104 354.687 58.9916 354.211 58.9916C353.712 58.9916 353.331 58.6104 353.331 58.1101V48.6514Z" fill="#263238"/>
<path d="M357.614 53.2259C357.626 50.0452 360.291 47.4721 363.492 47.4482C364.896 47.4482 366.18 47.9128 367.192 48.6991C367.572 49.0207 367.644 49.5806 367.346 49.9856C367.025 50.3907 366.43 50.4502 366.061 50.1643C365.36 49.5925 364.479 49.2828 363.48 49.2828C362.373 49.2828 361.35 49.7355 360.601 50.4383C359.875 51.1769 359.435 52.1418 359.435 53.2259C359.435 54.3219 359.887 55.3106 360.601 56.0135C361.35 56.7163 362.373 57.169 363.48 57.169C364.467 57.169 365.336 56.8593 366.061 56.2875C366.43 56.0135 367.025 56.085 367.346 56.4662C367.632 56.8712 367.572 57.443 367.192 57.7527C366.18 58.539 364.896 59.0036 363.492 59.0036C360.291 58.9916 357.638 56.4185 357.614 53.2259Z" fill="#263238"/>
<path d="M370.464 58.1101V48.6514C370.464 48.1749 370.845 47.7699 371.344 47.7699C371.844 47.7699 372.237 48.1749 372.237 48.6514V57.2167H376.579C377.043 57.2167 377.46 57.6217 377.46 58.1101C377.46 58.5866 377.043 58.9916 376.579 58.9916H371.392C371.356 58.9916 371.356 58.9916 371.356 58.9916C371.344 58.9916 371.344 58.9916 371.344 58.9916C370.856 58.9916 370.464 58.5985 370.464 58.1101Z" fill="#263238"/>
<path d="M379.494 58.1101V48.6514C379.494 48.1511 379.875 47.7699 380.375 47.7699H380.386C380.386 47.7699 380.386 47.7699 380.422 47.7699H385.609C386.073 47.7699 386.49 48.1511 386.49 48.6514C386.49 49.1518 386.073 49.5449 385.609 49.5449H381.267V52.4754H385.003C385.479 52.4754 385.883 52.8923 385.883 53.3569C385.883 53.8573 385.479 54.2504 385.003 54.2504H381.267V57.2047H385.609C386.073 57.2047 386.49 57.6098 386.49 58.0982C386.49 58.5747 386.073 58.9797 385.609 58.9797H380.422C380.386 58.9797 380.386 58.9678 380.386 58.9678L380.375 58.9797C379.875 58.9916 379.494 58.5985 379.494 58.1101Z" fill="#263238"/>
<path d="M396.507 53.3927C416.959 52.5945 437.565 52.5945 458.029 53.3927C437.565 54.1908 416.959 54.1908 396.507 53.3927Z" fill="#263238"/>
<path d="M250.572 53.3927C271.024 52.5945 291.63 52.5945 312.094 53.3927C291.63 54.1908 271.036 54.1908 250.572 53.3927Z" fill="#263238"/>
<path d="M458.029 65.2696H250.572V78.0758H458.029V65.2696Z" fill="#FFC727"/>
<path d="M425.524 90.8224C436.006 90.4292 447.547 90.4292 458.028 90.8224C447.547 91.2155 436.006 91.2155 425.524 90.8224Z" fill="#263238"/>
<path d="M386.489 90.8224C395.912 90.4173 405.323 90.4173 414.746 90.8224C405.335 91.2274 395.912 91.2274 386.489 90.8224Z" fill="#263238"/>
<path d="M336.508 90.8224C349.714 90.4292 364.253 90.4292 377.471 90.8224C364.253 91.2155 349.714 91.2155 336.508 90.8224Z" fill="#263238"/>
<path d="M438.517 100.126C445.025 99.7211 451.521 99.7211 458.028 100.126C451.532 100.531 445.025 100.531 438.517 100.126Z" fill="#263238"/>
<path d="M398.731 100.126C410.034 99.733 422.467 99.733 433.769 100.126C422.467 100.519 410.034 100.519 398.731 100.126Z" fill="#263238"/>
<path d="M336.508 100.126C355.02 99.733 375.389 99.733 393.901 100.126C375.389 100.519 355.02 100.519 336.508 100.126Z" fill="#263238"/>
<path d="M397.269 109.442C416.864 109.049 438.434 109.049 458.029 109.442C438.434 109.835 416.864 109.835 397.269 109.442Z" fill="#263238"/>
<path d="M336.508 109.442C353.14 109.049 371.439 109.049 388.071 109.442C371.439 109.835 353.14 109.835 336.508 109.442Z" fill="#263238"/>
<path d="M417.815 118.746C430.784 118.353 445.061 118.353 458.029 118.746C445.061 119.139 430.784 119.139 417.815 118.746Z" fill="#263238"/>
<path d="M372.843 118.746C385.133 118.353 398.66 118.353 410.95 118.746C398.66 119.139 385.133 119.139 372.843 118.746Z" fill="#263238"/>
<path d="M336.508 118.746C346.347 118.353 357.198 118.353 367.037 118.746C357.198 119.139 346.347 119.139 336.508 118.746Z" fill="#263238"/>
<path d="M336.508 128.061C362.932 127.668 391.998 127.668 418.422 128.061C391.998 128.455 362.932 128.455 336.508 128.061Z" fill="#263238"/>
<path d="M432.711 146.681C441.146 146.276 449.593 146.276 458.029 146.681C449.593 147.086 441.146 147.074 432.711 146.681Z" fill="#263238"/>
<path d="M383.265 146.681C396.53 146.288 411.14 146.288 424.406 146.681C411.14 147.074 396.53 147.062 383.265 146.681Z" fill="#263238"/>
<path d="M336.508 146.681C349.202 146.288 363.182 146.288 375.877 146.681C363.182 147.074 349.202 147.062 336.508 146.681Z" fill="#263238"/>
<path d="M403.836 155.985C421.313 155.592 440.552 155.592 458.029 155.985C440.552 156.378 421.313 156.378 403.836 155.985Z" fill="#263238"/>
<path d="M362.29 155.985C373.569 155.592 385.99 155.592 397.269 155.985C385.99 156.378 373.569 156.378 362.29 155.985Z" fill="#263238"/>
<path d="M336.508 155.985C343.694 155.58 350.88 155.58 358.066 155.985C350.88 156.39 343.694 156.39 336.508 155.985Z" fill="#263238"/>
<path d="M429.546 165.3C439.04 164.895 448.534 164.895 458.028 165.3C448.534 165.706 439.04 165.694 429.546 165.3Z" fill="#263238"/>
<path d="M388.071 165.3C399.148 164.907 411.343 164.907 422.431 165.3C411.355 165.694 399.148 165.682 388.071 165.3Z" fill="#263238"/>
<path d="M336.508 165.3C351.38 164.907 367.739 164.907 382.599 165.3C367.739 165.694 351.38 165.682 336.508 165.3Z" fill="#263238"/>
<path d="M412.807 174.604C427.393 174.211 443.443 174.211 458.029 174.604C443.443 174.997 427.393 174.997 412.807 174.604Z" fill="#263238"/>
<path d="M374.425 174.604C384.764 174.211 396.138 174.211 406.477 174.604C396.138 174.997 384.764 174.997 374.425 174.604Z" fill="#263238"/>
<path d="M325.634 174.604C340.101 174.211 356.008 174.211 370.475 174.604C356.008 174.997 340.089 174.997 325.634 174.604Z" fill="#263238"/>
<path d="M293.451 174.604C301.982 174.199 310.512 174.199 319.031 174.604C310.512 175.009 301.982 175.009 293.451 174.604Z" fill="#263238"/>
<path d="M250.786 174.604C262.933 174.211 276.294 174.211 288.442 174.604C276.294 174.997 262.922 174.997 250.786 174.604Z" fill="#263238"/>
<path d="M353.593 183.92C371.927 183.527 392.093 183.527 410.439 183.92C392.093 184.313 371.927 184.301 353.593 183.92Z" fill="#263238"/>
<path d="M313.105 183.92C325.146 183.527 338.388 183.527 350.428 183.92C338.388 184.313 325.134 184.301 313.105 183.92Z" fill="#263238"/>
<path d="M281.708 183.92C291.119 183.515 300.53 183.515 309.929 183.92C300.53 184.325 291.119 184.313 281.708 183.92Z" fill="#263238"/>
<path d="M250.786 183.92C259.685 183.515 268.597 183.515 277.496 183.92C268.585 184.325 259.685 184.313 250.786 183.92Z" fill="#263238"/>
<path d="M429.546 202.54C439.04 202.135 448.534 202.135 458.028 202.54C448.534 202.945 439.04 202.933 429.546 202.54Z" fill="#263238"/>
<path d="M393.901 202.54C404.098 202.146 415.329 202.146 425.525 202.54C415.329 202.933 404.098 202.921 393.901 202.54Z" fill="#263238"/>
<path d="M356.187 202.54C366.466 202.146 377.792 202.146 388.072 202.54C377.792 202.933 366.478 202.921 356.187 202.54Z" fill="#263238"/>
<path d="M333.271 202.54C338.982 202.135 344.705 202.135 350.416 202.54C344.705 202.945 338.994 202.945 333.271 202.54Z" fill="#263238"/>
<path d="M295.033 202.54C305.515 202.146 317.055 202.146 327.537 202.54C317.055 202.933 305.515 202.921 295.033 202.54Z" fill="#263238"/>
<path d="M250.786 202.54C263.552 202.146 277.591 202.146 290.357 202.54C277.591 202.933 263.54 202.921 250.786 202.54Z" fill="#263238"/>
<path d="M412.807 211.843C427.393 211.45 443.443 211.45 458.029 211.843C443.443 212.236 427.393 212.236 412.807 211.843Z" fill="#263238"/>
<path d="M379.779 211.843C389.202 211.438 398.625 211.438 408.048 211.843C398.625 212.248 389.202 212.248 379.779 211.843Z" fill="#263238"/>
<path d="M344.753 211.843C354.64 211.438 364.538 211.438 374.425 211.843C364.538 212.248 354.64 212.248 344.753 211.843Z" fill="#263238"/>
<path d="M283.028 211.843C301.017 211.45 320.815 211.45 338.816 211.843C320.827 212.236 301.029 212.236 283.028 211.843Z" fill="#263238"/>
<path d="M250.786 211.843C259.685 211.438 268.597 211.438 277.496 211.843C268.585 212.248 259.685 212.248 250.786 211.843Z" fill="#263238"/>
<path d="M320.423 221.159C336.568 220.766 354.331 220.766 370.476 221.159C354.331 221.552 336.568 221.54 320.423 221.159Z" fill="#263238"/>
<path d="M293.451 221.159C300.851 220.754 308.264 220.754 315.664 221.159C308.264 221.552 300.851 221.552 293.451 221.159Z" fill="#263238"/>
<path d="M250.786 221.159C262.66 220.766 275.711 220.766 287.585 221.159C275.711 221.552 262.648 221.54 250.786 221.159Z" fill="#263238"/>
<path d="M313.891 230.463C324.658 230.07 336.52 230.07 347.287 230.463C336.52 230.856 324.658 230.856 313.891 230.463Z" fill="#263238"/>
<path d="M279.674 230.463C289.501 230.058 299.328 230.058 309.144 230.463C299.317 230.868 289.489 230.868 279.674 230.463Z" fill="#263238"/>
<path d="M250.786 230.463C259.031 230.058 267.276 230.058 275.521 230.463C267.276 230.868 259.019 230.868 250.786 230.463Z" fill="#263238"/>
<path d="M327.537 249.082C341.386 248.689 356.615 248.689 370.463 249.082C356.626 249.476 341.386 249.476 327.537 249.082Z" fill="#263238"/>
<path d="M291.143 249.082C301.279 248.689 312.451 248.689 322.588 249.082C312.451 249.476 301.279 249.476 291.143 249.082Z" fill="#263238"/>
<path d="M250.786 249.082C262.148 248.689 274.641 248.689 286.003 249.082C274.641 249.476 262.136 249.476 250.786 249.082Z" fill="#263238"/>
<path d="M345.443 258.386C353.783 257.981 362.124 257.981 370.464 258.386C362.124 258.791 353.783 258.791 345.443 258.386Z" fill="#263238"/>
<path d="M309.929 258.386C319.566 257.993 330.166 257.993 339.803 258.386C330.178 258.779 319.566 258.779 309.929 258.386Z" fill="#263238"/>
<path d="M275.51 258.386C285.194 257.981 294.879 257.981 304.551 258.386C294.879 258.791 285.194 258.791 275.51 258.386Z" fill="#263238"/>
<path d="M250.786 258.386C257.377 257.981 263.98 257.981 270.572 258.386C263.969 258.791 257.377 258.791 250.786 258.386Z" fill="#263238"/>
<path d="M322.588 267.702C338.031 267.309 355.02 267.309 370.475 267.702C355.02 268.095 338.031 268.095 322.588 267.702Z" fill="#263238"/>
<path d="M290.036 267.702C299.102 267.297 308.18 267.297 317.258 267.702C308.18 268.107 299.102 268.107 290.036 267.702Z" fill="#263238"/>
<path d="M250.786 267.702C261.827 267.309 273.974 267.309 285.015 267.702C273.974 268.095 261.815 268.095 250.786 267.702Z" fill="#263238"/>
<path d="M250.786 277.006C271.714 276.613 294.735 276.613 315.675 277.006C294.735 277.399 271.714 277.399 250.786 277.006Z" fill="#263238"/>
<path d="M395.793 295.625C415.876 295.232 437.958 295.232 458.029 295.625C437.958 296.018 415.864 296.018 395.793 295.625Z" fill="#263238"/>
<path d="M358.066 295.625C368.762 295.232 380.541 295.232 391.237 295.625C380.541 296.018 368.762 296.018 358.066 295.625Z" fill="#263238"/>
<path d="M336.508 295.625C342.195 295.22 347.894 295.22 353.593 295.625C347.894 296.042 342.195 296.03 336.508 295.625Z" fill="#263238"/>
<path d="M291.143 295.625C304.242 295.232 318.661 295.232 331.761 295.625C318.661 296.018 304.242 296.018 291.143 295.625Z" fill="#263238"/>
<path d="M250.786 295.625C262.148 295.232 274.641 295.232 286.003 295.625C274.641 296.018 262.136 296.018 250.786 295.625Z" fill="#263238"/>
<path d="M413.984 304.941C428.19 304.548 443.823 304.548 458.029 304.941C443.823 305.334 428.19 305.334 413.984 304.941Z" fill="#263238"/>
<path d="M378.125 304.941C387.774 304.548 398.398 304.548 408.047 304.941C398.398 305.334 387.774 305.322 378.125 304.941Z" fill="#263238"/>
<path d="M346.525 304.941C355.556 304.536 364.598 304.536 373.628 304.941C364.598 305.346 355.556 305.334 346.525 304.941Z" fill="#263238"/>
<path d="M304.563 304.941C316.592 304.548 329.834 304.548 341.85 304.941C329.822 305.334 316.58 305.322 304.563 304.941Z" fill="#263238"/>
<path d="M274.665 304.941C283.148 304.536 291.631 304.536 300.114 304.941C291.619 305.346 283.136 305.334 274.665 304.941Z" fill="#263238"/>
<path d="M250.786 304.941C257.056 304.536 263.338 304.536 269.608 304.941C263.338 305.346 257.056 305.334 250.786 304.941Z" fill="#263238"/>
<path d="M356.187 314.245C367.239 313.852 379.399 313.852 390.439 314.245C379.399 314.638 367.239 314.638 356.187 314.245Z" fill="#263238"/>
<path d="M324.872 314.245C333.391 313.84 341.909 313.84 350.428 314.245C341.909 314.65 333.391 314.65 324.872 314.245Z" fill="#263238"/>
<path d="M290.036 314.245C299.828 313.852 310.619 313.852 320.422 314.245C310.619 314.638 299.828 314.638 290.036 314.245Z" fill="#263238"/>
<path d="M250.786 314.245C261.506 313.852 273.308 313.852 284.028 314.245C273.296 314.638 261.506 314.638 250.786 314.245Z" fill="#263238"/>
<path d="M250.582 165.293H326.298V89.4806L250.582 89.4806V165.293Z" fill="#EBEBEB"/>
<path d="M254.283 161.588H322.586V93.1975L254.283 93.1975V161.588Z" fill="#FFC727"/>
<path opacity="0.1" d="M265.29 109.513C264.433 114.052 268.336 117.971 272.868 117.102C275.403 116.625 277.449 114.576 277.925 112.039C278.781 107.5 274.879 103.581 270.346 104.45C267.812 104.927 265.766 106.976 265.29 109.513Z" fill="black"/>
<path opacity="0.1" d="M273.226 143.834H322.588L297.901 116.125L273.226 143.834Z" fill="black"/>
<path d="M254.284 143.834H295.033L274.665 125.786L254.284 143.834Z" fill="#FFC727"/>
<g opacity="0.2">
<path d="M254.284 143.834H295.033L274.665 125.786L254.284 143.834Z" fill="black"/>
</g>
<path d="M322.588 143.834H254.284V161.584H322.588V143.834Z" fill="#FFC727"/>
<path opacity="0.2" d="M322.588 143.834H254.284V161.584H322.588V143.834Z" fill="black"/>
<path d="M378.131 277.345H458.713V220.486H378.131V277.345Z" fill="#EBEBEB"/>
<path d="M380.915 274.558H455.929V223.274H380.915V274.558Z" fill="#455A64"/>
<path d="M389.166 235.502C388.524 238.909 391.451 241.84 394.853 241.196C396.757 240.839 398.292 239.302 398.649 237.396C399.291 233.989 396.364 231.059 392.962 231.702C391.058 232.071 389.523 233.608 389.166 235.502Z" fill="#37474F"/>
<path d="M395.115 261.245H455.923L425.525 240.458L395.115 261.245Z" fill="#37474F"/>
<path d="M380.91 261.245H422.432L401.671 247.712L380.91 261.245Z" fill="#263238"/>
<path d="M455.924 261.245H380.91V274.552H455.924V261.245Z" fill="#263238"/>
<path d="M234.095 187.708C240.442 187.708 245.587 182.556 245.587 176.201C245.587 169.845 240.442 164.693 234.095 164.693C227.747 164.693 222.602 169.845 222.602 176.201C222.602 182.556 227.747 187.708 234.095 187.708Z" fill="#455A64"/>
<path d="M235.903 179.608C236.26 179.977 236.26 180.537 235.903 180.894C235.713 181.061 235.498 181.156 235.272 181.156C235.034 181.156 234.797 181.073 234.618 180.894L230.609 176.82C230.561 176.808 230.549 176.772 230.537 176.737C230.525 176.725 230.49 176.713 230.49 176.713C230.466 176.665 230.466 176.641 230.442 176.594C230.418 176.582 230.394 176.546 230.394 176.534C230.383 176.51 230.383 176.463 230.371 176.451C230.371 176.403 230.347 176.391 230.347 176.379C230.347 176.332 230.347 176.308 230.347 176.284C230.347 176.26 230.335 176.236 230.335 176.201C230.335 176.189 230.347 176.141 230.347 176.129C230.347 176.105 230.347 176.058 230.347 176.034C230.347 176.01 230.371 175.986 230.371 175.974C230.383 175.927 230.383 175.903 230.394 175.855C230.394 175.843 230.406 175.843 230.406 175.831C230.43 175.784 230.454 175.736 230.478 175.7C230.478 175.7 230.478 175.676 230.502 175.676C230.513 175.653 230.549 175.605 230.585 175.581L234.594 171.507C234.951 171.162 235.534 171.162 235.879 171.507C236.236 171.864 236.236 172.436 235.879 172.794L232.5 176.213L235.903 179.608Z" fill="white"/>
<path d="M474.507 187.708C480.854 187.708 486 182.556 486 176.201C486 169.845 480.854 164.693 474.507 164.693C468.159 164.693 463.014 169.845 463.014 176.201C463.014 182.556 468.159 187.708 474.507 187.708Z" fill="#455A64"/>
<path d="M472.71 172.782C472.353 172.412 472.353 171.852 472.71 171.495C472.9 171.328 473.115 171.233 473.341 171.233C473.579 171.233 473.817 171.316 473.995 171.495L478.004 175.569C478.052 175.581 478.064 175.617 478.076 175.653C478.088 175.665 478.123 175.676 478.123 175.676C478.147 175.724 478.147 175.748 478.171 175.796C478.195 175.807 478.219 175.843 478.219 175.855C478.231 175.879 478.23 175.927 478.242 175.939C478.242 175.986 478.266 175.998 478.266 176.01C478.266 176.058 478.266 176.081 478.266 176.105C478.266 176.129 478.278 176.153 478.278 176.189C478.278 176.201 478.266 176.248 478.266 176.26C478.266 176.284 478.266 176.332 478.266 176.355C478.266 176.379 478.242 176.403 478.242 176.415C478.23 176.463 478.231 176.487 478.219 176.534C478.219 176.546 478.207 176.546 478.207 176.558C478.183 176.606 478.159 176.653 478.135 176.689C478.135 176.689 478.135 176.713 478.112 176.713C478.1 176.737 478.064 176.784 478.028 176.808L474.019 180.882C473.662 181.228 473.079 181.228 472.734 180.882C472.377 180.525 472.377 179.953 472.734 179.596L476.113 176.177L472.71 172.782Z" fill="white"/>
<path d="M450.974 330.267L474.543 306.668H450.974V330.267Z" fill="#EBEBEB"/>
</svg>
