<svg width="364" height="361" viewBox="0 0 364 361" fill="none" xmlns="http://www.w3.org/2000/svg">
<g clip-path="url(#clip0_546_1718)">
<path d="M311.916 0.44519H160.931V101.003H311.916V0.44519Z" stroke="#EBEBEB" stroke-miterlimit="10"/>
<path d="M167.899 4.74568C167.899 5.60043 167.212 6.28601 166.357 6.28601C165.502 6.28601 164.815 5.60043 164.815 4.74568C164.815 3.89092 165.502 3.20534 166.357 3.20534C167.212 3.20534 167.899 3.89092 167.899 4.74568Z" fill="#A6A6A6"/>
<path d="M174.198 4.74568C174.198 5.60043 173.512 6.28601 172.657 6.28601C171.801 6.28601 171.115 5.60043 171.115 4.74568C171.115 3.89092 171.801 3.20534 172.657 3.20534C173.503 3.20534 174.198 3.89092 174.198 4.74568Z" fill="#EBEBEB"/>
<path d="M180.489 4.74568C180.489 5.60043 179.803 6.28601 178.948 6.28601C178.092 6.28601 177.406 5.60043 177.406 4.74568C177.406 3.89092 178.092 3.20534 178.948 3.20534C179.794 3.20534 180.489 3.89092 180.489 4.74568Z" fill="#FFC727"/>
<path d="M160.931 9.36668H311.916" stroke="#EBEBEB" stroke-miterlimit="10"/>
<path d="M0 359.709C116.599 359.166 247.401 359.157 364 359.709C247.401 360.252 116.599 360.252 0 359.709Z" fill="#263238"/>
<path d="M337.766 246.846H175.33V16.5341H355.392V229.208L337.766 246.846Z" fill="white"/>
<path d="M337.766 246.846C337.686 246.873 175.312 246.926 175.232 246.944C175.17 246.926 175.152 16.5787 175.107 16.5342V16.3116H175.33C175.419 16.267 355.437 16.4362 355.526 16.4095C355.597 16.4184 355.365 229.163 355.41 229.208C355.41 229.217 337.766 246.837 337.766 246.846ZM337.766 246.846C337.757 246.855 355.41 229.172 355.392 229.208L355.276 16.5342C356.06 16.8013 175.161 16.6944 175.339 16.7567L175.562 16.5342L175.437 246.846C174.822 246.614 337.891 246.908 337.766 246.846Z" fill="#263238"/>
<path d="M355.401 16.5341H175.33V22.9537H355.401V16.5341Z" fill="#FFC727"/>
<path d="M180.044 19.7395C180.044 20.336 179.554 20.8257 178.957 20.8257C178.36 20.8257 177.87 20.336 177.87 19.7395C177.87 19.1429 178.36 18.6532 178.957 18.6532C179.563 18.6532 180.044 19.1429 180.044 19.7395Z" fill="#C7C7C7"/>
<path d="M184.482 19.7395C184.482 20.336 183.992 20.8257 183.395 20.8257C182.798 20.8257 182.308 20.336 182.308 19.7395C182.308 19.1429 182.798 18.6532 183.395 18.6532C183.992 18.6532 184.482 19.1429 184.482 19.7395Z" fill="white"/>
<path d="M188.919 19.7395C188.919 20.336 188.429 20.8257 187.832 20.8257C187.235 20.8257 186.745 20.336 186.745 19.7395C186.745 19.1429 187.235 18.6532 187.832 18.6532C188.429 18.6532 188.919 19.1429 188.919 19.7395Z" fill="#455A64"/>
<path d="M246.047 42.1144H243.133L242.545 43.6726C242.438 43.9397 242.188 44.0911 241.921 44.0911C241.841 44.0911 241.76 44.0822 241.689 44.0555C241.342 43.9219 241.172 43.539 241.288 43.1918L243.944 36.1312C244.051 35.8641 244.318 35.6949 244.576 35.7127C244.853 35.7038 245.102 35.8641 245.209 36.1312L247.864 43.1918C247.98 43.539 247.82 43.9219 247.472 44.0555C247.41 44.0822 247.33 44.0911 247.241 44.0911C246.973 44.0911 246.724 43.9397 246.626 43.6726L246.047 42.1144ZM245.557 40.7967L244.585 38.2235L243.614 40.7967H245.557Z" fill="#263238"/>
<path d="M255.073 43.1028C255.189 43.45 255.002 43.824 254.654 43.9397C254.61 43.9486 254.512 43.9753 254.387 43.9753C254.387 43.9753 254.387 43.9753 254.378 43.9753C254.262 43.9753 254.075 43.9486 253.906 43.8418C253.754 43.7438 253.621 43.5925 253.523 43.4233C253.353 43.076 253.273 42.6398 253.273 41.9809C253.264 41.7494 253.211 41.598 253.131 41.4645C253.059 41.3309 252.917 41.2152 252.774 41.1172C252.525 40.9481 252.213 40.8501 252.106 40.8323H250.689V43.4322C250.689 43.7883 250.386 44.0911 250.021 44.0911C249.646 44.0911 249.361 43.7883 249.361 43.4322V36.3627C249.361 35.9887 249.646 35.7038 250.021 35.7038C250.021 35.7038 250.021 35.7038 250.03 35.7038H252.168C253.594 35.7038 254.735 36.8524 254.735 38.277C254.735 39.0694 254.378 39.7639 253.799 40.2447C253.959 40.3604 254.102 40.5118 254.218 40.6899C254.458 41.0371 254.619 41.4823 254.619 41.9809C254.61 42.337 254.645 42.5685 254.663 42.6843C254.842 42.7555 255.002 42.898 255.073 43.1028ZM253.389 38.277C253.389 37.5825 252.837 37.0304 252.15 37.0304H250.671V39.4968H252.15C252.837 39.5057 253.389 38.9536 253.389 38.277Z" fill="#263238"/>
<path d="M261.908 37.0393H260.001V43.4411C260.001 43.8151 259.716 44.1 259.342 44.1C258.985 44.1 258.682 43.8151 258.682 43.4411V37.0393H256.784C256.41 37.0393 256.125 36.7277 256.125 36.3716C256.125 35.9976 256.41 35.7127 256.784 35.7127H261.908C262.265 35.7127 262.568 35.9976 262.568 36.3716C262.568 36.7188 262.274 37.0393 261.908 37.0393Z" fill="#263238"/>
<path d="M264.635 36.3627C264.635 35.9887 264.92 35.7038 265.294 35.7038C265.651 35.7038 265.962 35.9887 265.962 36.3627V43.4322C265.962 43.8061 265.651 44.0911 265.294 44.0911C264.92 44.0911 264.635 43.8061 264.635 43.4322V36.3627Z" fill="#263238"/>
<path d="M267.843 39.7817C267.852 37.4044 269.848 35.4812 272.245 35.4634C273.296 35.4634 274.259 35.8106 275.016 36.3983C275.301 36.6387 275.355 37.0572 275.132 37.3599C274.891 37.6626 274.446 37.7071 274.169 37.4934C273.644 37.0661 272.984 36.8346 272.236 36.8346C271.407 36.8346 270.641 37.1729 270.079 37.6982C269.536 38.2502 269.206 38.9714 269.206 39.7817C269.206 40.6008 269.545 41.3398 270.079 41.8651C270.641 42.3905 271.407 42.7288 272.236 42.7288C272.975 42.7288 273.626 42.4973 274.169 42.0699C274.446 41.8651 274.891 41.9186 275.132 42.2035C275.346 42.5062 275.301 42.9336 275.016 43.1651C274.259 43.7527 273.296 44.1 272.245 44.1C269.848 44.0911 267.861 42.1679 267.843 39.7817Z" fill="#263238"/>
<path d="M277.467 43.4322V36.3627C277.467 36.0065 277.752 35.7038 278.126 35.7038C278.5 35.7038 278.795 36.0065 278.795 36.3627V42.7644H282.047C282.394 42.7644 282.706 43.0671 282.706 43.4322C282.706 43.7883 282.394 44.0911 282.047 44.0911H278.162C278.135 44.0911 278.135 44.0911 278.135 44.0911C278.126 44.0911 278.126 44.0911 278.126 44.0911C277.761 44.0911 277.467 43.7972 277.467 43.4322Z" fill="#263238"/>
<path d="M284.229 43.4322V36.3627C284.229 35.9887 284.515 35.7038 284.889 35.7038H284.898C284.898 35.7038 284.898 35.7038 284.925 35.7038H288.81C289.157 35.7038 289.469 35.9887 289.469 36.3627C289.469 36.7366 289.157 37.0304 288.81 37.0304H285.557V39.2207H288.355C288.712 39.2207 289.015 39.5324 289.015 39.8796C289.015 40.2536 288.712 40.5474 288.355 40.5474H285.557V42.7555H288.81C289.157 42.7555 289.469 43.0582 289.469 43.4233C289.469 43.7794 289.157 44.0822 288.81 44.0822H284.925C284.898 44.0822 284.898 44.0733 284.898 44.0733L284.889 44.0822C284.515 44.0911 284.229 43.7972 284.229 43.4322Z" fill="#263238"/>
<path d="M296.973 39.9063C312.29 39.3098 327.724 39.3098 343.051 39.9063C327.724 40.5029 312.29 40.5029 296.973 39.9063Z" fill="#263238"/>
<path d="M187.672 39.9063C202.99 39.3098 218.423 39.3098 233.75 39.9063C218.423 40.5029 202.999 40.5029 187.672 39.9063Z" fill="#263238"/>
<path d="M343.051 48.7833H187.672V58.3548H343.051V48.7833Z" fill="#FFC727"/>
<path d="M318.706 67.8817C326.557 67.5879 335.2 67.5879 343.051 67.8817C335.2 68.1755 326.557 68.1755 318.706 67.8817Z" fill="#263238"/>
<path d="M289.47 67.8817C296.527 67.579 303.576 67.579 310.633 67.8817C303.585 68.1844 296.527 68.1844 289.47 67.8817Z" fill="#263238"/>
<path d="M252.035 67.8817C261.926 67.5879 272.815 67.5879 282.715 67.8817C272.815 68.1755 261.926 68.1755 252.035 67.8817Z" fill="#263238"/>
<path d="M328.437 74.8355C333.311 74.5328 338.176 74.5328 343.05 74.8355C338.185 75.1382 333.311 75.1382 328.437 74.8355Z" fill="#263238"/>
<path d="M298.639 74.8355C307.104 74.5417 316.416 74.5417 324.881 74.8355C316.416 75.1293 307.104 75.1293 298.639 74.8355Z" fill="#263238"/>
<path d="M252.035 74.8355C265.9 74.5417 281.156 74.5417 295.021 74.8355C281.156 75.1293 265.9 75.1293 252.035 74.8355Z" fill="#263238"/>
<path d="M297.543 81.7982C312.219 81.5044 328.375 81.5044 343.051 81.7982C328.375 82.092 312.219 82.092 297.543 81.7982Z" fill="#263238"/>
<path d="M252.035 81.7982C264.493 81.5044 278.197 81.5044 290.655 81.7982C278.197 82.092 264.493 82.092 252.035 81.7982Z" fill="#263238"/>
<path d="M312.932 88.752C322.644 88.4581 333.338 88.4581 343.05 88.752C333.338 89.0458 322.644 89.0458 312.932 88.752Z" fill="#263238"/>
<path d="M279.248 88.752C288.453 88.4581 298.585 88.4581 307.79 88.752C298.585 89.0458 288.453 89.0458 279.248 88.752Z" fill="#263238"/>
<path d="M252.035 88.752C259.404 88.4581 267.531 88.4581 274.9 88.752C267.531 89.0458 259.404 89.0458 252.035 88.752Z" fill="#263238"/>
<path d="M252.035 95.7146C271.826 95.4208 293.595 95.4208 313.386 95.7146C293.595 96.0085 271.826 96.0085 252.035 95.7146Z" fill="#263238"/>
<path d="M324.088 109.631C330.406 109.328 336.732 109.328 343.05 109.631C336.732 109.934 330.406 109.925 324.088 109.631Z" fill="#263238"/>
<path d="M287.055 109.631C296.99 109.337 307.933 109.337 317.868 109.631C307.933 109.925 296.99 109.916 287.055 109.631Z" fill="#263238"/>
<path d="M252.035 109.631C261.543 109.337 272.013 109.337 281.521 109.631C272.013 109.925 261.543 109.916 252.035 109.631Z" fill="#263238"/>
<path d="M302.461 116.585C315.551 116.291 329.96 116.291 343.05 116.585C329.96 116.879 315.551 116.879 302.461 116.585Z" fill="#263238"/>
<path d="M271.345 116.585C279.792 116.291 289.095 116.291 297.543 116.585C289.095 116.879 279.792 116.879 271.345 116.585Z" fill="#263238"/>
<path d="M252.035 116.585C257.417 116.282 262.799 116.282 268.182 116.585C262.799 116.888 257.417 116.888 252.035 116.585Z" fill="#263238"/>
<path d="M321.718 123.548C328.829 123.245 335.94 123.245 343.05 123.548C335.94 123.85 328.829 123.841 321.718 123.548Z" fill="#263238"/>
<path d="M290.654 123.548C298.95 123.254 308.084 123.254 316.389 123.548C308.093 123.841 298.95 123.832 290.654 123.548Z" fill="#263238"/>
<path d="M252.035 123.548C263.174 123.254 275.426 123.254 286.556 123.548C275.426 123.841 263.174 123.832 252.035 123.548Z" fill="#263238"/>
<path d="M309.18 130.501C320.104 130.208 332.125 130.208 343.05 130.501C332.125 130.795 320.104 130.795 309.18 130.501Z" fill="#263238"/>
<path d="M280.434 130.501C288.177 130.208 296.696 130.208 304.439 130.501C296.696 130.795 288.177 130.795 280.434 130.501Z" fill="#263238"/>
<path d="M243.891 130.501C254.726 130.208 266.64 130.208 277.476 130.501C266.64 130.795 254.717 130.795 243.891 130.501Z" fill="#263238"/>
<path d="M219.786 130.501C226.175 130.199 232.564 130.199 238.944 130.501C232.564 130.804 226.175 130.804 219.786 130.501Z" fill="#263238"/>
<path d="M187.832 130.501C196.93 130.208 206.937 130.208 216.035 130.501C206.937 130.795 196.921 130.795 187.832 130.501Z" fill="#263238"/>
<path d="M264.831 137.464C278.563 137.17 293.667 137.17 307.407 137.464C293.667 137.758 278.563 137.749 264.831 137.464Z" fill="#263238"/>
<path d="M234.507 137.464C243.525 137.17 253.442 137.17 262.46 137.464C253.442 137.758 243.516 137.749 234.507 137.464Z" fill="#263238"/>
<path d="M210.991 137.464C218.04 137.161 225.088 137.161 232.128 137.464C225.088 137.767 218.04 137.758 210.991 137.464Z" fill="#263238"/>
<path d="M187.832 137.464C194.497 137.161 201.172 137.161 207.837 137.464C201.163 137.767 194.497 137.758 187.832 137.464Z" fill="#263238"/>
<path d="M321.718 151.38C328.829 151.078 335.94 151.078 343.05 151.38C335.94 151.683 328.829 151.674 321.718 151.38Z" fill="#263238"/>
<path d="M295.021 151.38C302.657 151.087 311.069 151.087 318.706 151.38C311.069 151.674 302.657 151.665 295.021 151.38Z" fill="#263238"/>
<path d="M266.773 151.38C274.472 151.087 282.956 151.087 290.655 151.38C282.956 151.674 274.481 151.665 266.773 151.38Z" fill="#263238"/>
<path d="M249.611 151.38C253.889 151.078 258.175 151.078 262.452 151.38C258.175 151.683 253.897 151.683 249.611 151.38Z" fill="#263238"/>
<path d="M220.972 151.38C228.822 151.087 237.466 151.087 245.316 151.38C237.466 151.674 228.822 151.665 220.972 151.38Z" fill="#263238"/>
<path d="M187.832 151.38C197.393 151.087 207.908 151.087 217.47 151.38C207.908 151.674 197.384 151.665 187.832 151.38Z" fill="#263238"/>
<path d="M309.18 158.334C320.104 158.04 332.125 158.04 343.05 158.334C332.125 158.628 320.104 158.628 309.18 158.334Z" fill="#263238"/>
<path d="M284.443 158.334C291.501 158.032 298.558 158.032 305.616 158.334C298.558 158.637 291.501 158.637 284.443 158.334Z" fill="#263238"/>
<path d="M258.21 158.334C265.615 158.032 273.029 158.032 280.434 158.334C273.029 158.637 265.615 158.637 258.21 158.334Z" fill="#263238"/>
<path d="M211.98 158.334C225.454 158.04 240.281 158.04 253.764 158.334C240.29 158.628 225.463 158.628 211.98 158.334Z" fill="#263238"/>
<path d="M187.832 158.334C194.497 158.032 201.172 158.032 207.837 158.334C201.163 158.637 194.497 158.637 187.832 158.334Z" fill="#263238"/>
<path d="M239.987 165.297C252.079 165.003 265.383 165.003 277.475 165.297C265.383 165.591 252.079 165.582 239.987 165.297Z" fill="#263238"/>
<path d="M219.786 165.297C225.329 164.994 230.88 164.994 236.423 165.297C230.88 165.591 225.329 165.591 219.786 165.297Z" fill="#263238"/>
<path d="M187.832 165.297C196.725 165.003 206.5 165.003 215.393 165.297C206.5 165.591 196.716 165.582 187.832 165.297Z" fill="#263238"/>
<path d="M235.095 172.251C243.159 171.957 252.043 171.957 260.108 172.251C252.043 172.545 243.159 172.545 235.095 172.251Z" fill="#263238"/>
<path d="M209.468 172.251C216.828 171.948 224.189 171.948 231.54 172.251C224.18 172.553 216.819 172.553 209.468 172.251Z" fill="#263238"/>
<path d="M187.832 172.251C194.007 171.948 200.183 171.948 206.358 172.251C200.183 172.553 193.998 172.553 187.832 172.251Z" fill="#263238"/>
<path d="M245.315 186.167C255.688 185.873 267.094 185.873 277.466 186.167C267.103 186.461 255.688 186.461 245.315 186.167Z" fill="#263238"/>
<path d="M218.058 186.167C225.65 185.873 234.017 185.873 241.609 186.167C234.017 186.461 225.65 186.461 218.058 186.167Z" fill="#263238"/>
<path d="M187.832 186.167C196.342 185.873 205.698 185.873 214.208 186.167C205.698 186.461 196.333 186.461 187.832 186.167Z" fill="#263238"/>
<path d="M258.727 193.121C264.973 192.818 271.22 192.818 277.466 193.121C271.22 193.424 264.973 193.424 258.727 193.121Z" fill="#263238"/>
<path d="M232.128 193.121C239.346 192.827 247.285 192.827 254.503 193.121C247.294 193.415 239.346 193.415 232.128 193.121Z" fill="#263238"/>
<path d="M206.349 193.121C213.602 192.818 220.856 192.818 228.1 193.121C220.856 193.424 213.602 193.424 206.349 193.121Z" fill="#263238"/>
<path d="M187.832 193.121C192.769 192.818 197.714 192.818 202.651 193.121C197.705 193.424 192.769 193.424 187.832 193.121Z" fill="#263238"/>
<path d="M241.609 200.084C253.176 199.79 265.9 199.79 277.476 200.084C265.9 200.377 253.176 200.377 241.609 200.084Z" fill="#263238"/>
<path d="M217.229 200.084C224.019 199.781 230.818 199.781 237.617 200.084C230.818 200.386 224.019 200.386 217.229 200.084Z" fill="#263238"/>
<path d="M187.832 200.084C196.101 199.79 205.199 199.79 213.469 200.084C205.199 200.377 196.092 200.377 187.832 200.084Z" fill="#263238"/>
<path d="M187.832 207.037C203.506 206.744 220.749 206.744 236.432 207.037C220.749 207.331 203.506 207.331 187.832 207.037Z" fill="#263238"/>
<path d="M296.438 220.954C311.479 220.66 328.018 220.66 343.05 220.954C328.018 221.248 311.47 221.248 296.438 220.954Z" fill="#263238"/>
<path d="M268.182 220.954C276.193 220.66 285.014 220.66 293.025 220.954C285.014 221.248 276.193 221.248 268.182 220.954Z" fill="#263238"/>
<path d="M252.035 220.954C256.295 220.651 260.563 220.651 264.831 220.954C260.563 221.266 256.295 221.257 252.035 220.954Z" fill="#263238"/>
<path d="M218.058 220.954C227.868 220.66 238.668 220.66 248.479 220.954C238.668 221.248 227.868 221.248 218.058 220.954Z" fill="#263238"/>
<path d="M187.832 220.954C196.342 220.66 205.698 220.66 214.208 220.954C205.698 221.248 196.333 221.248 187.832 220.954Z" fill="#263238"/>
<path d="M310.062 227.917C320.702 227.623 332.411 227.623 343.051 227.917C332.411 228.21 320.702 228.21 310.062 227.917Z" fill="#263238"/>
<path d="M283.205 227.917C290.432 227.623 298.389 227.623 305.616 227.917C298.389 228.21 290.432 228.202 283.205 227.917Z" fill="#263238"/>
<path d="M259.538 227.917C266.301 227.614 273.074 227.614 279.837 227.917C273.074 228.219 266.301 228.21 259.538 227.917Z" fill="#263238"/>
<path d="M228.109 227.917C237.118 227.623 247.036 227.623 256.036 227.917C247.027 228.21 237.109 228.202 228.109 227.917Z" fill="#263238"/>
<path d="M205.716 227.917C212.069 227.614 218.423 227.614 224.776 227.917C218.414 228.219 212.06 228.21 205.716 227.917Z" fill="#263238"/>
<path d="M187.832 227.917C192.528 227.614 197.233 227.614 201.929 227.917C197.233 228.219 192.528 228.21 187.832 227.917Z" fill="#263238"/>
<path d="M266.773 234.87C275.052 234.577 284.159 234.577 292.428 234.87C284.159 235.164 275.052 235.164 266.773 234.87Z" fill="#263238"/>
<path d="M243.32 234.87C249.7 234.568 256.081 234.568 262.461 234.87C256.081 235.173 249.7 235.173 243.32 234.87Z" fill="#263238"/>
<path d="M217.229 234.87C224.562 234.577 232.644 234.577 239.987 234.87C232.644 235.164 224.562 235.164 217.229 234.87Z" fill="#263238"/>
<path d="M187.832 234.87C195.861 234.577 204.7 234.577 212.729 234.87C204.691 235.164 195.861 235.164 187.832 234.87Z" fill="#263238"/>
<path d="M187.679 123.542H244.388V66.8789H187.679V123.542Z" fill="#EBEBEB"/>
<path d="M190.45 120.773H241.607V69.6569H190.45V120.773Z" fill="#FFC727"/>
<path opacity="0.1" d="M198.694 81.8516C198.053 85.2439 200.976 88.1732 204.371 87.5232C206.269 87.1671 207.801 85.6357 208.158 83.7392C208.799 80.3469 205.877 77.4176 202.482 78.0675C200.584 78.4237 199.051 79.9551 198.694 81.8516Z" fill="black"/>
<path opacity="0.1" d="M204.638 107.503H241.609L223.119 86.7931L204.638 107.503Z" fill="black"/>
<path d="M190.452 107.503H220.972L205.716 94.014L190.452 107.503Z" fill="#FFC727"/>
<g opacity="0.2">
<path d="M190.452 107.503H220.972L205.716 94.014L190.452 107.503Z" fill="black"/>
</g>
<path d="M241.609 107.503H190.452V120.77H241.609V107.503Z" fill="#FFC727"/>
<path opacity="0.2" d="M241.609 107.503H190.452V120.77H241.609V107.503Z" fill="black"/>
<path d="M283.209 207.291H343.562V164.794H283.209V207.291Z" fill="#EBEBEB"/>
<path d="M285.295 205.208H341.478V166.877H285.295V205.208Z" fill="#455A64"/>
<path d="M291.474 176.017C290.993 178.563 293.185 180.754 295.733 180.273C297.159 180.006 298.309 178.857 298.576 177.433C299.057 174.886 296.865 172.696 294.317 173.177C292.891 173.453 291.741 174.601 291.474 176.017Z" fill="#37474F"/>
<path d="M295.93 195.258H341.473L318.706 179.721L295.93 195.258Z" fill="#37474F"/>
<path d="M285.29 195.258H316.389L300.839 185.143L285.29 195.258Z" fill="#263238"/>
<path d="M341.473 195.258H285.29V205.203H341.473V195.258Z" fill="#263238"/>
<path d="M175.331 140.295C180.085 140.295 183.938 136.445 183.938 131.694C183.938 126.944 180.085 123.093 175.331 123.093C170.577 123.093 166.723 126.944 166.723 131.694C166.723 136.445 170.577 140.295 175.331 140.295Z" fill="#455A64"/>
<path d="M176.685 134.241C176.952 134.517 176.952 134.935 176.685 135.202C176.542 135.327 176.382 135.398 176.213 135.398C176.034 135.398 175.856 135.336 175.723 135.202L172.72 132.157C172.684 132.149 172.675 132.122 172.666 132.095C172.657 132.086 172.63 132.077 172.63 132.077C172.613 132.042 172.613 132.024 172.595 131.988C172.577 131.979 172.559 131.953 172.559 131.944C172.55 131.926 172.55 131.89 172.541 131.881C172.541 131.846 172.524 131.837 172.524 131.828C172.524 131.792 172.524 131.775 172.524 131.757C172.524 131.739 172.515 131.721 172.515 131.694C172.515 131.686 172.524 131.65 172.524 131.641C172.524 131.623 172.524 131.588 172.524 131.57C172.524 131.552 172.541 131.534 172.541 131.525C172.55 131.49 172.55 131.472 172.559 131.436C172.559 131.427 172.568 131.427 172.568 131.418C172.586 131.383 172.604 131.347 172.622 131.32C172.622 131.32 172.622 131.303 172.639 131.303C172.648 131.285 172.675 131.249 172.702 131.231L175.705 128.186C175.972 127.928 176.409 127.928 176.667 128.186C176.934 128.454 176.934 128.881 176.667 129.148L174.136 131.703L176.685 134.241Z" fill="white"/>
<path d="M355.392 140.295C360.146 140.295 364 136.445 364 131.694C364 126.944 360.146 123.093 355.392 123.093C350.638 123.093 346.784 126.944 346.784 131.694C346.784 136.445 350.638 140.295 355.392 140.295Z" fill="#455A64"/>
<path d="M354.046 129.139C353.779 128.863 353.779 128.445 354.046 128.177C354.189 128.053 354.349 127.982 354.518 127.982C354.697 127.982 354.875 128.044 355.009 128.177L358.012 131.223C358.047 131.231 358.056 131.258 358.065 131.285C358.074 131.294 358.101 131.303 358.101 131.303C358.118 131.338 358.118 131.356 358.136 131.392C358.154 131.401 358.172 131.427 358.172 131.436C358.181 131.454 358.181 131.49 358.19 131.499C358.19 131.534 358.208 131.543 358.208 131.552C358.208 131.588 358.208 131.605 358.208 131.623C358.208 131.641 358.216 131.659 358.216 131.686C358.216 131.694 358.208 131.73 358.208 131.739C358.208 131.757 358.208 131.792 358.208 131.81C358.208 131.828 358.19 131.846 358.19 131.855C358.181 131.89 358.181 131.908 358.172 131.944C358.172 131.953 358.163 131.953 358.163 131.962C358.145 131.997 358.127 132.033 358.11 132.059C358.11 132.059 358.11 132.077 358.092 132.077C358.083 132.095 358.056 132.131 358.029 132.149L355.026 135.194C354.759 135.452 354.322 135.452 354.064 135.194C353.797 134.926 353.797 134.499 354.064 134.232L356.595 131.677L354.046 129.139Z" fill="white"/>
<path d="M337.767 246.846L355.419 229.208H337.767V246.846Z" fill="#EBEBEB"/>
<path d="M101.05 210.252C108.981 254.868 127.319 308.798 135.847 317.826C146.629 329.249 216.624 349.256 220.349 349.844C229.562 351.242 254.424 293.946 244.64 292.023C229.741 289.103 176.311 278.676 173.21 275.16C169.993 271.482 148.411 241.299 126.366 207.322C111.146 183.843 96.1311 182.57 101.05 210.252Z" fill="#D3766A"/>
<path d="M215.314 348.633C216.303 349.025 230.391 354.589 238.937 356.245C245.317 357.483 263.771 360.564 265.83 353.681C267.247 348.989 256.607 345.899 249.131 343.549C245.192 342.311 240.158 338.759 241.058 336.221C242.626 331.787 252.784 335.188 259.548 338.34C272.62 344.439 290.344 355.925 297.365 348.944C300.021 346.309 296.296 342.267 291.039 338.456C299.397 342.694 308.192 346.006 311.257 343.184C313.013 341.581 312.924 339.604 311.676 337.45C314.189 338.02 316.337 337.672 317.691 335.945C320.017 333.025 318.413 329.169 315.232 325.359C316.123 325.18 316.898 324.655 317.424 323.613C322.12 314.834 292.732 293.474 283.108 292.094C254.789 288.008 225.695 291.863 225.695 291.863C215.59 301.55 215.296 348.615 215.314 348.633Z" fill="#D3766A"/>
<path d="M253.783 319.464C260.403 319.901 267.051 321.761 272.914 324.913C280.364 328.911 285.514 333.924 291.903 338.857C292.073 338.99 291.877 339.248 291.707 339.124C288.66 336.782 276.14 328.065 272.932 326.115C267.051 322.545 260.635 320.248 253.774 319.589C253.693 319.571 253.702 319.455 253.783 319.464Z" fill="#263238"/>
<path d="M257.882 307.24C265.349 308.575 272.995 309.911 280.07 312.751C287.813 315.849 294.158 321.477 300.387 326.872C304.129 330.113 307.8 333.434 311.383 336.844C311.534 336.987 311.347 337.254 311.187 337.111C304.86 331.52 298.364 326.124 291.707 320.933C285.443 316.054 278.626 312.493 270.972 310.347C266.659 309.136 262.266 308.255 257.873 307.382C257.784 307.355 257.802 307.231 257.882 307.24Z" fill="#263238"/>
<path d="M264.743 296.261C271.952 297.08 278.243 297.766 284.846 300.989C293.596 305.263 302.373 312.991 305.448 315.734C308.852 318.761 312.149 321.904 315.401 325.1C315.535 325.234 315.312 325.465 315.178 325.332C307.782 318.378 299.896 311.852 291.654 305.904C287.715 303.064 283.5 300.66 278.875 299.146C274.295 297.65 269.483 297 264.734 296.297C264.707 296.306 264.707 296.261 264.743 296.261Z" fill="#263238"/>
<path d="M233.118 283.066L206.403 354.892C206.403 354.892 144.874 333.96 134.083 321.094C123.292 308.228 105.416 243.703 100.765 212.629C96.1134 181.555 111.645 183.095 124.985 203.209C138.324 223.322 171.588 272.114 173.531 273.236C175.465 274.367 233.118 283.066 233.118 283.066Z" fill="#FFC727"/>
<path d="M200.976 321.254C203.997 313.241 207.08 305.236 209.807 297.107C211.357 292.486 212.925 287.874 214.431 283.235C214.485 283.057 214.2 282.932 214.12 283.111C210.769 291.035 207.427 298.995 204.442 307.07C201.475 315.11 198.427 323.124 195.567 331.208C193.936 335.803 192.448 340.432 191.103 345.125C191.076 345.214 191.227 345.285 191.263 345.196C194.881 337.361 197.937 329.33 200.976 321.254Z" fill="#263238"/>
<path opacity="0.1" d="M175.42 343.29C174.511 342.925 173.611 342.551 172.702 342.186C167.596 340.067 162.392 337.815 157.5 335.526C156.867 335.242 156.244 334.948 155.638 334.645C154.657 334.182 153.677 333.701 152.724 333.229C152.243 332.998 151.779 332.757 151.307 332.526C151.138 332.437 150.968 332.357 150.799 332.268C150.3 332.009 149.819 331.76 149.338 331.502C147.404 330.496 145.568 329.49 143.857 328.484C143.465 328.252 143.064 328.021 142.681 327.78C139.571 325.893 137.005 324.058 135.232 322.34C135.027 322.135 134.813 321.93 134.626 321.717C134.421 321.512 134.243 321.307 134.082 321.111C123.282 308.246 105.416 243.721 100.764 212.638C100.711 212.273 100.666 211.917 100.613 211.569C100.604 211.489 100.595 211.418 100.586 211.338C100.292 208.978 100.061 206.067 99.918 202.924V202.888C99.8199 187.538 107.198 185.401 115.815 192.578C135.847 241.61 166.09 322.456 175.42 343.29Z" fill="black"/>
<path d="M146.316 359.469H0C6.17523 331.912 31.8296 228.611 77.2038 187.209C77.2127 187.2 77.2216 187.2 77.2216 187.191C77.5602 186.888 77.8899 186.586 78.2285 186.292C84.8136 180.451 99.677 181.76 109.381 186.577C109.844 186.808 110.441 187.334 111.154 188.108C115.048 192.391 122.097 204.34 126.017 216.564C126.017 216.573 126.017 216.573 126.026 216.582C126.721 218.737 127.31 220.9 127.764 223.037C127.862 223.456 127.951 223.946 128.058 224.524V224.533C128.156 224.961 128.236 225.441 128.334 225.967C128.459 226.697 128.593 227.507 128.744 228.397C132.692 252.17 142.708 329.65 146.316 359.469Z" fill="#FFC727"/>
<path d="M100.523 223.402L107.447 212.878L114.638 221.319L112.82 229.297L104.676 230.623L100.523 223.402Z" fill="#263238"/>
<path d="M104.676 230.623L103.856 322.616L115.788 351.224L126.597 320.266L112.821 229.297L104.676 230.623Z" fill="#263238"/>
<path d="M60.7634 211.881C38.2368 260.914 22.9546 342.249 36.909 354.607C52.4496 368.381 81.7218 310.641 80.4565 307.756C79.503 305.575 80.198 253.105 81.2584 214.748C82.3188 176.435 66.3327 199.763 60.7634 211.881Z" fill="#D3766A"/>
<path d="M80.8131 307.694C80.5368 302.209 82.1942 232.76 81.9982 211.062C81.8022 189.364 73.3458 185.695 60.3448 210.35C47.3438 235.004 28.1944 297.089 29.8429 331.84C31.429 365.327 47.0231 362.959 62.4389 341.661C75.0656 324.237 80.8131 307.694 80.8131 307.694Z" fill="#FFC727"/>
<path d="M80.6344 316.66C79.8057 290.696 80.1799 264.689 81.8017 238.761C82.6393 264.724 82.2472 290.732 80.6344 316.66Z" fill="#263238"/>
<path d="M81.8369 253.835C82.2023 250.416 83.0844 247.122 84.127 243.854C83.9844 247.3 83.0933 250.639 81.8369 253.835Z" fill="#263238"/>
<path d="M40.8297 355.311C53.5276 364.116 80.1355 359.299 140.614 349.505C148.981 348.152 151.289 285.105 142.28 286.093C130.927 287.34 87.1483 294.632 84.0117 295.567C57.591 303.464 32.2218 349.345 40.8297 355.311Z" fill="#D3766A"/>
<path d="M153.65 282.345C171.24 278.979 176.275 280.813 189.615 270.093C198.365 263.059 206.617 265.624 201.965 276.335C194.355 293.848 172.568 302.948 164.112 303.927L153.65 282.345Z" fill="#D3766A"/>
<path d="M115.021 297.419C115.021 297.419 126.802 289.726 145.194 284.286C157.909 280.528 186.496 275.427 215.465 302.396C222.335 308.789 227.584 322.776 212.569 316.401C201.902 311.869 196.502 305.779 189.819 304.275C189.819 304.275 194.382 322.857 187.707 329.481C184.722 332.446 176.382 340.335 169.012 345.552C169.012 345.552 167.444 344.252 165.689 342.329C165.689 342.329 159.594 349.301 139.491 349.719L115.021 297.419Z" fill="#D3766A"/>
<path d="M157.909 282.63C164.227 285.523 177.522 291.89 186.576 300.864C196.636 310.837 213.335 332.766 205.885 340.112C200.423 345.499 193.312 337.69 193.312 337.69C193.312 337.69 198.302 348.205 192.305 351.998C186.843 355.453 181.701 349.078 181.701 349.078C181.701 349.078 183.626 355.978 177.727 358.293C170.625 361.071 167.747 346.158 158.114 342.765C155.958 342 157.909 282.63 157.909 282.63Z" fill="#D3766A"/>
<path d="M174.252 309.733C179.75 313.428 190.077 325.02 193.401 337.405C193.472 337.69 193.303 337.895 193.178 337.655C186.62 324.798 178.065 314.131 174.154 309.831C174.109 309.768 174.189 309.697 174.252 309.733Z" fill="#263238"/>
<path d="M164.468 320.177C168.878 323.854 178.992 336.283 181.924 348.944C181.986 349.229 181.799 349.425 181.692 349.176C175.392 335.455 168.005 324.798 164.37 320.266C164.325 320.203 164.414 320.132 164.468 320.177Z" fill="#263238"/>
<path d="M189.81 304.15C195.674 305.557 199.568 308.192 204.611 311.326C207.106 312.876 209.637 314.389 212.293 315.653C214.707 316.802 218.272 318.547 220.678 316.437C222.014 315.262 221.89 313.241 221.506 311.674C221.07 309.902 219.136 306.696 217.996 305.272C217.942 305.201 218.067 305.094 218.12 305.165C219.163 306.429 221.239 309.323 221.89 310.837C222.478 312.208 222.959 313.81 222.638 315.315C221.952 318.538 218.218 319.144 215.518 318.405C213.905 317.96 212.355 317.194 210.858 316.437C209.414 315.707 208.015 314.906 206.625 314.069C203.783 312.359 201.047 310.48 198.231 308.735C195.13 306.821 193.018 305.913 189.73 304.346C189.623 304.292 189.695 304.123 189.81 304.15Z" fill="#263238"/>
<path d="M202.936 323.836C201.278 320.622 192.492 307.329 189.703 304.292C189.632 304.212 189.739 304.105 189.819 304.177C194.533 308.21 202.348 319.162 204.21 322.705C206.055 326.204 208.211 330.692 208.416 334.69C208.728 340.717 204.78 342.062 203.319 342.436C201.572 342.881 199.772 342.596 198.142 341.857C196.333 341.029 194.524 339.222 193.267 337.726C193.205 337.646 193.303 337.53 193.383 337.61C195.593 339.88 199.184 342.044 202.446 341.448C203.862 341.189 205.261 340.468 206.072 339.248C207.026 337.815 207.008 335.99 206.785 334.342C206.277 330.612 204.647 327.139 202.936 323.836Z" fill="#263238"/>
<path d="M131.935 285.007L103.598 358.525C103.598 358.525 50.0172 365.657 37.8182 355.693C29.7895 349.131 53.733 301.265 83.5399 294.454L131.935 285.007Z" fill="#FFC727"/>
<path d="M53.1892 316.214C56.4951 311.175 66.404 298.576 83.5663 294.392C83.7178 294.356 83.8069 294.587 83.6643 294.641C71.1802 298.995 56.9763 311.798 53.3763 316.375C53.2872 316.499 53.109 316.348 53.1892 316.214Z" fill="#263238"/>
<path d="M86.6404 354.482C89.3226 346.229 92.4414 338.135 95.5869 330.042C98.7325 321.948 101.86 313.837 105.211 305.824C107.1 301.292 108.971 296.751 111.012 292.29C111.065 292.174 111.27 292.237 111.234 292.361C108.561 300.597 105.469 308.718 102.386 316.82C99.2939 324.94 96.1127 333.025 92.8602 341.082C91.0246 345.632 89.0998 350.155 87.0592 354.616C86.9612 354.839 86.5692 354.723 86.6404 354.482Z" fill="#263238"/>
<path d="M131.757 284.259C128.371 284.41 125.065 285.069 121.732 285.675C118.408 286.271 115.084 286.93 111.779 287.625C105.193 288.996 91.0786 291.142 79.637 295.54C79.5123 295.585 80.3945 295.959 80.5192 295.905C85.8657 293.537 127.934 286.414 131.231 285.417C131.186 285.675 131.142 285.933 131.133 286.2C131.124 286.387 131.365 286.53 131.489 286.351C131.792 285.924 131.944 285.479 132.211 285.043C132.416 284.678 132.193 284.241 131.757 284.259Z" fill="#263238"/>
<path d="M48.2702 359.905C37.8445 358.204 33.2108 354.376 30.7247 343.941C27.5614 330.051 29.4772 315.636 31.5356 301.728C35.3405 279.505 41.4356 257.744 48.3148 236.295C45.8821 246.08 42.3623 259.391 40.1168 269.034C35.3673 290.403 24.7633 331.796 34.5207 351.491C37.399 356.931 42.7009 358.48 48.2702 359.905Z" fill="#263238"/>
<path d="M45.3113 238.298C44.9193 241.735 44.3222 245.056 44.6965 248.52C43.3955 245.252 44.0282 241.459 45.3113 238.298Z" fill="#263238"/>
<path d="M107.705 212.771C99.0082 213.519 86.4706 198.57 82.3092 187.334C82.024 186.559 84.225 179.205 86.4795 170.149C87.825 164.647 89.1884 158.486 90.026 152.769C90.1953 151.594 124.6 166.739 124.6 166.739C124.6 166.739 119.316 178.198 117.908 188.162C117.801 188.999 117.766 189.782 117.81 190.539C117.81 190.646 117.819 190.779 117.801 190.931C117.872 195.507 116.108 212.041 107.705 212.771Z" fill="#D3766A"/>
<path d="M92.2002 153.25C92.4408 163.151 95.0249 187.36 114.085 190.61C115.413 190.842 116.643 190.948 117.783 190.948C117.819 190.788 117.792 190.664 117.792 190.548C117.765 189.782 117.783 189.007 117.881 188.171C119.289 178.189 124.582 166.73 124.582 166.73C124.582 166.73 99.7744 155.815 92.2002 153.25Z" fill="#263238"/>
<path d="M95.462 107.841C88.7076 119.443 86.8274 157.097 93.8313 167.238C103.99 181.938 124.841 188.001 138.403 174.842C151.547 162.083 153.124 112.961 144.908 103.318C132.816 89.1081 105.442 90.7019 95.462 107.841Z" fill="#D3766A"/>
<path d="M88.8148 135.701C93.8494 137.972 99.6682 130.902 101.513 127.821C103.366 124.75 104.409 109.747 107.724 105.224C111.038 100.701 116.929 98.8042 121.063 100.745C125.198 102.686 129.929 109.23 133.164 109.426C136.408 109.622 138.234 102.829 140.453 103.167C145.354 103.915 149.836 119.87 149.899 125.364C149.899 125.364 154.541 99.1871 129.261 93.6312C106.565 88.6451 96.2019 100.763 93.1543 107.352C87.3088 119.986 88.8148 135.701 88.8148 135.701Z" fill="#263238"/>
<path d="M118.514 151.861C113.658 150.989 109.799 146.911 109.434 141.765C108.997 135.683 113.595 130.377 119.681 129.949C125.768 129.513 131.07 134.107 131.506 140.189C131.943 146.27 127.345 151.567 121.259 152.004C120.323 152.075 119.405 152.022 118.514 151.861ZM122.168 131.543C121.401 131.41 120.599 131.356 119.788 131.418C114.513 131.792 110.53 136.387 110.904 141.658C111.287 146.929 115.877 150.909 121.152 150.526C126.427 150.152 130.41 145.557 130.036 140.286C129.715 135.835 126.382 132.3 122.168 131.543Z" fill="#EBEBEB"/>
<path d="M143.874 153.277C139.704 152.529 136.692 147.588 137.048 141.827C137.226 138.924 138.224 136.226 139.855 134.25C141.539 132.202 143.705 131.151 145.95 131.285C148.205 131.418 150.21 132.727 151.635 134.962C153.016 137.126 153.676 139.913 153.498 142.824C153.123 148.905 149.131 153.633 144.605 153.357C144.346 153.348 144.114 153.321 143.874 153.277ZM146.413 132.834C146.226 132.798 146.048 132.781 145.852 132.763C144.097 132.656 142.368 133.52 140.987 135.185C139.552 136.921 138.679 139.316 138.518 141.907C138.198 147.178 140.951 151.657 144.685 151.879C148.401 152.111 151.689 147.997 152.018 142.726C152.179 140.126 151.6 137.651 150.388 135.755C149.345 134.134 147.946 133.11 146.413 132.834Z" fill="#EBEBEB"/>
<path d="M131.06 141.444L130.178 140.26C131.942 138.96 135.925 137.304 138.447 140.349L137.306 141.293C135.061 138.55 131.229 141.328 131.06 141.444Z" fill="#EBEBEB"/>
<path d="M84.3407 141.916L83.0664 141.159C83.4228 140.571 86.6218 135.363 89.9456 135.033C93.0555 134.731 110.075 137.152 110.913 137.286L110.681 138.746C105.041 137.865 92.4941 136.262 90.0971 136.502C87.8961 136.725 85.1961 140.482 84.3407 141.916Z" fill="#EBEBEB"/>
<path d="M96.2727 139.076C96.2727 139.076 90.5697 125.595 84.6173 127.385C78.6648 129.175 81.2044 147.49 86.9608 151.149C92.7172 154.808 96.2103 149.555 96.2103 149.555L96.2727 139.076Z" fill="#D3766A"/>
<path d="M85.4813 132.62C85.3833 132.594 85.3298 132.727 85.41 132.781C89.411 135.487 90.8546 140.046 91.5675 144.605C90.614 142.708 89.0279 141.435 86.515 142.521C86.3813 142.575 86.4526 142.78 86.5863 142.78C88.4665 142.78 89.6962 143.367 90.5962 145.059C91.2378 146.261 91.5496 147.677 91.915 148.977C92.0397 149.413 92.7882 149.35 92.7348 148.87C92.7348 148.834 92.7259 148.798 92.717 148.763C94.0358 143.207 91.3625 134.463 85.4813 132.62Z" fill="#263238"/>
<path d="M117.837 189.871L106.939 208.409L83.8335 180.389L77.0791 189.043C77.0791 189.043 97.3068 229.439 97.6276 227.73L107.376 212.237L117.998 224.738L119.86 196.175L117.837 189.871Z" fill="#FFC727"/>
<path d="M119.744 210.679C119.887 205.951 120.172 201.197 120.083 196.469C120.083 196.3 119.815 196.202 119.753 196.389C118.318 200.823 117.873 218.906 117.427 223.207C117.409 223.189 117.392 223.171 117.383 223.153C116.937 222.61 107.492 212.095 107.367 212.237C105.344 214.65 98.2065 225.931 97.6896 226.964C94.4906 220.553 80.7501 195.151 76.8204 188.99C76.7046 188.812 76.4283 188.918 76.5085 189.123C79.2263 195.828 96.9233 229.306 97.2263 229.252C97.4134 229.421 106.28 215.54 107.438 212.86C108.989 215.104 118.425 226.848 118.523 226.154C119.236 221.479 119.601 215.416 119.744 210.679Z" fill="#263238"/>
<path d="M248.907 354.011H107.581V359.709H248.907V354.011Z" fill="#455A64"/>
<path d="M185.783 354.011H107.581V359.709H185.783V354.011Z" fill="#A6A6A6"/>
<path d="M183.412 359.7H307.273L324.774 275.64H200.913L183.412 359.7Z" fill="#A6A6A6"/>
<path d="M189.026 359.7H312.887L330.388 275.64H206.527L189.026 359.7Z" fill="#C7C7C7"/>
<path d="M251.456 319.553C250.975 324.112 254.28 327.798 258.843 327.798C263.405 327.798 267.486 324.103 267.968 319.553C268.449 314.995 265.143 311.309 260.58 311.309C256.018 311.3 251.928 314.995 251.456 319.553Z" fill="#EBEBEB"/>
</g>
<defs>
<clipPath id="clip0_546_1718">
<rect width="364" height="361" fill="white"/>
</clipPath>
</defs>
</svg>
