<svg width="656" height="482" viewBox="0 0 656 482" fill="none" xmlns="http://www.w3.org/2000/svg">
<g clip-path="url(#clip0_344_7137)">
<path d="M274.059 145.284C269.026 152.953 265.633 161.379 263.823 170.077L249.979 171.378V198.184L263.823 199.484C265.621 208.171 269.014 216.597 274.048 224.277L265.203 234.954L284.16 253.911L294.837 245.066C302.506 250.099 310.932 253.492 319.63 255.291L320.931 269.135H347.737L349.038 255.291C357.725 253.481 366.151 250.099 373.831 245.055L384.508 253.9L403.465 234.943L394.62 224.266C399.654 216.597 403.047 208.171 404.845 199.473L418.689 198.172V171.366L404.845 170.066C403.035 161.379 399.654 152.953 394.609 145.273L403.454 134.596L384.497 115.639L373.82 124.484C366.151 119.451 357.725 116.058 349.027 114.248L347.726 100.404H320.919L319.619 114.248C310.932 116.058 302.506 119.44 294.826 124.473L284.148 115.628L265.191 134.584L274.059 145.284ZM360.021 159.117C374.193 173.289 374.193 196.272 360.021 210.444C345.848 224.617 322.865 224.617 308.693 210.444C294.52 196.272 294.52 173.289 308.693 159.117C322.865 144.945 345.837 144.945 360.021 159.117Z" fill="#E0E0E0"/>
<path d="M151.746 98.4133C148.907 102.734 147.006 107.473 145.988 112.371L138.195 113.106V128.194L145.988 128.929C147.006 133.815 148.907 138.566 151.746 142.886L146.769 148.892L157.435 159.558L163.441 154.582C167.762 157.421 172.501 159.321 177.398 160.339L178.134 168.132H193.222L193.957 160.339C198.843 159.321 203.594 157.421 207.915 154.582L213.921 159.558L224.587 148.892L219.61 142.886C222.449 138.566 224.349 133.827 225.367 128.929L233.16 128.194V113.106L225.367 112.371C224.349 107.484 222.449 102.734 219.61 98.4246L224.587 92.4187L213.921 81.7529L207.915 86.7295C203.594 83.8906 198.855 81.9904 193.957 80.9724L193.222 73.1794H178.134L177.398 80.9724C172.512 81.9904 167.762 83.8906 163.452 86.7295L157.446 81.7529L146.78 92.4187L151.746 98.4133ZM200.122 106.195C208.096 114.169 208.096 127.108 200.122 135.082C192.148 143.056 179.208 143.056 171.234 135.082C163.26 127.108 163.26 114.169 171.234 106.195C179.208 98.2211 192.136 98.2211 200.122 106.195Z" fill="#E0E0E0"/>
<path d="M192.442 32.8346C191.028 34.9949 190.066 37.3588 189.569 39.8132L185.678 40.1752V47.7193L189.569 48.0812C190.078 50.5243 191.028 52.8996 192.442 55.0599L189.953 58.0685L195.281 63.3958L198.289 60.9074C200.45 62.3213 202.813 63.2827 205.257 63.7803L205.619 67.6712H213.163L213.525 63.7803C215.968 63.2713 218.343 62.3213 220.503 60.9074L223.512 63.3958L228.84 58.0685L226.351 55.0599C227.765 52.8996 228.726 50.5356 229.224 48.0812L233.115 47.7193V40.1752L229.224 39.8132C228.715 37.3701 227.765 34.9949 226.351 32.8459L228.84 29.8373L223.512 24.51L220.503 26.9983C218.343 25.5845 215.979 24.6231 213.536 24.1255L213.174 20.2346H205.63L205.268 24.1255C202.825 24.6344 200.45 25.5845 198.301 26.9983L195.292 24.51L189.964 29.8373L192.442 32.8346ZM216.624 36.7254C220.605 40.7068 220.605 47.1764 216.624 51.1577C212.643 55.1504 206.173 55.139 202.191 51.1577C198.21 47.1764 198.21 40.7068 202.191 36.7254C206.173 32.7441 212.643 32.7441 216.624 36.7254Z" fill="#E0E0E0"/>
<path d="M131.398 254.646L82.7393 264.226C80.5903 264.645 78.4978 263.253 78.0793 261.093L65.3321 196.351C64.9136 194.202 66.3048 192.11 68.4652 191.691L117.124 182.111C119.273 181.693 121.365 183.084 121.784 185.244L134.52 249.986C134.95 252.135 133.547 254.216 131.398 254.646Z" fill="#E6E6E6"/>
<path d="M112.656 204.405L81.0312 210.625C79.9454 210.84 78.8935 210.128 78.6786 209.042L78.509 208.16C78.2941 207.074 79.0066 206.022 80.0925 205.807L111.717 199.586C112.803 199.371 113.855 200.084 114.07 201.17L114.24 202.052C114.454 203.127 113.742 204.19 112.656 204.405Z" fill="#F0F0F0"/>
<path d="M115.088 216.722L83.4629 222.943C82.3771 223.158 81.3252 222.445 81.1103 221.359L80.9406 220.477C80.7257 219.391 81.4383 218.339 82.5241 218.124L114.149 211.903C115.235 211.689 116.287 212.401 116.502 213.487L116.671 214.369C116.875 215.455 116.174 216.507 115.088 216.722Z" fill="#F0F0F0"/>
<path d="M117.508 229.05L85.8828 235.271C84.797 235.486 83.7451 234.773 83.5302 233.687L83.3605 232.805C83.1456 231.719 83.8582 230.668 84.944 230.453L116.569 224.232C117.655 224.017 118.707 224.73 118.921 225.815L119.091 226.698C119.306 227.772 118.593 228.835 117.508 229.05Z" fill="#F0F0F0"/>
<path d="M103.11 244.682L88.3047 247.588C87.2189 247.803 86.167 247.091 85.9521 246.005L85.7824 245.123C85.5675 244.037 86.2801 242.985 87.3659 242.77L102.172 239.863C103.257 239.648 104.309 240.361 104.524 241.447L104.694 242.329C104.909 243.415 104.196 244.467 103.11 244.682Z" fill="#F0F0F0"/>
<path d="M178.767 319.806L147.968 316.13C145.785 315.87 144.235 313.891 144.495 311.719L149.483 269.904C149.743 267.721 151.723 266.172 153.895 266.432L184.694 270.108C186.877 270.368 188.426 272.347 188.166 274.519L183.178 316.334C182.918 318.506 180.938 320.067 178.767 319.806Z" fill="#E6E6E6"/>
<path d="M178.144 283.646L157.072 281.136C156.156 281.022 155.511 280.197 155.624 279.292C155.737 278.376 156.563 277.731 157.468 277.833L178.54 280.344C179.456 280.457 180.101 281.283 179.988 282.187C179.886 283.104 179.06 283.748 178.144 283.646Z" fill="#F0F0F0"/>
<path d="M177.138 292.084L156.066 289.573C155.15 289.46 154.505 288.635 154.618 287.73C154.731 286.814 155.557 286.169 156.462 286.282L177.534 288.793C178.45 288.906 179.095 289.732 178.993 290.636C178.88 291.553 178.054 292.197 177.138 292.084Z" fill="#F0F0F0"/>
<path d="M176.132 300.533L155.06 298.022C154.144 297.909 153.499 297.083 153.612 296.179C153.726 295.262 154.551 294.618 155.456 294.731L176.528 297.242C177.444 297.355 178.089 298.181 177.976 299.085C177.874 299.99 177.048 300.646 176.132 300.533Z" fill="#F0F0F0"/>
<path d="M163.599 307.602L154.052 306.46C153.136 306.347 152.492 305.521 152.605 304.616C152.718 303.7 153.543 303.055 154.448 303.157L163.995 304.3C164.911 304.413 165.555 305.238 165.442 306.143C165.329 307.059 164.504 307.704 163.599 307.602Z" fill="#F0F0F0"/>
<path d="M483.196 245.677C480.47 249.828 478.637 254.397 477.653 259.102L470.154 259.804V274.326L477.653 275.028C478.626 279.733 480.47 284.302 483.196 288.453L478.411 294.233L488.681 304.503L494.461 299.719C498.612 302.445 503.182 304.277 507.887 305.261L508.588 312.76H523.111L523.812 305.261C528.518 304.288 533.087 302.445 537.238 299.719L543.018 304.503L553.288 294.233L548.504 288.453C551.23 284.302 553.062 279.733 554.046 275.028L561.545 274.326V259.804L554.046 259.102C553.073 254.397 551.23 249.828 548.504 245.677L553.288 239.897L543.018 229.627L537.238 234.411C533.087 231.686 528.518 229.842 523.812 228.869L523.111 221.37H508.588L507.887 228.869C503.182 229.842 498.612 231.686 494.461 234.411L488.681 229.627L478.411 239.897L483.196 245.677ZM529.739 253.176C537.419 260.856 537.419 273.297 529.739 280.966C522.059 288.646 509.617 288.646 501.937 280.966C494.257 273.286 494.257 260.844 501.937 253.164C509.629 245.496 522.071 245.496 529.739 253.176Z" fill="#E0E0E0"/>
<path d="M573.083 280.038C571.793 281.995 570.934 284.155 570.47 286.372L566.93 286.7V293.555L570.47 293.883C570.934 296.099 571.793 298.26 573.083 300.216L570.821 302.942L575.662 307.783L578.387 305.521C580.344 306.811 582.505 307.67 584.721 308.134L585.049 311.674H591.904L592.232 308.134C594.449 307.67 596.609 306.811 598.566 305.521L601.292 307.783L606.133 302.942L603.871 300.216C605.16 298.26 606.02 296.099 606.483 293.883L610.024 293.555V286.7L606.483 286.372C606.02 284.155 605.16 281.995 603.871 280.038L606.133 277.313L601.292 272.472L598.566 274.734C596.609 273.444 594.449 272.585 592.232 272.121L591.904 268.581H585.049L584.721 272.121C582.505 272.585 580.344 273.444 578.387 274.734L575.662 272.472L570.821 277.313L573.083 280.038ZM595.048 283.579C598.668 287.198 598.668 293.068 595.048 296.699C591.429 300.318 585.558 300.318 581.928 296.699C578.308 293.08 578.308 287.209 581.928 283.579C585.558 279.948 591.429 279.948 595.048 283.579Z" fill="#E0E0E0"/>
<path d="M512.163 175.789C510.873 177.746 510.014 179.906 509.55 182.123L506.01 182.451V189.305L509.55 189.633C510.014 191.85 510.873 194.01 512.163 195.967L509.901 198.693L514.742 203.534L517.468 201.272C519.424 202.561 521.585 203.421 523.802 203.884L524.13 207.425H530.984L531.312 203.884C533.529 203.421 535.689 202.561 537.646 201.272L540.372 203.534L545.213 198.693L542.951 195.967C544.24 194.01 545.1 191.85 545.563 189.633L549.104 189.305V182.451L545.563 182.123C545.1 179.906 544.24 177.746 542.951 175.789L545.213 173.063L540.372 168.222L537.646 170.484C535.689 169.195 533.529 168.335 531.312 167.872L530.984 164.331H524.13L523.802 167.872C521.585 168.335 519.424 169.195 517.468 170.484L514.742 168.222L509.901 173.063L512.163 175.789ZM534.128 179.318C537.748 182.937 537.748 188.807 534.128 192.438C530.509 196.057 524.639 196.057 521.008 192.438C517.388 188.819 517.388 182.948 521.008 179.318C524.639 175.698 530.509 175.698 534.128 179.318Z" fill="#F5F5F5"/>
<path d="M568.027 200.932C565.606 204.608 563.989 208.657 563.118 212.831L556.479 213.453V226.313L563.118 226.935C563.978 231.109 565.606 235.147 568.027 238.834L563.785 243.958L572.879 253.051L578.003 248.81C581.679 251.23 585.728 252.848 589.89 253.719L590.513 260.358H603.373L603.995 253.719C608.169 252.848 612.207 251.23 615.894 248.81L621.018 253.051L630.111 243.958L625.87 238.834C628.29 235.158 629.908 231.109 630.779 226.935L637.418 226.313V213.453L630.779 212.831C629.908 208.657 628.29 204.619 625.87 200.943L630.111 195.82L621.018 186.726L615.894 190.968C612.207 188.547 608.169 186.93 603.995 186.059L603.373 179.419H590.513L589.89 186.059C585.717 186.93 581.679 188.547 578.003 190.968L572.879 186.726L563.785 195.82L568.027 200.932ZM609.266 207.571C616.063 214.369 616.063 225.397 609.266 232.195C602.468 238.992 591.44 238.992 584.642 232.195C577.845 225.397 577.845 214.369 584.642 207.571C591.44 200.774 602.468 200.774 609.266 207.571Z" fill="#F5F5F5"/>
<path d="M109.568 21.5467C107.453 24.7589 106.039 28.2991 105.281 31.9411L99.4785 32.484V43.7154L105.281 44.2583C106.039 47.9003 107.453 51.4292 109.568 54.6527L105.858 59.1317L113.798 67.0718L118.277 63.3619C121.489 65.477 125.029 66.8908 128.672 67.6486L129.214 73.4509H140.446L140.989 67.6486C144.631 66.8908 148.16 65.477 151.383 63.3619L155.863 67.0718L163.803 59.1317L160.093 54.6527C162.208 51.4405 163.622 47.9003 164.38 44.2583L170.182 43.7154V32.484L164.38 31.9411C163.622 28.2991 162.208 24.7702 160.093 21.5467L163.803 17.0677L155.863 9.1277L151.383 12.8376C148.171 10.7225 144.631 9.30867 140.989 8.55086L140.446 2.74854H129.214L128.672 8.55086C125.029 9.30867 121.501 10.7225 118.277 12.8376L113.798 9.1277L105.858 17.0677L109.568 21.5467ZM145.592 27.349C151.531 33.2871 151.531 42.9237 145.592 48.8617C139.654 54.7998 130.017 54.7998 124.079 48.8617C118.141 42.9237 118.141 33.2871 124.079 27.349C130.029 21.3997 139.654 21.3997 145.592 27.349Z" fill="#F5F5F5"/>
<path d="M656.002 456.325C656.002 460.159 527.184 463.258 368.279 463.258C209.375 463.258 80.5566 460.148 80.5566 456.325C80.5566 452.491 209.375 449.392 368.279 449.392C527.184 449.392 656.002 452.502 656.002 456.325Z" fill="#F5F5F5"/>
<path d="M148.331 154.966H29.3644C26.8081 154.966 24.7383 152.896 24.7383 150.34V83.4947C24.7383 80.9385 26.8081 78.8687 29.3644 78.8687H148.331C150.887 78.8687 152.957 80.9385 152.957 83.4947V150.329C152.968 152.885 150.887 154.966 148.331 154.966Z" fill="#FFC727"/>
<path opacity="0.8" d="M148.331 154.966H29.3644C26.8081 154.966 24.7383 152.896 24.7383 150.34V83.4947C24.7383 80.9385 26.8081 78.8687 29.3644 78.8687H148.331C150.887 78.8687 152.957 80.9385 152.957 83.4947V150.329C152.968 152.885 150.887 154.966 148.331 154.966Z" fill="white"/>
<path d="M44.0117 121.136C44.5659 120.639 59.5753 105.822 59.5753 105.822L74.381 113.106L88.8475 96.0833L103.653 117.415L118.086 107.993" stroke="#263238" stroke-width="0.5" stroke-miterlimit="10"/>
<path d="M48.6596 127.798H41.7148V143.169H48.6596V127.798Z" fill="#FFC727"/>
<path d="M62.9467 117.641H56.002V143.181H62.9467V117.641Z" fill="#FFC727"/>
<path d="M77.5034 120.209H70.5586V143.181H77.5034V120.209Z" fill="#FFC727"/>
<path d="M92.3315 105.811H85.3867V143.181H92.3315V105.811Z" fill="#FFC727"/>
<path d="M107.306 125.626H100.361V143.18H107.306V125.626Z" fill="#FFC727"/>
<path d="M48.9084 119.394C48.9084 121.453 47.2345 123.127 45.1759 123.127C43.1173 123.127 41.4434 121.453 41.4434 119.394C41.4434 117.336 43.1173 115.662 45.1759 115.662C47.2345 115.662 48.9084 117.336 48.9084 119.394Z" fill="#FFC727"/>
<path d="M63.1956 105.81C63.1956 107.869 61.5216 109.543 59.463 109.543C57.4045 109.543 55.7305 107.869 55.7305 105.81C55.7305 103.752 57.4045 102.078 59.463 102.078C61.5329 102.089 63.1956 103.752 63.1956 105.81Z" fill="#FFC727"/>
<path d="M78.1135 111.93C78.1135 113.988 76.4395 115.662 74.381 115.662C72.3224 115.662 70.6484 113.988 70.6484 111.93C70.6484 109.871 72.3224 108.197 74.381 108.197C76.4395 108.208 78.1135 109.871 78.1135 111.93Z" fill="#FFC727"/>
<path d="M92.5803 96.0721C92.5803 98.1306 90.9063 99.8046 88.8478 99.8046C86.7892 99.8046 85.1152 98.1306 85.1152 96.0721C85.1152 94.0136 86.7892 92.3396 88.8478 92.3396C90.9063 92.3509 92.5803 94.0136 92.5803 96.0721Z" fill="#FFC727"/>
<path d="M107.385 117.404C107.385 119.462 105.711 121.136 103.652 121.136C101.594 121.136 99.9199 119.462 99.9199 117.404C99.9199 115.345 101.594 113.671 103.652 113.671C105.711 113.671 107.385 115.345 107.385 117.404Z" fill="#FFC727"/>
<path d="M122.134 116.827H115.189V143.181H122.134V116.827Z" fill="#FFC727"/>
<path opacity="0.3" d="M62.9467 117.641H56.002V143.181H62.9467V117.641Z" fill="black"/>
<path opacity="0.3" d="M92.3315 105.811H85.3867V143.181H92.3315V105.811Z" fill="black"/>
<path opacity="0.3" d="M122.134 116.827H115.189V143.181H122.134V116.827Z" fill="black"/>
<path d="M137.496 125.626H130.551V143.18H137.496V125.626Z" fill="#FFC727"/>
<path d="M118.086 107.982L134.011 116.827" stroke="#263238" stroke-width="0.5" stroke-miterlimit="10"/>
<path d="M122.655 107.982C122.655 110.041 120.981 111.714 118.922 111.714C116.863 111.714 115.189 110.041 115.189 107.982C115.189 105.923 116.863 104.25 118.922 104.25C120.981 104.25 122.655 105.923 122.655 107.982Z" fill="#FFC727"/>
<path d="M134.012 120.559C136.073 120.559 137.744 118.888 137.744 116.827C137.744 114.766 136.073 113.094 134.012 113.094C131.95 113.094 130.279 114.766 130.279 116.827C130.279 118.888 131.95 120.559 134.012 120.559Z" fill="#FFC727"/>
<path d="M558.05 147.071L570.729 206.791C571.306 209.506 568.501 211.7 566.001 210.467L521.708 188.672C519.774 187.722 519.243 185.211 520.623 183.548L552.236 145.624C554.012 143.497 557.473 144.357 558.05 147.071Z" fill="#FFC727"/>
<path opacity="0.3" d="M558.05 147.071L570.729 206.791C571.306 209.506 568.501 211.7 566.001 210.467L521.708 188.672C519.774 187.722 519.243 185.211 520.623 183.548L552.236 145.624C554.012 143.497 557.473 144.357 558.05 147.071Z" fill="black"/>
<path d="M560.809 196.725L555.888 162.601C576.994 159.558 595.205 146.325 604.581 127.21C620.213 95.3368 607.013 56.6885 575.139 41.046C543.266 25.4148 504.617 38.6142 488.974 70.4874C482.21 84.2863 480.593 100.065 484.427 114.915L451.038 123.545C445.145 100.721 447.622 76.4934 458.017 55.3087C482.029 6.36781 541.377 -13.9234 590.318 10.089C639.26 34.1013 659.54 93.4479 635.539 142.389C621.14 171.751 593.203 192.065 560.809 196.725Z" fill="#FFC727"/>
<g opacity="0.3">
<path d="M560.809 196.725L555.888 162.601C576.994 159.558 595.205 146.325 604.581 127.21C620.213 95.3368 607.013 56.6885 575.139 41.046C543.266 25.4148 504.617 38.6142 488.974 70.4874C482.21 84.2863 480.593 100.065 484.427 114.915L451.038 123.545C445.145 100.721 447.622 76.4934 458.017 55.3087C482.029 6.36781 541.377 -13.9234 590.318 10.089C639.26 34.1013 659.54 93.4479 635.539 142.389C621.14 171.751 593.203 192.065 560.809 196.725Z" fill="black"/>
</g>
<path d="M561.848 131.828C583.097 125.867 595.49 103.809 589.529 82.5605C583.568 61.3121 561.51 48.9191 540.261 54.8801C519.013 60.841 506.619 82.8986 512.581 104.147C518.542 125.396 540.599 137.788 561.848 131.828Z" fill="#FFC727"/>
<path opacity="0.3" d="M561.848 131.828C583.097 125.867 595.49 103.809 589.529 82.5605C583.568 61.3121 561.51 48.9191 540.261 54.8801C519.013 60.841 506.619 82.8986 512.581 104.147C518.542 125.396 540.599 137.788 561.848 131.828Z" fill="black"/>
<path d="M573.859 122.419C591.128 108.677 593.987 83.5366 580.245 66.2673C566.502 48.998 541.361 46.139 524.092 59.8816C506.822 73.6243 503.963 98.7645 517.706 116.034C531.449 133.303 556.589 136.162 573.859 122.419Z" fill="#FFC727"/>
<path d="M577.438 108.228C586.854 92.4979 581.736 72.1124 566.005 62.6961C550.274 53.2797 529.888 58.3984 520.472 74.1289C511.055 89.8595 516.174 110.245 531.905 119.661C547.636 129.078 568.021 123.959 577.438 108.228Z" fill="white"/>
<path d="M533.03 114.723L537.441 108.186C537.565 108.276 537.701 108.355 537.837 108.446L533.584 115.085C533.403 114.972 533.211 114.848 533.03 114.723ZM524.23 105.2C524.117 105.007 524.015 104.815 523.913 104.623L530.869 100.913C530.937 101.049 531.016 101.184 531.095 101.32L524.23 105.2ZM545.799 119.44L546.67 111.602L547.157 111.647L546.433 119.496C546.229 119.485 546.014 119.462 545.799 119.44ZM520.543 92.1021C520.531 91.8872 520.531 91.661 520.531 91.4461L528.415 91.3669L528.426 91.842L520.543 92.1021ZM559.293 117.664L556.42 110.323L556.861 110.142L560.006 117.37L559.813 117.449C559.689 117.506 559.497 117.585 559.293 117.664ZM523.359 78.8009C523.449 78.5973 523.551 78.405 523.653 78.2127L530.677 81.7982C530.609 81.9339 530.541 82.0809 530.473 82.2167L523.359 78.8009ZM564.53 104.612C564.632 104.498 564.722 104.385 564.813 104.272L570.898 109.283C570.751 109.453 570.604 109.633 570.457 109.803L564.53 104.612ZM536.728 74.6499L532.057 68.3047L532.566 67.9314L537.135 74.3558L536.728 74.6499ZM568.986 95.8572L569.088 95.3935L576.802 97.0448C576.757 97.2597 576.712 97.4633 576.655 97.6782L568.986 95.8572ZM545.811 70.8495L544.589 63.0566C544.793 63.0226 545.008 62.9887 545.223 62.9661L546.297 70.7704L545.811 70.8495ZM568.873 86.0283C568.839 85.8813 568.794 85.7342 568.749 85.5872L576.327 83.4269C576.384 83.6418 576.452 83.8567 576.497 84.0716L568.873 86.0283ZM555.606 71.7204L558.151 64.2555C558.366 64.3233 558.581 64.4025 558.784 64.4817L556.024 71.8675C555.889 71.8109 555.753 71.7657 555.606 71.7204ZM564.213 77.3644L563.897 77.0138L569.62 71.5847C569.767 71.7431 569.914 71.9014 570.061 72.0711L564.213 77.3644Z" fill="black"/>
<path d="M540.607 78.8235L548.536 92.464L561.363 79.9885" stroke="black" stroke-miterlimit="10" stroke-linecap="round" stroke-linejoin="round"/>
<path d="M550.854 93.0748C549.949 94.104 548.389 94.2058 547.359 93.301C546.33 92.3961 546.228 90.8353 547.133 89.806C548.038 88.7767 549.599 88.6749 550.628 89.5798C551.646 90.4846 551.748 92.0455 550.854 93.0748Z" fill="black"/>
<path opacity="0.3" d="M526.809 69.7977C539.963 57.028 560.99 57.3334 573.76 70.4989C576.893 73.7338 579.234 77.4436 580.795 81.3797C579.313 76.437 576.678 71.7657 572.843 67.807C560.074 54.6528 539.047 54.3361 525.893 67.1058C515.973 76.7424 513.36 91.0615 518.156 103.164C514.718 91.6836 517.613 78.733 526.809 69.7977Z" fill="black"/>
<path d="M215.854 328.346C187.011 296.36 171.131 255.019 171.131 211.915C171.131 132.956 224.404 63.7916 300.673 43.7153L287.858 59.8103L310.309 80.339C250.657 96.038 208.999 150.148 208.999 211.926C208.999 245.643 221.418 277.98 243.972 302.999L215.854 328.346Z" fill="#FFC727"/>
<path d="M219.597 330.517C221 330.167 267.363 330.517 267.363 330.517L243.983 302.988L215.854 328.346L219.597 330.517Z" fill="#FFC727"/>
<g opacity="0.3">
<path d="M215.854 328.346C187.011 296.36 171.131 255.019 171.131 211.915C171.131 132.956 224.404 63.7916 300.673 43.7153L287.858 59.8103L310.309 80.339C250.657 96.038 208.999 150.148 208.999 211.926C208.999 245.643 221.418 277.98 243.972 302.999L215.854 328.346Z" fill="black"/>
<path d="M219.597 330.517C221 330.167 267.363 330.517 267.363 330.517L243.983 302.988L215.854 328.346L219.597 330.517Z" fill="black"/>
</g>
<path d="M561.838 392.137V331.083C561.838 328.301 565.039 326.751 567.222 328.47L606.029 358.997C607.726 360.332 607.726 362.9 606.029 364.234L567.222 394.761C565.05 396.481 561.838 394.92 561.838 392.137Z" fill="#FFC727"/>
<path d="M568.138 343.468H352.453V379.764H568.138V343.468Z" fill="#FFC727"/>
<path opacity="0.3" d="M605.69 358.997L566.883 328.47C564.7 326.751 561.499 328.312 561.499 331.083V343.457H343.27V379.752H561.499V392.126C561.499 394.908 564.7 396.458 566.883 394.739L605.69 364.212C607.387 362.9 607.387 360.332 605.69 358.997Z" fill="black"/>
<path d="M343.224 38.094V75.2945C416.925 75.2945 476.883 135.252 476.883 208.951C476.883 282.651 416.925 342.609 343.224 342.609H104.443V379.809H343.236C437.454 379.809 514.096 303.157 514.096 208.951C514.096 114.746 437.443 38.094 343.224 38.094Z" fill="#FFC727"/>
<path d="M350.452 26.297L350.327 87.3514C350.327 90.1338 347.115 91.6834 344.932 89.9529L306.193 59.3465C304.496 58.0118 304.507 55.4443 306.204 54.1097L345.068 23.6616C347.262 21.9537 350.463 23.5146 350.452 26.297Z" fill="#FFC727"/>
<path opacity="0.3" d="M350.429 343.694C351.164 343.694 335.273 353.761 324.528 353.67L323.51 380.827H316.406L302.822 344.531L350.429 343.694Z" fill="black"/>
<path d="M337.32 155.769C342.308 163.641 344.14 168.403 344.909 176.139C345.814 185.176 345.78 193.196 343.869 195.616C341.358 198.783 312.809 202.979 296.703 203.07C296.115 203.07 295.402 197.991 295.402 197.991C295.402 197.991 293.355 203.081 292.597 203.081C288.209 203.081 285.381 203.059 285.381 203.059C285.381 203.059 288.672 195.401 291.873 168.211C293.434 154.921 306.453 149.051 314.223 147.693C327.174 145.431 337.32 155.769 337.32 155.769Z" fill="#263238"/>
<path d="M300.277 183.005C295.73 175.924 290.651 156.516 307.9 149.65C329.425 141.088 339.876 154.581 342.398 168.324C344.92 182.066 337.614 192.879 323.102 192.494C308.59 192.133 303.421 187.902 300.277 183.005Z" fill="#263238"/>
<path d="M336.28 209.11C336.28 209.11 331.439 212.831 325.195 218.203C323.894 219.323 322.469 220.296 320.954 221.099C316.87 223.271 313.138 224.515 312.131 222.547C311.905 222.117 311.735 221.642 311.611 221.155C310.751 217.853 311.102 213.215 313.771 211.1C316.78 208.703 318.228 206.655 317.685 203.421C317.402 201.588 316.735 199.688 315.954 197.844L318.318 195.073L330.692 182.586C330.387 190.922 329.765 204.586 336.28 209.11Z" fill="#EBB373"/>
<path opacity="0.2" d="M317.787 204.122C321.192 202.097 324.924 198.602 324.472 194.598C324.268 192.913 323.906 191.318 323.51 190.289L316.6 199.439C317.165 200.909 317.369 201.893 317.787 204.122Z" fill="black"/>
<path d="M334.21 169.183C333.045 181.896 332.819 187.292 326.258 193.954C316.384 203.986 301.205 200.604 298.592 188.004C296.24 176.66 298.536 157.771 311.023 152.432C323.318 147.173 335.375 156.47 334.21 169.183Z" fill="#EBB373"/>
<path d="M323.579 157.873C319.529 162.125 321.543 178.164 332.899 180.268C345.985 177.191 335.658 145.194 323.579 157.873Z" fill="#263238"/>
<path d="M314.225 170.903L317.143 171.593C315.819 173.074 314.225 170.903 314.225 170.903Z" fill="#263238"/>
<path d="M301.182 170.767L304.1 171.457C302.776 172.95 301.182 170.767 301.182 170.767Z" fill="#263238"/>
<path d="M311.102 149.707C306.08 151.414 300.753 160.101 299.859 163.438C306.996 164.603 326.247 157.918 326.247 157.918C326.247 157.918 339.096 161.47 332.581 154.955C326.078 148.451 311.102 149.707 311.102 149.707Z" fill="#263238"/>
<path d="M338.056 179.544C336.551 182.157 334.108 183.785 331.88 184.351C328.51 185.199 326.779 179.782 327.921 176.411C328.951 173.38 332.265 171.366 335.533 172.034C338.757 172.678 339.764 176.558 338.056 179.544Z" fill="#EBB373"/>
<path d="M293.695 165.756C292.982 171.355 292.247 176.999 290.369 182.315C288.481 187.631 284.567 198.602 279.873 201.735" stroke="#263238" stroke-width="0.5" stroke-miterlimit="10"/>
<path d="M333.225 186.398C334.537 186.398 335.6 185.335 335.6 184.023C335.6 182.711 334.537 181.648 333.225 181.648C331.913 181.648 330.85 182.711 330.85 184.023C330.85 185.335 331.913 186.398 333.225 186.398Z" fill="#FFC727"/>
<path opacity="0.1" d="M335.385 175.913C334.266 175.597 332.999 175.823 332.06 176.513C331.121 177.203 330.522 178.334 330.477 179.499" stroke="black" stroke-width="0.5" stroke-miterlimit="10" stroke-linecap="round" stroke-linejoin="round"/>
<path d="M236.247 290.987C236.881 289.234 241.405 283.364 243.803 281.181C246.212 278.998 254.729 274.202 254.729 274.202L261.923 281.011C261.923 281.011 261.244 284.913 258.36 286.35C256.697 287.175 254.967 287.843 254.967 287.843C254.967 287.843 254.989 289.37 254.593 290.976C254.152 292.752 253.236 294.844 251.8 294.414C250.363 293.973 251.008 289.143 251.11 288.453C251.008 289.155 250.193 294.064 248.191 293.736C246.269 293.419 247.23 288.329 247.23 288.329C247.23 288.329 246.54 290.636 246.178 291.824C245.816 293 244.357 293.736 243.588 292.129C242.694 290.263 243.26 287.583 243.26 287.583C243.26 287.583 241.846 288.883 239.471 291.881C237.752 294.03 235.704 292.469 236.247 290.987Z" fill="#EBB373"/>
<path opacity="0.1" d="M250.939 289.358C251.12 288.442 251.313 287.526 251.663 286.666C252.014 285.807 252.546 284.992 253.303 284.449" stroke="black" stroke-width="0.5" stroke-miterlimit="10" stroke-linecap="round" stroke-linejoin="round"/>
<path opacity="0.1" d="M246.959 289.019C247.14 288.103 247.332 287.187 247.683 286.327C248.034 285.467 248.565 284.653 249.323 284.11" stroke="black" stroke-width="0.5" stroke-miterlimit="10" stroke-linecap="round" stroke-linejoin="round"/>
<path opacity="0.1" d="M243.248 287.73C243.429 286.813 243.621 285.897 243.972 285.038C244.323 284.178 244.854 283.364 245.612 282.821" stroke="black" stroke-width="0.5" stroke-miterlimit="10" stroke-linecap="round" stroke-linejoin="round"/>
<path d="M292.497 227.976C292.497 228.779 290.234 257.632 290.234 257.632C288.628 260.641 255.59 272.11 251.359 276.306L259.062 284.235C259.062 284.235 298.378 276.306 304.723 271.691C310.141 267.755 309.689 260.844 309.689 251.411C309.689 241.978 312.98 228.801 312.98 228.801L292.497 227.976Z" fill="#EBB373"/>
<path d="M307.46 210.919C291.874 213.589 289.736 236.662 289.736 236.662L287.372 254.985L278.527 261.432L286.795 279.088C286.795 279.088 304.44 272.37 312.211 267.778C319.97 263.186 320.173 227.987 320.173 227.987L307.46 210.919Z" fill="#FFC727"/>
<path opacity="0.2" d="M304.656 270.571C304.95 270.707 298.13 274.508 298.13 274.508C298.05 274.553 295.664 264.43 295.585 264.486C291.83 247.521 294.363 234.004 294.363 234.004C297.213 239.92 303.943 265.617 304.656 270.571Z" fill="black"/>
<path d="M308.084 291.451C321.069 290.15 337.978 289.121 359.966 288.623C359.966 288.623 376.367 327.249 356.924 338.785C351.053 342.269 341.349 343.649 330.683 343.875C318.298 344.135 308.095 334.216 308.095 321.831V291.451H308.084Z" fill="#263238"/>
<path d="M350.555 323.256V341.398C334.381 346.058 300.822 344.282 280.858 342.654C271.878 341.919 264.967 334.42 264.967 325.405V310.52C264.967 305.589 268.021 301.167 272.635 299.436C282.306 295.794 299.906 290.376 318.331 290.659C336.191 290.931 350.555 305.408 350.555 323.256Z" fill="#263238"/>
<path d="M362.895 288.623C360.384 285.309 354.559 277.38 353.824 269.033C353.824 269.01 353.824 268.988 353.824 268.965C353.779 268.434 353.756 267.891 353.756 267.359C353.62 263.808 353.643 259.611 353.88 254.567C353.914 253.775 353.96 252.949 354.005 252.112C354.152 249.466 354.355 246.616 354.604 243.516C355.079 237.952 355.758 231.606 356.663 224.402C356.866 222.728 358.439 220.137 358.676 218.384C359.728 210.523 352.568 204.846 344.832 205.162C342.773 205.241 340.579 205.377 338.362 205.603C329.687 206.418 322.561 207.164 315.017 208.963C312.517 209.551 309.927 210.252 307.461 210.965C298.582 213.521 294.488 224.888 294.375 234.038C294.262 242.566 300.245 259.973 304.339 275.265C304.939 284.031 300.154 288.815 301.591 291.869C303.027 294.923 345.431 286.621 362.895 297.038C362.895 296.993 365.576 292.163 362.895 288.623Z" fill="#FFC727"/>
<path opacity="0.3" d="M362.895 288.623C360.384 285.309 354.559 277.38 353.824 269.033C353.824 269.01 353.824 268.988 353.824 268.965C353.779 268.434 353.756 267.891 353.756 267.359C353.62 263.808 353.643 259.611 353.88 254.567C353.914 253.775 353.96 252.949 354.005 252.112C354.152 249.466 354.355 246.616 354.604 243.516C355.079 237.952 355.758 231.606 356.663 224.402C356.866 222.728 358.439 220.137 358.676 218.384C359.728 210.523 352.568 204.846 344.832 205.162C342.773 205.241 340.579 205.377 338.362 205.603C329.687 206.418 322.561 207.164 315.017 208.963C312.517 209.551 309.927 210.252 307.461 210.965C298.582 213.521 294.488 224.888 294.375 234.038C294.262 242.566 300.245 259.973 304.339 275.265C304.939 284.031 300.154 288.815 301.591 291.869C303.027 294.923 345.431 286.621 362.895 297.038C362.895 296.993 365.576 292.163 362.895 288.623Z" fill="white"/>
<path opacity="0.2" d="M356.142 277.539C356.142 277.539 341.178 280.83 334.221 281.135C327.254 281.452 312.199 286.203 312.199 286.203L306.838 289.528L304.949 285.106L313.964 276.951L353.551 268.931C354.038 272.234 355.859 276.871 356.142 277.539Z" fill="black"/>
<path opacity="0.2" d="M339.007 228.27L337.118 253.843L328.635 262.156L334.573 266.771L342.649 261.896L346.822 247.52L339.007 228.27Z" fill="black"/>
<path d="M275.033 461.754L294.883 452.999L301.161 445.987L303.106 448.622L305.481 447.593C306.59 438.782 302.303 434.665 300.063 432.787C299.905 432.64 299.668 432.482 299.407 432.267C299.317 432.199 299.226 432.12 299.136 432.075C299.102 432.052 299.068 432.018 299.034 432.007C298.944 431.939 298.842 431.86 298.729 431.769C298.706 431.747 298.695 431.747 298.661 431.735V431.713C298.604 431.679 298.559 431.645 298.48 431.611L287.576 436.429C287.576 436.429 287.395 436.995 287.056 437.934C285.97 440.999 283.278 447.989 280.292 451.721C280.168 451.88 280.043 452.038 279.919 452.185C279.557 452.615 279.184 452.988 278.811 453.293C270.475 459.989 275.033 461.754 275.033 461.754Z" fill="#263238"/>
<path d="M279.885 452.128C282.984 453.339 287.372 450.274 290.709 446.258C292.587 443.996 294.385 440.377 295.969 437.447C296.998 435.559 297.948 433.952 298.774 433.183C299.237 432.776 299.667 432.595 300.04 432.776C300.04 432.776 300.018 432.753 300.018 432.742C299.86 432.595 299.622 432.437 299.362 432.222C299.294 432.165 299.203 432.097 299.09 432.03C299.056 432.007 299.023 431.973 298.989 431.962C298.898 431.894 298.796 431.815 298.683 431.736C298.661 431.713 298.649 431.713 298.615 431.702V431.679C298.559 431.645 298.514 431.611 298.434 431.577C297.292 430.718 296.025 429.847 296.025 429.847L285.766 432.414L286.569 436.339C285.427 440.388 283.018 448.091 280.258 451.676C280.134 451.823 280.009 451.981 279.885 452.128Z" fill="#EBB373"/>
<path d="M263.191 375.782C269.525 391.504 279.343 411.535 286.604 436.656C286.751 437.108 286.875 437.572 287 438.024C287.147 438.511 287.283 438.986 287.43 439.472L294.917 437.64L295.245 436.339C295.245 436.339 297.836 434.326 297.394 433.873C297.112 433.579 297.304 433.025 297.247 432.55V432.539C295.234 415.019 287.452 350.718 279.75 337.36C279.75 337.36 288.482 338.989 295.11 337.869C299.883 337.066 305.674 304.028 305.674 304.028C305.674 304.028 293.504 300.533 281.017 300.533H280.847C280.847 300.533 256.303 307.794 250.059 313.291C244.189 318.46 243.318 326.932 246.564 336.998C249.539 346.216 255.352 356.294 263.191 375.782Z" fill="#EBB373"/>
<path opacity="0.1" d="M256.179 321.231C257.627 315.519 268.146 309.932 279.015 306.935C280.78 304.65 276.267 301.947 276.267 301.947L297.655 300.013L301.388 302.705L307.767 304.039L302.078 329.59L278.71 333.684L293.493 402.272L295.235 415.822C295.235 415.822 270.204 362.085 264.967 350.661C259.731 339.226 253.657 331.128 256.179 321.231Z" fill="black"/>
<path d="M305.674 304.028C305.674 304.028 272.296 311.097 265.781 316.243C260.227 320.632 260.08 326.355 261.879 331.761C266.855 346.703 284.704 371.62 305.131 443.148L316.837 439.472C315.718 439.472 312.777 402.136 311.906 372.14C311.499 357.991 304.237 345.798 301.398 340.866C301.398 340.866 313.331 342.472 319.948 341.364C328.442 339.939 333.826 311.549 305.674 304.028Z" fill="#EBB373"/>
<path opacity="0.2" d="M302.077 342.201C302.077 342.201 297.643 334.861 292.123 331.761C292.123 331.761 298.921 332.203 303.162 341.07L301.387 340.855L302.077 342.201Z" fill="black"/>
<path d="M320.797 454.866L318.354 455.397L316.329 452.027C316.08 451.62 315.526 451.541 315.164 451.857L308.231 458.282L289.296 462.433C289.296 462.433 285.077 457.976 294.488 455.137C294.94 455.002 295.325 454.651 295.755 454.312C300.415 450.738 306.002 440.897 306.002 440.897L317.223 438.432C317.223 438.432 317.743 438.907 318.501 439.845C320.277 442.051 323.523 446.768 320.797 454.866Z" fill="#263238"/>
<path d="M318.5 439.845C318.5 439.868 318.512 439.879 318.512 439.879C316.668 438.556 311.521 447.288 307.122 450.839C303.197 454.006 298.458 456.065 295.766 454.312C300.426 450.737 306.251 438.318 306.251 438.318L315.277 436.339C315.277 436.339 317.742 438.907 318.5 439.845Z" fill="#EBB373"/>
<path d="M284.126 308.869L317.029 296.348C317.764 296.066 317.583 294.901 316.803 294.889L263.993 294.256C263.868 294.256 263.744 294.29 263.631 294.358L243.328 307.512C242.729 307.908 242.977 308.914 243.679 308.914H283.888C283.967 308.903 284.047 308.892 284.126 308.869Z" fill="#263238"/>
<path opacity="0.7" d="M284.126 308.869L317.029 296.348C317.764 296.066 317.583 294.901 316.803 294.889L263.993 294.256C263.868 294.256 263.744 294.29 263.631 294.358L243.328 307.512C242.729 307.908 242.977 308.914 243.679 308.914H283.888C283.967 308.903 284.047 308.892 284.126 308.869Z" fill="white"/>
<path opacity="0.7" d="M284.24 305.137L305.459 297.31L280.598 296.789L284.24 305.137Z" fill="white"/>
<path opacity="0.3" d="M317.028 296.348L284.125 308.869C284.046 308.892 283.978 308.914 283.899 308.914H283.39L282.768 307.105L316.813 294.9C317.582 294.889 317.763 296.065 317.028 296.348Z" fill="black"/>
<path d="M241.168 308.903H284.013C284.749 308.903 285.348 308.417 285.337 307.817C285.337 307.704 285.314 307.591 285.269 307.489L266.21 263.796C265.724 262.552 264.299 261.693 262.67 261.693H219.802C219.078 261.693 218.49 262.168 218.49 262.745C218.49 262.869 218.513 262.982 218.569 263.106L237.628 306.799C238.114 308.043 239.54 308.892 241.168 308.903Z" fill="#263238"/>
<path opacity="0.7" d="M219.802 261.693H262.67C264.299 261.704 265.735 262.552 266.21 263.796L285.269 307.489C285.314 307.591 285.337 307.704 285.337 307.817C285.348 308.405 284.749 308.892 284.013 308.903H241.168C239.54 308.892 238.114 308.043 237.628 306.799L218.569 263.106C218.513 262.993 218.49 262.869 218.49 262.745C218.49 262.168 219.067 261.693 219.802 261.693Z" fill="white"/>
<path d="M246.348 286.271C247.275 288.363 249.153 289.811 250.544 289.517C251.947 289.223 252.32 287.311 251.415 285.207C250.522 283.104 248.621 281.701 247.219 281.995C245.828 282.289 245.409 284.122 246.348 286.271Z" fill="white"/>
<path opacity="0.3" d="M262.41 261.693H262.67C264.299 261.704 265.736 262.552 266.211 263.796L285.269 307.489C285.314 307.591 285.337 307.704 285.337 307.817C285.348 308.405 284.749 308.892 284.014 308.903H282.645L262.41 261.693Z" fill="black"/>
<path d="M339.831 225.849C339.831 226.652 342.41 255.234 342.41 255.234C340.804 258.243 307.765 269.712 303.535 273.908L311.238 281.837C311.238 281.837 350.554 273.908 356.899 269.293C362.317 265.357 361.865 258.446 361.865 249.013C361.865 239.58 359.806 225.849 359.806 225.849H339.831Z" fill="#EBB373"/>
<path d="M343.168 208.216C335.047 211.609 341.245 255.065 341.245 255.065L333.26 258.447L338.169 276.951C338.169 276.951 348.009 275.084 357.838 273.082C368.233 270.967 369.759 246.966 364.557 227.535C359.354 208.103 352.669 204.246 343.168 208.216Z" fill="#FFC727"/>
<path d="M289.736 294.719C289.917 292.864 292.858 286.067 294.656 283.352C296.455 280.638 303.535 273.908 303.535 273.908L312.188 278.749C312.188 278.749 312.493 282.696 310.039 284.8C308.625 286.01 307.109 287.085 307.109 287.085C307.109 287.085 307.505 288.555 307.517 290.206C307.528 292.039 307.155 294.29 305.65 294.222C304.146 294.154 303.592 289.313 303.524 288.612C303.592 289.324 304.01 294.278 301.997 294.448C300.051 294.618 299.735 289.437 299.735 289.437C299.735 289.437 299.633 291.847 299.576 293.079C299.52 294.312 298.276 295.387 297.133 294.018C295.81 292.435 295.697 289.686 295.697 289.686C295.697 289.686 294.645 291.292 293.084 294.787C291.942 297.298 289.578 296.28 289.736 294.719Z" fill="#EBB373"/>
<path opacity="0.1" d="M303.58 289.528C303.535 288.6 303.489 287.662 303.614 286.734C303.738 285.807 304.055 284.891 304.654 284.178" stroke="black" stroke-width="0.5" stroke-miterlimit="10" stroke-linecap="round" stroke-linejoin="round"/>
<path opacity="0.1" d="M299.644 290.184C299.599 289.256 299.554 288.318 299.678 287.39C299.803 286.463 300.119 285.547 300.719 284.834" stroke="black" stroke-width="0.5" stroke-miterlimit="10" stroke-linecap="round" stroke-linejoin="round"/>
<path opacity="0.1" d="M295.719 289.845C295.673 288.917 295.628 287.978 295.753 287.051C295.877 286.123 296.194 285.207 296.793 284.495" stroke="black" stroke-width="0.5" stroke-miterlimit="10" stroke-linecap="round" stroke-linejoin="round"/>
<path d="M65.1394 412.474C100.802 412.474 129.712 383.564 129.712 347.902C129.712 312.24 100.802 283.33 65.1394 283.33C29.4767 283.33 0.566406 312.24 0.566406 347.902C0.566406 383.564 29.4767 412.474 65.1394 412.474Z" fill="white" stroke="#263238" stroke-miterlimit="10"/>
<path d="M77.3764 389.174C77.3764 393.393 71.5061 396.775 64.3803 396.662C57.2546 396.549 51.52 393.099 51.5766 388.88C51.6218 384.661 57.4469 381.279 64.5613 381.404C71.6758 381.528 77.4329 384.978 77.3764 389.174Z" fill="#263238"/>
<path d="M82.9539 375.273C83.6552 374.606 84.0737 373.701 84.1302 372.74C84.1302 368.611 75.4323 365.139 64.5853 365.037C53.7383 364.935 44.9159 368.17 44.8594 372.299C44.9046 373.26 45.3005 374.165 45.9904 374.832C45.7869 375.228 45.6737 375.658 45.6511 376.099C45.6737 377.06 46.0922 377.977 46.8048 378.633C46.5786 379.04 46.4542 379.503 46.4429 379.979C46.4655 380.951 46.9066 381.867 47.6305 382.512C47.3704 382.919 47.2346 383.394 47.2233 383.881C47.2799 384.842 47.7436 385.736 48.4901 386.335C48.2187 386.742 48.0716 387.229 48.0603 387.715C48.0603 391.142 55.2879 394.049 64.3138 394.128C73.3285 394.207 80.6692 391.594 80.7031 388.088C80.7031 387.591 80.5561 387.116 80.2959 386.697C81.0424 386.098 81.4949 385.215 81.5627 384.265C81.5627 383.79 81.427 383.315 81.2008 382.897C81.936 382.275 82.3884 381.392 82.4676 380.442C82.4676 379.967 82.3432 379.503 82.1283 379.085C82.8634 378.463 83.3159 377.569 83.3951 376.619C83.3385 376.133 83.1915 375.681 82.9539 375.273Z" fill="#263238"/>
<path opacity="0.3" d="M82.9539 375.273C83.6552 374.606 84.0737 373.701 84.1302 372.74C84.1302 368.611 75.4323 365.139 64.5853 365.037C53.7383 364.935 44.9159 368.17 44.8594 372.299C44.9046 373.26 45.3005 374.165 45.9904 374.832C45.7869 375.228 45.6737 375.658 45.6511 376.099C45.6737 377.06 46.0922 377.977 46.8048 378.633C46.5786 379.04 46.4542 379.503 46.4429 379.979C46.4655 380.951 46.9066 381.867 47.6305 382.512C47.3704 382.919 47.2346 383.394 47.2233 383.881C47.2799 384.842 47.7436 385.736 48.4901 386.335C48.2187 386.742 48.0716 387.229 48.0603 387.715C48.0603 391.142 55.2879 394.049 64.3138 394.128C73.3285 394.207 80.6692 391.594 80.7031 388.088C80.7031 387.591 80.5561 387.116 80.2959 386.697C81.0424 386.098 81.4949 385.215 81.5627 384.265C81.5627 383.79 81.427 383.315 81.2008 382.897C81.936 382.275 82.3884 381.392 82.4676 380.442C82.4676 379.967 82.3432 379.503 82.1283 379.085C82.8634 378.463 83.3159 377.569 83.3951 376.619C83.3385 376.133 83.1915 375.681 82.9539 375.273Z" fill="white"/>
<path d="M99.2183 338.797C99.4445 319.614 84.0732 303.87 64.8789 303.644C45.6959 303.417 29.9514 318.788 29.7251 337.982C29.6007 348.4 34.1589 358.308 42.133 365.003C43.6034 366.214 44.3725 368.08 44.1803 369.969C44.1689 370.059 44.1689 370.15 44.1803 370.252C44.1803 374.448 53.0479 377.954 64.0419 378.078C75.0359 378.203 84.0167 374.9 84.0732 370.693C84.0732 370.602 84.0732 370.512 84.0732 370.421C83.9036 368.487 84.7179 366.598 86.2449 365.388C94.3321 358.907 99.0826 349.157 99.2183 338.797Z" fill="#FFC727"/>
<path opacity="0.7" d="M99.2183 338.797C99.4445 319.614 84.0732 303.87 64.8789 303.644C45.6959 303.417 29.9514 318.788 29.7251 337.982C29.6007 348.4 34.1589 358.308 42.133 365.003C43.6034 366.214 44.3725 368.08 44.1803 369.969C44.1689 370.059 44.1689 370.15 44.1803 370.252C44.1803 374.448 53.0479 377.954 64.0419 378.078C75.0359 378.203 84.0167 374.9 84.0732 370.693C84.0732 370.602 84.0732 370.512 84.0732 370.421C83.9036 368.487 84.7179 366.598 86.2449 365.388C94.3321 358.907 99.0826 349.157 99.2183 338.797Z" fill="white"/>
<path opacity="0.2" d="M82.8748 318.619C82.8748 325.382 74.9573 330.879 65.1395 330.879C55.3218 330.879 47.4043 325.382 47.4043 318.619C47.4043 311.855 55.3218 306.347 65.1395 306.347C74.9573 306.335 82.8748 311.832 82.8748 318.619Z" fill="white"/>
<path d="M38.0047 351.589C34.9847 346.409 33.7744 340.177 34.6567 334.239C35.5276 328.301 38.4797 322.691 42.8683 318.596" stroke="white" stroke-miterlimit="10" stroke-linecap="round" stroke-linejoin="round"/>
<path d="M48.4336 386.414C58.4662 390.633 70.0484 390.78 80.1715 386.799C70.1954 391.12 58.2966 390.972 48.4336 386.414Z" fill="#263238"/>
<path d="M48.1953 382.682C58.2279 386.901 69.8101 387.048 79.9332 383.066C69.9572 387.387 58.0583 387.251 48.1953 382.682Z" fill="#263238"/>
<path d="M47.959 378.949C57.9916 383.168 69.5738 383.315 79.6969 379.334C69.7208 383.666 57.8219 383.519 47.959 378.949Z" fill="#263238"/>
<path d="M56.9619 370.704C59.6312 361.633 60.095 351.736 58.2966 342.394C58.0025 340.878 57.3238 339.068 55.9665 339.034C54.7563 339.001 53.9532 340.493 53.6931 341.851C52.7656 346.624 55.2427 351.476 58.4097 354.779C60.1289 356.566 62.1988 358.115 64.5175 358.24C66.8475 358.353 69.0644 356.973 70.7497 355.141C73.9732 351.634 75.5794 346.126 74.4144 341.217C73.9167 339.148 72.4463 336.908 70.5913 337.304C69.4716 337.541 68.6572 338.718 68.3744 339.973C68.0917 341.229 68.2274 342.552 68.397 343.83C69.5734 353.071 71.8355 362.131 75.0817 370.693" stroke="#263238" stroke-miterlimit="10"/>
<path d="M422.038 399.24C422.038 399.24 533.595 373.102 538.911 396.345C546.49 429.519 465.991 451.823 423.123 450.466C380.233 449.086 422.038 399.24 422.038 399.24Z" fill="#263238"/>
<path opacity="0.2" d="M422.038 399.24C422.038 399.24 533.595 373.102 538.911 396.345C546.49 429.519 465.991 451.823 423.123 450.466C380.233 449.086 422.038 399.24 422.038 399.24Z" fill="black"/>
<path opacity="0.7" d="M502.299 403.505L449.908 436.803L456.898 446.745C456.898 446.745 453.21 452.197 446.209 435.434L478.626 414.012C478.626 414.012 468.48 412.994 468.74 411.411C469.17 408.809 491.463 403.855 501.62 401.616C502.141 401.423 502.729 401.695 502.91 402.226C503.091 402.735 502.819 403.312 502.299 403.505Z" fill="black"/>
<path opacity="0.7" d="M448.008 433.048L457.09 447.774C445.882 449.731 434.503 450.624 423.113 450.455C419.369 450.432 415.659 449.765 412.164 448.475L408.975 442.639L415.852 428.806L448.008 433.048Z" fill="black"/>
<path d="M465.347 427.2L442.047 441.972L446.221 453.282L473.581 440.988L465.347 427.2Z" fill="#B97964"/>
<path d="M429.221 445.761L431.505 453.893C431.505 453.893 433.225 454.255 433.756 455.963C434.062 456.924 433.349 459.571 433.349 459.571L439.468 481.989C439.502 481.977 441.006 481.57 441.606 481.14C442.33 480.62 442.918 480.077 443.393 479.534C445.044 477.623 445.225 474.852 445.293 472.804C445.395 469.366 447.374 459.322 447.374 459.322C447.374 459.322 448.132 456.71 450.892 454.402C452.43 453.113 453.143 451.495 453.007 450.489C452.713 448.441 451.243 447.672 449.331 447.899L447.103 448.17C445.508 446.982 445.022 444.98 446.028 443.046C446.028 443.046 447.34 438.16 445.293 438.986C444.128 439.45 438.982 441.746 434.865 443.442C433.903 443.838 432.998 444.211 432.195 444.539C430.431 445.263 429.221 445.761 429.221 445.761Z" fill="#263238"/>
<path d="M446.527 464.684C446.595 464.559 446.561 464.401 446.448 464.299C445.961 463.858 445.373 463.541 444.706 463.394C444.355 463.315 444.185 463.892 444.547 463.96C445.147 464.084 445.667 464.367 446.086 464.751C446.221 464.887 446.436 464.853 446.527 464.684Z" fill="#FFC727"/>
<path d="M446.978 462.693C447.046 462.568 447.012 462.41 446.899 462.308C446.412 461.867 445.824 461.55 445.157 461.403C444.806 461.324 444.637 461.901 444.999 461.969C445.598 462.093 446.118 462.365 446.537 462.761C446.684 462.896 446.887 462.874 446.978 462.693Z" fill="#FFC727"/>
<path d="M447.363 460.679C447.431 460.555 447.397 460.397 447.284 460.295C446.797 459.854 446.209 459.537 445.542 459.39C445.191 459.311 445.021 459.888 445.383 459.956C445.983 460.08 446.503 460.351 446.922 460.747C447.069 460.883 447.272 460.849 447.363 460.679Z" fill="#FFC727"/>
<path opacity="0.2" d="M432.207 444.528C430.442 445.252 429.221 445.761 429.221 445.761L431.505 453.893C431.505 453.893 433.225 454.255 433.756 455.963C434.062 456.924 433.349 459.571 433.349 459.571L439.468 481.989C439.502 481.977 441.006 481.57 441.606 481.14C441.945 480.903 442.239 480.654 442.511 480.405L432.637 444.336C432.501 444.415 432.342 444.471 432.207 444.528Z" fill="white"/>
<path d="M447.047 460.533C447.805 460.25 448.574 459.967 449.366 459.831C450.157 459.684 451.006 459.684 451.763 459.967C452.114 460.091 452.487 460.329 452.555 460.691C452.634 461.075 452.363 461.449 452.035 461.686C451.413 462.127 450.598 462.24 449.852 462.093C449.105 461.958 447.669 460.985 447.047 460.533Z" stroke="#407BFF" stroke-width="0.25" stroke-miterlimit="10"/>
<path d="M447.023 460.442C447.656 459.944 448.29 459.435 448.833 458.824C449.364 458.214 449.805 457.501 449.964 456.709C450.043 456.336 450.032 455.906 449.76 455.646C449.466 455.375 449.002 455.42 448.64 455.578C447.939 455.872 447.43 456.517 447.159 457.23C446.876 457.942 446.966 459.684 447.023 460.442Z" stroke="#407BFF" stroke-width="0.25" stroke-miterlimit="10"/>
<path d="M468.129 328.255C468.129 328.255 472.201 364.528 473.286 366.474C476.974 373.056 501.36 384.333 501.36 384.333L513.801 381.732L522.714 389.174L516.833 393.777L509.933 391.176C506.167 391.843 502.355 392.183 498.532 392.171C492.107 392.171 461.127 384.322 455.958 375.68C450.789 367.039 448.414 327.045 448.414 327.045L468.129 328.255Z" fill="#B97964"/>
<path d="M447.894 342.518C447.894 342.518 438.336 310.667 450.246 301.822C462.156 292.978 471.624 336.772 471.624 336.772L447.894 342.518Z" fill="#FFC727"/>
<path opacity="0.5" d="M447.894 342.518C447.894 342.518 438.336 310.667 450.246 301.822C462.156 292.978 471.624 336.772 471.624 336.772L447.894 342.518Z" fill="white"/>
<path d="M455.438 400.779L455.347 358.556L454.443 300.748L429.491 295.342L407.786 294.38L383.083 305.679L382.506 319.863C382.506 319.863 385.334 385 385.176 386.957C384.983 389.366 377.971 404.477 377.971 404.477C409.177 411.592 455.924 402.928 455.438 400.779Z" fill="#FFC727"/>
<path opacity="0.5" d="M455.438 400.779L455.347 358.556L454.443 300.748L429.491 295.342L407.786 294.38L383.083 305.679L382.506 319.863C382.506 319.863 385.334 385 385.176 386.957C384.983 389.366 377.971 404.477 377.971 404.477C409.177 411.592 455.924 402.928 455.438 400.779Z" fill="white"/>
<path d="M453.13 260.369C454.499 260.233 455.675 259.001 455.731 257.632C455.788 256.263 454.725 254.917 453.379 254.669L446.988 254.024C447.294 258.13 447.599 262.235 447.904 266.341C449.137 266.658 450.472 266.726 451.682 266.307C452.892 265.889 453.956 264.95 454.318 263.728C454.68 262.496 454.227 261.025 453.13 260.369Z" fill="#263238"/>
<path d="M428.7 284.042L414.957 266.748C414.957 266.748 414.957 266.76 414.946 266.805C414.946 268.445 414.889 270.311 414.753 272.302C414.742 272.313 413.283 271.601 413.272 271.612C412.684 280.592 409.132 295.918 409.29 297.253L423.734 304.424H426.641L426.879 295.952C425.419 292.288 426.788 288.023 428.7 284.042Z" fill="#B97964"/>
<path opacity="0.2" d="M426.641 289.878L417.954 283.013C417.739 286.508 419.56 292.005 426.539 294.855C426.12 292.751 426.256 291.258 426.641 289.878Z" fill="black"/>
<path d="M417.887 258.175C415.048 269.814 413.973 275.401 417.943 283.002C423.927 294.437 438.529 294.538 444.806 283.952C450.462 274.428 454.16 256.999 444.343 249.081C434.672 241.288 420.737 246.536 417.887 258.175Z" fill="#B97964"/>
<path d="M420.341 242.385C423.859 236.583 433.077 235.633 436.493 240.225C437.002 240.915 431.493 241.073 432.127 241.039L428.903 250.201C428.27 249.839 426.698 250.224 425.352 252.112C425.352 252.112 423.271 264.724 416.744 268.253C410.32 259.396 411.044 242.397 420.341 242.385Z" fill="#263238"/>
<path d="M410.422 266.296C410.422 269.519 411.915 272.426 413.838 274.259C416.722 277.007 420.07 274.881 420.862 271.182C421.574 267.857 420.941 262.416 417.276 261.059C413.668 259.736 410.422 262.609 410.422 266.296Z" fill="#B97964"/>
<path d="M458.9 251.683C458.119 249.353 455.348 248.38 452.905 248.21C454.443 248.176 455.642 246.627 455.653 245.089C455.653 243.55 454.703 242.148 453.504 241.198C451.344 239.501 448.268 239.06 445.723 240.089C446.209 239.852 446.379 239.218 446.22 238.698C446.062 238.189 445.666 237.782 445.236 237.465C442.646 235.486 438.631 235.69 436.256 237.906C435.419 235.09 432.161 233.246 429.322 233.993C426.551 234.717 421.325 235.271 420.522 242.363C418.17 240.689 414.528 241.051 412.673 243.29C410.659 245.711 411.18 249.805 413.736 251.649C412.469 251.117 410.897 251.943 410.377 253.21C409.856 254.476 410.263 256.003 411.146 257.055C412.028 258.107 413.317 258.741 414.641 259.125C415.885 259.476 417.231 259.623 418.464 259.238C419.697 258.854 420.805 257.858 421.043 256.591C421.246 257.926 422.649 258.91 423.995 258.774C425.341 258.639 426.472 257.474 426.687 256.139C426.902 254.804 426.268 253.402 425.194 252.588C426.721 254.069 429.673 253.481 430.521 251.536C431.652 253.707 433.269 255.755 435.509 256.727C437.76 257.7 440.723 257.293 442.16 255.302C442.895 256.15 443.63 257.021 444.58 257.621C445.53 258.22 446.718 258.537 447.781 258.198C448.844 257.858 449.693 256.727 449.466 255.63C451.231 257.1 453.719 257.87 455.891 257.123C458.074 256.377 459.635 253.866 458.9 251.683Z" fill="#263238"/>
<path d="M420.092 303.734C420.092 303.734 426.155 309.129 429.254 302.15L430.871 303.406C430.871 303.406 430.713 308.586 427.772 310.328C428.485 313.201 440.779 355.084 442.985 376.189L439.626 384.751L430.701 377.705C430.701 377.705 426.369 341.5 424.888 310.735C421.314 309.525 418.486 306.844 417.174 303.417L420.092 303.734Z" fill="#FFC727"/>
<path opacity="0.2" d="M427.908 304.435L433.156 308.518L434.016 296.269L432.342 295.907L430.962 304.175L428.462 302.716L427.908 304.435Z" fill="black"/>
<path opacity="0.2" d="M402.606 296.744C402.515 296.789 414.969 311.968 414.969 311.968L419.199 308.744L422.106 306.279L422.863 305.351L406.384 293.905C406.384 293.905 404.178 296.156 403.952 296.156C403.726 296.156 402.606 296.744 402.606 296.744Z" fill="black"/>
<path d="M403.498 296.484L409.515 291.111L425.995 306.539L421.686 305.012L415.408 309.842L403.498 296.484Z" fill="#FFC727"/>
<path d="M425.997 306.539C425.635 305.838 426.348 292.107 426.348 292.107L433.145 295.828C432.84 295.76 432.636 307.41 432.444 307.41C432.252 307.41 428.576 303.429 428.576 303.429L425.997 306.539Z" fill="#FFC727"/>
<path opacity="0.2" d="M454.997 340.799L453.719 313.563L459.804 339.634L454.997 340.799Z" fill="black"/>
<path opacity="0.2" d="M402.186 344.757C402.955 344.61 406.846 343.332 406.846 343.332L398.193 319.275L410.07 345.888L402.933 348.727L402.186 344.757Z" fill="black"/>
<path opacity="0.5" d="M403.498 296.484L409.515 291.111L425.995 306.539L421.686 305.012L415.408 309.842L403.498 296.484Z" fill="white"/>
<path opacity="0.5" d="M425.997 306.539C425.635 305.838 426.348 292.107 426.348 292.107L433.145 295.828C432.84 295.76 432.636 307.41 432.444 307.41C432.252 307.41 428.576 303.429 428.576 303.429L425.997 306.539Z" fill="white"/>
<path opacity="0.3" d="M435.338 329.058L438.109 342.642L446.162 345.56L451.603 340.81L450.607 327.984L435.338 329.058Z" fill="white"/>
<path d="M426.968 305.363L424.423 305.985C424.412 305.985 424.321 306.143 424.389 306.041C424.423 305.985 422.998 310.871 422.998 310.871C423.405 311.233 424.785 313.608 424.943 313.563C425.102 313.529 428.484 313.212 428.484 313.212L429.717 309.627C429.705 309.627 426.957 305.329 426.968 305.363Z" fill="#FFC727"/>
<path opacity="0.2" d="M426.968 305.363L424.423 305.985C424.412 305.985 424.321 306.143 424.389 306.041C424.423 305.985 422.998 310.871 422.998 310.871C423.405 311.233 424.785 313.608 424.943 313.563C425.102 313.529 428.484 313.212 428.484 313.212L429.717 309.627C429.705 309.627 426.957 305.329 426.968 305.363Z" fill="black"/>
<path d="M398.841 324.806C398.841 324.806 404.892 365.071 408.387 368.838C414.291 375.194 443.552 392.081 443.552 392.081L458.154 386.957C459.172 386.618 460.314 386.81 461.14 387.444L471.127 395.067L470.189 395.87C469.781 396.221 469.182 396.288 468.696 396.051L467.146 395.282L468.877 396.978L468.322 397.442C467.779 397.906 467.022 398.064 466.32 397.883L461.853 396.684L465.97 399.422C465.054 400.202 463.764 400.462 462.599 400.134L456.062 398.268C451.605 399.286 447.07 399.942 442.5 400.213C434.809 400.688 398.49 387.998 391.715 378.701C384.94 369.415 377.961 330.823 377.961 330.823L398.841 324.806Z" fill="#B97964"/>
<path d="M379.51 351.6C379.51 351.6 370.461 315.101 382.372 306.256C394.282 297.411 406.079 343.581 406.079 343.581L379.51 351.6Z" fill="#FFC727"/>
<path opacity="0.5" d="M379.51 351.6C379.51 351.6 370.461 315.101 382.372 306.256C394.282 297.411 406.079 343.581 406.079 343.581L379.51 351.6Z" fill="white"/>
<path d="M476.986 397.985H454.523H430.691V397.996C430.703 399.761 432.682 401.186 435.103 401.186H458.912H472.53C472.552 401.186 472.575 401.186 472.598 401.186H510.511C512.92 401.175 514.855 399.738 514.832 397.985H476.986Z" fill="#263238"/>
<path d="M511.212 401.005H468.921C468.186 401.005 467.609 400.519 467.609 399.93C467.609 399.817 467.632 399.716 467.677 399.602L486.498 356.464C486.973 355.231 488.387 354.394 489.993 354.383H532.318C533.031 354.383 533.619 354.847 533.619 355.423C533.619 355.548 533.596 355.661 533.54 355.774L514.719 398.913C514.221 400.157 512.807 400.994 511.212 401.005Z" fill="#263238"/>
<path opacity="0.7" d="M532.307 354.394H489.982C488.376 354.406 486.962 355.243 486.487 356.475L468.379 397.985H454.523H430.691V397.997C430.703 399.761 432.682 401.186 435.103 401.186H458.912H472.53C472.552 401.186 472.575 401.186 472.598 401.186H510.511C511.269 401.186 511.982 401.016 512.604 400.768C513.588 400.44 514.38 399.784 514.708 398.924L533.529 355.785C533.585 355.672 533.608 355.548 533.608 355.435C533.596 354.869 533.02 354.394 532.307 354.394Z" fill="white"/>
<path d="M506.88 377.366C505.964 379.436 504.109 380.861 502.729 380.567C501.349 380.273 500.976 378.395 501.87 376.314C502.752 374.233 504.629 372.853 506.009 373.136C507.401 373.43 507.808 375.24 506.88 377.366Z" fill="white"/>
<g opacity="0.3">
<path d="M486.487 356.475L468.379 397.985H470.336L489.982 354.394C488.376 354.405 486.962 355.242 486.487 356.475Z" fill="black"/>
</g>
<path d="M488.67 445.829L515.906 450.217L520.283 438.986L491.645 430.051L488.67 445.829Z" fill="#B97964"/>
<path d="M528.02 455.884L531.696 448.283C531.696 448.283 530.655 446.869 531.379 445.241C531.786 444.325 534.082 442.809 534.082 442.809L544.353 421.964C544.319 421.952 542.927 421.251 542.192 421.183C541.299 421.093 540.507 421.104 539.783 421.206C537.272 421.545 535.304 423.491 533.901 424.984C531.549 427.494 523.405 433.704 523.405 433.704C523.405 433.704 521.109 435.163 517.512 435.061C515.51 435.005 513.893 435.74 513.339 436.588C512.196 438.319 512.784 439.868 514.379 440.965L516.223 442.243C516.63 444.189 515.669 446.01 513.633 446.79C513.633 446.79 509.414 449.573 511.484 450.319C512.671 450.738 518.044 452.434 522.251 453.893C523.235 454.233 524.163 454.561 524.977 454.843C526.787 455.454 528.02 455.884 528.02 455.884Z" fill="#263238"/>
<path d="M527.612 430.254C527.476 430.311 527.397 430.447 527.42 430.594C527.488 431.238 527.725 431.872 528.132 432.426C528.347 432.72 528.845 432.392 528.63 432.109C528.268 431.623 528.053 431.069 527.997 430.503C527.974 430.3 527.793 430.175 527.612 430.254Z" fill="#FFC727"/>
<path d="M525.962 431.431C525.826 431.487 525.747 431.623 525.769 431.77C525.837 432.415 526.075 433.048 526.482 433.602C526.697 433.896 527.195 433.568 526.98 433.286C526.618 432.799 526.403 432.245 526.346 431.679C526.312 431.476 526.131 431.363 525.962 431.431Z" fill="#FFC727"/>
<path d="M524.333 432.697C524.197 432.754 524.118 432.89 524.141 433.037C524.208 433.681 524.446 434.315 524.853 434.869C525.068 435.163 525.566 434.835 525.351 434.552C524.989 434.066 524.774 433.512 524.717 432.946C524.695 432.743 524.514 432.618 524.333 432.697Z" fill="#FFC727"/>
<path opacity="0.2" d="M531.391 445.229C531.798 444.313 534.094 442.798 534.094 442.798L544.364 421.952C544.33 421.941 542.939 421.24 542.204 421.172C541.796 421.127 541.412 421.115 541.039 421.115L524.514 454.662C524.661 454.719 524.83 454.775 524.966 454.821C526.776 455.454 528.009 455.884 528.009 455.884L531.685 448.283C531.707 448.283 530.655 446.869 531.391 445.229Z" fill="white"/>
<path d="M524.479 433.002C523.721 432.708 522.963 432.414 522.273 431.996C521.583 431.577 520.95 431.023 520.565 430.311C520.384 429.983 520.26 429.564 520.452 429.236C520.644 428.897 521.108 428.795 521.504 428.84C522.262 428.919 522.941 429.383 523.404 429.983C523.868 430.582 524.309 432.267 524.479 433.002Z" stroke="#407BFF" stroke-width="0.25" stroke-miterlimit="10"/>
<path d="M524.434 433.093C523.631 433.048 522.816 433.003 522.013 433.104C521.21 433.206 520.407 433.455 519.763 433.941C519.457 434.168 519.186 434.496 519.22 434.869C519.254 435.265 519.638 435.536 520.011 435.661C520.735 435.898 521.55 435.762 522.217 435.412C522.884 435.061 523.97 433.704 524.434 433.093Z" stroke="#407BFF" stroke-width="0.25" stroke-miterlimit="10"/>
<path d="M386.296 433.41C380.426 424.056 367.136 398.698 394.089 393.755C421.043 388.812 511.088 431.6 511.088 431.6L505.387 448.781L421.574 435.57C421.574 435.57 433.043 450.885 419.131 450.183C398.896 448.181 394.033 443.34 386.296 433.41Z" fill="#263238"/>
<path opacity="0.7" d="M423.553 436.034L400.559 428.795C400.559 428.795 419.843 440.592 426.924 441.994L423.553 436.034Z" fill="black"/>
</g>
<defs>
<clipPath id="clip0_344_7137">
<rect width="656" height="482" fill="white"/>
</clipPath>
</defs>
</svg>
