<svg width="479" height="459" viewBox="0 0 479 459" fill="none" xmlns="http://www.w3.org/2000/svg">
<g clip-path="url(#clip0_560_946)">
<path d="M85.9756 221.897L147.661 219.068L136.45 279.219L85.9756 221.897Z" fill="#EBEBEB"/>
<path d="M128.739 258.837L105.749 232.729L0.00950828 325.553L22.9998 351.661L128.739 258.837Z" fill="#EBEBEB"/>
<path d="M337.579 128.946L399.265 126.117L388.053 186.268L337.579 128.946Z" fill="#EBEBEB"/>
<path d="M380.348 165.874L357.357 139.767L251.618 232.591L274.608 258.698L380.348 165.874Z" fill="#EBEBEB"/>
<path d="M101.413 142.92L140.982 141.115L133.789 179.708L101.413 142.92Z" fill="#F5F5F5"/>
<path d="M128.85 166.619L114.101 149.871L46.2582 209.427L61.0071 226.175L128.85 166.619Z" fill="#F5F5F5"/>
<path d="M439.419 145.03L479 143.213L471.807 181.805L439.419 145.03Z" fill="#F5F5F5"/>
<path d="M466.859 168.715L452.11 151.966L384.268 211.522L399.017 228.271L466.859 168.715Z" fill="#F5F5F5"/>
<path d="M290.536 65.1621L301.21 60.053C303.323 53.6026 307.194 47.6278 312.763 42.9089C328.786 29.3619 352.783 31.3373 366.352 47.3352C379.92 63.333 377.941 87.2933 361.918 100.84C345.896 114.387 321.898 112.412 308.33 96.414C302.663 89.732 299.72 81.6721 299.366 73.5512V73.5756L290.536 65.1621Z" fill="white"/>
<path d="M290.536 65.1621C290.536 65.1621 290.707 65.345 291.073 65.6986C291.464 66.0766 292.014 66.6131 292.722 67.3203C294.224 68.7835 296.423 70.9052 299.268 73.6731C299.317 73.7219 299.402 73.7219 299.451 73.6731C299.463 73.6609 299.476 73.6365 299.488 73.6122V73.5878L299.231 73.5634C299.427 78.4408 300.636 84.9277 304.544 91.4878C305.509 93.1218 306.657 94.7435 307.963 96.3165C309.343 97.8163 310.723 99.438 312.433 100.816C315.731 103.669 319.761 106.144 324.353 107.803C328.945 109.461 334.098 110.315 339.423 110.022C344.748 109.742 350.219 108.327 355.287 105.669C360.367 103.047 364.91 99.0722 368.44 94.1948C371.957 89.3174 374.448 83.4889 375.254 77.2702L375.548 74.9291L375.633 72.5879L375.67 71.4173L375.609 70.2468L375.462 67.93C375.389 67.1618 375.23 66.4058 375.12 65.6376C374.986 64.8816 374.925 64.1134 374.693 63.3818C374.29 61.9064 373.984 60.4066 373.398 59.0043C371.359 53.31 368 48.2497 363.872 44.2746C359.708 40.3117 354.798 37.4462 349.73 35.727C344.662 34.0077 339.447 33.4224 334.55 33.7882C329.653 34.1418 325.098 35.4465 321.129 37.2999C319.113 38.19 317.33 39.3484 315.596 40.4458C313.972 41.7018 312.36 42.848 311.004 44.1892C305.472 49.4568 302.541 55.3707 301.063 59.992L301.137 59.9189C297.68 61.6138 295.018 62.9185 293.186 63.8086C292.319 64.2354 291.647 64.5646 291.171 64.8085C290.744 65.0523 290.536 65.1621 290.536 65.1621C290.536 65.1621 290.793 65.0523 291.257 64.8328C291.745 64.6134 292.429 64.2841 293.321 63.8696C295.14 63.016 297.803 61.7723 301.259 60.1627C301.295 60.1505 301.32 60.114 301.332 60.0896C302.846 55.517 305.79 49.6763 311.297 44.4941C312.641 43.1772 314.253 42.0554 315.865 40.8116C317.587 39.7386 319.346 38.5924 321.348 37.7267C325.269 35.9099 329.775 34.6417 334.599 34.3125C339.423 33.9711 344.564 34.5564 349.559 36.2635C354.554 37.9584 359.378 40.7994 363.469 44.7014C367.524 48.6277 370.821 53.6026 372.824 59.2116C373.398 60.5895 373.704 62.0649 374.094 63.5159C374.314 64.2354 374.375 64.9914 374.51 65.7352C374.619 66.479 374.766 67.235 374.839 67.991L374.974 70.2711L375.035 71.4173L374.998 72.5635L374.925 74.8925L374.632 77.1971C373.838 83.3182 371.383 89.0491 367.927 93.8534C364.459 98.6454 359.989 102.572 354.994 105.157C350.023 107.778 344.625 109.193 339.386 109.473C334.135 109.766 329.054 108.949 324.524 107.327C319.981 105.705 315.999 103.279 312.726 100.474C311.029 99.121 309.661 97.5236 308.293 96.0482C306.986 94.4996 305.851 92.9023 304.886 91.2927C300.978 84.8302 299.732 78.4042 299.488 73.5634C299.488 73.4902 299.427 73.4293 299.354 73.4415C299.293 73.4415 299.244 73.4902 299.231 73.5512V73.5756L299.451 73.5024C296.581 70.8198 294.371 68.747 292.869 67.3325C292.124 66.6375 291.55 66.1132 291.147 65.7352C290.744 65.3572 290.536 65.1621 290.536 65.1621Z" fill="#263238"/>
<path d="M337.505 96.1701C349.922 96.1701 359.988 86.1197 359.988 73.7219C359.988 61.3241 349.922 51.2737 337.505 51.2737C325.088 51.2737 315.021 61.3241 315.021 73.7219C315.021 86.1197 325.088 96.1701 337.505 96.1701Z" fill="#F0C62E"/>
<path opacity="0.3" d="M337.505 96.1701C349.922 96.1701 359.988 86.1197 359.988 73.7219C359.988 61.3241 349.922 51.2737 337.505 51.2737C325.088 51.2737 315.021 61.3241 315.021 73.7219C315.021 86.1197 325.088 96.1701 337.505 96.1701Z" fill="black"/>
<path d="M346.003 92.0315C357.496 87.3402 363.004 74.2345 358.305 62.759C353.607 51.2836 340.481 45.784 328.987 50.4754C317.494 55.1667 311.986 68.2724 316.684 79.7478C321.383 91.2233 334.509 96.7229 346.003 92.0315Z" fill="#F0C62E"/>
<path d="M348.156 81.8811C354.036 76.0098 354.036 66.4905 348.156 60.6192C342.275 54.7479 332.741 54.7479 326.86 60.6192C320.98 66.4905 320.98 76.0098 326.86 81.8811C332.741 87.7524 342.275 87.7524 348.156 81.8811Z" fill="white"/>
<path d="M337.505 78.5993C341.572 78.5993 344.869 75.3074 344.869 71.2466C344.869 67.1859 341.572 63.8939 337.505 63.8939C333.438 63.8939 330.141 67.1859 330.141 71.2466C330.141 75.3074 333.438 78.5993 337.505 78.5993Z" fill="#F0C62E"/>
<path d="M353.174 54.8098L352.563 50.0177L357.448 44.7989L357.803 49.969L353.174 54.8098Z" fill="#455A64"/>
<path d="M363.652 50.9932L358.706 50.5908L353.735 55.3585L358.706 55.895L363.652 50.9932Z" fill="#455A64"/>
<path opacity="0.3" d="M338.494 71.1369L355.689 58.0289C355.103 57.1631 354.358 56.2852 353.54 55.4073L338.506 69.9663V71.1369H338.494Z" fill="black"/>
<path d="M357.998 49.2496C355.665 51.5785 353.332 53.9075 351 56.2364C347.299 59.9311 343.599 63.6257 339.899 67.3203C339.044 68.1739 338.201 69.0152 337.346 69.8688C336.54 70.6735 337.798 71.9173 338.604 71.1125C340.937 68.7835 343.269 66.4546 345.602 64.1256C349.302 60.431 353.003 56.7364 356.703 53.0417C357.558 52.1882 358.401 51.3468 359.255 50.4933C360.074 49.6885 358.816 48.4448 357.998 49.2496Z" fill="#263238"/>
<path d="M228.937 82.7329L233.589 31.1056C234.334 18.2293 242.456 7.91358 255.328 9.011L256.512 9.18171C268.432 10.901 277.029 21.4606 276.272 33.4468C275.564 44.6038 274.648 56.9315 273.72 62.8331C271.803 75.0632 259.248 75.1973 259.248 75.1973C259.224 75.1973 258.405 82.6719 258.039 86.2934L256.488 94.7191L250.186 91.5366L228.937 82.7329Z" fill="#FFBF9D"/>
<path d="M259.296 74.7828C259.296 74.7828 251.493 74.1243 243.994 67.7593C243.994 67.7593 246.51 77.5263 258.918 78.1847L259.296 74.7828Z" fill="#FF9A6C"/>
<path d="M233.321 39.8971C233.125 39.7752 225.248 36.1903 224.308 44.6038C223.367 53.0173 232.026 52.2248 232.063 51.9931C232.112 51.7492 233.321 39.8971 233.321 39.8971Z" fill="#FFBF9D"/>
<path d="M229.852 48.5179C229.815 48.4814 229.693 48.6033 229.437 48.6887C229.18 48.774 228.753 48.7984 228.338 48.5911C227.483 48.1643 226.897 46.6645 227.019 45.1525C227.08 44.3843 227.324 43.6771 227.666 43.104C227.996 42.5187 228.435 42.1286 228.899 42.1042C229.351 42.0554 229.644 42.3602 229.718 42.6041C229.803 42.848 229.73 43.0187 229.779 43.0309C229.803 43.0553 229.974 42.9089 229.95 42.5553C229.937 42.3846 229.852 42.1773 229.681 41.9944C229.498 41.8115 229.205 41.6896 228.887 41.6896C228.228 41.6652 227.58 42.1895 227.202 42.8236C226.787 43.4576 226.506 44.2502 226.433 45.116C226.298 46.8231 226.994 48.5058 228.167 48.9935C228.741 49.213 229.254 49.091 229.534 48.9203C229.803 48.713 229.876 48.5301 229.852 48.5179Z" fill="#FF9A6C"/>
<path d="M294.481 23.6798C294.408 23.1677 294.09 22.7165 293.675 22.4117C292.771 21.7288 291.66 21.68 290.585 21.5459C287.911 21.2045 285.346 20.2168 283.099 18.7414C283.978 18.4122 284.809 17.9976 285.541 17.4123C287.056 16.2052 288.082 14.2176 287.666 12.3398C287.593 11.9862 287.434 11.6082 287.092 11.4619C286.567 11.2302 286.03 11.718 285.59 12.096C284.174 13.3519 282.952 13.8274 281.096 13.425C279.948 13.1812 278.849 12.791 278.006 12.1203C277.97 12.0838 277.945 12.035 277.908 11.9862C277.518 11.4863 277.139 11.0107 276.773 10.5352C273.964 7.03565 271.485 4.54817 268.81 3.10934C264.89 0.987668 258.075 -0.463359 253.667 0.170703C249.246 0.804765 244.996 3.84095 243.909 8.16964C241.735 5.86507 238.12 5.47488 235.055 6.31623L234.981 6.27965C231.586 7.07223 229.339 10.3035 227.996 13.5104C227.923 13.6811 227.862 13.864 227.788 14.0469C226.482 15.6686 224.821 16.9977 222.903 17.8269C222.561 17.9732 222.183 18.1561 222.097 18.5219C222.024 18.8755 222.293 19.2048 222.561 19.4486C223.282 20.0949 224.149 20.5704 225.077 20.8387C224.686 21.5947 224.247 22.3263 223.734 23.0091C223.294 23.5944 222.769 24.2895 223.025 24.9723C223.221 25.4966 223.831 25.7771 224.393 25.7649C224.955 25.7405 225.48 25.4966 225.993 25.2527C225.529 26.0819 225.065 26.9111 224.601 27.7402C225.761 28.0816 226.994 28.1182 228.179 27.9109C228.521 31.0934 228.387 36.9097 228.948 39.1046C231.183 39.3972 231.757 39.2143 232.832 39.7142C234.236 40.3605 233.382 42.8845 235.372 42.3602C236.386 42.092 238.279 38.6046 238.718 37.6657C241.613 31.3861 243.115 24.4724 243.115 17.5708C244.629 16.2905 246.4 15.2906 248.281 14.6688L248.122 14.7785C251.7 13.9737 255.731 13.2421 258.82 15.2297C261.214 16.7661 262.399 19.5706 264.059 21.8751C267.198 26.2526 271.021 28.8376 276.357 29.679C276.419 33.4468 275.869 39.5435 275.649 43.0309L279.398 36.4342V36.4586C279.679 36.0806 279.924 35.6904 280.168 35.3002L280.253 35.1783V35.1661C280.632 34.5442 280.998 33.9101 281.45 33.3005C281.462 33.3126 281.475 33.3248 281.475 33.337C283.172 35.2026 286.225 32.9956 284.98 30.8008C284.735 30.3618 284.418 29.9716 284.051 29.6302C284.821 30.5325 286.054 31.069 287.227 30.8496C288.399 30.6301 289.4 29.5936 289.437 28.4109C289.462 27.6061 288.973 26.8257 288.277 26.4233C289.779 26.716 291.379 26.5574 292.783 25.96C293.699 25.521 294.652 24.8138 294.481 23.6798Z" fill="#263238"/>
<path d="M247.609 9.99867C247.633 10.0353 247.059 10.2669 246.241 10.9863C245.435 11.7058 244.482 13.0105 243.884 14.8639C243.579 15.7784 243.347 16.827 243.212 17.961C243.078 19.095 243.029 20.3144 242.968 21.6069C242.907 22.8994 242.846 24.2529 242.602 25.6551C242.48 26.3502 242.309 27.0574 242.077 27.7524C241.844 28.4352 241.576 29.1791 240.965 29.7156C240.489 30.1545 239.756 30.3009 239.158 30.1058C238.559 29.9229 238.046 29.5327 237.692 29.0449C237.008 28.0329 236.935 26.8379 236.862 25.7771L237.118 25.838C236.593 26.716 236.056 27.5817 235.323 28.2523C234.602 28.923 233.674 29.301 232.771 29.2888C232.319 29.2766 231.879 29.1547 231.525 28.923C231.159 28.6913 230.914 28.3377 230.755 27.9719C230.609 27.6061 230.56 27.2159 230.621 26.8501C230.682 26.4843 230.865 26.1551 231.122 25.9356L231.244 26.0697C230.169 27.0452 229.095 27.5085 228.374 27.7524C228.008 27.8743 227.715 27.9353 227.519 27.9719C227.324 28.0085 227.214 28.0207 227.214 28.0085C227.214 27.9963 227.312 27.9719 227.507 27.9231C227.702 27.8743 227.983 27.789 228.35 27.6549C229.058 27.3866 230.108 26.8989 231.134 25.9356L231.256 26.0697C230.792 26.4599 230.682 27.2281 230.963 27.8865C231.11 28.2158 231.329 28.5328 231.659 28.7279C231.977 28.9352 232.38 29.0449 232.795 29.0449C233.625 29.0571 234.493 28.6913 235.164 28.0572C235.848 27.4232 236.373 26.5818 236.898 25.6917L237.118 25.3137L237.155 25.7527C237.24 26.8013 237.314 27.9597 237.949 28.8742C238.266 29.3132 238.73 29.6668 239.255 29.8253C239.781 29.996 240.379 29.8741 240.794 29.4961C241.319 29.0327 241.588 28.3255 241.82 27.6549C242.052 26.972 242.211 26.2892 242.333 25.5942C242.577 24.2163 242.638 22.8628 242.712 21.5825C242.773 20.29 242.834 19.0706 242.98 17.9244C243.127 16.7783 243.383 15.7296 243.701 14.7907C244.324 12.9129 245.337 11.6082 246.18 10.901C247.023 10.1938 247.609 9.99867 247.609 9.99867Z" fill="#455A64"/>
<path d="M284.394 26.3136C284.394 26.3136 284.357 26.338 284.284 26.3867C284.198 26.4355 284.088 26.4965 283.954 26.5818C283.808 26.6672 283.624 26.7647 283.392 26.8623C283.16 26.9598 282.904 27.0818 282.599 27.1671C281.389 27.5817 279.497 27.9109 277.213 27.5207C274.953 27.1305 272.316 26.0209 270.081 23.9358C267.821 21.8873 265.953 19.034 264.524 15.8515C263.791 14.2542 263.242 12.6447 262.594 11.1449C261.959 9.64505 261.214 8.2306 260.262 7.08441C259.321 5.92603 258.186 5.02371 256.952 4.52378C256.342 4.26772 255.707 4.14578 255.108 4.09701C254.497 4.06043 253.911 4.12139 253.35 4.23113C252.25 4.46281 251.322 4.95055 250.602 5.48707C249.881 6.02358 249.368 6.60887 249.002 7.13319C248.318 8.20622 248.196 8.92563 248.159 8.90125C248.159 8.90125 248.159 8.85247 248.184 8.76712C248.208 8.66957 248.245 8.54763 248.281 8.40131C248.379 8.08428 248.574 7.62093 248.904 7.06003C249.258 6.52351 249.771 5.90164 250.504 5.35294C251.225 4.80423 252.165 4.27991 253.301 4.02385C253.862 3.90191 254.473 3.82875 255.108 3.86533C255.743 3.9141 256.403 4.03604 257.038 4.2921C258.308 4.79204 259.492 5.71874 260.457 6.90151C261.434 8.07209 262.191 9.51092 262.839 11.0229C263.498 12.5349 264.048 14.1445 264.768 15.7174C266.185 18.8755 268.017 21.6922 270.239 23.7285C272.425 25.8014 275.002 26.911 277.225 27.3134C279.46 27.728 281.341 27.4354 282.537 27.0574C283.771 26.6672 284.382 26.277 284.394 26.3136Z" fill="#455A64"/>
<path d="M286.127 21.0338C286.139 21.0582 285.968 21.1435 285.651 21.2899C285.333 21.4484 284.869 21.6191 284.271 21.802C283.673 21.9849 282.94 22.1434 282.122 22.2409C281.303 22.3263 280.387 22.3629 279.435 22.2897C278.482 22.2044 277.578 22.0215 276.785 21.802C275.991 21.5703 275.295 21.2899 274.733 21.0216C274.171 20.7411 273.732 20.4973 273.451 20.29C273.158 20.0949 273.011 19.973 273.023 19.9608C273.048 19.912 273.695 20.3388 274.818 20.8387C275.38 21.0948 276.076 21.3386 276.858 21.5581C277.64 21.7654 278.519 21.9239 279.459 22.0093C280.4 22.0824 281.291 22.058 282.097 21.9849C282.903 21.8995 283.624 21.7654 284.222 21.6069C285.407 21.302 286.115 20.985 286.127 21.0338Z" fill="#455A64"/>
<path d="M201.092 75.2339C201.092 75.2339 192.897 71.6612 186.412 78.5871C179.927 85.513 156.039 131.897 152.901 140.652C147.723 155.04 158.873 167.344 168.154 167.844C177.436 168.343 213.756 156.686 213.756 156.686L205.854 135.884L182.675 137.738L200.652 101.694L201.092 75.2339Z" fill="#455A64"/>
<path d="M240.807 116.058C240.807 116.058 249.746 161.296 254.008 164.954C258.271 168.612 291.892 183.646 291.892 183.646L301.967 167.307L275.246 151.041L275.112 116.704C274.843 107.01 270.947 100.95 266.502 97.7065L240.807 116.058Z" fill="#455A64"/>
<path d="M259.712 85.2204L253.654 93.0364L249.893 83.3426L228.533 69.503L222.317 75.4656C222.317 75.4656 198.356 75.9289 196.817 77.0995C193.373 79.6967 187.084 118.423 187.084 118.423L174.957 191.462C173.931 194.389 184.116 196.437 190.015 197.876L244.361 205.643C244.361 205.643 250.821 207.168 252.653 203.193C254.131 199.986 257.22 166.246 260.347 147.834C261.177 142.957 261.922 125.544 261.922 125.544L267.967 98.6088L261.421 93.6827L259.712 85.2204Z" fill="#455A64"/>
<path d="M191.102 121.081C191.187 121.118 190.784 122.081 190.064 123.618C189.355 125.154 188.33 127.251 187.157 129.544C185.985 131.848 184.898 133.909 184.092 135.397C183.274 136.872 182.736 137.774 182.651 137.726C182.565 137.677 182.98 136.714 183.689 135.189C184.397 133.653 185.423 131.568 186.583 129.263C187.743 126.971 188.83 124.91 189.649 123.423C190.479 121.947 191.029 121.045 191.102 121.081Z" fill="#263238"/>
<path d="M248.66 83.6352C248.708 83.684 247.915 84.5741 246.522 86.0495C245.13 87.525 243.139 89.5857 240.782 91.9756L240.599 92.1585L240.392 92C238.877 90.8416 237.241 89.5491 235.568 88.159C231.818 85.0375 228.594 82.0135 226.347 79.7455C225.224 78.6115 224.332 77.6726 223.734 77.0142C223.135 76.3557 222.818 75.9655 222.854 75.9411C222.891 75.9045 223.257 76.2338 223.917 76.8434C224.662 77.5507 225.59 78.4042 226.677 79.4285C228.997 81.5989 232.258 84.5619 235.995 87.6713C237.656 89.0613 239.28 90.366 240.77 91.5366L240.379 91.561C242.761 89.1955 244.813 87.1957 246.278 85.7935C247.731 84.3912 248.611 83.5864 248.66 83.6352Z" fill="#263238"/>
<path d="M265.207 109.376C265.378 109.4 265.048 113.851 264.474 119.313C263.888 124.788 263.278 129.202 263.107 129.19C262.936 129.166 263.265 124.727 263.839 119.252C264.413 113.778 265.024 109.351 265.207 109.376Z" fill="#263238"/>
<path d="M289.633 161.808C289.633 161.808 296.301 150.602 297.705 151.041C299.11 151.48 299.83 154.394 298.988 156.54C298.145 158.686 295.788 167.295 295.788 167.295L289.633 161.808Z" fill="#FFBF9D"/>
<path d="M291.868 356.831L285.248 386.644C285.248 386.644 313.752 401.191 313.056 406.812L254.326 398.264L262.728 351.392L291.868 356.831Z" fill="#455A64"/>
<g opacity="0.6">
<path d="M267.662 380.803C266.477 380.901 265.464 382.022 265.512 383.217C265.561 384.4 266.697 385.449 267.894 385.363C269.078 385.278 270.336 383.973 270.153 382.803C269.97 381.632 268.566 380.474 267.43 380.84" fill="white"/>
</g>
<g opacity="0.6">
<path d="M254.326 398.264L255.169 393.533L311.591 403.763C311.591 403.763 313.349 404.861 313.288 407.275L254.326 398.264Z" fill="white"/>
</g>
<path d="M286.25 386.522C286.189 386.802 284.735 386.668 283.172 387.327C281.585 387.936 280.632 389.046 280.388 388.875C280.131 388.778 280.876 387.144 282.794 386.388C284.699 385.62 286.36 386.278 286.25 386.522Z" fill="#263238"/>
<path d="M291.904 390.18C291.917 390.473 290.598 390.729 289.401 391.753C288.18 392.741 287.691 393.996 287.41 393.935C287.129 393.935 287.239 392.228 288.754 390.985C290.244 389.717 291.941 389.899 291.904 390.18Z" fill="#263238"/>
<path d="M294.029 398.13C293.76 398.142 293.626 396.642 294.64 395.228C295.653 393.801 297.107 393.436 297.18 393.692C297.302 393.96 296.276 394.63 295.458 395.813C294.615 396.972 294.322 398.154 294.029 398.13Z" fill="#263238"/>
<path d="M287.007 379.559C286.836 379.791 285.603 379.169 283.978 378.974C282.354 378.755 280.999 379.059 280.901 378.791C280.779 378.559 282.195 377.73 284.113 377.974C286.018 378.206 287.178 379.364 287.007 379.559Z" fill="#263238"/>
<g opacity="0.3">
<path d="M290.548 362.732L289.376 368.049L260.737 362.513L261.592 357.684L290.548 362.732Z" fill="black"/>
</g>
<path d="M198.478 410.763L194.68 441.063C194.68 441.063 224.417 452.879 224.259 458.549L164.991 455.525L168.96 408.068L198.478 410.763Z" fill="#455A64"/>
<g opacity="0.6">
<path d="M176.642 436.893C175.469 437.1 174.565 438.32 174.724 439.49C174.883 440.673 176.116 441.6 177.289 441.405C178.461 441.21 179.597 439.795 179.304 438.637C179.011 437.491 177.509 436.466 176.41 436.942" fill="white"/>
</g>
<g opacity="0.6">
<path d="M164.991 455.525L165.394 450.745L222.524 455.659C222.524 455.659 224.381 456.586 224.54 459L164.991 455.525Z" fill="white"/>
</g>
<path d="M195.669 440.856C195.632 441.149 194.179 441.149 192.677 441.941C191.15 442.697 190.308 443.892 190.051 443.746C189.795 443.661 190.369 441.978 192.213 441.039C194.045 440.088 195.754 440.588 195.669 440.856Z" fill="#263238"/>
<path d="M201.641 443.965C201.678 444.246 200.383 444.624 199.296 445.758C198.173 446.855 197.806 448.16 197.525 448.111C197.245 448.136 197.196 446.429 198.576 445.051C199.956 443.661 201.666 443.685 201.641 443.965Z" fill="#263238"/>
<path d="M204.511 451.684C204.242 451.72 203.974 450.245 204.853 448.733C205.72 447.209 207.137 446.709 207.247 446.965C207.393 447.221 206.441 447.989 205.732 449.233C204.987 450.465 204.792 451.684 204.511 451.684Z" fill="#263238"/>
<path d="M195.767 433.845C195.621 434.101 194.338 433.577 192.69 433.552C191.053 433.479 189.734 433.918 189.6 433.662C189.453 433.442 190.784 432.479 192.714 432.552C194.656 432.601 195.938 433.638 195.767 433.845Z" fill="#263238"/>
<g opacity="0.3">
<path d="M197.721 416.762L197.049 422.163L168.032 419.322L168.423 414.445L197.721 416.762Z" fill="black"/>
</g>
<path d="M169.741 53.7429C171.118 41.3538 162.175 30.1958 149.767 28.8209C137.358 27.446 126.183 36.3748 124.806 48.764C123.429 61.1531 132.372 72.311 144.78 73.6859C157.188 75.0608 168.364 66.1321 169.741 53.7429Z" fill="#F0C62E"/>
<path d="M422.382 312.056L399.826 259.77L168.777 40.6653L138.282 74.3072L368.11 291.754L422.382 312.056Z" fill="#F0C62E"/>
<g opacity="0.7">
<path d="M368.11 291.754C368.465 289.523 370.406 287.962 372.531 288.754C370.248 285.218 370.48 280.243 373.105 276.951C375.719 273.659 380.53 272.293 384.487 273.72C383.645 269.647 385.147 265.172 388.273 262.429C391.412 259.685 396.053 258.783 399.985 260.161L422.383 312.056L368.11 291.754Z" fill="white"/>
</g>
<path d="M413.309 291.022C413.309 291.022 402.672 288.571 400.144 303.74L422.383 312.056L413.309 291.022Z" fill="#263238"/>
<path opacity="0.3" d="M384.487 273.72L155.392 58.4191L169.802 41.7018L399.826 259.77L399.996 260.161C399.996 260.161 397.725 259.234 394.818 259.575C392.877 259.807 390.532 260.575 388.541 262.209C385.976 264.306 384.792 267.013 384.413 269.294C383.998 271.757 384.487 273.72 384.487 273.72Z" fill="black"/>
<path opacity="0.3" d="M372.531 288.754L142.129 70.2224L138.307 74.6364L368.11 291.754C368.11 291.754 368.488 288.486 371.713 288.547C371.969 288.559 372.238 288.681 372.531 288.754Z" fill="black"/>
<path d="M396.614 276.975C396.589 277 396.528 276.719 396.125 276.597C395.759 276.463 394.977 276.561 394.647 277.329C394.33 278.048 394.342 279.109 394.611 280.194C394.77 280.731 395.05 281.292 395.539 281.694C396.015 282.097 396.724 282.341 397.383 282.109C398.043 281.902 398.531 281.268 398.836 280.56C399.154 279.853 399.288 279.036 399.398 278.195C399.581 276.524 399.52 274.646 398.946 272.854C398.641 271.976 398.104 271.098 397.2 270.732C396.308 270.367 395.234 270.61 394.428 271.183C392.791 272.427 392.144 274.707 391.961 276.841C391.643 281.231 393.927 285.486 397.236 287.328C398.067 287.754 399.032 287.791 399.838 287.413C400.644 287.047 401.279 286.413 401.792 285.755C402.805 284.401 403.514 282.95 403.99 281.597C404.955 278.853 405.028 276.451 404.943 274.842C404.881 274.037 404.796 273.403 404.723 272.988C404.649 272.561 404.625 272.342 404.625 272.342C404.625 272.342 404.906 273.208 405.065 274.842C405.187 276.463 405.162 278.89 404.21 281.67C403.734 283.06 403.037 284.523 402.012 285.925C401.486 286.608 400.827 287.279 399.96 287.681C399.105 288.108 398.006 288.059 397.114 287.608C393.658 285.694 391.326 281.353 391.643 276.841C391.716 275.719 391.973 274.622 392.364 273.598C392.767 272.586 393.353 271.598 394.244 270.964C395.124 270.33 396.308 270.062 397.322 270.476C398.336 270.891 398.922 271.866 399.227 272.781C399.813 274.659 399.862 276.536 399.667 278.256C399.557 279.109 399.41 279.938 399.068 280.694C398.739 281.426 398.213 282.121 397.456 282.353C396.699 282.597 395.918 282.316 395.417 281.877C394.892 281.438 394.599 280.829 394.44 280.268C394.183 279.121 394.183 278.073 394.537 277.305C394.904 276.488 395.771 276.402 396.15 276.561C396.577 276.695 396.614 276.988 396.614 276.975Z" fill="white"/>
<path d="M390.715 299.692C390.679 299.68 390.996 299.107 391.277 297.985C391.57 296.863 391.717 295.168 391.399 293.132C391.106 291.083 390.288 288.742 389.25 286.194C388.261 283.645 387.04 280.792 386.881 277.561C386.734 274.342 387.638 271.293 389.079 268.928C390.508 266.538 392.486 264.867 394.282 263.794C396.089 262.721 397.75 262.246 398.886 262.014C400.034 261.782 400.681 261.782 400.681 261.782C400.681 261.794 400.522 261.819 400.217 261.868C399.912 261.916 399.472 261.99 398.91 262.124C397.787 262.392 396.162 262.904 394.391 263.977C392.633 265.05 390.715 266.708 389.323 269.062C387.931 271.391 387.04 274.39 387.186 277.536C387.333 280.694 388.529 283.523 389.506 286.084C390.532 288.632 391.338 291.01 391.607 293.095C391.9 295.168 391.717 296.9 391.375 298.021C391.07 299.143 390.715 299.692 390.715 299.692Z" fill="white"/>
<path d="M378.124 295.705C378.05 295.656 379.528 295.241 380.359 293.229C381.152 291.278 381.409 288.291 381.531 285.072C381.617 281.828 381.311 278.89 380.969 276.792C380.81 275.744 380.627 274.903 380.517 274.317C380.395 273.732 380.334 273.415 380.359 273.403C380.383 273.403 380.481 273.708 380.639 274.293C380.798 274.866 380.994 275.707 381.189 276.768C381.592 278.865 381.934 281.828 381.849 285.096C381.812 286.73 381.678 288.279 381.482 289.681C381.287 291.083 381.018 292.351 380.566 293.339C380.127 294.339 379.479 294.985 378.979 295.327C378.453 295.644 378.124 295.705 378.124 295.705Z" fill="white"/>
<path d="M374.399 275.671C374.435 275.659 374.741 276.305 375.119 277.402C375.486 278.5 375.938 280.097 375.718 281.902C375.535 283.718 374.472 285.182 373.446 285.779C372.946 286.096 372.481 286.242 372.152 286.303C371.822 286.364 371.639 286.352 371.639 286.328C371.627 286.267 372.384 286.242 373.312 285.584C374.252 284.962 375.217 283.596 375.388 281.853C375.596 280.121 375.193 278.561 374.887 277.451C374.582 276.366 374.35 275.683 374.399 275.671Z" fill="white"/>
<path d="M397.909 303.021C397.897 303.021 397.86 302.935 397.799 302.765C397.738 302.594 397.652 302.35 397.555 302.021C397.469 301.692 397.347 301.277 397.396 300.789C397.433 300.289 397.652 299.753 397.958 299.241C398.556 298.168 399.497 297.07 400.425 295.79C401.353 294.51 402.244 292.998 403.038 291.352C404.638 288.047 405.603 284.852 406.299 282.56C406.592 281.56 406.861 280.658 407.117 279.829C407.313 279.182 407.435 278.829 407.447 278.841C407.471 278.841 407.386 279.207 407.239 279.865C407.08 280.524 406.836 281.463 406.519 282.633C405.871 284.95 404.943 288.169 403.319 291.498C402.513 293.156 401.609 294.68 400.657 295.961C399.704 297.253 398.752 298.326 398.141 299.35C397.433 300.35 397.469 301.35 397.665 301.996C397.836 302.643 397.933 303.009 397.909 303.021Z" fill="white"/>
<path d="M171.097 42.7138L138.954 74.99C138.502 75.4412 137.757 75.4534 137.305 74.99L127.34 65.1011C126.888 64.6499 126.876 63.9061 127.34 63.455L159.471 31.1788C159.923 30.7276 160.668 30.7154 161.119 31.1788L171.085 41.0677C171.549 41.5311 171.549 42.2627 171.097 42.7138Z" fill="#E0E0E0"/>
<path d="M171.098 42.7138C171.085 42.7016 171.171 42.6285 171.269 42.4334C171.354 42.2505 171.452 41.9213 171.317 41.5433C171.195 41.1653 170.731 40.8604 170.304 40.4215C169.852 39.9825 169.339 39.4947 168.777 38.946C167.617 37.812 166.225 36.4586 164.601 34.8734C163.782 34.0808 162.915 33.2273 161.999 32.325C161.767 32.0933 161.535 31.8738 161.303 31.6421C161.047 31.3983 160.863 31.1666 160.595 31.1056C160.326 31.0203 160.021 31.069 159.789 31.2275C159.581 31.3861 159.3 31.7031 159.068 31.9348C150.984 40.0922 139.87 51.2981 127.584 63.6867C127.291 63.9671 127.255 64.4548 127.499 64.7719C127.792 65.1011 128.244 65.5157 128.598 65.8815C129.367 66.6375 130.125 67.3935 130.882 68.1495C132.384 69.6493 133.874 71.1247 135.339 72.5757C136.072 73.3073 136.793 74.0267 137.513 74.734C137.782 75.0388 138.209 75.0998 138.539 74.9412C138.624 74.9047 138.698 74.8437 138.759 74.7827L139.027 74.5145L139.553 73.9902C140.957 72.5879 142.325 71.2222 143.656 69.881C149.005 64.5402 153.829 59.736 157.884 55.6877C161.926 51.6882 165.211 48.4448 167.519 46.1524C168.643 45.0672 169.522 44.2014 170.157 43.5796C170.438 43.3113 170.67 43.0918 170.853 42.9211C171 42.787 171.085 42.7138 171.098 42.7138C171.11 42.726 171.037 42.8114 170.89 42.9699C170.719 43.1528 170.499 43.3845 170.23 43.6771C169.608 44.3234 168.753 45.2013 167.678 46.3353C165.407 48.6521 162.17 51.9565 158.189 56.0047C154.159 60.0896 149.371 64.9182 144.059 70.2955C142.728 71.6368 141.36 73.0147 139.968 74.4169L139.443 74.9412L139.174 75.2095C139.064 75.3193 138.93 75.4168 138.795 75.49C138.234 75.7948 137.464 75.6363 137.061 75.1729C136.341 74.4657 135.62 73.7463 134.887 73.0147C133.422 71.5637 131.932 70.0882 130.43 68.5884C129.673 67.8446 128.915 67.0886 128.146 66.3326C127.755 65.9303 127.401 65.6254 126.974 65.1377C126.558 64.5768 126.632 63.7232 127.132 63.2355C139.467 50.9079 150.629 39.7386 158.751 31.6177C159.032 31.3617 159.203 31.13 159.545 30.8617C159.886 30.6301 160.338 30.5691 160.717 30.691C161.132 30.813 161.376 31.13 161.596 31.3495C161.828 31.5812 162.06 31.8128 162.292 32.0445C163.196 32.959 164.051 33.8248 164.857 34.6295C166.445 36.2391 167.825 37.6291 168.96 38.7753C169.51 39.3362 170.011 39.8484 170.45 40.2995C170.853 40.7507 171.317 41.0677 171.452 41.5189C171.586 41.9578 171.452 42.2992 171.342 42.4822C171.195 42.6651 171.098 42.7138 171.098 42.7138Z" fill="#263238"/>
<path d="M131.211 60.0408C131.333 59.9189 134.02 62.2722 137.195 65.3084C140.383 68.3446 142.862 70.9174 142.752 71.0393C142.63 71.1613 139.943 68.8079 136.756 65.7717C133.581 62.7356 131.089 60.1627 131.211 60.0408Z" fill="#263238"/>
<path d="M143.07 47.3596C143.192 47.2254 145.976 49.6641 149.42 52.6393C152.864 55.6268 155.661 58.0289 155.551 58.1752C155.441 58.3093 152.449 56.1145 149.005 53.1271C145.549 50.1275 142.96 47.4815 143.07 47.3596Z" fill="#263238"/>
<path d="M169.265 44.4087C169.143 44.5307 166.395 42.1773 163.123 39.1411C159.85 36.105 157.297 33.5321 157.419 33.4102C157.529 33.2761 160.289 35.6416 163.562 38.6778C166.835 41.714 169.4 44.2868 169.265 44.4087Z" fill="#263238"/>
<path d="M243.078 114.607C243.078 114.607 232.196 115.777 228.936 116.241C225.675 116.704 221.278 117.594 219.764 120.179C219.141 121.228 209.603 135.165 209.603 135.165L205.964 136.189L211.789 152.187L221.645 147.298C221.645 147.298 224.991 143.554 227.666 140.006C230.34 136.47 231.146 135.177 231.146 135.177C231.146 135.177 240.904 135.628 242.882 133.946C243.969 133.019 243.31 131.373 243.31 131.373L232.673 130.434C232.673 130.434 244.238 130.397 246.155 129.129C246.326 129.019 246.473 128.898 246.607 128.763C247.719 127.654 246.851 125.739 245.276 125.727L232.831 125.642C232.831 125.642 247.12 124.349 247.438 122.752C247.499 122.472 247.523 122.215 247.535 121.972C247.596 120.947 246.766 120.094 245.74 120.13L234.077 120.496C234.077 120.496 245.362 118.692 245.459 117.119C245.667 114.131 243.078 114.607 243.078 114.607Z" fill="#FFBF9D"/>
<path d="M169.339 145.517C172.258 141.067 177.35 138.25 182.663 137.738C183.176 137.689 206.392 135.214 206.392 135.214L213.499 157.406L179.402 166.271" fill="#455A64"/>
<path d="M179.414 166.271C179.414 166.258 179.634 166.173 180.061 166.051C180.538 165.917 181.16 165.734 181.942 165.515C183.652 165.051 186.033 164.393 189.013 163.588C195.119 161.966 203.619 159.723 213.438 157.125L213.231 157.516C211.899 153.37 210.458 148.895 208.968 144.249C207.991 141.189 207.039 138.213 206.123 135.336L206.453 135.555C200.81 136.14 195.522 136.689 190.735 137.189C188.354 137.433 186.094 137.665 183.994 137.872C181.881 138.043 179.988 138.347 178.315 138.945C174.969 140.091 172.697 141.908 171.329 143.261C169.961 144.652 169.412 145.578 169.363 145.542C169.351 145.529 169.485 145.298 169.766 144.871C170.047 144.444 170.511 143.835 171.171 143.103C172.514 141.688 174.785 139.774 178.181 138.555C179.854 137.909 181.844 137.579 183.945 137.384C186.045 137.153 188.293 136.896 190.674 136.64C195.449 136.116 200.737 135.543 206.379 134.933L206.636 134.909L206.709 135.153C207.637 138.03 208.59 141.018 209.567 144.066C211.044 148.712 212.486 153.199 213.804 157.345L213.902 157.65L213.585 157.735C203.729 160.247 195.217 162.417 189.099 163.978C186.106 164.722 183.701 165.307 181.991 165.734C181.197 165.917 180.574 166.063 180.086 166.173C179.646 166.246 179.414 166.283 179.414 166.271Z" fill="#263238"/>
<path d="M296.63 161.43C296.63 161.43 303.469 159.101 305.277 160.332C307.084 161.564 307.695 163.551 307.695 163.551C307.695 163.551 311.871 163.588 310.626 167.941C310.626 167.941 314.289 168.673 313.178 172.94C313.178 172.94 315.865 172.867 314.583 176.391C313.3 179.915 307.817 186.951 306.559 187.902C303.945 189.865 303.225 186.756 303.86 185.512C304.495 184.268 308.086 177.428 308.086 177.428C308.086 177.428 301.869 187.195 299.769 185.561C298.572 184.634 298.828 183.195 300.416 180.33C301.515 178.342 303.53 174.416 303.53 174.416L298.645 180.439C297.729 181.561 295.885 181.122 295.641 179.696C295.555 179.196 295.604 178.586 295.885 177.867C297.045 174.891 299.5 171.282 299.5 171.282L295.531 175.172C294.64 176.05 293.162 175.977 292.392 174.989C291.916 174.367 291.647 173.587 292.087 172.697C293.174 170.514 299.231 164.161 299.231 164.161L296.63 161.43Z" fill="#FFBF9D"/>
<path d="M179.024 193.45C179.024 193.45 173.357 221.861 179.122 234.249C184.886 246.638 200.005 252.576 215.735 257.393C236.753 263.831 273.06 283.779 273.06 283.779C273.06 283.779 268.359 304.472 265.257 316.848C262.277 328.737 253.96 372.012 253.96 372.012L292.173 377.267L319.419 279.378C319.419 279.378 327.028 259.27 310.492 249.296C296.325 240.749 246.217 206.985 246.217 206.985L242.334 198.01L179.024 193.45Z" fill="#263238"/>
<path d="M179.72 227.275L186.84 243.553L177.167 320.848C177.167 320.848 168.887 346.259 167.055 359.672C165.223 373.085 161.193 427.102 161.193 427.102H198.649C198.649 427.102 204.45 361.379 215.698 341.638C224.552 326.091 230.573 299.033 230.939 297.265C231.306 295.497 244.361 252.198 244.361 252.198L226.066 214.606L179.72 227.275Z" fill="#263238"/>
<path d="M286.286 274.732C286.36 274.915 282.903 276.122 279.252 278.67C275.576 281.194 273.256 284.023 273.097 283.889C273.036 283.84 273.536 283.072 274.526 281.963C275.515 280.853 277.017 279.451 278.886 278.146C280.754 276.853 282.598 275.939 283.978 275.39C285.358 274.854 286.262 274.659 286.286 274.732Z" fill="#455A64"/>
<path d="M292.173 377.279C292.173 377.279 291.941 377.267 291.501 377.218C291.037 377.157 290.378 377.084 289.535 376.974C287.777 376.743 285.224 376.413 281.951 375.987C275.332 375.097 265.782 373.816 253.936 372.231L253.704 372.194L253.752 371.963C255.914 360.659 258.503 347.21 261.581 332.261C262.35 328.53 263.156 324.689 264.035 320.787C264.951 316.885 265.879 312.91 266.832 308.849C268.737 300.741 270.728 292.327 272.755 283.694L272.914 284.035C270.105 282.511 267.088 280.902 264.035 279.304C255.523 274.866 247.133 270.708 238.902 266.94C230.671 263.197 222.623 259.783 214.684 257.344C206.746 254.869 199.236 252.162 192.812 248.418C189.612 246.54 186.693 244.394 184.275 241.919C181.857 239.456 179.94 236.664 178.706 233.749C177.436 230.823 177.021 227.799 176.691 224.982C176.557 223.568 176.435 222.19 176.423 220.861C176.349 219.52 176.374 218.227 176.386 216.983C176.459 211.984 176.874 207.692 177.29 204.205C177.717 200.717 178.145 198.022 178.474 196.193C178.645 195.303 178.78 194.62 178.865 194.121C178.963 193.657 179.024 193.426 179.024 193.426C179.024 193.426 178.999 193.669 178.926 194.133C178.853 194.621 178.743 195.316 178.596 196.206C178.316 198.035 177.913 200.729 177.534 204.217C177.155 207.704 176.777 211.984 176.74 216.971C176.74 218.215 176.728 219.507 176.801 220.837C176.826 222.166 176.948 223.531 177.094 224.934C177.436 227.714 177.864 230.713 179.122 233.567C180.355 236.42 182.236 239.151 184.629 241.565C187.023 243.992 189.905 246.101 193.093 247.955C199.468 251.65 206.954 254.332 214.88 256.783C222.855 259.222 230.939 262.624 239.183 266.367C247.414 270.135 255.829 274.293 264.341 278.731C267.394 280.329 270.422 281.926 273.231 283.462L273.439 283.572L273.39 283.804C271.351 292.449 269.36 300.862 267.443 308.971C266.49 313.019 265.55 316.994 264.622 320.896C263.742 324.798 262.924 328.615 262.142 332.358C259.04 347.295 256.39 360.733 254.18 372.024L253.997 371.768C265.831 373.438 275.369 374.779 281.976 375.718C285.249 376.194 287.789 376.56 289.547 376.816C290.39 376.95 291.049 377.047 291.514 377.121C291.953 377.218 292.173 377.279 292.173 377.279Z" fill="#455A64"/>
</g>
<defs>
<clipPath id="clip0_560_946">
<rect width="479" height="459" fill="white"/>
</clipPath>
</defs>
</svg>
