<svg width="124" height="124" viewBox="0 0 124 124" fill="none" xmlns="http://www.w3.org/2000/svg">
<path d="M103.968 0.00243285C105.08 0.325686 106.216 0.588185 107.303 0.981922C116.514 4.32626 122.349 10.784 123.696 20.4695C125.379 32.5708 119.238 41.8795 109.292 46.3953C109.003 46.5266 108.711 46.653 108.332 46.8183C111.399 56.7443 111.413 66.6631 108.31 76.6669C114.857 79.3429 119.603 83.8757 122.305 90.4332C124.277 95.2212 124.409 100.208 123.314 105.162C121.203 114.699 112.632 122.229 103.183 123.509C92.9479 124.897 81.5967 119.584 76.9147 107.993C67.0277 111.034 57.1041 111.063 47.2147 107.998C46.434 109.464 45.7529 110.922 44.9138 112.286C37.1137 124.968 19.4241 127.559 8.29663 117.667C7.10484 116.607 6.97841 115.401 7.97319 114.585C8.74664 113.95 9.67086 114.052 10.6875 114.937C13.5186 117.404 16.7778 118.969 20.4578 119.723C32.1349 122.11 43.885 113.377 44.8847 101.545C45.8284 90.37 38.6095 80.9762 27.5745 79.0172C16.4714 77.0485 5.29041 85.3292 3.86999 96.5191C3.36409 100.505 3.87729 104.306 5.51661 107.971C6.09062 109.257 5.78418 110.276 4.74562 110.742C3.71678 111.204 2.79496 110.728 2.18691 109.425C2.15286 109.352 2.11636 109.279 2.08474 109.206C-1.93086 100.228 0.0635827 89.4075 7.0003 82.4369C9.30605 80.1206 11.9474 78.3123 14.9561 77.0339C15.2115 76.9245 15.4572 76.8006 15.7587 76.6596C12.6601 66.7092 12.643 56.7929 15.6736 47.054C13.4846 45.6954 11.191 44.6065 9.29387 43.0364C1.59344 36.6565 -1.53928 28.4171 0.715398 18.6563C3.00169 8.7643 9.51274 2.71729 19.3608 0.260078C19.6259 0.194455 19.8789 0.0874971 20.1392 0C22.9654 0 25.7917 0 28.6203 0C28.8757 0.0923581 29.1238 0.21145 29.3865 0.272212C36.3403 1.8982 41.6838 5.74078 45.3419 11.8777C46.0181 13.0103 46.5483 14.228 47.1685 15.4506C57.0896 12.3638 67.0082 12.3808 76.8441 15.4262C76.9584 15.3387 77.0046 15.3217 77.0192 15.2877C77.2041 14.8842 77.3768 14.4784 77.5641 14.0773C80.5192 7.78239 85.2548 3.42939 91.8096 1.08398C93.0111 0.653788 94.2613 0.35728 95.4896 0C98.3134 0.00243048 101.14 0.00243285 103.968 0.00243285ZM48.1779 18.9577C48.229 19.4317 48.2485 19.7549 48.2971 20.0709C49.3721 26.8689 47.8252 33.0326 43.7999 38.5911C42.6738 40.1466 41.6206 40.4966 40.6161 39.7091C39.6773 38.9727 39.7575 37.9397 40.8764 36.4401C45.86 29.7514 46.3732 20.8243 42.1873 13.6593C37.982 6.46262 29.9119 2.49366 21.7007 3.58009C12.0739 4.85365 4.96449 12.1718 3.74351 22.059C2.66117 30.8403 8.13611 39.8695 16.6878 43.2285C22.5738 45.5398 28.3722 45.1558 34.0126 42.3073C35.3892 41.6122 36.3938 41.8042 36.9289 42.8542C37.4591 43.8944 37.0213 44.8204 35.6446 45.5399C32.7503 47.0516 29.6881 48.0457 26.4192 48.2012C24.0599 48.313 21.6885 48.223 19.1225 48.223C16.3206 57.1648 16.3206 66.3593 19.2538 75.6194C27.8566 74.1684 35.3673 76.176 41.4941 82.2984C47.6428 88.4426 49.625 95.9965 48.19 104.44C57.1212 107.522 68.3289 107.211 75.8737 104.382C74.4289 95.943 76.4404 88.4426 82.5501 82.3178C88.6964 76.1565 96.2485 74.1587 104.722 75.5951C107.797 67.312 107.663 55.6117 104.717 47.8852C96.2801 49.3192 88.7645 47.3359 82.6231 41.2354C76.4452 35.096 74.4314 27.5592 75.8931 18.9528C66.641 16.0581 57.469 16.0509 48.1779 18.9577ZM120.417 24.0422C120.415 12.6482 111.107 3.3905 99.656 3.39293C88.3145 3.39536 79.0331 12.7017 79.0453 24.0568C79.0575 35.4461 88.4142 44.7621 99.8068 44.7281C111.16 44.694 120.417 35.4023 120.417 24.0422ZM99.7192 120.092C111.078 120.097 120.386 110.837 120.417 99.5036C120.449 88.1144 111.134 78.7644 99.7411 78.7571C88.3559 78.7498 79.021 88.095 79.0429 99.4794C79.0648 110.815 88.3656 120.087 99.7192 120.092Z" fill="#FFC727"/>
<path d="M20.6113 89.5802C20.8399 89.6774 21.3774 89.8451 21.8566 90.1173C25.6995 92.3169 29.54 94.5262 33.3659 96.7549C35.6789 98.1014 35.6789 100.277 33.3683 101.621C29.54 103.847 25.7019 106.059 21.8541 108.253C19.6043 109.537 17.717 108.426 17.7121 105.83C17.7048 101.317 17.6999 96.8059 17.7145 92.2926C17.7243 90.6131 18.7701 89.534 20.6113 89.5802ZM30.3061 99.1878C27.2829 97.4428 24.4153 95.7851 21.4164 94.0546C21.4164 97.5521 21.4164 100.85 21.4164 104.328C24.4202 102.59 27.2902 100.93 30.3061 99.1878Z" fill="#FFC727"/>
<path d="M54.2349 67.9007C54.3808 70.7978 54.5219 73.5321 54.6581 76.2663C54.7116 77.3528 54.7822 78.4416 54.8065 79.5304C54.8357 80.8769 54.1911 81.6547 53.0723 81.6814C51.9753 81.7082 51.2578 80.9572 51.1849 79.6228C50.9976 76.2007 50.8371 72.7762 50.6644 69.3516C50.6425 68.9166 50.6182 68.4815 50.589 67.9493C49.9177 67.9152 49.3242 67.8933 48.7332 67.852C46.7606 67.7086 45.3378 66.2844 45.3159 64.3108C45.277 61.0832 45.2746 57.8555 45.3184 54.6302C45.3451 52.5765 46.892 51.1109 48.9861 51.089C51.1654 51.0647 53.3836 50.8289 55.5167 51.1376C59.6442 51.7355 63.239 50.2457 66.8654 48.7558C68.4658 48.0971 70.003 47.2853 71.5572 46.5246C72.5568 46.0361 73.5565 45.6326 73.5541 44.1549C73.5516 43.7344 74.5318 43.0077 75.0937 42.9761C75.6507 42.9445 76.3657 43.5108 76.7865 44.0066C77.0686 44.3372 77.0175 45.0031 77.0175 45.5184C77.0297 54.8368 77.0273 64.1553 77.02 73.4737C77.02 73.9136 77.0054 74.3705 76.8838 74.7862C76.6235 75.6733 75.9717 76.1059 75.0548 76.0379C74.1378 75.9698 73.4519 75.4375 73.4592 74.5309C73.4665 73.5174 72.9168 73.1262 72.158 72.7592C71.2507 72.3193 70.3557 71.855 69.4776 71.3641C68.405 70.7662 68.0718 69.7769 68.585 68.8315C69.0715 67.9346 70.0346 67.6454 71.0854 68.1169C71.8077 68.4402 72.5058 68.8121 73.3303 69.2204C73.3303 62.6946 73.3303 56.3413 73.3303 50.0634C68.7553 51.8109 64.1583 53.5657 59.3693 55.3934C59.3693 57.8676 59.3499 60.6432 59.4034 63.4212C59.4082 63.6643 59.863 64.0094 60.1719 64.1115C61.3564 64.5053 62.575 64.7896 63.7643 65.1712C64.9975 65.5649 65.5277 66.5201 65.175 67.5774C64.854 68.5399 63.8762 68.9555 62.6869 68.6322C62.609 68.6104 62.5288 68.5933 62.4583 68.5569C59.8606 67.2225 57.1268 67.9323 54.2349 67.9007ZM49.0129 54.7615C49.0129 57.9697 49.0129 61.0467 49.0129 64.1359C51.2773 64.1359 53.4615 64.1359 55.648 64.1359C55.648 60.9592 55.648 57.8847 55.648 54.7615C53.4104 54.7615 51.253 54.7615 49.0129 54.7615Z" fill="#FFC727"/>
<path d="M15.134 29.9653C12.9839 28.2105 11.5732 26.0207 11.0892 23.2888C10.6198 20.6469 10.8825 18.0682 11.8529 15.5745C12.5169 13.8659 14.0687 13.6009 15.2143 15.0301C16.6444 16.8165 18.3713 18.1216 20.5944 18.7293C20.9373 18.8241 21.2924 18.8775 21.6962 18.9626C21.8202 18.564 21.9248 18.2261 22.027 17.8883C23.2942 13.6982 27.9324 11.7392 31.734 13.8756C32.5877 14.3568 33.2006 14.3009 33.9181 13.8027C34.1832 13.618 34.4605 13.3433 34.745 13.3239C35.4236 13.2801 36.292 13.127 36.7395 13.4697C37.1822 13.8075 37.4643 14.7506 37.3524 15.3363C37.1603 16.3377 36.7565 17.3803 36.1582 18.1994C35.409 19.2226 35.3045 20.3067 35.195 21.4733C34.6016 27.8411 31.6318 32.634 25.6217 35.1641C20.5287 37.3054 15.5281 36.6443 10.7122 34.1191C9.85123 33.667 9.5034 32.9451 9.71987 32.0069C9.92904 31.0931 10.5979 30.7261 11.493 30.6532C12.6848 30.5584 13.8717 30.4271 15.061 30.3129C15.0805 30.1962 15.1073 30.082 15.134 29.9653ZM19.0304 32.4882C19.0377 32.5732 19.0474 32.6607 19.0547 32.7482C19.9255 32.6948 20.8133 32.7264 21.6646 32.5732C27.7792 31.4674 31.8094 26.4776 31.6294 19.5337C31.6197 19.1327 31.6732 18.7001 31.5394 18.3404C31.211 17.463 29.2823 16.5759 28.1124 16.6925C26.8063 16.8238 25.6801 17.847 25.4637 19.1351C25.398 19.5289 25.4077 19.9372 25.398 20.3407C25.3542 22.1684 24.7097 22.8027 22.8661 22.7371C20.1395 22.6399 17.6489 21.8087 15.4088 20.2434C15.1729 20.0782 14.9127 19.9445 14.5916 19.7525C14.2195 23.1624 15.331 25.7533 18.077 27.5883C18.6437 27.9675 19.2785 28.2445 19.8671 28.5921C21.2486 29.4063 21.3264 30.8913 20.0422 31.8319C19.7163 32.0653 19.3685 32.2694 19.0304 32.4882Z" fill="#FFC727"/>
<path d="M99.9571 25.4691C99.9571 26.3927 99.9571 27.1899 99.9571 27.9847C99.9571 30.5658 99.9668 33.1446 99.9522 35.7257C99.945 37.2983 99.3369 38.0809 98.1621 38.093C96.98 38.1052 96.3331 37.3104 96.3258 35.767C96.3112 32.8237 96.321 29.8805 96.321 26.9372C96.321 26.5021 96.321 26.067 96.321 25.4667C95.4381 25.4667 94.684 25.4886 93.9301 25.4618C92.7115 25.4205 91.9259 24.6938 91.9356 23.6536C91.9429 22.6279 92.7456 21.8939 93.9568 21.8453C94.6768 21.8162 95.3967 21.8405 96.321 21.8405C96.321 20.2461 96.3331 18.7343 96.3185 17.2225C96.2966 15.057 96.9703 13.1904 98.6048 11.7127C100.728 9.79258 103.301 9.76828 105.904 10.0721C106.85 10.1839 107.356 10.9786 107.271 11.9314C107.188 12.8695 106.617 13.4966 105.629 13.5671C104.826 13.623 104.014 13.5647 103.209 13.6011C101.326 13.6886 100.105 14.8285 99.9936 16.7C99.9109 18.0659 99.962 19.4391 99.9596 20.8099C99.9596 21.087 99.9863 21.3641 100.011 21.838C100.833 21.838 101.618 21.8234 102.404 21.8405C103.73 21.8696 104.539 22.5453 104.566 23.6195C104.595 24.7594 103.795 25.44 102.375 25.4643C101.621 25.4789 100.864 25.4691 99.9571 25.4691Z" fill="#FFC727"/>
<path d="M99.731 86.5766C102.151 86.5766 104.571 86.5645 106.991 86.5791C110.642 86.601 112.61 88.5551 112.617 92.1789C112.629 97.0155 112.627 101.855 112.617 106.691C112.61 110.298 110.596 112.308 106.991 112.313C102.151 112.32 97.3085 112.32 92.4683 112.313C88.8638 112.308 86.8548 110.305 86.8451 106.694C86.8329 101.857 86.8329 97.018 86.8451 92.1813C86.8548 88.5502 88.8127 86.601 92.4659 86.5791C94.8908 86.5645 97.3109 86.5766 99.731 86.5766ZM108.986 99.4947C108.986 97.0739 108.993 94.6531 108.983 92.2324C108.976 90.6039 108.604 90.2151 106.994 90.2126C102.149 90.2029 97.3036 90.2029 92.4586 90.2126C90.8436 90.2175 90.4837 90.5918 90.4812 92.2421C90.4739 97.0423 90.4739 101.845 90.4812 106.645C90.4837 108.257 90.8971 108.679 92.4659 108.682C97.3109 108.689 102.156 108.689 107.001 108.682C108.56 108.679 108.976 108.247 108.981 106.638C108.993 104.256 108.986 101.874 108.986 99.4947Z" fill="#FFC727"/>
<path d="M99.7148 104.894C96.6745 104.887 94.2642 102.478 94.2617 99.4447C94.2593 96.3774 96.7474 93.9105 99.812 93.9494C102.818 93.9859 105.221 96.4528 105.204 99.4812C105.182 102.51 102.76 104.901 99.7148 104.894ZM99.6977 101.253C100.734 101.27 101.546 100.49 101.561 99.4617C101.575 98.4409 100.775 97.6024 99.7634 97.583C98.754 97.5635 97.9173 98.3777 97.8979 99.3937C97.8784 100.422 98.6664 101.236 99.6977 101.253Z" fill="#FFC727"/>
</svg>
