<svg width="56" height="43" viewBox="0 0 56 43" fill="none" xmlns="http://www.w3.org/2000/svg">
<g clip-path="url(#clip0_108_638)">
<path d="M56 6.89427C55.7162 8.20424 54.8742 9.14182 53.9447 10.0581C43.187 20.6735 32.4413 31.3021 21.7011 41.9334C20.8524 42.7739 19.8893 43.2354 18.7016 42.8777C18.2174 42.7314 17.7197 42.4494 17.3619 42.097C12.01 36.8385 6.67413 31.5654 1.35041 26.2804C-0.46945 24.473 -0.437168 21.9276 1.38 20.1069C1.98124 19.5045 2.58651 18.9047 3.19717 18.3102C5.03451 16.5215 7.61164 16.5082 9.43957 18.3062C12.6314 21.4448 15.8084 24.5967 18.9868 27.7486C19.1253 27.8856 19.2074 28.0784 19.4064 28.3856C19.6647 28.0412 19.775 27.847 19.9283 27.6954C28.7371 18.9778 37.5512 10.2629 46.3667 1.54803C48.4475 -0.50934 50.9278 -0.515989 53.0018 1.52808C53.2991 1.82066 53.5829 2.12654 53.8936 2.40449C54.8782 3.28756 55.7121 4.26504 56.0013 5.59628C56 6.02983 56 6.46205 56 6.89427Z" fill="#EBEFF2"/>
</g>
<defs>
<clipPath id="clip0_108_638">
<rect width="56" height="43" fill="white"/>
</clipPath>
</defs>
</svg>
