<svg width="58" height="58" viewBox="0 0 58 58" fill="none" xmlns="http://www.w3.org/2000/svg">
<g clip-path="url(#clip0_69_3529)">
<path d="M11.0305 6.88359C11.9493 6.92962 12.7605 7.20878 13.4998 7.70343C14.112 8.11384 14.7202 8.5311 15.3185 8.96208C15.5581 9.13447 15.7404 9.16582 16.0115 8.99049C18.0737 7.65641 20.2896 6.64851 22.6682 6.01281C22.9866 5.9276 23.1216 5.77479 23.1719 5.46331C23.2843 4.77179 23.3986 4.0783 23.5623 3.39755C24.0226 1.48263 25.5209 0.186758 27.4914 0.0506082C28.5018 -0.0189361 29.5299 -0.077706 30.5108 0.298421C32.292 0.981131 33.2206 2.34361 33.3901 4.16058C33.4936 5.27427 33.9362 5.71211 35.0511 5.94229C37.2769 6.40265 39.3459 7.34493 41.2898 8.52621C41.6447 8.74169 41.8813 8.70153 42.2046 8.48213C42.8522 8.04233 43.493 7.55356 44.2106 7.26363C45.7612 6.63479 47.2496 6.88946 48.5547 7.93361C49.1008 8.37046 49.5986 8.88372 50.0511 9.41853C51.2803 10.8731 51.37 12.9868 50.3084 14.5687C50.0077 15.0164 49.6775 15.4454 49.3995 15.9067C49.3216 16.035 49.3118 16.2887 49.3897 16.4121C50.8229 18.7061 51.7998 21.1823 52.4021 23.8074C52.4888 24.1835 52.6574 24.2795 53.0172 24.3343C54.0966 24.5008 55.2036 24.5998 56.1302 25.2844C57.314 26.1572 57.9282 27.311 57.9942 28.7803C58.0593 30.2456 57.6659 31.5209 56.559 32.5298C55.9271 33.1057 55.1671 33.4348 54.3361 33.6141C53.8077 33.7277 53.2794 33.8443 52.7471 33.9432C52.4947 33.9902 52.3548 34.095 52.2966 34.3624C51.8146 36.5585 51.0013 38.6301 49.9249 40.6057C49.8421 40.7576 49.8648 41.0504 49.9614 41.2003C50.4365 41.9428 50.958 42.6549 51.4528 43.3856C52.6465 45.1487 52.4731 47.3339 51.0053 48.8678C50.3172 49.5868 49.6647 50.3557 48.6937 50.7338C47.2496 51.296 45.8656 51.1931 44.5595 50.3488C43.9267 49.9394 43.3037 49.5143 42.7014 49.0637C42.4372 48.8668 42.2568 48.8502 41.9739 49.0373C39.9374 50.3851 37.7205 51.3538 35.3675 52.0051C34.988 52.1099 34.8825 52.301 34.8253 52.6242C34.7041 53.3138 34.5957 54.0082 34.431 54.688C33.9727 56.5794 32.2989 57.9399 30.3432 57.9869C29.5753 58.0055 28.7788 58.033 28.0405 57.8616C26.1429 57.4198 25.033 56.169 24.6673 54.2678C24.5687 53.7555 24.4997 53.2374 24.3745 52.7329C24.338 52.5889 24.1665 52.4009 24.0266 52.3705C21.4094 51.8034 18.947 50.8523 16.6631 49.4594C16.3644 49.2772 16.1574 49.2958 15.8735 49.4908C15.0021 50.0902 14.1918 50.7964 13.0878 50.9904C11.7472 51.2264 10.518 50.9845 9.48786 50.1069C8.82052 49.5378 8.15613 48.9119 7.67804 48.189C6.65583 46.6414 6.71892 45.0194 7.69973 43.4473C7.98461 42.9908 8.32568 42.5687 8.61055 42.1122C8.68448 41.9927 8.71504 41.7606 8.64703 41.6528C7.19799 39.3481 6.19746 36.8631 5.60306 34.2165C5.52519 33.8688 5.37437 33.7414 5.02541 33.7013C4.47241 33.6376 3.92533 33.522 3.37923 33.4064C1.50533 33.0088 0.0809393 31.2398 0.00602305 29.3278C-0.0600216 27.6303 0.432849 26.214 1.83556 25.1718C2.59852 24.6056 3.49949 24.3676 4.40538 24.2716C5.34677 24.1717 5.73121 23.7623 5.93033 22.8386C6.33645 20.9531 7.10336 19.1782 8.0615 17.4974C8.23499 17.1938 8.20443 16.9871 8.00827 16.7207C7.52427 16.0625 7.06393 15.3866 6.59964 14.7147C5.33987 12.8869 5.51631 10.6635 7.06491 9.06885C7.78155 8.33128 8.47156 7.53985 9.50659 7.22641C10.0034 7.07459 10.5219 6.99525 11.0305 6.88359ZM28.8932 10.8613C18.8544 10.8525 10.6895 19.0725 10.8462 29.0761C10.997 38.7114 18.9529 46.8951 29.2204 46.7296C39.1232 46.5699 47.018 38.4734 46.947 28.6324C46.875 18.8403 38.7338 10.8055 28.8932 10.8613Z" fill="#EBEFF2"/>
<path d="M22.6937 31.5809C23.3621 31.5809 23.9811 31.5789 24.6001 31.5809C25.3779 31.5838 25.6214 31.8297 25.6224 32.6113C25.6233 33.3626 25.6273 34.1138 25.6224 34.8641C25.6184 35.5273 25.3631 35.7751 24.6938 35.778C24.0412 35.781 23.3877 35.779 22.6927 35.779C22.6927 36.3941 22.6967 36.9593 22.6918 37.5245C22.6839 38.3531 22.1752 38.9085 21.427 38.9134C20.6532 38.9183 20.1328 38.358 20.1278 37.5088C20.1249 36.9554 20.1269 36.402 20.1269 35.779C19.4516 35.779 18.802 35.78 18.1514 35.779C17.4476 35.777 17.21 35.5459 17.2031 34.8416C17.1953 34.0747 17.1903 33.3067 17.1913 32.5398C17.1913 31.8649 17.4634 31.5877 18.1455 31.5779C18.7833 31.5681 19.422 31.576 20.1288 31.576C20.1288 31.3575 20.1288 31.1685 20.1288 30.9785C20.1288 27.5169 20.1259 24.0554 20.1298 20.5938C20.1308 19.5693 21.0475 18.9355 21.9386 19.3469C22.467 19.5908 22.6967 20.0267 22.6957 20.6095C22.6898 24.0711 22.6937 27.5326 22.6937 30.9941C22.6937 31.1705 22.6937 31.3458 22.6937 31.5809Z" fill="#EBEFF2"/>
<path d="M38.4646 30.3291C39.1773 30.3291 39.817 30.3232 40.4558 30.3311C41.1458 30.3389 41.4001 30.5955 41.4051 31.288C41.411 32.0716 41.4149 32.8552 41.4031 33.6388C41.3942 34.2863 41.1488 34.5233 40.5041 34.5292C39.8505 34.5351 39.196 34.5302 38.4656 34.5302C38.4656 35.1864 38.4656 35.7996 38.4656 36.4128C38.4656 36.8212 38.4715 37.2297 38.4636 37.6372C38.4498 38.3826 37.9175 38.9134 37.1959 38.9125C36.4813 38.9115 35.9194 38.3777 35.9066 37.642C35.8888 36.6312 35.9026 35.6204 35.9026 34.5282C35.2412 34.5282 34.6084 34.5302 33.9755 34.5282C33.1988 34.5253 32.9898 34.3127 32.9918 33.536C32.9937 32.8337 32.9908 32.1314 32.9937 31.4301C32.9977 30.526 33.1889 30.333 34.083 30.3291C34.6705 30.3262 35.258 30.3291 35.9017 30.3291C35.9017 30.0891 35.9017 29.8981 35.9017 29.7062C35.9017 26.6854 35.8977 23.6646 35.9046 20.6438C35.9076 19.5262 36.8736 18.8964 37.8061 19.394C38.2901 19.6516 38.4695 20.0718 38.4675 20.6096C38.4597 23.647 38.4636 26.6834 38.4636 29.7208C38.4646 29.8972 38.4646 30.0735 38.4646 30.3291Z" fill="#EBEFF2"/>
<path d="M30.5826 23.0916C31.2618 23.0916 31.8818 23.0886 32.5028 23.0925C33.2826 23.0974 33.5122 23.3217 33.5152 24.0789C33.5181 24.7969 33.5172 25.5158 33.5152 26.2338C33.5132 27.0918 33.3131 27.2838 32.4289 27.2868C31.871 27.2887 31.3121 27.2936 30.7541 27.2995C30.7236 27.2995 30.694 27.321 30.5846 27.3641C30.5846 27.5199 30.5846 27.707 30.5846 27.894C30.5836 31.4046 30.5846 34.9151 30.5806 38.4256C30.5797 39.2964 30.0769 39.8331 29.2913 39.8253C28.5047 39.8175 28.0128 39.2778 28.0118 38.409C28.0098 34.8984 28.0108 31.3879 28.0108 27.8774C28.0108 27.7011 28.0108 27.5238 28.0108 27.2858C27.3346 27.2858 26.6988 27.2887 26.063 27.2848C25.3296 27.2809 25.1108 27.0713 25.1058 26.3621C25.0999 25.5619 25.094 24.7616 25.1039 23.9623C25.1117 23.3266 25.3326 23.1112 25.9723 23.1014C26.6278 23.0916 27.2843 23.0994 28.0098 23.0994C28.0098 22.5617 28.0079 22.0611 28.0108 21.5606C28.0157 20.7182 28.5362 20.156 29.311 20.155C30.0543 20.1541 30.5727 20.7133 30.5816 21.5342C30.5865 22.0229 30.5826 22.5127 30.5826 23.0916Z" fill="#EBEFF2"/>
</g>
<defs>
<clipPath id="clip0_69_3529">
<rect width="58" height="58" fill="white"/>
</clipPath>
</defs>
</svg>
