<svg width="383" height="469" viewBox="0 0 383 469" fill="none" xmlns="http://www.w3.org/2000/svg">
<g clip-path="url(#clip0_309_1782)">
<path d="M170.646 359.755V418.407H150.505L193.907 469L234.636 419.448H214.048V359.755H170.646Z" fill="#DCDCDC"/>
<path opacity="0.3" d="M170.646 359.755V418.407H150.505L193.907 469L234.636 419.448H214.048V359.755H170.646Z" fill="black"/>
<path d="M312.223 228.909C299.232 178.57 253.676 141.324 199.302 141.324C162.432 141.324 129.602 158.459 108.203 185.165C104.514 184.742 100.776 184.463 96.9778 184.463C43.4144 184.463 0 227.905 0 281.475C0 335.045 43.4144 378.487 96.9778 378.487H308.135C349.481 378.487 383 344.955 383 303.595C383 263.614 351.658 231.051 312.223 228.909Z" fill="#F8F8F8"/>
<path d="M120.88 246.577C120.856 246.577 120.832 246.359 120.796 245.935C120.759 245.439 120.723 244.834 120.675 244.096C120.651 243.684 120.626 243.249 120.602 242.777C120.566 242.293 120.481 241.773 120.409 241.204C120.251 240.078 120.155 238.796 119.84 237.404C119.707 236.702 119.562 235.976 119.417 235.214C119.259 234.452 119.018 233.677 118.812 232.866C118.425 231.233 117.808 229.563 117.203 227.772C115.86 224.263 114.082 220.512 111.796 216.821C109.449 213.166 106.824 209.948 104.236 207.225C102.893 205.918 101.647 204.635 100.328 203.583C99.6873 203.05 99.0945 202.494 98.4776 202.034C97.8607 201.574 97.2559 201.126 96.6873 200.703C95.5624 199.819 94.4495 199.178 93.506 198.561C93.0221 198.258 92.5866 197.968 92.1753 197.714C91.752 197.484 91.3649 197.278 91.0141 197.072C90.3729 196.709 89.8407 196.419 89.4052 196.177C89.0423 195.959 88.8488 195.838 88.8609 195.826C88.873 195.802 89.0786 195.887 89.4536 196.068C89.9012 196.286 90.4455 196.54 91.1229 196.867C91.4858 197.048 91.885 197.242 92.3205 197.46C92.756 197.69 93.1914 197.98 93.6874 198.258C94.6551 198.851 95.8043 199.468 96.9535 200.34C97.5462 200.763 98.151 201.199 98.7921 201.647C99.4211 202.106 100.038 202.651 100.691 203.183C102.022 204.224 103.304 205.507 104.671 206.814C107.308 209.548 109.981 212.779 112.352 216.482C114.675 220.209 116.453 224.009 117.772 227.566C118.364 229.369 118.981 231.076 119.344 232.721C119.538 233.544 119.78 234.331 119.925 235.093C120.058 235.867 120.191 236.606 120.312 237.307C120.602 238.711 120.663 240.018 120.796 241.143C120.844 241.712 120.905 242.232 120.929 242.729C120.941 243.213 120.941 243.648 120.953 244.06C120.953 244.798 120.953 245.415 120.953 245.899C120.917 246.347 120.905 246.577 120.88 246.577Z" fill="#263238"/>
<path d="M81.204 227.82C81.1193 227.905 79.8492 226.647 77.5508 224.928C75.2525 223.21 71.8534 221.129 67.7647 219.58C63.664 218.043 59.7326 217.353 56.8779 217.123C54.0231 216.893 52.2328 216.99 52.2207 216.881C52.2207 216.833 52.6562 216.785 53.4666 216.712C54.2771 216.639 55.4505 216.615 56.9021 216.676C59.8052 216.785 63.8092 217.414 67.9825 218.987C72.1437 220.56 75.567 222.75 77.8169 224.577C78.9419 225.485 79.8129 226.284 80.3693 226.877C80.9499 227.445 81.2403 227.784 81.204 227.82Z" fill="#263238"/>
<path d="M125.634 310.626C125.634 310.674 124.945 310.686 123.723 310.686C122.489 310.686 120.711 310.65 118.497 310.565C114.094 310.408 108.01 310.057 101.308 309.391C94.6069 308.726 88.5707 307.903 84.216 307.189C82.0386 306.838 80.2846 306.524 79.0749 306.294C77.8653 306.052 77.2 305.906 77.2121 305.858C77.2242 305.81 77.9016 305.882 79.1233 306.052C80.4539 306.233 82.1958 306.463 84.2885 306.753C88.6554 307.346 94.6915 308.109 101.381 308.762C108.07 309.416 114.131 309.851 118.534 310.117C120.651 310.251 122.405 310.347 123.747 310.432C124.957 310.517 125.634 310.577 125.634 310.626Z" fill="#263238"/>
<path d="M309.054 228.317C309.054 228.341 308.824 228.365 308.376 228.401C307.856 228.438 307.215 228.486 306.429 228.534C305.582 228.571 304.554 228.643 303.356 228.788C302.159 228.934 300.792 229.018 299.304 229.297C298.554 229.418 297.78 229.539 296.957 229.66C296.147 229.793 295.312 229.999 294.441 230.168C292.699 230.495 290.872 231.015 288.937 231.523C285.102 232.649 280.965 234.125 276.78 236.061C272.607 238.033 268.821 240.26 265.494 242.474C263.861 243.624 262.288 244.701 260.921 245.826C260.232 246.383 259.53 246.891 258.913 247.424C258.297 247.968 257.704 248.488 257.123 248.985C255.962 249.953 255.018 250.945 254.135 251.768C253.252 252.591 252.539 253.341 251.97 253.958C251.426 254.527 250.978 254.999 250.615 255.362C250.301 255.676 250.131 255.834 250.107 255.821C250.095 255.809 250.228 255.616 250.518 255.277C250.857 254.878 251.268 254.394 251.789 253.789C252.333 253.135 253.022 252.361 253.881 251.514C254.728 250.654 255.66 249.65 256.821 248.646C257.389 248.138 257.982 247.605 258.587 247.048C259.204 246.492 259.893 245.972 260.583 245.403C261.95 244.241 263.522 243.152 265.155 241.978C268.482 239.715 272.292 237.465 276.502 235.468C280.723 233.52 284.897 232.044 288.768 230.942C290.715 230.446 292.566 229.938 294.32 229.636C295.203 229.466 296.038 229.272 296.86 229.151C297.683 229.043 298.469 228.922 299.219 228.825C300.719 228.583 302.098 228.522 303.296 228.413C304.493 228.292 305.533 228.268 306.38 228.268C307.166 228.268 307.82 228.256 308.34 228.256C308.824 228.28 309.054 228.292 309.054 228.317Z" fill="#263238"/>
<path d="M303.078 379.152C303.078 379.321 256.325 379.467 198.673 379.467C140.997 379.467 94.2559 379.321 94.2559 379.152C94.2559 378.983 140.997 378.837 198.673 378.837C256.325 378.837 303.078 378.971 303.078 379.152Z" fill="#263238"/>
<path d="M64.0388 90.3682V102.905H59.7324L69.0105 113.723L77.7199 103.135H73.3168V90.3682H64.0388Z" fill="white"/>
<path opacity="0.3" d="M64.0388 90.3682V102.905H59.7324L69.0105 113.723L77.7199 103.135H73.3168V90.3682H64.0388Z" fill="black"/>
<path d="M94.3043 62.4035C91.5221 51.6459 81.7844 43.6836 70.1596 43.6836C62.2727 43.6836 55.2567 47.3501 50.6842 53.0496C49.8979 52.9528 49.0996 52.9044 48.2891 52.9044C36.8458 52.9044 27.5557 62.1856 27.5557 73.645C27.5557 85.0923 36.8337 94.3857 48.2891 94.3857H93.4333C102.276 94.3857 109.437 87.222 109.437 78.3764C109.425 69.8212 102.736 62.8633 94.3043 62.4035Z" fill="white"/>
<path d="M99.0703 88.783C99.0098 88.6983 99.8929 88.1054 101.054 86.9074C102.215 85.7216 103.631 83.8338 104.49 81.45C105.348 79.054 105.469 76.7065 105.336 75.0487C105.203 73.3788 104.901 72.3623 105.01 72.3381C105.07 72.3139 105.53 73.2941 105.784 75.0003C106.038 76.6944 105.99 79.163 105.094 81.6557C104.187 84.1606 102.651 86.0846 101.369 87.222C100.086 88.3958 99.1066 88.8435 99.0703 88.783Z" fill="#263238"/>
<path d="M51.2649 59.1121C51.2407 59.221 50.1036 58.9547 48.265 58.9426C46.4263 58.9184 43.8497 59.221 41.2853 60.3463C38.7087 61.4717 36.7491 63.1537 35.5152 64.5332C34.2814 65.9006 33.7008 66.917 33.604 66.8565C33.5435 66.8323 33.9911 65.7312 35.1765 64.2428C36.3499 62.7665 38.3458 60.9393 41.0312 59.7776C43.7046 58.6038 46.4021 58.3618 48.2892 58.507C50.1762 58.6401 51.277 59.0515 51.2649 59.1121Z" fill="#263238"/>
<path d="M65.261 48.8748C65.2731 48.9837 64.4384 49.0684 63.1804 49.4194C61.9224 49.7703 60.2289 50.46 58.62 51.6338C57.0112 52.8076 55.8257 54.1992 55.0999 55.2882C54.3741 56.3773 54.0354 57.1396 53.9387 57.1033C53.8782 57.0791 54.0596 56.2563 54.7128 55.0583C55.3661 53.8724 56.5515 52.3598 58.245 51.1256C59.9385 49.9034 61.7409 49.2379 63.0715 48.9837C64.4142 48.7296 65.261 48.8022 65.261 48.8748Z" fill="#263238"/>
<path d="M84.6752 94.2042C84.6752 94.3736 78.5785 94.5188 71.0666 94.5188C63.5426 94.5188 57.458 94.3736 57.458 94.2042C57.458 94.0348 63.5547 93.8895 71.0666 93.8895C78.5785 93.8895 84.6752 94.0227 84.6752 94.2042Z" fill="#263238"/>
<path d="M86.1993 131.559C86.0299 131.559 85.8848 126.562 85.8848 120.402C85.8848 114.243 86.0299 109.245 86.1993 109.245C86.3686 109.245 86.5138 114.243 86.5138 120.402C86.5138 126.562 86.3807 131.559 86.1993 131.559Z" fill="#263238"/>
<path d="M90.5547 141.3C90.3854 141.3 90.2402 134.875 90.2402 126.937C90.2402 119.011 90.3854 112.573 90.5547 112.573C90.7241 112.573 90.8693 118.999 90.8693 126.937C90.8814 134.863 90.7362 141.3 90.5547 141.3Z" fill="#263238"/>
<path d="M313.832 46.6967V59.2331H309.525L318.803 70.039L327.513 59.4509H323.11V46.6967H313.832Z" fill="white"/>
<path opacity="0.3" d="M313.832 46.6967V59.2331H309.525L318.803 70.039L327.513 59.4509H323.11V46.6967H313.832Z" fill="black"/>
<path d="M344.097 18.7198C341.315 7.96228 331.577 0 319.953 0C312.066 0 305.05 3.66652 300.477 9.36596C299.691 9.26916 298.893 9.22076 298.082 9.22076C286.639 9.22076 277.349 18.502 277.349 29.9614C277.349 41.4087 286.627 50.7021 298.082 50.7021H343.226C352.069 50.7021 359.23 43.5384 359.23 34.6928C359.218 26.1376 352.516 19.1797 344.097 18.7198Z" fill="white"/>
<path d="M348.863 45.1115C348.803 45.0268 349.686 44.4339 350.847 43.2359C352.008 42.05 353.424 40.1623 354.283 37.7785C355.141 35.3825 355.262 33.035 355.129 31.3772C354.996 29.7073 354.694 28.6908 354.803 28.6666C354.863 28.6424 355.323 29.6226 355.577 31.3288C355.831 33.0229 355.783 35.4914 354.887 37.9842C353.98 40.489 352.444 42.413 351.162 43.5505C349.879 44.7122 348.9 45.172 348.863 45.1115Z" fill="#263238"/>
<path d="M301.046 15.4405C301.022 15.5494 299.885 15.2832 298.046 15.2711C296.208 15.2469 293.631 15.5494 291.067 16.6748C288.49 17.8002 286.53 19.4822 285.296 20.8617C284.063 22.229 283.482 23.2455 283.385 23.185C283.325 23.1608 283.772 22.0596 284.958 20.5712C286.131 19.0949 288.127 17.2677 290.812 16.1061C293.486 14.9323 296.183 14.6903 298.058 14.8355C299.957 14.9565 301.07 15.3679 301.046 15.4405Z" fill="#263238"/>
<path d="M315.054 5.19122C315.066 5.30012 314.231 5.38483 312.973 5.73575C311.715 6.08667 310.022 6.77641 308.413 7.95018C306.804 9.12395 305.619 10.5155 304.893 11.6046C304.167 12.6937 303.828 13.456 303.732 13.4197C303.671 13.3955 303.853 12.5727 304.506 11.3747C305.159 10.1888 306.344 8.67623 308.038 7.44195C309.732 6.21978 311.534 5.55424 312.865 5.30012C314.207 5.04601 315.054 5.13071 315.054 5.19122Z" fill="#263238"/>
<path d="M334.468 50.5205C334.468 50.6899 328.372 50.8352 320.86 50.8352C313.336 50.8352 307.251 50.6899 307.251 50.5205C307.251 50.3511 313.348 50.2059 320.86 50.2059C328.372 50.2059 334.468 50.3511 334.468 50.5205Z" fill="#263238"/>
<path d="M335.992 87.8755C335.823 87.8755 335.678 82.8779 335.678 76.7186C335.678 70.5593 335.823 65.5617 335.992 65.5617C336.162 65.5617 336.307 70.5593 336.307 76.7186C336.307 82.8779 336.162 87.8755 335.992 87.8755Z" fill="#263238"/>
<path d="M340.348 97.6166C340.178 97.6166 340.033 91.1911 340.033 83.253C340.033 75.327 340.178 68.8894 340.348 68.8894C340.517 68.8894 340.662 75.3149 340.662 83.253C340.662 91.1911 340.529 97.6166 340.348 97.6166Z" fill="#263238"/>
<g opacity="0.3">
<path d="M339.005 267.777C336.634 253.958 318.283 239.957 302.51 243.104C288.768 245.85 273.974 249.033 260.389 252.47C254.789 253.885 248.97 247.073 244.277 243.697C241.809 241.93 240.358 239.098 238.821 236.485C230.076 221.613 215.693 210.456 199.617 204.224C183.54 197.992 165.855 196.504 148.714 198.379C135.42 199.831 120.844 204.418 114.663 216.276C112.171 221.056 111.191 226.792 107.32 230.543C102.167 235.529 94.0019 235.129 87.3004 237.658C73.8853 242.716 67.075 261.92 68.7685 276.163C70.462 290.417 83.1271 308.762 109.752 311.691C109.752 311.691 206.197 312.538 253.821 314.837C270.333 315.635 275.305 313.36 291.828 312.937C320.957 312.199 343.347 293.104 339.005 267.777Z" fill="black"/>
</g>
<path d="M161.827 337.175C163.448 336.775 165.251 335.093 166.654 334.198C170.089 331.983 173.488 329.721 176.851 327.397C164.779 323.876 154.533 321.117 142.461 317.68C142.11 322.412 142.437 327.53 143.791 332.08C144.904 335.819 147.033 339.801 150.807 340.793C154.243 341.7 157.727 339.801 160.739 337.937C161.017 337.768 161.295 337.586 161.585 337.417" fill="#FFC727"/>
<path d="M163.908 330.507C163.727 330.483 163.799 328.922 163.376 327.071C162.965 325.219 162.227 323.828 162.384 323.731C162.517 323.634 163.545 324.953 163.993 326.925C164.44 328.898 164.065 330.531 163.908 330.507Z" fill="#263238"/>
<path d="M166.509 329.878C166.328 329.842 166.473 328.632 166.316 327.167C166.17 325.703 165.771 324.554 165.941 324.469C166.086 324.384 166.775 325.51 166.945 327.095C167.114 328.68 166.666 329.914 166.509 329.878Z" fill="#263238"/>
<path d="M150.553 319.955C150.662 319.98 150.311 321.214 150.299 323.235C150.275 325.231 150.662 328.087 152.186 330.749C153.722 333.436 155.5 335.638 157.133 336.812C158.754 338.01 160.037 338.252 160 338.373C159.988 338.409 159.674 338.385 159.105 338.227C158.549 338.082 157.75 337.743 156.879 337.175C155.101 336.037 153.202 333.786 151.642 331.064C150.033 328.269 149.706 325.28 149.851 323.223C149.924 322.182 150.081 321.359 150.238 320.802C150.396 320.246 150.517 319.955 150.553 319.955Z" fill="#455A64"/>
<path d="M159.989 322.763C160.134 322.702 161.404 325.776 161.96 329.83C162.517 333.871 162.093 337.175 161.948 337.163C161.755 337.15 161.888 333.883 161.343 329.914C160.799 325.933 159.807 322.823 159.989 322.763Z" fill="#455A64"/>
<path d="M157.255 335.626C157.206 335.686 156.444 335.13 155.343 334.089C154.255 333.036 152.791 331.463 151.739 329.346C150.686 327.228 150.432 325.013 150.65 323.477C150.856 321.928 151.388 321.105 151.448 321.129C151.545 321.165 151.182 322.037 151.097 323.513C151.001 324.977 151.315 327.046 152.307 329.055C153.311 331.076 154.666 332.649 155.658 333.762C156.674 334.888 157.327 335.553 157.255 335.626Z" fill="#DCDCDC"/>
<path d="M174.178 329.067C174.25 329.225 172.351 330.41 169.92 331.717C167.488 333.024 165.456 333.968 165.359 333.823C165.274 333.678 167.174 332.492 169.617 331.173C172.061 329.854 174.105 328.91 174.178 329.067Z" fill="#DCDCDC"/>
<path d="M154.921 335.807C155.042 335.916 153.602 337.405 151.243 338.179C148.884 338.978 146.84 338.651 146.876 338.494C146.876 338.3 148.824 338.336 151.05 337.586C153.276 336.848 154.8 335.65 154.921 335.807Z" fill="#455A64"/>
<path d="M150.82 329.6C150.832 329.781 149.187 330.011 147.372 330.858C145.545 331.681 144.287 332.77 144.154 332.637C144.033 332.54 145.158 331.161 147.106 330.289C149.041 329.382 150.82 329.442 150.82 329.6Z" fill="#455A64"/>
<path d="M150.021 324.094C149.924 324.263 148.291 323.283 146.041 322.993C143.791 322.666 141.953 323.15 141.904 322.968C141.832 322.823 143.707 322.012 146.126 322.363C148.545 322.69 150.13 323.973 150.021 324.094Z" fill="#455A64"/>
<path d="M242.633 306.596C242.705 306.705 197.259 317.668 197.259 317.668L190.569 301.998L193.642 297.266C193.642 297.266 212.851 292.922 228.48 284.077L242.633 306.596Z" fill="#FFBE9D"/>
<path d="M135.977 262.017C135.977 262.017 133.909 258.98 125.078 254.66C117.76 251.078 98.9741 248.065 91.3775 262.767C83.7809 277.47 89.5993 300.038 102.276 304.854C114.942 309.67 135.977 316.265 144.602 319.048C153.215 321.831 181.605 328.934 181.605 328.934L193.267 322.085L194.646 300.328C194.646 300.328 178.569 283.81 164.888 279.249C151.183 274.687 135.977 262.017 135.977 262.017Z" fill="#263238"/>
<path d="M109.74 251.768C109.861 251.586 122.635 251.949 131.962 255.458C135.47 256.777 138.905 258.193 138.905 258.193L144.058 243.503L182.682 230.628H225.443L239.354 258.181V259.573C239.354 259.573 256.048 259.851 263.281 256.511C270.515 253.171 293.063 243.43 298.906 241.482C304.748 239.534 330.913 235.783 336.756 251.719C342.598 267.656 338.449 284.258 328.687 290.333C324.078 293.189 246.322 313.312 246.322 313.312L227.96 284.089C227.96 284.089 199.956 297.968 190.581 296.456C181.194 294.943 109.74 251.768 109.74 251.768Z" fill="#263238"/>
<path d="M188.598 237.731C188.622 237.731 188.682 237.925 188.791 238.288C188.912 238.735 189.045 239.28 189.227 239.933C189.578 241.361 190.025 243.442 190.485 246.044C191.428 251.223 192.372 258.447 193.098 266.446C193.811 274.445 194.21 281.717 194.368 286.969C194.452 289.595 194.477 291.724 194.477 293.201C194.465 293.878 194.452 294.435 194.452 294.895C194.44 295.282 194.428 295.488 194.404 295.488C194.38 295.488 194.356 295.282 194.331 294.895C194.307 294.435 194.271 293.878 194.235 293.201C194.162 291.64 194.053 289.534 193.932 286.981C193.666 281.729 193.194 274.481 192.481 266.494C191.755 258.508 190.884 251.296 190.049 246.117C189.65 243.515 189.263 241.434 188.997 239.982C188.876 239.316 188.767 238.772 188.682 238.324C188.61 237.949 188.586 237.743 188.598 237.731Z" fill="#455A64"/>
<path d="M238.919 260.262C238.943 260.432 229.242 261.654 217.266 262.985C205.279 264.316 195.553 265.26 195.541 265.079C195.517 264.909 205.218 263.687 217.194 262.356C229.181 261.037 238.907 260.093 238.919 260.262Z" fill="#455A64"/>
<path d="M232.544 260.335C232.532 260.383 232.048 260.335 231.165 260.226C230.282 260.105 229.012 259.948 227.428 259.778C224.27 259.44 219.891 259.137 215.053 259.21C210.214 259.294 205.847 259.754 202.702 260.202C201.13 260.42 199.86 260.625 198.989 260.771C198.106 260.916 197.622 260.976 197.61 260.928C197.598 260.88 198.069 260.746 198.94 260.529C199.799 260.311 201.069 260.033 202.642 259.754C205.775 259.185 210.166 258.653 215.041 258.568C219.916 258.484 224.319 258.871 227.476 259.319C229.061 259.549 230.331 259.766 231.202 259.96C232.073 260.166 232.556 260.287 232.544 260.335Z" fill="#455A64"/>
<path d="M238.459 258.653C238.362 258.835 234.963 256.608 230.173 255.579C225.383 254.49 221.367 255.095 221.355 254.89C221.343 254.817 222.322 254.575 223.955 254.454C225.576 254.345 227.863 254.418 230.306 254.962C232.75 255.507 234.854 256.39 236.282 257.177C237.709 257.963 238.495 258.593 238.459 258.653Z" fill="#455A64"/>
<path d="M202.835 282.588C202.932 282.721 201.299 284.04 198.916 284.984C196.533 285.94 194.44 286.11 194.428 285.952C194.392 285.771 196.376 285.335 198.686 284.403C200.997 283.484 202.739 282.431 202.835 282.588Z" fill="#455A64"/>
<path d="M200.778 288.009C200.839 288.167 199.448 288.796 197.597 289.05C195.746 289.316 194.234 289.111 194.246 288.941C194.258 288.76 195.722 288.687 197.512 288.433C199.29 288.179 200.73 287.828 200.778 288.009Z" fill="#455A64"/>
<path d="M266.511 257.588C266.523 257.612 266.329 257.746 265.942 257.975C265.494 258.242 264.938 258.58 264.249 258.98C262.688 259.875 260.571 261.097 257.983 262.586C252.587 265.611 245.281 269.725 237.201 274.275C229.084 278.764 221.729 282.818 216.322 285.807C213.697 287.223 211.544 288.385 209.959 289.244C209.258 289.607 208.677 289.909 208.217 290.151C207.818 290.357 207.601 290.454 207.588 290.43C207.576 290.405 207.77 290.272 208.157 290.042C208.605 289.776 209.161 289.437 209.85 289.038C211.411 288.143 213.528 286.92 216.116 285.432C221.499 282.407 228.818 278.293 236.898 273.743C245.015 269.265 252.358 265.2 257.777 262.211C260.402 260.795 262.555 259.633 264.14 258.774C264.841 258.411 265.422 258.109 265.882 257.867C266.281 257.661 266.498 257.564 266.511 257.588Z" fill="#455A64"/>
<path d="M299.123 251.429C299.123 251.453 298.857 251.514 298.336 251.623C297.756 251.744 297.006 251.901 296.087 252.082C294.127 252.482 291.308 253.135 287.873 254.103C280.99 256.015 271.724 259.476 261.986 264.377C252.237 269.265 243.805 274.42 237.697 278.135C234.697 279.975 232.241 281.475 230.475 282.564C229.665 283.048 229.011 283.447 228.503 283.75C228.044 284.016 227.802 284.149 227.79 284.125C227.777 284.101 227.995 283.944 228.431 283.641C228.927 283.314 229.556 282.891 230.342 282.358C232.011 281.257 234.443 279.672 237.455 277.76C243.503 273.936 251.922 268.721 261.696 263.808C271.47 258.895 280.809 255.471 287.752 253.668C291.212 252.748 294.054 252.167 296.038 251.828C297.018 251.647 297.792 251.55 298.312 251.477C298.844 251.429 299.123 251.405 299.123 251.429Z" fill="#455A64"/>
<path d="M318.284 245.923C318.272 246.032 316.869 245.911 314.619 245.972C312.369 246.032 309.26 246.359 305.945 247.266C302.631 248.186 299.8 249.505 297.841 250.618C295.881 251.719 294.732 252.542 294.672 252.457C294.647 252.421 294.901 252.179 295.397 251.78C295.893 251.368 296.643 250.836 297.611 250.231C299.534 249.009 302.401 247.593 305.776 246.661C309.151 245.729 312.332 245.463 314.607 245.524C315.744 245.548 316.675 245.621 317.304 245.717C317.945 245.814 318.296 245.887 318.284 245.923Z" fill="#455A64"/>
<path d="M311.546 251.042C311.522 251.235 308.304 250.8 304.336 250.957C300.369 251.078 297.199 251.719 297.151 251.538C297.103 251.381 300.272 250.449 304.312 250.328C308.364 250.17 311.582 250.884 311.546 251.042Z" fill="#455A64"/>
<path d="M297.527 246.105C297.611 246.274 294.829 247.75 291.732 250.062C288.624 252.361 286.398 254.599 286.265 254.466C286.144 254.369 288.188 251.889 291.358 249.553C294.503 247.206 297.466 245.959 297.527 246.105Z" fill="#455A64"/>
<path d="M338.449 259.912C338.461 259.912 338.413 260.008 338.328 260.166C338.22 260.359 338.087 260.601 337.917 260.892C337.554 261.521 336.986 262.441 336.175 263.566C334.591 265.829 331.978 268.951 328.034 272C324.103 275.037 318.986 278.051 313.035 280.797C307.083 283.544 300.297 285.964 293.184 288.457C278.971 293.431 266.1 297.932 256.725 301.211C252.092 302.797 248.318 304.091 245.657 305.011C244.387 305.434 243.383 305.773 242.633 306.015C242.318 306.112 242.052 306.197 241.847 306.257C241.665 306.306 241.568 306.33 241.568 306.318C241.568 306.306 241.653 306.269 241.822 306.197C242.028 306.112 242.282 306.015 242.597 305.894C243.322 305.616 244.326 305.253 245.584 304.781C248.234 303.825 251.983 302.458 256.592 300.788C265.955 297.46 278.801 292.898 292.991 287.852C300.103 285.347 306.877 282.963 312.817 280.253C318.744 277.554 323.849 274.59 327.78 271.637C331.712 268.66 334.349 265.623 335.994 263.409C336.828 262.307 337.421 261.424 337.82 260.807C338.002 260.529 338.159 260.311 338.28 260.117C338.389 259.984 338.437 259.899 338.449 259.912Z" fill="#455A64"/>
<path d="M191.972 322.872C191.96 322.896 191.658 322.787 191.089 322.557C190.46 322.303 189.638 321.976 188.597 321.553C186.444 320.657 183.335 319.35 179.525 317.668C171.892 314.316 161.429 309.525 150.01 303.946C138.59 298.343 128.393 292.995 121.171 288.82C117.555 286.751 114.688 284.972 112.728 283.714C111.797 283.097 111.059 282.6 110.502 282.225C109.994 281.874 109.74 281.693 109.752 281.669C109.764 281.644 110.043 281.802 110.575 282.116C111.156 282.467 111.918 282.927 112.873 283.508C114.869 284.706 117.772 286.412 121.413 288.433C128.671 292.499 138.905 297.775 150.312 303.377C161.731 308.956 172.158 313.82 179.731 317.269C183.481 318.963 186.529 320.343 188.718 321.335C189.735 321.795 190.545 322.17 191.162 322.448C191.694 322.702 191.972 322.847 191.972 322.872Z" fill="#455A64"/>
<path d="M112.74 259.391C112.716 259.355 113.091 259.101 113.817 258.714C114.531 258.314 115.607 257.818 116.998 257.334C119.744 256.354 123.845 255.592 128.321 256.16C132.736 256.693 136.704 257.818 139.28 259.27C140.574 259.972 141.53 260.686 142.147 261.231C142.764 261.775 143.054 262.126 143.03 262.15C142.945 262.247 141.663 260.94 139.087 259.67C136.522 258.363 132.639 257.322 128.26 256.79C123.905 256.233 119.902 256.911 117.156 257.758C114.361 258.605 112.789 259.5 112.74 259.391Z" fill="#455A64"/>
<path d="M194.621 300.34C194.609 300.352 194.415 300.207 194.052 299.904C193.641 299.554 193.133 299.118 192.504 298.573C191.161 297.412 189.178 295.79 186.71 293.818C181.774 289.861 174.807 284.561 167.126 278.692C165.214 277.216 163.339 275.776 161.537 274.396C159.71 273.053 157.86 271.879 156.069 270.802C152.489 268.648 149.174 266.821 146.549 265.018C143.912 263.239 141.941 261.557 140.707 260.287C140.066 259.67 139.63 259.137 139.328 258.774C139.025 258.411 138.88 258.217 138.892 258.205C138.941 258.157 139.582 258.907 140.876 260.105C142.158 261.315 144.142 262.937 146.803 264.643C149.44 266.385 152.755 268.164 156.372 270.294C158.174 271.371 160.049 272.533 161.9 273.888C163.739 275.255 165.577 276.719 167.501 278.184C175.182 284.052 182.113 289.401 186.988 293.467C189.432 295.488 191.367 297.17 192.661 298.392C193.315 298.985 193.798 299.481 194.137 299.808C194.476 300.134 194.645 300.316 194.621 300.34Z" fill="#455A64"/>
<path d="M162.735 270.161C162.771 270.076 164.404 270.742 167.041 271.77C169.678 272.799 173.355 274.154 177.468 275.461C181.593 276.768 185.367 277.772 188.125 278.45C190.871 279.128 192.589 279.527 192.565 279.612C192.553 279.66 192.117 279.612 191.331 279.491C190.545 279.37 189.407 279.164 188.016 278.885C185.234 278.317 181.412 277.373 177.275 276.066C173.138 274.747 169.472 273.319 166.86 272.182C165.553 271.613 164.513 271.129 163.799 270.778C163.098 270.415 162.723 270.209 162.735 270.161Z" fill="#455A64"/>
<path d="M176.114 259.44C176.126 259.524 174.457 259.791 171.771 260.19C169.086 260.589 165.372 261.158 161.296 261.896C157.219 262.622 153.542 263.384 150.881 263.941C148.219 264.498 146.574 264.837 146.55 264.74C146.538 264.703 146.937 264.558 147.663 264.34C148.389 264.123 149.453 263.832 150.772 263.505C153.409 262.84 157.086 262.017 161.175 261.279C165.263 260.553 169.001 260.045 171.699 259.754C173.054 259.609 174.154 259.512 174.904 259.464C175.678 259.403 176.102 259.391 176.114 259.44Z" fill="#455A64"/>
<path d="M170.38 252.336C170.392 252.433 168.71 252.578 166.049 252.978C163.376 253.377 159.711 254.103 155.779 255.313C151.848 256.535 148.425 258.012 145.993 259.198C143.562 260.383 142.11 261.206 142.062 261.122C142.038 261.085 142.376 260.843 143.017 260.42C143.646 259.996 144.602 259.44 145.8 258.798C148.195 257.503 151.63 255.943 155.598 254.708C159.565 253.474 163.291 252.821 165.989 252.53C167.343 252.385 168.444 252.312 169.194 252.3C169.956 252.288 170.38 252.288 170.38 252.336Z" fill="#455A64"/>
<path d="M218.984 313.433L211.75 330.35C214.423 332.758 224.584 334.319 228.165 334.137C231.746 333.956 236.923 334.004 240.491 333.593C245.015 333.073 249.6 333.411 254.148 333.69C258.697 333.968 263.293 334.186 267.793 333.436C272.293 332.685 276.732 330.894 279.938 327.639C283.144 324.396 284.91 319.556 283.785 315.127C282.805 311.303 279.781 308.206 276.212 306.548C272.632 304.89 268.555 304.563 264.636 304.963C260.717 305.362 256.894 306.463 253.12 307.576C249.092 308.75 244.967 309.96 240.794 309.633C239.947 309.561 239.1 309.597 238.253 309.44C232.786 308.435 227.088 308.375 222.165 311.473C221.125 312.126 220.012 312.683 218.984 313.433Z" fill="#FFC727"/>
<path d="M220.036 315.369C220.024 315.357 220.241 315.139 220.677 314.764C221.124 314.401 221.802 313.869 222.757 313.324C224.644 312.247 227.79 311.013 231.769 311.376C233.729 311.57 235.846 311.969 238.108 312.308C240.37 312.634 242.813 312.937 245.342 312.659C247.882 312.405 250.483 311.654 253.18 310.856C255.866 310.069 258.72 309.234 261.744 309.028C264.744 308.786 267.744 308.98 270.49 309.779C271.857 310.178 273.164 310.71 274.385 311.352C275.595 311.981 276.72 312.828 277.603 313.808C279.393 315.756 280.542 318.068 281.075 320.355C281.341 321.492 281.413 322.678 281.184 323.755C280.966 324.832 280.542 325.824 280.022 326.671C278.982 328.39 277.567 329.588 276.26 330.435C274.942 331.294 273.708 331.838 272.692 332.262C271.676 332.673 270.877 332.964 270.333 333.145C269.789 333.327 269.498 333.411 269.486 333.399C269.474 333.375 269.752 333.254 270.285 333.024C270.817 332.794 271.603 332.48 272.595 332.032C273.587 331.572 274.784 331.003 276.067 330.132C277.337 329.273 278.667 328.087 279.647 326.441C280.639 324.808 281.171 322.666 280.567 320.476C280.034 318.298 278.897 316.071 277.18 314.22C275.486 312.344 272.97 311.17 270.333 310.384C267.672 309.609 264.756 309.428 261.817 309.67C255.914 310.105 250.676 312.792 245.426 313.252C242.801 313.518 240.321 313.191 238.047 312.84C235.773 312.477 233.668 312.054 231.745 311.836C227.874 311.412 224.79 312.55 222.89 313.554C220.955 314.571 220.072 315.43 220.036 315.369Z" fill="#455A64"/>
<path d="M269.475 333.411C269.438 333.436 269.208 333.181 268.821 332.673C268.616 332.431 268.398 332.104 268.168 331.717C267.926 331.342 267.648 330.906 267.406 330.386C266.85 329.394 266.366 328.123 265.894 326.695C265.471 325.255 265.12 323.634 264.926 321.904C264.757 320.173 264.769 318.515 264.902 317.015C265.071 315.514 265.289 314.171 265.64 313.094C265.773 312.538 265.967 312.066 266.124 311.642C266.269 311.219 266.426 310.856 266.571 310.577C266.85 310.009 267.031 309.706 267.067 309.718C267.176 309.767 266.584 311.037 266.063 313.203C265.785 314.28 265.616 315.599 265.471 317.063C265.386 318.527 265.386 320.149 265.543 321.843C265.725 323.537 266.051 325.122 266.438 326.538C266.874 327.942 267.309 329.2 267.793 330.205C268.725 332.213 269.571 333.339 269.475 333.411Z" fill="#263238"/>
<path d="M223.447 311.073C223.604 311.158 223.411 311.787 223.096 312.513C222.782 313.239 222.467 313.808 222.298 313.76C222.129 313.711 222.189 313.022 222.516 312.271C222.842 311.497 223.29 310.989 223.447 311.073Z" fill="#455A64"/>
<path d="M228.612 309.053C228.77 309.125 228.649 309.754 228.407 310.48C228.165 311.207 227.899 311.787 227.729 311.751C227.56 311.715 227.56 311.049 227.814 310.287C228.056 309.512 228.455 308.98 228.612 309.053Z" fill="#455A64"/>
<path d="M235.242 308.932C235.411 308.98 235.326 309.694 235.048 310.529C234.782 311.352 234.419 311.981 234.262 311.92C234.093 311.872 234.177 311.158 234.455 310.323C234.722 309.5 235.084 308.871 235.242 308.932Z" fill="#455A64"/>
<path d="M241.471 309.706C241.64 309.754 241.58 310.468 241.338 311.303C241.096 312.138 240.769 312.78 240.6 312.731C240.431 312.683 240.491 311.969 240.733 311.134C240.975 310.299 241.314 309.658 241.471 309.706Z" fill="#455A64"/>
<path d="M246.733 312.997C246.563 312.997 246.418 312.15 246.43 311.11C246.43 310.069 246.576 309.234 246.757 309.234C246.926 309.234 247.072 310.081 247.059 311.122C247.047 312.15 246.902 312.997 246.733 312.997Z" fill="#455A64"/>
<path d="M252.575 311.509C252.406 311.533 252.152 310.783 252.031 309.839C251.898 308.895 251.934 308.109 252.104 308.085C252.273 308.06 252.527 308.811 252.648 309.754C252.781 310.71 252.757 311.485 252.575 311.509Z" fill="#455A64"/>
<path d="M257.959 306.221C258.128 306.185 258.407 306.899 258.576 307.806C258.745 308.714 258.745 309.476 258.576 309.512C258.407 309.549 258.128 308.835 257.959 307.927C257.79 307.008 257.79 306.245 257.959 306.221Z" fill="#455A64"/>
<path d="M264.927 304.938C265.096 304.975 265.035 305.967 264.781 307.165C264.527 308.351 264.189 309.295 264.019 309.258C263.85 309.222 263.91 308.23 264.164 307.032C264.406 305.834 264.757 304.902 264.927 304.938Z" fill="#455A64"/>
<path d="M270.89 305.108C271.047 305.18 270.624 306.282 269.934 307.564C269.245 308.847 268.579 309.815 268.422 309.73C268.277 309.633 268.7 308.532 269.378 307.274C270.055 306.003 270.732 305.035 270.89 305.108Z" fill="#455A64"/>
<path d="M276.987 306.705C277.132 306.802 276.575 307.915 275.741 309.198C274.906 310.48 274.108 311.449 273.962 311.352C273.817 311.255 274.374 310.142 275.208 308.859C276.043 307.576 276.841 306.62 276.987 306.705Z" fill="#455A64"/>
<path d="M280.893 310.384C281.039 310.48 280.506 311.497 279.708 312.647C278.91 313.796 278.148 314.643 278.002 314.546C277.857 314.45 278.389 313.433 279.188 312.284C279.986 311.134 280.748 310.287 280.893 310.384Z" fill="#455A64"/>
<path d="M283.639 315.055C283.772 315.151 283.24 316.132 282.321 317.148C281.401 318.164 280.482 318.794 280.361 318.673C280.24 318.54 280.954 317.717 281.849 316.724C282.744 315.744 283.494 314.946 283.639 315.055Z" fill="#455A64"/>
<path d="M283.24 322.182C283.373 322.279 283.059 322.872 282.345 323.186C281.631 323.501 280.99 323.331 281.002 323.174C281.002 322.993 281.522 322.872 282.091 322.617C282.659 322.363 283.107 322.061 283.24 322.182Z" fill="#455A64"/>
<path d="M279.369 328.281C279.43 328.438 279.248 328.644 278.994 328.607C278.728 328.559 278.643 328.317 278.752 328.172C278.861 328.039 279.006 327.966 279.103 327.978C279.2 328.002 279.309 328.111 279.369 328.281Z" fill="#455A64"/>
<path d="M237.189 330.701C237.02 330.604 238.605 328.317 239.161 325.038C239.778 321.758 239.089 319.072 239.282 319.036C239.415 318.963 240.419 321.71 239.778 325.147C239.185 328.583 237.286 330.822 237.189 330.701Z" fill="#263238"/>
<path d="M242.172 330.12C242.003 330.023 243.503 327.918 243.987 324.892C244.519 321.867 243.793 319.399 243.987 319.362C244.12 319.278 245.172 321.795 244.616 325.001C244.084 328.208 242.269 330.253 242.172 330.12Z" fill="#263238"/>
<path d="M248.451 330.156C248.281 330.047 250.06 327.845 250.64 324.529C251.281 321.226 250.41 318.54 250.604 318.491C250.677 318.467 250.991 319.096 251.233 320.209C251.475 321.323 251.572 322.92 251.257 324.638C250.943 326.357 250.265 327.809 249.648 328.765C249.031 329.733 248.499 330.205 248.451 330.156Z" fill="#263238"/>
<path d="M255.539 329.745C255.358 329.66 256.773 327.24 257.172 323.912C257.62 320.585 256.858 317.898 257.051 317.862C257.185 317.789 258.261 320.512 257.801 323.997C257.366 327.482 255.648 329.854 255.539 329.745Z" fill="#263238"/>
<path d="M235.919 324.421C235.931 324.457 235.568 324.578 234.89 324.566C234.225 324.542 233.233 324.324 232.193 323.682C231.153 323.053 230.137 322.012 229.181 320.778C228.709 320.161 228.165 319.508 227.875 318.612C227.741 318.177 227.681 317.68 227.766 317.196C227.85 316.7 228.129 316.216 228.528 315.889C229.326 315.224 230.403 315.103 231.286 315.369C232.169 315.635 232.87 316.18 233.439 316.737C234.576 317.874 235.29 319.145 235.713 320.27C236.136 321.395 236.27 322.363 236.306 323.029C236.33 323.694 236.282 324.057 236.245 324.057C236.124 324.07 236.197 322.569 235.302 320.439C234.854 319.387 234.128 318.201 233.04 317.16C232.495 316.652 231.854 316.18 231.116 315.974C230.391 315.756 229.532 315.877 228.939 316.386C228.334 316.87 228.237 317.717 228.479 318.443C228.709 319.181 229.193 319.81 229.653 320.439C230.56 321.674 231.491 322.69 232.447 323.331C234.358 324.626 235.943 324.324 235.919 324.421Z" fill="#263238"/>
<path d="M235.58 324.239C235.617 324.251 235.544 324.578 235.35 325.159C235.157 325.739 234.855 326.574 234.322 327.543C233.79 328.498 232.955 329.624 231.625 330.374C230.972 330.737 230.173 331.003 229.326 331.003C228.492 330.991 227.512 330.725 226.968 329.854C226.435 328.946 226.762 327.918 227.234 327.24C227.718 326.55 228.383 326.042 229.06 325.715C230.415 325.05 231.722 324.856 232.786 324.65C234.915 324.251 236.246 324.045 236.27 324.13C236.294 324.215 234.988 324.578 232.883 325.086C231.83 325.352 230.56 325.594 229.326 326.236C228.722 326.55 228.153 326.998 227.754 327.591C227.367 328.16 227.161 328.958 227.524 329.527C227.875 330.108 228.649 330.374 229.351 330.386C230.076 330.398 230.766 330.18 231.359 329.866C232.568 329.225 233.391 328.22 233.947 327.325C235.012 325.485 235.471 324.191 235.58 324.239Z" fill="#263238"/>
<path d="M235.132 329.394C234.999 329.273 235.689 328.341 235.894 326.998C236.124 325.655 235.761 324.554 235.931 324.481C236.064 324.384 236.777 325.546 236.511 327.095C236.269 328.656 235.229 329.527 235.132 329.394Z" fill="#263238"/>
<path d="M237.818 320.936C237.975 320.984 237.842 321.904 237.31 322.896C236.777 323.888 236.1 324.517 235.967 324.408C235.822 324.3 236.257 323.537 236.753 322.593C237.261 321.662 237.648 320.887 237.818 320.936Z" fill="#263238"/>
<path d="M257.197 311.933C257.233 312.005 256.229 312.55 254.499 313.203C252.781 313.857 250.314 314.571 247.531 314.994C244.737 315.405 242.185 315.43 240.346 315.309C238.507 315.188 237.395 314.958 237.395 314.873C237.407 314.667 241.943 315.2 247.435 314.365C252.951 313.578 257.124 311.739 257.197 311.933Z" fill="#DCDCDC"/>
<path d="M254.196 331.56C254.208 331.729 251.233 332.08 247.555 332.334C243.878 332.589 240.89 332.649 240.878 332.48C240.866 332.31 243.842 331.959 247.519 331.705C251.184 331.439 254.184 331.378 254.196 331.56Z" fill="#DCDCDC"/>
<path d="M270.248 332.02C270.212 331.875 272.135 332.032 274.506 330.447C275.656 329.66 276.877 328.438 277.664 326.756C278.462 325.098 278.716 322.993 278.317 320.899C277.905 318.806 276.901 316.942 275.631 315.599C274.373 314.232 272.91 313.324 271.627 312.731C269.027 311.57 267.188 311.57 267.212 311.436C267.212 311.4 267.66 311.364 268.47 311.461C269.281 311.545 270.442 311.775 271.809 312.32C273.152 312.876 274.7 313.772 276.055 315.188C277.422 316.591 278.498 318.552 278.934 320.766C279.357 322.981 279.067 325.231 278.184 326.998C277.313 328.765 275.982 330.023 274.748 330.81C273.49 331.584 272.317 331.911 271.506 332.008C270.696 332.117 270.248 332.056 270.248 332.02Z" fill="#DCDCDC"/>
<path d="M193.726 302.276L225.225 316.252C225.225 316.252 225.854 322.714 223.29 327.966C220.979 332.685 214 331.741 214 331.741L186.335 325.304L192.504 321.686L193.726 302.276Z" fill="#FFBE9D"/>
<path d="M221.826 330.435C220.616 329.515 219.395 328.583 218.439 327.409C217.483 326.236 216.794 324.771 216.842 323.247C216.879 321.867 217.508 320.585 218.197 319.387C218.959 318.068 219.891 316.712 221.318 316.168C223.06 315.514 224.995 316.265 226.653 317.1L226.991 324.106L221.826 330.435Z" fill="#FFC727"/>
<path d="M225.225 316.253C225.153 316.41 218.052 313.409 209.354 309.549C200.657 305.689 193.665 302.434 193.738 302.276C193.81 302.119 200.911 305.12 209.621 308.98C218.306 312.828 225.298 316.095 225.225 316.253Z" fill="#EB996E"/>
<path d="M260.983 189.376C262.241 189.413 263.305 188.445 263.354 187.186C263.704 177.251 257.148 154.708 254.003 145.366C252.08 139.642 245.584 135.48 241.035 132.406C235.544 128.691 216.117 124.141 209.73 122.375H207.577L177.904 120.16L161.573 127.989C161.573 127.989 138.917 136.569 132.348 148.524C125.78 160.48 120.784 195.56 120.784 195.56C120.784 195.56 117.772 205.579 120.784 210.105C122.659 212.924 129.627 215.357 135.917 216.567C132.518 227.893 135.203 236.291 135.082 237.743C134.828 240.72 132.554 247.653 137.901 247.218C143.259 246.794 185.162 235.722 197.609 235.226C210.056 234.73 220.992 238.832 227.79 242.632C234.068 246.141 234.007 246.407 236.245 240.199C238.483 233.992 231.334 227.034 231.334 227.034C231.334 227.034 237.757 203.861 240.733 188.711L260.983 189.376Z" fill="#455A64"/>
<path d="M161.235 175.932C161.198 175.957 160.872 175.594 160.291 174.928C159.638 174.154 158.827 173.198 157.884 172.06C155.827 169.676 152.997 166.325 149.38 163.178C147.565 161.617 145.739 160.238 143.973 159.161C142.183 158.12 140.525 157.249 139.05 156.729C136.122 155.603 134.163 155.337 134.187 155.204C134.199 155.156 134.683 155.216 135.554 155.361C136.001 155.422 136.533 155.519 137.138 155.7C137.755 155.857 138.457 156.027 139.195 156.317C140.719 156.801 142.437 157.636 144.263 158.677C146.078 159.742 147.953 161.133 149.791 162.718C153.469 165.913 156.251 169.325 158.223 171.794C159.202 173.04 159.964 174.069 160.485 174.795C161.005 175.485 161.271 175.896 161.235 175.932Z" fill="#263238"/>
<path d="M155.816 209.379C155.816 209.427 155.295 209.464 154.352 209.5C153.408 209.536 152.042 209.548 150.36 209.536C146.985 209.5 142.316 209.318 137.199 208.568C132.082 207.806 127.57 206.499 124.425 205.24C122.853 204.611 121.607 204.055 120.772 203.607C119.937 203.171 119.478 202.905 119.502 202.869C119.55 202.772 121.425 203.692 124.582 204.829C127.74 205.967 132.227 207.189 137.296 207.951C142.364 208.701 147.009 208.955 150.372 209.101C151.957 209.161 153.287 209.222 154.352 209.258C155.295 209.294 155.816 209.33 155.816 209.379Z" fill="#263238"/>
<path d="M218.633 220.741C218.669 220.766 218.512 221.08 218.198 221.637C217.895 222.194 217.387 222.98 216.71 223.9C215.367 225.751 213.238 228.135 210.48 230.301C207.71 232.455 204.879 233.943 202.762 234.79C201.698 235.214 200.827 235.516 200.21 235.686C199.593 235.855 199.242 235.928 199.23 235.892C199.194 235.795 200.537 235.335 202.581 234.391C204.637 233.447 207.371 231.923 210.093 229.805C212.803 227.675 214.944 225.388 216.359 223.621C217.786 221.867 218.548 220.681 218.633 220.741Z" fill="#263238"/>
<path d="M219.177 230.035C219.225 230.095 218.511 230.737 217.205 231.596C215.911 232.443 213.999 233.471 211.761 234.27C209.512 235.057 207.395 235.468 205.846 235.625C204.298 235.783 203.342 235.734 203.33 235.65C203.306 235.444 207.153 235.25 211.544 233.665C215.959 232.128 219.068 229.865 219.177 230.035Z" fill="#263238"/>
<path d="M254.015 145.366C254.051 145.378 254.003 145.741 253.869 146.395C253.748 147.048 253.507 147.98 253.156 149.117C252.466 151.392 251.245 154.466 249.418 157.612C247.579 160.758 245.523 163.336 243.89 165.066C243.079 165.925 242.378 166.603 241.882 167.026C241.386 167.462 241.096 167.692 241.059 167.656C240.987 167.583 242.027 166.554 243.563 164.764C245.099 162.985 247.071 160.395 248.886 157.297C250.688 154.2 251.958 151.199 252.744 148.984C253.531 146.746 253.906 145.342 254.015 145.366Z" fill="#263238"/>
<path d="M261.624 184.052C261.624 184.137 260.511 184.234 258.696 184.282C256.882 184.33 254.378 184.33 251.62 184.221C248.862 184.113 246.358 183.919 244.556 183.725C242.753 183.532 241.64 183.362 241.652 183.278C241.665 183.193 242.777 183.205 244.592 183.29C246.636 183.374 249.007 183.483 251.644 183.592C254.281 183.677 256.664 183.762 258.696 183.834C260.511 183.907 261.624 183.967 261.624 184.052Z" fill="#263238"/>
<path d="M237.987 149.359C238.035 149.347 238.18 149.916 238.398 150.957C238.64 152.118 238.954 153.595 239.317 155.349C240.067 159.064 241.144 164.207 241.785 169.979C242.426 175.751 242.245 181.051 241.712 184.827C241.446 186.714 241.168 188.227 240.902 189.255C240.648 190.284 240.491 190.853 240.454 190.841C240.418 190.828 240.491 190.248 240.66 189.207C240.854 188.166 241.059 186.654 241.277 184.778C241.688 181.027 241.797 175.787 241.168 170.052C240.527 164.316 239.535 159.173 238.894 155.446C238.567 153.582 238.313 152.058 238.168 151.017C238.011 149.952 237.95 149.371 237.987 149.359Z" fill="#263238"/>
<path d="M161.235 180.119C161.283 180.131 161.247 180.628 161.15 181.511C161.053 182.406 160.896 183.689 160.69 185.286C160.267 188.469 159.626 192.849 158.743 197.665C157.86 202.481 156.856 206.814 155.888 209.887C155.416 211.424 154.932 212.646 154.581 213.469C154.182 214.28 153.952 214.715 153.904 214.703C153.807 214.655 154.654 212.864 155.452 209.766C156.299 206.68 157.231 202.36 158.114 197.556C158.997 192.752 159.71 188.384 160.243 185.226C160.497 183.75 160.714 182.503 160.896 181.487C161.077 180.591 161.198 180.107 161.235 180.119Z" fill="#263238"/>
<path d="M157.171 160.831C157.243 160.794 157.739 161.69 158.38 163.215C159.021 164.727 159.783 166.881 160.4 169.325C161.017 171.77 161.368 174.021 161.525 175.666C161.683 177.312 161.67 178.328 161.598 178.328C161.404 178.341 161.029 174.299 159.795 169.483C158.574 164.642 156.989 160.903 157.171 160.831Z" fill="#263238"/>
<path d="M191.403 203.752C191.391 203.74 191.5 203.51 191.742 203.062C192.008 202.578 192.371 201.925 192.806 201.114C193.786 199.372 195.165 196.939 196.883 193.902C200.427 187.731 205.351 179.163 211.012 169.313L211.411 169.737C207.842 171.467 203.984 173.186 199.943 174.795C195.081 176.731 190.278 178.353 185.815 179.672L184.871 179.95L185.5 179.188C192.335 170.886 198.238 163.723 202.472 158.58C204.564 156.075 206.234 154.079 207.431 152.651C207.988 151.997 208.435 151.477 208.774 151.078C209.088 150.727 209.258 150.545 209.27 150.557C209.282 150.569 209.137 150.763 208.858 151.138C208.544 151.55 208.121 152.094 207.588 152.772C206.427 154.224 204.794 156.269 202.762 158.822C198.564 164.001 192.734 171.213 185.972 179.563L185.657 179.079C190.109 177.748 194.887 176.114 199.726 174.19C203.754 172.593 207.6 170.886 211.157 169.168L212.064 168.733L211.556 169.592C205.822 179.393 200.826 187.924 197.234 194.071C195.456 197.06 194.016 199.48 193 201.187C192.516 201.973 192.129 202.602 191.839 203.087C191.56 203.534 191.415 203.752 191.403 203.752Z" fill="white"/>
<g opacity="0.3">
<path d="M213.105 236.86C214.532 237.235 217.278 232.903 218.85 230.265C213.988 232.951 209.343 236.17 203.923 234.996C210.008 233.496 214.919 228.704 216.988 222.787C212.984 228.667 207.806 232.842 201.093 235.19C201.081 235.19 210.83 236.279 213.105 236.86Z" fill="black"/>
</g>
<path d="M157.17 108.35C157.195 108.289 158.005 108.689 159.553 109.04C161.078 109.354 163.521 109.633 166.073 108.398C167.319 107.781 168.541 106.753 169.364 105.337C170.198 103.945 170.525 102.094 169.896 100.376C169.303 98.6814 167.827 97.0841 165.892 96.7937C164.005 96.5033 161.852 97.7134 161.078 99.6011C160.678 100.545 160.763 101.61 161.187 102.493C161.622 103.377 162.372 104.103 163.231 104.574C164.09 105.059 165.057 105.301 165.989 105.288C166.932 105.276 167.864 105.034 168.698 104.659C170.38 103.897 171.71 102.65 172.739 101.368C173.767 100.061 174.529 98.6935 175.061 97.3746C176.138 94.7366 176.331 92.3891 176.331 90.8039C176.307 89.2066 176.138 88.3353 176.198 88.3232C176.222 88.3232 176.271 88.5289 176.368 88.9525C176.452 89.3639 176.537 89.9931 176.585 90.8039C176.67 92.4133 176.537 94.8213 175.485 97.544C174.964 98.9114 174.214 100.327 173.162 101.695C172.11 103.05 170.743 104.357 168.952 105.192C168.057 105.603 167.065 105.881 166.025 105.906C164.973 105.93 163.908 105.651 162.953 105.131C161.997 104.623 161.15 103.812 160.642 102.784C160.134 101.755 160.049 100.472 160.509 99.3833C161.416 97.193 163.787 95.8741 166.001 96.2008C168.227 96.5517 169.823 98.3547 170.465 100.194C171.142 102.094 170.755 104.139 169.836 105.615C168.94 107.128 167.622 108.181 166.291 108.81C163.57 110.056 161.053 109.681 159.517 109.294C158.731 109.088 158.15 108.858 157.763 108.677C157.352 108.483 157.158 108.362 157.17 108.35Z" fill="#263238"/>
<path d="M252.007 81.7162C252.479 76.8033 250.882 71.6605 247.447 68.1271C244.011 64.5937 238.725 62.8391 233.923 63.9645C230.499 64.7752 227.149 66.1184 224.717 68.7684C223.713 69.8938 223.532 70.0995 222.842 71.4427C222.758 71.6 222.685 71.7573 222.612 71.9146C222.516 72.1082 222.431 72.314 222.334 72.5197C222.322 72.556 222.298 72.5802 222.286 72.6165L222.298 72.6044C220.834 76.0289 220.387 79.889 221.233 83.5071C222.516 89.013 226.761 93.7685 232.144 95.4626C237.527 97.1567 243.842 95.6321 247.725 91.5178C250.217 88.8677 251.656 85.3222 252.007 81.7162Z" fill="#263238"/>
<path d="M249.83 89.7874C249.721 89.8116 249.503 88.42 248.656 86.3387C247.822 84.2816 246.237 81.5468 243.697 79.284C241.156 77.0211 238.265 75.7506 236.112 75.1697C233.959 74.5647 232.544 74.5042 232.556 74.3953C232.556 74.359 232.907 74.3227 233.548 74.359C234.189 74.3832 235.108 74.4921 236.221 74.7462C238.447 75.2423 241.471 76.4766 244.108 78.8241C246.745 81.1717 248.317 84.0396 249.067 86.1935C249.442 87.2705 249.66 88.178 249.757 88.8072C249.866 89.4244 249.878 89.7753 249.83 89.7874Z" fill="#455A64"/>
<path d="M245.112 80.2278C245.172 80.252 244.846 81.3774 243.999 83.0715C243.152 84.7535 241.737 86.9921 239.705 89.0614C237.673 91.1306 235.459 92.5827 233.79 93.4539C232.108 94.3252 230.995 94.6761 230.971 94.6035C230.85 94.4099 235.278 92.6795 239.269 88.6136C243.261 84.572 244.906 80.1189 245.112 80.2278Z" fill="#455A64"/>
<path d="M232.059 75.0245C231.866 74.9156 233.318 72.5802 234.527 69.5066C235.773 66.4088 235.616 63.6619 235.797 63.6619C235.87 63.6498 236.027 64.3396 236.003 65.4649C235.991 66.5903 235.725 68.1392 235.108 69.7365C233.862 72.919 232.168 75.1092 232.059 75.0245Z" fill="#DCDCDC"/>
<path d="M232.241 70.8135C232.81 56.6677 222.322 43.9378 208 42.5099C192.794 40.9852 179.585 52.1057 178.605 66.9049L176.162 126.634C176.113 127.796 176.464 128.921 177.129 129.865C180.722 134.923 187.145 138.807 192.831 139.485C198.335 140.151 203.875 138.614 208.484 135.927C210.044 135.02 210.988 133.326 210.988 131.511L210.975 118.152C210.975 118.103 211.012 118.055 211.06 118.067C211.883 118.115 214 118.103 214.798 117.897C218.318 116.966 227.245 113.335 230.015 100.073C230.959 95.6684 231.733 83.2046 232.241 70.8135Z" fill="#FFBE9D"/>
<path d="M210.976 118.067C210.976 118.067 201.843 118.333 190.763 111.036C190.763 111.036 193.811 123.052 210.976 122.35V118.067Z" fill="#EB996E"/>
<path d="M210.033 39.4847C208.762 37.4155 206.452 36.4958 203.888 36.157C193.412 34.7654 181.86 41.2877 176.174 50.1938C170.489 59.1 170.416 72.2414 174.88 81.813L178.811 82.4302C186.965 81.7888 200.271 58.7853 211.472 46.007C212.875 44.4097 211.133 41.2756 210.033 39.4847Z" fill="#263238"/>
<path d="M230.161 45.9586C225.697 41.0699 218.488 35.1405 209.476 38.7586C208.182 41.324 210.94 44.567 213.226 46.4547C216.565 49.2137 219.48 51.0651 221.681 53.0496C226.121 57.0549 231.661 63.7103 232.23 71.1886C232.266 71.6605 232.629 71.721 233.101 71.6363C233.705 71.5274 235.06 68.4417 235.701 64.3638C237.068 55.6634 234.625 50.8473 230.161 45.9586Z" fill="#263238"/>
<path d="M179.452 68.7442C178.992 66.7597 178.025 64.8841 176.706 63.311C175.835 62.2825 174.807 61.3749 173.646 60.6731C169.424 58.1198 163.86 58.1561 159.505 60.4673C155.15 62.7786 152.041 67.1832 150.977 71.9993C150.191 75.5448 150.469 79.3566 152.029 82.6359C154.449 87.7424 159.989 91.1427 165.638 91.1911C171.287 91.2395 176.803 88.0207 179.706 83.1804C181.763 79.7559 181.218 73.7297 179.452 68.7442Z" fill="#263238"/>
<path d="M181.327 77.602C181.086 77.4689 171.36 73.8386 170.937 84.0033C170.513 94.1679 180.807 92.498 180.832 92.2075C180.868 91.9171 181.327 77.602 181.327 77.602Z" fill="#FFBE9D"/>
<path d="M177.892 88.2264C177.844 88.1901 177.711 88.3474 177.408 88.4684C177.106 88.5894 176.61 88.662 176.09 88.4442C175.038 88.0086 174.203 86.2661 174.227 84.4268C174.239 83.495 174.469 82.6238 174.832 81.9098C175.171 81.1838 175.679 80.6756 176.223 80.603C176.767 80.5061 177.13 80.845 177.251 81.1354C177.372 81.4258 177.3 81.6194 177.36 81.6436C177.384 81.6678 177.59 81.4863 177.517 81.0628C177.481 80.8571 177.372 80.615 177.142 80.4093C176.912 80.2036 176.55 80.0826 176.175 80.1068C175.388 80.131 174.65 80.8208 174.263 81.6073C173.828 82.3939 173.55 83.374 173.538 84.4147C173.513 86.4597 174.481 88.4321 175.933 88.9162C176.634 89.134 177.239 88.9403 177.566 88.7104C177.856 88.4684 177.929 88.2506 177.892 88.2264Z" fill="#EB996E"/>
<path d="M232.253 47.9915C232.265 48.0641 231.14 48.2698 229.29 48.3787C227.451 48.4876 224.886 48.4755 222.08 48.1367C219.274 47.7979 216.782 47.2049 215.028 46.6604C213.262 46.1159 212.221 45.6561 212.246 45.5713C212.282 45.4866 213.37 45.7892 215.149 46.2248C216.927 46.6604 219.395 47.1686 222.165 47.5075C224.935 47.8342 227.451 47.931 229.277 47.931C231.104 47.9431 232.241 47.9068 232.253 47.9915Z" fill="#455A64"/>
<path d="M235.677 55.2882C235.689 55.3608 234.866 55.6391 233.463 55.8086C232.072 55.978 230.088 55.978 227.984 55.5181C225.867 55.0583 224.076 54.2355 222.879 53.4973C221.681 52.7592 221.04 52.1541 221.088 52.0936C221.197 51.9121 224.004 54.0297 228.129 54.901C232.229 55.8328 235.653 55.0825 235.677 55.2882Z" fill="#455A64"/>
<path d="M174.892 53.6546C174.904 53.5215 177.093 53.9208 180.638 53.824C182.416 53.8119 184.509 53.5457 186.819 53.1948C189.117 52.7592 191.621 52.142 194.198 51.2829C196.762 50.4116 199.121 49.371 201.226 48.3424C203.307 47.2655 205.157 46.2248 206.633 45.2325C209.609 43.2843 211.266 41.8201 211.339 41.9169C211.363 41.9532 210.976 42.3284 210.226 43.006C209.863 43.3448 209.391 43.7441 208.823 44.1677C208.266 44.6033 207.625 45.1115 206.875 45.6076C205.423 46.6604 203.573 47.7495 201.492 48.8627C199.375 49.9276 196.992 50.9925 194.391 51.8879C191.791 52.7592 189.25 53.3642 186.916 53.7756C184.569 54.1145 182.44 54.3323 180.638 54.2839C179.743 54.3081 178.932 54.2476 178.218 54.1871C177.505 54.1508 176.9 54.0782 176.404 53.9814C175.424 53.8119 174.88 53.703 174.892 53.6546Z" fill="#455A64"/>
<path d="M210.661 45.4745C210.698 45.4987 210.407 45.9949 209.851 46.8903C209.573 47.3381 209.234 47.8826 208.774 48.4755C208.327 49.0685 207.855 49.7824 207.226 50.4842C206.04 51.9484 204.504 53.582 202.653 55.2519C200.778 56.8855 198.601 58.5554 196.133 60.0317C193.654 61.4838 191.137 62.6092 188.803 63.4441C186.444 64.2549 184.267 64.7994 182.416 65.1019C181.497 65.2955 180.65 65.3439 179.9 65.4407C179.162 65.5375 178.521 65.5617 177.989 65.5738C176.936 65.6102 176.356 65.6102 176.356 65.5618C176.343 65.4286 178.666 65.3802 182.319 64.6663C184.146 64.3154 186.287 63.7345 188.597 62.8996C190.896 62.0404 193.363 60.9151 195.807 59.4872C198.238 58.0351 200.403 56.4015 202.266 54.8163C204.117 53.1948 205.665 51.6096 206.875 50.2059C209.331 47.3744 210.564 45.4019 210.661 45.4745Z" fill="#455A64"/>
<path d="M203.887 36.157C203.887 36.0844 204.685 35.9876 205.931 36.2901C207.165 36.6047 208.798 37.4518 210.104 38.928C210.419 39.3032 210.721 39.6783 210.951 40.0897C211.193 40.5011 211.326 40.961 211.447 41.3361C211.701 42.1105 211.931 42.8366 212.016 43.4779C212.221 44.7606 211.931 45.5471 211.871 45.5229C211.762 45.5108 211.883 44.7364 211.58 43.5747C211.435 42.9939 211.181 42.3042 210.891 41.5418C210.746 41.1425 210.625 40.7674 210.407 40.4164C210.189 40.0534 209.911 39.7025 209.621 39.3637C208.399 37.9842 206.911 37.1492 205.786 36.7378C204.649 36.3143 203.875 36.2538 203.887 36.157Z" fill="#455A64"/>
<path d="M177.069 76.7186C176.973 76.6823 177.275 75.6659 177.493 73.996C177.711 72.3261 177.759 69.9543 177.118 67.4737C176.465 64.993 175.194 62.9964 174.045 61.7742C172.896 60.5399 172.001 59.9712 172.061 59.8744C172.086 59.8381 172.328 59.9591 172.739 60.2011C173.162 60.431 173.719 60.8667 174.36 61.4596C175.63 62.6455 177.045 64.7147 177.723 67.3164C178.388 69.918 178.267 72.3745 177.928 74.0686C177.59 75.7748 177.13 76.7428 177.069 76.7186Z" fill="#DCDCDC"/>
<path d="M177.82 74.48C177.759 74.5647 176.513 73.766 174.372 72.7133C172.243 71.6484 169.17 70.4141 165.626 69.6276C162.082 68.841 158.78 68.6595 156.397 68.7079C154.014 68.7563 152.538 68.95 152.526 68.8531C152.514 68.8047 152.876 68.72 153.542 68.599C154.207 68.4659 155.175 68.3449 156.372 68.2723C158.78 68.1029 162.142 68.2239 165.759 69.0226C169.364 69.8333 172.461 71.1644 174.566 72.3382C175.618 72.919 176.453 73.4393 176.997 73.8386C177.553 74.2138 177.844 74.4437 177.82 74.48Z" fill="#455A64"/>
<path d="M168.577 70.4504C168.65 70.4625 168.444 71.6363 167.815 73.4272C167.186 75.2181 166.073 77.6383 164.404 80.0342C162.735 82.4302 160.872 84.3179 159.408 85.528C157.944 86.7501 156.916 87.3431 156.88 87.2826C156.735 87.1252 160.642 84.4147 163.896 79.6712C167.198 74.9761 168.372 70.3657 168.577 70.4504Z" fill="#455A64"/>
<path d="M175.267 90.1867C175.339 89.9931 175.702 89.8842 176.307 90.0415C176.9 90.1988 177.746 90.6466 178.436 91.6267C179.137 92.5827 179.525 94.2284 178.944 95.8378C178.666 96.6364 178.133 97.4472 177.323 98.0401C176.525 98.6209 175.545 98.9477 174.541 98.9719C173.549 99.0082 172.521 98.7056 171.734 98.1853C170.936 97.665 170.355 96.9752 169.968 96.2371C169.581 95.4868 169.388 94.7608 169.388 93.9379C169.412 93.1756 169.593 92.5706 169.823 92.0381C170.295 90.9854 171.045 90.2956 171.686 90.0657C172.327 89.8237 172.714 89.9931 172.763 90.1867C172.835 90.6224 172.073 91.2032 171.952 92.6916C171.916 93.0425 171.916 93.4539 171.988 93.7806C172.049 94.0348 172.23 94.4583 172.46 94.7608C172.956 95.4142 173.646 95.8378 174.456 95.8136C175.303 95.7773 175.896 95.4021 176.246 94.7245C176.609 94.0469 176.646 93.2966 176.452 92.6553C176.077 91.3121 175.085 90.5981 175.267 90.1867Z" fill="#455A64"/>
<path d="M185.561 74.1049C185.548 73.9597 188.004 74.1896 191.681 73.0279C195.335 71.9267 200.089 69.1315 203.766 64.5453C207.443 59.9591 209.391 54.8889 210.552 51.2345C211.133 49.3952 211.52 47.8826 211.786 46.8298C212.052 45.7771 212.197 45.1962 212.246 45.2083C212.282 45.2204 212.221 45.8134 212.028 46.8782C211.834 47.9431 211.508 49.492 210.975 51.3555C209.923 55.0704 208.012 60.2495 204.262 64.9446C200.5 69.6276 195.589 72.435 191.815 73.4514C189.927 73.9839 188.343 74.1654 187.254 74.1775C186.71 74.2138 186.286 74.1654 185.996 74.1533C185.706 74.1412 185.561 74.1291 185.561 74.1049Z" fill="#263238"/>
<path d="M210.65 127.033C210.662 127.021 210.879 127.106 211.254 127.348C211.629 127.59 212.162 128.014 212.694 128.691C213.226 129.369 213.734 130.313 214.024 131.511C214.327 132.697 214.363 134.149 213.916 135.637C213.081 138.638 210.299 141.591 206.5 143.043C204.613 143.805 202.521 144.265 200.355 144.543C198.19 144.822 195.904 144.943 193.581 144.822C188.936 144.567 184.533 143.2 181.182 140.913C177.795 138.662 175.509 135.613 174.384 132.769C173.816 131.341 173.525 129.95 173.562 128.715C173.586 127.481 173.949 126.441 174.384 125.702C174.82 124.952 175.328 124.492 175.691 124.226C176.066 123.96 176.283 123.887 176.295 123.899C176.356 123.96 175.4 124.347 174.602 125.823C174.215 126.549 173.912 127.542 173.912 128.715C173.912 129.889 174.215 131.22 174.795 132.588C175.945 135.335 178.195 138.263 181.497 140.429C184.775 142.631 189.057 143.95 193.606 144.192C195.88 144.325 198.118 144.204 200.259 143.938C202.4 143.672 204.432 143.224 206.271 142.51C209.948 141.131 212.621 138.348 213.468 135.516C214.375 132.66 213.42 130.143 212.476 128.836C211.521 127.469 210.601 127.094 210.65 127.033Z" fill="#263238"/>
<path d="M184.037 142.716C183.867 142.716 183.843 141.312 184.629 139.824C185.404 138.323 186.577 137.561 186.674 137.694C186.795 137.827 185.9 138.747 185.186 140.114C184.46 141.482 184.218 142.74 184.037 142.716Z" fill="#263238"/>
<path d="M195.384 144.87C195.214 144.858 195.117 143.732 195.166 142.329C195.226 140.937 195.408 139.812 195.577 139.812C195.746 139.824 195.843 140.949 195.795 142.353C195.746 143.757 195.565 144.882 195.384 144.87Z" fill="#263238"/>
<path d="M206.779 143.188C206.609 143.224 206.21 141.99 205.896 140.441C205.581 138.892 205.46 137.609 205.629 137.573C205.799 137.537 206.198 138.771 206.512 140.32C206.827 141.869 206.948 143.152 206.779 143.188Z" fill="#263238"/>
<path d="M213.431 135.927C213.274 136.012 212.79 135.383 212.016 134.875C211.241 134.354 210.479 134.161 210.491 133.979C210.491 133.81 211.435 133.725 212.366 134.354C213.298 134.959 213.588 135.867 213.431 135.927Z" fill="#263238"/>
<path d="M178.012 131.414C178.037 131.595 177.371 131.825 176.73 132.346C176.077 132.854 175.702 133.447 175.533 133.386C175.375 133.338 175.545 132.491 176.343 131.85C177.141 131.208 178.012 131.244 178.012 131.414Z" fill="#263238"/>
<path d="M197.911 212.38C196.121 212.319 194.935 210.468 195.661 208.834C198.927 201.477 207.83 187.319 208.423 186.412C209.257 185.117 209.705 183.544 212.415 183.217C213.455 183.096 229.797 182.721 233.62 182.636C234.249 182.624 234.866 182.83 235.325 183.266C236.088 183.992 236.874 185.371 235.676 187.537C234.321 189.981 224.451 205.289 220.435 211.194C219.636 212.368 218.306 213.045 216.89 212.997L197.911 212.38Z" fill="#263238"/>
<path d="M223.108 187.912C222.866 187.464 222.08 187.416 221.802 187.561C221.342 187.682 221.003 187.973 220.652 188.299C220.302 188.626 220.132 189.195 220.411 189.582C220.652 189.909 221.112 189.981 221.511 189.945C222.019 189.897 222.527 189.715 222.878 189.328C223.229 188.953 223.35 188.36 223.108 187.912Z" fill="white"/>
<path d="M231.515 191.24C231.479 191.216 231.709 190.72 232.156 189.824C232.398 189.34 232.676 188.808 232.979 188.215C233.148 187.9 233.317 187.561 233.499 187.21C233.68 186.835 233.922 186.509 233.91 186.133C233.922 185.758 233.741 185.359 233.414 185.117C233.075 184.851 232.688 184.851 232.132 184.899C231.08 184.948 229.967 184.984 228.793 185.032C226.434 185.117 223.858 185.202 221.16 185.298C218.463 185.371 215.886 185.456 213.515 185.516C213.225 185.528 212.947 185.528 212.669 185.54C212.439 185.565 212.221 185.649 212.04 185.795C211.713 186.049 211.459 186.63 211.169 187.041C210.612 187.912 210.092 188.735 209.608 189.485C208.689 190.889 207.915 192.075 207.298 193.007C206.741 193.829 206.415 194.277 206.378 194.253C206.342 194.229 206.596 193.745 207.092 192.874C207.661 191.905 208.374 190.695 209.233 189.243C209.705 188.469 210.201 187.634 210.733 186.751C210.866 186.533 211.011 186.303 211.144 186.073C211.278 185.867 211.435 185.565 211.701 185.347C211.955 185.141 212.282 184.996 212.62 184.96C212.911 184.948 213.213 184.935 213.503 184.923C215.862 184.839 218.439 184.754 221.148 184.657C223.846 184.585 226.422 184.5 228.793 184.439C229.967 184.415 231.08 184.391 232.132 184.367C232.604 184.33 233.305 184.33 233.729 184.73C234.176 185.081 234.406 185.637 234.37 186.146C234.358 186.4 234.285 186.654 234.176 186.859C234.067 187.041 233.971 187.222 233.874 187.404C233.68 187.743 233.487 188.07 233.305 188.384C232.967 188.965 232.664 189.485 232.386 189.945C231.854 190.804 231.551 191.264 231.515 191.24Z" fill="#455A64"/>
<path d="M258.853 189.401C258.853 189.401 257.196 200.92 255.502 208.326C253.99 214.921 251.595 237.211 245.462 240.018C239.329 242.825 231.708 241.071 228.89 235.65C226.059 230.216 223.047 215.744 223.047 215.744L210.237 210.347C210.237 210.347 207.286 199.602 208.967 198.379C210.648 197.169 227.196 198.984 227.196 198.984L231.636 197.98C231.636 197.98 224.584 196.976 223.059 196.564C221.547 196.165 220.543 194.955 220.906 193.539C221.269 192.123 221.547 190.707 225.382 190.707C229.217 190.707 235.204 190.139 236.281 190.502C237.624 190.962 239.16 191.748 239.462 195.148C239.753 198.464 238.156 204.853 238.156 204.853L238.507 205.386L240.769 188.711L258.853 189.401Z" fill="#FFBE9D"/>
<path d="M237.322 209.294C237.334 209.331 236.959 209.476 236.282 209.706C235.604 209.948 234.6 210.214 233.342 210.492C230.838 211.049 227.27 211.509 223.338 211.255C219.407 210.988 215.923 210.044 213.528 209.113C212.331 208.641 211.375 208.217 210.746 207.878C210.105 207.54 209.766 207.334 209.79 207.298C209.839 207.201 211.266 207.878 213.673 208.689C216.08 209.5 219.504 210.359 223.375 210.613C227.246 210.855 230.754 210.48 233.258 210.032C235.762 209.621 237.286 209.197 237.322 209.294Z" fill="#EB996E"/>
<path d="M234.89 204.672C234.902 204.708 234.527 204.829 233.85 204.998C233.173 205.168 232.181 205.386 230.947 205.579C228.479 205.979 224.995 206.33 221.161 205.942C217.326 205.555 213.963 204.406 211.75 203.22C210.637 202.639 209.778 202.07 209.221 201.647C208.665 201.223 208.375 200.957 208.399 200.92C208.459 200.836 209.705 201.768 211.943 202.82C214.169 203.885 217.471 204.938 221.221 205.325C224.983 205.712 228.419 205.434 230.886 205.144C233.354 204.853 234.866 204.575 234.89 204.672Z" fill="#EB996E"/>
<path d="M238.882 192.777C238.955 192.752 239.184 193.345 239.136 194.326C239.1 194.81 239.027 195.415 238.664 196.032C238.495 196.334 238.144 196.625 237.842 196.782C237.527 196.964 237.189 197.109 236.826 197.23C235.398 197.69 234.08 197.798 233.136 197.859C232.205 197.907 231.648 198.053 231.612 197.98C231.576 197.895 232.12 197.593 233.076 197.423C234.007 197.254 235.289 197.06 236.62 196.637C237.261 196.407 237.902 196.141 238.168 195.717C238.471 195.269 238.604 194.725 238.689 194.277C238.858 193.382 238.797 192.801 238.882 192.777Z" fill="#EB996E"/>
<path d="M232.797 212.162C232.846 212.126 233.233 212.961 232.809 214.255C232.592 214.885 232.18 215.599 231.515 216.192C230.85 216.785 229.93 217.22 228.926 217.39C227.922 217.559 226.943 217.486 226.096 217.269C225.249 217.039 224.56 216.7 223.991 216.409C222.866 215.804 222.177 215.466 222.201 215.381C222.225 215.296 223.011 215.502 224.173 215.998C225.322 216.494 226.967 217.099 228.818 216.772C229.725 216.615 230.535 216.252 231.14 215.756C231.745 215.26 232.156 214.643 232.398 214.098C232.87 212.985 232.688 212.174 232.797 212.162Z" fill="#EB996E"/>
<path d="M238.132 191.615C238.144 191.603 238.216 191.651 238.362 191.748C238.507 191.857 238.688 192.051 238.87 192.341C239.232 192.934 239.499 193.902 239.595 195.136C239.777 197.605 239.353 201.041 238.422 204.926L238.41 204.744C238.978 206.293 239.765 207.915 240.708 209.524C242.015 211.787 243.466 213.82 244.869 215.599C246.261 217.365 247.724 218.878 248.45 220.524C249.2 222.145 249.139 223.694 248.801 224.626C248.631 225.098 248.426 225.424 248.269 225.63C248.099 225.824 248.002 225.921 247.978 225.908C247.93 225.872 248.317 225.473 248.559 224.565C248.813 223.67 248.801 222.23 248.039 220.729C247.313 219.205 245.849 217.765 244.398 215.974C242.958 214.195 241.482 212.15 240.152 209.851C239.208 208.217 238.41 206.559 237.829 204.962L237.793 204.877L237.817 204.781C238.773 200.969 239.257 197.569 239.196 195.161C239.16 193.963 238.954 193.019 238.676 192.438C238.41 191.869 238.095 191.663 238.132 191.615Z" fill="#EB996E"/>
<path d="M124.933 213.154C124.933 213.154 123.058 238.88 135.021 243.188C151.509 249.142 170.319 232.697 170.38 232.431C170.452 232.165 190.387 216.107 190.387 216.107L184.182 199.009C184.182 199.009 181.702 199.009 177.662 201.889C176.198 202.929 153.094 215.115 153.094 215.115C153.094 215.115 143.005 215.03 124.933 213.154Z" fill="#FFBE9D"/>
<path d="M153.928 214.727C154.013 214.921 149.658 216.688 144.396 219.047C141.771 220.233 139.46 221.431 137.803 222.339C136.146 223.246 135.142 223.851 135.094 223.767C135.045 223.706 135.977 222.968 137.585 221.952C139.194 220.935 141.505 219.664 144.142 218.467C146.779 217.269 149.222 216.313 151.001 215.659C152.779 215.018 153.892 214.655 153.928 214.727Z" fill="#EB996E"/>
<path d="M206.282 189.691C206.282 189.691 203.161 185.262 201.927 185.286C200.693 185.298 193.254 186.521 193.254 186.521L182.742 197.932C182.742 197.932 182.016 201.647 184.29 202.99C184.29 202.99 183.528 208.834 186.335 210.504C186.335 210.504 188.415 215.998 190.387 216.107C192.347 216.216 192.879 216.107 192.879 216.107C192.879 216.107 192.443 219.41 195.443 219.616C197.621 219.761 202.036 219.096 204.262 218.733C205.133 218.588 205.907 218.104 206.415 217.39L208.991 213.771C209.814 212.622 209.802 211.073 208.979 209.923C208.979 209.923 210.213 208.447 210.528 207.225C210.842 206.003 210.528 203.776 210.528 203.776C210.528 203.776 214.967 200.013 215.076 199.033C215.185 198.053 214.967 197.109 213.007 197.218C213.007 197.218 212.596 194.18 210.116 194.253C207.637 194.326 195.903 194.253 195.903 194.253L198.129 192.075C198.129 192.075 203.971 194.301 204.588 192.825L206.282 189.691Z" fill="#FFBE9D"/>
<path d="M189.42 202.857C189.42 202.808 190.097 202.784 191.319 202.723C192.541 202.663 194.331 202.554 196.533 202.288C198.734 202.034 201.347 201.61 204.226 200.92C205.666 200.57 207.166 200.158 208.714 199.674C210.214 199.263 211.508 198.101 212.778 196.964L212.851 196.891L212.936 196.879C213.444 196.794 214.036 196.722 214.641 197.048C214.944 197.218 215.161 197.532 215.246 197.835C215.343 198.137 215.355 198.44 215.367 198.718C215.355 198.863 215.391 198.912 215.355 199.117C215.319 199.347 215.234 199.42 215.173 199.565C215.028 199.783 214.883 199.989 214.726 200.17C214.411 200.545 214.085 200.884 213.758 201.211C213.093 201.876 212.428 202.494 211.75 203.087L211.738 203.099L211.726 203.111C209.186 205.011 206.839 206.898 204.48 208.266C202.133 209.657 199.762 210.371 197.767 210.662C195.759 210.952 194.125 210.795 193.049 210.541C192.505 210.42 192.093 210.299 191.827 210.19C191.561 210.081 191.416 210.02 191.428 210.008C191.428 209.875 193.775 210.928 197.706 210.262C199.641 209.923 201.94 209.197 204.202 207.806C206.488 206.438 208.799 204.539 211.351 202.627L211.327 202.639C211.992 202.046 212.657 201.429 213.298 200.787C213.613 200.461 213.94 200.134 214.23 199.783C214.375 199.614 214.508 199.432 214.617 199.251C214.653 199.178 214.726 199.057 214.714 199.045C214.738 199.021 214.714 198.827 214.726 198.742C214.726 198.222 214.629 197.774 214.315 197.605C213.988 197.423 213.492 197.435 213.032 197.52L213.19 197.435C212.536 198.041 211.871 198.597 211.169 199.105C210.48 199.601 209.682 200.073 208.871 200.267C207.311 200.751 205.787 201.15 204.323 201.477C201.408 202.131 198.758 202.518 196.545 202.723C194.319 202.929 192.529 202.978 191.295 202.965C190.678 202.965 190.206 202.941 189.88 202.929C189.589 202.893 189.42 202.881 189.42 202.857Z" fill="#EB996E"/>
<path d="M210.527 203.752C210.588 203.752 210.721 204.418 210.781 205.591C210.794 205.882 210.806 206.209 210.794 206.572C210.794 206.753 210.781 206.935 210.757 207.128C210.745 207.334 210.661 207.588 210.576 207.757C210.406 208.145 210.201 208.52 209.971 208.919C209.85 209.113 209.729 209.318 209.608 209.512L209.415 209.815C209.366 209.875 209.378 209.887 209.282 210.008C209.257 210.032 209.221 210.057 209.197 210.081C209.148 210.081 209.209 210.165 208.907 210.057C208.737 209.923 208.786 209.742 208.798 209.718C208.81 209.669 208.822 209.657 208.822 209.657L208.834 209.633L208.882 209.548L209.378 209.839C208.665 211.133 207.636 212.477 206.294 213.626C203.838 215.768 200.874 216.603 198.794 216.724C197.741 216.797 196.895 216.736 196.314 216.651C195.733 216.555 195.419 216.482 195.431 216.434C195.443 216.313 196.725 216.53 198.745 216.276C200.753 216.046 203.536 215.175 205.882 213.142C207.165 212.053 208.157 210.783 208.87 209.56L209.366 209.851C210.83 206.68 210.334 203.704 210.527 203.752Z" fill="#EB996E"/>
<path d="M198.395 192.16C198.347 192.293 197.161 191.857 196.605 190.453C196.351 189.764 196.387 189.086 196.508 188.65C196.629 188.203 196.786 187.973 196.871 187.997C197.065 188.045 196.774 189.11 197.198 190.248C197.621 191.349 198.528 192.002 198.395 192.16Z" fill="#EB996E"/>
<path d="M193.145 216.216C193.157 216.252 192.83 216.385 192.213 216.434C191.609 216.482 190.677 216.422 189.649 215.95C188.633 215.49 187.556 214.522 186.976 213.13C186.673 212.452 186.552 211.605 186.54 210.855C186.504 210.48 186.419 210.25 186.153 210.044C185.875 209.839 185.476 209.56 185.197 209.209C184.423 208.302 184.109 207.164 184.024 206.136C183.939 205.095 184.048 204.139 184.145 203.268L184.278 203.522C182.609 202.469 182.198 200.727 182.246 199.686C182.294 198.597 182.693 198.065 182.718 198.089C182.79 198.113 182.512 198.67 182.56 199.686C182.597 200.654 183.081 202.203 184.544 203.062L184.689 203.147L184.677 203.316C184.617 204.176 184.532 205.119 184.629 206.075C184.714 207.031 185.016 208.036 185.669 208.798C185.911 209.101 186.189 209.282 186.552 209.56C186.939 209.827 187.157 210.407 187.157 210.807C187.169 211.618 187.266 212.271 187.52 212.912C188.016 214.183 188.935 215.078 189.855 215.55C191.73 216.518 193.157 216.095 193.145 216.216Z" fill="#EB996E"/>
<g opacity="0.3">
<path d="M161.017 181.632C159.602 194.471 157.606 204.272 154.594 213.13C158.779 209.573 161.658 204.514 162.456 199.081C163.255 193.636 161.985 187.053 161.017 181.632Z" fill="black"/>
</g>
<g opacity="0.3">
<path d="M243.418 174.589C243.043 170.027 241.725 165.598 240.031 161.351C241.93 170.402 242.136 179.793 240.66 188.929L241.108 187.949C243.164 183.846 243.781 179.139 243.418 174.589Z" fill="black"/>
</g>
</g>
<defs>
<clipPath id="clip0_309_1782">
<rect width="383" height="469" fill="white"/>
</clipPath>
</defs>
</svg>
