<svg width="56" height="49" viewBox="0 0 56 49" fill="none" xmlns="http://www.w3.org/2000/svg">
<path d="M22.6681 49C20.4793 48.9779 18.8036 47.01 19.3015 44.9171C20.2943 40.7534 21.3578 36.6044 22.4003 32.4524C24.8688 22.613 27.3419 12.7765 29.8104 2.93709C30.2812 1.05745 31.6261 -0.0412102 33.4222 0.00144197C35.5192 0.0529187 37.1799 2.00021 36.7151 4.00339C35.9524 7.29643 35.1025 10.5704 34.2796 13.8502C31.587 24.5809 28.8898 35.3086 26.1971 46.0393C25.7233 47.9219 24.4281 49.0191 22.6681 49Z" fill="#EBEFF2"/>
<path d="M8.23445 24.5103C9.65751 26.0576 11.064 27.5857 12.4705 29.1153C14.1689 30.9611 15.8717 32.801 17.564 34.6527C18.9374 36.1559 18.8442 38.2973 17.3655 39.5886C15.9138 40.8564 13.7341 40.7079 12.3682 39.2298C8.6015 35.1469 4.83928 31.0611 1.08308 26.9695C-0.367046 25.3899 -0.362533 23.6117 1.09361 22.0262C4.84831 17.9331 8.60902 13.8458 12.3757 9.76298C13.7416 8.28192 15.9198 8.1422 17.3715 9.41736C18.8487 10.7146 18.9389 12.8472 17.558 14.3532C14.584 17.5992 11.598 20.8349 8.61804 24.075C8.49469 24.2088 8.37736 24.3471 8.23445 24.5103Z" fill="#EBEFF2"/>
<path d="M47.7686 24.4881C46.3455 22.9408 44.939 21.4112 43.5325 19.8831C41.8342 18.0373 40.1313 16.1959 38.439 14.3457C37.0656 12.844 37.1558 10.6982 38.6375 9.41127C40.0967 8.14347 42.2704 8.28614 43.6348 9.76573C47.4135 13.8618 51.1878 17.9638 54.9545 22.0701C56.352 23.5924 56.349 25.4073 54.95 26.934C51.1818 31.0403 47.409 35.1408 43.6288 39.2369C42.2644 40.715 40.0817 40.8533 38.6315 39.5825C37.1558 38.2897 37.0686 36.1527 38.4495 34.6481C41.425 31.4036 44.4095 28.1665 47.391 24.9264C47.5098 24.7911 47.6272 24.6513 47.7686 24.4881Z" fill="#EBEFF2"/>
</svg>
