<svg width="121" height="122" viewBox="0 0 121 122" fill="none" xmlns="http://www.w3.org/2000/svg">
<path d="M32.8357 63.0401C34.0511 58.1551 35.2765 53.3937 36.4051 48.6122C37.3166 44.7557 39.4068 43.006 43.3369 43.006C50.7094 43.006 58.0786 43.0695 65.4478 42.976C68.473 42.9359 70.473 44.2448 71.625 46.9127C72.8805 49.8176 74.0191 52.7693 75.1977 55.7077C76.7938 59.6878 78.3965 63.6679 79.9525 67.6647C80.2029 68.3057 80.3498 69.0303 80.3565 69.7182C80.3932 74.0589 80.3832 78.3962 80.3732 82.737C80.3632 86.5635 77.8656 89.0844 74.0291 89.0844C51.5842 89.0945 29.136 89.0945 6.69117 89.0844C2.95815 89.0811 0.403807 86.5201 0.390451 82.8038C0.373756 78.2961 0.373756 73.7918 0.390451 69.2841C0.403807 65.6345 2.96817 63.0568 6.6077 63.0502C14.8951 63.0368 23.1826 63.0468 31.47 63.0468C31.8907 63.0401 32.3014 63.0401 32.8357 63.0401ZM56.4659 51.0263C56.4225 51.3168 56.3891 51.437 56.3891 51.5573C56.3857 60.6928 56.379 69.8283 56.3891 78.9639C56.3891 80.3195 57.2305 81.0574 58.7664 81.0641C62.5128 81.0808 66.2625 81.0808 70.0089 81.0641C71.6417 81.0574 72.3662 80.3262 72.3796 78.6901C72.3963 76.5631 72.3996 74.4362 72.3763 72.3059C72.3696 71.6047 72.4163 70.8401 72.1592 70.219C69.7051 64.2522 67.2208 58.2954 64.6464 52.3787C64.3893 51.7843 63.5179 51.1332 62.8901 51.0831C60.7832 50.9262 58.6596 51.0263 56.4659 51.0263ZM52.3789 51.033C50.2252 51.033 48.1884 50.9228 46.1784 51.0998C45.5707 51.1532 44.6992 51.9045 44.5222 52.5055C43.3502 56.4957 42.3118 60.5225 41.2767 64.5527C40.9528 65.8149 41.7742 66.9835 43.0631 67.0102C46.1283 67.077 49.1935 67.0336 52.2654 67.0336C52.3221 66.8232 52.3756 66.7064 52.3756 66.5928C52.3789 61.4675 52.3789 56.3454 52.3789 51.033ZM12.3875 76.1124C12.3875 75.1107 12.4209 74.1123 12.3809 73.1139C12.3274 71.8317 11.5094 71.027 10.3541 71.0471C9.20545 71.0671 8.42078 71.8818 8.40409 73.1807C8.37404 75.1374 8.3707 77.0974 8.40742 79.054C8.4308 80.3563 9.21547 81.1042 10.4242 81.0875C11.5795 81.0708 12.3241 80.3496 12.3775 79.1108C12.4176 78.1158 12.3842 77.1141 12.3875 76.1124ZM20.3845 76.079C20.3845 75.0806 20.4179 74.0789 20.3745 73.0805C20.3244 71.8651 19.543 71.0771 18.4412 71.0471C17.2825 71.017 16.4277 71.8184 16.401 73.0905C16.361 75.0906 16.3643 77.0907 16.401 79.0908C16.4244 80.3329 17.179 81.0641 18.3276 81.0908C19.5364 81.1175 20.3244 80.373 20.3711 79.0774C20.4145 78.0791 20.3845 77.0773 20.3845 76.079ZM28.3814 76.079C28.3814 75.0806 28.4148 74.0823 28.3714 73.0872C28.318 71.8184 27.4866 71.017 26.3313 71.0471C25.2327 71.0738 24.428 71.8618 24.4013 73.0705C24.3612 75.0639 24.3579 77.0606 24.4046 79.0574C24.4314 80.2561 25.2661 81.0307 26.3747 81.0341C27.4832 81.0408 28.308 80.2661 28.3681 79.0741C28.4215 78.0757 28.3814 77.0773 28.3814 76.079Z" fill="#595959"/>
<path d="M45.3301 93.0913C55.661 93.0913 65.9885 93.0579 76.3194 93.1013C84.3431 93.1347 90.577 99.6091 90.3533 107.559C90.1496 114.848 84.1962 120.875 76.9138 121.102C74.2927 121.182 71.6649 121.129 69.0437 121.129C50.9262 121.129 32.8054 121.139 14.6879 121.126C7.53241 121.119 1.69915 116.231 0.603957 109.392C-0.765038 100.828 5.64921 93.1614 14.344 93.108C24.6716 93.0446 35.0025 93.0913 45.3301 93.0913ZM24.3844 107.078C24.3677 103.82 21.6698 101.118 18.4176 101.108C15.1153 101.098 12.3773 103.846 12.394 107.152C12.4107 110.397 15.122 113.109 18.3642 113.125C21.6631 113.139 24.3978 110.391 24.3844 107.078ZM78.3729 107.165C78.3963 103.903 75.7351 101.165 72.4896 101.108C69.1806 101.052 66.4059 103.756 66.3825 107.062C66.3592 110.324 69.027 113.072 72.2625 113.122C75.5715 113.175 78.3496 110.464 78.3729 107.165ZM42.375 107.092C42.365 103.833 39.6704 101.125 36.4216 101.108C33.1159 101.092 30.3779 103.826 30.388 107.135C30.398 110.434 33.1627 113.159 36.4683 113.122C39.7038 113.089 42.385 110.351 42.375 107.092ZM60.369 107.132C60.379 103.876 57.7011 101.148 54.4556 101.112C51.1533 101.075 48.3953 103.796 48.3886 107.102C48.3819 110.357 51.0665 113.092 54.2987 113.125C57.6009 113.159 60.359 110.434 60.369 107.132Z" fill="#595959"/>
<path d="M119.243 52.9362C115.643 53.4303 111.947 52.0747 108.594 54.2718C108.434 53.9112 108.271 53.5906 108.147 53.2534C103.305 39.8606 98.4672 26.4678 93.6357 13.0717C92.1431 8.93129 93.2784 5.13816 96.7143 2.67397C100.06 0.273218 104.538 0.346676 107.77 2.85094C109.466 4.16317 110.444 5.90614 110.835 7.98969C113.359 21.4626 115.877 34.9389 118.398 48.4118C118.678 49.9144 118.959 51.4169 119.243 52.9362ZM104.357 11.0048C104.391 9.91963 103.512 8.98805 102.424 8.958C101.335 8.92461 100.411 9.80277 100.38 10.8913C100.347 11.9765 101.229 12.9114 102.31 12.9448C103.386 12.9748 104.324 12.0867 104.357 11.0048Z" fill="#595959"/>
<path d="M88.4702 9.69287C89.7691 13.6963 91.0446 17.633 92.3468 21.6599C89.325 23.5732 86.2731 25.5131 83.2179 27.4464C79.6986 29.6735 76.1893 31.9073 72.6533 34.1111C70.9504 35.1729 69.558 36.4818 68.74 38.3616C68.6164 38.6488 68.1757 38.8158 67.8551 38.9894C67.7283 39.0595 67.5279 39.0027 67.361 39.0027C59.7847 39.0027 52.2052 39.0027 44.4453 39.0027C45.7509 35.0493 46.9329 31.1761 49.5273 27.9339C51.307 25.7101 53.4673 24.0139 56.1152 22.9287C66.623 18.6281 77.1176 14.3074 87.6188 9.99672C87.9994 9.83979 88.3901 9.71958 88.4702 9.69287Z" fill="#595959"/>
<path d="M100.845 85.0773C98.8077 85.0773 96.7676 85.064 94.7308 85.084C93.7725 85.094 93.0212 84.7968 92.5838 83.8987C92.1564 83.0305 92.4503 82.2959 92.9812 81.5847C98.8512 73.7547 104.698 65.9114 110.611 58.1148C111.025 57.5705 111.887 57.1231 112.575 57.073C114.434 56.9294 116.314 57.0029 118.187 57.033C119.433 57.053 120.324 57.7208 120.321 58.8527C120.314 63.6409 120.561 68.4657 120.074 73.2105C119.389 79.8752 113.529 84.8636 106.838 85.0573C104.841 85.1141 102.845 85.0673 100.848 85.0673C100.845 85.0673 100.845 85.0707 100.845 85.0773Z" fill="#595959"/>
</svg>
