<svg width="707" height="594" viewBox="0 0 707 594" fill="none" xmlns="http://www.w3.org/2000/svg">
<g clip-path="url(#clip0_348_10918)">
<path d="M518.057 291.016H258.023V0H540.254V268.83C540.241 281.072 530.312 291.016 518.057 291.016Z" fill="#EBEBEB"/>
<path d="M516.937 86.6099C516.937 87.198 465.923 87.6768 403.01 87.6768C340.084 87.6768 289.084 87.198 289.084 86.6099C289.084 86.0217 340.084 85.543 403.01 85.543C465.937 85.543 516.937 86.0217 516.937 86.6099Z" fill="#455A64"/>
<path d="M404.363 106.32C404.363 106.908 379.157 107.387 348.084 107.387C316.997 107.387 291.791 106.908 291.791 106.32C291.791 105.732 316.983 105.253 348.084 105.253C379.171 105.253 404.363 105.732 404.363 106.32Z" fill="#455A64"/>
<path d="M449.401 104.501C449.401 105.089 442.727 105.568 434.493 105.568C426.26 105.568 419.586 105.089 419.586 104.501C419.586 103.913 426.26 103.434 434.493 103.434C442.727 103.434 449.401 103.913 449.401 104.501Z" fill="#455A64"/>
<path d="M523.023 103.283C523.023 103.872 509.811 104.35 493.508 104.35C477.206 104.35 463.994 103.872 463.994 103.283C463.994 102.695 477.206 102.217 493.508 102.217C509.811 102.217 523.023 102.695 523.023 103.283Z" fill="#455A64"/>
<path d="M394.969 125.196C394.969 125.784 371.267 126.263 342.026 126.263C312.786 126.263 289.084 125.784 289.084 125.196C289.084 124.608 312.786 124.129 342.026 124.129C371.267 124.115 394.969 124.594 394.969 125.196Z" fill="#455A64"/>
<path d="M523.023 124.649C523.023 125.237 497.133 125.716 465.212 125.716C433.277 125.716 407.4 125.237 407.4 124.649C407.4 124.061 433.277 123.582 465.212 123.582C497.146 123.582 523.023 124.061 523.023 124.649Z" fill="#455A64"/>
<path d="M523.024 143.634C523.024 144.222 511.494 144.701 497.284 144.701C483.061 144.701 471.545 144.222 471.545 143.634C471.545 143.046 483.061 142.567 497.284 142.567C511.508 142.567 523.024 143.046 523.024 143.634Z" fill="#455A64"/>
<path d="M416.536 65.4773C416.536 66.0655 388.608 66.5442 354.17 66.5442C319.719 66.5442 291.791 66.0655 291.791 65.4773C291.791 64.8891 319.705 64.4104 354.17 64.4104C388.608 64.4104 416.536 64.8891 416.536 65.4773Z" fill="#FFC800"/>
<path d="M590.037 550.736H43.6144C32.6047 550.736 23.6875 541.818 23.6875 530.807V182.931C23.6875 171.92 32.6047 163.002 43.6144 163.002H590.037C601.047 163.002 609.964 171.92 609.964 182.931V530.821C609.964 541.818 601.047 550.736 590.037 550.736Z" fill="#263238"/>
<path d="M610.84 555.988H24.3444C10.9003 555.988 0 545.087 0 531.641V522.053H635.184V531.641C635.184 545.087 624.284 555.988 610.84 555.988Z" fill="#263238"/>
<path d="M593.402 178.404H40.25V505.845H593.402V178.404Z" fill="#455A64"/>
<path d="M259.856 522.053C259.842 522.053 260.048 522.039 260.472 522.039C260.923 522.039 261.538 522.026 262.332 522.026C264.014 522.012 266.448 521.998 269.553 521.985C275.899 521.957 285.035 521.916 296.359 521.875C319.172 521.82 350.751 521.752 385.968 521.684H386.625L386.297 522.258C385.175 524.187 383.958 526.266 382.741 528.359C381.469 530.547 380.197 532.722 378.98 534.801L378.87 534.992H378.651C329.908 534.897 288.29 534.828 267.748 534.787H267.652L267.597 534.705C265.067 530.588 263.125 527.428 261.785 525.254C261.155 524.228 260.663 523.421 260.321 522.86C260.007 522.313 259.856 522.053 259.856 522.053C259.856 522.053 260.061 522.34 260.403 522.887C260.772 523.448 261.278 524.255 261.949 525.281C263.316 527.401 265.299 530.492 267.871 534.5L267.72 534.418C288.262 534.377 329.894 534.309 378.624 534.213L378.296 534.404C379.513 532.325 380.785 530.15 382.057 527.962C383.274 525.869 384.491 523.804 385.613 521.861L385.941 522.436C350.86 522.354 319.404 522.299 296.687 522.244C285.322 522.203 276.131 522.162 269.758 522.135C266.599 522.121 264.137 522.108 262.427 522.094C261.607 522.08 260.978 522.08 260.499 522.08C260.102 522.067 259.856 522.053 259.856 522.053Z" fill="#455A64"/>
<path d="M609.964 522.053C609.964 522.244 478.709 522.409 316.846 522.409C154.915 522.409 23.7012 522.244 23.7012 522.053C23.7012 521.861 154.928 521.697 316.846 521.697C478.709 521.697 609.964 521.861 609.964 522.053Z" fill="#455A64"/>
<path d="M460.341 113.009C469.382 113.009 476.712 120.34 476.712 129.381V162.988H427.736V131.994C427.736 121.516 436.23 113.009 446.72 113.009H460.341Z" fill="#263238"/>
<path d="M460.341 113.009C460.341 113.2 414.142 113.323 357.151 113.269C300.147 113.214 253.947 113.022 253.947 112.817C253.947 112.626 300.147 112.503 357.151 112.557C414.142 112.612 460.341 112.817 460.341 113.009Z" fill="#263238"/>
<path d="M459.917 112.968L439.498 112.831L409.834 113.009H191.896C173.392 113.009 158.389 128.014 158.389 146.52V500.442V506.624H440.62V131.378C441.454 113.009 459.917 112.968 459.917 112.968Z" fill="#FAFAFA"/>
<path d="M459.918 112.968L289.739 113.337L204.657 113.405L194.017 113.419C192.239 113.378 190.488 113.487 188.737 113.583C187 113.829 185.263 114.021 183.581 114.527C176.77 116.209 170.657 120.299 166.212 125.702C163.996 128.424 162.273 131.515 161.015 134.77C160.741 135.605 160.358 136.398 160.167 137.246L159.51 139.79C159.251 141.514 158.909 143.237 158.895 145.002C158.744 152.046 158.868 159.172 158.827 166.258L159.059 506.638L158.375 505.954L440.606 506.132L440.114 506.624L440.251 304.188L440.415 202.97L440.511 152.361L440.538 139.708L440.552 133.389C440.552 132.336 440.524 131.283 440.688 130.229C440.825 129.176 440.866 128.123 441.181 127.111C442.111 123.007 444.463 119.15 448.019 116.811C449.742 115.594 451.671 114.677 453.695 114.075C455.719 113.433 457.811 113.036 459.918 112.968ZM459.918 112.968C457.811 113.036 455.719 113.446 453.708 114.075C451.698 114.691 449.77 115.621 448.06 116.838C444.531 119.191 442.206 123.035 441.29 127.124C440.976 128.137 440.935 129.19 440.811 130.229C440.647 131.269 440.688 132.322 440.688 133.389L440.702 139.722L440.729 152.374L440.825 202.983L440.989 304.201L441.126 506.638V507.13H440.634L158.403 507.308H157.719V506.624L157.951 166.244C157.992 159.145 157.883 152.073 158.047 144.947C158.061 143.142 158.403 141.377 158.676 139.599L159.346 136.986C159.551 136.111 159.934 135.29 160.222 134.442C161.521 131.105 163.285 127.931 165.569 125.141C170.137 119.615 176.401 115.43 183.39 113.72C185.113 113.2 186.905 113.009 188.683 112.762C190.474 112.667 192.266 112.571 194.03 112.598L204.671 112.612L289.753 112.68L459.918 112.968Z" fill="#263238"/>
<path d="M200.91 177.802H250.16L250.242 194.298H247.889C247.11 188.389 244.908 184.409 241.256 182.316C239.205 181.167 236.141 180.538 232.066 180.428V223.528C232.066 226.537 232.585 228.534 233.638 229.519C234.691 230.504 236.88 230.996 240.203 230.996V233.075H211.045V230.996C214.245 230.996 216.365 230.49 217.418 229.492C218.471 228.493 218.991 226.496 218.991 223.514V180.415C214.997 180.524 211.934 181.153 209.8 182.302C205.888 184.436 203.673 188.43 203.167 194.284H200.814L200.91 177.802Z" fill="#FFC800"/>
<path d="M401.902 181.522C401.902 182.111 374.74 182.589 341.232 182.589C307.711 182.589 280.549 182.111 280.549 181.522C280.549 180.934 307.711 180.456 341.232 180.456C374.726 180.456 401.902 180.934 401.902 181.522Z" fill="#FFC800"/>
<path d="M329.893 200.918C329.893 201.506 319.39 201.985 306.438 201.985C293.472 201.985 282.982 201.506 282.982 200.918C282.982 200.33 293.486 199.851 306.438 199.851C319.39 199.851 329.893 200.33 329.893 200.918Z" fill="#455A64"/>
<path d="M270.756 260.062C270.756 260.65 250.801 261.129 226.211 261.129C201.607 261.129 181.652 260.65 181.652 260.062C181.652 259.474 201.593 258.995 226.211 258.995C250.815 258.995 270.756 259.474 270.756 260.062Z" fill="#455A64"/>
<path d="M371.662 260.062C371.662 260.65 351.708 261.129 327.117 261.129C302.513 261.129 282.559 260.65 282.559 260.062C282.559 259.474 302.499 258.995 327.117 258.995C351.721 258.995 371.662 259.474 371.662 260.062Z" fill="#FFC800"/>
<path d="M270.756 275.86C270.756 276.449 250.801 276.927 226.211 276.927C201.607 276.927 181.652 276.449 181.652 275.86C181.652 275.272 201.593 274.793 226.211 274.793C250.815 274.793 270.756 275.272 270.756 275.86Z" fill="#455A64"/>
<path d="M270.756 291.659C270.756 292.247 250.801 292.726 226.211 292.726C201.607 292.726 181.652 292.247 181.652 291.659C181.652 291.071 201.593 290.592 226.211 290.592C250.815 290.592 270.756 291.071 270.756 291.659Z" fill="#FFC800"/>
<path d="M329.893 233.089C329.893 233.677 319.39 234.156 306.438 234.156C293.472 234.156 282.982 233.677 282.982 233.089C282.982 232.501 293.486 232.022 306.438 232.022C319.39 232.022 329.893 232.501 329.893 233.089Z" fill="#455A64"/>
<path d="M411.269 260.062C411.269 260.65 404.266 261.129 395.636 261.129C386.993 261.129 379.99 260.65 379.99 260.062C379.99 259.474 386.993 258.995 395.636 258.995C404.266 258.995 411.269 259.474 411.269 260.062Z" fill="#455A64"/>
<path d="M419.639 200.918C419.639 201.506 401.614 201.985 379.389 201.985C357.151 201.985 339.139 201.506 339.139 200.918C339.139 200.33 357.164 199.851 379.389 199.851C401.614 199.851 419.639 200.33 419.639 200.918Z" fill="#455A64"/>
<path d="M416.001 216.32C416.001 216.908 386.214 217.386 349.492 217.386C312.756 217.386 282.969 216.908 282.969 216.32C282.969 215.731 312.743 215.253 349.492 215.253C386.227 215.253 416.001 215.731 416.001 216.32Z" fill="#455A64"/>
<path d="M411.269 275.86C411.269 276.449 382.453 276.927 346.921 276.927C311.375 276.927 282.559 276.449 282.559 275.86C282.559 275.272 311.362 274.793 346.921 274.793C382.453 274.793 411.269 275.272 411.269 275.86Z" fill="#455A64"/>
<path d="M411.269 321.586C411.269 322.175 384.23 322.653 350.886 322.653C317.529 322.653 290.49 322.175 290.49 321.586C290.49 320.998 317.529 320.52 350.886 320.52C384.23 320.52 411.269 320.998 411.269 321.586Z" fill="#FFC800"/>
<path d="M411.269 336.961C411.269 337.549 384.23 338.028 350.886 338.028C317.529 338.028 290.49 337.549 290.49 336.961C290.49 336.373 317.529 335.894 350.886 335.894C384.23 335.894 411.269 336.373 411.269 336.961Z" fill="#455A64"/>
<path d="M411.269 352.335C411.269 352.923 384.23 353.402 350.886 353.402C317.529 353.402 290.49 352.923 290.49 352.335C290.49 351.747 317.529 351.268 350.886 351.268C384.23 351.268 411.269 351.747 411.269 352.335Z" fill="#455A64"/>
<path d="M411.269 367.709C411.269 368.297 384.23 368.776 350.886 368.776C317.529 368.776 290.49 368.297 290.49 367.709C290.49 367.121 317.529 366.642 350.886 366.642C384.23 366.642 411.269 367.121 411.269 367.709Z" fill="#455A64"/>
<path d="M360.022 383.083C360.022 383.384 356.124 383.644 349.833 383.836C343.542 384.027 334.857 384.15 325.256 384.15C315.655 384.15 306.957 384.027 300.666 383.836C294.374 383.644 290.49 383.37 290.49 383.083C290.49 382.782 294.374 382.522 300.666 382.331C306.957 382.139 315.655 382.016 325.256 382.016C334.857 382.016 343.542 382.139 349.833 382.331C356.124 382.522 360.022 382.796 360.022 383.083Z" fill="#455A64"/>
<path d="M389.388 292.479C389.388 293.067 366.096 293.546 337.376 293.546C308.641 293.546 285.363 293.067 285.363 292.479C285.363 291.891 308.655 291.412 337.376 291.412C366.096 291.412 389.388 291.891 389.388 292.479Z" fill="#455A64"/>
<path d="M268.649 323.323L275.064 441.995L159.045 456.521L158.949 322.325L268.649 323.323Z" fill="#E0E0E0"/>
<path d="M118.43 315.08L117.621 440.974L275.067 441.985L275.875 316.092L118.43 315.08Z" fill="#F5F5F5"/>
<path d="M123.803 323.055L123.096 433.095L269.477 434.036L270.184 323.995L123.803 323.055Z" fill="#FFC800"/>
<g opacity="0.2">
<path d="M123.09 433.09L174.664 365.028L206.066 408.018L227.689 385.285L269.485 434.034L123.09 433.09Z" fill="black"/>
</g>
<g opacity="0.2">
<path d="M219.838 356.931C219.797 363.291 214.6 368.42 208.241 368.379C201.881 368.338 196.752 363.14 196.793 356.78C196.834 350.42 202.031 345.291 208.391 345.332C214.751 345.373 219.879 350.57 219.838 356.931Z" fill="black"/>
</g>
<path d="M290.232 471.704C290.232 473.044 289.138 474.138 287.798 474.138C286.457 474.138 285.363 473.044 285.363 471.704C285.363 470.363 286.457 469.269 287.798 469.269C289.138 469.269 290.232 470.35 290.232 471.704Z" fill="#263238"/>
<path d="M304.676 471.704C304.676 473.044 303.581 474.138 302.241 474.138C300.901 474.138 299.807 473.044 299.807 471.704C299.807 470.363 300.901 469.269 302.241 469.269C303.581 469.269 304.676 470.35 304.676 471.704Z" fill="#263238"/>
<path d="M319.117 471.704C319.117 473.044 318.023 474.138 316.682 474.138C315.342 474.138 314.248 473.044 314.248 471.704C314.248 470.363 315.342 469.269 316.682 469.269C318.036 469.269 319.117 470.35 319.117 471.704Z" fill="#263238"/>
<path d="M372.345 415.117C372.345 415.706 352.391 416.184 327.801 416.184C303.196 416.184 283.242 415.706 283.242 415.117C283.242 414.529 303.183 414.051 327.801 414.051C352.391 414.051 372.345 414.529 372.345 415.117Z" fill="#FFC800"/>
<path d="M411.953 430.916C411.953 431.504 383.136 431.982 347.604 431.982C312.059 431.982 283.242 431.504 283.242 430.916C283.242 430.327 312.045 429.849 347.604 429.849C383.136 429.849 411.953 430.327 411.953 430.916Z" fill="#455A64"/>
<path d="M573.899 544.677L472.063 538.439C471.42 536.976 470.996 536.128 470.996 536.128L443.396 536.675L434.411 536.128C434.411 536.128 434.274 536.401 434.055 536.866L341.41 538.713C322.933 538.713 303.525 549.984 303.525 564.387C303.293 578.092 309.926 592.974 326.475 592.632L452.71 592.208L578.932 592.632C595.481 592.974 599.857 582.989 599.884 571.144C601.813 549.095 587.999 544.854 573.899 544.677Z" fill="#455A64"/>
<path d="M338.059 592.646C338.059 592.646 338.264 592.618 338.66 592.605C339.098 592.591 339.686 592.591 340.438 592.577C342.039 592.564 344.35 592.536 347.318 592.509C353.322 592.482 361.993 592.441 372.715 592.4C394.256 592.372 424.098 592.331 457.469 592.29L457.114 592.673C456.936 589.91 456.758 586.942 456.567 583.96C456.184 577.86 455.814 571.841 455.459 566.138L455.773 566.466C424.768 563.019 397.374 559.969 377.694 557.78C367.901 556.659 360.023 555.756 354.553 555.127C351.858 554.798 349.779 554.552 348.316 554.374C347.632 554.279 347.099 554.21 346.702 554.169C346.333 554.115 346.155 554.087 346.155 554.073C346.155 554.06 346.347 554.074 346.702 554.101C347.099 554.142 347.632 554.183 348.316 554.251C349.779 554.402 351.872 554.607 354.566 554.881C360.037 555.455 367.915 556.289 377.721 557.315C397.402 559.449 424.81 562.417 455.828 565.768L456.129 565.796L456.143 566.097C456.498 571.814 456.881 577.819 457.264 583.919C457.456 586.901 457.633 589.869 457.811 592.632L457.839 593.015H457.456C424.071 592.974 394.229 592.933 372.702 592.906C361.965 592.865 353.308 592.824 347.304 592.796C344.336 592.769 342.025 592.742 340.425 592.728C339.659 592.714 339.071 592.701 338.647 592.701C338.264 592.673 338.059 592.646 338.059 592.646Z" fill="#263238"/>
<path d="M364.086 556.426C364.004 556.522 362.745 555.496 360.516 554.142C358.3 552.788 355.059 551.174 351.243 550.066C347.427 548.971 343.831 548.616 341.218 548.588C338.62 548.561 336.992 548.753 336.979 548.63C336.979 548.575 337.375 548.493 338.1 548.37C338.825 548.233 339.892 548.137 341.218 548.082C343.858 547.973 347.551 548.26 351.435 549.382C355.319 550.503 358.601 552.227 360.776 553.718C361.87 554.456 362.718 555.113 363.265 555.605C363.826 556.098 364.113 556.385 364.086 556.426Z" fill="#263238"/>
<path d="M565.981 551.01C566.022 551.201 545.944 556.057 521.121 561.856C496.298 567.656 476.139 572.197 476.098 572.005C476.057 571.814 496.134 566.958 520.957 561.159C545.78 555.359 565.94 550.818 565.981 551.01Z" fill="#263238"/>
<path d="M549.008 549.054C549.076 549.272 545.124 550.066 541.144 552.829C537.123 555.537 534.935 558.915 534.743 558.765C534.675 558.724 535.113 557.821 536.111 556.535C537.096 555.25 538.682 553.636 540.734 552.241C542.785 550.845 544.878 549.97 546.437 549.519C547.982 549.054 548.994 548.958 549.008 549.054Z" fill="#263238"/>
<path d="M511.096 433.419L543.345 489.567C547.325 496.502 547.572 504.969 544.002 512.123C539.858 520.425 531.269 525.568 521.996 525.308L472.473 523.913L471.174 505.899L514.789 497.542L485.384 446.632L511.096 433.419Z" fill="#FFBE9D"/>
<path d="M390.879 529.521L436.422 541.585L437.407 527.921L395.433 503.546L426.083 446.645L400.357 433.432L368.107 489.581C360.298 504.08 367.588 522.121 383.288 527.114L390.879 529.521Z" fill="#FFBE9D"/>
<path d="M497.405 469.474L528.533 453.074C528.533 453.074 523.349 442.104 515.198 430.834C505.556 417.497 490.607 408.169 473.621 404.626L437.816 405.05C432.714 405.597 428.529 406.569 425.042 407.991L425.069 407.854C405.634 412.135 384.08 454.524 384.08 454.524L412.404 469.433L413.034 473.892C413.854 479.76 416.425 485.272 420.419 489.773L412.172 544.034L504.106 545.935L492.399 507.075L497.405 469.474Z" fill="#FFC800"/>
<path d="M421.254 490.073C421.227 490.101 420.72 489.759 419.886 489.034C419.052 488.309 417.917 487.16 416.754 485.532C414.443 482.318 412.378 476.874 412.925 470.733C413.362 467.71 414.224 464.96 415.031 462.485C415.852 460.009 416.686 457.82 417.424 455.988C418.149 454.155 418.778 452.691 419.243 451.693C419.695 450.694 419.982 450.147 420.023 450.174C420.064 450.188 419.873 450.776 419.49 451.802C419.066 452.965 418.532 454.428 417.889 456.165C417.219 458.012 416.44 460.214 415.66 462.69C414.894 465.152 414.06 467.901 413.636 470.828C413.362 473.728 413.745 476.614 414.416 479.063C415.072 481.538 416.139 483.617 417.192 485.259C419.339 488.5 421.363 489.95 421.254 490.073Z" fill="#263238"/>
<path d="M407.469 557.137L402.285 496.625H514.269L506.843 557.89L407.469 557.137Z" fill="#263238"/>
<path d="M465.403 528.892C465.403 532.831 462.217 536.018 458.278 536.018C454.339 536.018 451.152 532.831 451.152 528.892C451.152 524.953 454.339 521.766 458.278 521.766C462.217 521.766 465.403 524.953 465.403 528.892Z" fill="#FAFAFA"/>
<path d="M456.307 568.969L475.331 571.623V592.29L457.838 591.839L456.307 568.969Z" fill="#FFBE9D"/>
<path d="M475.33 571.623H483.878C485.547 571.623 487.174 572.06 488.61 572.895L493.123 575.493C494.6 576.341 499.374 578.735 501.001 579.255C506.198 580.924 514.938 583.167 516.784 584.589C522.049 588.652 520.449 593.439 517.55 593.945C515.006 594.383 475.316 592.29 475.316 592.29V571.623H475.33Z" fill="#FFC800"/>
<path d="M489.362 590.58C489.184 590.621 488.528 588.241 488.446 585.205C488.35 582.168 488.856 579.761 489.047 579.788C489.252 579.816 489.061 582.223 489.157 585.191C489.239 588.146 489.567 590.539 489.362 590.58Z" fill="#263238"/>
<path d="M493.425 590.471C493.234 590.471 493.083 588.255 493.111 585.533C493.138 582.811 493.316 580.596 493.507 580.609C493.699 580.609 493.849 582.825 493.822 585.547C493.795 588.255 493.617 590.471 493.425 590.471Z" fill="#263238"/>
<path d="M498.21 591.278C498.019 591.292 497.677 589.035 497.458 586.217C497.239 583.413 497.226 581.115 497.417 581.102C497.609 581.088 497.951 583.345 498.169 586.163C498.388 588.98 498.416 591.264 498.21 591.278Z" fill="#263238"/>
<path d="M485.67 585.082C485.656 585.123 485.013 584.986 483.919 584.535C482.825 584.07 481.28 583.276 479.652 581.895C479.242 581.553 478.831 581.17 478.435 580.746C478.038 580.322 477.6 579.843 477.341 579.2C477.081 578.557 477.081 577.723 477.573 577.08C477.819 576.752 478.23 576.547 478.64 576.492C479.05 576.437 479.433 576.506 479.789 576.629C482.565 577.573 484.945 580.295 485.383 583.646C485.806 587.038 483.987 590.184 481.58 591.77C480.979 592.167 480.35 592.523 479.625 592.646C479.269 592.714 478.886 592.714 478.503 592.591C478.12 592.468 477.806 592.181 477.642 591.825C477.313 591.073 477.601 590.375 477.888 589.855C478.189 589.308 478.613 588.912 478.982 588.529C480.527 587.038 482.086 586.217 483.181 585.779C484.288 585.342 484.945 585.246 484.945 585.273C484.959 585.328 484.343 585.52 483.29 586.026C482.251 586.532 480.774 587.393 479.337 588.884C478.982 589.267 478.613 589.65 478.366 590.115C478.12 590.567 477.956 591.141 478.161 591.552C478.366 591.989 478.913 592.14 479.502 592.003C480.076 591.894 480.65 591.565 481.211 591.196C483.399 589.719 485.054 586.778 484.671 583.7C484.288 580.636 482.073 578.092 479.597 577.217C478.996 577.012 478.38 577.039 478.065 577.436C477.737 577.832 477.696 578.462 477.888 578.954C478.312 579.98 479.255 580.773 479.98 581.471C483.112 584.275 485.752 584.931 485.67 585.082Z" fill="#263238"/>
<path d="M517.551 593.945C517.497 593.877 518.112 593.603 518.591 592.646C519.07 591.702 518.987 590.006 518.03 588.337C517.1 586.655 515.172 585.205 512.751 584.357C510.33 583.482 507.444 583.071 504.545 582.155C498.705 580.418 493.768 577.86 490.417 575.712C488.735 574.645 487.449 573.688 486.574 573.004C485.712 572.307 485.247 571.896 485.275 571.855C485.302 571.814 485.822 572.156 486.738 572.772C487.654 573.387 488.995 574.276 490.691 575.275C494.082 577.285 498.992 579.734 504.75 581.457C507.609 582.346 510.467 582.784 512.983 583.714C515.486 584.631 517.524 586.217 518.481 588.064C519.439 589.869 519.466 591.729 518.851 592.742C518.563 593.248 518.208 593.549 517.975 593.713C517.716 593.904 517.565 593.959 517.551 593.945Z" fill="#263238"/>
<path d="M504.613 419.494C504.627 419.494 504.627 419.59 504.613 419.781C504.6 420.014 504.572 420.288 504.545 420.63C504.477 421.423 504.367 422.531 504.244 423.94C503.943 426.88 503.533 431.08 503 436.359L502.972 436.674L502.685 436.524C498.103 434.116 492.51 431.162 486.177 427.838L486.574 427.728C483.852 432.324 480.83 437.426 477.602 442.856L477.411 443.185L477.11 442.952C472.391 439.328 467.29 435.429 462.011 431.367H462.448C460.356 433.008 458.127 434.759 455.87 436.524C452.82 438.904 449.825 441.256 446.898 443.54L446.57 443.8L446.365 443.431C443.383 437.919 440.525 432.625 437.817 427.633L438.241 427.783C431.662 430.71 425.576 433.432 420.119 435.853L419.791 436.004L419.736 435.648C418.683 429.438 417.767 424.035 417.001 419.535L417.274 419.686C412.857 421.368 409.356 422.709 406.908 423.639C405.731 424.076 404.815 424.418 404.145 424.665C403.858 424.76 403.625 424.842 403.434 424.911C403.27 424.965 403.188 424.993 403.188 424.979C403.188 424.966 403.256 424.924 403.42 424.856C403.611 424.774 403.83 424.678 404.118 424.555C404.774 424.282 405.677 423.912 406.839 423.434C409.274 422.462 412.761 421.054 417.138 419.303L417.37 419.207L417.411 419.453C418.218 423.953 419.189 429.343 420.297 435.539L419.9 435.334C425.33 432.871 431.402 430.136 437.981 427.168L438.254 427.045L438.405 427.318C441.113 432.311 443.999 437.604 446.98 443.103L446.447 442.993C449.374 440.695 452.369 438.356 455.405 435.963C457.662 434.198 459.891 432.447 461.983 430.806L462.202 430.642L462.421 430.806C467.7 434.868 472.788 438.794 477.493 442.419L477 442.515C480.242 437.098 483.292 432.01 486.041 427.428L486.191 427.181L486.437 427.318C492.742 430.697 498.309 433.692 502.877 436.141L502.562 436.305C503.177 431.039 503.67 426.839 504.012 423.912C504.189 422.517 504.326 421.409 504.422 420.616C504.477 420.274 504.518 420 504.545 419.768C504.572 419.59 504.6 419.494 504.613 419.494Z" fill="#F5F5F5"/>
<path d="M517.893 434.718C517.907 434.718 517.88 434.855 517.811 435.115C517.743 435.416 517.647 435.799 517.524 436.277C517.251 437.331 516.854 438.835 516.348 440.75C515.295 444.69 513.763 450.339 511.862 457.396L511.794 457.67L511.534 457.547C506.049 454.907 499.512 451.775 492.236 448.287L492.619 448.191C487.695 455.222 482.211 463.032 476.371 471.376L476.139 471.717L475.851 471.417C470.887 466.383 465.635 461.062 460.233 455.591C459.139 454.469 458.044 453.361 456.95 452.267L457.388 452.322C450.071 456.918 443 461.349 436.34 465.521L436.039 465.713L435.861 465.398C431.799 458.217 427.983 451.488 424.509 445.36L424.865 445.497C416.549 448.355 409.232 450.886 403.228 452.951L403.023 453.019L402.955 452.814C400.903 446.864 399.276 442.159 398.154 438.89C397.621 437.303 397.211 436.072 396.91 435.183C396.787 434.787 396.677 434.472 396.609 434.226C396.541 434.007 396.513 433.897 396.527 433.897C396.541 433.897 396.582 433.993 396.664 434.212C396.759 434.458 396.882 434.759 397.019 435.156C397.334 436.031 397.785 437.249 398.373 438.822C399.549 442.077 401.232 446.769 403.365 452.678L403.092 452.541C409.082 450.434 416.372 447.863 424.673 444.936L424.906 444.854L425.029 445.073C428.53 451.2 432.36 457.903 436.449 465.07L435.97 464.947C442.631 460.761 449.688 456.316 457.005 451.72L457.251 451.57L457.456 451.775C458.537 452.869 459.631 453.991 460.739 455.099C466.141 460.583 471.379 465.904 476.344 470.938L475.81 470.979C481.678 462.663 487.189 454.866 492.14 447.849L492.291 447.644L492.523 447.753C499.772 451.282 506.282 454.469 511.753 457.137L511.424 457.287C513.407 450.257 515.008 444.621 516.115 440.695C516.662 438.794 517.1 437.303 517.401 436.25C517.551 435.771 517.661 435.402 517.757 435.101C517.839 434.841 517.893 434.718 517.893 434.718Z" fill="#F5F5F5"/>
<path d="M504.106 339.299C498.636 339.915 492.946 338.109 488.816 334.471C493.794 336.988 500.441 333.541 502.191 328.234C503.942 322.94 502.506 313.079 498.157 309.577C494.013 306.253 488.282 304.981 483.154 306.349C478.025 307.717 472.595 315.527 470.913 320.56L471.009 320.711C470.215 320.396 469.422 320.109 468.629 319.836C462.953 317.934 456.881 317.004 450.931 317.688C444.982 318.372 439.156 320.738 434.752 324.814L469.532 380.717C475.85 380.156 481.444 375.902 484.754 370.486C488.063 365.083 489.335 358.64 489.65 352.307C489.732 350.721 489.718 349.107 489.664 347.506C493.397 348.108 497.117 348.71 500.851 349.298C498.854 346.617 496.31 344.333 493.411 342.651C497.158 344.114 501.836 342.637 504.106 339.299Z" fill="#263238"/>
<path d="M460.136 426.06C469.573 425.855 477.137 418.209 477.246 408.771L478.053 339.217C478.108 336.345 475.96 333.91 473.102 333.609L443.724 326.182C434.315 325.184 428.065 336.769 427.463 346.207C426.806 356.698 426.41 369.528 427.654 377.352C430.157 393.096 442.22 395.093 442.22 395.093C442.22 395.052 442.234 401.179 442.261 408.648C442.329 418.427 450.371 426.265 460.136 426.06Z" fill="#FFBE9D"/>
<path d="M433.591 356.397C433.55 357.464 434.426 358.381 435.533 358.435C436.641 358.49 437.571 357.683 437.612 356.616C437.653 355.549 436.778 354.633 435.67 354.578C434.562 354.523 433.619 355.33 433.591 356.397Z" fill="#263238"/>
<path d="M430.267 352.896C430.513 353.155 432.045 352.034 434.22 352.034C436.394 352.006 437.981 353.128 438.213 352.854C438.323 352.731 438.076 352.266 437.379 351.76C436.695 351.254 435.532 350.762 434.178 350.775C432.825 350.789 431.689 351.282 431.033 351.788C430.363 352.294 430.144 352.772 430.267 352.896Z" fill="#263238"/>
<path d="M454.242 356.397C454.201 357.464 455.076 358.381 456.184 358.435C457.291 358.49 458.222 357.683 458.263 356.616C458.304 355.549 457.428 354.633 456.32 354.578C455.213 354.523 454.283 355.33 454.242 356.397Z" fill="#263238"/>
<path d="M451.617 353.292C451.863 353.552 453.395 352.431 455.569 352.431C457.744 352.403 459.33 353.525 459.563 353.251C459.672 353.128 459.426 352.663 458.728 352.157C458.045 351.651 456.882 351.158 455.528 351.172C454.174 351.186 453.039 351.678 452.382 352.184C451.712 352.704 451.494 353.183 451.617 353.292Z" fill="#263238"/>
<path d="M443.724 369.405C443.738 369.282 442.384 369.049 440.196 368.762C439.635 368.707 439.115 368.598 439.02 368.215C438.883 367.818 439.115 367.216 439.389 366.574C439.909 365.233 440.456 363.824 441.03 362.347C443.314 356.329 444.955 351.391 444.709 351.295C444.463 351.199 442.425 356 440.141 362.019C439.594 363.496 439.074 364.919 438.568 366.273C438.363 366.902 437.994 367.613 438.281 368.447C438.432 368.858 438.842 369.159 439.197 369.254C439.553 369.364 439.868 369.364 440.141 369.391C442.357 369.514 443.724 369.528 443.724 369.405Z" fill="#263238"/>
<path d="M442.234 395.106C442.234 395.106 452.82 395.79 463.31 389.485C463.31 389.485 458.195 400.29 442.453 398.827L442.234 395.106Z" fill="#EB996E"/>
<path d="M444.655 374.644C445.434 373.604 446.802 373.043 448.169 373.194C449.113 373.29 450.071 373.755 450.631 374.521C451.206 375.287 451.329 376.381 450.809 377.106C450.221 377.926 449.004 378.118 447.964 377.831C446.925 377.53 446.036 376.86 445.188 376.176C444.955 375.984 444.709 375.793 444.573 375.533C444.422 375.273 444.395 374.945 444.573 374.726" fill="#EB996E"/>
<path d="M450.124 370.91C449.769 370.896 449.769 373.249 447.745 374.917C445.734 376.6 443.218 376.326 443.204 376.654C443.177 376.805 443.765 377.106 444.818 377.147C445.857 377.188 447.375 376.846 448.606 375.82C449.837 374.794 450.371 373.426 450.453 372.455C450.548 371.47 450.289 370.896 450.124 370.91Z" fill="#263238"/>
<path d="M450.63 349.49C450.849 350.078 453.01 349.804 455.554 350.105C458.111 350.365 460.163 351.104 460.505 350.584C460.655 350.324 460.3 349.777 459.465 349.203C458.645 348.628 457.332 348.095 455.8 347.917C454.268 347.753 452.873 347.999 451.943 348.368C451.013 348.751 450.548 349.216 450.63 349.49Z" fill="#263238"/>
<path d="M430.568 348.888C430.951 349.38 432.441 348.874 434.247 348.847C436.038 348.765 437.57 349.175 437.926 348.669C438.076 348.423 437.844 347.93 437.173 347.452C436.517 346.987 435.423 346.604 434.178 346.645C432.947 346.686 431.867 347.137 431.251 347.629C430.609 348.136 430.404 348.642 430.568 348.888Z" fill="#263238"/>
<path d="M476.317 358.777C477.506 357.956 479.175 358.257 480.433 358.982C483.319 360.651 484.769 364.481 483.688 367.641C482.621 370.8 479.148 372.961 475.838 372.524" fill="#FFBE9D"/>
<path d="M477.424 367.846C477.465 367.736 478.039 367.982 478.791 367.627C479.543 367.326 480.214 366.218 480.145 364.932C480.104 363.633 479.256 362.689 478.463 362.402C477.67 362.074 477.095 362.238 477.068 362.115C477.013 362.032 477.601 361.622 478.641 361.855C479.147 361.978 479.721 362.265 480.173 362.812C480.624 363.346 480.911 364.098 480.952 364.878C481.062 366.464 480.063 367.9 478.983 368.147C477.916 368.448 477.341 367.914 477.424 367.846Z" fill="#EB996E"/>
<path d="M481.719 371.033C481.733 371.005 481.992 371.183 482.444 371.539C482.963 371.963 483.606 372.496 484.372 373.112C486.109 374.589 488.42 376.559 491.169 378.884L491.402 379.076L491.21 379.308C488.68 382.345 485.863 386.147 482.704 390.114C481.992 391.017 481.268 391.892 480.57 392.713L479.982 393.397L479.941 392.494C479.654 386.092 479.435 380.416 479.312 376.34C479.271 374.398 479.23 372.797 479.202 371.539C479.189 370.417 479.202 369.788 479.243 369.788C479.284 369.788 479.367 370.404 479.449 371.525C479.531 372.77 479.64 374.384 479.777 376.313C480.023 380.375 480.338 386.051 480.638 392.453L480.023 392.234C480.693 391.413 481.418 390.538 482.129 389.649C485.288 385.696 488.133 381.907 490.732 378.898L490.773 379.322C488.106 376.914 485.849 374.89 484.14 373.358C483.415 372.688 482.813 372.127 482.321 371.662C481.91 371.279 481.705 371.06 481.719 371.033Z" fill="#455A64"/>
<path d="M449.893 319.302C446.036 319.466 442.165 319.63 438.418 320.56C434.671 321.49 431.046 323.255 428.502 326.141C425.958 329.041 424.659 333.185 425.767 336.878C426.861 340.571 430.663 343.471 434.479 342.951C437.378 342.568 440.155 340.421 442.959 341.269C445.598 342.076 447.062 345.304 449.783 345.81C452.464 346.303 454.857 343.895 457.579 343.663C460.574 343.403 463.186 345.865 464.513 348.56C465.853 351.254 466.359 354.304 467.7 357.013C468.561 358.736 469.888 360.391 471.748 360.87C473.457 361.308 475.317 360.651 476.658 359.488C477.984 358.326 478.86 356.725 479.53 355.084C482.361 348.122 481.745 339.86 477.916 333.404C474.087 326.948 467.125 322.434 459.671 321.586" fill="#263238"/>
<path d="M488.243 336.017C488.12 336.058 487.75 334.745 486.793 332.816C485.836 330.887 484.167 328.384 481.733 326.182C479.284 323.98 476.631 322.571 474.621 321.819C472.61 321.053 471.27 320.82 471.297 320.697C471.311 320.642 471.639 320.67 472.255 320.752C472.87 320.82 473.745 321.012 474.799 321.354C476.905 322.01 479.695 323.392 482.225 325.662C484.741 327.947 486.41 330.586 487.272 332.611C487.709 333.623 487.996 334.471 488.12 335.073C488.243 335.675 488.297 336.003 488.243 336.017Z" fill="#FFC800"/>
<path d="M500.277 312.969C500.209 313.092 498.896 312.23 496.489 311.793C494.109 311.341 490.594 311.519 487.257 313.188C483.92 314.857 481.568 317.428 480.118 319.398C478.654 321.381 477.971 322.763 477.875 322.708C477.834 322.694 477.957 322.325 478.244 321.682C478.531 321.053 479.01 320.15 479.708 319.097C481.075 317.018 483.441 314.296 486.929 312.545C490.43 310.794 494.136 310.699 496.571 311.3C497.802 311.588 498.759 311.998 499.361 312.34C500.004 312.682 500.305 312.928 500.277 312.969Z" fill="#455A64"/>
<path d="M485.151 331.462C485.233 331.462 485.356 332.693 485.178 334.704C485 336.701 484.426 339.45 483.209 342.268C481.991 345.085 480.378 347.397 479.051 348.902C477.724 350.406 476.74 351.172 476.685 351.104C476.493 350.953 480.2 347.547 482.552 341.994C484.973 336.454 484.918 331.421 485.151 331.462Z" fill="#455A64"/>
<path d="M485.602 331.79C485.643 331.777 485.78 332.091 485.985 332.693C486.204 333.281 486.423 334.17 486.601 335.292C486.97 337.508 487.025 340.695 486.177 344.059C485.315 347.424 483.77 350.201 482.388 351.979C481.704 352.868 481.089 353.552 480.61 353.976C480.145 354.4 479.872 354.619 479.844 354.592C479.749 354.496 480.733 353.525 481.978 351.692C483.222 349.873 484.659 347.151 485.493 343.895C486.313 340.626 486.354 337.549 486.108 335.36C485.876 333.158 485.479 331.831 485.602 331.79Z" fill="#455A64"/>
<path d="M526.988 335.374C523.008 336.632 521.285 342.295 523.897 345.55C526.495 348.806 532.404 348.368 534.496 344.757C536.589 341.146 534.045 335.798 529.928 335.155" fill="#EBEBEB"/>
<path d="M545.479 308.51C540.925 309.946 538.942 316.443 541.937 320.178C544.919 323.912 551.702 323.406 554.096 319.275C556.503 315.144 553.576 309.003 548.858 308.25" fill="#EBEBEB"/>
<path d="M584.962 190.044C572.584 189.004 560.07 191.767 551.591 200.822C543.111 209.891 539.063 222.926 540.923 235.209C527.766 240.68 520.586 257.409 525.701 270.718C530.816 284.026 547.351 291.645 560.781 286.885C566.813 302.191 581.324 313.831 597.558 316.416C613.806 319.001 631.202 312.436 641.692 299.77C654.603 302.683 669.087 302.492 679.932 294.914C690.778 287.336 695.688 270.635 687.413 260.308C702.28 256.684 709.843 238.123 705.426 223.46C701.022 208.81 687.824 198.292 673.723 192.328C664.409 188.389 652.784 186.337 644.838 192.588C638.478 182.795 627.223 176.379 615.556 175.873C603.904 175.395 592.142 180.839 584.962 190.044Z" fill="#F5F5F5"/>
<path d="M584.962 190.044C584.962 190.044 585.209 189.716 585.715 189.086C586.207 188.444 587.014 187.554 588.122 186.433C590.351 184.244 593.989 181.167 599.555 178.759C602.318 177.569 605.559 176.544 609.211 176.024C612.863 175.531 616.938 175.504 621.178 176.393C625.418 177.228 629.808 178.937 633.979 181.577C638.123 184.244 642.049 187.855 645.071 192.465L644.716 192.41C647.916 189.921 652.087 188.498 656.423 188.389C660.758 188.225 665.23 189.045 669.607 190.495C673.984 191.959 678.305 193.956 682.518 196.418C686.73 198.88 690.833 201.834 694.498 205.459C698.191 209.029 701.405 213.324 703.744 218.18C704.865 220.628 705.795 223.213 706.383 225.908C706.876 228.616 707.163 231.42 706.931 234.224C706.575 239.819 704.852 245.495 701.583 250.351C699.928 252.744 698 255.029 695.579 256.766C693.186 258.53 690.45 259.857 687.51 260.623L687.701 260.076C689.479 262.346 690.737 265.027 691.38 267.886C692.023 270.745 692.05 273.74 691.599 276.667C690.669 282.535 687.742 288.13 683.42 292.438C679.044 296.747 673.204 299.414 667.145 300.755C661.045 302.095 654.672 302.109 648.408 301.302C646.124 301.028 643.868 300.577 641.652 300.098L642.008 299.975C630.656 313.598 612.069 319.713 595.794 316.402C587.643 314.761 580.175 310.917 574.103 305.761C568.031 300.591 563.326 294.08 560.508 286.994L560.919 287.186C553.137 289.867 544.63 288.499 537.956 284.779C531.213 281.099 526.166 274.78 524.525 267.749C522.857 260.719 524.211 253.497 527.302 247.684C530.406 241.843 535.302 237.302 540.855 234.963L540.705 235.223C539.87 229.533 540.322 223.979 541.553 218.973C542.852 213.981 544.917 209.508 547.447 205.746C548.692 203.845 550.114 202.176 551.537 200.617C553.014 199.112 554.518 197.745 556.118 196.637C559.264 194.339 562.546 192.903 565.555 191.89C571.628 189.934 576.62 189.757 579.929 189.743C583.239 189.811 584.962 190.044 584.962 190.044C584.962 190.044 584.525 190.044 583.677 189.989C582.829 189.934 581.557 189.907 579.902 189.907C576.606 189.976 571.628 190.181 565.61 192.178C562.628 193.19 559.387 194.64 556.282 196.924C554.71 198.018 553.233 199.4 551.769 200.891C550.374 202.436 548.965 204.105 547.748 205.993C545.245 209.727 543.221 214.158 541.949 219.11C540.746 224.061 540.308 229.546 541.156 235.168L541.183 235.36L541.006 235.442C535.576 237.753 530.775 242.212 527.739 247.957C524.717 253.675 523.404 260.773 525.045 267.64C526.659 274.493 531.596 280.661 538.216 284.259C544.767 287.884 553.082 289.21 560.659 286.584L560.96 286.475L561.069 286.762C563.846 293.738 568.496 300.166 574.486 305.255C580.476 310.343 587.848 314.132 595.863 315.732C611.878 318.988 630.218 312.942 641.392 299.537L641.529 299.373L641.748 299.414C643.95 299.879 646.179 300.331 648.449 300.604C654.658 301.398 660.95 301.37 666.954 300.057C672.903 298.744 678.647 296.118 682.887 291.932C687.099 287.747 689.958 282.262 690.861 276.558C691.804 270.882 690.614 264.877 687.127 260.514L686.799 260.103L687.318 259.966C690.163 259.228 692.816 257.942 695.141 256.232C697.494 254.536 699.381 252.32 701.009 249.981C704.195 245.249 705.905 239.682 706.26 234.183C706.479 231.434 706.206 228.685 705.727 226.031C705.166 223.391 704.25 220.847 703.156 218.44C700.858 213.652 697.699 209.412 694.047 205.883C690.437 202.3 686.375 199.372 682.203 196.91C678.032 194.462 673.737 192.465 669.402 191.001C665.08 189.565 660.663 188.744 656.409 188.895C652.156 188.991 648.094 190.372 644.975 192.78L644.77 192.944L644.633 192.725C641.666 188.17 637.795 184.586 633.72 181.946C629.603 179.334 625.267 177.61 621.069 176.776C616.87 175.873 612.835 175.901 609.225 176.352C605.6 176.844 602.386 177.843 599.624 179.006C594.085 181.358 590.447 184.381 588.19 186.529C587.069 187.623 586.248 188.498 585.742 189.127C585.25 189.743 584.962 190.044 584.962 190.044Z" fill="#263238"/>
<path d="M669.54 232.679C669.54 233.267 645.291 233.746 615.38 233.746C585.456 233.746 561.207 233.267 561.207 232.679C561.207 232.091 585.456 231.612 615.38 231.612C645.291 231.612 669.54 232.091 669.54 232.679Z" fill="#455A64"/>
<path d="M669.54 244.442C669.54 245.03 645.291 245.509 615.38 245.509C585.456 245.509 561.207 245.03 561.207 244.442C561.207 243.854 585.456 243.375 615.38 243.375C645.291 243.375 669.54 243.854 669.54 244.442Z" fill="#455A64"/>
<path d="M669.54 256.191C669.54 256.78 645.291 257.258 615.38 257.258C585.456 257.258 561.207 256.78 561.207 256.191C561.207 255.603 585.456 255.125 615.38 255.125C645.291 255.125 669.54 255.603 669.54 256.191Z" fill="#455A64"/>
<path d="M669.54 267.941C669.54 268.529 645.291 269.008 615.38 269.008C585.456 269.008 561.207 268.529 561.207 267.941C561.207 267.353 585.456 266.874 615.38 266.874C645.291 266.874 669.54 267.353 669.54 267.941Z" fill="#455A64"/>
</g>
<defs>
<clipPath id="clip0_348_10918">
<rect width="707" height="594" fill="white"/>
</clipPath>
</defs>
</svg>
