<svg width="448" height="364" viewBox="0 0 448 364" fill="none" xmlns="http://www.w3.org/2000/svg">
<g clip-path="url(#clip0_307_168)">
<path d="M442.501 350.065H276.374L309.502 157.401H433.725L442.501 350.065Z" fill="#DBDBDB"/>
<path d="M442.501 350.065H427.942L419.762 157.401H433.725L442.501 350.065Z" fill="#A6A6A6"/>
<path d="M343.984 73.3715C359.41 88.7148 363.825 113.957 363.825 113.957C363.825 113.957 378.615 139.403 374.484 153.175C370.353 166.948 358.475 170.198 358.475 170.198L359.938 162.56C359.938 162.56 354.981 172.378 338.417 176.333C321.853 180.3 299.939 175.182 288.549 169.413C277.159 163.644 271.795 154.679 271.795 154.679L276.075 165.783C276.075 165.783 259.999 165.214 250.451 148.124C240.902 131.02 268.328 106.441 270.658 101.146C272.987 95.8515 275.94 57.2698 316.53 63.919C316.53 63.919 333.365 62.8086 343.984 73.3715Z" fill="#263238"/>
<path d="M364.354 169.196C368.566 166.027 372.751 162.371 375.08 157.956C377.545 153.284 378.588 147.989 377.64 142.748C376.516 136.505 373.225 130.993 370.015 125.617C366.71 120.065 362.986 114.743 359.776 109.136C359.6 108.825 360.06 108.568 360.29 108.811C363.974 112.915 367.184 117.587 370.367 122.096C373.401 126.389 376.38 130.831 378.344 135.72C380.132 140.161 381.148 145.159 380.213 149.925C379.441 153.853 377.64 157.482 375.134 160.597C372.141 164.321 368.335 166.704 364.57 169.507C364.326 169.71 364.123 169.372 364.354 169.196Z" fill="#263238"/>
<path d="M247.024 130.519C251.886 116.314 264.672 107.308 272.432 94.9171C276.644 88.2137 279.895 80.779 285.38 74.9559C285.529 74.7934 285.8 75.0507 285.664 75.2132C281.168 80.454 278.567 86.7647 275.317 92.7639C272.012 98.8714 267.665 104.193 263.249 109.502C255.204 119.158 245.575 130.56 247.417 144.062C248.27 150.291 251.954 157.198 258.347 159.148C258.59 159.229 258.441 159.622 258.198 159.527C253.037 157.374 249.15 153.555 247.051 148.327C244.722 142.599 245.033 136.329 247.024 130.519Z" fill="#263238"/>
<path d="M246.428 134.352C246.076 128.989 247.16 123.545 249.977 118.941C252.78 114.364 257.182 111.059 261.584 108.121C266.663 104.735 272.012 101.539 275.236 96.1765C275.371 95.9463 275.696 96.19 275.561 96.4067C270.441 105.236 260.717 109.353 254.135 116.774C246.604 125.265 246.604 137.643 251.778 147.352C254.961 153.324 259.823 158.254 265.335 162.1C265.43 162.167 265.322 162.316 265.227 162.249C255.652 155.965 247.2 146.296 246.428 134.352Z" fill="#263238"/>
<path d="M307.822 199.07C266.717 221.618 217.512 249.948 187.364 243.272C174.01 240.319 113.971 161.653 111.438 152.58C109.244 144.766 163.595 113.294 169.703 119.455C179.942 129.802 207.68 187.979 211.648 188.94C215.792 189.929 250.221 182.914 286.179 176.427C320.689 170.212 336.359 183.415 307.822 199.07Z" fill="#EB9481"/>
<path d="M117.261 162.303C112.575 156.399 93.4515 127.445 89.9301 118.196C86.4087 108.947 78.2148 81.6051 85.0273 78.1925C91.8398 74.7799 94.8736 82.5937 94.8736 82.5937C94.8736 82.5937 93.2483 70.5005 100.413 67.6838C107.578 64.867 111.912 77.1768 111.912 77.1768C111.912 77.1768 111.14 64.6368 118.494 62.3482C125.848 60.0595 128.124 73.1683 128.124 73.1683C128.124 73.1683 126.891 61.7388 133.731 62.3888C141.965 63.1742 141.87 84.5167 146.516 94.4431C147.572 96.6911 171.166 138.563 171.166 138.563L117.261 162.303Z" fill="#EB9481"/>
<path d="M127.893 72.0443C127.853 87.7397 130.561 94.6056 138.783 107.687C138.945 107.945 138.593 108.243 138.403 107.985C129.194 95.9056 124.562 87.7803 127.135 72.0037C127.257 71.2318 127.893 71.2995 127.893 72.0443Z" fill="#263238"/>
<path d="M111.926 75.9445C113.307 92.2493 116.178 99.7245 123.776 114.066C123.885 114.269 123.546 114.472 123.424 114.282C114.797 100.849 110.354 92.6284 111.113 76.1612C111.154 75.4028 111.871 75.1997 111.926 75.9445Z" fill="#263238"/>
<path d="M95.2801 83.3114C97.7586 98.9933 100.549 107.335 109.718 120.309C109.934 120.62 109.515 120.959 109.257 120.674C98.6254 108.364 95.077 97.9776 94.8061 83.4469C94.7926 82.4447 95.1312 82.3229 95.2801 83.3114Z" fill="#263238"/>
<path d="M182.759 143.195C182.759 143.195 183.91 123.559 182.502 114.824C181.107 106.089 163.906 75.457 157.08 78.7883C148.263 83.0948 154.71 102.731 159.125 111.94C159.125 111.94 138.728 121.893 140.299 136.979C141.857 152.106 182.759 143.195 182.759 143.195Z" fill="#EB9481"/>
<path d="M155.049 80.779C149.848 90.5023 156.416 102.216 160.033 111.466C160.304 112.17 159.843 112.644 159.261 112.739C150.985 117.478 140.706 126.579 139.812 136.6C139.785 136.898 139.365 136.898 139.351 136.6C138.837 125.726 148.223 115.962 157.608 111.344C153.748 101.918 147.681 89.8794 154.954 80.7113C154.994 80.6707 155.076 80.7249 155.049 80.779Z" fill="#263238"/>
<path d="M221.427 185.717L270.915 227.183C270.915 227.183 301.118 211.475 323.425 193.423C345.731 175.371 321.014 166.596 282.726 173.028C244.437 179.461 221.427 185.717 221.427 185.717Z" fill="#FFC727"/>
<path d="M280.03 194.046C281.466 192.19 282.969 190.389 284.866 188.859C283.904 191.094 282.617 193.044 281.209 194.94C279.773 196.795 278.256 198.582 276.374 200.099C277.335 197.878 278.608 195.928 280.03 194.046ZM323.397 193.45C323.194 193.599 323.005 193.761 322.802 193.91C322.409 193.491 322.016 193.044 321.65 192.583C322.246 192.841 322.829 193.138 323.397 193.45ZM240.577 193.721C242.907 193.436 245.25 193.247 247.647 193.504C245.413 194.398 243.097 194.872 240.794 195.224C238.465 195.522 236.122 195.711 233.724 195.454C235.959 194.56 238.261 194.073 240.577 193.721ZM257.141 177.687C257.169 178.581 257.141 179.474 257.047 180.368C256.708 179.542 256.437 178.716 256.207 177.876C256.518 177.809 256.83 177.755 257.141 177.687Z" fill="white"/>
<path d="M281.981 218.327C271.918 208.658 261.164 199.679 250.262 190.945C247.174 188.466 244.031 186.069 240.835 183.74C240.74 183.672 240.618 183.781 240.713 183.862C245.846 188.588 251.155 193.098 256.451 197.634C261.76 202.185 267.11 206.708 272.541 211.109C275.615 213.601 278.676 216.079 281.791 218.503C281.927 218.611 282.103 218.449 281.981 218.327Z" fill="#263238"/>
<path d="M249.882 209.565L270.916 227.183C270.916 227.183 301.118 211.488 323.438 193.436C331.348 187.031 333.339 181.804 330.928 177.998L249.882 209.565Z" fill="#263238"/>
<path d="M260.026 349.889H417.729C417.729 349.889 383.477 217.623 351.771 180.395C351.067 179.542 350.336 178.73 349.591 177.971C349.442 177.795 349.306 177.673 349.158 177.511C346.422 174.653 343.564 172.5 340.693 170.97C340.137 170.672 339.582 170.388 339 170.13C326.783 164.524 313.89 169.169 304.585 177.132C301.633 179.664 268.207 223.134 265.254 239.724C262.694 254.363 272.581 270.085 272.581 270.085L260.026 349.889Z" fill="#FFC727"/>
<path d="M296.256 264.424C302.946 265.169 309.664 266.144 316.178 267.878C319.415 268.744 322.598 269.746 325.781 270.816C327.366 271.358 328.95 271.832 330.562 272.306C332.201 272.793 333.975 273.254 335.695 273.322C335.844 273.322 335.844 273.565 335.695 273.565C334.015 273.592 332.417 273.62 330.751 273.43C329.167 273.254 327.582 272.888 326.038 272.496C322.747 271.656 319.483 270.654 316.205 269.787C309.569 268.027 302.946 266.253 296.201 264.966C295.863 264.912 295.944 264.384 296.256 264.424Z" fill="#263238"/>
<path d="M279.597 270.234C285.109 269.719 290.729 269.462 296.269 269.584C299.059 269.638 301.808 269.855 304.585 270.153C305.912 270.288 307.226 270.451 308.539 270.64C309.989 270.843 311.411 271.236 312.86 271.412C313.009 271.426 313.009 271.669 312.86 271.656C311.492 271.534 310.083 271.629 308.702 271.588C307.321 271.548 305.926 271.493 304.544 271.439C301.768 271.344 298.991 271.29 296.215 271.168C290.662 270.938 285.136 270.749 279.569 270.708C279.285 270.681 279.312 270.248 279.597 270.234Z" fill="#263238"/>
<path d="M366.751 211.488C367.496 210.54 368.254 209.606 369.08 208.712C369.27 209.118 369.473 209.524 369.663 209.931C369.121 210.77 368.538 211.596 367.942 212.395C366.493 214.251 364.99 216.038 363.107 217.541C364.069 215.334 365.383 213.384 366.751 211.488ZM348.453 176.793C348.683 178.892 348.819 181.005 348.588 183.171C347.695 180.923 347.221 178.621 346.896 176.278C346.841 175.926 346.801 175.561 346.76 175.209C347.329 175.71 347.898 176.238 348.453 176.793ZM300.603 220.859C301.51 223.107 301.984 225.437 302.337 227.739C302.621 230.081 302.811 232.424 302.567 234.821C301.659 232.573 301.185 230.271 300.86 227.942C300.549 225.626 300.346 223.297 300.603 220.859ZM330.738 297.129C331.645 299.377 332.092 301.679 332.444 303.981C332.729 306.324 332.918 308.667 332.661 311.064C331.767 308.816 331.32 306.513 330.968 304.211C330.684 301.869 330.48 299.539 330.738 297.129ZM381.947 239.493C382.841 241.741 383.288 244.043 383.653 246.386C383.938 248.688 384.127 251.018 383.87 253.455C382.976 251.221 382.529 248.905 382.177 246.576C381.879 244.233 381.689 241.904 381.947 239.493ZM339.555 229.824C341.884 229.54 344.227 229.35 346.625 229.607C344.39 230.501 342.074 230.975 339.771 231.327C337.442 231.625 335.099 231.815 332.702 231.558C334.936 230.664 337.239 230.176 339.555 229.824ZM282.834 294.854C285.177 294.569 287.506 294.38 289.917 294.637C287.669 295.531 285.366 295.978 283.064 296.33C280.721 296.614 278.378 296.817 275.98 296.56C278.229 295.666 280.531 295.206 282.834 294.854ZM388.786 288.638C391.048 288.353 393.351 288.177 395.734 288.394C395.775 288.394 395.829 288.408 395.87 288.408C395.829 288.421 395.788 288.435 395.748 288.448C393.513 289.328 391.251 289.762 388.976 290.114C386.646 290.398 384.303 290.588 381.906 290.331C384.141 289.437 386.457 288.99 388.786 288.638ZM329.302 344.553C331.645 344.269 333.975 344.079 336.372 344.337C334.137 345.231 331.835 345.677 329.492 346.03C327.189 346.314 324.846 346.503 322.422 346.246C324.684 345.352 327 344.906 329.302 344.553ZM393.283 337.701C395.626 337.417 397.955 337.227 400.366 337.484C398.118 338.378 395.816 338.825 393.513 339.177C391.17 339.502 388.84 339.651 386.43 339.394C388.678 338.5 390.98 338.053 393.283 337.701ZM327.704 196.24C329.56 197.675 331.347 199.219 332.891 201.101C330.643 200.14 328.693 198.826 326.797 197.458C324.941 196.009 323.153 194.479 321.65 192.583C323.858 193.545 325.808 194.858 327.704 196.24ZM310.829 268.731C312.684 270.166 314.472 271.683 315.975 273.565C313.767 272.604 311.817 271.331 309.921 269.909C308.066 268.474 306.278 266.97 304.774 265.074C306.982 266.036 308.932 267.322 310.829 268.731ZM370.001 313.041C371.857 314.463 373.658 315.993 375.161 317.889C372.954 316.927 371.003 315.614 369.107 314.233C367.252 312.797 365.45 311.253 363.92 309.398C366.155 310.319 368.119 311.632 370.001 313.041ZM271.728 249.298C273.163 247.443 274.667 245.641 276.563 244.111C275.601 246.346 274.315 248.296 272.906 250.192C271.47 252.047 269.953 253.834 268.071 255.351C269.033 253.13 270.306 251.18 271.728 249.298ZM291.894 331.296C293.344 329.44 294.847 327.653 296.729 326.109C295.808 328.357 294.495 330.307 293.086 332.189C291.637 334.058 290.134 335.846 288.251 337.349C289.213 335.142 290.513 333.192 291.894 331.296ZM351.27 266.781C352.706 264.925 354.223 263.124 356.105 261.594C355.171 263.829 353.871 265.779 352.448 267.675C351.013 269.53 349.509 271.331 347.613 272.834C348.575 270.613 349.889 268.663 351.27 266.781Z" fill="white"/>
<path d="M354.981 181.424C385.306 205.868 462.979 302.722 445.454 325.12C427.806 347.668 311.547 337.295 277.755 326.718C267.706 323.577 295.118 259.807 305.994 256.868C315.041 254.417 365.193 269.259 366.169 266.347C367.266 263.07 353.776 244.937 336.63 205.651C316.856 160.339 341.587 170.631 354.981 181.424Z" fill="#EB9481"/>
<path d="M251.196 251.546C228.022 254.227 222.483 258.466 201.72 250.341C188.095 245.005 178.845 251.424 188.813 262.921C205.106 281.731 235.742 284.548 246.632 282.476L251.196 251.546Z" fill="#EB9481"/>
<path d="M316.192 257.68C316.192 257.68 287.439 250.232 262.464 250.652C245.196 250.936 207.68 255.744 182.204 300.582C176.164 311.213 175.094 330.659 191.278 316.873C202.764 307.082 207.098 297.4 214.817 292.917C214.817 292.917 216.402 317.808 227.291 323.441C232.153 325.96 245.602 332.528 256.803 336.144C256.803 336.144 258.252 333.923 259.674 330.835C259.674 330.835 270.347 335.142 286.789 329.17L316.192 257.68Z" fill="#EB9481"/>
<path d="M246.022 253.55C239.305 259.617 225.273 272.712 217.513 287.419C208.899 303.751 196.71 337.539 208.845 343.768C217.73 348.332 223.526 335.846 223.526 335.846C223.526 335.846 221.427 350.878 230.366 353.248C238.506 355.414 242.406 345.474 242.406 345.474C242.406 345.474 242.704 354.805 250.952 355.374C260.866 356.064 258.618 336.388 269.264 328.411C271.634 326.624 246.022 253.55 246.022 253.55Z" fill="#EB9481"/>
<path d="M236.298 293.635C230.908 300.379 222.605 318.823 223.31 335.521C223.323 335.9 223.621 336.09 223.675 335.737C226.804 317.185 233.278 300.596 236.447 293.716C236.488 293.635 236.352 293.567 236.298 293.635Z" fill="#263238"/>
<path d="M252.523 302.816C248.474 309.114 240.767 328.506 242.054 345.407C242.081 345.786 242.393 345.962 242.433 345.61C244.898 326.095 249.923 309.953 252.672 302.898C252.727 302.789 252.578 302.735 252.523 302.816Z" fill="#263238"/>
<path d="M214.777 292.768C208.045 296.804 204.226 301.611 199.188 307.475C196.696 310.373 194.15 313.244 191.332 315.858C188.773 318.227 185.035 321.789 181.215 320.096C179.089 319.148 178.452 316.602 178.33 314.49C178.182 312.12 178.493 309.723 179.346 307.516C179.387 307.407 179.197 307.326 179.143 307.434C178.344 309.425 177.735 311.47 177.518 313.61C177.328 315.546 177.355 317.726 178.33 319.473C180.443 323.211 185.319 322.52 188.394 320.543C190.235 319.365 191.861 317.808 193.405 316.277C194.908 314.801 196.344 313.257 197.739 311.687C200.596 308.45 203.265 305.051 206.082 301.774C209.183 298.185 211.458 296.221 214.939 292.998C215.061 292.876 214.912 292.687 214.777 292.768Z" fill="#263238"/>
<path d="M206.149 322.371C206.962 317.726 212.691 297.765 214.966 292.904C215.02 292.782 214.858 292.687 214.777 292.795C210.497 299.648 205.066 316.318 204.118 321.45C203.183 326.529 202.262 332.934 203.576 337.985C205.553 345.596 210.971 345.732 212.935 345.623C215.278 345.488 217.404 344.445 219.138 342.888C221.061 341.154 222.605 338.202 223.58 335.846C223.634 335.724 223.458 335.616 223.391 335.737C221.535 339.421 217.905 343.524 213.625 344.052C211.77 344.283 209.738 343.93 208.262 342.725C206.515 341.317 205.824 339.042 205.459 336.902C204.646 332.095 205.323 327.138 206.149 322.371Z" fill="#263238"/>
<path d="M242.068 345.407C241.242 346.585 239.874 350.309 236.582 351.88C234.172 353.031 231.449 353.478 229.025 352.137C226.641 350.823 225.273 348.454 224.488 345.921C224.041 344.486 223.58 337.945 223.594 335.927C223.594 335.765 223.391 335.751 223.377 335.9C223.147 339.543 222.903 343.511 223.757 346.801C224.461 349.537 226.1 352.259 228.646 353.64C231.287 355.076 234.578 354.967 237.043 353.234C238.262 352.381 241.837 348.521 242.379 345.488C242.406 345.407 242.095 345.352 242.068 345.407Z" fill="#263238"/>
<path d="M268.166 327.233C267.151 328.249 266.392 329.576 265.647 330.795C264.848 332.095 264.09 333.435 263.372 334.79C261.923 337.484 260.826 340.437 259.972 343.375C259.106 346.355 258.428 349.605 256.383 352.056C254.379 354.453 251.074 355.604 248.095 354.426C246.537 353.803 245.318 352.679 244.492 351.243C243.639 349.754 242.853 347.885 242.664 346.178C242.65 346.03 242.42 346.057 242.447 346.206C242.731 347.844 242.691 349.442 243.3 351.027C243.842 352.421 244.668 353.708 245.833 354.656C248.216 356.579 251.616 356.823 254.365 355.55C257.399 354.141 259.106 351.148 260.162 348.115C261.34 344.743 262.126 341.249 263.453 337.918C264.157 336.171 264.835 334.397 265.647 332.704C266.501 330.93 267.652 329.251 268.383 327.436C268.464 327.26 268.288 327.111 268.166 327.233Z" fill="#263238"/>
<path d="M278.758 331.431C276.306 331.851 270.55 332.352 265.837 332.068C265.702 332.054 265.607 332.46 265.742 332.501C267.598 332.975 271.227 332.988 272.311 332.934C274.464 332.826 276.753 332.42 278.785 331.675C278.907 331.621 278.907 331.404 278.758 331.431Z" fill="#263238"/>
<path d="M411.703 280.851C404.498 277.303 396.94 274.432 389.315 271.967C381.744 269.516 373.956 267.891 366.128 266.578C361.659 265.833 357.162 265.305 352.652 264.736C352.517 264.722 352.49 264.925 352.625 264.953C360.507 266.144 368.322 268.04 376.015 270.126C383.667 272.211 391.279 274.432 398.85 276.788C403.13 278.129 407.355 279.659 411.594 281.149C411.784 281.217 411.879 280.946 411.703 280.851Z" fill="#263238"/>
<path d="M418.353 240.238L354.169 247.212C354.169 247.212 337.794 217.379 329.275 189.97C320.756 162.56 344.959 167.855 373.211 194.479C401.463 221.089 418.353 240.238 418.353 240.238Z" fill="#FFC727"/>
<path d="M418.353 240.238L354.169 247.212C354.169 247.212 337.794 217.379 329.275 189.97C320.756 162.56 344.959 167.855 373.211 194.479C401.463 221.089 418.353 240.238 418.353 240.238Z" fill="#FFC727"/>
<path d="M348.345 175.886C348.345 175.953 348.358 176.021 348.372 176.089C348.656 178.432 348.846 180.761 348.589 183.171C347.695 180.923 347.221 178.621 346.896 176.278C346.841 175.872 346.787 175.479 346.747 175.073C347.275 175.33 347.803 175.601 348.345 175.886ZM381.947 239.493C382.543 240.996 382.935 242.513 383.247 244.057L381.92 244.192C381.798 242.649 381.771 241.091 381.947 239.493ZM404.226 225.098H404.24C404.443 225.315 404.66 225.531 404.863 225.748C404.159 225.734 403.454 225.694 402.736 225.626C403.238 225.423 403.725 225.247 404.226 225.098ZM346.625 229.607C346.245 229.756 345.853 229.905 345.46 230.027C345.392 229.851 345.311 229.689 345.216 229.513C345.677 229.526 346.151 229.553 346.625 229.607ZM366.751 211.488C368.2 209.633 369.703 207.845 371.586 206.301C370.665 208.549 369.351 210.499 367.943 212.395C366.493 214.251 364.99 216.038 363.107 217.541C364.069 215.334 365.383 213.384 366.751 211.488Z" fill="white"/>
<path d="M356.755 246.616C356.417 246.657 354.114 246.589 354.101 246.589C353.816 245.777 348.304 233.115 346.936 230.379C344.16 224.814 341.045 219.397 338.011 213.966C337.916 213.79 337.645 213.912 337.726 214.102C339.866 218.841 341.939 223.622 344.119 228.348C343.577 227.712 343.036 227.075 342.507 226.412C341.437 225.071 340.462 223.662 339.446 222.281C339.352 222.159 339.162 222.281 339.216 222.417C340.151 224.407 341.465 226.222 342.873 227.888C343.483 228.605 344.16 229.269 344.85 229.905C345.04 230.298 345.216 230.691 345.406 231.084C346.719 233.833 353.437 247.443 353.667 247.415C353.722 247.415 356.038 247.131 356.755 247.036C356.931 247.036 356.945 246.589 356.755 246.616Z" fill="#263238"/>
<path d="M406.258 229.337C392.335 230.271 378.453 232.181 364.651 234.347C360.751 234.957 356.85 235.674 352.977 236.473C352.868 236.5 352.868 236.663 352.99 236.649C359.938 236.04 366.846 235.146 373.766 234.293C380.701 233.44 387.649 232.519 394.57 231.463C398.47 230.867 402.384 230.285 406.271 229.607C406.434 229.567 406.42 229.323 406.258 229.337Z" fill="#263238"/>
<path d="M332.472 171.972C332.228 174.789 321.745 194.371 309.19 195.562C305.1 195.942 301.998 173.719 301.998 173.719L301.389 172.135L292.951 149.898L317.465 128.718L321.041 125.861C321.041 125.861 322.95 132.104 325.239 139.891C325.348 140.256 325.456 140.608 325.564 141.001C325.7 141.434 325.849 141.854 325.957 142.261C326.309 143.425 326.675 144.603 327.014 145.795C327.271 146.702 327.528 147.569 327.758 148.531C328.016 149.492 328.26 150.413 328.517 151.374C330.914 160.854 332.567 170.78 332.472 171.972Z" fill="#EB9481"/>
<path d="M325.253 139.891C321.298 159.121 307.754 168.668 301.402 172.148L292.965 149.912L317.479 128.732L321.054 125.874C321.054 125.861 322.964 132.104 325.253 139.891Z" fill="#263238"/>
<path d="M285.556 115.745C283.403 125.279 274.87 131.481 266.5 129.585C258.13 127.689 253.092 118.426 255.259 108.893C257.412 99.3589 265.945 93.1566 274.315 95.0525C282.671 96.9484 287.71 106.211 285.556 115.745Z" fill="#455A64"/>
<path d="M290.324 117.465C287.926 128.068 278.432 134.961 269.128 132.862C259.823 130.763 254.216 120.458 256.613 109.841C259.011 99.237 268.505 92.3441 277.809 94.4431C287.127 96.5421 292.721 106.861 290.324 117.465Z" fill="#C7C7C7"/>
<path d="M262.952 103.882C251.575 144.048 274.342 155.396 283.01 157.834C290.879 160.055 317.939 166.609 333.406 127.838C348.873 89.0804 333.785 71.0964 316.07 65.0701C298.355 59.0439 274.328 63.7295 262.952 103.882Z" fill="#EB9481"/>
<path d="M331.47 126.511C323.695 127.012 322.802 109.231 322.802 109.231C322.802 109.231 290.283 101.661 289.132 74.7392C289.132 74.7392 282.455 91.4503 264.78 98.113C264.78 98.113 267.719 68.8619 291.312 64.5826C291.312 64.5826 320.811 55.8344 335.641 79.7228C350.458 103.598 336.684 126.172 331.47 126.511Z" fill="#263238"/>
<path d="M289.132 72.7485C288.441 76.7976 288.78 81.0228 289.85 85.0448C290.92 89.0669 292.762 92.9399 295.389 96.2307C295.985 97.0974 296.784 97.8016 297.475 98.587L298.545 99.7381C298.938 100.09 299.344 100.415 299.737 100.754C300.549 101.404 301.335 102.094 302.175 102.717C303.055 103.286 303.935 103.828 304.829 104.37C305.276 104.64 305.71 104.925 306.17 105.169L307.579 105.819L310.396 107.105C312.346 107.782 314.323 108.351 316.301 108.893C314.459 107.958 312.563 107.213 310.775 106.279L308.134 104.789L306.82 104.044C306.4 103.774 306.008 103.462 305.601 103.164C304.789 102.568 303.976 101.986 303.163 101.417C302.391 100.794 301.674 100.09 300.915 99.4402L299.804 98.4516L298.802 97.3411C298.166 96.5828 297.407 95.9192 296.866 95.0931C294.346 92.019 292.572 88.4033 291.218 84.6521C290.554 82.7697 290.067 80.8061 289.728 78.8154C289.335 76.8247 289.159 74.7934 289.132 72.7485Z" fill="#263238"/>
<path d="M325.659 126.091C325.659 126.091 337.063 115.014 342.25 119.32C347.438 123.626 337.158 140.879 329.858 142.112C322.558 143.344 321.285 136.6 321.285 136.6L325.659 126.091Z" fill="#EB9481"/>
<path d="M339.19 124.182C339.298 124.195 339.298 124.344 339.19 124.371C334.043 125.387 330.671 129.341 328.03 133.594C329.79 132.104 331.917 131.494 333.962 133.648C334.07 133.756 333.908 133.932 333.786 133.878C331.903 133.079 330.427 133.147 328.802 134.46C327.65 135.395 326.743 136.668 325.822 137.819C325.511 138.198 324.793 137.832 325.05 137.372C325.064 137.345 325.091 137.304 325.104 137.263C326.161 131.156 332.526 123.545 339.19 124.182Z" fill="#263238"/>
<path d="M333.474 120.444C333.474 120.444 340.869 100.74 338.309 87.8751C335.465 73.5475 317.709 57.2021 297.407 63.3232C297.407 63.3232 321.555 66.9525 330.101 86.372C334.029 95.3098 326.607 118.968 326.607 118.968L333.474 120.444Z" fill="#C7C7C7"/>
<path d="M322.059 148.508C313.097 145.716 308.412 135.17 311.596 124.952C314.779 114.735 324.625 108.714 333.587 111.506C342.549 114.297 347.234 124.843 344.051 135.061C340.867 145.279 331.021 151.299 322.059 148.508Z" fill="#C7C7C7"/>
<path d="M316.476 125.847C313.619 135.029 317.831 144.508 325.889 147.027C333.948 149.533 342.805 144.129 345.663 134.948C348.521 125.766 344.309 116.287 336.25 113.768C328.192 111.249 319.348 116.652 316.476 125.847Z" fill="#455A64"/>
<path d="M301.51 172.283L308.959 191.08L332.377 167.449L338.945 175.1C338.945 175.1 315.975 212.72 315.826 211.014L308.16 194.804L296.946 206.003L297.975 177.755L301.51 172.283Z" fill="#EBEBEB"/>
<path d="M296.689 192.001C297.014 187.342 297.217 182.643 297.759 178.012C297.772 177.849 298.043 177.768 298.07 177.971C298.978 182.481 297.637 200.275 297.637 204.554C297.651 204.541 297.678 204.527 297.691 204.5C298.165 204.013 308.079 194.642 308.174 194.791C309.84 197.364 315.461 209.172 315.84 210.242C319.469 204.27 334.882 180.72 339.189 175.073C339.311 174.911 339.568 175.046 339.474 175.236C336.264 181.546 316.341 212.626 316.056 212.544C315.867 212.693 308.878 198.149 308.052 195.414C306.373 197.458 296.35 208.035 296.323 207.344C296.107 202.659 296.364 196.673 296.689 192.001Z" fill="#263238"/>
<path d="M165.965 47.0455C168.389 70.2568 189.193 87.1168 212.407 84.6927C221.792 83.7177 230.135 79.7227 236.596 73.7777L257.751 76.8789L247.173 58.597C249.747 52.354 250.817 45.3934 250.072 38.2431C247.647 15.0318 226.844 -1.82819 203.617 0.595854C180.389 3.03344 163.527 23.8342 165.965 47.0455Z" fill="white"/>
<path d="M165.965 47.0455C166.845 54.7645 169.676 62.3211 174.498 68.4692C175.608 70.0807 177.03 71.4214 178.331 72.884C179.793 74.1569 181.175 75.5653 182.786 76.6622C185.874 79.0456 189.355 80.9145 192.985 82.3364C196.601 83.8531 200.488 84.5844 204.362 85.0448C206.312 85.1532 208.276 85.3292 210.24 85.1532C212.203 85.1125 214.154 84.8959 216.091 84.5438C223.824 83.1489 231.151 79.5196 237.002 74.2246L236.501 74.3736L257.629 77.6102L259.16 77.8404L258.388 76.4862L247.864 58.1636L247.918 58.8814C253.038 46.8153 251.887 32.447 245.318 21.207C242.04 15.5735 237.476 10.7254 232.072 7.10964C226.682 3.48034 220.425 1.20525 214.032 0.338555C207.626 -0.514602 201.03 0.0677111 194.922 2.09904C188.813 4.15745 183.206 7.6107 178.615 12.0932C169.283 21.0174 164.584 34.3159 165.965 47.0455ZM165.965 47.0455C164.678 34.3023 169.459 21.0852 178.805 12.3234C183.437 7.94925 189.057 4.63142 195.111 2.70843C201.179 0.812531 207.666 0.352097 213.91 1.30005C220.154 2.26154 226.194 4.57725 231.368 8.19301C236.528 11.8088 240.876 16.5485 244.018 21.9925C247.228 27.4229 248.88 33.6388 249.381 39.8817C249.774 46.1382 248.758 52.4759 246.401 58.299L246.252 58.6782L246.456 59.0303L257.101 77.2716L257.859 76.1612L236.691 73.1954L236.393 73.1548L236.189 73.3444C230.596 78.5988 223.513 82.2687 215.942 83.7719C214.045 84.151 212.136 84.3948 210.213 84.4625C208.289 84.6656 206.353 84.5167 204.429 84.449C200.597 84.0563 196.737 83.4062 193.134 81.9572C189.518 80.603 186.023 78.829 182.935 76.4591C181.31 75.3757 179.942 73.9944 178.466 72.735C177.166 71.2995 175.73 69.9589 174.62 68.3744C169.771 62.294 166.9 54.7645 165.965 47.0455Z" fill="#263238"/>
<path d="M189.559 49.0497C186.731 49.0497 184.439 46.7579 184.439 43.9308C184.439 41.1037 186.731 38.8119 189.559 38.8119C192.386 38.8119 194.678 41.1037 194.678 43.9308C194.678 46.7579 192.386 49.0497 189.559 49.0497Z" fill="#263238"/>
<path d="M207.897 49.0497C205.069 49.0497 202.777 46.7579 202.777 43.9308C202.777 41.1037 205.069 38.8119 207.897 38.8119C210.724 38.8119 213.016 41.1037 213.016 43.9308C213.016 46.7579 210.724 49.0497 207.897 49.0497Z" fill="#263238"/>
<path d="M226.235 49.0497C223.408 49.0497 221.115 46.7579 221.115 43.9308C221.115 41.1037 223.408 38.8119 226.235 38.8119C229.062 38.8119 231.354 41.1037 231.354 43.9308C231.354 46.7579 229.062 49.0497 226.235 49.0497Z" fill="#263238"/>
<path d="M235.946 346.761H245.006V352.679H235.946V346.761Z" fill="#455A64"/>
<path d="M224.203 346.368H233.264V352.286H224.203V346.368Z" fill="#455A64"/>
<path d="M212.447 345.975H221.508V351.893H212.447V345.975Z" fill="#455A64"/>
<path d="M200.691 345.583H209.752V351.501H200.691V345.583Z" fill="#455A64"/>
<path d="M188.949 345.19H198.01V351.108H188.949V345.19Z" fill="#455A64"/>
<path d="M177.193 344.797H186.253V350.715H177.193V344.797Z" fill="#455A64"/>
<path d="M165.437 344.418H174.498V350.336H165.437V344.418Z" fill="#455A64"/>
<path d="M153.695 344.025H162.755V349.943H153.695V344.025Z" fill="#455A64"/>
<path d="M141.938 343.633H150.999V349.55H141.938V343.633Z" fill="#455A64"/>
<path d="M139.717 356.078H247.228V348.873L139.717 345.881V356.078Z" fill="#37474F"/>
<path d="M34.7938 327.693H212.271L184.046 195.576H6.5686L34.7938 327.693Z" fill="#455A64"/>
<path d="M28.2249 327.693H205.702L177.477 195.576H-0.000259399L28.2249 327.693Z" fill="#37474F"/>
<path d="M87.5194 253.983C88.481 260.037 94.1694 264.953 100.237 264.953C106.305 264.953 110.435 260.037 109.474 253.983C108.512 247.93 102.824 243.014 96.7563 243.014C90.6887 243.014 86.5578 247.917 87.5194 253.983Z" fill="#263238"/>
<path d="M78.4181 362.199H165.708V355.414L78.4181 352.597V362.199Z" fill="#455A64"/>
<path d="M54.6894 362.185H101.551L129.776 288.15H82.9145L54.6894 362.185Z" fill="#455A64"/>
<path d="M46.9693 362.185H93.8442L122.069 288.15H75.1944L46.9693 362.185Z" fill="#263238"/>
<path d="M250.546 364C250.546 364 332.851 364 340.544 364C348.223 364 337.117 342.129 309.082 333.747C281.046 325.351 241.702 355.793 250.546 364Z" fill="#37474F"/>
<path d="M285.868 364C285.827 361.522 285.38 359.044 284.649 356.66C283.931 354.263 282.902 351.961 281.615 349.794C280.342 347.627 278.703 345.664 276.834 343.998C275.019 342.251 272.757 341.046 270.496 340.071C271.457 340.87 272.554 341.425 273.435 342.292L274.816 343.47L276.089 344.77C277.728 346.531 279.245 348.426 280.45 350.512C281.696 352.57 282.753 354.764 283.647 357.012C284.527 359.26 285.299 361.589 285.868 364Z" fill="#263238"/>
<path d="M275.195 343.186C269.859 344.865 264.794 347.411 260.175 350.634C257.886 352.272 255.706 354.114 253.905 356.322C252.117 358.502 250.641 361.156 250.546 363.986C251.182 361.237 252.862 359.003 254.704 357.012C256.6 355.049 258.726 353.315 260.974 351.731C263.209 350.119 265.552 348.67 267.936 347.262C270.32 345.881 272.73 344.499 275.195 343.186Z" fill="#263238"/>
</g>
<defs>
<clipPath id="clip0_307_168">
<rect width="448" height="364" fill="white" transform="matrix(-1 0 0 1 448 0)"/>
</clipPath>
</defs>
</svg>
