<svg width="61" height="57" viewBox="0 0 61 57" fill="none" xmlns="http://www.w3.org/2000/svg">
<g clip-path="url(#clip0_69_3552)">
<path d="M61 48.9944C60.5374 50.0444 59.7242 50.3829 58.6096 50.3379C57.0085 50.2735 55.4045 50.3215 53.7661 50.3215C53.7661 41.9234 53.7661 33.5732 53.7661 25.1586C54.9718 25.1586 56.1565 25.1586 57.3413 25.1586C57.7576 25.1586 58.1784 25.1915 58.5902 25.1526C59.6959 25.0477 60.5121 25.4431 60.9985 26.4691C61 33.9761 61 41.4845 61 48.9944Z" fill="#EBEFF2"/>
<path d="M10.8717 50.32C10.8717 41.8949 10.8717 33.5582 10.8717 25.1571C11.8073 25.1571 12.716 25.1256 13.6217 25.1645C14.6677 25.2095 15.3466 24.7556 15.7764 23.8105C16.1882 22.9044 16.6537 22.0237 17.1029 21.1355C18.1668 19.0296 19.8842 17.9751 22.2254 17.9706C26.6719 17.9617 31.1185 17.9661 35.5651 17.9691C37.0005 17.9706 37.76 18.739 37.6138 20.1874C37.5198 21.11 37.2303 22.0117 37.0303 22.9223C36.9527 23.2743 36.7409 23.3702 36.3857 23.3687C34.1028 23.3522 31.8198 23.3612 29.5368 23.3597C26.3287 23.3582 24.004 24.7886 22.57 27.6823C20.5989 31.662 18.6189 35.6371 16.6433 39.6152C15.9315 41.0501 16.2762 41.9803 17.7445 42.6288C19.644 43.4676 21.5703 44.191 23.6966 44.0802C27.506 43.881 30.3903 42.0881 32.4734 38.9173C32.5823 38.751 32.6718 38.5713 32.7703 38.399C33.2522 37.5588 34.0863 37.4479 34.7712 38.1369C38.7448 42.1315 42.7169 46.1262 46.6904 50.1193C46.8023 50.2316 46.9336 50.3245 47.0829 50.4488C46.386 51.2681 45.528 51.686 44.597 51.9795C40.798 53.1808 36.9975 54.3805 33.1985 55.5802C32.0257 55.9502 30.8514 56.3081 29.6816 56.6886C27.4777 57.4045 25.5782 56.8803 23.9533 55.2672C22.5119 53.8368 21.0734 52.4034 19.6634 50.9431C19.2351 50.4997 18.8084 50.293 18.1712 50.305C15.9688 50.3484 13.765 50.3215 11.5611 50.3215C11.3462 50.32 11.1313 50.32 10.8717 50.32Z" fill="#EBEFF2"/>
<path d="M20.5154 39.8548C22.3552 36.1597 24.1517 32.5171 25.9826 28.891C26.6093 27.6493 27.6836 26.9738 29.0593 26.9693C36.0261 26.9453 42.9944 26.9603 49.9627 26.9618C50 26.9618 50.0373 26.9813 50.1164 27.0022C50.1164 34.1198 50.1164 41.2477 50.1164 48.4566C49.9134 48.2649 49.7568 48.1256 49.609 47.9758C45.5101 43.8539 41.3978 39.7455 37.3213 35.5996C36.3186 34.5796 35.1875 34.0643 33.764 34.1347C32.9717 34.1752 32.1764 34.1602 31.3826 34.1332C31.029 34.1213 30.8589 34.2546 30.7096 34.5631C30.2829 35.4393 29.8591 36.323 29.3622 37.1588C27.6702 40.0031 23.8742 41.2552 20.8213 40.0076C20.7302 39.9746 20.6467 39.9237 20.5154 39.8548Z" fill="#EBEFF2"/>
<path d="M7.24581 25.1569C7.24581 33.576 7.24581 41.9112 7.24581 50.3198C6.41917 50.3198 5.61342 50.3198 4.80617 50.3198C3.87359 50.3198 2.941 50.3243 2.00842 50.3183C0.695337 50.3108 0.00298598 49.6069 0.00149384 48.2724C-0.00298256 44.4215 1.70816e-06 40.5707 1.70816e-06 36.7184C1.70816e-06 33.585 -0.00149043 30.4531 1.70816e-06 27.3197C0.00149384 25.8339 0.668478 25.1584 2.13823 25.1569C3.82285 25.1554 5.50598 25.1569 7.24581 25.1569Z" fill="#EBEFF2"/>
<path d="M28.7132 4.53988C28.7132 3.66068 28.7027 2.78297 28.7162 1.90377C28.7326 0.795403 29.4995 -0.00891219 30.5127 7.4562e-05C31.5273 0.00906132 32.2764 0.810381 32.2838 1.92923C32.2943 3.6472 32.2958 5.36367 32.2838 7.08164C32.2749 8.20199 31.5184 8.98234 30.4873 8.97635C29.4592 8.97036 28.7296 8.18701 28.7162 7.05618C28.7057 6.21741 28.7132 5.37865 28.7132 4.53988Z" fill="#EBEFF2"/>
<path d="M21.5778 12.3418C21.53 13.2974 21.2137 13.8665 20.5437 14.1886C19.823 14.5361 19.1351 14.4177 18.5607 13.8785C17.8071 13.1701 17.0924 12.4212 16.3628 11.6888C15.8987 11.2244 15.4242 10.7691 14.9781 10.2883C14.238 9.49449 14.2365 8.42356 14.9527 7.71511C15.66 7.01414 16.703 6.99018 17.464 7.72709C18.6786 8.90436 19.8738 10.1011 21.0331 11.3308C21.3256 11.6438 21.4569 12.1096 21.5778 12.3418Z" fill="#EBEFF2"/>
<path d="M41.3963 14.3849C40.5204 14.3414 39.9728 14.0344 39.6446 13.3933C39.3148 12.7493 39.3148 12.0588 39.7997 11.542C41.0785 10.1791 42.3901 8.84302 43.7524 7.5669C44.4343 6.92734 45.4788 7.0906 46.11 7.78109C46.762 8.49404 46.7605 9.52152 46.0443 10.2644C44.8849 11.4687 43.6942 12.6414 42.5139 13.8232C42.4169 13.9205 42.3095 14.0254 42.1872 14.0793C41.8813 14.2141 41.5664 14.3204 41.3963 14.3849Z" fill="#EBEFF2"/>
</g>
<defs>
<clipPath id="clip0_69_3552">
<rect width="61" height="57" fill="white"/>
</clipPath>
</defs>
</svg>
