<svg width="649" height="645" viewBox="0 0 649 645" fill="none" xmlns="http://www.w3.org/2000/svg">
<g clip-path="url(#clip0_339_2528)">
<path d="M106.158 588.002V632.247H170.753H241.988V588.002H106.158Z" fill="#F5F5F5"/>
<path d="M100.458 575.641V588.002H246.733V575.641H170.753H100.458Z" fill="#E0E0E0"/>
<path d="M173.603 632.247H241.988V588.002H246.733V575.641H170.753V586.858L173.603 632.247Z" fill="#E0E0E0"/>
<path d="M152.698 595.147H125.153V601.813H152.698V595.147Z" fill="#E0E0E0"/>
<path d="M156.98 610.132H121.608V624.189H156.98V610.132Z" fill="white"/>
<path d="M127.048 531.454V575.699H191.643H262.878V531.454H127.048Z" fill="#F5F5F5"/>
<path d="M121.348 519.078V531.454H267.637V519.078H191.642H121.348Z" fill="#E0E0E0"/>
<path d="M194.493 575.699H262.878V531.454H267.637V519.078H191.643V530.31L194.493 575.699Z" fill="#E0E0E0"/>
<path d="M173.603 538.584H146.058V545.251H173.603V538.584Z" fill="#E0E0E0"/>
<path d="M177.87 553.569H142.498V567.627H177.87V553.569Z" fill="white"/>
<path d="M127.771 43.6793C131.475 41.433 135.41 39.7374 139.475 38.5781L141.891 26.9699L161.465 26.6221L164.286 38.1433C168.394 39.1577 172.387 40.7084 176.163 42.8242L186.058 36.3318L200.149 49.9544L194.015 60.0843C196.258 63.7943 197.95 67.7362 199.108 71.8084L210.696 74.2286L211.043 93.8364L199.542 96.6624C198.529 100.778 196.981 104.778 194.869 108.56L201.35 118.473L187.751 132.588L177.639 126.444C173.935 128.69 170 130.386 165.935 131.545L163.519 143.153L143.945 143.501L141.124 131.98C137.016 130.965 133.023 129.4 129.247 127.299L119.352 133.791L105.261 120.169L111.395 110.039C109.152 106.329 107.46 102.387 106.302 98.3145L94.7144 95.8943L94.3672 76.2865L105.868 73.4605C106.881 69.3448 108.443 65.345 110.541 61.5625L104.06 51.6499L117.659 37.5346L127.771 43.6793ZM138.202 69.8085C130.144 78.1705 130.375 91.4887 138.723 99.5608C147.07 107.633 160.365 107.401 168.423 99.0391C176.481 90.6771 176.25 77.3589 167.902 69.2868C159.555 61.2147 146.26 61.4466 138.202 69.8085Z" fill="#EBEBEB"/>
<path d="M442.73 20.3034C447.143 17.6369 451.83 15.608 456.676 14.2312L459.555 0.405779L482.861 0L486.218 13.7095C491.107 14.9124 495.867 16.7674 500.366 19.289L512.157 11.5502L528.938 27.7814L521.633 39.8533C524.295 44.2734 526.32 48.9688 527.694 53.8237L541.496 56.7076L541.901 80.0689L528.215 83.431C527.014 88.3294 525.163 93.0973 522.645 97.6043L530.371 109.415L514.168 126.226L502.117 118.908C497.704 121.574 493.017 123.603 488.171 124.98L485.292 138.805L461.971 139.211L458.615 125.502C453.725 124.299 448.965 122.444 444.466 119.922L432.676 127.661L415.894 111.43L423.2 99.3579C420.538 94.9378 418.513 90.2423 417.138 85.3875L403.337 82.5035L402.932 59.1423L416.617 55.7801C417.818 50.8818 419.67 46.1139 422.187 41.6068L414.462 29.7958L430.665 12.9849L442.73 20.3034ZM455.157 51.418C445.566 61.3741 445.84 77.2429 455.779 86.8512C465.718 96.4594 481.559 96.1841 491.151 86.228C500.742 76.2719 500.468 60.4031 490.529 50.7948C480.59 41.1866 464.749 41.4619 455.157 51.418Z" fill="#EBEBEB"/>
<path d="M446.26 209.962C449.703 207.875 453.364 206.295 457.154 205.223L459.396 194.426L477.61 194.107L480.229 204.817C484.048 205.759 487.766 207.208 491.281 209.179L500.482 203.136L513.589 215.816L507.889 225.236C509.973 228.685 511.549 232.366 512.62 236.149L523.398 238.395L523.716 256.641L513.025 259.264C512.085 263.09 510.638 266.814 508.67 270.336L514.703 279.553L502.045 292.682L492.627 286.973C489.184 289.059 485.509 290.639 481.733 291.711L479.491 302.508L461.277 302.827L458.658 292.117C454.839 291.175 451.121 289.726 447.606 287.755L438.405 293.798L425.298 281.118L430.998 271.698C428.914 268.249 427.338 264.568 426.267 260.785L415.489 258.539L415.171 240.293L425.862 237.67C426.802 233.845 428.249 230.12 430.216 226.598L424.184 217.381L436.842 204.252L446.26 209.962ZM455.968 234.265C448.474 242.047 448.691 254.438 456.459 261.945C464.228 269.452 476.597 269.234 484.091 261.452C491.585 253.67 491.368 241.279 483.599 233.772C475.831 226.28 463.461 226.497 455.968 234.265Z" fill="#E0E0E0"/>
<path d="M543.478 153.819C545.387 152.66 547.427 151.776 549.525 151.182L550.769 145.182L560.881 145.008L562.343 150.964C564.469 151.486 566.524 152.298 568.477 153.384L573.598 150.022L580.875 157.065L577.706 162.297C578.864 164.21 579.746 166.253 580.339 168.355L586.329 169.601L586.502 179.731L580.556 181.195C580.036 183.325 579.226 185.383 578.141 187.34L581.497 192.47L574.466 199.759L569.243 196.585C567.334 197.745 565.294 198.629 563.196 199.223L561.952 205.223L551.84 205.397L550.379 199.44C548.252 198.919 546.198 198.107 544.245 197.02L539.123 200.382L531.846 193.339L535.015 188.108C533.857 186.195 532.975 184.151 532.382 182.05L526.392 180.804L526.219 170.674L532.165 169.21C532.685 167.08 533.496 165.022 534.581 163.065L531.224 157.935L538.255 150.645L543.478 153.819ZM548.874 167.326C544.707 171.645 544.823 178.528 549.149 182.702C553.46 186.876 560.332 186.76 564.498 182.427C568.665 178.108 568.549 171.224 564.223 167.051C559.912 162.877 553.04 163.007 548.874 167.326Z" fill="#F5F5F5"/>
<path d="M254.371 20.3324C256.281 19.1731 258.321 18.2891 260.418 17.6949L261.663 11.6951L271.775 11.5212L273.236 17.4775C275.363 17.9992 277.417 18.8108 279.37 19.8977L284.491 16.5355L291.768 23.5787L288.6 28.8103C289.757 30.7233 290.64 32.7667 291.233 34.868L297.222 36.1143L297.396 46.2443L291.45 47.708C290.929 49.8384 290.119 51.8962 289.034 53.8527L292.39 58.9829L285.359 66.2724L280.137 63.0986C278.227 64.258 276.187 65.142 274.09 65.7362L272.846 71.7359L262.733 71.9098L261.272 65.9536C259.145 65.4319 257.091 64.6203 255.138 63.5334L250.017 66.8956L242.74 59.8524L245.908 54.6208C244.751 52.7078 243.868 50.6644 243.275 48.5631L237.286 47.3167L237.112 37.1868L243.058 35.7231C243.579 33.5927 244.389 31.5348 245.474 29.5784L242.118 24.4482L249.149 17.1587L254.371 20.3324ZM259.767 33.8391C255.601 38.1577 255.717 45.0415 260.042 49.2152C264.354 53.3889 271.225 53.273 275.392 48.9398C279.558 44.6212 279.442 37.7375 275.117 33.5637C270.791 29.39 263.934 29.5204 259.767 33.8391Z" fill="#F5F5F5"/>
<path d="M163.244 184.021C165.154 182.861 167.194 181.977 169.292 181.383L170.536 175.383L180.648 175.209L182.109 181.166C184.236 181.687 186.29 182.499 188.243 183.586L193.364 180.224L200.641 187.267L197.473 192.499C198.63 194.412 199.513 196.455 200.106 198.556L206.095 199.803L206.269 209.933L200.323 211.396C199.802 213.527 198.992 215.584 197.907 217.541L201.263 222.671L194.232 229.961L189.01 226.787C187.1 227.946 185.06 228.83 182.963 229.424L181.719 235.424L171.606 235.598L170.145 229.642C168.018 229.12 165.964 228.309 164.011 227.222L158.89 230.584L151.613 223.541L154.781 218.309C153.624 216.396 152.741 214.353 152.148 212.251L146.159 211.005L145.985 200.875L151.931 199.411C152.452 197.281 153.262 195.223 154.347 193.267L150.991 188.136L158.022 180.847L163.244 184.021ZM168.641 197.527C164.474 201.846 164.59 208.73 168.915 212.903C173.227 217.077 180.098 216.961 184.265 212.628C188.431 208.309 188.316 201.426 183.99 197.252C179.679 193.078 172.807 193.209 168.641 197.527Z" fill="#F5F5F5"/>
<path d="M416.936 633.406L229.329 633.29C206.761 633.276 188.475 614.016 188.489 590.263L188.576 95.1117C188.576 71.3446 206.891 52.0846 229.474 52.0991L417.095 52.2151C439.664 52.2296 457.95 71.4896 457.935 95.2421L457.849 590.394C457.82 614.146 439.519 633.421 416.936 633.406Z" fill="#263238"/>
<path d="M416.878 69.7071L380.508 69.6781C375.633 69.6781 371.669 74.0257 371.669 79.3878V86.3295C371.669 91.6916 367.719 96.0537 362.83 96.0392L291.927 95.9958C287.052 95.9958 283.103 91.6336 283.103 86.2716V79.3299C283.103 73.9678 279.153 69.6057 274.278 69.6057L261.489 69.5912L229.647 69.5767C213.835 69.5622 201.017 83.0543 201.003 99.7058L200.916 583.017C200.916 599.654 213.719 613.146 229.517 613.161L416.762 613.277C432.575 613.291 445.392 599.799 445.407 583.148L445.494 99.8362C445.479 83.2137 432.676 69.7216 416.878 69.7071Z" fill="white"/>
<path d="M357.593 307.044C357.593 314.276 351.748 320.13 344.558 320.13C337.354 320.13 331.523 314.276 331.523 307.044C331.523 299.813 337.368 293.958 344.558 293.958C351.763 293.958 357.593 299.827 357.593 307.044Z" fill="#FFC727"/>
<path d="M305.845 320.986C313.516 320.986 319.733 314.744 319.733 307.044C319.733 299.345 313.516 293.103 305.845 293.103C298.175 293.103 291.957 299.345 291.957 307.044C291.957 314.744 298.175 320.986 305.845 320.986Z" fill="#FFC727"/>
<path d="M276.087 297.175C284.228 297.175 290.828 290.55 290.828 282.378C290.828 274.207 284.228 267.582 276.087 267.582C267.945 267.582 261.345 274.207 261.345 282.378C261.345 290.55 267.945 297.175 276.087 297.175Z" fill="#FFC727"/>
<path d="M270.039 259.901C278.54 259.901 285.432 252.978 285.432 244.438C285.432 235.898 278.54 228.975 270.039 228.975C261.538 228.975 254.646 235.898 254.646 244.438C254.646 252.978 261.538 259.901 270.039 259.901Z" fill="#FFC727"/>
<path d="M288.904 227.222C297.693 227.222 304.817 220.065 304.817 211.237C304.817 202.409 297.693 195.252 288.904 195.252C280.115 195.252 272.99 202.409 272.99 211.237C272.99 220.065 280.115 227.222 288.904 227.222Z" fill="#FFC727"/>
<path d="M325.144 215.527C334.724 215.527 342.49 207.728 342.49 198.107C342.49 188.486 334.724 180.688 325.144 180.688C315.564 180.688 307.798 188.486 307.798 198.107C307.798 207.728 315.564 215.527 325.144 215.527Z" fill="#FFC727"/>
<path d="M385.919 282.074C385.919 289.059 380.277 294.726 373.318 294.726C366.36 294.726 360.718 289.059 360.718 282.074C360.718 275.089 366.36 269.423 373.318 269.423C380.291 269.423 385.919 275.089 385.919 282.074Z" fill="#FFC727"/>
<path d="M380.075 255.756C386.531 255.756 391.764 250.501 391.764 244.018C391.764 237.535 386.531 232.279 380.075 232.279C373.619 232.279 368.386 237.535 368.386 244.018C368.386 250.501 373.619 255.756 380.075 255.756Z" fill="#FFC727"/>
<path d="M360.631 221.526C366.527 221.526 371.307 216.725 371.307 210.802C371.307 204.879 366.527 200.078 360.631 200.078C354.734 200.078 349.954 204.879 349.954 210.802C349.954 216.725 354.734 221.526 360.631 221.526Z" fill="#FFC727"/>
<g opacity="0.5">
<path d="M357.593 307.044C357.593 314.276 351.748 320.13 344.558 320.13C337.354 320.13 331.523 314.276 331.523 307.044C331.523 299.813 337.368 293.958 344.558 293.958C351.763 293.958 357.593 299.827 357.593 307.044Z" fill="white"/>
</g>
<g opacity="0.4">
<path d="M305.845 320.986C313.516 320.986 319.733 314.744 319.733 307.044C319.733 299.345 313.516 293.103 305.845 293.103C298.175 293.103 291.957 299.345 291.957 307.044C291.957 314.744 298.175 320.986 305.845 320.986Z" fill="white"/>
</g>
<g opacity="0.3">
<path d="M276.087 297.175C284.228 297.175 290.828 290.55 290.828 282.378C290.828 274.207 284.228 267.582 276.087 267.582C267.945 267.582 261.345 274.207 261.345 282.378C261.345 290.55 267.945 297.175 276.087 297.175Z" fill="white"/>
</g>
<g opacity="0.2">
<path d="M270.039 259.901C278.54 259.901 285.432 252.978 285.432 244.438C285.432 235.898 278.54 228.975 270.039 228.975C261.538 228.975 254.646 235.898 254.646 244.438C254.646 252.978 261.538 259.901 270.039 259.901Z" fill="white"/>
</g>
<g opacity="0.1">
<path d="M288.904 227.222C297.693 227.222 304.817 220.065 304.817 211.237C304.817 202.409 297.693 195.252 288.904 195.252C280.115 195.252 272.99 202.409 272.99 211.237C272.99 220.065 280.115 227.222 288.904 227.222Z" fill="white"/>
</g>
<g opacity="0.2">
<path d="M325.144 215.527C334.724 215.527 342.49 207.728 342.49 198.107C342.49 188.486 334.724 180.688 325.144 180.688C315.564 180.688 307.798 188.486 307.798 198.107C307.798 207.728 315.564 215.527 325.144 215.527Z" fill="white"/>
</g>
<g opacity="0.6">
<path d="M385.919 282.074C385.919 289.059 380.277 294.726 373.318 294.726C366.36 294.726 360.718 289.059 360.718 282.074C360.718 275.089 366.36 269.423 373.318 269.423C380.291 269.423 385.919 275.089 385.919 282.074Z" fill="white"/>
</g>
<g opacity="0.7">
<path d="M380.075 255.756C386.531 255.756 391.764 250.501 391.764 244.018C391.764 237.535 386.531 232.279 380.075 232.279C373.619 232.279 368.386 237.535 368.386 244.018C368.386 250.501 373.619 255.756 380.075 255.756Z" fill="white"/>
</g>
<g opacity="0.8">
<path d="M360.631 221.526C366.527 221.526 371.307 216.725 371.307 210.802C371.307 204.879 366.527 200.078 360.631 200.078C354.734 200.078 349.954 204.879 349.954 210.802C349.954 216.725 354.734 221.526 360.631 221.526Z" fill="white"/>
</g>
<path d="M283.551 432.372C283.551 429.676 285.591 427.691 288.354 427.691C289.685 427.691 290.9 428.14 291.71 429.024L291.088 429.647C290.336 428.879 289.424 428.56 288.383 428.56C286.169 428.56 284.506 430.198 284.506 432.372C284.506 434.56 286.169 436.183 288.383 436.183C289.424 436.183 290.35 435.85 291.088 435.082L291.71 435.705C290.9 436.604 289.699 437.053 288.339 437.053C285.591 437.053 283.551 435.067 283.551 432.372Z" fill="#263238"/>
<path d="M301.432 427.778V436.98H300.477V432.734H294.749V436.98H293.779V427.778H294.749V431.879H300.477V427.778H301.432Z" fill="#263238"/>
<path d="M310.908 436.14V436.98H304.427V427.778H310.705V428.618H305.396V431.894H310.141V432.72H305.396V436.14H310.908Z" fill="#263238"/>
<path d="M312.311 432.372C312.311 429.676 314.35 427.691 317.114 427.691C318.445 427.691 319.66 428.14 320.47 429.024L319.848 429.647C319.096 428.879 318.184 428.56 317.142 428.56C314.929 428.56 313.265 430.198 313.265 432.372C313.265 434.56 314.929 436.183 317.142 436.183C318.184 436.183 319.11 435.85 319.848 435.082L320.47 435.705C319.66 436.604 318.459 437.053 317.099 437.053C314.35 437.053 312.311 435.067 312.311 432.372Z" fill="#263238"/>
<path d="M325.375 432.647L323.508 434.56V436.98H322.539V427.778H323.508V433.343L328.89 427.778H330.004L326.04 431.952L330.279 436.98H329.122L325.375 432.647Z" fill="#263238"/>
<path d="M331.842 427.778H332.811V436.98H331.842V427.778Z" fill="#263238"/>
<path d="M343.459 427.778V436.98H342.663L336.775 429.517V436.98H335.806V427.778H336.601L342.504 435.241V427.778H343.459Z" fill="#263238"/>
<path d="M352.891 432.372H353.817V435.879C352.949 436.662 351.719 437.053 350.446 437.053C347.654 437.053 345.614 435.067 345.614 432.372C345.614 429.676 347.654 427.691 350.461 427.691C351.85 427.691 353.05 428.14 353.86 429.024L353.253 429.647C352.486 428.879 351.56 428.575 350.49 428.575C348.218 428.575 346.555 430.198 346.555 432.386C346.555 434.575 348.218 436.198 350.475 436.198C351.358 436.198 352.168 435.995 352.877 435.488V432.372H352.891Z" fill="#263238"/>
<path d="M355.899 436.314C355.899 435.908 356.218 435.604 356.594 435.604C356.97 435.604 357.303 435.908 357.303 436.314C357.303 436.719 356.97 437.038 356.594 437.038C356.203 437.038 355.899 436.719 355.899 436.314Z" fill="#263238"/>
<path d="M358.663 436.314C358.663 435.908 358.981 435.604 359.357 435.604C359.734 435.604 360.066 435.908 360.066 436.314C360.066 436.719 359.734 437.038 359.357 437.038C358.981 437.038 358.663 436.719 358.663 436.314Z" fill="#263238"/>
<path d="M361.44 436.314C361.44 435.908 361.759 435.604 362.135 435.604C362.511 435.604 362.844 435.908 362.844 436.314C362.844 436.719 362.511 437.038 362.135 437.038C361.759 437.038 361.44 436.719 361.44 436.314Z" fill="#263238"/>
<path d="M395.337 409.735H251.217C242.248 409.735 234.985 402.46 234.985 393.475V390.794C234.985 381.809 242.262 374.534 251.217 374.534H395.337C404.306 374.534 411.568 381.809 411.568 390.794V393.475C411.568 402.46 404.306 409.735 395.337 409.735Z" fill="#F5F5F5"/>
<path d="M316.897 409.735H251.203C242.233 409.735 234.971 402.46 234.971 393.475V390.794C234.971 381.809 242.248 374.534 251.203 374.534H316.897C325.866 374.534 333.129 381.809 333.129 390.794V393.475C333.143 402.46 325.866 409.735 316.897 409.735Z" fill="#FFC727"/>
<path d="M375.372 394.707C375.372 396.533 374.113 397.938 371.567 397.938C369.99 397.938 368.515 397.344 367.748 396.475L368.153 395.866C368.804 396.634 370.092 397.199 371.553 397.199C373.549 397.199 374.576 396.185 374.576 394.736C374.576 393.171 373.636 392.229 370.685 392.229H368.486L369.065 386.939H374.822V387.649H369.73L369.31 391.504H370.858C374.157 391.504 375.372 392.779 375.372 394.707Z" fill="#FFC727"/>
<path d="M383.966 394.707C383.966 396.533 382.707 397.938 380.161 397.938C378.584 397.938 377.109 397.344 376.342 396.475L376.747 395.866C377.398 396.634 378.685 397.199 380.147 397.199C382.143 397.199 383.17 396.185 383.17 394.736C383.17 393.171 382.23 392.229 379.279 392.229H377.08L377.658 386.939H383.416V387.649H378.324L377.904 391.504H379.452C382.751 391.504 383.966 392.779 383.966 394.707Z" fill="#FFC727"/>
<path d="M385.151 389.823C385.151 388.04 386.135 386.881 387.538 386.881C388.956 386.881 389.94 388.055 389.94 389.823C389.94 391.606 388.942 392.765 387.538 392.765C386.121 392.779 385.151 391.606 385.151 389.823ZM389.347 389.823C389.347 388.316 388.623 387.403 387.524 387.403C386.453 387.403 385.73 388.316 385.73 389.823C385.73 391.316 386.453 392.243 387.524 392.243C388.623 392.243 389.347 391.345 389.347 389.823ZM394.164 386.939H394.83L387.408 397.852H386.743L394.164 386.939ZM391.633 394.968C391.633 393.185 392.631 392.026 394.034 392.026C395.452 392.026 396.421 393.2 396.421 394.968C396.421 396.75 395.437 397.91 394.034 397.91C392.631 397.91 391.633 396.75 391.633 394.968ZM395.842 394.968C395.842 393.475 395.119 392.548 394.049 392.548C392.963 392.548 392.226 393.446 392.226 394.968C392.226 396.475 392.949 397.388 394.049 397.388C395.119 397.388 395.842 396.46 395.842 394.968Z" fill="#FFC727"/>
<g opacity="0.2">
<path d="M277.677 374.52L264.469 409.315H274.176L286.473 374.52H277.677Z" fill="white"/>
</g>
<g opacity="0.2">
<path d="M301.475 374.52L288.281 409.315H297.974L310.285 374.52H301.475Z" fill="white"/>
</g>
<g opacity="0.2">
<path d="M324.796 377.143L312.499 409.532H318.271C319.863 409.315 322.727 408.04 322.727 408.04L331.205 384.084C329.628 381.171 327.472 378.867 324.796 377.143Z" fill="white"/>
</g>
<g opacity="0.2">
<path d="M254.545 374.52L242.407 406.518C244.867 408.156 247.746 409.098 251.044 409.315L263.341 374.52H254.545Z" fill="white"/>
</g>
<path d="M395.018 409.735C395.004 409.648 396.422 409.779 398.968 409.156C401.456 408.532 405.261 406.895 408.227 402.852C409.702 400.866 410.845 398.258 411.236 395.258C411.409 393.765 411.409 392.171 411.337 390.519C411.308 388.881 410.961 387.2 410.353 385.548C409.181 382.244 406.751 379.099 403.322 377.07C401.615 376.056 399.677 375.331 397.608 375.012C395.554 374.679 393.355 374.824 391.127 374.795C355.379 374.824 306.018 374.867 251.521 374.911C249.857 374.94 248.208 375.186 246.617 375.679C245.04 376.186 243.564 376.954 242.204 377.882C239.528 379.795 237.416 382.49 236.345 385.562C234.392 391.664 235.029 399.026 239.311 403.75C241.365 406.141 244.1 407.88 247.065 408.721C250.031 409.619 253.17 409.301 256.281 409.358C262.458 409.358 268.52 409.373 274.422 409.373C298.047 409.402 319.313 409.431 337.194 409.46C355.046 409.518 369.499 409.547 379.51 409.576C384.486 409.605 388.364 409.634 391.011 409.648C392.313 409.663 393.297 409.677 394.006 409.692C394.686 409.721 395.018 409.735 395.018 409.735C395.018 409.735 394.671 409.764 394.006 409.779C393.311 409.793 392.313 409.793 391.011 409.822C388.349 409.837 384.486 409.866 379.51 409.895C369.499 409.924 355.046 409.967 337.194 410.011C319.328 410.04 298.047 410.069 274.422 410.098C268.52 410.098 262.458 410.112 256.281 410.112C254.733 410.112 253.185 410.112 251.622 410.112C250.031 410.069 248.411 409.924 246.877 409.445C243.781 408.561 240.902 406.75 238.761 404.257C236.606 401.779 235.174 398.605 234.754 395.272C234.566 393.577 234.566 391.953 234.653 390.272C234.711 388.577 235.058 386.896 235.651 385.302C236.779 382.084 238.993 379.244 241.785 377.244C243.203 376.259 244.751 375.461 246.4 374.925C248.064 374.418 249.785 374.157 251.536 374.128C306.047 374.172 355.394 374.215 391.141 374.244C393.369 374.288 395.554 374.143 397.709 374.49C399.836 374.838 401.832 375.592 403.583 376.65C407.098 378.751 409.587 381.997 410.758 385.403C412.871 392.301 411.626 399.04 408.473 403.025C405.406 407.127 401.528 408.721 399.011 409.315C398.375 409.503 397.796 409.547 397.304 409.619C396.812 409.706 396.393 409.721 396.046 409.721C395.366 409.75 395.018 409.735 395.018 409.735Z" fill="#263238"/>
<path d="M252.071 567.67V579.51C252.071 580.539 250.943 581.162 250.075 580.612L240.787 574.699C239.992 574.192 239.992 573.018 240.787 572.496L250.075 566.583C250.943 566.018 252.071 566.641 252.071 567.67Z" fill="#E0E0E0"/>
<path d="M328.37 573.467C328.37 577.989 324.724 581.641 320.225 581.641C315.726 581.641 312.08 577.974 312.08 573.467C312.08 568.945 315.726 565.293 320.225 565.293C324.724 565.293 328.37 568.96 328.37 573.467Z" fill="#E0E0E0"/>
<path d="M399.142 581.452H389.522C388.032 581.452 386.816 580.235 386.816 578.742V569.076C386.816 567.583 388.032 566.366 389.522 566.366H399.142C400.632 566.366 401.848 567.583 401.848 569.076V578.742C401.848 580.235 400.647 581.452 399.142 581.452Z" fill="#E0E0E0"/>
<path d="M572.166 372.867C572.846 366.911 573.497 360.926 573.149 354.941C572.802 348.955 571.399 342.927 568.245 337.84C567.768 337.072 563.992 332 563.124 332.275C562.502 332.463 565.193 337.362 564.976 337.97C562.979 343.84 563.428 350.318 565.149 356.274C566.856 362.23 569.214 367.418 572.166 372.867Z" fill="#263238"/>
<path d="M545.865 412.083C544.982 407.938 544.273 404.677 544.244 404.692C544.244 404.692 529.749 406.141 525.958 392.229C524.135 385.504 521.488 371.36 519.26 358.52C516.859 344.724 525.423 331.405 538.964 327.898L540.309 327.55C555.022 324.638 565.713 335.536 568.216 350.347L578.603 401.895L555.76 426.169L545.865 412.083Z" fill="#FFBE9D"/>
<path d="M544.23 404.692C544.23 404.692 553.142 402.924 560.983 394.605C560.983 394.605 559.305 406.098 545.07 408.445L544.23 404.692Z" fill="#EB996E"/>
<path d="M569.735 360.969C569.952 360.81 578.575 355.651 580.745 365.273C582.915 374.896 572.817 375.085 572.744 374.809C572.658 374.534 569.735 360.969 569.735 360.969Z" fill="#FFBE9D"/>
<path d="M574.856 370.505C574.885 370.462 575.044 370.577 575.363 370.65C575.666 370.708 576.158 370.693 576.621 370.389C577.547 369.78 578.039 367.983 577.706 366.23C577.533 365.346 577.157 364.563 576.694 363.94C576.245 363.302 575.681 362.911 575.146 362.94C574.61 362.94 574.321 363.331 574.263 363.621C574.191 363.926 574.292 364.099 574.249 364.128C574.234 364.157 574.003 364.013 573.988 363.592C573.988 363.389 574.046 363.143 574.234 362.911C574.422 362.665 574.741 362.505 575.102 362.462C575.854 362.346 576.679 362.882 577.185 363.563C577.735 364.244 578.169 365.128 578.372 366.114C578.748 368.07 578.169 370.099 576.867 370.824C576.231 371.157 575.623 371.07 575.276 370.911C574.929 370.737 574.827 370.534 574.856 370.505Z" fill="#EB996E"/>
<path d="M522.038 341.202C520.302 340.68 523.875 334.608 527.333 332.043C532.555 328.159 541.033 324.638 546.704 325C553.518 325.435 559.551 327.478 564.035 332.637C568.52 337.796 571.211 344.361 572.455 351.086C572.831 353.143 573.092 355.303 572.368 357.274C571.486 359.694 569.2 361.592 569.938 364.505C570.213 365.578 570.14 366.723 569.576 367.665C568.216 369.925 565.685 368.621 564.31 367.07C561.388 363.752 560.173 359.288 559.059 355.013C558.263 351.97 557.467 348.854 557.684 345.709C557.815 343.999 558.234 342.318 558.263 340.608C558.292 338.898 557.844 337.057 556.542 335.941C556.325 335.767 555.992 335.55 555.587 335.318C552.346 333.521 548.382 333.623 545.214 335.579C540.208 338.666 531.572 343.55 528.751 342.231C524.7 340.332 523.499 338.782 523.499 338.782L522.038 341.202Z" fill="#263238"/>
<path d="M544.62 319.623C545.286 319.551 561.561 319.13 568.332 329.652C575.088 340.173 574.856 343.984 574.856 343.984C574.856 343.984 575.883 344.303 576.809 344.955C577.634 345.55 577.619 349.404 575.507 349.506C558.769 346.651 540.787 350.491 521.097 356.143L505.849 359.81C501.726 361.389 499.947 360.636 501.466 359.1C502.637 357.926 513.488 350.013 513.488 350.013L515.426 347.68L519.506 337.376C519.506 337.376 518.421 336.362 519.708 334.956C520.967 333.565 531.6 321.058 544.62 319.623Z" fill="#FFC727"/>
<path d="M515.412 347.694C515.412 347.694 515.615 347.651 516.005 347.55C516.468 347.419 517.018 347.274 517.698 347.086C519.159 346.651 521.286 346.129 523.933 345.521C529.228 344.361 536.664 343.173 544.954 342.869C553.243 342.521 560.751 342.941 566.162 343.332C568.867 343.521 571.066 343.724 572.571 343.84C573.265 343.898 573.844 343.941 574.321 343.984C574.726 344.013 574.929 344.013 574.929 344.013C574.929 344.013 574.726 343.97 574.321 343.927C573.844 343.869 573.28 343.811 572.585 343.738C571.081 343.579 568.882 343.361 566.176 343.144C560.766 342.709 553.243 342.26 544.939 342.608C536.635 342.898 529.185 344.129 523.89 345.332C518.595 346.564 515.412 347.694 515.412 347.694Z" fill="#263238"/>
<g opacity="0.3">
<path d="M560.404 322.826C560.404 322.826 543.116 324.348 536.592 329.811C536.838 329.594 537.098 329.376 537.344 329.159C535.261 330.782 533.178 332.405 531.094 334.028C530.038 334.854 528.78 335.724 527.478 335.405C527.478 335.405 530.371 331.072 536.722 326.956C543.087 322.869 553.851 319.058 560.404 322.826Z" fill="black"/>
</g>
<path d="M560.664 322.855C560.664 322.855 560.071 322.58 558.928 322.261C557.786 321.942 556.107 321.565 553.981 321.478C551.869 321.377 549.322 321.565 546.603 322.261C543.897 322.942 540.961 324.087 538.414 326.13C537.141 327.13 536.013 328.246 534.942 329.318C533.886 330.42 532.816 331.405 531.89 332.478C530.964 333.536 530.139 334.565 529.185 335.347C528.244 336.159 527.159 336.535 526.146 336.811C522.081 337.898 519.361 337.695 519.477 337.391C519.477 337.376 519.564 337.55 519.882 337.637C520.186 337.709 520.649 337.767 521.242 337.738C522.428 337.709 524.136 337.521 526.19 336.999C527.203 336.738 528.36 336.362 529.329 335.521C530.313 334.738 531.166 333.695 532.078 332.652C532.989 331.608 534.074 330.608 535.13 329.521C536.201 328.449 537.315 327.347 538.588 326.362C541.091 324.348 543.999 323.203 546.675 322.522C549.366 321.826 551.883 321.609 553.981 321.696C556.078 321.754 557.757 322.101 558.9 322.391C559.464 322.536 559.912 322.667 560.202 322.768C560.505 322.826 560.664 322.855 560.664 322.855Z" fill="#263238"/>
<g opacity="0.3">
<path d="M570.979 334.086C567.999 334.825 565.539 334.623 562.429 334.724C559.101 334.84 555.846 335.072 552.519 335.028C550.002 334.985 547.065 335.13 545.083 333.811C545.17 335.101 545.821 336.13 546.949 336.767C548.078 337.405 551.275 337.695 552.562 337.724C559.941 337.854 565.033 337.912 572.31 336.594C572.064 335.869 570.979 334.086 570.979 334.086Z" fill="black"/>
</g>
<path d="M567.521 328.521C569.619 328.869 570.907 329.115 571.37 330.71C571.76 332.043 571.89 333.738 570.632 334.318C570.241 334.492 569.822 334.521 569.402 334.536C562.198 334.898 555.008 335.246 547.803 335.608C547.08 335.637 546.27 335.666 545.691 335.217C544.794 334.536 544.939 333.043 545.691 332.202C546.443 331.362 547.572 330.999 548.657 330.71C554.834 329 561.127 328.507 567.521 328.521Z" fill="#FFC727"/>
<path d="M546.096 335.419C546.125 335.39 545.676 335.289 545.314 334.666C544.967 334.086 544.765 332.898 545.503 331.854C546.284 330.854 547.759 330.217 549.409 329.884C551.072 329.55 552.924 329.202 554.863 328.913C558.754 328.304 562.313 328.101 564.888 328.188C566.176 328.217 567.217 328.304 567.926 328.376C568.216 328.405 568.49 328.434 568.751 328.463C568.939 328.478 569.04 328.478 569.04 328.478C569.04 328.463 568.939 328.449 568.751 328.42C568.49 328.376 568.23 328.333 567.926 328.289C567.217 328.188 566.176 328.072 564.874 328.029C562.284 327.898 558.711 328.072 554.805 328.681C552.852 328.97 551.014 329.333 549.336 329.681C547.673 330.028 546.154 330.695 545.329 331.767C544.548 332.898 544.823 334.144 545.199 334.738C545.401 335.057 545.633 335.231 545.792 335.333C545.994 335.405 546.096 335.434 546.096 335.419Z" fill="#263238"/>
<path d="M518.204 340.622L531.065 337.072L530.891 340.985L516.771 344.26L518.204 340.622Z" fill="white"/>
<path d="M540.671 347.144C540.656 347.071 534.696 347.709 527.332 348.578C519.968 349.433 514.022 350.201 514.022 350.274C514.037 350.346 519.997 349.709 527.361 348.839C534.71 347.97 540.671 347.216 540.671 347.144Z" fill="#263238"/>
<path d="M503.549 426.169L516.613 457.82L522.356 433.502C523.6 428.836 525.843 424.444 529.17 420.937C530.327 419.72 531.586 418.604 532.917 417.575L543.16 464.501C543.16 464.501 534.523 491.224 513.864 491.833C507.86 492.007 498.746 488.21 495.882 481.514C494.464 478.21 476.105 434.618 476.105 434.618L503.549 426.169Z" fill="#E0E0E0"/>
<path d="M509.104 451.472L509.857 446.791L494.507 433.749L491.773 436.821L483.021 446.864L516.092 473.732L524.078 464.124L509.104 451.472Z" fill="#263238"/>
<path d="M633.115 510.107C633.549 503.571 625.65 428.966 625.65 428.966L608.709 403.895L576.405 398.185C575.913 402.127 573.381 412.431 560.057 416.227C553.2 418.184 545.749 411.329 545.749 411.329L532.917 417.575L537.792 452.53L544.085 492.427L633.448 517.875C633.448 517.861 632.681 516.643 633.115 510.107Z" fill="#E0E0E0"/>
<path d="M548.092 496.543L544.1 448.429L590.828 438.951L632.811 501.224L634.04 522.498L569.46 520.469L548.092 496.543Z" fill="#FFC727"/>
<path d="M536.042 434.024C536.099 434.009 536.273 434.821 536.577 436.285C536.881 437.748 537.257 439.879 537.676 442.516C538.544 447.791 539.499 455.095 540.439 463.182C541.38 471.269 542.248 478.587 542.986 483.862C543.333 486.398 543.637 488.514 543.854 490.123C544.056 491.601 544.143 492.427 544.1 492.427C544.042 492.442 543.868 491.63 543.564 490.166C543.261 488.703 542.884 486.572 542.465 483.935C541.597 478.66 540.642 471.356 539.702 463.269C538.761 455.182 537.893 447.878 537.155 442.589C536.808 440.053 536.504 437.937 536.287 436.328C536.085 434.864 535.984 434.038 536.042 434.024Z" fill="#263238"/>
<path d="M509.119 451.385C509.119 451.385 515.383 452.182 517.597 453.313C519.795 454.458 526.19 458.718 526.19 458.718L539.109 461.167L536.027 482.529L527.391 478.239L508.352 480.138C508.352 480.138 504.215 479.196 504.2 476.225C504.2 476.225 500.858 474.326 500.511 470.631C500.511 470.631 495.419 463.935 494.956 462.631C494.493 461.341 497.082 458.284 497.082 458.284C497.082 458.284 502.522 462.906 505.82 463.617C509.133 464.341 512.114 463.037 512.388 460.907C512.967 456.588 509.119 451.385 509.119 451.385Z" fill="#FFBE9D"/>
<g opacity="0.3">
<path d="M543.391 488.239C543.391 488.239 586.733 503.803 601.287 502.89C613.613 502.108 619.675 496.325 620.644 488.239C621.628 480.167 622.973 445.835 622.973 445.835L599.71 486.224L543.159 484.442L543.391 488.239Z" fill="black"/>
</g>
<path d="M613.759 486.051C616.869 477.123 620.298 459.965 620.298 459.965L625.708 431.372C625.839 423.923 623.451 416.59 618.677 410.866C615.133 406.605 610.156 402.967 603.545 402.996C589.512 403.054 590.018 428.966 590.018 428.966L586.199 466.051L531.312 457.095L527.825 483.529L592.377 497.485C597.845 498.775 603.69 497.775 608.203 494.427C610.778 492.514 612.5 489.674 613.759 486.051Z" fill="#E0E0E0"/>
<path d="M605.093 405.301C605.093 405.431 603.979 405.474 602.257 405.938C600.55 406.387 598.25 407.358 596.21 409.126C594.17 410.894 592.883 413.025 592.188 414.648C591.479 416.286 591.262 417.387 591.147 417.358C591.06 417.343 591.089 416.199 591.696 414.445C592.289 412.706 593.577 410.402 595.733 408.547C597.888 406.692 600.347 405.75 602.141 405.416C603.95 405.069 605.093 405.214 605.093 405.301Z" fill="#263238"/>
<path d="M625.708 431.372C625.708 431.372 625.693 431.604 625.621 432.067C625.534 432.546 625.419 433.212 625.274 434.082C624.956 435.879 624.493 438.473 623.885 441.792C623.263 445.139 622.511 449.241 621.643 453.979C620.789 458.733 619.748 464.138 618.373 470.066C617.693 473.037 616.955 476.123 616.087 479.341C615.668 480.949 615.191 482.572 614.684 484.224C614.163 485.862 613.614 487.558 612.803 489.181C612.008 490.804 610.966 492.383 609.592 493.688C608.217 495.007 606.568 495.992 604.803 496.789C601.259 498.34 597.121 498.789 593.114 498.021C577.417 494.644 560.173 490.92 542.075 487.021C537.228 485.978 532.44 484.935 527.738 483.92L527.405 483.848L527.449 483.5C528.649 474.37 529.821 465.53 530.95 457.066L530.993 456.704L531.355 456.762C552.52 460.254 571.327 463.356 586.228 465.819L585.924 466.051C587.154 454.559 588.152 445.299 588.846 438.879C589.208 435.719 589.483 433.256 589.671 431.546C589.772 430.734 589.844 430.111 589.902 429.647C589.96 429.227 590.004 429.01 590.004 429.01C590.004 429.01 590.004 429.227 589.975 429.662C589.931 430.125 589.888 430.763 589.816 431.575C589.656 433.285 589.425 435.748 589.121 438.922C588.485 445.342 587.573 454.617 586.43 466.124L586.401 466.399L586.126 466.356C571.211 463.95 552.404 460.907 531.225 457.486L531.644 457.182C530.53 465.646 529.373 474.486 528.172 483.616L527.883 483.196C532.584 484.21 537.373 485.239 542.219 486.297C560.317 490.21 577.548 493.949 593.23 497.34C597.107 498.093 601.085 497.673 604.514 496.195C606.207 495.441 607.827 494.47 609.129 493.239C610.445 492.007 611.444 490.5 612.225 488.92C613.02 487.355 613.556 485.688 614.091 484.051C614.597 482.413 615.089 480.79 615.509 479.196C616.377 476.007 617.144 472.906 617.838 469.95C619.241 464.037 620.326 458.66 621.209 453.907C622.135 449.183 622.916 445.096 623.567 441.748C624.218 438.444 624.739 435.864 625.086 434.067C625.259 433.212 625.404 432.56 625.505 432.067C625.636 431.604 625.708 431.372 625.708 431.372Z" fill="#263238"/>
<path d="M592.579 475.457C592.406 475.573 590.771 473.399 588.919 470.602C587.993 469.225 587.197 467.877 586.633 467.008C586.04 466.109 585.36 466.095 585.346 465.993C585.346 465.95 585.519 465.863 585.867 465.921C586.214 465.979 586.662 466.24 587.038 466.674C587.791 467.559 588.601 468.79 589.541 470.196C591.393 472.979 592.753 475.341 592.579 475.457Z" fill="#263238"/>
<path d="M583.189 441.502C583.189 441.502 573.424 416.706 583.609 404.576C585.996 401.735 589.641 400.286 593.33 400.576C596.542 400.822 600.81 401.446 603.544 403.025C603.544 403.025 594.878 401.474 591.247 405.315C588.585 408.141 582.176 417.358 588.932 439.342L583.189 441.502Z" fill="#FFC727"/>
<path d="M544.274 449.603L534.32 416.909C535.304 414.619 538.226 413.72 540.31 414.097L549.93 449.603H544.274Z" fill="#FFC727"/>
<path d="M511.809 461.153C511.679 461.313 506.283 457.24 499.744 452.067C493.205 446.878 488.026 442.545 488.156 442.386C488.286 442.226 493.682 446.299 500.221 451.487C506.76 456.661 511.939 460.994 511.809 461.153Z" fill="#455A64"/>
<path d="M485.856 443.603L482.891 440.864L484.323 439.111L487.751 441.429L485.856 443.603Z" fill="#455A64"/>
<path d="M457.978 400.851C457.284 398.156 458.846 395.402 461.508 394.62C466.875 393.04 475.194 391.055 477.451 393.127C480.879 396.257 489.068 403.866 489.068 403.866L500.381 427.401L482.051 432.806L476.858 414.909C476.858 414.909 468.525 415.358 469.262 410.88C469.262 410.88 465.096 409.242 465.689 406.706C466.282 404.17 469.711 403.576 469.711 403.576L468.973 399.098L458.036 401.011L457.978 400.851Z" fill="#FFBE9D"/>
<path d="M466.976 407.068H457.761V396.17H466.976C469.985 396.17 472.416 398.605 472.416 401.619C472.416 404.619 469.985 407.068 466.976 407.068Z" fill="#455A64"/>
<path d="M474.008 401.431L460.163 397.851C460.163 397.851 456.445 396.808 458.369 400.837C460.308 404.866 466.109 403.967 468.351 406.358C470.579 408.75 471.852 412.778 481.082 414.271" fill="#FFBE9D"/>
<path d="M481.082 414.257C481.067 414.3 480.416 414.242 479.259 414.054C478.102 413.822 476.409 413.445 474.47 412.518C473.516 412.039 472.503 411.402 471.548 410.561C470.593 409.721 469.754 408.634 468.901 407.547C467.454 405.054 464.04 405.17 461.045 403.793C460.293 403.431 459.57 402.967 458.991 402.359C458.427 401.735 458.022 400.982 457.732 400.257C457.602 399.866 457.486 399.475 457.457 399.054C457.443 398.634 457.544 398.098 457.949 397.765C458.788 397.17 459.627 397.373 460.336 397.533C462.984 398.243 465.4 398.895 467.483 399.46C469.393 400.011 470.998 400.46 472.286 400.822C473.414 401.156 474.036 401.373 474.022 401.417C474.008 401.46 473.371 401.359 472.214 401.098C470.912 400.793 469.291 400.417 467.353 399.967C465.255 399.446 462.825 398.851 460.163 398.199C459.57 398.04 458.803 397.996 458.427 398.315C458.065 398.605 458.181 399.359 458.427 400.011C458.702 400.692 459.034 401.315 459.526 401.851C460.033 402.373 460.669 402.793 461.363 403.112C462.767 403.764 464.315 404.069 465.776 404.532C466.514 404.764 467.237 405.054 467.888 405.503C468.554 405.967 469.016 406.561 469.45 407.112C470.29 408.242 471.071 409.271 471.968 410.097C472.85 410.923 473.791 411.547 474.702 412.039C478.434 413.88 481.14 414.068 481.082 414.257Z" fill="#EB996E"/>
<path d="M480.257 481.877C477.176 481.877 474.007 480.08 472.213 477.08C470.072 473.515 469.855 468.529 471.635 464.37C471.75 464.095 471.881 463.834 472.011 463.588C471.953 463.472 471.91 463.356 471.866 463.254C470.897 460.849 470.738 458.197 470.564 455.646C470.043 447.154 469.551 439.27 469.074 431.372C468.597 423.459 468.105 415.561 467.584 407.054L468.307 407.01C468.828 415.517 469.32 423.43 469.797 431.328C470.275 439.226 470.752 447.11 471.288 455.603C471.432 458.037 471.591 460.544 472.459 462.791C473.573 460.979 475.049 459.762 476.64 459.37C477.841 459.081 479.186 459.356 480.271 460.124C481.313 460.863 481.964 461.936 482.08 463.153C482.21 464.428 481.733 465.703 480.763 466.689C479.794 467.66 478.492 468.182 477.248 468.066C475.063 467.848 473.414 466.196 472.416 464.414C472.373 464.501 472.344 464.588 472.3 464.675C470.608 468.616 470.81 473.355 472.835 476.718C474.948 480.254 479.114 482.007 482.514 480.775C485.885 479.572 488.518 475.486 488.908 470.848C489.227 467.051 488.301 462.936 486.073 458.226C485.147 456.284 484.091 454.385 483.064 452.545C482.008 450.661 480.922 448.719 479.968 446.704C479.288 445.255 478.651 443.69 478.651 442.023C478.651 440.458 479.389 438.487 481.009 437.864C481.776 437.574 482.702 437.734 483.425 438.284C484.149 438.835 484.539 439.676 484.452 440.531L483.729 440.458C483.787 439.864 483.512 439.255 482.977 438.85C482.442 438.444 481.791 438.328 481.255 438.516C480.011 438.995 479.375 440.618 479.375 441.994C479.375 443.516 479.982 444.994 480.619 446.371C481.559 448.356 482.644 450.284 483.686 452.168C484.713 454.023 485.798 455.921 486.724 457.892C489.009 462.718 489.964 466.964 489.632 470.892C489.284 475.036 487.028 479.906 482.76 481.442C481.95 481.746 481.111 481.877 480.257 481.877ZM472.821 463.617C473.863 465.732 475.584 467.182 477.335 467.341C478.347 467.443 479.447 467.008 480.257 466.182C481.067 465.356 481.472 464.283 481.371 463.24C481.27 462.24 480.734 461.341 479.866 460.733C478.955 460.095 477.812 459.849 476.828 460.095C475.28 460.443 473.863 461.718 472.821 463.617Z" fill="#455A64"/>
<path d="M564.468 615.175L597.916 603.712C597.916 603.712 620.774 633.928 627.168 632.406L607.319 566.641L554.472 582.351L564.468 615.175Z" fill="#455A64"/>
<path d="M588.947 584.235C588.904 582.858 590.075 581.539 591.45 581.452C592.824 581.365 594.17 582.539 594.227 583.916C594.285 585.292 592.94 586.916 591.566 586.843C590.191 586.785 588.687 585.321 588.961 583.959" fill="#E0E0E0"/>
<path d="M608.695 566.177L603.573 567.699L623.06 630.827C623.06 630.827 625.216 633.363 627.169 632.421L608.695 566.177Z" fill="#E0E0E0"/>
<path d="M597.916 604.886C598.235 604.784 597.888 603.132 598.452 601.234C598.958 599.321 600.101 598.089 599.884 597.828C599.739 597.553 597.96 598.611 597.323 600.915C596.672 603.205 597.642 605.031 597.916 604.886Z" fill="#263238"/>
<path d="M602.849 610.914C603.182 610.9 603.312 609.335 604.34 607.842C605.323 606.306 606.712 605.596 606.596 605.277C606.553 604.958 604.614 605.306 603.37 607.205C602.097 609.074 602.531 611.001 602.849 610.914Z" fill="#263238"/>
<path d="M612.268 612.335C612.253 612.016 610.517 612.059 608.998 613.422C607.479 614.769 607.248 616.494 607.551 616.552C607.87 616.653 608.521 615.393 609.765 614.291C611.009 613.161 612.325 612.668 612.268 612.335Z" fill="#263238"/>
<path d="M590.002 606.639C590.248 606.422 589.366 605.074 588.946 603.219C588.483 601.379 588.671 599.785 588.339 599.698C588.049 599.582 587.283 601.321 587.818 603.495C588.324 605.683 589.8 606.871 590.002 606.639Z" fill="#263238"/>
<path d="M560.403 525.817C559.116 525.455 502.463 586.336 501.176 596.393C499.888 606.451 501.942 615.219 508.641 620.9C515.339 626.58 591.551 608.002 591.551 608.002L584.346 576.018L611.891 566.728L587.268 521.585L560.403 525.817Z" fill="#FFC727"/>
<g opacity="0.3">
<path d="M547.008 539.309L545.199 541.265C545.199 541.265 577.663 575.394 587.631 574.916L603.573 569.51L549.641 536.353L547.008 539.309Z" fill="black"/>
</g>
<path d="M584.549 576.858C584.607 577.061 572.788 580.713 558.162 585.017C543.521 589.321 531.615 592.655 531.557 592.452C531.499 592.249 543.318 588.597 557.959 584.293C572.571 579.988 584.477 576.655 584.549 576.858Z" fill="#263238"/>
<path d="M513.791 580.38L524.8 615.378C524.8 615.378 492.988 638.348 494.405 645L562.906 626.044L547.976 570.815L513.791 580.38Z" fill="#455A64"/>
<path d="M545.17 606.538C546.602 606.538 547.919 607.77 547.991 609.205C548.049 610.625 546.805 612.002 545.387 612.016C543.955 612.045 542.32 610.61 542.421 609.176C542.523 607.755 544.071 606.234 545.46 606.538" fill="#E0E0E0"/>
<path d="M563.34 627.479L561.894 622.131L496.142 640.768C496.142 640.768 493.465 642.942 494.391 645L563.34 627.479Z" fill="#E0E0E0"/>
<path d="M523.6 615.32C523.701 615.654 525.423 615.335 527.362 615.958C529.315 616.523 530.573 617.74 530.834 617.523C531.123 617.378 530.067 615.509 527.709 614.799C525.351 614.074 523.441 615.045 523.6 615.32Z" fill="#263238"/>
<path d="M517.234 620.291C517.249 620.639 518.854 620.813 520.373 621.914C521.936 622.972 522.645 624.421 522.978 624.32C523.31 624.291 522.992 622.262 521.068 620.929C519.158 619.566 517.147 619.972 517.234 620.291Z" fill="#263238"/>
<path d="M515.527 630.029C515.846 630.015 515.86 628.218 514.486 626.624C513.126 625.015 511.361 624.725 511.289 625.044C511.173 625.378 512.46 626.073 513.56 627.406C514.703 628.711 515.195 630.087 515.527 630.029Z" fill="#263238"/>
<path d="M521.979 607.074C522.196 607.335 523.614 606.451 525.538 606.06C527.462 605.625 529.097 605.857 529.198 605.523C529.329 605.234 527.549 604.379 525.278 604.886C523.007 605.35 521.733 606.857 521.979 607.074Z" fill="#263238"/>
<g opacity="0.3">
<path d="M563.384 614.378L559.174 597.785L562.313 596.321L543.159 544.077L539.499 547.265L554.559 595.118L559.941 615.103L563.384 614.378Z" fill="black"/>
</g>
<path d="M518.175 485.022C510.667 483.471 502.753 485.036 496.619 489.645C491.483 493.514 487.187 499.717 488.576 509.455C491.671 531.121 519.303 605.089 519.303 605.089L557.554 593.567C557.771 593.495 557.988 592.872 557.872 593.06C557.554 593.567 538.472 531.947 538.949 532.672C539.47 533.44 577.547 564.221 593.374 569.887C609.635 575.713 625.722 568.742 633.462 557.902C637.165 552.7 637.426 529.904 633.462 517.846C633.462 517.846 523.079 486.5 521.025 485.732C520.446 485.529 519.39 485.282 518.175 485.022Z" fill="#FFC727"/>
<path d="M516.612 507.571C528.851 515.745 537.271 529.44 539.036 544.062L516.612 507.571Z" fill="#FFC727"/>
<path d="M634.952 557.163C634.952 557.163 634.807 557.41 634.489 557.888C634.199 558.381 633.65 559.033 632.941 559.917C631.451 561.598 629.049 563.946 625.403 566.235C621.772 568.511 616.897 570.873 610.763 571.815C607.71 572.264 604.354 572.467 600.853 571.945C597.366 571.482 593.677 570.54 590.162 568.728C588.354 567.945 586.618 566.902 584.78 565.975C583.015 564.917 581.164 563.902 579.341 562.743C575.681 560.467 571.905 558.004 568.085 555.323C560.404 549.99 552.36 543.975 544.013 537.324C542.971 536.483 541.929 535.643 540.888 534.787L539.325 533.483L538.906 533.106L538.703 532.904C538.833 532.947 538.341 532.73 538.978 532.99C539.47 532.469 539.123 532.73 539.224 532.672L539.253 532.788L539.528 533.759C540.338 536.382 541.148 539.034 541.987 541.715C543.68 547.077 545.416 552.584 547.195 558.207C550.769 569.453 554.515 581.177 558.378 593.321L558.494 593.669L558.147 593.77C545.705 597.524 532.728 601.437 519.404 605.451L519.072 605.552L518.956 605.219C516.496 598.582 513.921 591.524 511.361 584.35C505.805 568.786 500.539 553.526 495.881 538.657C493.552 531.222 491.382 523.875 489.646 516.556C489.443 515.643 489.197 514.73 489.009 513.817C488.836 512.89 488.677 511.977 488.503 511.064C488.112 509.252 487.953 507.368 487.968 505.513C487.982 501.789 489.053 498.093 491.035 495.036C495.071 488.905 501.885 485.311 508.626 484.384C512.026 483.891 515.44 484.08 518.681 484.819C519.491 485.022 520.301 485.224 521.097 485.427C521.878 485.659 522.659 485.891 523.426 486.123C524.974 486.587 526.508 487.051 528.027 487.5C540.208 491.137 551.55 494.528 561.908 497.63C582.596 503.847 599.348 508.876 610.951 512.354C616.723 514.107 621.208 515.47 624.275 516.397C625.779 516.861 626.937 517.223 627.733 517.469C628.514 517.716 628.904 517.861 628.904 517.861C628.904 517.861 628.499 517.759 627.718 517.542C626.908 517.31 625.751 516.977 624.232 516.542C621.15 515.643 616.651 514.325 610.864 512.644C599.247 509.209 582.466 504.267 561.734 498.137C551.362 495.065 540.005 491.702 527.81 488.094C526.291 487.645 524.743 487.181 523.195 486.732C522.413 486.5 521.647 486.268 520.865 486.036C520.084 485.848 519.303 485.645 518.522 485.456C515.368 484.746 512.012 484.572 508.699 485.051C502.116 485.964 495.491 489.5 491.599 495.427C489.689 498.383 488.648 501.919 488.648 505.528C488.648 507.339 488.792 509.151 489.183 510.962C489.357 511.875 489.516 512.774 489.689 513.687C489.863 514.6 490.109 515.499 490.326 516.412C492.062 523.687 494.232 531.02 496.561 538.454C501.219 553.308 506.5 568.554 512.041 584.119C514.601 591.278 517.162 598.35 519.636 604.973L519.173 604.741C532.497 600.727 545.474 596.828 557.915 593.089L557.669 593.553C553.821 581.409 550.103 569.67 546.53 558.424C544.765 552.801 543.029 547.294 541.351 541.918C540.526 539.222 539.716 536.57 538.906 533.947L538.631 532.947L538.602 532.802C538.718 532.715 538.327 532.918 538.848 532.367C539.528 532.657 539.065 532.469 539.224 532.541L539.398 532.686L539.745 532.99L541.293 534.295C542.334 535.15 543.376 535.99 544.418 536.831C552.736 543.483 560.765 549.526 568.418 554.874C572.237 557.569 575.984 560.033 579.63 562.322C581.438 563.482 583.276 564.496 585.041 565.554C586.864 566.496 588.585 567.54 590.379 568.308C593.851 570.119 597.468 571.047 600.925 571.539C604.383 572.061 607.696 571.887 610.719 571.453C616.796 570.554 621.656 568.25 625.273 566.018C628.919 563.772 631.335 561.453 632.839 559.815C633.563 558.96 634.112 558.323 634.431 557.844C634.763 557.395 634.952 557.163 634.952 557.163Z" fill="#263238"/>
<path d="M521.458 515.73C521.502 515.643 522.76 516.252 524.641 517.455C526.522 518.658 529.024 520.513 531.498 522.875C533.972 525.237 535.925 527.672 537.169 529.527C538.413 531.382 539.006 532.643 538.934 532.686C538.833 532.744 538.081 531.585 536.735 529.831C535.39 528.063 533.408 525.744 530.977 523.411C528.532 521.078 526.131 519.194 524.337 517.89C522.543 516.585 521.4 515.832 521.458 515.73Z" fill="#263238"/>
<path d="M534.508 511.47C534.595 511.426 535.173 512.513 535.897 514.354C536.62 516.194 537.488 518.788 538.139 521.745C538.79 524.687 539.123 527.411 539.238 529.382C539.354 531.353 539.296 532.585 539.195 532.585C538.964 532.599 538.718 527.73 537.416 521.904C536.128 516.064 534.291 511.557 534.508 511.47Z" fill="#263238"/>
<path d="M619.096 509.948L633.085 505.905L642.199 507.571L646.539 522.846C650.807 536.353 649.896 544.106 640.97 550.033C638.351 551.772 635.863 552.714 634.054 551.961C627.718 549.28 619.096 509.948 619.096 509.948Z" fill="#455A64"/>
<path d="M633.085 505.919L543.896 491.224L544.099 492.412L633.085 519.078V505.919Z" fill="#455A64"/>
<path d="M76.4285 575.438L67.6616 606.277C67.6616 606.277 95.5972 625.682 94.5266 631.537L35.0098 616.422L46.728 567.801L76.4285 575.438Z" fill="#455A64"/>
<path d="M49.8956 598.988C48.6659 599.017 47.5519 600.133 47.523 601.379C47.4941 602.625 48.608 603.799 49.8377 603.785C51.0674 603.785 52.4562 602.48 52.3405 601.234C52.2248 599.988 50.8504 598.698 49.6641 599.002" fill="#E0E0E0"/>
<g opacity="0.6">
<path d="M34.9951 616.422L36.3695 611.567L92.9351 627.87C92.9351 627.87 95.2932 629.711 94.5264 631.537L34.9951 616.422Z" fill="white"/>
</g>
<path d="M68.689 606.205C68.6022 606.495 67.1266 606.263 65.4629 606.842C63.7847 607.379 62.7286 608.48 62.4972 608.292C62.2367 608.161 63.1048 606.509 65.1446 605.842C67.1555 605.161 68.8192 605.958 68.689 606.205Z" fill="#263238"/>
<path d="M74.2875 610.422C74.2875 610.726 72.8986 610.9 71.6111 611.9C70.2946 612.856 69.7014 614.146 69.4266 614.059C69.1372 614.03 69.3687 612.262 71.0035 611.045C72.6093 609.828 74.3598 610.132 74.2875 610.422Z" fill="#263238"/>
<path d="M75.9654 618.9C75.6905 618.9 75.6471 617.32 76.79 615.9C77.9184 614.465 79.4519 614.175 79.5098 614.451C79.611 614.741 78.5115 615.378 77.6001 616.567C76.6598 617.726 76.2692 618.943 75.9654 618.9Z" fill="#263238"/>
<path d="M69.9325 598.959C69.7444 599.19 68.5147 598.451 66.8366 598.147C65.1729 597.814 63.7551 598.046 63.6683 597.756C63.5526 597.495 65.0716 596.727 67.0391 597.104C68.9921 597.48 70.1206 598.756 69.9325 598.959Z" fill="#263238"/>
<path d="M55.5524 582.698L54.178 614.769C54.178 614.769 85.8316 626.972 86.1354 632.914L24.7812 632.435L24.9115 582.38L55.5524 582.698Z" fill="#455A64"/>
<path d="M35.2267 611.915C34.0404 612.233 33.2014 613.581 33.4762 614.799C33.7366 616.016 35.0821 616.885 36.2828 616.596C37.4836 616.291 38.5252 614.712 38.1201 613.523C37.715 612.335 36.0947 611.407 34.9953 611.987" fill="#E0E0E0"/>
<g opacity="0.6">
<path d="M24.7812 632.421L24.9838 627.378L83.7339 629.725C83.7339 629.725 86.4537 630.957 86.1354 632.899L24.7812 632.421Z" fill="white"/>
</g>
<path d="M55.1766 614.451C55.1621 614.755 53.672 614.885 52.1819 615.842C50.6774 616.769 49.9106 618.074 49.6358 617.958C49.3609 617.9 49.8238 616.088 51.6322 614.943C53.4406 613.799 55.2489 614.175 55.1766 614.451Z" fill="#263238"/>
<path d="M61.5846 617.204C61.6569 617.494 60.3549 618.001 59.3278 619.291C58.2572 620.537 57.9968 621.929 57.693 621.914C57.4181 621.958 57.2156 620.175 58.5321 618.61C59.8196 617.03 61.5846 616.914 61.5846 617.204Z" fill="#263238"/>
<path d="M65.1871 625.059C64.9123 625.117 64.5072 623.595 65.2884 621.943C66.0552 620.276 67.4729 619.639 67.6031 619.885C67.7767 620.131 66.8508 621.03 66.2288 622.392C65.5777 623.74 65.4765 625.03 65.1871 625.059Z" fill="#263238"/>
<path d="M54.6846 607.118C54.5544 607.393 53.1801 606.958 51.4874 607.06C49.7948 607.132 48.4639 607.697 48.3192 607.436C48.1456 607.219 49.4476 606.103 51.444 606.002C53.4405 605.9 54.8438 606.871 54.6846 607.118Z" fill="#263238"/>
<path d="M17.6055 348.028V373.389L24.3182 472.182C24.3182 472.182 20.1372 520.107 17.5766 547.149C15.3487 570.641 18.9943 611.552 18.9943 611.552H58.055L72.03 475.109L80.6957 390.011L95.7702 351.289L17.6055 348.028Z" fill="#263238"/>
<path d="M113.535 348.028L117.311 450.994C117.051 470.312 111.727 506.383 104.841 524.397L73.4618 593.452L71.6535 599.669L48.3184 593.944L65.6642 349.767L113.535 348.028Z" fill="#263238"/>
<path d="M86.5115 375.302C86.526 375.302 86.5405 375.505 86.5549 375.925C86.5694 376.374 86.5839 376.969 86.5983 377.737C86.6128 379.36 86.6273 381.708 86.6562 384.693C86.6707 390.736 86.6417 399.475 86.4681 410.271C86.2656 421.068 85.9473 433.923 85.1806 448.183C84.3415 462.414 83.3867 478.167 80.0448 494.34C76.9634 510.528 73.6794 525.889 70.7715 539.86C67.8492 553.83 65.303 566.424 63.3789 577.047C61.4548 587.669 60.095 596.292 59.2993 602.277C58.8508 605.263 58.6193 607.596 58.3879 609.161C58.2866 609.915 58.1998 610.509 58.1419 610.958C58.084 611.364 58.0407 611.567 58.0262 611.567C58.0117 611.567 58.0262 611.364 58.0551 610.944C58.0985 610.509 58.1564 609.9 58.2287 609.147C58.4023 607.567 58.5904 605.234 58.9955 602.234C59.7043 596.234 60.9919 587.582 62.8437 576.945C64.6954 566.308 67.1837 553.685 70.0771 539.715C72.956 525.73 76.2111 510.383 79.2925 494.195C82.6199 478.066 83.5892 462.371 84.4717 448.139C85.2818 433.894 85.658 421.039 85.9184 410.257C86.1643 399.46 86.2801 390.736 86.3524 384.693C86.3813 381.708 86.4103 379.374 86.4392 377.737C86.4537 376.969 86.4681 376.374 86.4681 375.925C86.4826 375.519 86.4971 375.302 86.5115 375.302Z" fill="#455A64"/>
<path d="M135.685 321.725C135.685 321.725 136.553 324.609 136.264 327.652C135.974 330.681 135.83 338.159 127.757 340.709C119.685 343.26 112.075 337.188 109.601 334.449C107.127 331.71 107.417 322.754 107.417 322.754L120.683 316.826L135.685 321.725Z" fill="#FFC727"/>
<path d="M43.9794 207.614L37.2523 218.425L10.04 230.033L16.854 341.927L21.7438 362.201L112.35 359.187L114.592 343.477V268.017C112.538 248.655 103.207 236.627 94.5557 231.859L88.8847 227.975L86.7436 220.86L78.7579 213.367L53.1659 206.715L43.9794 207.614Z" fill="#FFC727"/>
<g opacity="0.3">
<path d="M13.8447 333.405C19.5302 342.347 30.7855 347.361 41.2306 345.608C50.3303 344.071 58.0122 338.057 66.7357 335.043C81.9115 329.811 99.2284 333.97 114.187 328.145C114.477 325.565 114.303 322.391 114.477 320.638C106.983 320.246 99.0114 319.841 92.4 316.29L86.3963 314.073L13.8447 333.405Z" fill="black"/>
</g>
<path d="M10.0393 230.033C10.0393 230.033 -2.87961 241.12 0.867321 269.973C4.33938 296.784 10.5023 334.144 18.7195 338.478C26.9367 342.811 44.6731 340.651 57.6499 333.275C70.6268 325.898 108.27 305.972 108.27 305.972L92.6888 278.234L42.5031 297.74C42.5031 297.74 36.0074 253.264 32.1158 245.598" fill="#FFC727"/>
<path d="M32.1452 245.598C32.1452 245.598 32.2899 245.873 32.5358 246.453C32.6516 246.743 32.8252 247.09 32.9843 247.511C33.129 247.945 33.2881 248.453 33.4762 249.032C34.214 251.337 35.0965 254.8 36.0513 259.293C37.9898 268.278 40.319 281.393 42.7929 297.711L42.4312 297.494C56.6088 291.958 73.6797 285.292 92.588 277.915L92.8628 277.799L93.0075 278.06C97.9407 286.828 103.178 296.146 108.603 305.783L108.791 306.117L108.458 306.291C98.1143 311.87 87.3365 317.696 76.2838 323.652C70.9599 326.522 65.694 329.362 60.5004 332.159C57.9108 333.55 55.3357 334.999 52.6448 336.159C49.954 337.304 47.2053 338.231 44.4421 338.999C38.9013 340.463 33.2447 341.274 27.7039 340.941C24.9407 340.767 22.192 340.318 19.6603 339.246L18.7199 338.825C18.4016 338.68 18.1123 338.449 17.823 338.26C17.2732 337.811 16.7814 337.318 16.3618 336.782C15.5227 335.71 14.8283 334.55 14.2352 333.362C11.8771 328.594 10.4882 323.623 9.20069 318.812C7.94207 313.986 6.94386 309.247 6.03244 304.667C4.25301 295.479 2.93652 286.871 1.83704 279.002C0.737552 271.147 -0.231731 263.959 0.0576069 257.626C0.274611 251.293 1.40303 245.902 2.90759 241.699C4.42661 237.497 6.26391 234.526 7.6672 232.642C8.36161 231.7 8.96922 231.033 9.38876 230.613C9.8083 230.193 10.0542 230.004 10.0542 230.004C10.0542 230.004 9.83724 230.222 9.43216 230.671C9.04156 231.12 8.44841 231.787 7.78294 232.743C6.42305 234.627 4.65808 237.613 3.18246 241.801C1.73577 245.989 0.65075 251.351 0.477147 257.641C0.23121 263.945 1.22943 271.075 2.35785 278.929C3.48626 286.784 4.84615 295.392 6.64005 304.552C7.55147 309.131 8.56415 313.855 9.82277 318.652C11.1103 323.435 12.5136 328.391 14.8283 333.057C15.407 334.217 16.0869 335.333 16.8826 336.347C17.2877 336.854 17.7362 337.304 18.228 337.709C18.5029 337.869 18.7344 338.072 19.0237 338.202L19.9207 338.608C22.3366 339.637 25.0275 340.072 27.7328 340.231C33.1724 340.55 38.7566 339.738 44.2395 338.289C46.9738 337.521 49.6791 336.608 52.341 335.478C54.9885 334.333 57.5202 332.898 60.1242 331.507C65.3178 328.71 70.5838 325.869 75.9076 322.985C86.9603 317.029 97.7527 311.218 108.111 305.624L107.966 306.131C102.556 296.479 97.3331 287.161 92.4144 278.379L92.8484 278.538C73.9257 285.857 56.8402 292.48 42.6337 297.972L42.3154 298.088L42.272 297.755C39.8705 281.437 37.6137 268.321 35.7764 259.322C34.865 254.815 34.0404 251.351 33.346 249.047C33.1724 248.467 33.0277 247.96 32.8975 247.525C32.7384 247.105 32.5937 246.743 32.4924 246.453C32.232 245.902 32.1452 245.598 32.1452 245.598Z" fill="#263238"/>
<path d="M36.4707 262.032L69.0502 259.887L76.2692 273.466L39.7258 280.045L36.4707 262.032Z" fill="#FFC727"/>
<path d="M36.4712 262.032C36.5001 262.046 36.6014 262.496 36.7605 263.336C36.9486 264.235 37.18 265.437 37.4839 266.959C38.0915 270.133 38.9595 274.567 40.0011 280.002L39.6684 279.77C48.4642 278.162 59.9654 276.06 72.5516 273.756C73.7813 273.539 74.9821 273.321 76.1828 273.104L75.9224 273.654C73.3907 268.872 70.9747 264.307 68.7324 260.061L69.0651 260.249C59.6038 260.8 51.5312 261.278 45.7155 261.612C42.88 261.756 40.5942 261.872 38.945 261.959C38.2072 261.988 37.5996 262.017 37.1222 262.032C36.7026 262.046 36.4856 262.046 36.4712 262.032C36.4567 262.017 36.6448 261.988 37.0354 261.959C37.4983 261.916 38.077 261.872 38.7859 261.8C40.4206 261.669 42.663 261.496 45.4551 261.264C51.3287 260.829 59.488 260.235 69.0362 259.539L69.2677 259.525L69.3689 259.728C71.6258 263.959 74.0562 268.524 76.6024 273.292L76.8483 273.741L76.342 273.828C75.1412 274.046 73.926 274.263 72.7108 274.48C60.1246 276.712 48.5944 278.756 39.7986 280.321L39.5092 280.364L39.4658 280.089C38.5255 274.553 37.7587 270.031 37.209 266.8C36.963 265.307 36.775 264.119 36.6303 263.22C36.5001 262.438 36.4422 262.017 36.4712 262.032Z" fill="#263238"/>
<path d="M42.5178 297.74C42.7204 297.9 39.7981 301.334 37.3676 306.247C34.9516 311.16 33.8956 315.551 33.6496 315.479C33.5628 315.45 33.722 314.334 34.1849 312.58C34.6478 310.827 35.458 308.421 36.6877 305.914C37.9318 303.407 39.3641 301.32 40.4925 299.9C41.6498 298.465 42.4455 297.682 42.5178 297.74Z" fill="#263238"/>
<path d="M75.2564 235.54C75.2274 235.583 74.5764 235.12 73.448 234.236C72.2183 233.25 70.627 231.989 68.7173 230.482L69.1369 230.424C67.6179 232.902 65.4768 235.772 62.6702 238.554L62.4387 238.786L62.1783 238.569C60.6014 237.265 58.9232 235.859 57.1872 234.41C51.8345 230.019 46.8289 226.236 43.1832 223.541C41.4472 222.265 40.0005 221.193 38.8576 220.352C37.8305 219.599 37.2807 219.164 37.3097 219.12C37.3386 219.077 37.9462 219.439 39.0168 220.12C40.0873 220.802 41.6208 221.816 43.487 223.12C47.2195 225.714 52.2829 229.453 57.6502 233.844C59.4006 235.279 61.0933 236.699 62.6412 238.033L62.1494 238.047C64.927 235.337 67.0826 232.54 68.6595 230.134L68.8331 229.859L69.0645 230.062C70.9018 231.656 72.4353 232.975 73.6361 234.018C74.7211 234.946 75.2998 235.497 75.2564 235.54Z" fill="#263238"/>
<path d="M88.6677 228.671C88.74 228.671 88.8557 229.323 88.9281 230.497C89.0004 231.656 89.0004 233.337 88.7689 235.337L88.6677 236.192L88.1758 235.468C87.1342 233.946 85.8177 232.192 84.2987 230.439C83.72 229.758 83.1268 229.12 82.5482 228.511C82.2733 228.222 81.955 227.874 81.7091 227.656C81.4197 227.482 81.4487 227.468 81.2027 227.743C80.3347 228.946 79.539 230.077 78.8012 231.105C77.4124 233.004 76.5155 234.163 76.4287 234.105C76.3419 234.047 77.0941 232.787 78.3672 230.816C79.0616 229.758 79.8284 228.598 80.653 227.352C80.7687 227.193 80.9568 226.932 81.3185 226.859C81.6801 226.787 81.9695 226.975 82.1575 227.12C82.5337 227.439 82.7652 227.714 83.0834 228.033C83.6766 228.642 84.2697 229.294 84.8629 229.975C86.3964 231.758 87.6984 233.555 88.7111 235.134L88.1179 235.265C88.6966 231.337 88.4941 228.671 88.6677 228.671Z" fill="#263238"/>
<path d="M30.6548 241.207C30.5535 241.265 29.8446 240.308 28.6294 238.801C27.4142 237.323 25.6782 235.265 23.2911 233.613C20.8896 231.975 18.3145 231.251 16.4338 230.932C14.5386 230.627 13.3379 230.584 13.3379 230.453C13.3379 230.381 14.5386 230.222 16.5061 230.396C18.4447 230.584 21.1934 231.265 23.7107 232.99C26.2134 234.714 27.935 236.888 29.049 238.468C30.1629 240.076 30.7271 241.149 30.6548 241.207Z" fill="#263238"/>
<path d="M101.471 261.249C101.269 261.307 100.111 258.191 98.896 254.293C97.6663 250.38 96.8417 247.177 97.0442 247.105C97.2468 247.047 98.3897 250.163 99.6194 254.061C100.835 257.959 101.659 261.177 101.471 261.249Z" fill="#263238"/>
<path d="M114.289 325.159C114.404 325.159 114.462 326.261 114.578 328.029C114.694 329.797 114.882 332.231 115.012 334.941C115.128 337.651 115.084 340.13 114.867 341.912C114.665 343.695 114.347 344.753 114.245 344.738C114.13 344.709 114.26 343.637 114.332 341.869C114.404 340.115 114.376 337.68 114.26 334.97C114.144 332.275 114.028 329.826 114.057 328.043C114.057 326.261 114.187 325.159 114.289 325.159Z" fill="#263238"/>
<path d="M55.1479 271.553C54.3378 272.394 54.7284 274.031 55.8279 274.423C56.9273 274.814 58.2583 273.799 58.1715 272.626C58.0847 271.466 56.6091 270.655 55.5819 271.22" fill="#E0E0E0"/>
<g opacity="0.3">
<path d="M34.2861 252.264L43.4292 279.379L73.5783 273.959L44.5142 285.364L42.0838 294.769L34.2861 252.264Z" fill="black"/>
</g>
<g opacity="0.3">
<path d="M38.0908 219.628L65.0427 244.09L69.2091 232.671L73.5782 234.12L68.9053 230.25C68.9053 230.25 63.7841 238.134 62.4097 238.265L38.0908 219.628Z" fill="black"/>
</g>
<path d="M89.4339 278.118C89.3905 278.132 89.188 277.538 88.8842 276.48C88.5369 275.263 88.1174 273.741 87.6111 271.944C86.5405 268.118 84.9926 262.843 83.0974 257.09C81.1878 251.337 79.2926 246.177 77.8748 242.467C77.2094 240.728 76.6451 239.25 76.1967 238.062C75.8061 237.018 75.618 236.439 75.6614 236.41C75.7048 236.395 75.9941 236.931 76.4715 237.946C76.949 238.946 77.6 240.424 78.3667 242.265C79.9147 245.931 81.8966 251.076 83.8063 256.844C85.7159 262.611 87.1771 267.93 88.1174 271.799C88.5948 273.727 88.942 275.307 89.159 276.393C89.3905 277.509 89.4773 278.118 89.4339 278.118Z" fill="#263238"/>
<path d="M89.0297 247.989C94.1221 253.09 107.041 266.35 107.041 266.35L110.499 264.263L92.2992 244.815C91.5325 244.003 90.3028 243.859 89.3769 244.467C88.1906 245.264 88.017 246.96 89.0297 247.989Z" fill="#263238"/>
<path d="M92.7041 278.234L97.0442 266.003C97.999 263.322 100.458 261.322 103.294 261.307C103.511 261.307 103.742 261.322 103.959 261.336C106.549 261.626 119.815 262.495 119.815 262.495L124.951 268.263C125.833 269.249 125.848 270.727 125.009 271.741L126.484 282.147L123.562 284.118L123.851 291.393C123.851 291.393 121.262 293.132 120.104 292.552C118.947 291.972 118.947 291.972 118.947 291.972L117.211 290.233L112.307 297.161L105.522 301.088L92.7041 278.234Z" fill="#FFBE9D"/>
<path d="M125.023 272.292C124.907 272.35 124.459 271.365 123.171 270.263C122.535 269.742 121.681 269.133 120.697 268.771C119.699 268.437 118.426 268.423 117.11 268.278C111.858 267.785 107.619 267.22 107.634 267.003C107.648 266.8 111.93 267.032 117.168 267.524C118.47 267.669 119.743 267.684 120.914 268.104C122.057 268.568 122.882 269.249 123.518 269.858C124.806 271.147 125.11 272.278 125.023 272.292Z" fill="#EB996E"/>
<path d="M124.734 281.857C124.604 281.871 124.546 280.726 123.664 279.19C122.824 277.669 121.016 275.872 118.528 274.886C116.025 273.901 113.522 273.785 111.743 273.741C109.949 273.712 108.835 273.756 108.82 273.64C108.806 273.553 109.905 273.307 111.728 273.205C113.537 273.104 116.141 273.133 118.803 274.176C121.479 275.234 123.345 277.248 124.126 278.929C124.951 280.654 124.806 281.871 124.734 281.857Z" fill="#EB996E"/>
<path d="M123.432 290.784C123.33 290.842 122.867 289.726 122.737 287.915C122.636 287.016 122.549 285.958 122.086 284.929C121.652 283.871 120.668 283.161 119.366 282.857C116.762 282.161 114.259 282.118 112.466 281.857C110.657 281.64 109.572 281.277 109.601 281.19C109.63 281.089 110.715 281.248 112.509 281.321C114.288 281.451 116.82 281.393 119.569 282.118C120.249 282.306 120.943 282.567 121.507 283.016C122.086 283.451 122.477 284.06 122.723 284.639C123.215 285.828 123.229 286.958 123.272 287.857C123.272 289.683 123.518 290.741 123.432 290.784Z" fill="#EB996E"/>
<path d="M130.665 267.814L73.4629 327L75.6619 329.231L116.647 324.609L171.794 271.988L171.737 269.452L130.665 267.814Z" fill="#455A64"/>
<g opacity="0.3">
<path d="M134.368 305.001C132.213 302.914 129.088 301.986 126.108 302.233C123.128 302.479 120.292 303.798 117.963 305.682C116.082 307.189 114.447 309.145 113.912 311.493C112.957 315.594 115.677 319.884 119.381 321.869L119.901 321.275C124.603 317.493 129.291 313.725 133.992 309.942C134.701 309.377 135.439 308.74 135.627 307.856C135.83 306.798 135.15 305.754 134.368 305.001Z" fill="black"/>
</g>
<path d="M128.322 299.479C128.322 299.479 133.877 299.581 135.671 300.494C137.479 301.392 142.441 306.711 142.441 306.711C142.441 306.711 142.441 310.319 140.995 310.464C140.995 310.464 141.139 310.899 141.284 312.913C141.429 314.942 141.718 316.087 138.984 317.826C138.984 317.826 139.273 321.145 138.26 322.014C137.248 322.884 136.09 323.609 136.09 323.609C136.09 323.609 132.922 327.507 131.041 327.217C129.161 326.927 126.455 329.246 126.455 329.246C126.455 329.246 116.271 325.014 117.341 323.811C118.412 322.609 120.857 319.884 120.857 319.884C120.857 319.884 113.869 314.783 114.014 313.203C114.159 311.609 114.737 311.464 114.737 311.464C114.737 311.464 114.448 308.435 116.907 308.146C116.907 308.146 118.788 304.392 120.654 304.247C122.535 304.102 135.222 308.725 135.222 308.725L130.463 304.682C130.463 304.682 125.703 303.957 125.848 302.378C126.021 300.769 128.322 299.479 128.322 299.479Z" fill="#FFBE9D"/>
<path d="M127.482 318.507C127.366 318.696 124.589 317.087 121.044 315.377C117.5 313.653 114.52 312.479 114.592 312.276C114.65 312.087 117.775 312.957 121.363 314.696C124.965 316.421 127.598 318.333 127.482 318.507Z" fill="#EB996E"/>
<path d="M134.094 314.087C134.021 314.276 130.318 313.073 125.818 311.392C121.319 309.711 117.731 308.189 117.804 308.001C117.876 307.812 121.58 309.015 126.079 310.696C130.578 312.363 134.166 313.884 134.094 314.087Z" fill="#EB996E"/>
<path d="M171.563 271.872C171.563 271.886 171.302 271.901 170.81 271.915C170.246 271.915 169.523 271.915 168.626 271.915C166.644 271.886 163.881 271.857 160.423 271.814C153.334 271.683 143.453 271.481 131.909 271.263L132.169 271.162C127.742 275.77 122.896 280.799 117.833 286.045C106.245 297.987 95.7705 308.798 88.1175 316.681C84.3272 320.536 81.2457 323.681 79.0467 325.913C78.0051 326.956 77.166 327.782 76.5584 328.391C75.9798 328.956 75.676 329.232 75.647 329.217C75.6326 329.203 75.9074 328.884 76.4427 328.275C77.0358 327.637 77.8315 326.782 78.8297 325.696C80.9853 323.42 84.0089 320.232 87.7269 316.305C95.3365 308.377 105.767 297.508 117.283 285.509C122.346 280.263 127.207 275.249 131.648 270.655L131.764 270.539H131.923C143.453 270.872 153.349 271.162 160.423 271.365C163.866 271.495 166.644 271.597 168.611 271.669C169.508 271.712 170.232 271.756 170.796 271.785C171.317 271.828 171.563 271.843 171.563 271.872Z" fill="#263238"/>
<path d="M101.485 154.008C99.8792 151.834 97.116 150.863 94.4541 150.385C92.9206 150.109 91.2424 149.979 89.8826 150.732C88.1031 151.718 87.3798 153.979 87.5534 156.008C87.7125 158.036 88.595 159.92 89.3039 161.819C90.0128 163.717 90.5914 165.79 90.1285 167.775L95.3221 180.166C97.1015 179.499 98.5482 178.021 99.1848 176.224C99.8213 174.427 99.6332 172.369 98.6784 170.717C100.313 169.833 101.528 168.181 101.89 166.355C102.252 164.529 101.745 162.543 100.559 161.109C102.917 159.804 103.091 156.181 101.485 154.008Z" fill="#263238"/>
<path d="M53.5705 186.354C53.368 178.006 53.1654 169.659 52.9629 161.297L37.1506 160.573C35.2409 161.065 33.664 162.703 33.2734 164.645C32.8828 166.587 33.6785 168.717 35.2554 169.92C32.8394 171.007 31.2336 173.717 31.4361 176.369C31.6387 179.021 33.6351 181.441 36.1958 182.151C34.7491 183.948 34.3729 186.528 35.212 188.673C36.0655 190.818 38.1199 192.426 40.3912 192.73C40.4635 195.687 42.0259 198.875 44.8614 199.687C47.8561 200.542 51.0388 198.339 52.3698 195.527C53.6862 192.73 53.6428 189.47 53.5705 186.354Z" fill="#263238"/>
<path d="M36.7021 157.819C36.7021 157.819 38.2646 178.528 40.2899 184.847C42.3153 191.165 46.7711 197.977 46.7711 197.977L95.0327 182.963C96.6675 171.775 98.3456 160.529 97.6657 151.718L82.2729 146.225L36.7021 157.819Z" fill="#263238"/>
<path d="M46.9155 184.861C45.0204 179.282 43.1397 173.644 42.2138 167.819C41.3024 161.993 41.3892 155.892 43.3567 150.327C43.6605 149.486 46.2211 143.82 47.1181 143.892C47.7546 143.95 46.1922 149.225 46.5249 149.761C49.6643 154.993 50.5901 161.326 50.1851 167.413C49.7945 173.499 48.6082 178.992 46.9155 184.861Z" fill="#263238"/>
<path d="M80.4213 223.657C80.4213 223.657 80.4213 209.628 80.4502 209.628C80.4502 209.628 94.7146 207.976 95.438 193.788C95.7852 186.934 95.3656 172.76 94.8448 159.935C94.2806 146.153 83.2279 135.124 69.4698 134.588L68.11 134.53C53.3392 134.82 45.3246 147.544 46.019 162.326L45.9756 210.382L75.1987 231.482L80.4213 223.657Z" fill="#FFBE9D"/>
<path d="M80.4498 209.628C80.4498 209.628 71.4948 209.802 62.207 203.44C62.207 203.44 66.3012 213.947 80.4932 213.222L80.4498 209.628Z" fill="#EB996E"/>
<path d="M46.7567 172.905C46.5252 172.789 37.1362 169.645 37.0639 179.354C36.9915 189.064 46.7422 187.137 46.7712 186.861C46.7856 186.586 46.7567 172.905 46.7567 172.905Z" fill="#FFBE9D"/>
<path d="M43.8198 183.151C43.7764 183.122 43.6462 183.267 43.3568 183.397C43.082 183.528 42.6046 183.615 42.0982 183.412C41.0711 183.035 40.232 181.398 40.1886 179.644C40.1741 178.76 40.3622 177.919 40.6805 177.224C40.9843 176.514 41.4472 176.021 41.968 175.934C42.4888 175.818 42.8505 176.137 42.9662 176.412C43.0964 176.688 43.0241 176.876 43.082 176.891C43.1109 176.92 43.2845 176.731 43.2122 176.325C43.1688 176.137 43.0675 175.905 42.836 175.717C42.6046 175.528 42.2573 175.427 41.9101 175.456C41.1579 175.499 40.4779 176.18 40.1307 176.949C39.7401 177.717 39.5086 178.659 39.5231 179.659C39.5665 181.615 40.5647 183.455 41.9535 183.876C42.6335 184.064 43.2122 183.861 43.5015 183.629C43.8053 183.383 43.8632 183.166 43.8198 183.151Z" fill="#EB996E"/>
<path d="M88.5372 143.863C90.0997 142.994 85.3834 137.907 81.5208 136.168C75.6906 133.53 66.779 131.907 61.4118 133.443C54.9451 135.298 49.5634 138.53 46.3373 144.428C43.0967 150.341 41.8814 157.21 42.084 163.949C42.1419 166.007 42.3589 168.152 43.4583 169.876C44.8182 172.021 47.4223 173.369 47.3065 176.34C47.2631 177.427 47.5814 178.514 48.3192 179.311C50.0987 181.195 52.2687 179.412 53.2669 177.63C55.3935 173.818 55.625 169.282 55.7986 164.92C55.9288 161.819 56.0446 158.66 55.1765 155.674C54.6991 154.051 53.9324 152.529 53.5418 150.877C53.1512 149.24 53.1946 147.37 54.2217 146.022C54.3809 145.805 54.6557 145.53 55.0029 145.225C57.7516 142.805 61.5854 142.081 65.0285 143.298C70.497 145.225 79.8282 148.095 82.2586 146.24C85.7596 143.559 86.5987 141.82 86.5987 141.82L88.5372 143.863Z" fill="#263238"/>
<path d="M61.1082 123.386C60.4283 123.458 43.8347 126.632 39.2921 138.791C34.764 150.95 35.849 154.761 35.849 154.761C35.849 154.761 34.8797 155.312 34.084 156.181C33.3751 156.964 34.2432 160.877 36.4132 160.5C52.7463 153.906 71.8137 153.834 92.9933 155.196L109.24 155.544C113.768 156.225 115.403 155.065 113.522 153.863C112.075 152.935 99.3442 147.312 99.3442 147.312L96.8704 145.37L90.476 135.834C90.476 135.834 91.344 134.559 89.7382 133.429C88.1469 132.298 74.6058 121.965 61.1082 123.386Z" fill="#FFC727"/>
<path d="M96.8699 145.385C96.8699 145.385 96.6529 145.385 96.2334 145.37C95.7415 145.341 95.1484 145.312 94.425 145.269C92.8481 145.153 90.5768 145.095 87.7558 145.066C82.1282 145.066 74.3305 145.501 65.8674 147.037C57.4042 148.515 49.8814 150.602 44.4853 152.196C41.78 152.979 39.6099 153.674 38.1054 154.138C37.4109 154.355 36.8467 154.529 36.3693 154.674C35.9787 154.79 35.7617 154.848 35.7617 154.848C35.7617 154.848 35.9643 154.761 36.3549 154.631C36.8178 154.471 37.3965 154.283 38.0764 154.051C39.5665 153.558 41.7366 152.848 44.4419 152.037C49.838 150.399 57.3463 148.283 65.8384 146.805C74.316 145.269 82.1282 144.863 87.7703 144.921C93.4123 144.936 96.8699 145.385 96.8699 145.385Z" fill="#263238"/>
<g opacity="0.3">
<path d="M45.8164 130.124C45.8164 130.124 63.6686 127.849 71.4807 131.936C71.1769 131.777 70.8731 131.603 70.5693 131.443C73.0431 132.632 75.5025 133.82 77.9619 135.008C79.206 135.602 80.6817 136.211 81.9258 135.617C81.9258 135.617 78.0342 131.878 70.6995 129.11C63.3648 126.342 51.6176 124.864 45.8164 130.124Z" fill="black"/>
</g>
<path d="M45.5566 130.212C45.5566 130.212 46.0919 129.791 47.1769 129.226C48.262 128.646 49.8822 127.893 52.0089 127.342C54.1211 126.777 56.7396 126.415 59.6474 126.502C62.5408 126.603 65.7814 127.11 68.7905 128.617C70.3095 129.342 71.6839 130.226 73.0148 131.081C74.3313 131.951 75.6333 132.733 76.8052 133.603C77.9625 134.472 79.0331 135.342 80.176 135.907C81.3044 136.53 82.4907 136.661 83.5757 136.719C87.9302 136.921 90.65 136.11 90.4619 135.835C90.4619 135.82 90.4041 136.023 90.1003 136.168C89.8109 136.313 89.348 136.458 88.7404 136.574C87.5396 136.806 85.7602 136.994 83.5612 136.921C82.4762 136.878 81.2176 136.748 80.0602 136.124C78.8884 135.545 77.8034 134.675 76.646 133.82C75.4887 132.965 74.1722 132.197 72.8702 131.327C71.5392 130.472 70.1649 129.603 68.6748 128.878C65.6946 127.386 62.4974 126.878 59.6329 126.762C56.754 126.647 54.15 126.994 52.0523 127.531C49.9401 128.052 48.3054 128.777 47.2203 129.313C46.6706 129.588 46.2511 129.82 45.9762 129.98C45.7158 130.139 45.5566 130.212 45.5566 130.212Z" fill="#263238"/>
<g opacity="0.3">
<path d="M37.5707 143.863C40.7534 143.95 43.1983 143.196 46.3811 142.617C49.7663 141.994 53.1226 141.515 56.479 140.733C59.0251 140.139 62.0343 139.631 63.7413 137.849C63.9294 139.182 63.4954 140.356 62.4972 141.255C61.499 142.153 58.3307 143.153 57.0142 143.457C49.5782 145.225 44.4136 146.399 36.7461 146.675C36.8618 145.906 37.5707 143.863 37.5707 143.863Z" fill="black"/>
</g>
<path d="M39.8559 137.457C37.816 138.269 36.5574 138.82 36.4417 140.53C36.3404 141.965 36.5719 143.718 37.9752 144.022C38.4092 144.109 38.8432 144.037 39.2772 143.964C46.6553 142.733 54.019 141.501 61.3971 140.269C62.1494 140.139 62.9595 139.979 63.4514 139.399C64.2037 138.501 63.7407 137.037 62.7859 136.342C61.8456 135.66 60.6159 135.545 59.4441 135.487C52.8182 135.153 46.3226 136.037 39.8559 137.457Z" fill="#FFC727"/>
<path d="M63.0904 139.733C63.0615 139.704 63.481 139.501 63.7125 138.791C63.9295 138.124 63.8861 136.878 62.9023 135.979C61.8897 135.139 60.2549 134.82 58.5189 134.849C56.7539 134.878 54.8153 134.936 52.7755 135.066C48.7103 135.313 45.0502 135.892 42.4606 136.545C41.1586 136.863 40.1314 137.182 39.4225 137.4C39.1332 137.501 38.8583 137.588 38.5979 137.66C38.4099 137.718 38.3086 137.747 38.3086 137.733C38.3086 137.718 38.3954 137.675 38.5835 137.602C38.8294 137.501 39.1043 137.4 39.3791 137.284C40.088 137.023 41.1152 136.675 42.4027 136.342C44.9923 135.632 48.6669 135.023 52.7466 134.776C54.7864 134.646 56.7394 134.603 58.5044 134.588C60.2694 134.574 61.9475 134.907 63.0181 135.82C64.0597 136.805 64.0597 138.11 63.7993 138.805C63.6691 139.168 63.4666 139.399 63.3219 139.544C63.1772 139.689 63.0904 139.733 63.0904 139.733Z" fill="#263238"/>
<path d="M92.4868 138.834L78.6709 138.066L79.7125 142.008L94.7436 142.211L92.4868 138.834Z" fill="white"/>
<path d="M71.1631 150.399C71.1486 150.327 77.3405 149.645 84.9935 148.892C92.632 148.138 98.8383 147.588 98.8528 147.66C98.8672 147.732 92.6754 148.414 85.0224 149.167C77.3839 149.935 71.1776 150.486 71.1631 150.399Z" fill="#263238"/>
<path d="M117.312 345.955H11.0234V363.737H117.312V345.955Z" fill="#455A64"/>
<path d="M53.4835 414.561H24.2748C18.7484 414.561 14.2637 410.068 14.2637 404.533V354.564H63.4801V404.533C63.4801 410.068 59.0098 414.561 53.4835 414.561Z" fill="#455A64"/>
<path d="M63.4807 370.795C63.4229 370.795 63.3505 369.693 63.2782 367.708C63.148 365.737 63.1624 362.81 62.1932 359.448C61.9183 358.621 61.5711 357.781 60.9201 357.158C60.2401 356.491 59.4589 355.882 58.6054 355.332C56.8693 354.274 54.7427 353.622 52.4425 353.375C47.8275 353.028 42.6194 353.187 37.2233 353.23C31.7982 353.419 26.5901 352.796 22.062 353.781C19.8341 354.259 17.693 355.1 16.4199 356.636C15.1612 358.201 14.814 360.172 14.626 361.897C14.2932 365.404 14.3656 368.302 14.3077 370.288C14.2788 371.215 14.2643 371.969 14.2354 372.577C14.2064 373.099 14.192 373.374 14.163 373.374C14.1341 373.374 14.1052 373.099 14.0907 372.577C14.0762 371.969 14.0473 371.215 14.0184 370.288C14.0039 368.302 13.8448 365.418 14.1052 361.839C14.2643 360.085 14.5681 357.984 15.9425 356.23C17.3602 354.491 19.6315 353.607 21.9318 353.085C24.2609 352.564 26.7637 352.419 29.3388 352.448C31.885 352.491 34.5324 352.491 37.2377 352.448C42.6628 352.404 47.7986 352.259 52.5437 352.651C54.9163 352.912 57.1442 353.622 58.9526 354.767C59.8495 355.346 60.6597 355.998 61.3541 356.709C62.0919 357.448 62.4536 358.404 62.7284 359.259C63.6543 362.766 63.5531 365.694 63.5965 367.679C63.582 368.607 63.5675 369.36 63.5531 369.969C63.5241 370.519 63.5097 370.795 63.4807 370.795Z" fill="#263238"/>
<path d="M63.1336 376.055C63.1336 376.258 52.3123 376.432 38.9594 376.432C25.6064 376.432 14.7852 376.258 14.7852 376.055C14.7852 375.853 25.6064 375.679 38.9594 375.679C52.2979 375.679 63.1336 375.853 63.1336 376.055Z" fill="#263238"/>
<path d="M28.3547 415.112C28.1521 415.112 27.9785 406.344 27.9785 395.533C27.9785 384.722 28.1521 375.954 28.3547 375.954C28.5572 375.954 28.7308 384.722 28.7308 395.533C28.7308 406.344 28.5717 415.112 28.3547 415.112Z" fill="#263238"/>
<path d="M50.547 414.938C50.3445 414.938 50.1709 406.257 50.1709 395.533C50.1709 384.809 50.3445 376.128 50.547 376.128C50.7496 376.128 50.9232 384.809 50.9232 395.533C50.9232 406.242 50.7496 414.938 50.547 414.938Z" fill="#263238"/>
<path d="M117.312 345.955L123.446 354.549C123.446 354.549 128.929 405.75 126.498 408.112C124.068 410.474 115.836 410.474 115.836 410.474L113.594 349.144L117.312 345.955Z" fill="#455A64"/>
<path d="M98.0566 363.027C97.8541 363.042 97.3333 359.187 97.261 354.404C97.1886 349.607 97.6226 345.738 97.8252 345.752C98.0422 345.767 97.9554 349.636 98.0277 354.39C98.0711 359.143 98.2736 363.013 98.0566 363.027Z" fill="#263238"/>
<path d="M117.413 346.245C117.514 346.231 117.789 347.332 118.064 349.129C118.353 350.926 118.643 353.433 118.787 356.201C118.86 357.578 118.903 358.955 118.628 360.187C118.368 361.418 117.717 362.462 116.965 363.071C116.212 363.694 115.431 363.911 114.896 363.911C114.361 363.911 114.086 363.781 114.1 363.737C114.086 363.607 115.344 363.897 116.617 362.665C117.239 362.085 117.746 361.172 117.948 360.042C118.165 358.911 118.122 357.622 118.035 356.245C117.76 350.723 117.211 346.274 117.413 346.245Z" fill="#263238"/>
<path d="M605.367 354.332L612.138 347.926C617.389 348.738 622.916 348.144 628.167 345.927C643.271 339.536 650.359 322.102 643.98 306.957C637.6 291.828 620.196 284.726 605.078 291.117C589.975 297.508 582.886 314.942 589.266 330.087C591.928 336.405 596.514 341.318 602.054 344.434H602.04L605.367 354.332Z" fill="white"/>
<path d="M605.367 354.332C605.367 354.332 605.295 354.1 605.164 353.665C605.02 353.216 604.817 352.593 604.542 351.752C603.993 350.071 603.183 347.608 602.141 344.405L602.025 344.521H602.04C602.083 344.535 602.141 344.506 602.155 344.448C602.17 344.405 602.141 344.361 602.112 344.347C598.756 342.419 594.676 339.231 591.566 334.188C590.784 332.942 590.076 331.579 589.453 330.116C588.918 328.623 588.296 327.101 587.949 325.449C587.168 322.174 586.893 318.551 587.356 314.826C587.833 311.102 589.048 307.291 591.088 303.769C593.114 300.233 595.978 296.987 599.522 294.465C606.553 289.335 616.579 287.436 625.693 290.451C630.308 291.987 634.532 294.552 637.758 297.958C641.013 301.334 643.372 305.392 644.731 309.624C646.106 313.855 646.381 318.276 645.845 322.377C645.296 326.493 643.907 330.319 641.983 333.594C640.059 336.869 637.585 339.593 634.923 341.709C634.59 341.97 634.243 342.231 633.91 342.477C633.577 342.738 633.245 342.985 632.883 343.187C632.174 343.622 631.494 344.043 630.814 344.463C629.382 345.144 628.022 345.883 626.619 346.361C621.035 348.39 615.884 348.376 612.138 347.825C612.109 347.825 612.08 347.825 612.065 347.854C609.895 349.941 608.231 351.535 607.089 352.636C606.524 353.173 606.105 353.593 605.801 353.883C605.526 354.187 605.367 354.332 605.367 354.332C605.367 354.332 605.512 354.201 605.801 353.941C606.105 353.665 606.539 353.259 607.103 352.738C608.275 351.651 609.982 350.057 612.21 347.999L612.138 348.028C615.899 348.637 621.078 348.68 626.735 346.651C628.152 346.173 629.527 345.434 630.988 344.753C631.682 344.332 632.377 343.912 633.086 343.477C633.447 343.274 633.794 343.028 634.127 342.767C634.46 342.506 634.807 342.246 635.14 341.999C637.845 339.869 640.348 337.115 642.301 333.811C644.269 330.507 645.686 326.637 646.236 322.464C646.786 318.305 646.525 313.826 645.137 309.537C643.762 305.247 641.375 301.131 638.077 297.711C634.807 294.248 630.525 291.654 625.852 290.088C625.288 289.871 624.695 289.726 624.116 289.596L622.366 289.161L620.586 288.9C619.993 288.813 619.414 288.712 618.807 288.712C618.214 288.683 617.621 288.654 617.027 288.625C616.434 288.581 615.856 288.668 615.262 288.668C614.669 288.712 614.091 288.697 613.512 288.77C612.933 288.857 612.355 288.944 611.776 289.03C607.19 289.784 602.879 291.581 599.305 294.175C595.718 296.755 592.824 300.044 590.77 303.624C588.716 307.204 587.486 311.073 587.023 314.841C586.546 318.609 586.835 322.275 587.645 325.58C588.007 327.246 588.629 328.782 589.179 330.29C589.801 331.768 590.538 333.13 591.32 334.391C594.488 339.463 598.611 342.651 602.011 344.55L602.083 344.376H602.069C602.025 344.361 601.967 344.39 601.953 344.448C601.953 344.463 601.953 344.492 601.953 344.506C603.052 347.724 603.906 350.202 604.485 351.883C604.774 352.694 604.976 353.317 605.136 353.752C605.295 354.129 605.367 354.332 605.367 354.332Z" fill="#263238"/>
<path d="M601.172 318.029L605.628 314.015L613.411 321.725L627.545 308.537L631.249 312.986L612.369 329.884L601.172 318.029Z" fill="#263238"/>
</g>
<defs>
<clipPath id="clip0_339_2528">
<rect width="649" height="645" fill="white"/>
</clipPath>
</defs>
</svg>
