<svg width="722" height="490" viewBox="0 0 722 490" fill="none" xmlns="http://www.w3.org/2000/svg">
<g clip-path="url(#clip0_338_1417)">
<path d="M580.275 54.3669C583.674 52.3057 587.294 50.7542 591.037 49.6904L593.251 39.0298L611.244 38.7195L613.835 49.2914C617.61 50.2223 621.275 51.6518 624.752 53.5911L633.842 47.6292L646.786 60.1404L641.15 69.4491C643.209 72.8511 644.76 76.486 645.822 80.2205L656.474 82.4368L656.795 100.445L646.232 103.038C645.302 106.806 643.874 110.485 641.936 113.964L647.893 123.062L635.392 136.017L626.092 130.376C622.693 132.438 619.072 133.989 615.329 135.053L613.115 145.713L595.123 146.035L592.532 135.463C588.767 134.532 585.091 133.102 581.614 131.163L572.524 137.125L559.581 124.614L565.216 115.305C563.157 111.903 561.596 108.279 560.544 104.534L549.892 102.317L549.571 84.3096L560.134 81.7165C561.064 77.9487 562.493 74.2696 564.43 70.79L558.473 61.6919L570.974 48.7373L580.275 54.3669ZM589.863 78.3477C582.456 86.0273 582.677 98.2504 590.339 105.664C598.012 113.078 610.225 112.856 617.632 105.188C625.04 97.508 624.818 85.2848 617.156 77.8712C609.494 70.4575 597.271 70.6791 589.863 78.3477Z" fill="#E0E0E0"/>
<path d="M676.116 128.038C677.523 126.465 679.117 125.113 680.844 124.004L680.313 118.264L689.381 115.316L692.326 120.27C694.386 120.159 696.467 120.314 698.527 120.758L702.214 116.325L710.706 120.658L709.289 126.243C710.861 127.65 712.212 129.246 713.319 130.975L719.055 130.443L722 139.519L717.051 142.467C717.161 144.517 717.006 146.611 716.563 148.672L720.992 152.363L716.663 160.862L711.083 159.444C709.676 161.017 708.082 162.369 706.355 163.478L706.886 169.218L697.818 172.166L694.873 167.212C692.813 167.323 690.732 167.168 688.672 166.724L684.985 171.157L676.493 166.824L677.91 161.239C676.338 159.832 674.987 158.236 673.88 156.507L668.144 157.039L665.199 147.963L670.148 145.015C670.038 142.965 670.193 140.871 670.636 138.821L666.207 135.131L670.536 126.631L676.116 128.038ZM684.686 138.71C682.118 143.752 684.122 149.914 689.16 152.473C694.197 155.044 700.354 153.039 702.911 147.996C705.48 142.965 703.476 136.793 698.438 134.233C693.4 131.673 687.244 133.668 684.686 138.71Z" fill="#E0E0E0"/>
<path d="M640.873 198.673C642.346 197.033 644.007 195.625 645.811 194.451L645.258 188.444L654.736 185.364L657.814 190.539C659.962 190.417 662.132 190.583 664.291 191.049L668.144 186.417L677.024 190.938L675.54 196.778C677.179 198.252 678.596 199.914 679.759 201.72L685.76 201.166L688.838 210.652L683.667 213.733C683.789 215.883 683.623 218.055 683.158 220.216L687.786 224.072L683.269 232.96L677.434 231.475C675.961 233.115 674.3 234.522 672.496 235.697L673.049 241.703L663.571 244.784L660.493 239.609C658.345 239.731 656.175 239.564 654.016 239.099L650.163 243.731L641.283 239.21L642.767 233.37C641.128 231.896 639.711 230.234 638.548 228.427L632.547 228.981L629.469 219.495L634.639 216.415C634.518 214.265 634.684 212.093 635.149 209.932L630.521 206.075L635.038 197.188L640.873 198.673ZM649.831 209.821C647.151 215.085 649.244 221.523 654.503 224.205C659.762 226.887 666.195 224.792 668.875 219.529C671.554 214.265 669.462 207.826 664.202 205.145C658.943 202.463 652.51 204.557 649.831 209.821Z" fill="#F5F5F5"/>
<path d="M364.366 30.497C366.06 28.6131 367.976 26.9841 370.057 25.6432L369.426 18.7393L380.332 15.1931L383.875 21.1551C386.345 21.0221 388.858 21.2105 391.327 21.7424L395.756 16.4121L405.976 21.6205L404.271 28.3471C406.153 30.0426 407.78 31.9597 409.12 34.0431L416.018 33.4114L419.561 44.3269L413.604 47.8731C413.737 50.3443 413.549 52.8488 413.018 55.3311L418.343 59.7638L413.139 69.9922L406.419 68.2856C404.724 70.1695 402.809 71.7985 400.727 73.1394L401.358 80.0544L390.452 83.6005L386.909 77.6385C384.44 77.7715 381.938 77.5831 379.458 77.0512L375.029 82.3815L364.809 77.1731L366.514 70.4465C364.632 68.751 363.004 66.8339 361.664 64.7505L354.778 65.3822L351.234 54.4667L357.191 50.9206C357.058 48.4493 357.247 45.9449 357.778 43.4626L352.452 39.0299L357.656 28.8015L364.366 30.497ZM374.674 43.3296C371.585 49.3913 373.999 56.8049 380.055 59.8857C386.112 62.9775 393.519 60.5616 396.597 54.4999C399.687 48.4382 397.273 41.0246 391.216 37.9439C385.171 34.8632 377.764 37.2679 374.674 43.3296Z" fill="#E0E0E0"/>
<path d="M555.451 43.3406H88.8657C80.8272 43.3406 74.3057 49.8677 74.3057 57.913V387.76C74.3057 395.816 80.8272 402.333 88.8657 402.333H267.937L258.88 489.989L389.311 489.169L381.849 402.333H555.451C563.489 402.333 570.011 395.805 570.011 387.76V57.9241C570.011 49.8677 563.489 43.3406 555.451 43.3406Z" fill="#455A64"/>
<path d="M328.381 367.647C334.725 376.723 324.794 386.663 315.725 380.313C315.426 380.103 315.15 379.826 314.95 379.526C308.617 370.45 318.538 360.521 327.606 366.86C327.905 367.082 328.171 367.348 328.381 367.647Z" fill="#263238"/>
<path d="M561.983 341.993H82.333V60.1294C82.333 54.1896 87.1384 49.3801 93.0731 49.3801H551.243C557.178 49.3801 561.983 54.1896 561.983 60.1294V341.993Z" fill="white"/>
<path d="M561.983 73.7044H82.333V59.5309C82.333 53.9235 86.8726 49.3911 92.4641 49.3911H553.657C558.252 49.3911 561.983 53.1256 561.983 57.7246V73.7044Z" fill="#F5F5F5"/>
<path d="M100.979 62.0576C100.979 63.9193 99.4732 65.4265 97.613 65.4265C95.7529 65.4265 94.2471 63.9193 94.2471 62.0576C94.2471 60.1959 95.7529 58.6888 97.613 58.6888C99.4621 58.6777 100.979 60.1959 100.979 62.0576Z" fill="#E0E0E0"/>
<path d="M111.022 62.0576C111.022 63.9193 109.516 65.4265 107.656 65.4265C105.796 65.4265 104.29 63.9193 104.29 62.0576C104.29 60.1959 105.796 58.6888 107.656 58.6888C109.516 58.6777 111.022 60.1959 111.022 62.0576Z" fill="#E0E0E0"/>
<path d="M120.577 62.0576C120.577 63.9193 119.071 65.4265 117.211 65.4265C115.351 65.4265 113.845 63.9193 113.845 62.0576C113.845 60.1959 115.351 58.6888 117.211 58.6888C119.06 58.6777 120.577 60.1959 120.577 62.0576Z" fill="#E0E0E0"/>
<path d="M429.98 402.344C429.98 402.499 390.861 402.632 342.631 402.632C294.378 402.632 255.271 402.499 255.271 402.344C255.271 402.189 294.378 402.056 342.631 402.056C390.872 402.056 429.98 402.189 429.98 402.344Z" fill="#263238"/>
<path d="M161.168 73.7043H82.333V342.004H161.168V73.7043Z" fill="#EBEBEB"/>
<path d="M116.978 79.4336C117.387 79.1788 117.83 78.9904 118.295 78.8574L118.561 77.5608L120.753 77.5276L121.075 78.8131C121.54 78.9239 121.982 79.1012 122.403 79.3339L123.51 78.6025L125.094 80.1318L124.407 81.2621C124.662 81.6832 124.85 82.1154 124.983 82.5808L126.278 82.8468L126.312 85.041L125.027 85.3624C124.917 85.8278 124.739 86.2711 124.507 86.6922L125.238 87.8003L123.71 89.385L122.58 88.698C122.171 88.9528 121.728 89.1412 121.263 89.2742L120.997 90.5708L118.805 90.604L118.473 89.3296C118.007 89.2188 117.565 89.0415 117.144 88.8088L116.037 89.5402L114.453 88.0109L115.14 86.8806C114.885 86.4705 114.697 86.0273 114.564 85.5618L113.269 85.2959L113.235 83.1017L114.52 82.7803C114.63 82.3149 114.808 81.8716 115.04 81.4505L114.309 80.3423L115.837 78.7577L116.978 79.4336ZM118.151 82.3592C117.244 83.3012 117.277 84.7861 118.207 85.6948C119.148 86.6035 120.632 86.5703 121.54 85.6394C122.447 84.6975 122.414 83.2125 121.484 82.3038C120.543 81.3951 119.048 81.4284 118.151 82.3592Z" fill="#E0E0E0"/>
<path d="M135.192 141.004H100.824C98.8753 141.004 97.292 139.419 97.292 137.469C97.292 135.518 98.8753 133.934 100.824 133.934H135.192C137.141 133.934 138.724 135.518 138.724 137.469C138.724 139.419 137.141 141.004 135.192 141.004Z" fill="#E0E0E0"/>
<path d="M135.192 122.996H100.824C98.8753 122.996 97.292 121.411 97.292 119.461C97.292 117.51 98.8753 115.926 100.824 115.926H135.192C137.141 115.926 138.724 117.51 138.724 119.461C138.724 121.411 137.141 122.996 135.192 122.996Z" fill="#E0E0E0"/>
<path d="M135.192 106.517H100.824C98.8753 106.517 97.292 104.933 97.292 102.982C97.292 101.032 98.8753 99.4473 100.824 99.4473H135.192C137.141 99.4473 138.724 101.032 138.724 102.982C138.724 104.933 137.141 106.517 135.192 106.517Z" fill="#E0E0E0"/>
<path d="M227.524 104.49H194.972C193.023 104.49 191.439 102.905 191.439 100.954C191.439 99.0041 193.023 97.4194 194.972 97.4194H227.524C229.473 97.4194 231.056 99.0041 231.056 100.954C231.056 102.905 229.484 104.49 227.524 104.49Z" fill="#263238"/>
<path d="M227.524 122.996H194.972C193.023 122.996 191.439 121.411 191.439 119.461C191.439 117.51 193.023 115.926 194.972 115.926H227.524C229.473 115.926 231.056 117.51 231.056 119.461C231.056 121.411 229.484 122.996 227.524 122.996Z" fill="#E0E0E0"/>
<path d="M227.524 142.112H194.972C193.023 142.112 191.439 140.527 191.439 138.577C191.439 136.626 193.023 135.042 194.972 135.042H227.524C229.473 135.042 231.056 136.626 231.056 138.577C231.056 140.527 229.484 142.112 227.524 142.112Z" fill="#FFC727"/>
<path d="M213.639 179.08H194.982C193.034 179.08 191.45 177.496 191.45 175.545C191.45 173.595 193.034 172.01 194.982 172.01H213.65C215.599 172.01 217.182 173.595 217.182 175.545C217.171 177.496 215.599 179.08 213.639 179.08Z" fill="#263238"/>
<path d="M213.639 198.241H194.982C193.034 198.241 191.45 196.656 191.45 194.706C191.45 192.755 193.034 191.171 194.982 191.171H213.65C215.599 191.171 217.182 192.755 217.182 194.706C217.171 196.667 215.599 198.241 213.639 198.241Z" fill="#263238"/>
<path d="M269.122 198.241H234.897C232.949 198.241 231.365 196.656 231.365 194.706C231.365 192.755 232.949 191.171 234.897 191.171H269.122C271.07 191.171 272.654 192.755 272.654 194.706C272.654 196.667 271.07 198.241 269.122 198.241Z" fill="#E0E0E0"/>
<path d="M249.756 215.284H215.532C213.583 215.284 212 213.7 212 211.749C212 209.799 213.583 208.214 215.532 208.214H249.756C251.705 208.214 253.288 209.799 253.288 211.749C253.288 213.7 251.705 215.284 249.756 215.284Z" fill="#FFC727"/>
<path d="M256.311 234.722H234.864C232.96 234.722 231.421 233.181 231.421 231.275V231.098C231.421 229.192 232.96 227.652 234.864 227.652H256.311C258.216 227.652 259.755 229.192 259.755 231.098V231.275C259.755 233.181 258.216 234.722 256.311 234.722Z" fill="#FFC727"/>
<path d="M256.223 272.821H234.953C233.004 272.821 231.421 271.236 231.421 269.286C231.421 267.335 233.004 265.75 234.953 265.75H256.223C258.171 265.75 259.755 267.335 259.755 269.286C259.755 271.236 258.171 272.821 256.223 272.821Z" fill="#FFC727"/>
<path d="M256.223 313.058H234.953C233.004 313.058 231.421 311.474 231.421 309.523C231.421 307.573 233.004 305.988 234.953 305.988H256.223C258.171 305.988 259.755 307.573 259.755 309.523C259.755 311.474 258.171 313.058 256.223 313.058Z" fill="#FFC727"/>
<path d="M308.506 313.058H271.225C269.277 313.058 267.693 311.474 267.693 309.523C267.693 307.573 269.277 305.988 271.225 305.988H308.506C310.454 305.988 312.038 307.573 312.038 309.523C312.038 311.474 310.454 313.058 308.506 313.058Z" fill="#455A64"/>
<path d="M334.603 313.058H329.233C327.285 313.058 325.701 311.474 325.701 309.523C325.701 307.573 327.285 305.988 329.233 305.988H334.603C336.552 305.988 338.135 307.573 338.135 309.523C338.135 311.474 336.552 313.058 334.603 313.058Z" fill="#E0E0E0"/>
<path d="M306.269 272.821H274.758C272.809 272.821 271.226 271.236 271.226 269.286C271.226 267.335 272.809 265.75 274.758 265.75H306.269C308.218 265.75 309.801 267.335 309.801 269.286C309.801 271.236 308.218 272.821 306.269 272.821Z" fill="#E0E0E0"/>
<path d="M375.36 290.485H274.758C272.809 290.485 271.226 288.9 271.226 286.95C271.226 284.999 272.809 283.415 274.758 283.415H375.36C377.309 283.415 378.892 284.999 378.892 286.95C378.892 288.9 377.309 290.485 375.36 290.485Z" fill="#E0E0E0"/>
<path d="M386.986 272.821H322.756C320.807 272.821 319.224 271.236 319.224 269.286C319.224 267.335 320.807 265.75 322.756 265.75H386.986C388.935 265.75 390.518 267.335 390.518 269.286C390.518 271.236 388.935 272.821 386.986 272.821Z" fill="#455A64"/>
<path d="M299.238 234.722H272.443C270.539 234.722 269 233.181 269 231.275V231.098C269 229.192 270.539 227.652 272.443 227.652H299.238C301.143 227.652 302.682 229.192 302.682 231.098V231.275C302.682 233.181 301.143 234.722 299.238 234.722Z" fill="#455A64"/>
<path d="M322.269 234.722H315.471C313.566 234.722 312.027 233.181 312.027 231.275V231.098C312.027 229.192 313.566 227.652 315.471 227.652H322.269C324.174 227.652 325.713 229.192 325.713 231.098V231.275C325.713 233.181 324.174 234.722 322.269 234.722Z" fill="#E0E0E0"/>
<path d="M373.002 234.722H339.553C337.648 234.722 336.109 233.181 336.109 231.275V231.098C336.109 229.192 337.648 227.652 339.553 227.652H373.002C374.907 227.652 376.446 229.192 376.446 231.098V231.275C376.446 233.181 374.907 234.722 373.002 234.722Z" fill="#E0E0E0"/>
<path d="M272.942 215.284H265.313C263.365 215.284 261.781 213.7 261.781 211.749C261.781 209.799 263.365 208.214 265.313 208.214H272.942C274.891 208.214 276.474 209.799 276.474 211.749C276.474 213.7 274.891 215.284 272.942 215.284Z" fill="#263238"/>
<path d="M337.56 215.284H288.997C287.048 215.284 285.465 213.7 285.465 211.749C285.465 209.799 287.048 208.214 288.997 208.214H337.56C339.509 208.214 341.092 209.799 341.092 211.749C341.092 213.7 339.509 215.284 337.56 215.284Z" fill="#E0E0E0"/>
<path d="M279.674 104.49H247.122C245.173 104.49 243.59 102.905 243.59 100.954C243.59 99.0041 245.173 97.4194 247.122 97.4194H279.674C281.623 97.4194 283.206 99.0041 283.206 100.954C283.206 102.905 281.634 104.49 279.674 104.49Z" fill="#455A64"/>
<path d="M321.627 122.996H247.133C245.184 122.996 243.601 121.411 243.601 119.461C243.601 117.51 245.184 115.926 247.133 115.926H321.627C323.576 115.926 325.159 117.51 325.159 119.461C325.159 121.411 323.576 122.996 321.627 122.996Z" fill="#263238"/>
<path d="M401.823 142.112H247.133C245.184 142.112 243.601 140.527 243.601 138.577C243.601 136.626 245.184 135.042 247.133 135.042H401.834C403.783 135.042 405.366 136.626 405.366 138.577C405.355 140.527 403.772 142.112 401.823 142.112Z" fill="#E0E0E0"/>
<path d="M320.066 155.587H247.133C245.184 155.587 243.601 154.003 243.601 152.052C243.601 150.102 245.184 148.517 247.133 148.517H320.077C322.025 148.517 323.609 150.102 323.609 152.052C323.598 154.003 322.025 155.587 320.066 155.587Z" fill="#E0E0E0"/>
<path d="M305.151 179.08H232.207C230.258 179.08 228.675 177.496 228.675 175.545C228.675 173.595 230.258 172.01 232.207 172.01H305.151C307.1 172.01 308.683 173.595 308.683 175.545C308.683 177.496 307.1 179.08 305.151 179.08Z" fill="#455A64"/>
<path d="M345.985 179.08H321.538C319.589 179.08 318.006 177.496 318.006 175.545C318.006 173.595 319.589 172.01 321.538 172.01H345.985C347.934 172.01 349.518 173.595 349.518 175.545C349.518 177.496 347.934 179.08 345.985 179.08Z" fill="#FFC727"/>
<path d="M408.489 178.97H362.306C360.358 178.97 358.774 177.385 358.774 175.434C358.774 173.484 360.358 171.899 362.306 171.899H408.489C410.438 171.899 412.021 173.484 412.021 175.434C412.021 177.385 410.449 178.97 408.489 178.97Z" fill="#263238"/>
<path d="M471.346 178.97H425.164C423.215 178.97 421.632 177.385 421.632 175.434C421.632 173.484 423.215 171.899 425.164 171.899H471.346C473.295 171.899 474.878 173.484 474.878 175.434C474.878 177.385 473.295 178.97 471.346 178.97Z" fill="#E0E0E0"/>
<path d="M120.311 160.064H100.824C98.8753 160.064 97.292 158.48 97.292 156.529C97.292 154.579 98.8753 152.994 100.824 152.994H120.311C122.26 152.994 123.843 154.579 123.843 156.529C123.843 158.48 122.26 160.064 120.311 160.064Z" fill="#E0E0E0"/>
<path d="M114.476 217.246H100.824C98.8753 217.246 97.292 215.661 97.292 213.711C97.292 211.76 98.8753 210.176 100.824 210.176H114.476C116.425 210.176 118.008 211.76 118.008 213.711C118.008 215.672 116.425 217.246 114.476 217.246Z" fill="#E0E0E0"/>
<path d="M138.724 179.125H100.824C98.8753 179.125 97.292 177.54 97.292 175.59C97.292 173.639 98.8753 172.055 100.824 172.055H138.724C140.673 172.055 142.256 173.639 142.256 175.59C142.256 177.54 140.673 179.125 138.724 179.125Z" fill="#E0E0E0"/>
<path d="M132.07 198.185H100.824C98.8753 198.185 97.292 196.601 97.292 194.65C97.292 192.7 98.8753 191.115 100.824 191.115H132.07C134.019 191.115 135.602 192.7 135.602 194.65C135.602 196.601 134.03 198.185 132.07 198.185Z" fill="#E0E0E0"/>
<path d="M179.016 100.954C179.016 102.938 177.41 104.545 175.428 104.545C173.446 104.545 171.841 102.938 171.841 100.954C171.841 98.9709 173.446 97.364 175.428 97.364C177.41 97.364 179.016 98.9709 179.016 100.954Z" fill="#455A64"/>
<path d="M179.016 119.405C179.016 121.389 177.41 122.996 175.428 122.996C173.446 122.996 171.841 121.389 171.841 119.405C171.841 117.422 173.446 115.815 175.428 115.815C177.41 115.815 179.016 117.422 179.016 119.405Z" fill="#455A64"/>
<path d="M179.016 138.577C179.016 140.56 177.41 142.167 175.428 142.167C173.446 142.167 171.841 140.56 171.841 138.577C171.841 136.593 173.446 134.986 175.428 134.986C177.41 134.986 179.016 136.593 179.016 138.577Z" fill="#455A64"/>
<path d="M179.016 157.759C179.016 159.743 177.41 161.35 175.428 161.35C173.446 161.35 171.841 159.743 171.841 157.759C171.841 155.776 173.446 154.169 175.428 154.169C177.41 154.169 179.016 155.776 179.016 157.759Z" fill="#455A64"/>
<path d="M179.016 176.931C179.016 178.914 177.41 180.521 175.428 180.521C173.446 180.521 171.841 178.914 171.841 176.931C171.841 174.947 173.446 173.34 175.428 173.34C177.41 173.34 179.016 174.947 179.016 176.931Z" fill="#455A64"/>
<path d="M179.016 196.113C179.016 198.097 177.41 199.703 175.428 199.703C173.446 199.703 171.841 198.097 171.841 196.113C171.841 194.129 173.446 192.522 175.428 192.522C177.41 192.522 179.016 194.129 179.016 196.113Z" fill="#455A64"/>
<path d="M179.016 215.284C179.016 217.268 177.41 218.875 175.428 218.875C173.446 218.875 171.841 217.268 171.841 215.284C171.841 213.301 173.446 211.694 175.428 211.694C177.41 211.694 179.016 213.301 179.016 215.284Z" fill="#455A64"/>
<path d="M179.016 234.467C179.016 236.451 177.41 238.057 175.428 238.057C173.446 238.057 171.841 236.451 171.841 234.467C171.841 232.483 173.446 230.876 175.428 230.876C177.41 230.876 179.016 232.483 179.016 234.467Z" fill="#455A64"/>
<path d="M179.016 253.638C179.016 255.622 177.41 257.229 175.428 257.229C173.446 257.229 171.841 255.622 171.841 253.638C171.841 251.654 173.446 250.048 175.428 250.048C177.41 250.048 179.016 251.654 179.016 253.638Z" fill="#455A64"/>
<path d="M179.016 272.821C179.016 274.804 177.41 276.411 175.428 276.411C173.446 276.411 171.841 274.804 171.841 272.821C171.841 270.837 173.446 269.23 175.428 269.23C177.41 269.23 179.016 270.837 179.016 272.821Z" fill="#455A64"/>
<path d="M179.016 291.992C179.016 293.976 177.41 295.583 175.428 295.583C173.446 295.583 171.841 293.976 171.841 291.992C171.841 290.008 173.446 288.402 175.428 288.402C177.41 288.402 179.016 290.008 179.016 291.992Z" fill="#455A64"/>
<path d="M179.016 311.174C179.016 313.158 177.41 314.765 175.428 314.765C173.446 314.765 171.841 313.158 171.841 311.174C171.841 309.191 173.446 307.584 175.428 307.584C177.41 307.584 179.016 309.191 179.016 311.174Z" fill="#455A64"/>
<path d="M629.835 488.149L503.301 488.072C488.087 488.061 475.753 475.816 475.753 460.7L475.819 145.769C475.819 130.653 488.176 118.397 503.4 118.408L629.934 118.486C645.147 118.497 657.482 130.742 657.482 145.858L657.416 460.789C657.416 475.915 645.07 488.161 629.835 488.149Z" fill="#263238"/>
<path d="M629.513 129.723L604.977 129.712C601.688 129.712 599.02 132.482 599.02 135.895V140.317C599.02 143.73 596.352 146.5 593.063 146.5L545.242 146.467C541.954 146.467 539.285 143.697 539.285 140.284V135.862C539.285 132.449 536.617 129.678 533.328 129.678H524.703L503.234 129.656C492.571 129.645 483.924 138.233 483.924 148.817L483.857 456.212C483.857 466.795 492.494 475.372 503.145 475.383L629.424 475.461C640.087 475.472 648.734 466.884 648.734 456.301L648.79 148.905C648.812 138.311 640.176 129.734 629.513 129.723Z" fill="white"/>
<path d="M529.044 475.66H504.043C492.97 475.66 484.002 466.684 484.002 455.602V176.133H529.044V475.66Z" fill="#EBEBEB"/>
<path d="M576.422 197.044H554.964C553.679 197.044 552.639 195.947 552.639 194.595C552.639 193.243 553.679 192.146 554.964 192.146H576.422C577.706 192.146 578.747 193.243 578.747 194.595C578.747 195.947 577.706 197.044 576.422 197.044Z" fill="#263238"/>
<path d="M577.086 209.832H555.628C554.344 209.832 553.303 208.735 553.303 207.383C553.303 206.031 554.344 204.934 555.628 204.934H577.086C578.37 204.934 579.411 206.031 579.411 207.383C579.411 208.735 578.37 209.832 577.086 209.832Z" fill="#E0E0E0"/>
<path d="M577.341 224.46H555.883C554.598 224.46 553.558 223.363 553.558 222.011C553.558 220.659 554.598 219.562 555.883 219.562H577.341C578.625 219.562 579.666 220.659 579.666 222.011C579.677 223.363 578.625 224.46 577.341 224.46Z" fill="#FFC727"/>
<path d="M610.879 235.553H589.421C588.137 235.553 587.096 234.456 587.096 233.104C587.096 231.752 588.137 230.655 589.421 230.655H610.879C612.163 230.655 613.204 231.752 613.204 233.104C613.204 234.456 612.163 235.553 610.879 235.553Z" fill="#E0E0E0"/>
<path d="M571.849 250.092H559.548C558.263 250.092 557.223 248.995 557.223 247.643C557.223 246.291 558.263 245.194 559.548 245.194H571.849C573.133 245.194 574.174 246.291 574.174 247.643C574.174 248.995 573.133 250.092 571.849 250.092Z" fill="#263238"/>
<path d="M571.849 263.379H559.548C558.263 263.379 557.223 262.282 557.223 260.93C557.223 259.578 558.263 258.481 559.548 258.481H571.849C573.133 258.481 574.174 259.578 574.174 260.93C574.174 262.282 573.133 263.379 571.849 263.379Z" fill="#263238"/>
<path d="M608.41 263.379H585.855C584.571 263.379 583.53 262.282 583.53 260.93C583.53 259.578 584.571 258.481 585.855 258.481H608.41C609.694 258.481 610.735 259.578 610.735 260.93C610.735 262.282 609.694 263.379 608.41 263.379Z" fill="#E0E0E0"/>
<path d="M582.08 279.049H559.525C558.241 279.049 557.2 277.952 557.2 276.6C557.2 275.248 558.241 274.151 559.525 274.151H582.08C583.364 274.151 584.405 275.248 584.405 276.6C584.405 277.952 583.364 279.049 582.08 279.049Z" fill="#FFC727"/>
<path d="M583.608 290.075H569.713C568.395 290.075 567.332 289.011 567.332 287.692V287.571C567.332 286.252 568.395 285.188 569.713 285.188H583.608C584.926 285.188 585.989 286.252 585.989 287.571V287.692C585.989 289.011 584.926 290.075 583.608 290.075Z" fill="#FFC727"/>
<path d="M575.281 311.551H561.264C559.979 311.551 558.938 310.454 558.938 309.102C558.938 307.75 559.979 306.653 561.264 306.653H575.281C576.566 306.653 577.606 307.75 577.606 309.102C577.606 310.454 576.566 311.551 575.281 311.551Z" fill="#FFC727"/>
<path d="M575.281 339.455H561.264C559.979 339.455 558.938 338.358 558.938 337.006C558.938 335.654 559.979 334.557 561.264 334.557H575.281C576.566 334.557 577.606 335.654 577.606 337.006C577.606 338.358 576.566 339.455 575.281 339.455Z" fill="#FFC727"/>
<path d="M609.738 339.455H585.169C583.885 339.455 582.844 338.358 582.844 337.006C582.844 335.654 583.885 334.557 585.169 334.557H609.738C611.023 334.557 612.063 335.654 612.063 337.006C612.074 338.358 611.023 339.455 609.738 339.455Z" fill="#455A64"/>
<path d="M640.907 312.083H616.338C615.054 312.083 614.013 310.986 614.013 309.634C614.013 308.282 615.054 307.185 616.338 307.185H640.907C642.192 307.185 643.232 308.282 643.232 309.634C643.232 310.986 642.192 312.083 640.907 312.083Z" fill="#455A64"/>
<path d="M611.377 322.511H586.808C585.523 322.511 584.482 321.414 584.482 320.062C584.482 318.71 585.523 317.613 586.808 317.613H611.377C612.661 317.613 613.702 318.71 613.702 320.062C613.713 321.414 612.672 322.511 611.377 322.511Z" fill="#455A64"/>
<path d="M626.944 339.455H623.401C622.117 339.455 621.076 338.358 621.076 337.006C621.076 335.654 622.117 334.557 623.401 334.557H626.944C628.229 334.557 629.27 335.654 629.27 337.006C629.27 338.358 628.229 339.455 626.944 339.455Z" fill="#E0E0E0"/>
<path d="M608.266 311.551H587.494C586.21 311.551 585.169 310.454 585.169 309.102C585.169 307.75 586.21 306.653 587.494 306.653H608.266C609.55 306.653 610.591 307.75 610.591 309.102C610.602 310.454 609.55 311.551 608.266 311.551Z" fill="#E0E0E0"/>
<path d="M611.897 290.075H594.469C593.152 290.075 592.089 289.011 592.089 287.692V287.571C592.089 286.252 593.152 285.188 594.469 285.188H611.897C613.215 285.188 614.278 286.252 614.278 287.571V287.692C614.278 289.011 613.215 290.075 611.897 290.075Z" fill="#455A64"/>
<path d="M627.077 290.075H622.837C621.519 290.075 620.456 289.011 620.456 287.692V287.571C620.456 286.252 621.519 285.188 622.837 285.188H627.077C628.395 285.188 629.458 286.252 629.458 287.571V287.692C629.458 289.011 628.395 290.075 627.077 290.075Z" fill="#E0E0E0"/>
<path d="M597.36 279.049H592.333C591.049 279.049 590.008 277.952 590.008 276.6C590.008 275.248 591.049 274.151 592.333 274.151H597.36C598.644 274.151 599.685 275.248 599.685 276.6C599.685 277.952 598.644 279.049 597.36 279.049Z" fill="#263238"/>
<path d="M639.943 279.049H607.934C606.649 279.049 605.608 277.952 605.608 276.6C605.608 275.248 606.649 274.151 607.934 274.151H639.943C641.228 274.151 642.269 275.248 642.269 276.6C642.269 277.952 641.228 279.049 639.943 279.049Z" fill="#E0E0E0"/>
<path d="M608.697 197.044H587.239C585.955 197.044 584.914 195.947 584.914 194.595C584.914 193.243 585.955 192.146 587.239 192.146H608.697C609.982 192.146 611.022 193.243 611.022 194.595C611.033 195.947 609.982 197.044 608.697 197.044Z" fill="#455A64"/>
<path d="M635.581 209.832H586.486C585.202 209.832 584.161 208.735 584.161 207.383C584.161 206.031 585.202 204.934 586.486 204.934H635.581C636.865 204.934 637.906 206.031 637.906 207.383C637.906 208.735 636.865 209.832 635.581 209.832Z" fill="#263238"/>
<path d="M636.522 224.361H588.446C587.162 224.361 586.121 223.263 586.121 221.911C586.121 220.559 587.162 219.462 588.446 219.462H636.522C637.806 219.462 638.847 220.559 638.847 221.911C638.847 223.263 637.806 224.361 636.522 224.361Z" fill="#E0E0E0"/>
<path d="M632.149 250.092H584.073C582.789 250.092 581.748 248.995 581.748 247.643C581.748 246.291 582.789 245.194 584.073 245.194H632.149C633.433 245.194 634.474 246.291 634.474 247.643C634.485 248.995 633.433 250.092 632.149 250.092Z" fill="#455A64"/>
<path d="M571.849 436.376H559.548C558.263 436.376 557.223 435.279 557.223 433.927C557.223 432.575 558.263 431.478 559.548 431.478H571.849C573.133 431.478 574.174 432.575 574.174 433.927C574.174 435.279 573.133 436.376 571.849 436.376Z" fill="#263238"/>
<path d="M571.849 449.663H559.548C558.263 449.663 557.223 448.566 557.223 447.214C557.223 445.862 558.263 444.765 559.548 444.765H571.849C573.133 444.765 574.174 445.862 574.174 447.214C574.174 448.566 573.133 449.663 571.849 449.663Z" fill="#263238"/>
<path d="M632.149 436.376H584.073C582.789 436.376 581.748 435.279 581.748 433.927C581.748 432.575 582.789 431.478 584.073 431.478H632.149C633.433 431.478 634.474 432.575 634.474 433.927C634.485 435.279 633.433 436.376 632.149 436.376Z" fill="#455A64"/>
<path d="M510.331 240.196H497.487C496.203 240.196 495.162 239.099 495.162 237.747C495.162 236.395 496.203 235.298 497.487 235.298H510.331C511.616 235.298 512.656 236.395 512.656 237.747C512.656 239.099 511.616 240.196 510.331 240.196Z" fill="#E0E0E0"/>
<path d="M510.331 253.838H497.487C496.203 253.838 495.162 252.741 495.162 251.389C495.162 250.037 496.203 248.94 497.487 248.94H510.331C511.616 248.94 512.656 250.037 512.656 251.389C512.656 252.741 511.616 253.838 510.331 253.838Z" fill="#E0E0E0"/>
<path d="M510.331 267.468H497.487C496.203 267.468 495.162 266.371 495.162 265.019C495.162 263.667 496.203 262.57 497.487 262.57H510.331C511.616 262.57 512.656 263.667 512.656 265.019C512.656 266.371 511.616 267.468 510.331 267.468Z" fill="#E0E0E0"/>
<path d="M510.331 226.555H497.487C496.203 226.555 495.162 225.458 495.162 224.106C495.162 222.754 496.203 221.656 497.487 221.656H510.331C511.616 221.656 512.656 222.754 512.656 224.106C512.656 225.458 511.616 226.555 510.331 226.555Z" fill="#E0E0E0"/>
<path d="M510.331 212.924H497.487C496.203 212.924 495.162 211.827 495.162 210.475C495.162 209.123 496.203 208.026 497.487 208.026H510.331C511.616 208.026 512.656 209.123 512.656 210.475C512.656 211.827 511.616 212.924 510.331 212.924Z" fill="#E0E0E0"/>
<path d="M510.331 199.283H497.487C496.203 199.283 495.162 198.186 495.162 196.834C495.162 195.482 496.203 194.385 497.487 194.385H510.331C511.616 194.385 512.656 195.482 512.656 196.834C512.656 198.186 511.616 199.283 510.331 199.283Z" fill="#E0E0E0"/>
<path d="M506.489 281.11H497.487C496.203 281.11 495.162 280.013 495.162 278.661C495.162 277.309 496.203 276.212 497.487 276.212H506.489C507.773 276.212 508.814 277.309 508.814 278.661C508.814 280.013 507.773 281.11 506.489 281.11Z" fill="#E0E0E0"/>
<path d="M542.142 194.595C542.142 195.969 541.068 197.088 539.74 197.088C538.411 197.088 537.337 195.969 537.337 194.595C537.337 193.221 538.411 192.102 539.74 192.102C541.068 192.102 542.142 193.221 542.142 194.595Z" fill="#455A64"/>
<path d="M542.142 207.383C542.142 208.757 541.068 209.877 539.74 209.877C538.411 209.877 537.337 208.757 537.337 207.383C537.337 206.009 538.411 204.89 539.74 204.89C541.068 204.89 542.142 206.009 542.142 207.383Z" fill="#455A64"/>
<path d="M542.142 220.681C542.142 222.056 541.068 223.175 539.74 223.175C538.411 223.175 537.337 222.056 537.337 220.681C537.337 219.307 538.411 218.188 539.74 218.188C541.068 218.188 542.142 219.307 542.142 220.681Z" fill="#455A64"/>
<path d="M542.142 233.979C542.142 235.353 541.068 236.473 539.74 236.473C538.411 236.473 537.337 235.353 537.337 233.979C537.337 232.605 538.411 231.486 539.74 231.486C541.068 231.486 542.142 232.605 542.142 233.979Z" fill="#455A64"/>
<path d="M542.142 247.277C542.142 248.651 541.068 249.771 539.74 249.771C538.411 249.771 537.337 248.651 537.337 247.277C537.337 245.903 538.411 244.784 539.74 244.784C541.068 244.784 542.142 245.903 542.142 247.277Z" fill="#455A64"/>
<path d="M542.142 260.575C542.142 261.95 541.068 263.069 539.74 263.069C538.411 263.069 537.337 261.95 537.337 260.575C537.337 259.201 538.411 258.082 539.74 258.082C541.068 258.082 542.142 259.201 542.142 260.575Z" fill="#455A64"/>
<path d="M542.142 273.874C542.142 275.248 541.068 276.367 539.74 276.367C538.411 276.367 537.337 275.248 537.337 273.874C537.337 272.499 538.411 271.38 539.74 271.38C541.068 271.38 542.142 272.488 542.142 273.874Z" fill="#455A64"/>
<path d="M542.142 287.172C542.142 288.546 541.068 289.665 539.74 289.665C538.411 289.665 537.337 288.546 537.337 287.172C537.337 285.797 538.411 284.678 539.74 284.678C541.068 284.678 542.142 285.786 542.142 287.172Z" fill="#455A64"/>
<path d="M542.142 300.458C542.142 301.833 541.068 302.952 539.74 302.952C538.411 302.952 537.337 301.833 537.337 300.458C537.337 299.084 538.411 297.965 539.74 297.965C541.068 297.976 542.142 299.084 542.142 300.458Z" fill="#455A64"/>
<path d="M542.142 313.757C542.142 315.131 541.068 316.25 539.74 316.25C538.411 316.25 537.337 315.131 537.337 313.757C537.337 312.382 538.411 311.263 539.74 311.263C541.068 311.274 542.142 312.382 542.142 313.757Z" fill="#455A64"/>
<path d="M542.142 327.055C542.142 328.429 541.068 329.548 539.74 329.548C538.411 329.548 537.337 328.429 537.337 327.055C537.337 325.681 538.411 324.561 539.74 324.561C541.068 324.572 542.142 325.681 542.142 327.055Z" fill="#455A64"/>
<path d="M542.142 340.353C542.142 341.727 541.068 342.846 539.74 342.846C538.411 342.846 537.337 341.727 537.337 340.353C537.337 338.979 538.411 337.859 539.74 337.859C541.068 337.87 542.142 338.979 542.142 340.353Z" fill="#455A64"/>
<path d="M582.08 358.427H559.525C558.241 358.427 557.2 357.33 557.2 355.978C557.2 354.626 558.241 353.529 559.525 353.529H582.08C583.364 353.529 584.405 354.626 584.405 355.978C584.405 357.33 583.364 358.427 582.08 358.427Z" fill="#FFC727"/>
<path d="M583.608 369.453H569.713C568.395 369.453 567.332 368.389 567.332 367.071V366.949C567.332 365.63 568.395 364.566 569.713 364.566H583.608C584.926 364.566 585.989 365.63 585.989 366.949V367.071C585.989 368.389 584.926 369.453 583.608 369.453Z" fill="#FFC727"/>
<path d="M575.281 390.93H561.264C559.979 390.93 558.938 389.833 558.938 388.481C558.938 387.129 559.979 386.031 561.264 386.031H575.281C576.566 386.031 577.606 387.129 577.606 388.481C577.606 389.833 576.566 390.93 575.281 390.93Z" fill="#FFC727"/>
<path d="M575.281 418.833H561.264C559.979 418.833 558.938 417.736 558.938 416.384C558.938 415.032 559.979 413.935 561.264 413.935H575.281C576.566 413.935 577.606 415.032 577.606 416.384C577.606 417.736 576.566 418.833 575.281 418.833Z" fill="#FFC727"/>
<path d="M609.738 418.833H585.169C583.885 418.833 582.844 417.736 582.844 416.384C582.844 415.032 583.885 413.935 585.169 413.935H609.738C611.023 413.935 612.063 415.032 612.063 416.384C612.074 417.736 611.023 418.833 609.738 418.833Z" fill="#455A64"/>
<path d="M640.907 391.462H616.338C615.054 391.462 614.013 390.365 614.013 389.013C614.013 387.661 615.054 386.563 616.338 386.563H640.907C642.192 386.563 643.232 387.661 643.232 389.013C643.232 390.365 642.192 391.462 640.907 391.462Z" fill="#455A64"/>
<path d="M611.377 401.889H586.808C585.523 401.889 584.482 400.792 584.482 399.44C584.482 398.088 585.523 396.991 586.808 396.991H611.377C612.661 396.991 613.702 398.088 613.702 399.44C613.713 400.792 612.672 401.889 611.377 401.889Z" fill="#455A64"/>
<path d="M626.944 418.833H623.401C622.117 418.833 621.076 417.736 621.076 416.384C621.076 415.032 622.117 413.935 623.401 413.935H626.944C628.229 413.935 629.27 415.032 629.27 416.384C629.27 417.736 628.229 418.833 626.944 418.833Z" fill="#E0E0E0"/>
<path d="M608.266 390.93H587.494C586.21 390.93 585.169 389.833 585.169 388.481C585.169 387.129 586.21 386.031 587.494 386.031H608.266C609.55 386.031 610.591 387.129 610.591 388.481C610.602 389.833 609.55 390.93 608.266 390.93Z" fill="#E0E0E0"/>
<path d="M611.897 369.453H594.469C593.152 369.453 592.089 368.389 592.089 367.071V366.949C592.089 365.63 593.152 364.566 594.469 364.566H611.897C613.215 364.566 614.278 365.63 614.278 366.949V367.071C614.278 368.389 613.215 369.453 611.897 369.453Z" fill="#455A64"/>
<path d="M627.077 369.453H622.837C621.519 369.453 620.456 368.389 620.456 367.071V366.949C620.456 365.63 621.519 364.566 622.837 364.566H627.077C628.395 364.566 629.458 365.63 629.458 366.949V367.071C629.458 368.389 628.395 369.453 627.077 369.453Z" fill="#E0E0E0"/>
<path d="M597.36 358.427H592.333C591.049 358.427 590.008 357.33 590.008 355.978C590.008 354.626 591.049 353.529 592.333 353.529H597.36C598.644 353.529 599.685 354.626 599.685 355.978C599.685 357.33 598.644 358.427 597.36 358.427Z" fill="#263238"/>
<path d="M639.943 358.427H607.934C606.649 358.427 605.608 357.33 605.608 355.978C605.608 354.626 606.649 353.529 607.934 353.529H639.943C641.228 353.529 642.269 354.626 642.269 355.978C642.269 357.33 641.228 358.427 639.943 358.427Z" fill="#E0E0E0"/>
<path d="M542.142 353.252C542.142 354.626 541.068 355.745 539.74 355.745C538.411 355.745 537.337 354.626 537.337 353.252C537.337 351.878 538.411 350.758 539.74 350.758C541.068 350.758 542.142 351.878 542.142 353.252Z" fill="#455A64"/>
<path d="M542.142 366.55C542.142 367.924 541.068 369.043 539.74 369.043C538.411 369.043 537.337 367.924 537.337 366.55C537.337 365.176 538.411 364.056 539.74 364.056C541.068 364.056 542.142 365.165 542.142 366.55Z" fill="#455A64"/>
<path d="M542.142 379.837C542.142 381.211 541.068 382.33 539.74 382.33C538.411 382.33 537.337 381.211 537.337 379.837C537.337 378.463 538.411 377.343 539.74 377.343C541.068 377.354 542.142 378.463 542.142 379.837Z" fill="#455A64"/>
<path d="M542.142 393.135C542.142 394.509 541.068 395.628 539.74 395.628C538.411 395.628 537.337 394.509 537.337 393.135C537.337 391.761 538.411 390.641 539.74 390.641C541.068 390.652 542.142 391.761 542.142 393.135Z" fill="#455A64"/>
<path d="M542.142 406.433C542.142 407.807 541.068 408.926 539.74 408.926C538.411 408.926 537.337 407.807 537.337 406.433C537.337 405.059 538.411 403.939 539.74 403.939C541.068 403.951 542.142 405.059 542.142 406.433Z" fill="#455A64"/>
<path d="M542.142 419.731C542.142 421.105 541.068 422.224 539.74 422.224C538.411 422.224 537.337 421.105 537.337 419.731C537.337 418.357 538.411 417.238 539.74 417.238C541.068 417.249 542.142 418.357 542.142 419.731Z" fill="#455A64"/>
<path d="M542.142 433.926C542.142 435.301 541.068 436.42 539.74 436.42C538.411 436.42 537.337 435.301 537.337 433.926C537.337 432.552 538.411 431.433 539.74 431.433C541.068 431.433 542.142 432.552 542.142 433.926Z" fill="#455A64"/>
<path d="M542.142 448.122C542.142 449.496 541.068 450.616 539.74 450.616C538.411 450.616 537.337 449.496 537.337 448.122C537.337 446.748 538.411 445.629 539.74 445.629C541.068 445.629 542.142 446.737 542.142 448.122Z" fill="#455A64"/>
<path d="M629.513 129.723L604.977 129.712C601.688 129.712 599.02 132.482 599.02 135.895V140.317C599.02 143.73 596.352 146.5 593.063 146.5L545.242 146.467C541.954 146.467 539.285 143.697 539.285 140.284V135.862C539.285 132.449 536.617 129.678 533.328 129.678H524.703L503.234 129.656C492.571 129.645 483.924 138.233 483.924 148.817V176.133H648.812V148.894C648.812 138.311 640.176 129.734 629.513 129.723Z" fill="#F5F5F5"/>
<path d="M494.896 168.409C496.578 168.409 497.941 167.045 497.941 165.361C497.941 163.678 496.578 162.314 494.896 162.314C493.215 162.314 491.852 163.678 491.852 165.361C491.852 167.045 493.215 168.409 494.896 168.409Z" fill="#E0E0E0"/>
<path d="M507.331 165.361C507.331 167.046 505.969 168.409 504.286 168.409C502.603 168.409 501.241 167.046 501.241 165.361C501.241 163.677 502.603 162.314 504.286 162.314C505.969 162.325 507.331 163.688 507.331 165.361Z" fill="#E0E0E0"/>
<path d="M516.731 165.361C516.731 167.046 515.369 168.409 513.686 168.409C512.003 168.409 510.642 167.046 510.642 165.361C510.642 163.677 512.003 162.314 513.686 162.314C515.369 162.325 516.731 163.688 516.731 165.361Z" fill="#E0E0E0"/>
<path d="M567.398 154.778C568.007 154.402 568.66 154.125 569.335 153.936L569.734 152.008L572.978 151.953L573.443 153.859C574.119 154.025 574.783 154.28 575.414 154.634L577.053 153.559L579.389 155.82L578.37 157.505C578.747 158.114 579.024 158.779 579.212 159.444L581.138 159.843L581.194 163.09L579.289 163.555C579.123 164.231 578.869 164.896 578.514 165.528L579.588 167.168L577.33 169.506L575.647 168.487C575.038 168.863 574.373 169.14 573.709 169.329L573.31 171.257L570.066 171.312L569.601 169.406C568.926 169.24 568.261 168.985 567.63 168.631L565.992 169.706L563.655 167.445L564.674 165.76C564.298 165.151 564.021 164.497 563.833 163.821L561.906 163.422L561.851 160.175L563.755 159.71C563.921 159.034 564.176 158.369 564.53 157.737L563.456 156.097L565.715 153.759L567.398 154.778ZM569.136 159.1C567.796 160.486 567.841 162.691 569.225 164.032C570.609 165.373 572.812 165.328 574.152 163.943C575.492 162.558 575.447 160.353 574.063 159.012C572.679 157.682 570.465 157.715 569.136 159.1Z" fill="#E0E0E0"/>
<path d="M92.7745 216.681H10.9283C4.89394 216.681 0 211.783 0 205.743V123.827C0 117.788 4.89394 112.889 10.9283 112.889H92.7745C98.8089 112.889 103.703 117.788 103.703 123.827V205.743C103.703 211.783 98.8089 216.681 92.7745 216.681Z" fill="#FFC727"/>
<path d="M32.9401 151.742C34.7781 150.634 36.7379 149.791 38.753 149.215L39.9488 143.464L49.6592 143.298L51.0543 149.005C53.0916 149.503 55.0735 150.279 56.9447 151.321L61.8498 148.096L68.8363 154.856L65.7915 159.876C66.8987 161.715 67.7402 163.677 68.3159 165.694L74.0625 166.891L74.2285 176.609L68.5263 178.006C68.0281 180.045 67.253 182.028 66.2122 183.901L69.4342 188.81L62.6802 195.803L57.6644 192.755C55.8264 193.863 53.8666 194.706 51.8515 195.282L50.6557 201.033L40.9453 201.2L39.5502 195.492C37.5129 194.994 35.531 194.218 33.6598 193.176L28.7548 196.401L21.7682 189.641L24.813 184.621C23.7058 182.782 22.8643 180.82 22.2886 178.803L16.5421 177.607L16.376 167.888L22.0782 166.492C22.5764 164.453 23.3515 162.469 24.3923 160.596L21.1703 155.687L27.9243 148.694L32.9401 151.742ZM38.1108 164.696C34.1137 168.841 34.2245 175.446 38.3655 179.446C42.5065 183.447 49.1056 183.336 53.1027 179.191C57.0997 175.047 56.989 168.442 52.848 164.442C48.707 160.43 42.1079 160.552 38.1108 164.696Z" fill="white"/>
<path d="M69.0913 133.402C69.6449 132.781 70.2871 132.238 70.9736 131.795L70.7632 129.512L74.3728 128.337L75.5464 130.31C76.3658 130.266 77.1962 130.332 78.0155 130.498L79.4771 128.736L82.8541 130.465L82.2894 132.693C82.9095 133.247 83.452 133.889 83.8949 134.576L86.1758 134.366L87.3495 137.978L85.3786 139.153C85.4229 139.973 85.3565 140.804 85.1904 141.624L86.9509 143.087L85.2347 146.467L83.0091 145.902C82.4555 146.522 81.8133 147.065 81.1268 147.509L81.3372 149.792L77.7277 150.966L76.554 148.994C75.7347 149.038 74.9042 148.972 74.0849 148.805L72.6234 150.567L69.2463 148.85L69.811 146.622C69.191 146.057 68.6484 145.425 68.2055 144.738L65.9246 144.949L64.751 141.336L66.7218 140.162C66.6775 139.342 66.744 138.51 66.9101 137.69L65.1496 136.228L66.8658 132.848L69.0913 133.402ZM72.5016 137.646C71.4829 139.652 72.2801 142.101 74.2842 143.12C76.2883 144.14 78.7352 143.342 79.7539 141.336C80.7725 139.33 79.9753 136.881 77.9713 135.862C75.9672 134.842 73.5202 135.64 72.5016 137.646Z" fill="white"/>
<path d="M533.517 79.6664L561.208 117.366L591.015 79.6221L533.517 79.6664Z" fill="#FFC727"/>
<path d="M576.477 86.0495H548.066V45.4129C548.066 36.9465 545.043 34.0985 544.046 33.1676C539.784 29.156 531.701 28.1254 525.556 28.5133C525.201 28.5354 524.725 28.5576 524.161 28.5576C524.139 28.5576 524.116 28.5576 524.094 28.5576C514.085 28.5576 507.198 31.2394 503.611 36.5254C500.743 40.7586 500.577 45.5015 500.577 45.5459V45.3132L472.165 45.5348C472.154 43.6952 472.398 27.2278 485.253 14.3065C494.587 4.92032 507.619 0.155184 523.972 0.133021C531.59 -0.321329 550.313 0.0443669 563.511 12.467C569.424 18.03 576.477 28.2695 576.477 45.4351V86.0495Z" fill="#FFC727"/>
<path d="M134.716 174.914L140.263 219.728C141.061 227.397 142.267 238.755 154.336 236.949C164.689 234.589 166.316 224.338 165.563 217.179C165.209 213.788 164.921 210.951 164.91 210.597C164.91 210.597 176.27 208.325 175.927 196.878C175.761 191.348 174.488 179.967 173.214 169.694C171.853 158.657 162.231 150.523 151.136 150.999L150.029 151.044C138.16 152.252 133.177 163.067 134.716 174.914Z" fill="#FFCEB3"/>
<path d="M164.932 210.597C164.932 210.597 157.735 211.328 149.852 206.829C149.852 206.829 153.838 215.041 165.209 213.522L164.932 210.597Z" fill="#FF9C65"/>
<path d="M136.022 183.502C135.812 183.424 127.618 181.629 128.437 189.819C129.268 198.008 137.306 195.481 137.295 195.249C137.295 195.016 136.022 183.502 136.022 183.502Z" fill="#FFCEB3"/>
<path d="M134.494 192.401C134.461 192.378 134.361 192.511 134.128 192.644C133.907 192.777 133.508 192.888 133.065 192.777C132.169 192.545 131.305 191.248 131.117 189.774C131.017 189.032 131.106 188.311 131.305 187.691C131.493 187.07 131.836 186.605 132.268 186.483C132.689 186.339 133.021 186.572 133.143 186.793C133.276 187.015 133.243 187.181 133.287 187.192C133.309 187.214 133.453 187.037 133.353 186.705C133.298 186.549 133.187 186.361 132.977 186.228C132.767 186.084 132.468 186.04 132.169 186.095C131.538 186.206 131.028 186.838 130.807 187.514C130.552 188.19 130.43 189.01 130.541 189.841C130.762 191.481 131.759 192.944 132.977 193.165C133.564 193.254 134.029 193.032 134.261 192.822C134.494 192.6 134.527 192.412 134.494 192.401Z" fill="#FF9C65"/>
<path d="M187.375 157.726C187.198 157.283 186.822 156.95 186.39 156.751C185.438 156.33 184.43 156.518 183.434 156.618C180.976 156.862 178.462 156.518 176.137 155.654C176.857 155.177 177.51 154.623 178.053 153.947C179.16 152.551 179.658 150.556 178.894 148.949C178.75 148.65 178.529 148.34 178.196 148.273C177.676 148.174 177.289 148.728 176.99 149.16C175.982 150.578 174.986 151.265 173.247 151.287C172.162 151.299 171.099 151.188 170.202 150.756C170.169 150.722 170.136 150.689 170.092 150.656C169.638 150.29 169.206 149.936 168.774 149.592C165.53 147.032 162.784 145.326 160.082 144.583C156.118 143.497 149.73 143.619 145.91 145.104C142.09 146.6 138.912 150.213 138.835 154.313C136.41 152.695 133.088 153.105 130.519 154.501L130.453 154.479C127.574 155.897 126.245 159.266 125.714 162.436C125.681 162.613 125.659 162.779 125.636 162.957C124.806 164.685 123.588 166.226 122.06 167.367C121.794 167.567 121.484 167.81 121.484 168.154C121.484 168.486 121.794 168.73 122.093 168.896C122.868 169.329 123.754 169.572 124.64 169.628C124.452 170.392 124.208 171.135 123.887 171.855C123.61 172.465 123.289 173.207 123.655 173.761C123.931 174.193 124.54 174.315 125.05 174.182C125.548 174.049 125.969 173.717 126.367 173.384C126.124 174.227 125.88 175.069 125.648 175.911C126.755 175.978 127.873 175.756 128.881 175.313C129.855 178.105 130.995 181.674 131.959 183.524C133.21 183.38 134.361 182.948 135.214 183.546C136.377 184.366 137.052 186.095 138.713 185.22C139.565 184.776 140.152 182.815 140.352 181.873C141.625 175.634 141.536 169.118 140.097 162.912C141.182 161.438 142.555 160.186 144.116 159.233L143.994 159.366C147.039 157.892 150.494 156.396 153.671 157.538C156.141 158.424 157.79 160.685 159.75 162.414C163.481 165.694 167.711 167.19 172.66 166.835C173.502 170.204 173.635 174.592 174.177 177.762L176.525 172.265V172.287C176.702 171.888 176.835 171.489 176.967 171.09L177.012 170.969V170.958C177.222 170.315 177.41 169.683 177.698 169.04C177.709 169.051 177.72 169.051 177.731 169.063C179.636 170.392 181.917 167.755 180.333 166.059C180.023 165.727 179.658 165.428 179.259 165.206C180.134 165.86 181.352 166.082 182.36 165.638C183.356 165.195 184.043 164.054 183.821 162.99C183.677 162.258 183.068 161.66 182.371 161.449C183.777 161.394 185.172 160.929 186.312 160.086C187.065 159.543 187.763 158.701 187.375 157.726Z" fill="#263238"/>
<path d="M142.555 155.221C142.577 155.244 142.112 155.576 141.536 156.396C140.96 157.205 140.374 158.579 140.23 160.363C140.152 161.25 140.152 162.236 140.274 163.278C140.396 164.32 140.606 165.428 140.816 166.602C141.027 167.777 141.259 169.007 141.337 170.315C141.37 170.969 141.37 171.633 141.304 172.309C141.237 172.974 141.149 173.695 140.728 174.304C140.396 174.803 139.765 175.08 139.189 175.024C138.613 174.991 138.071 174.747 137.65 174.382C136.819 173.617 136.509 172.553 136.221 171.622H136.465C136.177 172.52 135.878 173.418 135.358 174.16C134.86 174.903 134.107 175.446 133.287 175.623C132.889 175.712 132.468 175.689 132.092 175.556C131.715 175.423 131.416 175.157 131.206 174.869C130.995 174.57 130.874 174.227 130.851 173.894C130.829 173.551 130.929 173.218 131.117 172.974L131.25 173.063C130.486 174.16 129.633 174.803 129.024 175.18C128.714 175.368 128.471 175.479 128.305 175.556C128.139 175.634 128.05 175.667 128.039 175.656C128.039 175.645 128.117 175.601 128.283 175.512C128.449 175.423 128.681 175.29 128.98 175.102C129.567 174.714 130.397 174.06 131.117 172.974L131.25 173.063C130.918 173.506 130.973 174.227 131.372 174.758C131.571 175.024 131.837 175.257 132.169 175.368C132.501 175.49 132.878 175.501 133.243 175.412C133.985 175.246 134.693 174.736 135.159 174.027C135.646 173.318 135.934 172.453 136.221 171.545L136.343 171.157L136.465 171.545C136.753 172.476 137.074 173.495 137.827 174.182C138.203 174.515 138.691 174.736 139.2 174.758C139.709 174.792 140.219 174.57 140.506 174.149C140.872 173.617 140.971 172.93 141.038 172.287C141.104 171.633 141.104 170.98 141.071 170.337C141.005 169.051 140.783 167.821 140.573 166.658C140.362 165.483 140.152 164.375 140.052 163.311C139.942 162.247 139.953 161.25 140.041 160.352C140.219 158.535 140.839 157.15 141.448 156.341C142.068 155.521 142.555 155.221 142.555 155.221Z" fill="#455A64"/>
<path d="M178.905 162.192C178.905 162.192 178.883 162.225 178.828 162.281C178.762 162.347 178.673 162.425 178.573 162.524C178.463 162.635 178.319 162.757 178.13 162.89C177.942 163.023 177.743 163.189 177.488 163.333C176.492 163.954 174.864 164.652 172.738 164.774C170.635 164.896 168.044 164.453 165.608 163.034C163.15 161.671 160.891 159.499 158.942 156.939C157.957 155.665 157.126 154.335 156.23 153.116C155.344 151.897 154.392 150.789 153.295 149.958C152.21 149.116 151.003 148.539 149.797 148.351C149.199 148.24 148.612 148.273 148.047 148.351C147.493 148.451 146.973 148.617 146.508 148.839C145.567 149.282 144.847 149.913 144.305 150.534C143.773 151.166 143.43 151.808 143.22 152.34C142.821 153.437 142.876 154.113 142.832 154.113C142.832 154.113 142.821 154.069 142.832 153.992C142.832 153.892 142.843 153.781 142.843 153.637C142.865 153.327 142.943 152.872 143.12 152.307C143.33 151.753 143.651 151.088 144.194 150.434C144.725 149.78 145.467 149.127 146.431 148.661C146.907 148.428 147.449 148.251 148.014 148.14C148.59 148.052 149.21 148.018 149.83 148.118C151.081 148.307 152.332 148.894 153.439 149.747C154.569 150.601 155.543 151.72 156.429 152.95C157.326 154.169 158.167 155.499 159.142 156.762C161.068 159.3 163.305 161.449 165.718 162.813C168.11 164.209 170.646 164.674 172.727 164.575C174.82 164.475 176.436 163.821 177.433 163.234C178.418 162.635 178.872 162.159 178.905 162.192Z" fill="#455A64"/>
<path d="M179.359 157.083C179.37 157.094 179.237 157.216 178.982 157.416C178.739 157.615 178.351 157.881 177.853 158.169C177.355 158.457 176.735 158.756 176.015 159.011C175.295 159.266 174.487 159.488 173.612 159.621C172.737 159.743 171.896 159.776 171.143 159.743C170.379 159.698 169.704 159.599 169.139 159.466C168.574 159.333 168.131 159.2 167.832 159.078C167.533 158.956 167.367 158.889 167.378 158.867C167.401 158.823 168.054 159.067 169.172 159.277C169.726 159.388 170.401 159.466 171.143 159.499C171.885 159.521 172.715 159.488 173.568 159.366C174.42 159.233 175.218 159.022 175.926 158.79C176.635 158.546 177.255 158.269 177.753 158.003C178.761 157.482 179.325 157.05 179.359 157.083Z" fill="#455A64"/>
<path d="M171.454 234.91L99.9829 235.797C96.4508 235.841 93.6052 238.7 93.5831 242.235L92.5645 368.511L188.86 369.83L177.998 240.861C177.71 237.459 174.854 234.866 171.454 234.91Z" fill="#455A64"/>
<path d="M253.455 450.549L253.056 474.94C253.056 474.94 277.692 483.528 278.057 488.049L230.79 488.98L229.849 450.959L253.455 450.549Z" fill="#FFC727"/>
<path d="M238.397 473.167C237.489 473.433 236.88 474.474 237.101 475.394C237.334 476.314 238.386 476.945 239.305 476.691C240.224 476.436 240.988 475.206 240.656 474.319C240.323 473.433 239.05 472.757 238.22 473.222" fill="#E0E0E0"/>
<path d="M230.79 488.969L230.635 485.135L276.153 485.678C276.153 485.678 278.279 486.553 278.068 488.038L230.79 488.969Z" fill="#E0E0E0"/>
<path d="M253.82 474.674C253.82 474.906 252.669 475.028 251.539 475.793C250.399 476.524 249.834 477.544 249.613 477.455C249.402 477.411 249.712 476.026 251.085 475.128C252.469 474.219 253.864 474.463 253.82 474.674Z" fill="#263238"/>
<path d="M258.814 476.635C258.869 476.857 257.884 477.267 257.12 478.264C256.322 479.239 256.145 480.292 255.924 480.292C255.702 480.337 255.525 478.985 256.499 477.766C257.452 476.536 258.814 476.414 258.814 476.635Z" fill="#263238"/>
<path d="M261.748 482.52C261.537 482.575 261.194 481.423 261.759 480.148C262.312 478.863 263.397 478.342 263.497 478.541C263.63 478.73 262.943 479.417 262.489 480.481C262.024 481.511 261.98 482.486 261.748 482.52Z" fill="#263238"/>
<path d="M253.289 469.111C253.2 469.321 252.126 469.022 250.831 469.144C249.524 469.233 248.517 469.687 248.395 469.499C248.262 469.332 249.236 468.457 250.764 468.346C252.303 468.213 253.4 468.922 253.289 469.111Z" fill="#263238"/>
<path d="M182.426 325.182C182.426 325.182 196.422 327.287 210.849 329.969C228.133 333.183 246.546 337.205 249.004 339.145C253.532 342.702 254.496 352.409 256.433 364.378C258.371 376.346 258.814 465.387 258.814 465.387L226.704 466.318L220.349 372.899C220.349 372.899 173.469 372.899 163.814 372.822C156.03 372.766 135.104 373.631 127.154 369.442C114.653 362.848 116.989 337.748 116.989 337.748C120.112 335.066 173.569 319.208 173.569 319.208L182.426 325.182Z" fill="#263238"/>
<path d="M261.494 391.971L266.111 416.55C266.111 416.55 292.629 420.107 293.924 424.562L246.624 435.245L237.854 397.235L261.494 391.971Z" fill="#FFC727"/>
<path d="M251.031 417.802C250.167 418.257 249.768 419.431 250.189 420.307C250.61 421.182 251.795 421.603 252.669 421.16C253.533 420.717 254.064 419.321 253.544 418.501C253.024 417.681 251.606 417.259 250.865 417.902" fill="#E0E0E0"/>
<path d="M246.823 436.254L245.971 432.574L291.522 422.59C291.522 422.59 293.836 423.033 293.936 424.573L246.823 436.254Z" fill="#E0E0E0"/>
<path d="M266.83 416.14C266.874 416.373 265.745 416.738 264.771 417.736C263.774 418.711 263.42 419.841 263.187 419.797C262.966 419.797 262.999 418.345 264.195 417.149C265.369 415.963 266.83 415.918 266.83 416.14Z" fill="#263238"/>
<path d="M272.256 417.071C272.356 417.281 271.448 417.902 270.883 419.055C270.286 420.196 270.33 421.293 270.097 421.337C269.887 421.426 269.422 420.107 270.153 418.678C270.861 417.259 272.201 416.86 272.256 417.071Z" fill="#263238"/>
<path d="M276.409 422.379C276.209 422.479 275.622 421.393 275.932 419.997C276.231 418.589 277.206 417.847 277.35 418.024C277.527 418.179 276.973 419.022 276.741 420.174C276.486 421.315 276.641 422.313 276.409 422.379Z" fill="#263238"/>
<path d="M265.158 410.655C265.114 410.887 263.974 410.81 262.689 411.187C261.394 411.541 260.475 412.217 260.309 412.04C260.143 411.907 260.94 410.821 262.457 410.389C263.974 409.957 265.225 410.444 265.158 410.655Z" fill="#263238"/>
<path d="M238.508 306.963C238.508 306.963 249.569 306.176 251.938 315.651C255.227 328.783 269.743 407.286 269.743 407.286L237.046 413.614L219.807 337.006L188.838 331.964L176.071 326.855C176.071 326.855 183.279 319.164 198.227 314.399C208.413 311.152 238.508 306.963 238.508 306.963Z" fill="#263238"/>
<path d="M219.928 338.978C220.072 339.067 221.224 336.452 223.815 334.235C226.373 331.975 229.118 331.199 229.052 331.033C229.052 330.911 226.14 331.487 223.472 333.836C222.154 334.989 221.191 336.274 220.637 337.272C220.083 338.28 219.873 338.956 219.928 338.978Z" fill="#455A64"/>
<path d="M227.059 323.442C227.036 323.408 226.815 323.553 226.45 323.841C226.073 324.118 225.564 324.572 224.977 325.182C223.803 326.378 222.397 328.273 221.356 330.634C220.327 333.005 219.906 335.321 219.817 336.995C219.773 337.837 219.784 338.513 219.84 338.978C219.884 339.444 219.928 339.699 219.961 339.699C220.05 339.699 220.006 338.668 220.194 337.028C220.371 335.388 220.847 333.149 221.844 330.844C222.851 328.539 224.18 326.667 225.254 325.425C226.328 324.173 227.114 323.508 227.059 323.442Z" fill="#455A64"/>
<path d="M253.422 323.431C253.422 323.431 253.466 323.564 253.521 323.83C253.577 324.118 253.665 324.506 253.776 325.026C253.998 326.101 254.308 327.653 254.717 329.67C255.526 333.748 256.699 339.654 258.183 347.068C261.106 361.962 265.214 382.906 269.997 407.231L270.041 407.474L269.798 407.519C259.6 409.491 248.55 411.641 237.112 413.857L236.858 413.902L236.802 413.658C236.636 412.893 236.448 412.073 236.26 411.242C229.926 382.984 224.102 357.03 219.618 337.028L219.784 337.183C206.143 334.922 195.016 333.083 187.276 331.797C183.434 331.144 180.433 330.645 178.374 330.29C177.366 330.113 176.591 329.98 176.049 329.88C175.528 329.78 175.263 329.725 175.263 329.725C175.263 329.725 175.54 329.747 176.06 329.825C176.602 329.902 177.378 330.024 178.385 330.179C180.445 330.501 183.456 330.977 187.309 331.576C195.049 332.817 206.188 334.601 219.851 336.784L219.984 336.806L220.017 336.939C224.534 356.942 230.391 382.873 236.769 411.12C236.957 411.951 237.146 412.771 237.312 413.536L237.002 413.337C248.45 411.131 259.489 408.993 269.698 407.02L269.499 407.319C264.804 382.984 260.752 362.017 257.873 347.123C256.456 339.699 255.326 333.781 254.551 329.692C254.175 327.675 253.887 326.112 253.688 325.038C253.599 324.517 253.521 324.118 253.477 323.83C253.444 323.575 253.422 323.431 253.422 323.431Z" fill="#455A64"/>
<path d="M182.327 225.513C182.327 225.513 188.395 229.536 191.063 241.448C193.2 251.001 196.61 269.108 196.61 269.108L209.31 277.453C210.572 278.284 210.971 279.935 210.229 281.243C207.251 286.529 199.744 299.062 194.839 300.58C188.605 302.509 182.593 297.611 182.593 297.611L182.327 225.513Z" fill="#FFC727"/>
<path d="M182.327 225.513L167.701 219.628L165.209 214.752L162.94 224.848L139.145 210.663L137.451 216.592C137.451 216.592 114.764 226.122 111.808 228.815C108.187 232.118 118.075 287.127 118.075 287.127C118.075 287.127 114.487 331.277 115.805 340.064C115.805 340.064 131.694 335.499 144.892 333.681C158.09 331.875 174.034 326.811 174.034 326.811L188.428 317.901L182.327 225.513Z" fill="#FFC727"/>
<path d="M184.508 249.471C184.53 249.471 184.552 249.726 184.575 250.214C184.597 250.746 184.63 251.455 184.674 252.331C184.763 254.225 184.874 256.874 185.029 260.121C185.327 266.692 185.793 275.779 186.368 285.808C186.955 295.837 187.542 304.913 188.04 311.474C188.295 314.709 188.505 317.347 188.649 319.242C188.716 320.117 188.782 320.815 188.826 321.358C188.86 321.846 188.871 322.101 188.848 322.101C188.826 322.101 188.782 321.857 188.716 321.37C188.649 320.838 188.561 320.14 188.45 319.264C188.239 317.436 187.963 314.787 187.664 311.507C187.077 304.946 186.424 295.871 185.837 285.842C185.261 275.813 184.851 266.726 184.652 260.143C184.541 256.852 184.486 254.192 184.464 252.342C184.464 251.466 184.464 250.757 184.464 250.225C184.475 249.726 184.486 249.483 184.508 249.471Z" fill="#263238"/>
<path d="M124.828 244.972C124.74 244.961 124.862 243.798 124.607 241.947C124.363 240.107 123.611 237.581 121.95 235.276C120.289 232.971 118.119 231.464 116.458 230.655C114.786 229.824 113.634 229.58 113.657 229.491C113.668 229.458 113.956 229.491 114.476 229.602C114.996 229.713 115.738 229.934 116.613 230.322C118.362 231.065 120.643 232.583 122.382 234.977C124.109 237.37 124.828 240.019 124.983 241.914C125.072 242.867 125.05 243.642 124.995 244.174C124.928 244.695 124.862 244.983 124.828 244.972Z" fill="#263238"/>
<path d="M187.077 302.631L180.102 295.538L165.763 292.059C165.763 292.059 152.62 295.826 152.31 295.815C152 295.804 140.707 292.059 140.707 292.059L136.986 306.565L157.016 307.883L179.891 307.008C179.891 307.008 181.087 305.944 180.379 305.213C179.67 304.481 184.198 306.443 184.741 306.465C185.261 306.487 186.313 306.886 187.011 306.066C187.487 305.512 188.151 303.717 187.077 302.631Z" fill="#FFCEB3"/>
<path d="M111.642 228.804C111.642 228.804 106.548 231.996 104.035 241.914C101.522 251.832 93.6713 292.812 95.9079 298.874C98.1445 304.936 147.737 312.748 147.737 312.748L153.384 294.796L118.971 283.382C118.971 283.382 124.009 263.667 124.286 255.688C124.563 247.687 111.642 228.804 111.642 228.804Z" fill="#FFC727"/>
<path d="M180.379 305.213C180.356 305.279 179.493 305.013 178.098 304.592C176.703 304.171 174.787 303.606 172.628 303.074C170.48 302.553 168.509 302.154 167.07 301.877C165.641 301.6 164.756 301.434 164.767 301.356C164.778 301.29 165.686 301.345 167.136 301.522C168.587 301.711 170.591 302.054 172.761 302.586C174.931 303.118 176.858 303.739 178.22 304.248C179.592 304.78 180.401 305.157 180.379 305.213Z" fill="#FF9C65"/>
<path d="M187.077 302.631C187.044 302.697 185.848 302.276 183.899 301.644C181.951 301.013 179.216 300.237 176.182 299.428C173.148 298.564 170.458 297.699 168.409 297.588C166.372 297.422 165.132 297.81 165.11 297.71C165.099 297.688 165.398 297.566 165.973 297.433C166.538 297.3 167.391 297.2 168.442 297.234C170.557 297.267 173.336 298.098 176.337 298.951C179.371 299.76 182.106 300.591 184.032 301.312C184.995 301.666 185.771 301.977 186.291 302.209C186.811 302.453 187.088 302.608 187.077 302.631Z" fill="#FF9C65"/>
<path d="M109.062 287.083C108.951 287.016 110.667 285.022 113.623 283.947C116.569 282.839 119.171 283.227 119.137 283.348C119.137 283.515 116.635 283.371 113.812 284.446C110.977 285.465 109.172 287.205 109.062 287.083Z" fill="#263238"/>
<path d="M103.592 303.539C103.592 303.528 103.669 303.55 103.802 303.584C103.968 303.628 104.168 303.683 104.422 303.75C104.965 303.916 105.773 304.116 106.836 304.37C108.951 304.88 112.051 305.567 115.96 306.376C123.788 307.994 134.86 310.133 147.781 312.504L147.504 312.671C149.254 307.085 151.158 301.013 153.14 294.707L153.306 295.04C152.686 294.84 152.022 294.618 151.358 294.397C139.433 290.43 128.283 286.717 118.905 283.592L118.717 283.526L118.75 283.337C120.521 273.962 121.994 266.172 123.035 260.675C123.566 257.971 123.976 255.844 124.264 254.348C124.408 253.638 124.518 253.095 124.607 252.685C124.684 252.309 124.74 252.12 124.751 252.12C124.762 252.12 124.74 252.32 124.684 252.696C124.618 253.106 124.529 253.66 124.408 254.37C124.142 255.866 123.765 258.016 123.3 260.72C122.304 266.227 120.898 274.04 119.193 283.415L119.038 283.16C128.427 286.263 139.577 289.942 151.524 293.887C152.188 294.109 152.852 294.33 153.472 294.53L153.716 294.607L153.638 294.851C151.645 301.157 149.741 307.218 147.969 312.804L147.903 313.014L147.693 312.97C134.771 310.565 123.71 308.36 115.893 306.653C111.985 305.811 108.895 305.069 106.792 304.503C105.74 304.215 104.932 303.994 104.4 303.805C104.156 303.717 103.946 303.65 103.791 303.595C103.658 303.572 103.592 303.539 103.592 303.539Z" fill="#263238"/>
<path d="M199.921 284.479C199.91 284.512 199.556 284.379 198.947 284.113C198.349 283.803 197.485 283.348 196.533 282.584C194.618 281.121 192.315 278.495 191.119 274.948C190.554 273.175 190.233 271.424 190.355 269.784C190.465 268.144 191.351 266.693 192.503 266.116C193.665 265.496 194.817 265.85 195.359 266.238C195.935 266.659 196.035 267.08 196.013 267.08C195.968 267.114 195.802 266.759 195.238 266.438C194.706 266.127 193.676 265.895 192.702 266.482C191.728 267.036 190.964 268.322 190.886 269.84C190.798 271.358 191.119 273.087 191.661 274.782C192.813 278.195 194.983 280.777 196.788 282.284C198.593 283.803 199.977 284.379 199.921 284.479Z" fill="#263238"/>
<path d="M188.206 276.278C188.062 276.2 188.505 275.059 189.202 273.718C189.889 272.377 190.564 271.347 190.708 271.413C190.852 271.491 190.409 272.632 189.712 273.973C189.025 275.325 188.35 276.356 188.206 276.278Z" fill="#263238"/>
<path d="M167.822 219.23C167.9 219.241 167.833 220.194 167.656 221.723C167.479 223.252 167.202 225.358 166.859 227.685C166.803 228.062 166.748 228.427 166.693 228.782L166.571 229.613L166.161 228.882C165.353 227.43 164.489 226.178 163.77 225.236L164.157 225.103C164.046 226.931 163.936 228.084 163.847 228.073C163.759 228.073 163.714 226.92 163.725 225.081V224.493L164.113 224.948C164.899 225.868 165.818 227.109 166.659 228.594L166.128 228.693C166.183 228.339 166.239 227.962 166.283 227.596C166.626 225.269 166.969 223.175 167.246 221.656C167.534 220.149 167.745 219.219 167.822 219.23Z" fill="#263238"/>
<path d="M163.316 228.682C163.283 228.704 163.017 228.361 162.541 227.707C162.01 226.965 161.356 226.034 160.559 224.914L160.903 224.859C160.449 226.621 159.895 228.727 159.286 231.076L159.197 231.408L158.898 231.231C156.928 230.078 154.746 228.76 152.477 227.319C148.125 224.571 144.305 221.922 141.581 219.939C140.22 218.952 139.134 218.121 138.393 217.545C137.651 216.958 137.252 216.625 137.274 216.592C137.296 216.559 137.739 216.836 138.514 217.368C139.389 217.966 140.485 218.72 141.803 219.617C144.582 221.512 148.435 224.105 152.775 226.854C155.034 228.283 157.204 229.613 159.153 230.799L158.766 230.954C159.43 228.616 160.028 226.521 160.526 224.77L160.648 224.36L160.869 224.715C161.6 225.867 162.209 226.832 162.707 227.607C163.128 228.272 163.349 228.66 163.316 228.682Z" fill="#263238"/>
<path d="M168.409 292.579C168.387 292.579 168.343 292.369 168.288 291.948C168.221 291.471 168.144 290.873 168.055 290.13C167.856 288.546 167.612 286.263 167.324 283.426C166.749 277.763 166.04 269.928 165.42 261.274C164.8 252.608 164.39 244.751 164.158 239.066C164.047 236.218 163.969 233.924 163.936 232.328C163.925 231.586 163.914 230.976 163.914 230.5C163.914 230.079 163.925 229.857 163.947 229.857C163.969 229.857 163.992 230.079 164.036 230.489C164.069 230.965 164.113 231.575 164.169 232.317C164.268 233.979 164.401 236.262 164.578 239.044C164.911 244.729 165.387 252.574 166.007 261.229C166.627 269.884 167.269 277.719 167.745 283.393C167.978 286.174 168.166 288.446 168.299 290.108C168.354 290.851 168.398 291.46 168.432 291.937C168.432 292.358 168.432 292.579 168.409 292.579Z" fill="#263238"/>
<path d="M137.307 318.244C137.307 318.389 128.925 318.51 118.606 318.51C108.275 318.51 99.8936 318.389 99.8936 318.244C99.8936 318.1 108.264 317.979 118.606 317.979C128.925 317.979 137.307 318.1 137.307 318.244Z" fill="#263238"/>
<path d="M121.197 308.57C121.197 308.714 116.203 308.836 110.047 308.836C103.891 308.836 98.8975 308.714 98.8975 308.57C98.8975 308.426 103.891 308.304 110.047 308.304C116.203 308.315 121.197 308.426 121.197 308.57Z" fill="#263238"/>
<path d="M220.382 266.227L198.924 304.237L149.276 305.312L149.154 307.617L198.415 307.252L199.976 307.196L251.993 307.296L262.501 289.155L275.511 268.056C276.397 266.792 275.489 265.063 273.95 265.063L222.032 265.263C221.345 265.274 220.714 265.64 220.382 266.227Z" fill="#E0E0E0"/>
<path d="M237.001 285.808C236.082 286.828 236.06 288.302 236.957 289.111C237.854 289.92 239.315 289.742 240.234 288.723C241.153 287.703 241.175 286.219 240.279 285.421C239.393 284.623 237.92 284.789 237.001 285.808Z" fill="white"/>
<path d="M226.041 265.263C226.162 265.33 220.925 274.782 214.337 286.352C207.749 297.932 202.313 307.252 202.18 307.185C202.058 307.119 207.295 297.677 213.883 286.097C220.471 274.516 225.919 265.197 226.041 265.263Z" fill="#263238"/>
<path d="M195.249 382.241C195.249 382.241 171.61 393.046 148.613 393.046C127.31 393.046 103.493 382.319 103.493 382.319L195.249 382.241Z" fill="#E0E0E0"/>
<path d="M146.201 478.885H155.324V383.272H146.201V478.885Z" fill="#E0E0E0"/>
<path d="M109.873 480.53H190.822V474.922H109.873V480.53Z" fill="#E0E0E0"/>
<path d="M181.331 482.941C181.331 486.354 184.099 489.125 187.509 489.125C190.92 489.125 193.688 486.354 193.688 482.941C193.688 479.528 190.92 476.757 187.509 476.757C184.099 476.757 181.331 479.528 181.331 482.941Z" fill="#263238"/>
<path d="M145.356 482.941C145.356 486.354 148.125 489.125 151.535 489.125C154.945 489.125 157.713 486.354 157.713 482.941C157.713 479.528 154.945 476.757 151.535 476.757C148.125 476.757 145.356 479.528 145.356 482.941Z" fill="#263238"/>
<path d="M103.692 482.941C103.692 486.354 106.46 489.125 109.871 489.125C113.281 489.125 116.049 486.354 116.049 482.941C116.049 479.528 113.281 476.757 109.871 476.757C106.46 476.757 103.692 479.528 103.692 482.941Z" fill="#263238"/>
<path d="M148.609 422.815H161.01V417.673H148.609V422.815Z" fill="#E0E0E0"/>
<path d="M158.755 426.417H163.272V414.083H158.755V426.417Z" fill="#E0E0E0"/>
<path d="M102.042 382.241H210.03C214.071 382.241 217.338 380.003 217.338 375.382C217.338 371.592 214.06 368.522 210.03 368.522H92.5645V373.354C92.5645 378.252 96.8051 382.241 102.042 382.241Z" fill="#455A64"/>
<path d="M107.235 318.034C107.379 318.034 107.501 329.958 107.501 344.664C107.501 359.369 107.379 371.293 107.235 371.293C107.092 371.293 106.97 359.369 106.97 344.664C106.97 329.958 107.092 318.034 107.235 318.034Z" fill="#263238"/>
<path d="M214.237 366.794C214.237 366.794 214.857 367.414 215.699 368.833C216.54 370.24 217.448 372.623 217.437 375.781C217.515 377.332 217.083 379.238 215.655 380.612C214.957 381.288 214.06 381.843 213.042 382.109C212.023 382.408 210.905 382.397 209.809 382.397C205.369 382.408 200.309 382.43 194.728 382.452C172.351 382.485 141.482 382.541 107.379 382.585C105.32 382.574 103.282 382.652 101.19 382.408C99.1413 382.053 97.1483 381.189 95.6646 379.726C94.1698 378.274 93.2508 376.357 92.7415 374.418C92.2322 372.456 92.0993 370.462 92.2543 368.478V368.511C92.5422 340.142 92.8079 315.264 92.9851 297.455C93.0958 288.579 93.1955 281.464 93.2508 276.544C93.2951 274.117 93.3283 272.222 93.3505 270.926C93.3616 270.305 93.3837 269.818 93.3837 269.474C93.3948 269.142 93.4169 268.975 93.4169 268.975C93.4169 268.975 93.428 269.142 93.4391 269.474C93.4391 269.818 93.4501 270.305 93.4501 270.926C93.4501 272.233 93.4501 274.117 93.4501 276.544C93.428 281.464 93.3948 288.579 93.3505 297.455C93.2176 315.264 93.0294 340.142 92.819 368.511V368.522V368.545C92.6751 370.428 92.8079 372.401 93.2951 374.274C93.7823 376.147 94.6681 377.953 96.0632 379.316C97.4472 380.69 99.3184 381.51 101.278 381.843C103.249 382.075 105.32 382.009 107.379 382.02C141.482 382.031 172.351 382.042 194.717 382.053C200.309 382.064 205.357 382.075 209.797 382.086C210.916 382.097 211.968 382.12 212.953 381.831C213.927 381.577 214.791 381.067 215.455 380.424C216.817 379.116 217.249 377.31 217.205 375.792C217.249 372.656 216.385 370.318 215.588 368.899C215.19 368.179 214.835 367.669 214.592 367.326C214.359 366.982 214.237 366.794 214.237 366.794Z" fill="#263238"/>
<path d="M94.192 317.879L144.017 318.477C144.781 318.5 145.357 319.187 145.246 319.951L137.772 382.264H149.476L155.51 313.679C155.798 311.341 154.015 309.257 151.668 309.169L93.4502 308.825L94.192 317.879Z" fill="#455A64"/>
<path d="M94.1918 317.879C94.1918 317.879 94.1585 317.702 94.1253 317.325C94.0921 316.926 94.0367 316.361 93.9592 315.629C93.8153 314.089 93.616 311.817 93.3392 308.836L93.3281 308.725H93.4388C102.939 308.759 119.913 308.803 141.703 308.869C144.427 308.88 147.239 308.892 150.107 308.903C150.837 308.936 151.524 308.847 152.31 308.991C153.074 309.124 153.794 309.49 154.369 310.011C154.956 310.532 155.388 311.23 155.61 311.983C155.853 312.737 155.776 313.59 155.698 314.311C155.178 320.306 154.635 326.567 154.071 333.039C152.93 345.982 151.723 359.79 150.472 374.119C150.228 376.867 149.985 379.593 149.752 382.286L149.73 382.552H149.464C145.478 382.552 141.57 382.552 137.772 382.552H137.451L137.484 382.23C139.433 366.084 141.26 350.891 142.921 337.183C143.342 333.759 143.74 330.423 144.128 327.187C144.327 325.57 144.515 323.974 144.703 322.411C144.803 321.624 144.892 320.849 144.991 320.084C145.168 319.386 144.659 318.732 144.006 318.71C137.905 318.621 132.247 318.544 127.099 318.466C116.835 318.3 108.597 318.167 102.895 318.078C100.082 318.023 97.901 317.99 96.4062 317.956C95.6865 317.934 95.1329 317.923 94.7343 317.912C94.38 317.901 94.1918 317.879 94.1918 317.879C94.1918 317.879 94.4021 317.868 94.7786 317.868C95.1883 317.868 95.7529 317.868 96.4837 317.868C98.0006 317.879 100.193 317.89 103.027 317.901C108.719 317.945 116.956 318.012 127.209 318.089C132.336 318.134 137.971 318.189 144.039 318.256C144.493 318.267 144.925 318.51 145.191 318.865C145.467 319.209 145.545 319.741 145.456 320.128C145.368 320.893 145.268 321.68 145.18 322.456C144.991 324.018 144.803 325.614 144.615 327.232C144.227 330.468 143.84 333.803 143.43 337.228C141.791 350.947 139.987 366.14 138.06 382.286L137.772 381.964C141.57 381.964 145.49 381.964 149.464 381.964L149.177 382.23C149.409 379.537 149.653 376.811 149.896 374.063C151.159 359.734 152.388 345.927 153.528 332.972C154.104 326.5 154.657 320.239 155.189 314.244C155.266 313.479 155.333 312.803 155.122 312.116C154.923 311.451 154.547 310.831 154.037 310.377C153.528 309.911 152.897 309.59 152.221 309.468C151.579 309.346 150.804 309.412 150.096 309.39C147.228 309.368 144.416 309.346 141.692 309.324C119.902 309.135 102.928 308.991 93.4278 308.903L93.5274 308.792C93.7489 311.762 93.915 314.011 94.0257 315.541C94.081 316.294 94.1143 316.859 94.1475 317.269C94.1918 317.679 94.1918 317.879 94.1918 317.879Z" fill="#263238"/>
<path d="M144.338 377.798C145.176 377.798 145.855 377.118 145.855 376.279C145.855 375.441 145.176 374.761 144.338 374.761C143.5 374.761 142.821 375.441 142.821 376.279C142.821 377.118 143.5 377.798 144.338 377.798Z" fill="#263238"/>
<path d="M209.299 251.865L194.816 269.684C195.47 273.064 197.197 276.09 199.666 278.328C202.069 280.5 205.512 281.088 208.568 280.024C208.568 280.024 209.52 278.428 212.167 274.161C217.16 266.116 220.482 250.779 220.482 250.779L209.299 251.865Z" fill="#FFCEB3"/>
<path d="M232.063 217.434C231.687 217.069 231.122 216.936 230.568 217.057L221.102 219.263C220.271 219.473 219.551 219.983 219.12 220.67L200.496 250.336L202.046 250.945L212.554 249.527L232.373 217.733L232.063 217.434Z" fill="#263238"/>
<path d="M225.475 221.723C225.685 221.867 226.04 221.756 226.261 221.49C226.483 221.224 226.505 220.892 226.294 220.748C226.084 220.604 225.73 220.714 225.508 220.98C225.276 221.257 225.265 221.59 225.475 221.723Z" fill="white"/>
<path d="M232.373 217.733C232.385 217.767 231.731 217.955 230.547 218.254C229.262 218.576 227.579 218.997 225.531 219.495C224.457 219.75 223.305 220.027 222.065 220.327C221.467 220.437 220.947 220.781 220.626 221.268C220.283 221.823 219.928 222.388 219.563 222.975C218.101 225.313 216.496 227.884 214.813 230.577C211.425 235.963 208.336 240.828 206.066 244.33C204.959 246.014 204.051 247.41 203.364 248.474C202.711 249.449 202.334 249.981 202.301 249.959C202.268 249.948 202.578 249.383 203.165 248.385C203.818 247.311 204.671 245.892 205.711 244.174C207.882 240.628 210.927 235.741 214.315 230.355C216.009 227.674 217.625 225.114 219.109 222.776C219.485 222.188 219.84 221.623 220.194 221.069C220.593 220.46 221.301 220.038 221.966 219.928C223.206 219.651 224.379 219.396 225.453 219.152C227.513 218.709 229.218 218.343 230.502 218.066C231.709 217.822 232.373 217.7 232.373 217.733Z" fill="#455A64"/>
<path d="M224.49 225.391C224.49 225.391 223.527 225.324 223.128 227.785C222.729 230.234 221.379 237.293 221.379 237.293L216.274 235.353L210.074 236.727C210.074 236.727 208.767 238.024 209.797 238.556C210.827 239.088 214.791 239.343 214.791 239.343L217.88 242.911L209.365 240.041C209.365 240.041 206.619 240.994 207.505 242.479C208.391 243.964 214.259 248.308 214.259 248.308L210.074 248.441L204.97 246.158C204.97 246.158 203.453 246.38 204.073 247.521C204.704 248.662 210.074 252.475 210.074 252.475L216.474 254.647C216.474 254.647 219.884 254.059 220.161 253.095C220.449 252.131 220.46 250.801 220.46 250.801C220.46 250.801 222.253 250.17 222.552 249.316C222.851 248.474 222.574 247.211 222.574 247.211C222.574 247.211 225.442 247.388 225.73 245.881C226.018 244.374 225.575 241.515 225.232 240.418C224.889 239.321 225.885 228.682 225.752 228.383C225.641 228.05 226.239 224.515 224.49 225.391Z" fill="#FFCEB3"/>
<path d="M220.393 253.051C220.415 253.117 219.828 253.428 218.776 253.683C217.736 253.948 216.241 254.115 214.635 253.926C213.03 253.738 211.668 253.228 210.793 252.741C209.907 252.253 209.465 251.821 209.509 251.765C209.62 251.599 211.679 252.995 214.757 253.328C217.835 253.716 220.36 252.874 220.393 253.051Z" fill="#FF9C65"/>
<path d="M218.81 251.123C218.722 251.267 217.581 250.846 216.352 250.059C215.123 249.283 214.293 248.463 214.403 248.33C214.525 248.197 215.533 248.796 216.729 249.56C217.947 250.325 218.91 250.979 218.81 251.123Z" fill="#FF9A6C"/>
<path d="M221.866 245.803C221.777 245.948 220.648 245.538 219.496 244.695C218.334 243.864 217.636 242.955 217.769 242.845C217.902 242.723 218.799 243.41 219.917 244.219C221.024 245.028 221.965 245.659 221.866 245.803Z" fill="#FF9A6C"/>
<path d="M225.132 241.437C224.966 241.526 224.279 240.495 223.227 239.42C222.187 238.334 221.168 237.592 221.279 237.437C221.367 237.304 222.619 237.847 223.715 239.01C224.844 240.152 225.298 241.371 225.132 241.437Z" fill="#FF9C65"/>
<path d="M320.11 487.828H315.604L317.862 320.937H327.517L320.11 487.828Z" fill="#E0E0E0"/>
<path d="M320.11 487.828C320.11 487.828 320.11 487.529 320.132 486.953C320.155 486.365 320.188 485.523 320.221 484.426C320.31 482.198 320.442 478.94 320.609 474.74C320.963 466.329 321.472 454.162 322.103 439.102C323.41 409.004 325.215 367.314 327.23 320.937L327.518 321.237C325.303 321.237 322.912 321.237 320.52 321.237C319.612 321.237 318.715 321.237 317.863 321.237L318.15 320.948C317.043 402.765 316.025 470.829 315.67 487.828L315.604 487.761C317.11 487.773 318.228 487.795 318.992 487.795C319.734 487.817 320.11 487.828 320.11 487.828C320.11 487.828 319.756 487.839 319.014 487.85C318.25 487.861 317.121 487.872 315.593 487.883H315.526V487.817C315.626 470.818 316.456 402.743 317.564 320.926V320.638H317.852C318.693 320.638 319.601 320.638 320.509 320.638C322.912 320.638 325.292 320.638 327.507 320.638H327.806L327.794 320.937C325.691 367.403 323.797 409.148 322.424 439.301C321.716 454.328 321.151 466.474 320.764 474.862C320.564 479.029 320.398 482.265 320.299 484.481C320.243 485.567 320.199 486.387 320.166 486.975C320.144 487.551 320.11 487.828 320.11 487.828Z" fill="#263238"/>
<path d="M40.5804 488.183H36.074L33.4941 320.461H43.1492L40.5804 488.183Z" fill="#E0E0E0"/>
<path d="M40.5802 488.183C40.5802 488.183 40.5691 487.883 40.5691 487.307C40.5691 486.72 40.5802 485.878 40.5913 484.769C40.6134 482.531 40.6577 479.251 40.702 475.029C40.8127 466.573 40.9677 454.35 41.167 439.213C41.5988 408.959 42.1967 367.071 42.8721 320.461L43.16 320.749C40.9234 320.749 38.5097 320.749 36.0848 320.749C35.2101 320.749 34.3244 320.749 33.505 320.749L33.7929 320.461C35.0551 402.698 36.0073 471.117 36.1402 488.183L36.0738 488.116C37.5796 488.127 38.6979 488.149 39.4619 488.149C40.2037 488.16 40.5802 488.183 40.5802 488.183C40.5802 488.183 40.2259 488.194 39.484 488.205C38.72 488.216 37.5907 488.227 36.0627 488.238H35.9963V488.172C35.6087 471.106 34.4683 402.687 33.2061 320.461V320.173H33.4939C34.3133 320.173 35.188 320.173 36.0738 320.173C38.4986 320.173 40.9124 320.173 43.1489 320.173H43.4368V320.461C42.6728 367.159 41.9864 409.126 41.4992 439.423C41.2334 454.527 41.012 466.728 40.8681 475.162C40.7906 479.351 40.7241 482.609 40.6798 484.825C40.6577 485.911 40.6355 486.742 40.6245 487.329C40.6023 487.906 40.5802 488.183 40.5802 488.183Z" fill="#263238"/>
<path d="M335.699 307.628H11.3486V321.536H335.699V307.628Z" fill="#455A64"/>
<path d="M11.349 307.628C11.349 307.628 11.9026 307.617 12.9877 307.606C14.0949 307.606 15.7115 307.595 17.8373 307.584C22.1223 307.573 28.4335 307.562 36.5716 307.54C52.881 307.517 76.4871 307.484 105.729 307.451C164.29 307.418 245.406 307.373 335.7 307.329H335.988V307.617C335.988 312.017 335.988 316.749 335.988 321.503V321.514V321.802H335.7C180.566 321.702 49.8805 321.613 11.349 321.591H11.2715V321.514C11.2936 316.737 11.3047 313.258 11.3158 310.964C11.3268 309.834 11.3268 308.991 11.3379 308.426C11.349 307.894 11.349 307.628 11.349 307.628C11.349 307.628 11.3601 307.905 11.3601 308.471C11.3601 309.036 11.3711 309.878 11.3822 311.019C11.3933 313.302 11.4044 316.771 11.4265 321.525L11.349 321.447C49.8805 321.425 180.566 321.336 335.7 321.237L335.412 321.525V321.514C335.412 316.76 335.412 312.028 335.412 307.628L335.7 307.916C245.483 307.872 164.445 307.828 105.939 307.795C76.6643 307.761 53.0361 307.728 36.7155 307.706C28.5553 307.684 22.222 307.673 17.9148 307.662C15.7668 307.65 14.1281 307.65 13.0209 307.639C11.9247 307.639 11.349 307.628 11.349 307.628Z" fill="#263238"/>
<path d="M78.657 307.839C78.657 307.839 78.6238 307.894 78.5574 307.994C78.4799 308.094 78.3802 308.238 78.2252 308.415C77.9041 308.759 77.4059 309.246 76.6308 309.701C75.8557 310.144 74.8149 310.543 73.5638 310.731C72.3126 310.942 70.8621 310.975 69.2788 310.92C67.6844 310.864 65.9571 310.62 64.1302 310.321C62.2922 310.033 60.3324 309.678 58.2619 309.623C54.0987 309.479 49.5702 310.565 45.0527 312.183C40.5242 313.801 36.2835 315.651 32.231 316.771C30.2048 317.336 28.245 317.735 26.3849 317.934C24.5247 318.123 22.7753 318.101 21.192 317.923C18.0142 317.58 15.5783 316.56 14.0725 315.64C12.5445 314.721 11.8691 313.989 11.8691 313.989C11.8691 313.989 11.9245 314.022 12.0242 314.089C12.1349 314.178 12.2788 314.277 12.4449 314.41C12.8103 314.687 13.375 315.086 14.15 315.507C15.678 316.372 18.0918 317.336 21.2252 317.646C22.7864 317.801 24.5247 317.812 26.3517 317.613C28.1897 317.413 30.1273 317.003 32.1314 316.427C36.1506 315.297 40.3691 313.446 44.9198 311.817C49.4595 310.188 54.0434 309.091 58.273 309.268C60.3878 309.346 62.3476 309.712 64.1856 310.011C66.0125 310.321 67.7287 310.576 69.301 310.643C70.8732 310.709 72.3015 310.709 73.5416 310.51C74.7817 310.343 75.8004 309.978 76.5754 309.556C78.0923 308.692 78.6127 307.783 78.657 307.839Z" fill="#263238"/>
<path d="M43.9019 308.05C43.9241 308.072 43.5808 308.36 42.9386 308.87C42.2964 309.368 41.3221 310.033 40.0377 310.742C38.7422 311.418 37.1589 312.139 35.2988 312.671C33.4386 313.202 31.3349 313.568 29.1094 313.635C24.6362 313.79 20.6391 312.648 18.0371 311.352C16.7306 310.687 15.8116 309.856 15.3687 309.169C15.1362 308.825 15.0144 308.526 14.9369 308.327C14.8704 308.116 14.8372 308.016 14.8594 308.005C14.9037 307.983 15.0144 308.437 15.5016 309.069C15.9777 309.712 16.8745 310.476 18.17 311.097C20.7609 312.316 24.7026 313.391 29.1094 313.236C31.3017 313.169 33.3833 312.815 35.2213 312.316C37.0593 311.806 38.6426 311.119 39.927 310.487C41.2114 309.823 42.1968 309.202 42.8611 308.737C43.5144 308.271 43.8908 308.027 43.9019 308.05Z" fill="#263238"/>
<path d="M118.451 316.859C118.451 316.848 118.617 316.915 118.949 317.037C119.27 317.147 119.757 317.314 120.411 317.425C121.695 317.646 123.766 317.724 125.969 316.549L125.958 316.726C124.286 315.43 121.916 314.3 119.06 314.034C116.236 313.768 112.904 314.366 110.091 316.361C109.759 316.605 109.427 316.904 109.394 317.258C109.349 317.624 109.626 317.945 109.992 318.156C110.357 318.366 110.778 318.488 111.221 318.588C111.664 318.688 112.118 318.788 112.571 318.898C114.387 319.308 116.27 319.707 118.207 319.996C120.145 320.284 122.16 320.472 124.208 320.406C125.227 320.383 126.257 320.284 127.287 320.106C127.796 320.018 128.316 319.918 128.814 319.785C129.335 319.674 129.822 319.519 130.298 319.308C131.04 318.987 131.749 318.533 132.225 317.912C132.712 317.303 132.867 316.483 132.59 315.773C132.335 315.064 131.727 314.51 131.084 314.089C130.431 313.657 129.7 313.346 128.981 313.058C126.058 311.906 123.035 311.407 120.156 311.23C114.376 310.897 109.172 312.006 105.098 313.568C101.012 315.131 97.9783 317.059 96.0295 318.522C95.0552 319.275 94.3133 319.863 93.8372 320.306C93.6047 320.505 93.4165 320.66 93.2725 320.782C93.1397 320.893 93.0732 320.937 93.0732 320.937C93.0732 320.937 93.1286 320.871 93.2504 320.76C93.3833 320.627 93.5604 320.461 93.7819 320.25C94.2469 319.796 94.9777 319.175 95.9299 318.411C97.8675 316.904 100.879 314.92 104.987 313.313C109.073 311.706 114.332 310.554 120.167 310.875C123.079 311.041 126.135 311.54 129.113 312.715C129.855 313.014 130.597 313.324 131.295 313.779C131.97 314.233 132.646 314.82 132.956 315.663C133.277 316.494 133.088 317.491 132.535 318.167C131.992 318.865 131.239 319.331 130.453 319.674C129.955 319.896 129.423 320.062 128.903 320.173C128.383 320.306 127.862 320.417 127.342 320.505C126.301 320.671 125.249 320.782 124.208 320.804C122.127 320.871 120.101 320.671 118.141 320.383C116.181 320.095 114.299 319.685 112.483 319.275C112.029 319.175 111.575 319.065 111.132 318.965C110.689 318.865 110.213 318.732 109.803 318.488C109.593 318.366 109.394 318.211 109.25 318.001C109.095 317.79 109.017 317.513 109.051 317.247C109.117 316.693 109.549 316.361 109.892 316.106C112.804 314.056 116.214 313.468 119.082 313.768C121.994 314.056 124.397 315.23 126.08 316.571L126.213 316.671L126.069 316.749C123.799 317.912 121.684 317.801 120.389 317.546C119.06 317.247 118.451 316.859 118.451 316.859Z" fill="#263238"/>
<path d="M159.33 308.193C159.341 308.182 159.496 308.415 159.64 308.892C159.795 309.357 159.928 310.088 159.851 310.975C159.751 312.77 158.644 315.12 156.761 317.048C155.842 318.034 154.857 318.865 153.872 319.508C152.886 320.14 151.923 320.583 151.081 320.86C150.24 321.148 149.542 321.281 149.055 321.37C148.568 321.436 148.302 321.458 148.291 321.436C148.28 321.37 149.354 321.215 150.982 320.605C151.79 320.295 152.72 319.84 153.661 319.209C154.602 318.566 155.566 317.757 156.462 316.782C158.312 314.898 159.397 312.671 159.563 310.953C159.795 309.235 159.23 308.216 159.33 308.193Z" fill="#263238"/>
<path d="M216.374 320.805C216.341 320.838 215.931 320.217 214.913 319.386C213.916 318.566 212.255 317.513 209.941 317.148C208.79 316.948 207.516 317.015 206.155 317.258C204.804 317.469 203.32 317.835 201.726 317.668C200.098 317.524 198.637 316.538 197.308 315.507C195.979 314.455 194.562 313.457 192.868 312.87C189.513 311.673 185.959 311.873 183.014 312.715C180.035 313.557 177.621 315.042 175.728 316.405C173.835 317.79 172.451 319.109 171.498 320.018C171.056 320.461 170.69 320.816 170.424 321.082C170.181 321.325 170.048 321.447 170.037 321.436C170.026 321.425 170.137 321.281 170.369 321.026C170.59 320.76 170.945 320.383 171.399 319.907C172.318 318.965 173.68 317.613 175.562 316.183C177.444 314.776 179.891 313.247 182.914 312.36C185.914 311.485 189.535 311.252 193.001 312.493C194.728 313.081 196.223 314.133 197.54 315.186C198.858 316.217 200.242 317.148 201.759 317.303C203.276 317.48 204.726 317.136 206.099 316.937C207.472 316.704 208.801 316.649 209.975 316.871C212.344 317.281 214.016 318.4 215.001 319.275C216.02 320.151 216.374 320.805 216.374 320.805Z" fill="#263238"/>
<path d="M267.317 307.761C267.328 307.772 267.206 307.928 266.974 308.238C266.73 308.537 266.398 309.002 265.889 309.534C264.926 310.643 263.364 312.105 261.25 313.657C259.135 315.208 256.422 316.815 253.2 318.123C251.595 318.777 249.856 319.364 248.007 319.785C246.169 320.206 244.22 320.527 242.205 320.527C238.164 320.55 234.399 319.552 231.188 318.234C227.977 316.904 225.276 315.275 223.183 313.69C221.09 312.105 219.54 310.632 218.577 309.534C218.068 309.002 217.736 308.537 217.492 308.249C217.248 307.95 217.138 307.784 217.138 307.772C217.149 307.761 217.293 307.905 217.547 308.194C217.813 308.471 218.156 308.925 218.688 309.435C219.684 310.499 221.246 311.939 223.349 313.48C225.453 315.02 228.132 316.616 231.321 317.912C234.499 319.198 238.23 320.173 242.194 320.151C244.176 320.14 246.092 319.829 247.919 319.419C249.746 319.009 251.462 318.444 253.056 317.801C256.256 316.527 258.958 314.964 261.072 313.446C263.187 311.928 264.771 310.51 265.756 309.446C266.287 308.936 266.631 308.482 266.896 308.205C267.162 307.894 267.306 307.75 267.317 307.761Z" fill="#263238"/>
<path d="M260.043 307.628C260.054 307.639 259.954 307.717 259.777 307.85C259.589 307.983 259.323 308.182 258.958 308.404C258.238 308.881 257.153 309.512 255.78 310.21C254.396 310.897 252.713 311.651 250.753 312.26C248.805 312.87 246.579 313.38 244.199 313.38C239.426 313.358 235.296 311.795 232.551 310.432C231.167 309.734 230.104 309.08 229.395 308.581C229.03 308.349 228.775 308.127 228.598 307.994C228.421 307.85 228.332 307.772 228.332 307.761C228.354 307.739 228.742 308.005 229.484 308.448C230.214 308.903 231.288 309.523 232.672 310.177C235.429 311.463 239.515 312.959 244.199 312.981C246.524 312.981 248.716 312.482 250.654 311.906C252.591 311.319 254.274 310.609 255.669 309.956C257.053 309.302 258.15 308.703 258.891 308.271C259.611 307.85 260.021 307.606 260.043 307.628Z" fill="#263238"/>
<path d="M315.604 309.047C315.604 309.058 315.382 309.058 314.973 309.047C314.485 309.025 313.899 309.002 313.179 308.98C312.78 308.958 312.348 308.947 311.883 308.925C311.407 308.925 310.887 308.925 310.344 308.914C309.237 308.903 307.986 308.881 306.591 308.947C305.893 308.969 305.162 308.991 304.41 309.014C303.657 309.069 302.871 309.113 302.062 309.169C300.435 309.246 298.73 309.479 296.914 309.645C293.326 310.1 289.429 310.742 285.476 311.629C281.534 312.538 277.925 313.612 274.758 314.687C273.219 315.264 271.702 315.773 270.396 316.35C269.731 316.627 269.089 316.893 268.469 317.148C267.882 317.425 267.317 317.691 266.775 317.945C265.668 318.433 264.76 318.943 263.94 319.375C263.531 319.586 263.154 319.785 262.8 319.973C262.479 320.162 262.18 320.35 261.892 320.516C261.383 320.816 260.973 321.059 260.63 321.259C260.331 321.425 260.165 321.514 260.154 321.503C260.132 321.492 260.264 321.392 260.53 321.215C260.851 321.004 261.239 320.738 261.704 320.428C261.97 320.25 262.257 320.062 262.567 319.863C262.911 319.663 263.287 319.453 263.675 319.231C264.472 318.777 265.369 318.256 266.465 317.746C267.007 317.48 267.561 317.203 268.148 316.926C268.768 316.66 269.399 316.383 270.063 316.095C271.359 315.507 272.876 314.976 274.426 314.388C277.604 313.28 281.235 312.194 285.221 311.274C289.218 310.377 293.16 309.745 296.781 309.302C298.608 309.135 300.335 308.925 301.985 308.847C302.804 308.803 303.59 308.759 304.354 308.714C305.118 308.703 305.849 308.681 306.558 308.67C307.953 308.626 309.226 308.659 310.333 308.692C310.887 308.703 311.396 308.714 311.883 308.737C312.348 308.77 312.78 308.803 313.179 308.825C313.887 308.881 314.474 308.925 314.961 308.969C315.393 309.014 315.604 309.036 315.604 309.047Z" fill="#263238"/>
<path d="M222.087 320.528C222.043 320.561 221.6 319.663 220.338 318.444C219.087 317.225 216.927 315.796 213.938 314.865C212.443 314.399 210.76 314.045 208.944 313.757C207.117 313.468 205.158 313.236 203.098 312.881C201.039 312.549 198.913 311.95 196.754 311.285C194.595 310.643 192.347 309.944 189.989 309.645C185.25 309.047 180.666 310.044 176.802 311.463C174.853 312.172 173.081 313.036 171.443 313.878C169.804 314.721 168.298 315.552 166.925 316.328C164.19 317.879 162.009 319.198 160.514 320.106C159.784 320.55 159.208 320.904 158.787 321.17C158.61 321.281 158.455 321.37 158.333 321.436C158.233 321.492 158.178 321.525 158.167 321.514C158.167 321.503 158.211 321.469 158.311 321.403C158.422 321.325 158.566 321.226 158.743 321.104C159.119 320.838 159.695 320.461 160.426 319.985C161.898 319.031 164.057 317.668 166.781 316.095C168.143 315.308 169.649 314.455 171.288 313.601C172.926 312.748 174.709 311.873 176.669 311.141C180.555 309.69 185.194 308.659 190.022 309.268C192.425 309.568 194.683 310.277 196.853 310.92C199.013 311.585 201.105 312.183 203.154 312.527C205.191 312.892 207.151 313.125 208.989 313.435C210.816 313.734 212.51 314.1 214.015 314.599C217.038 315.574 219.208 317.07 220.437 318.333C221.689 319.608 222.087 320.528 222.087 320.528Z" fill="#263238"/>
<path d="M150.527 307.839C150.549 307.839 150.56 308.16 150.483 308.725C150.416 309.291 150.228 310.111 149.863 311.075C149.132 312.97 147.626 315.541 144.98 317.325C142.334 319.02 139.665 320.007 137.739 320.66C136.775 320.982 135.978 321.215 135.424 321.359C134.871 321.503 134.561 321.569 134.561 321.536C134.55 321.514 134.849 321.403 135.38 321.215C135.989 320.993 136.753 320.727 137.639 320.406C139.532 319.685 142.167 318.666 144.758 317.003C147.305 315.286 148.822 312.803 149.597 310.975C150.394 309.102 150.45 307.817 150.527 307.839Z" fill="#263238"/>
<path d="M76.7747 321.536C76.7525 321.514 77.0293 321.248 77.5497 320.793C78.0591 320.328 78.8341 319.696 79.8085 318.943C81.7683 317.436 84.6138 315.541 87.9134 313.723C91.2129 311.906 94.3021 310.454 96.5387 309.423C97.657 308.914 98.5649 308.504 99.2071 308.227C99.8382 307.95 100.193 307.817 100.204 307.839C100.215 307.861 99.8825 308.049 99.2735 308.36C98.587 308.703 97.7123 309.135 96.6605 309.667C94.4571 310.764 91.3901 312.249 88.1016 314.056C84.8131 315.862 81.9676 317.713 79.9746 319.164C78.9781 319.885 78.1808 320.483 77.6494 320.915C77.1068 321.325 76.7968 321.558 76.7747 321.536Z" fill="#263238"/>
<path d="M91.7443 308.404C91.7443 308.448 91.0135 308.315 89.6959 308.415C88.3894 308.515 86.496 308.947 84.3923 310.033C82.2664 311.064 80.0298 312.792 77.5053 314.654C76.232 315.574 74.8812 316.527 73.3643 317.347C71.8474 318.167 70.1644 318.788 68.4039 319.253C64.8719 320.162 61.3841 320.372 58.2507 320.472C55.1062 320.561 52.2827 320.505 49.9243 320.594C47.5549 320.683 45.6615 320.904 44.355 321.137C43.7017 321.259 43.2035 321.359 42.8602 321.436C42.517 321.514 42.3398 321.547 42.3398 321.536C42.3398 321.525 42.5059 321.469 42.8492 321.37C43.1813 321.259 43.6796 321.137 44.3328 320.993C45.6283 320.716 47.5438 320.439 49.9133 320.317C52.2827 320.184 55.1172 320.217 58.2396 320.106C61.362 319.984 64.8165 319.763 68.3043 318.865C70.0426 318.4 71.6924 317.79 73.1872 316.992C74.6819 316.206 76.0327 315.264 77.306 314.355C79.8305 312.504 82.1114 310.798 84.2816 309.778C86.4296 308.714 88.3672 308.315 89.6959 308.26C90.3602 308.238 90.8806 308.271 91.235 308.315C91.5671 308.36 91.7443 308.393 91.7443 308.404Z" fill="#263238"/>
</g>
<defs>
<clipPath id="clip0_338_1417">
<rect width="722" height="490" fill="white"/>
</clipPath>
</defs>
</svg>
