<svg width="91" height="80" viewBox="0 0 91 80" fill="none" xmlns="http://www.w3.org/2000/svg">
<path d="M0 2.42866C0.705631 0.900358 1.91819 0.43798 3.56083 0.461805C8.41723 0.532396 13.2745 0.485634 18.1318 0.488281C20.1074 0.489163 20.9808 1.17478 21.4162 3.08516C22.0159 5.71734 22.6005 8.35305 23.2116 11.0761C23.5958 11.0761 23.972 11.0761 24.3482 11.0761C45.307 11.0761 66.2666 11.0761 87.2253 11.077C88.9775 11.077 90.0311 11.7141 90.3128 13.0933C90.4294 13.6659 90.3525 14.3286 90.1909 14.9013C88.1464 22.1343 86.0719 29.3584 84.0027 36.5844C82.6374 41.3546 81.272 46.1248 79.9014 50.8941C79.3415 52.8407 78.5546 53.4301 76.5446 53.4301C60.9721 53.431 45.4006 53.4354 29.8281 53.4222C28.582 53.4213 27.5549 53.746 26.9641 54.9161C26.1295 56.5662 27.2229 58.5101 29.0845 58.7042C29.4342 58.7404 29.7902 58.7245 30.1434 58.7245C45.6567 58.7254 61.17 58.7298 76.6832 58.7174C77.9276 58.7166 78.9565 59.036 79.5464 60.2113C80.4136 61.9408 79.2285 63.9235 77.2511 64.003C75.8999 64.0568 74.5452 64.0135 73.2134 64.0135C74.1654 64.4212 75.1996 64.7071 76.0474 65.2727C76.9332 65.8639 77.7748 66.629 78.3851 67.4955C78.9768 68.3364 79.4166 69.3679 79.6153 70.3765C79.821 71.4168 79.8122 72.5578 79.6241 73.6061C78.9732 77.2362 75.4186 80.0149 71.7421 79.8931C67.5939 79.7555 64.4032 76.7783 63.9996 72.5322C63.6887 69.2567 65.5927 65.2268 70.7591 64.0497C59.0513 64.0497 47.4583 64.0497 35.7514 64.0497C40.6025 65.323 43.0444 68.7697 42.4173 73.3255C41.9157 76.9689 38.3893 79.9275 34.5847 79.8966C30.4569 79.8631 27.1522 76.8303 26.7336 72.556C26.3927 69.0723 28.5661 65.1095 33.3651 63.8971C31.6439 63.8971 29.9094 64.0356 28.2049 63.8671C24.9346 63.5432 22.1536 60.8705 21.5504 57.693C20.896 54.2437 22.4292 50.8527 25.3921 49.2008C25.6217 49.0729 25.8549 48.9493 26.1604 48.7843C22.9758 34.464 19.7912 20.1427 16.5978 5.78176C13.8 5.78176 11.0649 5.78176 8.3298 5.78176C6.74014 5.78176 5.14695 5.71205 3.56171 5.80117C1.91906 5.89382 0.702981 5.37409 0 3.84049C0 3.37018 0 2.89986 0 2.42866Z" fill="#595959"/>
</svg>
