<svg width="77" height="63" viewBox="0 0 77 63" fill="none" xmlns="http://www.w3.org/2000/svg">
<path d="M76.9988 20.1621C76.2907 20.7885 75.6567 21.5341 74.8638 22.0233C64.1255 28.64 53.3608 35.2138 42.6141 41.8151C40.0994 43.3601 37.648 43.3458 35.1344 41.8007C24.3459 35.1709 13.5443 28.5637 2.7486 21.9457C2.39038 21.7262 2.0274 21.5067 1.69664 21.2478C0.481065 20.2981 0.482262 18.9499 1.69903 17.9931C1.94978 17.7962 2.23396 17.634 2.52054 17.4908C13.6637 11.9216 24.808 6.35354 35.9559 0.791464C37.9023 -0.179692 39.8701 -0.180886 41.8165 0.79027C52.9644 6.35235 64.1135 11.9097 75.2399 17.5123C75.923 17.8559 76.4173 18.5741 77 19.1182C76.9988 19.4689 76.9988 19.8149 76.9988 20.1621Z" fill="#595959"/>
<path d="M67.9214 40.2222C67.9214 42.3542 67.8701 44.4874 67.9345 46.6182C68.0122 49.163 67.0103 51.2341 65.3434 53.0548C63.0018 55.6103 60.0966 57.3487 56.9466 58.6849C49.646 61.7797 42.023 62.7401 34.1552 62.0016C28.7485 61.4945 23.565 60.1834 18.7206 57.6863C15.9205 56.2427 13.3604 54.4769 11.4773 51.8808C10.4146 50.4157 9.83426 48.7992 9.84262 46.9678C9.86053 42.7288 9.84621 38.4886 9.85218 34.2497C9.85218 33.8548 9.85695 33.4503 9.93815 33.0662C10.134 32.1415 10.7286 31.8445 11.5943 32.2107C11.8666 32.3265 12.1209 32.4863 12.3741 32.6414C19.3702 36.9257 26.3639 41.2136 33.36 45.4991C37.0533 47.7612 40.743 47.7504 44.4363 45.486C51.6831 41.0418 58.9336 36.6024 66.1828 32.163C66.3727 32.0461 66.5566 31.9113 66.762 31.829C67.2981 31.613 67.7017 31.7478 67.8271 32.3503C67.8975 32.6856 67.9178 33.0375 67.919 33.3811C67.925 35.6611 67.9214 37.941 67.9214 40.2222Z" fill="#595959"/>
<path d="M74.3241 40.6889C74.3241 44.2836 74.3396 47.8783 74.3098 51.4718C74.3038 52.1328 74.4901 52.5575 75.037 52.9548C76.4233 53.9605 76.8985 55.3923 76.5069 57.0196C76.1116 58.6613 74.9856 59.6467 73.3103 59.9497C71.6016 60.2599 69.8511 59.3031 69.1131 57.6841C68.4038 56.1284 68.8122 54.118 70.1771 53.1146C70.884 52.5957 71.0917 52.0409 71.0881 51.1938C71.0535 44.7489 71.0941 38.304 71.0464 31.859C71.038 30.6767 71.3616 29.8439 72.4398 29.3357C72.7073 29.2092 72.9521 29.035 73.21 28.8871C74.1127 28.3728 74.3193 28.4838 74.3217 29.5337C74.3289 33.2525 74.3229 36.9713 74.3241 40.6889Z" fill="#595959"/>
</svg>
