<svg width="693" height="550" viewBox="0 0 693 550" fill="none" xmlns="http://www.w3.org/2000/svg">
<g clip-path="url(#clip0_348_10246)">
<path d="M316.748 524.248C309.858 508.439 297.063 495.3 281.454 487.987C265.846 480.675 230.999 484.068 230.999 484.068L139.451 483.884C141.318 491.933 147.288 512.582 151.746 519.526C156.204 526.484 162.779 532.337 170.734 534.586C180.452 537.334 190.748 534.494 200.834 533.836C218.573 532.692 235.943 538.426 253.025 543.345C270.106 548.277 288.226 552.473 305.505 548.277C310.41 547.093 315.551 544.897 317.931 540.452C320.575 535.506 318.997 529.391 316.748 524.248Z" fill="#E0E0E0"/>
<path d="M255.63 484.634L243.203 527.273L296.157 543.016C297.353 537.861 272.974 519.566 272.974 519.566L282.06 492.577L255.63 484.634Z" fill="#FFC727"/>
<g opacity="0.6">
<path d="M257.286 512.385C256.182 512.358 255.13 513.305 255.064 514.41C254.998 515.515 255.945 516.593 257.049 516.633C258.154 516.672 259.456 515.581 259.403 514.476C259.351 513.371 258.167 512.161 257.076 512.385" fill="white"/>
</g>
<g opacity="0.6">
<path d="M243.203 527.26L244.623 523.012L294.868 539.689C294.868 539.689 296.919 541.412 296.157 543.003L243.203 527.26Z" fill="white"/>
</g>
<path d="M273.92 519.54C273.841 519.789 272.513 519.526 270.988 519.987C269.462 520.394 268.463 521.328 268.266 521.157C268.042 521.039 268.884 519.605 270.738 519.092C272.566 518.54 274.038 519.316 273.92 519.54Z" fill="#263238"/>
<path d="M278.786 523.485C278.773 523.748 277.524 523.867 276.314 524.695C275.091 525.497 274.512 526.615 274.262 526.523C274.013 526.497 274.276 524.919 275.788 523.919C277.3 522.893 278.852 523.235 278.786 523.485Z" fill="#263238"/>
<path d="M279.969 531.074C279.72 531.061 279.746 529.654 280.824 528.444C281.902 527.221 283.283 527.023 283.336 527.273C283.415 527.523 282.402 528.062 281.534 529.075C280.627 530.048 280.232 531.127 279.969 531.074Z" fill="#263238"/>
<path d="M275.302 513.161C275.118 513.358 274.04 512.661 272.554 512.319C271.068 511.951 269.792 512.109 269.713 511.845C269.621 511.609 271.015 510.991 272.764 511.411C274.526 511.806 275.486 512.99 275.302 513.161Z" fill="#263238"/>
<path d="M275.906 506.493C275.879 506.598 274.801 506.453 273.263 505.69C272.487 505.309 271.619 504.756 270.738 504.007C270.304 503.638 269.87 503.218 269.449 502.744C269.252 502.521 269.015 502.271 268.831 501.876C268.621 501.521 268.66 500.784 269.121 500.469C269.515 500.14 270.041 500.114 270.436 500.219C270.83 500.324 271.119 500.495 271.395 500.653C271.948 500.969 272.434 501.337 272.881 501.705C273.762 502.468 274.407 503.297 274.854 504.033C275.748 505.532 275.879 506.624 275.774 506.65C275.63 506.703 275.275 505.717 274.302 504.401C273.815 503.744 273.158 503.033 272.329 502.363C271.908 502.034 271.448 501.718 270.948 501.442C270.436 501.126 269.949 500.982 269.739 501.192C269.66 501.271 269.647 501.311 269.712 501.508C269.791 501.692 269.975 501.916 270.159 502.139C270.541 502.586 270.935 502.994 271.317 503.362C272.106 504.099 272.894 504.664 273.591 505.112C274.972 505.993 275.958 506.361 275.906 506.493Z" fill="#263238"/>
<path d="M275.459 506.769C275.354 506.782 275.117 505.703 275.525 503.994C275.722 503.152 276.117 502.166 276.748 501.192C277.064 500.706 277.458 500.232 277.905 499.785C278.365 499.351 278.957 498.759 279.996 498.943C280.522 499.075 280.838 499.614 280.89 500.009C280.956 500.416 280.903 500.732 280.877 501.061C280.785 501.705 280.601 502.31 280.351 502.849C279.851 503.928 279.115 504.73 278.405 505.256C276.958 506.322 275.788 506.309 275.801 506.216C275.749 506.059 276.801 505.835 277.984 504.743C278.563 504.204 279.168 503.454 279.562 502.494C279.759 502.021 279.904 501.495 279.97 500.942C280.049 500.351 279.983 499.838 279.746 499.838C279.483 499.759 278.905 500.048 278.563 500.429C278.155 500.824 277.787 501.245 277.484 501.666C276.866 502.521 276.446 503.402 276.183 504.165C275.63 505.717 275.617 506.769 275.459 506.769Z" fill="#263238"/>
<path d="M310.004 421.148C311.345 430.985 307.979 442.073 304.429 451.345L281.206 505.953L255.499 502.008C255.499 502.008 250.134 507.979 243.283 510.254C240.219 511.28 230.133 513.253 221.836 507.282C221.836 507.282 210.093 523.643 191.618 528.588C173.142 533.533 145.173 536.269 131.629 514.647L196.102 452.516C197.43 452.831 251.633 416.281 280.904 407.956C280.904 407.956 307.532 403.063 310.004 421.148Z" fill="#263238"/>
<path d="M253.578 501.797C253.578 501.784 253.697 501.718 253.92 501.587C254.197 501.442 254.538 501.258 254.972 501.034C255.893 500.548 257.274 499.837 259.009 498.877C260.745 497.917 262.849 496.707 265.15 495.089C267.438 493.472 269.937 491.42 272.106 488.632C274.302 485.883 275.972 482.292 276.617 478.189C277.287 474.112 277.064 469.6 276.064 465.05C275.065 460.539 272.961 455.83 268.977 452.7C265.019 449.57 259.798 447.939 254.459 447.531C251.777 447.307 249.108 447.347 246.504 447.597C243.9 447.873 241.349 448.346 238.877 448.938C233.933 450.161 229.317 451.898 225.004 453.739C216.404 457.487 208.949 461.551 202.4 464.34C195.878 467.207 190.329 468.89 186.423 469.679C185.45 469.903 184.582 470.034 183.82 470.153C183.07 470.284 182.426 470.363 181.9 470.416C181.413 470.469 181.019 470.495 180.716 470.534C180.453 470.561 180.309 470.561 180.309 470.547C180.309 470.534 180.44 470.508 180.703 470.468C181.006 470.416 181.387 470.363 181.873 470.284C182.386 470.219 183.031 470.113 183.78 469.969C184.53 469.824 185.398 469.679 186.357 469.429C190.223 468.575 195.72 466.825 202.19 463.906C208.699 461.065 216.115 456.961 224.741 453.16C229.068 451.293 233.709 449.53 238.706 448.294C241.205 447.689 243.782 447.215 246.425 446.926C249.068 446.676 251.79 446.637 254.512 446.86C259.943 447.281 265.282 448.938 269.384 452.187C271.423 453.818 273.053 455.856 274.223 458.066C275.407 460.276 276.156 462.617 276.682 464.918C277.682 469.548 277.892 474.125 277.182 478.294C276.498 482.463 274.763 486.159 272.488 488.934C270.252 491.749 267.701 493.801 265.361 495.405C263.02 497.01 260.877 498.18 259.128 499.114C257.366 500.048 255.972 500.705 255.025 501.153C254.578 501.363 254.223 501.521 253.947 501.652C253.71 501.758 253.578 501.81 253.578 501.797Z" fill="#455A64"/>
<path d="M269.701 430.131C269.859 430.236 267.453 434.168 264.31 438.916C261.18 443.664 258.511 447.439 258.353 447.334C258.195 447.228 260.602 443.296 263.744 438.548C266.874 433.8 269.543 430.025 269.701 430.131Z" fill="#455A64"/>
<path d="M251.159 497.457C251.172 497.562 249.37 497.943 246.491 498.667C243.611 499.377 239.64 500.482 235.366 501.968C231.092 503.467 227.305 505.085 224.609 506.321C221.901 507.558 220.257 508.386 220.204 508.294C220.178 508.255 220.573 507.992 221.283 507.571C222.006 507.137 223.058 506.558 224.386 505.887C227.042 504.533 230.816 502.836 235.129 501.324C239.442 499.824 243.44 498.785 246.372 498.193C247.832 497.891 249.028 497.68 249.857 497.575C250.698 497.444 251.159 497.404 251.159 497.457Z" fill="#455A64"/>
<path d="M280.733 502.376C280.614 502.415 280.312 501.205 279.22 499.601C278.155 498.009 276.157 496.049 273.356 495.129C270.555 494.221 267.78 494.642 265.979 495.3C264.151 495.957 263.191 496.76 263.125 496.654C263.099 496.628 263.309 496.391 263.743 496.05C264.177 495.694 264.874 495.26 265.795 494.853C267.622 494.037 270.555 493.511 273.553 494.471C276.551 495.444 278.616 497.601 279.615 499.338C280.128 500.206 280.43 500.968 280.575 501.508C280.746 502.06 280.785 502.363 280.733 502.376Z" fill="#455A64"/>
<path d="M169.526 482.003C169.566 481.99 169.697 482.424 169.855 483.226C170 484.028 170.158 485.212 170.158 486.685C170.158 489.605 169.513 493.787 167.12 497.667C164.753 501.574 161.111 503.941 158.31 504.822C156.903 505.296 155.706 505.44 154.891 505.48C154.076 505.519 153.615 505.453 153.615 505.414C153.602 505.269 155.456 505.374 158.152 504.362C160.821 503.389 164.253 501.061 166.541 497.299C168.843 493.564 169.553 489.513 169.671 486.659C169.789 483.792 169.395 482.016 169.526 482.003Z" fill="#455A64"/>
<path d="M140.518 511.503C140.373 511.622 139.689 511.03 139.058 510.136C138.414 509.241 138.072 508.399 138.243 508.294C138.401 508.202 138.993 508.86 139.624 509.728C140.229 510.609 140.663 511.385 140.518 511.503Z" fill="#455A64"/>
<path d="M145.935 517.211C145.816 517.356 145.067 516.856 144.278 516.094C143.489 515.331 142.963 514.607 143.094 514.476C143.239 514.344 143.975 514.844 144.751 515.594C145.527 516.357 146.053 517.08 145.935 517.211Z" fill="#455A64"/>
<path d="M152.313 521.828C152.221 521.999 151.393 521.644 150.472 521.039C149.552 520.434 148.894 519.829 148.999 519.671C149.118 519.513 149.933 519.868 150.84 520.46C151.748 521.065 152.405 521.67 152.313 521.828Z" fill="#455A64"/>
<path d="M159.546 524.945C159.493 525.129 158.612 524.971 157.573 524.603C156.534 524.222 155.759 523.788 155.838 523.617C155.916 523.446 156.797 523.603 157.81 523.959C158.809 524.314 159.598 524.761 159.546 524.945Z" fill="#455A64"/>
<path d="M167.317 526.168C167.317 526.352 166.423 526.431 165.318 526.326C164.214 526.221 163.359 525.997 163.385 525.8C163.412 525.616 164.306 525.537 165.384 525.642C166.449 525.747 167.317 525.971 167.317 526.168Z" fill="#455A64"/>
<path d="M175.181 525.734C175.207 525.918 174.326 526.129 173.235 526.208C172.643 526.247 172.117 526.234 171.762 526.195H171.788C171.46 526.168 171.262 526.102 171.262 526.024C171.249 525.932 171.433 525.839 171.736 525.747H171.762C172.117 525.655 172.63 525.576 173.209 525.537C174.274 525.458 175.168 525.55 175.181 525.734Z" fill="#455A64"/>
<path d="M182.939 524.34C182.992 524.524 182.15 524.853 181.085 525.09C180.02 525.313 179.126 525.353 179.087 525.169C179.06 524.985 179.889 524.643 180.941 524.419C181.993 524.182 182.887 524.156 182.939 524.34Z" fill="#455A64"/>
<path d="M190.473 522.038C190.539 522.209 189.75 522.643 188.711 522.985C187.672 523.327 186.791 523.472 186.739 523.288C186.686 523.104 187.475 522.683 188.501 522.341C189.513 521.999 190.408 521.867 190.473 522.038Z" fill="#455A64"/>
<path d="M197.719 518.961C197.797 519.132 197.061 519.632 196.062 520.092C195.062 520.539 194.194 520.776 194.129 520.592C194.05 520.421 194.799 519.908 195.786 519.461C196.772 519.013 197.64 518.79 197.719 518.961Z" fill="#455A64"/>
<path d="M204.635 515.173C204.74 515.331 204.043 515.909 203.109 516.462C202.163 517.014 201.321 517.317 201.229 517.159C201.137 516.988 201.821 516.422 202.754 515.87C203.688 515.318 204.53 515.002 204.635 515.173Z" fill="#455A64"/>
<path d="M211.144 510.727C211.262 510.872 210.631 511.517 209.737 512.161C208.843 512.805 208.04 513.187 207.935 513.029C207.83 512.871 208.461 512.227 209.342 511.595C210.223 510.964 211.025 510.57 211.144 510.727Z" fill="#455A64"/>
<path d="M217.22 505.703C217.351 505.848 216.786 506.532 215.958 507.255C215.129 507.966 214.366 508.439 214.248 508.281C214.13 508.136 214.695 507.439 215.51 506.729C216.326 506.019 217.088 505.559 217.22 505.703Z" fill="#455A64"/>
<path d="M222.954 500.285C223.085 500.429 222.533 501.14 221.744 501.889C220.955 502.639 220.205 503.126 220.074 502.994C219.929 502.849 220.481 502.139 221.27 501.389C222.086 500.64 222.835 500.14 222.954 500.285Z" fill="#455A64"/>
<path d="M229.186 495.431C229.291 495.589 228.66 496.234 227.792 496.865C226.911 497.496 226.109 497.891 225.991 497.746C225.872 497.602 226.504 496.957 227.385 496.313C228.279 495.681 229.094 495.274 229.186 495.431Z" fill="#455A64"/>
<path d="M236.102 491.631C236.181 491.801 235.457 492.341 234.484 492.814C233.511 493.288 232.657 493.551 232.565 493.38C232.472 493.209 233.196 492.683 234.182 492.196C235.168 491.709 236.023 491.446 236.102 491.631Z" fill="#455A64"/>
<path d="M243.624 489.276C243.65 489.46 242.835 489.829 241.796 490.092C240.757 490.355 239.863 490.42 239.797 490.236C239.745 490.052 240.56 489.697 241.625 489.421C242.703 489.158 243.598 489.092 243.624 489.276Z" fill="#455A64"/>
<path d="M251.488 488.882C251.475 489.066 250.581 489.132 249.516 489.118C248.437 489.092 247.556 489 247.543 488.816C247.53 488.632 248.411 488.421 249.516 488.434C250.633 488.448 251.501 488.697 251.488 488.882Z" fill="#455A64"/>
<path d="M259.088 490.881C258.996 491.052 258.155 490.802 257.155 490.447C256.143 490.092 255.341 489.737 255.38 489.552C255.42 489.368 256.34 489.434 257.379 489.802C258.431 490.157 259.181 490.71 259.088 490.881Z" fill="#455A64"/>
<path d="M257.431 496.602C257.313 496.444 257.905 495.8 258.601 495.011C259.298 494.221 259.864 493.564 260.035 493.656C260.193 493.748 259.864 494.616 259.114 495.458C258.352 496.313 257.536 496.747 257.431 496.602Z" fill="#455A64"/>
<path d="M250.462 500.219C250.409 500.035 251.159 499.561 252.158 499.153C253.144 498.746 254.025 498.548 254.117 498.719C254.209 498.89 253.447 499.364 252.421 499.785C251.395 500.206 250.514 500.39 250.462 500.219Z" fill="#455A64"/>
<path d="M242.941 502.626C242.876 502.441 243.665 502.021 244.703 501.679C245.742 501.337 246.623 501.192 246.676 501.376C246.728 501.56 245.939 501.981 244.914 502.323C243.901 502.665 243.007 502.81 242.941 502.626Z" fill="#455A64"/>
<path d="M235.576 505.44C235.51 505.269 236.273 504.796 237.286 504.401C238.298 504.007 239.179 503.823 239.245 503.994C239.311 504.165 238.548 504.638 237.536 505.033C236.523 505.44 235.642 505.611 235.576 505.44Z" fill="#455A64"/>
<path d="M228.305 508.518C228.226 508.347 228.975 507.86 229.988 507.426C230.987 506.992 231.868 506.782 231.934 506.953C232.013 507.124 231.25 507.623 230.251 508.044C229.251 508.478 228.37 508.689 228.305 508.518Z" fill="#455A64"/>
<path d="M111.377 459.71C111.416 459.697 111.456 460.026 111.772 460.525C112.074 461.012 112.731 461.656 113.81 461.946C114.862 462.248 116.348 462.182 117.557 461.157C118.793 460.183 119.674 458.513 120.069 456.567C120.49 454.607 120.411 452.371 120.792 449.964C120.989 448.767 121.344 447.518 122.002 446.374C122.646 445.229 123.685 444.177 125.026 443.664C126.355 443.125 127.84 443.112 129.247 443.283C130.668 443.441 132.075 443.756 133.508 443.94C134.941 444.138 136.388 444.151 137.795 443.73C139.202 443.335 140.53 442.599 141.634 441.599C142.739 440.587 143.581 439.311 144.001 437.93C144.409 436.549 144.37 435.076 143.922 433.734C143.068 431.077 140.78 428.921 138.202 428.644C135.625 428.355 133.205 429.631 130.72 429.683C129.471 429.736 128.261 429.407 127.249 428.907C126.223 428.408 125.342 427.763 124.527 427.158C122.909 425.922 121.437 424.83 119.924 424.344C118.425 423.817 117.005 424.054 116.045 424.593C115.059 425.119 114.546 425.882 114.362 426.422C114.165 426.974 114.191 427.303 114.152 427.303C114.152 427.303 114.073 426.974 114.231 426.382C114.388 425.79 114.901 424.962 115.914 424.357C116.413 424.067 117.031 423.817 117.755 423.725C118.478 423.633 119.254 423.725 120.056 423.975C121.66 424.449 123.212 425.567 124.829 426.764C126.447 427.921 128.38 429.249 130.72 429.118C131.877 429.078 133.061 428.75 134.31 428.46C135.546 428.171 136.887 427.855 138.308 428.026C141.174 428.329 143.646 430.657 144.593 433.537C145.08 434.984 145.132 436.615 144.685 438.127C144.225 439.64 143.318 441.021 142.134 442.099C140.937 443.178 139.517 443.967 138.005 444.388C136.493 444.835 134.902 444.822 133.442 444.598C131.969 444.401 130.562 444.085 129.195 443.927C127.827 443.769 126.46 443.769 125.276 444.256C124.08 444.703 123.159 445.624 122.541 446.676C121.923 447.741 121.568 448.912 121.371 450.056C120.976 452.371 121.029 454.646 120.569 456.672C120.122 458.697 119.162 460.446 117.82 461.472C116.492 462.551 114.849 462.59 113.757 462.222C112.626 461.88 111.956 461.157 111.666 460.617C111.364 460.039 111.377 459.71 111.377 459.71Z" fill="#FAFAFA"/>
<path d="M654.248 335.908C653.985 335.776 660.31 322.953 668.371 307.289C676.445 291.611 683.191 279.025 683.467 279.169C683.73 279.301 677.405 292.124 669.344 307.788C661.27 323.453 654.524 336.053 654.248 335.908Z" fill="#E0E0E0"/>
<path d="M231.719 15.188L220.994 61.6443L289.903 77.5591L300.628 31.1028L231.719 15.188Z" fill="#F5F5F5"/>
<path d="M300.719 31.7363C300.732 31.7494 300.456 31.9204 299.93 32.2098C299.352 32.5254 298.576 32.9331 297.629 33.4461C295.551 34.5246 292.645 36.0371 289.082 37.9047C281.784 41.6399 271.79 46.7561 260.718 52.4116L260.481 52.53L260.324 52.3195C260.205 52.1617 260.061 51.9907 259.929 51.8197C252.144 41.9293 245.096 32.9857 239.942 26.4491C237.443 23.2268 235.405 20.5963 233.945 18.7156C233.275 17.8344 232.749 17.1242 232.341 16.5981C231.986 16.1114 231.802 15.8484 231.815 15.8352C231.828 15.8221 232.052 16.0588 232.446 16.5192C232.88 17.0321 233.446 17.716 234.143 18.5709C235.642 20.4254 237.732 23.0032 240.297 26.1729C245.491 32.6832 252.578 41.5873 260.429 51.4252C260.56 51.5962 260.705 51.7671 260.823 51.925L260.429 51.8329C271.527 46.2432 281.56 41.1796 288.885 37.497C292.488 35.7214 295.42 34.2615 297.524 33.2225C298.51 32.749 299.286 32.3807 299.891 32.0914C300.417 31.8283 300.706 31.71 300.719 31.7363Z" fill="#E0E0E0"/>
<path d="M221.085 62.2627C220.98 62.118 227.634 56.9492 235.944 50.7151C244.255 44.4809 251.08 39.5357 251.185 39.6803C251.29 39.825 244.636 44.9938 236.326 51.228C228.015 57.4753 221.19 62.4074 221.085 62.2627Z" fill="#E0E0E0"/>
<path d="M274.222 44.3888C274.38 44.3099 278.049 51.8198 282.401 61.1447C286.754 70.4828 290.159 78.098 290.002 78.1769C289.844 78.2558 286.175 70.7459 281.823 61.4209C277.47 52.096 274.064 44.4677 274.222 44.3888Z" fill="#E0E0E0"/>
<path d="M651.421 479.096H184.108C173.523 479.096 164.949 470.521 164.949 459.934V163.824C164.949 153.237 173.523 144.661 184.108 144.661H651.421C662.006 144.661 670.58 153.237 670.58 163.824V459.934C670.58 470.508 662.006 479.096 651.421 479.096Z" fill="#455A64"/>
<path d="M669.594 486.751H168.592C155.666 486.751 145.186 476.269 145.186 463.34V457.487H692.987V463.34C693 476.269 682.52 486.751 669.594 486.751Z" fill="#455A64"/>
<path d="M655.589 157.945H178.52V440.363H655.589V157.945Z" fill="#263238"/>
<path d="M367.928 454.357L374.726 465.168H470.377L476.689 454.357H367.928Z" fill="#263238"/>
<path d="M642.439 439.469H192.655C190.275 439.469 188.355 437.535 188.355 435.168V171.808C188.355 169.427 190.288 167.507 192.655 167.507H642.439C644.819 167.507 646.739 169.44 646.739 171.808V435.155C646.752 437.535 644.819 439.469 642.439 439.469Z" fill="#EBEBEB"/>
<path d="M646.252 439.863H187.855L188.355 187.827H646.252V439.863Z" fill="#FAFAFA"/>
<path d="M225.95 178.016C225.95 180.041 224.306 181.672 222.294 181.672C220.269 181.672 218.639 180.028 218.639 178.016C218.639 176.003 220.282 174.359 222.294 174.359C224.306 174.346 225.95 175.99 225.95 178.016Z" fill="#263238"/>
<path d="M203.753 178.016C203.753 180.041 202.109 181.672 200.097 181.672C198.072 181.672 196.441 180.028 196.441 178.016C196.441 176.003 198.085 174.359 200.097 174.359C202.122 174.346 203.753 175.99 203.753 178.016Z" fill="#263238"/>
<path d="M214.405 178.016C214.405 180.041 212.761 181.672 210.749 181.672C208.724 181.672 207.094 180.028 207.094 178.016C207.094 176.003 208.737 174.359 210.749 174.359C212.774 174.346 214.405 175.99 214.405 178.016Z" fill="#263238"/>
<path d="M666.24 454.357C666.24 454.541 554.021 454.686 415.608 454.686C277.155 454.686 164.949 454.541 164.949 454.357C164.949 454.173 277.155 454.028 415.608 454.028C554.008 454.028 666.24 454.173 666.24 454.357Z" fill="#263238"/>
<path d="M335.132 286.285L521.633 284.549L527.09 411.349L333.975 409.968L335.132 286.285Z" fill="#FFC727"/>
<path d="M335.133 286.285L423.249 214.671C426.983 211.633 432.322 211.646 436.056 214.684L521.634 284.549" fill="#FFC727"/>
<g opacity="0.3">
<path d="M335.133 286.285L423.249 214.671C426.983 211.633 432.322 211.646 436.056 214.684L521.634 284.549" fill="black"/>
</g>
<path d="M333.975 409.968C333.739 409.745 348.637 393.41 367.244 373.484C385.851 353.545 401.131 337.565 401.354 337.789C401.591 338.012 386.692 354.334 368.086 374.273C349.492 394.199 334.212 410.179 333.975 409.968Z" fill="#263238"/>
<path d="M527.091 411.349C526.854 411.56 512.284 395.619 494.545 375.733C476.806 355.847 462.618 339.564 462.854 339.354C463.091 339.143 477.661 355.084 495.4 374.97C513.139 394.856 527.327 411.139 527.091 411.349Z" fill="#263238"/>
<g opacity="0.5">
<path d="M521.634 284.549L428.14 359.569L335.133 286.285" fill="black"/>
</g>
<path d="M344.548 293.189L344.127 234.938L507.433 232.663L509.405 293.965L428.127 358.582L344.548 293.189Z" fill="#FAFAFA"/>
<path d="M344.547 293.19C344.547 293.19 345.086 293.584 346.099 294.347C347.111 295.136 348.61 296.28 350.557 297.78C354.462 300.805 360.169 305.237 367.454 310.906C382.037 322.269 402.932 338.565 428.311 358.346H427.969C451.375 339.709 479.147 317.6 509.207 293.676L509.076 293.952C508.694 282.26 508.3 269.989 507.905 257.508C507.642 249.103 507.366 240.804 507.103 232.663L507.445 232.992C441.644 233.86 383.602 234.623 344.14 235.136L344.35 234.912C344.429 253.233 344.495 267.779 344.547 277.762C344.56 282.747 344.56 286.587 344.573 289.204C344.573 290.493 344.573 291.48 344.56 292.164C344.56 292.848 344.547 293.19 344.547 293.19C344.547 293.19 344.521 292.861 344.508 292.203C344.495 291.532 344.481 290.546 344.455 289.27C344.429 286.666 344.376 282.826 344.324 277.854C344.232 267.845 344.087 253.273 343.916 234.925V234.702H344.14C383.589 234.123 441.631 233.268 507.432 232.308H507.761L507.774 232.637C508.037 240.778 508.3 249.077 508.576 257.481C508.971 269.963 509.365 282.234 509.746 293.926V294.097L509.615 294.202C479.542 318.087 451.743 340.169 428.311 358.78L428.14 358.924L427.969 358.793C402.629 338.907 381.748 322.506 367.191 311.077C359.945 305.368 354.278 300.897 350.412 297.845C348.505 296.333 347.032 295.162 346.033 294.373C345.034 293.61 344.547 293.19 344.547 293.19Z" fill="#263238"/>
<path d="M481.685 262.058C481.685 262.242 456.714 262.611 425.918 262.861C395.108 263.111 370.137 263.163 370.137 262.979C370.137 262.795 395.108 262.427 425.918 262.177C456.701 261.914 481.685 261.861 481.685 262.058Z" fill="#263238"/>
<path d="M481.724 278.512C481.724 278.696 456.753 279.064 425.957 279.314C395.147 279.564 370.176 279.616 370.176 279.432C370.176 279.248 395.147 278.88 425.957 278.63C456.74 278.367 481.711 278.314 481.724 278.512Z" fill="#263238"/>
<path d="M481.765 297.477C481.765 297.661 456.794 298.03 425.998 298.28C395.188 298.529 370.217 298.582 370.217 298.398C370.217 298.214 395.188 297.846 425.998 297.596C456.781 297.333 481.752 297.293 481.765 297.477Z" fill="#263238"/>
<path d="M481.803 316.443C481.803 316.627 457.976 316.982 428.599 317.219C399.21 317.456 375.383 317.495 375.383 317.311C375.383 317.127 399.197 316.772 428.599 316.535C457.963 316.298 481.79 316.259 481.803 316.443Z" fill="#263238"/>
<path d="M460.949 333.133C460.949 333.159 460.726 333.186 460.292 333.212C459.779 333.238 459.161 333.264 458.412 333.291C456.676 333.33 454.348 333.396 451.508 333.462C445.591 333.567 437.583 333.712 428.746 333.869C419.857 334.04 411.809 334.093 405.971 334.08C403.13 334.067 400.803 334.04 399.067 334.04C398.318 334.027 397.7 334.001 397.187 333.988C396.753 333.975 396.529 333.948 396.529 333.922C396.529 333.896 396.753 333.869 397.187 333.843C397.7 333.817 398.318 333.791 399.067 333.764C400.803 333.725 403.13 333.659 405.971 333.593C411.888 333.488 419.896 333.343 428.733 333.186C437.622 333.015 445.67 332.962 451.495 332.975C454.335 332.988 456.663 333.015 458.398 333.015C459.148 333.028 459.766 333.054 460.279 333.067C460.726 333.093 460.949 333.107 460.949 333.133Z" fill="#263238"/>
<path d="M439.962 349.179C439.962 349.363 434.636 349.534 428.074 349.547C421.499 349.56 416.187 349.415 416.174 349.231C416.174 349.047 421.499 348.876 428.061 348.863C434.636 348.85 439.962 348.994 439.962 349.179Z" fill="#263238"/>
<path d="M461.96 232.15C462.144 232.176 462.223 232.913 462.144 233.82C462.052 234.728 461.828 235.438 461.644 235.425C461.46 235.412 461.381 234.662 461.46 233.755C461.539 232.847 461.776 232.137 461.96 232.15Z" fill="#263238"/>
<path d="M463.71 219.34C463.895 219.366 463.829 220.826 463.566 222.588C463.303 224.351 462.921 225.758 462.737 225.732C462.553 225.705 462.619 224.259 462.882 222.483C463.158 220.721 463.526 219.313 463.71 219.34Z" fill="#263238"/>
<path d="M466.3 206.674C466.484 206.714 466.326 208.16 465.932 209.91C465.55 211.646 465.077 213.027 464.893 212.987C464.709 212.948 464.867 211.501 465.261 209.752C465.642 208.003 466.116 206.635 466.3 206.674Z" fill="#263238"/>
<path d="M469.797 194.232C469.982 194.285 469.705 195.718 469.193 197.428C468.68 199.138 468.114 200.479 467.93 200.427C467.746 200.374 468.022 198.941 468.535 197.231C469.048 195.508 469.613 194.166 469.797 194.232Z" fill="#263238"/>
<path d="M474.309 182.119C474.48 182.198 474.085 183.592 473.428 185.249C472.77 186.906 472.087 188.195 471.916 188.129C471.745 188.064 472.126 186.656 472.797 184.999C473.454 183.329 474.138 182.04 474.309 182.119Z" fill="#263238"/>
<path d="M479.909 170.479C480.08 170.571 479.554 171.926 478.739 173.504C477.924 175.083 477.135 176.306 476.964 176.227C476.793 176.148 477.319 174.793 478.134 173.202C478.949 171.597 479.738 170.387 479.909 170.479Z" fill="#263238"/>
<path d="M486.669 159.458C486.827 159.563 486.143 160.852 485.157 162.325C484.21 163.837 483.303 164.968 483.145 164.876C482.987 164.784 483.631 163.469 484.591 161.957C485.578 160.47 486.511 159.352 486.669 159.458Z" fill="#263238"/>
<path d="M494.638 149.278C494.783 149.409 493.967 150.619 492.837 151.987C491.706 153.355 490.654 154.368 490.509 154.249C490.364 154.131 491.167 152.921 492.311 151.54C493.455 150.159 494.493 149.146 494.638 149.278Z" fill="#263238"/>
<path d="M503.75 140.111C503.881 140.255 502.934 141.36 501.633 142.583C500.344 143.807 499.187 144.688 499.055 144.556C498.924 144.425 499.87 143.32 501.172 142.084C502.461 140.847 503.618 139.966 503.75 140.111Z" fill="#263238"/>
<path d="M513.915 132.14C514.02 132.298 512.942 133.272 511.508 134.324C510.075 135.376 508.813 136.112 508.694 135.955C508.576 135.81 509.654 134.823 511.101 133.771C512.56 132.719 513.81 131.983 513.915 132.14Z" fill="#263238"/>
<path d="M525.066 125.591C525.145 125.762 523.948 126.59 522.383 127.432C520.819 128.274 519.477 128.839 519.372 128.668C519.28 128.51 520.477 127.682 522.055 126.827C523.633 125.985 524.974 125.42 525.066 125.591Z" fill="#263238"/>
<path d="M537.032 120.724C537.084 120.908 535.782 121.54 534.112 122.145C532.442 122.75 531.035 123.105 530.956 122.921C530.878 122.75 532.193 122.105 533.876 121.5C535.559 120.895 536.979 120.553 537.032 120.724Z" fill="#263238"/>
<path d="M549.616 117.805C549.643 117.989 548.249 118.37 546.5 118.673C544.764 119.041 543.318 119.186 543.278 119.001C543.239 118.817 544.619 118.37 546.382 118.002C548.13 117.686 549.59 117.607 549.616 117.805Z" fill="#263238"/>
<path d="M562.503 117.081C562.49 117.265 561.057 117.436 559.282 117.463C557.507 117.489 556.06 117.344 556.047 117.16C556.034 116.976 557.48 116.805 559.269 116.779C561.07 116.765 562.517 116.897 562.503 117.081Z" fill="#263238"/>
<path d="M575.336 118.594C575.297 118.778 573.837 118.699 572.088 118.423C570.339 118.133 568.932 117.752 568.945 117.568C568.972 117.384 570.418 117.463 572.193 117.739C573.969 118.028 575.376 118.41 575.336 118.594Z" fill="#263238"/>
<path d="M587.71 122.289C587.644 122.46 586.224 122.132 584.541 121.553C582.858 120.974 581.543 120.356 581.595 120.172C581.648 119.988 583.068 120.317 584.764 120.908C586.461 121.5 587.776 122.119 587.71 122.289Z" fill="#263238"/>
<path d="M599.216 128.155C599.111 128.313 597.783 127.734 596.244 126.853C594.706 125.972 593.522 125.117 593.601 124.959C593.68 124.788 595.022 125.38 596.573 126.261C598.138 127.156 599.321 127.998 599.216 128.155Z" fill="#263238"/>
<path d="M609.342 136.165C609.21 136.297 608.014 135.455 606.686 134.297C605.357 133.127 604.371 132.062 604.476 131.904C604.595 131.759 605.778 132.588 607.133 133.784C608.487 134.955 609.473 136.034 609.342 136.165Z" fill="#263238"/>
<path d="M615.733 143.53C615.576 143.636 615.01 143.149 614.458 142.439C613.906 141.728 613.577 141.045 613.722 140.926C613.866 140.808 614.445 141.294 614.997 142.018C615.563 142.741 615.891 143.412 615.733 143.53Z" fill="#263238"/>
<path d="M431.334 210.475C431.518 210.449 431.795 211.146 431.952 212.04C432.11 212.935 432.071 213.684 431.887 213.724C431.703 213.75 431.426 213.053 431.269 212.159C431.124 211.264 431.15 210.515 431.334 210.475Z" fill="#263238"/>
<path d="M429.232 197.652C429.416 197.625 429.797 199.033 430.087 200.808C430.376 202.584 430.455 204.044 430.271 204.07C430.087 204.096 429.705 202.689 429.416 200.913C429.127 199.138 429.048 197.678 429.232 197.652Z" fill="#263238"/>
<path d="M427.351 184.789C427.535 184.763 427.89 186.183 428.14 187.959C428.39 189.734 428.442 191.194 428.245 191.22C428.061 191.247 427.706 189.826 427.456 188.051C427.219 186.275 427.167 184.802 427.351 184.789Z" fill="#263238"/>
<path d="M425.878 171.86C426.062 171.847 426.365 173.281 426.562 175.056C426.746 176.845 426.746 178.305 426.562 178.331C426.378 178.357 426.076 176.924 425.878 175.135C425.694 173.346 425.694 171.887 425.878 171.86Z" fill="#263238"/>
<path d="M424.971 158.892C425.155 158.879 425.391 160.326 425.497 162.114C425.602 163.903 425.523 165.363 425.339 165.376C425.155 165.389 424.918 163.943 424.813 162.154C424.721 160.365 424.786 158.905 424.971 158.892Z" fill="#263238"/>
<path d="M424.839 145.885C425.023 145.885 425.168 147.344 425.168 149.146C425.155 150.935 424.997 152.395 424.813 152.395C424.629 152.395 424.484 150.935 424.484 149.133C424.484 147.344 424.642 145.885 424.839 145.885Z" fill="#263238"/>
<path d="M425.654 132.916C425.839 132.943 425.878 134.403 425.72 136.178C425.576 137.967 425.299 139.401 425.115 139.387C424.931 139.374 424.892 137.914 425.05 136.126C425.194 134.337 425.47 132.903 425.654 132.916Z" fill="#263238"/>
<path d="M427.615 120.067C427.799 120.106 427.693 121.566 427.391 123.328C427.075 125.091 426.681 126.498 426.484 126.472C426.3 126.446 426.405 124.986 426.707 123.21C427.023 121.435 427.417 120.027 427.615 120.067Z" fill="#263238"/>
<path d="M430.928 107.493C431.112 107.559 430.836 108.993 430.323 110.702C429.811 112.412 429.245 113.767 429.074 113.714C428.89 113.662 429.153 112.228 429.679 110.505C430.179 108.795 430.744 107.441 430.928 107.493Z" fill="#263238"/>
<path d="M435.78 95.4458C435.951 95.5247 435.504 96.9188 434.781 98.5628C434.058 100.194 433.334 101.469 433.163 101.404C432.992 101.338 433.44 99.9438 434.163 98.2867C434.886 96.6295 435.609 95.3669 435.78 95.4458Z" fill="#263238"/>
<path d="M442.131 84.0953C442.289 84.2006 441.671 85.5289 440.75 87.0546C439.83 88.5803 438.949 89.7508 438.778 89.6587C438.607 89.5667 439.238 88.2383 440.159 86.6995C441.079 85.1607 441.973 84.0033 442.131 84.0953Z" fill="#263238"/>
<path d="M449.915 73.7051C450.059 73.8366 449.257 75.0598 448.139 76.4539C447.022 77.848 445.983 78.8871 445.838 78.7687C445.68 78.6503 446.483 77.4272 447.613 76.0199C448.744 74.6126 449.783 73.5736 449.915 73.7051Z" fill="#263238"/>
<path d="M459.159 64.5643C459.278 64.709 458.304 65.8006 456.989 67.0106C455.675 68.2207 454.491 69.0887 454.36 68.9572C454.228 68.8257 455.201 67.734 456.529 66.5109C457.857 65.2877 459.041 64.4197 459.159 64.5643Z" fill="#263238"/>
<path d="M469.786 57.0938C469.878 57.2648 468.734 58.1723 467.235 59.1324C465.735 60.0925 464.421 60.7501 464.315 60.5923C464.21 60.4345 465.354 59.527 466.866 58.5537C468.379 57.5805 469.694 56.936 469.786 57.0938Z" fill="#263238"/>
<path d="M481.62 51.7672C481.673 51.9514 480.384 52.6221 478.714 53.2666C477.057 53.911 475.637 54.3056 475.558 54.1346C475.479 53.9636 476.781 53.2929 478.464 52.6353C480.16 51.9777 481.568 51.5831 481.62 51.7672Z" fill="#263238"/>
<path d="M491.114 49.4261C491.14 49.6103 490.456 49.8996 489.562 50.0706C488.681 50.2416 487.932 50.2284 487.892 50.0443C487.853 49.8602 488.55 49.5708 489.444 49.3998C490.338 49.2289 491.088 49.242 491.114 49.4261Z" fill="#263238"/>
<path d="M421.195 0.0427938L397.428 61.5132L488.603 96.7802L512.371 35.3098L421.195 0.0427938Z" fill="#FFC727"/>
<path d="M488.601 96.8267L488.575 96.8136L397.369 61.5393L397.382 61.513L421.157 0L421.183 0.0131522L512.389 35.2874L512.376 35.3137L488.601 96.8267ZM397.448 61.4998L488.562 96.7347L512.297 35.3269L421.196 0.0789134L397.448 61.4998Z" fill="#263238"/>
<path d="M512.362 36.1555C512.375 36.1818 511.968 36.3527 511.192 36.6421C510.337 36.9577 509.206 37.3655 507.799 37.8784C504.749 38.9569 500.475 40.4562 495.241 42.2975C484.524 45.9802 469.836 51.0175 453.583 56.594L453.241 56.7124L453.057 56.3967C452.913 56.16 452.768 55.8969 452.61 55.6339C443.892 40.5878 436.002 26.962 430.229 17.0058C427.442 12.1 425.167 8.10174 423.536 5.24771C422.8 3.90618 422.208 2.84085 421.761 2.02541C421.367 1.28889 421.169 0.894321 421.196 0.868016C421.222 0.854864 421.472 1.22313 421.919 1.93335C422.405 2.72248 423.05 3.76151 423.839 5.06358C425.522 7.89131 427.889 11.837 430.782 16.677C436.607 26.6069 444.576 40.18 453.386 55.1736C453.544 55.4366 453.688 55.6997 453.833 55.9364L453.307 55.7391C469.6 50.2546 484.301 45.3094 495.057 41.6925C500.33 39.9564 504.63 38.5492 507.707 37.5364C509.141 37.0893 510.285 36.721 511.166 36.4448C511.928 36.2475 512.349 36.1291 512.362 36.1555Z" fill="#263238"/>
<path d="M397.409 62.3679C397.291 62.1575 407.403 56.3837 420 49.4788C432.598 42.5738 442.894 37.142 443.012 37.3655C443.131 37.576 433.019 43.3498 420.421 50.2679C407.837 57.1597 397.528 62.5784 397.409 62.3679Z" fill="#263238"/>
<path d="M473.624 48.3082C473.861 48.2424 477.398 59.2245 481.527 72.8371C485.656 86.4628 488.825 97.5633 488.588 97.629C488.351 97.6948 484.814 86.7127 480.685 73.1001C476.543 59.4744 473.387 48.3739 473.624 48.3082Z" fill="#263238"/>
<path d="M393.043 224.877C393.227 224.89 393.32 225.64 393.254 226.547C393.175 227.455 392.965 228.178 392.78 228.165C392.596 228.152 392.504 227.402 392.57 226.495C392.649 225.587 392.859 224.864 393.043 224.877Z" fill="#263238"/>
<path d="M393.371 211.501C393.556 211.501 393.713 213 393.7 214.842C393.7 216.696 393.542 218.195 393.345 218.182C393.161 218.182 393.003 216.683 393.016 214.842C393.03 213 393.187 211.501 393.371 211.501Z" fill="#263238"/>
<path d="M392.465 198.151C392.649 198.125 392.939 199.611 393.109 201.453C393.28 203.294 393.267 204.806 393.07 204.82C392.886 204.833 392.597 203.36 392.426 201.518C392.268 199.677 392.281 198.178 392.465 198.151Z" fill="#263238"/>
<path d="M390.243 184.96C390.427 184.92 390.861 186.354 391.216 188.182C391.571 189.997 391.716 191.496 391.519 191.536C391.335 191.562 390.887 190.129 390.546 188.314C390.191 186.499 390.059 184.999 390.243 184.96Z" fill="#263238"/>
<path d="M386.601 172.084C386.785 172.018 387.376 173.399 387.929 175.175C388.481 176.95 388.783 178.423 388.599 178.476C388.415 178.528 387.823 177.147 387.271 175.385C386.732 173.623 386.43 172.15 386.601 172.084Z" fill="#263238"/>
<path d="M381.485 159.734C381.656 159.655 382.406 160.957 383.169 162.641C383.931 164.337 384.405 165.758 384.234 165.837C384.063 165.902 383.3 164.6 382.551 162.93C381.801 161.246 381.314 159.813 381.485 159.734Z" fill="#263238"/>
<path d="M374.845 148.12C375.003 148.015 375.949 149.199 376.936 150.764C377.882 152.355 378.514 153.723 378.356 153.828C378.185 153.921 377.291 152.711 376.357 151.132C375.371 149.567 374.687 148.226 374.845 148.12Z" fill="#263238"/>
<path d="M366.652 137.546C366.797 137.414 367.875 138.467 369.059 139.9C370.242 141.321 371.084 142.57 370.939 142.689C370.795 142.807 369.716 141.755 368.533 140.334C367.349 138.927 366.521 137.678 366.652 137.546Z" fill="#263238"/>
<path d="M357.052 128.247C357.171 128.103 358.394 128.997 359.761 130.233C361.142 131.483 362.155 132.588 362.01 132.732C361.878 132.864 360.669 131.983 359.301 130.746C357.933 129.51 356.934 128.392 357.052 128.247Z" fill="#263238"/>
<path d="M346.204 120.422C346.296 120.264 347.637 120.961 349.176 121.987C350.714 123.013 351.885 123.973 351.766 124.131C351.661 124.289 350.32 123.578 348.794 122.566C347.269 121.553 346.099 120.593 346.204 120.422Z" fill="#263238"/>
<path d="M334.291 114.359C334.356 114.188 335.79 114.674 337.473 115.45C339.156 116.226 340.458 116.989 340.366 117.16C340.274 117.331 338.853 116.844 337.183 116.068C335.513 115.292 334.212 114.53 334.291 114.359Z" fill="#263238"/>
<path d="M321.536 110.321C321.575 110.137 323.061 110.373 324.85 110.86C326.638 111.347 328.045 111.886 327.992 112.057C327.94 112.241 326.454 111.991 324.679 111.518C322.904 111.044 321.497 110.505 321.536 110.321Z" fill="#263238"/>
<path d="M308.281 108.624C308.281 108.44 309.793 108.361 311.648 108.466C313.502 108.664 314.974 108.966 314.948 109.15C314.922 109.334 313.423 109.334 311.595 109.137C309.767 109.045 308.281 108.822 308.281 108.624Z" fill="#263238"/>
<path d="M294.946 109.545C294.907 109.361 296.379 109.032 298.234 108.808C300.074 108.585 301.587 108.572 301.6 108.756C301.613 108.94 300.14 109.269 298.312 109.492C296.485 109.703 294.986 109.729 294.946 109.545Z" fill="#263238"/>
<path d="M282.034 112.978C281.968 112.807 283.348 112.202 285.124 111.636C286.899 111.071 288.372 110.768 288.411 110.952C288.464 111.136 287.083 111.728 285.321 112.294C283.572 112.846 282.099 113.162 282.034 112.978Z" fill="#263238"/>
<path d="M269.989 118.778C269.883 118.62 271.133 117.765 272.763 116.884C274.394 116.003 275.788 115.424 275.866 115.595C275.945 115.766 274.709 116.621 273.092 117.489C271.488 118.357 270.094 118.936 269.989 118.778Z" fill="#263238"/>
<path d="M259.312 126.814C259.18 126.682 260.232 125.604 261.666 124.407C263.099 123.21 264.348 122.368 264.453 122.526C264.572 122.684 263.52 123.749 262.1 124.933C260.693 126.104 259.443 126.945 259.312 126.814Z" fill="#263238"/>
<path d="M250.566 136.902C250.409 136.796 251.132 135.455 252.263 133.982C253.407 132.509 254.511 131.483 254.656 131.601C254.801 131.733 253.933 132.943 252.802 134.403C251.684 135.863 250.724 137.007 250.566 136.902Z" fill="#263238"/>
<path d="M245.689 145.595C245.518 145.516 245.702 144.793 246.097 143.964C246.491 143.136 246.951 142.544 247.122 142.636C247.293 142.728 247.109 143.451 246.715 144.267C246.32 145.069 245.86 145.661 245.689 145.595Z" fill="#263238"/>
<path d="M162.135 223.207C162.122 223.023 162.832 222.773 163.726 222.667C164.62 222.562 165.37 222.628 165.396 222.812C165.422 222.996 164.712 223.233 163.805 223.351C162.898 223.457 162.148 223.391 162.135 223.207Z" fill="#263238"/>
<path d="M149.117 221.734C149.17 221.549 150.617 221.852 152.379 222.22C154.141 222.588 155.587 222.891 155.561 223.088C155.548 223.272 154.035 223.272 152.234 222.891C150.432 222.509 149.052 221.904 149.117 221.734Z" fill="#263238"/>
<path d="M137.348 215.907C137.454 215.749 138.742 216.473 140.294 217.406C141.846 218.34 143.095 219.116 143.003 219.287C142.924 219.458 141.517 218.945 139.939 217.998C138.361 217.051 137.23 216.065 137.348 215.907Z" fill="#263238"/>
<path d="M127.552 207.121C127.697 206.99 128.775 208.003 130.051 209.292C131.326 210.58 132.313 211.672 132.194 211.804C132.076 211.948 130.853 211.067 129.564 209.765C128.276 208.463 127.421 207.24 127.552 207.121Z" fill="#263238"/>
<path d="M119.82 196.468C119.978 196.376 120.924 197.52 121.911 199.033C122.897 200.545 123.581 201.86 123.436 201.979C123.278 202.097 122.345 200.94 121.345 199.414C120.333 197.875 119.662 196.56 119.82 196.468Z" fill="#263238"/>
<path d="M114.139 184.591C114.31 184.526 115.033 185.828 115.743 187.485C116.453 189.155 116.887 190.563 116.716 190.655C116.545 190.734 115.822 189.445 115.112 187.761C114.402 186.065 113.968 184.657 114.139 184.591Z" fill="#263238"/>
<path d="M110.365 171.965C110.549 171.926 111.075 173.307 111.536 175.069C111.996 176.819 112.219 178.292 112.035 178.344C111.851 178.397 111.325 177.016 110.865 175.24C110.405 173.478 110.181 172.005 110.365 171.965Z" fill="#263238"/>
<path d="M108.076 158.984C108.261 158.958 108.642 160.391 108.905 162.193C109.181 163.995 109.247 165.468 109.063 165.508C108.879 165.547 108.51 164.1 108.234 162.298C107.958 160.497 107.892 159.01 108.076 158.984Z" fill="#263238"/>
<path d="M106.815 145.858C106.999 145.845 107.275 147.305 107.42 149.12C107.565 150.935 107.538 152.421 107.341 152.434C107.157 152.448 106.881 151.001 106.736 149.173C106.592 147.358 106.618 145.871 106.815 145.858Z" fill="#263238"/>
<path d="M106.263 135.994C106.447 135.981 106.644 136.717 106.684 137.625C106.723 138.532 106.605 139.269 106.421 139.282C106.236 139.295 106.039 138.559 106 137.651C105.96 136.744 106.079 135.994 106.263 135.994Z" fill="#263238"/>
<path d="M155.777 56.2519L46.4395 61.4083L49.9146 135.124L159.252 129.968L155.777 56.2519Z" fill="#FFC727"/>
<path d="M49.8758 135.152V135.113L46.4043 61.3683H46.4437L155.823 56.2126V56.2521L159.294 129.997H159.255L49.8758 135.152ZM46.47 61.4341L49.9416 135.087L159.215 129.931L155.744 56.2784L46.47 61.4341Z" fill="#263238"/>
<path d="M156.165 57.1201C156.191 57.1464 155.849 57.5015 155.192 58.146C154.455 58.8562 153.482 59.79 152.273 60.9606C149.63 63.4463 145.934 66.9185 141.411 71.1798C132.088 79.8077 119.346 91.6053 105.21 104.692L104.908 104.968L104.579 104.731C104.329 104.547 104.053 104.35 103.777 104.152C88.0497 92.6706 73.8086 82.2935 63.3809 74.7046C58.3051 70.9431 54.163 67.8786 51.2043 65.6954C49.8368 64.6563 48.7453 63.8277 47.9301 63.2096C47.1805 62.6309 46.7992 62.3152 46.8255 62.2889C46.8518 62.2626 47.2594 62.5257 48.0484 63.0518C48.9031 63.6436 50.034 64.4196 51.441 65.3929C54.4523 67.5235 58.647 70.4959 63.8017 74.1523C74.2557 81.6753 88.5625 91.9735 104.368 103.35C104.645 103.547 104.921 103.745 105.171 103.929L104.539 103.968C118.741 90.974 131.562 79.2553 140.938 70.6801C145.553 66.5108 149.327 63.1307 152.023 60.6975C153.285 59.5796 154.298 58.6984 155.06 58.0276C155.757 57.3963 156.139 57.0938 156.165 57.1201Z" fill="#263238"/>
<path d="M50.2977 135.981C50.0741 135.81 57.8324 125.328 67.6026 112.544C77.3728 99.7728 85.473 89.5535 85.6965 89.7245C85.9201 89.8955 78.1749 100.378 68.3916 113.162C58.6214 125.933 50.5212 136.152 50.2977 135.981Z" fill="#263238"/>
<path d="M121.99 87.0941C122.201 86.91 130.801 96.5637 141.189 108.637C151.59 120.724 159.848 130.654 159.638 130.838C159.427 131.023 150.841 121.369 140.439 109.295C130.038 97.2082 121.78 87.2651 121.99 87.0941Z" fill="#263238"/>
<path d="M242.125 318.087C242.361 316.574 241.388 315.141 239.85 314.759L236.917 314.957L226.437 311.313C224.478 310.814 222.505 312.208 222.466 314.167C222.413 317.179 221.204 325.386 218.758 322.808C218.705 322.743 218.639 322.703 218.587 322.637C215.128 318.784 211.131 316.916 209.579 317.14C208.067 317.35 207.699 319.244 208.83 320.244C209.001 320.415 209.198 320.573 209.448 320.678C209.553 320.717 209.685 320.809 209.803 320.862C211.078 321.691 212.643 323.216 213.814 324.439C214.918 325.61 215.812 326.965 216.457 328.424C217.167 330.055 217.706 331.476 218.14 332.699L218.298 342.34L214.116 387.412C214.116 387.412 186.383 358.267 187.015 357.977L188.606 403.34L205.411 417.255C212.551 423.16 222.716 423.726 230.461 418.649C236.523 414.677 240.126 407.864 240.008 400.617L239.035 342.34L239.718 334.698L242.125 318.087Z" fill="#FFBE9D"/>
<path d="M86.3406 382.164L55.9912 451.674L31.9668 501.81L14.1227 507.808C14.1227 507.808 0 511.911 0 514.831C0 517.751 3.72135 517.093 3.72135 517.093C4.40513 521.46 10.454 518.987 14.675 517.027C18.9092 515.068 28.2981 514.673 28.2981 514.673C25.7076 516.672 26.536 519.75 28.0351 520.802C29.5341 521.854 32.1378 520.578 33.913 518.698C35.675 516.817 40.2248 515.936 45.2743 514.134C50.3369 512.332 51.1653 505.532 51.1653 505.532L111.956 403.116L86.3406 382.164Z" fill="#FFBE9D"/>
<path d="M187.12 407.39L194.76 417.491L211.315 380.757C211.315 380.757 195.247 361.147 189.369 352.927C183.543 344.773 179.178 343.352 179.178 343.352C179.178 343.352 168.5 340.183 163.175 340.288L136.796 341.866L110.01 353.558C103.436 356.426 97.8339 361.147 93.889 367.145L68.668 407.667L104.382 422.936L116.362 491.42C118.663 501.692 120.662 511.385 130.143 516.12L196.377 452.45L188.619 440.232L187.12 407.39Z" fill="#FFC727"/>
<path d="M123.791 394.83C123.949 394.935 119.859 401.288 114.678 409.008C109.484 416.728 105.145 422.91 104.987 422.805C104.829 422.7 108.905 416.36 114.1 408.627C119.307 400.906 123.646 394.725 123.791 394.83Z" fill="#263238"/>
<path d="M179.322 459.855C179.348 459.894 178.717 460.262 177.559 460.907C176.402 461.551 174.719 462.446 172.628 463.524C168.447 465.694 162.621 468.601 156.112 471.665C149.603 474.73 143.66 477.373 139.32 479.215C137.151 480.135 135.389 480.872 134.166 481.346C132.943 481.832 132.259 482.082 132.233 482.029C132.219 481.99 132.864 481.661 134.06 481.096C135.362 480.491 137.072 479.715 139.123 478.768C143.41 476.808 149.314 474.099 155.823 471.034C162.319 467.97 168.171 465.129 172.405 463.077C174.443 462.091 176.126 461.275 177.428 460.657C178.638 460.105 179.308 459.802 179.322 459.855Z" fill="#263238"/>
<path d="M121.675 379.994C121.596 380.047 120.728 378.903 119.347 377.074C117.953 375.246 116.046 372.695 113.469 370.367C110.892 368.039 108.065 366.553 105.882 365.895C103.712 365.224 102.266 365.237 102.266 365.119C102.266 365.08 102.621 365.027 103.278 365.04C103.936 365.053 104.882 365.145 106.013 365.435C108.288 365.974 111.273 367.46 113.929 369.854C116.572 372.248 118.453 374.891 119.755 376.785C121.03 378.718 121.753 379.955 121.675 379.994Z" fill="#263238"/>
<path d="M176.166 413.375C176.192 413.375 176.206 413.625 176.192 414.098C176.179 414.572 176.206 415.282 176.127 416.176C176.035 417.978 175.745 420.595 175.075 423.765C173.773 430.091 170.538 438.719 164.305 446.479C158.072 454.252 150.353 459.289 144.462 461.933C141.517 463.274 139.018 464.129 137.283 464.616C136.415 464.879 135.731 465.01 135.271 465.129C134.811 465.234 134.561 465.273 134.561 465.26C134.548 465.208 135.507 464.932 137.217 464.366C138.926 463.8 141.372 462.893 144.265 461.499C150.051 458.763 157.625 453.726 163.779 446.058C169.933 438.39 173.194 429.907 174.615 423.66C175.338 420.53 175.706 417.939 175.877 416.15C176.048 414.374 176.114 413.375 176.166 413.375Z" fill="#263238"/>
<g opacity="0.3">
<path d="M108.998 449.412C108.879 448.754 117.492 404.234 117.492 404.234L104.514 423.726" fill="black"/>
</g>
<path d="M185.424 364.659C185.451 364.659 185.477 364.922 185.516 365.422C185.556 366 185.595 366.724 185.661 367.618C185.766 369.617 185.898 372.366 186.069 375.707C186.397 382.625 186.858 392.028 187.357 402.406C187.857 412.835 188.251 422.292 188.449 429.131C188.554 432.55 188.62 435.326 188.633 437.233C188.633 438.127 188.646 438.864 188.646 439.442C188.646 439.942 188.633 440.205 188.606 440.218C188.58 440.218 188.554 439.955 188.514 439.455C188.475 438.877 188.435 438.153 188.37 437.259C188.265 435.26 188.133 432.511 187.962 429.17C187.633 422.252 187.173 412.848 186.673 402.458C186.174 392.028 185.779 382.585 185.582 375.746C185.477 372.326 185.411 369.551 185.398 367.644C185.398 366.75 185.385 366.013 185.385 365.435C185.385 364.922 185.398 364.659 185.424 364.659Z" fill="#263238"/>
<g opacity="0.2">
<path d="M132.562 482.003C130.445 480.241 130.931 476.637 132.799 474.611C134.666 472.586 137.44 471.718 140.07 470.863C152.654 466.786 165.304 461.025 173.615 450.714C174.759 449.293 175.837 447.768 177.336 446.715C178.835 445.663 180.874 445.163 182.504 446.005C185.042 447.334 185.147 451.016 184.082 453.673C182.78 456.922 180.269 459.67 177.139 461.249" fill="black"/>
</g>
<g opacity="0.2">
<path d="M185.699 372.563L193.05 415.216L187.317 407.667L185.699 372.563Z" fill="black"/>
</g>
<path d="M213.602 282.983C213.602 282.983 222.201 280.406 233.628 267.648C245.056 254.903 249.671 238.752 251.183 238.713C252.695 238.674 259.047 235.136 273.577 261.414C288.108 287.692 283.65 294.386 281.151 294.518C278.653 294.649 261.414 291.204 250.947 293.189C240.479 295.175 227.317 301.686 227.317 301.686L213.602 282.983Z" fill="#455A64"/>
<path d="M196.126 299.2L199.532 304.645L201.057 307.091C203.148 310.445 207.5 311.563 210.946 309.656L229.197 301.725L216.429 277.617L198.453 288.994C195.008 291.177 193.969 295.741 196.126 299.2Z" fill="#263238"/>
<path d="M207.619 307.473L214.457 318.731L217.376 317.679L238.061 332.094L242.716 321.02C242.716 321.02 230.815 316.916 228.382 312.957C225.95 309.012 228.343 307.894 228.343 307.894L222.465 302.133L207.619 307.473Z" fill="#263238"/>
<path d="M272.591 261.992C280.349 276.236 284.083 289.165 280.967 290.875C277.837 292.584 269.014 282.405 261.269 268.161C253.524 253.917 249.776 240.988 252.906 239.278C256.022 237.582 264.845 247.748 272.591 261.992Z" fill="#263238"/>
<path d="M195.141 307.512L200.098 305.54L196.508 299.792L192.879 302.449L195.141 307.512Z" fill="#455A64"/>
<path d="M224.479 304.106L211.474 313.839L209.527 310.629L224.479 304.106Z" fill="#455A64"/>
<path d="M196.508 299.792L200.098 305.54L199.072 305.947L196.074 300.121L196.508 299.792Z" fill="#455A64"/>
<path d="M200.112 300.91C200.204 301.068 202.663 299.897 205.609 298.293C208.554 296.688 210.882 295.254 210.79 295.097C210.697 294.939 208.239 296.109 205.293 297.714C202.347 299.332 200.02 300.752 200.112 300.91Z" fill="#455A64"/>
<path d="M198.284 297.477C198.376 297.635 200.599 296.491 203.242 294.939C205.898 293.374 207.962 291.993 207.87 291.835C207.778 291.677 205.556 292.821 202.913 294.373C200.27 295.925 198.192 297.319 198.284 297.477Z" fill="#455A64"/>
<path d="M202.359 304.5C202.399 304.579 202.991 304.395 203.924 304.027C204.398 303.843 204.95 303.606 205.568 303.343C206.173 303.067 206.804 302.698 207.475 302.33C210.157 300.831 212.182 299.41 212.103 299.266C212.011 299.095 209.815 300.278 207.159 301.752C206.488 302.12 205.884 302.514 205.292 302.804C204.7 303.093 204.174 303.369 203.74 303.593C202.859 304.079 202.32 304.421 202.359 304.5Z" fill="#455A64"/>
<path d="M258.785 259.73C258.785 259.73 266.031 254.456 270.962 264.412C275.88 274.369 268.016 276.657 268.016 276.657C264.347 271.817 261.257 266.201 258.785 259.73Z" fill="#455A64"/>
<path d="M249.791 248.091C249.752 248.104 249.909 248.788 250.238 250.024C250.567 251.26 251.053 253.062 251.698 255.258C252.105 256.337 252.539 257.508 253.013 258.77C253.249 259.401 253.499 260.059 253.749 260.73C253.881 261.072 254.012 261.414 254.144 261.756C254.288 262.098 254.459 262.426 254.617 262.782C255.275 264.149 255.958 265.596 256.668 267.082C256.852 267.451 257.023 267.832 257.208 268.213C257.378 268.595 257.615 268.95 257.826 269.318C258.259 270.055 258.693 270.804 259.127 271.567C259.574 272.33 260.008 273.08 260.429 273.816C260.653 274.185 260.837 274.566 261.087 274.908C261.323 275.25 261.56 275.592 261.797 275.934C262.743 277.288 263.651 278.591 264.519 279.84C264.742 280.143 264.939 280.458 265.176 280.761C265.413 281.05 265.65 281.326 265.873 281.602C266.333 282.155 266.78 282.694 267.214 283.22C268.082 284.259 268.884 285.219 269.621 286.114C271.199 287.771 272.527 289.06 273.434 289.967C274.342 290.862 274.867 291.348 274.907 291.309C274.933 291.282 274.486 290.743 273.618 289.783C272.737 288.81 271.488 287.455 269.95 285.785C269.239 284.89 268.464 283.917 267.622 282.865C267.201 282.339 266.767 281.8 266.32 281.247C266.097 280.971 265.873 280.682 265.636 280.406C265.413 280.116 265.216 279.801 265.005 279.485C264.151 278.235 263.256 276.933 262.323 275.579C262.086 275.237 261.849 274.895 261.613 274.553C261.376 274.211 261.179 273.829 260.968 273.474C260.548 272.738 260.114 272.001 259.68 271.238C259.246 270.489 258.812 269.739 258.378 269.016C258.167 268.647 257.931 268.292 257.76 267.911C257.576 267.53 257.405 267.161 257.221 266.793C256.511 265.32 255.814 263.886 255.156 262.532C254.998 262.19 254.814 261.861 254.67 261.519C254.538 261.177 254.407 260.835 254.275 260.506C254.012 259.835 253.762 259.191 253.512 258.573C253.013 257.323 252.553 256.166 252.132 255.101C251.435 252.944 250.883 251.194 250.475 249.945C250.08 248.748 249.831 248.077 249.791 248.091Z" fill="#263238"/>
<path d="M230.238 307.933C231.395 308.275 232.079 309.459 231.776 310.629C231.211 312.865 230.291 316.377 229.541 318.521C229.304 319.218 229.041 319.915 228.555 320.467C228.068 321.02 227.319 321.388 226.609 321.204C225.859 321.02 225.346 320.27 225.215 319.507C225.083 318.744 225.241 317.968 225.412 317.219C225.872 315.141 226.727 311.997 227.463 309.446C227.805 308.262 229.054 307.578 230.238 307.933Z" fill="#FFBE9D"/>
<path d="M233.802 311.563C234.96 311.905 235.643 313.089 235.341 314.26C234.775 316.495 233.855 320.007 233.105 322.151C232.869 322.848 232.606 323.545 232.119 324.097C231.633 324.65 230.883 325.018 230.173 324.834C229.424 324.65 228.911 323.9 228.779 323.137C228.648 322.375 228.806 321.599 228.976 320.849C229.437 318.771 230.291 315.627 231.028 313.076C231.37 311.892 232.619 311.208 233.802 311.563Z" fill="#FFBE9D"/>
<path d="M237.247 313.747C238.247 314.036 238.838 315.075 238.575 316.088C238.089 318.021 237.287 321.059 236.642 322.927C236.432 323.532 236.208 324.137 235.788 324.61C235.367 325.084 234.709 325.399 234.091 325.255C233.447 325.097 233 324.452 232.881 323.795C232.763 323.137 232.908 322.466 233.052 321.809C233.46 320.007 234.183 317.298 234.828 315.075C235.13 314.036 236.208 313.444 237.247 313.747Z" fill="#FFBE9D"/>
<path d="M241.14 314.181C242.139 314.47 242.731 315.509 242.481 316.522C241.994 318.468 241.179 321.52 240.535 323.387C240.324 323.992 240.101 324.597 239.68 325.084C239.259 325.557 238.602 325.886 237.984 325.728C237.326 325.571 236.892 324.913 236.774 324.255C236.656 323.598 236.8 322.914 236.945 322.256C237.353 320.441 238.089 317.719 238.733 315.496C239.023 314.47 240.101 313.878 241.14 314.181Z" fill="#FFBE9D"/>
<path d="M229.001 320.507C228.817 320.454 229.251 318.56 229.974 316.298C230.684 314.036 231.421 312.234 231.592 312.3C231.776 312.352 231.342 314.246 230.619 316.509C229.909 318.771 229.185 320.573 229.001 320.507Z" fill="#EB996E"/>
<path d="M236.406 323.492C236.222 323.427 236.8 321.572 237.471 319.31C238.155 317.035 238.681 315.193 238.865 315.22C239.049 315.259 238.812 317.192 238.128 319.494C237.445 321.809 236.577 323.558 236.406 323.492Z" fill="#EB996E"/>
<path d="M232.736 323.019C232.552 322.953 233.13 321.099 233.801 318.836C234.485 316.561 235.011 314.72 235.195 314.746C235.379 314.786 235.142 316.719 234.458 319.021C233.775 321.335 232.907 323.085 232.736 323.019Z" fill="#EB996E"/>
<path d="M299.548 211.79C299.693 211.909 294.301 219.235 287.503 228.152C280.705 237.069 275.064 244.211 274.919 244.092C274.774 243.974 280.166 236.661 286.964 227.731C293.762 218.814 299.39 211.685 299.548 211.79Z" fill="#263238"/>
<path d="M334.829 232.663C334.908 232.834 323.573 238.266 309.503 244.789C295.433 251.326 283.966 256.469 283.887 256.298C283.808 256.127 295.143 250.695 309.213 244.158C323.283 237.648 334.75 232.492 334.829 232.663Z" fill="#263238"/>
<path d="M329.569 276.105C329.555 276.289 321.468 275.671 311.514 274.711C301.56 273.751 293.512 272.817 293.525 272.633C293.539 272.449 301.626 273.067 311.58 274.027C321.534 274.987 329.595 275.908 329.569 276.105Z" fill="#263238"/>
<path d="M122.253 300.463L131.182 351.23C132.72 360.003 141.044 365.987 149.999 364.751C159.309 363.462 165.713 354.887 164.2 345.759L162.754 337.026C162.754 337.026 175.246 333.633 173.944 321.099C173.313 315.049 170.999 302.712 168.763 291.559C166.265 279.077 154.154 270.791 141.412 272.843C128.249 275.092 119.597 287.587 122.253 300.463Z" fill="#FFBE9D"/>
<path d="M168.816 270.094C167.133 268.819 164.437 268.884 163.043 270.463C164.187 268.845 163.517 266.412 161.926 265.202C160.334 263.992 158.112 263.86 156.166 264.373C154.22 264.886 152.497 265.951 150.801 267.017C150.998 266.254 150.551 265.438 149.907 264.978C149.262 264.518 148.447 264.347 147.645 264.268C144.371 263.939 141.07 264.886 138.164 266.399C135.258 267.911 131.944 270.318 129.393 272.356H129.406C126.737 274.421 124.081 277.236 121.385 280.932C121.346 280.958 121.319 280.984 121.28 281.024C119.426 282.681 117.861 287.679 118.137 290.125C119.176 299.148 122.161 304.369 123.844 312.931C123.949 313.497 124.081 314.102 124.489 314.523C125.527 315.601 127.395 314.693 128.381 313.549C130.774 310.787 131.602 307.013 131.721 303.383C131.839 299.753 131.326 296.136 131.405 292.506C131.405 292.427 131.405 292.335 131.405 292.243C131.432 291.361 131.51 290.414 131.668 289.468C131.826 288.876 133.365 283.694 138.348 282.852C143.634 281.958 154.062 287.087 159.23 286.272C164.398 285.456 164.661 281.813 164.661 281.813L167.698 287.994C167.698 287.994 168.855 284.364 168.185 280.274C169.447 279.025 170.42 277.486 170.749 275.763C171.17 273.685 170.499 271.37 168.816 270.094Z" fill="#263238"/>
<path d="M127.211 305.855C126.987 305.79 118.177 304.303 119.452 312.826C120.728 321.362 129.157 318.337 129.144 318.087C129.117 317.85 127.211 305.855 127.211 305.855Z" fill="#FFBE9D"/>
<path d="M126.014 315.246C125.975 315.22 125.883 315.377 125.646 315.522C125.409 315.667 125.002 315.812 124.528 315.706C123.568 315.509 122.582 314.194 122.306 312.655C122.161 311.879 122.227 311.116 122.411 310.472C122.582 309.814 122.924 309.314 123.371 309.17C123.818 308.999 124.186 309.222 124.318 309.446C124.476 309.669 124.436 309.84 124.489 309.854C124.515 309.867 124.66 309.683 124.528 309.341C124.462 309.183 124.331 308.986 124.107 308.854C123.871 308.722 123.555 308.683 123.239 308.762C122.582 308.907 122.069 309.591 121.859 310.314C121.622 311.037 121.53 311.905 121.688 312.773C122.003 314.483 123.134 315.969 124.436 316.14C125.067 316.206 125.554 315.956 125.777 315.719C126.027 315.456 126.054 315.259 126.014 315.246Z" fill="#EB996E"/>
<path d="M107.761 367.657C107.761 367.657 107.998 367.526 108.511 367.539C109.01 367.552 109.773 367.802 110.457 368.499C111.154 369.17 111.667 370.367 111.588 371.735C111.562 373.102 111.036 374.575 110.588 376.167C110.141 377.732 109.839 379.626 110.891 381.23C111.824 382.861 113.731 384.111 114.52 386.386C115.27 388.583 114.652 391.397 112.613 392.989C111.627 393.791 110.378 394.304 109.063 394.37C107.735 394.422 106.473 394.054 105.263 393.751C104.053 393.449 102.817 393.199 101.726 393.528C100.621 393.83 99.8057 394.725 99.1088 395.658C98.3987 396.605 97.7807 397.644 96.8602 398.46C95.966 399.302 94.7168 399.775 93.5333 399.683C91.1664 399.525 89.2465 397.973 88.2866 396.198C87.3135 394.396 87.0637 392.502 86.9453 390.832C86.8402 389.148 86.9059 387.636 86.8664 386.32C86.8401 385.005 86.7481 383.874 86.5771 382.967C86.2484 381.138 85.7093 380.231 85.775 380.205C85.7882 380.191 85.946 380.415 86.1564 380.862C86.3668 381.309 86.6298 381.993 86.8401 382.914C87.0505 383.835 87.182 384.979 87.2478 386.307C87.3135 387.636 87.3004 389.148 87.4187 390.792C87.5502 392.423 87.8395 394.251 88.7731 395.922C89.6673 397.539 91.4688 398.933 93.5596 399.052C94.5984 399.118 95.6241 398.723 96.4131 397.973C97.2284 397.237 97.8333 396.224 98.5565 395.251C99.2666 394.291 100.187 393.238 101.528 392.87C102.843 392.489 104.198 392.778 105.421 393.081C106.657 393.396 107.853 393.738 109.024 393.686C110.181 393.633 111.312 393.173 112.193 392.462C114.007 391.055 114.573 388.543 113.928 386.57C113.284 384.558 111.443 383.282 110.417 381.52C109.891 380.639 109.629 379.613 109.668 378.666C109.694 377.719 109.905 376.838 110.141 376.035C110.641 374.431 111.167 373.023 111.22 371.721C111.325 370.432 110.891 369.341 110.273 368.683C109.668 367.999 108.984 367.723 108.511 367.671C108.024 367.618 107.761 367.697 107.761 367.657Z" fill="#FAFAFA"/>
<path d="M156.047 380.021C156.047 380.021 156.258 379.521 156.955 378.797C157.652 378.087 158.914 377.14 160.847 376.825C162.727 376.483 165.357 377.153 167.133 379.324C168.027 380.376 168.592 381.849 168.711 383.388C168.908 384.9 168.842 386.597 169.71 387.965C170.131 388.635 170.841 389.122 171.63 389.385C172.432 389.661 173.326 389.74 174.233 389.793C175.154 389.845 176.101 389.832 177.074 389.937C178.034 390.043 179.099 390.253 179.954 390.95C180.387 391.279 180.703 391.739 180.953 392.239C181.176 392.752 181.255 393.318 181.216 393.883C181.111 395.001 180.558 396.014 179.848 396.855C179.138 397.697 178.244 398.407 177.232 398.92C176.245 399.42 175.207 399.828 174.194 400.301C173.181 400.762 172.195 401.288 171.393 402.024C170.578 402.761 170.026 403.734 169.749 404.826C169.21 407.048 169.71 409.429 169.592 411.941C169.486 413.191 169.223 414.466 168.592 415.624C167.987 416.768 166.856 417.794 165.463 417.978C164.069 418.202 162.701 417.583 161.689 416.728C160.663 415.874 159.848 414.808 159.177 413.664C158.52 412.546 157.902 411.415 157.152 410.429C156.403 409.442 155.482 408.6 154.351 408.245C153.233 407.864 152.011 408.035 150.906 408.469C149.788 408.903 148.749 409.547 147.711 410.179C146.672 410.81 145.62 411.468 144.436 411.888C143.266 412.323 142.043 412.507 140.82 412.48C138.387 412.441 136.073 411.56 134.232 410.166C132.391 408.785 131.05 406.772 130.629 404.602C130.195 402.471 130.603 400.065 132.194 398.605C132.97 397.868 133.943 397.447 134.903 397.211C135.863 396.961 136.81 396.842 137.73 396.724C139.545 396.5 141.307 396.145 142.569 395.08C143.831 394.028 144.581 392.568 145.146 391.174C145.699 389.766 146.08 388.372 146.553 387.097C147.027 385.821 147.592 384.663 148.329 383.743C149.078 382.822 149.88 382.125 150.63 381.533C152.142 380.363 153.523 379.692 154.562 379.626C155.653 379.508 156.061 380.06 156.047 380.021C156.034 380.1 155.6 379.6 154.601 379.744C153.628 379.836 152.274 380.534 150.827 381.717C150.104 382.322 149.315 383.032 148.618 383.914C147.921 384.808 147.395 385.939 146.948 387.202C146.488 388.464 146.133 389.858 145.58 391.305C145.015 392.726 144.265 394.264 142.911 395.422C141.543 396.592 139.65 396.974 137.835 397.211C136.034 397.474 134.022 397.671 132.628 398.986C131.234 400.275 130.84 402.471 131.26 404.457C131.668 406.47 132.917 408.337 134.666 409.639C136.402 410.941 138.598 411.77 140.886 411.796C142.017 411.81 143.174 411.639 144.252 411.231C145.344 410.836 146.356 410.205 147.408 409.574C148.447 408.942 149.512 408.272 150.709 407.798C151.892 407.325 153.312 407.127 154.601 407.561C155.903 407.969 156.942 408.942 157.731 409.968C158.533 411.007 159.164 412.165 159.808 413.269C160.453 414.361 161.228 415.374 162.162 416.15C163.096 416.926 164.253 417.439 165.397 417.255C166.541 417.097 167.488 416.281 168.04 415.255C168.605 414.23 168.868 413.033 168.96 411.849C169.092 409.495 168.579 407.035 169.158 404.628C169.447 403.432 170.091 402.314 170.999 401.511C171.893 400.696 172.945 400.157 173.97 399.683C174.996 399.21 176.035 398.815 176.995 398.328C177.942 397.855 178.77 397.197 179.428 396.421C180.085 395.645 180.585 394.738 180.677 393.791C180.716 393.318 180.637 392.857 180.466 392.436C180.256 392.029 179.993 391.634 179.638 391.358C178.928 390.779 177.981 390.556 177.061 390.45C176.127 390.345 175.18 390.345 174.247 390.292C173.313 390.24 172.379 390.148 171.498 389.832C170.63 389.53 169.815 388.964 169.342 388.188C168.382 386.61 168.5 384.874 168.316 383.401C168.211 381.888 167.698 380.547 166.87 379.521C165.213 377.43 162.741 376.746 160.913 377.035C159.059 377.298 157.796 378.179 157.086 378.85C156.337 379.573 156.087 380.047 156.047 380.021Z" fill="#FAFAFA"/>
<path d="M133.916 357.82C133.969 357.859 133.088 358.767 131.194 359.161C130.261 359.358 129.104 359.424 127.841 359.187C126.618 358.924 125.185 358.385 124.251 357.123C123.357 355.873 123.068 354.453 122.963 353.203C122.858 351.941 122.989 350.809 123.199 349.876C123.62 347.995 124.567 347.114 124.593 347.179C124.685 347.245 123.949 348.166 123.673 349.968C123.528 350.862 123.449 351.954 123.594 353.137C123.725 354.308 124.041 355.636 124.804 356.702C125.58 357.767 126.842 358.28 127.973 358.556C129.13 358.806 130.221 358.793 131.102 358.674C132.904 358.438 133.851 357.714 133.916 357.82Z" fill="#FAFAFA"/>
<path d="M190.525 354.466C190.551 354.479 190.512 354.597 190.433 354.834C190.354 355.071 190.196 355.4 189.92 355.781C189.394 356.544 188.316 357.517 186.646 357.964C185.831 358.175 184.858 358.24 183.871 358.03C182.859 357.82 181.925 357.188 181.071 356.531C180.203 355.886 179.335 355.123 178.296 354.834C177.27 354.518 176.139 354.966 175.495 355.939C174.811 356.899 174.43 358.069 173.878 359.135C173.352 360.24 172.51 361.173 171.55 361.778C169.63 363.041 167.355 363.067 165.791 362.41C164.2 361.765 163.253 360.674 162.766 359.884C162.28 359.082 162.201 358.556 162.227 358.543C162.28 358.517 162.451 359.003 162.99 359.727C163.516 360.437 164.463 361.397 165.962 361.949C167.421 362.502 169.473 362.423 171.195 361.252C172.063 360.674 172.773 359.858 173.26 358.832C173.786 357.806 174.154 356.623 174.917 355.531C175.298 354.992 175.824 354.492 176.481 354.255C177.126 354.005 177.836 353.992 178.454 354.176C179.703 354.558 180.571 355.373 181.426 356.018C182.267 356.688 183.082 357.254 183.977 357.464C184.858 357.688 185.739 357.649 186.501 357.478C188.053 357.122 189.105 356.281 189.67 355.597C190.288 354.913 190.473 354.426 190.525 354.466Z" fill="#FAFAFA"/>
<path d="M199.901 406.102C199.875 406.141 199.349 405.812 198.442 405.155C197.548 404.484 196.259 403.471 194.852 402.037C194.155 401.314 193.419 400.472 192.761 399.46C192.117 398.434 191.617 397.197 191.446 395.843C191.275 394.488 191.393 392.976 192.117 391.621C192.472 390.95 192.985 390.332 193.603 389.845C194.221 389.359 194.891 388.99 195.549 388.609C196.193 388.228 196.824 387.846 197.298 387.346C197.784 386.86 198.113 386.255 198.31 385.61C198.692 384.308 198.586 382.927 198.442 381.638C198.284 380.336 198.1 379.061 198.166 377.851C198.258 376.667 198.547 375.444 199.388 374.707C200.98 373.326 202.676 372.945 203.82 372.932C205.017 372.918 205.49 373.55 205.45 373.537C205.411 373.589 204.938 373.103 203.833 373.195C202.781 373.274 201.137 373.747 199.73 375.049C199.047 375.68 198.797 376.759 198.744 377.877C198.692 379.008 198.889 380.244 199.073 381.559C199.244 382.875 199.375 384.335 198.955 385.808C198.744 386.544 198.35 387.254 197.797 387.833C197.245 388.412 196.561 388.82 195.904 389.214C194.563 389.964 193.34 390.713 192.722 391.95C192.077 393.147 191.946 394.528 192.09 395.777C192.353 398.355 193.905 400.262 195.207 401.722C197.916 404.589 199.98 405.996 199.901 406.102Z" fill="#FAFAFA"/>
<path d="M172.406 432.195C172.406 432.169 172.616 432.156 173.024 432.156C173.431 432.156 174.023 432.169 174.786 432.261C176.298 432.432 178.547 432.787 181.019 434.076C183.451 435.326 186.094 437.851 186.91 441.534C187.304 443.335 187.146 445.453 186.094 447.228C185.069 448.991 183.32 450.464 181.15 450.924C180.072 451.148 178.928 451.016 177.955 450.753C176.982 450.503 176.061 450.359 175.22 450.701C174.378 451.016 173.668 451.634 173.103 452.332C172.524 453.029 172.077 453.818 171.63 454.607C170.775 456.172 169.749 457.75 168.198 458.526C166.699 459.302 165.055 459.407 163.687 459.066C162.294 458.724 161.228 457.895 160.545 457.014C159.848 456.133 159.506 455.212 159.335 454.462C159.164 453.699 159.19 453.081 159.243 452.687C159.295 452.279 159.361 452.082 159.374 452.082C159.453 452.082 159.217 452.937 159.598 454.396C159.795 455.107 160.163 455.962 160.847 456.777C161.518 457.579 162.517 458.316 163.806 458.592C165.068 458.881 166.593 458.75 167.935 458.026C169.302 457.316 170.236 455.883 171.078 454.304C171.932 452.766 172.958 450.898 174.983 450.069C175.995 449.649 177.153 449.833 178.113 450.083C179.099 450.346 180.032 450.438 181.005 450.253C182.938 449.846 184.569 448.504 185.503 446.887C186.476 445.269 186.634 443.349 186.279 441.652C185.542 438.193 183.083 435.747 180.769 434.484C178.415 433.182 176.219 432.761 174.733 432.511C173.247 432.274 172.392 432.248 172.406 432.195Z" fill="#FAFAFA"/>
<path d="M147.777 475.637C147.632 475.664 147.658 474.414 146.541 472.928C146.001 472.191 145.16 471.455 144.082 470.942C143.003 470.429 141.649 470.192 140.334 470.534C139.032 470.902 137.967 471.784 137.296 472.77C136.613 473.756 136.271 474.822 136.166 475.716C135.942 477.558 136.586 478.636 136.455 478.675C136.415 478.689 136.231 478.452 136.021 477.952C135.81 477.452 135.626 476.65 135.679 475.664C135.732 474.677 136.047 473.507 136.77 472.402C137.481 471.297 138.651 470.284 140.15 469.863C141.662 469.469 143.187 469.771 144.345 470.363C145.515 470.955 146.396 471.81 146.922 472.639C147.461 473.467 147.711 474.243 147.764 474.782C147.856 475.335 147.816 475.637 147.777 475.637Z" fill="#FAFAFA"/>
<path d="M151.996 494.774C151.931 494.787 151.878 494.156 151.405 493.156C150.944 492.183 149.998 490.789 148.249 489.921C146.552 489.039 143.962 489 141.832 490.407C140.753 491.078 140.017 492.209 139.175 493.406C138.742 493.998 138.294 494.616 137.676 495.116C137.072 495.629 136.243 495.984 135.388 495.971C133.626 495.892 132.377 494.695 131.443 493.603C130.51 492.485 129.721 491.341 128.656 490.697C127.604 490.026 126.355 489.908 125.25 490.079C124.132 490.249 123.146 490.71 122.37 491.275C120.792 492.433 119.924 493.827 119.333 494.761C118.767 495.721 118.478 496.273 118.438 496.247C118.399 496.234 118.596 495.642 119.109 494.629C119.635 493.643 120.45 492.157 122.094 490.881C122.909 490.25 123.961 489.723 125.171 489.513C126.368 489.303 127.788 489.395 128.998 490.144C130.221 490.881 131.049 492.091 131.969 493.156C132.851 494.195 134.034 495.234 135.415 495.274C136.822 495.313 137.847 494.143 138.65 492.998C139.465 491.854 140.293 490.605 141.503 489.868C143.857 488.356 146.671 488.461 148.485 489.487C150.34 490.486 151.26 491.999 151.668 493.051C151.878 493.577 151.957 494.024 152.01 494.314C152.023 494.616 152.023 494.774 151.996 494.774Z" fill="#FAFAFA"/>
<path d="M162.082 447.058C162.003 447.176 160.794 446.005 158.295 445.387C157.059 445.085 155.534 444.927 153.864 445.15C152.207 445.361 150.405 445.953 148.867 447.097C147.315 448.228 146.276 449.82 145.711 451.372C145.159 452.937 145.067 454.489 145.238 455.738C145.593 458.276 146.776 459.526 146.632 459.605C146.605 459.631 146.303 459.342 145.895 458.724C145.474 458.119 145.014 457.119 144.764 455.804C144.528 454.489 144.567 452.845 145.119 451.161C145.685 449.491 146.789 447.755 148.459 446.545C150.116 445.308 152.036 444.716 153.785 444.519C155.547 444.322 157.138 444.532 158.414 444.914C159.689 445.295 160.636 445.821 161.228 446.268C161.833 446.716 162.109 447.031 162.082 447.058Z" fill="#FAFAFA"/>
</g>
<defs>
<clipPath id="clip0_348_10246">
<rect width="693" height="550" fill="white"/>
</clipPath>
</defs>
</svg>
