<svg width="382" height="317" viewBox="0 0 382 317" fill="none" xmlns="http://www.w3.org/2000/svg">
<path d="M364.231 316.771H93.5241C84.1421 316.771 76.5479 307.981 76.5479 297.147V74.9583C76.5479 64.1245 84.1556 55.3337 93.5241 55.3337H364.231C373.613 55.3337 381.207 64.1245 381.207 74.9583V297.147C381.22 307.981 373.613 316.771 364.231 316.771Z" fill="white"/>
<path d="M381.623 101.048H77.7979V71.4501C77.7979 62.5115 85.0427 55.2665 93.9811 55.2665H363.787C373.639 55.2665 381.623 63.2508 381.623 73.1034V101.048Z" fill="#E0E0E0"/>
<path d="M101.064 76.7461C101.064 79.6091 98.766 81.9211 95.9434 81.9211C93.1073 81.9211 90.8223 79.5957 90.8223 76.7461C90.8223 73.883 93.1207 71.5711 95.9434 71.5711C98.7795 71.5711 101.064 73.883 101.064 76.7461Z" fill="white"/>
<path d="M116.508 76.7461C116.508 79.6091 114.21 81.9211 111.387 81.9211C108.565 81.9211 106.266 79.5957 106.266 76.7461C106.266 73.883 108.565 71.5711 111.387 71.5711C114.21 71.5711 116.508 73.883 116.508 76.7461Z" fill="white"/>
<path d="M131.939 76.7461C131.939 79.6091 129.641 81.9211 126.818 81.9211C123.982 81.9211 121.697 79.5957 121.697 76.7461C121.697 73.883 123.995 71.5711 126.818 71.5711C129.654 71.5711 131.939 73.883 131.939 76.7461Z" fill="white"/>
<path d="M364.634 316.704C364.634 316.704 364.876 316.677 365.346 316.651C365.817 316.624 366.529 316.583 367.443 316.382C369.244 316.005 372.027 315.172 374.769 312.712C377.524 310.346 380.226 306.368 381.167 301.045C381.677 298.397 381.462 295.48 381.503 292.375C381.503 289.27 381.489 285.964 381.489 282.455C381.462 254.403 381.422 213.823 381.382 163.686C381.368 138.617 381.355 111.156 381.341 81.6657C381.341 79.8242 381.341 77.9693 381.341 76.1143C381.368 74.2459 381.261 72.4179 380.911 70.6033C380.199 66.9875 378.559 63.4927 376.005 60.7641C373.518 57.9817 370.01 56.1268 366.287 55.6698C364.432 55.5085 362.483 55.6025 360.561 55.5757C358.639 55.5757 356.703 55.5757 354.755 55.5757C339.216 55.5757 323.235 55.5891 306.837 55.5891C241.257 55.6025 169.158 55.6025 93.4839 55.616C92.2876 55.616 91.1316 55.6025 89.9891 55.7638C89.4246 55.8579 88.8466 55.9386 88.309 56.1402C88.0402 56.2209 87.7579 56.3015 87.4891 56.3956L86.696 56.7316C84.5723 57.6457 82.7174 59.1242 81.2658 60.9388C79.8007 62.74 78.7254 64.8503 78.0668 67.0816C77.3813 69.3263 77.2468 71.6383 77.2872 74.004C77.2872 83.4534 77.2872 92.8356 77.2872 102.151C77.2872 120.781 77.2872 139.142 77.2872 157.18C77.2737 193.257 77.2737 228.057 77.2737 261.218C77.2737 269.511 77.2737 277.697 77.2603 285.762C77.2737 289.794 77.2334 293.827 77.2872 297.779C77.3141 299.741 77.677 301.69 78.2281 303.545C78.7792 305.413 79.6125 307.188 80.6878 308.787C81.7497 310.387 83.0266 311.852 84.532 313.021C86.0374 314.191 87.7176 315.105 89.5052 315.683C90.3924 315.992 91.3198 316.14 92.2473 316.301C93.1747 316.355 94.1022 316.422 95.0699 316.395C96.9651 316.395 98.8603 316.395 100.742 316.395C108.283 316.395 115.689 316.395 122.987 316.409C152.155 316.422 179.32 316.435 204.119 316.449C253.717 316.489 293.852 316.53 321.595 316.556C335.453 316.583 346.219 316.61 353.531 316.624C357.174 316.637 359.956 316.651 361.838 316.664C363.68 316.677 364.634 316.704 364.634 316.704C364.634 316.704 363.68 316.731 361.798 316.745C359.916 316.758 357.134 316.758 353.491 316.785C346.179 316.798 335.413 316.825 321.555 316.852C293.812 316.879 253.676 316.919 204.078 316.96C179.279 316.973 152.115 316.987 122.947 317C115.662 317 108.242 317 100.702 317.013C98.82 317.013 96.9248 317.013 95.0296 317.013C94.0887 317.04 93.1209 316.973 92.1397 316.906C91.1854 316.745 90.2176 316.583 89.2902 316.274C87.4353 315.683 85.6879 314.728 84.1288 313.519C82.583 312.295 81.2658 310.79 80.1636 309.137C79.0614 307.483 78.2012 305.655 77.6366 303.747C77.0587 301.838 76.6823 299.835 76.6554 297.819C76.5882 293.813 76.642 289.821 76.6151 285.775C76.6151 277.697 76.6151 269.511 76.6151 261.231C76.6151 228.084 76.6017 193.271 76.6017 157.194C76.6017 139.155 76.6017 120.794 76.6017 102.164C76.6017 92.849 76.6017 83.4668 76.6017 74.0174C76.5613 71.6652 76.6958 69.2054 77.4081 66.9069C78.0936 64.5949 79.2093 62.404 80.7281 60.5356C82.2335 58.6538 84.1825 57.0946 86.4003 56.1402L87.2337 55.7907C87.516 55.6966 87.8117 55.616 88.1074 55.5219C88.6853 55.3203 89.2768 55.2396 89.8816 55.1321C91.0913 54.9574 92.301 54.9708 93.4704 54.9708C169.145 54.9842 241.243 54.9842 306.823 54.9977C323.221 54.9977 339.203 55.0111 354.741 55.0111C356.677 55.0111 358.612 55.0111 360.548 55.0111C362.483 55.038 364.378 54.9439 366.341 55.1187C370.212 55.6025 373.854 57.5381 376.422 60.4012C379.056 63.2239 380.736 66.8128 381.476 70.5361C381.839 72.391 381.946 74.3132 381.906 76.1546C381.906 78.0096 381.906 79.8645 381.906 81.706C381.892 111.183 381.879 138.644 381.866 163.726C381.825 213.863 381.785 254.443 381.758 282.496C381.758 286.004 381.745 289.31 381.745 292.415C381.691 295.507 381.892 298.451 381.382 301.126C380.414 306.489 377.672 310.494 374.876 312.86C372.094 315.32 369.271 316.126 367.47 316.489C366.543 316.677 365.844 316.704 365.36 316.718C364.876 316.704 364.634 316.704 364.634 316.704Z" fill="#263238"/>
<path d="M46.5203 243.865C40.9959 243.26 34.813 242.83 34.813 242.83L29.3289 242.144C29.3962 242.507 29.5306 242.856 29.665 243.206C29.9204 243.851 30.2026 244.537 30.0951 245.236C29.9204 246.553 28.4956 247.333 27.1784 247.574C24.4363 248.085 21.4524 247.01 19.6781 244.873C17.9711 242.83 17.4603 239.886 18.3071 237.359C18.0249 236.714 17.8367 235.988 17.8098 235.141C17.6754 229.953 23.818 225.598 23.818 225.598L21.9363 225.087C21.9363 225.087 15.9549 225.907 12.8097 235.45C12.3392 236.875 11.3983 238.139 10.0945 238.891C9.30151 239.348 8.37407 239.617 7.44662 239.281C5.14817 238.461 5.13473 236.62 7.0165 230.638C8.89827 224.657 12.7021 219.495 16.6807 218.111C20.6594 216.713 22.3126 216.43 22.3126 216.43C22.3126 216.43 5.59173 210.879 4.54331 210.489C1.51904 209.347 -0.497148 207.048 0.0808249 204.965C0.443738 203.634 1.90883 202.209 5.47076 203.432C8.5488 204.481 41.4933 211.296 41.4933 211.296L55.8888 215.153L67.2467 220.261L59.2895 240.155L57.9857 241.028C54.6254 243.3 50.5527 244.308 46.5203 243.865Z" fill="#AE7461"/>
<path d="M53.8051 217.492C53.6707 219.401 51.7755 220.745 49.8937 221.162C48.012 221.579 46.063 221.337 44.1543 221.619C38.4687 222.452 34.0869 227.641 28.3609 228.192C27.5679 228.272 26.5598 228.111 26.3178 227.358C26.0893 226.659 26.7076 225.987 27.2587 225.49C31.9766 221.269 36.7079 217.049 41.4258 212.815" fill="#AE7461"/>
<path d="M41.4259 212.815C41.3721 212.761 40.7807 213.191 39.7592 214.024C38.7242 214.858 37.2591 216.094 35.4714 217.64C33.6165 219.253 31.5063 221.095 29.1944 223.097C28.603 223.622 27.9981 224.146 27.3932 224.684C26.8556 225.235 25.9147 225.705 25.7534 227.009C25.6996 227.668 26.2104 228.299 26.7346 228.501C27.2588 228.729 27.7696 228.756 28.2669 228.729C29.2078 228.635 30.1218 228.461 31.0089 228.151C34.5977 226.955 37.3398 224.764 40.1087 223.447C41.4797 222.761 42.8507 222.264 44.1679 222.062C45.4851 221.847 46.7889 221.874 47.9852 221.78C50.4181 221.7 52.3805 220.638 53.1735 219.482C54.0069 218.326 53.8321 217.465 53.7918 217.492C53.6843 217.465 53.6977 218.272 52.8509 219.213C52.0176 220.167 50.2837 221.014 47.9449 221.014C46.7889 221.068 45.4717 220.987 44.0335 221.175C42.5953 221.363 41.1167 221.874 39.6785 222.56C36.7752 223.89 33.9929 226.041 30.6729 227.13C29.853 227.412 28.9928 227.56 28.1997 227.654C27.4067 227.721 26.7346 227.439 26.8018 227.022C26.8018 226.552 27.4604 225.974 28.0653 225.436C28.6702 224.885 29.2616 224.348 29.8395 223.823C32.0842 221.753 34.1407 219.858 35.9553 218.191C37.6892 216.578 39.0737 215.261 40.0146 214.334C40.9823 213.406 41.4797 212.868 41.4259 212.815Z" fill="#6F4439"/>
<path d="M24.006 225.409C23.9925 225.544 22.5946 224.818 20.4172 225.409C19.3553 225.692 18.2128 226.431 17.2988 227.573C16.3714 228.716 15.6859 230.208 15.081 231.834C14.4627 233.461 13.8847 235.06 13.0245 236.378C12.1777 237.682 11.1562 238.717 10.054 239.268C8.9518 239.832 7.83618 239.671 7.2582 239.362C6.66679 239.053 6.43829 238.757 6.45173 238.743C6.49205 238.69 6.77432 238.905 7.36573 239.12C7.94371 239.321 8.87115 239.389 9.82548 238.837C10.7664 238.3 11.7073 237.305 12.4734 236.042C13.2396 234.778 13.8041 233.232 14.4224 231.579C15.0407 229.939 15.7799 228.367 16.8015 227.157C17.7961 225.934 19.1134 225.154 20.2962 224.912C21.479 224.643 22.4602 224.791 23.092 224.966C23.7237 225.167 24.0194 225.369 24.006 225.409Z" fill="#6F4439"/>
<path d="M3.40089 210.032C3.44121 209.938 4.70469 210.382 6.73432 211.121C9.00588 211.928 11.6941 212.868 14.6915 213.93C17.6889 214.938 20.404 215.852 22.6891 216.619C24.7321 217.291 26.009 217.721 25.9822 217.815C25.9553 217.909 24.638 217.64 22.5412 217.089C20.4444 216.538 17.5814 215.664 14.463 214.589C11.3447 213.514 8.54888 212.438 6.55958 211.578C4.55684 210.731 3.36057 210.113 3.40089 210.032Z" fill="#6F4439"/>
<path d="M26.4523 230.437C26.4926 230.477 26.2104 230.759 25.7399 231.27C25.3098 231.767 24.584 232.627 24.7184 233.783C24.7856 234.348 25.1754 234.832 25.8071 235.114C26.4254 235.41 27.1916 235.531 28.0115 235.692C28.818 235.853 29.8261 236.122 30.4847 236.969C31.103 237.802 31.2508 238.932 30.9148 239.953C30.5788 240.988 29.7589 241.754 28.8717 242.171C27.9712 242.588 27.0303 242.749 26.1297 242.601C24.4092 242.279 23.0248 241.66 21.8823 241.082C20.7532 240.477 19.9064 239.846 19.436 239.308C18.9521 238.757 18.8311 238.367 18.858 238.354C18.9118 238.327 19.1134 238.649 19.6242 239.12C20.1349 239.577 20.9817 240.128 22.1108 240.652C23.2264 241.163 24.6512 241.714 26.2238 241.983C27.7023 242.184 29.6916 241.418 30.2427 239.752C30.5116 238.945 30.3906 238.018 29.9201 237.399C29.4497 236.767 28.6432 236.499 27.8502 236.337C27.0572 236.163 26.2238 236.028 25.5114 235.652C24.7856 235.316 24.2345 234.59 24.2076 233.864C24.127 232.426 25.0275 231.566 25.5249 231.109C26.0894 230.611 26.4254 230.41 26.4523 230.437Z" fill="#6F4439"/>
<path d="M28.4823 241.714C28.4823 241.687 28.8721 241.714 29.3963 242.131C29.8936 242.534 30.5119 243.408 30.4313 244.644C30.3506 245.854 29.4904 247.212 28.0253 247.897C26.5871 248.583 24.7457 248.596 23.0655 248.018C21.3719 247.44 19.9875 246.338 19.1138 245.088C18.2267 243.824 17.8503 242.453 17.7697 241.311C17.6756 240.168 17.8637 239.241 18.0519 238.636C18.2401 238.031 18.4283 237.722 18.4686 237.735C18.603 237.762 17.9847 239.093 18.267 241.257C18.4148 242.319 18.8046 243.582 19.6514 244.711C20.4848 245.841 21.7617 246.835 23.3074 247.359C24.8397 247.884 26.5065 247.884 27.7699 247.306C29.0334 246.755 29.8264 245.599 29.9474 244.59C30.0684 243.569 29.6114 242.736 29.2081 242.319C28.7915 241.902 28.4554 241.781 28.4823 241.714Z" fill="#6F4439"/>
<path d="M43.6303 234.093C43.5631 234.079 43.6572 233.434 44.2083 232.52C44.746 231.606 45.8347 230.423 47.5149 229.778L47.488 230.396C46.8159 230.087 46.1035 229.711 45.3912 229.267C41.4394 226.848 39.4636 223.541 39.6249 223.474C39.7862 223.339 41.9502 226.35 45.7541 228.676C46.4396 229.106 47.1251 229.469 47.7702 229.791L48.4826 230.141L47.7434 230.41C46.2111 230.947 45.1492 231.969 44.5578 232.762C43.9395 233.542 43.711 234.119 43.6303 234.093Z" fill="#6F4439"/>
<path d="M15.135 224.724C15.2694 224.589 16.2372 225.638 16.3582 227.318C16.4926 228.985 15.6861 230.181 15.5383 230.074C15.3501 229.993 15.7936 228.837 15.6592 227.372C15.5651 225.92 14.9603 224.845 15.135 224.724Z" fill="#6F4439"/>
<path d="M191.887 192.867C191.887 192.867 156.241 253.744 144.359 259.672C132.491 265.6 89.5593 256.943 79.586 254.672C68.255 252.091 53.8057 247.574 53.8057 247.574L58.0397 213.769L67.3813 213.971C67.3813 213.971 120.313 219.334 123.377 216.914C126.442 214.495 146.819 175.514 146.819 175.514C146.819 175.514 159.615 149.666 164.199 143.752C170.933 135.069 176.538 135.069 176.538 135.069L191.887 192.867Z" fill="#FFC727"/>
<path d="M149.063 316.314C150.004 268.006 154.332 169.829 154.332 169.829L176.537 135.055C176.537 135.055 183.392 133.039 191.887 132.098C200.382 131.157 201.834 130.351 201.834 130.351L208.017 120.606L258.959 117.635L266.741 132.071C266.741 132.071 298.638 148.685 302.885 151.037C307.132 153.376 279.443 267.912 279.443 267.912L284.78 316.301L149.063 316.314Z" fill="#FFC727"/>
<path d="M193.379 316.314C193.581 307.833 194.024 297.752 194.602 286.555C195.274 275.372 196.161 263.073 197.425 250.196C198.742 237.319 200.315 225.087 202.048 214.011C203.877 202.949 205.704 193.015 207.68 184.749C208.151 182.679 208.608 180.716 209.038 178.848C209.522 177.006 209.992 175.259 210.422 173.633C211.269 170.366 212.008 167.557 212.734 165.299C213.393 163.081 213.917 161.32 214.293 160.057C214.455 159.492 214.576 159.049 214.683 158.686C214.764 158.376 214.804 158.215 214.777 158.202C214.764 158.202 214.697 158.35 214.589 158.645C214.468 158.995 214.307 159.438 214.119 159.989C213.702 161.253 213.111 162.987 212.371 165.191C211.578 167.436 210.785 170.245 209.885 173.498C209.428 175.125 208.944 176.872 208.42 178.714C207.976 180.582 207.492 182.544 206.995 184.614C204.938 192.867 203.03 202.814 201.148 213.89C199.36 224.979 197.761 237.225 196.443 250.115C195.167 263.005 194.32 275.318 193.688 286.515C193.15 297.725 192.774 307.819 192.667 316.301" fill="#263238"/>
<path d="M154.332 169.829C154.265 169.829 154.158 170.998 154.023 173.122C153.889 175.246 153.741 178.324 153.58 182.128C153.271 189.736 153.015 200.26 152.706 211.874C152.397 223.487 152.007 233.999 151.631 241.606C151.442 245.289 151.295 248.327 151.174 250.612C151.066 252.736 151.039 253.919 151.106 253.919C151.174 253.919 151.335 252.749 151.55 250.639C151.779 248.515 152.034 245.451 152.316 241.647C152.867 234.052 153.365 223.528 153.674 211.901C153.983 200.287 154.131 189.762 154.265 182.155C154.319 178.472 154.359 175.42 154.386 173.135C154.426 171.012 154.4 169.829 154.332 169.829Z" fill="#263238"/>
<g opacity="0.3">
<path d="M156.106 252.655C156.483 249.631 158.902 247.158 161.698 245.894C164.494 244.631 167.626 244.375 170.704 244.228C210.476 242.305 250.8 256.177 280.814 282.106L282.373 292.899C272.682 296.999 261.445 294.19 251.835 289.902C242.224 285.614 233.098 279.861 222.748 277.872C213.783 276.151 204.132 277.307 195.852 273.476C190.637 271.057 186.349 266.796 180.865 265.035C175.973 263.462 170.636 264.04 165.623 262.898C160.636 261.755 155.475 257.709 156.106 252.655Z" fill="black"/>
</g>
<path d="M302.885 151.051C302.885 151.051 318.651 158.323 323.114 178.189C325.789 190.112 333.585 222.896 333.585 222.896C333.585 222.896 342.039 262.011 340.829 269.592C339.62 277.173 337.079 294.109 320.573 296.098C304.068 298.088 246.647 277.173 246.647 277.173L230.947 270.788L236.982 242.05L263.945 248.838L290.344 250.935L286.782 227.049L280.922 211.699C280.922 211.699 281.244 194.964 287.696 180.999C294.148 167.019 302.885 151.051 302.885 151.051Z" fill="#FFC727"/>
<path d="M204.468 228.353L183.634 186.241C182.223 183.378 179.279 181.563 176.08 181.563H123.713C121.764 181.563 120.528 183.62 121.442 185.313L156.886 250.921C157.881 252.763 159.816 253.905 161.913 253.905H216.216L204.468 228.353Z" fill="#455A64"/>
<path d="M121.791 185.636C121.791 185.676 122.154 185.703 122.839 185.717C123.632 185.73 124.627 185.743 125.837 185.77C128.579 185.77 132.315 185.77 136.859 185.77C146.294 185.69 159.077 185.582 173.204 185.461C174.938 185.528 176.645 185.811 178.043 186.617C179.454 187.41 180.449 188.741 181.255 190.139C182.774 193.015 184.051 196.013 185.381 198.755C187.976 204.252 190.328 209.226 192.331 213.433C194.293 217.506 195.906 220.839 197.089 223.299C197.626 224.374 198.07 225.248 198.433 225.961C198.756 226.565 198.93 226.875 198.957 226.861C198.984 226.848 198.863 226.512 198.608 225.88C198.299 225.154 197.909 224.253 197.438 223.138C196.323 220.651 194.804 217.264 192.962 213.151C191.027 208.903 188.742 203.903 186.201 198.378C184.884 195.61 183.661 192.679 182.088 189.668C181.255 188.203 180.153 186.698 178.526 185.77C176.914 184.829 175.045 184.547 173.244 184.48C158.983 184.574 146.16 184.883 136.845 185.071C132.302 185.192 128.565 185.3 125.823 185.381C124.614 185.434 123.619 185.475 122.826 185.515C122.14 185.569 121.791 185.609 121.791 185.636Z" fill="#263238"/>
<path d="M154.05 194.857C152.787 195.515 152.733 196.55 153.271 197.464C153.808 198.378 155.018 198.782 156.039 198.513C156.725 198.325 157.357 197.814 157.478 197.128C157.612 196.443 156.98 194.964 155.878 194.736C155.878 194.736 154.682 194.534 154.05 194.857Z" fill="white"/>
<path d="M236.458 244.59L232.843 240.907C232.843 240.907 227.547 233.259 225.369 230.867C223.205 228.474 210.194 220.113 210.194 220.113C210.194 220.113 203.93 211.686 202.963 211.686C201.995 211.686 198.944 212.223 199.777 216.148C200.57 219.925 202.008 224.993 203.218 227.453L175.422 228.057C173.674 228.098 171.981 228.837 170.892 230.208C170.166 231.122 169.857 232.144 171.161 232.789C174.051 234.227 185.865 237.09 185.865 237.09L180.596 235.746C180.596 235.746 179.467 240.746 182.801 243.125C186.121 245.491 186.349 245.935 186.349 245.935C186.349 245.935 186.511 250.666 187.962 252.575C189.414 254.483 205.06 262.481 205.06 262.481C205.06 262.481 215.06 265.411 220.127 265.169C225.181 264.928 230.396 267.777 230.961 267.925C231.525 268.073 236.458 244.59 236.458 244.59Z" fill="#AE7461"/>
<path d="M200.543 227.573C200.557 227.842 204.052 227.99 208.353 228.447C212.654 228.918 216.203 229.133 216.216 228.837C216.229 228.595 212.788 227.963 208.447 227.479C204.092 227.009 200.53 227.305 200.543 227.573Z" fill="#6F4439"/>
<path d="M204.253 239.805C204.334 239.51 199.266 238.139 192.895 237.413C189.723 237.009 186.847 236.727 184.763 236.499C182.68 236.284 181.403 236.109 181.376 236.243C181.349 236.364 182.599 236.781 184.656 237.184C186.726 237.587 189.602 237.977 192.774 238.38C199.118 239.106 204.186 240.034 204.253 239.805Z" fill="#6F4439"/>
<path d="M204.253 248.825C204.253 248.542 200.207 248.408 195.315 247.574C190.422 246.755 186.551 245.531 186.457 245.8C186.363 246.029 190.14 247.695 195.14 248.529C200.14 249.389 204.266 249.067 204.253 248.825Z" fill="#6F4439"/>
<path d="M202.573 258.933C202.842 258.973 203.245 257.898 203.473 256.513C203.702 255.129 203.675 253.973 203.406 253.932C203.137 253.892 202.734 254.967 202.506 256.352C202.277 257.723 202.304 258.879 202.573 258.933Z" fill="#6F4439"/>
<path d="M205.06 246.822C205.342 246.795 205.49 245.908 205.96 244.953C206.417 243.999 207.035 243.327 206.874 243.098C206.753 242.87 205.664 243.314 205.073 244.523C204.482 245.76 204.804 246.876 205.06 246.822Z" fill="#6F4439"/>
<path d="M208.232 234.711C208.501 234.738 208.796 234.16 209.132 233.515C209.455 232.856 209.751 232.278 209.562 232.076C209.388 231.875 208.675 232.238 208.245 233.071C207.829 233.904 207.963 234.697 208.232 234.711Z" fill="#6F4439"/>
<path d="M214.777 158.202C214.818 158.256 215.355 157.906 216.364 157.288C217.519 156.602 218.971 155.729 220.745 154.68C222.627 153.564 224.912 152.247 227.466 150.674C230.006 149.075 232.91 147.368 235.705 144.935L234.993 144.814C236.942 148.591 238.152 153.255 237.95 158.135V158.188L237.923 159.291L238.77 158.578C246.942 151.669 254.268 145.311 259.362 140.486C261.916 138.08 263.932 136.077 265.29 134.666C266.647 133.254 267.36 132.421 267.306 132.381C267.252 132.327 266.459 133.066 265.021 134.397C263.448 135.835 261.392 137.717 258.892 139.988C253.69 144.68 246.297 150.93 238.125 157.852L238.931 158.242V158.175C239.146 153.107 237.869 148.282 235.813 144.397L235.544 143.887L235.101 144.276C232.453 146.629 229.563 148.403 227.076 150.029C224.59 151.602 222.358 153.013 220.477 154.21C218.635 155.379 217.183 156.347 216.216 157.046C215.234 157.745 214.751 158.175 214.777 158.202Z" fill="#263238"/>
<path d="M201.834 130.364C201.78 130.337 201.377 131.05 200.758 132.381C200.154 133.711 199.334 135.674 198.393 138.12C197.465 140.566 196.377 143.497 195.382 146.83C195.127 147.664 194.898 148.524 194.71 149.438C194.629 149.908 194.522 150.338 194.576 150.984C194.629 151.333 195.059 151.602 195.382 151.521C195.543 151.508 195.745 151.36 195.799 151.279L195.906 151.145L196.336 150.594C197.506 149.102 198.702 147.556 199.925 145.983C201.538 143.887 203.097 141.87 204.562 139.975L203.756 139.908C206.659 145.352 209.294 150.002 211.296 153.242C212.291 154.868 213.124 156.132 213.743 156.979C214.348 157.825 214.724 158.256 214.764 158.229C214.818 158.188 214.536 157.704 214.012 156.804C213.407 155.742 212.681 154.452 211.821 152.933C209.979 149.626 207.452 144.922 204.603 139.464L204.267 138.806L203.81 139.397C202.345 141.279 200.785 143.282 199.172 145.352C197.949 146.924 196.766 148.47 195.61 149.962L195.18 150.513L195.073 150.648L195.248 150.822C195.248 150.822 195.248 150.822 195.234 150.836V150.849H195.248L195.503 150.782C195.49 150.5 195.543 150.029 195.624 149.613C195.799 148.752 196.014 147.906 196.256 147.072C197.197 143.766 198.205 140.822 199.051 138.362C199.871 136.05 200.57 134.101 201.121 132.528C201.619 131.144 201.901 130.391 201.834 130.364Z" fill="#263238"/>
<path d="M323.84 248.247C323.867 248.139 322.052 247.507 319.001 246.97C315.95 246.419 311.649 246.069 306.917 246.432C302.186 246.808 297.992 247.857 295.076 248.878C292.145 249.9 290.465 250.8 290.506 250.908C290.573 251.056 292.347 250.37 295.277 249.537C298.207 248.69 302.347 247.79 306.985 247.413C311.622 247.05 315.856 247.292 318.88 247.655C321.945 248.005 323.813 248.394 323.84 248.247Z" fill="#263238"/>
<path d="M307.186 241.109C307.172 240.867 302.602 241.485 297.696 244.187C292.777 246.849 289.793 250.343 289.994 250.491C290.21 250.706 293.395 247.615 298.167 245.047C302.912 242.426 307.253 241.405 307.186 241.109Z" fill="#263238"/>
<path d="M284.645 212.909C284.632 212.909 284.645 213.137 284.686 213.581C284.753 214.078 284.833 214.723 284.928 215.543C285.17 217.331 285.519 219.845 285.963 223.017C286.917 229.563 288.274 238.851 289.928 250.196V250.169C289.941 250.411 289.955 250.679 289.981 250.948L290.398 250.545C281.997 249.765 272.454 248.865 262.104 247.897L262.172 247.911C254.362 245.935 245.894 243.797 237.104 241.58L236.606 241.459L236.499 241.956C236.015 244.228 235.504 246.66 234.993 249.107C233.434 256.553 231.915 263.798 230.477 270.694L230.396 271.084L230.759 271.232C251.486 279.727 270.142 285.722 283.624 289.297C290.358 291.112 295.788 292.402 299.525 293.235C301.339 293.625 302.778 293.934 303.826 294.163C304.269 294.243 304.646 294.324 304.942 294.378C305.197 294.418 305.318 294.432 305.331 294.418C305.331 294.405 305.21 294.364 304.968 294.284C304.673 294.203 304.31 294.109 303.866 293.988C302.831 293.719 301.407 293.37 299.605 292.913C295.896 291.972 290.506 290.587 283.799 288.706C270.384 284.982 251.808 278.88 231.136 270.358L231.418 270.896C232.87 264 234.402 256.755 235.961 249.322C236.472 246.876 236.983 244.443 237.467 242.171L236.862 242.547C245.652 244.752 254.12 246.876 261.943 248.825L261.983 248.838H262.024C272.373 249.752 281.93 250.599 290.331 251.338L290.788 251.378L290.761 250.935C290.748 250.666 290.721 250.384 290.707 250.155V250.142V250.128C288.92 238.811 287.441 229.523 286.406 222.99C285.882 219.818 285.465 217.331 285.17 215.543C285.022 214.737 284.914 214.105 284.82 213.608C284.712 213.124 284.659 212.909 284.645 212.909Z" fill="#263238"/>
<path d="M282.764 184.682C282.925 184.708 283.221 182.827 283.987 179.883C284.753 176.939 286.07 172.934 288.14 168.794C290.223 164.654 292.656 161.199 294.565 158.82C296.474 156.441 297.804 155.083 297.697 154.962C297.616 154.882 296.111 156.078 294.041 158.376C291.971 160.662 289.39 164.129 287.266 168.35C285.143 172.584 283.906 176.697 283.315 179.722C282.696 182.759 282.643 184.668 282.764 184.682Z" fill="#263238"/>
<g opacity="0.3">
<path d="M281.795 194.427C284.08 206.712 285.707 220.57 287.669 232.91C287.199 233.488 287.454 235.329 286.997 235.907C284.712 229.59 281.701 221.982 280.411 215.395C279.107 208.796 280.021 200.905 281.795 194.427Z" fill="black"/>
</g>
<g opacity="0.3">
<path d="M233.179 155.056C227.52 155.836 221.861 156.602 216.216 157.382C222.963 153.578 229.509 149.599 235.41 144.599C237.534 149.545 238.716 151.36 238.367 158.511C246.593 151.656 254.375 143.846 262.602 136.991C254.093 149.465 243.797 160.191 231.848 169.479C232.937 164.761 233.394 159.895 233.179 155.056Z" fill="black"/>
</g>
<path d="M241.378 8.12705C239.765 4.76667 235.813 2.66979 232.09 3.22089C227.87 -0.32767 221.095 -0.435202 216.767 2.97895C213.568 0.949276 209.28 0.72077 205.866 2.40096C202.466 4.08115 200.06 7.61628 199.764 11.3799C195.987 10.6541 191.834 12.5493 189.938 15.8828C188.043 19.2163 188.554 23.7192 191.148 26.542C186.968 27.7382 184.078 32.3218 184.858 36.5828C185.624 40.8303 189.952 44.1369 194.293 43.8009L239.348 18.3829C242.131 15.8559 242.991 11.5009 241.378 8.12705Z" fill="#263238"/>
<path d="M188.554 92.5936C188.769 82.9023 190.866 62.9819 192.963 44.9837C195.221 25.6279 212.09 11.2455 231.727 11.9176L233.676 11.9848C254.671 13.9338 264.739 32.6982 262.199 53.4653L256.284 118.926L215.665 155.567L206.807 129.679L208.219 116.493C208.219 116.466 188.097 112.648 188.554 92.5936Z" fill="#AE7461"/>
<path d="M208.057 116.439C208.057 116.439 220.948 117.649 234.819 109.664C234.819 109.664 228.085 123.886 207.963 121.385L208.057 116.439Z" fill="#6F4439"/>
<path d="M195.235 35.8435C195.235 35.8435 201.014 23.4638 207.224 20.7487C214.738 17.4555 217.641 25.6145 224.751 23.9074C231.862 22.2003 239.039 19.0416 246.056 24.687C253.731 30.8701 249.887 34.8891 250.061 43.8009C250.774 79.9452 257.051 90.3758 259.537 73.4529C259.806 71.598 265.075 70.2941 266.124 62.4577C267.481 52.2959 268.315 39.9163 266.271 32.6041C264.551 26.4344 261.191 22.1062 255.061 17.2404C245.384 9.5653 231.754 8.93354 222.466 9.53841C213.179 10.1433 194.939 20.09 195.235 35.8435Z" fill="#263238"/>
<path d="M258.274 72.8615C258.515 69.7699 261.284 67.4176 264.389 67.8209C268.153 68.3048 272.266 70.5764 271.755 78.2918C270.828 91.9888 257.158 88.2386 257.158 87.8488C257.144 87.5934 257.83 78.601 258.274 72.8615Z" fill="#AE7461"/>
<path d="M260.505 82.9023C260.572 82.862 260.734 83.0905 261.123 83.2921C261.513 83.4937 262.185 83.6685 262.925 83.4534C264.417 83.0233 265.801 80.8054 266.043 78.3456C266.164 77.0955 265.976 75.8993 265.599 74.8911C265.25 73.8561 264.645 73.1169 263.919 72.9421C263.193 72.727 262.656 73.1303 262.454 73.5067C262.239 73.883 262.306 74.1519 262.239 74.1787C262.199 74.2056 261.957 73.9233 262.105 73.3722C262.185 73.1034 262.36 72.7943 262.709 72.5523C263.059 72.3104 263.556 72.2028 264.067 72.2969C265.129 72.4448 266.016 73.4798 266.433 74.582C266.903 75.6976 267.145 77.0552 267.011 78.4531C266.742 81.2087 265.142 83.6953 263.099 84.1389C262.105 84.3271 261.325 83.9776 260.922 83.6281C260.505 83.2383 260.451 82.9292 260.505 82.9023Z" fill="#6F4439"/>
<path d="M258.933 46.2876C257.091 47.4435 255.156 48.6264 252.978 48.7608C250.801 48.8952 248.381 47.5779 248.086 45.4407C247.951 44.4864 248.233 43.3842 247.629 42.618C246.903 41.7174 245.505 41.9459 244.335 42.0266C240.303 42.3089 236.284 39.3517 235.397 35.4402C234.322 36.9323 231.929 36.7844 230.41 35.736C228.891 34.6875 227.951 33.0342 226.781 31.6094C225.612 30.1846 223.959 28.8942 222.117 29.0958C221.096 29.2034 220.114 29.7814 219.093 29.6469C217.278 29.4184 216.472 27.2812 216.257 25.4935C216.042 23.6923 215.907 21.6089 214.402 20.5739C213.004 19.6196 211.149 20.0766 209.469 20.2648C207.789 20.4529 205.638 19.9825 205.275 18.3561C205.087 17.4958 205.477 16.6221 205.988 15.8963C208.259 12.6031 213.004 11.2724 216.673 12.8988C218.179 8.40933 222.588 5.0355 227.332 4.69946C232.09 4.36343 236.916 7.1055 239.053 11.3261C242.064 8.79913 246.352 7.84478 250.169 8.83946C253.986 9.84757 257.226 12.7778 258.583 16.4608C261.984 15.6946 265.761 17.1194 267.804 19.9153C269.833 22.7111 270.008 26.7301 268.207 29.6873C270.64 31.1793 272.683 33.7063 272.643 36.5425C272.589 39.3786 269.712 42.1072 266.97 41.2739C268.005 43.5186 266.997 46.4892 264.793 47.6452C262.589 48.8011 259.537 47.9812 258.247 45.8709" fill="#263238"/>
<path d="M267.965 41.2873C268.019 41.247 268.18 42.4433 267.011 43.895C266.433 44.5805 265.465 45.2794 264.188 45.4407C262.938 45.602 261.419 45.2526 260.29 44.1638L260.881 44.0966C260.156 45.2526 259.215 46.422 258.005 47.4167C257.225 48.0484 256.365 48.5861 255.438 48.8818C254.524 49.2044 253.489 49.2044 252.642 49.0431C250.895 48.7877 249.403 47.8065 248.731 46.637C248.032 45.4945 247.83 44.4461 247.709 43.7471C247.588 43.0347 247.588 42.6449 247.642 42.6315C247.696 42.618 247.803 43.0078 248.018 43.6799C248.233 44.3385 248.516 45.3332 249.201 46.3279C250.438 48.3441 254.672 49.4866 257.508 46.8118C258.637 45.8843 259.551 44.7821 260.25 43.6933L260.505 43.3035L260.841 43.6261C261.755 44.5402 263.059 44.8896 264.134 44.7956C265.236 44.7015 266.11 44.1504 266.688 43.5724C267.817 42.3626 267.844 41.247 267.965 41.2873Z" fill="#455A64"/>
<path d="M205.221 2.75044C205.154 2.61602 203.729 3.51661 202.614 5.78823C202.063 6.90387 201.525 8.32867 201.377 10.0089C201.189 11.6891 201.633 13.665 202.802 15.2645C203.998 16.864 205.625 17.8856 207.117 18.5846C208.622 19.297 210.02 19.754 211.203 20.1169C213.568 20.8293 215.02 21.2191 215.074 21.0981C215.128 20.9637 213.73 20.332 211.445 19.4583C210.302 19.0147 208.945 18.4905 207.533 17.7646C206.122 17.0522 204.657 16.0844 203.608 14.6731C202.587 13.2483 202.17 11.5681 202.291 10.0492C202.372 8.51686 202.802 7.14582 203.259 6.04361C204.146 3.8392 205.302 2.84453 205.221 2.75044Z" fill="#E0E0E0"/>
<path d="M196.444 11.7697C196.336 11.7697 196.242 12.6434 196.619 13.9741C196.982 15.3048 197.909 17.0522 199.482 18.5039C201.068 19.9422 202.896 20.7352 204.267 20.9772C205.638 21.246 206.498 21.0847 206.498 20.9772C206.498 20.8159 205.678 20.7218 204.442 20.3185C203.205 19.9153 201.592 19.1088 200.14 17.7915C198.702 16.4608 197.761 14.9285 197.264 13.7456C196.767 12.5628 196.605 11.7428 196.444 11.7697Z" fill="#E0E0E0"/>
</svg>
