<svg width="744" height="266" viewBox="0 0 744 266" fill="none" xmlns="http://www.w3.org/2000/svg">
<g clip-path="url(#clip0_364_14161)">
<path d="M154.114 192.856C153.925 192.775 153.737 192.721 153.548 192.64L150.499 191.453L151.12 189.861L154.168 191.048C155.976 191.75 157.81 192.478 159.671 193.18L159.051 194.799C157.405 194.124 155.76 193.477 154.114 192.856ZM139.898 187.109C137.038 185.922 134.206 184.708 131.454 183.521L132.129 181.956C134.88 183.143 137.686 184.357 140.545 185.544L139.898 187.109ZM169.841 198.765L170.435 197.146C173.267 198.171 176.154 199.196 179.067 200.249L178.501 201.868C175.56 200.842 172.674 199.817 169.841 198.765ZM189.345 205.618L189.885 203.999C192.744 204.97 195.63 205.942 198.571 206.886L198.031 208.532C195.091 207.533 192.205 206.589 189.345 205.618ZM120.961 178.853C118.128 177.558 115.35 176.236 112.652 174.941L113.407 173.403C116.105 174.698 118.884 175.993 121.689 177.288L120.961 178.853ZM208.957 212.039L209.469 210.393C212.356 211.311 215.269 212.201 218.209 213.118L217.697 214.764C214.756 213.847 211.843 212.929 208.957 212.039ZM102.374 169.815C99.5957 168.385 96.898 166.955 94.2544 165.525L95.0637 164.014C97.7073 165.444 100.405 166.874 103.156 168.277L102.374 169.815ZM228.703 218.056L229.189 216.41C232.075 217.273 235.016 218.137 237.983 218.973L237.497 220.619C234.557 219.783 231.617 218.919 228.703 218.056ZM84.2463 159.913C81.5487 158.348 78.932 156.756 76.3693 155.164L77.2864 153.707C79.8222 155.272 82.4389 156.864 85.1095 158.429L84.2463 159.913ZM248.558 223.776L249.016 222.13C251.93 222.939 254.87 223.749 257.864 224.558L257.406 226.231C254.411 225.394 251.471 224.585 248.558 223.776ZM268.466 229.199L268.897 227.526L271.217 228.146C273.402 228.713 275.588 229.28 277.773 229.819L277.368 231.492C275.156 230.952 272.971 230.386 270.786 229.819L268.466 229.199ZM66.7118 148.905C64.1491 147.178 61.6133 145.398 59.1855 143.617L60.2106 142.241C62.6384 143.995 65.1472 145.775 67.683 147.502L66.7118 148.905ZM288.59 234.055L288.941 232.382C291.935 233.03 294.929 233.623 297.924 234.217L297.6 235.917C294.579 235.296 291.584 234.703 288.59 234.055ZM308.93 237.913L309.2 236.214C312.221 236.726 315.215 237.185 318.237 237.644L317.994 239.343C314.973 238.885 311.951 238.426 308.93 237.913ZM50.0676 136.629C47.6128 134.632 45.2658 132.636 43.0538 130.666L44.1868 129.371C46.3719 131.314 48.7188 133.31 51.1466 135.28L50.0676 136.629ZM329.378 240.881L329.594 239.181C332.615 239.559 335.663 239.91 338.685 240.234L338.496 241.933C335.447 241.61 332.426 241.259 329.378 240.881ZM34.6643 122.761C32.4792 120.549 30.3481 118.282 28.3519 116.043L29.6467 114.91C31.616 117.122 33.7201 119.361 35.8782 121.547L34.6643 122.761ZM349.907 243.013L350.041 241.313C353.09 241.583 356.111 241.799 359.159 242.014L359.052 243.741C356.003 243.498 352.955 243.256 349.907 243.013ZM370.516 244.389L370.597 242.662C373.673 242.824 376.721 242.932 379.742 243.04L379.688 244.766C376.64 244.658 373.592 244.524 370.516 244.389ZM21.0683 107.139C19.207 104.657 17.4265 102.121 15.781 99.5847L17.2107 98.6404C18.8293 101.15 20.5827 103.659 22.4441 106.087L21.0683 107.139ZM391.18 245.063L391.207 243.336C394.282 243.39 397.331 243.417 400.379 243.444V245.171C397.331 245.144 394.255 245.117 391.18 245.063ZM9.95417 89.629C8.52444 86.9039 7.17563 84.098 5.98869 81.292L7.58028 80.6175C8.76722 83.3695 10.0891 86.1485 11.4918 88.8195L9.95417 89.629ZM411.844 245.117L411.817 243.39C414.892 243.363 417.94 243.282 420.989 243.229L421.043 244.955C417.994 245.009 414.946 245.063 411.844 245.117ZM432.534 244.551L432.453 242.824C435.529 242.689 438.577 242.554 441.598 242.392L441.679 244.119C438.658 244.281 435.61 244.443 432.534 244.551ZM1.96925 70.4459C0.998115 67.3431 0.350689 64.2674 0 61.3265L1.69949 61.1376C2.02321 63.9706 2.67063 66.9384 3.58782 69.9333L1.96925 70.4459ZM453.171 243.444L453.063 241.718C456.138 241.502 459.187 241.286 462.208 241.07L462.343 242.797C459.322 243.04 456.246 243.256 453.171 243.444ZM473.781 241.826L473.619 240.126C476.694 239.829 479.742 239.559 482.737 239.235L482.899 240.935C479.904 241.232 476.856 241.529 473.781 241.826ZM0.377665 49.671C0.782306 47.6204 1.37578 45.5699 2.13111 43.6273C2.50877 42.683 2.91342 41.7387 3.37201 40.8214L4.90965 41.5768C4.47803 42.4402 4.07339 43.3575 3.7227 44.2479C2.99434 46.1095 2.42785 48.0521 2.05018 49.9947L0.377665 49.671ZM494.336 239.694L494.148 237.994C497.25 237.644 500.271 237.266 503.266 236.888L503.481 238.588C500.487 238.966 497.439 239.343 494.336 239.694ZM514.865 237.077L514.622 235.377C517.725 234.946 520.746 234.514 523.713 234.055L523.956 235.755C521.016 236.214 517.968 236.645 514.865 237.077ZM11.303 32.4305L10.0351 31.2703C12.0313 29.1119 14.3513 27.0074 16.941 25.0378L17.993 26.4138C15.4843 28.3025 13.2453 30.326 11.303 32.4305ZM535.313 233.974L535.043 232.274C538.173 231.762 541.194 231.249 544.08 230.737L544.377 232.436C541.491 232.949 538.469 233.462 535.313 233.974ZM555.68 230.413L555.356 228.713C558.594 228.092 561.615 227.499 564.366 226.959L564.717 228.659C561.966 229.199 558.944 229.792 555.68 230.413ZM27.5156 20.2623L26.7063 18.7514C29.296 17.3484 32.0745 15.9994 35.0419 14.7043L35.7163 16.2962C32.8029 17.5643 30.0513 18.8863 27.5156 20.2623ZM575.993 226.258L575.615 224.585C581.415 223.317 584.571 222.508 584.571 222.508L585.003 224.18C585.003 224.18 581.82 224.99 575.993 226.258ZM46.3449 12.2761L45.8054 10.6573C48.6109 9.71295 51.5782 8.8226 54.6535 8.01319L55.1121 9.68597C52.0638 10.4684 49.1234 11.3588 46.3449 12.2761ZM66.1993 6.98793L65.8486 5.31514C68.789 4.69459 71.8373 4.12801 74.9126 3.61538L75.2093 5.31514C72.161 5.80079 69.1397 6.36738 66.1993 6.98793ZM86.5123 3.66934L86.2964 1.96957C89.3447 1.59185 92.42 1.26808 95.4683 1.02526L95.6302 2.69804C92.6088 2.96785 89.5336 3.29161 86.5123 3.66934ZM107.041 1.96957L106.96 0.242824C110.062 0.107922 113.165 0.0269804 116.186 0V1.72675C113.192 1.75373 110.116 1.80769 107.041 1.96957Z" fill="#FFC727"/>
<path d="M611.709 191.048L584.787 223.344L621.178 211.392L744 211.176L611.709 191.048Z" fill="#D69F13"/>
<path d="M621.718 221.374L584.787 223.344L621.178 211.392L621.718 221.374Z" fill="#FFC727"/>
<path d="M621.178 211.392L744 211.176L623.579 266L621.178 211.392Z" fill="#FFC727"/>
<path d="M611.709 191.048L577.099 145.64L744 211.176L611.709 191.048Z" fill="#FFC727"/>
</g>
<defs>
<clipPath id="clip0_364_14161">
<rect width="744" height="266" fill="white"/>
</clipPath>
</defs>
</svg>
