<svg width="160" height="160" viewBox="0 0 160 160" fill="none" xmlns="http://www.w3.org/2000/svg">
<g clip-path="url(#clip0_364_14245)">
<g opacity="0.7">
<path d="M36.0778 42.7798C31.9434 53.3115 29.5934 64.1697 28.9188 75.4413C28.7665 75.4413 28.6359 75.463 28.5054 75.463C19.1269 75.463 9.72664 75.463 0.348157 75.463C0.217598 75.463 0.108799 75.4413 0 75.4413V74.6362C0.0870393 73.8963 0.152319 73.1565 0.239358 72.4167C0.587515 68.5652 1.24031 64.779 2.15422 61.0145C3.63389 54.8347 5.80987 48.9161 8.57337 43.1932C8.72569 42.8668 8.92153 42.7798 9.26969 42.7798C18.0389 42.7798 26.8081 42.7798 35.5773 42.7798H36.0778Z" fill="#FFC727"/>
<path d="M35.2074 115.741H34.7504C26.0465 115.741 17.3426 115.741 8.63862 115.741C8.29046 115.741 8.13814 115.632 7.98583 115.327C4.89593 108.908 2.71995 102.206 1.3926 95.221C0.739803 91.87 0.304606 88.4754 0.087008 85.0592C0.087008 84.9504 0.0434883 84.8416 0.0217285 84.711V83.9059C0.174047 83.8841 0.304606 83.8624 0.456925 83.8624C9.79189 83.8624 19.1269 83.8624 28.4401 83.8624C28.9623 83.8624 28.9405 83.8624 28.9623 84.3846C29.1364 86.7129 29.2887 89.0412 29.5063 91.3477C29.8545 95.0252 30.4855 98.6808 31.2906 102.293C32.248 106.71 33.5101 111.062 35.0768 115.305C35.1203 115.436 35.1421 115.566 35.2074 115.741Z" fill="#FFC727"/>
<path d="M146.966 124.162C146.879 124.314 146.814 124.444 146.727 124.553C144.507 128.035 141.918 131.234 139.198 134.323C135.868 138.11 132.169 141.461 128.165 144.485C124.205 147.466 120.027 150.078 115.588 152.275C111.323 154.408 106.884 156.127 102.293 157.454C98.6591 158.499 94.9599 159.282 91.2172 159.804C90.8473 159.848 90.4991 159.935 90.1292 159.978H89.4982C89.3024 159.848 89.1283 159.739 88.8889 159.587C89.15 159.391 89.3676 159.238 89.5852 159.086C97.7234 153.516 104.73 146.748 110.54 138.762C113.804 134.28 116.654 129.536 119.113 124.553C119.266 124.249 119.418 124.14 119.766 124.14C128.666 124.14 137.566 124.14 146.487 124.14H146.966V124.162Z" fill="#FFC727"/>
<path d="M120.375 75.4195H83.0573V42.8015C83.2096 42.8015 83.3401 42.7798 83.4924 42.7798C93.0668 42.7798 102.641 42.7798 112.215 42.7798C112.542 42.7798 112.672 42.8886 112.803 43.1715C115.501 49.3295 117.46 55.7051 118.743 62.2766C119.396 65.6929 119.897 69.1527 120.18 72.6343C120.223 73.5482 120.31 74.4621 120.375 75.4195Z" fill="#FFC727"/>
<path d="M120.158 84.1235C120.114 84.8851 120.114 85.6684 120.049 86.43C119.875 88.2578 119.766 90.0639 119.505 91.87C119.157 94.3724 118.765 96.8747 118.265 99.3554C117.155 104.817 115.523 110.105 113.434 115.284C113.303 115.632 113.151 115.762 112.759 115.762C102.967 115.741 93.1538 115.74 83.3618 115.74H82.8396V84.1235H120.158Z" fill="#FFC727"/>
<path d="M74.6362 42.9974V75.6589H38.1885C38.232 74.8321 38.2755 74.0269 38.3408 73.2218C38.5366 71.394 38.6672 69.5662 38.9718 67.7384C39.4288 64.9749 39.8857 62.2114 40.495 59.4696C41.6918 53.9426 43.4979 48.5897 45.7609 43.3891C45.8915 43.0845 46.0655 42.9974 46.3919 42.9974C55.6616 42.9974 64.9313 42.9974 74.1792 42.9974H74.6362Z" fill="#FFC727"/>
<path d="M74.6797 84.5587C74.6797 94.8076 74.6797 105.035 74.6797 115.284V115.741H74.201C64.6484 115.741 55.1176 115.741 45.565 115.741C45.2169 115.741 45.0646 115.632 44.934 115.305C42.7362 109.974 41.039 104.491 39.9728 98.8331C39.4288 95.9391 39.0153 93.0015 38.6454 90.0639C38.406 88.1491 38.3408 86.2124 38.2102 84.2758C38.2102 84.2323 38.2102 84.167 38.232 84.08C38.3843 84.08 38.5148 84.0582 38.6454 84.0582C50.5045 84.0582 62.3854 84.0582 74.2445 84.0582C74.5926 84.08 74.6797 84.1888 74.6797 84.5587Z" fill="#FFC727"/>
<path d="M159.978 75.6589H129.384C128.709 64.3438 126.425 53.3986 122.247 42.7798H122.725C132.06 42.7798 141.417 42.7798 150.752 42.7798C151.1 42.7798 151.253 42.8668 151.427 43.1715C154.691 49.6777 157.041 56.4885 158.477 63.6257C159.238 67.4119 159.717 71.2416 159.956 75.0931C159.978 75.2672 159.978 75.4413 159.978 75.6589Z" fill="#FFC727"/>
<path d="M160 83.8841C159.956 84.624 159.956 85.3203 159.891 86.0166C159.695 88.7801 159.369 91.5218 158.89 94.2636C157.759 100.617 155.866 106.732 153.276 112.629C152.863 113.586 152.406 114.522 151.992 115.458C151.905 115.675 151.775 115.741 151.535 115.741C142.157 115.741 132.8 115.741 123.422 115.741C123.335 115.741 123.248 115.719 123.117 115.719C123.465 114.74 123.792 113.782 124.118 112.846C125.772 107.972 127.012 103.011 127.904 97.941C128.535 94.2636 128.992 90.5644 129.21 86.8435C129.253 85.9731 129.319 85.0809 129.362 84.2105C129.362 83.9712 129.427 83.8624 129.689 83.8841C129.776 83.8841 129.884 83.8841 129.971 83.8841H160Z" fill="#FFC727"/>
<path d="M146.139 34.4676C146.117 34.5111 146.095 34.5546 146.074 34.5981H145.682C136.76 34.5981 127.839 34.5981 118.917 34.5981C118.591 34.5981 118.417 34.5111 118.265 34.2282C114.652 27.1127 110.279 20.5195 104.991 14.5573C101.901 11.0975 98.4632 7.98586 94.8075 5.15708C92.9797 3.74269 91.0866 2.4371 89.237 1.08799C89.15 1.02271 89.0412 0.957432 88.9324 0.848633C89.0629 0.761594 89.1717 0.674555 89.3023 0.587515C89.237 0.413437 89.1935 0.239358 89.1065 0C98.6373 1.10975 107.668 3.76445 116.154 8.11642C128.361 14.3832 138.501 23.0219 146.139 34.4676Z" fill="#FFC727"/>
<path d="M69.4573 159.63C69.1309 159.695 68.8916 159.782 68.674 159.761C65.7364 159.391 62.8206 158.803 59.9483 158.063C54.5736 156.693 49.3948 154.778 44.4118 152.319C38.7107 149.49 33.4448 146.03 28.5924 141.939C25.1543 139.045 21.9556 135.89 19.0833 132.43C16.9291 129.819 14.949 127.077 13.1429 124.205C13.0994 124.14 13.0776 124.075 13.0123 123.944H13.4475C21.7598 123.944 30.0503 123.944 38.3625 123.944C38.6889 123.944 38.8412 124.075 38.9936 124.357C41.6047 129.602 44.6294 134.606 48.1544 139.285C51.3749 143.571 54.987 147.488 58.882 151.166C62.1025 154.212 65.5406 156.975 69.218 159.478C69.2615 159.456 69.305 159.5 69.4573 159.63Z" fill="#FFC727"/>
<path d="M69.1309 0.805139C67.9994 1.63201 66.6503 2.58944 65.3665 3.56864C60.9928 6.91965 57.0107 10.7276 53.2898 14.7967C48.285 20.2802 44.0418 26.2859 40.6255 32.8574C40.408 33.2708 40.2121 33.706 39.9728 34.0977C39.9075 34.2282 39.7116 34.337 39.5811 34.337C39.1241 34.3588 38.6672 34.337 38.2102 34.337H13.861C27.4391 15.1884 45.6521 3.65568 68.848 0.152344C68.8045 0.261143 68.7392 0.369942 68.6957 0.456981C68.848 0.58754 69.0004 0.718099 69.1309 0.805139Z" fill="#FFC727"/>
<path d="M109.234 124.183C105.753 130.276 101.662 135.803 96.8965 140.873C92.6533 145.356 88.0402 149.403 82.8179 152.819V124.183H109.234Z" fill="#FFC727"/>
<path d="M74.6362 124.183V152.254C63.9086 144.877 55.5528 135.498 49.3077 124.183H74.6362Z" fill="#FFC727"/>
<path d="M108.407 34.337H83.0573V7.59418C88.3014 11.0322 93.045 14.9708 97.2882 19.5186C101.51 24.0228 105.165 29.0058 108.407 34.337Z" fill="#FFC727"/>
<path d="M74.6362 8.42108V34.5546H50.287C56.4668 24.0011 64.3656 15.1666 74.6362 8.42108Z" fill="#FFC727"/>
</g>
</g>
<defs>
<clipPath id="clip0_364_14245">
<rect width="160" height="160" fill="white"/>
</clipPath>
</defs>
</svg>
