<svg width="597" height="329" viewBox="0 0 597 329" fill="none" xmlns="http://www.w3.org/2000/svg">
<g clip-path="url(#clip0_364_14150)">
<path d="M544.035 177.072C543.13 176.189 542.204 175.328 541.255 174.445L542.226 173.386C543.175 174.269 544.101 175.152 545.005 176.035L544.035 177.072Z" fill="#FFC727"/>
<path d="M531.417 329L531.373 327.565C533.954 327.499 536.512 327.344 538.983 327.101L539.116 328.536C536.645 328.779 534.042 328.934 531.417 329ZM521.755 328.845C519.24 328.691 516.637 328.47 514.056 328.161L514.232 326.726C516.791 327.035 519.35 327.256 521.843 327.388L521.755 328.845ZM548.711 327.057L548.425 325.644C550.939 325.115 553.432 324.474 555.793 323.724L556.234 325.093C553.807 325.865 551.27 326.505 548.711 327.057ZM504.526 326.726C502.055 326.263 499.518 325.733 496.982 325.137L497.312 323.746C499.827 324.342 502.342 324.872 504.791 325.313L504.526 326.726ZM487.628 322.642C485.202 321.936 482.731 321.141 480.282 320.302L480.746 318.933C483.172 319.75 485.621 320.545 488.047 321.251L487.628 322.642ZM565.256 321.604L564.639 320.302C566.955 319.198 569.205 317.984 571.301 316.659L572.073 317.874C569.911 319.22 567.617 320.479 565.256 321.604ZM471.238 317.013C468.878 316.086 466.473 315.092 464.113 314.077L464.686 312.752C467.047 313.768 469.429 314.761 471.767 315.666L471.238 317.013ZM579.793 311.979L578.823 310.92C580.698 309.22 582.463 307.365 584.029 305.423L585.132 306.328C583.522 308.315 581.735 310.213 579.793 311.979ZM455.333 310.081C453.061 308.977 450.745 307.851 448.428 306.637L449.09 305.357C451.406 306.549 453.679 307.697 455.951 308.778L455.333 310.081ZM439.957 302.067C437.707 300.809 435.479 299.506 433.295 298.204L434.045 296.968C436.207 298.27 438.413 299.55 440.663 300.809L439.957 302.067ZM590.559 298.248L589.301 297.564C590.492 295.356 591.529 293.038 592.367 290.632L593.713 291.117C592.831 293.568 591.772 295.974 590.559 298.248ZM425.133 293.104C422.972 291.691 420.832 290.279 418.736 288.822L419.552 287.629C421.648 289.064 423.766 290.477 425.928 291.89L425.133 293.104ZM410.905 283.236C408.831 281.713 406.78 280.168 404.772 278.6L405.655 277.474C407.662 279.042 409.692 280.565 411.765 282.088L410.905 283.236ZM596.184 281.713L594.772 281.47C595.191 279.02 595.456 276.481 595.566 273.92L597 273.986C596.868 276.613 596.603 279.218 596.184 281.713ZM397.25 272.574C395.265 270.94 393.301 269.284 391.36 267.606L392.287 266.525C394.228 268.202 396.191 269.836 398.154 271.47L397.25 272.574ZM595.301 264.427C595.059 261.955 594.706 259.416 594.198 256.877L595.61 256.613C596.118 259.195 596.493 261.778 596.735 264.295L595.301 264.427ZM384.147 261.248C382.249 259.527 380.352 257.805 378.477 256.061L379.448 255.001C381.323 256.745 383.198 258.467 385.095 260.189L384.147 261.248ZM371.528 249.438C369.697 247.65 367.867 245.861 366.036 244.051L367.05 243.036C368.859 244.846 370.69 246.634 372.521 248.4L371.528 249.438ZM591.882 247.628C591.154 245.265 590.316 242.837 589.389 240.409L590.735 239.901C591.684 242.351 592.544 244.824 593.272 247.208L591.882 247.628ZM359.263 237.23C357.476 235.397 355.69 233.565 353.903 231.733L354.94 230.739C356.726 232.594 358.513 234.426 360.3 236.236L359.263 237.23ZM585.573 231.644C584.492 229.393 583.301 227.097 582.066 224.845L583.323 224.139C584.58 226.412 585.772 228.73 586.875 231.004L585.573 231.644ZM347.219 224.801C345.454 222.946 343.689 221.092 341.902 219.238L342.939 218.244C344.704 220.099 346.491 221.953 348.233 223.807L347.219 224.801ZM577.168 216.633C575.823 214.535 574.389 212.394 572.911 210.275L574.08 209.458C575.58 211.599 577.036 213.763 578.382 215.882L577.168 216.633ZM335.307 212.284L330.012 206.721L331.049 205.727L336.343 211.29L335.307 212.284ZM567.219 202.57C565.675 200.605 564.065 198.597 562.388 196.61L563.491 195.682C565.168 197.669 566.8 199.7 568.345 201.687L567.219 202.57ZM323.35 199.789C321.585 197.956 319.799 196.102 318.012 194.27L319.049 193.276C320.857 195.131 322.622 196.963 324.387 198.795L323.35 199.789ZM556.079 189.413C554.381 187.559 552.638 185.704 550.829 183.828L551.866 182.834C553.697 184.711 555.44 186.587 557.16 188.442L556.079 189.413ZM311.306 187.404C309.519 185.594 307.71 183.783 305.879 181.973L306.894 180.958C308.725 182.768 310.534 184.6 312.32 186.411L311.306 187.404ZM299.04 175.24C297.21 173.474 295.379 171.686 293.503 169.92L294.496 168.882C296.371 170.67 298.224 172.436 300.033 174.202L299.04 175.24ZM286.489 163.363C284.613 161.641 282.738 159.919 280.819 158.197L281.768 157.138C283.687 158.86 285.584 160.582 287.459 162.326L286.489 163.363ZM273.65 151.839C271.731 150.184 269.789 148.506 267.826 146.85L268.753 145.746C270.716 147.424 272.679 149.08 274.598 150.758L273.65 151.839ZM260.436 140.713C258.473 139.101 256.465 137.512 254.458 135.9L255.34 134.775C257.37 136.386 259.377 137.976 261.341 139.587L260.436 140.713ZM246.869 130.028C244.84 128.483 242.81 126.96 240.737 125.436L241.597 124.288C243.671 125.834 245.722 127.357 247.752 128.902L246.869 130.028ZM232.972 119.807C230.898 118.35 228.803 116.871 226.685 115.414L227.501 114.222C229.641 115.679 231.736 117.158 233.81 118.615L232.972 119.807ZM218.721 110.049C216.604 108.659 214.464 107.268 212.28 105.877L213.052 104.663C215.236 106.054 217.376 107.444 219.515 108.857L218.721 110.049ZM204.162 100.799C202 99.4749 199.816 98.1503 197.588 96.8478L198.316 95.6116C200.544 96.9361 202.75 98.2607 204.912 99.5853L204.162 100.799ZM189.294 92.0132C187.088 90.7548 184.86 89.5186 182.61 88.2602L183.294 87.0019C185.566 88.2602 187.794 89.4965 190 90.7548L189.294 92.0132ZM174.161 83.7125C171.911 82.5204 169.661 81.3504 167.344 80.1583L168.006 78.8779C170.3 80.0479 172.573 81.24 174.823 82.4321L174.161 83.7125ZM158.785 75.8535C156.513 74.7276 154.219 73.6238 151.881 72.4979L152.498 71.1954C154.837 72.2992 157.131 73.4251 159.425 74.551L158.785 75.8535ZM143.189 68.4359C140.873 67.3762 138.557 66.3166 136.196 65.279L136.77 63.9544C139.13 65.0141 141.468 66.0517 143.785 67.1113L143.189 68.4359ZM127.394 61.4378C125.056 60.4444 122.696 59.4509 120.313 58.4575L120.865 57.1329C123.247 58.1264 125.63 59.1198 127.968 60.1132L127.394 61.4378Z" fill="#FFC727"/>
<path d="M110.96 54.6604C109.769 54.1968 108.578 53.7111 107.386 53.2475L107.916 51.9009C109.107 52.3645 110.298 52.8501 111.489 53.3137L110.96 54.6604Z" fill="#FFC727"/>
<path d="M115.504 27.2861L128.167 62.078L101.607 41.3044L0 4.43732L115.504 27.2861Z" fill="#D69F13"/>
<path d="M98.1874 49.4063L128.166 62.078L101.607 41.3044L98.1874 49.4063Z" fill="#FFC727"/>
<path d="M101.607 41.3044L0 4.43732L83.3413 85.8098L101.607 41.3044Z" fill="#FFC727"/>
<path d="M115.504 27.286L157.726 0L0 4.43729L115.504 27.286Z" fill="#FFC727"/>
</g>
<defs>
<clipPath id="clip0_364_14150">
<rect width="597" height="329" fill="white"/>
</clipPath>
</defs>
</svg>
