<svg width="121" height="123" viewBox="0 0 121 123" fill="none" xmlns="http://www.w3.org/2000/svg">
<path d="M82.037 83.9387C80.4301 80.8501 77.8185 79.3582 74.6385 78.5564C69.8921 77.3622 65.1763 76.053 60.4537 74.7675C59.9361 74.6254 59.4455 74.3581 58.9685 74.101C56.6647 72.873 54.3474 71.6653 52.0876 70.3629C51.6106 70.0888 51.1843 69.507 51.0084 68.9758C48.7926 62.3926 48.9685 55.7653 50.8257 49.1449C52.3717 43.6238 55.0544 38.6779 58.5423 34.1515C62.6932 28.7624 66.8441 23.37 70.9544 17.9538C71.4991 17.2367 72.0674 16.966 72.9605 16.9728C78.539 17.01 84.1175 17.01 89.6961 16.9728C90.5486 16.966 91.0831 17.2299 91.5973 17.9065C95.7144 23.3226 99.8619 28.7117 104.013 34.1042C108.905 40.4574 112.162 47.5041 112.991 55.5488C113.739 62.8019 112.318 69.5848 108.286 75.7316C108.011 76.1511 107.531 76.5672 107.068 76.7059C99.0128 79.074 90.9478 81.3981 82.8828 83.7324C82.646 83.8 82.399 83.8508 82.037 83.9387ZM89.3172 60.8635C89.3409 56.9189 86.0492 53.7051 81.8205 53.4074C80.7177 53.3296 79.5201 53.0894 78.5762 52.5515C76.1811 51.1882 76.2082 48.1198 78.512 46.6009C80.5722 45.2375 83.4342 45.6266 85.3659 47.5312C86.33 48.4818 87.2231 48.5968 88.0283 47.8695C88.8199 47.1557 88.8605 45.931 87.876 45.0887C86.8984 44.2531 85.7887 43.4648 84.6013 43.0081C83.4173 42.5548 82.8219 42.0677 82.9166 40.7111C82.9538 40.1664 82.5208 39.3816 82.0573 39.0467C80.8597 38.184 79.3679 39.2226 79.4693 40.9039C79.537 42.0338 79.1649 42.4432 78.1229 42.8525C75.2812 43.9757 73.4443 46.0393 73.2887 49.2193C73.0857 53.4074 76.3976 56.6652 80.9849 56.9798C81.8916 57.0441 82.8489 57.2132 83.6642 57.5887C84.9667 58.1875 85.7651 59.2565 85.7617 60.789C85.7583 62.3215 84.9464 63.3601 83.6541 63.9893C82.9538 64.3276 82.1351 64.5002 81.3503 64.578C79.6892 64.7437 78.4883 63.81 77.3245 62.7715C76.4653 62.0035 75.3759 62.0779 74.723 62.8222C74.0634 63.5732 74.0972 64.6795 75.0174 65.3899C76.1743 66.283 77.4193 67.0915 78.7217 67.7444C79.3509 68.059 79.6859 68.3128 79.6047 69.0097C79.5844 69.1754 79.6013 69.348 79.6148 69.5171C79.696 70.6673 80.42 71.4319 81.4078 71.4048C82.4058 71.3777 83.2109 70.5997 83.1128 69.4393C83.0147 68.2857 83.4545 67.8899 84.4897 67.511C87.4599 66.4217 89.2969 63.7728 89.3172 60.8635Z" fill="#595959"/>
<path d="M32.1521 106.713C28.7116 98.4453 25.3118 90.2856 21.8882 82.0548C26.6548 79.7612 31.2793 77.5081 35.9275 75.3092C39.0297 73.841 42.1928 72.5622 45.7348 72.6535C49.5203 72.7516 52.8356 74.2435 55.8228 76.3477C57.9135 77.8227 60.2342 78.3944 62.5853 79.0372C66.6551 80.1502 70.7417 81.2057 74.8114 82.3288C78.2485 83.2761 80.1599 86.4696 79.2871 89.7139C78.3974 93.0258 75.1328 94.8289 71.6246 93.8986C64.6895 92.0583 57.7612 90.1909 50.8295 88.337C50.383 88.2186 49.9263 88.0359 49.4763 88.0393C48.5223 88.0427 47.8457 88.5332 47.6969 89.5075C47.5379 90.5359 48.0352 91.2294 49.0298 91.5068C51.3065 92.1361 53.5934 92.7382 55.8769 93.3506C60.9311 94.7038 65.9852 96.0705 71.0428 97.4135C76.9021 98.9697 82.758 94.609 82.9948 88.5264C83.0185 87.9446 82.9035 87.4101 83.7357 87.1733C92.0544 84.8052 100.353 82.3559 108.682 80.0115C111.053 79.3451 113.519 79.1421 115.962 79.6867C119.372 80.4479 120.962 82.8904 120.184 86.2802C119.494 89.3011 117.775 91.5948 114.825 92.7349C101.716 97.7992 88.6038 102.843 75.4711 107.847C72.4636 108.993 69.3344 110.042 66.1002 109.687C63.4446 109.396 60.8363 108.557 58.2416 107.84C54.0535 106.683 49.8789 105.465 45.7212 104.2C42.142 103.11 38.7286 103.354 35.4235 105.13C34.4187 105.675 33.37 106.128 32.1521 106.713Z" fill="#595959"/>
<path d="M12.7101 75.752C14.7094 75.9042 15.863 76.8244 16.5464 78.4786C19.5471 85.7351 22.5782 92.9747 25.5992 100.221C27.4192 104.585 29.2393 108.946 31.0492 113.313C32.1419 115.945 31.3841 117.853 28.786 118.953C26.1033 120.089 23.4172 121.209 20.7176 122.298C18.3901 123.239 16.4077 122.42 15.4435 120.116C10.545 108.394 5.65658 96.6689 0.77833 84.9401C-0.1892 82.6126 0.626097 80.593 2.90622 79.6255C5.66334 78.4549 8.43738 77.3183 11.2148 76.1917C11.7527 75.9718 12.3346 75.8568 12.7101 75.752Z" fill="#595959"/>
<path d="M81.2696 0.924084C85.8298 0.924084 90.3901 0.917318 94.9503 0.927467C96.7467 0.93085 97.2474 1.77321 96.3644 3.32599C94.5917 6.44171 92.8224 9.56081 90.9787 12.6359C90.7385 13.0351 90.0789 13.4005 89.6086 13.4073C84.0775 13.4614 78.5463 13.4276 73.0151 13.458C72.2878 13.4614 71.8785 13.2246 71.5199 12.5886C69.7878 9.49992 67.9948 6.44171 66.2424 3.36321C65.3189 1.74615 65.8162 0.93085 67.714 0.927467C72.2337 0.917318 76.7533 0.924084 81.2696 0.924084Z" fill="#595959"/>
</svg>
