<svg width="49" height="79" viewBox="0 0 49 79" fill="none" xmlns="http://www.w3.org/2000/svg">
<path d="M7.78957 0.216C7.82763 0.974558 7.79281 1.68746 7.91028 2.37429C8.34862 4.9423 10.5479 6.85501 13.1638 6.86479C20.5068 6.89304 27.8497 6.89739 35.1926 6.8637C38.1359 6.85066 40.4254 4.51739 40.5201 1.56901C40.5342 1.13865 40.5223 0.708294 40.5223 0.125791C42.2571 0.235553 43.9495 -0.183933 45.5582 0.482251C47.2974 1.20277 48.2122 2.56992 48.3307 4.45436C48.3459 4.6978 48.3383 4.9434 48.3383 5.18792C48.3394 28.2272 48.3394 51.2665 48.3394 74.3058C48.3394 76.7478 46.6502 78.6116 44.2258 78.8376C43.8745 78.8702 43.5199 78.8811 43.1675 78.8811C30.4938 78.8832 17.8201 78.8963 5.14647 78.8561C4.17517 78.8528 3.11687 78.6518 2.25434 78.2268C0.792496 77.5063 0.0670184 76.1718 0.00393288 74.5177C0.00175752 74.4634 0.000693208 74.4091 0.000693208 74.3547C0.000693208 51.1252 -0.00256559 27.8958 0.00504818 4.66628C0.00613586 2.43516 1.50383 0.505056 3.57804 0.247494C4.93764 0.0790463 6.33642 0.216 7.78957 0.216ZM37.8237 39.5284C37.7954 32.0102 31.6707 25.932 24.1374 25.9472C16.615 25.9624 10.4816 32.1124 10.5229 39.5991C10.5642 47.1249 16.6889 53.2086 24.2081 53.1933C31.7164 53.1781 37.852 47.0206 37.8237 39.5284ZM14.7551 58.1077C14.7877 58.0272 14.8193 57.9479 14.8519 57.8675C15.1673 57.8675 15.4838 57.8675 15.7993 57.8675C22.6223 57.8675 29.4453 57.8697 36.2683 57.8642C37.2418 57.8631 37.8041 57.41 37.8106 56.6731C37.8172 55.9439 37.2766 55.4788 36.3716 55.4788C28.2162 55.4745 20.0619 55.4777 11.9065 55.4734C11.3104 55.4734 10.7296 55.6331 10.6382 56.2428C10.5729 56.6775 10.7198 57.2926 11.0102 57.6056C12.3208 59.0194 13.7098 60.3605 15.0846 61.7135C15.6818 62.3015 16.3997 62.3482 16.8945 61.8765C17.4362 61.3614 17.3971 60.6681 16.751 60.0203C16.0995 59.3694 15.4207 58.7445 14.7551 58.1077ZM33.5839 20.8959C33.5578 20.9731 33.5317 21.0513 33.5056 21.1285C33.163 21.1285 32.8214 21.1285 32.4788 21.1285C25.6863 21.1285 18.8926 21.1263 12.1 21.1318C11.1157 21.1329 10.5566 21.5654 10.536 22.2979C10.5153 23.026 11.0624 23.5172 11.9521 23.5172C20.1043 23.5226 28.2554 23.5183 36.4075 23.5237C37.0025 23.5237 37.5866 23.3694 37.6889 22.7684C37.7617 22.3359 37.6171 21.7143 37.3267 21.4013C36.0182 19.9874 34.6281 18.6474 33.2554 17.2933C32.6507 16.6967 31.9492 16.6456 31.4532 17.1183C30.9104 17.6356 30.9506 18.3225 31.5967 18.9724C32.245 19.6266 32.9204 20.2558 33.5839 20.8959ZM24.1744 76.8358C26.2671 76.8358 28.3587 76.839 30.4514 76.8347C31.426 76.8325 31.9872 76.4 31.9992 75.6643C32.0112 74.9188 31.4564 74.4503 30.4873 74.4493C26.2758 74.4406 22.0643 74.4406 17.8517 74.4493C16.8836 74.4514 16.3301 74.922 16.3453 75.6697C16.3605 76.4065 16.9207 76.8336 17.8974 76.8358C19.9901 76.838 22.0828 76.8358 24.1744 76.8358Z" fill="#595959"/>
<path d="M10.3054 0.177734C19.6061 0.177734 28.8405 0.177734 38.0684 0.177734C38.6938 2.57839 37.3049 4.5139 34.875 4.52477C27.7561 4.5552 20.6373 4.55303 13.5195 4.52586C11.0853 4.51608 9.68538 2.59034 10.3054 0.177734Z" fill="#595959"/>
<path d="M24.1842 50.7995C17.967 50.8071 12.9169 45.7787 12.9114 39.5755C12.9071 33.3886 17.9724 28.3134 24.1613 28.3047C30.3524 28.2971 35.4286 33.3614 35.433 39.5505C35.4384 45.757 30.4024 50.7919 24.1842 50.7995ZM25.4013 45.6189C25.5362 45.5852 25.6373 45.5559 25.7395 45.5331C27.7235 45.0919 28.9188 43.5193 28.7372 41.5892C28.5621 39.7309 26.986 38.3855 24.964 38.3702C24.4474 38.3659 23.9307 38.3779 23.4141 38.367C22.5244 38.3496 21.9838 37.8964 21.962 37.1661C21.9392 36.4021 22.4961 35.9131 23.4282 35.9011C24.3799 35.8892 25.3317 35.9153 26.2823 35.8913C27.0546 35.8729 27.5766 35.3751 27.5821 34.7122C27.5875 34.0526 27.072 33.5613 26.2986 33.5103C26.0104 33.4907 25.7189 33.507 25.447 33.507C25.2109 32.0018 24.9075 31.5584 24.1689 31.5595C23.4119 31.5606 23.0975 32.0323 22.93 33.4559C22.7375 33.5081 22.532 33.5657 22.3242 33.62C20.5731 34.0732 19.4593 35.6468 19.605 37.4628C19.7399 39.1462 21.1039 40.5155 22.8539 40.6785C23.5283 40.7416 24.2113 40.7144 24.89 40.7318C25.8374 40.7557 26.39 41.2165 26.3813 41.9718C26.3726 42.7216 25.807 43.19 24.8662 43.2031C23.8872 43.2172 22.9083 43.1955 21.9305 43.2226C21.2224 43.2433 20.8341 43.6693 20.771 44.3507C20.7123 44.9821 21.2311 45.494 21.9381 45.557C22.2568 45.5853 22.5766 45.5907 22.8811 45.6059C23.1998 47.1806 23.4565 47.5382 24.2223 47.5088C24.9945 47.4806 25.2762 47.0469 25.4013 45.6189Z" fill="#595959"/>
</svg>
