<svg width="114" height="108" viewBox="0 0 114 108" fill="none" xmlns="http://www.w3.org/2000/svg">
<path opacity="0.25" d="M85.3287 4.05469C84.451 4.05469 83.5844 4.09529 82.729 4.18019H87.9322C87.0804 4.09529 86.2101 4.05469 85.3287 4.05469Z" fill="white"/>
<path d="M69.0748 87.3159C69.0748 89.9995 66.8935 92.1773 64.2012 92.1773C61.5051 92.1773 59.3239 89.9995 59.3239 87.3159C59.3239 86.3709 59.5942 85.485 60.0645 84.7431L34.1856 38.4543H18.2279C17.5242 40.2778 15.7503 41.5734 13.6765 41.5734C10.9841 41.5734 8.79915 39.3956 8.79915 36.712C8.79915 34.0284 10.9804 31.8506 13.6765 31.8506C15.4578 31.8506 17.0132 32.7992 17.8612 34.2204H37.4371C46.4955 50.307 55.5576 66.39 64.6196 82.4766C67.1157 82.6833 69.0748 84.7726 69.0748 87.3159Z" fill="white"/>
<path d="M87.0841 97.2889C87.0841 99.9724 84.8991 102.15 82.2068 102.15C79.5145 102.15 77.3295 99.9724 77.3295 97.2889C77.3295 96.558 77.4888 95.8677 77.7776 95.2476L43.1921 34.2158H91.2096L85.9583 39.4501H52.1949L83.1549 92.516C85.3917 92.9553 87.0841 94.9228 87.0841 97.2889Z" fill="white"/>
<path d="M114 89.4642C114 92.1477 111.815 94.3256 109.123 94.3256C106.427 94.3256 104.245 92.1477 104.245 89.4642C104.245 88.7444 104.401 88.0652 104.682 87.4487L88.4321 58.4352H78.7516L80.2181 60.949C87.2952 73.3111 94.3649 85.6695 101.442 98.0317C103.849 98.3971 105.623 100.383 105.686 102.627C105.76 105.237 103.501 107.489 100.809 107.489C98.1164 107.489 95.9314 105.311 95.9314 102.627C95.9314 101.9 96.0906 101.206 96.3795 100.59L73.9187 60.949L70.7301 55.3271L64.8344 44.9214H92.9317C93.976 44.9214 94.8241 44.0761 94.8241 43.0351V18.8388C94.8241 17.7978 93.976 16.9525 92.9317 16.9525H33.0375C32.308 18.7243 30.5637 19.972 28.5231 19.972C25.8308 19.972 23.6458 17.7978 23.6458 15.1142C23.6458 12.427 25.8308 10.2528 28.5231 10.2528C30.5267 10.2528 32.2524 11.4562 32.9968 13.1837H92.928C96.0573 13.1837 98.6015 15.7196 98.6015 18.8388V43.0351C98.6015 46.1543 96.0536 48.6902 92.928 48.6902H73.067L74.7964 51.658L74.8149 51.6875H74.9557V51.8352L75.7815 53.2822H102.505C103.316 53.2822 104.005 52.5734 104.005 51.7355V9.82463C104.005 8.9867 103.316 8.27797 102.505 8.27797H49.4581C48.5693 9.46288 47.151 10.2307 45.5511 10.2307C42.8588 10.2307 40.6738 8.05281 40.6738 5.36924C40.6738 2.68567 42.8551 0.507812 45.5474 0.507812C47.4287 0.507812 49.0619 1.56721 49.8729 3.12494H102.501C106.09 3.12494 109.004 6.12964 109.004 9.82463V51.7355C109.004 55.4268 106.086 58.4352 102.501 58.4352H94.7352C99.5422 67.1577 104.345 75.8802 109.152 84.5991C111.83 84.6175 114 86.788 114 89.4642Z" fill="white"/>
<path d="M91.2096 28.4836H9.37316C8.60657 30.1742 6.90673 31.3518 4.92544 31.3518C3.30338 31.3518 1.86278 30.5618 0.981384 29.3437C0.94435 29.2994 0.907317 29.2551 0.881394 29.2071C0.355519 28.432 0.0481415 27.4944 0.0481415 26.4903C0.0481415 23.8068 2.23311 21.6289 4.92544 21.6289C6.51048 21.6289 7.92145 22.3856 8.81025 23.5558C8.85099 23.6074 8.88432 23.6554 8.92135 23.7071C9.04356 23.8769 9.15096 24.0578 9.25095 24.246H86.9619L91.2096 28.4836Z" fill="white"/>
<path d="M8.81025 23.5558C7.92145 22.3857 6.51048 21.6289 4.92545 21.6289C2.23312 21.6289 0.0481435 23.8068 0.0481435 26.4904C0.0481435 27.4981 0.355521 28.432 0.881396 29.2072C0.325894 28.4172 0 27.4575 0 26.4239C0 23.7404 2.18497 21.5625 4.8773 21.5625C6.49196 21.5625 7.92515 22.3451 8.81025 23.5558Z" fill="white"/>
</svg>
