<svg width="46" height="33" viewBox="0 0 46 33" fill="none" xmlns="http://www.w3.org/2000/svg">
<g clip-path="url(#clip0_38_77)">
<path d="M13.7826 18.9333C13.0112 19.1944 12.2467 19.3672 11.4633 19.454C6.74421 19.9747 2.44722 17.4034 0.749106 13.4219C-0.742858 9.92466 0.0307273 5.85495 2.73723 3.12758C4.93709 0.911108 7.62681 -0.0868987 10.7316 0.00758299C12.3669 0.0572734 13.9259 0.416304 15.3738 1.19805C17.2264 2.19816 18.5562 3.69657 19.4912 5.56451C20.29 7.1602 20.733 8.86016 20.8959 10.6294C21.3291 15.3479 20.2313 19.7326 17.935 23.8366C16.4339 26.5198 14.4528 28.7923 11.9727 30.6175C10.6722 31.575 9.27391 32.3602 7.77776 32.967C7.6932 33.0013 7.57929 33.0083 7.49124 32.9838C6.57231 32.729 6.15372 31.6337 6.66315 30.8254C6.70927 30.7526 6.77776 30.691 6.84484 30.635C8.33611 29.3991 9.74561 28.0791 10.9643 26.5674C12.0335 25.2419 12.9273 23.8156 13.4416 22.1758C13.7554 21.1771 13.8826 20.156 13.8064 19.1111C13.8043 19.06 13.7938 19.0089 13.7826 18.9333Z" fill="#FFC41F"/>
<path d="M38.7946 18.9568C38.3159 19.0772 37.8574 19.2144 37.3906 19.3075C33.0734 20.1683 28.7121 18.3592 26.45 14.7514C24.03 10.8916 24.7009 5.91697 28.0615 2.81237C30.2278 0.810758 32.8071 -0.0878682 35.7421 0.00731332C37.2544 0.0563038 38.7058 0.367044 40.0692 1.03821C41.9581 1.96833 43.3466 3.41215 44.3368 5.2549C45.2173 6.89258 45.6967 8.65414 45.8882 10.4948C46.2998 14.4532 45.5639 18.2234 43.9567 21.8347C42.5625 24.968 40.5765 27.6673 37.9371 29.8684C36.3781 31.1688 34.6576 32.2039 32.7778 32.9709C32.6981 33.0031 32.5912 33.0087 32.508 32.9863C31.5898 32.7379 31.1614 31.6419 31.6646 30.8328C31.7072 30.7642 31.7687 30.7048 31.8316 30.6523C33.3173 29.4191 34.7247 28.1062 35.9434 26.6015C36.9434 25.3676 37.7931 24.0442 38.3284 22.5373C38.7275 21.4148 38.9126 20.2607 38.8085 19.0674C38.805 19.0331 38.8001 18.9988 38.7946 18.9568Z" fill="#FFC41F"/>
</g>
<defs>
<clipPath id="clip0_38_77">
<rect width="46" height="33" fill="white"/>
</clipPath>
</defs>
</svg>
