<svg width="32" height="32" viewBox="0 0 32 32" fill="none" xmlns="http://www.w3.org/2000/svg">
<g clip-path="url(#clip0_69_3568)">
<path d="M0.0011555 15.9997C0.0011555 13.1781 0.00459205 10.3554 9.98547e-06 7.53377C-0.00228105 5.90817 0.389485 4.39941 1.35859 3.07854C2.87182 1.01417 4.93375 0.00948064 7.48252 0.00718944C13.1654 0.00146145 18.8483 -0.00426654 24.5301 0.00948064C27.8658 0.0174998 30.5521 1.88941 31.5888 4.98367C31.8568 5.7833 31.9725 6.6677 31.9771 7.51544C32.0103 13.1724 32 18.8282 31.992 24.4852C31.9874 27.8464 30.1351 30.5397 27.0239 31.5856C26.2129 31.8583 25.3148 31.9728 24.4556 31.9786C18.8105 32.0118 13.1666 32.0003 7.52147 31.9946C4.15709 31.9912 1.49491 30.133 0.392922 27.0422C0.0916513 26.1967 0.00230102 25.3192 0.0011555 24.4302C-0.00113553 21.6189 0.0011555 18.8099 0.0011555 15.9997ZM26.0204 16.0055C26.0273 10.5043 21.4956 5.97347 15.9937 5.97919C10.4964 5.98492 6.00595 10.4665 5.97617 15.9757C5.94638 21.4654 10.4654 26.002 15.9834 26.0203C21.4784 26.0386 26.0135 21.5135 26.0204 16.0055ZM26.4385 3.06594C25.0593 3.06708 23.9276 4.18519 23.9081 5.56678C23.8886 6.9415 25.0513 8.10657 26.4408 8.10657C27.8154 8.10657 28.9495 6.98274 28.9701 5.60229C28.9907 4.22643 27.8326 3.06594 26.4385 3.06594Z" fill="white"/>
<path d="M16.0108 9.43661C19.641 9.45379 22.5804 12.4037 22.5632 16.0123C22.546 19.6427 19.5951 22.5812 15.9856 22.564C12.3543 22.5457 9.41608 19.5969 9.43441 15.9883C9.45159 12.3567 12.4013 9.41828 16.0108 9.43661Z" fill="white"/>
</g>
<defs>
<clipPath id="clip0_69_3568">
<rect width="32" height="32" fill="white"/>
</clipPath>
</defs>
</svg>
