<svg width="110" height="101" viewBox="0 0 110 101" fill="none" xmlns="http://www.w3.org/2000/svg">
<mask id="path-1-inside-1_30_448" fill="white">
<path d="M109.313 78.9779C108.898 80.7234 108.611 82.5086 108.052 84.203C104.893 93.7707 96.114 100.253 86.031 100.458C81.569 100.548 77.104 100.486 72.6391 100.486C71.2162 100.486 70.4692 99.907 70.4976 98.8625C70.526 97.8691 71.2843 97.293 72.6164 97.2901C76.7973 97.2816 80.9782 97.2929 85.1591 97.2873C95.5602 97.2731 103.859 90.4017 105.814 80.1898C107.984 68.8425 99.4656 57.4016 87.9567 56.238C86.6247 56.1046 85.2727 56.1301 83.9292 56.1216C82.2364 56.1131 81.7905 55.7214 81.6712 54.044C81.0208 44.9503 73.3577 37.0288 64.2632 36.0411C53.4729 34.8689 44.3613 41.4536 42.0948 52.0572C41.7596 53.6268 40.9984 54.0213 39.3539 53.4792C29.4641 50.2152 19.1794 55.8803 16.7567 65.9617C16.4783 67.1226 16.3789 68.3345 16.2795 69.5294C16.1517 71.0989 15.862 71.4253 14.2799 71.7375C9.52532 72.6798 6.19936 75.4187 4.49519 79.9315C1.29704 88.3894 7.53996 97.2618 16.6715 97.2788C32.6509 97.3043 48.6303 97.2873 64.6097 97.2873C64.9988 97.2873 65.3936 97.2646 65.777 97.3157C66.72 97.4349 67.2824 98.0706 67.2625 98.942C67.2455 99.8304 66.6717 100.395 65.7003 100.475C65.4532 100.495 65.2033 100.489 64.9562 100.489C48.9768 100.489 32.9974 100.5 17.018 100.483C9.23278 100.475 2.96145 95.7745 1.0045 88.5427C-1.26773 80.1586 3.77945 71.255 12.1213 68.9816C12.9081 68.7659 13.1666 68.4395 13.1637 67.6136C13.1353 56.4622 13.1438 45.3079 13.1438 34.1565C13.1438 32.4649 13.5926 31.7639 14.6861 31.7355C15.8137 31.7071 16.3391 32.4791 16.3391 34.1792C16.3391 41.8623 16.3391 49.5454 16.3391 57.2285C16.3391 57.6145 16.3391 58.0033 16.3391 58.3893C16.4329 58.4603 16.5266 58.5341 16.6203 58.605C16.7197 58.4007 16.7936 58.1793 16.9242 57.9977C18.7051 55.5142 20.9035 53.482 23.5961 52.0345C24.2749 51.6684 24.3033 51.1859 24.3033 50.5672C24.2948 38.0335 24.2976 25.4999 24.2976 12.9663C24.2976 11.2548 24.61 10.8745 26.4165 10.5027C24.3686 8.32578 22.3719 6.20276 20.3212 4.02016C18.2819 6.18857 16.2966 8.29739 14.3623 10.3551C14.9588 10.7099 15.6717 10.9199 15.9955 11.3939C16.3164 11.8622 16.3221 12.5973 16.325 13.216C16.3505 17.5358 16.342 21.8556 16.3335 26.1754C16.3335 26.5955 16.3193 27.0354 16.1971 27.4327C15.9529 28.2104 15.3536 28.5482 14.5555 28.4687C13.7971 28.3949 13.3199 27.9607 13.195 27.2057C13.1382 26.8594 13.1467 26.499 13.1467 26.147C13.1438 22.4658 13.1438 18.7818 13.1438 15.1006C13.1438 14.7203 13.1438 14.34 13.1438 13.8092C12.1895 13.8092 11.3289 13.9228 10.5194 13.7695C9.97125 13.6673 9.35491 13.2983 9.01408 12.8584C8.55112 12.2624 8.81241 11.5812 9.32366 11.0391C12.5786 7.585 15.8222 4.12233 19.0942 0.682395C19.8781 -0.140692 20.7927 -0.11513 21.5993 0.736339C24.8429 4.15357 28.0865 7.56795 31.2591 11.0476C31.6227 11.4478 31.8045 12.3646 31.5971 12.8329C31.3898 13.2983 30.6172 13.6531 30.035 13.7723C29.2624 13.9284 28.4302 13.8121 27.5611 13.8121C27.5611 25.9937 27.5611 38.0506 27.5611 50.0023C30.2963 49.7356 33.0457 49.4688 35.9001 49.1906C35.9001 42.166 35.9001 34.9342 35.9001 27.5746C35.0566 27.5746 34.196 27.6882 33.3865 27.5349C32.8355 27.4328 32.0913 27.0609 31.9181 26.6182C31.7249 26.1215 31.8669 25.2218 32.2248 24.8272C35.3974 21.3447 38.641 17.9304 41.8846 14.5131C42.714 13.6361 43.6456 13.6247 44.4664 14.4932C47.71 17.9105 50.9252 21.3504 54.1574 24.7761C54.6715 25.3211 54.9499 26.0051 54.4926 26.5898C54.1319 27.0496 53.4815 27.4157 52.8992 27.5349C52.1267 27.6939 51.2973 27.5746 50.4424 27.5746C50.4424 30.2596 50.4424 32.8311 50.4424 35.2918C53.1917 34.3949 55.9553 33.4952 58.8127 32.5643C58.8127 27.3277 58.8127 21.8897 58.8127 16.3211C57.9208 16.3211 57.0602 16.4318 56.2479 16.2813C55.6969 16.1792 54.9499 15.813 54.7766 15.3731C54.5807 14.8764 54.7141 13.9739 55.0749 13.5793C58.2702 10.0713 61.5393 6.63135 64.8113 3.19142C65.5782 2.38536 66.5439 2.40239 67.3278 3.22831C70.5714 6.64555 73.8122 10.0628 76.9848 13.5424C77.3483 13.9426 77.5329 14.8565 77.3256 15.3277C77.1211 15.7932 76.3542 16.1593 75.7748 16.2813C74.9994 16.4403 74.1672 16.3211 73.2896 16.3211C73.2611 16.7213 73.2214 17.0278 73.2214 17.3372C73.2186 23.1782 73.2072 29.0222 73.2441 34.8632C73.247 35.2691 73.5054 35.8481 73.8292 36.0553C76.8711 37.9824 79.3933 40.4148 81.3247 43.4574C81.3787 43.5425 81.4411 43.6249 81.6258 43.886C81.6258 39.8387 81.6258 36.0156 81.6258 32.0676C80.7566 32.0676 79.896 32.1811 79.0837 32.0278C78.5384 31.9228 77.8283 31.5453 77.6267 31.094C77.425 30.6428 77.5585 29.7629 77.8965 29.3911C81.1202 25.8604 84.4092 22.3892 87.704 18.9266C88.4424 18.1517 89.3968 18.1574 90.1409 18.9408C93.4328 22.4091 96.719 25.8802 99.9399 29.4138C100.275 29.7828 100.372 30.6484 100.184 31.1281C100.017 31.5538 99.3264 31.9342 98.8123 32.025C97.9943 32.1726 97.128 32.0647 96.1708 32.0647C96.1509 32.5103 96.1197 32.8821 96.1197 33.2568C96.1169 36.7251 96.1083 40.1963 96.1225 43.6646C96.1254 44.465 95.9464 45.1575 95.1767 45.5321C94.0605 46.0742 92.9358 45.2597 92.9301 43.8775C92.913 40.3722 92.9244 36.867 92.9244 33.3618C92.9244 32.6551 92.9244 31.9455 92.9244 31.2388C92.9272 29.4763 93.1914 29.1442 95.0092 28.7667C92.9812 26.6125 91.0072 24.5122 88.9253 22.2955C86.8831 24.4554 84.8836 26.5699 82.8471 28.7241C84.7472 29.2407 84.9006 29.4479 84.9006 31.4034C84.9006 38.1301 84.9006 44.8567 84.9006 51.5833C84.9006 51.9664 84.9006 52.3496 84.9006 52.6306C87.6159 53.0279 90.2204 53.4111 92.9244 53.8084C92.9244 52.7952 92.913 51.711 92.9272 50.6239C92.9414 49.429 93.5066 48.7762 94.4951 48.7677C95.4806 48.762 96.0941 49.429 96.114 50.5927C96.1367 51.938 96.0771 53.2862 96.1481 54.6287C96.168 54.9976 96.4378 55.5057 96.7446 55.6816C103.925 59.7999 108.123 65.9021 109.159 74.1415C109.176 74.2721 109.264 74.3941 109.318 74.5218C109.313 76.0034 109.313 77.4906 109.313 78.9779ZM72.1875 13.0457C70.08 10.8035 68.0805 8.68339 66.0468 6.52066C63.9734 8.7288 61.9824 10.849 59.9204 13.0486C61.6785 13.304 62.0676 13.7553 62.0705 15.393C62.0733 20.7374 62.0733 26.0817 62.0733 31.429C62.0733 31.8093 62.0733 32.1896 62.0733 32.4309C64.7914 32.9503 67.3761 33.447 70.0289 33.955C70.0289 33.6712 70.0289 33.288 70.0289 32.902C70.0289 27.0609 70.0261 21.2198 70.0318 15.3816C70.0289 13.7496 70.418 13.3012 72.1875 13.0457ZM37.1016 24.2397C38.9534 24.6541 39.175 24.9408 39.175 26.8594C39.175 33.762 39.175 40.6617 39.175 47.5643C39.175 48.2228 39.175 48.8812 39.175 49.5397C39.3852 49.429 39.4732 49.2871 39.5187 49.1339C40.8365 44.7857 43.2508 41.1613 46.6676 38.1698C46.9772 37.9001 47.1675 37.3325 47.1732 36.8983C47.213 33.5718 47.1817 30.2454 47.2101 26.919C47.2158 26.3003 47.213 25.5595 47.5339 25.1025C47.8577 24.6428 48.5848 24.4639 49.1813 24.1347C47.2186 22.0543 45.2163 19.9341 43.1798 17.7771C41.1007 19.9881 39.121 22.0968 37.1016 24.2397Z"/>
</mask>
<path d="M109.313 78.9779C108.898 80.7234 108.611 82.5086 108.052 84.203C104.893 93.7707 96.114 100.253 86.031 100.458C81.569 100.548 77.104 100.486 72.6391 100.486C71.2162 100.486 70.4692 99.907 70.4976 98.8625C70.526 97.8691 71.2843 97.293 72.6164 97.2901C76.7973 97.2816 80.9782 97.2929 85.1591 97.2873C95.5602 97.2731 103.859 90.4017 105.814 80.1898C107.984 68.8425 99.4656 57.4016 87.9567 56.238C86.6247 56.1046 85.2727 56.1301 83.9292 56.1216C82.2364 56.1131 81.7905 55.7214 81.6712 54.044C81.0208 44.9503 73.3577 37.0288 64.2632 36.0411C53.4729 34.8689 44.3613 41.4536 42.0948 52.0572C41.7596 53.6268 40.9984 54.0213 39.3539 53.4792C29.4641 50.2152 19.1794 55.8803 16.7567 65.9617C16.4783 67.1226 16.3789 68.3345 16.2795 69.5294C16.1517 71.0989 15.862 71.4253 14.2799 71.7375C9.52532 72.6798 6.19936 75.4187 4.49519 79.9315C1.29704 88.3894 7.53996 97.2618 16.6715 97.2788C32.6509 97.3043 48.6303 97.2873 64.6097 97.2873C64.9988 97.2873 65.3936 97.2646 65.777 97.3157C66.72 97.4349 67.2824 98.0706 67.2625 98.942C67.2455 99.8304 66.6717 100.395 65.7003 100.475C65.4532 100.495 65.2033 100.489 64.9562 100.489C48.9768 100.489 32.9974 100.5 17.018 100.483C9.23278 100.475 2.96145 95.7745 1.0045 88.5427C-1.26773 80.1586 3.77945 71.255 12.1213 68.9816C12.9081 68.7659 13.1666 68.4395 13.1637 67.6136C13.1353 56.4622 13.1438 45.3079 13.1438 34.1565C13.1438 32.4649 13.5926 31.7639 14.6861 31.7355C15.8137 31.7071 16.3391 32.4791 16.3391 34.1792C16.3391 41.8623 16.3391 49.5454 16.3391 57.2285C16.3391 57.6145 16.3391 58.0033 16.3391 58.3893C16.4329 58.4603 16.5266 58.5341 16.6203 58.605C16.7197 58.4007 16.7936 58.1793 16.9242 57.9977C18.7051 55.5142 20.9035 53.482 23.5961 52.0345C24.2749 51.6684 24.3033 51.1859 24.3033 50.5672C24.2948 38.0335 24.2976 25.4999 24.2976 12.9663C24.2976 11.2548 24.61 10.8745 26.4165 10.5027C24.3686 8.32578 22.3719 6.20276 20.3212 4.02016C18.2819 6.18857 16.2966 8.29739 14.3623 10.3551C14.9588 10.7099 15.6717 10.9199 15.9955 11.3939C16.3164 11.8622 16.3221 12.5973 16.325 13.216C16.3505 17.5358 16.342 21.8556 16.3335 26.1754C16.3335 26.5955 16.3193 27.0354 16.1971 27.4327C15.9529 28.2104 15.3536 28.5482 14.5555 28.4687C13.7971 28.3949 13.3199 27.9607 13.195 27.2057C13.1382 26.8594 13.1467 26.499 13.1467 26.147C13.1438 22.4658 13.1438 18.7818 13.1438 15.1006C13.1438 14.7203 13.1438 14.34 13.1438 13.8092C12.1895 13.8092 11.3289 13.9228 10.5194 13.7695C9.97125 13.6673 9.35491 13.2983 9.01408 12.8584C8.55112 12.2624 8.81241 11.5812 9.32366 11.0391C12.5786 7.585 15.8222 4.12233 19.0942 0.682395C19.8781 -0.140692 20.7927 -0.11513 21.5993 0.736339C24.8429 4.15357 28.0865 7.56795 31.2591 11.0476C31.6227 11.4478 31.8045 12.3646 31.5971 12.8329C31.3898 13.2983 30.6172 13.6531 30.035 13.7723C29.2624 13.9284 28.4302 13.8121 27.5611 13.8121C27.5611 25.9937 27.5611 38.0506 27.5611 50.0023C30.2963 49.7356 33.0457 49.4688 35.9001 49.1906C35.9001 42.166 35.9001 34.9342 35.9001 27.5746C35.0566 27.5746 34.196 27.6882 33.3865 27.5349C32.8355 27.4328 32.0913 27.0609 31.9181 26.6182C31.7249 26.1215 31.8669 25.2218 32.2248 24.8272C35.3974 21.3447 38.641 17.9304 41.8846 14.5131C42.714 13.6361 43.6456 13.6247 44.4664 14.4932C47.71 17.9105 50.9252 21.3504 54.1574 24.7761C54.6715 25.3211 54.9499 26.0051 54.4926 26.5898C54.1319 27.0496 53.4815 27.4157 52.8992 27.5349C52.1267 27.6939 51.2973 27.5746 50.4424 27.5746C50.4424 30.2596 50.4424 32.8311 50.4424 35.2918C53.1917 34.3949 55.9553 33.4952 58.8127 32.5643C58.8127 27.3277 58.8127 21.8897 58.8127 16.3211C57.9208 16.3211 57.0602 16.4318 56.2479 16.2813C55.6969 16.1792 54.9499 15.813 54.7766 15.3731C54.5807 14.8764 54.7141 13.9739 55.0749 13.5793C58.2702 10.0713 61.5393 6.63135 64.8113 3.19142C65.5782 2.38536 66.5439 2.40239 67.3278 3.22831C70.5714 6.64555 73.8122 10.0628 76.9848 13.5424C77.3483 13.9426 77.5329 14.8565 77.3256 15.3277C77.1211 15.7932 76.3542 16.1593 75.7748 16.2813C74.9994 16.4403 74.1672 16.3211 73.2896 16.3211C73.2611 16.7213 73.2214 17.0278 73.2214 17.3372C73.2186 23.1782 73.2072 29.0222 73.2441 34.8632C73.247 35.2691 73.5054 35.8481 73.8292 36.0553C76.8711 37.9824 79.3933 40.4148 81.3247 43.4574C81.3787 43.5425 81.4411 43.6249 81.6258 43.886C81.6258 39.8387 81.6258 36.0156 81.6258 32.0676C80.7566 32.0676 79.896 32.1811 79.0837 32.0278C78.5384 31.9228 77.8283 31.5453 77.6267 31.094C77.425 30.6428 77.5585 29.7629 77.8965 29.3911C81.1202 25.8604 84.4092 22.3892 87.704 18.9266C88.4424 18.1517 89.3968 18.1574 90.1409 18.9408C93.4328 22.4091 96.719 25.8802 99.9399 29.4138C100.275 29.7828 100.372 30.6484 100.184 31.1281C100.017 31.5538 99.3264 31.9342 98.8123 32.025C97.9943 32.1726 97.128 32.0647 96.1708 32.0647C96.1509 32.5103 96.1197 32.8821 96.1197 33.2568C96.1169 36.7251 96.1083 40.1963 96.1225 43.6646C96.1254 44.465 95.9464 45.1575 95.1767 45.5321C94.0605 46.0742 92.9358 45.2597 92.9301 43.8775C92.913 40.3722 92.9244 36.867 92.9244 33.3618C92.9244 32.6551 92.9244 31.9455 92.9244 31.2388C92.9272 29.4763 93.1914 29.1442 95.0092 28.7667C92.9812 26.6125 91.0072 24.5122 88.9253 22.2955C86.8831 24.4554 84.8836 26.5699 82.8471 28.7241C84.7472 29.2407 84.9006 29.4479 84.9006 31.4034C84.9006 38.1301 84.9006 44.8567 84.9006 51.5833C84.9006 51.9664 84.9006 52.3496 84.9006 52.6306C87.6159 53.0279 90.2204 53.4111 92.9244 53.8084C92.9244 52.7952 92.913 51.711 92.9272 50.6239C92.9414 49.429 93.5066 48.7762 94.4951 48.7677C95.4806 48.762 96.0941 49.429 96.114 50.5927C96.1367 51.938 96.0771 53.2862 96.1481 54.6287C96.168 54.9976 96.4378 55.5057 96.7446 55.6816C103.925 59.7999 108.123 65.9021 109.159 74.1415C109.176 74.2721 109.264 74.3941 109.318 74.5218C109.313 76.0034 109.313 77.4906 109.313 78.9779ZM72.1875 13.0457C70.08 10.8035 68.0805 8.68339 66.0468 6.52066C63.9734 8.7288 61.9824 10.849 59.9204 13.0486C61.6785 13.304 62.0676 13.7553 62.0705 15.393C62.0733 20.7374 62.0733 26.0817 62.0733 31.429C62.0733 31.8093 62.0733 32.1896 62.0733 32.4309C64.7914 32.9503 67.3761 33.447 70.0289 33.955C70.0289 33.6712 70.0289 33.288 70.0289 32.902C70.0289 27.0609 70.0261 21.2198 70.0318 15.3816C70.0289 13.7496 70.418 13.3012 72.1875 13.0457ZM37.1016 24.2397C38.9534 24.6541 39.175 24.9408 39.175 26.8594C39.175 33.762 39.175 40.6617 39.175 47.5643C39.175 48.2228 39.175 48.8812 39.175 49.5397C39.3852 49.429 39.4732 49.2871 39.5187 49.1339C40.8365 44.7857 43.2508 41.1613 46.6676 38.1698C46.9772 37.9001 47.1675 37.3325 47.1732 36.8983C47.213 33.5718 47.1817 30.2454 47.2101 26.919C47.2158 26.3003 47.213 25.5595 47.5339 25.1025C47.8577 24.6428 48.5848 24.4639 49.1813 24.1347C47.2186 22.0543 45.2163 19.9341 43.1798 17.7771C41.1007 19.9881 39.121 22.0968 37.1016 24.2397Z" fill="#FA63A1" stroke="white" mask="url(#path-1-inside-1_30_448)"/>
<path d="M84.6761 75.6478C84.6623 81.3316 80.0363 85.945 74.3723 85.9311C68.7245 85.9173 64.0759 81.2524 64.0842 75.6091C64.0926 69.9467 68.7256 65.3433 74.4139 65.3516C80.1212 65.3627 84.69 69.9451 84.6761 75.6478ZM66.7739 75.6493L67.0239 75.6484L66.7739 75.6493C66.7886 79.8117 70.2522 83.2556 74.4123 83.2409C78.5984 83.2262 81.9897 79.804 81.978 75.6052C81.9662 71.3828 78.5961 68.03 74.3681 68.0417C70.1723 68.0535 66.7592 71.4713 66.7739 75.6493Z" fill="#FA63A1" stroke="white" stroke-width="0.5"/>
<path d="M41.5619 65.3519L41.5604 65.3519C39.8481 65.3298 38.2929 65.7332 36.9871 66.8315C34.0551 69.3038 34.7084 73.6812 38.2186 75.166L38.2186 75.166C38.7807 75.4039 39.3577 75.6362 39.9371 75.8695C40.6771 76.1674 41.4211 76.467 42.1436 76.782L42.1437 76.7821C42.2606 76.8331 42.3793 76.8841 42.4992 76.9356C43.2228 77.2461 43.9888 77.5748 44.635 78.0534L41.5619 65.3519ZM41.5619 65.3519C43.5937 65.3657 45.4 66.0754 47.0554 67.2339L47.0556 67.2341M41.5619 65.3519L47.0556 67.2341M47.0556 67.2341C47.4908 67.538 47.7395 67.8889 47.8293 68.2304C47.9178 68.5673 47.859 68.9206 47.6312 69.2554C47.396 69.5999 47.0934 69.7821 46.7568 69.8205C46.4142 69.8595 46.0028 69.7531 45.5542 69.4525L45.554 69.4523M47.0556 67.2341L45.554 69.4523M45.554 69.4523C44.1071 68.4846 42.508 67.7906 40.6812 68.1228C39.9212 68.2598 39.0811 68.6201 38.51 69.1539L38.5099 69.154M45.554 69.4523L38.5099 69.154M38.5099 69.154C37.9146 69.7111 37.703 70.4276 37.8474 71.0946C37.991 71.7578 38.4796 72.341 39.2216 72.6573M38.5099 69.154L43.8333 74.5472M43.8333 74.5472L43.8328 74.547C43.0755 74.218 42.3076 73.9099 41.5355 73.6015C41.4918 73.584 41.448 73.5666 41.4042 73.5491C40.6765 73.2585 39.9454 72.9665 39.2216 72.6573M43.8333 74.5472C44.6057 74.8808 45.3679 75.2436 46.0201 75.72L43.8333 74.5472ZM39.2216 72.6573L39.3198 72.4274M39.2216 72.6573C39.2217 72.6573 39.2217 72.6574 39.2218 72.6574L39.3198 72.4274M39.3198 72.4274C40.0408 72.7354 40.7693 73.0263 41.4977 73.3172C42.3131 73.6428 43.1283 73.9684 43.9324 74.3177L39.3198 72.4274ZM43.3426 85.7095L43.3427 85.7095C45.9154 85.1838 47.7413 83.6852 48.341 81.0429C48.6018 79.893 48.4715 78.8989 48.0589 78.029C47.6442 77.1548 46.9367 76.3907 46.0201 75.72L43.3426 85.7095ZM43.3426 85.7095C40.0778 86.378 37.2159 85.3947 34.7907 83.1075M43.3426 85.7095L42.917 83.0364M42.917 83.0364L42.9164 83.0366C40.4977 83.5802 38.42 82.8077 36.6511 81.18C36.2324 80.7952 35.845 80.6111 35.5061 80.5832C35.1762 80.556 34.8559 80.6735 34.5527 80.9702C34.2305 81.2859 34.1012 81.6244 34.1308 81.9634C34.161 82.3099 34.3612 82.7023 34.7907 83.1075M42.917 83.0364C43.5887 82.8839 44.2643 82.5068 44.776 82.0582L44.7763 82.058M42.917 83.0364L44.7763 82.058M34.7907 83.1075L34.6191 83.2893M34.7907 83.1075L34.6191 83.2893M34.6191 83.2893C37.0959 85.6252 40.0384 86.6413 43.3927 85.9544L34.3777 80.7917C33.6478 81.5069 33.7046 82.4265 34.6191 83.2893ZM44.7763 82.058C45.4544 81.4621 45.8091 80.7421 45.786 80.0118M44.7763 82.058L45.786 80.0118M45.786 80.0118C45.7628 79.2804 45.3622 78.5905 44.6351 78.0534L45.786 80.0118Z" fill="#FA63A1" stroke="white" stroke-width="0.5"/>
<path d="M54.5862 68.1043H54.8362C56.087 68.1043 57.2966 68.1069 58.4916 68.1094C59.0686 68.1107 59.6422 68.1119 60.2154 68.1128C60.8312 68.11 61.2868 67.9616 61.5798 67.7262C61.8649 67.4972 62.0202 67.1672 62.008 66.7351L62.008 66.7346C61.997 66.3167 61.8374 66.0023 61.559 65.7858C61.2735 65.5636 60.8374 65.4254 60.2459 65.4227L54.5862 68.1043ZM54.5862 68.1043V68.3543V68.3658V68.3773V68.3887V68.4002V68.4116V68.4231V68.4345V68.446V68.4574V68.4689V68.4803V68.4917V68.5032V68.5146V68.526V68.5374V68.5489V68.5603V68.5717V68.5831V68.5945V68.6059V68.6173V68.6287V68.6401V68.6514V68.6628V68.6742V68.6856V68.697V68.7083V68.7197V68.731V68.7424V68.7538V68.7651V68.7765V68.7878V68.7991V68.8105V68.8218V68.8332V68.8445V68.8558V68.8671V68.8785V68.8898V68.9011V68.9124V68.9237V68.935V68.9463V68.9576V68.9689V68.9802V68.9915V69.0028V69.0141V69.0254V69.0366V69.0479V69.0592V69.0705V69.0817V69.093V69.1042V69.1155V69.1268V69.138V69.1493V69.1605V69.1718V69.183V69.1942V69.2055V69.2167V69.2279V69.2392V69.2504V69.2616V69.2729V69.2841V69.2953V69.3065V69.3177V69.3289V69.3401V69.3513V69.3625V69.3737V69.3849V69.3961V69.4073V69.4185V69.4297V69.4409V69.4521V69.4632V69.4744V69.4856V69.4968V69.5079V69.5191V69.5303V69.5414V69.5526V69.5637V69.5749V69.5861V69.5972V69.6084V69.6195V69.6307V69.6418V69.6529V69.6641V69.6752V69.6863V69.6975V69.7086V69.7197V69.7309V69.742V69.7531V69.7642V69.7754V69.7865V69.7976V69.8087V69.8198V69.8309V69.842V69.8531V69.8642V69.8753V69.8864V69.8975V69.9086V69.9197V69.9308V69.9419V69.953V69.9641V69.9752V69.9863V69.9973V70.0084V70.0195V70.0306V70.0417V70.0527V70.0638V70.0749V70.0859V70.097V70.1081V70.1191V70.1302V70.1413V70.1523V70.1634V70.1744V70.1855V70.1966V70.2076V70.2187V70.2297V70.2408V70.2518V70.2629V70.2739V70.2849V70.296V70.307V70.3181V70.3291V70.3401V70.3512V70.3622V70.3732V70.3843V70.3953V70.4063V70.4174V70.4284V70.4394V70.4504V70.4615V70.4725V70.4835V70.4945V70.5055V70.5166V70.5276V70.5386V70.5496V70.5606V70.5716V70.5827V70.5937V70.6047V70.6157V70.6267V70.6377V70.6487V70.6597V70.6707V70.6817V70.6927V70.7037V70.7147V70.7257V70.7367V70.7477V70.7587V70.7697V70.7807V70.7917V70.8027V70.8137V70.8247V70.8357V70.8467V70.8577V70.8687V70.8797V70.8907V70.9017V70.9126V70.9236V70.9346V70.9456V70.9566V70.9676V70.9786V70.9896V71.0005V71.0115V71.0225V71.0335V71.0445V71.0555V71.0664V71.0774V71.0884V71.0994V71.1104V71.1214V71.1323V71.1433V71.1543V71.1653V71.1763V71.1872V71.1982V71.2092V71.2202V71.2312V71.2421V71.2531V71.2641V71.2751V71.2861V71.297V71.308V71.319V71.33V71.341V71.3519V71.3629V71.3739V71.3849V71.3959V71.4068V71.4178V71.4288V71.4398V71.4508V71.4617V71.4727V71.4837V71.4947V71.5057V71.5166V71.5276V71.5386V71.5496V71.5606V71.5715V71.5825V71.5935V71.6045V71.6155V71.6265V71.6374V71.6484V71.6594V71.6704V71.6814V71.6924V71.7034V71.7143V71.7253V71.7363V71.7473V71.7583V71.7693V71.7803V71.7913V71.8023V71.8133V71.8242V71.8352V71.8462V71.8572V71.8682V71.8792V71.8902V71.9012V71.9122V71.9232V71.9342V71.9452V71.9562V71.9672V71.9782V71.9892V72.0002V72.0112V72.0222V72.0332V72.0442V72.0552V72.0663V72.0773V72.0883V72.0993V72.1103V72.1213V72.1323V72.1433V72.1544V72.1654V72.1764V72.1874V72.1984V72.2095V72.2205V72.2315V72.2425V72.2536V72.2646V72.2756V72.2866V72.2977V72.3087V72.3197V72.3308V72.3418V72.3529V72.3639V72.3749V72.386V72.397V72.4081V72.4191V72.4302V72.4412V72.4522V72.4633V72.4744V72.4854V72.4965V72.5075V72.5186V72.5296V72.5407V72.5518V72.5628V72.5739V72.585V72.596V72.6071V72.6182V72.6292V72.6403V72.6514V72.6625V72.6735V72.6846V72.6957V72.7068V72.7179V72.729V72.7401V72.7512V72.7622V72.7733V72.7844V72.7955V72.8066V72.8177V72.8288V72.84V72.8511V72.8622V72.8733V72.8844V72.8955V72.9066V72.9178V72.9289V72.94V72.9511V72.9623V72.9734V72.9845V72.9957V73.0068V73.0179V73.0291V73.0402V73.0514V73.0625V73.0737V73.0848V73.096V73.1071V73.1183V73.1294V73.1406V73.1518V73.1629V73.1741V73.1853V73.1964V73.2076V73.2188V73.23V73.2412V73.2523V73.2635V73.2747V73.2859V73.2971V73.3083V73.3195V73.3307V73.3419V73.3531V73.3643V73.3755V73.3868V73.398V73.4092V73.4204V73.4316V73.4429V73.4541V73.4653V73.4766V73.4878V73.4991V73.5103V73.5215V73.5328V73.544V73.5553V73.5666V73.5778V73.5891V73.6003V73.6116V73.6229V73.6342V73.6454V73.6567V73.668V73.6793V73.6906V73.7019V73.7132V73.7245V73.7358V73.7471V73.7584V73.7697V73.781V73.7923V73.8036V73.815V73.8263V73.8376V73.8489V73.8603V73.8716V73.883V73.8943V73.9057V73.917V73.9284V73.9397V73.9511V73.9624V73.9738V73.9852V73.9965V74.0079V74.0193V74.0307V74.0421V74.0535V74.3035H54.8362C55.3073 74.3035 55.7736 74.303 56.2366 74.3025C57.3831 74.3014 58.5095 74.3002 59.6378 74.3063L59.6381 74.3063C60.2823 74.309 60.7357 74.4455 61.0217 74.6675C61.2969 74.881 61.4476 75.1973 61.4427 75.6429C61.4377 76.0871 61.28 76.4069 60.9978 76.624C60.7057 76.8487 60.2495 76.9868 59.6092 76.9908M54.5862 68.1043L59.6092 76.9908M59.6092 76.9908C58.5061 76.9969 57.4035 76.9957 56.2704 76.9946C55.8085 76.9941 55.3416 76.9936 54.8675 76.9936H54.6175V77.2436V77.2547V77.2658V77.277V77.2881V77.2992V77.3103V77.3213V77.3324V77.3435V77.3546V77.3657V77.3768V77.3879V77.399V77.4101V77.4211V77.4322V77.4433V77.4544V77.4654V77.4765V77.4876V77.4986V77.5097V77.5208V77.5318V77.5429V77.5539V77.565V77.5761V77.5871V77.5982V77.6092V77.6203V77.6313V77.6424V77.6534V77.6644V77.6755V77.6865V77.6976V77.7086V77.7196V77.7307V77.7417V77.7527V77.7637V77.7748V77.7858V77.7968V77.8078V77.8188V77.8299V77.8409V77.8519V77.8629V77.8739V77.8849V77.8959V77.9069V77.9179V77.9289V77.94V77.951V77.962V77.9729V77.9839V77.9949V78.0059V78.0169V78.0279V78.0389V78.0499V78.0609V78.0719V78.0828V78.0938V78.1048V78.1158V78.1268V78.1377V78.1487V78.1597V78.1707V78.1816V78.1926V78.2036V78.2145V78.2255V78.2365V78.2474V78.2584V78.2694V78.2803V78.2913V78.3022V78.3132V78.3242V78.3351V78.3461V78.357V78.368V78.3789V78.3899V78.4008V78.4118V78.4227V78.4336V78.4446V78.4555V78.4665V78.4774V78.4883V78.4993V78.5102V78.5212V78.5321V78.543V78.5539V78.5649V78.5758V78.5867V78.5977V78.6086V78.6195V78.6304V78.6414V78.6523V78.6632V78.6741V78.685V78.696V78.7069V78.7178V78.7287V78.7396V78.7505V78.7615V78.7724V78.7833V78.7942V78.8051V78.816V78.8269V78.8378V78.8487V78.8596V78.8705V78.8814V78.8923V78.9033V78.9142V78.9251V78.936V78.9469V78.9577V78.9686V78.9795V78.9904V79.0013V79.0122V79.0231V79.034V79.0449V79.0558V79.0667V79.0776V79.0885V79.0994V79.1102V79.1211V79.132V79.1429V79.1538V79.1647V79.1756V79.1864V79.1973V79.2082V79.2191V79.23V79.2409V79.2517V79.2626V79.2735V79.2844V79.2952V79.3061V79.317V79.3279V79.3388V79.3496V79.3605V79.3714V79.3823V79.3931V79.404V79.4149V79.4257V79.4366V79.4475V79.4584V79.4692V79.4801V79.491V79.5018V79.5127V79.5236V79.5344V79.5453V79.5562V79.567V79.5779V79.5888V79.5996V79.6105V79.6214V79.6322V79.6431V79.654V79.6648V79.6757V79.6866V79.6974V79.7083V79.7192V79.73V79.7409V79.7517V79.7626V79.7735V79.7843V79.7952V79.8061V79.8169V79.8278V79.8386V79.8495V79.8604V79.8712V79.8821V79.8929V79.9038V79.9147V79.9255V79.9364V79.9472V79.9581V79.969V79.9798V79.9907V80.0015V80.0124V80.0233V80.0341V80.045V80.0558V80.0667V80.0776V80.0884V80.0993V80.1101V80.121V80.1319V80.1427V80.1536V80.1644V80.1753V80.1862V80.197V80.2079V80.2187V80.2296V80.2405V80.2513V80.2622V80.273V80.2839V80.2948V80.3056V80.3165V80.3274V80.3382V80.3491V80.3599V80.3708V80.3817V80.3925V80.4034V80.4143V80.4251V80.436V80.4469V80.4577V80.4686V80.4795V80.4903V80.5012V80.512V80.5229V80.5338V80.5447V80.5555V80.5664V80.5773V80.5881V80.599V80.6099V80.6207V80.6316V80.6425V80.6533V80.6642V80.6751V80.686V80.6968V80.7077V80.7186V80.7295V80.7403V80.7512V80.7621V80.773V80.7838V80.7947V80.8056V80.8165V80.8274V80.8382V80.8491V80.86V80.8709V80.8818V80.8926V80.9035V80.9144V80.9253V80.9362V80.9471V80.9579V80.9688V80.9797V80.9906V81.0015V81.0124V81.0233V81.0342V81.0451V81.056V81.0668V81.0777V81.0886V81.0995V81.1104V81.1213V81.1322V81.1431V81.154V81.1649V81.1758V81.1867V81.1976V81.2085V81.2194V81.2303V81.2412V81.2521V81.263V81.274V81.2849V81.2958V81.3067V81.3176V81.3285V81.3394V81.3503V81.3612V81.3722V81.3831V81.394V81.4049V81.4158V81.4268V81.4377V81.4486V81.4595V81.4704V81.4814V81.4923V81.5032V81.5142V81.5251V81.536V81.5469V81.5579V81.5688V81.5798V81.5907V81.6016V81.6126V81.6235V81.6344V81.6454V81.6563V81.6673V81.6782V81.6892V81.7001V81.7111V81.722V81.733V81.7439V81.7549V81.7658V81.7768V81.7877V81.7987V81.8096V81.8206V81.8316V81.8425V81.8535V81.8645V81.8754V81.8864V81.8974V81.9083V81.9193V81.9303V81.9412V81.9522V81.9632V81.9742V81.9852V81.9961V82.0071V82.0181V82.0291V82.0401V82.0511V82.062V82.073V82.084V82.095V82.106V82.117V82.128V82.139V82.15V82.161V82.172V82.183V82.194V82.205V82.216V82.2271V82.2381V82.2491V82.2601V82.2711V82.2821V82.2932V82.3042V82.3152V82.3262V82.3373V82.3483V82.3593V82.3703V82.3814V82.3924V82.4035V82.4145V82.4255V82.4366V82.4476V82.4587V82.4697V82.4808V82.4918V82.5029V82.5139V82.525V82.536V82.5471V82.5581V82.5692V82.5803V82.5913V82.6024V82.6135V82.6245V82.6356V82.6467V82.6578V82.6688V82.6799V82.691V82.7021V82.7132V82.7242V82.7353V82.7464V82.7575V82.7686V82.7797V82.7908V82.8019V82.813V82.8241V82.8352V82.8463V83.0847L54.8556 83.0961C54.9736 83.1017 55.0904 83.1081 55.2061 83.1144C55.4905 83.1301 55.7682 83.1453 56.0415 83.1474L56.042 83.1474C56.5422 83.1502 57.0406 83.1487 57.5378 83.1473C58.5626 83.1443 59.5826 83.1413 60.6048 83.1756C61.4803 83.2055 62.0149 83.7967 62.0079 84.5183C62.0007 85.2176 61.4873 85.8092 60.6851 85.8263C60.685 85.8263 60.6849 85.8263 60.6848 85.8263L60.6901 86.0762M59.6092 76.9908L52.2261 85.4708C52.0186 85.2534 51.8841 84.9271 51.8475 84.4919M60.6901 86.0762C58.1764 86.1245 55.6599 86.1188 53.1463 86.0762M60.6901 86.0762C61.633 86.0563 62.2494 85.3496 62.2579 84.5209L60.6901 86.0762ZM53.1463 86.0762L53.1507 85.8262C53.1507 85.8262 53.1506 85.8262 53.1505 85.8262L53.1463 86.0762ZM53.1463 86.0762C52.1948 86.0592 51.6778 85.4603 51.5983 84.5124M51.5983 84.5124L51.8475 84.4922C51.8475 84.4921 51.8475 84.492 51.8475 84.4919M51.5983 84.5124C51.5794 84.2782 51.5802 84.0421 51.581 83.8057C51.5811 83.7584 51.5813 83.711 51.5813 83.6637C51.5813 81.8812 51.581 80.099 51.5806 78.3169C51.58 74.753 51.5794 71.1896 51.5813 67.6249L60.2458 65.4227C58.7795 65.4166 57.312 65.4177 55.8444 65.4189C55.2575 65.4194 54.6705 65.4198 54.0836 65.4198C53.5616 65.4198 53.1627 65.4441 52.855 65.5073C52.5499 65.5701 52.3535 65.6675 52.2181 65.8C52.0833 65.9322 51.9845 66.1233 51.9207 66.4208C51.8563 66.7214 51.8313 67.1121 51.8313 67.6249V67.625C51.8294 71.1897 51.83 74.7529 51.8306 78.3167C51.831 80.0989 51.8313 81.8811 51.8313 83.6637C51.8313 83.7129 51.8311 83.7614 51.831 83.8095C51.8302 84.0456 51.8295 84.2693 51.8475 84.4919M51.5983 84.5124L51.8474 84.4915C51.8475 84.4916 51.8475 84.4917 51.8475 84.4919" fill="#FA63A1" stroke="white" stroke-width="0.5"/>
</svg>
