<svg width="97" height="97" viewBox="0 0 97 97" fill="none" xmlns="http://www.w3.org/2000/svg">
<path d="M43.8822 18.622L44.5949 18.9464L44.6034 18.9502L44.6033 18.9503L44.6265 18.9619C44.6306 18.9638 44.6324 18.9646 44.6327 18.9647C44.6328 18.9648 44.6328 18.9648 44.6328 18.9648L44.6421 18.9685L44.6513 18.9731L44.6536 18.9742C44.7295 19.0123 44.8698 19.0825 45.0643 19.0834C45.2145 19.0784 45.323 19.0759 45.4249 19.0759C45.9688 19.0759 46.3269 19.1327 46.558 19.2924C46.8011 19.4603 46.8568 19.7108 46.8981 19.896C46.8998 19.9039 46.9016 19.9117 46.9033 19.9194L46.9053 19.9284C46.9405 20.0845 46.9984 20.3413 46.8197 20.6298C46.6535 20.8982 46.3057 21.1567 45.6762 21.4383L44.9483 21.7647L43.8822 18.622ZM43.8822 18.622L44.2243 17.918C44.2245 17.9176 44.2247 17.9172 44.2249 17.9167C44.2766 17.8132 44.3255 17.7102 44.3738 17.6057C44.374 17.6054 44.3741 17.6051 44.3742 17.6049L44.3929 17.5653C44.4984 17.342 44.6039 17.1187 44.7244 16.8935L44.7247 16.893C49.3013 8.29159 58.1245 2.94937 67.7525 2.94937C69.4166 2.94937 71.101 3.10744 72.7606 3.42115L72.7607 3.42117C81.0743 4.98941 87.8982 10.2242 91.4886 17.7844C95.1321 25.4582 94.8674 34.2053 90.7585 41.7848C86.3003 50.0063 78.9161 54.6516 69.377 55.219L69.3765 55.219C68.7646 55.2566 68.1475 55.2742 67.5451 55.2742C60.6216 55.2742 54.6872 52.8775 49.8934 48.1511C44.6526 42.9835 38.8025 40.1393 32.0169 39.4645C31.0295 39.3649 30.0395 39.3163 29.075 39.3163C24.6659 39.3163 20.4323 40.3492 16.4937 42.3807L16.4917 42.3818C16.3229 42.4709 16.1569 42.6501 16.0345 42.8211C15.912 42.9922 15.7954 43.2074 15.7646 43.3982C15.7352 43.5776 15.7106 43.9152 15.9248 44.1657C16.1189 44.3944 16.4366 44.4839 16.7652 44.4839C17.0852 44.4839 17.4279 44.3963 17.758 44.2394L17.6506 44.0136L17.758 44.2393C21.4851 42.4666 25.3823 41.5689 29.3406 41.5689C36.0628 41.5689 42.5407 44.2414 47.5835 49.1014C47.5836 49.1015 47.5837 49.1016 47.5838 49.1018L47.9699 49.4757L43.8822 18.622ZM42.1462 22.9934L42.1459 22.9935C41.8797 23.1039 41.6177 23.1721 41.3924 23.1721C41.2368 23.1721 41.0491 23.1421 40.8561 22.9986C40.6718 22.8615 40.5042 22.6365 40.3457 22.2922L40.3457 22.2922C39.9575 21.4491 39.5672 20.5583 39.2256 19.7731L39.2256 19.7732L39.4546 19.6728L39.2254 19.7725L42.1462 22.9934ZM42.1462 22.9934C43.0808 22.6044 44.0324 22.1776 44.9478 21.7649L42.1462 22.9934ZM38.8184 18.8439L39.0473 18.7434L38.8183 18.8437L38.8184 18.8439ZM38.9196 16.8009L39.0625 17.006L38.9197 16.8008L38.9196 16.8009ZM41.8711 17.0974L41.3913 17.8331L47.9704 49.4762C48.6268 50.1156 49.3186 50.7854 50.0385 51.3542C55.2149 55.4458 61.1485 57.5217 67.6691 57.5217C69.1404 57.5217 70.6669 57.4171 72.2055 57.208C77.5128 56.4945 82.5165 54.1858 86.6732 50.5329C90.835 46.8773 93.7618 42.2128 95.1309 37.0472C95.4682 35.7758 95.7002 34.4249 95.9224 33.1303C96.0109 32.6138 96.122 31.9747 96.2379 31.3589L96.2423 31.336V31.3126V26.9616V26.9348L96.2366 26.9086C96.2244 26.8528 96.2166 26.82 96.2064 26.7748C96.2026 26.7578 96.1985 26.7391 96.1937 26.7168L96.1933 26.7147C96.1453 26.4998 96.0951 26.2667 96.0689 26.0216C95.7556 22.9772 95.1077 20.3898 94.0877 18.1192L94.0877 18.1191C89.4052 7.70501 81.4514 1.90183 70.467 0.895401C69.4199 0.798489 68.3802 0.75 67.3705 0.75C58.573 0.75 51.2116 4.39926 45.5049 11.5877C44.5909 12.7372 43.7851 14.039 43.0113 15.289L42.999 15.3089C42.9606 15.3706 42.9222 15.4325 42.8837 15.4945C42.5531 16.0267 42.2161 16.5691 41.8712 17.0972L41.8711 17.0974Z" fill="#831EB3" stroke="#831EB3" stroke-width="0.5"/>
<path d="M52.197 77.6288L52.1957 77.8788H52.197H53.4108L52.885 78.9716L52.8837 78.9744C52.8707 79.0023 52.8533 79.0392 52.8345 79.0791C52.8153 79.1198 52.7946 79.1636 52.7754 79.2044L52.726 79.3093L52.71 79.3436L52.7045 79.3555L52.7021 79.3611C52.59 79.6029 52.4812 79.828 52.3606 80.0572C47.7286 88.7461 39.1186 93.9293 29.3255 93.9293C27.9314 93.9293 26.5092 93.8239 25.0968 93.6154C17.9737 92.5598 11.5439 88.4469 7.45868 82.3273L7.45867 82.3272C3.38099 76.2202 2.04649 68.7174 3.78972 61.7442L3.78976 61.7441C4.16961 60.2205 4.75994 58.7559 5.33961 57.3177L5.35004 57.2918L5.35022 57.2914C5.37764 57.223 5.40508 57.1546 5.43251 57.0862C5.56927 56.7453 5.70594 56.4047 5.83905 56.0641C6.02987 55.5821 6.04758 55.0773 5.81706 54.7023C5.64821 54.4257 5.36819 54.2831 5.03499 54.2522L5.035 54.2521L5.02661 54.2516C5.02237 54.2513 5.01806 54.2511 5.01367 54.2508C4.97674 54.2486 4.9348 54.2461 4.89049 54.2461C4.72873 54.2461 4.5273 54.2656 4.3142 54.4153C4.11159 54.5576 3.92353 54.7999 3.73289 55.1856M52.197 77.6288L56.3263 79.5864L55.6293 78.8733L55.1249 79.7326C55.1249 79.7327 55.1248 79.7328 55.1248 79.733C55.1061 79.765 55.0869 79.7968 55.0688 79.8267L55.0686 79.8271C55.0501 79.8578 55.0327 79.8865 55.0162 79.915L55.014 79.9187L55.014 79.9187L54.9998 79.9421C54.9102 80.0899 54.8237 80.2325 54.7417 80.3921L54.7417 80.3923C50.0224 89.5655 42.3013 94.8461 31.8188 96.0864L31.8179 96.0865C31.6134 96.11 31.4387 96.1658 31.2749 96.218L31.2538 96.2247L31.2506 96.2258L31.2159 96.2374L31.1774 96.2502H31.1368H27.0335H26.7835V96.1979C26.2928 96.1082 25.7995 96.0291 25.3175 95.9535L25.3166 95.9533C24.0904 95.7563 22.801 95.5488 21.6211 95.1937C11.0286 92.0179 4.285 84.9756 1.60217 74.2859C-0.0317128 67.7762 0.686746 61.346 3.73289 55.1856M52.197 77.6288L52.1956 77.8788H52.1956L52.1953 77.8788L52.1943 77.8788L52.1905 77.8788L52.1758 77.8787L52.1233 77.8784L51.9639 77.8775L51.804 77.8767L51.7315 77.8763C51.6387 77.8763 51.5661 77.8764 51.4972 77.8808L51.4892 77.8813H51.4811C51.4752 77.8813 51.4673 77.8817 51.4514 77.8824C51.438 77.883 51.418 77.8839 51.3976 77.8839C50.9644 77.8839 50.6738 77.7618 50.4843 77.5807C50.3018 77.4062 50.2443 77.2046 50.2195 77.1177L50.2187 77.1149L50.2186 77.1146C50.137 76.8274 50.1334 76.5505 50.2526 76.3017C50.3708 76.0549 50.59 75.8773 50.8688 75.7463C50.8688 75.7463 50.8688 75.7462 50.8688 75.7462L50.9752 75.9725L52.197 77.6288ZM3.73289 55.1856L3.957 55.2964L3.73289 55.1856ZM58.0272 77.524C57.6071 76.5589 57.1685 75.5588 56.7194 74.5885L56.3264 79.5865C56.5515 79.8171 56.7696 80.001 56.9761 80.1287C57.1796 80.2545 57.3912 80.338 57.5981 80.338C57.7942 80.338 57.9746 80.2634 58.1516 80.1423L58.1544 80.1405C58.2686 80.0633 58.4883 79.9151 58.5792 79.5993C58.6682 79.2903 58.6198 78.8754 58.3633 78.2907L58.0272 77.524Z" fill="#831EB3" stroke="#831EB3" stroke-width="0.5"/>
<mask id="path-3-outside-1_30_508" maskUnits="userSpaceOnUse" x="49.2974" y="10.1733" width="37" height="38" fill="black">
<rect fill="white" x="49.2974" y="10.1733" width="37" height="38"/>
<path d="M67.3832 47.0881C66.3966 47.0881 65.41 47.0855 64.4234 47.083C63.4773 47.0779 63.2547 46.8728 63.156 45.9129L63.1434 45.7762C63.1358 45.6926 63.1282 45.604 63.1155 45.5128C62.7285 42.3876 62.3566 41.8836 59.503 40.6021C59.2981 40.5109 59.0679 40.4628 58.8175 40.4628C58.5341 40.4628 58.2179 40.5236 57.9346 40.6375C57.4767 40.8174 57.0314 41.0149 56.6014 41.2048C56.2498 41.3619 55.8602 41.5316 55.4934 41.681C55.2707 41.7721 55.0633 41.8203 54.8989 41.8203C54.6914 41.8203 54.4384 41.7544 54.1526 41.2656C52.9256 39.1788 51.7038 37.059 50.5249 34.9671C50.1581 34.3162 50.2264 34.0224 50.8512 33.5336C50.8841 33.5083 50.9145 33.4855 50.9474 33.4627L51.0536 33.3842C53.682 31.429 53.8566 31.0618 53.7352 27.7846C53.7124 27.1743 53.3228 26.5918 52.9459 26.2828C52.5361 25.9485 52.1136 25.6446 51.7038 25.3483C51.4027 25.1305 51.0916 24.9076 50.8032 24.6822C50.2289 24.2365 50.1631 23.93 50.5072 23.3171C51.6886 21.2151 52.9256 19.07 54.1829 16.9401C54.4435 16.4969 54.7041 16.4361 54.9216 16.4361C55.0684 16.4361 55.2328 16.469 55.4175 16.5323C55.4934 16.5576 55.5642 16.5931 55.6401 16.6235L55.7843 16.6868C57.163 17.282 57.9219 17.6112 58.7416 17.6112C59.7484 17.6112 60.5352 17.1173 61.962 16.2208C62.5033 15.8789 62.7816 15.2356 62.8575 14.7848C62.9587 14.1643 63.0245 13.5464 63.0852 12.9487L63.0902 12.9082C63.1155 12.6676 63.1408 12.4295 63.1661 12.194C63.2547 11.4291 63.5279 11.1835 64.2969 11.1809C65.4606 11.1759 66.6268 11.1733 67.7931 11.1733C68.9922 11.1733 70.1913 11.1759 71.3878 11.1809C72.2303 11.1835 72.4352 11.3785 72.549 12.27C72.5541 12.313 72.5617 12.3535 72.5693 12.3966C72.1822 15.9068 75.1597 17.1781 76.1438 17.5985C76.3867 17.7024 76.67 17.7556 76.966 17.7556C77.2392 17.7556 77.5225 17.7074 77.7603 17.6163C78.2739 17.4238 78.7621 17.206 79.2377 16.9932C79.559 16.8514 79.8474 16.7223 80.1383 16.6007C80.4115 16.4867 80.6341 16.4335 80.8188 16.4335C81.0389 16.4335 81.2868 16.5095 81.6081 17.0591C82.7996 19.0928 83.9911 21.1568 85.1472 23.1956C85.5596 23.925 85.4913 24.2314 84.7956 24.7658C84.7602 24.7936 84.5831 24.9228 84.5831 24.9228C81.9724 26.8704 81.8029 27.2325 81.98 30.4844C82.0128 31.1226 82.4303 31.6798 82.7768 31.9634C83.1867 32.2977 83.6066 32.6042 84.0139 32.8979C84.3124 33.1157 84.6236 33.3386 84.9145 33.5665C85.4761 34.0047 85.5469 34.3365 85.2079 34.9367L84.9701 35.3596C83.8621 37.3249 82.7212 39.351 81.5196 41.2808C81.4209 41.4378 81.1072 41.6379 80.8289 41.8152C80.791 41.838 80.753 41.8633 80.7151 41.8861C80.5355 41.8101 80.3609 41.7367 80.1914 41.6632C79.4704 41.3568 78.7899 41.0706 78.1474 40.7591C77.8008 40.592 77.4618 40.5109 77.1076 40.5109C76.6118 40.5109 76.1944 40.6705 75.7922 40.825C73.6267 41.6556 72.587 43.2537 72.5237 45.8547C72.4984 46.8829 72.4504 47.0754 71.0438 47.0779H70.1938C69.2502 47.0881 68.3167 47.0881 67.3832 47.0881ZM59.0881 38.2848C59.331 38.2848 59.5966 38.3835 59.9027 38.5836C61.1423 39.394 62.4047 40.1285 63.6569 40.7642C64.2691 41.0757 64.4158 41.3619 64.4588 41.7519C64.5271 42.3622 64.603 42.9701 64.6764 43.5855L64.8813 45.2722H70.8313L70.9401 44.3833C70.9704 44.1351 71.0033 43.8919 71.0387 43.6488L71.0438 43.6133C71.1248 43.0207 71.2032 42.4585 71.2437 41.8532C71.2765 41.372 71.441 41.058 72.2454 40.6781C73.5508 40.0601 74.6664 39.4143 75.6556 38.7052C76.0426 38.4266 76.3588 38.2974 76.6523 38.2974C76.8395 38.2974 77.0393 38.3481 77.267 38.457C77.7831 38.7001 78.289 38.9154 78.8279 39.1433C79.0733 39.2472 79.3085 39.3485 79.5463 39.4523L80.3761 39.8119L83.3536 34.6226L82.6276 34.0857C82.4024 33.9186 82.1849 33.7565 81.9724 33.5969C81.4892 33.2348 81.0338 32.8929 80.5582 32.5636C80.1864 32.3053 79.9789 32.0065 80.0194 31.2467C80.0953 29.8386 80.0953 28.4102 80.0194 26.9995C79.9789 26.2473 80.1889 25.951 80.5658 25.6876C81.0642 25.3432 81.5448 24.981 82.0103 24.6315C82.2178 24.4745 82.4252 24.32 82.6352 24.163L83.3637 23.6236L80.3685 18.4495L78.7317 19.1561C78.1448 19.4093 77.6212 19.6347 77.1026 19.8627C76.9331 19.9387 76.7762 19.9741 76.6295 19.9741C76.3942 19.9741 76.1413 19.8804 75.8326 19.6829C74.6512 18.9231 73.3661 18.1785 72.0178 17.4694C71.441 17.1655 71.3094 16.8995 71.2715 16.5424C71.2082 15.922 71.1298 15.3293 71.0489 14.7038L71.0413 14.643C71.0084 14.3821 70.973 14.1314 70.9426 13.8756L70.8313 12.9892H64.8838L64.6814 14.6734C64.6106 15.2508 64.5373 15.8434 64.4765 16.4487C64.431 16.8919 64.2742 17.1959 63.5684 17.5378C62.2503 18.1785 61.0538 18.8674 60.014 19.5917C59.6498 19.8449 59.3512 19.964 59.0755 19.964C58.8908 19.964 58.6935 19.9133 58.4709 19.8095C57.9498 19.5638 57.4438 19.3486 56.905 19.1181L56.8797 19.108C56.6419 19.0067 56.4142 18.9079 56.184 18.8091L55.3567 18.4495L52.3716 23.6236L53.7756 24.6746C54.2816 25.0545 54.7521 25.4091 55.2303 25.751C55.5389 25.9738 55.7236 26.2347 55.7033 26.8552C55.6553 28.3063 55.6553 29.8056 55.7033 31.4392C55.721 32.0293 55.5515 32.2749 55.2707 32.4826C54.7951 32.8346 54.3221 33.1892 53.8288 33.5564L52.3691 34.648L55.3694 39.822L57.0062 39.1053C57.5627 38.8622 58.0661 38.6444 58.567 38.419C58.7517 38.3278 58.9262 38.2848 59.0881 38.2848Z"/>
</mask>
<path d="M67.3832 47.0881C66.3966 47.0881 65.41 47.0855 64.4234 47.083C63.4773 47.0779 63.2547 46.8728 63.156 45.9129L63.1434 45.7762C63.1358 45.6926 63.1282 45.604 63.1155 45.5128C62.7285 42.3876 62.3566 41.8836 59.503 40.6021C59.2981 40.5109 59.0679 40.4628 58.8175 40.4628C58.5341 40.4628 58.2179 40.5236 57.9346 40.6375C57.4767 40.8174 57.0314 41.0149 56.6014 41.2048C56.2498 41.3619 55.8602 41.5316 55.4934 41.681C55.2707 41.7721 55.0633 41.8203 54.8989 41.8203C54.6914 41.8203 54.4384 41.7544 54.1526 41.2656C52.9256 39.1788 51.7038 37.059 50.5249 34.9671C50.1581 34.3162 50.2264 34.0224 50.8512 33.5336C50.8841 33.5083 50.9145 33.4855 50.9474 33.4627L51.0536 33.3842C53.682 31.429 53.8566 31.0618 53.7352 27.7846C53.7124 27.1743 53.3228 26.5918 52.9459 26.2828C52.5361 25.9485 52.1136 25.6446 51.7038 25.3483C51.4027 25.1305 51.0916 24.9076 50.8032 24.6822C50.2289 24.2365 50.1631 23.93 50.5072 23.3171C51.6886 21.2151 52.9256 19.07 54.1829 16.9401C54.4435 16.4969 54.7041 16.4361 54.9216 16.4361C55.0684 16.4361 55.2328 16.469 55.4175 16.5323C55.4934 16.5576 55.5642 16.5931 55.6401 16.6235L55.7843 16.6868C57.163 17.282 57.9219 17.6112 58.7416 17.6112C59.7484 17.6112 60.5352 17.1173 61.962 16.2208C62.5033 15.8789 62.7816 15.2356 62.8575 14.7848C62.9587 14.1643 63.0245 13.5464 63.0852 12.9487L63.0902 12.9082C63.1155 12.6676 63.1408 12.4295 63.1661 12.194C63.2547 11.4291 63.5279 11.1835 64.2969 11.1809C65.4606 11.1759 66.6268 11.1733 67.7931 11.1733C68.9922 11.1733 70.1913 11.1759 71.3878 11.1809C72.2303 11.1835 72.4352 11.3785 72.549 12.27C72.5541 12.313 72.5617 12.3535 72.5693 12.3966C72.1822 15.9068 75.1597 17.1781 76.1438 17.5985C76.3867 17.7024 76.67 17.7556 76.966 17.7556C77.2392 17.7556 77.5225 17.7074 77.7603 17.6163C78.2739 17.4238 78.7621 17.206 79.2377 16.9932C79.559 16.8514 79.8474 16.7223 80.1383 16.6007C80.4115 16.4867 80.6341 16.4335 80.8188 16.4335C81.0389 16.4335 81.2868 16.5095 81.6081 17.0591C82.7996 19.0928 83.9911 21.1568 85.1472 23.1956C85.5596 23.925 85.4913 24.2314 84.7956 24.7658C84.7602 24.7936 84.5831 24.9228 84.5831 24.9228C81.9724 26.8704 81.8029 27.2325 81.98 30.4844C82.0128 31.1226 82.4303 31.6798 82.7768 31.9634C83.1867 32.2977 83.6066 32.6042 84.0139 32.8979C84.3124 33.1157 84.6236 33.3386 84.9145 33.5665C85.4761 34.0047 85.5469 34.3365 85.2079 34.9367L84.9701 35.3596C83.8621 37.3249 82.7212 39.351 81.5196 41.2808C81.4209 41.4378 81.1072 41.6379 80.8289 41.8152C80.791 41.838 80.753 41.8633 80.7151 41.8861C80.5355 41.8101 80.3609 41.7367 80.1914 41.6632C79.4704 41.3568 78.7899 41.0706 78.1474 40.7591C77.8008 40.592 77.4618 40.5109 77.1076 40.5109C76.6118 40.5109 76.1944 40.6705 75.7922 40.825C73.6267 41.6556 72.587 43.2537 72.5237 45.8547C72.4984 46.8829 72.4504 47.0754 71.0438 47.0779H70.1938C69.2502 47.0881 68.3167 47.0881 67.3832 47.0881ZM59.0881 38.2848C59.331 38.2848 59.5966 38.3835 59.9027 38.5836C61.1423 39.394 62.4047 40.1285 63.6569 40.7642C64.2691 41.0757 64.4158 41.3619 64.4588 41.7519C64.5271 42.3622 64.603 42.9701 64.6764 43.5855L64.8813 45.2722H70.8313L70.9401 44.3833C70.9704 44.1351 71.0033 43.8919 71.0387 43.6488L71.0438 43.6133C71.1248 43.0207 71.2032 42.4585 71.2437 41.8532C71.2765 41.372 71.441 41.058 72.2454 40.6781C73.5508 40.0601 74.6664 39.4143 75.6556 38.7052C76.0426 38.4266 76.3588 38.2974 76.6523 38.2974C76.8395 38.2974 77.0393 38.3481 77.267 38.457C77.7831 38.7001 78.289 38.9154 78.8279 39.1433C79.0733 39.2472 79.3085 39.3485 79.5463 39.4523L80.3761 39.8119L83.3536 34.6226L82.6276 34.0857C82.4024 33.9186 82.1849 33.7565 81.9724 33.5969C81.4892 33.2348 81.0338 32.8929 80.5582 32.5636C80.1864 32.3053 79.9789 32.0065 80.0194 31.2467C80.0953 29.8386 80.0953 28.4102 80.0194 26.9995C79.9789 26.2473 80.1889 25.951 80.5658 25.6876C81.0642 25.3432 81.5448 24.981 82.0103 24.6315C82.2178 24.4745 82.4252 24.32 82.6352 24.163L83.3637 23.6236L80.3685 18.4495L78.7317 19.1561C78.1448 19.4093 77.6212 19.6347 77.1026 19.8627C76.9331 19.9387 76.7762 19.9741 76.6295 19.9741C76.3942 19.9741 76.1413 19.8804 75.8326 19.6829C74.6512 18.9231 73.3661 18.1785 72.0178 17.4694C71.441 17.1655 71.3094 16.8995 71.2715 16.5424C71.2082 15.922 71.1298 15.3293 71.0489 14.7038L71.0413 14.643C71.0084 14.3821 70.973 14.1314 70.9426 13.8756L70.8313 12.9892H64.8838L64.6814 14.6734C64.6106 15.2508 64.5373 15.8434 64.4765 16.4487C64.431 16.8919 64.2742 17.1959 63.5684 17.5378C62.2503 18.1785 61.0538 18.8674 60.014 19.5917C59.6498 19.8449 59.3512 19.964 59.0755 19.964C58.8908 19.964 58.6935 19.9133 58.4709 19.8095C57.9498 19.5638 57.4438 19.3486 56.905 19.1181L56.8797 19.108C56.6419 19.0067 56.4142 18.9079 56.184 18.8091L55.3567 18.4495L52.3716 23.6236L53.7756 24.6746C54.2816 25.0545 54.7521 25.4091 55.2303 25.751C55.5389 25.9738 55.7236 26.2347 55.7033 26.8552C55.6553 28.3063 55.6553 29.8056 55.7033 31.4392C55.721 32.0293 55.5515 32.2749 55.2707 32.4826C54.7951 32.8346 54.3221 33.1892 53.8288 33.5564L52.3691 34.648L55.3694 39.822L57.0062 39.1053C57.5627 38.8622 58.0661 38.6444 58.567 38.419C58.7517 38.3278 58.9262 38.2848 59.0881 38.2848Z" fill="#831EB3"/>
<path d="M67.3832 47.0881C66.3966 47.0881 65.41 47.0855 64.4234 47.083C63.4773 47.0779 63.2547 46.8728 63.156 45.9129L63.1434 45.7762C63.1358 45.6926 63.1282 45.604 63.1155 45.5128C62.7285 42.3876 62.3566 41.8836 59.503 40.6021C59.2981 40.5109 59.0679 40.4628 58.8175 40.4628C58.5341 40.4628 58.2179 40.5236 57.9346 40.6375C57.4767 40.8174 57.0314 41.0149 56.6014 41.2048C56.2498 41.3619 55.8602 41.5316 55.4934 41.681C55.2707 41.7721 55.0633 41.8203 54.8989 41.8203C54.6914 41.8203 54.4384 41.7544 54.1526 41.2656C52.9256 39.1788 51.7038 37.059 50.5249 34.9671C50.1581 34.3162 50.2264 34.0224 50.8512 33.5336C50.8841 33.5083 50.9145 33.4855 50.9474 33.4627L51.0536 33.3842C53.682 31.429 53.8566 31.0618 53.7352 27.7846C53.7124 27.1743 53.3228 26.5918 52.9459 26.2828C52.5361 25.9485 52.1136 25.6446 51.7038 25.3483C51.4027 25.1305 51.0916 24.9076 50.8032 24.6822C50.2289 24.2365 50.1631 23.93 50.5072 23.3171C51.6886 21.2151 52.9256 19.07 54.1829 16.9401C54.4435 16.4969 54.7041 16.4361 54.9216 16.4361C55.0684 16.4361 55.2328 16.469 55.4175 16.5323C55.4934 16.5576 55.5642 16.5931 55.6401 16.6235L55.7843 16.6868C57.163 17.282 57.9219 17.6112 58.7416 17.6112C59.7484 17.6112 60.5352 17.1173 61.962 16.2208C62.5033 15.8789 62.7816 15.2356 62.8575 14.7848C62.9587 14.1643 63.0245 13.5464 63.0852 12.9487L63.0902 12.9082C63.1155 12.6676 63.1408 12.4295 63.1661 12.194C63.2547 11.4291 63.5279 11.1835 64.2969 11.1809C65.4606 11.1759 66.6268 11.1733 67.7931 11.1733C68.9922 11.1733 70.1913 11.1759 71.3878 11.1809C72.2303 11.1835 72.4352 11.3785 72.549 12.27C72.5541 12.313 72.5617 12.3535 72.5693 12.3966C72.1822 15.9068 75.1597 17.1781 76.1438 17.5985C76.3867 17.7024 76.67 17.7556 76.966 17.7556C77.2392 17.7556 77.5225 17.7074 77.7603 17.6163C78.2739 17.4238 78.7621 17.206 79.2377 16.9932C79.559 16.8514 79.8474 16.7223 80.1383 16.6007C80.4115 16.4867 80.6341 16.4335 80.8188 16.4335C81.0389 16.4335 81.2868 16.5095 81.6081 17.0591C82.7996 19.0928 83.9911 21.1568 85.1472 23.1956C85.5596 23.925 85.4913 24.2314 84.7956 24.7658C84.7602 24.7936 84.5831 24.9228 84.5831 24.9228C81.9724 26.8704 81.8029 27.2325 81.98 30.4844C82.0128 31.1226 82.4303 31.6798 82.7768 31.9634C83.1867 32.2977 83.6066 32.6042 84.0139 32.8979C84.3124 33.1157 84.6236 33.3386 84.9145 33.5665C85.4761 34.0047 85.5469 34.3365 85.2079 34.9367L84.9701 35.3596C83.8621 37.3249 82.7212 39.351 81.5196 41.2808C81.4209 41.4378 81.1072 41.6379 80.8289 41.8152C80.791 41.838 80.753 41.8633 80.7151 41.8861C80.5355 41.8101 80.3609 41.7367 80.1914 41.6632C79.4704 41.3568 78.7899 41.0706 78.1474 40.7591C77.8008 40.592 77.4618 40.5109 77.1076 40.5109C76.6118 40.5109 76.1944 40.6705 75.7922 40.825C73.6267 41.6556 72.587 43.2537 72.5237 45.8547C72.4984 46.8829 72.4504 47.0754 71.0438 47.0779H70.1938C69.2502 47.0881 68.3167 47.0881 67.3832 47.0881ZM59.0881 38.2848C59.331 38.2848 59.5966 38.3835 59.9027 38.5836C61.1423 39.394 62.4047 40.1285 63.6569 40.7642C64.2691 41.0757 64.4158 41.3619 64.4588 41.7519C64.5271 42.3622 64.603 42.9701 64.6764 43.5855L64.8813 45.2722H70.8313L70.9401 44.3833C70.9704 44.1351 71.0033 43.8919 71.0387 43.6488L71.0438 43.6133C71.1248 43.0207 71.2032 42.4585 71.2437 41.8532C71.2765 41.372 71.441 41.058 72.2454 40.6781C73.5508 40.0601 74.6664 39.4143 75.6556 38.7052C76.0426 38.4266 76.3588 38.2974 76.6523 38.2974C76.8395 38.2974 77.0393 38.3481 77.267 38.457C77.7831 38.7001 78.289 38.9154 78.8279 39.1433C79.0733 39.2472 79.3085 39.3485 79.5463 39.4523L80.3761 39.8119L83.3536 34.6226L82.6276 34.0857C82.4024 33.9186 82.1849 33.7565 81.9724 33.5969C81.4892 33.2348 81.0338 32.8929 80.5582 32.5636C80.1864 32.3053 79.9789 32.0065 80.0194 31.2467C80.0953 29.8386 80.0953 28.4102 80.0194 26.9995C79.9789 26.2473 80.1889 25.951 80.5658 25.6876C81.0642 25.3432 81.5448 24.981 82.0103 24.6315C82.2178 24.4745 82.4252 24.32 82.6352 24.163L83.3637 23.6236L80.3685 18.4495L78.7317 19.1561C78.1448 19.4093 77.6212 19.6347 77.1026 19.8627C76.9331 19.9387 76.7762 19.9741 76.6295 19.9741C76.3942 19.9741 76.1413 19.8804 75.8326 19.6829C74.6512 18.9231 73.3661 18.1785 72.0178 17.4694C71.441 17.1655 71.3094 16.8995 71.2715 16.5424C71.2082 15.922 71.1298 15.3293 71.0489 14.7038L71.0413 14.643C71.0084 14.3821 70.973 14.1314 70.9426 13.8756L70.8313 12.9892H64.8838L64.6814 14.6734C64.6106 15.2508 64.5373 15.8434 64.4765 16.4487C64.431 16.8919 64.2742 17.1959 63.5684 17.5378C62.2503 18.1785 61.0538 18.8674 60.014 19.5917C59.6498 19.8449 59.3512 19.964 59.0755 19.964C58.8908 19.964 58.6935 19.9133 58.4709 19.8095C57.9498 19.5638 57.4438 19.3486 56.905 19.1181L56.8797 19.108C56.6419 19.0067 56.4142 18.9079 56.184 18.8091L55.3567 18.4495L52.3716 23.6236L53.7756 24.6746C54.2816 25.0545 54.7521 25.4091 55.2303 25.751C55.5389 25.9738 55.7236 26.2347 55.7033 26.8552C55.6553 28.3063 55.6553 29.8056 55.7033 31.4392C55.721 32.0293 55.5515 32.2749 55.2707 32.4826C54.7951 32.8346 54.3221 33.1892 53.8288 33.5564L52.3691 34.648L55.3694 39.822L57.0062 39.1053C57.5627 38.8622 58.0661 38.6444 58.567 38.419C58.7517 38.3278 58.9262 38.2848 59.0881 38.2848Z" stroke="#831EB3" mask="url(#path-3-outside-1_30_508)"/>
<mask id="path-4-outside-2_30_508" maskUnits="userSpaceOnUse" x="10.6744" y="48.8457" width="37" height="38" fill="black">
<rect fill="white" x="10.6744" y="48.8457" width="37" height="38"/>
<path d="M28.096 85.7554C27.3194 85.7554 26.5402 85.7528 25.7636 85.7478C24.8807 85.7427 24.6277 85.5122 24.5367 84.6233L24.5316 84.5574C24.2027 81.1359 23.97 80.7915 20.9545 79.3099C20.7319 79.201 20.4739 79.1428 20.1905 79.1428C19.8971 79.1428 19.5733 79.2035 19.2849 79.315C18.8245 79.4923 18.3767 79.6898 17.9441 79.8823C17.5773 80.0444 17.2029 80.2115 16.8386 80.3559C16.6261 80.4394 16.4389 80.4825 16.277 80.4825C16.062 80.4825 15.8292 80.4192 15.5611 79.9658C14.3442 77.9094 13.1097 75.7617 11.8879 73.5888C11.5489 72.986 11.6197 72.6796 12.2015 72.2161L12.2167 72.2034C14.5492 71.1651 15.5484 69.1542 15.1082 66.381C15.0197 65.8289 14.7136 65.2743 14.3038 64.9349C13.899 64.5981 13.4765 64.2916 13.0692 63.9978C12.7631 63.775 12.452 63.5521 12.1636 63.3242C11.6172 62.8962 11.5463 62.5923 11.8626 62.0275C13.0642 59.8849 14.3139 57.7119 15.5838 55.5694C15.8343 55.1464 16.0797 55.0907 16.2846 55.0907C16.4364 55.0907 16.6084 55.1287 16.8006 55.2021C17.724 55.5618 18.4146 55.8657 19.0471 56.1873C19.4265 56.3823 19.7858 56.476 20.1425 56.476C20.6459 56.476 21.1114 56.2886 21.5237 55.9163C24.1015 55.0932 24.4962 52.9228 24.5493 51.1145C24.5822 50.023 24.6834 49.8482 25.9963 49.8482C25.9963 49.8482 28.7032 49.8457 29.6746 49.8457C30.689 49.8457 31.7009 49.8457 32.7154 49.8508C33.6236 49.8533 33.8032 50.0103 33.9246 50.8917C33.9322 50.9347 33.9373 50.9752 33.9448 51.0158C33.6919 53.4268 34.8859 55.1844 37.4966 56.2405C37.7572 56.3469 38.0582 56.4026 38.3669 56.4026C38.6477 56.4026 38.9234 56.357 39.1637 56.2684C39.6798 56.081 40.1731 55.8606 40.6512 55.6479C40.9548 55.5136 41.2508 55.3794 41.5518 55.2579C41.8048 55.154 42.03 55.1008 42.2045 55.1008C42.417 55.1008 42.6548 55.1718 42.9584 55.6884C44.2789 57.9297 45.4679 59.9887 46.5911 61.9844C46.9251 62.5745 46.8492 62.9114 46.28 63.3672L46.2041 63.4305C43.8312 64.5525 42.8572 66.4975 43.3834 69.0605C43.52 69.7215 43.8337 70.3116 44.241 70.6788C44.6609 71.0562 45.1036 71.3702 45.5337 71.6767C45.8018 71.8691 46.0751 72.0642 46.323 72.2592C46.8517 72.6796 46.9251 73.0088 46.6114 73.5685C45.4325 75.663 44.2207 77.8182 42.9204 79.9101C42.8117 80.0823 42.5106 80.29 42.2197 80.4876C42.1818 80.5129 42.1463 80.5382 42.1109 80.561C41.9389 80.4876 41.7719 80.4166 41.605 80.3457C40.8865 80.0418 40.2136 79.7556 39.5786 79.4441C39.1283 79.2238 38.7362 79.12 38.3441 79.12C37.7926 79.12 37.2816 79.3302 36.8262 79.743C36.6137 79.9355 36.4417 80.0292 36.3582 80.052C34.2585 80.6167 34.127 82.4908 34.0637 83.3924C33.9828 84.5524 33.917 85.2716 33.6691 85.5021C33.4212 85.7326 32.6951 85.7503 31.5315 85.7503L28.096 85.7554ZM20.4739 76.9445C20.7091 76.9445 20.9621 77.0382 21.2707 77.2382C22.5786 78.0841 23.8056 78.7958 25.0224 79.4137C25.6472 79.7328 25.7965 80.0165 25.842 80.4015L26.2594 83.937H32.2094L32.3182 83.048C32.346 82.8175 32.3789 82.5921 32.4118 82.3667L32.4143 82.3414C32.4953 81.7766 32.5712 81.2499 32.5965 80.6876C32.6243 80.0849 32.8166 79.6847 33.7526 79.2922C34.8631 78.8262 35.9788 78.1753 36.9806 77.4079C37.3752 77.104 37.7066 76.9622 38.0228 76.9622C38.2505 76.9622 38.5009 77.0331 38.7868 77.1775C39.2776 77.4282 39.7608 77.6232 40.2743 77.8283C40.5045 77.9195 40.7195 78.0082 40.9396 78.0993L41.7643 78.4488L44.7318 73.2773L44.0032 72.7404C43.8008 72.5909 43.606 72.444 43.4112 72.2997L43.3505 72.2541C42.8698 71.8945 42.417 71.5551 41.9338 71.2208C41.5468 70.9549 41.3469 70.6535 41.4026 69.8253C41.4911 68.4729 41.4911 67.0977 41.4001 65.7377C41.3469 64.9248 41.5569 64.6107 41.944 64.3448C42.4398 64.0029 42.9204 63.6382 43.3834 63.2836L43.4213 63.2558C43.6161 63.1064 43.8134 62.9595 44.0108 62.8126L44.7343 62.2731L41.7441 57.1117L40.1402 57.8031C39.5584 58.0538 39.012 58.2894 38.4681 58.5274C38.3011 58.6009 38.1518 58.6363 38.0076 58.6363C37.7749 58.6363 37.5194 58.5401 37.2057 58.3375C35.9282 57.5093 34.6684 56.7749 33.4566 56.1569C32.809 55.8252 32.6698 55.544 32.6344 55.111C32.5813 54.5006 32.5004 53.9004 32.4194 53.323L32.4118 53.2723C32.3789 53.0292 32.346 52.7886 32.3131 52.548L32.1993 51.6641H26.2493L25.8521 55.1312C25.8041 55.5466 25.6472 55.848 24.987 56.1772C23.8005 56.7648 22.5938 57.4663 21.3011 58.3198C20.9697 58.5376 20.7015 58.6389 20.4587 58.6389C20.3069 58.6389 20.145 58.6009 19.9679 58.5198C19.4367 58.2818 18.9029 58.0488 18.3463 57.8056L16.7349 57.1016L13.7498 62.2731L14.4707 62.8126C14.6807 62.9696 14.8856 63.1266 15.0855 63.2811C15.5484 63.6357 15.9835 63.9725 16.4591 64.2891C16.8867 64.5753 17.1219 64.8994 17.0612 65.7251C16.9575 67.1509 16.9575 68.5337 17.0612 69.8355C17.1219 70.58 16.9499 70.9726 16.4085 71.3348C15.9329 71.6513 15.5054 71.9806 15.0501 72.3301C14.8603 72.477 14.6655 72.6264 14.4707 72.7733L13.7498 73.3127L16.7374 78.4767L18.4399 77.7397C18.9813 77.5067 19.4923 77.2838 20.0033 77.061C20.1754 76.9799 20.3271 76.9445 20.4739 76.9445Z"/>
</mask>
<path d="M28.096 85.7554C27.3194 85.7554 26.5402 85.7528 25.7636 85.7478C24.8807 85.7427 24.6277 85.5122 24.5367 84.6233L24.5316 84.5574C24.2027 81.1359 23.97 80.7915 20.9545 79.3099C20.7319 79.201 20.4739 79.1428 20.1905 79.1428C19.8971 79.1428 19.5733 79.2035 19.2849 79.315C18.8245 79.4923 18.3767 79.6898 17.9441 79.8823C17.5773 80.0444 17.2029 80.2115 16.8386 80.3559C16.6261 80.4394 16.4389 80.4825 16.277 80.4825C16.062 80.4825 15.8292 80.4192 15.5611 79.9658C14.3442 77.9094 13.1097 75.7617 11.8879 73.5888C11.5489 72.986 11.6197 72.6796 12.2015 72.2161L12.2167 72.2034C14.5492 71.1651 15.5484 69.1542 15.1082 66.381C15.0197 65.8289 14.7136 65.2743 14.3038 64.9349C13.899 64.5981 13.4765 64.2916 13.0692 63.9978C12.7631 63.775 12.452 63.5521 12.1636 63.3242C11.6172 62.8962 11.5463 62.5923 11.8626 62.0275C13.0642 59.8849 14.3139 57.7119 15.5838 55.5694C15.8343 55.1464 16.0797 55.0907 16.2846 55.0907C16.4364 55.0907 16.6084 55.1287 16.8006 55.2021C17.724 55.5618 18.4146 55.8657 19.0471 56.1873C19.4265 56.3823 19.7858 56.476 20.1425 56.476C20.6459 56.476 21.1114 56.2886 21.5237 55.9163C24.1015 55.0932 24.4962 52.9228 24.5493 51.1145C24.5822 50.023 24.6834 49.8482 25.9963 49.8482C25.9963 49.8482 28.7032 49.8457 29.6746 49.8457C30.689 49.8457 31.7009 49.8457 32.7154 49.8508C33.6236 49.8533 33.8032 50.0103 33.9246 50.8917C33.9322 50.9347 33.9373 50.9752 33.9448 51.0158C33.6919 53.4268 34.8859 55.1844 37.4966 56.2405C37.7572 56.3469 38.0582 56.4026 38.3669 56.4026C38.6477 56.4026 38.9234 56.357 39.1637 56.2684C39.6798 56.081 40.1731 55.8606 40.6512 55.6479C40.9548 55.5136 41.2508 55.3794 41.5518 55.2579C41.8048 55.154 42.03 55.1008 42.2045 55.1008C42.417 55.1008 42.6548 55.1718 42.9584 55.6884C44.2789 57.9297 45.4679 59.9887 46.5911 61.9844C46.9251 62.5745 46.8492 62.9114 46.28 63.3672L46.2041 63.4305C43.8312 64.5525 42.8572 66.4975 43.3834 69.0605C43.52 69.7215 43.8337 70.3116 44.241 70.6788C44.6609 71.0562 45.1036 71.3702 45.5337 71.6767C45.8018 71.8691 46.0751 72.0642 46.323 72.2592C46.8517 72.6796 46.9251 73.0088 46.6114 73.5685C45.4325 75.663 44.2207 77.8182 42.9204 79.9101C42.8117 80.0823 42.5106 80.29 42.2197 80.4876C42.1818 80.5129 42.1463 80.5382 42.1109 80.561C41.9389 80.4876 41.7719 80.4166 41.605 80.3457C40.8865 80.0418 40.2136 79.7556 39.5786 79.4441C39.1283 79.2238 38.7362 79.12 38.3441 79.12C37.7926 79.12 37.2816 79.3302 36.8262 79.743C36.6137 79.9355 36.4417 80.0292 36.3582 80.052C34.2585 80.6167 34.127 82.4908 34.0637 83.3924C33.9828 84.5524 33.917 85.2716 33.6691 85.5021C33.4212 85.7326 32.6951 85.7503 31.5315 85.7503L28.096 85.7554ZM20.4739 76.9445C20.7091 76.9445 20.9621 77.0382 21.2707 77.2382C22.5786 78.0841 23.8056 78.7958 25.0224 79.4137C25.6472 79.7328 25.7965 80.0165 25.842 80.4015L26.2594 83.937H32.2094L32.3182 83.048C32.346 82.8175 32.3789 82.5921 32.4118 82.3667L32.4143 82.3414C32.4953 81.7766 32.5712 81.2499 32.5965 80.6876C32.6243 80.0849 32.8166 79.6847 33.7526 79.2922C34.8631 78.8262 35.9788 78.1753 36.9806 77.4079C37.3752 77.104 37.7066 76.9622 38.0228 76.9622C38.2505 76.9622 38.5009 77.0331 38.7868 77.1775C39.2776 77.4282 39.7608 77.6232 40.2743 77.8283C40.5045 77.9195 40.7195 78.0082 40.9396 78.0993L41.7643 78.4488L44.7318 73.2773L44.0032 72.7404C43.8008 72.5909 43.606 72.444 43.4112 72.2997L43.3505 72.2541C42.8698 71.8945 42.417 71.5551 41.9338 71.2208C41.5468 70.9549 41.3469 70.6535 41.4026 69.8253C41.4911 68.4729 41.4911 67.0977 41.4001 65.7377C41.3469 64.9248 41.5569 64.6107 41.944 64.3448C42.4398 64.0029 42.9204 63.6382 43.3834 63.2836L43.4213 63.2558C43.6161 63.1064 43.8134 62.9595 44.0108 62.8126L44.7343 62.2731L41.7441 57.1117L40.1402 57.8031C39.5584 58.0538 39.012 58.2894 38.4681 58.5274C38.3011 58.6009 38.1518 58.6363 38.0076 58.6363C37.7749 58.6363 37.5194 58.5401 37.2057 58.3375C35.9282 57.5093 34.6684 56.7749 33.4566 56.1569C32.809 55.8252 32.6698 55.544 32.6344 55.111C32.5813 54.5006 32.5004 53.9004 32.4194 53.323L32.4118 53.2723C32.3789 53.0292 32.346 52.7886 32.3131 52.548L32.1993 51.6641H26.2493L25.8521 55.1312C25.8041 55.5466 25.6472 55.848 24.987 56.1772C23.8005 56.7648 22.5938 57.4663 21.3011 58.3198C20.9697 58.5376 20.7015 58.6389 20.4587 58.6389C20.3069 58.6389 20.145 58.6009 19.9679 58.5198C19.4367 58.2818 18.9029 58.0488 18.3463 57.8056L16.7349 57.1016L13.7498 62.2731L14.4707 62.8126C14.6807 62.9696 14.8856 63.1266 15.0855 63.2811C15.5484 63.6357 15.9835 63.9725 16.4591 64.2891C16.8867 64.5753 17.1219 64.8994 17.0612 65.7251C16.9575 67.1509 16.9575 68.5337 17.0612 69.8355C17.1219 70.58 16.9499 70.9726 16.4085 71.3348C15.9329 71.6513 15.5054 71.9806 15.0501 72.3301C14.8603 72.477 14.6655 72.6264 14.4707 72.7733L13.7498 73.3127L16.7374 78.4767L18.4399 77.7397C18.9813 77.5067 19.4923 77.2838 20.0033 77.061C20.1754 76.9799 20.3271 76.9445 20.4739 76.9445Z" fill="#831EB3"/>
<path d="M28.096 85.7554C27.3194 85.7554 26.5402 85.7528 25.7636 85.7478C24.8807 85.7427 24.6277 85.5122 24.5367 84.6233L24.5316 84.5574C24.2027 81.1359 23.97 80.7915 20.9545 79.3099C20.7319 79.201 20.4739 79.1428 20.1905 79.1428C19.8971 79.1428 19.5733 79.2035 19.2849 79.315C18.8245 79.4923 18.3767 79.6898 17.9441 79.8823C17.5773 80.0444 17.2029 80.2115 16.8386 80.3559C16.6261 80.4394 16.4389 80.4825 16.277 80.4825C16.062 80.4825 15.8292 80.4192 15.5611 79.9658C14.3442 77.9094 13.1097 75.7617 11.8879 73.5888C11.5489 72.986 11.6197 72.6796 12.2015 72.2161L12.2167 72.2034C14.5492 71.1651 15.5484 69.1542 15.1082 66.381C15.0197 65.8289 14.7136 65.2743 14.3038 64.9349C13.899 64.5981 13.4765 64.2916 13.0692 63.9978C12.7631 63.775 12.452 63.5521 12.1636 63.3242C11.6172 62.8962 11.5463 62.5923 11.8626 62.0275C13.0642 59.8849 14.3139 57.7119 15.5838 55.5694C15.8343 55.1464 16.0797 55.0907 16.2846 55.0907C16.4364 55.0907 16.6084 55.1287 16.8006 55.2021C17.724 55.5618 18.4146 55.8657 19.0471 56.1873C19.4265 56.3823 19.7858 56.476 20.1425 56.476C20.6459 56.476 21.1114 56.2886 21.5237 55.9163C24.1015 55.0932 24.4962 52.9228 24.5493 51.1145C24.5822 50.023 24.6834 49.8482 25.9963 49.8482C25.9963 49.8482 28.7032 49.8457 29.6746 49.8457C30.689 49.8457 31.7009 49.8457 32.7154 49.8508C33.6236 49.8533 33.8032 50.0103 33.9246 50.8917C33.9322 50.9347 33.9373 50.9752 33.9448 51.0158C33.6919 53.4268 34.8859 55.1844 37.4966 56.2405C37.7572 56.3469 38.0582 56.4026 38.3669 56.4026C38.6477 56.4026 38.9234 56.357 39.1637 56.2684C39.6798 56.081 40.1731 55.8606 40.6512 55.6479C40.9548 55.5136 41.2508 55.3794 41.5518 55.2579C41.8048 55.154 42.03 55.1008 42.2045 55.1008C42.417 55.1008 42.6548 55.1718 42.9584 55.6884C44.2789 57.9297 45.4679 59.9887 46.5911 61.9844C46.9251 62.5745 46.8492 62.9114 46.28 63.3672L46.2041 63.4305C43.8312 64.5525 42.8572 66.4975 43.3834 69.0605C43.52 69.7215 43.8337 70.3116 44.241 70.6788C44.6609 71.0562 45.1036 71.3702 45.5337 71.6767C45.8018 71.8691 46.0751 72.0642 46.323 72.2592C46.8517 72.6796 46.9251 73.0088 46.6114 73.5685C45.4325 75.663 44.2207 77.8182 42.9204 79.9101C42.8117 80.0823 42.5106 80.29 42.2197 80.4876C42.1818 80.5129 42.1463 80.5382 42.1109 80.561C41.9389 80.4876 41.7719 80.4166 41.605 80.3457C40.8865 80.0418 40.2136 79.7556 39.5786 79.4441C39.1283 79.2238 38.7362 79.12 38.3441 79.12C37.7926 79.12 37.2816 79.3302 36.8262 79.743C36.6137 79.9355 36.4417 80.0292 36.3582 80.052C34.2585 80.6167 34.127 82.4908 34.0637 83.3924C33.9828 84.5524 33.917 85.2716 33.6691 85.5021C33.4212 85.7326 32.6951 85.7503 31.5315 85.7503L28.096 85.7554ZM20.4739 76.9445C20.7091 76.9445 20.9621 77.0382 21.2707 77.2382C22.5786 78.0841 23.8056 78.7958 25.0224 79.4137C25.6472 79.7328 25.7965 80.0165 25.842 80.4015L26.2594 83.937H32.2094L32.3182 83.048C32.346 82.8175 32.3789 82.5921 32.4118 82.3667L32.4143 82.3414C32.4953 81.7766 32.5712 81.2499 32.5965 80.6876C32.6243 80.0849 32.8166 79.6847 33.7526 79.2922C34.8631 78.8262 35.9788 78.1753 36.9806 77.4079C37.3752 77.104 37.7066 76.9622 38.0228 76.9622C38.2505 76.9622 38.5009 77.0331 38.7868 77.1775C39.2776 77.4282 39.7608 77.6232 40.2743 77.8283C40.5045 77.9195 40.7195 78.0082 40.9396 78.0993L41.7643 78.4488L44.7318 73.2773L44.0032 72.7404C43.8008 72.5909 43.606 72.444 43.4112 72.2997L43.3505 72.2541C42.8698 71.8945 42.417 71.5551 41.9338 71.2208C41.5468 70.9549 41.3469 70.6535 41.4026 69.8253C41.4911 68.4729 41.4911 67.0977 41.4001 65.7377C41.3469 64.9248 41.5569 64.6107 41.944 64.3448C42.4398 64.0029 42.9204 63.6382 43.3834 63.2836L43.4213 63.2558C43.6161 63.1064 43.8134 62.9595 44.0108 62.8126L44.7343 62.2731L41.7441 57.1117L40.1402 57.8031C39.5584 58.0538 39.012 58.2894 38.4681 58.5274C38.3011 58.6009 38.1518 58.6363 38.0076 58.6363C37.7749 58.6363 37.5194 58.5401 37.2057 58.3375C35.9282 57.5093 34.6684 56.7749 33.4566 56.1569C32.809 55.8252 32.6698 55.544 32.6344 55.111C32.5813 54.5006 32.5004 53.9004 32.4194 53.323L32.4118 53.2723C32.3789 53.0292 32.346 52.7886 32.3131 52.548L32.1993 51.6641H26.2493L25.8521 55.1312C25.8041 55.5466 25.6472 55.848 24.987 56.1772C23.8005 56.7648 22.5938 57.4663 21.3011 58.3198C20.9697 58.5376 20.7015 58.6389 20.4587 58.6389C20.3069 58.6389 20.145 58.6009 19.9679 58.5198C19.4367 58.2818 18.9029 58.0488 18.3463 57.8056L16.7349 57.1016L13.7498 62.2731L14.4707 62.8126C14.6807 62.9696 14.8856 63.1266 15.0855 63.2811C15.5484 63.6357 15.9835 63.9725 16.4591 64.2891C16.8867 64.5753 17.1219 64.8994 17.0612 65.7251C16.9575 67.1509 16.9575 68.5337 17.0612 69.8355C17.1219 70.58 16.9499 70.9726 16.4085 71.3348C15.9329 71.6513 15.5054 71.9806 15.0501 72.3301C14.8603 72.477 14.6655 72.6264 14.4707 72.7733L13.7498 73.3127L16.7374 78.4767L18.4399 77.7397C18.9813 77.5067 19.4923 77.2838 20.0033 77.061C20.1754 76.9799 20.3271 76.9445 20.4739 76.9445Z" stroke="#831EB3" mask="url(#path-4-outside-2_30_508)"/>
<path d="M8.93817 47.5109L8.76045 47.3351C8.44921 47.6496 8.28245 48.0581 8.28848 48.4844L8.28852 48.4861L11.2984 48.4379L11.5484 48.4345C11.5484 48.4345 11.5484 48.4345 11.5484 48.4345C11.5365 47.5328 10.8437 46.8444 9.93482 46.8355L9.93482 46.8354H9.93236C9.49606 46.8354 9.07063 47.0186 8.75963 47.3359L8.93817 47.5109ZM8.93817 47.5109C8.67254 47.7794 8.5334 48.1238 8.53846 48.4809L9.93236 47.0854C9.56555 47.0854 9.20379 47.2399 8.93817 47.5109Z" fill="#831EB3" stroke="#831EB3" stroke-width="0.5"/>
<path d="M9.93734 50.3517V50.3519L9.94822 50.3515L10.0056 50.349C10.0057 50.349 10.0059 50.349 10.006 50.3489C11.0277 50.3077 11.8133 49.46 11.7988 48.4292L11.7988 48.4292C11.7842 47.4017 10.9707 46.5883 9.93185 46.5796L9.93185 46.5796H9.92975C9.42775 46.5796 8.93666 46.7906 8.57766 47.1558L8.57766 47.1558L8.57695 47.1565C8.22185 47.5207 8.0266 47.9919 8.03544 48.4878L8.03546 48.4885C8.05595 49.488 8.93597 50.3517 9.93734 50.3517Z" fill="#831EB3" stroke="#831EB3" stroke-width="0.5"/>
<path d="M9.9412 49.8455L9.9337 49.8455C9.56545 49.8439 9.22265 49.6774 8.97304 49.4328C8.72345 49.1882 8.55029 48.8489 8.5439 48.4805L9.9412 49.8455ZM9.9412 49.8455L9.94868 49.8451M9.9412 49.8455L9.94868 49.8451M9.94868 49.8451L9.99257 49.8427C10.7396 49.8105 11.307 49.1869 11.2979 48.4351C11.2886 47.6742 10.696 47.0926 9.93681 47.0864L9.93681 47.0864H9.93478C9.56559 47.0864 9.20353 47.2452 8.9413 47.5138L8.94128 47.5138M9.94868 49.8451L8.94128 47.5138M8.94128 47.5138C8.68367 47.7778 8.53759 48.1194 8.5439 48.4804L8.94128 47.5138Z" fill="#831EB3" stroke="#831EB3" stroke-width="0.5"/>
<path d="M9.9412 49.8455L9.9337 49.8455C9.56545 49.8439 9.22265 49.6774 8.97304 49.4328C8.72345 49.1882 8.55029 48.8489 8.5439 48.4805L9.9412 49.8455ZM9.9412 49.8455L9.94868 49.8451M9.9412 49.8455L9.94868 49.8451M9.94868 49.8451L9.99257 49.8427C10.7396 49.8105 11.307 49.1869 11.2979 48.4351C11.2886 47.6742 10.696 47.0926 9.93681 47.0864L9.93681 47.0864H9.93478C9.56559 47.0864 9.20353 47.2452 8.9413 47.5138L8.94128 47.5138M9.94868 49.8451L8.94128 47.5138M8.94128 47.5138C8.68367 47.7778 8.53759 48.1194 8.5439 48.4804L8.94128 47.5138Z" fill="#831EB3" stroke="#831EB3" stroke-width="0.5"/>
<path d="M8.75714 47.3359L8.75712 47.3359C8.45014 47.6492 8.27957 48.0573 8.28854 48.4857C8.30385 49.3494 9.06824 50.0985 9.93493 50.0985H9.98552V50.0987L9.99569 50.0983C10.8818 50.0622 11.5578 49.3277 11.5459 48.4345L11.5459 48.4345C11.5339 47.5446 10.8201 46.8444 9.93239 46.8355L9.93239 46.8354H9.92987C9.49356 46.8354 9.06813 47.0186 8.75714 47.3359Z" fill="#831EB3" stroke="#831EB3" stroke-width="0.5"/>
<path d="M9.04427 48.4712L8.7943 48.4754C8.79937 48.7781 8.9416 49.0553 9.14423 49.2542C9.34695 49.4533 9.62707 49.5907 9.93083 49.5924V49.5924H9.93221H9.9651V49.5926L9.97591 49.5922C10.5849 49.5658 11.0491 49.0528 11.0398 48.44M9.04427 48.4712L8.79433 48.4769C8.78756 48.182 8.90983 47.9032 9.11904 47.6906L9.11908 47.6905C9.33404 47.4722 9.62691 47.3398 9.92968 47.3398H9.93236L9.93236 47.3399C10.5386 47.3463 11.0329 47.8281 11.0398 48.44M9.04427 48.4712C9.05186 48.9245 9.47433 49.3399 9.93221 49.3424L9.92968 47.5898C9.69948 47.5898 9.46927 47.6911 9.29724 47.8659C9.13028 48.0356 9.03921 48.2508 9.04427 48.4712ZM11.0398 48.44C11.0398 48.4398 11.0398 48.4396 11.0398 48.4394L10.7898 48.4433L11.0398 48.4407C11.0398 48.4404 11.0398 48.4402 11.0398 48.44Z" fill="#831EB3" stroke="#831EB3" stroke-width="0.5"/>
<path d="M64.2556 28.9635L64.2556 28.9638C64.2106 29.9375 64.5508 30.8621 65.2132 31.5727L64.2556 28.9635ZM64.2556 28.9635C64.3406 27.072 65.9625 25.5275 67.8663 25.5275C67.9107 25.5275 67.9487 25.5276 67.9831 25.5296L67.9831 25.5297M64.2556 28.9635L67.9831 25.5297M67.9831 25.5297L67.9891 25.5299M67.9831 25.5297L67.9891 25.5299M67.9891 25.5299C69.9579 25.5985 71.508 27.2604 71.4465 29.2358C71.3849 31.1905 69.8104 32.719 67.8562 32.719H67.7757M67.9891 25.5299L67.7757 32.719M67.7757 32.719C66.7886 32.6945 65.8797 32.2872 65.2133 31.5727L67.7757 32.719ZM63.6816 33.2387C64.7475 34.3132 66.1352 34.9334 67.6087 34.9966V35.0045H67.8587L67.8739 35.0045L67.8745 35.0045C71.0856 34.9965 73.7067 32.4083 73.7146 29.229V29.2289C73.7225 25.8625 71.216 23.3035 67.8877 23.2876H67.8865H67.8562C64.5338 23.2876 62.0113 25.8247 61.9876 29.1734L61.9876 29.1734C61.977 30.6865 62.582 32.1299 63.6816 33.2387L63.6816 33.2387Z" fill="#831EB3" stroke="#831EB3" stroke-width="0.5"/>
<path d="M23.3657 67.6307L23.3657 67.6307C23.3077 70.9786 25.7982 73.5603 29.1509 73.6289C29.1972 73.6315 29.2435 73.6316 29.2898 73.629C32.5559 73.6252 35.0507 71.1145 35.0902 67.8053C35.1299 64.6063 32.5664 61.9672 29.3793 61.9248V61.9248H29.376H29.2925C26.0824 61.9248 23.4214 64.4782 23.3657 67.6307ZM25.6314 67.8894L25.6314 67.8893C25.6053 66.9098 25.9625 65.9901 26.6359 65.297C27.317 64.5961 28.2339 64.2077 29.227 64.2052H29.2368C31.2577 64.2052 32.7961 65.7236 32.8245 67.7475L32.8245 67.7476C32.8529 69.7165 31.2761 71.3553 29.3048 71.4018H29.2343C27.336 71.4018 25.681 69.7902 25.6314 67.8894Z" fill="#831EB3" stroke="#831EB3" stroke-width="0.5"/>
</svg>
