<svg width="99" height="97" viewBox="0 0 99 97" fill="none" xmlns="http://www.w3.org/2000/svg">
<mask id="path-1-inside-1_30_484" fill="white">
<path d="M51.0486 97C50.035 97 49.0215 97 48.008 97C47.8636 96.9443 47.7242 96.8607 47.5747 96.8354C43.9387 96.1923 41.1465 94.3009 39.2183 91.1663C38.9345 90.7055 38.6381 90.541 38.1034 90.5182C35.7394 90.422 33.8416 88.8597 33.4235 86.6797C33.1245 85.1099 33.5147 83.6819 34.5308 82.4792C32.6127 79.5041 33.084 76.5493 35.7546 75.0656C36.4033 74.7035 36.4768 74.3161 36.4109 73.7186C36.0257 70.2295 35.0173 66.9379 33.3855 63.8236C33.084 63.2463 32.747 63.0235 32.0806 63.0286C27.6161 63.059 23.1515 63.0767 18.6895 63.0362C10.328 62.9627 3.29419 57.3519 1.35837 49.2547C1.17594 48.4951 1.04162 47.7228 0.884521 46.9556C0.884521 45.8188 0.884521 44.6819 0.884521 43.5426C0.945333 43.302 1.02393 43.0615 1.06447 42.8184C2.18441 36.0783 5.89133 31.3663 12.1954 28.6926C12.7706 28.4495 13.3711 28.2647 13.9843 28.0444C13.4091 22.6817 14.9648 18.1165 19.1304 14.6528C23.3263 11.1638 28.1431 10.508 33.307 12.055C33.4083 11.9157 33.4843 11.817 33.5528 11.7132C39.1398 3.145 47.0376 -0.792203 57.2513 0.131965C67.6956 1.07639 76.7767 9.68255 78.3933 20.0712C78.5225 20.8966 78.8899 21.046 79.5943 21.1524C88.4829 22.4816 94.3587 27.4392 97.2345 35.9061C97.6957 37.2633 97.8731 38.7192 98.1822 40.1295C98.1822 41.3929 98.1822 42.6564 98.1822 43.9198C98.0302 44.7174 97.8934 45.5175 97.7211 46.31C95.5724 56.1239 87.1957 62.9324 77.1162 63.0336C73.7007 63.0691 70.2826 63.026 66.8645 63.0615C66.5301 63.064 66.036 63.2666 65.8865 63.5299C64.0571 66.7557 63.003 70.2295 62.6356 73.9186C62.5799 74.468 62.7522 74.7339 63.2463 75.0124C64.9338 75.9543 65.8611 77.4456 65.6787 79.375C65.5748 80.4561 65.0706 81.4993 64.7133 82.6741C67.2623 85.8923 64.9692 90.5232 60.7631 90.5612C60.4591 90.5637 60.0562 90.9005 59.8738 91.1917C58.2015 93.8426 55.8831 95.6302 52.8755 96.524C52.2699 96.7088 51.6567 96.8455 51.0486 97ZM68.4456 59.6231C72.259 59.6231 75.971 59.9877 79.5867 59.5522C88.5386 58.471 95.243 50.3687 94.8706 41.5499C94.4753 32.169 87.3882 24.8465 78.1171 24.2388C76.3333 24.1224 75.5707 23.3957 75.368 21.6208C74.2151 11.5511 65.4354 3.42859 55.242 3.21843C46.8501 3.04626 40.4371 6.66192 36.0739 13.8299C35.073 15.4732 34.1811 15.7998 32.3618 15.2301C31.3432 14.9111 30.2791 14.6224 29.2225 14.5667C21.7579 14.1743 16.2773 20.1674 17.2351 27.6089C17.529 29.8953 17.0552 30.6067 14.828 31.2195C8.60246 32.9311 4.19114 38.6407 4.13286 45.0668C4.05938 53.1539 10.513 59.7016 18.7022 59.8054C22.437 59.8535 26.1743 59.8155 29.9117 59.813C30.1169 59.813 30.3222 59.7927 30.7605 59.7674C25.6777 54.1059 23.1389 47.6924 23.6532 40.2434C24.1676 32.7994 27.3931 26.6898 33.1397 21.9449C42.5046 14.2122 56.1719 14.1667 65.7699 21.8309C70.5334 25.6365 73.6297 30.546 74.8764 36.5087C76.7108 45.2845 74.3316 52.9691 68.4456 59.6231ZM59.2808 74.2933C59.4861 72.9817 59.6331 71.7284 59.8814 70.4953C60.9937 65.0162 63.5934 60.3093 67.1584 56.0201C71.5267 50.7612 73.1179 44.6136 71.8459 37.9216C69.4287 25.1934 57.4743 17.3038 44.7547 19.8636C34.997 21.8284 27.4336 30.5561 26.8762 40.4738C26.5316 46.6012 28.3863 51.9791 32.3669 56.6379C35.0071 59.7269 37.0494 63.1678 38.2352 67.0468C38.9497 69.3863 39.3678 71.8145 39.9379 74.2933C41.372 74.2933 42.9658 74.2933 44.6482 74.2933C44.6482 73.9135 44.6482 73.6046 44.6482 73.2932C44.6482 70.0396 44.6533 66.786 44.6457 63.5324C44.6406 61.122 43.6195 60.0282 41.2073 59.8003C39.046 59.5978 37.513 58.5141 36.8086 56.4505C35.7242 53.2704 38.0451 50.1459 41.5519 50.113C46.8729 50.0649 52.1938 50.0953 57.5148 50.1105C58.014 50.113 58.5334 50.1763 59.0123 50.313C61.313 50.9764 62.6939 53.1033 62.4506 55.5492C62.22 57.8608 60.2868 59.6054 57.7277 59.8079C55.5283 59.9826 54.416 61.1549 54.4058 63.3603C54.3932 66.7404 54.4008 70.1206 54.4033 73.5008C54.4033 73.7489 54.4363 73.9971 54.4566 74.2908C56.101 74.2933 57.6972 74.2933 59.2808 74.2933ZM45.3222 57.8912C47.3771 59.4914 47.9776 61.636 47.9194 64.1097C47.8459 67.1683 47.9016 70.232 47.9041 73.2932C47.9041 73.6274 47.9371 73.9591 47.9548 74.2958C49.0595 74.2958 50.0554 74.2958 51.1576 74.2958C51.1576 73.8932 51.1576 73.554 51.1576 73.2147C51.1576 69.9637 51.1753 66.7151 51.1525 63.4641C51.1373 61.4714 51.7327 59.7421 53.2048 58.3596C53.3847 58.1925 53.6128 58.076 53.818 57.9393C52.7842 56.4708 52.5359 55.025 53.0224 53.4071C50.666 53.4071 48.4084 53.4071 46.1482 53.4071C46.2597 56.1973 46.2521 56.2454 45.3222 57.8912ZM49.6246 84.0768C49.0874 84.0768 48.5502 84.0768 48.0105 84.0768C44.785 84.0768 41.557 84.0667 38.3315 84.0844C37.1102 84.092 36.388 84.9453 36.611 86.029C36.7808 86.8493 37.4523 87.3026 38.5646 87.3051C41.7597 87.3127 44.9548 87.3076 48.1499 87.3076C52.2623 87.3076 56.3746 87.3026 60.4869 87.3127C61.394 87.3152 62.1314 87.0494 62.4177 86.1227C62.7648 85.0061 61.9591 84.0844 60.6339 84.0794C56.965 84.0692 53.2961 84.0768 49.6246 84.0768ZM49.5207 77.6026C46.6423 77.6026 43.7639 77.6001 40.8855 77.6026C39.9379 77.6026 38.9852 77.5798 38.0401 77.6355C37.1913 77.6861 36.6212 78.2964 36.5882 79.099C36.5528 79.9751 36.9809 80.5447 37.8272 80.7574C38.1592 80.841 38.5164 80.8385 38.861 80.8385C45.9785 80.8435 53.0934 80.8435 60.2108 80.8359C60.5858 80.8359 60.9785 80.8258 61.3358 80.722C62.1339 80.489 62.5266 79.9092 62.4633 79.0813C62.4 78.2533 61.9211 77.757 61.0951 77.638C60.7834 77.5925 60.4642 77.6026 60.1474 77.6026C56.6052 77.6026 53.063 77.6026 49.5207 77.6026ZM42.7352 90.5612C44.8864 92.9134 47.3492 93.9667 50.2884 93.716C52.6372 93.516 54.639 92.5437 56.258 90.5612C51.7074 90.5612 47.3518 90.5612 42.7352 90.5612ZM41.4101 53.3539C40.4903 53.3565 39.8011 54.0604 39.8188 54.9795C39.8366 55.8353 40.5333 56.5392 41.3822 56.5619C42.2538 56.5847 43.0342 55.8327 43.0418 54.9617C43.0519 54.073 42.3197 53.3514 41.4101 53.3539ZM57.6086 53.3489C56.7091 53.3641 55.9793 54.1161 56.0148 54.9972C56.0503 55.8758 56.8408 56.605 57.7099 56.5594C58.5638 56.5164 59.2353 55.8023 59.2353 54.9415C59.2353 54.0274 58.5258 53.3337 57.6086 53.3489Z"/>
</mask>
<path d="M51.0486 97C50.035 97 49.0215 97 48.008 97C47.8636 96.9443 47.7242 96.8607 47.5747 96.8354C43.9387 96.1923 41.1465 94.3009 39.2183 91.1663C38.9345 90.7055 38.6381 90.541 38.1034 90.5182C35.7394 90.422 33.8416 88.8597 33.4235 86.6797C33.1245 85.1099 33.5147 83.6819 34.5308 82.4792C32.6127 79.5041 33.084 76.5493 35.7546 75.0656C36.4033 74.7035 36.4768 74.3161 36.4109 73.7186C36.0257 70.2295 35.0173 66.9379 33.3855 63.8236C33.084 63.2463 32.747 63.0235 32.0806 63.0286C27.6161 63.059 23.1515 63.0767 18.6895 63.0362C10.328 62.9627 3.29419 57.3519 1.35837 49.2547C1.17594 48.4951 1.04162 47.7228 0.884521 46.9556C0.884521 45.8188 0.884521 44.6819 0.884521 43.5426C0.945333 43.302 1.02393 43.0615 1.06447 42.8184C2.18441 36.0783 5.89133 31.3663 12.1954 28.6926C12.7706 28.4495 13.3711 28.2647 13.9843 28.0444C13.4091 22.6817 14.9648 18.1165 19.1304 14.6528C23.3263 11.1638 28.1431 10.508 33.307 12.055C33.4083 11.9157 33.4843 11.817 33.5528 11.7132C39.1398 3.145 47.0376 -0.792203 57.2513 0.131965C67.6956 1.07639 76.7767 9.68255 78.3933 20.0712C78.5225 20.8966 78.8899 21.046 79.5943 21.1524C88.4829 22.4816 94.3587 27.4392 97.2345 35.9061C97.6957 37.2633 97.8731 38.7192 98.1822 40.1295C98.1822 41.3929 98.1822 42.6564 98.1822 43.9198C98.0302 44.7174 97.8934 45.5175 97.7211 46.31C95.5724 56.1239 87.1957 62.9324 77.1162 63.0336C73.7007 63.0691 70.2826 63.026 66.8645 63.0615C66.5301 63.064 66.036 63.2666 65.8865 63.5299C64.0571 66.7557 63.003 70.2295 62.6356 73.9186C62.5799 74.468 62.7522 74.7339 63.2463 75.0124C64.9338 75.9543 65.8611 77.4456 65.6787 79.375C65.5748 80.4561 65.0706 81.4993 64.7133 82.6741C67.2623 85.8923 64.9692 90.5232 60.7631 90.5612C60.4591 90.5637 60.0562 90.9005 59.8738 91.1917C58.2015 93.8426 55.8831 95.6302 52.8755 96.524C52.2699 96.7088 51.6567 96.8455 51.0486 97ZM68.4456 59.6231C72.259 59.6231 75.971 59.9877 79.5867 59.5522C88.5386 58.471 95.243 50.3687 94.8706 41.5499C94.4753 32.169 87.3882 24.8465 78.1171 24.2388C76.3333 24.1224 75.5707 23.3957 75.368 21.6208C74.2151 11.5511 65.4354 3.42859 55.242 3.21843C46.8501 3.04626 40.4371 6.66192 36.0739 13.8299C35.073 15.4732 34.1811 15.7998 32.3618 15.2301C31.3432 14.9111 30.2791 14.6224 29.2225 14.5667C21.7579 14.1743 16.2773 20.1674 17.2351 27.6089C17.529 29.8953 17.0552 30.6067 14.828 31.2195C8.60246 32.9311 4.19114 38.6407 4.13286 45.0668C4.05938 53.1539 10.513 59.7016 18.7022 59.8054C22.437 59.8535 26.1743 59.8155 29.9117 59.813C30.1169 59.813 30.3222 59.7927 30.7605 59.7674C25.6777 54.1059 23.1389 47.6924 23.6532 40.2434C24.1676 32.7994 27.3931 26.6898 33.1397 21.9449C42.5046 14.2122 56.1719 14.1667 65.7699 21.8309C70.5334 25.6365 73.6297 30.546 74.8764 36.5087C76.7108 45.2845 74.3316 52.9691 68.4456 59.6231ZM59.2808 74.2933C59.4861 72.9817 59.6331 71.7284 59.8814 70.4953C60.9937 65.0162 63.5934 60.3093 67.1584 56.0201C71.5267 50.7612 73.1179 44.6136 71.8459 37.9216C69.4287 25.1934 57.4743 17.3038 44.7547 19.8636C34.997 21.8284 27.4336 30.5561 26.8762 40.4738C26.5316 46.6012 28.3863 51.9791 32.3669 56.6379C35.0071 59.7269 37.0494 63.1678 38.2352 67.0468C38.9497 69.3863 39.3678 71.8145 39.9379 74.2933C41.372 74.2933 42.9658 74.2933 44.6482 74.2933C44.6482 73.9135 44.6482 73.6046 44.6482 73.2932C44.6482 70.0396 44.6533 66.786 44.6457 63.5324C44.6406 61.122 43.6195 60.0282 41.2073 59.8003C39.046 59.5978 37.513 58.5141 36.8086 56.4505C35.7242 53.2704 38.0451 50.1459 41.5519 50.113C46.8729 50.0649 52.1938 50.0953 57.5148 50.1105C58.014 50.113 58.5334 50.1763 59.0123 50.313C61.313 50.9764 62.6939 53.1033 62.4506 55.5492C62.22 57.8608 60.2868 59.6054 57.7277 59.8079C55.5283 59.9826 54.416 61.1549 54.4058 63.3603C54.3932 66.7404 54.4008 70.1206 54.4033 73.5008C54.4033 73.7489 54.4363 73.9971 54.4566 74.2908C56.101 74.2933 57.6972 74.2933 59.2808 74.2933ZM45.3222 57.8912C47.3771 59.4914 47.9776 61.636 47.9194 64.1097C47.8459 67.1683 47.9016 70.232 47.9041 73.2932C47.9041 73.6274 47.9371 73.9591 47.9548 74.2958C49.0595 74.2958 50.0554 74.2958 51.1576 74.2958C51.1576 73.8932 51.1576 73.554 51.1576 73.2147C51.1576 69.9637 51.1753 66.7151 51.1525 63.4641C51.1373 61.4714 51.7327 59.7421 53.2048 58.3596C53.3847 58.1925 53.6128 58.076 53.818 57.9393C52.7842 56.4708 52.5359 55.025 53.0224 53.4071C50.666 53.4071 48.4084 53.4071 46.1482 53.4071C46.2597 56.1973 46.2521 56.2454 45.3222 57.8912ZM49.6246 84.0768C49.0874 84.0768 48.5502 84.0768 48.0105 84.0768C44.785 84.0768 41.557 84.0667 38.3315 84.0844C37.1102 84.092 36.388 84.9453 36.611 86.029C36.7808 86.8493 37.4523 87.3026 38.5646 87.3051C41.7597 87.3127 44.9548 87.3076 48.1499 87.3076C52.2623 87.3076 56.3746 87.3026 60.4869 87.3127C61.394 87.3152 62.1314 87.0494 62.4177 86.1227C62.7648 85.0061 61.9591 84.0844 60.6339 84.0794C56.965 84.0692 53.2961 84.0768 49.6246 84.0768ZM49.5207 77.6026C46.6423 77.6026 43.7639 77.6001 40.8855 77.6026C39.9379 77.6026 38.9852 77.5798 38.0401 77.6355C37.1913 77.6861 36.6212 78.2964 36.5882 79.099C36.5528 79.9751 36.9809 80.5447 37.8272 80.7574C38.1592 80.841 38.5164 80.8385 38.861 80.8385C45.9785 80.8435 53.0934 80.8435 60.2108 80.8359C60.5858 80.8359 60.9785 80.8258 61.3358 80.722C62.1339 80.489 62.5266 79.9092 62.4633 79.0813C62.4 78.2533 61.9211 77.757 61.0951 77.638C60.7834 77.5925 60.4642 77.6026 60.1474 77.6026C56.6052 77.6026 53.063 77.6026 49.5207 77.6026ZM42.7352 90.5612C44.8864 92.9134 47.3492 93.9667 50.2884 93.716C52.6372 93.516 54.639 92.5437 56.258 90.5612C51.7074 90.5612 47.3518 90.5612 42.7352 90.5612ZM41.4101 53.3539C40.4903 53.3565 39.8011 54.0604 39.8188 54.9795C39.8366 55.8353 40.5333 56.5392 41.3822 56.5619C42.2538 56.5847 43.0342 55.8327 43.0418 54.9617C43.0519 54.073 42.3197 53.3514 41.4101 53.3539ZM57.6086 53.3489C56.7091 53.3641 55.9793 54.1161 56.0148 54.9972C56.0503 55.8758 56.8408 56.605 57.7099 56.5594C58.5638 56.5164 59.2353 55.8023 59.2353 54.9415C59.2353 54.0274 58.5258 53.3337 57.6086 53.3489Z" fill="#FA63A1" stroke="white" mask="url(#path-1-inside-1_30_484)"/>
<path d="M38.6271 38.5994L38.4463 38.7779L38.6277 38.9558C38.9942 39.3153 39.357 39.6681 39.7163 40.0174C40.5776 40.8549 41.418 41.6721 42.237 42.5118L42.2372 42.512C42.6266 42.9104 42.787 43.3492 42.7659 43.7345C42.7449 44.1162 42.5449 44.4747 42.1526 44.7241L42.1523 44.7243C41.8205 44.9359 41.5134 45.0057 41.2333 44.9706C40.9516 44.9353 40.6679 44.7901 40.3918 44.5188C38.7956 42.9491 37.2035 41.3758 35.6423 39.7727L35.6423 39.7727C35.305 39.4264 35.1593 39.0873 35.1586 38.7717C35.1579 38.4562 35.3017 38.1176 35.6374 37.7717C37.1988 36.1684 38.7859 34.5901 40.3861 33.0265C41.0248 32.4037 41.8685 32.4301 42.3979 32.9803L42.398 32.9804C42.6852 33.2784 42.8105 33.6085 42.7949 33.9373C42.7791 34.2691 42.6181 34.6322 42.2704 34.9866L42.2701 34.9869C41.4359 35.8404 40.5845 36.6761 39.6968 37.5474C39.3463 37.8914 38.9901 38.241 38.6271 38.5994Z" fill="#FA63A1" stroke="white" stroke-width="0.5"/>
<path d="M60.6259 38.759L60.4445 38.9376C60.0266 39.3494 59.6184 39.7487 59.2178 40.1406C58.4037 40.9369 57.6206 41.703 56.8489 42.4826L60.6259 38.759ZM60.6259 38.759L60.444 38.5809M60.6259 38.759L60.444 38.5809M60.444 38.5809C60.0929 38.2372 59.751 37.9035 59.4158 37.5763C58.5596 36.7406 57.7481 35.9484 56.944 35.1467C56.5237 34.7268 56.321 34.3368 56.284 33.9933C56.248 33.6594 56.3643 33.3281 56.6721 33.0048C56.973 32.69 57.3218 32.5603 57.6849 32.5908C58.0555 32.6219 58.4724 32.823 58.8873 33.2329L58.8874 33.2329M60.444 38.5809L58.8874 33.2329M58.8874 33.2329C60.349 34.6758 61.8051 36.1233 63.2484 37.5832L63.2485 37.5834M58.8874 33.2329L63.2485 37.5834M63.2485 37.5834C63.6969 38.0362 63.8818 38.4175 63.8841 38.7634C63.8863 39.1085 63.707 39.4881 63.2633 39.9387L63.2632 39.9388M63.2485 37.5834L63.2632 39.9388M63.2632 39.9388C61.7796 41.4466 60.2782 42.9394 58.7687 44.4225C58.3884 44.7954 58.0051 44.9749 57.659 45.0013C57.3178 45.0273 56.9821 44.9071 56.6816 44.6201L56.6815 44.6199M63.2632 39.9388L56.6815 44.6199M56.6815 44.6199C56.3634 44.3165 56.2288 43.9759 56.2495 43.6295M56.6815 44.6199L56.2495 43.6295M56.2495 43.6295C56.2705 43.277 56.4549 42.8811 56.8488 42.4827L56.2495 43.6295Z" fill="#FA63A1" stroke="white" stroke-width="0.5"/>
<path d="M46.6696 43.0478L46.6696 43.0477C47.3087 41.09 47.9631 39.139 48.6179 37.187C48.9155 36.2998 49.2132 35.4124 49.5095 34.5241L49.5096 34.5236C49.5438 34.4204 49.5757 34.3196 49.6069 34.2208C49.6895 33.96 49.7675 33.7133 49.8716 33.4735L49.8719 33.4728C50.2061 32.6965 50.9363 32.3824 51.6503 32.6485C52.3235 32.9 52.6799 33.6186 52.4096 34.4513C51.8186 36.2717 51.2111 38.0861 50.603 39.9024C50.3902 40.5379 50.1774 41.1736 49.9651 41.8098L49.9649 41.8103C49.8933 42.0266 49.8272 42.2571 49.7628 42.4815C49.7205 42.6292 49.6789 42.7742 49.637 42.9107C49.5274 43.2682 49.4063 43.6025 49.237 43.9033C49.1016 44.1436 48.905 44.3597 48.7012 44.5539C48.6062 44.6444 48.5124 44.7275 48.4237 44.8063L48.4055 44.8224C48.3448 44.8763 48.2847 44.9298 48.2304 44.981C47.5693 44.9688 47.1107 44.7318 46.8513 44.4041C46.5799 44.0613 46.4952 43.5805 46.6696 43.0478Z" fill="#FA63A1" stroke="white" stroke-width="0.5"/>
</svg>
