<svg width="96" height="96" viewBox="0 0 96 96" fill="none" xmlns="http://www.w3.org/2000/svg">
<path d="M14.8402 95.9999C14.6593 95.9345 14.4733 95.8741 14.2899 95.8111C13.8778 95.6727 13.4532 95.5317 13.0662 95.3454C10.664 94.1875 9.23428 91.4914 9.66898 88.9364C10.1464 86.1245 12.2571 84.0201 14.9181 83.6979C15.192 83.6651 15.4684 83.6475 15.7422 83.6475C18.2876 83.6475 20.4385 85.0497 21.3607 87.3077C21.7552 88.2743 22.298 88.4631 23.0995 88.4631H23.1724C25.5243 88.4304 27.9164 88.4304 30.2306 88.4304C31.198 88.4304 32.1654 88.4304 33.1328 88.4279C33.2107 88.4279 33.2736 88.4052 33.3514 88.3775C33.3917 88.365 33.4419 88.3448 33.5098 88.3247L33.6882 88.2693V87.1264C33.6882 86.4166 33.6856 85.7092 33.6831 84.9993C33.6756 83.1969 33.6681 81.3316 33.7108 79.5015C33.7334 78.5374 33.2962 78.117 32.6303 77.7822C28.7682 75.8388 25.4137 73.1982 22.6598 69.9307C22.3532 69.5657 22.1799 68.8306 22.2954 68.3851C22.3784 68.0679 22.999 67.5972 23.3332 67.5972C23.778 67.6022 24.4061 67.932 24.7981 68.3624C27.1174 70.9125 29.5497 72.9137 32.2333 74.487C33.2233 75.066 34.2158 75.5619 35.4094 76.1485C36.0954 76.4858 36.4019 76.9641 36.3994 77.7042C36.3944 79.061 36.3969 80.4178 36.3994 81.7746C36.4019 83.8992 36.4044 86.0943 36.3843 88.2542C36.3667 90.0062 35.1455 91.1441 33.271 91.1566C31.6579 91.1667 30.0447 91.1717 28.4315 91.1717C26.5771 91.1717 24.7278 91.1642 22.9337 91.1491H22.901C22.2477 91.1491 21.7828 91.3102 21.4713 92.1183C20.7878 93.898 19.4736 95.1139 17.564 95.7281C17.3805 95.786 17.2021 95.8564 17.0212 95.9244C16.9559 95.9496 16.8881 95.9748 16.8227 95.9999H14.8402ZM15.8026 86.3662C14.8703 86.3662 13.9959 86.7312 13.3351 87.3933C12.6843 88.0478 12.3274 88.9112 12.33 89.825C12.335 91.6928 13.8577 93.246 15.7272 93.2888H15.8026C17.6745 93.2888 19.2148 91.7532 19.2375 89.8627C19.2475 88.9137 18.9007 88.0327 18.2575 87.3807C17.6193 86.7312 16.7524 86.3712 15.8151 86.3687H15.8026V86.3662Z" fill="#FFC707"/>
<path d="M93.8253 49.3772C91.6543 49.3647 89.5034 49.3621 87.8727 49.3621L82.6311 49.3647C81.9426 49.3647 81.2567 49.3647 80.5682 49.3621C79.0706 49.3596 78.6535 48.9594 78.6309 47.4968C78.5504 42.4824 77.279 37.6567 74.8467 33.1507C74.6331 32.753 74.3843 32.2369 74.3793 31.7863C74.3768 31.4842 74.4748 31.2275 74.6733 31.0236C74.9648 30.7265 75.4573 30.5604 76.0628 30.5554C76.9348 30.5503 77.8067 30.5478 78.6761 30.5478L83.591 30.5503L83.6463 30.3766C84.2116 28.6271 85.1715 27.3785 86.5887 26.5604C87.5159 26.0242 88.5687 25.7397 89.6341 25.7397C92.2272 25.7397 94.5616 27.3735 95.446 29.8077C95.5264 30.0267 95.6119 30.2432 95.6998 30.4572L95.8003 30.7089V33.0601C95.7853 33.0978 95.7702 33.1331 95.7526 33.1708C95.6998 33.2917 95.6471 33.415 95.6068 33.5484C94.8254 36.1715 92.5916 37.9587 89.9205 38.1022C89.815 38.1073 89.712 38.1098 89.6065 38.1098C87.1013 38.1098 84.8499 36.5188 83.8724 34.0569C83.8171 33.916 83.7568 33.7775 83.6965 33.6365L83.5483 33.2891H77.9625L78.1283 33.6466C79.9827 37.634 81.0255 41.8052 81.322 46.3993L81.3371 46.6359H82.7241C83.7216 46.6359 84.7192 46.6384 85.7142 46.6384C86.7218 46.6409 87.7294 46.6409 88.737 46.6409C90.697 46.6409 92.2825 46.6334 93.7273 46.6208H93.7851C94.7651 46.6208 95.3707 46.8876 95.7953 47.5094V48.4886C95.3807 49.1079 94.7952 49.3722 93.8505 49.3722L93.8253 49.3772ZM89.6366 28.4735C88.6943 28.4735 87.8224 28.8285 87.1792 29.4729C86.5384 30.1173 86.1866 30.9883 86.1891 31.9273C86.1942 33.8404 87.7345 35.3961 89.624 35.3961H89.6642C90.5814 35.3861 91.4483 35.0085 92.1016 34.3338C92.7549 33.6592 93.1092 32.7832 93.0941 31.8644C93.064 29.9713 91.5488 28.4811 89.6492 28.4735H89.6366Z" fill="#FFC707"/>
<path d="M79.1585 96.0001C77.5479 95.5395 76.289 94.9957 75.3945 93.8705C74.9572 93.3192 74.5477 92.7755 74.3718 92.2015C74.0753 91.2324 73.4395 91.1493 72.8114 91.1493H72.7511C71.2384 91.1619 69.6403 91.1669 67.7206 91.1669C66.1928 91.1669 64.6626 91.1619 63.1348 91.1594H62.7906C60.5141 91.1543 59.406 90.0442 59.4034 87.766C59.4009 86.6735 59.4034 85.5835 59.406 84.491C59.411 82.384 59.4135 80.2065 59.3884 78.0618C59.3758 77.0171 59.7427 76.4256 60.6523 76.0228C63.9414 74.5653 67.012 72.4256 69.7735 69.6641C70.1177 69.3192 70.472 69.1455 70.8263 69.1455C71.07 69.1455 71.3238 69.2286 71.5826 69.3897C72.143 69.7421 72.3465 70.457 72.0525 71.0536C71.9194 71.323 71.6781 71.5747 71.4645 71.7887C69.0297 74.2103 66.1627 76.277 62.9464 77.9334C62.6122 78.1046 62.1448 78.5678 62.1398 78.9857C62.1021 81.4199 62.1097 83.8919 62.1147 86.2833L62.1197 87.8415C62.1197 87.9397 62.1499 88.0203 62.1825 88.1134C62.1976 88.1562 62.2152 88.204 62.2328 88.2645L62.2881 88.4432H66.6677L70.0851 88.4407C71.0751 88.4407 72.0676 88.4432 73.0576 88.4507H73.0903C73.6104 88.4507 74.0099 88.3198 74.2662 87.6804C75.2713 85.1782 77.4624 83.6225 79.9877 83.6225C80.3571 83.6225 80.734 83.6578 81.1034 83.7257C83.9352 84.2468 86.0685 86.7289 86.1741 89.6288C86.2796 92.5011 84.2971 95.0486 81.3521 95.8214C81.229 95.8541 81.1159 95.912 81.0205 95.9624C80.9978 95.975 80.9727 95.9875 80.9501 95.9976H79.1585V96.0001ZM79.9978 86.3664C79.0605 86.3664 78.1911 86.7239 77.5504 87.3708C76.9071 88.0203 76.5553 88.9013 76.5629 89.8453C76.5754 91.7434 78.1157 93.2865 79.9978 93.2865H80.0581C81.925 93.2537 83.4578 91.7081 83.4704 89.8403C83.4779 88.924 83.1211 88.058 82.4703 87.401C81.812 86.7339 80.935 86.3664 79.9978 86.3664Z" fill="#FFC707"/>
<path d="M89.6894 70.2179C87.0762 70.2179 84.88 68.7453 83.9529 66.3765C83.6865 65.6918 83.3272 65.4375 82.6362 65.4375H82.5759C81.6663 65.4552 80.6964 65.4627 79.5279 65.4627C78.6736 65.4627 77.8218 65.4577 76.9675 65.4552L76.191 65.4526C75.3719 65.4501 74.7814 65.2085 74.5276 64.778C74.2814 64.3576 74.3567 63.7434 74.7412 63.0486C76.2338 60.3526 77.3419 57.3771 78.0379 54.2053C78.1962 53.4803 78.6409 53.1128 79.3596 53.1128H79.3922C80.0807 53.1229 80.5079 53.4879 80.6687 54.1952C80.7139 54.3966 80.6989 54.6584 80.626 54.8925C79.9425 57.0977 79.239 59.2953 78.558 61.4199C78.4977 61.6062 78.4248 61.7874 78.3394 61.9989C78.2967 62.1071 78.249 62.2204 78.2012 62.3412L78.068 62.6836H83.5634L83.7066 62.3387C83.7694 62.1902 83.8348 62.0316 83.8976 61.873C84.8474 59.4916 87.139 57.8906 89.5964 57.8906C89.697 57.8906 89.7975 57.8932 89.898 57.8982C92.5891 58.0417 94.8229 59.8239 95.5868 62.4394C95.6345 62.6056 95.6898 62.7692 95.7426 62.9328L95.8029 63.1166V65.1052C95.7778 65.1732 95.7526 65.2412 95.7275 65.3066C95.6597 65.4879 95.5943 65.6691 95.5365 65.8529C94.7601 68.34 92.5389 70.0895 90.0136 70.2053C89.903 70.2154 89.795 70.2179 89.6894 70.2179ZM89.6291 60.6068C88.7195 60.6068 87.8602 60.9668 87.2094 61.6188C86.551 62.2808 86.1892 63.1594 86.1892 64.0933C86.1917 66.0215 87.7044 67.5319 89.6341 67.5319H89.6668C90.604 67.5244 91.476 67.1518 92.1243 66.4847C92.7675 65.8227 93.1117 64.9492 93.0942 64.0228C93.059 62.1499 91.5137 60.6194 89.6467 60.6093H89.6291V60.6068Z" fill="#FFC707"/>
<path d="M47.4127 96.0002C46.7744 95.5622 46.5181 94.9581 46.5282 93.931C46.5558 91.24 46.5508 88.5012 46.5458 85.8555C46.5433 84.8435 46.5433 83.8341 46.5433 82.8221V81.5685L46.3247 81.5408C45.8221 81.4754 45.3296 81.4124 44.8422 81.3495C43.724 81.2085 42.6686 81.0726 41.6007 80.919C40.5831 80.7705 39.9976 80.1638 40.1031 79.3684C40.2037 78.6232 40.7163 78.1953 41.5052 78.1953C41.656 78.1953 41.8168 78.2104 41.9852 78.2431C43.9627 78.6132 45.9578 78.7995 47.9127 78.7995C49.855 78.7995 51.8175 78.6157 53.7448 78.2507C53.9131 78.218 54.0739 78.2029 54.2247 78.2029C54.986 78.2029 55.4836 78.6031 55.5916 79.3029C55.6519 79.7032 55.5866 80.038 55.3931 80.2998C55.1544 80.622 54.7122 80.841 54.1141 80.9291C53.0688 81.0827 52.0336 81.2136 50.938 81.3545C50.4606 81.4149 49.9757 81.4779 49.4832 81.5408L49.2646 81.5685V82.8196C49.2646 83.824 49.262 84.8309 49.262 85.8353C49.257 88.4886 49.2545 91.2299 49.2796 93.9285C49.2897 94.9404 49.0233 95.5647 48.3926 96.0002H47.4127Z" fill="#FFC707"/>
<path d="M47.9002 75.0834C40.6761 75.0834 33.8867 72.264 28.7808 67.1413C23.6749 62.0211 20.8657 55.2143 20.8732 47.9771C20.8883 33.0595 33.0148 20.9211 47.9052 20.916C62.7981 20.916 74.917 33.0545 74.9246 47.9771C74.9346 62.8971 62.8308 75.0557 47.9429 75.0809H47.9002V75.0834ZM47.9102 23.6272C34.5274 23.6272 23.6096 34.5321 23.5744 47.9343C23.5568 54.4491 26.0796 60.5812 30.6754 65.203C35.2712 69.8223 41.3796 72.3723 47.8775 72.3773C61.2754 72.3798 72.1882 61.4749 72.2259 48.0727C72.246 41.5554 69.7232 35.4182 65.1249 30.7964C60.5316 26.1772 54.4232 23.6322 47.9253 23.6272H47.9102Z" fill="#FFC707"/>
<path d="M70.9695 26.8647C70.8615 26.8647 70.7459 26.8496 70.6278 26.8219C70.3463 26.7564 70.0297 26.5702 69.7961 26.3411C66.9893 23.5519 63.8359 21.3719 60.4186 19.8615C59.71 19.5494 59.3959 19.051 59.3984 18.2454C59.4034 16.6822 59.4034 15.1164 59.4009 13.5532C59.3984 11.6954 59.3984 9.77471 59.4084 7.88673C59.421 6.02644 60.597 4.86344 62.4815 4.84833C64.0092 4.83575 65.6149 4.83071 67.2557 4.83071C69.0498 4.83071 70.8992 4.83827 72.9093 4.85085H72.937C73.5626 4.85085 74.0099 4.69729 74.3064 3.93203C75.216 1.58087 77.49 0 79.9626 0C80.347 0 80.734 0.0377627 81.1134 0.113282C84.101 0.707366 86.1916 3.20201 86.1916 6.17494C86.1941 9.14285 84.0659 11.703 81.131 12.2643C80.7591 12.3348 80.3822 12.3726 80.0078 12.3726C77.5277 12.3726 75.2763 10.832 74.2687 8.44808C74.1506 8.17118 73.7787 7.5947 73.3742 7.58967C71.0022 7.55946 68.6779 7.55696 66.522 7.55696L62.1046 7.55946C62.1046 7.55946 62.1046 9.16803 62.1021 9.83764C62.0996 12.3298 62.0945 14.6835 62.1373 17.0749C62.1448 17.5003 62.6675 17.9257 62.9941 18.0944C66.2556 19.7734 69.1855 21.9106 71.7057 24.4456C72.2661 25.0094 72.3691 25.5809 72.0223 26.1926C71.7786 26.6356 71.4143 26.8647 70.9695 26.8647ZM80.0003 2.71617C78.1057 2.71617 76.5628 4.27187 76.5628 6.18502C76.5628 7.12398 76.9171 7.99497 77.5604 8.6394C78.2037 9.28383 79.0705 9.63876 80.0078 9.63876C80.9601 9.63373 81.8371 9.25865 82.4929 8.58401C83.1412 7.91692 83.4904 7.04846 83.4729 6.13719C83.4377 4.26684 81.8923 2.73379 80.0304 2.72121L80.0003 2.71617Z" fill="#FFC707"/>
<path d="M35.0174 19.8112C33.947 19.8112 33.7108 18.9302 33.6982 18.1926C33.6781 16.788 33.6831 15.3581 33.6856 13.9736C33.6882 13.372 33.6907 12.7703 33.6907 12.1687V7.6753L33.4746 7.64509C33.3967 7.63502 33.3263 7.62243 33.2585 7.60985C33.1178 7.58719 32.9871 7.56453 32.8489 7.56202H31.8589L27.7807 7.56454C26.3786 7.56454 24.5343 7.56203 22.7 7.53937H22.6749C21.8783 7.53937 21.6823 8.01513 21.4914 8.47328L21.4662 8.53621C20.5014 10.8597 18.2675 12.3625 15.7774 12.3625C15.192 12.3625 14.609 12.2795 14.0386 12.1158C11.1641 11.2876 9.1991 8.25932 9.65642 5.36693C10.1565 2.21527 12.6415 0.0151367 15.702 0.0151367C15.8101 0.0151367 15.9156 0.017646 16.0237 0.0226806C18.6218 0.153581 20.4486 1.44497 21.4537 3.85655C21.7602 4.5916 22.1497 4.85339 22.9437 4.85339H22.9864C24.5142 4.83829 26.1299 4.83075 28.0722 4.83075C29.5924 4.83075 31.1101 4.83577 32.6303 4.83829H33.0399C35.2913 4.84332 36.3868 5.93333 36.3944 8.1687C36.3994 9.97612 36.3994 11.7835 36.3969 13.6212V16.3902L36.711 16.3097C37.1708 16.1913 37.6206 16.073 38.0603 15.9547C39.0679 15.6879 40.0202 15.4362 40.9851 15.2096C41.151 15.1693 41.3143 15.1517 41.4701 15.1517C42.1284 15.1517 42.6109 15.5066 42.7641 16.1032C42.9727 16.9113 42.5556 17.5406 41.6183 17.8276L40.7313 18.0995C39.1408 18.5878 37.4949 19.0913 35.8943 19.6401C35.5777 19.7559 35.2812 19.8112 35.0174 19.8112ZM15.795 2.71368C14.8829 2.71368 14.016 3.0787 13.3552 3.74075C12.6943 4.4028 12.33 5.27128 12.33 6.18506C12.33 8.05793 13.8527 9.60356 15.7247 9.63377H15.785C17.6997 9.63377 19.2174 8.13848 19.2375 6.23037C19.2475 5.28638 18.8957 4.40028 18.2474 3.73823C17.6067 3.08373 16.7448 2.71872 15.8201 2.71368H15.795Z" fill="#FFC707"/>
<path d="M6.27686 38.1223C5.75924 38.1223 5.20895 38.0493 4.64107 37.9084C1.92984 37.2287 -0.0200395 34.6812 0.00257506 31.8517C0.0251896 28.9996 2.06804 26.4873 4.85968 25.8807C5.34212 25.7749 5.81703 25.7221 6.26681 25.7221C8.72426 25.7221 10.7269 27.3004 12.2195 30.4118L12.2873 30.5553H12.4456C12.9507 30.5553 13.4582 30.5578 13.9683 30.5578C14.4809 30.5604 14.9935 30.5603 15.5061 30.5603C16.4082 30.5603 17.5992 30.5553 18.8104 30.5226C19.2526 30.51 19.6898 30.0166 19.8808 29.7271C21.9261 26.5956 24.4137 23.8719 27.2732 21.6264L27.3838 21.5383C27.5195 21.4301 27.6476 21.3294 27.7808 21.2388C28.0798 21.0374 28.3939 20.9316 28.6904 20.9316C29.0874 20.9316 29.4342 21.1129 29.6955 21.4552C30.1578 22.0644 30.0473 22.8171 29.4116 23.3734C29.1326 23.6201 28.8336 23.8593 28.5472 24.0884C28.3034 24.2847 28.0572 24.4811 27.8185 24.685C25.3183 26.8171 23.2328 29.2967 21.6171 32.0581C21.107 32.9291 20.5014 33.2866 19.5265 33.2866C19.4838 33.2866 19.4436 33.2866 19.3983 33.2841C18.5465 33.2589 17.6243 33.2463 16.4986 33.2463C15.8227 33.2463 15.1468 33.2513 14.4709 33.2539C13.8 33.2589 13.1316 33.2614 12.4632 33.2614H12.3099L12.2396 33.3999C10.6364 36.5767 8.68405 38.1223 6.27686 38.1223ZM6.09594 28.4735C4.19632 28.5062 2.70627 30.0166 2.70627 31.9172C2.70627 33.8026 4.28929 35.3961 6.16127 35.3961H6.19143C7.1136 35.3885 7.97798 35.016 8.62375 34.3514C9.26952 33.6868 9.6213 32.8058 9.61376 31.8744C9.59617 29.9663 8.07849 28.4735 6.15876 28.4735H6.09594Z" fill="#FFC707"/>
<path d="M6.24668 70.2859C5.79439 70.2859 5.322 70.233 4.83955 70.1273C2.0454 69.5131 0.010089 67.0008 3.80915e-05 64.1512C-0.0100128 61.2513 1.97002 58.6937 4.70638 58.0694C5.24662 57.9461 5.77178 57.8831 6.26678 57.8831C8.77197 57.8831 10.7143 59.4111 12.2044 62.5527L12.2722 62.6962H17.6444L17.5263 62.3639C17.3479 61.8479 17.167 61.3369 16.9886 60.8284C16.5388 59.5521 16.1167 58.3488 15.7096 57.1078C15.4583 56.3425 15.2875 55.532 15.1342 54.7642C14.9834 54.009 15.3729 53.3293 16.0639 53.1481C16.1996 53.1128 16.3378 53.0952 16.471 53.0952C17.0992 53.0952 17.5917 53.4854 17.7248 54.0896C18.4359 57.3142 19.6245 60.4634 21.2552 63.4489C21.504 63.907 21.5216 64.3627 21.3055 64.7352C21.0492 65.1758 20.4939 65.4426 19.823 65.4502C18.9561 65.4602 18.0867 65.4627 17.2198 65.4627C16.5966 65.4627 15.9735 65.4602 15.3478 65.4602C14.7246 65.4577 14.099 65.4577 13.4758 65.4577H12.2772L12.2094 65.6037C10.7595 68.7075 8.75187 70.2859 6.24668 70.2859ZM6.11602 60.6069C4.25157 60.6396 2.72132 62.1877 2.70625 64.0556C2.69871 64.9819 3.05049 65.8529 3.69878 66.5074C4.35208 67.167 5.22651 67.5295 6.16627 67.5295C7.10855 67.5295 7.98046 67.172 8.62372 66.5251C9.26698 65.8756 9.61876 64.9996 9.61374 64.0581C9.60369 62.155 8.06339 60.6069 6.17884 60.6069H6.11602Z" fill="#FFC707"/>
<path d="M8.77703 49.3695C6.38743 49.3695 3.99782 49.3644 1.60822 49.3569C0.623228 49.3544 0.0251987 48.8584 0.00760961 48.0302C7.14283e-05 47.6577 0.115657 47.3355 0.344315 47.1014C0.630766 46.8068 1.07803 46.6508 1.63837 46.6482C3.42743 46.6407 5.2165 46.6382 7.00305 46.6382L14.1744 46.6407C14.1744 46.6407 15.4684 40.3902 15.9433 38.0919C15.971 37.961 15.9986 37.8553 16.0313 37.7596C16.2876 37.0221 16.7901 36.5815 17.3731 36.5815C17.5063 36.5815 17.6445 36.6042 17.7827 36.6495C18.7626 36.9667 18.7877 37.8679 18.6345 38.5702C18.2425 40.3801 17.7374 42.7691 17.3002 45.2008C17.1922 45.7949 17.1846 46.4091 17.1796 47.0007C17.1771 47.2272 17.1746 47.4513 17.167 47.6753C17.1243 48.8786 16.6595 49.3493 15.5137 49.3544C13.2698 49.3644 11.0234 49.3695 8.77703 49.3695Z" fill="#FFC707"/>
<path d="M54.2549 17.8025C54.1921 17.8025 54.1267 17.8 54.0614 17.7924C52.0789 17.6137 50.0636 17.4123 48.1163 17.216L47.9027 17.1958C47.0358 17.1102 46.5961 16.642 46.5584 15.7685C46.5257 15.0033 46.5307 14.2204 46.5358 13.4652C46.5383 13.1707 46.5408 12.8736 46.5408 12.5791C46.5408 9.5558 46.5408 6.53252 46.5408 3.50924V2.22038L46.5383 2.019C46.5358 1.83272 46.5358 1.65901 46.5458 1.48531C46.6061 0.576566 47.1238 0.0126953 47.8927 0.0126953C48.6967 0.0252818 49.1968 0.589161 49.252 1.5256C49.2621 1.69929 49.2596 1.87298 49.2596 2.05423L49.2571 2.26317V14.4343L54.1167 15.0737L54.2172 15.0863C54.3001 15.0964 54.3805 15.104 54.4609 15.1241C55.2801 15.3204 55.7525 15.9447 55.6344 16.6773C55.5263 17.3821 55.0087 17.8025 54.2549 17.8025Z" fill="#FFC707"/>
<path d="M47.8625 63.8286C45.1387 63.8286 42.3721 63.816 39.6408 63.7883C37.2562 63.7657 35.3717 61.8525 35.3491 59.4359C35.3089 54.9224 35.3063 50.0866 35.3466 44.6543C35.3616 42.4693 36.8617 40.7172 39.0805 40.2993C39.2413 40.2691 39.3996 40.2339 39.6132 40.1886L40.2212 40.0602V39.8563C40.2212 39.3981 40.2087 38.94 40.1961 38.4969C40.1685 37.5253 40.1434 36.6064 40.2439 35.6952C40.666 31.8664 43.9552 28.979 47.8976 28.979H47.9378C51.8677 28.9991 55.1443 31.8789 55.5539 35.6776C55.6544 36.614 55.6268 37.5907 55.6017 38.5347C55.5891 38.9702 55.5765 39.4208 55.5765 39.8638V40.0703L55.7801 40.1105C55.9836 40.1508 56.167 40.1835 56.3329 40.2137C56.652 40.2716 56.9007 40.3169 57.1495 40.3824C59.0491 40.8884 60.4362 42.6404 60.4512 44.546C60.4965 50.2779 60.4939 55.0331 60.4462 59.5139C60.4211 61.845 58.5064 63.7631 56.1771 63.7858C53.4231 63.8135 50.6265 63.8286 47.8625 63.8286ZM47.9303 42.9098C45.3824 42.9098 42.837 42.9123 40.2916 42.9173C38.691 42.9198 38.0377 43.5693 38.0377 45.1577C38.0301 50.0136 38.0301 54.5146 38.0377 58.9173C38.0402 60.4428 38.696 61.0948 40.2288 61.1023C41.2841 61.1074 42.337 61.1074 43.3923 61.1074L47.8474 61.1049L52.3653 61.1074C53.398 61.1074 54.4307 61.1074 55.4635 61.1049C57.142 61.0998 57.7651 60.4881 57.7676 58.8418C57.7727 54.1445 57.7727 49.5479 57.7676 45.1779C57.7651 43.5769 57.1168 42.9249 55.5288 42.9198C52.9935 42.9123 50.4631 42.9098 47.9303 42.9098ZM47.9579 31.6952C45.503 31.6952 43.4828 33.2333 43.043 35.4334C42.8445 36.4328 42.8219 37.4799 42.7993 38.4919C42.7893 38.9475 42.7792 39.4208 42.7541 39.8865L42.739 40.1533H52.8854V39.9016C52.8854 39.4737 52.898 39.0457 52.908 38.6354C52.9331 37.7065 52.9558 36.8305 52.8578 35.9494C52.6065 33.6738 50.6491 31.8487 48.3072 31.7053C48.1916 31.6977 48.0735 31.6952 47.9579 31.6952Z" fill="#FFC707"/>
<path d="M47.8901 46.3692C50.041 46.3641 51.9909 47.8569 52.5487 49.9362C53.1116 52.0406 52.2095 54.281 50.3124 55.3509C49.8224 55.6278 49.5033 55.8896 49.3877 56.5038C49.2445 57.259 48.6439 57.6442 47.86 57.624C47.0785 57.6039 46.6287 57.1659 46.3448 56.4409C46.194 56.0583 45.9076 55.6404 45.5658 55.4365C43.626 54.2735 42.6837 52.1111 43.2441 49.9538C43.7843 47.8821 45.7367 46.3742 47.8901 46.3692ZM47.9253 49.6391C47.0207 49.6265 46.3171 50.3163 46.3171 51.2175C46.3171 52.1111 47.0383 52.8311 47.9203 52.8185C48.7671 52.8059 49.4581 52.1237 49.4832 51.2703C49.5108 50.3717 48.8248 49.6517 47.9253 49.6391Z" fill="#FFC707"/>
</svg>
