<svg width="97" height="98" viewBox="0 0 97 98" fill="none" xmlns="http://www.w3.org/2000/svg">
<path d="M18.5308 9.62236C18.536 8.7984 18.8221 8.24216 19.6701 8.18757C20.4244 8.13819 20.8848 8.7022 20.8718 9.59895C20.8588 10.4437 20.414 10.9688 19.6909 10.935C18.8403 10.8934 18.5464 10.345 18.5308 9.62236Z" fill="#FFC41F"/>
<path d="M74.8191 43.4829C79.9745 43.4829 84.9739 43.4803 89.9707 43.4829C94.0206 43.4855 96.4344 45.9106 96.437 49.9784C96.4396 63.7856 96.4396 77.5929 96.437 91.4027C96.437 95.4523 94.0076 97.8774 89.9498 97.8774C79.7586 97.88 69.57 97.8696 59.3788 97.8878C57.5684 97.8904 56.0233 97.3549 54.6838 96.1151C54.4028 95.8552 53.88 95.7486 53.469 95.7486C41.1709 95.7304 28.8702 95.733 16.5721 95.733C12.5794 95.733 8.58927 95.7356 4.59654 95.733C2.11507 95.7304 0.8197 94.4308 0.8197 91.9433C0.817099 66.3433 0.817099 40.7407 0.8197 15.1406C0.8197 12.7961 2.0916 11.5199 4.41441 11.5095C5.05689 11.5069 5.702 11.5095 6.46934 11.5095C6.46934 10.8415 6.45113 10.2359 6.47194 9.63024C6.53176 7.84975 7.85571 6.50854 9.63488 6.44876C10.6701 6.41497 11.708 6.44355 12.8941 6.44355C12.8941 5.44544 12.8889 4.48632 12.8941 3.5272C12.9071 1.31264 14.1921 0.0104072 16.4056 0.0104072C29.8092 0.00520866 43.2102 0.0129963 56.6138 0C57.7973 0 58.7364 0.410699 59.5531 1.25286C64.2325 6.07707 68.9223 10.8935 73.6252 15.6943C74.4757 16.5625 74.8373 17.5449 74.8347 18.7562C74.8113 26.6189 74.8217 34.4816 74.8217 42.3444C74.8191 42.6875 74.8191 43.0358 74.8191 43.4829ZM56.3173 2.34453C55.8751 2.34453 55.5578 2.34453 55.2378 2.34453C42.4195 2.34453 29.6011 2.34453 16.7828 2.34453C15.3756 2.34453 15.2247 2.49529 15.2247 3.90928C15.2247 29.4443 15.2247 54.9794 15.2247 80.517C15.2247 81.9726 15.3366 82.087 16.762 82.087C28.5087 82.087 40.258 82.087 52.0046 82.0844C52.3168 82.0844 52.6315 82.0558 52.9332 82.0402C52.9332 78.5078 52.9332 75.0534 52.9332 71.5574C50.3009 71.5574 47.7388 71.5626 45.1767 71.5548C44.2429 71.5522 43.6914 71.0921 43.6992 70.3747C43.7096 69.6599 44.2559 69.2285 45.2027 69.2207C46.4694 69.2103 47.7336 69.2181 49.0003 69.2181C50.3165 69.2181 51.6353 69.2181 52.9592 69.2181C52.9592 66.5044 52.9592 63.926 52.9592 61.584C51.0838 61.584 49.2474 61.6386 47.4214 61.5347C47.0989 61.5165 46.5527 60.8147 46.5787 60.469C46.6125 60.0557 47.1353 59.3695 47.4813 59.3487C49.302 59.2369 51.1306 59.2967 53.006 59.2967C52.9722 59.4579 52.9956 59.3955 52.9956 59.3331C53.0008 56.1178 52.9956 52.9 53.006 49.6847C53.019 46.0198 55.5291 43.4985 59.1811 43.4881C63.2363 43.4751 67.294 43.4855 71.3492 43.4855C71.6951 43.4855 72.0437 43.4855 72.4157 43.4855C72.4157 35.1861 72.4157 26.988 72.4157 18.725C69.9264 18.725 67.4969 18.7276 65.0701 18.725C59.8834 18.7146 56.3251 15.1615 56.3147 9.97856C56.3147 7.47808 56.3173 4.98017 56.3173 2.34453ZM94.2937 61.6828C81.2491 61.6828 68.3241 61.6828 55.3444 61.6828C55.3444 62.0675 55.3444 62.3898 55.3444 62.7095C55.3444 72.2566 55.3444 81.8062 55.3444 91.3533C55.3444 94.1163 56.7725 95.5407 59.5453 95.5407C69.7313 95.5433 79.9173 95.5433 90.1033 95.5407C92.8995 95.5407 94.2911 94.1527 94.2911 91.3611C94.2937 81.814 94.2911 72.2644 94.2911 62.7173C94.2937 62.395 94.2937 62.0727 94.2937 61.6828ZM52.9592 84.4263C52.5066 84.4263 52.1243 84.4263 51.7393 84.4263C40.0863 84.4263 28.4358 84.4263 16.7828 84.4263C14.0152 84.4263 12.8889 83.2982 12.8889 80.5274C12.8889 57.0328 12.8889 33.5408 12.8889 10.0461C12.8889 9.63806 12.8889 9.23254 12.8889 8.77768C11.9707 8.77768 11.1956 8.77768 10.4204 8.77768C8.95079 8.78027 8.79993 8.92842 8.79993 10.3892C8.79993 35.7033 8.79993 61.0149 8.79993 86.329C8.79993 87.9275 8.99764 88.1276 10.5817 88.1302C24.3443 88.1302 38.1068 88.1302 51.8668 88.1302C52.2153 88.1302 52.5639 88.1302 52.9592 88.1302C52.9592 86.8826 52.9592 85.7259 52.9592 84.4263ZM52.9618 90.4721C52.5014 90.4721 52.1165 90.4721 51.7315 90.4721C38.0392 90.4721 24.3469 90.4721 10.652 90.4721C7.64767 90.4721 6.46413 89.2921 6.46413 86.2925C6.46413 62.5796 6.46413 38.8666 6.46413 15.151C6.46413 14.7404 6.46413 14.3297 6.46413 13.8488C5.80344 13.8488 5.25721 13.8488 4.71358 13.8488C3.31417 13.8514 3.1555 14.01 3.1555 15.4162C3.1555 40.8524 3.1555 66.2861 3.1555 91.7224C3.1555 93.1858 3.3688 93.3937 4.84884 93.3937C20.5856 93.3937 36.3225 93.3937 52.0593 93.3937C52.4104 93.3937 52.7616 93.3937 53.0997 93.3937C53.0503 92.4034 53.0087 91.5014 52.9618 90.4721ZM94.2937 59.2421C94.2937 55.9956 94.3015 52.848 94.2911 49.7029C94.2833 47.309 92.7954 45.8248 90.392 45.8248C80.0135 45.8196 69.635 45.8196 59.2566 45.8248C56.8765 45.8274 55.3549 47.3506 55.3471 49.7133C55.3392 52.6036 55.3445 55.494 55.3471 58.3818C55.3471 58.6625 55.3809 58.9406 55.4017 59.2421C68.3735 59.2421 81.2725 59.2421 94.2937 59.2421ZM58.7754 3.81828C58.7025 4.00803 58.6635 4.06525 58.6635 4.11984C58.6583 6.22783 58.6349 8.33578 58.6635 10.4412C58.7051 13.4433 60.8693 16.0218 63.8476 16.2947C66.1132 16.5026 68.4151 16.3363 70.8966 16.3363C66.7998 12.1073 62.8253 7.99788 58.7754 3.81828Z" fill="#FFC41F"/>
<path d="M43.8215 11.689C53.2427 11.6734 60.9941 19.4114 61.0045 28.8362C61.0123 38.4301 53.339 46.1862 43.8267 46.1966C34.2493 46.207 26.524 38.4509 26.5318 28.8388C26.5422 19.3776 34.2779 11.7046 43.8215 11.689ZM34.2962 17.5113C29.1408 21.4596 27.4214 29.13 30.2566 35.2174C33.2245 41.5882 40.1383 44.9958 47.0443 43.4882C53.248 42.134 58.4971 36.1817 58.5049 30.4218C58.1537 30.4218 57.8 30.4218 57.4488 30.4218C53.1647 30.4218 48.8833 30.3854 44.5993 30.4452C43.4912 30.4608 42.8279 30.0865 42.2192 29.169C39.6337 25.2779 36.9753 21.4388 34.2962 17.5113ZM36.2262 16.1831C38.7285 19.8558 41.2334 23.5286 43.6811 27.1208C46.9247 23.8743 50.098 20.7006 53.2688 17.5269C49.2917 13.537 40.89 12.8197 36.2262 16.1831ZM55.2404 19.44C52.3272 22.3563 49.4764 25.2103 46.6776 28.0097C50.5714 28.0097 54.5927 28.0097 58.6505 28.0097C58.3852 24.706 57.2589 21.8417 55.2404 19.44Z" fill="#FFC41F"/>
<path d="M20.8744 22.0342C20.8744 24.5009 20.877 26.9676 20.8718 29.4316C20.8692 30.4921 20.4842 31.0042 19.7143 31.0094C18.9417 31.0146 18.5412 30.4974 18.5386 29.4499C18.5334 24.5503 18.5334 19.6507 18.5386 14.7511C18.5386 13.7218 18.9626 13.1811 19.7429 13.2357C20.6663 13.3007 20.8796 13.9271 20.877 14.7329C20.8666 17.1658 20.8744 19.6013 20.8744 22.0342Z" fill="#FFC41F"/>
<path d="M36.0572 61.615C34.1454 61.615 32.2335 61.6202 30.3217 61.6124C29.3021 61.6072 28.7506 61.1758 28.8104 60.4012C28.8833 59.4811 29.5075 59.2705 30.3139 59.2705C34.1375 59.2809 37.9638 59.2705 41.7875 59.2783C42.7421 59.2809 43.2649 59.7072 43.2675 60.4402C43.2701 61.1732 42.7473 61.6046 41.7953 61.6098C39.8835 61.6228 37.969 61.615 36.0572 61.615Z" fill="#FFC41F"/>
<path d="M37.1314 71.5571C36.195 71.5571 35.2587 71.5675 34.3222 71.5545C33.378 71.5415 32.8448 71.11 32.889 70.3666C32.941 69.5193 33.4794 69.2152 34.2676 69.2178C36.2392 69.223 38.2083 69.2178 40.1799 69.2204C40.9733 69.2204 41.5221 69.5635 41.5091 70.4083C41.4961 71.2582 40.9213 71.5597 40.1357 71.5571C39.1343 71.5545 38.1328 71.5571 37.1314 71.5571Z" fill="#FFC41F"/>
<path d="M26.9272 71.5574C26.1208 71.5574 25.3119 71.5678 24.5056 71.5548C23.7513 71.5444 23.2414 71.1806 23.2336 70.4008C23.2258 69.6236 23.7252 69.2337 24.4822 69.2259C26.0975 69.2103 27.7101 69.2155 29.3254 69.2233C30.0798 69.2285 30.587 69.595 30.5948 70.3774C30.6026 71.1597 30.1032 71.5366 29.3489 71.5522C28.5425 71.5704 27.7335 71.5574 26.9272 71.5574Z" fill="#FFC41F"/>
<path d="M24.9685 61.7583C24.4587 61.5711 23.8995 61.5113 23.5536 61.2072C23.0151 60.7341 23.0905 60.0999 23.603 59.5931C24.079 59.12 25.8581 59.12 26.3341 59.5931C26.8466 60.1025 26.922 60.7367 26.3836 61.2098C26.0403 61.5139 25.481 61.5737 24.9685 61.7583Z" fill="#FFC41F"/>
<path d="M63.7591 93.0611C61.1996 93.0403 59.1473 90.9453 59.1759 88.385C59.2045 85.7702 61.3193 83.683 63.897 83.7298C66.4565 83.7766 68.5035 85.8663 68.4905 88.424C68.4749 91.031 66.3836 93.0819 63.7591 93.0611ZM63.7955 90.7139C65.1065 90.7295 66.1495 89.7107 66.1547 88.411C66.1599 87.127 65.0857 86.0509 63.8137 86.0665C62.56 86.0821 61.5481 87.0854 61.5169 88.3486C61.4857 89.6717 62.4741 90.6983 63.7955 90.7139Z" fill="#FFC41F"/>
<path d="M85.939 93.0585C83.3873 93.0351 81.3063 90.9193 81.3428 88.385C81.3818 85.7702 83.5017 83.683 86.0742 83.7298C88.6416 83.7766 90.6652 85.8481 90.6574 88.4214C90.6496 91.0414 88.5739 93.0819 85.939 93.0585ZM85.9936 90.7139C87.3124 90.7217 88.3294 89.708 88.3242 88.3928C88.3216 87.1296 87.3228 86.0977 86.0742 86.0639C84.7919 86.0301 83.7176 87.0646 83.6864 88.3616C83.6578 89.6612 84.6826 90.7087 85.9936 90.7139Z" fill="#FFC41F"/>
<path d="M90.6548 78.2144C90.5845 80.8266 88.4568 82.8099 85.8167 82.7267C83.3118 82.6461 81.2907 80.5225 81.3453 78.0298C81.4025 75.4072 83.5381 73.3304 86.1028 73.4032C88.7247 73.476 90.7276 75.5917 90.6548 78.2144ZM88.3242 78.0689C88.3216 76.764 87.2655 75.7166 85.9831 75.7425C84.6878 75.7685 83.6629 76.8342 83.6863 78.1286C83.7097 79.3841 84.7268 80.3848 85.991 80.39C87.3071 80.3978 88.3268 79.3815 88.3242 78.0689Z" fill="#FFC41F"/>
<path d="M63.7696 82.7317C61.2101 82.7161 59.1526 80.6289 59.1734 78.0687C59.1942 75.4486 61.3063 73.3588 63.884 73.4056C66.4539 73.4523 68.4932 75.5239 68.488 78.0842C68.4854 80.6887 66.3941 82.7473 63.7696 82.7317ZM63.8502 80.3898C65.1534 80.3768 66.1808 79.3241 66.1522 78.027C66.1262 76.7716 65.0987 75.7501 63.8554 75.7397C62.56 75.7293 61.5222 76.7664 61.5144 78.0739C61.5092 79.3813 62.5392 80.4028 63.8502 80.3898Z" fill="#FFC41F"/>
<path d="M90.6599 67.6588C90.7067 70.2789 88.6727 72.3713 86.0455 72.4051C83.4964 72.4389 81.3869 70.3854 81.3453 67.8304C81.3037 65.2311 83.3612 63.1153 85.9727 63.0737C88.5114 63.0373 90.6131 65.0934 90.6599 67.6588ZM86.017 70.0605C87.3331 70.0553 88.3397 69.0338 88.3241 67.716C88.3085 66.4502 87.3045 65.4338 86.0533 65.4182C84.758 65.4027 83.7019 66.432 83.6863 67.7316C83.6681 69.0286 84.706 70.0631 86.017 70.0605Z" fill="#FFC41F"/>
<path d="M70.2646 67.6457C70.3452 65.0282 72.4989 62.9774 75.0688 63.0762C77.6413 63.1749 79.6286 65.283 79.5688 67.8484C79.509 70.4659 77.3891 72.4751 74.7645 72.4023C72.2076 72.3321 70.1891 70.1955 70.2646 67.6457ZM74.9336 70.0578C76.2471 70.05 77.259 69.0181 77.2382 67.7081C77.2174 66.4448 76.2055 65.4311 74.9544 65.4181C73.6538 65.4051 72.6134 66.4345 72.603 67.7393C72.5926 69.0467 73.6174 70.0656 74.9336 70.0578Z" fill="#FFC41F"/>
<path d="M74.9283 93.0608C72.3688 93.079 70.2775 91.0204 70.2593 88.4628C70.2411 85.8479 72.3116 83.7399 74.9049 83.7295C77.4618 83.7191 79.535 85.7673 79.5714 88.338C79.6078 90.9528 77.5529 93.0426 74.9283 93.0608ZM77.2382 88.4108C77.2434 87.1164 76.1847 86.0481 74.9049 86.0637C73.6174 86.0792 72.5873 87.1397 72.6003 88.4419C72.6134 89.7104 73.607 90.6981 74.8841 90.7137C76.2029 90.7293 77.233 89.7208 77.2382 88.4108Z" fill="#FFC41F"/>
<path d="M74.8815 82.7313C72.3272 82.7287 70.2463 80.6415 70.2593 78.089C70.2697 75.4742 72.3741 73.374 74.9518 73.4026C77.5191 73.4312 79.561 75.4898 79.5714 78.0605C79.5818 80.6727 77.5139 82.7339 74.8815 82.7313ZM77.2382 78.0683C77.2356 76.7686 76.1743 75.716 74.892 75.7394C73.594 75.7653 72.5821 76.818 72.603 78.1255C72.6238 79.3887 73.6304 80.3816 74.8998 80.3894C76.2081 80.3972 77.2408 79.3731 77.2382 78.0683Z" fill="#FFC41F"/>
<path d="M63.845 72.4072C61.2881 72.4332 59.1942 70.372 59.176 67.8143C59.1578 65.1891 61.2023 63.0966 63.8112 63.0758C66.3499 63.055 68.4464 65.1163 68.4906 67.6792C68.5374 70.268 66.4618 72.3812 63.845 72.4072ZM63.8554 70.0575C65.1638 70.0445 66.1834 68.9943 66.1548 67.6947C66.1262 66.4367 65.1013 65.423 63.8528 65.4178C62.5522 65.4126 61.5196 66.4419 61.5144 67.7494C61.5118 69.062 62.534 70.0705 63.8554 70.0575Z" fill="#FFC41F"/>
<path d="M75.0142 48.359C79.8159 48.359 84.6175 48.3564 89.4192 48.359C90.8576 48.359 91.1724 48.6814 91.175 50.1396C91.1776 52.089 91.1828 54.0384 91.1724 55.9853C91.1672 57.1185 90.7796 57.5162 89.6586 57.5162C79.8263 57.5214 69.9966 57.5214 60.1644 57.5162C59.0459 57.5162 58.6609 57.1159 58.6557 55.9801C58.6453 53.9994 58.6505 52.0162 58.6531 50.0356C58.6557 48.7099 59.0017 48.3564 60.3126 48.3564C65.2158 48.3564 70.1163 48.359 75.0142 48.359ZM61.0358 55.1145C70.275 55.1145 79.4335 55.1145 88.566 55.1145C88.566 53.6043 88.566 52.1643 88.566 50.7503C79.3502 50.7503 70.2151 50.7503 61.0358 50.7503C61.0358 52.2137 61.0358 53.6303 61.0358 55.1145Z" fill="#FFC41F"/>
</svg>
