<svg width="98" height="98" viewBox="0 0 98 98" fill="none" xmlns="http://www.w3.org/2000/svg">
<path d="M35.8717 97.9998C35.6799 97.9253 35.483 97.8585 35.2886 97.7891C34.8334 97.6297 34.4012 97.4807 34.0048 97.2623C31.8744 96.0904 30.79 94.2659 30.7849 91.8425C30.7568 80.8231 30.7389 68.9557 30.79 56.8365C30.8054 53.3184 33.3347 50.8025 36.9433 50.7229C37.5213 50.71 38.1249 50.7023 38.7923 50.7023C39.5442 50.7023 40.2987 50.71 41.0506 50.7203H41.1171C41.7079 50.7203 42.1043 50.561 42.2526 49.772C44.0761 39.9733 51.2958 32.8678 61.0909 31.2308C62.2008 31.0458 63.3363 30.9507 64.4693 30.9507C74.8551 30.9507 84.2462 38.6062 86.3177 48.7595C86.6988 50.6226 86.8087 50.7152 88.6808 50.7152C89.0107 50.7152 89.3176 50.7126 89.627 50.7126C89.9339 50.71 90.2408 50.71 90.5477 50.71C90.9441 50.71 91.3405 50.7126 91.7395 50.7229C95.4683 50.8154 97.9746 53.4006 97.9772 57.1551C97.9823 64.0474 97.9823 70.9396 97.9797 77.8293V87.7745C97.9797 88.9797 97.9823 90.185 97.9797 91.3928C97.972 94.8389 96.3685 96.9616 93.0771 97.879C92.9824 97.9047 92.9057 97.951 92.8392 97.9921C92.8341 97.9947 92.829 97.9972 92.8239 97.9998H35.8717ZM64.3133 70.8882C63.2673 70.8882 62.2571 71.3174 61.3108 72.168C57.3544 75.7118 53.398 79.2555 49.4442 82.8019C45.1374 86.6618 40.8332 90.5216 36.5239 94.3764C36.4165 94.4714 36.2605 94.5383 36.0942 94.6102C36.0047 94.6488 35.9152 94.6873 35.8308 94.7284L35.5495 94.8698L36.084 95.5405H93.5221L91.9262 94.104C91.2024 93.4512 90.5375 92.8525 89.8726 92.2563L84.4047 87.3505C78.8499 82.3676 73.2951 77.3847 67.7352 72.407C66.6022 71.3996 65.4539 70.8882 64.3133 70.8882ZM33.2273 56.5898C33.212 56.7054 33.1966 56.7928 33.1838 56.8647C33.1634 56.9958 33.148 57.0832 33.148 57.1782V58.1985C33.1429 69.2101 33.1352 80.5996 33.1455 91.7988C33.1455 92.1406 33.2171 92.4696 33.2989 92.8499C33.3398 93.0349 33.3833 93.2354 33.4191 93.4538L33.4984 93.9086L56.8813 72.9415L33.2836 56.1683L33.2273 56.5898ZM71.8757 72.9441L95.0975 93.7647L95.2279 93.4152C95.6422 92.3102 95.8366 58.2678 95.4376 56.6232L95.3481 56.2557L71.8757 72.9441ZM65.569 46.1203C65.569 46.6985 65.5741 47.2536 65.5818 47.7958C65.5946 49.0216 65.6099 50.1806 65.5434 51.3242C65.4846 52.3907 65.8631 52.9406 66.8938 53.2824C69.0932 54.0097 70.4103 55.4693 70.8118 57.6151C71.4128 60.8377 69.6072 63.942 66.5178 64.9956C65.8196 65.2346 65.5562 65.5867 65.546 66.296C65.5409 66.7328 65.4462 67.18 65.349 67.6528C65.303 67.8738 65.257 68.1 65.2161 68.3338L65.17 68.6037L65.4411 68.6345C67.2569 68.8349 68.7172 70.035 69.9064 71.1863L70.0599 71.3328L72.8885 69.3232C75.8986 67.1851 78.7399 65.1652 81.6299 63.0785C82.1004 62.7393 82.5224 62.2151 82.7603 61.6754C84.3663 58.0289 84.8369 54.0919 84.1566 49.9725C82.617 40.6415 73.96 33.3329 64.4488 33.3329C63.344 33.3329 62.2366 33.4331 61.1574 33.631C50.0426 35.6663 42.9099 45.6732 44.5645 56.9033C44.9661 59.6298 45.8382 62.6879 49.2524 64.7052C51.4876 66.0236 53.6333 67.6143 55.7074 69.151C56.6255 69.8295 57.5718 70.5336 58.5257 71.2095L58.6971 71.3328L58.8505 71.1863C60.0372 70.0402 61.4975 68.8375 63.3261 68.6268L63.5972 68.5959L63.0908 65.7691L62.9655 65.7152C62.4847 65.5045 62.0167 65.3091 61.5589 65.119C60.5436 64.6975 59.5871 64.2992 58.6894 63.8032C58.1754 63.518 58.027 63.0271 58.0603 62.6622C58.0986 62.2408 58.3621 61.9093 58.761 61.7782C58.8429 61.7499 58.94 61.7371 59.05 61.7371C59.4029 61.7371 59.8249 61.8759 60.1932 62.0044C60.7661 62.2048 61.3159 62.4566 61.9527 62.747C62.2366 62.8755 62.5358 63.0117 62.853 63.1531L63.211 63.3098V62.9166C63.211 62.2279 63.2008 61.5675 63.1906 60.9302C63.1701 59.5502 63.1496 58.2499 63.2391 56.9727C63.3568 55.3228 63.0499 54.0559 61.1702 53.2387C59.3723 52.4575 58.4848 50.8128 58.6715 48.6053C58.8582 46.4184 59.9144 44.8457 61.7251 44.0568C62.8044 43.5865 63.367 43.0956 63.2519 41.8416C63.2264 41.5589 63.2928 41.3225 63.4514 41.1426C63.6381 40.9293 63.9501 40.8008 64.3261 40.7854C64.3516 40.7854 64.3798 40.7828 64.4053 40.7828C65.0345 40.7828 65.4104 41.122 65.523 41.7902C65.5767 42.1088 65.5869 42.4429 65.5946 42.7153C65.5971 42.8284 65.6022 42.9312 65.6074 43.0211L65.6176 43.1702L65.7506 43.237C66.1035 43.4117 66.4488 43.5736 66.7889 43.733C67.5331 44.0825 68.239 44.414 68.8911 44.8149C69.2364 45.0281 69.4589 45.3314 69.5228 45.6732C69.5816 45.9918 69.4998 46.3182 69.2927 46.5906C69.0702 46.881 68.7914 47.03 68.4564 47.03C68.1674 47.03 67.8451 46.9221 67.4999 46.7088C67.1955 46.5212 66.881 46.3645 66.5127 46.1846C66.3362 46.0972 66.147 46.0047 65.9398 45.8993L65.5664 45.7091V46.1203H65.569ZM65.6534 62.7059L66.0038 62.5672C67.6047 61.9298 68.6635 60.3263 68.5715 58.6662C68.4871 57.1217 67.5689 56.009 65.9807 55.5336L65.6508 55.4359V62.7059H65.6534ZM86.1463 59.8894L94.5911 53.8837L94.164 53.7064C92.8239 53.1462 91.5656 53.0717 90.5094 53.0717C90.1027 53.0717 89.6987 53.0845 89.3048 53.0974C88.911 53.1102 88.5376 53.1231 88.1591 53.1231C87.8215 53.1231 87.5248 53.1128 87.2512 53.0922L87.0082 53.0742L86.1463 59.8894ZM38.153 53.0691C37.1198 53.0691 35.8922 53.1488 34.616 53.7398L34.2145 53.9249L42.5979 59.8766L41.7488 53.028L41.4981 53.0563C41.1452 53.0948 40.7693 53.1128 40.3166 53.1128C39.9637 53.1128 39.6082 53.1025 39.2527 53.0897C38.887 53.0794 38.5213 53.0691 38.153 53.0691ZM62.6612 46.2C61.5256 46.9889 60.9221 48.0554 61.009 49.1244C61.0832 50.065 61.6995 50.8796 62.697 51.3576L63.0627 51.5324V45.9224L62.6612 46.2Z" fill="#05B068"/>
<path d="M5.61912 98C5.42219 97.9178 5.22015 97.8407 5.02067 97.7661C4.5501 97.5863 4.1051 97.4166 3.69846 97.1751C1.99008 96.1574 1.04126 94.5796 0.877581 92.4877C0.862236 92.277 0.862236 92.0637 0.864793 91.8401V91.6423V83.2878C0.864793 57.6333 0.864793 31.9814 0.864793 6.32689C0.864793 2.96557 2.67292 0.634745 5.6984 0.0925134C6.14084 0.0128491 6.61653 0.0128491 7.07687 0.0128491C12.7289 0.0102793 18.3732 0.0102793 24.0175 0.0102793C34.8407 0.0102793 45.6613 0.0102793 56.4845 0C58.3336 0 59.8425 0.621896 61.1059 1.8991C65.1543 6.00052 69.2923 10.1508 73.2922 14.1623L75.3816 16.2592C76.4634 17.3463 77.0209 18.7134 77.0312 20.3247C77.0491 22.7455 77.0516 25.3564 77.0337 28.304C77.0286 29.2548 76.5887 29.8227 75.8573 29.8227C75.1105 29.815 74.6885 29.2497 74.6834 28.2706V28.1549C74.6706 25.7342 74.6579 23.2337 74.6911 20.7744C74.6962 20.4403 74.6681 20.0651 74.42 19.8133C74.2282 19.618 73.9443 19.5306 73.5019 19.5306H73.461C71.8344 19.5486 70.1107 19.5589 68.0366 19.5589C66.4356 19.5589 64.8346 19.5537 63.2362 19.5486L62.7426 19.546C59.5484 19.5358 57.5612 17.5416 57.5535 14.3396C57.5459 11.6773 57.5484 9.01749 57.551 6.30119V2.37708C57.551 2.37708 15.2454 2.37708 7.04363 2.37708C4.58079 2.37708 3.22533 3.72881 3.22533 6.18041C3.22277 34.7157 3.22277 63.2509 3.22533 91.7862C3.22533 94.2583 4.57056 95.6203 7.01294 95.6229C9.49879 95.6255 11.9846 95.6255 14.4705 95.6255C14.4705 95.6255 24.731 95.6255 27.1197 95.6281C27.7719 95.6281 28.291 95.8259 28.5442 96.1677C28.7181 96.4016 28.7565 96.7022 28.6542 97.0363C28.5826 97.2727 28.3601 97.4937 28.1248 97.7276C28.0378 97.815 27.9458 97.9049 27.8614 97.9974H5.61912V98ZM59.9115 7.71973C59.9115 9.9195 59.909 12.1013 59.9141 14.2805C59.9192 16.2515 60.8348 17.1715 62.7938 17.1767C63.9779 17.1792 65.162 17.1818 66.3486 17.1818C67.7962 17.1818 69.2437 17.1792 70.6938 17.1767H71.4073C71.5838 17.1767 71.7577 17.1587 71.9111 17.1433C71.9751 17.1355 72.0364 17.1304 72.0927 17.1253L72.6451 17.0816L59.9115 4.2916V7.71973Z" fill="#05B068"/>
<path d="M13.5348 16.5526C12.7036 16.5526 12.1308 16.3984 11.8367 16.0926C11.6551 15.905 11.5707 15.6506 11.5784 15.3165C11.5937 14.728 11.8418 14.1807 13.522 14.1807H36.9868C40.6746 14.1807 44.365 14.1807 48.0529 14.1832L48.3956 14.1807C48.613 14.1807 48.8432 14.1858 49.0631 14.2218C49.6206 14.3117 49.9301 14.6484 49.9838 15.2266C50.0426 15.8613 49.7869 16.2674 49.2217 16.437C48.8713 16.5423 48.4749 16.55 48.0657 16.55C40.6337 16.5552 33.2043 16.5552 25.7723 16.5552L13.5348 16.5526Z" fill="#05B068"/>
<path d="M48.5491 26.4486C48.4698 26.4486 48.3905 26.4461 48.3112 26.4461C48.2294 26.4435 48.145 26.4435 48.0632 26.4435H26.1534H13.5246C13.4428 26.4435 13.3609 26.4461 13.2817 26.4461C13.2049 26.4486 13.1256 26.4486 13.0489 26.4486C12.8673 26.4486 12.7318 26.4409 12.609 26.4204C11.9569 26.3124 11.6116 25.9347 11.5861 25.2999C11.5554 24.5187 12.0848 24.2232 12.5323 24.1127C12.6883 24.0741 12.8597 24.069 13.0029 24.069C13.0719 24.069 13.1384 24.0715 13.2075 24.0715C13.2791 24.0741 13.3507 24.0741 13.4198 24.0741C19.2099 24.0741 24.9999 24.0715 30.7875 24.0715H48.1527C48.2294 24.0715 48.3036 24.069 48.3777 24.069C48.4493 24.0664 48.5209 24.0664 48.5926 24.0664C48.723 24.0664 48.8918 24.0715 49.0427 24.1101C49.6897 24.272 50.0068 24.6703 49.9838 25.2999C49.9608 25.9372 49.6207 26.315 48.9711 26.4204C48.8585 26.4409 48.7281 26.4486 48.5491 26.4486Z" fill="#05B068"/>
<path d="M13.054 36.368C12.9415 36.368 12.8187 36.3655 12.7062 36.35C12.0029 36.2524 11.5604 35.777 11.5809 35.1397C11.6013 34.4869 12.077 34.0372 12.7675 34.0218C13.7317 33.9987 14.6856 33.9961 15.4887 33.9961L17.8288 33.9987H25.7109C27.1635 33.9987 28.6161 33.9987 30.0688 34.0012H30.3373C30.5649 34.0012 30.8258 34.0064 31.0611 34.0552C31.5163 34.1529 32.0125 34.4664 31.9127 35.0292C31.836 35.4763 31.4319 35.9492 31.0918 36.3089C31.079 36.3243 31.0074 36.3706 30.68 36.3706C30.6263 36.3706 30.4115 36.3655 30.3629 36.3655C26.9103 36.3706 23.4654 36.3706 20.018 36.3706H13.054V36.368Z" fill="#05B068"/>
</svg>
