<svg width="70" height="100" viewBox="0 0 70 100" fill="none" xmlns="http://www.w3.org/2000/svg">
<path d="M37.7837 0.00261178C38.849 0.493147 39.8779 1.01501 40.4523 2.13697C41.6064 4.39135 40.6847 6.6118 38.0057 7.9112C38.0057 11.9946 38.0057 16.0885 38.0057 20.2398C40.1363 20.4955 42.2487 20.7486 44.442 21.0095C44.442 18.5386 44.4604 16.0676 44.429 13.5993C44.4212 12.9261 44.6301 12.4617 45.1288 11.9946C46.9383 10.3038 48.7112 8.57392 50.458 6.81791C50.6983 6.57786 50.8445 6.0795 50.787 5.7403C50.4606 3.7886 51.3093 1.94909 52.9804 1.1585C54.6097 0.386166 56.6124 0.821894 57.7822 2.20478C58.9598 3.5955 59.059 5.64375 58.0224 7.09709C56.9257 8.63392 54.9283 9.1558 53.0378 8.46174C52.7611 8.35998 52.265 8.41998 52.0613 8.61045C50.4137 10.1421 48.8078 11.7155 47.2046 13.2914C47.014 13.4793 46.8155 13.7741 46.8129 14.0194C46.7842 16.5529 46.7946 19.0891 46.7946 21.6488C50.0846 22.6142 53.1632 23.9162 55.9858 25.7792C62.6206 30.1549 66.5738 36.3048 68.5661 43.9446C70.0388 49.5858 68.9577 54.9373 67.2318 60.1949C65.5816 65.2202 63.6964 70.1934 61.5213 75.0127C59.0434 80.5051 59.1478 85.9401 61.0801 91.4247C61.8921 93.7313 63.1481 95.8865 64.2708 98.0783C64.7539 99.0228 64.3518 99.9178 63.2734 99.9934C63.0775 100.006 62.8817 99.996 62.6859 99.996C49.9907 99.996 37.298 99.996 24.6028 99.996C22.8299 99.996 22.4069 99.3881 22.9422 97.6791C23.6472 95.4273 24.1015 93.1442 23.6994 90.7672C23.2816 88.2911 22.091 87.2917 19.5661 87.2995C17.1586 87.31 14.7459 87.3674 12.3411 87.2787C11.3854 87.2421 10.4063 86.963 9.50021 86.6211C6.5836 85.5253 5.46081 83.1404 6.47653 80.2077C6.72719 79.4797 6.67235 78.9187 6.26763 78.2899C5.64879 77.3349 5.03521 76.3695 4.52865 75.3545C3.77665 73.849 3.95421 72.8444 5.12138 71.6338C5.84988 70.8771 6.00656 69.9925 5.85511 69.0193C5.74023 68.2887 5.34069 67.8321 4.58086 67.5947C3.72181 67.3259 2.8497 66.9841 2.10031 66.4988C0.544086 65.4864 0.0688463 63.8217 0.841735 62.1362C1.1864 61.3821 1.65384 60.6072 2.26484 60.0618C5.10312 57.5204 6.53661 54.2511 7.15544 50.6242C7.65677 47.6836 7.9205 44.6987 8.19989 41.7242C8.71427 36.2604 11.0042 31.6969 15.0384 27.9918C18.4433 24.8659 22.4643 22.8621 27.0103 21.5757C27.0103 19.8536 26.8667 18.0898 27.0495 16.3625C27.2584 14.3821 26.6264 12.9809 25.0572 11.7833C23.7699 10.7996 22.6497 9.58892 21.4826 8.45391C21.1222 8.10427 20.8324 7.98163 20.2945 8.15123C17.9393 8.90007 15.6441 7.63721 15.0175 5.315C14.4378 3.17021 15.84 0.900187 18.109 0.313111C20.9264 -0.414864 23.736 2.45529 22.9344 5.29413C22.7411 5.98036 22.8247 6.38739 23.3547 6.88053C25.1224 8.51913 26.8171 10.2386 28.5691 11.8955C29.1305 12.4251 29.3916 12.994 29.3786 13.7793C29.3394 16.1485 29.3629 18.5203 29.3629 20.9234C31.4622 20.6912 33.4884 20.4642 35.5721 20.2346C35.5721 16.1329 35.5721 12.0129 35.5721 7.88508C33.8775 7.09187 32.6085 5.93861 32.7129 3.89037C32.82 1.79777 34.1516 0.649698 36.0212 0C36.6087 0.00260923 37.1962 0.00261178 37.7837 0.00261178ZM27.0155 23.7701C24.8222 24.7485 22.7672 25.4974 20.8742 26.5411C15.067 29.7452 11.4481 34.5462 10.6256 41.231C10.2339 44.4221 10.0825 47.6523 9.54197 50.8147C8.84741 54.8903 7.29119 58.6215 4.11869 61.4917C3.40586 62.1362 2.65649 62.8198 2.96983 63.8974C3.26488 64.9098 4.23098 65.1237 5.11615 65.3716C5.24148 65.4055 5.39292 65.3847 5.49736 65.4447C6.01958 65.7552 6.63844 65.9874 7.0275 66.4205C8.59155 68.1635 8.69333 71.0362 7.16583 72.8053C6.38511 73.7081 6.4034 74.4308 7.04573 75.2997C7.27812 75.6128 7.46352 75.9625 7.70896 76.2651C8.88657 77.7237 9.37749 79.2449 8.71427 81.1496C8.09543 82.9265 8.71685 83.8867 10.5107 84.5129C10.8162 84.6199 11.1348 84.7477 11.4507 84.7634C13.7537 84.8651 16.0802 85.1757 18.3623 84.9773C22.4069 84.6251 25.0494 86.1384 25.945 89.76C26.1147 90.4489 26.2609 91.1795 26.2192 91.8787C26.1017 93.7835 25.8771 95.6804 25.6943 97.606C37.3973 97.606 49.2543 97.606 61.1819 97.606C61.1114 97.4233 61.0826 97.3007 61.0226 97.1964C58.5551 93.0346 57.6281 88.445 57.2469 83.6988C56.9519 80.0355 58.1321 76.7165 59.5865 73.4498C61.9808 68.0695 64.216 62.6293 65.7174 56.9203C66.6678 53.3091 67.3153 49.6171 66.6338 45.9146C65.1768 38.0008 61.0617 31.7804 54.1762 27.4726C51.9072 26.0532 49.4815 24.9677 46.7999 24.1875C46.7999 25.4791 46.826 26.6768 46.7842 27.8718C46.7712 28.2371 46.6798 28.7328 46.4343 28.9207C46.1184 29.1607 45.5257 29.3355 45.2097 29.1894C44.8625 29.0303 44.5073 28.4902 44.4865 28.0962C44.4029 26.5828 44.4525 25.0617 44.4525 23.4361C42.2513 23.1491 40.1729 22.8803 37.9874 22.5959C37.9874 24.0623 37.9874 25.3252 37.9874 26.588C37.9874 26.9142 37.9926 27.2403 37.9874 27.5639C37.9691 28.4902 37.5226 29.0798 36.8307 29.0903C36.1439 29.1033 35.6478 28.5006 35.6426 27.5978C35.6322 25.9801 35.64 24.3624 35.64 22.5646C33.4702 22.8307 31.4309 23.0812 29.3733 23.3317C29.3733 25.0042 29.3707 26.468 29.3759 27.9318C29.3786 28.7407 29.0339 29.2651 28.1827 29.2807C27.2949 29.299 27.0129 28.7381 27.0207 27.937C27.0233 26.6742 27.0155 25.406 27.0155 23.7701ZM20.7384 4.29478C20.7358 3.34763 19.9577 2.56227 19.0072 2.54922C18.0202 2.53617 17.2029 3.3633 17.2291 4.34698C17.2552 5.29413 18.0542 6.06125 19.002 6.05082C19.9263 6.04038 20.741 5.21584 20.7384 4.29478ZM36.768 5.65943C37.7863 5.6777 38.5279 5.05147 38.5593 4.15129C38.5958 3.18066 37.7759 2.34831 36.7941 2.35353C35.8489 2.35875 35.0603 3.1389 35.0499 4.07561C35.042 4.98623 35.7523 5.64378 36.768 5.65943ZM54.6776 6.43959C55.5915 6.43437 56.4114 5.63853 56.3801 4.78532C56.3461 3.89818 55.5367 3.12325 54.6515 3.1363C53.8368 3.14673 53.0848 3.94256 53.0691 4.81143C53.0535 5.64639 53.8421 6.44481 54.6776 6.43959Z" fill="#FF7C5A"/>
<path d="M31.9114 71.3859C30.7599 70.9214 29.7443 70.4805 28.7024 70.123C28.4883 70.0499 28.1045 70.2169 27.9034 70.3918C27.047 71.1432 26.2427 71.9547 25.3915 72.714C24.2661 73.7185 23.2008 73.695 22.112 72.6357C20.8508 71.4093 19.6027 70.17 18.3729 68.9097C17.3049 67.8112 17.344 66.6579 18.459 65.5882C19.3938 64.688 20.3469 63.8061 21.2555 62.9502C20.7124 61.7213 20.2032 60.5706 19.6758 59.3782C18.4199 59.3782 17.1482 59.3834 15.8766 59.3756C14.3648 59.3652 13.5188 58.5433 13.5031 57.0247C13.4822 55.2348 13.4848 53.4448 13.5031 51.6549C13.5162 50.2485 14.3465 49.437 15.7748 49.4188C16.8506 49.4057 17.929 49.3927 19.0047 49.4266C19.527 49.4423 19.8142 49.3327 19.997 48.7743C20.3181 47.7958 20.7699 46.8617 21.2451 45.7189C20.3939 44.897 19.4225 43.9864 18.4825 43.0444C17.2971 41.8546 17.2997 40.7666 18.4773 39.5742C19.6679 38.3687 20.8638 37.1658 22.078 35.9865C23.2321 34.8645 24.3497 34.8697 25.4986 35.9943C26.4516 36.9284 27.3733 37.8912 28.2716 38.807C29.4074 38.3295 30.4623 37.9173 31.4806 37.4294C31.6921 37.3276 31.8775 36.9519 31.888 36.6936C31.9324 35.5559 31.8931 34.4157 31.9114 33.2781C31.9323 31.9187 32.7549 31.0785 34.1048 31.0655C35.9326 31.0446 37.7603 31.042 39.5855 31.0655C41.0503 31.0837 41.8728 31.9344 41.8937 33.3825C41.8963 33.479 41.8911 33.5782 41.8937 33.6747C41.9459 34.8932 41.5882 36.3779 42.1653 37.2493C42.724 38.0947 44.2437 38.3061 45.4396 38.8383C46.2569 37.9721 47.1003 37.0771 47.9489 36.1848C49.2283 34.8384 50.3354 34.8019 51.6357 36.083C52.7977 37.2259 53.9492 38.3765 55.0955 39.535C56.2861 40.7379 56.3097 41.7946 55.179 43.0183C54.427 43.8324 53.6307 44.6073 52.9205 45.4553C52.7351 45.6771 52.6881 46.1337 52.7716 46.4312C52.9674 47.1487 53.3356 47.8193 53.5262 48.5369C53.7064 49.21 54.0093 49.4866 54.7404 49.437C55.7796 49.3666 56.8267 49.4083 57.8711 49.4214C59.4717 49.4423 60.2916 50.2511 60.2995 51.8193C60.3073 53.544 60.3125 55.2687 60.2968 56.9934C60.2812 58.4963 59.4299 59.3521 57.9338 59.3756C56.7927 59.3939 55.649 59.4017 54.508 59.3704C54.0014 59.3547 53.7429 59.5113 53.6098 60.0175C53.4531 60.6124 53.2912 61.2412 52.9648 61.7474C52.3721 62.6632 52.6828 63.2477 53.4192 63.8635C54.0902 64.4271 54.6934 65.0767 55.2939 65.7186C56.2391 66.731 56.2548 67.8582 55.3044 68.8419C54.0145 70.1778 52.6985 71.4902 51.3564 72.774C50.4007 73.6898 49.2701 73.6768 48.2987 72.774C47.4632 71.9964 46.6982 71.1458 45.8469 70.3891C45.6276 70.1961 45.1916 70.1647 44.8678 70.1961C44.5597 70.2248 44.2672 70.4309 43.9643 70.5509C41.8937 71.3702 41.8937 71.3702 41.8937 73.6611C41.8937 74.3108 41.9172 74.9631 41.8833 75.6128C41.818 76.8313 40.9772 77.6976 39.7526 77.7237C37.8282 77.7628 35.9012 77.7602 33.9769 77.7289C32.7522 77.708 31.9375 76.8 31.9114 75.4719C31.8905 74.1021 31.9114 72.7374 31.9114 71.3859ZM49.8001 37.8207C48.7374 38.8201 47.6434 39.8403 46.5598 40.8736C46.0323 41.3771 45.5545 41.4946 44.8208 41.1423C43.5649 40.5396 42.2462 40.036 40.9067 39.6472C39.8727 39.3471 39.4811 38.8201 39.5307 37.7633C39.5986 36.3439 39.5463 34.9167 39.5463 33.4581C37.7446 33.4581 36.0396 33.4581 34.2588 33.4581C34.2588 34.9088 34.2014 36.3048 34.2771 37.6955C34.3372 38.7757 33.8594 39.2767 32.8828 39.6003C31.559 40.0386 30.2508 40.5474 28.987 41.1319C28.0783 41.552 27.3995 41.4711 26.731 40.7196C25.8276 39.7072 24.8666 38.7444 24.0076 37.839C22.7334 39.0941 21.5375 40.2734 20.2555 41.5389C21.2529 42.52 22.2895 43.5454 23.334 44.563C23.9267 45.1423 23.9841 45.7215 23.6055 46.4886C23.005 47.7071 22.4645 48.9648 22.0389 50.2537C21.6315 51.4931 21.4017 51.7592 20.0544 51.7619C18.6653 51.7645 17.2788 51.7619 15.9028 51.7619C15.9028 53.5883 15.9028 55.2687 15.9028 57.0351C17.4459 57.0351 18.9368 57.0299 20.4304 57.0377C21.2842 57.0403 21.7595 57.4161 22.018 58.2928C22.3914 59.5608 22.8483 60.8315 23.475 61.9926C23.9711 62.9111 23.8901 63.5216 23.1773 64.2209C22.1616 65.2203 21.2085 66.2848 20.3547 67.1876C21.608 68.4609 22.8039 69.6742 24.0337 70.924C24.9372 69.9743 25.8981 68.9593 26.8642 67.9495C27.6371 67.1407 28.1436 67.1224 29.1097 67.5868C30.3944 68.2026 31.7026 68.8001 33.0551 69.2385C33.9298 69.5229 34.2797 69.9638 34.2667 70.8379C34.2405 72.3252 34.2588 73.8124 34.2588 75.3284C36.0657 75.3284 37.7734 75.3284 39.5463 75.3284C39.5463 73.7759 39.5673 72.2835 39.5385 70.7936C39.5203 69.9352 39.7735 69.455 40.7057 69.1967C41.9825 68.8419 43.2176 68.3018 44.4161 67.7251C45.7295 67.0911 45.8861 67.065 46.9514 68.1243C47.9332 69.1028 48.9202 70.0813 49.7636 70.9188C51.0535 69.6299 52.2415 68.4401 53.5131 67.1668C52.5731 66.2535 51.5783 65.2255 50.5156 64.2705C49.7087 63.5451 49.7297 62.872 50.2153 61.9509C50.8315 60.782 51.3329 59.5347 51.7272 58.2719C52.0118 57.3586 52.4948 57.0064 53.4113 57.0247C54.8997 57.056 56.3906 57.0325 57.8893 57.0325C57.8893 55.2165 57.8893 53.5153 57.8893 51.7592C56.2913 51.7592 54.7613 51.7592 53.2312 51.7592C52.487 51.7592 52.0953 51.4331 51.8342 50.6842C51.3485 49.2805 50.735 47.9159 50.1004 46.5721C49.7218 45.7658 49.6905 45.111 50.3929 44.4717C51.4712 43.4906 52.5157 42.473 53.5523 41.4946C52.2807 40.25 51.0796 39.0758 49.8001 37.8207Z" fill="#FF7C5A"/>
<path d="M22.707 54.2766C22.7149 46.4672 29.0077 40.2207 36.8515 40.2364C44.677 40.252 50.9305 46.5403 50.9044 54.3679C50.8783 62.1304 44.6038 68.3586 36.8096 68.3612C28.9737 68.3612 22.6992 62.0939 22.707 54.2766ZM48.5544 54.3758C48.5831 47.9571 43.3322 42.6264 36.9324 42.5795C30.4516 42.5325 25.0831 47.7953 25.0544 54.2166C25.0283 60.6353 30.2793 65.966 36.6765 66.0129C43.1625 66.0625 48.5257 60.8075 48.5544 54.3758Z" fill="#FF7C5A"/>
</svg>
