<svg width="99" height="110" viewBox="0 0 99 110" fill="none" xmlns="http://www.w3.org/2000/svg">
<path d="M46.9342 0.00570042C49.9062 1.04216 49.9575 3.50235 49.758 6.10205C50.1342 6.13622 50.402 6.18175 50.6727 6.18175C55.1863 6.18745 59.7027 6.17038 64.2163 6.20171C64.8916 6.2074 65.1794 6.01663 65.4188 5.35888C66.627 2.03024 70.0207 0.082581 73.3745 0.717557C76.8224 1.36962 79.3214 4.33095 79.33 7.77349C79.3385 11.2132 76.8452 14.1859 73.3945 14.8493C70.0435 15.4929 66.684 13.5424 65.3846 10.2479C65.2507 9.9062 64.8375 9.43068 64.5497 9.42783C59.6828 9.37657 54.8159 9.39081 49.8692 9.39081C49.8692 12.3066 49.8692 15.1597 49.8692 18.0584C61.4067 18.0584 72.8787 18.0584 84.3422 18.0584C86.2257 13.7616 89.2091 11.8823 92.8621 12.6796C96.2844 13.4285 98.6067 16.3243 98.5753 19.7982C98.544 23.2322 96.1276 26.0824 92.6712 26.7601C89.0951 27.4606 86.0889 25.5101 84.3536 21.3443C72.893 21.3443 61.4181 21.3443 49.7894 21.3443C49.7894 21.8255 49.7894 22.2754 49.7894 22.7225C49.7808 25.4873 48.8462 26.6519 46.162 27.2698C40.1468 28.6537 35.1345 31.6947 31.1395 36.3958C17.8011 52.0937 25.888 76.5531 45.9597 81.2286C48.9146 81.9176 49.7353 82.9285 49.7922 85.9354C49.7979 86.2116 49.835 86.4878 49.8635 86.8465C50.2482 86.8693 50.5901 86.9063 50.9349 86.9063C61.7401 86.9092 72.5453 86.9035 83.3534 86.9234C84.08 86.9234 84.4505 86.7754 84.7297 86.0151C85.9493 82.6665 89.3744 80.7844 92.8336 81.4649C96.1789 82.1227 98.601 85.1153 98.581 88.5635C98.5611 92.0602 96.1191 94.919 92.6057 95.5597C89.2661 96.169 85.9436 94.2499 84.7012 90.9953C84.6015 90.7304 84.5075 90.4656 84.3992 90.1638C72.9186 90.1638 61.4466 90.1638 49.8863 90.1638C49.8863 93.0112 49.8863 95.8302 49.8863 98.7602C50.2254 98.7829 50.5645 98.8228 50.9035 98.8228C55.3117 98.8285 59.7198 98.8114 64.1251 98.8399C64.8204 98.8456 65.1709 98.6805 65.433 97.9715C66.7068 94.5232 70.2259 92.6268 73.7193 93.4184C77.0931 94.1844 79.518 97.3592 79.3214 100.753C79.1105 104.398 76.3067 107.26 72.6308 107.584C69.5448 107.855 66.5728 105.919 65.4131 102.849C65.2222 102.345 65.0683 102.02 64.4101 102.023C59.754 102.058 55.098 102.04 50.4419 102.046C50.271 102.046 50.0971 102.092 49.7979 102.134C49.7979 103.131 49.8122 104.119 49.7951 105.104C49.7523 107.917 47.8717 109.441 45.0991 109.022C41.0101 108.404 37.0351 107.379 33.1769 105.902C29.7376 104.583 28.5978 101.807 30.1337 98.4612C31.0512 96.4623 31.9374 94.4492 32.9176 92.4816C33.3735 91.5647 33.271 90.981 32.3705 90.4656C31.51 89.973 30.6922 89.4007 29.8744 88.834C28.9454 88.1934 28.7175 87.2509 29.2674 86.4593C29.786 85.7104 30.7064 85.5738 31.6268 86.1489C32.6184 86.7725 33.5986 87.4189 34.5646 88.0823C36.3826 89.3295 36.9525 91.2942 36.0492 93.3187C35.0519 95.554 33.9919 97.7607 32.9803 99.9903C32.3335 101.417 32.6897 102.251 34.16 102.829C37.8415 104.278 41.6484 105.255 45.5579 105.859C46.3273 105.978 46.5894 105.739 46.5894 104.982C46.578 98.4811 46.5695 91.9804 46.598 85.4826C46.6008 84.6056 46.0423 84.5487 45.4496 84.4092C39.4486 83.0025 34.1942 80.1921 30.0254 75.6533C22.0469 66.9687 19.3712 56.7777 22.7535 45.4734C26.0903 34.3229 33.7098 27.2328 45.0365 24.2487C46.578 23.8415 46.5837 23.8728 46.5837 22.2185C46.5837 16.3215 46.5837 10.4244 46.5837 4.53027C46.5837 3.15496 46.5695 3.16066 45.2046 3.35713C41.3236 3.92092 37.568 4.95169 33.9206 6.3868C32.4247 6.97621 32.0713 7.86174 32.7666 9.31677C33.6243 11.1078 34.5162 12.8846 35.3653 14.6785C36.6105 17.3067 35.8725 19.9121 33.3963 21.4127C30.2135 23.3375 27.344 25.6297 24.7681 28.3148C22.7535 30.4162 20.0978 30.5501 17.7726 28.742C16.2026 27.5204 14.6553 26.2704 13.0824 25.0517C11.8514 24.0978 10.8968 24.243 10.0334 25.5243C7.13552 29.8183 4.91008 34.4368 3.4027 39.3941C2.93254 40.9346 3.39131 41.7405 4.98986 42.1192C6.95886 42.5833 8.94209 42.9848 10.9054 43.466C13.6836 44.1494 15.1711 46.3647 14.812 49.1779C14.3447 52.8625 14.3305 56.5414 14.8861 60.2202C15.2822 62.8456 13.7121 65.2033 11.1248 65.8582C9.06177 66.3792 6.97595 66.8234 4.91008 67.3274C3.52238 67.6663 3.03227 68.5091 3.4483 69.8588C5.00696 74.913 7.29509 79.6198 10.2956 83.9763C11.0479 85.0669 12.0794 85.2207 13.1308 84.4006C14.7265 83.1534 16.2881 81.8664 17.8781 80.6107C20.2916 78.7057 22.8276 78.8538 25.0559 80.9979C25.6173 81.5389 26.2128 82.0486 26.7855 82.5782C27.6005 83.3357 27.7173 84.1984 27.1189 84.9302C26.5205 85.662 25.5289 85.7019 24.6655 84.9786C23.9589 84.3835 23.3035 83.7315 22.6139 83.1164C21.7192 82.3163 20.9925 82.265 20.0408 83.0054C18.4138 84.2696 16.8238 85.5823 15.2053 86.8551C12.5638 88.9309 9.44075 88.4383 7.55155 85.6592C4.43422 81.0805 2.0378 76.1544 0.396503 70.8639C-0.595117 67.6663 0.994894 64.9043 4.25755 64.1611C6.19519 63.7198 8.13569 63.2869 10.0676 62.8228C11.3585 62.5153 11.8742 61.7607 11.6861 60.5021C11.1077 56.6467 11.1362 52.7885 11.6035 48.9274C11.7802 47.4638 11.3442 46.8373 9.88527 46.5014C7.94762 46.0572 6.00713 45.6329 4.06948 45.1887C0.983496 44.4825 -0.657805 41.7319 0.24833 38.7136C1.88108 33.2693 4.31169 28.2009 7.5202 23.5084C9.24414 20.9884 12.3672 20.473 14.7978 22.3124C16.4391 23.5568 18.0319 24.8666 19.6561 26.1337C20.8187 27.042 21.5995 26.9965 22.6224 25.9201C25.2611 23.1496 28.2217 20.7891 31.4957 18.813C32.835 18.0043 33.0458 17.2725 32.3819 15.883C31.5242 14.0919 30.6295 12.318 29.786 10.5184C28.4069 7.58556 29.5695 4.64701 32.5757 3.45678C36.4168 1.93625 40.3776 0.845678 44.4637 0.205006C44.6603 0.173685 44.8455 0.0683383 45.0365 0C45.6548 0.00569485 46.2959 0.00570042 46.9342 0.00570042ZM91.4887 15.7634C89.2518 15.7377 87.4681 17.4775 87.4624 19.6871C87.4567 21.8483 89.1977 23.6279 91.3519 23.6593C93.5631 23.6934 95.364 21.928 95.3697 19.7184C95.3754 17.5373 93.6628 15.789 91.4887 15.7634ZM68.197 100.395C68.1828 102.613 69.9666 104.415 72.1578 104.401C74.2892 104.387 76.0872 102.599 76.1129 100.463C76.1385 98.2761 74.3405 96.4851 72.1208 96.4908C69.9324 96.4965 68.2113 98.2078 68.197 100.395ZM91.389 84.5743C89.2034 84.5885 87.4709 86.3141 87.4624 88.4867C87.4538 90.6763 89.2718 92.4987 91.4488 92.4788C93.6429 92.4588 95.3982 90.6422 95.3668 88.4269C95.3355 86.2571 93.5831 84.5601 91.389 84.5743ZM72.155 11.7342C74.3063 11.7257 76.0872 9.96883 76.1129 7.82187C76.1414 5.65214 74.3177 3.82978 72.1236 3.83548C69.9096 3.84117 68.1657 5.62369 68.197 7.85323C68.2284 10.0287 69.978 11.7428 72.155 11.7342Z" fill="#FF7C5A"/>
<path d="M64.2819 72.0084C59.5175 72.0084 54.756 72.0227 49.9917 72.0056C41.2353 71.9743 34.2084 66.1741 32.5329 57.6118C30.6523 47.9961 37.8558 38.1326 47.5981 37.3381C52.1887 36.9651 56.8305 37.1673 61.4495 37.1445C62.5209 37.1388 63.1763 37.845 63.1506 38.7875C63.1278 39.7214 62.4753 40.3251 61.3611 40.3308C57.6283 40.3507 53.8955 40.3393 50.1655 40.3422C43.019 40.345 37.2403 44.8753 35.8013 51.6037C33.9263 60.3624 40.4289 68.6314 49.5187 68.7595C59.3637 68.899 69.2115 68.8819 79.0564 68.7624C86.3596 68.6712 92.4005 63.0048 92.9904 56.0116C93.6201 48.5285 88.8444 42.0905 81.4984 40.6326C80.1876 40.3735 78.8142 40.3735 77.4692 40.3564C74.4118 40.3165 71.3571 40.3536 68.2996 40.3365C67.1285 40.3308 66.3819 39.7186 66.399 38.7818C66.4161 37.8849 66.929 37.1701 67.8038 37.1872C72.9756 37.2926 78.2101 36.4896 83.3107 37.7567C91.5571 39.8069 96.9141 47.643 96.1932 56.3248C95.5264 64.3289 88.833 71.2054 80.6949 71.8176C75.9562 72.1736 71.1776 71.9657 66.4161 72.0084C65.7037 72.0141 64.9942 72.0084 64.2819 72.0084Z" fill="#FF7C5A"/>
<path d="M61.4808 57.0198C61.4808 58.5745 61.4922 59.7989 61.478 61.0261C61.4637 62.2192 60.891 62.8855 59.9136 62.8969C58.9362 62.9082 58.2837 62.2277 58.278 61.0745C58.2609 56.604 58.2609 52.1336 58.278 47.6631C58.2837 46.3675 58.8821 45.8237 60.2042 45.8094C61.3412 45.7981 62.4781 45.7952 63.6122 45.8094C66.2679 45.8465 68.4677 47.5948 68.9208 50.0094C69.3967 52.555 68.14 54.7618 65.5869 55.8666C65.4273 55.9349 65.2735 56.0146 65.0113 56.1371C66.1312 57.407 67.2197 58.6058 68.2654 59.8444C68.576 60.2117 69.0034 60.7186 68.9493 61.0973C68.8638 61.681 68.5304 62.3729 68.0717 62.7203C67.4448 63.193 66.6982 62.8997 66.1739 62.316C64.9201 60.915 63.6892 59.4942 62.4468 58.0818C62.1932 57.7971 61.9396 57.5266 61.4808 57.0198ZM61.5577 53.0618C63.0708 52.9394 64.6751 53.4719 65.5043 51.883C65.7693 51.3733 65.7094 50.408 65.3846 49.9325C64.4414 48.543 62.934 49.0954 61.5577 49.0328C61.5577 50.4024 61.5577 51.6609 61.5577 53.0618Z" fill="#FF7C5A"/>
<path d="M78.2528 56.8718C78.2528 58.4237 78.2699 59.8075 78.2471 61.1885C78.2329 62.0143 77.8596 62.7432 77.019 62.8144C76.4776 62.86 75.8365 62.524 75.3549 62.1937C75.1184 62.0285 75.0586 61.4875 75.0586 61.1173C75.0386 56.607 75.0358 52.0938 75.0529 47.5835C75.0586 46.3847 75.6313 45.8323 76.8196 45.8096C77.9935 45.7896 79.1647 45.7982 80.3387 45.8067C83.5956 45.8323 86.0747 48.1559 86.1402 51.2368C86.2029 54.2693 83.7409 56.738 80.5039 56.8661C79.8001 56.8946 79.0963 56.8718 78.2528 56.8718ZM78.3184 53.6457C79.1647 53.6457 79.8713 53.6542 80.578 53.64C80.786 53.6343 80.9997 53.5774 81.2021 53.5147C82.2421 53.2044 82.9659 52.2191 82.9089 51.2111C82.8491 50.1462 81.9828 49.1581 80.8943 49.0528C80.0594 48.9702 79.2131 49.0357 78.3212 49.0357C78.3184 50.5932 78.3184 52.0654 78.3184 53.6457Z" fill="#FF7C5A"/>
<path d="M46.9826 49.0438C46.9826 50.3251 46.9826 51.4783 46.9826 52.7454C48.1338 52.7454 49.228 52.7312 50.3194 52.7483C51.5988 52.7682 52.2798 53.3406 52.277 54.3542C52.2741 55.3594 51.5931 55.9346 50.3108 55.9602C49.2195 55.983 48.1281 55.9659 46.9798 55.9659C46.9798 57.2387 46.9798 58.389 46.9798 59.659C48.2678 59.659 49.5016 59.6505 50.7354 59.6618C52.0063 59.6732 52.7016 60.2399 52.7073 61.2422C52.713 62.2502 52.0063 62.851 50.7582 62.8624C49.0514 62.8766 47.3445 62.8794 45.6405 62.8624C44.2756 62.8481 43.72 62.2815 43.7171 60.8948C43.7086 56.5268 43.7086 52.156 43.7171 47.7881C43.72 46.4156 44.287 45.8575 45.6633 45.8461C47.3702 45.8319 49.077 45.8319 50.781 45.8461C52.0148 45.8575 52.7244 46.4783 52.7044 47.4891C52.6845 48.4601 52.0034 49.0352 50.818 49.0466C49.5785 49.0523 48.3362 49.0438 46.9826 49.0438Z" fill="#FF7C5A"/>
</svg>
