<svg width="94" height="98" viewBox="0 0 94 98" fill="none" xmlns="http://www.w3.org/2000/svg">
<path d="M43.1693 0C45.4394 0.80286 46.3142 2.45701 46.2556 4.79932C46.1893 7.42964 46.2428 7.43219 43.6055 7.43219C42.6567 7.43219 41.7053 7.43219 40.7004 7.43219C40.7004 8.22995 40.7004 8.93851 40.7004 9.74392C42.6235 9.74392 44.4956 9.74137 46.3703 9.74392C50.2115 9.75156 52.5709 12.0939 52.5811 15.9272C52.5913 20.1327 52.5836 24.3381 52.5836 28.5436C52.5836 28.8928 52.5836 29.2394 52.5836 29.7593C53.0376 29.7593 53.4381 29.7593 53.8359 29.7593C64.6428 29.7593 75.4498 29.7542 86.2566 29.7619C89.8326 29.7644 92.4138 31.8238 93.0132 35.1347C93.0973 35.6011 93.1024 36.0854 93.1024 36.562C93.1075 48.062 93.1101 59.562 93.105 71.062C93.1024 75.1248 90.4039 77.8443 86.3433 77.8468C75.5033 77.8596 64.6658 77.8519 53.8257 77.8519C53.4508 77.8519 53.0759 77.8519 52.5811 77.8519C52.5811 78.298 52.5811 78.6395 52.5811 78.9785C52.5811 83.1202 52.5811 87.262 52.5811 91.4037C52.5785 94.8802 51.3593 96.5981 48.0818 97.7476C48.0308 97.7654 47.9951 97.8342 47.9517 97.8776C33.7321 97.8776 19.5125 97.8776 5.29292 97.8776C1.39816 96.7459 0.459558 94.0544 0.467209 90.8685C0.530974 65.9084 0.500402 40.9459 0.502953 15.9858C0.502953 12.1041 2.86226 9.75666 6.75447 9.74901C8.62406 9.74647 10.4962 9.74901 12.4678 9.74901C12.4678 8.128 12.529 6.60384 12.455 5.08478C12.3402 2.71698 13.108 0.920103 15.4316 0.00764629C24.6775 0 33.9234 0 43.1693 0ZM12.404 11.867C10.5268 11.867 8.71329 11.867 6.89981 11.867C4.02274 11.8696 2.62501 13.2612 2.62501 16.1413C2.62501 41.2415 2.62501 66.3417 2.62501 91.4445C2.62501 94.3781 4.00999 95.7468 6.97124 95.7468C20.0099 95.7468 33.046 95.7086 46.0847 95.7799C48.6353 95.7927 50.4998 94.294 50.487 91.3833C50.4156 74.3423 50.4513 57.3013 50.4513 40.2577C50.4513 32.0711 50.4564 23.8844 50.4487 15.6978C50.4462 13.7455 49.3699 12.1627 47.5539 12.0021C45.2915 11.8008 42.9985 11.9537 40.7259 11.9537C40.7259 13.6639 40.7259 15.3283 40.7259 16.9722C40.8381 17.0002 40.8687 17.013 40.8993 17.013C41.6007 17.0232 42.3021 17.0257 43.001 17.0385C43.9677 17.0563 44.5365 17.4616 44.4753 18.1446C44.3987 19.0036 43.7968 19.1896 43.0443 19.1845C41.3252 19.1692 39.6061 19.1794 37.887 19.1794C28.6462 19.1794 19.4029 19.1769 10.162 19.1845C9.39686 19.1845 8.71584 19.0877 8.62402 18.1574C8.5526 17.4488 9.13672 17.0461 10.1799 17.0385C10.9068 17.0308 11.6337 17.0385 12.4066 17.0385C12.404 15.2773 12.404 13.6053 12.404 11.867ZM52.6295 75.6829C52.9636 75.7008 53.1856 75.7212 53.4075 75.7212C64.4056 75.7237 75.4038 75.7288 86.402 75.7161C89.2025 75.7135 90.9753 73.9039 90.9804 71.0824C90.988 63.8185 90.9829 56.5545 90.9804 49.2931C90.9804 49.0152 90.9472 48.74 90.9293 48.4418C78.1355 48.4418 65.4055 48.4418 52.6295 48.4418C52.6295 57.5358 52.6295 66.5686 52.6295 75.6829ZM14.623 16.9977C22.6421 16.9977 30.5056 16.9977 38.5885 16.9977C38.5885 12.0302 38.5885 7.10085 38.5885 2.14351C38.6395 2.14861 38.5451 2.12822 38.4533 2.12822C31.1866 2.12567 23.9225 2.12057 16.6559 2.12822C15.3423 2.13077 14.6639 2.79344 14.6384 4.13409C14.6026 6.07625 14.623 8.01841 14.623 9.96056C14.623 12.2825 14.623 14.5993 14.623 16.9977ZM90.9548 40.0181C78.133 40.0181 65.403 40.0181 52.6653 40.0181C52.6653 42.1208 52.6653 44.1649 52.6653 46.1785C65.4769 46.1785 78.2044 46.1785 90.9548 46.1785C90.9548 44.1038 90.9548 42.103 90.9548 40.0181ZM90.8885 37.8032C91.5287 34.0158 89.1541 31.8136 85.897 31.8519C75.1972 31.9768 64.4949 31.8978 53.7952 31.8978C53.4228 31.8978 53.0529 31.8978 52.6602 31.8978C52.6602 33.9342 52.6602 35.8534 52.6602 37.8007C65.4336 37.8032 78.133 37.8032 90.8885 37.8032ZM44.0952 5.24535C44.1411 4.08312 44.2687 2.93108 43.1234 2.39329C42.6541 2.17155 41.8176 2.2582 41.3763 2.55131C40.4326 3.17831 40.5933 4.22585 40.7182 5.24535C41.8558 5.24535 42.9219 5.24535 44.0952 5.24535Z" fill="#831EB3"/>
<path d="M26.6263 51.0748C21.2394 51.0748 15.8525 51.0799 10.4657 51.0723C7.59624 51.0697 6.10928 49.5812 6.10673 46.719C6.10163 40.7319 6.10163 34.7424 6.10673 28.7553C6.10928 25.8778 7.58864 24.3867 10.4504 24.3867C21.191 24.3842 31.9341 24.3816 42.6746 24.3867C45.4854 24.3867 46.9801 25.8854 46.9801 28.6941C46.9826 34.7449 46.9852 40.7982 46.9801 46.849C46.9775 49.5252 45.4573 51.0646 42.7843 51.0697C37.4 51.0825 32.0132 51.0748 26.6263 51.0748ZM26.5268 48.9441C31.8805 48.9441 37.2368 48.9466 42.5905 48.9441C44.2943 48.9441 44.8478 48.4088 44.8503 46.7368C44.8554 40.7166 44.8554 34.699 44.8503 28.6788C44.8478 27.0986 44.2917 26.5302 42.7308 26.5277C31.957 26.5226 21.1858 26.5226 10.4121 26.5277C8.81289 26.5277 8.26708 27.0578 8.26453 28.6355C8.25688 34.6863 8.25688 40.737 8.26453 46.7903C8.26708 48.4165 8.81798 48.9466 10.4631 48.9466C15.8168 48.9441 21.1705 48.9441 26.5268 48.9441Z" fill="#831EB3"/>
<path d="M10.7461 78.0508C8.17001 78.033 6.06579 75.8945 6.1117 73.3483C6.16016 70.769 8.26948 68.7402 10.8685 68.7759C13.4191 68.809 15.4417 70.8684 15.4366 73.4248C15.4315 76.0092 13.3426 78.0686 10.7461 78.0508ZM10.8073 70.9092C9.42491 70.899 8.31797 71.9669 8.28226 73.3407C8.24655 74.7603 9.35096 75.8996 10.7665 75.9073C12.1796 75.9149 13.3222 74.7756 13.3069 73.3815C13.2916 72.023 12.1745 70.9194 10.8073 70.9092Z" fill="#831EB3"/>
<path d="M10.8177 90.4634C8.23137 90.4787 6.11949 88.404 6.11184 85.8374C6.10419 83.2759 8.2135 81.1809 10.7947 81.1885C13.3581 81.1961 15.4113 83.2224 15.4342 85.7661C15.4597 88.3658 13.4116 90.4481 10.8177 90.4634ZM10.7845 88.3276C12.1899 88.3276 13.3351 87.1704 13.3096 85.7814C13.2816 84.4178 12.1669 83.332 10.7921 83.3269C9.37402 83.3218 8.262 84.4509 8.28495 85.8706C8.30791 87.2469 9.40972 88.3301 10.7845 88.3276Z" fill="#831EB3"/>
<path d="M10.764 56.3584C13.3656 56.3508 15.4392 58.4102 15.4367 60.9972C15.4341 63.5842 13.3503 65.6461 10.7538 65.6334C8.2185 65.6206 6.14487 63.5638 6.11171 61.0329C6.07856 58.4815 8.18535 56.3661 10.764 56.3584ZM10.7971 63.4899C12.1719 63.4848 13.284 62.3939 13.3069 61.0303C13.3325 59.6438 12.177 58.4866 10.7767 58.4892C9.36878 58.4917 8.25167 59.6387 8.28228 61.0507C8.31288 62.4296 9.41216 63.4975 10.7971 63.4899Z" fill="#831EB3"/>
<path d="M31.8267 68.7735C34.4079 68.7837 36.4918 70.889 36.4638 73.4607C36.4357 75.9941 34.3646 78.0382 31.8191 78.0484C29.2404 78.0586 27.126 75.9661 27.1285 73.4046C27.1311 70.8456 29.243 68.7633 31.8267 68.7735ZM31.8472 70.9093C30.4367 70.8889 29.2787 72.0181 29.2812 73.4122C29.2838 74.7733 30.3907 75.8896 31.7579 75.91C33.1709 75.9304 34.3289 74.8064 34.3289 73.4097C34.3263 72.0563 33.2092 70.9297 31.8472 70.9093Z" fill="#831EB3"/>
<path d="M21.303 90.4605C18.7218 90.4656 16.61 88.3654 16.6202 85.8116C16.6304 83.245 18.7473 81.1677 21.3286 81.1881C23.8843 81.2085 25.9349 83.2501 25.9528 85.7912C25.9681 88.3731 23.8944 90.458 21.303 90.4605ZM21.3056 88.3272C22.6701 88.3221 23.795 87.2211 23.8205 85.8626C23.846 84.4735 22.6982 83.324 21.2878 83.3265C19.913 83.3291 18.806 84.4174 18.7856 85.7887C18.7627 87.1956 19.8925 88.3349 21.3056 88.3272Z" fill="#831EB3"/>
<path d="M31.7988 90.4606C29.215 90.4581 27.1133 88.3579 27.1286 85.7989C27.1465 83.2323 29.266 81.1627 31.8498 81.1882C34.3978 81.2137 36.4536 83.268 36.4664 85.804C36.4766 88.3757 34.3851 90.4632 31.7988 90.4606ZM31.8191 88.3298C33.1812 88.3222 34.306 87.2109 34.3264 85.855C34.3468 84.4634 33.1939 83.319 31.7835 83.3266C30.4138 83.3343 29.2992 84.4353 29.2813 85.7989C29.2609 87.1906 30.4112 88.3375 31.8191 88.3298Z" fill="#831EB3"/>
<path d="M25.9527 60.9895C25.9553 63.5689 23.8613 65.6461 21.2724 65.6359C18.7014 65.6283 16.587 63.4975 16.6201 60.9488C16.6533 58.4153 18.7244 56.3686 21.2648 56.3584C23.8638 56.3482 25.9502 58.4102 25.9527 60.9895ZM21.2061 63.4899C22.6319 63.5281 23.7899 62.4398 23.8205 61.0354C23.8485 59.6948 22.739 58.5325 21.3846 58.4892C19.9716 58.4433 18.8085 59.5444 18.7856 60.9513C18.7601 62.3276 19.8339 63.4516 21.2061 63.4899Z" fill="#831EB3"/>
<path d="M21.3209 78.0484C18.7422 78.0637 16.6252 75.9763 16.6201 73.4147C16.615 70.8558 18.7269 68.7683 21.3107 68.7734C23.8613 68.7785 25.9298 70.8201 25.9527 73.3561C25.9757 75.938 23.9097 78.0331 21.3209 78.0484ZM21.2979 70.9093C19.9206 70.9068 18.8111 71.99 18.783 73.3612C18.755 74.7681 19.8798 75.91 21.2928 75.91C22.7033 75.91 23.8485 74.7579 23.8179 73.3663C23.7899 72.0078 22.665 70.9093 21.2979 70.9093Z" fill="#831EB3"/>
<path d="M42.3073 56.3584C44.8936 56.3584 46.9902 58.4484 46.9774 61.0124C46.9647 63.579 44.8451 65.6563 42.2639 65.6308C39.7235 65.6079 37.6575 63.5434 37.6422 61.015C37.6243 58.4535 39.721 56.3609 42.3073 56.3584ZM42.2945 58.4892C40.935 58.4968 39.8051 59.6055 39.7847 60.9589C39.7618 62.348 40.9146 63.4975 42.3226 63.4924C43.6948 63.4873 44.8094 62.3939 44.8323 61.0277C44.8604 59.6514 43.6897 58.4815 42.2945 58.4892Z" fill="#831EB3"/>
<path d="M31.7886 56.3584C34.3775 56.3533 36.4715 58.4331 36.4664 61.0048C36.4613 63.574 34.3468 65.6563 31.7656 65.6359C29.2252 65.6155 27.1542 63.5587 27.1312 61.0303C27.1057 58.4688 29.2074 56.361 31.7886 56.3584ZM31.7758 58.4866C30.4164 58.4994 29.2941 59.6157 29.2813 60.9717C29.2686 62.3684 30.4164 63.5051 31.8268 63.4924C33.1991 63.4797 34.3111 62.3786 34.3264 61.015C34.3443 59.6336 33.1736 58.4739 31.7758 58.4866Z" fill="#831EB3"/>
<path d="M42.3302 78.051C39.749 78.0612 37.6396 75.9737 37.6396 73.4071C37.6396 70.8405 39.7465 68.7633 42.3353 68.7735C44.8783 68.7837 46.9519 70.8354 46.9774 73.3663C47.0029 75.9304 44.9114 78.0408 42.3302 78.051ZM42.3277 75.91C43.6974 75.9024 44.8119 74.8039 44.8349 73.4403C44.8578 72.0537 43.6973 70.9017 42.2919 70.9093C40.9274 70.917 39.8051 72.0232 39.7847 73.3816C39.7643 74.7682 40.9198 75.9177 42.3277 75.91Z" fill="#831EB3"/>
<path d="M42.2946 90.4607C39.7108 90.4556 37.6168 88.3529 37.6397 85.7888C37.6627 83.2197 39.7822 81.1577 42.3685 81.1883C44.9115 81.2189 46.9698 83.286 46.9775 85.8169C46.9851 88.3809 44.8809 90.4684 42.2946 90.4607ZM42.2716 88.3274C43.677 88.3452 44.84 87.2034 44.8324 85.8143C44.8247 84.4558 43.7127 83.342 42.3456 83.3267C40.9325 83.3089 39.7772 84.4431 39.7848 85.8373C39.7925 87.1932 40.9096 88.3121 42.2716 88.3274Z" fill="#831EB3"/>
<path d="M80.2933 71.8978C79.2424 71.8978 78.1916 71.9156 77.1433 71.8927C75.6742 71.8621 74.6488 70.9445 74.6029 69.4739C74.5366 67.3125 74.5417 65.1486 74.5978 62.9873C74.6361 61.509 75.6078 60.5711 77.1076 60.5379C79.2373 60.4895 81.3722 60.487 83.502 60.5405C85.0349 60.5787 85.9786 61.5727 86.0016 63.0994C86.0322 65.1665 86.0296 67.2335 86.0016 69.3006C85.9786 70.9216 84.9838 71.8723 83.3438 71.8978C82.3286 71.9105 81.311 71.8978 80.2933 71.8978ZM80.4234 62.6661C79.4363 62.6661 78.4467 62.684 77.4596 62.6585C76.9291 62.6432 76.7122 62.8446 76.7148 63.3747C76.7275 65.2837 76.725 67.1953 76.7199 69.1043C76.7199 69.5758 76.9036 69.7874 77.4035 69.7848C79.3139 69.767 81.2268 69.767 83.1372 69.7848C83.6652 69.7899 83.8896 69.6013 83.8871 69.0661C83.8743 67.1571 83.9049 65.2455 83.8514 63.3365C83.8437 63.1071 83.4382 62.7171 83.1933 62.6967C82.2751 62.6203 81.3492 62.6661 80.4234 62.6661Z" fill="#831EB3"/>
<path d="M67.367 55.3309C67.367 55.9655 67.3925 56.6002 67.3593 57.2323C67.3236 57.8822 66.9997 58.3206 66.2906 58.3155C65.5816 58.3104 65.2525 57.8516 65.2372 57.2119C65.204 55.912 65.204 54.6121 65.2398 53.3123C65.2576 52.6623 65.6275 52.2112 66.3111 52.2188C66.9921 52.2265 67.3338 52.6776 67.3593 53.3327C67.3874 54.0004 67.367 54.6657 67.367 55.3309Z" fill="#831EB3"/>
<path d="M72.0013 55.3262C72.0013 55.9608 72.0344 56.5955 71.9911 57.2276C71.9477 57.8648 71.6289 58.321 70.9198 58.3159C70.2133 58.3108 69.8818 57.8699 69.8716 57.2174C69.8461 55.9175 69.8486 54.6176 69.8716 53.3178C69.8843 52.6551 70.2516 52.2167 70.9326 52.2192C71.6162 52.2218 71.9605 52.6806 71.9936 53.328C72.0293 53.9932 72.0013 54.661 72.0013 55.3262Z" fill="#831EB3"/>
<path d="M62.7325 55.2597C62.7325 55.9249 62.7478 56.5901 62.7274 57.2554C62.7096 57.8798 62.3933 58.2825 61.7454 58.3156C61.0466 58.3513 60.6487 57.9333 60.6257 57.2859C60.5773 55.9555 60.5849 54.6225 60.6232 53.292C60.641 52.6396 61.0364 52.1986 61.7123 52.2216C62.3857 52.2445 62.7223 52.688 62.7325 53.3558C62.7427 53.9904 62.7351 54.6225 62.7351 55.2571C62.7325 55.2597 62.7325 55.2597 62.7325 55.2597Z" fill="#831EB3"/>
<path d="M58.1159 55.2801C58.1159 55.9147 58.121 56.5494 58.1134 57.1815C58.1057 57.8467 57.7971 58.2876 57.1008 58.3106C56.4096 58.3335 56.0219 57.9181 56.0066 57.2605C55.9734 55.93 55.9709 54.597 56.0091 53.2666C56.027 52.6039 56.4428 52.1884 57.1161 52.2216C57.7308 52.2522 58.093 52.6447 58.1083 53.2819C58.1236 53.9471 58.1108 54.6123 58.1108 55.2801C58.1134 55.2801 58.1159 55.2801 58.1159 55.2801Z" fill="#831EB3"/>
</svg>
