<svg width="100" height="98" viewBox="0 0 100 98" fill="none" xmlns="http://www.w3.org/2000/svg">
<path d="M0.0172119 84.2651C0.62312 83.5167 1.42151 83.3322 2.34207 83.4128C2.88037 83.4595 3.42645 83.4206 4.07656 83.4206C4.07656 82.8852 4.07656 82.4747 4.07656 82.0615C4.07656 65.1421 4.07397 48.22 4.07917 31.3006C4.07917 27.7094 6.01128 25.038 9.24886 24.1857C9.96139 23.9986 10.7181 23.9596 11.4593 23.9232C12.3928 23.8791 13.3316 23.9128 14.234 23.9128C14.1144 22.863 13.8569 21.8755 13.9246 20.9089C14.078 18.6637 15.2741 17.0448 17.2609 15.9949C22.4436 13.2508 27.6212 10.4963 32.8039 7.7496C36.8398 5.60836 40.8835 3.48012 44.9117 1.32589C48.1622 -0.412572 51.4102 -0.448952 54.6738 1.26092C55.8804 1.89238 57.0844 2.52643 58.2754 3.18128C59.1934 3.68541 59.482 4.50396 59.0582 5.27834C58.6577 6.00854 57.8412 6.21903 56.9492 5.76688C55.6776 5.12242 54.4319 4.4286 53.1629 3.77635C50.9603 2.64337 48.7317 2.61998 46.5396 3.77896C37.2013 8.71628 27.8734 13.6718 18.5404 18.6195C17.4456 19.2016 16.8058 20.0981 16.8032 21.3428C16.798 22.5824 17.4039 23.4971 18.5091 24.0817C27.8708 29.045 37.2247 34.0188 46.5915 38.9717C48.6771 40.0735 50.8303 40.1176 52.9419 39.0444C55.3083 37.8439 57.6409 36.5758 60.0905 35.2843C58.9463 33.972 57.8671 32.7324 56.7854 31.4955C54.2629 28.6137 51.7379 25.7344 49.2128 22.8552C49.1062 22.7331 48.997 22.6135 48.8956 22.4862C48.2455 21.678 48.2584 20.7945 48.9294 20.2436C49.5691 19.7187 50.422 19.8201 51.0773 20.5555C52.5856 22.2523 54.0731 23.97 55.571 25.6799C57.9426 28.3876 60.3142 31.0927 62.7405 33.8602C64.0563 33.169 65.3409 32.5012 66.6203 31.8203C71.3428 29.3127 76.0522 26.7843 80.7903 24.3052C82.0411 23.6504 82.9097 22.7824 82.8941 21.3116C82.8784 19.8798 81.9969 19.0405 80.7929 18.409C74.7156 15.2076 68.6487 11.9827 62.5818 8.76565C61.539 8.21215 61.1854 7.3832 61.6327 6.56984C62.0565 5.80066 62.9146 5.63955 63.9262 6.17486C70.0841 9.43349 76.2446 12.6843 82.3921 15.9663C85.3306 17.5333 86.3994 20.2228 85.4425 23.4373C85.406 23.5594 85.3827 23.6842 85.3254 23.9154C86.2798 23.9154 87.1822 23.9128 88.0846 23.9154C92.7368 23.9258 95.6181 26.7947 95.6207 31.441C95.6259 48.2954 95.6233 65.1525 95.6233 82.0069C95.6233 82.4253 95.6233 82.8463 95.6233 83.4232C96.2578 83.4232 96.8273 83.4232 97.3994 83.4232C99.3316 83.4258 99.7269 83.774 99.6696 85.6709C99.6176 87.3158 99.6618 89.0101 99.2848 90.5927C98.3304 94.5997 94.7964 97.3516 90.6876 97.5517C90.3314 97.5699 89.9751 97.5829 89.6188 97.5829C63.1175 97.5855 36.6162 97.5751 10.1174 97.5933C6.08932 97.5959 3.02339 95.9951 1.09905 92.4351C0.584154 91.484 0.373478 90.3718 0.0198149 89.3323C0.0172145 87.6433 0.0172119 85.9542 0.0172119 84.2651ZM6.99688 83.3478C35.641 83.3478 64.1369 83.3478 92.6639 83.3478C92.6796 83.0204 92.703 82.7631 92.703 82.5058C92.7056 65.3889 92.7082 48.272 92.7004 31.1551C92.7004 28.5045 91.0413 26.8648 88.3732 26.8414C86.5555 26.8233 84.7403 26.8362 82.9226 26.8414C82.6652 26.8414 82.3713 26.8103 82.1607 26.9194C79.8723 28.0992 77.5995 29.3075 75.3189 30.5055C75.3371 30.5808 75.3527 30.6588 75.3709 30.7341C75.7089 30.7341 76.0444 30.7341 76.3825 30.7341C79.8203 30.7341 83.2607 30.7315 86.6985 30.7341C88.4148 30.7367 88.8127 31.1343 88.8127 32.8624C88.8127 47.7055 88.8127 62.5487 88.8127 77.3944C88.8127 79.1173 88.4122 79.5227 86.6959 79.5227C66.6463 79.5253 46.5993 79.5227 26.5498 79.5201C26.2273 79.5201 25.8944 79.5227 25.5824 79.4525C24.8101 79.2784 24.4018 78.7405 24.446 77.9739C24.4876 77.2125 24.9323 76.711 25.7306 76.6304C26.1155 76.5915 26.5082 76.6019 26.8982 76.6019C46.1365 76.6019 65.3721 76.6019 84.6103 76.6019C85.016 76.6019 85.4217 76.6019 85.8092 76.6019C85.8092 62.2057 85.8092 47.9706 85.8092 33.7173C81.4586 33.7173 77.1886 33.7173 72.8251 33.7173C72.8251 35.3258 72.8173 36.8746 72.8251 38.426C72.8563 44.6704 70.1232 49.1711 64.4282 51.8165C64.2175 51.9152 63.8977 52.1257 63.9029 52.2764C63.9341 53.3549 63.6272 54.4541 64.2825 55.4935C65.1979 56.9461 66.0404 58.4507 66.8596 59.9605C67.8087 61.7145 67.5487 63.6765 66.2511 65.1109C65.1511 66.3244 63.7364 66.5687 62.1813 66.5479C58.2208 66.4959 56.2081 63.019 58.1714 59.5629C58.9256 58.2376 59.7525 56.9487 60.426 55.5845C60.7823 54.8595 60.8837 54.0097 61.1437 53.0482C60.5638 53.1834 60.3116 53.2327 60.0646 53.3003C52.362 55.3896 44.7738 55.031 37.1883 52.5597C29.8316 50.1638 26.5575 44.2338 26.8644 38.1479C26.9372 36.6953 26.8748 35.2375 26.8748 33.7199C22.4982 33.7199 18.2023 33.7199 13.8699 33.7199C13.8699 48.0148 13.8699 62.255 13.8699 76.5993C14.2782 76.5993 14.6292 76.5993 14.9777 76.5993C16.6654 76.6019 18.3531 76.5811 20.0382 76.6226C20.9379 76.646 21.4528 77.2047 21.4684 78.0207C21.484 78.8288 20.9718 79.3875 20.1007 79.5019C19.9082 79.5279 19.7131 79.5227 19.5181 79.5227C17.3129 79.5227 15.1051 79.5279 12.8999 79.5227C11.3188 79.5175 10.8898 79.0809 10.8898 77.4854C10.8872 62.5773 10.8872 47.6692 10.8898 32.7584C10.8898 31.1655 11.3137 30.7393 12.9129 30.7367C16.3846 30.7315 19.8562 30.7341 23.3252 30.7341C23.6607 30.7341 23.9961 30.7341 24.3315 30.7341C23.7334 30.1754 23.0521 29.8844 22.4566 29.4712C19.2373 27.239 15.711 26.5686 11.8077 26.7609C8.91082 26.9038 6.94229 28.5487 6.9553 31.641C7.03591 48.4669 6.99428 65.2902 6.99428 82.1161C6.99688 82.5032 6.99688 82.8904 6.99688 83.3478ZM96.8871 86.4063C96.4216 86.3751 96.198 86.3466 95.9769 86.3466C84.886 86.344 73.795 86.3492 62.7014 86.331C62.0487 86.331 61.8433 86.5804 61.656 87.1651C60.7693 89.9222 58.3899 91.8322 55.519 91.905C51.7275 92.0011 47.9282 92.0375 44.1393 91.892C41.1644 91.7776 39.1282 90.0911 38.1089 87.3028C37.8384 86.5648 37.5445 86.3258 36.7592 86.3258C25.8632 86.3544 14.9647 86.344 4.06876 86.344C3.72289 86.344 3.37705 86.344 3.04939 86.344C2.33947 91.1721 5.21039 94.6491 9.88342 94.6517C36.5434 94.6646 63.2007 94.662 89.8606 94.6517C93.1216 94.6517 95.6155 92.9314 96.4268 90.047C96.7441 88.9192 96.7337 87.6978 96.8871 86.4063ZM29.8003 33.3847C29.8003 35.5363 29.7275 37.4853 29.816 39.429C30.0214 43.9246 32.133 47.2716 36.2833 49.023C44.0665 52.3102 52.0551 52.6169 60.1607 50.2392C60.7745 50.0599 60.9643 49.8 60.9591 49.1711C60.9279 45.793 60.9461 42.4148 60.9435 39.0392C60.9435 38.795 60.9201 38.5507 60.8993 38.1609C58.8423 39.2497 56.892 40.2502 54.9702 41.3078C51.5298 43.1996 48.1284 43.1814 44.688 41.287C41.9627 39.785 39.1984 38.3584 36.4497 36.9032C34.2836 35.752 32.1121 34.606 29.8003 33.3847ZM63.8664 48.8645C66.8283 47.3001 68.8827 45.1121 69.4496 42.0302C69.9593 39.2653 69.8891 36.3913 70.092 33.286C67.8816 34.4605 65.9988 35.4506 64.1317 36.4718C63.986 36.5524 63.8768 36.8356 63.8768 37.0253C63.8638 40.9102 63.8664 44.7977 63.8664 48.8645ZM58.8293 86.4193C52.7781 86.4193 46.8724 86.4193 40.9433 86.4193C41.492 87.9135 42.6336 88.9322 44.1237 88.9608C47.9438 89.0283 51.7691 89.0413 55.5866 88.9556C57.1339 88.9166 58.1662 87.9265 58.8293 86.4193ZM62.4154 58.0609C61.7731 59.1679 61.1697 60.1606 60.6132 61.1766C59.9007 62.4733 60.5716 63.5829 62.0617 63.6141C62.3842 63.6193 62.7118 63.6323 63.0317 63.6089C64.1707 63.5232 64.8416 62.4785 64.3345 61.4547C63.7754 60.3243 63.0993 59.2563 62.4154 58.0609Z" fill="#FA63A1"/>
<path d="M34.2783 69.7779C38.8863 69.7779 43.4918 69.7779 48.0998 69.7805C48.4561 69.7805 48.8227 69.7649 49.166 69.8402C49.8447 69.991 50.3466 70.4717 50.2218 71.1369C50.1256 71.6567 49.7095 72.1816 49.2986 72.5532C49.0672 72.761 48.5549 72.6961 48.17 72.6961C38.8604 72.7013 29.5481 72.7013 20.2384 72.6961C19.8535 72.6961 19.3413 72.7559 19.1125 72.5454C18.7016 72.1686 18.1919 71.5865 18.2257 71.1265C18.2595 70.6692 18.8602 70.1884 19.3153 69.8558C19.5545 69.6791 20.007 69.7831 20.3632 69.7805C24.9999 69.7779 29.6391 69.7779 34.2783 69.7779Z" fill="#FA63A1"/>
<path d="M29.3167 66.5375C26.2091 66.5375 23.0989 66.5401 19.9914 66.5349C18.842 66.5323 18.1737 66.0126 18.1451 65.1265C18.1139 64.2066 18.8186 63.6167 19.9992 63.6167C26.2481 63.6115 32.4996 63.6115 38.7485 63.6167C39.9031 63.6167 40.5559 64.1364 40.5793 65.0381C40.6053 65.9892 39.9473 66.5349 38.7381 66.5349C35.5994 66.5401 32.458 66.5375 29.3167 66.5375Z" fill="#FA63A1"/>
</svg>
