<svg width="89" height="96" viewBox="0 0 89 96" fill="none" xmlns="http://www.w3.org/2000/svg">
<path d="M57.2462 62.4472C56.2256 62.4472 55.2026 62.4446 54.182 62.4371C51.5826 62.4219 50.1301 61.0022 50.0872 58.4381C50.0745 57.6777 49.7689 57.2559 49.0338 56.978C47.6646 56.4627 46.2222 55.8665 44.6232 55.1516C44.3402 55.0252 44.0977 54.9419 43.83 54.9419C43.4864 54.9419 43.1631 55.0909 42.8423 55.3966C41.9177 56.2808 40.9628 56.7304 40.0054 56.7304C39.0076 56.7304 38.0174 56.2454 37.06 55.293L36.7291 54.9621C35.4761 53.7142 34.1827 52.4208 32.9197 51.1425C31.2044 49.4045 31.1817 47.2648 32.859 45.5571C33.531 44.8751 33.4653 44.3067 33.142 43.6145C32.4397 42.1064 31.8461 40.5806 31.3585 39.2872C31.1211 38.6556 30.7826 38.2312 29.9136 38.2186C27.3445 38.1807 25.9248 36.7307 25.9147 34.1312C25.9072 32.037 25.9072 30.1196 25.9147 28.2629C25.9248 25.767 27.3951 24.2513 29.8504 24.2084C30.6613 24.1932 31.0882 23.8825 31.3737 23.0994C31.884 21.6999 32.4675 20.2852 33.1571 18.7746C33.4628 18.1051 33.5259 17.5595 32.8995 16.9128C31.1817 15.1394 31.1994 13.025 32.9475 11.2567C34.3141 9.87484 35.7287 8.45512 37.1534 7.04046C38.0351 6.1664 39.0253 5.70159 40.013 5.70159C40.978 5.70159 41.9379 6.14367 42.7917 6.97984C43.1353 7.31582 43.4662 7.47497 43.83 7.47497C44.0699 7.47497 44.315 7.40928 44.6434 7.25771C45.4517 6.88384 46.298 6.54028 47.1139 6.20935C47.753 5.94915 48.4149 5.68138 49.0616 5.39592C49.3874 5.25192 50.0543 4.77448 50.0316 4.2162C49.9533 2.21041 50.8703 0.869006 52.9139 0H61.1566C61.3865 0.166728 61.6214 0.323352 61.8488 0.474923C62.4702 0.88669 63.0537 1.27825 63.4554 1.78601C63.8141 2.24325 63.9227 3.05415 64.0162 3.77159L64.049 4.02167C64.1273 4.59259 64.2663 5.12815 65.0923 5.43887C66.4286 5.93652 67.8559 6.53017 69.5863 7.30571C69.7959 7.39918 70.046 7.49517 70.3214 7.49517C70.6599 7.49517 70.9655 7.35371 71.2838 7.04551C72.2059 6.15377 73.1658 5.70159 74.1383 5.70159C75.1362 5.70159 76.1163 6.17651 77.0585 7.1112L77.4046 7.45475C78.6752 8.71784 79.9913 10.0239 81.2645 11.3249C82.9115 13.0048 82.9292 15.1748 81.31 16.8521C80.7088 17.4736 80.6178 18.0167 80.9866 18.7897C81.646 20.1766 82.2093 21.6241 82.7802 23.1095C82.9898 23.6551 83.2702 24.1882 84.1999 24.2109C86.827 24.2741 88.2189 25.7115 88.2265 28.3665V28.8313C88.2315 30.6021 88.2366 32.4336 88.224 34.2323C88.2088 36.665 86.7083 38.1933 84.311 38.2186C83.4875 38.2262 83.0581 38.5318 82.7726 39.3023C82.1638 40.9519 81.4565 42.5737 80.9083 43.804C80.6204 44.4507 80.6936 44.918 81.1635 45.4182C83.0176 47.3937 82.9899 49.3666 81.0826 51.2865L80.494 51.8802C79.3346 53.0472 78.1372 54.2548 76.9398 55.432C76.0834 56.2732 75.1159 56.7203 74.1383 56.7203C73.1734 56.7203 72.2109 56.2833 71.3596 55.4547C71.0085 55.1137 70.675 54.9545 70.3062 54.9545C70.0662 54.9545 69.8162 55.0202 69.5004 55.1692C68.1489 55.8008 66.6989 56.4045 65.1883 56.9679C64.4987 57.2256 64.0667 57.5641 64.0541 58.4634C64.0187 60.9315 62.5157 62.4169 60.03 62.4371C59.1054 62.4446 58.1733 62.4472 57.2462 62.4472ZM57.5897 59.6482C58.3754 59.6482 59.0195 59.6583 59.6132 59.6785C59.6637 59.681 59.7117 59.681 59.7597 59.681C60.2952 59.681 60.6665 59.5572 60.9293 59.292C61.2071 59.0116 61.3309 58.6074 61.3233 57.9859C61.3006 55.629 61.3031 53.2317 61.3031 50.9126V50.7737C61.3031 48.8235 61.3057 46.8076 61.293 44.8271C61.2854 43.7686 61.6467 43.2027 62.5788 42.8086C68.4975 40.3052 71.683 34.8133 70.8898 28.4751C70.3946 24.5141 68.3965 21.3841 64.7816 18.911L63.9909 18.3704V19.3278C63.9909 20.164 63.9934 20.9875 63.9934 21.8035V22.0434C63.9985 24.3549 64.0036 26.54 63.9732 28.7707C63.9581 29.8114 63.8495 30.6855 63.6373 31.4434C62.8491 34.2626 59.9011 36.6448 57.2007 36.6448C57.1148 36.6448 57.0315 36.6422 56.9456 36.6372C53.4747 36.4376 50.5621 33.7043 50.312 30.4152C50.1352 28.0684 50.1478 25.6559 50.1604 23.3242C50.1655 22.334 50.173 21.2123 50.1604 20.1387C50.1579 19.9821 50.1503 19.8255 50.1402 19.6309L50.1377 19.6032C50.1326 19.5122 50.1276 19.4137 50.1225 19.3L50.0771 18.3805L49.3243 18.9135C44.949 22.0131 42.87 26.0575 43.1403 30.9406C43.4409 36.3543 46.2652 40.4164 51.3098 42.6874C52.4642 43.2078 52.8684 43.8216 52.8533 45.0292C52.8154 48.1919 52.8229 51.3774 52.8305 54.4594C52.833 55.6113 52.8356 56.7607 52.8356 57.9127C52.8356 59.4309 53.068 59.6583 54.6165 59.6608H54.6999C55.1823 59.6608 55.6623 59.6583 56.1448 59.6532C56.6323 59.6507 57.1098 59.6482 57.5897 59.6482ZM43.3222 51.5088C43.6784 51.5088 44.1735 51.7362 44.8051 52.0797C45.7953 52.6178 46.8007 53.0978 47.8667 53.6055L47.8945 53.6182C48.3669 53.843 48.8494 54.0729 49.3445 54.3154L50.072 54.6716V53.8607C50.072 53.1685 50.0695 52.494 50.0669 51.8372V51.6831C50.0619 49.9148 50.0569 48.2526 50.0872 46.5954C50.1048 45.6329 49.7764 45.0797 48.915 44.6224C44.2165 42.1215 41.0538 37.4506 40.4525 32.128C39.8438 26.7396 41.8293 21.6266 45.9014 18.1026C46.9876 17.1629 48.2936 16.3798 49.6805 15.8341C49.9735 15.7179 50.2665 15.6598 50.5545 15.6598C51.5902 15.6598 52.4642 16.4277 52.7825 17.6201C52.9215 18.1354 52.9897 18.7215 52.9897 19.3581C52.9897 21.2275 52.9745 23.1247 52.9594 24.9612C52.9493 26.343 52.9366 27.7273 52.9316 29.1092C52.929 29.5336 52.9846 29.9832 53.0907 30.4455C53.5075 32.2265 55.243 33.7472 56.9582 33.8357C57.0012 33.8382 57.0466 33.8382 57.0921 33.8382C58.58 33.8382 60.2649 32.5776 60.8484 31.0291C61.0758 30.4278 61.197 29.7963 61.2046 29.2001C61.2248 27.2651 61.2223 25.2997 61.2198 23.3975V23.1297C61.2198 22.2455 61.2172 21.3639 61.2198 20.4797C61.2198 20.2524 61.2147 20.025 61.2122 19.7977C61.1996 19.1939 61.1895 18.5775 61.2728 18.0091C61.4825 16.5894 62.4171 15.7078 63.7105 15.7078C64.0313 15.7078 64.3698 15.7608 64.7134 15.8644C65.1252 15.9882 65.5015 16.1448 65.835 16.3267C71.3647 19.3606 74.78 26.6285 73.6078 32.8782C72.6075 38.2009 69.7025 42.2099 64.9736 44.7892C64.678 44.9508 64.1172 45.3955 64.1096 45.9335C64.0743 47.9368 64.0793 49.8895 64.0819 51.961L64.0844 54.3129L64.7134 54.1562C64.7867 54.1386 64.8498 54.1259 64.9079 54.1133C65.0569 54.083 65.1908 54.0552 65.3323 53.987C65.6935 53.8152 66.0573 53.6434 66.4211 53.4717C67.5199 52.9538 68.6567 52.4157 69.7606 51.8473C70.2001 51.62 70.5361 51.5139 70.8114 51.5139C71.16 51.5139 71.4884 51.6856 71.9103 52.0898C72.3625 52.5218 72.8071 52.9664 73.2315 53.4135C73.527 53.7268 73.8276 53.8784 74.1484 53.8784C74.4516 53.8784 74.7294 53.747 74.9997 53.4742C76.5028 51.961 77.9022 50.5615 79.279 49.1948C79.572 48.9043 79.711 48.6113 79.7084 48.298C79.7059 47.9873 79.5644 47.7019 79.2765 47.4265C78.8116 46.9819 78.3443 46.512 77.8896 46.0346C77.2202 45.3323 77.1495 44.8397 77.6092 44.0818C78.9784 41.826 80.0166 39.32 80.6936 36.6347C80.9008 35.8137 81.3075 35.4954 82.1992 35.465C82.5225 35.4549 82.856 35.4474 83.1869 35.4474C83.5077 35.4474 83.8285 35.4524 84.1493 35.4625H84.2201C84.6217 35.4625 84.9223 35.3564 85.1421 35.1366C85.3644 34.9118 85.473 34.596 85.4705 34.1742C85.4528 31.8071 85.4553 29.9984 85.473 28.3109C85.4781 27.8638 85.3695 27.5328 85.1371 27.3004C84.9148 27.0756 84.6066 26.9644 84.1948 26.9644C84.1645 26.9644 84.1342 26.9644 84.1039 26.967C83.8083 26.9771 83.5102 26.9821 83.2147 26.9821C82.8913 26.9821 82.568 26.9745 82.2522 26.9619C81.2948 26.9215 80.8982 26.6158 80.681 25.7468C80.0116 23.0691 78.9683 20.5656 77.5814 18.3022C77.1848 17.6555 77.2556 17.0643 77.7936 16.4884C78.2938 15.9579 78.7662 15.4804 79.2411 15.0333C79.5468 14.7453 79.6983 14.4498 79.7008 14.1315C79.7034 13.8081 79.5543 13.5024 79.2411 13.1942C77.6901 11.6684 76.3361 10.3119 75.1033 9.04878C74.8937 8.83405 74.5652 8.55112 74.1308 8.55112C73.7998 8.55112 73.4917 8.71027 73.1936 9.0412C72.8071 9.4656 72.3701 9.90262 71.8194 10.418C71.4379 10.7742 71.1045 10.9409 70.7761 10.9409C70.526 10.9409 70.2532 10.8474 69.9425 10.6554C67.6892 9.27361 65.1908 8.2303 62.5106 7.55581C61.6846 7.34866 61.3638 6.94194 61.3259 6.05525C61.3006 5.48939 61.3006 4.88563 61.3208 4.10251C61.3335 3.65791 61.2324 3.34214 61.0076 3.10973C60.7878 2.8849 60.4821 2.77374 60.0704 2.77374C59.0827 2.78385 58.1152 2.78638 57.1477 2.78638C56.1322 2.78638 55.1167 2.78132 54.1012 2.77627C53.6844 2.77627 53.3762 2.8849 53.1614 3.10468C52.9467 3.32446 52.8457 3.62507 52.8558 4.0242C52.8735 4.78711 52.8709 5.41107 52.8533 5.98704C52.823 6.93436 52.5072 7.34613 51.6458 7.56338C49.0211 8.22272 46.5203 9.26603 44.2165 10.6655C43.9058 10.8525 43.638 10.9459 43.393 10.9459C43.062 10.9459 42.7286 10.7767 42.3421 10.4129C41.8621 9.96073 41.3973 9.49338 40.9603 9.02857C40.6597 8.70774 40.3566 8.55112 40.0332 8.55112C39.7175 8.55112 39.4219 8.69764 39.1263 9.00078C37.7951 10.3599 36.3805 11.7771 34.9204 13.2144C34.6147 13.5151 34.4682 13.8157 34.4707 14.1365C34.4758 14.4573 34.6298 14.7554 34.9456 15.0535C35.418 15.4956 35.8803 15.9604 36.3223 16.4353C36.9387 17.0997 37.0069 17.61 36.575 18.3224C35.1805 20.6187 34.1398 23.1246 33.4855 25.7696C33.2784 26.6057 32.8868 26.9164 31.9875 26.9644C31.6996 26.9796 31.3914 26.9872 31.0175 26.9872C30.7321 26.9872 30.4441 26.9821 30.1586 26.9796L29.9363 26.9771C29.5347 26.9771 29.2341 27.0832 29.0194 27.2979C28.7996 27.5177 28.6935 27.8233 28.696 28.2326C28.7086 30.4177 28.7061 32.3679 28.696 34.1944C28.6935 34.6087 28.7996 34.9169 29.0219 35.1392C29.2416 35.3615 29.5473 35.4676 29.9565 35.4676H30.0247C30.3784 35.4575 30.727 35.4499 31.0756 35.4499C31.4343 35.4499 31.7602 35.4575 32.0658 35.4726C32.8338 35.513 33.291 35.8642 33.4552 36.5488C34.1171 39.277 35.1805 41.8411 36.6154 44.1753C36.9892 44.7866 36.9185 45.3525 36.3981 45.9108C35.8298 46.5171 35.3852 46.9642 34.9557 47.3608C34.6324 47.6589 34.4732 47.9646 34.4707 48.293C34.4656 48.7376 34.7511 49.0685 34.9684 49.2757C35.5595 49.8491 36.1531 50.4453 36.724 51.0238L36.7467 51.0465C37.2216 51.5265 37.6991 52.0065 38.1816 52.4814C38.4013 52.6986 38.5858 52.8856 38.7424 53.0473C39.2779 53.598 39.5735 53.9011 40.0181 53.9011C40.4702 53.9011 40.7835 53.5803 41.3493 52.9993C41.4958 52.8477 41.6651 52.6734 41.8647 52.4789C42.5694 51.7614 42.9559 51.5088 43.3222 51.5088Z" fill="#05B068"/>
<path d="M49.8574 96.0004L44.7925 94.6539C41.2787 93.7218 37.7648 92.7871 34.251 91.8499C33.041 91.5265 31.836 91.1931 30.6286 90.8596C27.9357 90.1144 25.1494 89.3464 22.3707 88.7098C21.3552 88.4774 20.2942 88.4471 19.3873 88.4471C19.1019 88.4471 18.8164 88.4496 18.5284 88.4547C18.248 88.4572 17.9651 88.4623 17.6847 88.4623C17.5205 88.4623 17.3588 88.4623 17.1946 88.4572C16.6667 88.4572 16.3004 89.066 16.2019 89.2504C15.2571 91.0112 13.8652 91.8676 11.9504 91.8676H11.9201C11.3442 91.865 10.7707 91.865 10.1948 91.865L6.77695 91.8676C6.09489 91.8676 5.41536 91.8676 4.73584 91.8625C1.91416 91.8474 0.0145252 89.9426 0.00947294 87.1285C-0.00315765 80.8004 -0.00315765 74.2677 0.00947294 67.7097C0.0145252 64.8829 1.91416 62.9655 4.73584 62.9453C5.92816 62.9352 7.12049 62.9302 8.31282 62.9302C9.51273 62.9302 10.7126 62.9352 11.9125 62.9453C13.8576 62.963 15.2748 63.8219 16.1261 65.4993C16.4368 66.1132 16.8663 66.386 17.5609 66.4138C17.7403 66.4214 17.9196 66.4239 18.099 66.4239C19.794 66.4239 21.3754 66.1106 22.9315 65.469C25.6496 64.3474 28.3677 63.7461 31.0075 63.683C31.1363 63.6804 31.2651 63.6779 31.394 63.6779C35.2791 63.6779 38.9597 65.0976 42.6478 68.0204C42.7615 68.1114 42.8777 68.1998 42.9964 68.2857C43.3273 68.5358 43.6381 68.7707 43.8654 69.046C44.8051 70.1879 45.9646 70.6982 47.6268 70.6982C47.7582 70.6982 47.892 70.6956 48.0259 70.6881C48.7939 70.6527 49.6275 70.6375 50.6531 70.6375C51.2518 70.6375 51.853 70.6426 52.4517 70.6477C53.0605 70.6527 53.6642 70.6578 54.268 70.6578C54.8944 70.6578 55.4451 70.6527 55.9554 70.6401C56.0514 70.6375 56.1474 70.6375 56.2409 70.6375C58.4588 70.6375 60.121 71.2741 61.4724 72.6383L61.7326 72.901L63.0942 72.2088C63.7965 71.8526 64.4937 71.499 65.1884 71.1428L65.4309 71.019C69.2706 69.046 73.1128 67.0706 76.95 65.0926C78.1019 64.4989 79.2462 64.1983 80.3501 64.1983C81.262 64.1983 82.174 64.4029 83.0607 64.8071C84.983 65.6837 86.2865 67.4697 86.5467 69.5867C86.8195 71.8147 85.9126 73.9974 84.1191 75.4247C82.366 76.8166 80.484 78.1201 78.6652 79.3832C78.1625 79.7318 77.6598 80.0804 77.1596 80.4315C76.902 80.6109 76.614 80.7069 76.326 80.7069C75.9016 80.7069 75.5076 80.5048 75.2423 80.1486C75.02 79.848 74.9265 79.4867 74.9796 79.1331C75.0352 78.7617 75.2499 78.4232 75.5859 78.1782C76.3664 77.6073 77.1647 77.0439 77.9377 76.5008C79.2437 75.5813 80.5926 74.6289 81.881 73.6235C82.7297 72.9591 83.4143 72.0118 83.672 71.1504C83.9675 70.155 83.7983 69.1623 83.1945 68.3564C82.558 67.5026 81.5071 66.9948 80.383 66.9948C80.1076 66.9948 79.8298 67.0251 79.5544 67.0832C79.0921 67.1817 78.6071 67.3687 78.0261 67.6642C76.1012 68.652 74.1763 69.6422 72.2514 70.6325L72.2261 70.6451C69.5838 72.0042 66.8531 73.4113 64.1628 74.783C63.5262 75.1064 63.1498 75.4929 63.2433 76.4149C63.4352 78.3348 62.8694 80.1461 61.6442 81.5153C60.4418 82.8643 58.7417 83.6196 56.8598 83.6423C54.7555 83.6701 52.5123 83.6827 49.7993 83.6827C47.887 83.6827 45.9747 83.6777 44.0624 83.6701H43.8326C42.6933 83.6676 41.554 83.6625 40.4147 83.66C39.4194 83.6575 38.7753 83.1118 38.7702 82.2681C38.7677 81.8841 38.8814 81.5708 39.1087 81.3435C39.4017 81.0479 39.8792 80.8913 40.4905 80.8913C41.8647 80.8913 43.2389 80.8888 44.6131 80.8888H50.1757C52.2749 80.8888 54.3715 80.8888 56.4707 80.8837C58.5826 80.8812 60.1563 79.6686 60.4822 77.7993C60.6691 76.7181 60.3837 75.6268 59.6941 74.8007C58.9842 73.9494 57.9106 73.4542 56.7461 73.4441C55.2885 73.4315 53.3661 73.4163 51.4134 73.4163C49.7437 73.4163 48.2356 73.4264 46.8058 73.4492H46.6921C45.1765 73.4492 43.9715 72.9667 42.9055 71.9335C40.5082 69.6119 38.2347 68.1164 35.749 67.2297C34.3091 66.7144 32.7909 66.4542 31.2424 66.4542C29.3074 66.4542 27.2814 66.8458 25.0484 67.6516L24.9498 67.687C22.7597 68.4802 20.6883 69.2279 18.4476 69.2279C18.152 69.2279 17.8565 69.2153 17.5685 69.1875C17.5685 69.1875 17.5104 69.185 17.5079 69.185C17.3386 69.185 17.2022 69.2355 17.1037 69.2709C17.0683 69.2835 17.0406 69.2936 17.0102 69.3037L16.6389 69.4073V85.3096L16.9067 85.4511C16.9244 85.4612 16.9395 85.4713 16.9521 85.4788C17.033 85.5319 17.1593 85.6127 17.3386 85.6127L17.3791 85.6102C17.8717 85.5647 18.3642 85.542 18.8619 85.542C21.8478 85.542 24.7755 86.3706 27.6073 87.1714C28.1807 87.3331 28.7516 87.4947 29.3251 87.6514C31.3662 88.2046 33.4098 88.7553 35.4509 89.306C39.5912 90.4226 43.873 91.5771 48.0891 92.7467C49.1425 93.0372 50.1807 93.1862 51.1735 93.1862C53.1287 93.1862 54.998 92.6128 56.7309 91.4861C57.8197 90.7763 58.8832 90.0336 59.9138 89.3111L59.9391 89.2934C60.5075 88.8968 61.0758 88.4976 61.6468 88.1061C61.9398 87.9065 62.2303 87.8029 62.5081 87.8029C62.7456 87.8029 62.9881 87.8787 63.2281 88.0252C63.7485 88.3461 63.9556 88.7932 63.847 89.354C63.7737 89.7329 63.6171 90.0209 63.5034 90.1068L62.834 90.6146C60.2018 92.6128 57.4787 94.6767 54.2073 95.6038C53.8688 95.6998 53.5303 95.7882 53.1918 95.8766L52.7523 95.9903H49.8574V96.0004ZM8.35071 65.7165C7.20385 65.7165 6.05953 65.7191 4.91267 65.7241C3.41721 65.7317 2.78062 66.3809 2.7781 67.9017C2.77304 74.2399 2.77304 80.5781 2.7781 86.9162C2.7781 88.4522 3.39194 89.0812 4.89498 89.0888C6.02416 89.0938 7.15333 89.0938 8.28251 89.0938C9.41926 89.0938 10.5585 89.0913 11.6953 89.0888C13.2388 89.0837 13.8147 88.5002 13.8172 86.939C13.8223 84.6452 13.8198 82.3489 13.8198 80.0551V77.481V74.5001C13.8198 72.277 13.8223 70.054 13.8172 67.8335C13.8147 66.3885 13.1655 65.7393 11.7155 65.7317C10.5939 65.7191 9.47231 65.7165 8.35071 65.7165Z" fill="#05B068"/>
<path d="M69.427 85.6219C68.6793 85.6219 68.0932 85.0636 68.0629 84.326C68.0478 83.9471 68.1817 83.5858 68.4418 83.3105C68.697 83.0402 69.038 82.8861 69.4043 82.876H69.4371C69.7857 82.876 70.1419 83.0301 70.4072 83.2979C70.6724 83.5631 70.824 83.9168 70.8214 84.2654C70.8189 84.998 70.2076 85.6068 69.4624 85.6219H69.427Z" fill="#05B068"/>
</svg>
