<svg width="106" height="98" viewBox="0 0 106 98" fill="none" xmlns="http://www.w3.org/2000/svg">
<path d="M48.0868 97.0975C38.1528 97.0975 28.2216 97.0975 18.2876 97.0947C13.4282 97.0947 9.71609 94.3561 8.59914 89.9545C8.38402 89.0995 8.27646 88.1232 8.27371 86.9622C8.25716 76.9648 8.25716 66.7964 8.25992 56.9645V47.8248L8.06962 47.7613C4.95319 46.7326 2.69999 44.8876 1.37068 42.2759C0.948718 41.4485 0.664654 40.5191 0.388864 39.62C0.264759 39.2174 0.137895 38.8037 0 38.401V35.6128C0.140653 35.2763 0.27579 34.9371 0.410927 34.6006C0.728086 33.8036 1.05628 32.979 1.44238 32.2068C1.70163 31.6855 2.1291 31.3877 2.61725 31.3877C2.82133 31.3877 3.02542 31.4401 3.22123 31.5421C3.87485 31.8841 4.04033 32.6012 3.65698 33.412C2.31388 36.2499 2.44074 39.2973 4.00723 41.7712C5.5682 44.2367 8.37299 45.7095 11.5087 45.7095C11.6135 45.7095 11.7156 45.7067 11.8204 45.7039C16.2909 45.5716 19.4542 43.5224 20.7284 39.9317C20.9573 39.2863 21.1228 38.5444 21.2331 37.6674C21.7019 33.9194 22.1625 30.1053 22.6065 26.4179L23.0147 23.0395C23.0505 22.7306 23.0864 22.4217 23.125 22.088L23.2215 21.2524L22.9375 21.2303C22.8161 21.2221 22.703 21.2083 22.5955 21.2C22.3721 21.1779 22.1625 21.1586 21.9529 21.1559H16.7239C15.1216 21.1559 13.2241 21.1531 11.3239 21.1393C10.5517 21.1393 10.116 21.4013 9.78779 22.0467C9.06798 23.467 8.28474 24.8873 7.52631 26.258L7.34981 26.5751C7.01334 27.1846 6.53899 27.5349 6.04808 27.5349C5.84675 27.5349 5.64267 27.477 5.44134 27.3639C4.7822 26.9888 4.65534 26.2525 5.10763 25.3975C5.40825 24.8294 5.71713 24.264 6.02877 23.6987C6.58587 22.681 7.16227 21.6302 7.678 20.5684C8.02274 19.8597 8.22131 19.0626 8.2351 18.3207C8.27095 16.5612 8.26543 14.7713 8.26267 13.0421C8.25992 11.9445 8.25716 10.8468 8.26267 9.74918C8.30128 4.13961 12.3444 0.0579159 17.8795 0.0441264C24.5591 0.027579 31.771 0.0193053 40.5798 0.0193053C45.9687 0.0193053 51.3577 0.0220632 56.7466 0.0248211C60.8559 0.027579 64.9624 0.0303369 69.0716 0.0303369C70.7126 0.0303369 70.7402 0.943202 70.7485 1.24381C70.7595 1.61337 70.663 1.90847 70.4561 2.11807C70.1721 2.41041 69.6563 2.56761 68.9669 2.56761C63.087 2.57036 57.2072 2.57312 51.3273 2.57312H26.0539C23.5001 2.57312 20.9463 2.57312 18.3924 2.57588C13.6489 2.57864 10.8137 5.41928 10.8082 10.1767C10.8082 11.9996 10.8082 13.8226 10.8082 15.6621V18.5414H94.3147V18.2656C94.3147 17.2865 94.3285 16.2992 94.3451 15.3422C94.3782 13.1938 94.4112 10.9737 94.2734 8.80598C94.0472 5.24277 91.1018 2.62276 87.271 2.5814C86.1706 2.56761 84.9847 2.56209 83.5424 2.56209C82.6212 2.56209 81.6973 2.56485 80.7762 2.56761C79.855 2.57036 78.9339 2.57312 78.0128 2.57312C78.0128 2.57312 77.3702 2.57588 77.3674 2.57588C77.2323 2.57588 77.0971 2.57312 76.9648 2.56485C76.3966 2.53175 75.4507 2.31112 75.4893 1.23278C75.5169 0.463327 76.0436 0.0386106 76.973 0.0330948C77.8335 0.0303369 78.6967 0.0220632 79.5572 0.0165474C80.7817 0.0110316 82.0062 0 83.2335 0C84.9075 0 86.292 0.0193053 87.5937 0.0579159C92.9358 0.217874 96.8437 4.25544 96.8906 9.66093C96.9016 10.9627 96.8989 12.2837 96.8961 13.5634C96.8934 15.1933 96.8906 16.8784 96.9154 18.5386C96.9237 19.1867 97.0947 19.8679 97.3815 20.4112C97.8807 21.3544 98.3744 22.2976 98.868 23.2436C100.404 26.1835 101.993 29.2227 103.73 32.1103C105.225 34.5951 105.526 37.5571 104.577 40.4474C103.57 43.5142 101.243 46.068 98.3495 47.2732C98.0737 47.389 97.7952 47.4966 97.5029 47.6124L96.8934 47.8551V52.0664C96.8934 59.0853 96.8934 66.1042 96.8906 73.123C96.8906 73.203 96.8934 73.2857 96.8934 73.3657C96.8989 73.6222 96.9044 73.8676 96.852 74.0828C96.6865 74.7612 96.2756 75.1059 95.6275 75.1059H95.5723C94.7808 75.0811 94.4885 74.5378 94.3837 74.0828C94.334 73.8649 94.3395 73.6222 94.3451 73.3657C94.3478 73.283 94.3478 73.2002 94.3478 73.1175C94.3478 66.3027 94.3478 59.4879 94.3478 52.6732V48.153L94.0555 48.1695C93.7163 48.1888 93.377 48.1999 93.0516 48.1999C88.6086 48.1999 85.2743 46.3907 82.8612 42.6675L82.6323 42.3172L82.4006 42.6647C79.9764 46.2914 76.7359 48.1392 72.7672 48.1557H72.7121C68.6607 48.1557 65.4947 46.3631 63.0346 42.673L62.8057 42.3283L62.5768 42.673C60.1498 46.319 56.8597 48.1668 52.7973 48.1668H52.7642C48.6852 48.1557 45.3951 46.2969 42.9874 42.6427L42.753 42.2869L42.5241 42.6482C41.0789 44.9345 39.2725 46.4817 36.9973 47.3835C36.7297 47.4911 36.4677 47.5435 36.225 47.5435C35.6128 47.5435 35.1908 47.207 35.0695 46.6223C34.9068 45.8418 35.2184 45.3647 36.1506 44.9703C38.6906 43.8975 40.3702 42.0139 41.1424 39.369C41.363 38.6134 41.4788 37.9046 41.4816 37.2675C41.5037 33.2382 41.5009 29.14 41.5009 25.1796V21.9915C41.5009 21.895 41.4899 21.7985 41.4761 21.6799C41.4706 21.622 41.4623 21.5585 41.454 21.4868L41.432 21.2579L41.2031 21.2358C41.1065 21.2276 41.0128 21.2165 40.919 21.2055C40.7122 21.1807 40.4998 21.1559 40.2847 21.1559C39.0464 21.1531 37.8081 21.1531 36.5698 21.1531H34.7551C32.193 21.1531 29.6337 21.1531 27.0743 21.1421H27.044C26.429 21.1421 25.8167 21.2248 25.6871 22.2121C25.4223 24.2006 25.1355 26.2166 24.857 28.1692C24.5481 30.3314 24.2309 32.5681 23.9413 34.7744C23.2905 39.7441 24.9369 42.833 29.4434 45.1C30.1797 45.4695 30.4748 46.1204 30.2101 46.7933C30.0253 47.2649 29.5868 47.5573 29.0655 47.5573C28.878 47.5573 28.6849 47.5214 28.4946 47.4469C26.451 46.672 24.7522 45.3758 23.4477 43.5914C23.3015 43.3928 23.1581 43.1915 23.0064 42.9791L22.5321 42.32L22.3114 42.6565C19.89 46.3769 16.564 48.1861 12.143 48.1861C11.8038 48.1861 11.4536 48.175 11.1033 48.153L10.811 48.1337V59.7996C10.811 68.8648 10.811 77.9328 10.811 86.998C10.811 91.6534 13.6985 94.5436 18.3483 94.5464C29.8626 94.5491 41.3796 94.5491 52.8938 94.5491C64.1902 94.5491 75.4838 94.5491 86.7801 94.5464C91.5155 94.5464 94.3451 91.6975 94.3506 86.9291C94.3506 86.3003 94.3506 85.6715 94.3506 85.0427C94.3478 83.8126 94.3478 82.5854 94.3561 81.3553C94.3644 80.3928 94.8332 79.8137 95.6109 79.8054C95.9695 79.8054 96.2673 79.924 96.488 80.1474C96.7555 80.4204 96.8934 80.8258 96.8878 81.3195C96.8768 82.0614 96.8823 82.8143 96.8851 83.5451C96.8961 85.4508 96.9072 87.4227 96.6617 89.3174C96.1322 93.4184 92.4725 96.7389 88.1481 97.0423C87.7013 97.0726 87.2573 97.0892 86.827 97.0892C86.8243 97.0947 59.3859 97.0975 48.0868 97.0975ZM83.2693 21.1559C83.0735 21.1559 82.8887 21.1779 82.6902 21.2027C82.5992 21.2138 82.5054 21.2248 82.4033 21.2358L82.1358 21.2634L82.1551 21.5309C82.1607 21.6192 82.1662 21.6992 82.1689 21.7736C82.1772 21.9308 82.1855 22.0687 82.202 22.2066C82.3675 23.5084 82.533 24.8073 82.6984 26.1091C83.057 28.9166 83.4265 31.8207 83.774 34.6779C83.843 35.2377 83.8706 35.8196 83.8981 36.3822C83.945 37.3558 83.9947 38.3597 84.2456 39.3111C85.2605 43.1308 88.992 45.8005 93.3191 45.8005C95.3186 45.8005 97.2298 45.2186 98.8487 44.1209C101.968 42.0028 103.86 37.2648 101.474 33.3044C99.8554 30.6155 98.3716 27.7831 96.9347 25.0417C96.419 24.0599 95.906 23.0754 95.3848 22.0963C95.0787 21.5227 94.7119 21.1393 93.9093 21.1393C91.9953 21.1559 90.142 21.1586 88.5755 21.1586L84.6841 21.1559H83.2693ZM65.343 21.1559C65.1279 21.1559 64.9127 21.1752 64.7059 21.1917C64.6121 21.2 64.5211 21.2083 64.4273 21.2138L64.2315 21.2276L64.1791 21.4179C64.1653 21.4648 64.1516 21.5061 64.1405 21.5447C64.1102 21.6357 64.0798 21.7267 64.0798 21.8343C64.0798 23.3594 64.0688 24.8845 64.0578 26.4097C64.033 30.0529 64.0081 33.8201 64.1267 37.524C64.2398 41.0321 66.1703 43.6907 69.5626 45.0117C70.6878 45.4475 71.802 45.6709 72.8776 45.6709C74.9984 45.6709 76.9648 44.8269 78.7188 43.1667C80.8562 41.1451 81.6808 38.4286 81.245 34.8682C80.9996 32.8659 80.7376 30.8306 80.4866 28.8614C80.2136 26.7406 79.9323 24.5508 79.6703 22.3914C79.5599 21.4896 79.1683 21.1366 78.2692 21.1366H78.2334C75.9085 21.1586 73.5863 21.1614 71.824 21.1614L66.4434 21.1586L65.343 21.1559ZM44.1016 21.462C44.0933 21.5447 44.0878 21.622 44.0795 21.6937C44.063 21.8453 44.0492 21.9888 44.0492 22.1377L44.0465 25.1907C44.0437 29.0959 44.0409 33.1334 44.0658 37.1048C44.0713 37.8357 44.1899 38.6134 44.4188 39.4104C45.5054 43.1805 48.8176 45.6185 52.8579 45.6185C53.3158 45.6185 53.7818 45.5854 54.2452 45.5247C58.28 44.9759 61.4736 41.2968 61.5122 37.1489C61.5481 33.4561 61.5398 29.7026 61.5288 26.0732C61.526 24.7411 61.5233 23.4091 61.5205 22.077C61.5205 21.917 61.4902 21.7654 61.4598 21.622C61.4488 21.564 61.435 21.5034 61.4268 21.4454L61.3909 21.2138H44.1237L44.1016 21.462Z" fill="#05B068"/>
<path d="M61.7522 89.916C60.9414 89.916 60.1416 89.654 59.3721 89.1383C57.6705 87.9992 57.0831 86.35 57.574 84.0996L57.6484 83.7659H50.2104L50.2848 84.1023C50.7095 86.0191 50.3014 87.5276 49.0327 88.7135C48.2192 89.4747 47.2401 89.8608 46.1259 89.8608C45.9687 89.8608 45.806 89.8526 45.6433 89.8388C44.4077 89.7229 43.4039 89.2017 42.742 88.3302C41.9118 87.2353 41.6388 85.6054 41.9753 83.7383L42.0166 83.5039L41.7905 83.4266C39.2201 82.5579 38.3155 80.4784 37.7474 77.624C36.7518 72.6157 35.6652 67.5384 34.6144 62.6265C34.2807 61.0683 33.947 59.5101 33.6161 57.9519C33.2575 56.2668 32.2757 55.4615 30.5272 55.4201C30.3562 55.4146 30.1852 55.4146 30.0142 55.4146L29.2034 55.4174C28.8973 55.4174 28.536 55.4146 28.1665 55.3871C27.3391 55.3291 26.8344 54.8355 26.8509 54.1019C26.8675 53.3765 27.3942 52.9105 28.2244 52.8801C28.7401 52.8636 29.2062 52.8525 29.6502 52.8525C30.1246 52.8525 30.5603 52.8636 30.9878 52.8829C33.2879 52.9932 35.1439 54.3914 35.8279 56.5371C36.1202 57.45 36.6249 57.6292 37.3972 57.6292C44.1595 57.6182 50.9164 57.6182 57.6705 57.6182H70.2245C70.3127 57.6182 70.6657 57.6154 70.7512 57.6154C70.8781 57.6154 71.0077 57.6182 71.1346 57.6265C71.6531 57.6568 72.0474 57.8333 72.2791 58.1312C72.5025 58.4207 72.5687 58.8262 72.4722 59.306C71.5041 64.1489 70.5085 69.069 69.5433 73.8264L69.2095 75.4701C69.0413 76.3057 68.5449 76.6615 67.5521 76.6615H67.5245C66.2227 76.6532 64.9183 76.6505 63.6165 76.6505C62.7533 76.6505 59.3032 76.656 58.4399 76.656H40.144L40.224 76.9952C40.2929 77.2875 40.3509 77.5661 40.4033 77.8309C40.5163 78.3852 40.6211 78.9092 40.8225 79.3946C41.4733 80.9583 42.8992 81.1403 43.9113 81.1403C46.7161 81.1293 49.4933 81.1266 52.2678 81.1266C53.939 81.1266 61.6143 81.1293 61.6143 81.1293C62.0362 81.1293 62.4554 81.1266 62.8774 81.1266C63.2966 81.1238 63.7186 81.1238 64.1378 81.1238C65.012 81.1238 65.6877 81.1321 66.3275 81.1459C67.1935 81.1679 67.7423 81.6147 67.7561 82.3152C67.7727 83.0874 67.3921 83.5287 66.5978 83.6611C66.4903 83.6776 66.3937 83.7107 66.2917 83.7438C66.2448 83.7576 66.1979 83.7741 66.1455 83.7907L65.8973 83.8624L65.9525 84.1134C66.4489 86.3831 65.8008 88.0958 64.0275 89.2072C63.2911 89.6788 62.5216 89.916 61.7522 89.916ZM46.0763 83.719C45.0669 83.719 44.2698 84.4995 44.2616 85.4951C44.2505 86.4714 45.0145 87.2684 45.9991 87.307C46.0239 87.307 46.0487 87.3098 46.0735 87.3098C47.0664 87.3098 47.8799 86.5127 47.891 85.5309C47.902 84.5546 47.1381 83.7576 46.1535 83.719C46.1259 83.719 46.1011 83.719 46.0763 83.719ZM61.766 83.719C60.7786 83.719 59.9816 84.4829 59.9513 85.4592C59.9209 86.419 60.6849 87.2491 61.6529 87.3042C61.6888 87.307 61.7274 87.307 61.7632 87.307C62.7505 87.307 63.5503 86.5431 63.5807 85.5668C63.611 84.607 62.8471 83.7797 61.8791 83.7217C61.8404 83.719 61.8018 83.719 61.766 83.719ZM38.7292 69.7723C38.8451 70.3294 38.9581 70.8616 39.0684 71.3967C39.6117 74.0139 39.7331 74.1132 42.309 74.1132H46.9119L46.1866 68.4926H38.4617L38.7292 69.7723ZM59.6975 74.1077L62.7423 74.1104C63.7627 74.1104 64.9734 74.1077 66.1979 74.0884C66.5178 74.0829 66.9453 73.7326 67.0143 73.4182C67.268 72.2792 67.4886 71.1512 67.7203 69.9598C67.792 69.5902 68.0043 68.5147 68.0043 68.5147H60.4036L59.6975 74.1077ZM49.4823 74.0801H57.1134L57.8415 68.5036H48.7652L49.4823 74.0801ZM60.7456 65.8809L64.1874 65.8836C65.1996 65.8836 66.402 65.8809 67.6403 65.8643C67.9437 65.8616 68.5532 65.663 68.6359 65.3017C68.9117 64.1075 69.1434 62.9216 69.3888 61.6668C69.4605 61.2972 69.6729 60.2189 69.6729 60.2189H61.435L60.7456 65.8809ZM37.011 61.7054C37.262 62.9134 37.4992 64.0551 37.7667 65.1997C37.8384 65.5086 38.2659 65.856 38.5803 65.8588C40.0144 65.8781 41.4375 65.8809 42.6427 65.8809L45.8777 65.8781L45.1524 60.2161H36.7022C36.6994 60.2161 36.9311 61.3248 37.011 61.7054ZM48.4453 65.7981H58.1669L58.8591 60.241H47.731L48.4453 65.7981Z" fill="#05B068"/>
<path d="M70.7622 14.9616C66.9784 14.9616 63.1973 14.9588 59.4135 14.9533C57.0527 14.9505 55.3924 13.8998 54.7416 11.9941C54.2893 10.6703 54.4768 9.26098 55.2545 8.12472C56.0378 6.98295 57.3009 6.29348 58.7212 6.23832C59.4024 6.21074 60.136 6.19971 61.0296 6.19971C61.5977 6.19971 62.1686 6.20522 62.7395 6.21074C63.3104 6.21625 63.8813 6.22177 64.4521 6.22177H73.3078L80.3846 6.21901C82.3399 6.21901 84.2953 6.22177 86.2534 6.22729C88.1425 6.2328 89.4994 7.08499 90.2827 8.7618C91.0245 10.3503 90.8315 11.881 89.7118 13.3151C89.003 14.2224 88.0653 14.7464 86.9208 14.8788C86.5953 14.9147 86.2092 14.9533 85.8204 14.9533L82.977 14.956C78.9063 14.9588 74.8329 14.9616 70.7622 14.9616ZM59.7168 8.76731C58.6026 8.76731 57.1161 8.94934 57.0582 10.5131C57.0389 11.0178 57.1823 11.4342 57.4857 11.7458C57.9187 12.1954 58.6468 12.4133 59.7086 12.4133H70.001C75.1638 12.4133 80.3266 12.4133 85.4894 12.4077C85.8921 12.4077 86.3471 12.4077 86.7829 12.3002C87.6599 12.0878 88.1646 11.4204 88.137 10.5186C88.1067 9.60572 87.5744 8.98795 86.6781 8.82247C86.4078 8.77283 86.1403 8.7618 85.8204 8.7618H85.5087C83.0459 8.75904 80.5914 8.75904 78.1396 8.75904H65.0092L59.7168 8.76731Z" fill="#05B068"/>
<path d="M31.167 14.9255C29.9922 14.9117 28.8973 14.4456 28.081 13.61C27.2674 12.7771 26.8316 11.6739 26.8482 10.5046C26.8813 8.14655 28.8366 6.22705 31.2084 6.22705H31.3077C33.7126 6.27945 35.588 8.20171 35.5769 10.5983C35.5659 12.9839 33.6105 14.9255 31.2139 14.9255H31.167ZM31.2001 8.77811C30.2156 8.78363 29.4241 9.55308 29.3965 10.5266C29.3827 11.0093 29.5647 11.4698 29.9039 11.8201C30.2514 12.1758 30.7148 12.3717 31.2112 12.3717C32.1902 12.3661 32.9983 11.5801 33.0259 10.6231C33.0397 10.1378 32.8604 9.67994 32.5184 9.32969C32.1709 8.97392 31.7076 8.77811 31.2084 8.77811H31.2001Z" fill="#05B068"/>
<path d="M43.3901 14.9253C42.2152 14.9253 41.1148 14.4702 40.293 13.6429C39.4739 12.8183 39.0216 11.7234 39.0271 10.5568C39.0354 8.16844 40.9935 6.22412 43.3901 6.22412H43.4342C45.8446 6.24894 47.7421 8.14362 47.7586 10.543C47.7669 11.7123 47.3201 12.81 46.501 13.6374C45.6791 14.4647 44.5787 14.9225 43.4011 14.9253H43.3901ZM43.3928 8.78345C42.4276 8.78345 41.6278 9.52809 41.5781 10.4823C41.5257 11.4421 42.2704 12.2887 43.2412 12.366C43.2908 12.3715 43.3432 12.3715 43.3928 12.3715C44.3581 12.3715 45.1579 11.6241 45.2103 10.6726C45.2627 9.71287 44.5181 8.86895 43.5473 8.79173C43.4949 8.78621 43.4425 8.78345 43.3928 8.78345Z" fill="#05B068"/>
<path d="M18.9082 14.8705C17.7416 14.8567 16.6605 14.3989 15.8634 13.5798C15.0526 12.7469 14.6169 11.6272 14.6334 10.4248C14.6693 8.06403 16.6136 6.14453 18.9661 6.14453H19.0019C20.163 6.15556 21.2634 6.62992 22.0991 7.48211C22.9264 8.32603 23.3732 9.42368 23.3567 10.5682C23.3263 12.94 21.3517 14.8705 18.9606 14.8705H18.9082ZM18.9799 8.70111C18.0229 8.70111 17.2176 9.48987 17.1845 10.4606C17.1679 10.9653 17.3444 11.4342 17.6809 11.7817C18.0174 12.1292 18.4779 12.3195 18.9771 12.3222C19.9617 12.3222 20.7615 11.5611 20.8001 10.5903C20.8194 10.1214 20.6319 9.64707 20.2844 9.28302C19.9341 8.91622 19.4597 8.70386 18.9854 8.70386H18.9799V8.70111Z" fill="#05B068"/>
</svg>
