<svg width="98" height="98" viewBox="0 0 98 98" fill="none" xmlns="http://www.w3.org/2000/svg">
<path d="M20.5748 49.0394C18.3863 49.0394 16.3832 49.0301 14.3801 49.0425C11.1622 49.0579 9.09113 51.1057 9.07876 54.3117C9.06331 58.7809 9.06022 63.2502 9.07876 67.7194C9.09113 70.8297 11.0973 72.8651 14.1977 72.9207C16.2719 72.9577 18.343 72.9269 20.5161 72.9269C20.5408 73.4612 20.5748 73.872 20.5748 74.2828C20.5779 78.5605 20.5686 82.8352 20.581 87.1129C20.5995 93.6237 24.9612 97.988 31.465 97.9942C42.3768 98.0034 53.2917 98.0003 64.2035 97.9942C70.7629 97.9911 75.1616 93.6052 75.174 87.0481C75.1895 80.2654 75.1771 73.4859 75.1771 66.7033C75.1771 66.2925 75.1771 65.8817 75.1771 65.474C75.31 65.4184 75.4429 65.3597 75.5758 65.3041C75.9406 65.962 76.4074 66.5828 76.6454 67.2839C77.0781 68.5503 77.3162 68.7572 78.6516 68.4669C81.1987 67.9109 83.5541 66.9009 85.7581 65.508C86.5958 64.9798 86.8184 64.3837 86.296 63.4911C85.3934 61.9499 85.4985 60.6526 86.5402 59.584C87.5819 58.5122 88.9915 58.3794 90.5494 59.2844C91.3964 59.7755 91.9837 59.6025 92.4938 58.8118C93.9497 56.554 94.9574 54.114 95.5509 51.5011C95.7735 50.522 95.5231 49.9042 94.4072 49.6602C92.7874 49.3081 91.8725 48.119 91.8972 46.6457C91.9219 45.2095 92.8307 44.076 94.3856 43.7393C95.4706 43.5046 95.7828 42.9023 95.554 41.9016C94.9574 39.2886 93.9528 36.8455 92.5 34.5908C91.959 33.7507 91.3469 33.6086 90.4629 34.1553C89.0255 35.0448 87.5974 34.8811 86.5557 33.8248C85.5047 32.7531 85.3841 31.4373 86.2836 29.9208C86.8091 29.0344 86.6206 28.429 85.7829 27.8947C83.4861 26.4276 81.0008 25.4299 78.3455 24.8369C77.3904 24.6238 76.9576 25.0778 76.6701 25.9581C76.429 26.7025 75.9715 27.3727 75.6098 28.0769C75.48 28.0275 75.3533 27.975 75.2235 27.9256C75.2049 27.524 75.1709 27.1225 75.1709 26.721C75.1678 21.4024 75.1956 16.0868 75.1616 10.7682C75.1276 5.58242 71.987 1.52397 67.137 0.39045C66.2096 0.17424 65.2266 0.100113 64.2715 0.100113C53.3195 0.0815811 42.3675 0.0784912 31.4155 0.0908508C24.9797 0.097023 20.581 4.47052 20.5717 10.8979C20.5562 23.1135 20.5655 35.3259 20.5655 47.5414C20.5748 47.9893 20.5748 48.4433 20.5748 49.0394ZM22.9055 20.692C39.5947 20.692 56.219 20.692 72.8185 20.692C72.8185 23.2741 72.8185 25.7543 72.8185 28.3147C71.5512 27.9626 70.97 27.1318 70.7382 26.0075C70.5527 25.1118 70.0952 24.6084 69.1246 24.8215C66.4291 25.4114 63.9067 26.4276 61.5852 27.9317C60.7846 28.4506 60.6486 29.0498 61.1216 29.8807C62.0242 31.4559 61.8944 32.8303 60.8094 33.8743C59.7429 34.8997 58.4044 35.014 56.8929 34.109C56.0428 33.5994 55.4524 33.7816 54.9454 34.5599C53.4833 36.8115 52.4725 39.2516 51.879 41.8676C51.6564 42.8436 51.9006 43.4861 53.0042 43.7301C54.6178 44.0853 55.5482 45.2558 55.5327 46.7229C55.5173 48.1406 54.5992 49.3267 53.0536 49.6479C51.8605 49.8981 51.6564 50.5714 51.8914 51.5783C52.488 54.1511 53.4864 56.554 54.9114 58.7809C55.4524 59.6272 56.0675 59.7631 56.9485 59.235C58.3983 58.364 59.8387 58.5153 60.865 59.55C61.8975 60.5909 62.0211 61.9653 61.1432 63.4571C60.627 64.3374 60.7908 64.9428 61.6409 65.4833C63.8418 66.8824 66.2004 67.8893 68.7444 68.4514C70.123 68.7572 70.3858 68.5842 70.7753 67.1789C71.072 66.1103 71.6655 65.3566 72.8062 65.057C72.8062 71.1169 72.8062 77.1027 72.8062 83.0977C56.1293 83.0977 39.536 83.0977 22.9364 83.0977C22.9364 79.6786 22.9364 76.3521 22.9364 72.9207C23.4496 72.9207 23.8669 72.9207 24.2842 72.9207C29.2208 72.9207 34.1574 72.9361 39.0909 72.9145C42.4015 72.8991 44.3984 70.876 44.4077 67.5557C44.4231 63.2008 44.42 58.8489 44.4077 54.4939C44.4015 51.0532 42.3799 49.0363 38.9425 49.0332C34.0059 49.0271 29.0693 49.0332 24.1358 49.0332C23.7247 49.0332 23.3167 49.0332 22.8963 49.0332C22.9055 39.4925 22.9055 30.103 22.9055 20.692ZM72.8773 18.2365C56.1695 18.2365 39.57 18.2365 22.8963 18.2365C22.8963 15.3363 22.7912 12.4948 22.9241 9.65941C23.0817 6.22485 25.8174 3.23198 29.1991 2.57101C29.8761 2.4382 30.5747 2.36407 31.264 2.36407C42.3304 2.35172 53.3968 2.34245 64.4631 2.36098C69.1153 2.37025 72.6485 5.55463 72.8556 10.0146C72.9793 12.7017 72.8773 15.4012 72.8773 18.2365ZM68.5713 66.2029C66.868 65.4925 65.2174 64.8007 63.5079 64.0872C64.4291 61.675 64.1293 59.6334 62.4477 57.9254C60.7166 56.168 58.5868 56.1031 56.2499 56.8382C55.6688 55.3989 55.1433 54.0399 54.5683 52.7025C54.2654 51.9983 54.4354 51.6709 55.1185 51.2756C58.7352 49.1969 58.7043 44.181 55.1062 42.0653C54.8527 41.917 54.6054 41.7564 54.2005 41.5093C54.9083 39.8168 55.5946 38.1705 56.2684 36.5583C61.5852 37.8524 64.6331 35.0201 63.7243 29.8961C63.6841 29.6706 63.8325 29.2506 64.0087 29.1703C65.5234 28.4661 67.0628 27.8175 68.5651 27.1627C71.3069 32.0273 75.7613 32.0118 78.9205 27.1936C80.5557 27.8823 82.2249 28.5865 83.8602 29.2753C82.4537 34.6773 85.3315 37.5127 91.1955 36.617C91.7302 37.9204 92.2619 39.2732 92.8431 40.6013C93.1584 41.3271 93.0285 41.7039 92.2805 42.1271C89.6097 43.6374 88.7689 47.0071 90.4783 49.5027C91.1058 50.4169 92.0826 51.0934 93.1275 52.0941C92.537 53.5087 91.8384 55.1796 91.1553 56.8166C85.6839 55.4668 82.7752 58.3887 83.7952 64.1552C82.1631 64.8223 80.4908 65.5018 78.8216 66.1844C76.8309 61.5978 70.8185 61.326 68.5713 66.2029ZM42.0553 54.741C41.5854 54.741 41.1681 54.741 40.7508 54.741C37.9348 54.741 35.1218 54.7441 32.3058 54.741C31.5051 54.741 30.7725 54.8831 30.7818 55.8807C30.7942 56.8783 31.5453 56.9988 32.3336 56.9988C34.3768 56.9988 36.4201 56.9988 38.4634 56.9988C39.6504 56.9988 40.8343 56.9988 42.1295 56.9988C42.1295 60.3654 42.1295 63.593 42.1295 66.8176C42.1295 69.8815 41.3567 70.666 38.3304 70.666C30.9642 70.666 23.601 70.6691 16.2348 70.6629C15.3878 70.6629 14.5347 70.6876 13.6939 70.5949C12.4512 70.459 11.5393 69.5633 11.4033 68.3557C11.326 67.6453 11.3879 66.9226 11.3879 66.1226C12.8067 66.1226 14.1112 66.1103 15.4156 66.1257C16.2781 66.135 17.0416 65.9373 17.0138 64.918C16.986 63.976 16.2503 63.8061 15.4311 63.8216C14.0988 63.8463 12.7634 63.8278 11.36 63.8278C11.36 60.56 11.3508 57.4467 11.3631 54.3302C11.3724 52.3628 12.3925 51.3312 14.3523 51.3281C22.6026 51.3188 30.856 51.3188 39.1063 51.3281C41.1743 51.3373 42.1944 52.4678 42.0553 54.741ZM72.8927 85.5377C72.8927 86.0906 72.8927 86.5075 72.8927 86.9245C72.8896 92.3543 69.5419 95.7178 64.1107 95.7209C53.1309 95.724 42.1511 95.7425 31.1713 95.7117C25.6443 95.6962 21.938 91.0756 23.0014 85.5377C39.5731 85.5377 56.1572 85.5377 72.8927 85.5377Z" fill="#831EB3"/>
<path d="M2.14745e-05 21.6991C-0.00925201 25.4951 2.98608 28.5096 6.78821 28.5219C10.5532 28.5374 13.6413 25.4858 13.6537 21.7424C13.666 18.0144 10.5718 14.9042 6.83458 14.8825C3.08809 14.8609 0.00929496 17.9341 2.14745e-05 21.6991ZM6.81603 26.2703C4.29674 26.2765 2.2813 24.2596 2.27821 21.73C2.27821 19.2128 4.30601 17.165 6.80058 17.1619C9.28278 17.1589 11.3539 19.2282 11.36 21.7146C11.3662 24.2102 9.31988 26.261 6.81603 26.2703Z" fill="#831EB3"/>
<path d="M92.2218 91.1313C95.4057 91.1375 97.9342 88.6079 97.9188 85.4236C97.9064 82.3102 95.3747 79.7868 92.2619 79.7806C89.0904 79.7745 86.5464 82.3257 86.5587 85.4977C86.5742 88.6141 89.0966 91.1252 92.2218 91.1313ZM92.2156 82.0724C94.0981 82.06 95.6066 83.5302 95.6313 85.405C95.656 87.2922 94.2032 88.8087 92.3269 88.8458C90.3949 88.8859 88.8462 87.3756 88.8493 85.4575C88.8524 83.5889 90.3485 82.0847 92.2156 82.0724Z" fill="#831EB3"/>
<path d="M85.922 97.9755C86.8153 98.0094 87.6345 97.2558 87.687 96.357C87.7365 95.4613 87.0039 94.6459 86.092 94.5841C85.1368 94.5193 84.2898 95.2914 84.2744 96.2458C84.2589 97.1446 85.0162 97.9415 85.922 97.9755Z" fill="#831EB3"/>
<path d="M13.0231 84.3116C13.9195 84.3425 14.7356 83.595 14.7851 82.6962C14.8345 81.7943 14.1019 80.9913 13.1869 80.9357C12.2163 80.877 11.391 81.6306 11.3786 82.5943C11.3631 83.5054 12.105 84.2807 13.0231 84.3116Z" fill="#831EB3"/>
<path d="M81.4738 2.37363C80.5804 2.34274 79.7736 3.09329 79.7242 4.00134C79.6778 4.90322 80.4042 5.71862 81.31 5.78348C82.2559 5.85143 83.0936 5.07001 83.1059 4.10635C83.1183 3.18594 82.3826 2.40452 81.4738 2.37363Z" fill="#831EB3"/>
<path d="M17.0509 1.84847C17.0756 0.949679 16.3275 0.143543 15.4249 0.0972137C14.5192 0.053973 13.7217 0.779801 13.6722 1.70021C13.6166 2.67313 14.3708 3.48235 15.3384 3.49161C16.2626 3.50088 17.0231 2.77197 17.0509 1.84847Z" fill="#831EB3"/>
<path d="M3.37248 93.9977C3.37248 93.0866 2.61515 92.3113 1.70943 92.2928C0.757357 92.2773 -0.021616 93.0835 0.0062045 94.0564C0.034025 94.9737 0.809907 95.7243 1.71253 95.7057C2.61515 95.6872 3.37248 94.9058 3.37248 93.9977Z" fill="#831EB3"/>
<path d="M2.77898 41.1049C1.81762 41.1265 1.12829 41.8523 1.14993 42.8191C1.17157 43.7796 1.8949 44.4684 2.86244 44.4468C3.82379 44.4282 4.51621 43.7024 4.49457 42.7357C4.47293 41.7813 3.74033 41.0833 2.77898 41.1049Z" fill="#831EB3"/>
<path d="M92.2156 72.2905C92.1723 71.3454 91.4088 70.6566 90.4505 70.6999C89.4953 70.7431 88.8184 71.4906 88.8586 72.4542C88.8987 73.3993 89.653 74.0819 90.6144 74.0418C91.5664 74.0047 92.2619 73.2449 92.2156 72.2905Z" fill="#831EB3"/>
<path d="M95.6251 24.5311C95.6066 23.5767 94.8771 22.8725 93.9188 22.891C92.9605 22.9095 92.2619 23.6354 92.2774 24.599C92.2928 25.5503 93.0347 26.2638 93.9868 26.2453C94.942 26.2298 95.6437 25.4947 95.6251 24.5311Z" fill="#831EB3"/>
<path d="M36.4757 38.807C33.9719 38.807 31.4681 38.8101 28.9673 38.8039C28.1358 38.8008 27.3321 38.9028 27.3537 39.9652C27.3723 40.9412 28.1327 41.0741 28.924 41.0741C33.9286 41.0741 38.9363 41.071 43.9409 41.0771C44.7477 41.0771 45.4988 40.9042 45.505 39.956C45.5112 38.9244 44.7137 38.7977 43.8698 38.8008C41.4061 38.8163 38.9425 38.807 36.4757 38.807Z" fill="#831EB3"/>
<path d="M36.383 34.242C33.9163 34.242 31.4495 34.2513 28.9858 34.239C28.1451 34.2359 27.3444 34.3532 27.3568 35.3972C27.3692 36.4288 28.1791 36.5431 29.0137 36.54C33.9843 36.5338 38.9549 36.5431 43.9254 36.5338C45.0506 36.5307 45.675 35.9964 45.4988 35.1995C45.3257 34.4119 44.7415 34.2328 44.012 34.2359C41.468 34.2513 38.927 34.242 36.383 34.242Z" fill="#831EB3"/>
<path d="M36.3521 31.9467C38.893 31.9467 41.437 31.9343 43.978 31.9559C44.8126 31.9621 45.5143 31.7521 45.505 30.8131C45.4988 29.8773 44.7693 29.6703 43.9533 29.6734C38.9456 29.6796 33.9379 29.6796 28.9302 29.6765C28.1327 29.6765 27.3815 29.8248 27.3537 30.7853C27.3228 31.8416 28.108 31.959 28.9549 31.9559C31.4217 31.9374 33.8853 31.9467 36.3521 31.9467Z" fill="#831EB3"/>
<path d="M36.4386 25.1485C33.9348 25.1485 31.434 25.1516 28.9302 25.1454C28.142 25.1454 27.3754 25.2473 27.3537 26.2326C27.329 27.292 28.1327 27.4062 28.9642 27.4062C33.9688 27.4032 38.9734 27.4032 43.9811 27.4062C44.8497 27.4062 45.5792 27.1777 45.4988 26.1461C45.437 25.3369 44.791 25.1454 44.0614 25.1454C41.5205 25.1546 38.9796 25.1485 36.4386 25.1485Z" fill="#831EB3"/>
<path d="M47.879 14.8638C50.4169 14.8699 52.4385 12.8747 52.4478 10.3544C52.457 7.85566 50.4107 5.80172 47.9069 5.79863C45.403 5.79554 43.3412 7.83713 43.3288 10.3266C43.3165 12.8191 45.3597 14.8576 47.879 14.8638ZM50.1727 10.342C50.1727 11.5898 49.131 12.5998 47.8605 12.5843C46.6364 12.5689 45.6534 11.6053 45.6225 10.3945C45.5916 9.13435 46.59 8.10893 47.8667 8.09657C49.131 8.08113 50.1758 9.09729 50.1727 10.342Z" fill="#831EB3"/>
<path d="M62.2189 46.7442C62.2468 53.0697 67.3904 58.1999 73.715 58.206C80.0766 58.2122 85.2419 53.011 85.211 46.633C85.1801 40.2549 79.9777 35.1217 73.6006 35.1772C67.2915 35.2298 62.1911 40.4125 62.2189 46.7442ZM82.9359 46.6577C82.9575 51.7539 78.803 55.939 73.7181 55.939C68.6795 55.939 64.5466 51.8373 64.4878 46.7781C64.426 41.6819 68.5558 37.4875 73.6562 37.4659C78.7876 37.4412 82.9112 41.5275 82.9359 46.6577Z" fill="#831EB3"/>
<path d="M22.2409 61.0569C22.2409 62.2491 22.2162 63.4444 22.2471 64.6366C22.2811 65.8319 23.0632 66.323 24.108 65.7454C26.2625 64.5563 28.3985 63.324 30.5098 62.0607C31.5422 61.443 31.5268 60.5257 30.4789 59.8987C28.3645 58.6354 26.2316 57.4031 24.0771 56.2109C23.0446 55.6395 22.2749 56.1429 22.2471 57.3629C22.2162 58.5922 22.2409 59.8276 22.2409 61.0569ZM24.5655 59.1018C25.7185 59.769 26.6984 60.3373 27.8205 60.989C26.6922 61.6437 25.6907 62.2244 24.5655 62.8792C24.5655 61.5418 24.5655 60.433 24.5655 59.1018Z" fill="#831EB3"/>
<path d="M47.9254 91.1311C49.0011 91.1311 50.0769 91.1249 51.1526 91.1342C51.879 91.1404 52.3674 90.8099 52.4107 90.0841C52.457 89.2841 51.9439 88.8826 51.1866 88.8764C48.9578 88.8548 46.7291 88.8115 44.5066 88.9196C44.0862 88.9413 43.4401 89.5713 43.3505 90.0099C43.1928 90.7852 43.8203 91.1342 44.5869 91.1342C45.6967 91.128 46.8126 91.1311 47.9254 91.1311Z" fill="#831EB3"/>
<path d="M73.6562 53.0359C77.2111 53.0637 80.0766 50.2469 80.0858 46.7166C80.0951 43.1987 77.2203 40.3015 73.7181 40.2984C70.2652 40.2953 67.3843 43.1461 67.3534 46.5992C67.3193 50.1604 70.1076 53.0081 73.6562 53.0359ZM69.6408 46.7166C69.6315 44.4341 71.4584 42.584 73.715 42.584C75.9715 42.584 77.8046 44.4403 77.7922 46.7166C77.7798 48.9528 76.0117 50.7411 73.7706 50.7751C71.4924 50.8121 69.6501 49.0022 69.6408 46.7166Z" fill="#831EB3"/>
</svg>
