<svg width="103" height="102" viewBox="0 0 103 102" fill="none" xmlns="http://www.w3.org/2000/svg">
<path d="M47.0898 0C50.0078 0 52.9258 0 55.8438 0C57.6668 0.618762 58.4561 1.96782 58.6422 3.81614C58.7564 4.93416 59.0541 6.03095 59.1763 7.14897C59.2428 7.74118 59.5005 7.97221 60.0294 8.17139C61.6319 8.77952 63.2264 9.42219 64.7864 10.1312C65.3471 10.3862 65.7298 10.3729 66.2135 10.0091C67.2951 9.19113 68.4086 8.41305 69.5275 7.64558C71.2017 6.49303 72.8175 6.63376 74.2818 8.05718C75.3501 9.09819 76.4211 10.1339 77.4337 11.228C77.9306 11.7671 78.4621 11.9318 79.1744 11.9291C85.0661 11.9052 90.9579 11.8919 96.8497 11.9397C97.7799 11.9477 98.7605 12.1522 99.6242 12.5027C101.136 13.1135 101.833 14.4971 102.393 15.9365C102.393 37.5799 102.393 59.2233 102.393 80.8667C101.394 83.995 99.1697 85.0599 96.0046 85.0307C86.658 84.943 77.3087 84.9988 67.9622 84.9988C67.5874 84.9988 67.2127 84.9988 66.8194 84.9988C67.1623 87.4075 68.1455 89.3806 69.7055 91.0589C70.2796 91.6777 70.8802 91.9858 71.7704 91.9805C74.0294 91.9646 75.8126 93.2605 76.5009 95.2549C77.6011 98.4496 75.2997 101.78 71.8874 101.788C58.2621 101.817 44.6396 101.801 31.0143 101.793C30.6529 101.793 30.2835 101.751 29.9353 101.663C27.4744 101.044 25.9596 98.848 26.2068 96.2853C26.4327 93.9324 28.4365 92.0973 30.9053 91.9592C31.4236 91.93 32.0933 92.0283 32.4308 91.7468C34.5143 90.0233 35.7235 87.7819 36.138 84.9962C35.6251 84.9962 35.2318 84.9962 34.8385 84.9962C25.2926 84.9962 15.744 84.9988 6.19814 84.9935C2.60248 84.9909 0.54287 82.9089 0.54287 79.2919C0.54287 58.7479 0.577412 38.2039 0.503 17.6573C0.49237 14.513 2.58918 11.783 6.32037 11.8733C12.1856 12.0141 18.0534 11.9264 23.9213 11.884C24.4129 11.8813 25.0056 11.6237 25.375 11.2891C26.5283 10.2454 27.5834 9.09024 28.7049 8.00674C30.1267 6.63112 31.7611 6.50097 33.3928 7.61899C34.3229 8.25634 35.2797 8.86983 36.1248 9.60809C36.9885 10.3623 37.7565 10.5614 38.7291 9.82052C39.165 9.48857 39.739 9.3319 40.2546 9.10617C41.384 8.61223 42.9068 8.41835 43.542 7.56058C44.2276 6.63376 44.1532 5.09881 44.2861 3.81348C44.4721 1.96251 45.28 0.629385 47.0898 0ZM98.9997 76.4822C98.4628 76.4822 98.0376 76.4822 97.6151 76.4822C71.2283 76.4822 44.8389 76.4822 18.4521 76.4822C18.1199 76.4822 17.7877 76.5008 17.4582 76.4716C16.4908 76.3866 15.845 75.7015 15.8424 74.7879C15.8397 73.8664 16.4855 73.1813 17.4502 73.1016C17.7797 73.075 18.1119 73.091 18.4441 73.091C44.8654 73.091 71.2868 73.091 97.7081 73.091C98.1227 73.091 98.5372 73.091 98.9704 73.091C98.9864 72.7457 99.005 72.5492 99.005 72.3527C99.005 54.0315 99.0076 35.7103 99.0023 17.3891C99.0023 15.8993 98.3937 15.3177 96.8577 15.3177C91.6196 15.3124 86.3816 15.315 81.1436 15.3177C80.8805 15.3177 80.6201 15.3416 80.357 15.3549C80.4234 15.408 80.4898 15.4611 80.5563 15.5142C79.9371 16.5844 79.3471 17.6732 78.6907 18.7169C78.1804 19.5295 77.5373 20.2625 77.0483 21.0857C76.8729 21.3805 76.8384 21.8904 76.9633 22.2144C77.6011 23.8821 78.3426 25.51 78.983 27.1751C79.177 27.677 79.4082 27.8921 79.9477 27.9638C81.3907 28.163 82.8258 28.4153 84.2583 28.6915C85.9857 29.0234 87.0673 30.2822 87.0885 32.0296C87.1204 34.4515 87.1178 36.8761 87.0912 39.298C87.0726 41.0747 86.068 42.3016 84.3114 42.6707C82.8869 42.9708 81.4466 43.2045 80.0035 43.409C79.4401 43.4886 79.1611 43.6984 78.9538 44.2508C78.3399 45.892 77.6091 47.488 76.9978 49.1292C76.8676 49.4797 76.8995 50.0321 77.0935 50.3428C77.8376 51.5192 78.6934 52.6213 79.4773 53.7712C80.6413 55.4735 80.5058 57.0589 79.0627 58.5328C77.4815 60.1421 75.887 61.7355 74.2818 63.3209C72.7803 64.8027 71.199 64.9169 69.4504 63.6927C68.3103 62.8933 67.2021 62.0489 66.0408 61.284C65.7777 61.1114 65.2993 61.0689 65.0043 61.1858C63.3141 61.8497 61.6372 62.5561 59.9816 63.3076C59.6653 63.451 59.3225 63.8361 59.2507 64.1654C58.9345 65.6207 58.7405 67.1052 58.4455 68.5658C58.1 70.2786 56.9201 71.317 55.1847 71.3515C52.6999 71.402 50.2124 71.402 47.7276 71.3488C46.0028 71.3117 44.8282 70.2548 44.4907 68.5339C44.2037 67.0707 44.0124 65.5861 43.6988 64.1309C43.627 63.8016 43.2789 63.4192 42.96 63.2784C41.3309 62.5508 39.6806 61.8709 38.0143 61.2362C37.6901 61.1141 37.1771 61.138 36.8954 61.3186C35.6969 62.0887 34.5674 62.9597 33.3901 63.7644C31.7239 64.901 30.1426 64.7735 28.7129 63.3714C27.0785 61.77 25.4627 60.1474 23.8602 58.5142C22.4224 57.0509 22.2976 55.447 23.4722 53.7553C24.2482 52.6373 25.0375 51.5299 25.8507 50.4411C26.1802 50.0002 26.2467 49.6497 25.9942 49.1026C25.2581 47.5119 24.6548 45.8628 23.9293 44.2694C23.7725 43.9241 23.3552 43.5524 22.9965 43.4727C21.5428 43.1487 20.0572 42.9788 18.6009 42.6707C16.8496 42.2989 15.8663 41.0694 15.8477 39.2768C15.8238 36.8867 15.8238 34.4967 15.8503 32.1066C15.8716 30.253 16.9718 29.0022 18.8108 28.6782C20.1157 28.4498 21.4179 28.2055 22.7334 28.0408C23.4855 27.9479 23.8283 27.6292 24.0728 26.883C24.5432 25.441 25.1039 24.0069 25.8055 22.6658C26.236 21.8452 26.1005 21.3406 25.6275 20.6342C24.5007 18.9479 22.8902 17.5352 22.6005 15.3177C22.2258 15.3177 21.8963 15.3177 21.5667 15.3177C16.4935 15.3177 11.4229 15.3177 6.3496 15.3177C4.4282 15.3177 3.93656 15.809 3.93656 17.7184C3.93656 35.8085 3.93656 53.8961 3.93656 71.9862C3.93656 72.3368 3.93656 72.6873 3.93656 73.0936C4.47604 73.0936 4.86936 73.0936 5.26268 73.0936C7.08575 73.0963 8.90882 73.075 10.7319 73.1069C11.6913 73.1255 12.3902 73.8398 12.4274 74.7241C12.4646 75.6377 11.7497 76.3999 10.7558 76.4769C10.3944 76.5034 10.0276 76.4875 9.66356 76.4875C7.78467 76.4875 5.90579 76.4875 3.94983 76.4875C3.94983 77.7463 3.8967 78.9041 3.96845 80.0514C4.01895 80.8534 4.52652 81.3898 5.3477 81.5306C5.70381 81.5916 6.0732 81.597 6.43463 81.597C36.4702 81.5996 66.5032 81.5996 96.5388 81.5996C96.8045 81.5996 97.0703 81.6102 97.3334 81.581C98.3672 81.4642 98.9598 80.8614 98.9943 79.8177C99.0262 78.7554 98.9997 77.6958 98.9997 76.4822ZM19.2706 39.3432C20.9422 39.6327 22.5048 39.9168 24.0728 40.1718C25.6062 40.4214 26.5071 41.319 27.0333 42.7663C27.6551 44.4739 28.3275 46.1735 29.1195 47.8067C29.8849 49.3815 29.8264 50.7757 28.7687 52.1725C27.8518 53.3835 26.9987 54.6423 26.1749 55.8001C27.9289 57.5741 29.6244 59.287 31.3491 61.0291C32.654 60.0996 33.9961 59.1303 35.3514 58.1769C36.4782 57.3829 37.6688 57.3218 38.9285 57.8609C40.8127 58.6656 42.6995 59.4623 44.6023 60.2165C45.8753 60.721 46.7045 61.5682 46.9516 62.9332C47.2041 64.3353 47.4698 65.7375 47.6612 67.1503C47.7435 67.7638 47.9455 67.9975 48.5913 67.9842C50.4808 67.9444 52.3703 67.947 54.2599 67.9815C54.903 67.9921 55.2006 67.8302 55.2777 67.1291C55.4185 65.8464 55.6843 64.577 55.8863 63.2996C56.1467 61.6691 57.037 60.6599 58.6289 60.1129C60.343 59.5207 62.0199 58.7983 63.6596 58.0176C65.1239 57.3192 66.4447 57.3378 67.7628 58.3018C69.0438 59.2419 70.346 60.1501 71.5313 60.9972C73.2773 59.2471 74.9807 57.5396 76.7374 55.7789C75.8604 54.5467 74.9223 53.2268 73.9815 51.907C73.1125 50.6854 73.062 49.4372 73.6892 48.0669C74.4997 46.293 75.2305 44.4818 75.9295 42.6601C76.4504 41.3031 77.3247 40.4426 78.7757 40.1983C80.3995 39.9248 82.0206 39.6406 83.6683 39.3565C83.6683 36.8947 83.6683 34.5153 83.6683 32.0349C82.1295 31.7773 80.6068 31.5038 79.076 31.2701C77.4416 31.0204 76.4158 30.1521 75.871 28.556C75.305 26.8989 74.6619 25.2551 73.8672 23.6989C73.0301 22.0577 73.078 20.6237 74.1968 19.1657C75.1163 17.9654 75.9614 16.7066 76.7693 15.5779C74.9861 13.7934 73.3038 12.1097 71.5711 10.3755C70.2955 11.2838 68.9534 12.2478 67.6034 13.2011C66.4102 14.0403 65.1877 14.0775 63.8536 13.4694C62.0518 12.6461 60.2101 11.9025 58.3631 11.1855C57.0822 10.6889 56.2424 9.8577 55.9926 8.49271C55.7295 7.05867 55.4691 5.62197 55.2644 4.17996C55.1847 3.61697 55.0093 3.38328 54.4007 3.39391C52.4448 3.42843 50.4888 3.43108 48.5328 3.39391C47.9216 3.38328 47.7462 3.62228 47.6745 4.18528C47.507 5.46795 47.2572 6.73735 47.0659 8.01471C46.8161 9.68511 45.9285 10.7367 44.2994 11.3024C42.5853 11.8946 40.9004 12.601 39.266 13.3897C37.7963 14.1014 36.4835 14.0589 35.1707 13.0949C33.8924 12.1575 32.5929 11.2466 31.405 10.3941C29.651 12.1655 27.9581 13.8757 26.2148 15.6337C27.0492 16.8048 27.9315 18.0849 28.8564 19.3357C29.8529 20.6821 29.8795 22.0311 29.1593 23.5289C28.386 25.1356 27.6711 26.7847 27.0997 28.471C26.5337 30.1467 25.4813 31.047 23.7565 31.2886C22.2577 31.5011 20.7695 31.7932 19.2706 32.0508C19.2706 34.5152 19.2706 36.8947 19.2706 39.3432ZM36.6377 91.8769C46.5981 91.8769 56.3699 91.8769 65.9743 91.8769C65.2621 89.9595 64.4223 88.09 63.9015 86.1355C63.6437 85.1635 63.3114 84.9696 62.4105 84.9776C57.1459 85.0174 51.8814 84.9962 46.6168 84.9962C44.4323 84.9962 42.2451 84.9775 40.0606 85.02C39.7629 85.0254 39.2474 85.3069 39.2102 85.5247C38.8222 87.7793 37.9478 89.8294 36.6377 91.8769ZM51.4641 95.0132C44.9345 95.0132 38.4049 95.0132 31.8754 95.0132C31.5777 95.0132 31.2774 94.9973 30.9824 95.0292C29.9778 95.138 29.2391 95.9321 29.2391 96.8775C29.2391 97.7804 29.9247 98.5611 30.8867 98.7125C31.2428 98.7683 31.6149 98.7524 31.979 98.7524C44.9717 98.755 57.9671 98.755 70.9599 98.747C71.4515 98.747 71.9644 98.7284 72.4295 98.5957C73.2587 98.3593 73.6759 97.7034 73.6812 96.8748C73.6865 96.0888 73.2959 95.4487 72.5199 95.1885C72.092 95.0451 71.6136 95.0185 71.1565 95.0185C64.5897 95.0079 58.0283 95.0132 51.4641 95.0132Z" fill="#488EC8"/>
<path d="M51.5119 57.7735C39.3404 57.7921 29.4171 47.8999 29.3958 35.7265C29.3746 23.5477 39.2554 13.6157 51.4269 13.5811C63.5719 13.5466 73.5217 23.476 73.5403 35.6468C73.5563 47.8441 63.6888 57.7549 51.5119 57.7735ZM51.5013 54.3796C61.786 54.3663 70.1467 45.9799 70.1467 35.6787C70.144 25.3934 61.7515 16.9856 51.4827 16.9803C41.1794 16.975 32.7603 25.4306 32.7842 35.753C32.8108 46.0409 41.206 54.3929 51.5013 54.3796Z" fill="#488EC8"/>
<path d="M40.2572 35.7077C42.0723 37.5108 43.8183 39.2317 45.5484 40.9685C46.4865 41.9086 46.5822 42.9284 45.8354 43.6666C45.0647 44.4314 44.1213 44.3305 43.146 43.3559C41.0784 41.2951 39.0188 39.2291 36.9619 37.1577C35.9281 36.1167 35.9121 35.2748 36.93 34.2471C39.0294 32.1252 41.1395 30.014 43.2576 27.9134C44.0947 27.0822 45.1046 27.0158 45.8142 27.693C46.5556 28.402 46.5078 29.4457 45.6414 30.3221C43.8954 32.0907 42.1281 33.8381 40.2572 35.7077Z" fill="#488EC8"/>
<path d="M62.6949 35.6785C60.7815 33.7824 58.9663 31.9925 57.1645 30.192C56.5613 29.5892 56.4045 28.8721 56.8111 28.1047C57.2017 27.3664 57.8741 27.1035 58.6581 27.2974C59.0195 27.3877 59.3809 27.632 59.652 27.9002C61.7993 30.0167 63.936 32.1439 66.0514 34.2923C67.0161 35.2722 66.9868 36.1326 65.9955 37.1338C63.8961 39.253 61.7887 41.3616 59.6733 43.4649C58.7697 44.3625 57.7944 44.4235 57.0556 43.6693C56.3487 42.947 56.4337 41.9246 57.3107 41.0429C59.062 39.2849 60.8293 37.5375 62.6949 35.6785Z" fill="#488EC8"/>
<path d="M49.8483 44.1923C48.6206 44.1896 47.8685 43.122 48.1741 41.8712C49.0298 38.3977 49.9041 34.9321 50.7705 31.4611C51.0044 30.529 51.217 29.5916 51.4721 28.6674C51.7751 27.5706 52.6653 27.0289 53.6406 27.313C54.5469 27.576 55.0066 28.4762 54.7382 29.5518C53.6539 33.9229 52.5537 38.2888 51.4694 42.66C51.2489 43.5761 50.712 44.0993 49.8483 44.1923Z" fill="#488EC8"/>
</svg>
