<svg width="88" height="98" viewBox="0 0 88 98" fill="none" xmlns="http://www.w3.org/2000/svg">
<path d="M43.3457 98C43.1293 97.9255 42.9104 97.8562 42.6915 97.7869C42.2073 97.6328 41.7102 97.4736 41.2517 97.2605C38.0194 95.7611 36.3298 92.2692 37.1462 88.7671C37.1849 88.5976 37.2209 88.4307 37.257 88.2407L37.3523 87.7811L35.552 86.7413C34.3208 86.03 33.0923 85.3188 31.8637 84.6128L27.7505 82.2455C23.6605 79.8936 19.4289 77.4595 15.277 75.0512C14.9576 74.8663 14.7207 74.7867 14.4889 74.7867C14.1901 74.7867 13.9094 74.9228 13.5849 75.2258C12.158 76.5532 10.3371 77.285 8.45946 77.285C7.30561 77.285 6.18265 77.0179 5.11894 76.4916C2.32186 75.1102 0.730156 72.2731 0.961958 69.0919C1.18088 66.0981 3.3624 63.4843 6.39128 62.5857C7.14592 62.3623 7.2953 61.9438 7.2953 61.3378C7.28243 53.9202 7.27985 46.1045 7.29273 36.7406C7.29273 36.2374 7.23091 35.765 6.46597 35.5313C3.33149 34.5762 1.17058 32.0086 0.959383 28.9892C0.735308 25.7772 2.44292 22.8476 5.30696 21.5227C6.31916 21.0554 7.37257 20.8167 8.43886 20.8167C10.3886 20.8167 12.2507 21.5972 13.8244 23.0761C13.9017 23.148 13.9815 23.2173 14.0794 23.302L14.3807 23.5639L37.3523 10.341L37.3059 10.1536C36.3607 6.32536 37.3394 3.45996 40.3013 1.39308C41.5299 0.532945 42.9645 0.0810547 44.4557 0.0810547C45.9444 0.0810547 47.3816 0.532945 48.6101 1.38794C51.5721 3.44712 52.5533 6.31252 51.6081 10.1459L51.5618 10.3333L74.5205 23.5511L74.9145 23.2096C75.1103 23.0376 75.3086 22.8681 75.5043 22.6987C76.9106 21.4893 78.6749 20.8244 80.4726 20.8244C81.6496 20.8244 82.7881 21.0991 83.8569 21.6383C86.5639 23.0068 88.1736 25.8901 87.9547 28.9866C87.746 31.9213 85.598 34.5813 82.7262 35.4543C81.8995 35.7059 81.6059 36.0936 81.611 36.9358C81.6368 44.2482 81.6393 51.9714 81.6162 61.2428C81.6136 61.9258 81.7784 62.37 82.6155 62.6165C85.58 63.4818 87.7254 66.0853 87.9547 69.0944C88.1942 72.2602 86.5278 75.1796 83.7127 76.5301C82.6747 77.0282 81.5801 77.2798 80.4546 77.2798C78.5796 77.2798 76.7561 76.5532 75.3214 75.2335C75.0665 74.9998 74.8063 74.7585 74.4329 74.7585C74.2397 74.7585 74.0362 74.8227 73.807 74.9562C68.3416 78.1245 62.7758 81.3288 57.3903 84.4279L51.9713 87.5475C51.8914 87.5937 51.8296 87.6527 51.7678 87.7144C51.742 87.74 51.7111 87.7709 51.6777 87.8017L51.5592 87.9095L51.603 88.0636C52.0923 89.735 52.1129 91.2242 51.6674 92.6158C50.8148 95.2784 48.9965 97.0166 46.2612 97.7818C46.0912 97.828 45.9238 97.8845 45.7564 97.9384L45.571 97.9974H43.3457V98ZM44.4532 85.3522C41.6612 85.3573 39.3638 87.6322 39.3303 90.4257C39.3149 91.8173 39.8377 93.1242 40.8061 94.105C41.7617 95.0781 43.0443 95.6173 44.4145 95.6276H44.4532C47.276 95.6276 49.5786 93.3322 49.5889 90.513C49.594 89.1291 49.0583 87.8299 48.0821 86.8517C47.1137 85.8837 45.8285 85.3496 44.4609 85.3496H44.4532V85.3522ZM20.0444 62.0337C20.4256 62.0337 20.7089 62.2211 20.933 62.6242C21.1957 63.0966 21.3296 63.7334 20.0058 64.4959C19.6632 64.6936 19.3232 64.8913 18.9833 65.0891C18.1488 65.5769 17.286 66.0801 16.4206 66.5474C15.8127 66.8761 15.6324 67.2561 15.7252 68.0058C15.8797 69.2459 15.8874 70.4065 15.7483 71.4515C15.6402 72.2731 15.8256 72.6787 16.4901 73.0562C20.3329 75.2437 24.2297 77.4878 27.9978 79.6548L38.5937 85.7476L38.7328 85.5987C39.83 84.4356 41.0792 83.6525 42.5524 83.2109C42.9361 83.0953 43.2323 82.4971 43.2426 82.1479C43.2787 81.067 43.2761 79.968 43.2735 78.9051C43.2735 78.4455 43.271 77.9885 43.2735 77.5289C43.2761 76.7894 43.5311 76.3837 44.1029 76.2091C44.2394 76.1681 44.3733 76.1475 44.5021 76.1475C45.1537 76.1475 45.607 76.6662 45.6276 77.4364C45.6508 78.2247 45.6482 79.0309 45.6482 79.8089C45.6482 80.574 45.6457 81.3648 45.6663 82.1428C45.6766 82.4945 45.9006 82.9875 46.22 83.1646C47.2477 83.7346 48.3036 84.2738 49.4189 84.8438C49.8052 85.0415 50.2019 85.2444 50.6088 85.4523L50.735 85.5165L53.5269 83.9092C59.7959 80.3018 66.2786 76.5712 72.733 72.8225C73.109 72.6043 73.158 71.8931 73.1631 71.68C73.176 71.1793 73.1708 70.6735 73.1657 70.1831C73.158 69.4308 73.1477 68.6528 73.2095 67.9005C73.2584 67.3023 73.1734 66.9146 72.5836 66.5936C71.4478 65.9697 70.2424 65.279 68.6662 64.3496C68.1021 64.0158 67.5252 63.4458 67.9811 62.6242C68.2026 62.2262 68.5168 62.0234 68.916 62.0234C69.1993 62.0234 69.5213 62.1235 69.869 62.3187C70.348 62.5882 70.8219 62.863 71.2958 63.1377C72.1406 63.6255 73.0137 64.1313 73.892 64.5961C74.0053 64.6551 74.1444 64.6859 74.3067 64.6859C74.5617 64.6859 74.8604 64.6089 75.0871 64.4882C75.5713 64.2263 76.0478 63.9413 76.5114 63.6666C77.1475 63.2892 77.8043 62.8989 78.4714 62.5703C78.935 62.3418 79.2647 62.1287 79.2621 61.4714C79.2544 57.5404 79.2544 53.6095 79.2518 49.6786C79.2492 45.3163 79.2466 40.9514 79.2389 36.5892C79.2389 36.3504 79.0947 35.7419 78.7367 35.652C77.2428 35.272 75.9293 34.4786 74.7188 33.2282L74.5797 33.0844C74.5797 33.0844 73.4748 33.7186 73.0189 33.9831C71.9268 34.6121 70.894 35.2078 69.8355 35.8009C69.5032 35.9883 69.1942 36.0833 68.9212 36.0833C68.5374 36.0833 68.2283 35.8959 67.9991 35.5236C67.8265 35.2438 67.7724 34.9639 67.8394 34.6969C67.927 34.3451 68.2206 34.0139 68.6919 33.7366C69.9514 32.9971 71.1877 32.2757 72.442 31.5927C73.0987 31.2358 73.2919 30.8353 73.1811 30.0624C73.024 28.9712 73.0189 27.7824 73.1657 26.6193C73.2558 25.9184 73.1708 25.487 72.4651 25.0865C69.48 23.3945 66.4563 21.6511 63.533 19.9642L50.6886 12.5671L50.5624 12.6364C50.1246 12.8726 49.7099 13.1088 49.303 13.3374C48.3577 13.8688 47.464 14.3721 46.542 14.7829C45.8568 15.0884 45.6199 15.4376 45.6379 16.1206C45.6714 17.5713 45.656 19.0502 45.6431 20.4803L45.6405 20.6266C45.6328 21.4226 45.3083 21.8385 44.618 21.9361C44.5459 21.9464 44.4738 21.9515 44.4042 21.9515C43.7217 21.9515 43.3045 21.456 43.2864 20.6292C43.271 19.8975 43.271 19.1503 43.2735 18.4288C43.2735 17.6072 43.2761 16.7573 43.2529 15.9203C43.2426 15.5532 42.9696 15.0987 42.6606 14.9267C41.6458 14.3644 40.6001 13.8278 39.5853 13.3065C39.302 13.1602 39.0161 13.0138 38.7328 12.8675C38.7483 12.7776 38.7405 12.698 38.689 12.6236L38.6118 12.5132L38.4649 12.508H38.3954L38.3207 12.5465L36.1701 13.7815C29.6281 17.5353 22.8647 21.4175 16.23 25.2637C15.8874 25.4614 15.7535 26.0442 15.7483 26.3883C15.738 26.8607 15.7561 27.3382 15.7715 27.7978C15.7973 28.5476 15.8256 29.323 15.738 30.0624C15.6453 30.8481 15.8308 31.2332 16.4772 31.585L16.6704 31.6903C17.9324 32.3784 19.2383 33.0896 20.4411 33.9035C20.7553 34.1166 21.0437 34.7148 21.018 35.0897C20.9948 35.385 20.5724 35.8677 20.2247 35.9986C20.1655 36.0217 20.0882 36.032 20.0006 36.032C19.6787 36.032 19.2795 35.8805 19.0116 35.7367C17.8964 35.1411 16.7863 34.4966 15.8076 33.9292C15.4522 33.7238 15.1096 33.5235 14.7851 33.3386L14.6589 33.2667L14.5301 33.3386C14.1 33.5825 13.693 33.8265 13.3016 34.0627C12.4439 34.5813 11.6326 35.0717 10.7826 35.3978C9.82195 35.765 9.64938 36.2502 9.65711 37.0693C9.68029 40.0656 9.67771 43.1133 9.67256 46.0609C9.67256 47.0982 9.66999 48.1355 9.66999 49.1728C9.66999 50.1895 9.66999 51.2037 9.67256 52.2205C9.67514 55.1244 9.67771 58.131 9.65453 61.0837C9.64681 61.9643 9.91209 62.352 10.7389 62.6807C11.4137 62.9477 12.0266 63.3457 12.6731 63.7693C13.0466 64.0132 13.4329 64.2649 13.8295 64.4857C14.0562 64.6115 14.3575 64.6911 14.6177 64.6911C14.7774 64.6911 14.9164 64.6603 15.0272 64.6038C15.9467 64.1211 16.8558 63.5922 17.7367 63.0787C18.0895 62.8732 18.445 62.6653 18.8004 62.4624C19.2898 62.1774 19.7096 62.0337 20.0444 62.0337ZM8.44916 64.6449C5.62633 64.6449 3.32376 66.9428 3.31861 69.7646C3.31604 71.1433 3.84661 72.4348 4.81245 73.3977C5.77829 74.3631 7.0738 74.8946 8.45689 74.8946C9.85285 74.892 11.1561 74.3451 12.1348 73.3566C13.1032 72.3783 13.6286 71.092 13.6158 69.7363C13.5849 66.9531 11.2874 64.668 8.49552 64.6449H8.44916ZM80.4443 64.6449C77.6189 64.6449 75.3112 66.9428 75.3008 69.7671C75.2957 71.1202 75.8288 72.3989 76.7973 73.372C77.7786 74.3554 79.0818 74.8946 80.4649 74.8946C81.8557 74.892 83.1461 74.3605 84.1068 73.3951C85.0726 72.4246 85.6032 71.1254 85.5954 69.7363C85.5826 66.9557 83.2929 64.6731 80.4906 64.6449H80.4443ZM80.4288 23.2096C77.6343 23.2173 75.3343 25.4922 75.2983 28.278C75.2828 29.6336 75.8082 30.9226 76.7767 31.9059C77.7554 32.897 79.0535 33.4465 80.434 33.4516C81.8299 33.4516 83.1203 32.9175 84.0913 31.9496C85.0623 30.979 85.5954 29.6901 85.5954 28.3191C85.5903 25.4537 83.3289 23.2096 80.4443 23.2096H80.4288ZM8.41826 23.2122C7.03517 23.2199 5.74996 23.7565 4.79442 24.7219C3.83373 25.695 3.31088 26.9968 3.32119 28.3884C3.34437 31.1716 5.64436 33.4413 8.44916 33.4516C9.83482 33.4516 11.1303 32.9124 12.1091 31.9316C13.0852 30.9534 13.6209 29.667 13.6158 28.3088C13.6055 25.4973 11.2874 23.2122 8.44916 23.2122H8.41826ZM44.4171 2.48429C41.6278 2.50226 39.3458 4.78996 39.3278 7.58089C39.32 8.96737 39.8532 10.2717 40.8267 11.2499C41.7926 12.2205 43.0778 12.7571 44.4454 12.7597C45.8234 12.7597 47.106 12.2256 48.0744 11.2602C49.0506 10.282 49.5889 8.98278 49.5837 7.60143C49.576 4.77969 47.2708 2.48429 44.448 2.48429H44.4171Z" fill="#488EC8"/>
<path d="M33.1257 58.9988C33.0922 58.9988 33.0587 58.9988 33.0227 58.9962C32.3298 58.95 31.9383 58.4673 31.9486 57.6714C31.995 54.1024 33.3704 51.0471 36.0387 48.5925C36.4791 48.1868 36.9736 47.8222 37.4527 47.4704C37.6742 47.3061 37.8957 47.1444 38.1094 46.98L38.2897 46.8414L38.1738 46.6463C38.027 46.3998 37.8802 46.1507 37.7334 45.9017C37.2852 45.1391 36.8216 44.3509 36.3323 43.5883C36.1777 43.3469 35.8275 43.2699 35.5055 43.2263L35.2222 43.1878C33.919 43.0157 32.5694 42.836 31.2352 42.7128C31.1657 42.7076 31.0961 42.7025 31.024 42.7025C30.6351 42.7025 30.2307 42.7949 29.9165 42.9592C26.5271 44.7155 24.616 47.5449 24.2374 51.3731C24.2271 51.4758 24.2219 51.5785 24.2168 51.6812C24.2116 51.7711 24.2065 51.861 24.1987 51.9508C24.124 52.7468 23.6913 53.2218 23.0397 53.2218C23.0114 53.2218 22.9831 53.2218 22.9547 53.2192C22.5941 53.1987 22.2851 53.0472 22.0816 52.7956C21.8781 52.5465 21.8009 52.2204 21.8575 51.8507C22.1177 50.1304 22.3778 48.5925 22.8981 47.1572C23.6759 45.0133 25.2006 43.1621 27.4259 41.6524C27.5006 41.601 27.5779 41.5522 27.6552 41.5009C27.7685 41.429 27.8792 41.3545 27.99 41.2775C28.0672 41.2236 28.1085 41.1543 28.1445 41.0926C28.1574 41.0721 28.1703 41.049 28.1857 41.0233L28.2991 40.8564L28.1625 40.7075C26.831 39.2517 26.0531 37.7009 25.7827 35.9627C25.1208 31.7133 27.7041 27.5565 31.7864 26.2958C32.6286 26.0365 33.4991 25.903 34.3748 25.903C37.6948 25.903 40.7545 27.8184 42.1711 30.7839C42.5471 31.5696 43.0494 31.6466 43.6315 31.7365C43.7036 31.7467 43.7783 31.7596 43.8581 31.7724C44.0951 31.8135 44.3243 31.834 44.5329 31.834C46.0396 31.834 46.7067 30.8044 47.4124 29.7132C48.9578 27.3254 51.6106 25.9004 54.5107 25.9004C56.4398 25.9004 58.2762 26.5192 59.8215 27.69C61.7403 29.1458 62.9431 31.2589 63.2084 33.6416C63.4737 36.0243 62.7603 38.3505 61.2072 40.1914C61.1145 40.2993 61.0218 40.4071 60.911 40.5329L60.5195 40.9822L61.0218 41.3263C61.2021 41.447 61.372 41.5651 61.5395 41.6832C64.9495 44.0787 66.8142 47.414 67.0821 51.5939C67.1439 52.5593 66.7498 53.1525 66.0029 53.2192C65.9566 53.2243 65.9128 53.2243 65.869 53.2243C65.0062 53.2243 64.7641 52.4027 64.7126 51.712C64.4189 47.7118 62.5104 44.7796 59.036 42.9926C58.7836 42.8617 58.4694 42.8026 58.0521 42.8026C57.8229 42.8026 57.5911 42.8206 57.385 42.836C56.839 42.8797 56.3007 42.9438 55.7805 43.008C55.0876 43.0928 54.3716 43.1775 53.6711 43.2083C53.1302 43.2314 52.6898 43.3033 52.3524 43.9811C52.0407 44.6025 51.6595 45.1905 51.2526 45.8169C51.0749 46.0891 50.8946 46.369 50.7143 46.6591L50.5855 46.8645L50.9667 47.129C51.1315 47.2419 51.3273 47.378 51.5205 47.5192C54.9073 49.9584 56.736 53.2397 56.9601 57.2759C56.9961 57.9461 56.8854 58.4236 56.6304 58.6984C56.4501 58.8935 56.19 58.9936 55.8371 59.0013H55.7933C55.2525 59.0013 54.6858 58.8011 54.5802 57.317C54.3047 53.4554 52.409 50.5849 48.9475 48.7902C48.659 48.6413 48.2855 48.5591 47.894 48.5591C47.6622 48.5591 47.4382 48.5899 47.2424 48.6438C46.3126 48.9108 45.3777 49.0444 44.4634 49.0444C43.5156 49.0444 42.5523 48.898 41.5993 48.613C41.401 48.554 41.1795 48.5231 40.9554 48.5231C40.7442 48.5231 40.4352 48.5514 40.1596 48.6875C36.6182 50.4411 34.6607 53.3039 34.3414 57.1912C34.3336 57.2811 34.3311 57.3709 34.3259 57.4634C34.3182 57.6277 34.3104 57.7843 34.2847 57.9307C34.1585 58.6085 33.7361 58.9988 33.1257 58.9988ZM44.4453 34.0524C42.7635 34.0524 41.1744 34.72 39.969 35.9344C38.761 37.1514 38.1043 38.7484 38.1197 40.4302C38.1532 43.9349 40.9374 46.6822 44.4556 46.6822C47.9662 46.6694 50.7967 43.8451 50.7941 40.384C50.7916 36.9152 47.961 34.0755 44.484 34.0524H44.4453ZM34.3671 28.2805C33.7309 28.2805 33.0974 28.3781 32.4895 28.5681C29.1644 29.6105 27.292 33.1383 28.3119 36.4351C29.1104 39.0129 31.552 40.8821 34.1224 40.8847C34.6066 40.8847 35.0831 40.8153 35.5364 40.6793L35.7141 40.6253L35.7193 40.4405C35.8223 37.1437 37.3239 34.5736 40.1776 32.7969L40.345 32.689L40.2832 32.499C39.4616 29.9751 37.0843 28.2805 34.3671 28.2805ZM54.5931 28.2908C51.7806 28.2908 49.2823 30.0752 48.6538 32.535L48.6075 32.7198L48.7697 32.8174C51.5977 34.5402 53.0941 37.1386 53.2126 40.5355L53.2203 40.7537L53.4367 40.782C53.7844 40.8282 54.1347 40.8513 54.4772 40.8513C57.7662 40.8513 60.2542 38.7562 60.8131 35.5133C61.354 32.3783 59.1442 29.1406 55.9891 28.4448C55.5332 28.3421 55.0619 28.2908 54.5931 28.2908Z" fill="#488EC8"/>
<path d="M44.2882 72.2345C40.4558 72.2345 36.6259 72.2345 32.796 72.2319C32.1057 72.2319 31.5443 71.9829 31.2918 71.5669C31.1038 71.2588 31.109 70.884 31.3047 70.5091C31.5494 70.0418 31.9357 69.8569 32.6852 69.8569C34.6504 69.8646 36.6001 69.8646 38.5498 69.8646L51.0233 69.8621C52.7232 69.8621 54.4257 69.8621 56.1256 69.8646C56.7514 69.8646 57.1996 69.9956 57.4571 70.2549C57.6452 70.4423 57.7353 70.6991 57.7353 71.038C57.7327 71.8288 57.1919 72.2294 56.1256 72.2319C52.1772 72.2319 48.2314 72.2345 44.2882 72.2345Z" fill="#488EC8"/>
<path d="M55.7085 66.5679C55.4844 66.5679 55.2603 66.5653 55.0337 66.5627C54.8199 66.5602 54.6087 66.5576 54.3949 66.5576H54.3589C54.1477 66.5576 53.9365 66.5602 53.7253 66.5627C53.5167 66.5653 53.308 66.5679 53.0968 66.5679C52.7852 66.5679 52.5276 66.5627 52.2907 66.5499C51.5695 66.5114 51.1059 66.0826 51.0802 65.4356C51.0673 65.1146 51.1729 64.8194 51.3738 64.6037C51.5901 64.37 51.9018 64.2417 52.2752 64.2288C52.9809 64.2031 53.6918 64.1929 54.3846 64.1929C55.1212 64.1929 55.8604 64.2057 56.5816 64.234C57.2924 64.2622 57.72 64.691 57.7226 65.3868C57.7251 66.1006 57.2899 66.5139 56.4966 66.555C56.2648 66.5627 56.015 66.5679 55.7085 66.5679Z" fill="#488EC8"/>
<path d="M37.3652 66.5501C37.033 66.5501 36.7316 66.432 36.5204 66.2137C36.3067 65.9981 36.1933 65.6951 36.2011 65.3639C36.2139 64.7014 36.6878 64.2367 37.3549 64.229C37.6897 64.229 38.0065 64.3625 38.2332 64.5962C38.4547 64.8221 38.5732 65.1122 38.5654 65.4126C38.55 66.0314 38.0194 66.5398 37.3832 66.5475L37.3652 66.5501Z" fill="#488EC8"/>
<path d="M42.3154 66.5475C41.6535 66.5167 41.1976 66.034 41.2079 65.369C41.2182 64.7091 41.7076 64.229 42.3695 64.229C42.3927 64.229 42.4133 64.229 42.4365 64.2316C43.0649 64.2624 43.5852 64.8016 43.5723 65.4101C43.5594 66.0391 43.0211 66.5501 42.3695 66.5501L42.3154 66.5475Z" fill="#488EC8"/>
<path d="M32.3556 66.5501C32.0259 66.5501 31.7246 66.432 31.5134 66.2163C31.2996 66.0006 31.1863 65.7002 31.1915 65.369C31.2018 64.7066 31.6731 64.2393 32.3402 64.229C32.6801 64.229 32.9944 64.3625 33.2236 64.5936C33.4451 64.817 33.5636 65.1071 33.5558 65.4075C33.5455 66.0263 33.0175 66.5398 32.3788 66.5501H32.3556Z" fill="#488EC8"/>
</svg>
