<svg width="97" height="98" viewBox="0 0 97 98" fill="none" xmlns="http://www.w3.org/2000/svg">
<path d="M96.995 48.926C96.9874 48.9564 96.9747 48.9867 96.9747 49.0196C96.8862 51.9603 95.044 53.3206 92.4782 54.1171C91.1574 54.5268 89.8821 55.0906 88.622 55.6697C88.2576 55.8366 87.9134 56.2462 87.749 56.6254C86.6735 59.1059 85.6386 61.6017 84.6315 64.11C84.4898 64.464 84.4418 64.9646 84.5784 65.306C85.2869 67.0911 86.0511 68.8561 86.8304 70.6109C87.6351 72.4213 87.4251 74.075 86.0612 75.5011C84.4494 77.1876 82.8046 78.8438 81.1093 80.4444C79.7656 81.7137 78.1639 81.9337 76.4584 81.2106C74.6593 80.4469 72.878 79.6428 71.0637 78.9222C70.6917 78.7756 70.1553 78.8008 69.7757 78.9526C67.2631 79.9539 64.7681 80.9956 62.2858 82.0702C61.9088 82.2346 61.4963 82.5785 61.3369 82.9451C60.5702 84.705 59.882 86.5003 59.1709 88.2854C58.4422 90.1186 57.1036 91.1174 55.1249 91.1452C52.8551 91.1781 50.5854 91.1806 48.3182 91.1427C46.3774 91.1098 45.0565 90.1211 44.3328 88.3335C43.6243 86.5812 42.9108 84.8314 42.2402 83.0665C42.0201 82.4875 41.7013 82.1866 41.0839 81.9893C39.5251 81.4937 37.9867 80.9223 36.476 80.2927C34.7073 79.5544 34.0114 77.7616 34.7427 75.979C35.1602 74.96 35.6182 73.9536 36.0737 72.9523C36.9492 71.0306 38.6471 70.3378 40.6031 71.1773C44.4594 72.8335 48.47 73.6274 52.6679 73.5212C66.1041 73.1773 77.5971 62.5979 79.0369 49.232C80.6412 34.3236 70.6639 21.2864 55.8081 18.8793C41.2129 16.5151 26.8556 26.9934 24.6212 41.5882C23.809 46.9032 24.4163 52.0108 26.5165 56.9516C27.4856 59.2299 26.8353 60.8178 24.5478 61.8393C23.685 62.2262 22.8221 62.613 21.9517 62.9822C20.0008 63.8091 18.2498 63.1491 17.4451 61.2097C16.8201 59.7002 16.3368 58.1299 15.7219 56.6153C15.5675 56.2361 15.2158 55.8188 14.8515 55.6595C13.0903 54.8934 11.2938 54.2082 9.50732 53.5002C7.67533 52.7719 6.66826 51.4419 6.64042 49.4621C6.60753 47.1636 6.59991 44.8626 6.64799 42.5642C6.68595 40.7032 7.6551 39.4187 9.35804 38.7107C11.1622 37.9622 12.979 37.2391 14.8009 36.5387C15.3145 36.3414 15.5625 36.0456 15.7675 35.5196C16.7442 33.0341 17.7715 30.5662 18.8495 28.1211C19.0772 27.6028 19.1101 27.221 18.8874 26.7203C18.108 24.9655 17.3717 23.1904 16.6075 21.4255C15.8535 19.6833 16.061 18.0701 17.3692 16.6997C19.0215 14.9676 20.7118 13.2659 22.4603 11.6299C23.7508 10.4213 25.3095 10.2165 26.9492 10.9017C28.7812 11.6653 30.6106 12.4365 32.4198 13.2532C32.9386 13.4884 33.3105 13.4024 33.8141 13.185C36.2635 12.1179 38.7534 11.1419 41.2053 10.0824C41.5849 9.91809 41.9922 9.56409 42.1517 9.19492C42.9158 7.43252 43.6016 5.63725 44.3101 3.8521C45.0236 2.06188 46.3217 1.04288 48.2676 1.00748C50.598 0.964494 52.9336 0.961968 55.264 1.01001C57.1719 1.05047 58.4422 2.06442 59.1482 3.81165C59.8794 5.62209 60.5804 7.44516 61.3572 9.2379C61.504 9.57926 61.886 9.90797 62.2378 10.0597C64.7504 11.1419 67.2757 12.1938 69.8162 13.2103C70.1705 13.3519 70.6689 13.3822 71.0156 13.2431C72.7995 12.5326 74.5632 11.7639 76.3218 10.9877C78.1361 10.1861 79.791 10.4162 81.2155 11.7791C82.8983 13.3923 84.5582 15.0359 86.1574 16.7325C87.4276 18.0802 87.63 19.6783 86.9013 21.3851C86.1346 23.1803 85.3324 24.963 84.6138 26.7785C84.4671 27.1451 84.5101 27.6786 84.6594 28.0579C85.6589 30.5687 86.6938 33.067 87.7667 35.5475C87.9286 35.9242 88.2904 36.3212 88.6574 36.483C90.2717 37.1935 91.9064 37.8636 93.5637 38.4654C95.5779 39.1962 96.7875 40.4908 96.8634 42.7033C96.8684 42.8828 96.9519 43.0623 97 43.2418C96.995 45.1408 96.995 47.0321 96.995 48.926ZM37.6425 77.4076C39.4922 78.0246 41.2331 78.6592 43.0069 79.1751C43.9128 79.438 44.4669 79.9033 44.801 80.7883C45.5778 82.8516 46.4381 84.882 47.2352 86.9352C47.4958 87.6052 47.8931 87.9466 48.6421 87.939C50.6891 87.9137 52.7387 87.9137 54.7883 87.9416C55.5753 87.9517 55.9877 87.6002 56.261 86.8922C57.0631 84.8061 57.9285 82.7428 58.7307 80.6543C59.0292 79.8755 59.5353 79.4203 60.34 79.2206C63.4194 78.4519 66.3243 77.2483 69.0394 75.6123C69.8238 75.1395 70.545 75.1344 71.3648 75.5011C73.3208 76.376 75.3097 77.1775 77.2606 78.06C78.0425 78.414 78.6649 78.419 79.3 77.7641C80.6158 76.4063 81.9569 75.0687 83.3259 73.764C84.0496 73.0737 84.1381 72.4061 83.713 71.4959C82.8072 69.5565 82.0177 67.5639 81.1472 65.6069C80.7955 64.8154 80.8385 64.1175 81.2889 63.3716C82.9235 60.656 84.1331 57.7557 84.9023 54.6785C85.1022 53.8794 85.545 53.3662 86.332 53.0653C88.4499 52.2561 90.545 51.3838 92.6604 50.5595C93.293 50.3142 93.6295 49.9374 93.627 49.2269C93.6118 47.1813 93.6093 45.1332 93.6473 43.0876C93.6625 42.2152 93.2525 41.8006 92.4732 41.5047C90.4388 40.7386 88.4423 39.8738 86.4104 39.1077C85.588 38.7966 85.1148 38.2859 84.9048 37.4489C84.1407 34.3692 82.921 31.474 81.2889 28.7558C80.8385 28.0048 80.8157 27.312 81.1675 26.5205C82.0885 24.4497 82.9539 22.351 83.8674 20.2776C84.128 19.6834 84.0926 19.1953 83.627 18.7326C82.1543 17.2635 80.6816 15.7944 79.2216 14.3102C78.6852 13.764 78.1513 13.6983 77.4402 14.0194C75.4311 14.9271 73.379 15.7388 71.3648 16.6415C70.5399 17.0107 69.8263 17.0031 69.0419 16.5328C66.3243 14.8993 63.4245 13.6856 60.3425 12.9245C59.5404 12.7273 59.0318 12.2696 58.7332 11.4909C57.9412 9.43261 57.0834 7.40218 56.299 5.34142C56.0206 4.60814 55.6385 4.19093 54.7934 4.20357C52.8096 4.23391 50.8232 4.23644 48.8369 4.19093C47.8779 4.16817 47.4502 4.61825 47.1339 5.47038C46.4052 7.45023 45.5474 9.38203 44.806 11.3568C44.472 12.2444 43.9179 12.7324 43.0069 12.9625C39.9933 13.721 37.144 14.8993 34.4846 16.51C33.6724 17.0031 32.936 17.0132 32.0782 16.6238C30.0691 15.7135 28.0195 14.8968 26.0028 13.9992C25.3323 13.7008 24.8135 13.7564 24.2999 14.2773C22.8601 15.7363 21.4077 17.1801 19.9502 18.6214C19.439 19.1271 19.3378 19.6378 19.644 20.3205C20.56 22.3611 21.4001 24.4345 22.3085 26.4776C22.6728 27.2993 22.645 28.0225 22.1744 28.8013C20.5524 31.4866 19.3581 34.3616 18.5914 37.4059C18.3788 38.2454 17.936 38.7789 17.1187 39.0925C15.0589 39.8814 13.0271 40.7411 10.9674 41.5275C10.2285 41.8082 9.82867 42.2051 9.84385 43.0421C9.87675 45.0877 9.87169 47.1358 9.84638 49.1814C9.83626 49.9374 10.2057 50.3193 10.8687 50.5746C12.6602 51.2675 14.4137 52.0791 16.233 52.6809C17.7057 53.1664 18.4952 54.0008 18.8368 55.5458C19.186 57.1135 19.8768 58.6028 20.4335 60.1654C21.648 59.6142 22.6703 59.1464 23.6951 58.6812C16.8454 42.903 24.0291 27.0869 35.3551 19.964C47.0049 12.6363 62.339 13.9081 72.5617 23.2157C82.8248 32.5587 85.6133 47.5657 79.3254 59.9075C76.1725 66.0949 71.4635 70.7676 65.1705 73.7362C56.5849 77.7844 47.888 77.7616 39.143 74.0977C38.6547 75.1699 38.2017 76.1737 37.6425 77.4076Z" fill="#FF7C5A"/>
<path d="M1.15457 97.7573C-0.287741 96.7636 -0.373775 95.8659 0.868638 94.6244C8.65459 86.839 16.4456 79.0536 24.2417 71.2783C24.5023 71.0204 24.8591 70.8586 25.1729 70.6538C25.0995 70.5375 25.0261 70.4212 24.9527 70.3049C24.2442 70.3049 23.5357 70.32 22.8272 70.3023C21.729 70.272 21.0205 69.6019 21.0433 68.6436C21.0661 67.7131 21.7442 67.0961 22.8146 67.0885C24.8667 67.0733 26.9188 67.0708 28.9684 67.0885C30.1122 67.0986 30.6992 67.703 30.7093 68.8636C30.727 70.9142 30.727 72.9649 30.7093 75.013C30.6992 76.0649 30.0464 76.7476 29.1126 76.7501C28.1891 76.7527 27.5286 76.0649 27.4932 75.0231C27.4704 74.3075 27.4881 73.5894 27.4881 72.6564C27.0833 73.0331 26.8126 73.2683 26.562 73.5212C18.8393 81.2358 11.1192 88.9554 3.39141 96.665C2.99414 97.062 2.53362 97.3957 2.10093 97.7573C1.78716 97.7573 1.47087 97.7573 1.15457 97.7573Z" fill="#FF7C5A"/>
<path d="M46.8708 54.0212C46.843 54.9441 46.4457 55.4902 45.6993 55.69C44.8617 55.9125 44.176 55.5914 43.8192 54.8101C43.3485 53.7809 42.931 52.724 42.554 51.657C42.3516 51.088 42.0403 50.8984 41.4432 50.911C39.6795 50.9464 37.9108 50.9515 36.1471 50.9085C35.5297 50.8933 35.2539 51.131 35.059 51.6822C34.7124 52.6608 34.3176 53.6216 33.9102 54.5774C33.4775 55.5964 32.5945 56.001 31.7164 55.6217C30.8687 55.2525 30.5195 54.3827 30.9092 53.4042C33.0145 48.1144 35.1349 42.8323 37.2529 37.5476C37.5363 36.8422 38.017 36.4022 38.8192 36.4073C39.6188 36.4123 40.0919 36.8548 40.3753 37.5628C42.4781 42.8197 44.5834 48.0765 46.6836 53.3359C46.7848 53.5938 46.8303 53.8745 46.8708 54.0212ZM38.8065 42.357C38.0575 44.2382 37.3946 45.8944 36.7114 47.6113C38.1891 47.6113 39.4922 47.6113 40.9118 47.6113C40.2134 45.8641 39.553 44.218 38.8065 42.357Z" fill="#FF7C5A"/>
<path d="M53.3688 49.3002C53.3688 50.7516 53.3789 52.0993 53.3637 53.4445C53.3587 53.8516 53.3587 54.2789 53.2372 54.6582C53.0019 55.4016 52.4351 55.7834 51.6507 55.7379C50.8713 55.6924 50.3551 55.2651 50.1957 54.4913C50.1249 54.155 50.1325 53.801 50.1325 53.4572C50.1299 48.5391 50.1274 43.6211 50.1299 38.7031C50.1299 36.842 50.5677 36.3768 52.3972 36.4071C53.7787 36.4299 55.2008 36.3439 56.5343 36.6296C59.7479 37.3225 61.7241 40.3036 61.3825 43.6438C61.0662 46.7312 58.341 49.2016 55.1426 49.2951C54.5834 49.3128 54.0242 49.3002 53.3688 49.3002ZM53.4245 39.6867C53.4245 41.846 53.4245 43.9144 53.4245 46.0207C55.1046 46.1977 56.6608 46.1547 57.6704 44.592C58.4017 43.4593 58.4043 42.2557 57.6831 41.1128C56.6811 39.5198 55.1122 39.5198 53.4245 39.6867Z" fill="#FF7C5A"/>
<path d="M69.5632 39.6261C69.5632 43.9853 69.5632 48.2029 69.5632 52.5318C70.0895 52.5318 70.5855 52.5116 71.0789 52.5368C72.0505 52.5874 72.7312 53.2524 72.7464 54.1273C72.7591 55.0477 72.0632 55.738 71.0308 55.7481C68.9483 55.7683 66.8658 55.7683 64.7833 55.7481C63.7256 55.738 63.0703 55.0831 63.0778 54.1323C63.0854 53.1968 63.756 52.5722 64.8187 52.5343C65.2818 52.5166 65.7474 52.5318 66.2535 52.5318C66.2535 48.213 66.2535 44.0004 66.2535 39.6286C65.7626 39.6286 65.2717 39.6488 64.7858 39.6235C63.7332 39.5679 63.0728 38.9206 63.0804 37.985C63.088 37.0292 63.7282 36.4199 64.8187 36.4097C66.8709 36.3895 68.9205 36.392 70.9726 36.4097C72.0455 36.4199 72.7262 37.0419 72.7464 37.9673C72.7667 38.913 72.0505 39.5831 70.9498 39.6286C70.5121 39.6412 70.0769 39.6261 69.5632 39.6261Z" fill="#FF7C5A"/>
</svg>
