<svg width="105" height="109" viewBox="0 0 105 109" fill="none" xmlns="http://www.w3.org/2000/svg">
<path d="M52.5377 0C59.7833 4.68093 67.0261 9.36471 74.2745 14.04C81.079 18.4308 87.8806 22.8245 94.7079 27.1784C95.6897 27.804 96.0852 28.5434 96.0824 29.7037C96.0511 41.625 96.071 53.5463 96.0483 65.4648C96.0483 66.2298 96.2218 66.7957 96.8053 67.3218C97.7814 68.2006 98.6949 69.1476 99.6085 70.0946C101.08 71.616 101.128 73.4673 99.6853 75.0257C99.2812 75.4637 99.1531 75.8078 99.4833 76.314C99.6369 76.5472 99.7565 76.8174 99.8333 77.0875C100.132 78.1739 100.55 78.8678 101.959 78.8507C103.362 78.8336 104.574 80.2982 104.62 81.7343C104.688 83.9326 104.694 86.1337 104.623 88.332C104.569 89.9956 103.194 91.2981 101.473 91.3351C100.65 91.3522 100.212 91.6109 100.084 92.4072C100.067 92.5096 100.007 92.6063 99.9585 92.7001C99.395 93.7609 99.0933 94.6538 100.161 95.7658C101.174 96.8208 100.949 98.5584 99.9101 99.6703C98.4559 101.226 96.9475 102.739 95.3852 104.186C94.0818 105.395 92.1409 105.352 90.8375 104.118C90.311 103.62 89.8926 103.47 89.2836 103.879C89.0531 104.036 88.7771 104.166 88.5067 104.218C87.3826 104.434 86.9329 105.02 86.8732 106.225C86.7935 107.807 85.2994 108.953 83.6004 108.981C81.7165 109.012 79.8296 108.998 77.9456 108.987C75.7116 108.975 74.3656 107.664 74.283 105.449C74.2745 105.239 74.2545 105.028 74.2403 104.835C73.3296 104.445 72.4645 104.03 71.5624 103.717C71.3176 103.632 70.8936 103.76 70.6773 103.942C68.8246 105.483 67.1114 105.435 65.3954 103.743C64.257 102.619 63.0845 101.53 62.0116 100.347C61.3656 99.6334 60.8847 98.7745 60.3297 97.9811C60.3923 97.8901 60.4549 97.7991 60.5175 97.7081C60.102 97.7081 59.6866 97.7081 59.2739 97.7081C40.42 97.7081 21.5661 97.7081 2.71216 97.7081C2.39342 97.7081 2.07181 97.7166 1.75307 97.7052C0.6631 97.6626 0.00288254 97.0597 3.66631e-05 96.1184C-0.00565508 95.1714 0.6517 94.5429 1.73598 94.523C3.07638 94.5003 4.4197 94.5173 5.85972 94.5173C5.85972 93.9798 5.85972 93.5647 5.85972 93.1466C5.85972 85.6958 5.85681 78.2449 5.86534 70.7941C5.86534 70.3363 5.86824 69.8614 5.98777 69.4263C6.20405 68.6414 6.79028 68.2688 7.59851 68.3286C8.40673 68.3911 8.90477 68.8546 9.02429 69.6594C9.08121 70.0434 9.0641 70.4387 9.0641 70.8283C9.06695 78.2421 9.06695 85.6588 9.06695 93.0727C9.06695 93.4936 9.06695 93.9173 9.06695 94.4263C11.5599 94.4263 13.9847 94.4263 16.5004 94.4263C16.5175 94.0509 16.5488 93.6727 16.5488 93.2973C16.5516 76.8003 16.5459 60.3033 16.563 43.8063C16.563 43.0811 16.3524 42.6232 15.8174 42.0914C15.2881 41.5653 14.8783 40.7235 14.8014 39.9785C14.6449 38.5054 14.7217 37.001 14.7615 35.5137C14.8071 33.8529 15.9882 32.6585 17.6416 32.5248C17.9945 32.4964 18.3531 32.4992 18.7088 32.4992C40.2293 32.4992 61.7526 32.4992 83.2731 32.4992C83.5919 32.4992 83.9135 32.4964 84.2322 32.5191C85.917 32.6386 87.1009 33.7733 87.1692 35.4454C87.2289 36.9327 87.32 38.4428 87.1293 39.9074C87.0211 40.7378 86.3695 41.4999 85.9711 42.2962C85.769 42.6972 85.4218 43.1095 85.4189 43.5162C85.3819 49.2636 85.3876 55.0109 85.4104 60.7583C85.4132 61.1394 85.5185 61.637 85.7718 61.8787C86.5715 62.6381 87.0183 63.5168 86.9841 64.606C86.9671 65.1605 87.172 65.4165 87.7013 65.5928C88.538 65.8687 89.3406 66.2497 90.0008 66.5199C90.9684 65.9341 91.8336 65.4137 92.8723 64.7852C92.8723 64.6316 92.8723 64.2477 92.8723 63.8637C92.8723 52.8667 92.8637 41.8668 92.8893 30.8697C92.8922 30.1133 92.6844 29.6668 92.027 29.2459C78.9645 20.8651 65.9133 12.4616 52.8792 4.03822C52.2161 3.6088 51.7608 3.60313 51.0863 4.01832C37.4204 12.4389 23.7432 20.8424 10.0488 29.2174C9.2776 29.6895 9.04139 30.1957 9.04423 31.0773C9.07838 41.2241 9.06695 51.3708 9.0641 61.5176C9.0641 61.9072 9.08122 62.3025 9.03284 62.6864C8.92754 63.5424 8.42099 64.0372 7.55869 64.0827C6.69639 64.1282 6.13571 63.6846 5.94219 62.8485C5.8625 62.5072 5.86534 62.1461 5.86534 61.7935C5.8625 51.149 5.87962 40.5074 5.84262 29.863C5.83693 28.5833 6.26093 27.7842 7.37367 27.1045C21.9787 18.1749 36.5581 9.20546 51.1432 0.247411C51.2599 0.176316 51.368 0.0853175 51.479 0.0028466C51.8262 2.77724e-06 52.1819 0 52.5377 0ZM19.8301 42.9474C19.8301 60.235 19.8301 77.3463 19.8301 94.432C22.2434 94.432 24.5713 94.432 26.9334 94.432C26.9334 93.9941 26.9334 93.6414 26.9334 93.286C26.9334 87.6097 26.9277 81.9334 26.9362 76.2571C26.9391 74.2864 27.9949 73.2541 29.9728 73.237C30.6473 73.2313 31.3246 73.237 31.999 73.237C34.1932 73.237 36.3845 73.237 38.664 73.237C38.664 72.7336 38.664 72.3497 38.664 71.9686C38.664 66.3293 38.6612 60.6872 38.6669 55.0479C38.6697 53.006 39.7028 51.9652 41.7461 51.9623C48.5762 51.9538 55.4063 51.9538 62.2336 51.9623C64.2712 51.9652 65.3185 53.0089 65.3242 55.0451C65.3356 58.415 65.3271 61.7849 65.3271 65.1548C65.3271 65.4933 65.3271 65.8288 65.3271 66.2412C67.8087 64.6316 68.4632 64.66 70.8367 66.3464C70.996 66.4602 71.2977 66.5114 71.4741 66.4431C72.399 66.0876 73.3069 65.6809 74.2147 65.297C74.5591 61.9413 75.4897 61.1138 78.9161 61.1138C79.9719 61.1138 81.0278 61.1138 82.1149 61.1138C82.1149 55.0109 82.1149 49.0361 82.1149 42.9503C81.6339 42.9503 81.2156 42.9503 80.7972 42.9503C72.6523 42.9503 64.5075 42.9503 56.3597 42.9503C54.6721 42.9503 53.8525 42.4043 53.881 41.3008C53.9094 40.2344 54.6636 39.7567 56.3312 39.7567C65.0823 39.7567 73.8305 39.7567 82.5816 39.7567C82.9999 39.7567 83.4183 39.7567 83.9021 39.7567C83.9021 38.3575 83.9021 37.0721 83.9021 35.7582C61.895 35.7582 39.9675 35.7582 18.0144 35.7582C18.0144 37.1062 18.0144 38.3916 18.0144 39.7567C18.5182 39.7567 18.9393 39.7567 19.3605 39.7567C28.6438 39.7567 37.927 39.7567 47.2102 39.7567C48.8893 39.7567 49.6264 40.223 49.6548 41.298C49.6861 42.4099 48.8836 42.9503 47.1875 42.9503C38.5076 42.9503 29.8305 42.9503 21.1506 42.9503C20.7379 42.9474 20.3167 42.9474 19.8301 42.9474ZM68.375 102.019C68.688 101.593 68.9413 101.152 69.2857 100.799C70.3557 99.7073 70.737 99.7101 72.1002 100.347C73.3809 100.947 74.6985 101.482 76.0361 101.94C77.0207 102.278 77.5103 102.858 77.4903 103.885C77.479 104.505 77.4875 105.125 77.4875 105.716C79.6845 105.716 81.6937 105.716 83.7882 105.716C83.7882 105.111 83.7825 104.582 83.7882 104.053C83.8082 102.69 84.1098 102.369 85.3876 101.906C86.7167 101.422 88.04 100.896 89.3036 100.262C90.3252 99.75 91.1449 99.8211 91.8677 100.68C92.232 101.112 92.5336 101.598 92.7841 101.951C94.4944 100.245 95.9344 98.8087 97.5053 97.2389C97.1411 96.9204 96.6857 96.5308 96.2389 96.1269C95.5018 95.4643 95.445 94.7192 95.8519 93.8234C96.4951 92.4101 97.0842 90.9682 97.6363 89.5179C97.9693 88.6448 98.5242 88.1813 99.4605 88.1813C100.089 88.1813 100.718 88.1813 101.401 88.1813C101.401 86.0484 101.401 84.0492 101.401 81.9362C100.818 81.9362 100.294 81.9391 99.7707 81.9362C98.3791 81.922 98.0262 81.5922 97.5481 80.2783C97.0671 78.9502 96.5008 77.6506 95.8946 76.3766C95.4592 75.4608 95.4649 74.6959 96.2389 73.9764C96.6943 73.5527 97.1069 73.0806 97.4029 72.7706C95.906 71.2463 94.4973 69.813 92.8267 68.1124C92.5564 68.4935 92.2974 68.9741 91.9332 69.3523C90.92 70.3989 90.4817 70.4273 89.2125 69.7903C88.3274 69.3438 87.4452 68.7836 86.4975 68.5874C84.457 68.1665 83.4069 67.174 83.7513 64.9928C83.7826 64.7965 83.4069 64.3415 83.2105 64.3358C81.3379 64.2846 79.4654 64.3045 77.4846 64.3045C77.4846 64.9615 77.4875 65.4847 77.4846 66.008C77.4733 67.3986 77.1545 67.7513 75.8312 68.2262C74.5335 68.6926 73.2557 69.23 72.0063 69.8159C70.7769 70.3932 70.3216 70.3932 69.3682 69.395C68.984 68.9912 68.7364 68.4594 68.4774 68.0641C66.7244 69.8272 65.3071 71.252 63.6053 72.9612C63.9639 73.2057 64.4563 73.4503 64.8348 73.8115C65.8877 74.821 65.8877 75.2447 65.2815 76.5273C64.6782 77.8042 64.1204 79.1095 63.6679 80.4461C63.3179 81.4784 62.7117 81.9704 61.6388 81.9419C61.0469 81.9277 60.4578 81.9391 59.8573 81.9391C59.8573 84.089 59.8573 86.0882 59.8573 88.1841C60.5261 88.1841 61.1265 88.1898 61.7242 88.1841C62.7003 88.1727 63.2894 88.6249 63.6337 89.552C64.1744 91.0081 64.7692 92.447 65.421 93.8576C65.8194 94.7192 65.7483 95.416 65.0909 96.0814C64.6298 96.5478 64.183 97.0313 63.7931 97.4408C65.2929 98.9366 66.6931 100.339 68.375 102.019ZM30.1805 94.4548C36.968 94.4548 43.6358 94.4548 50.3236 94.4548C50.3236 88.4287 50.3236 82.4623 50.3236 76.4818C48.4141 76.4818 46.5813 76.4818 44.6432 76.4818C44.6432 78.4042 44.6603 80.2726 44.6375 82.141C44.6233 83.233 44.0712 83.8558 43.0467 83.8786C41.1998 83.9184 39.3499 83.9155 37.503 83.8786C36.5126 83.8587 35.9377 83.2586 35.9064 82.2576C35.8694 81.1229 35.895 79.9882 35.895 78.8536C35.895 78.0573 35.895 77.261 35.895 76.4932C33.8858 76.4932 32.0531 76.4932 30.1834 76.4932C30.1805 82.505 30.1805 88.4486 30.1805 94.4548ZM60.1277 73.2C60.6855 72.0312 61.1408 71.1127 61.562 70.1799C61.7811 69.6936 62.0998 69.1817 62.1027 68.6812C62.1454 64.5349 62.1283 60.3886 62.1255 56.2423C62.1255 55.901 62.0913 55.5626 62.0742 55.21C60.1418 55.21 58.3091 55.21 56.3768 55.21C56.3768 57.067 56.3854 58.8643 56.374 60.6644C56.3654 62.0494 55.8133 62.6039 54.4473 62.621C53.1325 62.6352 51.8177 62.6238 50.5029 62.6238C47.805 62.6238 47.6201 62.439 47.6201 59.7118C47.6201 58.9326 47.6201 58.1533 47.6201 57.3713C47.6201 56.6461 47.6201 55.921 47.6201 55.2185C45.608 55.2185 43.7752 55.2185 41.9453 55.2185C41.9453 61.2531 41.9453 67.2195 41.9453 73.2C48.1693 73.2 54.3107 73.2 60.1277 73.2ZM53.6732 76.459C53.6732 82.5192 53.6732 88.4856 53.6732 94.4775C56.4735 94.4775 59.1999 94.4775 62.0315 94.4775C61.71 93.7011 61.3514 93.0101 61.138 92.2764C60.9359 91.5882 60.6 91.3607 59.8686 91.3408C57.9619 91.2924 56.6215 89.8904 56.593 87.9965C56.5646 86.0115 56.5589 84.0265 56.5959 82.0415C56.63 80.21 58.016 78.8308 59.8317 78.7512C60.1476 78.737 60.4635 78.7483 60.7822 78.7483C61.0782 77.9606 61.3485 77.2411 61.6445 76.459C58.9437 76.459 56.354 76.459 53.6732 76.459ZM50.8643 59.3421C51.6839 59.3421 52.4011 59.3421 53.0813 59.3421C53.0813 57.8974 53.0813 56.5409 53.0813 55.2185C52.293 55.2185 51.5986 55.2185 50.8643 55.2185C50.8643 56.6149 50.8643 57.9458 50.8643 59.3421ZM39.1422 76.4733C39.1422 77.9293 39.1422 79.2631 39.1422 80.6395C39.9134 80.6395 40.6334 80.6395 41.3705 80.6395C41.3705 79.2147 41.3705 77.8554 41.3705 76.4733C40.6049 76.4733 39.9077 76.4733 39.1422 76.4733Z" fill="#488EC8"/>
<path d="M51.9572 19.3296C51.0323 19.3296 50.1074 19.3609 49.1853 19.3239C48.1238 19.2812 47.4294 18.6016 47.4436 17.6944C47.4579 16.79 48.1608 16.1587 49.2394 16.1474C51.0522 16.1275 52.865 16.1246 54.6778 16.1474C55.7308 16.1616 56.3569 16.7389 56.3967 17.6432C56.4394 18.5931 55.802 19.267 54.7291 19.3182C53.807 19.3637 52.8821 19.3267 51.9572 19.3296Z" fill="#488EC8"/>
<path d="M51.9828 22.5291C52.9077 22.5291 53.8326 22.5064 54.7546 22.5348C55.7336 22.5661 56.3426 23.1349 56.3939 23.9965C56.4479 24.9066 55.856 25.6545 54.8628 25.6858C52.9106 25.7455 50.9526 25.7455 49.0003 25.6858C48.0355 25.6573 47.3839 24.8554 47.4436 23.9994C47.5034 23.169 48.1608 22.5633 49.1028 22.5348C50.0647 22.5064 51.0237 22.5291 51.9828 22.5291Z" fill="#488EC8"/>
<path d="M90.1716 85.0244C90.1915 90.3054 85.9426 94.5483 80.6379 94.5512C75.3787 94.5512 71.1214 90.3537 71.09 85.141C71.0587 79.8543 75.2848 75.5829 80.5724 75.5573C85.8772 75.5288 90.1517 79.7462 90.1716 85.0244ZM86.97 85.0073C86.9444 81.481 84.0928 78.7111 80.5298 78.7509C77.0464 78.7907 74.2746 81.6146 74.2917 85.104C74.3087 88.6161 77.1716 91.3917 80.7347 91.3547C84.2266 91.3178 86.9956 88.4967 86.97 85.0073Z" fill="#488EC8"/>
</svg>
