<svg width="99" height="99" viewBox="0 0 99 99" fill="none" xmlns="http://www.w3.org/2000/svg">
<path d="M82.4965 0.00193041C83.3785 0.258424 84.2797 0.466711 85.1424 0.779132C92.451 3.43278 97.0809 8.55687 98.1501 16.242C99.4856 25.8442 94.6125 33.2304 86.7211 36.8136C86.4914 36.9178 86.2598 37.0181 85.9587 37.1492C88.3924 45.0253 88.404 52.8956 85.9414 60.8334C91.1367 62.9567 94.902 66.5535 97.0461 71.7566C98.6113 75.5558 98.7155 79.5131 97.847 83.4435C96.1719 91.011 89.3708 96.9856 81.8731 98.0019C73.752 99.1031 64.7451 94.8874 61.03 85.6902C53.1849 88.1028 45.3108 88.126 37.4638 85.6941C36.8443 86.857 36.3039 88.0141 35.6381 89.096C29.4489 99.159 15.4126 101.215 6.58319 93.3658C5.63753 92.5249 5.5372 91.5684 6.32654 90.9204C6.94025 90.417 7.67361 90.498 8.48031 91.2C10.7267 93.1575 13.3128 94.3995 16.2328 94.9973C25.4983 96.8911 34.8218 89.9619 35.615 80.5738C36.3638 71.7065 30.6357 64.2527 21.8797 62.6983C13.0696 61.1362 4.19782 67.7067 3.07075 76.5857C2.66933 79.7485 3.07654 82.7646 4.37731 85.6729C4.83277 86.693 4.58961 87.5011 3.76554 87.8714C2.94918 88.2378 2.21774 87.8598 1.73526 86.8261C1.70824 86.7683 1.67929 86.7104 1.6542 86.6526C-1.5321 79.5286 0.0504514 70.9428 5.55457 65.4118C7.38413 63.5739 9.48002 62.139 11.8673 61.1246C12.07 61.0379 12.2649 60.9395 12.5042 60.8276C10.0455 52.9323 10.032 45.0639 12.4366 37.3363C10.6997 36.2582 8.87981 35.3943 7.37447 34.1484C1.26436 29.0861 -1.22138 22.5483 0.567652 14.8034C2.38177 6.95427 7.54814 2.15611 15.3624 0.206366C15.5727 0.154295 15.7735 0.069427 15.98 0C18.2226 0 20.4651 0 22.7096 0C22.9122 0.073284 23.1091 0.167781 23.3175 0.215994C28.8352 1.50618 33.0752 4.55518 35.9778 9.42471C36.5143 10.3234 36.935 11.2896 37.4271 12.2597C45.2993 9.81043 53.1695 9.82391 60.974 12.2404C61.0648 12.1709 61.1014 12.1574 61.113 12.1304C61.2597 11.8103 61.3967 11.4882 61.5453 11.17C63.8901 6.17515 67.6477 2.72114 72.8488 0.860115C73.8022 0.518766 74.7942 0.283493 75.7688 0C78.0094 0.00192853 80.252 0.00193041 82.4965 0.00193041ZM38.2281 15.0425C38.2686 15.4186 38.284 15.6751 38.3226 15.9258C39.1757 21.3199 37.9482 26.2106 34.7542 30.6211C33.8607 31.8554 33.025 32.1331 32.2279 31.5083C31.483 30.9239 31.5467 30.1043 32.4345 28.9144C36.3889 23.6071 36.7961 16.5236 33.4747 10.8383C30.1378 5.12794 23.7344 1.97866 17.219 2.84072C9.58037 3.85126 3.93921 9.65806 2.97039 17.5033C2.11158 24.4711 6.45581 31.6356 13.2414 34.3008C17.9118 36.1348 22.5127 35.8301 26.9882 33.5699C28.0805 33.0183 28.8776 33.1707 29.3022 34.0038C29.7229 34.8292 29.3755 35.564 28.2832 36.1348C25.9866 37.3344 23.5568 38.1231 20.963 38.2466C19.091 38.3353 17.2093 38.2639 15.1732 38.2639C12.95 45.3589 12.95 52.6546 15.2775 60.0023C22.1036 58.8509 28.0632 60.4439 32.9246 65.3019C37.8034 70.1772 39.3763 76.171 38.2377 82.8707C45.3243 85.3161 54.2174 85.0692 60.204 82.8244C59.0576 76.1286 60.6537 70.1771 65.5016 65.3173C70.3785 60.4284 76.3709 58.8432 83.0948 59.983C85.5342 53.4105 85.428 44.1266 83.0909 37.9958C76.396 39.1337 70.4326 37.56 65.5595 32.7194C60.6575 27.8479 59.0596 21.8676 60.2195 15.0386C52.8781 12.7418 45.6004 12.736 38.2281 15.0425ZM95.5485 19.077C95.5466 10.036 88.1608 2.69029 79.0747 2.69222C70.0755 2.69414 62.711 10.0785 62.7206 19.0886C62.7303 28.1256 70.1546 35.5177 79.1944 35.4907C88.2032 35.4637 95.5485 28.0909 95.5485 19.077ZM79.1249 95.2904C88.1376 95.2943 95.5234 87.9466 95.5485 78.9539C95.5736 69.9168 88.182 62.4978 79.1423 62.492C70.1084 62.4862 62.7013 69.9014 62.7187 78.9346C62.7361 87.9292 70.1161 95.2866 79.1249 95.2904Z" fill="#FFC41F"/>
<path d="M16.3544 71.0797C16.5358 71.1569 16.9623 71.2899 17.3424 71.5059C20.3917 73.2513 23.4391 75.0043 26.4748 76.7728C28.3102 77.8412 28.3102 79.5672 26.4768 80.6337C23.4391 82.4002 20.3936 84.1551 17.3405 85.8966C15.5553 86.9148 14.0578 86.0335 14.0539 83.9738C14.0481 80.3926 14.0443 76.8132 14.0558 73.232C14.0636 71.8994 14.8934 71.0431 16.3544 71.0797ZM24.047 78.7032C21.6481 77.3185 19.3728 76.0033 16.9932 74.6301C16.9932 77.4053 16.9932 80.0223 16.9932 82.782C19.3766 81.4031 21.6539 80.086 24.047 78.7032Z" fill="#FFC41F"/>
<path d="M43.0335 53.8777C43.1493 56.1765 43.2612 58.346 43.3693 60.5156C43.4118 61.3777 43.4677 62.2417 43.487 63.1056C43.5102 64.174 42.9987 64.7912 42.111 64.8124C41.2406 64.8336 40.6713 64.2377 40.6134 63.1789C40.4648 60.4636 40.3374 57.7463 40.2004 55.029C40.183 54.6838 40.1637 54.3386 40.1405 53.9162C39.6079 53.8892 39.137 53.8718 38.668 53.8391C37.1028 53.7253 35.9739 52.5952 35.9565 51.0292C35.9256 48.4681 35.9237 45.907 35.9584 43.3479C35.9797 41.7183 37.2071 40.5554 38.8687 40.538C40.5979 40.5187 42.358 40.3317 44.0506 40.5766C47.3256 41.051 50.178 39.8688 53.0555 38.6867C54.3254 38.164 55.5451 37.5199 56.7784 36.9162C57.5715 36.5286 58.3647 36.2085 58.3628 35.0359C58.3609 34.7023 59.1386 34.1257 59.5845 34.1006C60.0264 34.0755 60.5938 34.5249 60.9277 34.9183C61.1515 35.1806 61.111 35.709 61.111 36.1178C61.1207 43.5118 61.1187 50.9058 61.1129 58.2998C61.1129 58.6488 61.1013 59.0114 61.0049 59.3411C60.7984 60.0451 60.2812 60.3884 59.5536 60.3344C58.826 60.2804 58.2818 59.858 58.2876 59.1386C58.2934 58.3344 57.8572 58.024 57.255 57.7328C56.5352 57.3837 55.825 57.0154 55.1283 56.6258C54.2772 56.1514 54.0128 55.3665 54.42 54.6163C54.806 53.9046 55.5702 53.6751 56.404 54.0493C56.9771 54.3058 57.531 54.6008 58.1853 54.9248C58.1853 49.7467 58.1853 44.7056 58.1853 39.7242C54.5551 41.1108 50.9075 42.5032 47.1075 43.9534C47.1075 45.9167 47.0921 48.119 47.1346 50.3234C47.1384 50.5162 47.4993 50.7901 47.7444 50.8711C48.6843 51.1835 49.6512 51.4091 50.5949 51.7119C51.5734 52.0243 51.9941 52.7822 51.7143 53.6212C51.4595 54.3848 50.6837 54.7146 49.74 54.4582C49.6782 54.4408 49.6145 54.4273 49.5586 54.3984C47.4974 53.3396 45.3282 53.9027 43.0335 53.8777ZM38.89 43.452C38.89 45.9977 38.89 48.4392 38.89 50.8904C40.6867 50.8904 42.4198 50.8904 44.1548 50.8904C44.1548 48.3698 44.1548 45.9302 44.1548 43.452C42.3793 43.452 40.6674 43.452 38.89 43.452Z" fill="#FFC41F"/>
<path d="M12.0082 23.7769C10.3021 22.3845 9.18276 20.6469 8.7987 18.4792C8.42623 16.3829 8.63469 14.3367 9.40472 12.358C9.93159 11.0023 11.1629 10.7921 12.0719 11.9261C13.2067 13.3435 14.5769 14.3792 16.3408 14.8613C16.613 14.9365 16.8947 14.9789 17.2151 15.0464C17.3135 14.7301 17.3965 14.4621 17.4776 14.194C18.4831 10.8692 22.1634 9.31484 25.1799 11.01C25.8573 11.3919 26.3436 11.3475 26.9129 10.9522C27.1233 10.8056 27.3433 10.5877 27.5691 10.5723C28.1075 10.5375 28.7965 10.416 29.1516 10.688C29.5029 10.956 29.7268 11.7043 29.638 12.1691C29.4855 12.9636 29.1651 13.791 28.6904 14.4409C28.096 15.2528 28.013 16.1129 27.9261 17.0386C27.4552 22.0913 25.0988 25.8944 20.33 27.902C16.2887 29.601 12.3208 29.0765 8.4996 27.0727C7.81641 26.714 7.54042 26.1412 7.71218 25.3968C7.87816 24.6717 8.40889 24.3805 9.1191 24.3227C10.0648 24.2474 11.0065 24.1433 11.9503 24.0526C11.9657 23.9601 11.987 23.8694 12.0082 23.7769ZM15.0999 25.7787C15.1057 25.8462 15.1134 25.9156 15.1192 25.985C15.8101 25.9426 16.5146 25.9677 17.19 25.8462C22.0418 24.9687 25.2397 21.0094 25.0969 15.4996C25.0892 15.1814 25.1316 14.8381 25.0255 14.5527C24.7649 13.8565 23.2345 13.1526 22.3062 13.2452C21.2699 13.3493 20.3763 14.1612 20.2045 15.1833C20.1524 15.4958 20.1601 15.8198 20.1524 16.1399C20.1177 17.5902 19.6063 18.0935 18.1434 18.0414C15.98 17.9643 14.0037 17.3047 12.2262 16.0628C12.039 15.9316 11.8326 15.8256 11.5778 15.6732C11.2825 18.3789 12.1645 20.4347 14.3434 21.8908C14.7931 22.1916 15.2968 22.4114 15.7638 22.6872C16.86 23.3333 16.9217 24.5116 15.9027 25.258C15.6441 25.4431 15.3682 25.6051 15.0999 25.7787Z" fill="#FFC41F"/>
<path d="M79.314 20.2091C79.314 20.9419 79.314 21.5745 79.314 22.2051C79.314 24.2532 79.3217 26.2994 79.3101 28.3475C79.3043 29.5952 78.8218 30.2162 77.8897 30.2259C76.9517 30.2355 76.4384 29.6049 76.4326 28.3802C76.421 26.0448 76.4288 23.7094 76.4288 21.3739C76.4288 21.0287 76.4288 20.6835 76.4288 20.2072C75.7282 20.2072 75.1299 20.2245 74.5316 20.2033C73.5647 20.1705 72.9414 19.5939 72.9491 18.7685C72.9549 17.9547 73.5918 17.3723 74.5529 17.3337C75.1241 17.3105 75.6954 17.3298 76.4288 17.3298C76.4288 16.0647 76.4384 14.8651 76.4268 13.6656C76.4095 11.9473 76.944 10.4662 78.2409 9.29365C79.9257 7.77011 81.9676 7.75082 84.0326 7.99189C84.7833 8.0806 85.1848 8.71121 85.1172 9.46719C85.0516 10.2116 84.5981 10.7092 83.8145 10.7651C83.1777 10.8095 82.533 10.7632 81.8942 10.7921C80.4005 10.8615 79.4317 11.766 79.3429 13.251C79.2773 14.3348 79.3178 15.4244 79.3159 16.5121C79.3159 16.732 79.3371 16.9518 79.3564 17.3279C80.0087 17.3279 80.6321 17.3163 81.2555 17.3298C82.3073 17.353 82.9499 17.8891 82.9712 18.7415C82.9943 19.646 82.3594 20.186 81.2323 20.2052C80.634 20.2168 80.0338 20.2091 79.314 20.2091Z" fill="#FFC41F"/>
<path d="M79.1346 68.6966C81.0549 68.6966 82.9751 68.687 84.8954 68.6986C87.7922 68.7159 89.3535 70.2665 89.3593 73.1419C89.369 76.9797 89.3671 80.8194 89.3593 84.6571C89.3535 87.5191 87.7556 89.114 84.8954 89.1178C81.0549 89.1236 77.2124 89.1236 73.3719 89.1178C70.5118 89.114 68.9177 87.5248 68.9099 84.6591C68.9003 80.8213 68.9003 76.9816 68.9099 73.1438C68.9177 70.2626 70.4712 68.7159 73.37 68.6986C75.2941 68.687 77.2144 68.6966 79.1346 68.6966ZM86.4779 78.9468C86.4779 77.026 86.4838 75.1051 86.4761 73.1843C86.4703 71.8922 86.175 71.5836 84.8973 71.5817C81.053 71.574 77.2086 71.574 73.3642 71.5817C72.0827 71.5856 71.7971 71.8826 71.7952 73.192C71.7894 77.0009 71.7894 80.8117 71.7952 84.6205C71.7971 85.8991 72.1252 86.2346 73.37 86.2366C77.2144 86.2424 81.0587 86.2424 84.9031 86.2366C86.1402 86.2346 86.4703 85.8914 86.4741 84.6147C86.4838 82.7247 86.4779 80.8348 86.4779 78.9468Z" fill="#FFC41F"/>
<path d="M79.121 83.2309C76.7087 83.2251 74.7961 81.3139 74.7942 78.9071C74.7923 76.4733 76.7665 74.5159 79.1982 74.5467C81.5836 74.5757 83.4904 76.5331 83.4769 78.9361C83.4595 81.339 81.5373 83.2367 79.121 83.2309ZM79.1075 80.342C79.9297 80.3555 80.5743 79.7364 80.5859 78.9206C80.5975 78.1107 79.9625 77.4453 79.1596 77.4299C78.3587 77.4145 77.6948 78.0605 77.6794 78.8666C77.664 79.6824 78.2892 80.3285 79.1075 80.342Z" fill="#FFC41F"/>
</svg>
