<svg width="79" height="79" viewBox="0 0 79 79" fill="none" xmlns="http://www.w3.org/2000/svg">
<path d="M33.7828 78.3869C29.2231 78.3869 24.7872 78.3869 20.2702 78.3869C20.2702 77.1157 20.224 75.8839 20.2803 74.6566C20.3918 72.2178 19.4933 70.2605 17.7482 68.5664C14.5789 65.4897 11.4816 62.3377 8.36634 59.2059C8.05447 58.8921 7.77079 58.5287 7.558 58.1418C5.13626 53.7332 2.72575 49.3191 0.329901 44.8959C0.150887 44.5663 0.0158051 44.1636 0.0146792 43.7946C-0.00333467 36.4815 -0.0022187 29.1674 0.00453651 21.8543C0.00566238 20.4639 0.783652 19.4402 2.04575 19.0982C3.13784 18.8024 4.39432 19.2512 4.95388 20.2839C5.23422 20.8002 5.38392 21.4516 5.3873 22.0433C5.41882 27.6408 5.39409 33.2384 5.42561 38.836C5.42786 39.331 5.58659 39.9227 5.88382 40.304C10.6395 46.4044 15.429 52.479 20.2117 58.558C20.313 58.6862 20.4267 58.8055 20.5832 58.9855C21.2666 58.4511 21.9263 57.9348 22.6683 57.3532C22.4589 57.0742 22.2697 56.8121 22.0704 56.559C19.3593 53.1089 16.6472 49.6599 13.9349 46.2098C13.4373 45.5765 13.3135 43.2445 13.7402 42.5898C14.2761 41.7686 15.4132 41.7518 16.2036 42.5865C17.8856 44.3649 19.5507 46.1592 21.2215 47.9489C24.9088 51.8974 28.5791 55.8616 32.2911 59.7864C33.319 60.8731 33.811 62.0722 33.7975 63.5762C33.7547 68.1895 33.7817 72.8028 33.7817 77.4149C33.7829 77.7198 33.7828 78.0235 33.7828 78.3869Z" fill="#595959"/>
<path d="M10.8174 42.2478C9.98422 41.1848 9.10718 40.0902 8.26503 38.9698C8.13218 38.7932 8.11418 38.4985 8.11418 38.2577C8.1063 31.704 8.1052 25.1514 8.11083 18.5976C8.11195 17.2241 8.96311 16.2994 10.1655 16.3197C11.3387 16.3388 12.156 17.2432 12.1583 18.5774C12.165 25.6373 12.1639 32.6973 12.1527 39.7561C12.1527 40.0171 12.0784 40.3085 11.9466 40.5312C11.6078 41.1049 11.217 41.6482 10.8174 42.2478Z" fill="#595959"/>
<path d="M18.9192 41.4669C16.9388 39.5725 16.6438 39.4105 14.9279 39.2328C14.9077 39.0562 14.8682 38.8683 14.8682 38.6816C14.8649 34.6915 14.857 30.7003 14.8784 26.7102C14.8807 26.2783 14.9809 25.8058 15.1757 25.4244C15.5911 24.6134 16.5582 24.2512 17.4082 24.4908C18.3427 24.7551 18.9113 25.5054 18.9147 26.5775C18.9259 30.3145 18.9192 34.0525 18.9192 37.7895C18.9192 38.9594 18.9192 40.1282 18.9192 41.4669Z" fill="#595959"/>
<path d="M25.6327 48.7178C24.2907 47.2791 23.0758 45.9955 21.8903 44.6839C21.7259 44.5028 21.6359 44.19 21.6325 43.9369C21.6111 42.2248 21.6111 40.5116 21.6246 38.7983C21.6348 37.4822 22.4702 36.5755 23.6433 36.5732C24.8187 36.571 25.6665 37.4743 25.671 38.7882C25.6834 41.9053 25.6755 45.0225 25.6744 48.1385C25.6733 48.2712 25.6564 48.4017 25.6327 48.7178Z" fill="#595959"/>
<path d="M58.105 78.3864C53.5869 78.3864 49.151 78.3864 44.6306 78.3864C44.6182 78.1209 44.5946 77.852 44.5935 77.5832C44.5912 72.8293 44.6047 68.0754 44.5833 63.3226C44.5777 62.0087 45.0213 60.9311 45.9152 59.9771C51.2834 54.2502 56.6358 48.5086 61.996 42.7727C62.1683 42.5882 62.3361 42.3902 62.5398 42.2451C63.4991 41.5634 64.7522 42.1405 64.8557 43.3037C64.9841 44.7334 64.7623 45.963 63.7445 47.1677C61.1876 50.196 58.8064 53.3728 56.3565 56.4922C56.1516 56.7531 55.9569 57.0231 55.7159 57.3448C56.4196 57.9028 57.0929 58.436 57.8134 59.0075C59.652 56.6699 61.441 54.3976 63.2288 52.1241C66.2709 48.2544 69.3288 44.3971 72.3327 40.4981C72.6941 40.0302 72.9372 39.3383 72.9417 38.7489C72.9867 33.1232 72.9654 27.4975 72.9721 21.8718C72.9732 20.5298 73.6578 19.559 74.8388 19.1585C75.9095 18.7952 77.1176 19.109 77.765 20.0708C78.0915 20.5556 78.3448 21.2013 78.347 21.7762C78.3853 29.1455 78.3763 36.5148 78.3617 43.8841C78.3605 44.2002 78.2412 44.5456 78.0881 44.829C75.6629 49.2995 73.2266 53.7642 70.7778 58.2212C70.5785 58.5834 70.3016 58.9164 70.0088 59.2111C66.8924 62.3417 63.7997 65.4971 60.6259 68.5704C58.8515 70.2881 57.9699 72.2758 58.0949 74.7439C58.1557 75.9408 58.105 77.1456 58.105 78.3864Z" fill="#595959"/>
<path d="M67.5567 42.2466C67.1559 41.6448 66.7641 41.1003 66.4241 40.5255C66.2924 40.3027 66.2214 40.0103 66.2214 39.7493C66.2113 32.6904 66.2102 25.6305 66.2158 18.5716C66.2169 17.2386 67.0377 16.3353 68.2119 16.3196C69.4155 16.3027 70.2621 17.2262 70.2632 18.602C70.2689 25.1546 70.2678 31.7084 70.2599 38.261C70.2599 38.5018 70.2419 38.7965 70.1079 38.9731C69.2669 40.0935 68.3899 41.1869 67.5567 42.2466Z" fill="#595959"/>
<path d="M63.4991 39.2679C61.745 39.2274 60.5955 40.1757 59.4955 41.5301C59.4741 41.1533 59.4572 40.9969 59.4572 40.8394C59.4561 36.117 59.4505 31.3958 59.4595 26.6734C59.4617 25.2234 60.5155 24.2334 61.79 24.4404C62.6986 24.5878 63.4777 25.337 63.4844 26.2785C63.5171 30.5746 63.4991 34.8718 63.4991 39.2679Z" fill="#595959"/>
<path d="M52.7009 48.7684C52.7009 47.4275 52.7009 46.3161 52.7009 45.2047C52.7009 43.0978 52.6952 40.9919 52.7031 38.8849C52.7087 37.4979 53.5216 36.5766 54.7207 36.5733C55.922 36.5699 56.7439 37.4901 56.7517 38.8726C56.7607 40.5296 56.7596 42.1866 56.7484 43.8436C56.7461 44.0843 56.7438 44.397 56.6042 44.5523C55.3714 45.919 54.1082 47.2566 52.7009 48.7684Z" fill="#595959"/>
<path d="M39.1982 29.3608C36.7225 27.1143 34.3086 24.9241 31.8959 22.7328C29.4595 20.5201 26.986 18.3456 24.6003 16.0789C21.9545 13.567 21.029 10.4622 21.9511 6.92547C22.8484 3.48436 25.1012 1.26715 28.5475 0.384094C31.2721 -0.313353 33.7907 0.287351 36.039 1.96572C36.692 2.45281 37.2989 3.00177 37.9238 3.52598C38.9686 4.40341 39.3941 4.41016 40.4176 3.55298C40.9129 3.13788 41.4005 2.71154 41.9015 2.30207C45.7992 -0.879186 51.0627 -0.55746 54.366 3.05914C57.6625 6.66899 57.6141 12.4218 54.0383 15.8022C49.196 20.3817 44.2027 24.8026 39.1982 29.3608Z" fill="#595959"/>
</svg>
