<svg width="641" height="458" viewBox="0 0 641 458" fill="none" xmlns="http://www.w3.org/2000/svg">
<g clip-path="url(#clip0_318_7947)">
<path d="M175.15 135.65C176.12 135.05 177.33 135.08 178.3 135.67C178.56 135.83 178.83 135.98 179.11 136.13C179.39 136.28 179.67 136.42 179.95 136.55C180.98 137.03 181.67 138.02 181.71 139.16L181.83 143.04L194.46 142.65L194.34 138.77C194.3 137.63 194.93 136.59 195.93 136.05C196.48 135.75 197.01 135.42 197.53 135.06C198.46 134.41 199.67 134.32 200.67 134.86L204.08 136.69L210.05 125.55L206.64 123.72C205.64 123.18 205.05 122.13 205.07 121C205.08 120.37 205.06 119.74 205.01 119.12C204.91 117.99 205.43 116.89 206.4 116.29L209.7 114.24L203.04 103.5L199.73 105.55C198.77 106.15 197.56 106.11 196.59 105.53C196.33 105.37 196.06 105.22 195.78 105.07C195.51 104.92 195.23 104.78 194.95 104.65C193.92 104.16 193.22 103.17 193.19 102.04L193.07 98.16L180.44 98.55L180.56 102.42C180.6 103.56 179.97 104.6 178.98 105.15C178.43 105.45 177.89 105.78 177.37 106.15C176.44 106.8 175.23 106.89 174.23 106.35L170.82 104.52L164.84 115.66L168.25 117.49C169.25 118.03 169.84 119.08 169.82 120.22C169.81 120.85 169.83 121.48 169.88 122.11C169.98 123.24 169.45 124.34 168.49 124.94L165.2 126.98L171.86 137.72L175.15 135.65ZM178.32 115.7C181.02 110.66 187.3 108.77 192.34 111.47C197.38 114.17 199.27 120.45 196.56 125.49C193.86 130.53 187.59 132.42 182.55 129.72C177.52 127.02 175.62 120.74 178.32 115.7Z" fill="#DBDBDB"/>
<path d="M603.26 140.43C603.95 140.83 604.33 141.59 604.29 142.38C604.28 142.6 604.27 142.81 604.27 143.03C604.27 143.25 604.28 143.47 604.29 143.69C604.33 144.48 603.95 145.24 603.26 145.64L600.91 147L605.33 154.67L607.68 153.31C608.37 152.91 609.22 152.95 609.89 153.39C610.26 153.63 610.64 153.85 611.03 154.05C611.74 154.41 612.19 155.13 612.19 155.92V158.63H621.05V155.92C621.05 155.13 621.5 154.41 622.21 154.05C622.6 153.85 622.98 153.63 623.35 153.39C624.02 152.95 624.87 152.91 625.56 153.31L627.91 154.67L632.33 147L629.97 145.63C629.28 145.23 628.9 144.48 628.95 143.69C628.96 143.47 628.97 143.26 628.97 143.04C628.97 142.82 628.96 142.6 628.95 142.39C628.91 141.59 629.29 140.83 629.98 140.44L632.34 139.08L627.92 131.41L625.57 132.77C624.88 133.17 624.03 133.13 623.36 132.7C622.99 132.46 622.61 132.24 622.21 132.04C621.5 131.68 621.05 130.96 621.05 130.17V127.46H612.19V130.17C612.19 130.96 611.73 131.68 611.03 132.04C610.64 132.24 610.25 132.46 609.88 132.7C609.21 133.14 608.36 133.17 607.67 132.77L605.32 131.41L600.9 139.08L603.26 140.43ZM616.62 135.78C620.63 135.78 623.88 139.03 623.88 143.04C623.88 147.04 620.63 150.29 616.62 150.29C612.61 150.29 609.37 147.05 609.37 143.04C609.37 139.04 612.62 135.78 616.62 135.78Z" fill="#DBDBDB"/>
<path d="M16.97 47.02C16.97 66.06 32.41 81.5 51.45 81.5C70.5 81.5 85.93 66.06 85.93 47.02C85.93 27.97 70.5 12.54 51.45 12.54C32.41 12.54 16.97 27.98 16.97 47.02ZM35.34 47.02C35.34 38.12 42.55 30.91 51.45 30.91C60.35 30.91 67.56 38.12 67.56 47.02C67.56 55.92 60.35 63.12 51.45 63.12C42.55 63.12 35.34 55.92 35.34 47.02Z" fill="#EBEBEB"/>
<path d="M44.82 13.97H58.08L57.34 4.59H45.55L44.82 13.97Z" fill="#EBEBEB"/>
<path d="M70.05 18.44L79.43 27.82L85.55 20.66L77.21 12.32L70.05 18.44Z" fill="#EBEBEB"/>
<path d="M84.74 39.44V52.7L94.13 51.97V40.18L84.74 39.44Z" fill="#EBEBEB"/>
<path d="M80.27 64.68L70.9 74.06L78.05 80.18L86.39 71.84L80.27 64.68Z" fill="#EBEBEB"/>
<path d="M59.27 79.37H46.01L46.74 88.76H58.54L59.27 79.37Z" fill="#EBEBEB"/>
<path d="M34.03 74.9L24.65 65.53L18.54 72.68L26.88 81.02L34.03 74.9Z" fill="#EBEBEB"/>
<path d="M19.34 53.9V40.64L9.96002 41.37V53.16L19.34 53.9Z" fill="#EBEBEB"/>
<path d="M23.81 28.66L33.19 19.28L26.03 13.16L17.69 21.5L23.81 28.66Z" fill="#EBEBEB"/>
<path d="M608.704 62.2492C617.249 37.6803 604.564 10.9419 580.371 2.52736C556.177 -5.88716 529.638 7.2086 521.092 31.7775C512.547 56.3464 525.233 83.0848 549.426 91.4993C573.619 99.9138 600.159 86.8181 608.704 62.2492Z" fill="#EBEBEB"/>
<path d="M599.087 58.8891C605.755 39.7243 595.861 18.8654 576.988 12.2994C558.115 5.73345 537.411 15.9468 530.743 35.1116C524.076 54.2764 533.97 75.1353 552.842 81.7013C571.715 88.2672 592.42 78.0539 599.087 58.8891Z" fill="white"/>
<path d="M591.04 46.6C591.13 61.2 579.51 73.23 565.09 73.47C550.66 73.71 538.89 62.06 538.79 47.46C538.7 32.86 550.32 20.83 564.74 20.59C579.17 20.34 590.95 31.99 591.04 46.6Z" fill="#EBEBEB"/>
<path d="M580.82 46.76C580.88 55.65 573.8 62.97 565.02 63.12C556.24 63.26 549.07 56.17 549.01 47.28C548.95 38.39 556.03 31.07 564.81 30.92C573.6 30.78 580.76 37.87 580.82 46.76Z" fill="white"/>
<path d="M572 46.91C572.03 50.87 568.88 54.13 564.97 54.19C561.06 54.25 557.87 51.1 557.84 47.14C557.81 43.18 560.96 39.92 564.87 39.86C568.78 39.79 571.97 42.95 572 46.91Z" fill="#EBEBEB"/>
<path d="M496.814 10.8629L496.443 11.5719L564.547 47.1765L564.918 46.4675L496.814 10.8629Z" fill="#C7C7C7"/>
<path d="M493.56 12.82L493.74 12.75L496.86 11.78L490.71 8.57L487.38 9.58L493.56 12.82Z" fill="#C7C7C7"/>
<path d="M489.97 4.63L491.08 7.87L497.23 11.08C496.74 10.06 496.39 8.97 496.14 7.85L489.97 4.63Z" fill="#C7C7C7"/>
<path d="M566.4 46.23L565.12 48.54L561.7 48.25L563.95 46.41L564.17 43.53L566.4 46.23Z" fill="#C7C7C7"/>
<path d="M299.17 128.15C299.17 132.62 296.82 136.55 293.3 138.75H279.99C276.46 136.54 274.12 132.62 274.12 128.15C274.12 121.21 279.73 115.62 286.65 115.62C293.56 115.62 299.17 121.21 299.17 128.15Z" fill="#EBEBEB"/>
<path d="M299.93 138.75H273.37V142.58H299.93V138.75Z" fill="#EBEBEB"/>
<path d="M313.55 191.47H259.75V195.3H313.55V191.47Z" fill="#DBDBDB"/>
<path d="M313.55 202.21H259.75V206.04H313.55V202.21Z" fill="#DBDBDB"/>
<path d="M311.54 195.3H261.75V202.21H311.54V195.3Z" fill="#EBEBEB"/>
<path d="M297.49 142.58H275.82V146.41H297.49V142.58Z" fill="#DBDBDB"/>
<path d="M308.65 191.47H264.64C264.64 191.47 274.68 181.43 276.78 169.41C278.53 159.27 279.39 146.41 279.39 146.41H293.92C293.92 146.41 294.78 159.27 296.54 169.41C298.61 181.44 308.65 191.47 308.65 191.47Z" fill="#EBEBEB"/>
<path d="M355.12 232.84L348.98 237.52C348.28 238.01 346.51 238.42 345.03 238.42C344.21 238.42 343.64 238.29 343.44 238.07C343.05 237.65 341.91 237.39 340.2 237.39C337.16 237.39 333.36 238.23 331.66 239.26C329.92 240.29 331.05 241.13 334.24 241.13C336.03 241.13 338.07 240.86 339.79 240.45C340.66 240.24 341.65 240.1 342.49 240.1C343.99 240.1 344.6 240.5 343.84 241L336.08 245.68H320.87C319.26 245.68 317.17 246.08 316.19 246.58C315.64 246.86 315.56 247.11 315.91 247.29C316.6 247.63 316.44 248.15 315.25 248.73C313.11 249.76 308.48 250.6 304.94 250.6C301.41 250.6 300.42 249.76 302.71 248.73C303.98 248.15 305.98 247.63 308.09 247.29C309.16 247.11 310.13 246.86 310.7 246.58C311.71 246.09 311.23 245.68 309.62 245.68H294.41L304.37 241C305.37 240.51 307.39 240.1 308.89 240.1C309.73 240.1 310.25 240.23 310.37 240.45C310.6 240.87 311.69 241.13 313.48 241.13C316.66 241.13 320.77 240.29 322.62 239.26C324.43 238.23 323.4 237.39 320.36 237.39C318.65 237.39 316.63 237.66 314.86 238.07C313.94 238.28 312.93 238.42 312.11 238.42C310.64 238.42 310.21 238.02 311.14 237.52L319.49 232.84H332.49C333.86 232.84 335.56 232.44 336.28 231.94C336.68 231.66 336.68 231.41 336.34 231.23C335.69 230.89 335.72 230.37 336.53 229.78C337.94 228.75 341.22 227.91 343.9 227.91C346.58 227.91 347.75 228.75 346.48 229.78C345.75 230.36 344.36 230.88 342.77 231.23C341.95 231.41 341.24 231.66 340.86 231.94C340.17 232.43 340.72 232.84 342.09 232.84H355.12Z" fill="#EBEBEB"/>
<path d="M195.77 256.2H219.73C222.26 256.2 223.68 256.86 222.91 257.68C222.47 258.14 221.38 258.56 219.99 258.85C217.26 259.41 215.01 260.27 214.04 261.23C212.3 262.93 215.37 264.31 220.9 264.31C226.44 264.31 232.19 262.93 233.73 261.23C234.59 260.27 233.96 259.41 232.29 258.85C231.44 258.56 231.13 258.14 231.54 257.68C232.27 256.86 234.92 256.2 237.45 256.2H261.41L255.65 263.92C255.02 264.74 256.66 265.4 259.34 265.4C260.83 265.4 262.37 265.18 263.58 264.83C265.92 264.14 269.02 263.7 272.13 263.7C277.66 263.7 281.27 265.08 280.19 266.78C279.09 268.48 273.55 269.86 267.82 269.86C264.6 269.86 262.04 269.42 260.67 268.73C259.97 268.38 258.74 268.16 257.22 268.16C254.51 268.16 251.77 268.82 251.11 269.64L244.58 277.36H217.5C214.64 277.36 213.02 276.7 213.87 275.88C214.34 275.42 215.53 275 217.05 274.71C220 274.15 222.36 273.29 223.3 272.33C224.96 270.63 221.66 269.25 215.97 269.25C210.27 269.25 204.17 270.63 202.31 272.33C201.26 273.29 201.82 274.15 203.57 274.71C204.47 275 204.78 275.42 204.28 275.88C203.39 276.7 200.35 277.36 197.49 277.36H170.42L180.05 269.64C181.04 268.82 179.64 268.16 176.93 268.16C175.41 268.16 173.74 268.38 172.33 268.73C169.56 269.42 166.12 269.86 162.89 269.86C157.16 269.86 154.42 268.48 156.72 266.78C159.01 265.08 165.32 263.7 170.85 263.7C173.96 263.7 176.2 264.14 177.19 264.83C177.7 265.18 178.81 265.4 180.3 265.4C182.97 265.4 185.92 264.74 186.88 263.92L195.77 256.2Z" fill="#EBEBEB"/>
<path d="M550.94 311.19L564.19 300.43C565.47 299.29 568.29 298.37 570.49 298.37C571.72 298.37 572.54 298.68 572.8 299.17C573.31 300.13 575.02 300.74 577.65 300.74C582.34 300.74 588 298.82 590.22 296.45C592.35 294.08 590.43 292.16 586.02 292.16C583.54 292.16 580.74 292.77 578.34 293.73C577.1 294.22 575.69 294.53 574.49 294.53C572.34 294.53 571.55 293.61 572.7 292.47L582.52 281.71H601C602.95 281.71 605.12 280.79 605.82 279.65C606.21 279.01 606.04 278.43 605.46 278.03C604.33 277.24 604.03 276.05 604.79 274.71C606.07 272.34 610.03 270.42 613.73 270.42C617.43 270.42 619.69 272.34 618.68 274.71C618.07 276.05 616.49 277.24 614.5 278.03C613.47 278.43 612.64 279.02 612.29 279.65C611.64 280.79 612.68 281.71 614.63 281.71H633.09L627.59 292.47C626.89 293.61 624.57 294.53 622.43 294.53C621.23 294.53 620.33 294.22 619.9 293.73C619.07 292.77 617.25 292.16 614.77 292.16C610.36 292.16 605.32 294.08 603.41 296.45C601.41 298.82 603.51 300.74 608.2 300.74C610.84 300.74 613.69 300.13 615.98 299.17C617.14 298.68 618.51 298.37 619.74 298.37C621.95 298.37 623.08 299.29 622.25 300.43L613.32 311.19H590.54C588.14 311.19 585.17 312.11 583.9 313.25C583.18 313.89 583.17 314.47 583.77 314.87C584.95 315.66 584.91 316.85 583.34 318.19C580.48 320.56 573.74 322.48 568.36 322.48C562.98 322.48 561.22 320.56 564.36 318.19C566.08 316.85 568.93 315.66 571.99 314.87C573.54 314.47 574.91 313.88 575.66 313.25C576.99 312.11 576.11 311.19 573.7 311.19H550.94Z" fill="#EBEBEB"/>
<path d="M9.07001 206.5C211.33 205.89 438.22 205.88 640.49 206.5C438.22 207.12 211.33 207.11 9.07001 206.5Z" fill="#263238"/>
<path d="M443.68 26.86C442.91 22.12 442.81 17.36 443.42 12.6C444.19 17.33 444.27 22.1 443.68 26.86Z" fill="#263238"/>
<path d="M411.12 35.94C408.08 32.22 405.62 28.15 403.76 23.72C406.8 27.44 409.26 31.52 411.12 35.94Z" fill="#263238"/>
<path d="M387.47 60.08C382.98 58.38 378.81 56.08 374.99 53.18C379.48 54.88 383.64 57.19 387.47 60.08Z" fill="#263238"/>
<path d="M379.06 92.82C374.32 93.59 369.56 93.69 364.8 93.08C369.53 92.31 374.3 92.22 379.06 92.82Z" fill="#263238"/>
<path d="M388.14 125.38C384.42 128.42 380.35 130.88 375.92 132.74C379.64 129.69 383.72 127.24 388.14 125.38Z" fill="#263238"/>
<path d="M501.23 124.21C505.72 125.91 509.89 128.21 513.71 131.11C509.22 129.42 505.05 127.11 501.23 124.21Z" fill="#263238"/>
<path d="M509.64 91.48C514.38 90.71 519.14 90.61 523.9 91.22C519.16 91.99 514.4 92.07 509.64 91.48Z" fill="#263238"/>
<path d="M500.56 58.92C504.28 55.88 508.35 53.42 512.78 51.56C509.06 54.6 504.98 57.06 500.56 58.92Z" fill="#263238"/>
<path d="M476.41 35.27C478.11 30.78 480.41 26.61 483.31 22.79C481.62 27.28 479.31 31.44 476.41 35.27Z" fill="#263238"/>
<g opacity="0.5">
<path d="M499.76 95.47C497.01 129.88 468.34 140.26 468.34 140.26C466.23 145.49 463.48 158.8 463.48 158.8H425.21C425.21 158.8 422.46 145.5 420.35 140.26C420.35 140.26 391.68 129.89 388.93 95.47C387.02 71.56 404.05 36.21 444.13 36.2H444.55C484.64 36.22 501.67 71.56 499.76 95.47Z" fill="#FFC727"/>
</g>
<g opacity="0.7">
<path d="M495.03 95.65C492.52 127.12 466.29 136.61 466.29 136.61C464.36 141.39 461.85 158.8 461.85 158.8H426.85C426.85 158.8 424.34 141.4 422.41 136.61C422.41 136.61 396.19 127.12 393.67 95.65C391.92 73.78 407.5 41.45 444.16 41.44H444.54C481.2 41.45 496.77 73.78 495.03 95.65Z" fill="#FFC727"/>
</g>
<path d="M435.05 162.05L423.8 101.79" stroke="#263238" stroke-width="3" stroke-miterlimit="10"/>
<path d="M453.67 162.05L464.9 101.79" stroke="#263238" stroke-width="3" stroke-miterlimit="10"/>
<path d="M424.76 104.09C424.76 104.09 426.99 115.89 432.33 115.89C437.67 115.89 442.68 98.3 435.67 98.3C428.66 98.3 435.45 121.34 444.36 121.34C453.27 121.34 458.38 98.3 452.15 98.3C445.92 98.3 447.89 116.67 456.46 116.67C461.06 116.67 464.34 104.84 464.34 104.84" stroke="#263238" stroke-miterlimit="10"/>
<path d="M468.32 158.84H420.38V185.23H468.32V158.84Z" fill="#C7C7C7"/>
<path d="M462.89 185.23C460.07 190.23 454.66 194.7 444.35 194.7C434.04 194.7 428.63 190.23 425.81 185.23H462.89Z" fill="#C7C7C7"/>
<path d="M462.89 185.23C462.08 186.66 461.07 188.04 459.78 189.29L426.77 186.76C426.42 186.26 426.1 185.75 425.81 185.23H462.89Z" fill="#A6A6A6"/>
<path d="M469.72 163.87L418.98 168.57V166.26L469.72 161.57V163.87Z" fill="#A6A6A6"/>
<path d="M469.72 170.84L418.98 175.53V173.23L469.72 168.54V170.84Z" fill="#A6A6A6"/>
<path d="M469.72 177.81L418.98 182.5V180.2L469.72 175.5V177.81Z" fill="#A6A6A6"/>
<g opacity="0.5">
<path d="M401.02 87.43C402.78 87.72 405.05 78.65 414.81 68.15C419.14 63.49 435.58 57.65 434.4 52.27C433.22 46.89 418.55 52.42 411.17 60.97C399.3 74.73 399.4 87.16 401.02 87.43Z" fill="white"/>
<path d="M487.51 89.32C490.74 89.32 490.75 84.3 487.51 84.3C484.27 84.3 484.27 89.32 487.51 89.32Z" fill="white"/>
<path d="M471.69 127.11C473.46 128.46 482.04 120.54 485.91 111.09C489.12 103.25 489.67 93.34 487.51 92.76C485.35 92.19 483.95 105.79 481.36 110.79C478.08 117.12 469.8 125.67 471.69 127.11Z" fill="white"/>
</g>
<path d="M478.94 225.03H448.95L433.05 248.69H424.22C423.28 248.69 422.36 248.9 422.18 249.17C422.08 249.33 422.24 249.47 422.58 249.56C423.25 249.75 423.57 250.03 423.35 250.35C422.97 250.91 421.06 251.37 419.09 251.37C417.12 251.37 415.83 250.91 416.21 250.35C416.43 250.03 417.13 249.75 418.05 249.56C418.53 249.47 418.88 249.33 418.98 249.17C419.16 248.9 418.55 248.69 417.6 248.69H408.64L406.9 251.24C406.72 251.51 405.8 251.73 404.86 251.73C404.33 251.73 403.89 251.66 403.63 251.54C403.13 251.31 402.23 251.17 401.12 251.17C399.15 251.17 397.24 251.63 396.85 252.19C396.47 252.75 397.76 253.21 399.74 253.21C400.85 253.21 401.94 253.06 402.75 252.83C403.17 252.72 403.71 252.65 404.24 252.65C405.18 252.65 405.8 252.86 405.62 253.13L403.88 255.69H412.84C413.79 255.69 414.7 255.47 414.89 255.2C414.99 255.05 414.83 254.91 414.48 254.82C413.81 254.63 413.5 254.35 413.71 254.03C414.09 253.46 416 253.01 417.98 253.01C419.95 253.01 421.24 253.46 420.86 254.03C420.64 254.35 419.94 254.63 419.01 254.82C418.54 254.91 418.19 255.05 418.08 255.2C417.9 255.47 418.52 255.69 419.46 255.69H428.34L378.72 329.5H356.37C353.74 329.5 352.33 328.26 353.21 326.72C353.68 325.87 354.8 325.08 356.2 324.53C358.89 323.47 361.02 321.85 361.84 320.05C363.2 316.84 360.15 314.25 355.15 314.25C350.16 314.25 344.8 316.84 343.07 320.05C342.04 321.85 342.45 323.47 343.97 324.53C344.76 325.08 344.97 325.87 344.45 326.72C343.5 328.26 340.57 329.5 337.94 329.5H313.02L299.76 344.03C298.2 345.56 299.27 346.81 302.17 346.81C303.79 346.81 305.69 346.39 307.37 345.73C310.61 344.43 314.39 343.61 317.74 343.61C323.69 343.61 326.28 346.2 323.4 349.4C320.4 352.6 312.75 355.19 306.42 355.19C302.86 355.19 300.56 354.37 299.87 353.07C299.52 352.41 298.42 351.99 296.75 351.99C293.77 351.99 289.97 353.24 288.24 354.77L270.35 369.3H301.11C304.36 369.3 305.55 370.54 303.75 372.08C302.73 372.94 300.89 373.73 298.8 374.27C294.67 375.33 290.82 376.95 288.5 378.75C284.27 381.96 286.64 384.55 293.9 384.55C301.17 384.55 310.27 381.96 314.13 378.75C316.24 376.95 316.3 375.33 314.7 374.27C313.89 373.73 313.9 372.94 314.88 372.08C316.6 370.54 320.6 369.3 323.85 369.3H351.96L306.27 437.27H268.44C264.91 437.27 262.88 436.34 262.88 434.98C262.88 434.42 263.23 433.78 263.96 433.11C265.34 431.83 267.91 430.65 270.88 429.84C276.64 428.25 281.68 425.83 284.35 423.14C288.95 418.35 284.68 414.47 274.96 414.47C265.25 414.47 253.34 418.35 248.22 423.14C245.27 425.83 245.19 428.25 247.54 429.84C248.12 430.23 248.42 430.7 248.42 431.23C248.42 431.8 248.06 432.44 247.31 433.11C244.7 435.41 238.52 437.27 233.54 437.27H186.33L158.54 457.18H40.27L237.15 329.38H261.49C264.62 329.38 265.57 330.38 263.59 331.61C262.48 332.3 260.59 332.93 258.5 333.37C254.39 334.22 250.48 335.52 248.01 336.97C243.56 339.54 245.48 341.62 252.37 341.62C259.26 341.62 268.29 339.54 272.47 336.97C274.78 335.52 275.1 334.22 273.75 333.37C273.06 332.93 273.21 332.3 274.29 331.61C276.2 330.38 280.28 329.38 283.41 329.38H313.06L328.19 317.72C329.68 316.49 328.49 315.49 325.56 315.49C323.92 315.49 322 315.82 320.3 316.35C316.94 317.39 312.97 318.06 309.48 318.06C303.27 318.06 301.06 315.97 304.45 313.41C307.75 310.84 315.16 308.76 321.09 308.76C324.43 308.76 326.65 309.42 327.41 310.46C327.8 310.99 328.9 311.32 330.5 311.32C333.38 311.32 336.83 310.33 338.2 309.09L350.18 297.43H324.82C322.15 297.43 321.08 296.43 322.42 295.2C323.16 294.51 324.54 293.88 326.14 293.44C329.23 292.59 331.94 291.29 333.37 289.84C335.84 287.27 333.55 285.19 328.33 285.19C323.11 285.19 316.72 287.27 313.97 289.84C312.38 291.29 312.34 292.59 313.6 293.44C314.25 293.88 314.25 294.51 313.47 295.2C312.08 296.43 308.76 297.43 306.08 297.43H286.37L397.91 225.03H367.93L445.25 206.96L478.94 225.03Z" fill="#FFC727"/>
<path d="M286.85 313.41C283.24 315.97 275.22 318.06 269.02 318.06C265.53 318.06 263.41 317.39 262.96 316.35C262.72 315.82 261.72 315.49 260.08 315.49C259.54 315.49 258.98 315.53 258.4 315.59L265.09 311.24C265.45 311.29 265.87 311.32 266.34 311.32C267.95 311.32 269.91 310.99 271.7 310.46C275.17 309.42 279.1 308.76 282.43 308.76C288.36 308.76 290.37 310.84 286.85 313.41Z" fill="#FFC727"/>
<path d="M367.09 346.8L363.59 352C363.49 352 363.38 351.99 363.28 351.99C361.61 351.99 359.76 352.41 358.2 353.07C355.11 354.37 351.25 355.19 347.69 355.19C341.36 355.19 338.53 352.6 341.23 349.4C343.8 346.2 350.61 343.61 356.56 343.61C359.91 343.61 362.37 344.43 363.49 345.73C364.06 346.39 365.28 346.81 366.9 346.81C366.96 346.81 367.02 346.8 367.09 346.8Z" fill="#FFC727"/>
<path d="M306.26 437.27L297.23 450.71L306.26 437.27Z" fill="white"/>
<path opacity="0.1" d="M516.03 417.19C583.376 417.19 637.97 411.988 637.97 405.57C637.97 399.152 583.376 393.95 516.03 393.95C448.684 393.95 394.09 399.152 394.09 405.57C394.09 411.988 448.684 417.19 516.03 417.19Z" fill="#000102"/>
<path opacity="0.1" d="M108.04 393.21C167.709 393.21 216.08 388.008 216.08 381.59C216.08 375.172 167.709 369.97 108.04 369.97C48.3712 369.97 0 375.172 0 381.59C0 388.008 48.3712 393.21 108.04 393.21Z" fill="#000102"/>
<path d="M205.73 54.81C204.23 69.13 191.4 79.53 177.08 78.03C171.29 77.42 166.15 74.97 162.16 71.3L149.12 73.21L155.65 61.93C154.07 58.08 153.4 53.79 153.86 49.38C155.36 35.06 168.19 24.66 182.51 26.16C196.83 27.66 207.23 40.49 205.73 54.81Z" fill="white"/>
<path d="M205.73 54.81C205.19 59.57 203.44 64.24 200.47 68.03C199.79 69.02 198.91 69.85 198.11 70.75C197.2 71.54 196.36 72.4 195.36 73.08C193.45 74.55 191.31 75.7 189.07 76.58C186.84 77.52 184.44 77.97 182.05 78.25C180.84 78.31 179.64 78.42 178.43 78.32C177.22 78.29 176.01 78.16 174.82 77.94C170.05 77.08 165.53 74.84 161.92 71.57L162.23 71.67L149.2 73.67L148.25 73.82L148.73 72.99L155.22 61.69L155.19 62.14C152.03 54.7 152.74 45.84 156.8 38.9C158.82 35.43 161.64 32.44 164.97 30.2C168.29 27.96 172.15 26.56 176.1 26.02C180.05 25.5 184.12 25.86 187.89 27.11C191.66 28.38 195.11 30.51 197.95 33.28C203.68 38.75 206.58 46.96 205.73 54.81ZM205.73 54.81C206.52 46.95 203.57 38.79 197.81 33.39C194.95 30.69 191.49 28.64 187.76 27.46C184.02 26.29 180.02 26.01 176.16 26.59C172.31 27.18 168.58 28.61 165.39 30.84C162.21 33.07 159.53 35.99 157.59 39.35C155.61 42.7 154.59 46.53 154.28 50.38C154.04 54.24 154.67 58.15 156.12 61.74L156.21 61.97L156.09 62.18L149.53 73.43L149.06 72.74L162.12 70.91L162.3 70.88L162.43 71C165.88 74.24 170.25 76.5 174.92 77.43C176.09 77.67 177.27 77.81 178.46 77.86C179.65 77.99 180.84 77.9 182.03 77.85C184.39 77.61 186.77 77.21 188.99 76.32C191.22 75.48 193.38 74.39 195.28 72.93C196.28 72.27 197.13 71.41 198.03 70.63C198.83 69.74 199.71 68.92 200.4 67.94C203.38 64.21 205.15 59.57 205.73 54.81Z" fill="#263238"/>
<path d="M173.73 53.02C173.73 54.34 174.79 55.41 176.12 55.41C176.86 55.41 177.53 55.07 177.96 54.54C178.19 54.26 178.51 54.1 178.86 54.1C179.49 54.1 180.01 54.61 180.01 55.24V61.21H163.63V55.24C163.63 54.61 164.13 54.1 164.77 54.1C165.12 54.1 165.45 54.26 165.67 54.54C166.11 55.07 166.78 55.41 167.52 55.41C168.83 55.41 169.91 54.35 169.91 53.02C169.91 51.71 168.84 50.63 167.52 50.63C166.78 50.63 166.11 50.97 165.67 51.51C165.44 51.78 165.12 51.95 164.77 51.95C164.14 51.95 163.63 51.43 163.63 50.81V44.82H169.6C170.23 44.82 170.74 44.32 170.74 43.68C170.74 43.33 170.58 43 170.3 42.78C169.77 42.34 169.43 41.68 169.43 40.93C169.43 39.62 170.49 38.54 171.82 38.54C173.13 38.54 174.21 39.61 174.21 40.93C174.21 41.68 173.87 42.34 173.33 42.78C173.06 43.01 172.89 43.33 172.89 43.68C172.89 44.31 173.41 44.82 174.03 44.82H180V50.81C180 51.43 179.48 51.95 178.85 51.95C178.5 51.95 178.17 51.78 177.95 51.51C177.52 50.97 176.85 50.63 176.11 50.63C174.79 50.63 173.73 51.7 173.73 53.02Z" fill="#FFC727"/>
<path d="M196.73 42.76L199.28 58.94L193.38 59.87C192.75 59.97 192.18 59.55 192.08 58.92C192.02 58.57 192.13 58.23 192.37 57.96C192.82 57.44 193.06 56.73 192.94 56C192.74 54.7 191.52 53.81 190.21 54.01C188.91 54.21 188.03 55.44 188.24 56.74C188.36 57.47 188.79 58.08 189.39 58.43C189.69 58.61 189.91 58.9 189.97 59.25C190.07 59.88 189.64 60.46 189.02 60.55L183.11 61.48L182.18 55.58C182.08 54.95 181.5 54.53 180.88 54.63C180.53 54.69 180.24 54.89 180.06 55.21C179.72 55.8 179.11 56.24 178.38 56.36C177.07 56.57 175.86 55.68 175.65 54.37C175.45 53.08 176.33 51.85 177.64 51.64C178.37 51.52 179.08 51.76 179.59 52.22C179.85 52.45 180.2 52.57 180.55 52.51C181.18 52.41 181.59 51.82 181.5 51.21L180.57 45.3L186.48 44.37C187.1 44.27 187.69 44.7 187.78 45.33C187.84 45.68 187.72 46.03 187.49 46.29C187.03 46.8 186.8 47.51 186.92 48.24C187.13 49.55 188.34 50.43 189.64 50.23C190.95 50.02 191.83 48.81 191.63 47.5C191.51 46.77 191.07 46.16 190.48 45.82C190.17 45.64 189.96 45.35 189.9 45C189.8 44.37 190.22 43.79 190.85 43.69L196.73 42.76Z" fill="#455A64"/>
<path d="M415.51 406.14C413.15 405.42 415.04 398.61 417.58 396.45C418.39 395.77 421.42 394.11 425.22 392.15C433.59 387.83 445.63 382.04 445.63 382.04L434 338.3L476.35 337.34C476.35 337.34 489.07 378.36 489.08 380.93C489.08 381.09 489.08 381.25 489.08 381.41C489.05 393.09 488.74 402.66 487.79 403.28C485.28 404.98 417.89 406.86 415.51 406.14Z" fill="#EB9481"/>
<path d="M415.51 406.14C417.89 406.87 485.28 404.99 487.8 403.29C488.74 402.66 489.05 393.1 489.09 381.42C489.09 381.26 489.09 381.1 489.08 380.94C489.08 380.39 488.5 378.08 487.58 374.8L444.03 376.02L445.63 382.04C445.63 382.04 433.58 387.84 425.22 392.15C421.42 394.12 418.39 395.77 417.58 396.46C415.03 398.61 413.15 405.42 415.51 406.14Z" fill="#EBEBEB"/>
<path d="M414.76 406.54C417.18 407.28 485.8 405.27 488.36 403.53C489.35 402.89 489.64 392.87 489.64 380.76C489.64 380.63 489.64 380.51 489.64 380.38L445.36 381.18L445.4 381.93C445.4 381.93 419.48 394.45 416.86 396.65C414.26 398.85 412.34 405.81 414.76 406.54Z" fill="#FFC727"/>
<path d="M415.46 403.85C427.02 403.23 473.69 401.81 485.17 402.07C485.26 402.07 485.27 402.14 485.17 402.14C473.73 403.01 427.04 404.05 415.47 404.03C415.22 404.04 415.22 403.87 415.46 403.85Z" fill="#263238"/>
<path d="M440.43 381.45C444.96 380.47 450.54 381 454.12 384.14C454.26 384.26 454.08 384.46 453.93 384.41C449.4 383.13 445.18 382.34 440.46 382.02C440.13 382.01 440.1 381.52 440.43 381.45Z" fill="#263238"/>
<path d="M437.2 383.53C441.73 382.55 447.31 383.08 450.89 386.22C451.03 386.34 450.85 386.54 450.7 386.49C446.17 385.21 441.95 384.42 437.23 384.1C436.9 384.08 436.88 383.6 437.2 383.53Z" fill="#263238"/>
<path d="M433.97 385.61C438.5 384.63 444.08 385.16 447.66 388.3C447.8 388.42 447.62 388.62 447.47 388.57C442.94 387.29 438.72 386.5 434 386.18C433.68 386.16 433.65 385.68 433.97 385.61Z" fill="#263238"/>
<path d="M436.45 378.12C439.74 380.53 443.96 381.43 447.76 382.71C448.15 382.84 448.45 382.47 448.46 382.12C448.53 382.1 448.6 382.05 448.56 381.95C447.21 378.18 444.4 374.22 441.25 371.73C439.3 370.19 435.94 369.18 434.22 371.69C432.6 374.08 434.53 376.72 436.45 378.12ZM435.18 374.49C434.23 369.52 439.67 371.99 441.06 373.18C441.95 373.95 442.77 374.84 443.55 375.72C445.18 377.56 446.52 379.61 447.95 381.6C446.12 380.86 444.25 380.27 442.39 379.6C440.19 378.79 435.71 377.23 435.18 374.49Z" fill="#263238"/>
<path d="M463.55 374.58C462.37 371.77 458.87 372.1 456.66 373.22C453.08 375.04 449.53 378.36 447.46 381.79C447.41 381.87 447.46 381.94 447.53 381.97C447.46 382.31 447.68 382.74 448.1 382.69C452.08 382.19 456.39 382.14 460.1 380.43C462.26 379.43 464.67 377.23 463.55 374.58ZM453.97 380.69C452.02 380.98 450.07 381.18 448.13 381.55C449.93 379.88 451.65 378.15 453.61 376.66C454.55 375.95 455.53 375.24 456.55 374.67C458.15 373.78 463.97 372.44 462.05 377.12C461 379.71 456.3 380.34 453.97 380.69Z" fill="#263238"/>
<path d="M536.02 308.04C536.02 308.04 544.38 335.31 531.36 343.81C522.67 349.49 483.36 343.08 481.56 338.29C478.16 329.25 478.06 325.9 478.06 325.9L489.46 374.02L440.22 375.98C440.22 375.98 429.85 336.2 431.03 293.63C431.47 277.89 452.46 272.54 467.37 279.95C481.83 287.13 507.93 307.45 507.93 307.45L536.02 308.04Z" fill="#263238"/>
<path d="M484.5 345.78C481.66 339.36 481.8 336.8 474.6 316.83C473.64 314.16 472.82 311.44 471.95 308.74C471.05 305.94 470 303.15 469.3 300.29C469.27 300.15 469.04 300.22 469.09 300.35C469.93 302.82 470.49 305.38 471.22 307.88C471.93 310.33 472.66 312.78 473.42 315.22C473.75 316.27 474.09 317.32 474.42 318.37C474.28 318.15 474.14 317.94 474.01 317.73C473.4 316.75 472.79 315.78 472.16 314.81C470.86 312.83 469.3 310.97 468.16 308.89C468.09 308.76 467.89 308.88 467.97 309C469.28 310.98 470.23 313.19 471.46 315.22C472.06 316.21 472.68 317.17 473.32 318.13C473.88 318.98 474.45 319.94 475.16 320.69C476.15 323.78 478.3 331.22 479.36 334.29C482.68 343.95 481.59 340.81 484.01 345.98C484.14 346.26 484.62 346.05 484.5 345.78Z" fill="#37474F"/>
<path d="M462.64 366.77C470.05 366.48 477.44 365.86 484.85 365.51C484.99 365.5 485.01 365.28 484.86 365.29C477.47 365.45 470.08 365.37 462.69 365.67C455.28 365.97 447.89 366.54 440.49 367C440.3 367.01 440.28 367.31 440.47 367.3C447.87 367.1 455.25 367.06 462.64 366.77Z" fill="#37474F"/>
<path d="M480.74 363.79C479.97 360.54 478.93 357.34 477.98 354.14C477.02 350.93 476.07 347.73 475.08 344.53C473.11 338.13 471.07 331.75 469.03 325.38C467.87 321.76 466.63 318.16 465.41 314.56C465.38 314.46 465.22 314.5 465.25 314.61C468.92 327.49 472.85 340.29 476.99 353.02C478.17 356.63 479.24 360.3 480.62 363.84C480.66 363.89 480.76 363.86 480.74 363.79Z" fill="#37474F"/>
<path opacity="0.1" d="M531.36 343.81C544.38 335.31 536.02 308.04 536.02 308.04L512.35 307.55L480.97 336.73C481.15 337.23 481.34 337.76 481.55 338.3C483.35 343.08 522.66 349.49 531.36 343.81Z" fill="#000102"/>
<path opacity="0.1" d="M439.94 374.88C440.12 375.61 440.22 375.99 440.22 375.99L489.46 374.03L480.69 337L439.94 374.88Z" fill="#000102"/>
<path d="M639.75 406.89C640.26 409.31 633.38 410.93 630.26 409.74C629.27 409.36 626.36 407.5 622.81 405.12C615 399.87 604.12 392.1 604.12 392.1L567.99 395.3L546.75 358.65C546.75 358.65 579.98 355.79 582.23 354.55C582.37 354.47 582.51 354.4 582.65 354.32C592.9 348.73 601.43 344.39 602.44 344.91C605.13 346.3 639.23 404.45 639.75 406.89Z" fill="#EB9481"/>
<path d="M575.9 355.69L596 392.83L604.11 392.11C604.11 392.11 614.99 399.87 622.8 405.13C626.35 407.51 629.25 409.37 630.25 409.75C633.37 410.95 640.26 409.31 639.75 406.9C639.24 404.47 605.13 346.32 602.43 344.92C601.43 344.4 592.89 348.73 582.64 354.33C582.5 354.4 582.36 354.48 582.23 354.56C581.67 354.85 579.25 355.26 575.9 355.69Z" fill="#EBEBEB"/>
<path d="M640.46 407.35C639.94 404.87 605.13 345.71 602.38 344.3C601.34 343.75 592.42 348.32 581.81 354.15C581.7 354.21 581.59 354.27 581.48 354.34L603.51 392.76L604.15 392.36C604.15 392.36 627.6 409.05 630.8 410.28C633.97 411.49 640.98 409.82 640.46 407.35Z" fill="#FFC727"/>
<path d="M637.77 408.03C631.66 398.2 607.93 357.98 602.64 347.8C602.6 347.72 602.65 347.68 602.7 347.76C608.97 357.37 632.37 397.78 637.93 407.93C638.05 408.15 637.9 408.24 637.77 408.03Z" fill="#263238"/>
<path d="M606.11 396.94C603.07 393.45 600.85 388.29 601.88 383.65C601.92 383.47 602.17 383.53 602.21 383.68C603.27 388.27 604.61 392.35 606.6 396.63C606.74 396.93 606.33 397.19 606.11 396.94Z" fill="#263238"/>
<path d="M609.48 398.77C606.44 395.28 604.22 390.12 605.25 385.48C605.29 385.3 605.55 385.36 605.58 385.51C606.64 390.1 607.98 394.18 609.97 398.46C610.11 398.76 609.7 399.02 609.48 398.77Z" fill="#263238"/>
<path d="M612.86 400.6C609.82 397.11 607.6 391.95 608.63 387.31C608.67 387.13 608.92 387.19 608.96 387.34C610.02 391.93 611.36 396.01 613.35 400.29C613.49 400.59 613.08 400.85 612.86 400.6Z" fill="#263238"/>
<path d="M605.11 402.03C605.64 397.98 604.39 393.85 603.69 389.91C603.62 389.5 603.14 389.42 602.84 389.58C602.79 389.52 602.71 389.5 602.64 389.57C599.99 392.57 597.87 396.94 597.21 400.9C596.8 403.35 597.53 406.78 600.56 407.07C603.42 407.36 604.8 404.39 605.11 402.03ZM602.54 404.89C598.64 408.11 598.18 402.16 598.56 400.37C598.8 399.22 599.19 398.07 599.58 396.97C600.41 394.65 601.55 392.49 602.61 390.28C602.84 392.24 603.23 394.16 603.53 396.11C603.89 398.43 604.69 403.11 602.54 404.89Z" fill="#263238"/>
<path d="M588.95 379.99C587.06 382.38 589.03 385.29 591.08 386.69C594.4 388.95 599.02 390.46 603.02 390.62C603.12 390.62 603.16 390.55 603.15 390.47C603.48 390.36 603.75 389.97 603.5 389.63C601.14 386.39 599.03 382.63 595.74 380.2C593.83 378.78 590.73 377.73 588.95 379.99ZM598.92 385.44C600.12 387.01 601.23 388.62 602.49 390.15C600.16 389.38 597.82 388.71 595.57 387.7C594.5 387.22 593.41 386.7 592.41 386.08C590.86 385.11 586.88 380.65 591.91 380.08C594.67 379.75 597.49 383.57 598.92 385.44Z" fill="#263238"/>
<path d="M504.67 302.19C504.67 302.19 503.74 313.65 504.1 322.39C504.1 322.39 458 348.22 456.52 371.59C456 379.87 457.53 395.3 473.92 401.9C492.23 409.27 592.03 401.04 592.03 401.04L578.25 355.37L534.17 356.63C534.17 356.63 565.42 360.7 568.21 339.88C570.81 320.53 558.41 300.69 558.41 300.69L504.67 302.19Z" fill="#263238"/>
<path d="M581.63 399.07C580.38 393.8 579.16 388.5 577.79 383.26C576.41 378.01 574.95 372.78 573.41 367.58C572.98 366.11 572.53 364.65 572.09 363.18C571.88 362.48 571.67 361.78 571.44 361.09C571.21 360.39 571.03 359.66 570.74 358.99C570.71 358.91 570.62 358.96 570.63 359.03C570.79 360.38 571.21 361.76 571.54 363.08C571.85 364.35 572.16 365.63 572.47 366.9C573.12 369.51 573.78 372.12 574.46 374.73C575.82 379.96 577.3 385.13 578.82 390.31C579.68 393.25 580.54 396.19 581.41 399.13C581.46 399.29 581.68 399.25 581.63 399.07Z" fill="#37474F"/>
<path d="M549.38 356.19C545.8 356.03 542.22 356.02 538.64 356.05C535.06 356.08 531.48 356.22 527.9 356.38C524.32 356.6 520.75 356.84 517.19 357.26C513.63 357.69 510.07 358.18 506.6 359.09L509.25 358.67L511.91 358.34C513.69 358.14 515.46 357.94 517.24 357.81C520.8 357.51 524.37 357.26 527.94 357.1C531.51 356.88 535.08 356.75 538.66 356.6L549.38 356.19Z" fill="#37474F"/>
<path d="M548.71 304.73C550.43 308.79 551.93 312.93 553.22 317.13C554.5 321.33 555.55 325.62 556.13 329.96C556.41 332.13 556.56 334.32 556.45 336.49C556.34 338.65 555.97 340.83 555.04 342.74C554.58 343.7 553.95 344.56 553.2 345.29C552.42 346.02 551.55 346.65 550.63 347.21C548.78 348.31 546.75 349.13 544.68 349.8C540.52 351.12 536.19 351.87 531.85 352.5C527.5 353.13 523.13 353.61 518.75 354.18C514.38 354.75 509.99 355.4 505.7 356.59C503.57 357.19 501.41 357.94 499.47 359.09C497.52 360.23 495.75 361.57 494.1 363.13L493.13 364.04L494.47 363.98L530.1 362.5L547.92 361.86C553.86 361.67 559.8 361.49 565.75 361.49C559.81 361.31 553.86 361.39 547.91 361.45C541.96 361.52 536.02 361.67 530.08 361.82L512.25 362.33L494.43 363L494.8 363.85C496.36 362.39 498.12 361.06 499.98 359.99C501.83 358.9 503.88 358.2 505.98 357.62C510.19 356.48 514.54 355.86 518.89 355.25C523.25 354.66 527.63 354.16 531.99 353.51C536.35 352.85 540.73 352.08 544.97 350.71C547.08 350.02 549.17 349.16 551.08 347.98C552.03 347.38 552.95 346.7 553.77 345.92C554.59 345.11 555.27 344.15 555.74 343.11C556.71 341.04 557.05 338.77 557.14 336.55C557.22 334.32 557.04 332.1 556.72 329.91C556.09 325.52 554.91 321.25 553.54 317.06C552.16 312.84 550.56 308.73 548.71 304.73Z" fill="#37474F"/>
<path d="M509.75 301.56C509.75 301.46 509.58 301.46 509.58 301.56C509.44 303.16 509.14 312.28 508.96 315.72C508.9 316.95 509.02 319.12 507.24 319.17C505.83 319.21 505.08 317.69 504.89 316.5C504.66 315.05 505.14 304.46 505.22 300.94C505.22 300.84 505.06 300.84 505.05 300.94C504.5 304.48 503.56 315.73 503.98 317.29C504.31 318.51 504.97 319.67 506.24 320.05C506.27 320.06 506.08 321.7 506.42 324.2C506.44 324.31 506.79 324.34 506.82 324.24H506.83C506.75 323.42 507.09 320.21 507.08 320.2C508 320.17 508.72 319.94 509.32 319.1C510.5 317.4 509.9 305.62 509.75 301.56Z" fill="#37474F"/>
<path d="M515.56 328.42C514.26 327.58 512.92 326.81 511.57 326.06C510.22 325.3 508.85 324.61 507.47 323.92C506.08 323.25 504.69 322.58 503.27 321.98C501.85 321.37 500.42 320.79 498.94 320.32C499.61 320.7 500.3 321.05 500.98 321.42L503.03 322.49C504.39 323.21 505.77 323.89 507.15 324.58C508.54 325.25 509.92 325.93 511.32 326.57L513.43 327.53C514.14 327.82 514.84 328.14 515.56 328.42Z" fill="#37474F"/>
<path d="M548.56 320.17C546.08 320.23 538.35 320.9 534.58 317.89C531.53 315.45 529.97 306.88 529.39 304.53C529.36 304.41 529.19 304.46 529.19 304.57C529.18 307.22 529.64 309.91 530.41 312.44C531.07 314.6 531.95 317.01 533.75 318.49C535.65 320.05 538.18 320.54 540.56 320.77C543.25 321.03 545.92 320.87 548.57 320.43C548.74 320.41 548.74 320.16 548.56 320.17Z" fill="#37474F"/>
<path d="M505.83 256.56C503.04 270.35 501.07 294.17 490.72 300.96C480.87 307.42 451.74 291.79 442.89 286.16C439.68 284.12 455.15 261.46 458.8 262.75C465.67 265.19 480.65 274.03 482.23 273.12C483.87 272.17 487.94 264.05 497.29 248.88C502.96 239.68 508.98 241.01 505.83 256.56Z" fill="#EB9481"/>
<path d="M445.87 287.71C442.79 286.87 429.01 281.75 425.49 279.47C421.97 277.19 412.33 269.89 413.8 267.02C415.27 264.15 418.27 266.06 418.27 266.06C418.27 266.06 414.69 262.33 416.43 259.58C418.18 256.83 422.74 259.95 422.74 259.95C422.74 259.95 419.34 255.85 421.28 253.23C423.22 250.61 427.28 254.52 427.28 254.52C427.28 254.52 423.99 250.92 426.5 249.43C429.51 247.64 434.82 254.96 438.89 257.19C439.81 257.7 458.36 266.11 458.36 266.11L445.87 287.71Z" fill="#EB9481"/>
<path d="M426.92 254.19C430.84 259.56 433.48 261.24 439.56 263.65C439.68 263.7 439.64 263.88 439.51 263.85C433.34 262.03 429.72 260.4 426.65 254.37C426.5 254.07 426.73 253.94 426.92 254.19Z" fill="#263238"/>
<path d="M422.43 259.52C426.98 264.75 429.83 266.59 436.02 269.59C436.11 269.63 436.04 269.79 435.95 269.75C429.64 267.32 426.07 265.61 422.2 259.8C422.03 259.53 422.23 259.28 422.43 259.52Z" fill="#263238"/>
<path d="M418.59 266.2C423.36 270.94 426.4 273.09 432.78 275.24C432.93 275.29 432.87 275.51 432.72 275.48C426 273.93 422.19 271.27 418.47 266.37C418.21 266.03 418.29 265.91 418.59 266.2Z" fill="#263238"/>
<path d="M391.38 225.24L409.95 221.43C411.91 221.03 413.57 222.66 413.66 225.07C413.71 226.42 413.23 227.77 412.41 228.8C410.81 230.81 409.85 233.57 409.95 236.41C410.13 241.46 413.59 244.86 417.68 244.02C421.77 243.18 424.94 238.42 424.75 233.37C424.65 230.53 423.5 228.2 421.78 226.87C420.9 226.19 420.33 225.05 420.28 223.7C420.19 221.28 421.71 219 423.67 218.6L440.14 212.88L442.24 214.79L443.07 237.67C443.16 240.09 444.82 241.72 446.78 241.31C447.88 241.09 448.86 240.23 449.52 239.04C450.8 236.72 452.82 235 455.13 234.52C459.23 233.68 462.69 237.08 462.87 242.12C463.05 247.16 459.88 251.92 455.79 252.76C453.48 253.23 451.37 252.36 449.94 250.59C449.21 249.69 448.17 249.24 447.08 249.47C445.12 249.87 443.6 252.16 443.69 254.57L444.52 277.45L425.95 281.26C423.99 281.66 422.33 280.03 422.24 277.62C422.19 276.27 422.67 274.92 423.49 273.89C425.09 271.88 426.05 269.12 425.95 266.28C425.77 261.23 422.31 257.83 418.22 258.67C414.13 259.51 410.96 264.27 411.15 269.32C411.25 272.16 412.4 274.49 414.12 275.82C415 276.5 415.57 277.64 415.62 278.99C415.71 281.41 414.19 283.69 412.23 284.09L393.66 287.9L391.56 285.99L392.84 265.02C392.75 262.6 391.09 260.97 389.13 261.37C388.03 261.6 387.05 262.45 386.39 263.64C385.11 265.96 383.09 267.68 380.78 268.16C376.68 269 373.22 265.6 373.04 260.56C372.86 255.52 376.03 250.76 380.12 249.92C382.43 249.45 384.54 250.32 385.97 252.09C386.7 252.99 387.74 253.44 388.83 253.21C390.79 252.81 392.31 250.52 392.22 248.11L391.38 225.24Z" fill="#455A64"/>
<path opacity="0.1" d="M391.38 225.24L409.95 221.43C411.91 221.03 413.57 222.66 413.66 225.07C413.71 226.42 413.23 227.77 412.41 228.8C410.81 230.81 409.85 233.57 409.95 236.41C410.13 241.46 413.59 244.86 417.68 244.02C421.77 243.18 424.94 238.42 424.75 233.37C424.65 230.53 423.5 228.2 421.78 226.87C420.9 226.19 420.33 225.05 420.28 223.7C420.19 221.28 421.71 219 423.67 218.6L440.14 212.88L442.24 214.79L443.07 237.67C443.16 240.09 444.82 241.72 446.78 241.31C447.88 241.09 448.86 240.23 449.52 239.04C450.8 236.72 452.82 235 455.13 234.52C459.23 233.68 462.69 237.08 462.87 242.12C463.05 247.16 459.88 251.92 455.79 252.76C453.48 253.23 451.37 252.36 449.94 250.59C449.21 249.69 448.17 249.24 447.08 249.47C445.12 249.87 443.6 252.16 443.69 254.57L444.52 277.45L425.95 281.26C423.99 281.66 422.33 280.03 422.24 277.62C422.19 276.27 422.67 274.92 423.49 273.89C425.09 271.88 426.05 269.12 425.95 266.28C425.77 261.23 422.31 257.83 418.22 258.67C414.13 259.51 410.96 264.27 411.15 269.32C411.25 272.16 412.4 274.49 414.12 275.82C415 276.5 415.57 277.64 415.62 278.99C415.71 281.41 414.19 283.69 412.23 284.09L393.66 287.9L391.56 285.99L392.84 265.02C392.75 262.6 391.09 260.97 389.13 261.37C388.03 261.6 387.05 262.45 386.39 263.64C385.11 265.96 383.09 267.68 380.78 268.16C376.68 269 373.22 265.6 373.04 260.56C372.86 255.52 376.03 250.76 380.12 249.92C382.43 249.45 384.54 250.32 385.97 252.09C386.7 252.99 387.74 253.44 388.83 253.21C390.79 252.81 392.31 250.52 392.22 248.11L391.38 225.24Z" fill="#020100"/>
<path d="M389.28 223.33L407.85 219.52C409.81 219.12 411.47 220.75 411.56 223.16C411.61 224.51 411.13 225.86 410.31 226.89C408.71 228.9 407.75 231.66 407.85 234.5C408.03 239.55 411.49 242.95 415.58 242.11C419.67 241.27 422.84 236.51 422.65 231.46C422.55 228.62 421.4 226.29 419.68 224.96C418.8 224.28 418.23 223.14 418.18 221.79C418.09 219.37 419.61 217.09 421.57 216.69L440.14 212.88L440.97 235.76C441.06 238.18 442.72 239.81 444.68 239.41C445.78 239.18 446.76 238.33 447.42 237.14C448.7 234.82 450.72 233.1 453.03 232.62C457.13 231.78 460.59 235.18 460.77 240.22C460.95 245.26 457.78 250.02 453.69 250.86C451.38 251.33 449.27 250.46 447.84 248.69C447.11 247.79 446.07 247.34 444.98 247.57C443.02 247.97 441.5 250.26 441.59 252.67L442.42 275.55L423.85 279.36C421.89 279.76 420.23 278.13 420.14 275.72C420.09 274.37 420.57 273.02 421.39 271.99C422.99 269.98 423.95 267.22 423.85 264.38C423.67 259.33 420.21 255.93 416.12 256.77C412.03 257.61 408.86 262.37 409.05 267.42C409.15 270.26 410.3 272.59 412.02 273.92C412.9 274.6 413.47 275.74 413.52 277.09C413.61 279.51 412.09 281.79 410.13 282.19L391.54 286L390.71 263.12C390.62 260.7 388.96 259.07 387 259.48C385.9 259.71 384.92 260.56 384.26 261.75C382.98 264.07 380.96 265.79 378.65 266.27C374.55 267.11 371.09 263.71 370.91 258.67C370.73 253.63 373.9 248.87 377.99 248.03C380.3 247.56 382.41 248.43 383.84 250.2C384.57 251.1 385.61 251.55 386.7 251.32C388.66 250.92 390.18 248.63 390.09 246.22L389.28 223.33Z" fill="#455A64"/>
<path d="M462.89 265.64C462.89 265.64 458.6 258.5 456.02 255.78C453.44 253.06 440.11 246.45 438.52 249.25C436.47 252.86 443.41 258.2 447.16 260.36C447.16 260.36 442.4 268.72 446.56 273.62C450.71 278.52 462.89 265.64 462.89 265.64Z" fill="#EB9481"/>
<path d="M438.28 250.42C438.78 255.07 443.88 257.59 447.36 259.97C447.62 260.15 447.57 260.43 447.39 260.6C445.63 264.24 444.2 269.88 446.29 273.59C446.35 273.7 446.21 273.8 446.13 273.7C443.35 270.02 444.3 264.36 446.48 260.5C442.88 258.12 437.88 255.36 438.23 250.42C438.24 250.4 438.28 250.39 438.28 250.42Z" fill="#263238"/>
<path d="M465.52 263.21L451.93 292.83C451.93 292.83 483.66 309.27 491.63 303.36C500.81 296.56 506.83 271.59 507.1 251.39C507.29 237.41 499.54 240.58 495.17 249.18C490.61 258.14 482.04 271.86 481.13 271.91C480.22 271.97 465.52 263.21 465.52 263.21Z" fill="#37474F"/>
<path d="M471.54 298.79C471.37 298.57 471.06 298.26 470.71 298.11C470.01 297.79 469.11 297.98 468.54 298.56C468.19 298.96 467.67 299.12 467.14 299.02C466.89 298.99 466.64 298.88 466.38 298.67C466.09 298.5 465.83 298.31 465.53 298.16C465.7 298.45 465.93 298.7 466.11 298.97C466.24 299.14 466.42 299.33 466.63 299.46C466.64 299.47 466.65 299.47 466.66 299.48C466.75 299.55 466.85 299.6 466.96 299.64C467.06 299.68 467.18 299.72 467.29 299.73C467.3 299.73 467.3 299.73 467.31 299.73C467.96 299.85 468.68 299.6 469.12 299.12C469.44 298.76 469.99 298.61 470.51 298.71C470.79 298.76 471.01 298.88 471.27 299.08C471.55 299.27 471.81 299.46 472.12 299.61C471.95 299.32 471.75 299.07 471.54 298.79ZM467.96 264.66V264.65C467.67 264.48 467.4 264.32 467.15 264.18C467.43 264.36 467.69 264.55 467.99 264.7C467.98 264.69 467.97 264.67 467.96 264.66ZM465.11 264.1C465.44 263.81 465.92 263.7 466.38 263.79C466.47 263.81 466.55 263.83 466.63 263.86C465.93 263.46 465.52 263.21 465.52 263.21L465.11 264.1ZM492.1 271.08C491.91 270.83 491.62 270.53 491.27 270.4C490.57 270.08 489.65 270.26 489.09 270.84C488.75 271.23 488.23 271.39 487.7 271.3C487.42 271.25 487.2 271.16 486.94 270.95C486.65 270.78 486.39 270.59 486.09 270.42C486.26 270.71 486.46 270.96 486.65 271.24C486.86 271.5 487.16 271.78 487.52 271.9C488.24 272.2 489.14 271.98 489.66 271.39C490 271.03 490.55 270.87 491.06 271C491.35 271.04 491.57 271.15 491.83 271.36C492.11 271.53 492.37 271.72 492.68 271.9C492.51 271.6 492.28 271.35 492.1 271.08ZM484.4 288.11C484.11 287.39 483.28 286.92 482.51 286.94C482.02 286.97 481.52 286.69 481.23 286.25C481.08 286.01 481.02 285.77 480.97 285.44C480.88 285.11 480.83 284.79 480.74 284.48C480.65 284.8 480.63 285.12 480.58 285.45C480.52 285.75 480.52 286.19 480.67 286.52C480.94 287.24 481.73 287.75 482.52 287.75C483.05 287.72 483.53 287.96 483.84 288.4C484.01 288.64 484.09 288.87 484.14 289.19C484.2 289.52 484.25 289.84 484.36 290.17C484.45 289.83 484.48 289.52 484.53 289.18C484.58 288.86 484.55 288.44 484.4 288.11ZM456.02 290.96C455.73 290.24 454.9 289.76 454.13 289.78C453.88 289.8 453.62 289.74 453.4 289.61L453.09 290.29C453.4 290.49 453.76 290.59 454.13 290.59C454.67 290.56 455.15 290.8 455.45 291.24C455.62 291.48 455.71 291.72 455.76 292.03C455.82 292.37 455.87 292.68 455.98 293.01C456.07 292.67 456.1 292.36 456.15 292.02C456.2 291.7 456.16 291.29 456.02 290.96ZM500.97 283.25C500.62 283.63 500.07 283.78 499.56 283.68C499.3 283.6 499.07 283.49 498.79 283.28C498.5 283.11 498.25 282.92 497.97 282.75C498.13 283.05 498.34 283.29 498.52 283.56C498.71 283.82 499.01 284.12 499.35 284.25C500.07 284.57 500.97 284.39 501.53 283.81C501.78 283.55 502.09 283.39 502.44 283.34C502.51 283.11 502.58 282.87 502.64 282.64C502.03 282.57 501.37 282.81 500.97 283.25ZM468.56 277.78C468.25 277.73 467.82 277.72 467.49 277.89C466.77 278.17 466.25 278.93 466.25 279.74C466.29 280.26 466.04 280.76 465.6 281.06C465.37 281.21 465.13 281.29 464.82 281.34C464.49 281.43 464.17 281.48 463.84 281.57C464.17 281.65 464.49 281.69 464.83 281.74C465.14 281.78 465.57 281.77 465.9 281.61C466.62 281.31 467.09 280.5 467.07 279.72C467.06 279.22 467.31 278.72 467.76 278.44C467.99 278.29 468.23 278.22 468.57 278.18C468.9 278.11 469.21 278.06 469.54 277.94C469.21 277.88 468.89 277.85 468.56 277.78ZM493.02 299C492.72 298.95 492.28 298.96 491.95 299.11C491.23 299.39 490.7 300.16 490.72 300.96C490.75 301.5 490.49 301.98 490.06 302.29C489.83 302.43 489.59 302.54 489.26 302.58C488.95 302.66 488.64 302.71 488.3 302.79C488.64 302.88 488.96 302.92 489.27 302.96C489.59 303.01 490.02 303 490.35 302.83C491.08 302.53 491.55 301.73 491.51 300.96C491.49 300.45 491.77 299.97 492.23 299.67C492.46 299.52 492.69 299.44 493.03 299.39C493.36 299.33 493.67 299.28 493.99 299.17C493.67 299.1 493.36 299.07 493.02 299ZM498.21 251.85C497.91 251.8 497.47 251.81 497.14 251.95C496.42 252.23 495.89 253.01 495.91 253.81C495.94 254.34 495.68 254.82 495.25 255.14C495.02 255.28 494.78 255.38 494.45 255.42C494.14 255.5 493.83 255.55 493.49 255.64C493.83 255.72 494.15 255.76 494.46 255.81C494.78 255.86 495.21 255.85 495.54 255.67C496.27 255.37 496.74 254.58 496.7 253.81C496.68 253.3 496.96 252.81 497.42 252.52C497.65 252.36 497.88 252.29 498.22 252.24C498.55 252.17 498.86 252.12 499.18 252.02C498.86 251.95 498.55 251.91 498.21 251.85Z" fill="white"/>
<path d="M460.06 294.24C462.08 290.11 469.74 272.89 471.14 269.06C471.24 268.79 471.09 268.67 470.96 268.93C464.6 281.17 461.68 290 459.91 294.16C459.86 294.25 460.01 294.34 460.06 294.24Z" fill="#263238"/>
<path opacity="0.1" d="M507.09 251.39C506.83 271.59 500.81 296.55 491.63 303.36C490.06 304.52 487.57 304.82 484.58 304.54L501.73 242.05C504.71 241 507.2 243.38 507.09 251.39Z" fill="#000102"/>
<path d="M567.28 313.01C567.28 313.02 501.77 321.96 501.77 321.96C502.17 323.18 494.16 282.61 498.47 247.46C499.36 240.17 510.96 238.05 516.59 240.64C541.26 251.94 567.18 312.44 567.28 313.01Z" fill="#37474F"/>
<path d="M511.83 299.75C512 300.05 512.2 300.3 512.38 300.57C512.56 300.82 512.89 301.11 513.24 301.23C513.94 301.53 514.87 301.29 515.38 300.72C515.72 300.35 516.28 300.2 516.79 300.3C517.05 300.38 517.27 300.49 517.55 300.68C517.83 300.86 518.09 301.06 518.4 301.2C518.21 300.91 518.01 300.67 517.83 300.41C517.65 300.16 517.34 299.85 517 299.72C516.3 299.39 515.37 299.57 514.82 300.16C514.48 300.54 513.95 300.72 513.44 300.63C513.16 300.58 512.92 300.47 512.65 300.28C512.37 300.09 512.11 299.91 511.83 299.75ZM553.9 302.17C554.06 302.46 554.3 302.71 554.48 302.99C554.67 303.24 554.97 303.52 555.33 303.65C556.05 303.94 556.97 303.7 557.49 303.13C557.81 302.77 558.36 302.61 558.88 302.72C559.15 302.77 559.38 302.89 559.64 303.09C559.92 303.28 560.18 303.47 560.49 303.62C560.32 303.33 560.12 303.08 559.91 302.8C559.75 302.57 559.44 302.27 559.08 302.11C558.38 301.8 557.48 301.98 556.92 302.57C556.56 302.96 556.05 303.13 555.51 303.03C555.26 303 555.02 302.89 554.75 302.68C554.46 302.51 554.19 302.32 553.9 302.17ZM533.89 271.61C534.06 271.9 534.26 272.15 534.44 272.43C534.65 272.7 534.95 272.97 535.31 273.09C536.03 273.38 536.93 273.17 537.45 272.58C537.79 272.22 538.34 272.06 538.86 272.19C539.14 272.24 539.36 272.35 539.63 272.56C539.91 272.73 540.17 272.92 540.48 273.1C540.31 272.8 540.08 272.55 539.9 272.28C539.72 272.03 539.43 271.72 539.07 271.59C538.37 271.28 537.45 271.45 536.89 272.03C536.55 272.43 536.03 272.59 535.5 272.5C535.22 272.45 535.01 272.36 534.74 272.15C534.45 271.97 534.19 271.78 533.89 271.61ZM509.65 245.01C509.82 245.31 510.02 245.55 510.21 245.83C510.42 246.1 510.72 246.37 511.08 246.49C511.8 246.79 512.7 246.57 513.22 245.98C513.56 245.62 514.11 245.46 514.63 245.59C514.9 245.64 515.12 245.75 515.38 245.96C515.66 246.13 515.93 246.32 516.23 246.49C516.07 246.2 515.84 245.95 515.65 245.67C515.46 245.42 515.18 245.11 514.82 244.98C514.12 244.67 513.19 244.85 512.64 245.42C512.3 245.83 511.79 245.98 511.26 245.89C510.98 245.84 510.76 245.73 510.49 245.54C510.22 245.37 509.96 245.18 509.65 245.01ZM507.62 264.76C507.9 265.48 508.66 266 509.47 266C510 265.96 510.48 266.21 510.79 266.65C510.94 266.88 511.04 267.12 511.09 267.43C511.15 267.76 511.21 268.08 511.31 268.39C511.38 268.07 511.41 267.75 511.45 267.42C511.53 267.1 511.5 266.69 511.32 266.36C511.03 265.63 510.22 265.14 509.45 265.19C508.93 265.2 508.45 264.95 508.16 264.5C508.02 264.27 507.93 264.04 507.88 263.68C507.81 263.36 507.76 263.05 507.66 262.72C507.59 263.06 507.56 263.37 507.49 263.69C507.48 264 507.48 264.41 507.62 264.76ZM537.16 287.94C537.43 288.66 538.22 289.17 539.01 289.17C539.55 289.13 540.02 289.38 540.33 289.82C540.5 290.05 540.58 290.29 540.63 290.61C540.69 290.94 540.74 291.25 540.86 291.59C540.95 291.25 540.98 290.94 541.03 290.6C541.08 290.28 541.04 289.86 540.9 289.53C540.61 288.81 539.78 288.33 539.01 288.36C538.51 288.39 538.01 288.11 537.73 287.67C537.58 287.44 537.51 287.2 537.47 286.87C537.38 286.54 537.33 286.22 537.24 285.91C537.15 286.23 537.13 286.55 537.08 286.88C537.02 287.17 537.01 287.61 537.16 287.94ZM497.97 282.75C498.13 283.05 498.34 283.29 498.52 283.56C498.71 283.81 499.01 284.12 499.35 284.25C500.07 284.56 500.98 284.38 501.53 283.81C501.9 283.43 502.4 283.26 502.94 283.34C503.2 283.39 503.44 283.51 503.7 283.69C503.98 283.86 504.24 284.05 504.55 284.22C504.36 283.93 504.16 283.68 503.97 283.4C503.79 283.13 503.46 282.86 503.11 282.74C502.41 282.45 501.49 282.69 500.98 283.25C500.63 283.62 500.08 283.77 499.57 283.67C499.31 283.6 499.09 283.49 498.8 283.28C498.5 283.11 498.25 282.92 497.97 282.75ZM518.23 283.57C518.57 283.66 518.89 283.69 519.22 283.74C519.53 283.79 519.96 283.77 520.29 283.61C521.01 283.32 521.49 282.51 521.46 281.72C521.45 281.22 521.7 280.72 522.15 280.44C522.38 280.29 522.62 280.22 522.96 280.18C523.29 280.11 523.6 280.07 523.94 279.95C523.6 279.88 523.29 279.85 522.95 279.79C522.65 279.74 522.22 279.73 521.88 279.89C521.16 280.17 520.64 280.93 520.64 281.74C520.67 282.26 520.43 282.75 519.99 283.06C519.76 283.21 519.52 283.29 519.21 283.34C518.88 283.43 518.56 283.48 518.23 283.57ZM532.68 308.7C533.02 308.79 533.34 308.82 533.65 308.87C533.97 308.92 534.4 308.91 534.73 308.74C535.46 308.44 535.93 307.64 535.88 306.87C535.87 306.36 536.15 305.87 536.6 305.58C536.83 305.42 537.06 305.35 537.4 305.3C537.73 305.24 538.04 305.19 538.36 305.08C538.04 305.01 537.72 304.98 537.39 304.91C537.09 304.86 536.65 304.87 536.32 305.02C535.6 305.3 535.07 306.07 535.09 306.87C535.12 307.4 534.86 307.89 534.43 308.2C534.2 308.34 533.96 308.44 533.63 308.49C533.33 308.57 533.01 308.62 532.68 308.7ZM511.41 320.25C511.76 320.32 512.07 320.35 512.39 320.43C512.55 320.45 512.73 320.45 512.92 320.44C513.12 320.41 513.31 320.37 513.47 320.28C514.2 319.99 514.67 319.18 514.62 318.41C514.61 317.91 514.89 317.42 515.34 317.13C515.57 316.99 515.8 316.91 516.14 316.85C516.45 316.79 516.78 316.74 517.1 316.63C516.78 316.56 516.44 316.53 516.13 316.47C515.83 316.42 515.4 316.42 515.07 316.56C514.34 316.84 513.82 317.6 513.84 318.41C513.87 318.95 513.61 319.43 513.18 319.74C512.95 319.9 512.72 319.98 512.38 320.04C512.07 320.1 511.75 320.15 511.41 320.25ZM522.84 259.73C523.16 259.81 523.48 259.83 523.81 259.91C524.13 259.96 524.55 259.92 524.88 259.76C525.6 259.48 526.08 258.66 526.05 257.89C526.04 257.39 526.3 256.89 526.74 256.6C526.97 256.46 527.21 256.38 527.54 256.33C527.87 256.25 528.18 256.21 528.52 256.12C528.18 256.03 527.86 256 527.53 255.95C527.23 255.9 526.82 255.89 526.46 256.04C525.74 256.31 525.23 257.1 525.23 257.89C525.27 258.43 525.02 258.91 524.58 259.22C524.35 259.38 524.11 259.46 523.79 259.52C523.47 259.58 523.16 259.63 522.84 259.73Z" fill="white"/>
<path d="M525.5 248.34C542.36 267.71 562.39 306.62 557.68 314.14C552.44 322.51 529.19 296.26 529.38 294.77C529.52 293.65 522.16 269.78 516.53 252.4C510.9 235.04 521.33 243.55 525.5 248.34Z" fill="#EB9481"/>
<path d="M529.2 294.79C528.59 292.25 518.51 260.75 515.69 250.82C512.87 240.88 516.23 238.07 525.48 247.59C534.72 257.11 553.94 286.7 557.85 302.8C561.62 318.31 554.19 319.32 544.29 311.66C536.19 305.38 529.2 294.79 529.2 294.79Z" fill="#37474F"/>
<path d="M522.84 259.73C523.16 259.81 523.48 259.83 523.81 259.91C524.13 259.96 524.55 259.92 524.88 259.76C525.6 259.48 526.08 258.66 526.05 257.89C526.04 257.39 526.3 256.89 526.74 256.6C526.97 256.46 527.21 256.38 527.54 256.33C527.87 256.25 528.18 256.21 528.52 256.12C528.18 256.03 527.86 256 527.53 255.95C527.23 255.9 526.82 255.89 526.46 256.04C525.74 256.31 525.23 257.1 525.23 257.89C525.27 258.43 525.02 258.91 524.58 259.22C524.35 259.38 524.11 259.46 523.79 259.52C523.47 259.58 523.16 259.63 522.84 259.73ZM537.14 304.89L537.5 305.29C537.8 305.23 538.08 305.18 538.37 305.09C538.05 305.02 537.73 304.99 537.4 304.92C537.31 304.9 537.23 304.9 537.14 304.89ZM537.16 287.94C537.43 288.66 538.22 289.17 539.01 289.17C539.55 289.13 540.02 289.38 540.33 289.82C540.5 290.05 540.58 290.29 540.63 290.61C540.69 290.94 540.74 291.25 540.86 291.59C540.95 291.25 540.98 290.94 541.03 290.6C541.08 290.28 541.04 289.86 540.9 289.53C540.61 288.81 539.78 288.33 539.01 288.36C538.51 288.39 538.01 288.11 537.73 287.67C537.58 287.44 537.51 287.2 537.47 286.87C537.38 286.54 537.33 286.22 537.24 285.91C537.15 286.23 537.13 286.55 537.08 286.88C537.02 287.17 537.01 287.61 537.16 287.94ZM514.74 245.61C514.97 245.67 515.16 245.78 515.39 245.96C515.67 246.13 515.94 246.32 516.24 246.49C516.08 246.2 515.85 245.95 515.66 245.67C515.47 245.42 515.19 245.11 514.83 244.98C514.8 244.97 514.76 244.95 514.73 244.94C514.72 245.16 514.72 245.37 514.74 245.61ZM533.89 271.61C534.06 271.9 534.26 272.15 534.44 272.43C534.65 272.7 534.95 272.97 535.31 273.09C536.03 273.38 536.93 273.17 537.45 272.58C537.79 272.22 538.34 272.06 538.86 272.19C539.14 272.24 539.36 272.35 539.63 272.56C539.91 272.73 540.17 272.92 540.48 273.1C540.31 272.8 540.08 272.55 539.9 272.28C539.72 272.03 539.43 271.72 539.07 271.59C538.37 271.28 537.45 271.45 536.89 272.03C536.55 272.43 536.03 272.59 535.5 272.5C535.22 272.45 535.01 272.36 534.74 272.15C534.45 271.97 534.19 271.78 533.89 271.61ZM553.9 302.17C554.06 302.46 554.3 302.71 554.48 302.99C554.67 303.24 554.97 303.52 555.33 303.65C556.05 303.94 556.97 303.7 557.49 303.13C557.6 303.01 557.72 302.92 557.87 302.85C557.86 302.83 557.86 302.8 557.85 302.78C557.8 302.55 557.73 302.32 557.67 302.08C557.39 302.18 557.12 302.34 556.91 302.57C556.55 302.96 556.04 303.13 555.5 303.03C555.25 303 555.01 302.89 554.74 302.68C554.46 302.51 554.19 302.32 553.9 302.17Z" fill="white"/>
<path d="M530.49 298.86C529.62 295.69 528.71 292.53 527.79 289.37C526.87 286.21 525.91 283.07 524.97 279.92L522.04 270.51L520.54 265.81C520.02 264.25 519.52 262.69 518.99 261.13C519.42 262.72 519.88 264.3 520.32 265.88L521.7 270.62L524.53 280.07C525.51 283.21 526.46 286.35 527.46 289.48C528.43 292.62 529.44 295.75 530.49 298.86Z" fill="#263238"/>
<path d="M521.08 268.47C520.77 267.65 520.37 266.89 519.95 266.14C519.74 265.77 519.52 265.39 519.29 265.03C519.07 264.66 518.82 264.31 518.58 263.95C518.82 264.8 519.23 265.57 519.64 266.32C520.07 267.07 520.53 267.8 521.08 268.47Z" fill="#263238"/>
<path d="M557.65 314.1C553.32 320.04 543.05 321.23 514.35 326.26C510.38 326.96 497.05 299.77 501.26 298.81C506.55 297.6 527.36 294.04 528.92 293.98C542.02 293.4 560.59 310.07 557.65 314.1Z" fill="#EB9481"/>
<path d="M511.03 298.47C511.03 298.47 500.04 297.63 492.84 297.42C488.82 297.3 481.9 297.72 478.91 298.98C474.43 300.87 456.91 311.65 459.43 315.95C461.71 319.85 475.59 308.68 475.59 308.68C475.59 308.68 460.59 318.71 464.2 322.9C467.81 327.09 481.81 312.38 481.81 312.38C481.81 312.38 466.63 323.03 471.03 326.76C474.36 329.58 487.79 316.97 487.79 316.97C487.79 316.97 474.8 326.22 478.1 329.26C481.75 332.63 494.88 321.77 494.88 321.77C504.57 328.1 511.77 327.15 516.82 325.86C518.05 325.56 511.03 298.47 511.03 298.47Z" fill="#EB9481"/>
<path d="M480.55 304.88C478.75 305.99 476.91 307.11 475.21 308.38C473.51 309.65 471.85 310.98 470.28 312.41C466.42 315.9 464.55 318.69 464.68 318.53C467.86 314.75 473.87 310.11 475.57 308.83C477.27 307.56 478.9 306.21 480.59 304.94C480.65 304.91 480.6 304.85 480.55 304.88Z" fill="#263238"/>
<path d="M485.26 310.93C483.02 312.45 480.73 313.88 478.56 315.51C476.39 317.12 474.48 318.85 472.43 320.61C472.27 320.75 472.4 320.79 472.56 320.66C474.68 318.98 476.76 317.6 478.9 315.95C481.03 314.3 483.11 312.56 485.3 311C485.33 310.96 485.29 310.91 485.26 310.93Z" fill="#263238"/>
<path d="M490.23 315.4C486.68 317.55 483.54 320.36 480.52 323.18C480.37 323.32 480.54 323.35 480.7 323.22C483.88 320.57 486.36 318.47 490.31 315.52C490.36 315.48 490.3 315.35 490.23 315.4Z" fill="#263238"/>
<path d="M504.47 297.57L528.97 325.96C528.97 325.96 554.11 320.55 557.97 314.13C560.51 309.9 542.1 292.3 527.66 294.03L504.47 297.57Z" fill="#37474F"/>
<path d="M531.89 321.37C532.05 321.66 532.26 321.91 532.44 322.19C532.62 322.44 532.95 322.73 533.3 322.85C534 323.14 534.93 322.9 535.44 322.34C535.78 321.97 536.34 321.82 536.85 321.92C537.11 321.99 537.33 322.1 537.61 322.3C537.89 322.48 538.15 322.67 538.46 322.82C538.27 322.53 538.07 322.29 537.89 322.03C537.71 321.78 537.4 321.47 537.06 321.34C536.36 321.01 535.43 321.19 534.88 321.78C534.54 322.16 534.01 322.33 533.5 322.25C533.22 322.2 532.98 322.09 532.71 321.9C532.43 321.71 532.17 321.52 531.89 321.37ZM511.83 299.75C512 300.05 512.2 300.3 512.38 300.57C512.56 300.82 512.89 301.11 513.24 301.23C513.94 301.53 514.87 301.29 515.38 300.72C515.72 300.35 516.28 300.2 516.79 300.3C517.05 300.38 517.27 300.49 517.55 300.68C517.83 300.86 518.09 301.06 518.4 301.2C518.21 300.91 518.01 300.67 517.83 300.41C517.65 300.16 517.34 299.85 517 299.72C516.3 299.39 515.37 299.57 514.82 300.16C514.48 300.54 513.95 300.72 513.44 300.63C513.16 300.58 512.92 300.47 512.65 300.28C512.37 300.09 512.11 299.91 511.83 299.75ZM550.81 318.33C550.9 318.57 551.05 318.79 551.23 318.97C551.49 318.85 551.73 318.73 551.98 318.61C551.74 318.49 551.54 318.31 551.38 318.07C551.22 317.84 551.14 317.6 551.1 317.26C551.03 316.93 550.99 316.62 550.88 316.31C550.81 316.63 550.77 316.94 550.71 317.28C550.66 317.56 550.67 318 550.81 318.33ZM532.68 308.7C533.02 308.79 533.34 308.82 533.65 308.87C533.97 308.92 534.4 308.91 534.73 308.74C535.46 308.44 535.93 307.64 535.88 306.87C535.87 306.36 536.15 305.87 536.6 305.58C536.83 305.42 537.06 305.35 537.4 305.3C537.73 305.24 538.04 305.19 538.36 305.08C538.04 305.01 537.72 304.98 537.39 304.91C537.09 304.86 536.65 304.87 536.32 305.02C535.6 305.3 535.07 306.07 535.09 306.87C535.12 307.4 534.86 307.89 534.43 308.2C534.2 308.34 533.96 308.44 533.63 308.49C533.33 308.57 533.01 308.62 532.68 308.7Z" fill="white"/>
<path d="M544.74 298.91C542.45 297.18 535.99 293.13 527.63 294.01C527.56 294.02 527.55 294.14 527.63 294.14C533.92 294.09 542.34 297.54 544.68 299.02C544.74 299.05 544.8 298.95 544.74 298.91Z" fill="#263238"/>
<path d="M535.91 321.43C533.38 318.16 530.68 315.04 527.98 311.91C525.27 308.79 522.57 305.66 519.78 302.6C518.21 300.87 516.64 299.14 515.01 297.47C514.97 297.43 514.88 297.49 514.92 297.54C517.44 300.8 520.13 303.94 522.81 307.08C525.5 310.22 528.22 313.34 530.97 316.42C532.52 318.16 534.11 319.88 535.74 321.55C535.83 321.64 535.99 321.52 535.91 321.43Z" fill="#263238"/>
<path d="M504.43 297.2C505.97 296.72 507.56 296.49 509.15 296.22C510.74 295.95 512.33 295.72 513.92 295.49C517.09 295.05 523.75 293.74 529.58 293.88C529.64 293.88 529.31 294.19 529.24 294.18C526.47 293.98 506.49 297.54 504.85 297.62C504.91 297.73 504.97 297.84 505.02 297.96C505.05 298.04 504.97 298.14 504.88 298.08C504.68 297.94 504.54 297.76 504.35 297.61C504.2 297.5 504.23 297.27 504.43 297.2Z" fill="#263238"/>
<path d="M536 260.93C543.41 271.02 564.07 302.36 557.92 314.27C562.97 303.14 542.27 271.5 536 260.93Z" fill="#263238"/>
<path d="M537.88 262.08C538.99 263.41 539.64 265.07 539.86 266.78C538.98 265.28 538.39 263.73 537.88 262.08Z" fill="#263238"/>
<path d="M503.9 251.06C507.06 251.64 513.39 247.62 515.39 243.04C515.53 242.73 514.78 239.61 514.06 235.78C513.63 233.46 513.21 230.86 512.99 228.46C512.95 227.97 498.27 233.46 498.27 233.46C498.27 233.46 500.2 238.36 500.55 242.54C500.58 242.89 500.57 243.22 500.53 243.53C500.53 243.58 500.52 243.63 500.52 243.69C500.39 245.61 500.52 250.44 503.9 251.06Z" fill="#EB9481"/>
<path d="M500.53 243.54C500.53 243.59 500.53 243.65 500.53 243.7C501.01 243.72 501.52 243.7 502.08 243.64C510.92 242.65 512.26 231.36 512.46 228.51C509.82 229.13 498.28 233.46 498.28 233.46C498.28 233.46 500.21 238.36 500.56 242.54C500.58 242.9 500.58 243.23 500.53 243.54Z" fill="#263238"/>
<path d="M515.74 211.22C517.21 216.62 513.9 232 509.99 235.33C504.32 240.16 495.27 240.36 491.22 233.59C487.3 227.03 491.96 207.07 496.31 204.07C502.72 199.64 513.57 203.23 515.74 211.22Z" fill="#EB9481"/>
<path d="M513.31 224.43C510.87 224.19 511.1 218.57 511.1 218.57C511.1 218.57 504.84 219.6 505.65 211.45C505.65 211.45 498.25 213.01 494.11 210.12C490.57 207.65 489.28 201.01 492.49 197.51C494.3 195.54 498.89 194.07 504.75 201.14C504.75 201.14 513.94 196.23 515.95 206.87C515.95 206.87 520.3 207.9 520.34 212.25C520.4 219.12 515.42 224.64 513.31 224.43Z" fill="#263238"/>
<path d="M505.72 210.88C505.76 210.8 505.87 210.84 505.84 210.93C505.24 212.87 504.6 214.98 505.99 216.76C507.34 218.49 509.51 219.21 511.58 218.4C511.7 218.35 511.78 218.54 511.66 218.58C509.7 219.33 507.48 218.85 506.01 217.32C504.27 215.48 504.68 212.96 505.72 210.88Z" fill="#263238"/>
<path d="M513.27 223.15C516.82 221.8 519.69 219.26 520.42 215.37C520.77 213.52 520.66 211.54 519.66 209.93C518.74 208.45 517.2 207.78 515.86 206.78C515.82 206.75 515.85 206.69 515.9 206.71C524.54 209.97 521.36 221.69 513.41 223.59C513.16 223.65 513.03 223.24 513.27 223.15Z" fill="#263238"/>
<path d="M491.35 197.46C495.67 192.61 502.61 197 504.95 201.58C504.96 201.6 504.93 201.61 504.92 201.6C502.72 198.11 497.74 194.36 493.54 196.44C488.46 198.96 489.44 207.77 494.81 209.21C494.97 209.25 494.91 209.53 494.74 209.5C489.75 208.55 488.15 201.07 491.35 197.46Z" fill="#263238"/>
<path d="M510.94 223.89C510.94 223.89 514.69 219.07 516.89 220.43C519.09 221.79 516.1 228.9 513.38 229.75C510.67 230.6 509.83 228.11 509.83 228.11L510.94 223.89Z" fill="#EB9481"/>
<path d="M515.98 222.45C516.02 222.45 516.03 222.51 515.99 222.52C514.09 223.18 513.01 224.86 512.23 226.62C512.82 225.96 513.6 225.62 514.49 226.33C514.54 226.37 514.49 226.44 514.43 226.43C513.67 226.23 513.12 226.33 512.57 226.92C512.18 227.33 511.9 227.87 511.62 228.36C511.52 228.52 511.23 228.42 511.3 228.23C511.31 228.22 511.31 228.2 511.32 228.19C511.39 225.79 513.41 222.55 515.98 222.45Z" fill="#263238"/>
<path d="M499.28 244.13C499.32 245.06 499.4 246 499.54 246.94C499.66 247.78 499.8 248.62 500.09 249.45C500.62 250.94 501.71 252.38 503.5 252.96C505.21 253.51 507.02 253.21 508.44 252.54C510 251.8 511.25 250.65 512.4 249.53C513.11 248.83 513.79 248.11 514.42 247.36C514.74 246.98 515.07 246.6 515.37 246.2C515.67 245.81 515.95 245.4 516.27 245.02C516.3 244.99 516.37 245.02 516.35 245.06C515.71 245.96 513.76 248.83 513.13 249.52C511.98 250.78 510.72 252.06 509.1 252.91C507.57 253.71 505.72 254.09 503.81 253.63C501.92 253.18 500.56 251.84 499.93 250.29C499.54 249.34 499.4 248.34 499.33 247.37C499.25 246.29 499.24 245.2 499.25 244.12C499.26 244.11 499.28 244.12 499.28 244.13Z" fill="#263238"/>
<path d="M195.33 386.13C193.02 386.88 126.96 386.3 124.46 384.69C123.51 384.08 123.03 374.46 122.79 362.81C122.74 360.29 117.75 319.77 117.75 319.77L161.91 320.03L165.38 363.07C165.38 363.07 190.57 374.6 193.13 376.67C195.66 378.72 197.65 385.38 195.33 386.13Z" fill="#F7A9A0"/>
<path d="M195.33 386.13C193.02 386.88 126.97 386.3 124.46 384.68C123.74 384.22 123.29 378.59 123 370.8C131.54 372.76 179.57 376.71 185.09 376.04C190.42 375.4 178.07 369.05 175.83 367.92C183.08 371.34 191.68 375.49 193.12 376.65C195.66 378.72 197.65 385.38 195.33 386.13Z" fill="#263238"/>
<path d="M71.75 141.1C71.75 141.1 60.2 157.87 66.55 176.08C77.39 207.19 104.94 242.2 105.78 246.21C107.77 255.65 118.4 352.39 118.4 352.39L167.74 352.09C167.74 352.09 159.62 270.03 151.24 242.93C146.67 228.13 120.54 187.57 109.26 167.77C108.25 166 110.63 158.36 110.63 158.36L71.75 141.1Z" fill="#37474F"/>
<path d="M162.81 343.42C155.15 343.27 131.96 342.63 121.74 343.46C121.66 343.47 121.66 343.6 121.74 343.61C125.24 344.16 155.14 343.79 162.81 343.64C162.96 343.63 162.96 343.42 162.81 343.42Z" fill="#263238"/>
<path d="M63.52 163.99C66.82 169.3 70.3 174.51 73.67 179.77C77.04 185.04 80.4 190.32 83.72 195.62C90.35 206.22 96.79 216.93 103.12 227.71C106.09 232.76 108.91 237.86 110.92 243.36C112.91 248.81 114.25 254.46 115.21 260.16C116.18 265.9 116.8 271.69 117.38 277.48C118 283.64 118.6 289.81 119.21 295.97C120.46 308.58 121.71 321.19 122.96 333.8C123.11 335.35 123.26 336.89 123.4 338.44C123.42 338.67 123.01 338.71 122.99 338.48C121.57 325.95 120.42 313.38 119.15 300.83C118.52 294.58 117.88 288.34 117.25 282.09C116.66 276.28 116.1 270.47 115.28 264.69C114.47 259.01 113.39 253.35 111.73 247.85C110 242.1 107.51 236.68 104.55 231.43C98.5 220.69 92.08 210.13 85.67 199.59C79.2 188.96 72.67 178.37 65.89 167.92C65.05 166.63 64.21 165.35 63.34 164.08C63.29 163.98 63.46 163.88 63.52 163.99Z" fill="#263238"/>
<path d="M75.05 386.45C72.62 386.27 10.13 360.05 8.4 357.62C8.34 357.54 8.31 357.38 8.31 357.15C8.35 354.99 38.23 300.74 38.23 300.74L79.08 317.56L55.92 353.81C55.92 353.81 74.94 373.96 76.53 376.83C78.13 379.71 77.47 386.62 75.05 386.45Z" fill="#F7A9A0"/>
<path d="M76.55 376.84C78.13 379.71 77.48 386.62 75.06 386.45C72.63 386.27 10.13 360.05 8.41002 357.62C8.35002 357.54 8.33002 357.38 8.33002 357.15C8.34002 356.45 11.54 350.18 15.84 342.07C24.7 325.35 38.25 300.75 38.25 300.75L79.1 317.57L55.94 353.82C55.94 353.82 61.19 359.39 66.4 365.08L66.42 365.1C71.12 370.24 75.79 375.48 76.55 376.84Z" fill="#F7A9A0"/>
<path d="M75.05 386.45C72.62 386.27 10.12 360.05 8.40001 357.62C8.34001 357.54 8.32001 357.38 8.32001 357.15C8.33001 356.45 11.53 350.18 15.83 342.07C26.62 353.42 69.19 374.11 70.59 373.53C72.04 372.92 66.76 365.61 66.41 365.09C71.12 370.23 75.79 375.47 76.55 376.84C78.12 379.71 77.48 386.62 75.05 386.45Z" fill="#263238"/>
<path d="M61.95 348.15L19.58 328.06C19.58 328.06 74.23 245.96 74.73 239.73C75.17 234.21 50.74 185.84 49.92 171.82C49.04 156.69 56.47 145.08 64.55 137.92L110.63 158.37C110.63 158.37 106.6 166.6 98.67 170.96C98.67 170.96 122.3 226.82 120.71 243.88C119.12 261.02 61.95 348.15 61.95 348.15Z" fill="#37474F"/>
<path d="M64.31 338.42C58.43 335.42 60.17 336.19 54.26 333.26C51.37 331.83 32.35 322.42 29.39 321.61C29.32 321.59 29.27 321.7 29.33 321.74C31.81 323.54 51 332.58 53.93 333.95C59.9 336.75 58.22 335.88 64.23 338.61C64.33 338.66 64.42 338.48 64.31 338.42Z" fill="#263238"/>
<path d="M105.55 171.4C100.51 171.68 95.45 172.64 90.56 173.77C90.37 173.81 90.41 174.1 90.61 174.07C95.62 173.43 100.69 172.9 105.65 171.99C106.04 171.91 105.93 171.38 105.55 171.4Z" fill="#263238"/>
<path d="M100.3 168.59C99.71 169.32 99.18 170.11 98.7 170.91C98.32 171.53 97.86 172.19 97.75 172.92C97.73 173.06 97.91 173.12 98.01 173.05C98.64 172.6 99.05 171.87 99.5 171.25C100.02 170.54 100.56 169.84 101.06 169.12C101.39 168.64 100.66 168.14 100.3 168.59Z" fill="#263238"/>
<path d="M110.23 155.24C110.25 155.16 110.09 155.09 110.06 155.17C109.09 157.84 108.01 160.11 106.81 162.5C106.25 163.61 102.75 169.6 100.52 168.29C100.15 168.07 100.06 167.67 100.19 167.14C100.34 166.51 100.89 165.86 101.24 165.3C102.01 164.06 102.72 162.79 103.36 161.49C104.56 159.06 105.51 156.55 106.08 153.91C106.1 153.82 105.95 153.78 105.92 153.86C104.62 157.35 103.21 160.79 101.3 164.02C100.38 165.57 98.44 167.72 100.43 168.71C102.46 169.72 105.39 166.01 106.08 164.96C108.01 162.02 109.33 158.58 110.23 155.24Z" fill="#263238"/>
<path d="M99.4 172.76C101.04 176.35 102.48 179.93 104.01 183.51C105.51 187.01 106.9 190.54 108.26 194.1C111 201.28 113.44 208.58 115.57 215.97C116.62 219.62 117.59 223.3 118.46 227C119.33 230.71 120.18 234.46 120.52 238.26C120.85 242.08 120.54 245.84 119.43 249.52C118.31 253.25 111.99 265.71 110.27 269.19C109.21 271.32 108.86 271.02 109.37 269.95C110.82 266.91 119.49 248.45 119.32 240.65C119.24 236.88 118.51 233.17 117.7 229.5C116.88 225.76 115.94 222.04 114.92 218.34C112.9 211.06 110.49 203.92 108 196.79C106.61 192.8 105.11 188.84 103.69 184.85C102.27 180.83 100.79 177.22 99.21 172.83C99.18 172.71 99.35 172.65 99.4 172.76Z" fill="#263238"/>
<path d="M64.65 160.53C65.48 160.24 66.61 160.75 67.45 160.91C68.52 161.1 69.61 161.23 70.7 161.28C71.78 161.33 72.86 161.3 73.93 161.21C75 161.12 76.1 161 77.03 160.43C78.61 159.47 79.94 157.76 81.02 156.29C82.21 154.67 83.44 152.81 84.16 150.93C84.2 150.81 84.37 150.9 84.33 151.01C83.97 152.11 83.7 153.22 83.25 154.29C82.82 155.3 82.28 156.26 81.7 157.19C80.62 158.92 79.38 160.77 77.55 161.78C75.63 162.84 73.17 162.75 71.05 162.6C69.82 162.51 68.6 162.34 67.4 162.07C66.53 161.88 65.07 161.72 64.52 160.95C64.43 160.8 64.49 160.59 64.65 160.53Z" fill="#263238"/>
<path d="M32.25 320.43C39.94 309.09 47.5 297.66 54.92 286.14C62.36 274.59 69.67 262.96 76.88 251.26C78.6 248.46 80.59 245.67 81.72 242.56C82.94 239.18 82.31 235.89 81.28 232.55C79.39 226.44 77.01 220.48 74.44 214.63C71.86 208.76 69.08 202.98 66.34 197.18C63.63 191.43 60.73 185.65 58.7 179.62C56.75 173.85 56.06 167.89 57.68 161.96C59.29 156.07 62.68 150.81 66.21 145.9C67.14 144.61 68.09 143.32 69.02 142.03C69.09 141.93 69.24 142.05 69.17 142.15C65.28 147.26 61.49 152.68 59.17 158.71C58.03 161.69 57.27 164.83 57.16 168.03C57.05 171.27 57.62 174.5 58.54 177.6C60.33 183.63 63.19 189.36 65.86 195.04C68.58 200.85 71.38 206.62 74.01 212.47C76.65 218.36 79.11 224.34 81.12 230.47C82.01 233.2 83.01 236.06 82.92 238.98C82.81 242.17 81.25 245.03 79.64 247.7C72.62 259.34 65.35 270.82 57.98 282.24C50.59 293.7 43.05 305.07 35.41 316.36C34.45 317.78 33.48 319.21 32.51 320.63C32.39 320.82 32.13 320.6 32.25 320.43Z" fill="#263238"/>
<path d="M106.06 99.9C104.18 110.8 102.44 122.04 102.26 133.11C102.12 141.73 104.89 149.17 113.51 152.28C121.51 155.17 133.23 156.37 140.81 151.73C144.34 149.56 145.88 146.11 146.13 142.07C146.48 136.45 145.59 105.36 145.37 95.66C145.25 89.76 145.15 83.78 143.98 77.96C141.52 65.74 135.68 65.16 134.9 64.83C134.25 64.3 130.01 61.79 123.41 63.08C119.76 63.79 117 65.89 115.07 68.94C109.39 77.87 107.82 89.7 106.06 99.9Z" fill="#263238"/>
<path d="M136.51 66.68C143.14 70.77 143.93 78.61 144.83 85.67C146.09 95.49 147.18 105.34 147.79 115.22C148.09 119.97 148.27 124.73 148.32 129.49C148.36 134.05 148.69 138.94 147.86 143.45C146.49 150.9 139.23 153.52 132.46 153.82C132.13 153.83 132.09 153.33 132.42 153.31C136.3 153 140.28 152.39 143.43 149.91C147.46 146.72 147.59 141.97 147.7 137.24C147.89 129.18 147.63 121.12 147.07 113.08C146.51 105.03 145.67 97 144.7 88.99C143.78 81.37 143.62 71.45 136.44 66.8C136.39 66.75 136.44 66.63 136.51 66.68Z" fill="#263238"/>
<path d="M110.91 76.59C112.9 71.01 116.53 65.76 122.76 64.8C122.77 64.8 122.77 64.82 122.76 64.82C114.67 66.4 111.78 74.71 109.92 81.72C107.96 89.09 106.28 96.53 104.87 104.03C103.51 111.24 102.29 118.52 101.59 125.83C100.83 133.71 101.41 141.25 105.3 148.27C105.38 148.41 105.18 148.56 105.08 148.42C101.11 142.65 100.43 135.25 100.85 128.44C101.4 119.48 103.02 110.48 104.74 101.68C106.38 93.3 108.03 84.63 110.91 76.59Z" fill="#263238"/>
<path d="M109.29 107.73C107.75 120.19 110 149.36 114.24 155.42C117.48 160.06 137.39 167.3 145.91 169.21C149.56 170.03 154.83 148.32 152.16 147.37C143.92 144.42 130.75 138.97 128.54 137.6C126.99 136.64 124.47 126.84 118.3 108.13C114.88 97.74 110.16 100.72 109.29 107.73Z" fill="#F7A9A0"/>
<path d="M159.6 170.77C158.14 170.81 158.15 171.58 160.24 173.13C162.35 174.7 171.92 179.04 170.11 182.26C168.31 185.49 154.87 179.13 151.59 176.28C148.3 173.44 144 167.67 144 167.67C146.86 168.38 153.97 169.45 159.6 170.77Z" fill="#F7A9A0"/>
<path d="M151.51 147.29C159.5 149.59 169.59 151.97 176.04 158.77C177.31 160.11 177.36 161.51 177.36 161.51C180.31 164.51 179.77 166.8 179.77 166.8C181.66 170.44 180.79 172.7 180.79 172.7C180.79 172.7 184.21 176.26 182.4 178.68C180.38 181.41 175.97 175.87 171.69 174.31C161.87 170.74 146.91 168.4 143.98 167.65L151.51 147.29Z" fill="#F7A9A0"/>
<path d="M164.05 163.35C166.92 164.46 169.77 165.47 172.47 166.97C175.44 168.61 178.02 170.68 180.69 172.73C180.77 172.79 180.87 172.68 180.8 172.61C176.54 168.14 170.09 164.65 164.1 163.23C163.95 163.18 163.9 163.29 164.05 163.35Z" fill="#263238"/>
<path d="M165.34 157.11C168.07 158.34 172.86 160.54 179.71 166.88C179.73 166.9 179.77 166.87 179.75 166.84C175.85 162.14 171.11 159 165.39 156.98C165.22 156.92 165.16 157.03 165.34 157.11Z" fill="#263238"/>
<path d="M166.1 153.77C170.66 156.05 173.25 158.06 177.34 161.52C177.36 161.54 177.4 161.5 177.38 161.48C173.15 157.06 171.12 155.94 166.16 153.61C165.99 153.52 165.92 153.68 166.1 153.77Z" fill="#263238"/>
<path d="M142.02 170.69L149.78 144.99C149.78 144.99 131.41 137.82 128.87 136.57C127.8 136.04 121.29 114.98 118 105.87C115.84 99.88 109.93 97.15 108.36 109.34C107.44 116.48 108.04 150.79 112.88 156.26C116.72 160.62 142.02 170.69 142.02 170.69Z" fill="#FFC727"/>
<path d="M137.71 167.54C137.97 165.62 140.37 157.97 140.98 156.07C141.58 154.21 144.33 146.64 144.97 144.69C145 144.58 145.17 144.6 145.13 144.71C144.53 146.65 142.38 154.41 141.79 156.31C141.19 158.22 138.71 165.82 137.81 167.57C137.78 167.63 137.71 167.61 137.71 167.54Z" fill="#263238"/>
<path opacity="0.1" d="M133.13 166.98C125.45 163.66 115.21 158.91 112.88 156.27C108.04 150.82 107.43 116.5 108.35 109.35C109.67 99.02 114.11 99.4 116.76 103.4L133.13 166.98Z" fill="#020100"/>
<path d="M110.64 158.36L114.53 138.76C114.53 138.76 121.4 136.33 121.31 127.42C121.27 123.32 119.33 107.29 114.71 100.96C110.37 95.02 103.4 96.47 99.21 98.53C91.01 102.57 79.35 113.92 64.56 137.9L110.64 158.36Z" fill="#FFC727"/>
<path d="M103.31 132.05C105.18 132.82 107.04 133.68 108.76 134.85C109.62 135.43 110.44 136.06 111.26 136.73C111.67 137.06 112.08 137.37 112.5 137.68C112.93 137.99 113.4 138.31 113.89 138.45C113.93 138.46 113.91 138.56 113.86 138.55C113.37 138.45 112.9 138.35 112.43 138.15C111.99 137.97 111.56 137.71 111.15 137.44C110.27 136.86 109.43 136.23 108.56 135.64C106.81 134.45 105.05 133.27 103.22 132.27C103.15 132.23 103.22 132.02 103.31 132.05Z" fill="#263238"/>
<path d="M97.9 133.32C99.55 133.48 101.21 133.76 102.81 134.19C103.61 134.41 104.39 134.69 105.17 135C105.54 135.15 105.91 135.31 106.27 135.47C106.67 135.65 107.05 135.91 107.45 136.08C107.49 136.1 107.47 136.2 107.42 136.18C107.03 136.03 106.62 135.98 106.22 135.87C105.82 135.76 105.42 135.64 105.03 135.52C104.23 135.29 103.43 135.08 102.64 134.84C101.05 134.36 99.46 133.91 97.85 133.51C97.77 133.49 97.82 133.31 97.9 133.32Z" fill="#263238"/>
<path d="M95.18 105.66C90.92 121.59 87.96 151.5 90.34 156.88C92.45 161.65 111.41 170.16 120.13 173.24C123.39 174.39 130.99 148.81 127.47 147.65C123.26 146.26 110.95 141.71 110.56 140.61C110.12 139.4 108.01 119.15 105.43 106.33C103.09 94.7 96.79 99.64 95.18 105.66Z" fill="#F7A9A0"/>
<path d="M139.11 150.55C146.61 153.56 148.08 155.49 155.76 154.67C160.8 154.13 163.31 157.12 158.93 160.05C151.76 164.85 141.27 162.99 137.82 161.3L139.11 150.55Z" fill="#F7A9A0"/>
<path d="M121.45 198.05L136.03 180.22C137.57 178.34 140.12 178.33 141.73 180.2C142.63 181.25 143.05 182.72 142.95 184.2C142.76 187.09 143.63 190.07 145.53 192.27C148.9 196.18 154.22 196.16 157.43 192.24C160.64 188.32 160.52 181.97 157.15 178.06C155.26 175.86 152.73 174.9 150.31 175.2C149.07 175.35 147.83 174.89 146.93 173.85C145.32 171.98 145.26 168.94 146.8 167.05L158.25 149.36L161.38 149.22L176.64 166.95C178.25 168.82 180.8 168.81 182.34 166.93C183.2 165.88 183.56 164.4 183.41 162.93C183.11 160.04 183.87 157.06 185.68 154.84C188.9 150.91 194.22 150.89 197.58 154.79C200.94 158.69 201.06 165.04 197.84 168.97C196.03 171.18 193.54 172.16 191.11 171.88C189.87 171.74 188.64 172.2 187.78 173.26C186.24 175.14 186.3 178.18 187.91 180.06L203.17 197.79L188.6 215.6C187.06 217.48 184.51 217.49 182.9 215.62C182 214.57 181.58 213.1 181.68 211.62C181.87 208.73 181 205.75 179.1 203.55C175.73 199.64 170.41 199.66 167.2 203.58C163.99 207.5 164.11 213.85 167.48 217.76C169.37 219.96 171.9 220.92 174.32 220.62C175.56 220.47 176.8 220.93 177.7 221.97C179.31 223.84 179.37 226.88 177.83 228.77L163.25 246.6L160.12 246.74L148 228.88C146.39 227.01 143.84 227.02 142.3 228.9C141.44 229.95 141.08 231.43 141.23 232.9C141.53 235.79 140.77 238.78 138.96 240.99C135.74 244.92 130.42 244.94 127.06 241.04C123.7 237.14 123.58 230.79 126.8 226.86C128.61 224.65 131.1 223.67 133.53 223.95C134.77 224.09 136 223.63 136.86 222.57C138.4 220.69 138.34 217.65 136.73 215.77L121.45 198.05Z" fill="#FFC727"/>
<path opacity="0.1" d="M121.45 198.05L136.03 180.22C137.57 178.34 140.12 178.33 141.73 180.2C142.63 181.25 143.05 182.72 142.95 184.2C142.76 187.09 143.63 190.07 145.53 192.27C148.9 196.18 154.22 196.16 157.43 192.24C160.64 188.32 160.52 181.97 157.15 178.06C155.26 175.86 152.73 174.9 150.31 175.2C149.07 175.35 147.83 174.89 146.93 173.85C145.32 171.98 145.26 168.94 146.8 167.05L158.25 149.36L161.38 149.22L176.64 166.95C178.25 168.82 180.8 168.81 182.34 166.93C183.2 165.88 183.56 164.4 183.41 162.93C183.11 160.04 183.87 157.06 185.68 154.84C188.9 150.91 194.22 150.89 197.58 154.79C200.94 158.69 201.06 165.04 197.84 168.97C196.03 171.18 193.54 172.16 191.11 171.88C189.87 171.74 188.64 172.2 187.78 173.26C186.24 175.14 186.3 178.18 187.91 180.06L203.17 197.79L188.6 215.6C187.06 217.48 184.51 217.49 182.9 215.62C182 214.57 181.58 213.1 181.68 211.62C181.87 208.73 181 205.75 179.1 203.55C175.73 199.64 170.41 199.66 167.2 203.58C163.99 207.5 164.11 213.85 167.48 217.76C169.37 219.96 171.9 220.92 174.32 220.62C175.56 220.47 176.8 220.93 177.7 221.97C179.31 223.84 179.37 226.88 177.83 228.77L163.25 246.6L160.12 246.74L148 228.88C146.39 227.01 143.84 227.02 142.3 228.9C141.44 229.95 141.08 231.43 141.23 232.9C141.53 235.79 140.77 238.78 138.96 240.99C135.74 244.92 130.42 244.94 127.06 241.04C123.7 237.14 123.58 230.79 126.8 226.86C128.61 224.65 131.1 223.67 133.53 223.95C134.77 224.09 136 223.63 136.86 222.57C138.4 220.69 138.34 217.65 136.73 215.77L121.45 198.05Z" fill="#020100"/>
<path d="M118.32 198.19L132.9 180.36C134.44 178.48 136.99 178.47 138.6 180.34C139.5 181.39 139.92 182.86 139.82 184.34C139.63 187.23 140.5 190.21 142.4 192.41C145.77 196.32 151.09 196.3 154.3 192.38C157.51 188.46 157.39 182.11 154.02 178.2C152.13 176 149.6 175.04 147.18 175.34C145.94 175.49 144.7 175.03 143.8 173.99C142.19 172.12 142.13 169.08 143.67 167.19L158.25 149.36L173.51 167.09C175.12 168.96 177.67 168.95 179.21 167.07C180.07 166.02 180.43 164.54 180.28 163.07C179.98 160.19 180.74 157.2 182.55 154.98C185.77 151.05 191.09 151.03 194.45 154.93C197.81 158.83 197.93 165.18 194.71 169.11C192.9 171.32 190.41 172.3 187.98 172.02C186.74 171.88 185.51 172.34 184.65 173.4C183.11 175.28 183.17 178.32 184.78 180.2L200.04 197.93L185.46 215.76C183.92 217.64 181.37 217.65 179.76 215.78C178.86 214.73 178.44 213.26 178.54 211.78C178.73 208.89 177.86 205.91 175.96 203.71C172.59 199.8 167.27 199.82 164.06 203.74C160.85 207.66 160.97 214.01 164.34 217.92C166.23 220.12 168.76 221.08 171.18 220.78C172.42 220.63 173.66 221.09 174.56 222.13C176.17 224 176.23 227.04 174.69 228.93L160.11 246.76L144.85 229.03C143.24 227.16 140.69 227.17 139.15 229.05C138.29 230.1 137.93 231.58 138.08 233.05C138.38 235.94 137.62 238.93 135.81 241.14C132.59 245.07 127.27 245.09 123.91 241.19C120.55 237.29 120.43 230.94 123.65 227.01C125.46 224.8 127.95 223.82 130.38 224.1C131.62 224.24 132.85 223.78 133.71 222.72C135.25 220.84 135.19 217.8 133.58 215.92L118.32 198.19Z" fill="#FFC727"/>
<path d="M116.82 146.67C116.82 146.67 127.11 146.81 135.42 149.23C141.17 150.9 153.27 155.94 157.68 173.25C158.73 177.36 157.31 183.95 153.16 177.87C150.21 173.55 149.65 169.92 147.48 167.71C147.48 167.71 144.68 175.88 140.52 176.77C138.66 177.17 133.57 178.13 129.5 178.32C129.5 178.32 129.22 177.44 129.03 176.28C129.03 176.28 125.07 176.74 120.12 173.25L116.82 146.67Z" fill="#F7A9A0"/>
<path d="M140.66 151.69C142.35 154.33 145.85 159.99 147.1 165.62C148.49 171.87 149.47 184.27 144.85 185.25C141.46 185.97 140.67 181.26 140.67 181.26C140.67 181.26 140 186.47 136.79 186.45C133.87 186.43 133.48 182.75 133.48 182.75C133.48 182.75 132.53 185.84 129.72 185.28C126.34 184.6 128.89 178.23 126.06 174.59C125.42 173.78 140.66 151.69 140.66 151.69Z" fill="#F7A9A0"/>
<path d="M140.25 165.98C141.43 168.73 142.53 175.65 140.76 181.17C140.72 181.29 140.6 181.33 140.62 181.21C141.27 174.72 140.62 168.58 140.19 165.99C140.18 165.96 140.23 165.95 140.25 165.98Z" fill="#263238"/>
<path d="M133.98 167.57C134.76 170.04 135.56 177.23 133.59 182.76C133.55 182.88 133.43 182.91 133.44 182.79C134.4 176.04 134.19 170.19 133.92 167.58C133.92 167.54 133.97 167.53 133.98 167.57Z" fill="#263238"/>
<path d="M140.44 151.12C144.17 152.6 147.99 154.5 152.04 154.62C153.4 154.55 154.76 154.42 156.13 154.38C157.74 154.43 159.99 154.24 161.08 155.8C161.66 156.82 161.16 158.08 160.47 158.86C158.58 160.92 155.88 162.02 153.19 162.48C155.78 161.87 158.42 160.64 160.17 158.62C163.48 153.62 154.67 155.04 152.07 155.08C147.89 154.93 144.12 152.87 140.44 151.12Z" fill="#263238"/>
<path d="M151.18 159.63C154.91 164.78 158.57 170.87 158.33 177.46C158.22 179.22 156.95 181.6 154.88 180.3C153.43 179.33 152.62 177.81 151.86 176.33C150.47 173.41 149.16 170.45 147.23 167.91L147.81 167.66C148.39 172.87 149.29 178.6 147.09 183.53C146.72 184.2 146.15 184.8 145.43 185.06C146.86 184.4 147.36 182.75 147.66 181.32C148.48 176.41 147.72 171.38 146.98 166.51L147.76 167.51C150.33 170.73 151.6 174.63 153.71 178.06C155.38 180.61 157.26 180.73 157.69 177.38C157.89 175.84 157.6 174.25 157.26 172.69C156.11 168 153.84 163.65 151.18 159.63Z" fill="#263238"/>
<path d="M115.98 176.05L127.02 146.66L111.4 140.13C109.99 130.24 107.16 110.47 105.16 103.78C102.81 95.93 97.2101 97.05 94.7601 105.03C89.1601 123.28 87.2701 154.15 89.2301 158.5C92.0401 164.74 115.98 176.05 115.98 176.05Z" fill="#FFC727"/>
<path d="M112.55 170.62C112.89 168.68 115.62 161.03 116.31 159.13C116.99 157.27 120.07 149.71 120.8 147.76C120.84 147.65 121 147.68 120.96 147.79C120.28 149.73 117.8 157.51 117.12 159.41C116.44 161.32 113.63 168.92 112.65 170.66C112.62 170.71 112.54 170.68 112.55 170.62Z" fill="#263238"/>
<path d="M105.91 170.88C103.51 169.56 101.14 168.17 98.81 166.72C95.41 164.43 91.62 162.39 89.18 158.97C87.61 155.04 88.14 150.73 88.19 146.62C88.44 141.13 89.09 135.67 89.79 130.23C90.54 124.79 91.42 119.38 92.48 113.99C91.06 124.85 89.59 135.73 88.89 146.65C88.81 150.63 88.24 154.95 89.59 158.74C90.25 159.87 91.3 160.8 92.32 161.68C96.53 165.17 101.2 168.08 105.91 170.88Z" fill="#263238"/>
<path d="M91.7 118.62C91.47 117.61 91.35 116.53 91.63 115.52C91.68 116.54 91.81 117.59 91.7 118.62Z" fill="#263238"/>
<path d="M108.03 118.95C109.49 125.79 110.06 132.8 111.47 139.64C111.49 139.75 111.54 139.87 111.57 139.96C111.58 139.98 111.63 140 111.66 140.02C113 140.77 116.73 142.25 118.19 142.9C118.19 142.91 127.08 146.65 127.04 146.68L126.74 147.42L127 146.67L127.01 146.7C121.74 144.71 116.46 142.84 111.37 140.41C111.13 140.3 111.06 140 111 139.78C109.57 132.98 109.1 125.79 108.03 118.95Z" fill="#263238"/>
<path d="M108.89 119.8C109 120.84 109 121.92 108.59 122.89C108.66 121.87 108.66 120.81 108.89 119.8Z" fill="#263238"/>
<path d="M100.74 97.87C100.74 97.87 107.36 113.99 113.77 114.74C118.56 115.3 117.86 105.51 117.86 105.51C117.86 105.51 113.4 92.58 100.74 97.87Z" fill="#F7A9A0"/>
<path d="M107.24 98.92C107.1 99.96 109.22 108.02 113.92 109.12C116.37 109.69 118.08 102.02 118.08 102.02L118.43 101.5L123.27 94.16L116.14 84.54L115.08 83.22C115.08 83.22 113.89 85.32 112.43 87.94C112.36 88.06 112.29 88.18 112.22 88.31C112.13 88.46 112.05 88.59 111.98 88.73C111.76 89.12 111.53 89.52 111.31 89.92C111.14 90.22 110.98 90.52 110.82 90.85C110.65 91.17 110.49 91.49 110.32 91.81C108.7 95.04 107.31 98.49 107.24 98.92Z" fill="#F7A9A0"/>
<path d="M112.44 87.94C112.31 95.2 116.42 99.73 118.43 101.5L123.27 94.16L116.14 84.54L115.08 83.22C115.09 83.22 113.9 85.31 112.44 87.94Z" fill="#263238"/>
<path d="M139.6 87C135.05 101.74 125.7 100.68 122.53 99.69C119.65 98.8 109.94 95.38 112.94 80.25C115.95 65.12 124.24 62.58 130.95 64.27C137.65 65.97 144.16 72.25 139.6 87Z" fill="#F7A9A0"/>
<path d="M113.38 80.22C115.84 81.82 119.43 76.14 119.43 76.14C119.43 76.14 131.52 79.66 136.88 71.03C136.88 71.03 135.98 77.76 140.56 83.22C140.56 83.22 145.01 73.06 138.04 67.28C138.04 67.28 129.96 58.95 120.67 64.06C111.37 69.17 111.72 79.14 113.38 80.22Z" fill="#263238"/>
<path d="M137.24 70.37C136.72 71.83 135.82 73.16 134.73 74.28C133.63 75.4 132.31 76.34 130.84 76.93C130.48 77.11 130.09 77.19 129.72 77.32L129.15 77.5C128.96 77.54 128.76 77.58 128.57 77.61C128.18 77.67 127.79 77.76 127.4 77.8C127.01 77.82 126.61 77.84 126.22 77.85C126.02 77.85 125.83 77.87 125.63 77.86L125.05 77.81L123.89 77.71C123.12 77.57 122.37 77.39 121.62 77.2C122.4 77.23 123.16 77.34 123.92 77.36H125.06H125.63C125.82 77.35 126.01 77.32 126.2 77.3C126.58 77.25 126.95 77.21 127.33 77.18C127.7 77.12 128.07 77.02 128.43 76.95L128.98 76.83L129.51 76.65C129.86 76.52 130.23 76.44 130.56 76.27C131.96 75.73 133.21 74.86 134.35 73.88C134.92 73.38 135.44 72.83 135.92 72.24C136.42 71.67 136.85 71.04 137.24 70.37Z" fill="#263238"/>
<path d="M115.4 81.15C115.4 81.15 114.1 75.42 111.62 75.71C109.14 76 108.86 83.42 110.88 85.27C112.9 87.12 114.65 85.29 114.65 85.29L115.4 81.15Z" fill="#F7A9A0"/>
<path d="M111.59 77.84C111.55 77.82 111.52 77.87 111.55 77.9C112.94 79.25 113.19 81.15 113.15 83.01C112.91 82.19 112.37 81.58 111.3 81.83C111.24 81.84 111.26 81.93 111.31 81.94C112.05 82.07 112.5 82.39 112.74 83.12C112.91 83.64 112.93 84.22 112.99 84.76C113.01 84.94 113.31 84.97 113.32 84.78C113.32 84.77 113.32 84.75 113.32 84.74C114.23 82.62 113.78 78.98 111.59 77.84Z" fill="#263238"/>
</g>
<defs>
<clipPath id="clip0_318_7947">
<rect width="640.48" height="457.18" fill="white"/>
</clipPath>
</defs>
</svg>
