<svg width="121" height="112" viewBox="0 0 121 112" fill="none" xmlns="http://www.w3.org/2000/svg">
<path d="M0.37793 39.3409C0.37793 37.6191 0.37793 35.8928 0.37793 34.1711C0.696891 32.2118 0.856379 30.2114 1.35305 28.2979C5.14869 13.7337 14.435 4.75505 29.1073 1.6769C37.537 -0.0905263 45.666 1.36634 53.2572 5.44467C55.7497 6.78736 58.069 8.46344 60.3564 9.92031C62.94 8.31273 65.4735 6.4494 68.2484 5.07017C78.2638 0.0921501 88.6028 -0.510703 98.9417 3.83251C115.541 10.8063 123.397 28.3116 119.314 45.625C117.501 53.3159 113.737 60.0156 109.08 66.2724C103.662 73.5476 97.3879 80.0511 90.7261 86.1617C82.1962 93.9804 73.5386 101.667 64.8811 109.339C63.8422 110.262 62.5026 111.029 61.172 111.39C59.3175 111.892 57.6999 110.983 56.2783 109.727C48.5958 102.954 40.8405 96.2547 33.2128 89.4225C25.9313 82.9008 18.7228 76.2924 12.6033 68.6016C7.30851 61.9475 3.14834 54.7179 1.42139 46.2781C0.956621 43.9946 0.719674 41.6563 0.37793 39.3409ZM67.6379 45.3145C67.6379 40.3821 67.6379 35.5959 67.6379 30.7823C62.7441 30.7823 57.9961 30.7823 53.1114 30.7823C53.1114 35.637 53.1114 40.4278 53.1114 45.3647C48.1949 45.3647 43.4195 45.3647 38.6488 45.3647C38.6488 50.2742 38.6488 55.0331 38.6488 59.9471C43.4925 59.9471 48.2678 59.9471 53.1479 59.9471C53.1479 64.8567 53.1479 69.6154 53.1479 74.4199C58.0325 74.4199 62.8124 74.4199 67.6925 74.4199C67.6925 69.5743 67.6925 64.811 67.6925 59.9015C72.5681 59.9015 77.3525 59.9015 82.1734 59.9015C82.1734 54.992 82.1734 50.224 82.1734 45.3099C77.3434 45.3145 72.559 45.3145 67.6379 45.3145Z" fill="#595959"/>
</svg>
