<svg width="678" height="667" viewBox="0 0 678 667" fill="none" xmlns="http://www.w3.org/2000/svg">
<g clip-path="url(#clip0_344_6897)">
<path d="M434.788 405.795L430.83 429.589L403.978 574.765H399.652L419.174 429.589L422.063 405.795H434.788Z" fill="#DBDBDB"/>
<path d="M422.063 405.795H434.788L430.83 429.589H419.174L422.063 405.795Z" fill="#A6A6A6"/>
<path d="M519.089 574.765H514.764L487.928 429.589L483.953 405.795H496.695L499.567 429.589L519.089 574.765Z" fill="#DBDBDB"/>
<path d="M496.695 405.795L499.567 429.589H487.928L483.953 405.795H496.695Z" fill="#A6A6A6"/>
<path d="M599.612 574.765H595.287L568.451 429.589L564.477 405.795H577.218L580.091 429.589L599.612 574.765Z" fill="#DBDBDB"/>
<path d="M580.091 429.589H568.451L564.477 405.795H577.218L580.091 429.589Z" fill="#A6A6A6"/>
<path d="M592.75 416.965H396.029V396.214H469.674L494.423 252.025H585.251L592.75 416.965Z" fill="#DBDBDB"/>
<path d="M592.75 416.965H582.029L575.049 252.025H585.252L592.75 416.965Z" fill="#A6A6A6"/>
<path d="M406.015 278.445L423.6 289.364L426.94 283.963C427.925 282.374 429.712 281.522 431.566 281.672C432.584 281.756 433.62 281.789 434.655 281.772C436.509 281.739 438.245 282.709 439.114 284.348L442.103 289.932L460.339 280.134L457.35 274.549C456.464 272.91 456.615 270.937 457.684 269.399C458.268 268.546 458.819 267.676 459.32 266.757C460.222 265.118 461.925 264.098 463.779 264.165L470.108 264.365L470.743 243.648L464.38 243.464C462.51 243.414 460.89 242.26 460.105 240.571C459.888 240.119 459.654 239.651 459.42 239.2C459.186 238.748 458.936 238.314 458.669 237.879C457.717 236.29 457.65 234.317 458.635 232.729L461.992 227.294L444.407 216.375L441.051 221.776C440.066 223.365 438.279 224.217 436.425 224.05C435.406 223.967 434.371 223.933 433.336 223.95C431.482 223.983 429.745 223.013 428.877 221.375L425.888 215.79L407.652 225.589L410.641 231.173C411.526 232.812 411.376 234.785 410.307 236.324C409.723 237.176 409.171 238.046 408.687 238.949C407.802 240.588 406.082 241.608 404.228 241.557L397.883 241.357L397.248 262.075L403.594 262.275C405.447 262.325 407.067 263.479 407.852 265.151C408.069 265.62 408.303 266.071 408.537 266.523C408.771 266.974 409.021 267.409 409.288 267.843C410.257 269.449 410.307 271.422 409.322 273.01L406.015 278.445ZM419.074 260.904C414.649 252.644 417.755 242.36 426.005 237.929C434.254 233.498 444.541 236.591 448.966 244.852C453.392 253.112 450.286 263.412 442.036 267.843C433.77 272.291 423.5 269.165 419.074 260.904Z" fill="#EBEBEB"/>
<path d="M562.307 223.013L569.554 235.588L573.395 233.364C574.531 232.712 575.917 232.779 577.002 233.481C577.604 233.882 578.238 234.233 578.873 234.568C580.025 235.153 580.776 236.34 580.776 237.628V242.076H595.272V237.628C595.272 236.324 596.023 235.153 597.175 234.568C597.827 234.233 598.445 233.882 599.046 233.481C600.131 232.762 601.534 232.712 602.653 233.364L606.494 235.588L613.741 223.013L609.884 220.789C608.748 220.137 608.13 218.9 608.197 217.579C608.214 217.228 608.23 216.86 608.23 216.509C608.23 216.158 608.214 215.79 608.197 215.439C608.13 214.134 608.748 212.897 609.867 212.245L613.741 210.004L606.494 197.43L602.636 199.654C601.501 200.306 600.114 200.239 599.029 199.52C598.428 199.119 597.81 198.767 597.159 198.433C596.006 197.848 595.255 196.677 595.255 195.373V190.925H580.76V195.373C580.76 196.677 580.008 197.848 578.856 198.433C578.205 198.767 577.587 199.119 576.986 199.52C575.9 200.239 574.497 200.306 573.379 199.654L569.521 197.43L562.273 210.004L566.131 212.228C567.267 212.88 567.884 214.118 567.818 215.422C567.801 215.773 567.784 216.141 567.784 216.492C567.784 216.843 567.801 217.211 567.818 217.562C567.884 218.867 567.267 220.121 566.131 220.773L562.307 223.013ZM576.167 216.509C576.167 209.937 581.478 204.62 588.041 204.62C594.604 204.62 599.931 209.937 599.931 216.509C599.931 223.08 594.604 228.398 588.041 228.398C581.478 228.414 576.167 223.08 576.167 216.509Z" fill="#EBEBEB"/>
<path d="M22.3107 354.176L29.5583 366.751L33.3992 364.527C34.5348 363.874 35.9208 363.941 37.0063 364.644C37.6075 365.045 38.2421 365.396 38.8767 365.731C40.0289 366.316 40.7804 367.486 40.7804 368.791V373.238H55.2756V368.791C55.2756 367.486 56.0271 366.316 57.1793 365.731C57.8306 365.396 58.4485 365.045 59.0497 364.644C60.1351 363.925 61.5379 363.874 62.6568 364.527L66.4976 366.751L73.7452 354.176L69.8876 351.952C68.7521 351.3 68.1342 350.063 68.201 348.742C68.2177 348.39 68.2344 348.023 68.2344 347.671C68.2344 347.32 68.2177 346.952 68.201 346.601C68.1342 345.297 68.7521 344.06 69.8709 343.407L73.7452 341.167L66.4976 328.592L62.64 330.816C61.5045 331.468 60.1184 331.401 59.033 330.682C58.4318 330.281 57.8139 329.93 57.1626 329.596C56.0103 329.01 55.2589 327.823 55.2589 326.536V322.088H40.7637V326.536C40.7637 327.84 40.0122 329.01 38.86 329.596C38.2087 329.93 37.5908 330.281 36.9896 330.682C35.9041 331.401 34.5014 331.468 33.3825 330.816L29.5249 328.592L22.2773 341.167L26.1349 343.391C27.2705 344.043 27.8884 345.28 27.8216 346.585C27.8049 346.936 27.7882 347.304 27.7882 347.655C27.7882 348.006 27.8049 348.374 27.8216 348.725C27.8884 350.029 27.2705 351.283 26.1349 351.935L22.3107 354.176ZM36.1713 347.671C36.1713 341.1 41.4818 335.782 48.0447 335.782C54.6076 335.782 59.918 341.1 59.918 347.671C59.918 354.243 54.5909 359.56 48.0447 359.56C41.4985 359.577 36.1713 354.243 36.1713 347.671Z" fill="#EBEBEB"/>
<path d="M256.654 336.602L220.433 574.648H213.285L235.646 336.602H256.654Z" fill="#EBEBEB"/>
<path d="M256.637 336.602L253.18 359.343H233.508L235.645 336.602H256.637Z" fill="#A6A6A6"/>
<path d="M588.34 336.602L624.561 574.648H631.708L609.348 336.602H588.34Z" fill="#EBEBEB"/>
<path d="M588.357 336.602L591.814 359.343H611.486L609.349 336.602H588.357Z" fill="#A6A6A6"/>
<path d="M645.185 311.436H199.826V331.652H645.185V311.436Z" fill="#EBEBEB"/>
<path d="M638.405 331.652H206.572V336.602H638.405V331.652Z" fill="#C7C7C7"/>
<path d="M339 667C526.225 667 678 649.729 678 628.424C678 607.119 526.225 589.847 339 589.847C151.775 589.847 0 607.119 0 628.424C0 649.729 151.775 667 339 667Z" fill="#EBEBEB"/>
<path d="M201.663 168.736C237.494 168.736 266.54 139.651 266.54 103.773C266.54 67.8952 237.494 38.8104 201.663 38.8104C165.832 38.8104 136.785 67.8952 136.785 103.773C136.785 139.651 165.832 168.736 201.663 168.736Z" fill="#FFC727"/>
<path d="M201.662 153.352C229.008 153.352 251.177 131.155 251.177 103.773C251.177 76.3913 229.008 54.1941 201.662 54.1941C174.317 54.1941 152.148 76.3913 152.148 103.773C152.148 131.155 174.317 153.352 201.662 153.352Z" fill="white"/>
<path d="M236.104 111.988C240.636 92.9515 228.898 73.8404 209.887 69.3024C190.875 64.7644 171.789 76.5178 167.257 95.5544C162.725 114.591 174.463 133.702 193.475 138.24C212.486 142.778 231.572 131.025 236.104 111.988Z" fill="#FFC727"/>
<path d="M220.75 108.158C223.167 97.6087 216.586 87.0948 206.05 84.6746C195.514 82.2545 185.014 88.8447 182.597 99.3943C180.18 109.944 186.762 120.458 197.297 122.878C207.833 125.298 218.333 118.708 220.75 108.158Z" fill="white"/>
<path d="M210.514 103.773C210.514 108.656 206.556 112.635 201.663 112.635C196.77 112.635 192.812 108.672 192.812 103.773C192.812 98.8905 196.77 94.9108 201.663 94.9108C206.556 94.9108 210.514 98.8737 210.514 103.773Z" fill="#FFC727"/>
<path d="M290.27 13.041L206.432 96.9893L208.439 98.9993L292.277 15.051L290.27 13.041Z" fill="#455A64"/>
<path d="M212.617 100.83L201.662 103.773L204.601 92.8038L212.617 100.83Z" fill="#263238"/>
<path d="M305.299 8.57808L289.585 24.3129L277.244 28.092L281.018 15.7348L296.732 0L292.975 12.3404L305.299 8.57808Z" fill="#263238"/>
<path d="M98.7438 398.253C98.6604 397.116 98.627 395.979 98.627 394.876H99.8794C99.8794 395.946 99.9128 397.066 99.9963 398.17L98.7438 398.253Z" fill="#263238"/>
<path d="M228.115 495.388H227.898V494.134H228.132C230.236 494.134 232.407 494.084 234.561 493.983L234.628 495.238C232.44 495.338 230.269 495.388 228.115 495.388ZM219.515 495.12C217.294 494.987 215.039 494.786 212.818 494.535L212.952 493.281C215.139 493.532 217.377 493.716 219.581 493.866L219.515 495.12ZM242.994 494.585L242.861 493.331C245.048 493.097 247.269 492.796 249.457 492.462L249.657 493.699C247.436 494.05 245.199 494.351 242.994 494.585ZM204.502 493.348C202.331 492.98 200.11 492.529 197.906 492.044L198.173 490.823C200.344 491.308 202.548 491.743 204.702 492.127L204.502 493.348ZM257.907 492.161L257.64 490.94C259.811 490.472 261.982 489.954 264.119 489.385L264.436 490.589C262.282 491.158 260.078 491.693 257.907 492.161ZM189.773 489.954C187.635 489.335 185.481 488.666 183.36 487.947L183.761 486.76C185.865 487.479 188.003 488.148 190.124 488.75L189.773 489.954ZM272.485 488.215L272.101 487.027C274.172 486.358 276.293 485.606 278.397 484.82L278.831 485.991C276.71 486.793 274.573 487.529 272.485 488.215ZM175.495 485.021C173.441 484.185 171.353 483.282 169.333 482.345L169.85 481.208C171.854 482.145 173.925 483.031 175.962 483.85L175.495 485.021ZM286.613 482.847L286.112 481.693C288.15 480.807 290.17 479.854 292.124 478.867L292.692 479.988C290.705 480.991 288.667 481.961 286.613 482.847ZM161.801 478.6C159.814 477.546 157.843 476.426 155.94 475.306L156.574 474.235C158.461 475.356 160.415 476.459 162.386 477.513L161.801 478.6ZM300.023 475.924L299.372 474.854C301.259 473.717 303.146 472.496 304.983 471.242L305.684 472.279C303.83 473.55 301.927 474.77 300.023 475.924ZM148.859 470.808C146.989 469.553 145.152 468.249 143.382 466.911L144.133 465.908C145.887 467.229 147.723 468.517 149.56 469.771L148.859 470.808ZM312.431 467.296L311.663 466.309C313.399 464.938 315.103 463.5 316.756 462.046L317.591 462.982C315.921 464.47 314.184 465.925 312.431 467.296ZM136.785 461.694C135.065 460.256 133.379 458.751 131.742 457.246L132.594 456.327C134.214 457.815 135.884 459.303 137.587 460.741L136.785 461.694ZM323.72 457.263L322.835 456.377C324.371 454.855 325.924 453.233 327.444 451.578L328.362 452.431C326.842 454.086 325.273 455.725 323.72 457.263ZM125.747 451.344C124.194 449.722 122.674 448.033 121.238 446.361L122.19 445.542C123.626 447.214 125.129 448.869 126.665 450.491L125.747 451.344ZM333.89 446.11L332.921 445.307C334.324 443.619 335.727 441.863 337.096 440.107L338.081 440.876C336.712 442.632 335.309 444.404 333.89 446.11ZM115.994 439.773C114.642 437.967 113.356 436.111 112.137 434.255L113.189 433.569C114.391 435.392 115.677 437.231 116.996 439.02L115.994 439.773ZM343.091 434.121L342.072 433.385C343.358 431.579 344.611 429.756 345.863 427.884L346.898 428.586C345.646 430.459 344.377 432.315 343.091 434.121ZM107.812 427.031C106.726 425.024 105.724 423.001 104.822 420.994L105.958 420.476C106.843 422.449 107.845 424.456 108.914 426.429L107.812 427.031ZM351.457 421.546L350.405 420.877C351.574 419.005 352.743 417.098 353.896 415.175L354.964 415.811C353.795 417.767 352.643 419.673 351.457 421.546ZM101.75 413.135C101.032 410.945 100.43 408.754 99.9629 406.614L101.182 406.347C101.65 408.437 102.234 410.594 102.935 412.734L101.75 413.135ZM359.189 408.587L358.104 407.968C359.206 406.046 360.292 404.089 361.377 402.133L362.479 402.735C361.377 404.708 360.275 406.648 359.189 408.587ZM366.437 395.361L365.335 394.775C366.37 392.819 367.422 390.846 368.441 388.856L369.56 389.441C368.524 391.414 367.489 393.387 366.437 395.361ZM373.401 381.967L372.282 381.398C373.284 379.408 374.302 377.419 375.304 375.429L376.423 375.997C375.405 377.987 374.403 379.994 373.401 381.967ZM380.164 368.506L379.045 367.937L382.034 361.951L383.153 362.52L380.164 368.506ZM386.911 355.012L385.792 354.443C386.794 352.453 387.796 350.464 388.798 348.457L389.916 349.026C388.898 351.032 387.896 353.022 386.911 355.012ZM393.707 341.568L392.588 340.999C393.607 339.009 394.642 337.036 395.678 335.046L396.78 335.632C395.761 337.605 394.726 339.595 393.707 341.568ZM400.704 328.241L399.602 327.639C400.654 325.682 401.723 323.726 402.792 321.77L403.894 322.372C402.825 324.328 401.756 326.284 400.704 328.241ZM407.969 315.098L406.883 314.479C407.985 312.539 409.104 310.617 410.24 308.694L411.325 309.329C410.173 311.252 409.054 313.175 407.969 315.098ZM415.6 302.189L414.531 301.537C415.7 299.647 416.886 297.758 418.072 295.868L419.124 296.537C417.938 298.41 416.753 300.299 415.6 302.189ZM423.7 289.564L422.664 288.862C423.917 287.006 425.169 285.167 426.455 283.327L427.474 284.046C426.188 285.886 424.935 287.725 423.7 289.564ZM432.367 277.291L431.365 276.538C432.701 274.749 434.053 272.96 435.423 271.204L436.408 271.973C435.038 273.729 433.686 275.502 432.367 277.291ZM441.635 265.469L440.666 264.666C442.086 262.944 443.539 261.238 445.025 259.566L445.96 260.385C444.49 262.074 443.054 263.763 441.635 265.469ZM451.571 254.215L450.653 253.362C452.172 251.74 453.725 250.135 455.312 248.53L456.197 249.416C454.627 250.988 453.091 252.593 451.571 254.215ZM462.192 243.597L461.34 242.677C462.96 241.156 464.63 239.651 466.317 238.163L467.135 239.099C465.448 240.587 463.812 242.092 462.192 243.597ZM473.481 233.731L472.696 232.762C474.433 231.34 476.219 229.952 477.956 228.615L478.724 229.618C476.988 230.939 475.218 232.327 473.481 233.731ZM485.454 224.702L484.736 223.682C486.556 222.411 488.427 221.14 490.28 219.92L490.965 220.973C489.112 222.177 487.258 223.431 485.454 224.702ZM498.029 216.525L497.394 215.455C499.315 214.301 501.269 213.181 503.206 212.094L503.824 213.198C501.87 214.268 499.933 215.388 498.029 216.525Z" fill="#263238"/>
<path d="M511.49 209.101L510.922 207.981C511.907 207.479 512.909 206.977 513.928 206.492L514.479 207.613C513.477 208.114 512.475 208.599 511.49 209.101Z" fill="#263238"/>
<path d="M495.876 197.53L486.725 222.696L505.946 207.663L579.39 180.992L495.876 197.53Z" fill="#FFC727"/>
<path opacity="0.1" d="M495.876 197.53L486.725 222.696L505.946 207.663L579.39 180.992L495.876 197.53Z" fill="#17153E"/>
<path d="M508.401 213.532L486.725 222.696L505.946 207.663L508.401 213.532Z" fill="#263238"/>
<path d="M505.945 207.663L579.39 180.992L519.138 239.852L505.945 207.663Z" fill="#FFC727"/>
<path d="M495.875 197.53L465.365 177.799L579.389 180.992L495.875 197.53Z" fill="#FFC727"/>
<path d="M206.656 560.317H31.9121V566.621H206.656V560.317Z" fill="#455A64"/>
<path d="M206.656 600.733H31.9121V607.037H206.656V600.733Z" fill="#455A64"/>
<path d="M206.656 604.83H31.9121V607.02H206.656V604.83Z" fill="#37474F"/>
<path d="M212.435 607.037H26.1016V617.17H212.435V607.037Z" fill="#455A64"/>
<path d="M198.006 566.621H40.5293V600.733H198.006V566.621Z" fill="#455A64"/>
<path d="M198.006 566.621H40.5293V574.781H198.006V566.621Z" fill="#37474F"/>
<path d="M198.006 592.573H40.5293V600.733H198.006V592.573Z" fill="#37474F"/>
<path d="M83.5302 394.04C83.5302 394.04 72.8425 380.328 73.26 378.907C73.6775 377.486 100.747 365.112 117.413 368.874C134.08 372.62 181.272 396.113 190.574 433.653C199.876 471.192 172.806 524.985 172.104 537.493C171.403 550 175.995 560.301 175.995 560.301H162.252C162.252 560.301 154.887 546.238 159.48 525.253C164.055 504.267 175.995 464.504 170.718 442.816C165.441 421.128 129.621 392.217 118.933 388.321C108.229 384.458 83.5302 394.04 83.5302 394.04Z" fill="#263238"/>
<path d="M169.733 560.317H57.5792C57.5792 560.317 57.5792 531.222 68.6844 512.862C79.7896 494.519 106.425 475.607 111.803 466.895C117.163 458.183 115.911 449.471 115.911 449.471C115.911 449.471 109.665 459.37 95.3201 463.116C82.712 466.41 71.4899 462.28 71.4899 462.28C71.4899 462.28 52.7364 468.383 51.4505 469.687C50.1479 470.992 45.8896 474.67 42.5664 474.854C39.2265 475.038 28.7559 463.684 28.7559 453.685C28.7559 445.324 64.4093 414.256 64.4093 414.256C64.4093 414.256 69.2188 402.768 70.5213 400.177C71.8239 397.585 104.772 381.833 113.472 382.385C122.173 382.937 160.365 404.123 173.073 431.696C185.297 458.2 172.088 500.405 167.512 518.715C160.849 545.402 169.733 560.317 169.733 560.317Z" fill="#455A64"/>
<path d="M71.5059 429.021L90.4097 418.654C90.4097 418.654 83.4794 417.032 79.2377 418.921C75.0128 420.811 71.5059 429.021 71.5059 429.021Z" fill="#263238"/>
<path d="M99.2107 396.097C99.2107 396.097 83.747 370.847 83.5299 368.021C83.3963 366.215 105.056 370.948 110.884 374.977C116.712 379.007 127.967 391.415 127.967 391.415L99.2107 396.097Z" fill="#455A64"/>
<path d="M90.4102 373.238C90.4102 373.238 101.181 376.449 103.302 378.924C105.423 381.398 109.681 388.806 109.681 388.806" fill="#263238"/>
<path d="M57.8974 553.211L165.175 542.008C165.926 553.913 169.734 560.317 169.734 560.317H57.5801L57.8974 553.211Z" fill="#37474F"/>
<path d="M638.489 20.4169H430.764V151.446H638.489V20.4169Z" fill="#EBEBEB"/>
<path d="M447.881 50.415C476.704 50.2311 505.511 50.2812 534.334 50.2144C563.158 50.2812 591.964 50.2478 620.788 50.415C591.964 50.5989 563.158 50.5488 534.334 50.6157C505.528 50.5488 476.704 50.5989 447.881 50.415Z" fill="#A6A6A6"/>
<path d="M447.881 67.521C476.704 67.337 505.511 67.3872 534.334 67.3203C563.158 67.3872 591.964 67.3538 620.788 67.521C591.964 67.7049 563.158 67.6547 534.334 67.7216C505.528 67.6547 476.704 67.7049 447.881 67.521Z" fill="#A6A6A6"/>
<path d="M447.881 84.627C476.704 84.4431 505.511 84.4933 534.334 84.4264C563.158 84.4933 591.964 84.4598 620.788 84.627C591.964 84.811 563.158 84.7608 534.334 84.8277C505.528 84.7608 476.704 84.811 447.881 84.627Z" fill="#A6A6A6"/>
<path d="M447.881 101.733C476.704 101.549 505.511 101.599 534.334 101.532C563.158 101.599 591.964 101.566 620.788 101.733C591.964 101.917 563.158 101.867 534.334 101.934C505.528 101.867 476.704 101.917 447.881 101.733Z" fill="#A6A6A6"/>
<path d="M447.881 118.839C476.704 118.655 505.511 118.705 534.334 118.638C563.158 118.705 591.964 118.672 620.788 118.839C591.964 119.023 563.158 118.973 534.334 119.04C505.528 118.973 476.704 119.023 447.881 118.839Z" fill="#A6A6A6"/>
<path d="M482.699 39.2953C482.95 55.2809 482.883 71.2666 483 87.2523C482.899 103.238 482.966 119.224 482.699 135.209C482.449 119.224 482.515 103.238 482.398 87.2523C482.515 71.2666 482.449 55.2809 482.699 39.2953Z" fill="#A6A6A6"/>
<path d="M512.592 39.2953C512.842 55.2809 512.775 71.2666 512.892 87.2523C512.792 103.238 512.859 119.224 512.592 135.209C512.341 119.224 512.408 103.238 512.291 87.2523C512.408 71.2666 512.341 55.2809 512.592 39.2953Z" fill="#A6A6A6"/>
<path d="M542.5 39.2953C542.75 55.2809 542.684 71.2666 542.8 87.2523C542.7 103.238 542.767 119.224 542.5 135.209C542.249 119.224 542.316 103.238 542.199 87.2523C542.316 71.2666 542.249 55.2809 542.5 39.2953Z" fill="#A6A6A6"/>
<path d="M572.41 39.2953C572.66 55.2809 572.594 71.2666 572.711 87.2523C572.61 103.238 572.677 119.224 572.41 135.209C572.159 119.224 572.226 103.238 572.109 87.2523C572.21 71.2666 572.143 55.2809 572.41 39.2953Z" fill="#A6A6A6"/>
<path d="M602.301 39.2953C602.551 55.2809 602.484 71.2666 602.601 87.2523C602.501 103.238 602.568 119.224 602.301 135.209C602.05 119.224 602.117 103.238 602 87.2523C602.117 71.2666 602.05 55.2809 602.301 39.2953Z" fill="#A6A6A6"/>
<path opacity="0.5" d="M452.24 106.432C457.517 106.432 460.673 89.0582 468.138 89.0582C475.62 89.0582 476.404 101.733 482.7 101.733C488.996 101.733 488.795 79.4601 497.262 79.4601C505.729 79.4601 503.758 88.4896 512.609 88.4896C521.46 88.4896 518.12 67.5043 527.371 67.5043C536.623 67.5043 532.882 96.4156 542.518 96.4156C548.613 96.4156 550.984 87.2355 558.249 87.2355C563.075 87.2355 565.914 91.8339 572.209 91.8339C578.605 91.8339 579.891 74.1761 587.757 74.1761C595.622 74.1761 596.524 84.627 602.319 84.627C608.113 84.627 610.184 67.521 620.805 67.521V135.193H452.24V106.432Z" fill="#FFC727"/>
<path d="M452.24 107.268V105.596C453.843 105.596 456.031 101.532 457.651 98.5726C460.406 93.4893 463.262 88.2221 468.138 88.2221C472.814 88.2221 475.135 92.0847 477.189 95.4792C478.792 98.1379 480.462 100.897 482.683 100.897C484.654 100.897 486.357 95.5461 487.61 91.65C489.647 85.2457 491.768 78.6407 497.245 78.6407C502.138 78.6407 504.059 81.2326 505.762 83.5234C507.415 85.7473 508.835 87.6703 512.592 87.6703C515.999 87.6703 517.318 82.7709 518.621 78.022C520.14 72.4538 521.71 66.6849 527.355 66.6849C532.966 66.6849 534.385 73.942 535.905 81.6339C537.124 87.8542 538.66 95.5962 542.501 95.5962C544.789 95.5962 546.676 93.69 548.663 91.6667C551.085 89.2087 553.823 86.4162 558.249 86.4162C560.904 86.4162 562.975 87.5532 564.979 88.6569C567.083 89.8106 569.254 91.0146 572.209 91.0146C574.397 91.0146 576.384 86.8175 577.988 83.4398C580.342 78.4902 582.764 73.3568 587.757 73.3568C592.716 73.3568 595.155 76.6843 597.309 79.6273C598.879 81.7676 600.365 83.8076 602.319 83.8076C603.989 83.8076 605.876 80.5637 607.529 77.6876C610.368 72.7882 613.908 66.7017 620.805 66.7017V68.3738C615.495 68.3738 612.422 73.6578 609.717 78.323C607.395 82.3194 605.558 85.4798 602.319 85.4798C598.929 85.4798 597.125 83.0217 595.205 80.3965C593.268 77.7545 591.264 75.0289 587.757 75.0289C584.467 75.0289 582.213 79.7778 580.225 83.9749C578.004 88.6569 576.084 92.6867 572.209 92.6867C568.435 92.6867 565.83 91.2487 563.526 89.9778C561.689 88.9578 560.086 88.0883 558.249 88.0883C555.076 88.0883 552.805 90.3959 550.617 92.6198C548.379 94.9107 546.058 97.2684 542.518 97.2684C536.623 97.2684 535.137 89.7939 533.584 81.868C532.398 75.8483 530.912 68.3571 527.371 68.3571C523.681 68.3571 522.228 73.6578 520.959 78.3397C519.422 83.9916 517.969 89.3424 512.609 89.3424C507.415 89.3424 505.428 86.667 503.691 84.2926C502.105 82.1522 500.736 80.2962 497.279 80.2962C493.688 80.2962 491.618 86.7841 489.948 92.0011C488.061 97.9038 486.574 102.552 482.717 102.552C478.926 102.552 477.039 99.4254 475.035 96.1146C473.181 93.0546 471.278 89.8775 468.155 89.8775C464.898 89.8775 462.11 95.0277 459.872 99.1579C457.4 103.706 455.463 107.268 452.24 107.268Z" fill="#FFC727"/>
<path d="M452.239 40.332C452.422 56.1505 452.589 71.9522 452.606 87.7706L452.79 135.209L452.239 134.825L536.521 134.925L578.654 135.009L620.787 135.226L578.654 135.443L536.521 135.527L452.239 135.627H451.688V135.243L451.871 87.8041C451.888 71.9522 452.055 56.1505 452.239 40.332Z" fill="#A6A6A6"/>
<path d="M228.934 182.263H26.5195V293.945H228.934V182.263Z" fill="#EBEBEB"/>
<path d="M217.178 196.359H57.0801V206.007H217.178V196.359Z" fill="white"/>
<path d="M167.881 196.359H57.0801V206.007H167.881V196.359Z" fill="#455A64"/>
<path d="M217.178 214.803H57.0801V224.451H217.178V214.803Z" fill="white"/>
<path d="M200.813 214.803H57.0801V224.451H200.813V214.803Z" fill="#FFC727"/>
<path d="M217.178 233.263H57.0801V242.912H217.178V233.263Z" fill="white"/>
<path d="M159.114 233.263H57.0801V242.912H159.114V233.263Z" fill="#455A64"/>
<path d="M217.178 251.724H57.0801V261.372H217.178V251.724Z" fill="white"/>
<path d="M174.828 251.724H57.0801V261.372H174.828V251.724Z" fill="#FFC727"/>
<path d="M217.178 270.184H57.0801V279.833H217.178V270.184Z" fill="white"/>
<path d="M133.697 270.184H57.0801V279.833H133.697V270.184Z" fill="#455A64"/>
<path d="M52.0032 232.227H40.2969V243.948H52.0032V232.227Z" fill="#455A64"/>
<path d="M45.0737 239.333C44.5226 239.333 44.0216 239.333 43.5039 239.333C43.5039 238.714 43.5039 238.146 43.5039 237.527C44.0216 237.527 44.5059 237.527 45.0403 237.527C45.0403 237.393 45.057 237.276 45.057 237.176C45.0737 236.708 45.0403 236.223 45.0904 235.755C45.1906 234.718 45.8251 233.982 46.8438 233.848C47.4784 233.765 48.1464 233.832 48.8144 233.832C48.8144 234.384 48.8144 234.902 48.8144 235.47C48.5806 235.47 48.3468 235.47 48.0963 235.47C47.8792 235.47 47.6621 235.47 47.4617 235.521C47.1778 235.587 46.9774 235.788 46.9607 236.089C46.944 236.557 46.9607 237.009 46.9607 237.51C47.5452 237.51 48.1297 237.51 48.7476 237.51C48.6641 238.096 48.614 238.647 48.5305 239.199C48.5305 239.249 48.3802 239.316 48.3134 239.316C47.8792 239.333 47.445 239.316 46.9774 239.316C46.9774 240.871 46.9774 242.393 46.9774 243.948C46.3261 243.948 45.7249 243.948 45.0737 243.948C45.0737 242.427 45.0737 240.905 45.0737 239.333Z" fill="white"/>
<path d="M52.0032 250.687H40.2969V262.409H52.0032V250.687Z" fill="#FFC727"/>
<path d="M46.343 257.158C45.7586 257.158 45.2075 257.158 44.6397 257.158C44.6397 256.807 44.6397 256.489 44.6397 256.155C45.5916 256.155 46.5267 256.155 47.512 256.155C47.512 256.355 47.512 256.556 47.512 256.757C47.4452 258.379 46.3764 259.499 44.8234 259.583C43.2369 259.666 41.8843 258.596 41.6338 257.058C41.4334 255.77 42.0346 254.55 43.1868 253.914C44.2723 253.329 45.6751 253.479 46.6269 254.315C46.3931 254.55 46.1593 254.8 45.9256 255.018C45.8922 255.051 45.792 255.018 45.7419 255.001C45.4914 254.901 45.2409 254.767 44.9737 254.7C43.9717 254.483 42.9864 255.168 42.786 256.188C42.5857 257.208 43.2536 258.212 44.2723 258.412C45.2242 258.613 46.1092 258.094 46.343 257.158Z" fill="white"/>
<path d="M50.7182 256.121C50.7182 256.356 50.7182 256.539 50.7182 256.74C50.7182 256.807 50.7182 256.874 50.7015 256.974C50.4176 256.974 50.1504 256.974 49.8498 256.974C49.8498 257.275 49.8498 257.543 49.8498 257.827C49.5492 257.827 49.2821 257.827 48.9982 257.827C48.9982 257.543 48.9982 257.275 48.9982 256.991C48.6976 256.991 48.4304 256.991 48.1465 256.991C48.1465 256.69 48.1465 256.422 48.1465 256.138C48.4304 256.138 48.6976 256.138 48.9982 256.138C48.9982 255.837 48.9982 255.57 48.9982 255.285C49.2988 255.285 49.5659 255.285 49.8665 255.285C49.8665 255.553 49.8665 255.82 49.8665 256.121C50.1504 256.121 50.4176 256.121 50.7182 256.121Z" fill="white"/>
<path d="M52.0032 269.147H40.2969V280.869H52.0032V269.147Z" fill="#455A64"/>
<path d="M41.6992 277.91C42.6678 277.926 43.5195 277.692 44.3043 277.107C43.2356 276.773 42.8014 276.455 42.6344 275.836C42.8682 275.819 43.1187 275.819 43.3525 275.803C42.5008 275.468 41.9998 274.9 41.933 273.963C42.2002 274.03 42.434 274.097 42.6678 274.164C41.8829 273.177 41.7326 272.425 42.2002 271.706C43.2022 272.86 44.4546 273.512 46.0244 273.612C46.0244 273.495 46.0077 273.395 46.0077 273.311C45.9743 272.509 46.3083 271.89 47.0264 271.539C47.7444 271.188 48.4291 271.288 49.047 271.79C49.1806 271.907 49.2975 271.94 49.4645 271.873C49.7484 271.756 50.049 271.656 50.3663 271.539C50.2327 271.923 49.9822 272.208 49.6649 272.442C49.6649 272.458 49.6816 272.475 49.6816 272.492C49.9822 272.408 50.2828 272.341 50.5667 272.258C50.5834 272.274 50.5834 272.274 50.6001 272.291C50.3663 272.525 50.1492 272.759 49.8987 272.977C49.7651 273.094 49.6983 273.194 49.6983 273.378C49.6983 276.104 47.6442 278.378 44.9389 278.612C43.8535 278.712 42.8014 278.512 41.8328 277.976C41.8161 277.993 41.7493 277.96 41.6992 277.91Z" fill="white"/>
<path d="M52.0872 195.323H40.3809V207.044H52.0872V195.323Z" fill="#455A64"/>
<path d="M50.5345 198.801C50.5345 197.63 49.7997 196.861 48.6308 196.861C47.0276 196.844 45.4078 196.844 43.8046 196.861C42.6691 196.878 41.9343 197.63 41.9176 198.767C41.9009 199.57 41.9176 200.372 41.9176 201.175C41.9176 201.961 41.9176 202.747 41.9176 203.533C41.9343 204.737 42.6524 205.506 43.838 205.506C45.4245 205.523 47.0276 205.523 48.6141 205.506C49.783 205.489 50.5178 204.72 50.5345 203.566C50.5512 201.978 50.5512 200.389 50.5345 198.801ZM49.7663 203.583C49.7663 204.319 49.3656 204.737 48.6141 204.737C47.0276 204.753 45.4412 204.753 43.838 204.737C43.0865 204.737 42.6858 204.319 42.6858 203.583C42.6858 201.978 42.6858 200.372 42.6858 198.767C42.6858 198.031 43.1032 197.613 43.838 197.597C45.4245 197.58 47.0109 197.58 48.6141 197.597C49.3489 197.597 49.7663 198.015 49.7663 198.75C49.783 199.553 49.7663 200.356 49.7663 201.158C49.783 201.978 49.783 202.78 49.7663 203.583Z" fill="white"/>
<path d="M46.2419 198.918C45.0228 198.918 44.0041 199.904 44.0041 201.142C43.9874 202.396 44.956 203.399 46.1918 203.416C47.4609 203.433 48.4796 202.446 48.4796 201.192C48.4963 199.938 47.4943 198.918 46.2419 198.918ZM46.2085 202.663C45.4069 202.647 44.7389 201.978 44.7389 201.175C44.7389 200.356 45.4069 199.67 46.2419 199.67C47.0768 199.67 47.7448 200.339 47.7448 201.158C47.7281 201.994 47.0267 202.68 46.2085 202.663Z" fill="white"/>
<path d="M49.1651 198.867C49.1484 199.185 48.9313 199.352 48.6308 199.336C48.2968 199.319 48.1131 199.118 48.1465 198.767C48.1632 198.449 48.3803 198.299 48.6975 198.282C48.9981 198.332 49.1818 198.516 49.1651 198.867Z" fill="white"/>
<path d="M52.0032 213.616H40.2969V225.337H52.0032V213.616Z" fill="#FFC727"/>
<path d="M41.8008 223.816C41.9845 223.147 42.1515 222.511 42.3352 221.893C42.402 221.692 42.3853 221.525 42.2851 221.341C40.9825 218.716 42.7026 215.539 45.625 215.171C48.3136 214.836 50.5847 216.876 50.5179 219.535C50.4678 221.726 48.6142 223.615 46.4098 223.715C45.6584 223.749 44.9403 223.615 44.2556 223.314C44.1387 223.264 43.9717 223.247 43.8381 223.281C43.1868 223.431 42.5189 223.615 41.8008 223.816ZM42.8361 222.796C43.2703 222.679 43.621 222.578 43.9884 222.511C44.1053 222.495 44.2556 222.511 44.3725 222.562C44.9236 222.846 45.4914 223.013 46.126 223.013C48.3637 223.047 50.1505 220.973 49.733 218.799C49.4325 217.294 48.514 216.308 47.0277 215.973C45.4914 215.622 44.1888 216.124 43.2703 217.378C42.3686 218.615 42.3352 219.953 43.0866 221.291C43.1534 221.408 43.1701 221.575 43.1367 221.709C43.0532 222.06 42.953 222.394 42.8361 222.796Z" fill="white"/>
<path d="M44.2722 217.696C44.5728 217.294 44.9569 217.378 45.1739 217.813C45.2574 217.98 45.2741 218.047 45.3576 218.231C45.4745 218.532 45.4578 218.716 45.2407 218.916C45.0904 219.05 45.1071 219.184 45.2073 219.334C45.5413 219.836 45.9755 220.204 46.5266 220.438C46.6936 220.505 46.8105 220.488 46.9274 220.354C47.3115 219.903 47.3115 219.903 47.8459 220.154C47.9127 220.187 47.9628 220.221 48.0296 220.237C48.447 220.438 48.4971 220.806 48.1632 221.14C47.8125 221.475 47.4117 221.558 46.9441 221.441C45.7918 221.14 44.9569 220.421 44.3223 219.435C44.1219 219.134 43.9883 218.816 43.9883 218.448C44.0217 218.114 44.1219 217.913 44.2722 217.696Z" fill="white"/>
<path d="M199.743 646.148C203.417 647.336 308.006 645.981 311.947 643.389C313.467 642.436 314.152 627.153 314.469 608.676C314.469 608.475 314.469 608.291 314.469 608.09C314.536 604.278 314.586 600.365 314.603 596.385C314.603 595.834 314.603 595.299 314.619 594.747L309.543 540.419L239.572 541.121L246.469 594.947L246.552 597.071L246.97 608.208L247.003 609.361C247.003 609.361 207.208 627.805 203.15 631.116C199.159 634.41 196.069 644.978 199.743 646.148Z" fill="#DD6A57"/>
<path d="M199.743 646.148C203.417 647.336 308.006 645.981 311.947 643.389C313.466 642.436 314.151 627.153 314.468 608.676C314.468 608.475 314.468 608.291 314.468 608.091C314.535 604.278 314.585 600.365 314.602 596.386C314.602 595.834 314.602 595.299 314.619 594.747L246.485 594.931L246.568 597.054L246.986 608.191L247.019 609.345C247.019 609.345 207.224 627.788 203.166 631.099C199.158 634.41 196.069 644.978 199.743 646.148Z" fill="#EBEBEB"/>
<path d="M199.726 646.148C201.613 646.75 230.036 646.7 257.807 646.132C263.385 646.015 268.946 645.898 274.239 645.747C294.045 645.195 310.411 644.393 311.93 643.389C313.433 642.436 314.118 627.588 314.418 609.462C314.418 609.211 314.435 608.943 314.435 608.692C314.435 608.508 314.435 608.291 314.452 608.107H314.368L246.952 608.241L246.986 609.395C246.986 609.395 207.174 627.838 203.15 631.133C199.158 634.41 196.069 644.978 199.726 646.148Z" fill="#FFC727"/>
<path d="M200.878 642.068C218.495 641.4 289.652 640.396 307.136 641.082C307.287 641.082 307.287 641.182 307.136 641.199C289.685 642.236 218.529 642.67 200.894 642.353C200.51 642.353 200.493 642.085 200.878 642.068Z" fill="#263238"/>
<path d="M239.471 608.508C246.384 607.121 254.885 608.074 260.262 612.956C260.462 613.14 260.195 613.441 259.978 613.374C253.098 611.301 246.702 609.997 239.521 609.395C239.003 609.345 238.97 608.609 239.471 608.508Z" fill="#263238"/>
<path d="M234.494 611.602C241.407 610.214 249.907 611.167 255.285 616.05C255.485 616.234 255.218 616.535 255.001 616.468C248.12 614.394 241.725 613.09 234.544 612.488C234.026 612.438 234.009 611.702 234.494 611.602Z" fill="#263238"/>
<path d="M229.533 614.695C236.447 613.307 244.947 614.26 250.324 619.143C250.525 619.327 250.257 619.628 250.04 619.561C243.16 617.488 236.764 616.183 229.583 615.581C229.066 615.531 229.032 614.796 229.533 614.695Z" fill="#263238"/>
<path d="M257.807 646.132C263.384 646.015 268.945 645.898 274.239 645.747C294.045 645.195 310.41 644.393 311.93 643.389C313.433 642.436 314.117 627.588 314.418 609.462C314.418 609.211 314.435 608.943 314.435 608.692C314.435 608.508 314.435 608.291 314.451 608.107H314.368C305.15 614.578 272.619 636.266 257.807 646.132Z" fill="#263238"/>
<path d="M242.394 608.458H317.725C317.725 608.458 302.562 432.282 303.147 429.205C303.898 425.259 308.34 407.434 314.269 384.141C316.122 376.85 318.126 369.025 320.197 360.931C325.808 339.01 332.003 315.065 337.397 294.213C345.497 262.994 351.809 238.731 351.809 238.731H287.967C287.967 238.731 280.519 262.342 271.15 293.076C255.87 343.006 235.447 411.748 233.443 428.452C230.187 455.441 242.394 608.458 242.394 608.458Z" fill="#37474F"/>
<path d="M245.717 595.583C257.223 595.349 253.916 595.248 265.422 595.131C271.05 595.081 308.056 594.747 313.316 595.633C313.433 595.65 313.433 595.85 313.316 595.867C308.056 596.737 271.05 596.419 265.422 596.369C253.916 596.252 257.223 596.168 245.717 595.917C245.516 595.917 245.516 595.6 245.717 595.583Z" fill="#263238"/>
<path d="M288.968 418.453C291.439 407.551 295.13 396.866 298.336 386.164C304.866 364.426 311.445 342.688 318.042 320.967C321.331 310.098 324.638 299.246 327.978 288.394C329.664 282.909 331.351 277.442 333.055 271.957C334.724 266.606 336.645 261.289 338.148 255.888C338.766 253.697 339.1 254.901 338.315 257.694C336.728 263.312 335.159 268.947 333.522 274.565C330.282 285.685 327.009 296.788 323.719 307.891C317.19 329.997 310.577 352.069 303.964 374.141C300.641 385.211 297.318 396.264 293.994 407.333C292.408 412.617 290.855 417.935 289.92 423.386C288.951 429.071 288.901 434.823 289.252 440.559C289.97 452.097 291.306 463.618 292.375 475.139C293.443 486.676 294.512 498.214 295.581 509.752C297.702 532.71 299.822 555.669 301.893 578.644C302.16 581.554 302.411 584.463 302.628 587.373C302.695 588.343 301.225 588.276 301.125 587.339C298.637 564.632 296.75 541.857 294.612 519.116C292.491 496.492 290.371 473.868 288.266 451.227C287.732 445.542 287.131 439.857 287.131 434.138C287.131 428.837 287.799 423.603 288.968 418.453Z" fill="#263238"/>
<path d="M295.215 238.731C299.64 273.06 308.09 337.438 314.252 384.141C328.647 327.556 351.809 238.731 351.809 238.731H295.215Z" fill="#263238"/>
<path d="M279.534 647.152C283.191 648.356 387.797 647.369 391.754 644.811C393.274 643.857 394.026 628.591 394.393 610.114C394.393 609.913 394.393 609.729 394.393 609.528C394.477 605.716 394.543 601.803 394.56 597.823C394.56 597.272 394.56 596.737 394.593 596.185C394.844 569.514 392.923 541.857 392.923 541.857L324.556 542.308L326.459 596.135L326.526 598.258L326.91 609.395L326.944 610.548C326.944 610.548 287.065 628.858 283.024 632.136C278.999 635.413 275.877 645.981 279.534 647.152Z" fill="#DD6A57"/>
<path d="M279.534 647.151C283.191 648.355 387.797 647.369 391.754 644.81C393.274 643.857 394.026 628.591 394.393 610.114C394.393 609.913 394.393 609.729 394.393 609.528C394.477 605.716 394.543 601.803 394.56 597.823C394.56 597.272 394.56 596.736 394.593 596.185L326.459 596.135L326.526 598.258L326.91 609.395L326.944 610.548C326.944 610.548 287.065 628.858 283.024 632.136C278.999 635.413 275.877 645.981 279.534 647.151Z" fill="#EBEBEB"/>
<path d="M279.534 647.152C283.191 648.355 387.797 647.369 391.754 644.811C393.274 643.857 394.026 628.591 394.393 610.114C394.393 609.913 394.393 609.729 394.393 609.528L326.91 609.411L326.944 610.565C326.944 610.565 287.065 628.875 283.024 632.152C278.999 635.413 275.877 645.981 279.534 647.152Z" fill="#FFC727"/>
<path d="M280.686 643.088C298.32 642.486 369.477 641.751 386.945 642.486C387.095 642.486 387.095 642.587 386.945 642.603C369.494 643.573 298.32 643.741 280.686 643.373C280.318 643.373 280.318 643.105 280.686 643.088Z" fill="#263238"/>
<path d="M319.412 609.662C326.343 608.308 334.843 609.294 340.186 614.194C340.387 614.378 340.12 614.679 339.903 614.612C333.039 612.522 326.626 611.184 319.462 610.548C318.945 610.498 318.911 609.763 319.412 609.662Z" fill="#263238"/>
<path d="M314.419 612.739C321.35 611.384 329.85 612.371 335.194 617.27C335.394 617.454 335.127 617.755 334.91 617.688C328.046 615.598 321.634 614.261 314.47 613.625C313.952 613.575 313.935 612.839 314.419 612.739Z" fill="#263238"/>
<path d="M309.443 615.816C316.373 614.461 324.873 615.448 330.217 620.347C330.417 620.531 330.15 620.832 329.933 620.765C323.07 618.675 316.657 617.337 309.493 616.702C308.975 616.635 308.959 615.899 309.443 615.816Z" fill="#263238"/>
<path d="M290.037 238.731C290.037 238.731 291.507 269.315 298.504 293.544C299.072 295.551 299.673 297.524 300.324 299.413C300.324 299.413 307.605 302.055 318.727 308.878C318.727 308.878 319.462 333.492 320.196 360.931C321.015 391.615 321.866 425.827 321.683 433.084C321.048 460.24 325.073 609.562 325.073 609.562L400.387 609.863C400.387 609.863 386.777 443.117 386.861 433.168C387.011 417.182 383.22 346.501 380.281 294.965C378.494 263.212 377.025 238.731 377.025 238.731H290.037Z" fill="#37474F"/>
<path d="M327.661 596.151C339.167 595.967 335.86 595.85 347.366 595.784C352.994 595.75 390 595.583 395.26 596.486C395.377 596.503 395.377 596.703 395.26 596.72C390 597.573 352.994 597.088 347.366 597.004C335.86 596.837 339.167 596.77 327.661 596.469C327.444 596.486 327.444 596.151 327.661 596.151Z" fill="#263238"/>
<path d="M370.696 249.667C372.082 291.738 373.551 333.809 375.422 375.88C377.309 418.085 379.847 460.257 383.371 502.361C385.341 525.871 387.195 558.963 389.733 582.423C389.75 582.574 389.516 582.641 389.483 582.473C384.005 540.737 380.949 489.135 378.244 447.13C375.555 405.143 373.718 363.072 372.282 321.018C371.48 297.223 370.863 273.428 370.145 249.634C370.161 249.299 370.696 249.333 370.696 249.667Z" fill="#263238"/>
<path d="M297.201 297.591C304.699 300.567 311.88 304.647 318.727 308.878C318.994 309.045 318.793 309.463 318.493 309.329C311.229 305.801 303.814 302.39 296.75 298.46C296.199 298.143 296.617 297.357 297.201 297.591Z" fill="#263238"/>
<path d="M296.767 271.639C297.268 274.314 297.92 276.973 298.487 279.632C299.022 282.123 299.423 284.682 300.091 287.156C300.725 289.548 301.744 291.755 303.581 293.46C304.566 294.38 305.635 295.183 306.687 296.019C307.255 296.47 307.856 296.905 308.44 297.357C308.357 297.005 308.307 296.638 308.24 296.27C308.056 295.25 307.889 294.23 307.722 293.226C307.338 290.969 306.987 288.712 306.637 286.437C305.952 281.99 305.334 277.492 304.399 273.094C304.366 272.91 304.633 272.843 304.683 273.027C305.785 277.391 307.004 281.705 307.973 286.103C308.44 288.26 310.127 298.912 310.21 299.664C310.294 300.45 310.344 301.219 310.377 302.005C310.411 302.774 310.561 303.644 310.377 304.396C310.327 304.597 310.094 304.563 310.01 304.43C310.01 304.43 310.01 304.43 309.993 304.43C309.609 303.744 309.509 302.858 309.309 302.122C309.108 301.37 308.941 300.584 308.808 299.815C308.758 299.53 308.724 299.246 308.674 298.962C307.622 298.326 306.653 297.474 305.668 296.771C304.616 296.002 303.531 295.266 302.545 294.414C300.625 292.808 299.439 290.818 298.721 288.427C297.986 285.953 297.753 283.327 297.469 280.769C297.135 277.742 296.884 274.699 296.467 271.672C296.467 271.522 296.734 271.455 296.767 271.639Z" fill="#263238"/>
<path d="M319.663 154.807C316.824 166.445 286.013 229.468 286.247 233.414C286.297 234.351 304.883 246.841 305.334 248.313C307.188 254.299 276.595 279.682 269.915 281.187C250.226 285.635 233.059 284.699 233.41 268.546C233.961 243.179 278.482 180.357 301.31 158.151C316.323 143.52 322.468 143.319 319.663 154.807Z" fill="#DD6A57"/>
<path d="M262.433 284.18L298.621 238.731C298.621 238.731 287.817 234.819 287.583 232.294C287.349 229.769 313.517 175.859 319.178 160.007C324.839 144.155 320.447 140.861 303.481 154.472C286.514 168.067 223.557 256.155 232.892 275.769C239.321 289.297 262.433 284.18 262.433 284.18Z" fill="#FFC727"/>
<path d="M287.565 232.595C285.945 232.946 284.426 233.665 282.906 234.334C281.386 234.986 279.884 235.688 278.381 236.391C275.425 237.762 272.486 239.183 269.63 240.755C266.791 242.327 264.002 243.999 261.247 245.721C260.612 246.122 259.961 246.524 259.31 246.942C259.043 247.025 258.792 247.109 258.542 247.209C257.456 247.594 256.371 248.012 255.335 248.48C253.298 249.416 251.361 250.52 249.474 251.707C249.34 251.791 249.474 251.992 249.607 251.925C251.561 250.804 253.615 249.868 255.719 249.065C255.987 248.965 256.27 248.865 256.554 248.764C255.452 249.5 254.383 250.269 253.348 251.089C250.593 253.279 247.971 255.52 245.516 258.045C245.399 258.162 245.583 258.329 245.7 258.212C250.175 253.864 255.836 250.721 261.247 247.661C266.841 244.5 272.285 241.072 277.896 237.929C279.499 237.026 281.136 236.173 282.773 235.354C284.409 234.551 286.146 233.882 287.699 232.896C287.866 232.779 287.732 232.561 287.565 232.595Z" fill="#263238"/>
<path d="M384.874 284.18C384.59 284.448 274.24 276.89 273.321 275.686C272.035 273.98 305.484 156.078 317.859 142.098C320.514 139.105 336.045 135.928 344.328 143.804C361.929 160.492 374.286 214.201 376.858 230.337C381.167 256.891 385.859 283.21 384.874 284.18Z" fill="#FFC727"/>
<path d="M305.618 167.181C305.668 166.997 305.384 166.88 305.3 167.064C303.48 171.612 301.794 176.193 300.14 180.808C300.207 180.14 300.291 179.488 300.341 178.819C300.474 177.08 300.458 175.324 300.608 173.568C300.625 173.401 300.357 173.401 300.341 173.568C300.257 175.374 299.907 177.147 299.656 178.936C299.422 180.541 299.205 182.146 298.921 183.751C298.871 184.036 298.838 184.32 298.788 184.604C296.116 192.279 293.594 200.021 291.156 207.78C286.797 221.575 282.823 235.504 279.032 249.467C276.895 257.342 275.041 265.268 273.271 273.228C273.237 273.395 273.471 273.445 273.521 273.295C277.613 259.483 281.57 245.621 285.628 231.792C289.369 219.067 293.327 206.409 297.318 193.768C297.402 193.801 297.502 193.784 297.519 193.667C297.819 192.564 298.103 191.477 298.37 190.39C300.858 182.665 303.313 174.939 305.618 167.181Z" fill="#263238"/>
<path d="M315.036 146.998C315.052 146.948 315.119 146.964 315.119 147.015C314.468 152.014 313.282 163.602 321.181 163.435C324.371 163.368 327.377 161.596 329.932 159.823C332.537 158.001 334.908 155.843 337.062 153.519C339.45 150.927 341.922 148.218 343.859 145.259C343.943 145.125 344.126 145.276 344.043 145.409C341.972 148.352 340.202 151.429 337.847 154.155C335.576 156.797 333.038 159.221 330.149 161.144C327.443 162.95 324.22 164.722 320.864 164.639C317.674 164.555 315.487 162.432 314.752 159.422C313.783 155.459 314.151 150.927 315.036 146.998Z" fill="#263238"/>
<path d="M351.609 168.251C378.445 188.233 409.657 199.135 422.532 194.085C432.552 190.156 465.016 160.392 470.309 136.346C471.478 131.046 430.782 126.397 429.178 129.875C424.486 140.109 406.116 157.883 404.263 157.616C401.808 157.282 374.037 151.329 352.127 146.162C325.658 139.925 336.914 157.315 351.609 168.251Z" fill="#DD6A57"/>
<path d="M477.674 127.752C475.553 136.363 464.314 152.299 460.122 155.091C455.931 157.884 428.26 139.657 427.876 134.507C427.475 129.357 436.877 100.88 444.074 95.3789C451.255 89.8776 479.878 118.822 477.674 127.752Z" fill="#DD6A57"/>
<path d="M428.626 129.374C428.626 129.374 427.173 117.919 422.614 108.823C418.774 101.181 412.211 90.2622 416.235 88.055C424.502 83.5068 440.867 110.712 440.867 110.712C440.867 110.712 446.161 123.889 438.362 129.123C433.486 132.417 428.626 129.374 428.626 129.374Z" fill="#DD6A57"/>
<path d="M434.723 106.081C438.129 109.325 440.601 106.348 440.601 106.348C440.601 106.348 435.608 113.973 438.831 118.053C441.953 121.966 447.197 116.682 447.581 116.314C447.314 116.715 442.905 123.855 446.579 127.618C450.387 131.514 454.745 125.31 455.029 124.909C454.896 125.377 453.342 131.497 456.766 133.704C462.661 137.517 467.103 121.983 472.18 119.424C472.18 119.424 477.49 127.551 477.69 127.752C477.69 127.752 482.216 113.053 478.392 106.382C476.371 102.87 472.697 104.057 472.697 104.057C472.697 104.057 474.684 99.4756 471.879 96.4324C470.443 94.8773 466.669 95.7802 466.669 95.7802C466.669 95.7802 468.105 92.0513 465.45 89.493C463.345 87.4362 459.889 88.6736 459.889 88.6736C459.889 88.6736 473.783 70.3302 469.625 66.9191C462.444 61.0499 438.113 100.278 434.038 100.696C432.017 100.897 433.236 104.659 434.723 106.081Z" fill="#DD6A57"/>
<path d="M459.304 88.7907C459.371 88.7406 459.321 88.6402 459.238 88.6737C451.589 92.4527 444.342 98.9573 440.334 106.566C440.2 106.816 440.334 108.121 440.501 107.853C444.609 101.081 451.923 94.0245 459.304 88.7907Z" fill="#263238"/>
<path d="M466.72 95.6632C466.803 95.6131 466.703 95.4793 466.619 95.5127C458.754 99.459 450.805 107 447.215 116.297C447.098 116.615 447.298 117.033 447.465 116.665C450.321 110.679 460.057 100.345 466.72 95.6632Z" fill="#263238"/>
<path d="M454.979 125.628C458.753 116.833 464.966 110.144 472.347 104.191C472.447 104.108 472.33 103.99 472.23 104.024C467.838 105.947 463.529 110.244 460.457 113.856C457.518 117.317 455.564 121.046 454.679 125.494C454.645 125.678 454.912 125.812 454.979 125.628Z" fill="#263238"/>
<path d="M440.451 106.365C440.301 106.666 441.32 106.482 441.169 106.783C439.583 110.094 437.044 116.18 439.449 118.07C441.386 119.591 444.76 118.036 445.828 116.933L448.5 114.157L446.947 117.702C446.263 119.24 445.778 120.963 445.628 122.635C445.494 124.307 445.795 125.996 446.847 127.083C447.933 128.236 449.452 128.588 450.822 127.852C452.208 127.183 453.443 125.829 454.345 124.474L456.884 120.678L455.731 125.076C455.414 126.263 455.247 127.584 455.247 128.822C455.264 130.059 455.481 131.313 456.132 132.233C456.767 133.136 457.885 133.688 458.921 133.504C460.006 133.32 461.058 132.484 461.96 131.597C463.797 129.775 465.267 127.517 466.836 125.36C467.621 124.273 468.389 123.187 469.224 122.116C470.059 121.08 470.944 119.993 472.164 119.391C471.028 120.11 470.293 121.264 469.525 122.334C468.79 123.437 468.089 124.574 467.404 125.728C466.018 128.019 464.599 130.31 462.762 132.367C461.81 133.353 460.758 134.39 459.188 134.775C457.568 135.159 455.915 134.34 455.013 133.069C454.095 131.781 453.861 130.26 453.811 128.855C453.794 127.434 453.944 126.063 454.295 124.675L455.681 125.277C454.629 126.899 453.393 128.354 451.556 129.307C450.655 129.775 449.502 129.992 448.434 129.741C447.348 129.491 446.463 128.905 445.745 128.136C444.275 126.564 444.008 124.357 444.192 122.501C444.392 120.595 444.927 118.822 445.728 117.083L446.847 117.852C445.444 119.207 441.854 121.347 438.564 119.374C434.656 116.18 439.466 107.836 440.451 106.365Z" fill="#263238"/>
<path d="M423.366 134.892L463.529 159.79C463.529 159.79 434.204 197.563 414.967 197.998C395.745 198.433 351.475 177.514 337.448 161.997C325.29 148.553 338.9 141.53 351.508 145.242C364.1 148.938 403.527 156.73 404.63 156.178C405.748 155.609 423.366 134.892 423.366 134.892Z" fill="#FFC727"/>
<path d="M456.148 167.231C454.879 166.077 453.276 165.191 451.857 164.204C450.32 163.134 448.767 162.081 447.214 161.027C444.242 159.004 441.152 157.148 438.079 155.275C431.834 151.462 425.605 147.533 419.075 144.222C418.942 144.155 418.792 144.339 418.925 144.423C424.72 148.72 430.899 152.516 436.994 156.362C440.033 158.285 443.073 160.224 446.195 161.997C447.748 162.883 449.335 163.753 450.905 164.622C452.558 165.542 454.245 166.696 455.998 167.398C456.115 167.448 456.248 167.314 456.148 167.231Z" fill="#263238"/>
<path d="M364.618 180.909C364.017 180.273 356.619 176.611 349.606 176.076C349.439 176.06 349.388 176.277 349.539 176.327C351.526 176.896 353.413 177.698 355.367 178.334C355.768 178.468 356.168 178.568 356.569 178.702C356.219 178.685 355.868 178.651 355.517 178.635C354.398 178.585 353.279 178.534 352.161 178.468C352.044 178.468 352.044 178.635 352.144 178.668C353.246 178.986 354.332 179.17 355.467 179.253C356.319 179.304 357.154 179.253 358.005 179.153C358.089 179.17 358.156 179.203 358.239 179.22C359.091 179.454 363.633 181.093 364.518 181.16C364.652 181.176 364.702 180.992 364.618 180.909Z" fill="#263238"/>
<path d="M321.131 158.068C326.742 159.004 336.846 149.155 340.135 142.048C340.352 141.563 339.317 136.647 338.332 130.628C337.747 126.966 337.18 122.886 336.929 119.123C336.879 118.354 334.341 119.943 334.341 119.943L329.548 121.448L313.717 126.414C313.717 126.414 316.556 134.156 316.94 140.711C316.973 141.263 316.94 141.781 316.873 142.266C316.873 142.333 316.856 142.416 316.856 142.517C316.589 145.51 315.704 157.148 321.131 158.068Z" fill="#DD6A57"/>
<path d="M316.891 142.283C316.891 142.349 316.874 142.433 316.874 142.533C317.625 142.584 318.427 142.584 319.312 142.5C335.16 141.095 335.828 120.762 335.828 120.762L329.566 121.448L313.734 126.414C313.734 126.414 316.573 134.156 316.957 140.711C316.974 141.279 316.957 141.781 316.891 142.283Z" fill="#263238"/>
<path d="M311.045 83.1891C311.045 83.1891 303.364 86.1655 301.794 93.8573C300.207 101.549 301.777 109.709 302.445 110.111C303.08 110.529 311.045 83.1891 311.045 83.1891Z" fill="#263238"/>
<path d="M341.806 94.7101C344.027 103.188 338.666 127.233 332.504 132.4C323.57 139.891 309.409 140.092 303.163 129.441C297.118 119.123 304.666 87.9045 311.513 83.256C321.583 76.4169 338.516 82.1858 341.806 94.7101Z" fill="#DD6A57"/>
<path d="M337.965 114.14C333.022 114.14 333.59 92.2855 333.59 92.2855C333.59 92.2855 328.563 94.6599 324.405 94.9609C320.264 95.2619 315.421 94.6599 314.72 94.4593C314.035 94.2586 322.618 90.8976 322.618 90.8976C322.618 90.8976 301.093 94.9275 299.957 90.9143C299.556 89.5097 309.376 74.7447 324.255 75.7815C335.227 76.5506 341.339 87.8878 341.339 87.8878C341.339 87.8878 346.632 93.8071 346.382 97.2685C346.064 101.917 343.192 114.14 337.965 114.14Z" fill="#263238"/>
<path d="M335.861 114.241C335.861 114.241 341.789 106.733 345.213 108.907C348.636 111.064 343.86 122.167 339.618 123.471C335.36 124.775 334.074 120.862 334.074 120.862L335.861 114.241Z" fill="#DD6A57"/>
<path d="M343.777 112.05C343.843 112.05 343.843 112.15 343.793 112.167C340.804 113.171 339.101 115.796 337.865 118.538C338.8 117.501 340.019 116.983 341.405 118.103C341.472 118.17 341.405 118.271 341.322 118.254C340.136 117.919 339.268 118.087 338.399 118.99C337.782 119.642 337.347 120.478 336.897 121.23C336.746 121.481 336.279 121.314 336.396 121.013C336.412 120.996 336.412 120.963 336.429 120.946C336.563 117.234 339.752 112.184 343.777 112.05Z" fill="#263238"/>
<path d="M316.791 142.132L322.552 156.011L339.653 138.169L344.629 143.771C344.629 143.771 328.013 171.996 327.896 170.742L322.018 158.787L313.818 167.248L314.253 146.246L316.791 142.132Z" fill="#EBEBEB"/>
<path d="M313.433 156.847C313.617 153.386 313.717 149.891 314.068 146.429C314.085 146.312 314.268 146.245 314.302 146.396C315.037 149.74 314.252 162.984 314.302 166.161C314.318 166.144 314.335 166.144 314.335 166.127C314.669 165.759 321.933 158.686 322 158.787C323.269 160.676 327.578 169.388 327.878 170.174C330.5 165.692 340.587 149.372 343.71 145.125C343.793 145.008 343.993 145.108 343.91 145.242C341.605 149.974 328.263 171.93 328.062 171.879C327.929 171.996 322.568 161.261 321.917 159.238C320.698 160.776 313.383 168.752 313.35 168.251C313.133 164.773 313.25 160.325 313.433 156.847Z" fill="#263238"/>
<path d="M368.123 260.653H290.871V265.168H368.123V260.653Z" fill="#455A64"/>
<path d="M337.83 260.653H290.871V265.168H337.83V260.653Z" fill="#263238"/>
<path d="M329.715 265.235L231.94 265.252L217.945 198.416H315.738L329.715 265.235Z" fill="#455A64"/>
<path d="M279.783 231.826C280.133 235.136 277.745 237.812 274.456 237.812C271.166 237.812 268.227 235.136 267.876 231.826C267.525 228.515 269.913 225.839 273.203 225.839C276.493 225.839 279.432 228.515 279.783 231.826Z" fill="#263238"/>
<path d="M251.561 269.215C257.606 272.492 264.903 280.301 269.93 281.17C274.472 281.956 276.276 278.244 276.276 278.244C276.276 278.244 278.53 283.428 283.223 283.478C285.644 283.495 287.798 279.649 287.798 279.649C287.798 279.649 289.786 283.729 293.961 283.511C297.284 283.328 298.954 279.515 298.954 279.515C298.954 279.515 302.678 282.542 306.018 281.271C312.781 278.696 314.284 250.102 303.997 245.136C299.204 242.812 299.221 249.818 299.221 249.818C299.221 249.818 296.783 239.752 290.905 239.283C285.026 238.815 285.594 247.928 285.594 247.928C285.594 247.928 283.139 238.196 276.994 238.33C270.598 238.481 272.719 247.477 272.719 247.477C272.719 247.477 268.744 240.889 264.068 242.076C256.337 244.032 265.104 258.948 263.284 265.168H253.063L251.561 269.215Z" fill="#DD6A57"/>
<path d="M260.244 274.816C254.266 272.224 251.394 276.488 245.148 275.686C238.201 274.783 240.456 266.623 252.663 265.168H263.234L260.244 274.816Z" fill="#DD6A57"/>
<path d="M299.271 278.947C299.254 279.047 299.388 279.08 299.421 278.98C302.21 269.7 302.427 258.647 299.221 249.433C299.12 249.132 298.586 249.166 298.636 249.534C300.122 259.65 300.64 268.763 299.271 278.947Z" fill="#263238"/>
<path d="M287.833 279.799C287.816 279.916 288 279.933 288.033 279.816C290.855 270.235 290.755 257.777 285.812 247.594C285.645 247.243 285.144 247.109 285.311 247.51C288.083 254.55 289.102 270.636 287.833 279.799Z" fill="#263238"/>
<path d="M272.067 246.858C276.426 256.807 277.161 267.141 276.392 277.876C276.376 278.01 276.576 278.01 276.626 277.893C278.43 272.743 278.213 265.854 277.578 260.503C276.977 255.386 275.407 250.888 272.418 246.691C272.301 246.54 271.967 246.641 272.067 246.858Z" fill="#263238"/>
</g>
<defs>
<clipPath id="clip0_344_6897">
<rect width="678" height="667" fill="white"/>
</clipPath>
</defs>
</svg>
