<svg width="66" height="63" viewBox="0 0 66 63" fill="none" xmlns="http://www.w3.org/2000/svg">
<g clip-path="url(#clip0_3_20)">
<path opacity="0.25" d="M49.4028 2.08865C48.8957 2.08865 48.3936 2.11314 47.8993 2.1621H50.9114C50.4157 2.11185 49.9111 2.08865 49.4028 2.08865Z" fill="#424141"/>
<path d="M39.9902 51.1187C39.9902 52.6997 38.7269 53.9818 37.1687 53.9818C35.608 53.9818 34.3447 52.6997 34.3447 51.1187C34.3447 50.5621 34.501 50.0415 34.773 49.6035L19.7924 22.3452H10.5539C10.1472 23.4185 9.12028 24.1813 7.91797 24.1813C6.35852 24.1813 5.09521 22.8993 5.09521 21.3183C5.09521 19.7373 6.35852 18.4552 7.91797 18.4552C8.9487 18.4552 9.8498 19.0144 10.3417 19.8507H21.6746C26.9185 29.3237 32.165 38.7942 37.4114 48.2673C38.8565 48.391 39.9902 49.6215 39.9902 51.1187Z" fill="#F8C515"/>
<path d="M50.417 56.9904C50.417 58.5714 49.1524 59.8535 47.593 59.8535C46.0335 59.8535 44.7689 58.5714 44.7689 56.9904C44.7689 56.5614 44.8617 56.1542 45.0282 55.7896L25.0058 19.8507H52.8064L49.765 22.934H30.2166L48.1407 54.1815C49.4371 54.4405 50.417 55.5989 50.417 56.9904Z" fill="#F8C515"/>
<path d="M66 52.3827C66 53.9637 64.7354 55.2458 63.1772 55.2458C61.6165 55.2458 60.3532 53.9637 60.3532 52.3827C60.3532 51.9588 60.4434 51.5581 60.6061 51.196L51.1973 34.1118H45.5938L46.4428 35.5923C50.539 42.871 54.634 50.1498 58.7302 57.4298C60.1244 57.645 61.1501 58.8149 61.1869 60.1369C61.2289 61.6741 59.9224 63 58.3629 63C56.8047 63 55.5389 61.7179 55.5389 60.1369C55.5389 59.7079 55.6317 59.3007 55.7982 58.9361L42.7939 35.5923L40.9485 32.2808L37.5347 26.154H53.8015C54.4052 26.154 54.8971 25.6566 54.8971 25.0433V10.7938C54.8971 10.1817 54.4052 9.68309 53.8015 9.68309H19.1277C18.7057 10.7268 17.6953 11.4612 16.5133 11.4612C14.9552 11.4612 13.6893 10.1817 13.6893 8.60075C13.6893 7.01847 14.9552 5.7377 16.5133 5.7377C17.6724 5.7377 18.6714 6.44637 19.1035 7.463H53.8015C55.6126 7.463 57.0869 8.95637 57.0869 10.7938V25.0433C57.0869 26.8807 55.6126 28.3741 53.8015 28.3741H42.3033L43.3048 30.1213L43.315 30.1381H43.3963V30.2257L43.8742 31.0774H59.3454C59.8156 31.0774 60.2147 30.6599 60.2147 30.1664V5.48644C60.2147 4.99294 59.8156 4.57547 59.3454 4.57547H28.633C28.1183 5.27384 27.2973 5.7261 26.3708 5.7261C24.8113 5.7261 23.548 4.44404 23.548 2.86305C23.548 1.28206 24.8113 0 26.3708 0C27.46 0 28.4055 0.624923 28.8758 1.54105H59.3454C61.4221 1.54105 63.1112 3.31145 63.1112 5.48644V30.1664C63.1112 32.3401 61.4221 34.1118 59.3454 34.1118H54.8488C57.6309 39.2478 60.4117 44.3837 63.195 49.5197C64.7443 49.5287 66 50.8082 66 52.3827Z" fill="#231F25"/>
<path d="M52.8064 16.4748H5.42565C4.98209 17.4708 3.99711 18.1627 2.85072 18.1627C1.91149 18.1627 1.07776 17.6976 0.566838 16.9812C0.546503 16.9554 0.526168 16.9283 0.509645 16.9C0.204619 16.4439 0.0266876 15.8924 0.0266876 15.2997C0.0266876 13.72 1.29127 12.4366 2.85072 12.4366C3.76834 12.4366 4.58556 12.8824 5.10029 13.5718C5.12316 13.6014 5.1435 13.6311 5.16383 13.662C5.23374 13.7625 5.29728 13.8694 5.35448 13.979H50.3445L52.8064 16.4748Z" fill="#F8C515"/>
<path d="M5.10029 13.5718C4.58556 12.8824 3.76834 12.4366 2.85072 12.4366C1.29128 12.4366 0.0266898 13.72 0.0266898 15.2997C0.0266898 15.8924 0.204622 16.4439 0.509648 16.9C0.188099 16.4361 0 15.8705 0 15.2623C0 13.6813 1.26459 12.3992 2.82403 12.3992C3.75817 12.3992 4.5881 12.8605 5.10029 13.5718Z" fill="#F8C515"/>
</g>
<defs>
<clipPath id="clip0_3_20">
<rect width="66" height="63" fill="white"/>
</clipPath>
</defs>
</svg>
