<svg width="411" height="409" viewBox="0 0 411 409" fill="none" xmlns="http://www.w3.org/2000/svg">
<g clip-path="url(#clip0_258_14)">
<path d="M55.594 274.751C61.3216 270.709 66.0025 271.276 70.0641 276.991C86.7914 300.457 108.036 318.57 134.01 331.099C152.153 339.846 171.291 344.864 191.398 346.578C223.31 349.304 253.435 343.275 281.801 328.596C304.481 316.849 323.289 300.46 338.544 280.004C339.341 278.937 340.12 277.862 340.917 276.795C345.451 270.741 349.481 270.022 355.625 274.145C360.588 277.471 361.485 281.623 358.068 286.61C346.357 303.702 332.199 318.466 315.496 330.768C292.143 347.975 266.185 359.143 237.585 364.042C234.096 364.644 234.161 365.922 235.038 368.787C241.074 388.468 226.368 408.399 205.927 408.443C185.405 408.479 170.506 388.524 176.76 369.02C178.047 364.996 176.315 364.716 173.25 364.137C123.45 354.731 83.6311 329.566 54.0163 288.413C49.8569 282.627 50.4072 278.419 55.594 274.751Z" fill="#375A64"/>
<path d="M25.0446 63.6894C36.1491 61.7571 45.6307 64.8784 53.1784 73.0097C55.902 75.9415 56.8328 75.194 58.834 72.5892C84.7522 38.8421 118.394 16.6074 159.484 5.58388C168.35 3.20383 177.386 1.71091 186.486 0.626161C193.304 -0.187412 197.332 2.43985 197.957 7.89685C198.835 15.51 196.046 19.2703 188.784 20.147C142.496 25.7589 104.456 46.5831 75.8354 83.2649C47.4986 119.591 36.7285 161.125 42.795 206.899C44.6907 221.176 48.6897 234.871 54.0731 248.199C57.0907 255.674 53.0468 262.251 45.0482 263.218C41.2219 263.679 38.1713 261.44 36.1453 256.696C27.4254 236.257 22.3444 214.985 21.4527 192.754C21.3495 190.242 21.424 187.731 21.4186 185.219C21.3149 166.057 23.8048 147.227 29.8125 128.984C31.0123 125.334 30.5572 124.323 26.525 123.968C12.4477 122.747 0.768406 109.397 0.221048 94.4786C-0.307875 79.8709 10.8067 66.1787 25.0446 63.6894Z" fill="#FEC727"/>
<path d="M211.39 7.77004C211.868 3.01179 215.591 -0.02277 221.204 0.50648C244.847 2.71847 267.265 9.25542 288.379 20.1441C313.066 32.88 333.9 50.2395 350.775 72.3115C351.577 73.3659 352.396 74.4203 353.233 75.448C353.411 75.6696 353.704 75.7932 354.122 76.094C359.47 68.7247 366.555 64.1918 375.716 62.8939C387.247 61.2536 399.879 67.2349 405.85 77.4375C412.294 88.4467 411.524 102.045 403.899 111.532C398.471 118.28 391.598 122.635 382.853 123.24C379.248 123.487 378.594 124.687 379.649 127.898C383.707 140.27 386.301 152.956 387.554 165.929C389.235 183.383 388.686 200.709 385.456 217.952C383.05 230.773 379.277 243.154 374.268 255.182C371.644 261.463 367.707 263.77 362.801 261.784C355.237 258.711 353.177 254.615 356.039 247.713C365.624 224.572 370.056 200.457 368.705 175.493C366.781 140.094 354.698 108.302 332.288 80.792C306.922 49.6589 274.396 29.9728 234.855 22.1949C229.792 21.203 224.649 20.6106 219.542 19.9116C213.048 19.0204 210.625 15.4578 211.39 7.77004Z" fill="#FEC727"/>
<path d="M205.539 265.817C181.216 265.284 160.932 256 144.838 237.698C141.419 233.818 141.49 229.416 144.875 226.284C148.553 222.868 152.762 222.886 156.572 227.013C165.268 236.438 175.291 243.756 187.792 247.102C212.111 253.617 233.268 247.855 251.211 230.243C252.585 228.9 253.807 227.406 255.243 226.134C258.797 222.975 262.855 222.896 265.987 225.818C269.403 228.997 269.697 233.584 266.526 237.292C253.666 252.346 237.453 261.576 217.907 264.823C213.841 265.497 209.731 266.083 205.539 265.817Z" fill="#FEC727"/>
<path d="M124.534 182.377C124.241 145.403 149.557 112.571 185.341 103.636C190.391 102.374 194.605 104.424 196.079 108.867C197.474 113.071 195.05 117.461 189.859 118.901C176.849 122.506 165.558 128.841 156.692 139.102C142.741 155.232 137.933 173.881 141.956 194.774C143.456 202.545 141.761 206.863 136.346 207.939C131.287 208.953 127.817 205.668 126.211 198.207C125.682 195.759 125.259 193.275 125.005 190.79C124.715 188.004 124.682 185.181 124.534 182.377Z" fill="#375A64"/>
<path d="M285.523 181.274C285.662 188.019 284.504 194.554 282.973 201.027C281.873 205.698 278.07 208.413 273.992 207.739C269.684 207.02 267.217 203.653 267.446 198.656C267.667 193.933 269.255 189.421 269.396 184.646C270.279 153.873 251.318 127.883 221.667 119.471C220.814 119.233 219.953 119.022 219.117 118.722C214.647 117.099 212.383 113.199 213.493 109.069C214.665 104.709 218.762 102.241 223.551 103.42C231.911 105.479 239.927 108.55 247.166 113.265C271.771 129.276 284.332 152.094 285.523 181.274Z" fill="#375A64"/>
<path d="M22.675 88.725L22.675 84.75L29.6 84.75L29.6 103L25.15 103L25.15 88.725L22.675 88.725Z" fill="white"/>
<path d="M378.975 99.575C379.542 99.125 379.8 98.9167 379.75 98.95C381.383 97.6 382.667 96.4917 383.6 95.625C384.55 94.7583 385.35 93.85 386 92.9C386.65 91.95 386.975 91.025 386.975 90.125C386.975 89.4417 386.817 88.9083 386.5 88.525C386.183 88.1417 385.708 87.95 385.075 87.95C384.442 87.95 383.942 88.1917 383.575 88.675C383.225 89.1417 383.05 89.8083 383.05 90.675L378.925 90.675C378.958 89.2583 379.258 88.075 379.825 87.125C380.408 86.175 381.167 85.475 382.1 85.025C383.05 84.575 384.1 84.35 385.25 84.35C387.233 84.35 388.725 84.8583 389.725 85.875C390.742 86.8917 391.25 88.2167 391.25 89.85C391.25 91.6333 390.642 93.2917 389.425 94.825C388.208 96.3417 386.658 97.825 384.775 99.275L391.525 99.275L391.525 102.75L378.975 102.75L378.975 99.575Z" fill="white"/>
<path d="M200.275 376.9C200.342 375.117 200.925 373.742 202.025 372.775C203.125 371.808 204.617 371.325 206.5 371.325C207.75 371.325 208.817 371.542 209.7 371.975C210.6 372.408 211.275 373 211.725 373.75C212.192 374.5 212.425 375.342 212.425 376.275C212.425 377.375 212.15 378.275 211.6 378.975C211.05 379.658 210.408 380.125 209.675 380.375L209.675 380.475C210.625 380.792 211.375 381.317 211.925 382.05C212.475 382.783 212.75 383.725 212.75 384.875C212.75 385.908 212.508 386.825 212.025 387.625C211.558 388.408 210.867 389.025 209.95 389.475C209.05 389.925 207.975 390.15 206.725 390.15C204.725 390.15 203.125 389.658 201.925 388.675C200.742 387.692 200.117 386.208 200.05 384.225L204.2 384.225C204.217 384.958 204.425 385.542 204.825 385.975C205.225 386.392 205.808 386.6 206.575 386.6C207.225 386.6 207.725 386.417 208.075 386.05C208.442 385.667 208.625 385.167 208.625 384.55C208.625 383.75 208.367 383.175 207.85 382.825C207.35 382.458 206.542 382.275 205.425 382.275L204.625 382.275L204.625 378.8L205.425 378.8C206.275 378.8 206.958 378.658 207.475 378.375C208.008 378.075 208.275 377.55 208.275 376.8C208.275 376.2 208.108 375.733 207.775 375.4C207.442 375.067 206.983 374.9 206.4 374.9C205.767 374.9 205.292 375.092 204.975 375.475C204.675 375.858 204.5 376.333 204.45 376.9L200.275 376.9Z" fill="white"/>
</g>
<defs>
<clipPath id="clip0_258_14">
<rect width="410" height="408" fill="white" transform="translate(410.883 407.999) rotate(179.876)"/>
</clipPath>
</defs>
</svg>
