<svg width="19" height="15" viewBox="0 0 19 15" fill="none" xmlns="http://www.w3.org/2000/svg">
<path d="M9.56968 0.0357495C11.9581 0.0357495 14.3466 -0.0737333 16.6994 0.108738C17.4659 0.163479 18.4819 0.875118 18.767 1.56851C18.9809 2.07943 18.4284 3.28374 17.8758 3.73992C15.6656 5.56463 13.3841 7.35285 10.9778 8.88561C10.247 9.36003 8.76759 9.37828 8.05462 8.9221C5.63051 7.38934 3.34899 5.61937 1.13878 3.75816C0.550573 3.26549 0.0158427 1.98819 0.229735 1.38604C0.461451 0.747388 1.62003 0.145232 2.42213 0.0904909C4.79276 -0.0737333 7.18122 0.0357495 9.56968 0.0357495Z" fill="white"/>
<path d="M0.0158439 4.74316C2.43995 6.56788 4.4541 8.10064 6.46825 9.61515C8.92801 11.4581 9.99747 11.4764 12.4394 9.65164C14.4714 8.13713 16.4855 6.60437 18.9453 4.76141C18.9453 7.73569 19.1235 10.2356 18.8383 12.6624C18.7492 13.3741 17.4302 14.4871 16.646 14.5054C11.8869 14.6879 7.12775 14.5966 2.35083 14.6149C0.907061 14.6149 0.0514925 13.9945 0.0158439 12.4982C-0.0198048 10.0896 0.0158439 7.68095 0.0158439 4.74316Z" fill="white"/>
</svg>
