<svg width="120" height="127" viewBox="0 0 120 127" fill="none" xmlns="http://www.w3.org/2000/svg">
<path d="M72.5512 0C74.9838 0.9394 75.9314 2.71154 75.8207 5.29592C75.6935 8.24539 75.7919 11.2072 75.7919 14.1853C77.1867 14.6325 78.4953 15.1083 79.8367 15.4488C80.1608 15.5309 80.731 15.2806 80.9566 14.9976C82.5154 13.0449 84.5214 12.446 86.9622 12.5814C89.5835 12.7291 92.2171 12.6142 94.9368 12.6142C95.7696 9.31606 97.6156 6.80552 100.663 5.29182C102.875 4.19243 105.209 3.9422 107.625 4.47138C112.412 5.52154 115.833 9.87395 115.784 14.8663C115.735 19.8751 112.228 24.0798 107.256 25.0849C101.878 26.1719 97.7386 23.4399 94.8179 16.8272C91.7699 16.8272 88.6892 16.8066 85.6085 16.8559C85.227 16.8641 84.788 17.1881 84.4886 17.4794C82.6098 19.3213 80.7474 21.1796 78.9137 23.0707C78.3968 23.604 77.9702 23.7598 77.2072 23.5014C53.0987 15.2314 27.981 29.0886 22.1026 53.8822C16.7328 76.5303 31.7673 99.8594 54.6206 104.417C62.304 105.947 69.8233 105.471 77.199 102.875C77.9497 102.612 78.3845 102.751 78.9096 103.289C80.7146 105.147 82.5359 106.993 84.4188 108.769C84.8414 109.167 85.5305 109.479 86.1089 109.491C89.0215 109.565 91.9422 109.524 94.822 109.524C97.7263 102.842 102.017 100.085 107.494 101.328C112.613 102.489 115.952 106.833 115.776 112.096C115.604 117.138 111.871 121.211 106.657 122.044C101.504 122.864 97.0248 119.73 94.8999 113.733C92.0776 113.733 89.2061 113.659 86.3428 113.758C84.304 113.827 82.5975 113.302 81.3381 111.67C80.6735 110.808 79.9721 110.718 78.9998 111.12C77.9866 111.538 76.9077 111.797 75.7878 112.145C75.7878 115.14 75.6894 118.102 75.8166 121.051C75.9273 123.64 74.9715 125.404 72.5471 126.347C66.2954 126.347 60.0437 126.347 53.7919 126.347C51.3757 125.4 50.4035 123.648 50.5225 121.055C50.6579 118.106 50.5553 115.144 50.5553 112.211C50.3707 112.117 50.2723 112.043 50.1615 112.01C45.9445 110.853 41.9079 109.253 38.1339 107.042C37.4529 106.644 37.174 107.034 36.7966 107.412C34.7373 109.479 32.6903 111.559 30.6105 113.606C28.6496 115.538 26.2376 115.554 24.2726 113.61C20.4166 109.795 16.581 105.955 12.7578 102.099C10.7641 100.089 10.7928 97.6894 12.7906 95.6752C14.8171 93.6323 16.8436 91.5894 18.9152 89.5917C19.4895 89.0379 19.4772 88.6441 19.1572 87.9221C17.5984 84.4024 16.1339 80.8417 14.6571 77.2892C14.4602 76.8134 14.3535 76.3006 14.2018 75.7919C10.961 75.7919 7.83927 75.8001 4.71751 75.7919C1.64498 75.7837 0.00410218 74.1388 0 71.0662C0 65.8441 0 60.6221 0.00410218 55.4C0.00410218 52.1593 1.60395 50.5635 4.84878 50.5594C7.96644 50.5553 11.0882 50.5594 14.2387 50.5594C15.416 46.129 17.0774 41.9899 19.2803 38.0683C19.4279 37.8016 19.2269 37.1412 18.9685 36.8745C16.942 34.7742 14.8499 32.7395 12.7947 30.6638C10.801 28.6496 10.7723 26.2499 12.766 24.2398C16.5564 20.4166 20.3673 16.6097 24.1865 12.8152C26.254 10.76 28.6332 10.7723 30.7007 12.8234C32.7436 14.8499 34.7824 16.8805 36.7884 18.9439C37.2971 19.469 37.6827 19.6043 38.3554 19.19C39.4015 18.546 40.4968 17.9512 41.629 17.4876C44.5415 16.298 47.491 15.1904 50.5553 13.9966C50.5553 11.199 50.6579 8.24129 50.5266 5.29182C50.4117 2.69924 51.3716 0.9394 53.796 0C60.0478 0 66.2995 0 72.5512 0ZM111.579 14.7309C111.575 11.2564 108.798 8.44229 105.344 8.41358C101.874 8.38486 98.9693 11.2728 98.9693 14.7473C98.9734 18.2055 101.763 21.0073 105.233 21.0278C108.782 21.0524 111.583 18.2711 111.579 14.7309ZM111.579 111.538C111.559 108.06 108.778 105.311 105.283 105.315C101.755 105.319 98.9365 108.158 98.9693 111.67C99.0062 115.099 101.865 117.934 105.287 117.93C108.782 117.93 111.6 115.062 111.579 111.538Z" fill="#595959"/>
<path d="M77.9374 37.9121C80.0254 37.9121 81.9904 37.9531 83.9512 37.8628C84.222 37.8505 84.5747 37.2229 84.706 36.8209C87.0525 29.7036 95.7081 27.1561 101.476 31.9106C104.86 34.7001 106.14 39.3396 104.667 43.5115C103.186 47.7122 99.2072 50.5386 94.7687 50.5468C90.3998 50.555 86.3141 47.7778 84.9357 43.6305C84.5091 42.3506 83.9143 42.0307 82.6877 42.1086C81.092 42.2112 79.4798 42.1004 77.88 42.1578C77.5026 42.1701 76.9611 42.3917 76.797 42.687C74.5367 46.74 72.3297 50.8216 70.1145 54.8992C70.0776 54.9648 70.094 55.0592 70.0817 55.2069C71.6036 56.6385 72.7481 58.345 73.3758 60.4125C73.4701 60.7202 74.1675 61.0238 74.5941 61.0279C78.4994 61.073 82.4088 61.0566 86.3141 61.0566C90.2194 61.0566 94.1287 61.0361 98.034 61.073C98.8585 61.0812 99.2277 60.8679 99.4944 60.0228C101.061 55.0346 105.763 52.0974 110.964 52.7661C115.837 53.3937 119.706 57.5246 119.981 62.4021C120.28 67.6734 117.044 72.1202 111.977 73.3877C106.718 74.7045 101.221 71.6853 99.5436 66.4674C99.2524 65.569 98.9201 65.249 97.9561 65.2531C90.2234 65.2941 82.4949 65.2941 74.7623 65.2531C73.8188 65.249 73.5071 65.5813 73.1215 66.4304C72.4528 67.899 71.5134 69.2609 70.5699 70.5819C70.213 71.0823 70.0489 71.3736 70.3648 71.9479C72.4979 75.7916 74.5777 79.66 76.7273 83.4955C76.916 83.8319 77.4575 84.1519 77.8431 84.1642C79.689 84.2339 81.5432 84.1601 83.3933 84.2134C84.1891 84.2339 84.4968 83.9755 84.7388 83.192C86.1746 78.5934 90.5721 75.5291 95.224 75.7957C100.093 76.0706 104.122 79.5 105.082 84.1888C106.185 89.575 102.883 95.0022 97.6238 96.4502C92.2171 97.9393 86.634 95.0596 84.8742 89.7555C84.5009 88.6356 84.0004 88.3156 82.8887 88.3853C81.2971 88.4838 79.6972 88.4099 77.9456 88.4099C77.9456 90.9451 77.9456 93.3572 77.9456 95.7652C77.9456 98.1772 77.9538 98.2019 75.6115 98.9361C60.8559 103.555 47.6838 100.721 36.5505 89.9975C28.6333 82.3756 24.8798 72.7642 25.3515 61.7581C26.1432 43.4254 39.0241 28.8832 57.0983 25.7573C63.8833 24.5841 70.5207 25.3922 76.9611 27.8576C77.7692 28.1653 77.9743 28.5878 77.962 29.3959C77.9087 32.1977 77.9374 34.9872 77.9374 37.9121ZM115.788 63.1446C115.78 59.6824 112.991 56.8765 109.532 56.8518C106.054 56.8272 103.162 59.7152 103.174 63.1979C103.186 66.6315 106.017 69.4702 109.454 69.4989C112.941 69.5276 115.796 66.6602 115.788 63.1446ZM101.082 39.9509C101.037 36.4353 98.153 33.6417 94.6456 33.7114C91.1875 33.7812 88.3939 36.6486 88.4431 40.0698C88.4964 43.5198 91.3351 46.3338 94.7605 46.3338C98.235 46.3421 101.123 43.4172 101.082 39.9509ZM94.7769 92.6311C98.2473 92.6229 101.049 89.8457 101.082 86.3794C101.115 82.9048 98.2186 79.9923 94.7523 80.0046C91.2818 80.021 88.3898 82.954 88.4431 86.4081C88.4964 89.8785 91.3105 92.6393 94.7769 92.6311ZM69.491 63.2184C69.5279 59.7972 66.7385 56.9421 63.2803 56.856C59.8222 56.7698 56.8932 59.629 56.8563 63.1282C56.8194 66.5576 59.6048 69.4086 63.067 69.4948C66.5128 69.5768 69.4541 66.7053 69.491 63.2184ZM33.7651 60.0639C33.7569 60.2279 33.7446 60.392 33.7405 60.5561C33.6913 62.1314 34.4215 63.0995 35.7054 63.161C36.9607 63.2225 37.8509 62.316 37.9329 60.7489C38.3103 53.6686 41.4321 48.1306 47.2203 44.0612C48.4878 43.1711 48.7832 41.9527 48.0407 40.9026C47.2941 39.8483 46.0963 39.7252 44.7918 40.6318C38.0273 45.3534 34.4256 51.8759 33.7651 60.0639Z" fill="#595959"/>
</svg>
