<svg width="448" height="464" viewBox="0 0 448 464" fill="none" xmlns="http://www.w3.org/2000/svg">
<g clip-path="url(#clip0_349_12626)">
<path d="M161.381 272.127C159.462 273.295 157.324 274.173 155.024 274.705C149.049 276.093 143.097 274.902 138.3 271.85C133.619 268.879 130.037 264.116 128.684 258.278C125.957 246.462 133.296 234.671 145.119 231.931C156.92 229.191 168.72 236.543 171.459 248.37C173.655 257.873 169.31 267.364 161.381 272.127Z" fill="#EBEBEB"/>
<path d="M156.769 250.879C156.723 254.567 153.695 257.526 150.008 257.48C146.321 257.434 143.363 254.405 143.409 250.717C143.455 247.029 146.483 244.07 150.17 244.116C153.857 244.174 156.816 247.191 156.769 250.879Z" fill="white"/>
<path d="M161.416 269.364L161.382 272.116C159.463 273.283 157.325 274.162 155.025 274.694C149.049 276.081 143.097 274.89 138.301 271.838L138.335 269.087C138.416 262.728 143.64 257.607 150.009 257.676C156.389 257.757 161.486 263.006 161.416 269.364Z" fill="white"/>
<path d="M419.973 109.757C416.436 111.896 412.53 113.514 408.288 114.486C397.32 117.029 386.363 114.844 377.556 109.237C368.945 103.769 362.369 95.0289 359.884 84.3006C354.868 62.578 368.368 40.9017 390.085 35.8844C411.778 30.8439 433.449 44.3699 438.488 66.0925C442.522 83.5723 434.535 101.006 419.973 109.757Z" fill="#EBEBEB"/>
<path d="M411.501 70.7284C411.42 77.503 405.861 82.9365 399.076 82.8556C392.303 82.7747 386.871 77.214 386.952 70.4279C387.033 63.6533 392.592 58.2198 399.377 58.3007C406.149 58.3816 411.582 63.9539 411.501 70.7284Z" fill="white"/>
<path d="M420.031 104.694L419.973 109.757C416.437 111.896 412.53 113.515 408.289 114.486C397.32 117.029 386.364 114.844 377.557 109.237L377.614 104.185C377.753 92.4973 387.358 83.0869 399.077 83.2256C410.797 83.3759 420.17 93.006 420.031 104.694Z" fill="white"/>
<path d="M415.177 248.659C414.079 251.445 413.455 254.324 413.282 257.307C413.236 257.307 413.201 257.307 413.166 257.307C410.681 257.307 408.196 257.307 405.712 257.307C405.677 257.307 405.654 257.307 405.619 257.307V257.098C405.642 256.902 405.665 256.705 405.677 256.509C405.769 255.492 405.943 254.486 406.185 253.492C406.578 251.85 407.156 250.289 407.884 248.775C407.931 248.682 407.977 248.659 408.069 248.659C410.392 248.659 412.716 248.659 415.039 248.659H415.177Z" fill="#EBEBEB"/>
<path d="M414.946 267.988H414.819C412.519 267.988 410.208 267.988 407.908 267.988C407.815 267.988 407.78 267.954 407.734 267.873C406.914 266.173 406.336 264.393 405.989 262.543C405.816 261.653 405.7 260.751 405.642 259.85C405.642 259.815 405.631 259.792 405.619 259.757V259.549C405.654 259.549 405.7 259.538 405.735 259.538C408.208 259.538 410.681 259.538 413.143 259.538C413.282 259.538 413.27 259.538 413.282 259.676C413.328 260.289 413.374 260.913 413.432 261.526C413.525 262.509 413.686 263.468 413.906 264.428C414.16 265.595 414.495 266.751 414.912 267.873C414.923 267.908 414.935 267.942 414.946 267.988Z" fill="#EBEBEB"/>
<path d="M444.545 270.22C444.522 270.266 444.499 270.289 444.487 270.324C443.898 271.249 443.216 272.093 442.488 272.913C441.61 273.919 440.627 274.809 439.564 275.607C438.512 276.405 437.403 277.087 436.235 277.676C435.103 278.243 433.935 278.694 432.71 279.041C431.751 279.318 430.768 279.526 429.775 279.665C429.682 279.676 429.578 279.699 429.486 279.711H429.312C429.266 279.676 429.22 279.653 429.15 279.607C429.22 279.561 429.278 279.515 429.335 279.48C431.497 278 433.346 276.208 434.883 274.093C435.75 272.902 436.501 271.653 437.148 270.324C437.183 270.243 437.229 270.22 437.322 270.22C439.679 270.22 442.037 270.22 444.395 270.22H444.545Z" fill="#EBEBEB"/>
<path d="M437.507 257.307H427.613V248.659C427.648 248.659 427.694 248.659 427.729 248.659C430.26 248.659 432.803 248.659 435.334 248.659C435.415 248.659 435.461 248.682 435.484 248.763C436.201 250.393 436.721 252.081 437.056 253.827C437.229 254.74 437.368 255.653 437.437 256.567C437.472 256.809 437.484 257.052 437.507 257.307Z" fill="#EBEBEB"/>
<path d="M437.45 259.607C437.438 259.815 437.438 260.012 437.415 260.22C437.369 260.705 437.334 261.179 437.277 261.665C437.184 262.324 437.08 262.994 436.953 263.642C436.664 265.087 436.225 266.497 435.67 267.861C435.636 267.954 435.589 267.988 435.485 267.988C432.885 267.988 430.296 267.988 427.695 267.988H427.557V259.619H437.45V259.607Z" fill="#EBEBEB"/>
<path d="M425.395 248.717V257.376H415.744C415.756 257.156 415.767 256.936 415.79 256.728C415.837 256.243 415.883 255.757 415.952 255.283C416.068 254.555 416.195 253.815 416.357 253.087C416.669 251.619 417.154 250.208 417.755 248.832C417.79 248.751 417.836 248.728 417.917 248.728C420.367 248.728 422.829 248.728 425.279 248.728H425.395V248.717Z" fill="#EBEBEB"/>
<path d="M425.406 259.723C425.406 262.439 425.406 265.145 425.406 267.861V267.988H425.279C422.748 267.988 420.217 267.988 417.697 267.988C417.605 267.988 417.559 267.965 417.524 267.873C416.935 266.462 416.495 265.006 416.206 263.514C416.068 262.751 415.952 261.965 415.86 261.191C415.79 260.682 415.779 260.173 415.744 259.665C415.744 259.653 415.744 259.642 415.744 259.607C415.779 259.607 415.813 259.607 415.86 259.607C419.003 259.607 422.147 259.607 425.291 259.607C425.383 259.607 425.406 259.63 425.406 259.723Z" fill="#EBEBEB"/>
<path d="M447.99 257.364H439.888C439.714 254.37 439.102 251.468 438.004 248.659H438.131C440.604 248.659 443.078 248.659 445.551 248.659C445.644 248.659 445.69 248.682 445.724 248.763C446.591 250.486 447.215 252.289 447.597 254.185C447.793 255.191 447.92 256.208 447.99 257.226C448.001 257.26 447.99 257.307 447.99 257.364Z" fill="#EBEBEB"/>
<path d="M448.001 259.549C447.989 259.746 447.989 259.931 447.978 260.116C447.92 260.844 447.839 261.572 447.712 262.301C447.411 263.989 446.914 265.607 446.221 267.168C446.105 267.422 445.99 267.665 445.874 267.919C445.851 267.977 445.816 268 445.758 268C443.274 268 440.8 268 438.315 268C438.292 268 438.269 268 438.234 268C438.327 267.746 438.419 267.492 438.5 267.237C438.939 265.942 439.275 264.624 439.506 263.295C439.679 262.324 439.795 261.341 439.852 260.359C439.864 260.127 439.887 259.896 439.887 259.665C439.887 259.607 439.91 259.572 439.968 259.584C439.991 259.584 440.014 259.584 440.037 259.584H448.001V259.549Z" fill="#EBEBEB"/>
<path d="M444.326 246.451C444.326 246.463 444.314 246.474 444.314 246.486H444.21C441.853 246.486 439.483 246.486 437.126 246.486C437.045 246.486 436.998 246.463 436.952 246.382C435.993 244.497 434.837 242.752 433.439 241.168C432.618 240.254 431.717 239.434 430.734 238.682C430.249 238.312 429.752 237.965 429.255 237.607C429.232 237.584 429.209 237.572 429.174 237.549C429.209 237.526 429.243 237.503 429.278 237.48C429.266 237.434 429.255 237.387 429.232 237.33C431.751 237.619 434.144 238.324 436.397 239.48C439.622 241.133 442.303 243.422 444.326 246.451Z" fill="#EBEBEB"/>
<path d="M424.018 279.619C423.926 279.63 423.868 279.653 423.81 279.653C423.036 279.549 422.261 279.399 421.499 279.203C420.077 278.844 418.702 278.336 417.384 277.677C415.882 276.925 414.483 276.012 413.189 274.925C412.276 274.162 411.432 273.318 410.669 272.405C410.103 271.711 409.571 270.983 409.097 270.231C409.086 270.208 409.074 270.197 409.062 270.162H409.178C411.374 270.162 413.582 270.162 415.778 270.162C415.87 270.162 415.905 270.197 415.939 270.266C416.633 271.653 417.43 272.983 418.366 274.22C419.222 275.353 420.181 276.393 421.21 277.364C422.065 278.174 422.978 278.902 423.949 279.561C423.972 279.573 423.972 279.584 424.018 279.619Z" fill="#EBEBEB"/>
<path d="M423.927 237.538C423.626 237.757 423.268 238.012 422.933 238.278C421.777 239.168 420.725 240.174 419.732 241.26C418.402 242.717 417.281 244.301 416.38 246.046C416.322 246.162 416.276 246.266 416.206 246.37C416.183 246.405 416.137 246.428 416.102 246.44C415.987 246.451 415.86 246.44 415.744 246.44H409.295C412.889 241.364 417.721 238.312 423.858 237.376C423.846 237.399 423.835 237.434 423.811 237.457C423.858 237.48 423.904 237.515 423.927 237.538Z" fill="#EBEBEB"/>
<path d="M434.561 270.22C433.636 271.827 432.55 273.306 431.29 274.636C430.169 275.827 428.944 276.902 427.557 277.804V270.22H434.561Z" fill="#EBEBEB"/>
<path d="M425.383 270.231V277.665C422.54 275.711 420.332 273.226 418.668 270.231H425.383Z" fill="#EBEBEB"/>
<path d="M434.34 246.416H427.625V239.33C429.012 240.243 430.272 241.283 431.393 242.486C432.514 243.688 433.473 245.006 434.34 246.416Z" fill="#EBEBEB"/>
<path d="M425.394 239.549V246.474H418.945C420.575 243.688 422.667 241.341 425.394 239.549Z" fill="#EBEBEB"/>
<path d="M146.599 76.578H143.478C141.502 76.578 139.941 75.0174 139.941 73.0405C139.941 71.133 141.502 69.5029 143.478 69.5029H147.824L149.869 57.6763H145.917C144.021 57.6763 142.392 56.0463 142.392 54.1387C142.392 52.2312 144.021 50.6012 145.917 50.6012H151.095L152.435 42.5087C152.713 40.7283 154.215 39.5838 155.972 39.5838C158.214 39.5838 159.786 41.6301 159.509 43.7341L158.295 50.5896H168.951L170.315 42.4971C170.592 40.7168 172.095 39.5723 173.921 39.5723C176.094 39.5723 177.724 41.6185 177.388 43.7226L176.221 50.578H179.365C181.26 50.578 182.89 52.1387 182.89 54.1156C182.89 56.0231 181.26 57.6532 179.365 57.6532H175.019L172.973 69.4798H176.845C178.822 69.4798 180.382 71.0405 180.382 73.0174C180.382 74.9249 178.822 76.5549 176.845 76.5549H171.748L170.315 84.9133C170.049 86.6243 168.558 87.8382 166.778 87.8382C164.536 87.8382 162.907 85.815 163.242 83.6994L164.536 76.5549H153.857L152.424 84.9133C152.158 86.4278 150.863 87.8382 148.841 87.8382C146.645 87.8382 145.027 86.0116 145.374 83.6994L146.599 76.578ZM165.704 69.5029L167.749 57.6763H157.139L155.094 69.5029H165.704Z" fill="#EBEBEB"/>
<path d="M328.888 294.139C313.192 290.925 297.809 301.04 294.608 316.693C291.394 332.393 301.542 347.78 317.238 351.006C319.595 351.491 321.999 351.676 324.334 351.537C325.051 351.572 325.721 351.295 326.206 350.751C326.657 350.243 326.854 349.584 326.773 348.925C326.83 348.347 326.646 347.792 326.264 347.364C325.79 346.832 325.027 346.532 324.195 346.555C322.265 346.693 320.508 346.439 318.266 345.977C305.345 343.329 296.988 330.659 299.635 317.722C302.27 304.844 314.938 296.532 327.859 299.179C340.746 301.826 349.067 314.439 346.432 327.318C345.635 331.225 343.994 334.728 341.659 337.468C341.278 338.046 339.012 340.3 336.724 340.393L336.158 340.277C335.429 340.127 335.302 339.861 335.279 339.838C335.164 339.376 335.071 338.566 335.106 338.173C335.348 335.283 337.464 326.67 337.498 326.566L337.706 325.526C339.451 317.017 334.297 308.751 326.229 307.098C318.081 305.422 310.026 310.982 308.28 319.491C306.524 328.092 311.713 336.451 319.873 338.115C323.513 338.867 327.119 338.185 330.367 336.162L330.101 337.468C329.812 338.855 329.986 340.335 330.633 341.907C331.095 342.925 332.309 344.728 335.129 345.306C335.626 345.41 336.238 345.537 336.909 345.48C339.914 345.248 342.815 343.734 345.496 340.994C345.589 340.902 345.646 340.832 345.658 340.832L345.785 340.705C348.582 337.202 350.478 333.052 351.448 328.347C354.661 312.705 344.537 297.352 328.888 294.139ZM320.948 332.867C315.608 331.769 312.349 326.381 313.539 320.589C314.718 314.855 319.942 311.063 325.189 312.15C330.402 313.214 333.823 318.878 332.667 324.52C331.511 330.208 326.253 333.954 320.948 332.867Z" fill="#EBEBEB"/>
<path d="M215.47 464C323.486 464 411.05 456.05 411.05 446.243C411.05 436.436 323.486 428.485 215.47 428.485C107.455 428.485 19.8906 436.436 19.8906 446.243C19.8906 456.05 107.455 464 215.47 464Z" fill="#EBEBEB"/>
<path d="M360.866 147.41C353.226 212.844 311.203 224.879 304.164 242.335C300.408 251.78 295.426 275.803 295.426 275.803L227.074 275.815C227.074 275.815 222.127 251.803 218.325 242.358C211.321 224.902 169.262 212.89 161.634 147.457C156.595 104.462 188.899 36.5664 261.227 36.5664C333.567 36.5317 365.847 104.416 360.866 147.41Z" fill="#FFC727"/>
<path opacity="0.6" d="M360.866 147.41C353.226 212.844 311.203 224.879 304.164 242.335C300.408 251.78 295.426 275.803 295.426 275.803L227.074 275.815C227.074 275.815 222.127 251.803 218.325 242.358C211.321 224.902 169.262 212.89 161.634 147.457C156.595 104.462 188.899 36.5664 261.227 36.5664C333.567 36.5317 365.847 104.416 360.866 147.41Z" fill="white"/>
<path d="M244.469 280.266L224.174 171.515" stroke="white" stroke-miterlimit="10"/>
<path d="M278.078 280.266L298.339 171.503" stroke="white" stroke-miterlimit="10"/>
<path d="M225.908 175.676C225.908 175.676 229.93 196.971 239.569 196.971C249.209 196.971 258.247 165.226 245.591 165.226C232.935 165.226 245.198 206.809 261.263 206.809C277.328 206.809 286.563 165.226 275.317 165.226C264.072 165.226 267.632 198.37 283.096 198.37C291.394 198.37 297.323 177.017 297.323 177.017" stroke="white" stroke-width="0.5" stroke-miterlimit="10"/>
<path d="M303.436 272.867H219.111V289.353H303.436V272.867Z" fill="#455A64"/>
<path d="M303.436 292.023H219.111V308.509H303.436V292.023Z" fill="#455A64"/>
<path d="M303.436 311.179H219.111V327.665H303.436V311.179Z" fill="#455A64"/>
<path d="M260.083 24.8092C259.551 20.6821 259.366 16.5549 259.274 12.4162C259.216 8.27746 259.239 4.13873 259.621 0C260.152 4.12717 260.337 8.25434 260.43 12.3931C260.487 16.5318 260.453 20.6705 260.083 24.8092Z" fill="#263238"/>
<path d="M203.449 40.6127C200.929 37.3063 198.698 33.815 196.56 30.2774C194.445 26.7283 192.4 23.1329 190.654 19.3525C193.174 22.6589 195.405 26.1502 197.543 29.6878C199.658 33.2369 201.703 36.8323 203.449 40.6127Z" fill="#263238"/>
<path d="M162.305 82.6244C158.468 81.0174 154.804 79.1099 151.175 77.1215C147.569 75.1099 143.998 73.0174 140.6 70.6128C144.437 72.2197 148.112 74.1272 151.73 76.1157C155.336 78.1388 158.907 80.2313 162.305 82.6244Z" fill="#263238"/>
<path d="M147.672 139.584C143.546 140.116 139.42 140.301 135.282 140.393C131.144 140.451 127.007 140.428 122.869 140.046C126.995 139.515 131.121 139.33 135.259 139.237C139.397 139.179 143.534 139.203 147.672 139.584Z" fill="#263238"/>
<path d="M163.471 196.231C160.166 198.752 156.675 200.983 153.139 203.122C149.591 205.237 145.996 207.283 142.217 209.029C145.522 206.509 149.013 204.278 152.549 202.139C156.109 200.023 159.704 197.977 163.471 196.231Z" fill="#263238"/>
<path d="M360.195 194.208C364.032 195.815 367.696 197.722 371.325 199.711C374.931 201.722 378.503 203.815 381.901 206.22C378.064 204.613 374.388 202.705 370.771 200.717C367.165 198.694 363.593 196.601 360.195 194.208Z" fill="#263238"/>
<path d="M374.828 137.249C378.954 136.717 383.08 136.532 387.218 136.439C391.356 136.382 395.493 136.405 399.631 136.786C395.505 137.318 391.379 137.503 387.241 137.595C383.103 137.653 378.966 137.619 374.828 137.249Z" fill="#263238"/>
<path d="M359.027 80.6014C362.333 78.0812 365.823 75.8499 369.36 73.7112C372.908 71.5956 376.503 69.5494 380.282 67.8037C376.976 70.3239 373.486 72.5552 369.949 74.6939C366.401 76.8095 362.795 78.8557 359.027 80.6014Z" fill="#263238"/>
<path d="M317.027 39.4449C318.634 35.6067 320.541 31.942 322.529 28.3119C324.54 24.705 326.632 21.1327 329.036 17.7339C327.429 21.572 325.522 25.2483 323.534 28.8668C321.512 32.4738 319.42 36.046 317.027 39.4449Z" fill="#263238"/>
<path d="M283.209 112.578C283.209 116.647 279.915 119.942 275.847 119.942C271.778 119.942 268.484 116.647 268.484 112.578C268.484 108.509 271.778 105.214 275.847 105.214C279.915 105.214 283.209 108.509 283.209 112.578Z" fill="#263238"/>
<path d="M288.573 132.89V135.584H263.088V132.89C263.088 125.884 268.797 120.173 275.859 120.173C282.863 120.173 288.573 125.884 288.573 132.89Z" fill="#263238"/>
<path d="M264.338 117.029C264.338 121.098 261.044 124.393 256.976 124.393C252.907 124.393 249.613 121.098 249.613 117.029C249.613 112.959 252.907 109.665 256.976 109.665C261.044 109.653 264.338 112.959 264.338 117.029Z" fill="#455A64"/>
<path d="M269.711 137.341V140.034H244.227V137.341C244.227 130.335 249.936 124.624 256.998 124.624C263.99 124.624 269.711 130.335 269.711 137.341Z" fill="#455A64"/>
<path d="M214.027 218.705C214.651 218.324 215.425 218.335 216.061 218.717C216.234 218.821 216.408 218.913 216.581 219.017C216.754 219.11 216.939 219.202 217.124 219.295C217.783 219.607 218.234 220.243 218.257 220.971L218.338 223.468L226.475 223.214L226.394 220.717C226.371 219.989 226.775 219.318 227.411 218.96C227.769 218.763 228.104 218.555 228.439 218.324C229.04 217.908 229.815 217.85 230.462 218.197L232.658 219.376L236.507 212.197L234.311 211.017C233.663 210.671 233.282 209.989 233.305 209.26C233.317 208.856 233.305 208.451 233.27 208.046C233.213 207.318 233.548 206.613 234.172 206.22L236.299 204.902L232.011 197.989L229.872 199.306C229.248 199.688 228.474 199.665 227.85 199.295C227.677 199.191 227.503 199.098 227.33 198.994C227.156 198.902 226.972 198.809 226.798 198.728C226.139 198.416 225.689 197.78 225.665 197.041L225.585 194.543L217.448 194.798L217.529 197.283C217.552 198.012 217.147 198.682 216.512 199.041C216.153 199.237 215.807 199.445 215.472 199.676C214.871 200.093 214.096 200.15 213.449 199.804L211.253 198.624L207.404 205.804L209.6 206.983C210.248 207.33 210.629 208.012 210.606 208.74C210.594 209.145 210.606 209.549 210.64 209.954C210.698 210.682 210.363 211.387 209.739 211.769L207.624 213.087L211.912 220L214.027 218.705ZM216.061 205.861C217.806 202.613 221.84 201.399 225.088 203.133C228.335 204.879 229.549 208.913 227.804 212.162C226.058 215.411 222.025 216.624 218.789 214.89C215.552 213.145 214.327 209.11 216.061 205.861Z" fill="#263238"/>
<path d="M168.235 139.907C168.674 140.162 168.928 140.647 168.893 141.167C168.882 141.306 168.882 141.445 168.882 141.584C168.882 141.722 168.882 141.861 168.893 142.011C168.917 142.52 168.674 143.006 168.235 143.26L166.721 144.139L169.575 149.075L171.089 148.196C171.529 147.942 172.083 147.965 172.511 148.243C172.742 148.393 172.996 148.543 173.251 148.67C173.701 148.902 174.002 149.364 174.002 149.873V151.618H179.7V149.873C179.7 149.364 179.989 148.902 180.451 148.67C180.705 148.543 180.948 148.404 181.191 148.243C181.618 147.965 182.162 147.93 182.612 148.196L184.126 149.075L186.97 144.139L185.444 143.26C185.005 143.006 184.762 142.52 184.785 142.011C184.797 141.873 184.797 141.734 184.797 141.595C184.797 141.457 184.797 141.318 184.785 141.179C184.762 140.67 185.005 140.173 185.444 139.919L186.958 139.04L184.115 134.104L182.601 134.983C182.162 135.237 181.607 135.214 181.179 134.936C180.937 134.786 180.694 134.636 180.44 134.509C179.989 134.277 179.688 133.815 179.688 133.306V131.561H173.99V133.306C173.99 133.815 173.701 134.277 173.239 134.509C172.985 134.636 172.742 134.786 172.499 134.936C172.072 135.214 171.529 135.237 171.078 134.983L169.564 134.104L166.709 139.04L168.235 139.907ZM176.834 136.913C179.411 136.913 181.503 139.006 181.503 141.584C181.503 144.162 179.411 146.254 176.834 146.254C174.256 146.254 172.164 144.162 172.164 141.584C172.164 139.006 174.256 136.913 176.834 136.913Z" fill="#455A64"/>
<path d="M202.179 95.6881C201.451 88.3701 196.412 81.0869 187.547 81.0869C178.694 81.0869 173.655 88.3701 172.927 95.6881C171.805 106.983 179.422 117.214 187.547 126.544C195.684 117.214 203.3 106.983 202.179 95.6881ZM187.559 103.815C183.132 103.815 179.549 100.231 179.549 95.8037C179.549 91.3759 183.132 87.7921 187.559 87.7921C191.997 87.7921 195.58 91.3759 195.58 95.8037C195.58 100.231 191.985 103.815 187.559 103.815Z" fill="#FFC727"/>
<path d="M237.547 107.792C256.045 107.792 271.041 92.7922 271.041 74.289C271.041 55.7859 256.045 40.7861 237.547 40.7861C219.049 40.7861 204.053 55.7859 204.053 74.289C204.053 92.7922 219.049 107.792 237.547 107.792Z" fill="#455A64"/>
<path d="M236.739 65.0059C236.658 67.1331 236.716 69.2949 236.716 71.6071H245.037C244.679 74.3469 244.378 76.8903 243.974 79.399C243.951 79.6533 243.315 79.9539 242.957 79.977C240.957 80.0233 238.946 80.0001 236.762 80.0001V107.757C233.687 107.711 230.752 107.226 227.932 106.382V80.0464H220.65V71.6764H227.781C227.805 71.0406 227.862 70.5319 227.862 70.0579C227.909 67.8498 227.839 65.6417 228.036 63.4568C228.498 58.6591 231.434 55.2834 236.184 54.6244C239.131 54.2198 242.194 54.5435 245.291 54.5435V62.1504C244.205 62.1504 243.084 62.1273 241.997 62.1504C241.038 62.1735 240.021 62.1273 239.085 62.3585C237.733 62.6706 236.785 63.5839 236.739 65.0059Z" fill="white"/>
<path d="M324.981 155.804C343.479 155.804 358.475 140.804 358.475 122.301C358.475 103.798 343.479 88.7979 324.981 88.7979C306.482 88.7979 291.486 103.798 291.486 122.301C291.486 140.804 306.482 155.804 324.981 155.804Z" fill="#455A64"/>
<path d="M306.695 138.023C311.145 138.104 315.156 137.029 318.762 134.301C313.769 132.786 311.781 131.26 311.053 128.416C312.174 128.359 313.283 128.301 314.404 128.254C310.463 126.74 308.152 124.093 307.851 119.769C309.053 120.093 310.174 120.382 311.295 120.682C307.678 116.139 306.95 112.601 309.111 109.318C313.78 114.648 319.594 117.676 326.817 118.174C326.783 117.607 326.748 117.191 326.736 116.763C326.598 113.041 328.158 110.22 331.475 108.578C334.781 106.937 338.005 107.376 340.883 109.711C341.519 110.231 342.062 110.37 342.778 110.104C344.119 109.596 345.471 109.11 346.951 108.567C346.338 110.359 345.171 111.7 343.668 112.786C343.703 112.867 343.726 112.948 343.761 113.029C345.136 112.671 346.523 112.324 347.899 111.965C347.956 112.023 348.014 112.081 348.06 112.127C346.986 113.202 345.968 114.335 344.836 115.341C344.246 115.873 343.934 116.347 343.934 117.191C343.969 129.827 334.434 140.347 321.894 141.468C316.831 141.919 312 141.006 307.516 138.532C307.239 138.37 306.973 138.197 306.695 138.023Z" fill="white"/>
<path d="M217.584 181.298C219.648 168.489 210.941 156.431 198.135 154.365C185.33 152.3 173.274 161.009 171.21 173.818C169.145 186.627 177.852 198.686 190.658 200.751C203.464 202.816 215.519 194.107 217.584 181.298Z" fill="#455A64"/>
<path d="M185.179 165.249C185.214 165.26 185.248 165.272 185.271 165.283C185.988 165.341 186.612 165.607 187.132 166.127C187.594 166.578 187.872 167.133 187.964 167.769C188.126 168.855 187.791 169.769 186.97 170.497C186.577 170.855 186.092 171.064 185.572 171.168C185.294 171.214 185.029 171.225 184.751 171.202C183.503 171.087 182.509 170.208 182.185 169.098C182.128 168.89 182.081 168.694 182.081 168.474C182.081 168.428 182.093 168.381 182.035 168.37C182.035 168.289 182.035 168.197 182.035 168.116C182.081 168.092 182.081 168.046 182.081 168.012C182.093 167.931 182.093 167.838 182.104 167.757C182.197 167.179 182.44 166.659 182.833 166.231C183.364 165.653 184.035 165.341 184.809 165.283C184.844 165.283 184.878 165.26 184.913 165.249C185.017 165.249 185.098 165.249 185.179 165.249Z" fill="white"/>
<path d="M195.743 175.607C195.766 175.572 195.789 175.538 195.812 175.503C196.067 175.133 196.344 174.786 196.679 174.486C197.361 173.85 198.159 173.422 199.072 173.202C199.511 173.098 199.95 173.052 200.401 173.017C200.701 172.994 201.002 173.006 201.302 173.029C202.181 173.098 203.024 173.26 203.822 173.653C204.643 174.058 205.255 174.671 205.706 175.457C205.995 175.954 206.18 176.486 206.33 177.041C206.434 177.422 206.503 177.804 206.561 178.185C206.584 178.382 206.596 178.578 206.607 178.775C206.63 179.133 206.654 179.503 206.665 179.861C206.665 179.873 206.665 179.885 206.665 179.896C206.677 180.243 206.688 180.59 206.688 180.937C206.7 182.093 206.7 183.249 206.7 184.405C206.7 186.15 206.7 187.908 206.7 189.653C206.7 189.85 206.688 189.861 206.492 189.861C205.752 189.861 205.012 189.861 204.273 189.861C203.579 189.861 202.886 189.861 202.204 189.861C202.088 189.861 201.984 189.873 201.869 189.873C201.846 189.873 201.834 189.873 201.811 189.873C201.568 189.861 201.557 189.804 201.568 189.619C201.568 188.174 201.568 186.717 201.568 185.272C201.568 183.838 201.568 182.393 201.568 180.96C201.568 180.416 201.522 179.873 201.36 179.341C201.268 179.029 201.152 178.74 200.967 178.474C200.655 178.012 200.216 177.734 199.661 177.619C199.465 177.572 199.257 177.549 199.049 177.549C198.829 177.549 198.609 177.549 198.39 177.572C197.419 177.688 196.702 178.162 196.309 179.075C196.136 179.468 196.044 179.873 195.986 180.301C195.928 180.752 195.905 181.202 195.905 181.653C195.905 184.289 195.905 186.925 195.905 189.561C195.905 189.619 195.905 189.676 195.905 189.746C195.893 189.827 195.859 189.861 195.778 189.861C195.732 189.861 195.685 189.861 195.639 189.861C194.795 189.861 193.963 189.861 193.119 189.861C192.588 189.861 192.056 189.861 191.525 189.861C191.363 189.861 191.212 189.873 191.051 189.873C191.028 189.873 191.004 189.873 190.981 189.873C190.773 189.85 190.762 189.804 190.762 189.642C190.762 189.561 190.762 189.48 190.762 189.411C190.762 185.942 190.762 182.463 190.762 178.994C190.762 177.237 190.762 175.491 190.762 173.734C190.762 173.688 190.762 173.642 190.762 173.596C190.762 173.48 190.808 173.434 190.924 173.434C190.947 173.434 190.981 173.434 191.004 173.434C192.484 173.434 193.952 173.434 195.431 173.434C195.454 173.434 195.489 173.434 195.512 173.434C195.628 173.445 195.662 173.48 195.674 173.596C195.674 173.792 195.662 173.989 195.662 174.197C195.662 174.486 195.662 174.775 195.662 175.075C195.662 175.214 195.662 175.353 195.662 175.491C195.662 175.526 195.662 175.572 195.662 175.607C195.72 175.607 195.732 175.607 195.743 175.607Z" fill="white"/>
<path d="M182.485 181.642C182.485 178.983 182.485 176.324 182.485 173.665C182.485 173.619 182.485 173.572 182.497 173.526C182.508 173.468 182.531 173.434 182.601 173.434C182.635 173.434 182.682 173.434 182.716 173.434C184.277 173.434 185.825 173.434 187.386 173.434C187.397 173.434 187.409 173.434 187.42 173.434C187.605 173.434 187.64 173.48 187.652 173.665C187.652 174.266 187.652 174.867 187.652 175.468C187.652 180.173 187.652 184.867 187.652 189.572C187.652 189.63 187.652 189.688 187.64 189.746C187.628 189.815 187.594 189.861 187.524 189.861C187.409 189.873 187.282 189.873 187.166 189.873C187.12 189.873 187.074 189.861 187.027 189.861C185.721 189.861 184.415 189.861 183.109 189.861C183.005 189.861 182.901 189.873 182.797 189.873C182.774 189.873 182.751 189.873 182.728 189.873C182.555 189.85 182.508 189.838 182.508 189.642C182.485 186.983 182.474 184.312 182.485 181.642C182.474 181.642 182.474 181.642 182.485 181.642Z" fill="white"/>
<path d="M296.772 185.644C300.965 167.642 289.775 149.649 271.778 145.455C253.781 141.261 235.793 152.455 231.6 170.456C227.407 188.458 238.597 206.451 256.594 210.645C274.591 214.839 292.579 203.646 296.772 185.644Z" fill="#FFC727"/>
<path d="M284.157 167.017C284.134 161.583 280.748 158.069 275.362 158.023C267.919 157.953 260.464 157.942 253.009 158.023C247.739 158.081 244.33 161.572 244.249 166.832C244.202 170.555 244.237 174.277 244.237 177.988C244.237 181.63 244.214 185.271 244.237 188.913C244.283 194.462 247.67 198.011 253.171 198.069C260.545 198.15 267.919 198.15 275.281 198.069C280.667 198.011 284.123 194.462 284.146 189.098C284.192 181.745 284.192 174.381 284.157 167.017ZM280.598 189.167C280.563 192.601 278.714 194.508 275.27 194.52C267.896 194.566 260.533 194.566 253.16 194.52C249.704 194.497 247.843 192.601 247.82 189.19C247.785 181.757 247.785 174.323 247.82 166.878C247.832 163.468 249.739 161.514 253.137 161.491C260.51 161.445 267.873 161.445 275.246 161.491C278.656 161.514 280.551 163.456 280.586 166.855C280.632 170.578 280.598 174.289 280.598 178.011C280.598 181.722 280.632 185.445 280.598 189.167Z" fill="white"/>
<path d="M264.221 167.572C258.534 167.56 253.877 172.173 253.819 177.884C253.761 183.664 258.234 188.323 263.955 188.427C269.815 188.543 274.53 183.976 274.588 178.15C274.646 172.323 270.011 167.583 264.221 167.572ZM264.094 184.948C260.384 184.878 257.298 181.768 257.252 178.08C257.217 174.277 260.349 171.156 264.198 171.156C268.035 171.156 271.179 174.277 271.155 178.08C271.132 181.849 267.862 185.028 264.094 184.948Z" fill="white"/>
<path d="M277.755 167.329C277.64 168.797 276.704 169.56 275.27 169.491C273.687 169.421 272.89 168.45 273.005 166.89C273.109 165.433 274.057 164.751 275.525 164.67C277.004 164.913 277.871 165.757 277.755 167.329Z" fill="white"/>
<path d="M320.725 75.3325C324.079 63.2899 317.037 50.8083 304.997 47.4542C292.958 44.1001 280.48 51.1435 277.126 63.1861C273.773 75.2287 280.815 87.7103 292.854 91.0644C304.894 94.4185 317.372 87.3751 320.725 75.3325Z" fill="#FFC727"/>
<path d="M290.48 77.9426V60.5669L311.203 69.249L290.48 77.9426Z" fill="white"/>
<path d="M253.013 268.17C265.021 263.265 270.781 249.553 265.878 237.542C260.976 225.53 247.266 219.769 235.258 224.673C223.25 229.577 217.49 243.29 222.393 255.301C227.296 267.312 241.005 273.074 253.013 268.17Z" fill="#FFC727"/>
<path d="M257.228 249.422C253.357 257.237 244.133 261.885 244.133 261.885C244.133 261.885 234.91 257.249 231.039 249.422C227.814 242.902 229.86 235.85 234.957 234.313C242.261 232.104 244.133 244.833 244.133 244.833C244.133 244.833 246.006 232.104 253.322 234.313C258.419 235.85 260.453 242.902 257.228 249.422Z" fill="white"/>
<path d="M234.479 148.937C243.651 139.764 243.651 124.89 234.479 115.716C225.308 106.542 210.438 106.542 201.267 115.716C192.095 124.89 192.095 139.764 201.267 148.937C210.438 158.111 225.308 158.111 234.479 148.937Z" fill="#263238"/>
<path d="M224.717 122.705C224.844 122.925 224.972 123.145 225.122 123.353C225.122 123.353 225.145 123.364 225.157 123.387C225.122 123.318 224.925 123.075 224.717 122.705ZM229.156 127.665C229.156 127.052 229.156 126.439 229.156 125.815C228.913 125.78 228.67 125.723 228.427 125.653C228.011 125.538 227.618 125.387 227.237 125.179C226.867 124.983 226.509 124.752 226.185 124.486C226.012 124.347 225.838 124.197 225.688 124.035C225.665 124.012 225.642 123.989 225.619 123.954C225.596 123.931 225.584 123.908 225.561 123.884C225.422 123.723 225.284 123.561 225.168 123.387C225.11 123.376 225.029 123.306 224.995 123.272C224.729 123.041 224.486 122.798 224.255 122.52C223.908 122.104 223.631 121.653 223.388 121.168C223.157 120.682 222.972 120.173 222.857 119.653C222.81 119.468 222.776 119.272 222.729 119.075V119.064C222.729 119.064 222.729 119.064 222.729 119.052C222.729 119.041 222.729 119.017 222.729 119.006C221.99 119.006 221.25 119.006 220.499 119.006C220.441 119.006 220.395 119.006 220.337 119.006C220.152 119.006 219.979 119.006 219.817 119.006C219.748 119.006 219.678 119.006 219.609 119.006C219.447 119.006 219.285 119.006 219.147 119.006C219.066 119.006 219.043 119.029 219.043 119.11C219.043 124.775 219.043 130.439 219.043 136.104C219.043 136.601 219.043 137.098 219.043 137.595C219.043 137.884 219.008 138.162 218.985 138.439C218.95 138.798 218.892 139.145 218.788 139.491C218.742 139.653 218.65 139.792 218.569 139.931C218.361 140.289 218.106 140.613 217.806 140.89C217.586 141.098 217.344 141.272 217.078 141.41C216.719 141.607 216.338 141.746 215.933 141.827C215.795 141.85 215.645 141.873 215.494 141.884C215.344 141.896 215.205 141.896 215.055 141.896C214.547 141.884 214.061 141.78 213.599 141.595C213.264 141.457 212.952 141.283 212.663 141.052C212.362 140.798 212.096 140.509 211.911 140.139C211.911 140.127 211.726 139.769 211.599 139.318C211.669 139.584 211.761 139.85 211.888 140.093C211.888 140.104 211.9 140.116 211.888 140.127V140.139C211.784 140.081 211.68 140.012 211.588 139.942C211.576 139.942 211.576 139.931 211.565 139.931C211.449 139.838 211.345 139.746 211.241 139.642C210.952 139.33 210.733 138.983 210.582 138.578C210.501 138.347 210.432 138.116 210.386 137.873C210.351 137.688 210.328 137.491 210.316 137.306C210.305 137.191 210.305 137.075 210.305 136.96C210.316 136.543 210.374 136.15 210.49 135.757C210.617 135.353 210.802 134.971 211.056 134.636C211.334 134.254 211.68 133.954 212.073 133.711C212.443 133.491 212.836 133.341 213.252 133.237C213.437 133.191 213.622 133.168 213.807 133.145C214.096 133.11 214.385 133.11 214.674 133.121C214.87 133.133 215.078 133.133 215.275 133.179C215.356 133.202 215.367 133.179 215.367 133.098C215.367 131.792 215.367 130.497 215.367 129.191C215.067 129.191 214.766 129.179 214.477 129.191C214.13 129.214 213.784 129.249 213.437 129.306C213.044 129.376 212.674 129.468 212.293 129.595C212.027 129.676 211.761 129.792 211.507 129.908C211.114 130.093 210.733 130.301 210.374 130.543C210.12 130.717 209.866 130.913 209.635 131.11C209.392 131.318 209.172 131.538 208.953 131.757C208.675 132.046 208.433 132.358 208.201 132.694C207.936 133.087 207.693 133.491 207.485 133.919C207.335 134.243 207.196 134.567 207.08 134.902C206.918 135.376 206.791 135.85 206.687 136.335C206.641 136.567 206.618 136.798 206.583 137.029C206.526 137.491 206.514 137.942 206.526 138.405C206.526 138.671 206.56 138.936 206.583 139.202C206.63 139.619 206.71 140.035 206.814 140.451C206.93 140.89 207.08 141.306 207.254 141.723C207.45 142.185 207.704 142.624 207.982 143.041C208.051 143.145 208.12 143.237 208.178 143.341C208.167 143.353 208.548 143.78 208.756 144C208.606 143.838 208.456 143.665 208.317 143.491C208.305 143.48 208.305 143.468 208.317 143.457C208.34 143.468 208.363 143.48 208.386 143.491C208.444 143.538 208.502 143.584 208.548 143.63C208.56 143.63 208.56 143.642 208.56 143.642C208.802 143.838 209.057 144.012 209.311 144.185C209.646 144.393 209.993 144.59 210.34 144.752C210.79 144.96 211.253 145.145 211.726 145.283C211.958 145.353 212.212 145.387 212.455 145.434C212.674 145.48 212.882 145.503 213.102 145.538C213.206 145.549 213.298 145.561 213.402 145.572C213.726 145.595 214.05 145.63 214.385 145.619C214.662 145.607 214.951 145.595 215.228 145.561C215.552 145.526 215.887 145.468 216.211 145.399C216.696 145.295 217.17 145.133 217.621 144.936C218.153 144.705 218.65 144.405 219.123 144.058C219.505 143.78 219.84 143.457 220.164 143.11C220.406 142.844 220.626 142.567 220.834 142.278C221.123 141.873 221.366 141.434 221.585 140.994C221.828 140.486 222.013 139.965 222.163 139.434C222.244 139.133 222.313 138.832 222.371 138.532C222.417 138.312 222.44 138.093 222.475 137.861C222.498 137.734 222.498 137.619 222.51 137.491C222.614 135.792 222.544 134.093 222.556 132.393C222.568 130.694 222.556 128.983 222.556 127.283V127.168C222.625 127.226 222.683 127.272 222.729 127.318C223.007 127.549 223.296 127.757 223.608 127.942C223.885 128.116 224.163 128.266 224.463 128.405C224.972 128.647 225.492 128.832 226.023 128.994C226.405 129.11 226.798 129.202 227.202 129.283C227.503 129.341 227.803 129.399 228.104 129.434C228.289 129.457 228.474 129.48 228.659 129.491C228.786 129.503 228.901 129.491 229.028 129.503C229.098 129.503 229.109 129.48 229.109 129.422C229.156 128.832 229.156 128.254 229.156 127.665ZM208.282 143.376C208.282 143.376 208.271 143.376 208.271 143.364C208.271 143.376 208.271 143.364 208.282 143.376ZM208.34 143.434C208.34 143.434 208.329 143.434 208.329 143.422L208.34 143.41C208.352 143.422 208.352 143.422 208.34 143.434C208.363 143.445 208.363 143.434 208.34 143.434ZM208.814 143.989C208.825 144 208.837 144.023 208.849 144.035C208.837 144.023 208.825 144.012 208.814 143.989ZM220.51 119.017C221.608 119.017 222.741 119.017 222.741 119.017C221.99 119.017 221.25 119.017 220.51 119.017ZM222.729 119.017C222.729 119.017 222.729 119.041 222.729 119.064C222.729 119.052 222.741 119.029 222.729 119.017Z" fill="#FEFEFE"/>
<path d="M230.277 130.613C230.277 130.682 230.265 130.705 230.196 130.694C229.93 130.682 229.664 130.659 229.398 130.636C229.19 130.613 228.982 130.59 228.763 130.555C228.52 130.52 228.289 130.462 228.046 130.416C227.584 130.312 227.133 130.196 226.682 130.035C226.324 129.907 225.966 129.769 225.631 129.607C225.203 129.41 224.787 129.179 224.394 128.913C224.174 128.763 223.955 128.601 223.747 128.416C223.723 128.428 223.735 128.439 223.735 128.451C223.747 129.168 223.712 129.884 223.712 130.601C223.712 133.11 223.712 135.607 223.712 138.116C223.712 138.37 223.689 138.636 223.654 138.89C223.631 139.063 223.619 139.225 223.585 139.399C223.55 139.642 223.504 139.884 223.446 140.127C223.377 140.462 223.284 140.786 223.169 141.11C223.042 141.503 222.88 141.884 222.706 142.254C222.487 142.705 222.233 143.133 221.944 143.537C221.805 143.734 221.666 143.907 221.516 144.092C221.389 144.254 221.239 144.405 221.1 144.543C220.892 144.751 220.684 144.948 220.453 145.121C220.245 145.283 220.037 145.445 219.817 145.584C219.447 145.827 219.043 146.035 218.638 146.196C218.28 146.347 217.898 146.474 217.517 146.566C217.286 146.624 217.055 146.67 216.824 146.705C216.592 146.74 216.35 146.763 216.119 146.798C216.049 146.809 215.98 146.774 215.922 146.809H214.986C214.974 146.774 214.94 146.798 214.928 146.798C214.674 146.786 214.42 146.751 214.165 146.717C213.969 146.694 213.761 146.647 213.564 146.624C213.114 146.555 212.686 146.428 212.258 146.266C212.004 146.173 211.761 146.069 211.519 145.954C211.091 145.757 210.698 145.526 210.305 145.272C210.074 145.121 209.866 144.959 209.646 144.786C209.369 144.566 209.115 144.324 208.872 144.069C208.872 144.069 208.872 144.058 208.86 144.058C208.86 144.046 208.849 144.046 208.837 144.035C208.826 144.023 208.814 144.011 208.802 143.988C208.594 143.769 208.225 143.341 208.225 143.329C208.271 143.353 208.352 143.41 208.421 143.48C208.479 143.537 208.548 143.584 208.583 143.618C208.594 143.618 208.594 143.63 208.594 143.63C208.837 143.826 209.091 144 209.346 144.173C209.681 144.381 210.028 144.578 210.374 144.74C210.825 144.948 211.287 145.133 211.761 145.272C211.992 145.341 212.247 145.376 212.489 145.422C212.709 145.468 212.917 145.491 213.137 145.526C213.241 145.537 213.333 145.549 213.437 145.561C213.761 145.584 214.084 145.618 214.42 145.607C214.697 145.595 214.986 145.584 215.263 145.549C215.587 145.514 215.922 145.457 216.246 145.387C216.731 145.283 217.205 145.121 217.656 144.925C218.187 144.694 218.684 144.393 219.158 144.046C219.54 143.769 219.875 143.445 220.198 143.098C220.441 142.832 220.661 142.555 220.869 142.266C221.158 141.861 221.4 141.422 221.62 140.983C221.863 140.474 222.048 139.954 222.198 139.422C222.279 139.121 222.348 138.821 222.406 138.52C222.452 138.3 222.475 138.081 222.51 137.85C222.533 137.722 222.533 137.607 222.545 137.48C222.649 135.78 222.579 134.081 222.591 132.381C222.602 130.682 222.591 128.971 222.591 127.272V127.168C222.66 127.225 222.718 127.272 222.764 127.318C223.042 127.549 223.331 127.757 223.643 127.942C223.92 128.116 224.197 128.266 224.498 128.405C225.006 128.647 225.526 128.832 226.058 128.994C226.44 129.11 226.833 129.202 227.237 129.283C227.538 129.341 227.838 129.399 228.139 129.433C228.323 129.457 228.508 129.48 228.693 129.491C228.82 129.503 228.936 129.491 229.063 129.503C229.133 129.503 229.144 129.48 229.144 129.422C229.144 128.844 229.144 128.254 229.144 127.665C229.144 127.052 229.144 126.439 229.144 125.815H229.156C229.26 125.85 229.375 125.861 229.491 125.873C229.664 125.896 229.838 125.919 230.011 125.931C230.08 125.942 230.161 125.931 230.23 125.942C230.265 125.954 230.277 125.965 230.277 126C230.277 126.011 230.277 126.023 230.277 126.035C230.277 127.572 230.277 129.087 230.277 130.613Z" fill="#455A64"/>
<path d="M215.426 129.179H215.414C215.114 129.179 214.813 129.167 214.524 129.179C214.178 129.202 213.831 129.237 213.484 129.295C213.091 129.364 212.721 129.456 212.34 129.584C212.074 129.664 211.808 129.78 211.554 129.896C211.161 130.081 210.78 130.289 210.421 130.532C210.167 130.705 209.913 130.902 209.682 131.098C209.439 131.306 209.219 131.526 209 131.745C208.722 132.034 208.48 132.347 208.248 132.682C207.983 133.075 207.74 133.48 207.532 133.907C207.382 134.231 207.243 134.555 207.127 134.89C206.966 135.364 206.838 135.838 206.734 136.323C206.688 136.555 206.665 136.786 206.63 137.017C206.573 137.48 206.561 137.93 206.573 138.393C206.573 138.659 206.607 138.925 206.63 139.191C206.677 139.607 206.758 140.023 206.862 140.439C206.977 140.878 207.127 141.295 207.301 141.711C207.497 142.173 207.751 142.612 208.029 143.029C208.098 143.133 208.168 143.225 208.225 143.329C208.168 143.271 208.098 143.225 208.04 143.167C207.728 142.867 207.451 142.555 207.185 142.208C206.919 141.861 206.688 141.503 206.492 141.121C206.237 140.647 206.029 140.15 205.868 139.63C205.74 139.248 205.66 138.855 205.59 138.451C205.556 138.219 205.521 137.988 205.498 137.757C205.486 137.665 205.509 137.56 205.475 137.468V136.358C205.498 136.347 205.486 136.323 205.486 136.312C205.486 136.092 205.521 135.873 205.544 135.653C205.59 135.214 205.683 134.774 205.798 134.347C205.902 133.954 206.041 133.572 206.191 133.202C206.445 132.589 206.758 132.011 207.139 131.468C207.301 131.225 207.486 131.006 207.671 130.774C207.879 130.52 208.11 130.289 208.352 130.069C208.757 129.688 209.208 129.364 209.682 129.075C210.19 128.774 210.722 128.532 211.277 128.358C211.67 128.231 212.063 128.138 212.479 128.081C212.698 128.046 212.929 128.023 213.149 128C213.507 127.965 213.866 127.965 214.224 127.977C214.501 127.988 214.79 128 215.068 128.046C215.16 128.058 215.252 128.069 215.345 128.081C215.403 128.081 215.414 128.115 215.414 128.162C215.426 128.52 215.426 128.844 215.426 129.179Z" fill="#FFC727"/>
<path d="M222.73 119.017C222.73 119.017 221.482 119.017 220.338 119.017C220.153 119.017 219.979 119.017 219.818 119.017C219.748 119.017 219.679 119.017 219.61 119.017C219.448 119.017 219.286 119.017 219.147 119.017C219.066 119.017 219.043 119.04 219.043 119.121C219.043 124.786 219.043 130.451 219.043 136.116C219.043 136.613 219.043 137.11 219.043 137.607C219.043 137.896 219.009 138.173 218.985 138.451C218.951 138.809 218.893 139.156 218.789 139.503C218.743 139.665 218.65 139.803 218.569 139.942C218.361 140.3 218.107 140.624 217.807 140.902C217.587 141.11 217.344 141.283 217.078 141.422C216.72 141.618 216.339 141.757 215.934 141.838C215.795 141.861 215.645 141.884 215.495 141.896C215.345 141.907 215.206 141.907 215.056 141.907C214.547 141.896 214.062 141.792 213.6 141.607C213.264 141.468 212.952 141.295 212.663 141.063C212.363 140.809 212.097 140.52 211.912 140.15C211.981 140.185 212.039 140.22 212.085 140.243C212.409 140.428 212.767 140.543 213.126 140.636C213.53 140.728 213.935 140.751 214.351 140.728C214.882 140.694 215.391 140.543 215.865 140.3C216.119 140.173 216.362 140.011 216.581 139.815C216.905 139.537 217.182 139.202 217.414 138.844C217.598 138.543 217.726 138.231 217.783 137.873C217.818 137.63 217.853 137.387 217.887 137.156C217.911 137.006 217.922 136.867 217.922 136.717C217.922 136.462 217.945 136.22 217.945 135.965C217.945 129.965 217.945 123.977 217.945 117.977C217.945 117.954 217.945 117.931 217.945 117.907C217.945 117.873 217.957 117.85 218.003 117.85C218.026 117.85 218.038 117.85 218.061 117.85H222.522C222.638 117.85 222.649 117.85 222.638 117.965C222.638 118.289 222.672 118.613 222.73 118.925C222.742 118.948 222.73 118.983 222.73 119.017Z" fill="#FFC727"/>
<path d="M216.558 130.254V134.289C216.558 134.393 216.558 134.381 216.454 134.37C216.35 134.347 216.246 134.346 216.142 134.335C215.992 134.323 215.83 134.323 215.68 134.312C215.275 134.3 214.871 134.335 214.466 134.427C214.085 134.508 213.726 134.636 213.38 134.82C213.149 134.948 212.94 135.098 212.732 135.271C212.409 135.56 212.143 135.896 211.947 136.277C211.762 136.612 211.646 136.971 211.565 137.341C211.53 137.491 211.519 137.641 211.496 137.803C211.473 138 211.484 138.208 211.484 138.404C211.484 138.659 211.53 138.901 211.588 139.156C211.6 139.214 211.611 139.271 211.634 139.329C211.762 139.78 211.947 140.127 211.947 140.15C211.947 140.15 211.935 140.15 211.935 140.138C211.819 140.081 211.715 140.011 211.611 139.93C211.496 139.838 211.392 139.745 211.288 139.641C210.999 139.329 210.779 138.982 210.629 138.578C210.548 138.347 210.479 138.115 210.432 137.873C210.398 137.688 210.375 137.491 210.363 137.306C210.352 137.19 210.352 137.075 210.352 136.959C210.363 136.543 210.421 136.15 210.536 135.757C210.664 135.352 210.849 134.971 211.103 134.636C211.38 134.254 211.727 133.953 212.12 133.711C212.49 133.491 212.883 133.341 213.299 133.237C213.484 133.19 213.669 133.167 213.854 133.144C214.142 133.11 214.431 133.11 214.72 133.121C214.917 133.133 215.125 133.133 215.321 133.179C215.402 133.202 215.414 133.179 215.414 133.098C215.414 131.792 215.414 130.497 215.414 129.19H215.425C215.46 129.202 215.495 129.214 215.541 129.214C215.807 129.225 216.084 129.248 216.35 129.294C216.396 129.306 216.442 129.318 216.5 129.318C216.558 129.306 216.558 129.341 216.558 129.375C216.558 129.653 216.558 129.953 216.558 130.254Z" fill="#455A64"/>
<path d="M225.169 123.399C225.111 123.387 225.03 123.318 224.996 123.283C224.73 123.052 224.487 122.809 224.256 122.532C223.909 122.115 223.632 121.664 223.389 121.179C223.158 120.693 222.973 120.185 222.858 119.664C222.811 119.48 222.777 119.283 222.73 119.086V119.075C222.73 119.052 222.73 119.017 222.73 119.017C223.054 119.017 223.366 119.017 223.69 119.017C223.736 119.017 223.748 119.029 223.748 119.075C223.748 119.352 223.771 119.63 223.817 119.907C223.875 120.358 223.979 120.809 224.106 121.237C224.221 121.618 224.36 121.988 224.545 122.358C224.603 122.485 224.661 122.601 224.718 122.705C224.926 123.075 225.123 123.318 225.158 123.375C225.169 123.387 225.169 123.387 225.169 123.399Z" fill="#263238"/>
<path d="M229.169 124.832C229.169 125.168 229.169 125.491 229.169 125.827H229.157C228.915 125.792 228.672 125.734 228.429 125.665C228.013 125.549 227.62 125.399 227.239 125.191C226.869 124.994 226.511 124.763 226.187 124.497C226.014 124.358 225.84 124.208 225.69 124.046C225.667 124.023 225.644 124 225.621 123.965C225.459 123.792 225.309 123.607 225.17 123.399C225.251 123.457 225.332 123.515 225.413 123.572C225.424 123.584 225.436 123.595 225.447 123.595C225.736 123.804 226.048 123.977 226.372 124.127C226.58 124.22 226.8 124.312 227.019 124.382C227.424 124.509 227.828 124.613 228.256 124.671C228.533 124.717 228.822 124.752 229.1 124.763C229.157 124.775 229.169 124.786 229.169 124.832Z" fill="#FFC727"/>
<path d="M333.859 204.181C345.867 199.277 351.627 185.564 346.724 173.553C341.821 161.542 328.112 155.78 316.104 160.684C304.096 165.588 298.336 179.301 303.239 191.312C308.142 203.323 321.851 209.085 333.859 204.181Z" fill="#263238"/>
<path d="M310.627 196.693C311.24 194.474 311.783 192.416 312.395 190.381C312.592 189.722 312.534 189.191 312.222 188.555C307.934 179.907 313.62 169.468 323.225 168.289C332.055 167.214 339.533 173.873 339.336 182.659C339.186 189.861 333.072 196.069 325.848 196.393C323.387 196.509 321.04 196.069 318.787 195.052C318.394 194.878 317.851 194.844 317.434 194.948C315.215 195.48 313.019 196.081 310.627 196.693ZM314.071 193.341C315.481 192.982 316.672 192.636 317.874 192.381C318.267 192.3 318.775 192.358 319.133 192.543C320.936 193.491 322.832 194 324.878 194.035C332.217 194.162 338.123 187.352 336.724 180.196C335.753 175.248 332.725 172.011 327.813 170.89C322.786 169.734 318.498 171.364 315.458 175.514C312.476 179.584 312.407 183.965 314.834 188.393C315.042 188.774 315.1 189.352 315.007 189.792C314.788 190.936 314.429 192.058 314.071 193.341Z" fill="white"/>
<path d="M318.788 176.589C319.758 175.283 321.053 175.537 321.735 176.982C322.001 177.549 322.058 177.734 322.324 178.381C322.717 179.352 322.625 180 321.931 180.624C321.423 181.075 321.469 181.479 321.827 182C322.925 183.63 324.347 184.855 326.15 185.653C326.693 185.896 327.063 185.838 327.456 185.364C328.704 183.872 328.727 183.884 330.496 184.716C330.704 184.809 330.9 184.913 331.108 185.005C332.46 185.653 332.668 186.878 331.57 187.953C330.438 189.052 329.074 189.306 327.583 188.924C323.769 187.953 321.041 185.56 318.938 182.346C318.291 181.364 317.817 180.335 317.851 179.121C317.955 178 318.267 177.294 318.788 176.589Z" fill="white"/>
<path fill-rule="evenodd" clip-rule="evenodd" d="M290.872 229.607C290.017 229.075 289.266 228.289 288.121 228.404C287.682 228.451 287.775 228.081 287.775 227.85C287.752 223.537 287.74 219.237 287.729 214.925C287.729 214.613 287.74 214.358 288.087 214.185C291.369 212.52 292.791 209.248 294.79 206.451C296.94 203.468 297.668 200.243 297.148 196.67C297.009 195.699 297.46 195.26 298.327 195.063C299.379 194.821 300.43 195.11 300.789 195.826C301.679 197.618 302.453 199.48 302.684 201.468C302.881 203.098 302.303 204.693 302.106 206.312C301.956 207.491 301.69 208.67 301.471 209.861C301.76 210.069 302.095 209.965 302.407 209.965C306.047 209.954 309.677 209.942 313.317 209.93C314.854 209.93 315.606 210.358 315.814 211.376C316.08 212.647 315.409 213.93 314.242 214.532C313.976 214.67 313.479 214.543 313.444 214.971C313.41 215.41 313.918 215.364 314.173 215.537C315.49 216.439 315.259 218.3 313.733 219.387C313.364 219.641 312.659 219.526 312.635 220.069C312.624 220.497 313.294 220.485 313.595 220.798C314.658 221.85 314.138 223.803 312.554 224.601C312.346 224.705 312.104 224.717 311.919 224.855C311.734 224.982 311.561 225.11 311.907 225.364C313.491 226.485 313.456 228.058 311.873 229.202C311.722 229.318 311.561 229.433 311.399 229.549C310.821 229.977 310.139 229.965 309.48 229.977C303.771 230.011 298.073 230.023 292.363 230.035C291.843 230.023 291.3 230 290.872 229.607Z" fill="#455A64"/>
<path fill-rule="evenodd" clip-rule="evenodd" d="M274.623 222.058C274.611 219.318 274.623 216.578 274.588 213.85C274.588 213.295 274.634 213.017 275.316 213.029C278.656 213.063 281.985 213.052 285.325 212.994C285.984 212.983 286.076 213.214 286.076 213.792C286.076 219.295 286.088 224.809 286.134 230.312C286.146 231.017 285.949 231.214 285.244 231.202C282.008 231.179 278.772 231.179 275.536 231.237C274.727 231.248 274.623 230.971 274.623 230.266C274.669 227.537 274.634 224.798 274.623 222.058Z" fill="#455A64"/>
<path d="M274.276 259.237H272.138C270.786 259.237 269.711 258.162 269.711 256.809C269.711 255.503 270.786 254.381 272.138 254.381H275.12L276.518 246.266H273.802C272.508 246.266 271.387 245.144 271.387 243.838C271.387 242.532 272.508 241.41 273.802 241.41H277.362L278.287 235.861C278.483 234.636 279.512 233.85 280.714 233.85C282.251 233.85 283.337 235.248 283.141 236.705L282.309 241.41H289.625L290.561 235.861C290.758 234.636 291.786 233.85 293.034 233.85C294.525 233.85 295.646 235.248 295.415 236.705L294.618 241.41H296.768C298.062 241.41 299.183 242.485 299.183 243.838C299.183 245.144 298.062 246.266 296.768 246.266H293.786L292.387 254.381H295.045C296.398 254.381 297.473 255.457 297.473 256.809C297.473 258.116 296.398 259.237 295.045 259.237H291.543L290.561 264.971C290.376 266.15 289.347 266.983 288.134 266.983C286.597 266.983 285.476 265.595 285.707 264.139L286.597 259.237H279.269L278.287 264.971C278.102 266.011 277.212 266.983 275.825 266.983C274.322 266.983 273.201 265.734 273.444 264.139L274.276 259.237ZM287.394 254.381L288.793 246.266H281.511L280.113 254.381H287.394Z" fill="#263238"/>
<path d="M324.02 255.433L317.12 256.705L315.572 263.988L314.035 256.705L307.123 255.433L314 253.745L315.572 246.878L317.144 253.745L324.02 255.433Z" fill="#FFC727"/>
<path d="M158.515 176.104L151.615 177.387L150.066 184.659L148.529 177.387L141.617 176.104L148.494 174.428L150.066 167.549L151.638 174.428L158.515 176.104Z" fill="#FFC727"/>
<path d="M299.114 28.1272L292.214 29.4104L290.665 36.6821L289.117 29.4104L282.217 28.1272L289.094 26.4509L290.665 19.5723L292.237 26.4509L299.114 28.1272Z" fill="#FFC727"/>
<path d="M158.052 120.359L154.192 121.075L153.325 125.145L152.47 121.075L148.609 120.359L152.447 119.422L153.325 115.584L154.203 119.422L158.052 120.359Z" fill="#FFC727"/>
<path d="M181.665 246.405L177.805 247.122L176.95 251.191L176.083 247.122L172.223 246.405L176.071 245.468L176.95 241.619L177.828 245.468L181.665 246.405Z" fill="#FFC727"/>
<path d="M376.62 171.861L372.76 172.567L371.893 176.636L371.026 172.567L367.166 171.85L371.015 170.913L371.893 167.075L372.772 170.913L376.62 171.861Z" fill="#FFC727"/>
<path d="M333.476 242.092L329.615 242.809L328.749 246.878L327.893 242.809L324.021 242.092L327.87 241.156L328.749 237.306L329.627 241.156L333.476 242.092Z" fill="#FFC727"/>
<path d="M169.425 192.798L165.553 193.515L164.698 197.584L163.831 193.515L159.971 192.798L163.819 191.861L164.698 188.012L165.576 191.861L169.425 192.798Z" fill="#FFC727"/>
<path d="M277.929 15.2023L274.069 15.9191L273.202 19.9884L272.335 15.9191L268.475 15.2023L272.323 14.2659L273.202 10.4277L274.08 14.2659L277.929 15.2023Z" fill="#FFC727"/>
<path d="M181.526 58.9365L177.666 59.6533L176.799 63.7226L175.933 59.6533L172.072 58.9365L175.921 58.0001L176.799 54.1504L177.678 58.0001L181.526 58.9365Z" fill="#FFC727"/>
<path d="M338.492 257.399C337.047 257.399 337.047 259.642 338.492 259.642C339.936 259.642 339.936 257.399 338.492 257.399Z" fill="#FFC727"/>
<path d="M186.738 44.1504C185.293 44.1504 185.293 46.3932 186.738 46.3932C188.183 46.3932 188.183 44.1504 186.738 44.1504Z" fill="#FFC727"/>
<path d="M346.951 76.4507C345.506 76.4507 345.506 78.6935 346.951 78.6935C348.395 78.6819 348.395 76.4507 346.951 76.4507Z" fill="#FFC727"/>
<path d="M394.535 164.116C393.09 164.116 393.09 166.358 394.535 166.358C395.968 166.347 395.979 164.116 394.535 164.116Z" fill="#FFC727"/>
<path d="M194.158 248.439C192.713 248.439 192.713 250.682 194.158 250.682C195.602 250.671 195.602 248.439 194.158 248.439Z" fill="#FFC727"/>
<path d="M379.474 157.595C378.457 157.595 378.457 159.179 379.474 159.179C380.502 159.179 380.502 157.595 379.474 157.595Z" fill="#FFC727"/>
<path d="M189.269 263.688C188.252 263.688 188.252 265.272 189.269 265.272C190.286 265.272 190.286 263.688 189.269 263.688Z" fill="#FFC727"/>
<path d="M140.982 106.162C139.964 106.162 139.964 107.745 140.982 107.745C141.999 107.745 141.999 106.162 140.982 106.162Z" fill="#FFC727"/>
<path d="M346.951 64.416C344.188 64.416 344.188 68.705 346.951 68.705C349.713 68.7166 349.713 64.416 346.951 64.416Z" fill="#FFC727"/>
<path d="M132.533 123.018C129.77 123.018 129.77 127.307 132.533 127.307C135.295 127.307 135.295 123.018 132.533 123.018Z" fill="#FFC727"/>
<path d="M89.9646 295.954C98.6676 335.145 116.929 382.174 124.8 389.838C134.762 399.538 201.057 417.665 204.374 418.046C212.569 418.937 229.432 359.977 220.705 358.659C207.414 356.636 159.08 353.665 156.202 350.659C153.22 347.526 132.994 321.642 112.213 292.393C97.8932 272.197 84.5672 271.642 89.9646 295.954Z" fill="#EB9481"/>
<path d="M197.82 414.821C198.791 415.318 212.626 422.405 221.19 424.96C227.582 426.867 246.12 431.85 248.905 425.018C250.812 420.359 240.26 416.151 232.863 413.006C228.968 411.353 224.172 407.226 225.351 404.717C227.397 400.335 237.429 404.821 244.017 408.717C256.765 416.243 273.708 429.757 281.579 423.318C284.549 420.879 281.151 416.393 276.159 411.966C284.272 417.133 292.929 421.388 296.327 418.809C298.28 417.341 298.384 415.318 297.321 412.983C299.829 413.815 302.059 413.677 303.62 412.047C306.29 409.295 305.03 405.191 302.163 400.983C303.088 400.89 303.932 400.428 304.579 399.422C310.242 390.914 282.365 366.162 272.668 363.792C244.167 356.798 214.071 357.838 214.071 357.838C202.779 366.717 197.797 414.798 197.82 414.821Z" fill="#EB9481"/>
<path d="M239.995 388.821C246.71 389.919 253.31 392.486 258.985 396.289C266.185 401.122 270.947 406.752 276.98 412.428C277.142 412.578 276.911 412.833 276.749 412.682C273.871 409.989 261.955 399.827 258.869 397.515C253.217 393.284 246.895 390.289 239.949 388.937C239.891 388.925 239.926 388.81 239.995 388.821Z" fill="#263238"/>
<path d="M245.405 376.74C252.894 378.844 260.569 380.983 267.515 384.579C275.108 388.521 281.026 394.902 286.851 401.029C290.341 404.717 293.762 408.474 297.091 412.313C297.23 412.474 297.01 412.729 296.86 412.567C290.954 406.232 284.863 400.058 278.576 394.093C272.67 388.475 266.059 384.162 258.454 381.203C254.166 379.538 249.774 378.197 245.37 376.868C245.289 376.856 245.324 376.717 245.405 376.74Z" fill="#263238"/>
<path d="M253.494 366.208C260.776 367.758 267.133 369.087 273.559 373.041C282.065 378.278 290.26 387.052 293.126 390.162C296.304 393.596 299.355 397.133 302.36 400.729C302.488 400.879 302.233 401.087 302.106 400.948C295.241 393.099 287.844 385.642 280.019 378.752C276.286 375.457 272.218 372.578 267.641 370.578C263.122 368.59 258.268 367.445 253.483 366.266C253.46 366.243 253.46 366.197 253.494 366.208Z" fill="#263238"/>
<path d="M209.483 355.387L188.587 419.965C188.587 419.965 133.399 403.78 123.367 392.798C113.335 381.827 95.0967 325.387 89.8033 298.069C84.5098 270.74 98.2982 271.515 110.85 288.809C123.402 306.104 154.665 348.023 156.422 348.948C158.19 349.873 209.483 355.387 209.483 355.387Z" fill="#FFC727"/>
<path d="M95.1424 308.231C94.6801 308.173 94.3334 308.058 94.0097 307.85C93.3856 307.422 93.0158 306.751 93.0273 306.012C93.0273 304.879 92.2645 303.815 91.2359 303.457C91.1319 303.422 91.0278 303.387 90.9238 303.364C90.9932 303.734 91.0856 304.104 91.1665 304.486L91.1781 304.497C91.6288 304.879 91.9062 305.445 91.9062 306.035C91.8831 307.121 92.5997 308.254 93.6168 308.636C94.1022 308.855 94.6916 308.867 95.1424 308.786C95.5931 308.694 96.0439 308.636 96.5062 308.509C96.0439 308.381 95.5931 308.324 95.1424 308.231ZM194.562 365.607C194.1 365.549 193.764 365.434 193.441 365.225C192.805 364.798 192.447 364.139 192.458 363.387C192.447 362.254 191.684 361.191 190.655 360.832C190.17 360.624 189.569 360.647 189.141 360.728C188.691 360.821 188.228 360.879 187.777 361.006C188.228 361.133 188.691 361.191 189.141 361.283C189.627 361.329 189.962 361.434 190.297 361.63C190.933 362.023 191.337 362.705 191.337 363.41C191.314 364.497 192.019 365.63 193.036 366.012C193.533 366.231 194.123 366.243 194.562 366.162C195.024 366.069 195.475 366.012 195.937 365.884C195.475 365.757 195.024 365.699 194.562 365.607ZM105.452 347.075C104.99 347.029 104.654 346.913 104.331 346.694C103.695 346.277 103.337 345.607 103.348 344.867C103.337 343.815 102.69 342.809 101.765 342.393C102.274 343.977 102.794 345.561 103.325 347.133C103.51 347.283 103.707 347.399 103.926 347.48C104.423 347.699 105.013 347.711 105.452 347.63C105.914 347.538 106.365 347.48 106.827 347.353C106.365 347.225 105.914 347.168 105.452 347.075ZM168.21 407.919C167.759 407.861 167.413 407.746 167.089 407.538C166.465 407.11 166.095 406.439 166.107 405.699C166.107 404.566 165.344 403.503 164.315 403.145C163.818 402.936 163.217 402.96 162.79 403.04C162.339 403.133 161.888 403.191 161.426 403.318C161.888 403.445 162.339 403.503 162.79 403.595C163.275 403.642 163.61 403.734 163.945 403.942C164.581 404.324 164.986 405.017 164.986 405.723C164.963 406.809 165.668 407.931 166.696 408.324C167.182 408.543 167.771 408.555 168.21 408.474C168.673 408.37 169.123 408.324 169.586 408.197C169.123 408.069 168.673 408.012 168.21 407.919ZM143.303 370.775C142.841 370.728 142.506 370.613 142.171 370.393C141.547 369.977 141.177 369.306 141.2 368.566C141.188 367.434 140.426 366.358 139.397 366C138.911 365.803 138.299 365.815 137.883 365.908C137.421 366 136.97 366.046 136.507 366.173C136.97 366.301 137.421 366.358 137.883 366.451C138.368 366.509 138.692 366.601 139.027 366.798C139.674 367.191 140.079 367.873 140.067 368.578C140.056 369.665 140.761 370.798 141.778 371.179C142.263 371.399 142.853 371.41 143.303 371.329C143.754 371.237 144.216 371.179 144.667 371.052C144.216 370.925 143.754 370.867 143.303 370.775ZM137.663 342.092C137.293 342.393 136.981 342.566 136.611 342.659C135.883 342.832 135.109 342.636 134.612 342.127C133.861 341.353 132.555 341.052 131.561 341.503C131.064 341.688 130.636 342.104 130.382 342.474C130.128 342.867 129.85 343.225 129.607 343.642C130.024 343.41 130.382 343.121 130.775 342.867C131.145 342.578 131.468 342.416 131.838 342.335C132.589 342.197 133.318 342.405 133.826 342.948C134.635 343.734 135.93 343.954 136.912 343.48C137.397 343.283 137.813 342.832 138.056 342.474C138.31 342.092 138.599 341.734 138.831 341.318C138.414 341.549 138.056 341.838 137.663 342.092ZM192.747 391.977C192.655 391.526 192.597 391.064 192.47 390.613C192.343 391.064 192.297 391.526 192.192 391.977C192.146 392.462 192.054 392.798 191.846 393.133C191.464 393.769 190.771 394.173 190.066 394.173C188.979 394.15 187.858 394.855 187.465 395.873C187.246 396.37 187.234 396.96 187.315 397.399C187.419 397.861 187.465 398.312 187.593 398.775C187.72 398.312 187.777 397.861 187.87 397.399C187.928 396.936 188.043 396.601 188.251 396.277C188.679 395.642 189.349 395.283 190.089 395.295C191.222 395.283 192.285 394.52 192.643 393.491C192.851 393.006 192.828 392.405 192.747 391.977ZM160.732 349.723C160.478 349.965 160.282 350.254 160.166 350.566C159.946 351.052 159.935 351.642 160.016 352.092C160.108 352.555 160.166 353.006 160.293 353.457C160.42 353.006 160.478 352.555 160.571 352.092C160.628 351.63 160.744 351.295 160.952 350.971C161.345 350.358 161.992 350 162.709 349.988C162.004 349.896 161.333 349.803 160.732 349.723ZM121.124 318.913C121.032 318.451 120.985 318 120.858 317.538C120.731 318 120.673 318.451 120.581 318.913C120.523 319.399 120.431 319.723 120.234 320.058C119.841 320.705 119.159 321.11 118.454 321.098C117.356 321.087 116.235 321.792 115.842 322.809C115.623 323.295 115.611 323.884 115.704 324.335C115.796 324.786 115.854 325.249 115.981 325.699C116.108 325.249 116.166 324.786 116.258 324.335C116.305 323.873 116.42 323.526 116.628 323.202C117.056 322.578 117.726 322.208 118.466 322.231C119.599 322.22 120.673 321.457 121.032 320.428C121.228 319.942 121.217 319.329 121.124 318.913ZM113.323 292.185H113.311C112.837 292.139 112.352 292.22 111.924 292.428C111.439 292.624 111.023 293.064 110.78 293.422C110.526 293.815 110.248 294.173 110.017 294.59C110.422 294.358 110.78 294.069 111.173 293.815C111.554 293.514 111.855 293.341 112.236 293.249C112.964 293.064 113.739 293.272 114.224 293.769C114.398 293.942 114.582 294.081 114.791 294.197C114.282 293.503 113.785 292.832 113.323 292.185ZM115.345 370.671C114.975 370.96 114.652 371.11 114.282 371.191C113.531 371.341 112.803 371.121 112.294 370.59C112.109 370.405 111.913 370.254 111.681 370.139C111.924 370.775 112.178 371.399 112.444 372.023C113.126 372.301 113.912 372.324 114.559 372.035C115.056 371.838 115.484 371.434 115.738 371.052C115.993 370.671 116.27 370.312 116.513 369.896C116.097 370.127 115.738 370.405 115.345 370.671ZM173.7 377.503C173.33 377.792 173.007 377.942 172.625 378.023C171.886 378.173 171.157 377.954 170.637 377.422C169.828 376.624 168.545 376.405 167.563 376.879C167.066 377.087 166.662 377.526 166.419 377.884C166.153 378.277 165.876 378.636 165.644 379.052C166.061 378.821 166.419 378.532 166.8 378.277C167.182 377.977 167.482 377.803 167.864 377.711C168.592 377.526 169.366 377.734 169.851 378.231C170.614 379.017 171.909 379.318 172.903 378.867C173.4 378.671 173.827 378.266 174.082 377.896C174.347 377.503 174.625 377.145 174.856 376.728C174.44 376.96 174.082 377.249 173.7 377.503ZM148.643 391.052C148.285 391.341 147.961 391.503 147.58 391.584C146.84 391.723 146.1 391.514 145.592 390.971C144.783 390.185 143.488 389.965 142.506 390.439C142.02 390.636 141.604 391.075 141.362 391.434C141.107 391.827 140.818 392.185 140.587 392.601C141.003 392.37 141.362 392.081 141.755 391.827C142.136 391.526 142.437 391.353 142.806 391.26C143.546 391.087 144.309 391.283 144.806 391.78C145.557 392.566 146.863 392.867 147.857 392.416C148.354 392.231 148.782 391.815 149.036 391.445C149.29 391.052 149.579 390.694 149.81 390.277C149.394 390.509 149.036 390.798 148.643 391.052Z" fill="white"/>
<path d="M182.518 390.393C184.888 383.179 187.303 375.989 189.407 368.694C190.597 364.544 191.811 360.405 192.967 356.243C193.013 356.081 192.747 355.989 192.689 356.139C190.031 363.284 187.373 370.451 185.038 377.711C182.715 384.937 180.334 392.151 178.103 399.411C176.832 403.538 175.699 407.688 174.682 411.896C174.659 411.977 174.798 412.035 174.833 411.954C177.734 404.89 180.138 397.653 182.518 390.393Z" fill="#263238"/>
<path d="M160.769 410.867C159.948 410.578 159.139 410.277 158.318 409.988C153.718 408.312 149.037 406.509 144.622 404.67C144.056 404.439 143.49 404.208 142.947 403.965C142.057 403.595 141.178 403.202 140.323 402.821C139.884 402.636 139.468 402.439 139.04 402.254C138.89 402.185 138.74 402.115 138.578 402.046C138.127 401.838 137.688 401.63 137.26 401.422C135.503 400.601 133.851 399.78 132.302 398.959C131.944 398.774 131.574 398.578 131.239 398.381C128.419 396.832 126.084 395.295 124.443 393.85C124.246 393.676 124.061 393.503 123.888 393.329C123.691 393.156 123.53 392.983 123.379 392.809C113.347 381.838 95.0976 325.41 89.8158 298.081C89.758 297.769 89.7002 297.445 89.6424 297.144C89.6308 297.075 89.6193 297.006 89.6077 296.936C89.2494 294.855 88.9489 292.289 88.7062 289.514V289.48C88.0359 275.896 94.4735 273.722 102.367 279.746C121.923 322.381 151.719 392.786 160.769 410.867Z" fill="#263238"/>
<path d="M135.896 428.232L0 428C0.323616 425.318 38.6374 298.347 64.6769 276.694C75.7723 267.469 96.1833 274.232 98.7838 276.359C123.968 296.937 137.791 426.659 135.896 428.232Z" fill="#FFC727"/>
<path d="M36.9625 327.63C36.5927 327.919 36.2806 328.081 35.8992 328.162C35.6103 328.22 35.3213 328.22 35.044 328.162C34.9053 328.486 34.7666 328.809 34.6279 329.145C35.148 329.249 35.7027 329.214 36.1766 328.994C36.6736 328.809 37.1012 328.405 37.3555 328.023C37.6098 327.63 37.8987 327.272 38.1299 326.856C37.7138 327.098 37.3555 327.376 36.9625 327.63ZM41.0886 412.382C40.7188 412.671 40.3952 412.821 40.0253 412.902C39.2741 413.052 38.5459 412.833 38.0374 412.301C37.2284 411.503 35.9339 411.283 34.9515 411.757C34.4661 411.965 34.05 412.405 33.8073 412.763C33.553 413.156 33.2641 413.515 33.0329 413.931C33.449 413.7 33.8073 413.411 34.2002 413.156C34.5701 412.856 34.8821 412.682 35.252 412.59C35.9801 412.405 36.7545 412.613 37.2515 413.11C38.0027 413.896 39.3087 414.197 40.3027 413.746C40.7997 413.549 41.2273 413.145 41.4816 412.775C41.7359 412.382 42.0133 412.023 42.256 411.607C41.8399 411.838 41.4816 412.127 41.0886 412.382ZM92.636 406.52C92.2662 406.809 91.9426 406.971 91.5727 407.052C90.8215 407.202 90.0933 406.983 89.5732 406.451C88.7757 405.653 87.4813 405.434 86.4989 405.908C86.0019 406.116 85.5974 406.555 85.3547 406.913C85.1004 407.307 84.8115 407.665 84.5803 408.07C84.9964 407.838 85.3547 407.561 85.7361 407.307C86.1175 406.994 86.418 406.833 86.7994 406.728C87.5275 406.555 88.3019 406.752 88.7989 407.26C89.5501 408.046 90.8446 408.335 91.8385 407.896C92.3471 407.7 92.7632 407.295 93.029 406.913C93.2833 406.532 93.5606 406.162 93.7918 405.757C93.3873 405.989 93.0174 406.266 92.636 406.52ZM115.347 370.671C114.977 370.96 114.653 371.11 114.284 371.191C113.532 371.341 112.804 371.122 112.296 370.59C111.487 369.792 110.192 369.572 109.21 370.046C108.724 370.254 108.308 370.694 108.066 371.052C107.811 371.445 107.522 371.804 107.291 372.22C107.707 371.977 108.066 371.7 108.459 371.445C108.828 371.133 109.14 370.971 109.51 370.879C110.238 370.694 111.013 370.89 111.51 371.399C112.261 372.185 113.567 372.474 114.561 372.035C115.058 371.838 115.486 371.434 115.74 371.052C115.994 370.671 116.272 370.312 116.514 369.896C116.098 370.127 115.74 370.405 115.347 370.671ZM66.9664 426.913C66.6081 427.202 66.2845 427.364 65.903 427.445C65.1634 427.584 64.4237 427.376 63.9151 426.832C63.1061 426.046 61.8116 425.827 60.8292 426.301C60.3438 426.497 59.9277 426.937 59.685 427.295C59.5116 427.572 59.3151 427.827 59.1418 428.104H59.4538C59.6619 427.977 59.8699 427.827 60.078 427.688C60.4594 427.387 60.7599 427.214 61.1413 427.122C61.8694 426.948 62.6322 427.145 63.1292 427.642C63.3141 427.827 63.5222 427.989 63.7533 428.116H66.504C66.8623 427.908 67.1628 427.596 67.3593 427.306C67.6136 426.913 67.9025 426.555 68.1337 426.139C67.7176 426.37 67.3593 426.659 66.9664 426.913ZM56.1599 375.734C55.8016 376.023 55.478 376.174 55.0966 376.254C54.3569 376.405 53.6172 376.185 53.1087 375.653C52.2996 374.856 51.0051 374.636 50.0227 375.11C49.5373 375.318 49.1212 375.757 48.8785 376.116C48.6243 376.509 48.3353 376.867 48.1042 377.283C48.5202 377.041 48.8785 376.763 49.2715 376.509C49.6529 376.197 49.9534 376.035 50.3348 375.942C51.0629 375.757 51.8258 375.965 52.3227 376.463C53.074 377.249 54.38 377.538 55.374 377.098C55.871 376.902 56.2986 376.497 56.5529 376.116C56.8071 375.734 57.0961 375.376 57.3272 374.96C56.9111 375.191 56.5529 375.468 56.1599 375.734ZM85.7707 327.63C85.4009 327.919 85.0773 328.081 84.7074 328.162C83.9562 328.312 83.2281 328.093 82.7195 327.549C81.9105 326.763 80.616 326.543 79.6336 327.017C79.1482 327.214 78.7321 327.665 78.4894 328.023C78.2351 328.405 77.9462 328.775 77.715 329.179C78.1311 328.948 78.4894 328.671 78.8824 328.405C79.2522 328.104 79.5527 327.942 79.9341 327.838C80.6622 327.665 81.4366 327.861 81.9336 328.37C82.6848 329.145 83.9909 329.445 84.9848 328.994C85.4818 328.809 85.9094 328.405 86.1637 328.023C86.418 327.63 86.6954 327.272 86.9265 326.856C86.522 327.098 86.1522 327.376 85.7707 327.63ZM110.238 294.243C110.158 294.359 110.088 294.474 110.019 294.59C110.123 294.532 110.215 294.474 110.308 294.405C110.285 294.347 110.262 294.301 110.238 294.243ZM10.5647 396.37C10.4723 395.919 10.4145 395.457 10.2873 395.006C10.1602 395.457 10.1024 395.919 10.01 396.37C9.96372 396.856 9.87126 397.179 9.66322 397.526C9.5592 397.7 9.42051 397.861 9.27026 398.012L9.2587 398.023C9.09689 398.532 8.93508 399.041 8.76172 399.538C9.53609 399.26 10.1949 398.648 10.4607 397.885C10.6687 397.399 10.6456 396.798 10.5647 396.37ZM62.6553 400.127C62.5629 399.665 62.5166 399.214 62.3895 398.752C62.2624 399.214 62.2046 399.665 62.1121 400.127C62.0543 400.601 61.9619 400.937 61.7654 401.272C61.3724 401.919 60.6905 402.324 59.9855 402.312C58.8875 402.301 57.7664 403.006 57.3735 404.023C57.1539 404.509 57.1423 405.098 57.2348 405.549C57.3272 406 57.385 406.463 57.5121 406.913C57.6393 406.463 57.6971 406 57.7895 405.549C57.8358 405.087 57.9513 404.74 58.1594 404.416C58.587 403.792 59.2574 403.422 59.9971 403.445C61.1297 403.434 62.2046 402.671 62.5629 401.642C62.7593 401.156 62.7478 400.543 62.6553 400.127ZM119.103 320.994C118.895 321.064 118.676 321.098 118.456 321.098C117.358 321.087 116.237 321.792 115.844 322.809C115.624 323.295 115.613 323.885 115.705 324.335C115.798 324.786 115.855 325.249 115.983 325.7C116.11 325.249 116.168 324.786 116.26 324.335C116.306 323.873 116.422 323.526 116.63 323.202C117.057 322.578 117.728 322.208 118.468 322.231C118.78 322.231 119.092 322.162 119.381 322.058C119.288 321.7 119.196 321.353 119.103 320.994ZM57.8704 309.191C57.778 308.728 57.7202 308.278 57.593 307.827C57.4659 308.278 57.4081 308.728 57.3157 309.191C57.2579 309.676 57.1654 310 56.9689 310.335C56.576 310.983 55.8941 311.387 55.189 311.376C54.1026 311.364 52.97 312.07 52.5886 313.087C52.369 313.572 52.3574 314.162 52.4383 314.613C52.5308 315.064 52.5886 315.526 52.7157 315.977C52.8428 315.526 52.9006 315.064 52.9931 314.613C53.0509 314.15 53.1664 313.815 53.3745 313.48C53.7906 312.856 54.4609 312.486 55.2122 312.509C56.3448 312.497 57.4081 311.734 57.7664 310.705C57.9745 310.22 57.9513 309.607 57.8704 309.191ZM36.2344 355.607C36.1419 355.156 36.0841 354.694 35.957 354.243C35.8299 354.694 35.7721 355.156 35.6796 355.607C35.6218 356.093 35.5294 356.428 35.3329 356.763C34.9399 357.399 34.258 357.804 33.553 357.792C32.4666 357.78 31.3339 358.486 30.9525 359.503C30.7329 359.989 30.7214 360.578 30.8023 361.029C30.8947 361.491 30.9525 361.942 31.0797 362.393C31.2068 361.942 31.2646 361.491 31.357 361.029C31.4148 360.567 31.5304 360.231 31.7384 359.908C32.1545 359.272 32.8249 358.913 33.5761 358.925C34.6972 358.913 35.7721 358.15 36.1304 357.122C36.3384 356.636 36.3153 356.035 36.2344 355.607ZM135.238 414.347C134.937 414.509 134.602 414.601 134.255 414.601C133.169 414.59 132.036 415.295 131.655 416.312C131.435 416.798 131.424 417.387 131.505 417.838C131.597 418.289 131.655 418.752 131.782 419.202C131.909 418.752 131.967 418.289 132.059 417.838C132.117 417.376 132.233 417.029 132.441 416.705C132.868 416.081 133.539 415.711 134.278 415.734C134.648 415.734 135.007 415.642 135.342 415.503C135.307 415.122 135.272 414.74 135.238 414.347ZM80.4311 352.74C80.3386 352.278 80.2808 351.827 80.1537 351.376C80.0266 351.827 79.9688 352.278 79.8763 352.74C79.8301 353.226 79.7261 353.549 79.5296 353.885C79.1366 354.532 78.4547 354.937 77.7497 354.925C76.6633 354.913 75.5306 355.619 75.1492 356.636C74.9296 357.122 74.9181 357.711 74.999 358.162C75.0914 358.613 75.1492 359.075 75.2763 359.526C75.4035 359.075 75.4613 358.613 75.5537 358.162C75.6115 357.7 75.7271 357.364 75.9351 357.029C76.3628 356.405 77.0331 356.035 77.7728 356.058C78.9055 356.046 79.9688 355.283 80.3271 354.254C80.5351 353.769 80.512 353.156 80.4311 352.74ZM90.5788 273.295C90.5325 273.434 90.4632 273.561 90.3938 273.688C90.0009 274.324 89.319 274.74 88.6139 274.728C87.5275 274.705 86.3949 275.422 86.0135 276.439C85.7939 276.925 85.7823 277.515 85.8632 277.965C85.9557 278.416 86.0135 278.879 86.1406 279.33C86.2677 278.879 86.3255 278.416 86.418 277.965C86.4758 277.503 86.5913 277.156 86.7994 276.833C87.2155 276.208 87.8858 275.838 88.6371 275.861C89.7697 275.85 90.833 275.087 91.1913 274.058C91.2722 273.873 91.3069 273.676 91.33 273.48C91.0873 273.422 90.833 273.353 90.5788 273.295ZM70.4452 289.653C70.0638 289.965 69.7633 290.127 69.3819 290.231C68.6538 290.405 67.8794 290.208 67.394 289.7C66.6312 288.913 65.3367 288.624 64.3427 289.064C63.8458 289.26 63.4181 289.665 63.1639 290.046C62.9096 290.428 62.6207 290.798 62.3895 291.202C62.8056 290.971 63.1639 290.694 63.5568 290.439C63.9151 290.15 64.2387 289.989 64.6201 289.908C65.3598 289.757 66.088 289.977 66.6081 290.509C67.4171 291.306 68.7116 291.526 69.694 291.052C70.1794 290.844 70.5955 290.405 70.8382 290.046C71.0925 289.653 71.3698 289.295 71.601 288.89C71.1965 289.122 70.8382 289.399 70.4452 289.653ZM105.454 347.075C104.991 347.029 104.656 346.913 104.332 346.694C103.697 346.278 103.338 345.607 103.35 344.867C103.338 343.734 102.587 342.659 101.547 342.301C101.062 342.104 100.461 342.116 100.033 342.208C99.5822 342.301 99.1199 342.347 98.6692 342.474C99.1199 342.601 99.5822 342.659 100.033 342.752C100.518 342.809 100.854 342.902 101.189 343.098C101.824 343.491 102.229 344.174 102.229 344.879C102.206 345.977 102.911 347.098 103.928 347.48C104.425 347.7 105.014 347.711 105.454 347.63C105.916 347.538 106.367 347.48 106.829 347.353C106.367 347.226 105.916 347.168 105.454 347.075ZM33.7957 392.324C33.3334 392.266 32.9867 392.15 32.6631 391.942C32.0389 391.526 31.6691 390.856 31.6807 390.104C31.6807 388.971 30.9179 387.908 29.8892 387.549C29.3922 387.341 28.7912 387.364 28.3636 387.445C27.9128 387.538 27.4621 387.596 26.9998 387.723C27.4621 387.85 27.9128 387.908 28.3636 388C28.849 388.046 29.1842 388.15 29.5194 388.347C30.155 388.74 30.5596 389.422 30.5596 390.127C30.5364 391.214 31.2415 392.347 32.2701 392.728C32.7555 392.948 33.345 392.96 33.7957 392.879C34.2465 392.786 34.6972 392.728 35.1595 392.601C34.6972 392.474 34.2465 392.416 33.7957 392.324ZM82.8698 384.254C82.4074 384.197 82.0607 384.081 81.7371 383.873C81.113 383.445 80.7431 382.775 80.7663 382.035C80.7547 380.902 79.9919 379.827 78.9633 379.48C78.4663 379.272 77.8653 379.295 77.4492 379.376C76.9869 379.468 76.5361 379.526 76.0738 379.653C76.5361 379.78 76.9869 379.827 77.4492 379.919C77.9231 379.977 78.2582 380.07 78.5934 380.278C79.2291 380.659 79.6452 381.353 79.6336 382.058C79.6105 383.145 80.3271 384.266 81.3441 384.659C81.8296 384.879 82.419 384.89 82.8698 384.798C83.3205 384.705 83.7828 384.659 84.2336 384.532C83.7828 384.393 83.3205 384.347 82.8698 384.254ZM17.4184 426.474C16.9561 426.416 16.6094 426.301 16.2858 426.093C15.6617 425.676 15.2918 425.006 15.3034 424.254C15.3034 423.122 14.5406 422.058 13.5119 421.7C13.015 421.491 12.414 421.515 11.9863 421.596C11.5356 421.688 11.0848 421.746 10.6225 421.873C11.0848 422 11.5356 422.058 11.9863 422.15C12.4717 422.197 12.8069 422.301 13.1421 422.497C13.7778 422.89 14.1823 423.572 14.1823 424.278C14.1592 425.364 14.8642 426.497 15.8928 426.879C16.3783 427.098 16.9677 427.11 17.4184 427.029C17.8692 426.937 18.3199 426.879 18.7823 426.752C18.3199 426.624 17.8692 426.567 17.4184 426.474ZM107.291 426.463C107.28 425.33 106.517 424.266 105.488 423.908C105.003 423.7 104.402 423.723 103.974 423.804C103.512 423.896 103.061 423.954 102.61 424.081C103.061 424.208 103.512 424.266 103.974 424.359C104.46 424.416 104.783 424.509 105.118 424.705C105.766 425.098 106.17 425.78 106.159 426.486C106.147 427.087 106.367 427.688 106.725 428.185H108.123C107.58 427.769 107.268 427.156 107.291 426.463ZM55.5127 345.989C55.0504 345.942 54.7152 345.815 54.3916 345.607C53.7559 345.191 53.3976 344.52 53.4092 343.769C53.3976 342.648 52.6348 341.572 51.6062 341.214C51.1207 341.006 50.5197 341.029 50.0921 341.11C49.6413 341.202 49.179 341.26 48.7283 341.387C49.179 341.515 49.6413 341.572 50.0921 341.665C50.5775 341.723 50.9127 341.815 51.2479 342.012C51.8835 342.405 52.2881 343.087 52.2765 343.792C52.2649 344.879 52.97 346.012 53.987 346.393C54.4725 346.613 55.0735 346.624 55.5127 346.543C55.975 346.451 56.4257 346.393 56.8765 346.266C56.4257 346.139 55.975 346.081 55.5127 345.989ZM116.514 398.474C116.052 398.428 115.717 398.312 115.382 398.104C114.757 397.676 114.388 397.006 114.411 396.266C114.399 395.133 113.636 394.058 112.608 393.7C112.122 393.503 111.521 393.526 111.094 393.607C110.631 393.7 110.181 393.746 109.73 393.873C110.181 394.012 110.631 394.058 111.094 394.15C111.579 394.208 111.903 394.301 112.238 394.497C112.885 394.89 113.29 395.584 113.278 396.278C113.267 397.376 113.972 398.497 114.989 398.89C115.474 399.11 116.064 399.122 116.514 399.029C116.965 398.937 117.427 398.879 117.878 398.752C117.427 398.624 116.965 398.578 116.514 398.474ZM95.1441 308.231C94.6817 308.174 94.335 308.058 94.0114 307.85C93.3873 307.422 93.0174 306.752 93.029 306.012C93.029 304.879 92.2662 303.815 91.2375 303.457C90.7406 303.249 90.1396 303.272 89.7119 303.353C89.2612 303.445 88.8104 303.503 88.3481 303.63C88.8104 303.757 89.2612 303.815 89.7119 303.908C90.1974 303.954 90.5325 304.046 90.8677 304.254C91.5034 304.636 91.9079 305.33 91.9079 306.035C91.8848 307.122 92.6014 308.254 93.6184 308.636C94.1039 308.856 94.6933 308.867 95.1441 308.786C95.5948 308.694 96.0456 308.636 96.5079 308.509C96.0456 308.382 95.5948 308.324 95.1441 308.231Z" fill="white"/>
<path d="M130.429 248.127C130.429 248.127 124.616 237.191 117.484 241.769C110.353 246.347 117.854 256.197 117.854 256.197L130.429 248.127Z" fill="#DD6A57"/>
<path d="M164.581 329.128L177.162 321.062L130.17 247.724L117.588 255.79L164.581 329.128Z" fill="#FFC727"/>
<path d="M118.159 258.99L132.842 249.576L130.971 246.656L116.288 256.07L118.159 258.99Z" fill="#37474F"/>
<path d="M120.229 262.204L134.912 252.791L133.041 249.871L118.358 259.284L120.229 262.204Z" fill="#37474F"/>
<path d="M164.57 329.122L175.099 335.145L178.567 337.145L178.232 333.145L177.168 321.052L174.73 320.046C174.73 320.046 174.66 322.624 174.66 322.671L172.222 321.665C172.222 321.665 172.152 324.243 172.152 324.289L169.737 323.26C169.737 323.26 169.644 325.861 169.633 325.908L167.217 324.879C167.217 324.879 167.125 327.48 167.113 327.526L164.697 326.497C164.674 326.474 164.582 329.075 164.57 329.122Z" fill="#EBEBEB"/>
<path d="M175.111 335.145L178.579 337.133L178.232 333.133L175.111 335.145Z" fill="#37474F"/>
<path d="M48.9121 301.388C35.8288 331.942 15.7531 396 29.9691 416.428C43.6649 436.104 123.702 393.191 139.929 384.405C146.586 380.798 129.643 323.838 122.096 326.786C105.533 333.272 71.6577 355.885 70.7678 355.457C69.9818 355.075 71.4035 329.064 71.9004 303.468C72.6401 266.208 58.3201 279.434 48.9121 301.388Z" fill="#EB9481"/>
<path d="M169.552 291.63C174.985 296.301 170.073 301.839 170.073 301.839C170.073 301.839 175.077 301.596 178.683 304.787C182.821 308.44 178.903 316.521 178.903 316.521C178.903 316.521 184.023 317.33 187.49 321.076C191.096 324.972 188.311 333.688 188.311 333.688C188.311 333.688 192.668 337.052 193.338 342.451C194.494 351.677 183.549 360.717 176.545 366.417C166.143 374.879 144.518 382.047 139.93 384.417L102.529 340.174C102.529 340.174 126.65 305.989 135.411 299.815C144.368 293.515 164.213 287.029 169.552 291.63Z" fill="#EB9481"/>
<path d="M169.171 301.388C159.786 304.463 151.834 310.151 143.559 315.365C143.374 315.48 143.559 315.769 143.744 315.654C151.904 310.371 161.011 306.764 169.367 301.816C169.599 301.677 169.425 301.307 169.171 301.388Z" fill="#263238"/>
<path d="M178.279 316.058C176.175 316.821 174.337 318.267 172.523 319.55C170.57 320.926 168.651 322.324 166.744 323.769C162.93 326.648 159.185 329.608 155.521 332.683C155.36 332.821 155.533 333.099 155.706 332.972C159.509 330.116 163.358 327.307 167.276 324.613C169.24 323.261 171.217 321.931 173.193 320.613C175.042 319.388 177.088 318.243 178.625 316.625C178.857 316.371 178.602 315.943 178.279 316.058Z" fill="#263238"/>
<path d="M188.15 333.804C186.3 334.394 184.636 336.035 183.134 337.215C181.423 338.556 179.712 339.897 177.979 341.226C174.535 343.885 171.079 346.533 167.542 349.064C167.369 349.191 167.542 349.48 167.727 349.353C171.333 346.798 174.974 344.29 178.568 341.712C180.325 340.44 182.082 339.157 183.827 337.874C185.318 336.775 187.294 335.573 188.288 333.978C188.346 333.874 188.254 333.769 188.15 333.804Z" fill="#263238"/>
<path d="M102.228 334.52L132 393.549C132 393.549 63.1974 425.33 39.1458 421.815C15.0942 418.312 26.8137 372.393 28.4086 362.035C29.5529 354.636 42.7171 309.942 52.7954 291.838C62.8737 273.723 71.5883 273.515 72.64 298.359C73.7033 323.203 71.3109 353.353 72.3164 352.914C73.3335 352.474 102.228 334.52 102.228 334.52Z" fill="#FFC727"/>
<path d="M116.513 398.474C116.05 398.428 115.715 398.313 115.38 398.104C114.756 397.677 114.386 397.006 114.409 396.266C114.397 395.133 113.635 394.058 112.606 393.7C112.121 393.503 111.52 393.526 111.092 393.607C110.63 393.7 110.179 393.746 109.728 393.873C110.179 394.012 110.63 394.058 111.092 394.151C111.577 394.208 111.901 394.301 112.236 394.498C112.883 394.891 113.288 395.584 113.276 396.278C113.265 397.376 113.97 398.498 114.987 398.891C115.472 399.11 116.062 399.122 116.513 399.029C116.963 398.937 117.426 398.879 117.876 398.752C117.426 398.625 116.963 398.578 116.513 398.474ZM55.5109 345.989C55.0486 345.943 54.7134 345.815 54.3898 345.607C53.7542 345.191 53.3959 344.521 53.4074 343.769C53.3959 342.648 52.6331 341.573 51.6044 341.214C51.119 341.006 50.518 341.029 50.0904 341.11C49.6396 341.203 49.1773 341.261 48.7265 341.388C49.1773 341.515 49.6396 341.573 50.0904 341.665C50.5758 341.723 50.911 341.815 51.2461 342.012C51.8818 342.405 52.2863 343.087 52.2748 343.792C52.2632 344.879 52.9682 346.012 53.9853 346.393C54.4707 346.613 55.0717 346.625 55.5109 346.544C55.9732 346.451 56.424 346.393 56.8747 346.266C56.424 346.139 55.9732 346.081 55.5109 345.989ZM82.868 384.255C82.4057 384.197 82.059 384.081 81.7354 383.873C81.1113 383.445 80.7414 382.775 80.7645 382.035C80.753 380.902 79.9902 379.827 78.9615 379.48C78.4645 379.272 77.8635 379.295 77.4475 379.376C76.9851 379.469 76.5344 379.526 76.0721 379.654C76.5344 379.781 76.9851 379.827 77.4475 379.919C77.9213 379.977 78.2565 380.07 78.5917 380.278C79.2273 380.659 79.6434 381.353 79.6319 382.058C79.6087 383.145 80.3253 384.266 81.3424 384.659C81.8278 384.879 82.4173 384.891 82.868 384.798C83.3188 384.706 83.7811 384.659 84.2318 384.532C83.7811 384.393 83.3188 384.347 82.868 384.255ZM33.794 392.324C33.3317 392.266 32.9849 392.151 32.6613 391.943C32.0372 391.526 31.6674 390.856 31.6789 390.104C31.6789 388.972 30.9161 387.908 29.8875 387.55C29.3905 387.341 28.7895 387.365 28.3619 387.446C27.9111 387.538 27.4604 387.596 26.998 387.723C27.4604 387.85 27.9111 387.908 28.3619 388C28.8473 388.047 29.1825 388.151 29.5176 388.347C30.1533 388.74 30.5578 389.422 30.5578 390.128C30.5347 391.214 31.2397 392.347 32.2684 392.729C32.7538 392.948 33.3432 392.96 33.794 392.879C34.2447 392.787 34.6955 392.729 35.1578 392.602C34.6955 392.474 34.2447 392.417 33.794 392.324ZM105.452 347.076C104.989 347.029 104.654 346.914 104.331 346.694C103.695 346.278 103.337 345.607 103.348 344.867C103.337 343.735 102.585 342.659 101.545 342.301C101.06 342.104 100.459 342.116 100.031 342.209C99.5805 342.301 99.1182 342.347 98.6674 342.474C99.1182 342.602 99.5805 342.659 100.031 342.752C100.517 342.81 100.852 342.902 101.187 343.099C101.823 343.492 102.227 344.174 102.227 344.879C102.204 345.977 102.909 347.099 103.926 347.48C104.423 347.7 105.013 347.711 105.452 347.63C105.914 347.538 106.365 347.48 106.827 347.353C106.365 347.226 105.914 347.168 105.452 347.076ZM70.4435 289.654C70.0621 289.966 69.7616 290.128 69.3802 290.232C68.652 290.405 67.8777 290.208 67.3923 289.7C66.6294 288.914 65.335 288.625 64.341 289.064C63.844 289.261 63.4164 289.665 63.1621 290.047C62.9079 290.428 62.6189 290.798 62.3878 291.203C62.8038 290.971 63.1621 290.694 63.5551 290.44C63.9134 290.151 64.237 289.989 64.6184 289.908C65.3581 289.758 66.0862 289.977 66.6063 290.509C67.4154 291.307 68.7098 291.526 69.6922 291.052C70.1777 290.844 70.5937 290.405 70.8364 290.047C71.0907 289.654 71.3681 289.295 71.5993 288.891C71.1947 289.122 70.8364 289.399 70.4435 289.654ZM80.4293 352.74C80.3369 352.278 80.2791 351.827 80.152 351.376C80.0248 351.827 79.967 352.278 79.8746 352.74C79.8283 353.226 79.7243 353.55 79.5278 353.885C79.1349 354.532 78.453 354.937 77.748 354.925C76.6615 354.914 75.5289 355.619 75.1475 356.636C74.9279 357.122 74.9163 357.711 74.9972 358.162C75.0897 358.613 75.1475 359.076 75.2746 359.526C75.4017 359.076 75.4595 358.613 75.552 358.162C75.6098 357.7 75.7254 357.365 75.9334 357.029C76.361 356.405 77.0314 356.035 77.7711 356.058C78.9037 356.047 79.967 355.284 80.3253 354.255C80.5334 353.769 80.5102 353.156 80.4293 352.74ZM36.2327 355.607C36.1402 355.156 36.0824 354.694 35.9553 354.243C35.8281 354.694 35.7704 355.156 35.6779 355.607C35.6201 356.093 35.5276 356.428 35.3312 356.763C34.9382 357.399 34.2563 357.804 33.5513 357.792C32.4648 357.781 31.3322 358.486 30.9508 359.503C30.7312 359.989 30.7196 360.578 30.8005 361.029C30.893 361.492 30.9508 361.943 31.0779 362.393C31.2051 361.943 31.2628 361.492 31.3553 361.029C31.4131 360.567 31.5287 360.232 31.7367 359.908C32.1528 359.272 32.8231 358.914 33.5744 358.925C34.6955 358.914 35.7703 358.151 36.1286 357.122C36.3367 356.636 36.3136 356.035 36.2327 355.607ZM57.8687 309.191C57.7762 308.729 57.7184 308.278 57.5913 307.827C57.4642 308.278 57.4064 308.729 57.3139 309.191C57.2561 309.677 57.1637 310 56.9672 310.336C56.5742 310.983 55.8923 311.388 55.1873 311.376C54.1009 311.365 52.9682 312.07 52.5868 313.087C52.3672 313.573 52.3557 314.162 52.4366 314.613C52.529 315.064 52.5868 315.526 52.714 315.977C52.8411 315.526 52.8989 315.064 52.9913 314.613C53.0491 314.151 53.1647 313.815 53.3727 313.48C53.7888 312.856 54.4592 312.486 55.2104 312.509C56.3431 312.498 57.4064 311.735 57.7647 310.706C57.9727 310.22 57.9496 309.607 57.8687 309.191ZM62.6536 400.128C62.5611 399.665 62.5149 399.214 62.3878 398.752C62.2606 399.214 62.2028 399.665 62.1104 400.128C62.0526 400.602 61.9601 400.937 61.7636 401.272C61.3707 401.919 60.6888 402.324 59.9838 402.313C58.8858 402.301 57.7647 403.006 57.3717 404.024C57.1521 404.509 57.1406 405.099 57.233 405.55C57.3255 406 57.3833 406.463 57.5104 406.914C57.6375 406.463 57.6953 406 57.7878 405.55C57.834 405.087 57.9496 404.74 58.1576 404.417C58.5853 403.792 59.2556 403.422 59.9953 403.446C61.128 403.434 62.2028 402.671 62.5611 401.642C62.7576 401.156 62.746 400.544 62.6536 400.128ZM56.1582 375.735C55.7999 376.024 55.4762 376.174 55.0948 376.255C54.3551 376.405 53.6155 376.185 53.1069 375.654C52.2979 374.856 51.0034 374.636 50.021 375.11C49.5356 375.318 49.1195 375.758 48.8768 376.116C48.6225 376.509 48.3336 376.867 48.1024 377.284C48.5185 377.041 48.8768 376.763 49.2698 376.509C49.6512 376.197 49.9517 376.035 50.3331 375.943C51.0612 375.758 51.824 375.966 52.321 376.463C53.0722 377.249 54.3783 377.538 55.3722 377.099C55.8692 376.902 56.2968 376.498 56.5511 376.116C56.8054 375.735 57.0943 375.376 57.3255 374.96C56.9094 375.191 56.5511 375.469 56.1582 375.735ZM115.345 370.671C114.975 370.96 114.652 371.11 114.282 371.191C113.531 371.341 112.802 371.122 112.294 370.59C111.485 369.792 110.19 369.573 109.208 370.047C108.723 370.255 108.307 370.694 108.064 371.052C107.81 371.445 107.521 371.804 107.289 372.22C107.706 371.977 108.064 371.7 108.457 371.445C108.827 371.133 109.139 370.971 109.509 370.879C110.237 370.694 111.011 370.891 111.508 371.399C112.259 372.185 113.565 372.474 114.559 372.035C115.056 371.839 115.484 371.434 115.738 371.052C115.992 370.671 116.27 370.313 116.513 369.896C116.096 370.128 115.738 370.405 115.345 370.671ZM92.6343 406.521C92.2644 406.81 91.9408 406.972 91.571 407.052C90.8197 407.203 90.0916 406.983 89.5715 406.451C88.774 405.654 87.4795 405.434 86.4971 405.908C86.0002 406.116 85.5956 406.555 85.3529 406.914C85.0987 407.307 84.8097 407.665 84.5786 408.07C84.9946 407.839 85.3529 407.561 85.7343 407.307C86.1157 406.995 86.4162 406.833 86.7976 406.729C87.5258 406.555 88.3001 406.752 88.7971 407.261C89.5484 408.047 90.8428 408.336 91.8368 407.896C92.3453 407.7 92.7614 407.295 93.0273 406.914C93.2815 406.532 93.5589 406.162 93.7901 405.758C93.3855 405.989 93.0157 406.266 92.6343 406.521ZM41.0869 412.382C40.717 412.671 40.3934 412.821 40.0236 412.902C39.2723 413.052 38.5442 412.833 38.0357 412.301C37.2266 411.503 35.9322 411.284 34.9498 411.758C34.4643 411.966 34.0483 412.405 33.8055 412.763C33.5513 413.156 33.2623 413.515 33.0312 413.931C33.4472 413.7 33.8055 413.411 34.1985 413.156C34.5683 412.856 34.8804 412.683 35.2503 412.59C35.9784 412.405 36.7528 412.613 37.2497 413.11C38.001 413.896 39.307 414.197 40.301 413.746C40.798 413.55 41.2256 413.145 41.4799 412.775C41.7341 412.382 42.0115 412.024 42.2542 411.607C41.8381 411.839 41.4799 412.128 41.0869 412.382Z" fill="white"/>
<path d="M72.2243 352.093C68.9881 355.33 66.6419 358.89 64.2495 362.393C61.8339 365.942 59.9731 369.619 58.0083 373.283C57.9621 373.364 58.1817 373.411 58.2279 373.33C60.4239 369.757 63.059 366.278 65.4746 362.763C67.8902 359.26 70.6987 355.862 72.8946 352.289C73.0333 352.058 72.4323 351.885 72.2243 352.093Z" fill="#263238"/>
<path d="M32.9504 344.786C31.055 352.15 29.356 359.572 28.0037 367.04C26.5937 374.497 25.5073 382.023 25.1143 389.549C24.9872 393.318 25.0103 397.052 25.4379 400.786C25.8424 404.497 26.5128 408.208 27.9575 411.561C29.3791 414.89 31.76 417.746 34.9846 419.237C38.1976 420.763 41.9192 421.11 45.5946 420.96C53.003 420.636 60.3538 418.578 67.612 416.462C74.8702 414.312 82.0476 411.815 89.2249 409.318C96.4023 406.832 103.533 404.22 110.653 401.526C117.761 398.844 124.88 396.173 131.965 393.399L131.896 393.572L130.058 389.63L132.127 393.457L132.196 393.572L132.069 393.63C125.123 396.751 118.142 399.78 111.115 402.682C104.077 405.561 96.9917 408.37 89.8721 411.064C82.741 413.734 75.5406 416.22 68.2477 418.486C60.9548 420.659 53.5347 422.902 45.6986 423.225C41.8152 423.341 37.7353 422.96 34.0484 421.179C32.2107 420.301 30.558 419.006 29.2173 417.48C27.8766 415.942 26.8479 414.185 26.0736 412.358C24.5364 408.682 23.8892 404.798 23.5078 400.971C23.0801 397.145 23.1957 393.249 23.4153 389.422C24.652 374.162 28.362 359.295 32.9504 344.786Z" fill="#263238"/>
<path d="M72.9291 312.948C73.0215 316.081 72.9984 319.203 73.0447 322.336L73.0216 331.711C73.0331 337.954 72.8713 344.22 72.9406 350.44L72.9753 351.584L72.9984 352.139L73.0216 352.393L73.0331 352.486C73.0331 352.509 73.0331 352.509 73.0331 352.486L73.0216 352.463L72.9522 352.335C72.8597 352.185 72.6864 352.046 72.5246 352.012L72.409 351.966C72.3396 351.942 72.2587 351.942 72.1894 351.954C72.1547 351.966 72.1201 351.966 72.0969 351.977C72.0738 351.989 72.1085 351.977 72.1085 351.977L72.1547 351.954C72.2241 351.919 72.2819 351.896 72.3743 351.85L72.8713 351.596L73.8768 351.041C75.2175 350.278 76.5582 349.468 77.8989 348.671L85.9546 343.885L94.0335 339.122L102.182 334.451L102.263 334.405L102.297 334.486L102.864 335.781L102.159 334.555L102.274 334.59C99.7083 336.382 97.1309 338.162 94.5305 339.908L86.6943 345.064C84.0707 346.775 81.424 348.428 78.7657 350.093C77.425 350.914 76.0959 351.723 74.7321 352.509L73.6919 353.099L73.1487 353.388C73.0678 353.434 72.9406 353.492 72.8366 353.538L72.7557 353.573L72.6979 353.596C72.6401 353.619 72.5939 353.63 72.5361 353.642C72.4205 353.665 72.2934 353.677 72.1778 353.665C72.1085 353.653 72.0854 353.665 71.9929 353.63C71.8196 353.573 71.6231 353.422 71.519 353.249C71.4497 353.145 71.4381 353.087 71.4381 353.099L71.4266 353.052L71.3919 352.96C71.3688 352.879 71.3572 352.844 71.3572 352.809L71.3226 352.613L71.2879 352.278L71.2532 351.665L71.2185 350.474C71.1954 344.185 71.4035 337.942 71.7155 331.688L72.2125 322.312C72.4552 319.191 72.6401 316.07 72.9291 312.948Z" fill="#263238"/>
<path d="M105.984 376.301C102.598 369.503 99.2694 362.683 95.6403 356.024C93.5714 352.232 91.5257 348.428 89.4222 344.659C89.3413 344.521 89.087 344.636 89.1564 344.787C92.277 351.735 95.4322 358.706 98.8764 365.515C102.297 372.289 105.672 379.087 109.186 385.827C111.185 389.654 113.289 393.411 115.52 397.11C115.566 397.18 115.693 397.122 115.658 397.041C112.769 389.977 109.394 383.145 105.984 376.301Z" fill="#263238"/>
<path d="M75.2983 320.347C75.0671 322.185 74.6626 323.989 74.2234 325.781C73.7611 327.561 73.2641 329.341 72.5938 331.075C72.8249 329.237 73.2294 327.434 73.6686 325.642C74.1194 323.862 74.6279 322.081 75.2983 320.347Z" fill="#263238"/>
<path d="M97.8351 294.994C90.8311 298.243 75.887 289.561 69.0333 281.468C68.5709 280.913 68.178 274.127 67.3227 265.896C66.7795 260.902 66.0629 255.364 65.0343 250.358C64.8147 249.33 98.0084 251.572 98.0084 251.572C98.0084 251.572 97.0607 262.705 98.8984 271.434C99.0602 272.162 99.2682 272.821 99.5341 273.445C99.5687 273.538 99.615 273.642 99.6496 273.78C101.083 277.538 104.608 291.85 97.8351 294.994Z" fill="#EB9481"/>
<path d="M66.9883 250.081C70.1782 258.254 79.6209 277.642 96.4604 274.601C97.6278 274.393 98.6911 274.116 99.6388 273.769C99.6157 273.63 99.5579 273.526 99.5232 273.434C99.269 272.809 99.0494 272.15 98.8876 271.434C97.0499 262.694 97.9976 251.561 97.9976 251.561C97.9976 251.561 74.0616 249.931 66.9883 250.081Z" fill="#263238"/>
<path d="M55.0598 211.179C53.1297 222.913 63.4276 254.682 72.4195 260.867C85.4451 269.838 104.608 268.301 111.681 253.133C118.535 238.428 104.377 197.272 94.541 191.873C80.0476 183.908 57.9146 193.85 55.0598 211.179Z" fill="#EB9481"/>
<path d="M67.6119 228.463C69.0104 221.584 63.8094 211.018 66.7335 207.642C73.044 200.324 89.2133 210.74 99.2338 209.526C108.954 208.347 111.404 201.677 108.642 194.023C105.879 186.37 98.5057 181.931 87.3987 181.7C75.9103 181.457 66.2134 187.318 61.0818 191.619C61.0818 191.619 63.035 187.364 61.9602 186.266C60.8853 185.156 56.609 189.549 55.3723 191.353C54.1009 193.179 53.5924 196.336 53.5924 196.336C53.5924 196.336 51.7547 196.035 49.0964 196.44C46.6346 196.821 43.7683 199.156 43.6643 199.757C43.5603 200.359 47.1547 200.359 49.6512 200.162C49.6512 200.162 45.8141 206.89 46.5884 212.127C47.3628 217.364 58.724 241.26 60.7235 241.284C63.2893 241.307 67.0456 231.26 67.6119 228.463Z" fill="#263238"/>
<path d="M50.5292 199.399C50.6101 199.341 50.7373 199.445 50.6679 199.526C48.5644 201.873 46.9579 204.486 46.3684 207.63C45.6865 211.272 46.4031 215.018 47.6514 218.463C50.0669 225.168 54.2392 230.994 57.9839 236.983C58.088 237.156 57.799 237.353 57.6834 237.179C53.3146 231.087 48.8071 224.44 46.5303 217.237C44.577 211.087 45.1087 203.665 50.5292 199.399Z" fill="#263238"/>
<path d="M66.0175 205.145C68.8145 204.382 72.0276 204.243 74.9054 204.59C77.7371 204.937 80.3029 206.336 82.938 207.365C88.8325 209.654 95.1892 211.203 101.511 210C101.592 209.989 101.615 210.105 101.534 210.128C95.8018 211.607 89.8842 210.602 84.3712 208.683C81.5973 207.711 78.8928 206.174 76.015 205.55C72.7441 204.844 69.3924 205.318 66.11 205.665C65.7748 205.7 65.6939 205.237 66.0175 205.145Z" fill="#263238"/>
<path d="M66.7111 188.081C70.3633 185.584 74.4432 183.734 78.6386 182.37C82.6723 181.064 86.8908 180.185 91.1441 180.324C98.4832 180.578 105.695 184.312 108.319 191.492C109.648 195.122 109.787 199.283 108.284 202.902C108.18 203.145 107.822 203.018 107.903 202.763C110.029 195.919 107.868 188.22 101.766 184.151C95.2124 179.781 86.8793 180.451 79.6673 182.567C75.1251 183.896 70.8834 185.896 66.7226 188.139C66.7226 188.139 66.688 188.093 66.7111 188.081Z" fill="#263238"/>
<path d="M65.5665 236.786C65.5665 236.786 56.6092 227.422 52.252 230.775C47.8947 234.127 55.754 248.497 61.6715 249.711C67.5891 250.925 68.8257 245.48 68.8257 245.48L65.5665 236.786Z" fill="#EB9481"/>
<path d="M54.6099 234.833C54.5175 234.833 54.5175 234.971 54.5984 234.983C58.7591 235.966 61.3943 239.283 63.4169 242.833C62.03 241.561 60.3194 241.006 58.5858 242.694C58.4933 242.786 58.6205 242.925 58.7245 242.89C60.2732 242.301 61.4752 242.393 62.7581 243.515C63.6712 244.312 64.3646 245.376 65.0812 246.347C65.3239 246.671 65.9249 246.382 65.7284 246C65.7169 245.977 65.6938 245.942 65.6822 245.919C65.0234 240.902 60.0536 234.509 54.6099 234.833Z" fill="#263238"/>
<path d="M99.4418 273.272L95.1424 293.168L68.0049 273.561L62.7461 282.232C62.7461 282.232 91.7444 315.792 91.6057 314.081L96.5408 296.729L109.52 306L103.845 278.127L99.4418 273.272Z" fill="#EBEBEB"/>
<path d="M107.475 292.069C106.389 287.503 105.406 282.867 104.112 278.347C104.065 278.185 103.8 278.162 103.788 278.358C103.626 282.983 107.891 300.439 108.596 304.671C108.573 304.659 108.561 304.647 108.538 304.636C107.995 304.231 96.5992 296.567 96.5299 296.728C95.3047 299.561 91.6641 312.208 91.4676 313.33C86.8792 308 67.6934 287.156 62.504 282.254C62.3537 282.116 62.1226 282.289 62.2497 282.463C66.4798 288.197 91.3751 315.769 91.6294 315.642C91.849 315.757 96.3796 300.174 96.761 297.306C98.7721 299.064 110.457 307.908 110.376 307.214C109.81 302.555 108.573 296.636 107.475 292.069Z" fill="#263238"/>
<path d="M283.938 437.561H155.428V443.329H283.938V437.561Z" fill="#455A64"/>
<path d="M220.116 437.572H155.428V443.341H220.116V437.572Z" fill="#263238"/>
<path d="M218.613 443.329L343.864 443.306L361.536 358.208L236.297 358.231L218.613 443.329Z" fill="#37474F"/>
<path d="M280.367 402.671C279.882 407.283 283.233 411.017 287.833 411.017C292.445 411.017 296.571 407.283 297.056 402.671C297.542 398.058 294.19 394.324 289.59 394.324C284.979 394.324 280.852 398.058 280.367 402.671Z" fill="white"/>
</g>
<defs>
<clipPath id="clip0_349_12626">
<rect width="448" height="464" fill="white"/>
</clipPath>
</defs>
</svg>
