<svg width="391" height="415" viewBox="0 0 391 415" fill="none" xmlns="http://www.w3.org/2000/svg">
<g clip-path="url(#clip0_316_7753)">
<path d="M67.4771 322.432L-0.0078125 347.36L15.7758 390.229L83.2606 365.3L67.4771 322.432Z" fill="#EBEBEB"/>
<path d="M67.4929 322.434C65.7239 326.055 63.8679 329.579 62.0699 333.162C60.2332 336.696 58.3772 340.24 56.5019 343.755C54.5492 347.425 52.5772 351.075 50.5955 354.706C50.5375 354.822 50.4795 354.938 50.4215 355.055C48.6621 358.26 46.9028 361.474 45.1338 364.679L44.8631 365.144L44.3701 364.96C40.9481 363.662 37.5357 362.365 34.1137 361.058C33.9977 361.019 33.872 360.971 33.756 360.922C29.8893 359.45 26.0226 357.959 22.1463 356.42C18.4633 354.977 14.7512 353.486 11.0585 351.995C7.36585 350.436 3.66349 348.964 -0.0195312 347.357C3.70216 348.528 7.41419 349.816 11.1262 351.056C14.8479 352.334 18.5599 353.612 22.272 354.938C26.3996 356.391 30.5467 357.892 34.684 359.421C34.6937 359.421 34.6937 359.421 34.713 359.431C37.8161 360.564 40.9191 361.707 44.0221 362.849C45.6268 359.964 47.2411 357.059 48.8748 354.202C48.8748 354.173 48.8748 354.173 48.8845 354.164C51.0498 350.32 53.2152 346.485 55.4192 342.68C57.3912 339.272 59.3729 335.873 61.3739 332.494C63.4329 329.144 65.4146 325.745 67.4929 322.434Z" fill="white"/>
<path d="M35.1771 360.37C35.1577 360.399 35.1481 360.438 35.1191 360.467C34.8774 360.903 34.6357 361.339 34.3844 361.765C33.2147 363.817 31.987 365.831 30.7207 367.816C29.174 370.256 27.5597 372.638 25.926 375.02C24.273 377.373 22.6006 379.716 20.8606 382.021C19.1206 384.325 17.3419 386.61 15.4473 388.799C16.8296 386.242 18.3473 383.783 19.894 381.353C21.4503 378.913 23.0647 376.521 24.6887 374.149C26.3513 371.786 28.0237 369.433 29.7637 367.129C31.146 365.289 32.567 363.459 34.0557 361.687C34.3941 361.271 34.7421 360.864 35.0997 360.457C35.1191 360.438 35.1481 360.409 35.1771 360.37Z" fill="white"/>
<path d="M82.6111 363.992C79.7498 363.566 76.9078 362.985 74.1044 362.365C71.2817 361.745 68.4977 361.048 65.704 360.341C62.92 359.596 60.136 358.831 57.3906 357.979C55.148 357.301 52.915 356.575 50.7013 355.771C50.2276 355.597 49.7539 355.432 49.2899 355.258C49.2513 355.248 49.2223 355.229 49.1836 355.219C49.2223 355.229 49.2706 355.229 49.2996 355.229C49.8409 355.316 50.3629 355.403 50.8946 355.49C53.176 355.868 55.4283 356.342 57.6903 356.836C60.513 357.456 63.297 358.153 66.0907 358.879C68.8747 359.625 71.6587 360.39 74.4041 361.242C77.1494 362.065 79.8948 362.946 82.6111 363.992Z" fill="white"/>
<path d="M320.031 142.26L312.637 187.35L383.617 199.029L391.012 153.94L320.031 142.26Z" fill="#EBEBEB"/>
<path d="M390.998 153.935C387.683 156.211 384.328 158.36 380.993 160.587C377.648 162.756 374.294 164.916 370.93 167.055C367.421 169.282 363.912 171.48 360.403 173.669C360.297 173.736 360.19 173.814 360.084 173.882C356.981 175.799 353.859 177.726 350.746 179.643L350.282 179.914L349.944 179.517C347.604 176.699 345.275 173.882 342.945 171.054C342.858 170.967 342.781 170.861 342.694 170.764C340.055 167.569 337.425 164.364 334.815 161.11C332.321 158.031 329.837 154.904 327.352 151.776C324.907 148.6 322.413 145.492 319.996 142.268C322.654 145.124 325.245 148.087 327.874 150.992C330.475 153.945 333.085 156.889 335.656 159.881C338.527 163.192 341.398 166.542 344.25 169.921C344.26 169.921 344.26 169.921 344.269 169.941C346.406 172.458 348.542 174.986 350.678 177.513C353.501 175.799 356.333 174.075 359.156 172.391C359.175 172.362 359.175 172.362 359.185 172.362C362.965 170.086 366.735 167.83 370.524 165.603C373.917 163.608 377.32 161.633 380.723 159.687C384.164 157.77 387.557 155.785 390.998 153.935Z" fill="white"/>
<path d="M344.193 170.958C344.154 170.977 344.135 171.006 344.096 171.016C343.671 171.277 343.245 171.529 342.82 171.781C340.79 172.991 338.731 174.133 336.653 175.228C334.11 176.583 331.529 177.861 328.929 179.12C326.329 180.35 323.719 181.56 321.07 182.703C318.421 183.845 315.753 184.949 313.018 185.917C315.483 184.378 318.006 182.993 320.548 181.638C323.1 180.282 325.691 179.004 328.272 177.745C330.882 176.506 333.492 175.295 336.14 174.153C338.248 173.243 340.384 172.352 342.559 171.548C343.062 171.355 343.564 171.18 344.077 170.996C344.115 170.987 344.164 170.977 344.193 170.958Z" fill="white"/>
<path d="M383.672 197.556C381.391 195.765 379.206 193.857 377.07 191.93C374.924 189.994 372.846 188.009 370.758 186.014C368.708 183.99 366.659 181.947 364.687 179.846C363.073 178.142 361.487 176.409 359.96 174.618C359.631 174.23 359.312 173.853 358.984 173.475C358.955 173.446 358.935 173.417 358.906 173.388C358.935 173.417 358.974 173.446 359.003 173.456C359.428 173.804 359.844 174.133 360.26 174.472C362.058 175.934 363.788 177.455 365.509 178.994C367.655 180.931 369.733 182.916 371.802 184.92C373.851 186.944 375.9 188.987 377.872 191.088C379.873 193.179 381.826 195.309 383.672 197.556Z" fill="white"/>
<path d="M105.522 414.99L136.716 411.127L125.542 320.652L86.0723 325.542L105.522 414.99Z" fill="#FFC727"/>
<path d="M86.0723 325.542L93.4866 359.663L105.531 415L136.726 411.137L125.551 320.652L86.0723 325.542Z" fill="#FFC727"/>
<path opacity="0.2" d="M86.0723 325.542L93.4866 359.663L105.531 415L136.726 411.137L125.551 320.652L86.0723 325.542Z" fill="white"/>
<path opacity="0.1" d="M86.0723 325.542L90.9636 348.044L128.954 348.219L125.551 320.652L86.0723 325.542Z" fill="black"/>
<path d="M83.8862 339.851L132.994 333.769L128.381 296.399L79.2735 302.481L83.8862 339.851Z" fill="#FFC727"/>
<path opacity="0.2" d="M83.8862 339.851L132.994 333.769L128.381 296.399L79.2735 302.481L83.8862 339.851Z" fill="black"/>
<path d="M44.6891 292.901L83.3077 291.991L75.845 231.523L38.1641 240.063L44.6891 292.901Z" fill="#FFC727"/>
<g opacity="0.2">
<path d="M44.6891 292.901L83.3077 291.991L75.845 231.523L38.1641 240.063L44.6891 292.901Z" fill="white"/>
</g>
<path d="M93.9805 217.115L105.001 306.351L169.961 306.109L325.557 342.506L299.099 128.208L157.046 201.506L93.9805 217.115Z" fill="#FFEEBE"/>
<path opacity="0.2" d="M93.9805 217.115L105.001 306.351L169.961 306.109L325.557 342.506L299.099 128.208L157.046 201.506L93.9805 217.115Z" fill="white"/>
<path opacity="0.1" d="M325.566 342.525L169.971 306.109L105.01 306.36L102.188 283.451C121.386 285.291 171.788 290.122 172.822 290.461C174.05 290.887 325.566 342.525 325.566 342.525Z" fill="black"/>
<path d="M329.06 342.617C348.144 340.253 357.664 290.128 350.323 230.658C342.983 171.188 321.561 124.894 302.477 127.258C283.393 129.621 273.873 179.747 281.213 239.217C288.554 298.687 309.976 344.98 329.06 342.617Z" fill="#FFC727"/>
<path opacity="0.2" d="M289.064 236.364C295.579 289.164 313.53 330.393 329.161 328.456C344.783 326.52 352.168 282.154 345.653 229.354C339.137 176.554 321.186 135.325 305.555 137.262C289.924 139.198 282.548 183.574 289.064 236.364Z" fill="black"/>
<path d="M293.675 235.802C294.545 242.832 295.618 249.649 296.875 256.194C300.915 258.75 305.826 259.951 310.93 259.312C322.704 257.85 331.085 247.093 329.625 235.27L328.378 225.161C326.919 213.339 316.179 204.953 304.395 206.406C299.388 207.026 294.961 209.359 291.674 212.729C292.022 220.155 292.698 227.892 293.675 235.802Z" fill="#FFC727"/>
<path opacity="0.2" d="M293.675 235.802C294.545 242.832 295.618 249.649 296.875 256.194C300.915 258.75 305.826 259.951 310.93 259.312C322.704 257.85 331.085 247.093 329.625 235.27L328.378 225.161C326.919 213.339 316.179 204.953 304.395 206.406C299.388 207.026 294.961 209.359 291.674 212.729C292.022 220.155 292.698 227.892 293.675 235.802Z" fill="white"/>
<path d="M71.0799 315.578L145.765 313.816L131.333 196.878L58.4648 213.406L71.0799 315.578Z" fill="#FFF1CB"/>
<g opacity="0.1">
<path d="M71.0799 315.578L145.765 313.816L131.333 196.878L58.4648 213.406L71.0799 315.578Z" fill="black"/>
</g>
<path opacity="0.2" d="M291.81 135.751C286.754 143.062 284.193 151.766 282.085 160.336C280.161 168.992 278.895 177.813 278.363 186.663C277.967 191.088 277.967 195.523 277.812 199.957C277.9 204.392 277.861 208.827 278.064 213.252C278.334 217.677 278.45 222.111 278.856 226.526C279.282 230.932 279.601 235.357 280.104 239.763C282.23 257.337 285.353 274.872 290.66 291.827C293.366 300.27 296.518 308.607 300.674 316.469C304.937 324.186 309.877 331.874 317.011 337.2C310.273 331.448 305.643 323.741 301.786 315.898C297.9 308.016 294.99 299.689 292.535 291.255C287.673 274.359 284.55 256.969 282.627 239.463C280.567 221.985 279.436 204.343 280.307 186.769C280.597 177.977 281.641 169.215 283.303 160.587C284.985 151.999 287.257 143.343 291.81 135.751Z" fill="black"/>
<path d="M202.402 133.253C200.324 144.621 185.457 147.08 183.175 144.64C173.953 134.764 164.17 115.582 153.566 94.1738C145.272 77.4421 150.608 76.9096 157.819 81.3733C174.591 91.7628 203.514 127.143 202.402 133.253Z" fill="#FFC727"/>
<path opacity="0.1" d="M202.402 133.263C200.324 144.63 185.456 147.09 183.185 144.65C173.962 134.773 164.18 115.592 153.566 94.1835C149.554 86.0791 148.568 80.9957 150.144 79.4949L202.189 130.997C202.441 131.898 202.508 132.653 202.402 133.263Z" fill="black"/>
<path d="M177.133 133.824C175.083 126.611 181.106 115.727 195.074 89.468C197.007 85.837 226.249 95.5488 224.384 99.538C222.035 104.563 209.787 123.386 207.39 125.952C195.693 138.501 178.525 138.714 177.133 133.824Z" fill="#EB9481"/>
<path d="M213.519 109.385C213.519 109.385 223.891 105.396 230.561 102.472C234.283 100.836 240.402 97.4659 242.587 95.0162C245.854 91.3465 257.174 73.9273 253.017 71.0903C249.257 68.5147 241.427 84.7235 241.427 84.7235C241.427 84.7235 250.765 69.0666 245.67 66.8105C240.566 64.5545 234.157 84.036 234.157 84.036C234.157 84.036 243.399 67.7401 237.763 66.2393C233.51 65.1064 226.704 82.4287 226.704 82.4287C226.704 82.4287 234.544 68.3695 230.223 67.0139C225.447 65.5227 218.168 81.1119 218.168 81.1119C206.597 79.5239 197.656 84.9462 194.437 90.6687C193.808 91.7822 213.519 109.385 213.519 109.385Z" fill="#EB9481"/>
<path d="M238.952 89.5939C246.714 78.5944 247.149 70.8095 247.101 71.0128C245.835 75.8348 242.364 82.6805 241.359 84.5783C240.363 86.4664 239.88 87.6574 238.875 89.5552C238.855 89.6036 238.923 89.6326 238.952 89.5939Z" fill="#263238"/>
<path d="M231.635 86.8537C235.647 81.8865 238.528 75.0021 239.156 72.4749C239.204 72.2716 239.108 72.3006 239.021 72.4943C237.812 74.944 232.902 84.4621 231.587 86.8343C231.558 86.8634 231.606 86.8828 231.635 86.8537Z" fill="#263238"/>
<path d="M225.168 84.9172C228.425 80.2017 229.402 77.7617 230.658 73.6078C230.716 73.4045 230.571 73.4529 230.475 73.6465C228.715 77.4421 227.372 80.4244 225.042 84.83C225.013 84.9075 225.119 84.9946 225.168 84.9172Z" fill="#263238"/>
<path d="M218.042 113.636L186.964 98.7053C186.964 98.7053 172.29 128.557 175.702 135.161C177.229 138.114 182.566 145.753 188.559 145.967C202.334 146.441 218.042 113.636 218.042 113.636Z" fill="#FFC727"/>
<path d="M185.166 106.471C188.607 108.281 192.126 109.908 195.654 111.525C199.182 113.142 202.72 114.769 206.287 116.299C208.308 117.161 210.318 118.042 212.368 118.836C212.426 118.855 212.464 118.768 212.416 118.739C208.984 116.928 205.466 115.282 201.947 113.646C198.428 112 194.881 110.402 191.333 108.824C189.322 107.933 187.302 107.081 185.253 106.287C185.146 106.258 185.059 106.413 185.166 106.471Z" fill="#263238"/>
<path d="M187.35 98.6569C187.051 98.4439 186.616 98.1825 186.577 98.2502C185.61 100.187 184.769 102.346 183.967 104.36C183.174 106.345 182.43 108.349 181.715 110.363C181.328 111.448 180.961 112.542 180.632 113.636C179.723 114.885 179.027 116.25 178.631 117.771C178.612 117.848 178.737 117.887 178.766 117.809C179.172 116.502 179.762 115.234 180.506 114.081C179.723 116.773 179.192 119.523 179.23 122.36C179.23 122.379 179.259 122.37 179.259 122.36C179.298 118.168 181.086 114.11 182.478 110.237C183.174 108.291 183.919 106.364 184.663 104.437C185.417 102.52 186.239 100.622 186.964 98.6956C186.964 98.6956 187.292 98.8602 187.37 98.8893C187.428 98.928 187.408 98.7053 187.35 98.6569Z" fill="#263238"/>
<path d="M153.083 80.4631C158.922 83.9876 169.207 99.509 174.166 117.945C175.152 121.615 176.167 127.172 177.153 133.582C180.092 152.832 183.949 174.414 184.316 181.599C184.809 191.175 168.154 207.8 159.947 205.728C151.749 203.656 138.254 207.21 152.619 152.638C156.399 138.288 160.594 106.848 155.838 89.6036C153.673 81.7606 153.083 80.4631 153.083 80.4631Z" fill="#FFC727"/>
<path d="M238.441 317.437C235.763 316.866 171.682 279.065 170.145 276.082C169.556 274.95 174.505 265.286 180.827 253.774C182.19 251.285 183.611 248.729 185.071 246.134C194.525 229.305 204.955 211.664 204.955 211.664L247.895 236.819L226.831 270.602L222.21 278.019C222.21 278.019 240.287 303.484 241.612 306.941C242.936 310.388 241.119 318.008 238.441 317.437Z" fill="#EB9481"/>
<path d="M238.441 317.437C235.763 316.866 171.683 279.074 170.146 276.082C169.624 275.085 173.413 267.446 178.643 257.763H178.652C181.146 261.578 218.354 293.831 230.679 296.9C235.725 298.159 227.914 286.172 227.576 285.668L227.595 285.688C233.028 293.482 240.752 304.724 241.602 306.951C242.927 310.388 241.129 318.008 238.441 317.437Z" fill="#263238"/>
<path d="M228.311 286.656C228.311 286.656 222.714 281.708 211.965 286.056L228.311 286.656Z" fill="#263238"/>
<path d="M276.247 183.574C272.216 203.617 230.417 270.534 230.417 270.534L184.587 242.784L215.385 194.719C215.385 194.719 152.59 202.271 128.646 192.192C103.087 181.434 106.808 150.769 106.808 150.769L169.024 143.362C169.024 143.362 170.667 149.23 177.656 148.687C201.755 146.809 234.603 147.729 247.256 149.094C263.584 150.866 279.949 165.187 276.247 183.574Z" fill="#37474F"/>
<path d="M229.595 177.919C228.097 179.246 226.85 180.96 225.535 182.461C224.143 184.058 222.722 185.636 221.33 187.234C221.32 187.253 221.301 187.263 221.291 187.283C221.552 186.808 221.804 186.324 222.074 185.85C222.993 184.233 223.756 182.538 224.82 181.008C224.887 180.911 224.742 180.815 224.675 180.902C223.582 182.422 222.345 183.855 221.388 185.472C220.943 186.237 220.508 187.002 220.112 187.786C219.89 188.212 219.667 188.648 219.464 189.084C219.368 189.287 219.261 189.5 219.184 189.713C218.556 190.458 217.937 191.204 217.338 191.959C215.994 193.644 214.795 195.445 213.442 197.12C213.365 197.207 213.51 197.304 213.587 197.227C214.95 195.658 216.458 194.215 217.84 192.666C219.242 191.088 220.586 189.451 221.92 187.805C223.215 186.198 224.491 184.571 225.786 182.964C227.091 181.347 228.619 179.769 229.701 177.987C229.73 177.948 229.653 177.871 229.595 177.919Z" fill="#263238"/>
<path d="M233.364 259.757C232.175 258.847 230.89 258.015 229.643 257.172C228.415 256.339 227.178 255.507 225.94 254.674C223.408 252.989 220.827 251.343 218.265 249.697C213.112 246.386 207.912 243.142 202.721 239.898C199.811 238.078 196.863 236.316 193.934 234.515C193.876 234.486 193.808 234.573 193.856 234.612C198.835 238.039 203.832 241.428 208.888 244.759C214.002 248.129 219.154 251.44 224.374 254.655C225.824 255.545 227.284 256.427 228.753 257.288C230.242 258.16 231.721 259.089 233.268 259.874C233.335 259.912 233.422 259.806 233.364 259.757Z" fill="#263238"/>
<path d="M115.363 152.686C114.812 160.762 117.219 169.098 122.39 175.295C124.962 178.384 128.152 180.95 131.709 182.838C135.209 184.813 139.191 185.753 143.135 186.537C151.072 187.989 159.172 188.503 167.254 188.677C175.335 188.822 183.426 188.57 191.498 187.96C199.56 187.35 207.612 186.43 215.52 184.804C217.492 184.387 219.464 183.932 221.397 183.39C222.364 183.119 223.33 182.829 224.278 182.509C225.206 182.199 226.182 181.763 227.255 181.638C227.787 181.57 228.348 181.55 228.918 181.715C229.498 181.86 230.059 182.393 230.194 182.993C230.271 183.284 230.31 183.584 230.291 183.855C230.291 184.165 230.175 184.484 230.088 184.717C229.894 185.21 229.672 185.675 229.44 186.13C228.502 187.951 227.468 189.694 226.424 191.436C217.994 205.312 208.966 218.79 199.927 232.249C204.345 225.442 208.714 218.616 213.045 211.77C217.385 204.924 221.735 198.079 225.844 191.098C226.859 189.345 227.874 187.592 228.783 185.801C229.005 185.356 229.227 184.901 229.401 184.455C229.488 184.213 229.556 184.039 229.556 183.845C229.566 183.613 229.537 183.4 229.488 183.206C229.305 182.393 228.29 182.238 227.362 182.383C226.404 182.499 225.515 182.896 224.529 183.235C223.562 183.564 222.586 183.865 221.61 184.145C219.647 184.697 217.675 185.172 215.684 185.588C207.728 187.253 199.647 188.193 191.566 188.832C183.475 189.422 175.354 189.645 167.244 189.471C159.143 189.258 151.004 188.754 143.019 187.186C139.056 186.353 135.035 185.365 131.468 183.313C127.891 181.357 124.662 178.723 122.091 175.557C119.519 172.381 117.663 168.663 116.552 164.751C115.44 160.839 114.986 156.724 115.363 152.686Z" fill="#263238"/>
<path d="M179.04 321.93C176.536 320.816 121.716 270.476 120.836 267.232C120.498 266.003 127.352 257.579 135.916 247.635C137.763 245.485 139.686 243.278 141.658 241.051C154.409 226.556 168.271 211.48 168.271 211.48L205.043 245.04L177.416 273.681L171.355 279.975C171.355 279.975 183.738 308.645 184.318 312.305C184.898 315.975 181.543 323.053 179.04 321.93Z" fill="#EB9481"/>
<path d="M179.04 321.93C176.536 320.816 121.716 270.486 120.836 267.242C120.537 266.158 125.834 259.477 132.958 251.091H132.968C134.611 255.342 164.298 294.644 175.724 300.221C180.393 302.507 175.241 289.154 175.028 288.583L175.047 288.612C178.74 297.375 183.96 309.982 184.327 312.325C184.898 315.975 181.553 323.053 179.04 321.93Z" fill="#263238"/>
<path d="M175.531 289.706C175.531 289.706 171.094 283.693 159.668 285.707L175.531 289.706Z" fill="#263238"/>
<path d="M248.321 188.251C244.29 208.294 190.581 263.301 184.375 269.605C183.457 270.534 182.964 271.038 182.964 271.038L143.949 236.558L144.461 235.977L174.051 203.346C174.051 203.346 128.482 218.79 108.965 190.584C101.203 179.362 106.809 150.759 106.809 150.759L156.786 145.018C156.786 145.018 157.637 153.587 164.626 153.045C188.725 151.166 207.662 149.385 220.316 150.759C236.643 152.541 252.023 169.863 248.321 188.251Z" fill="#37474F"/>
<path d="M165.99 152.938C181.486 151.457 197.03 150.169 212.632 150.188C214.585 150.208 216.538 150.256 218.49 150.372C220.443 150.498 222.396 150.682 224.339 151.118C225.325 151.34 226.253 151.718 227.152 152.076C228.06 152.444 228.959 152.851 229.839 153.296C231.598 154.177 233.3 155.175 234.904 156.308C238.133 158.554 241.043 161.285 243.372 164.47C245.712 167.646 247.461 171.277 248.409 175.121C248.882 177.038 249.153 179.014 249.25 180.979C249.288 181.473 249.279 181.967 249.288 182.461C249.298 182.954 249.288 183.448 249.259 183.952C249.182 184.949 249.027 185.937 248.815 186.905C247.916 190.778 246.263 194.37 244.445 197.837C240.743 204.74 236.238 211.16 231.502 217.347C226.746 223.535 221.729 229.518 216.576 235.357C211.395 241.186 206.069 246.879 200.665 252.495C205.962 246.783 211.182 240.992 216.248 235.076C221.332 229.18 226.282 223.157 230.96 216.941C235.6 210.705 240.105 204.324 243.74 197.459C245.528 194.031 247.142 190.468 247.993 186.721C248.196 185.782 248.341 184.842 248.409 183.894C248.467 182.954 248.438 181.976 248.389 181.018C248.293 179.101 248.022 177.184 247.558 175.324C246.649 171.587 244.967 168.053 242.696 164.954C240.434 161.846 237.592 159.154 234.44 156.947C232.865 155.833 231.202 154.846 229.481 153.984C228.621 153.548 227.741 153.151 226.852 152.783C225.953 152.415 225.064 152.057 224.155 151.854C222.299 151.428 220.356 151.244 218.432 151.108C216.499 150.972 214.556 150.895 212.613 150.866C204.841 150.74 197.059 151.04 189.287 151.437C181.525 151.805 173.753 152.309 165.99 152.938Z" fill="#263238"/>
<path d="M190.146 184.039C188.648 185.365 187.401 187.079 186.086 188.58C184.694 190.178 183.273 191.756 181.881 193.354C181.871 193.373 181.852 193.383 181.842 193.402C182.103 192.928 182.355 192.443 182.625 191.969C183.544 190.352 184.307 188.657 185.371 187.128C185.438 187.031 185.293 186.934 185.226 187.021C184.133 188.541 182.896 189.974 181.939 191.591C181.494 192.356 181.059 193.121 180.663 193.905C180.441 194.332 180.218 194.767 180.015 195.203C179.919 195.406 179.812 195.619 179.735 195.832C179.107 196.578 178.488 197.323 177.889 198.079C176.545 199.764 175.346 201.565 173.993 203.24C173.925 203.327 174.061 203.424 174.138 203.346C175.501 201.778 177.009 200.335 178.391 198.786C179.793 197.207 181.137 195.571 182.471 193.925C183.766 192.318 185.042 190.691 186.337 189.084C187.642 187.467 189.17 185.888 190.252 184.107C190.281 184.068 190.204 183.981 190.146 184.039Z" fill="#263238"/>
<path d="M187.942 261.955C186.918 260.852 185.796 259.825 184.704 258.78C183.631 257.743 182.558 256.717 181.475 255.691C179.262 253.599 177 251.547 174.747 249.484C170.223 245.35 165.651 241.283 161.069 237.206C158.507 234.921 155.897 232.685 153.316 230.419C153.268 230.38 153.181 230.458 153.229 230.496C157.56 234.708 161.919 238.901 166.337 243.035C170.803 247.218 175.337 251.353 179.948 255.4C181.224 256.523 182.519 257.637 183.824 258.731C185.149 259.845 186.454 261.007 187.836 262.043C187.894 262.101 188 262.014 187.942 261.955Z" fill="#263238"/>
<path d="M113.596 153.519C112.677 157.896 112.378 162.388 112.639 166.833C112.929 171.267 113.837 175.702 115.732 179.711C117.607 183.719 120.575 187.205 124.287 189.577C127.98 192.017 132.359 193.15 136.728 193.683C141.126 194.206 145.583 194.138 150.01 193.799C154.438 193.45 158.846 192.811 163.225 191.988C171.963 190.352 180.615 188.096 189.044 185.259L189.363 185.152L189.508 185.433C190.069 186.537 190.33 187.68 190.456 188.861C190.572 190.032 190.494 191.223 190.243 192.366C189.992 193.518 189.576 194.612 189.035 195.658C188.445 196.694 187.749 197.595 187.053 198.505C184.211 202.087 181.156 205.457 178.102 208.827C175.037 212.196 171.925 215.508 168.773 218.79C165.632 222.072 162.461 225.345 159.271 228.579C162.393 225.268 165.487 221.937 168.561 218.587C171.625 215.227 174.689 211.867 177.715 208.478C180.731 205.079 183.737 201.661 186.512 198.079C187.188 197.178 187.875 196.258 188.397 195.31C188.89 194.322 189.286 193.276 189.518 192.201C189.972 190.071 189.779 187.709 188.841 185.811L189.305 185.985C180.828 188.871 172.176 191.175 163.379 192.84C158.981 193.644 154.544 194.273 150.068 194.603C145.602 194.922 141.097 194.98 136.631 194.428C132.194 193.876 127.69 192.676 123.92 190.11C120.13 187.621 117.124 184.01 115.268 179.904C113.373 175.799 112.542 171.296 112.358 166.823C112.194 162.369 112.59 157.876 113.596 153.519Z" fill="#263238"/>
<path d="M135.018 152.89C134.554 155.243 133.964 157.576 133.307 159.881C132.727 161.933 132.05 164.044 130.716 165.748C129.46 167.356 127.691 168.459 125.873 169.321C124.81 169.834 123.708 170.26 122.587 170.638C121.485 171.016 120.247 171.316 119.213 171.858C119.02 171.965 119.058 172.294 119.3 172.303C120.528 172.332 121.862 172.052 123.06 171.771C124.249 171.5 125.429 171.151 126.55 170.686C128.59 169.844 130.465 168.498 131.838 166.755C133.288 164.906 133.887 162.63 134.409 160.384C134.97 157.915 135.25 155.427 135.327 152.899C135.337 152.706 135.057 152.696 135.018 152.89Z" fill="#263238"/>
<path d="M105.871 152.56L171.711 150.256L166.849 125.565C166.849 125.565 172.301 118.429 170.957 110.954C169.488 102.753 153.934 82.3997 152.648 81.2668C147.467 76.7256 142.817 75.0408 138.487 78.2458C123.416 89.3712 105.871 152.56 105.871 152.56Z" fill="#FFC727"/>
<path d="M158.062 123.057C155.133 123.464 152.204 123.977 149.371 124.81C147.96 125.226 146.578 125.71 145.195 126.214C144.509 126.466 143.813 126.698 143.117 126.93C142.402 127.163 141.638 127.385 140.884 127.434C140.816 127.434 140.826 127.54 140.894 127.54C141.628 127.531 142.334 127.531 143.059 127.424C143.755 127.327 144.441 127.153 145.108 126.959C146.549 126.553 147.96 126.078 149.391 125.652C152.281 124.8 155.162 123.948 158.11 123.299C158.236 123.27 158.197 123.038 158.062 123.057Z" fill="#263238"/>
<path d="M165.428 125.42C163.002 125.255 160.537 125.207 158.111 125.323C156.893 125.381 155.684 125.507 154.466 125.672C153.886 125.749 153.316 125.836 152.736 125.933C152.098 126.04 151.479 126.224 150.851 126.32C150.783 126.33 150.793 126.437 150.861 126.427C151.46 126.359 152.079 126.388 152.678 126.349C153.287 126.311 153.896 126.272 154.495 126.233C155.713 126.156 156.931 126.098 158.14 126.02C160.576 125.856 162.992 125.71 165.428 125.623C165.573 125.614 165.554 125.43 165.428 125.42Z" fill="#263238"/>
<path d="M129.98 87.0764C113.692 107.468 95.0927 148.532 100.4 155.804C106.306 163.909 128.965 135.345 128.685 133.863C128.472 132.74 134.688 108.388 139.492 90.6396C144.277 72.9203 134.011 82.0414 129.98 87.0764Z" fill="#EB9481"/>
<path d="M128.858 133.883C129.342 131.297 137.916 99.1314 140.255 89.0033C142.353 79.9112 140.246 76.5223 133.44 82.7967C120.922 94.3481 97.4512 128.015 94.3385 144.379C91.3515 160.142 104.479 159.881 114.252 151.641C122.256 144.901 128.858 133.883 128.858 133.883Z" fill="#FFC727"/>
<path d="M127.766 138.036C130.385 125.865 133.479 113.81 137.055 101.881C134.436 114.052 131.333 126.117 127.766 138.036Z" fill="#263238"/>
<path d="M135.383 108.911C135.702 107.226 136.485 105.803 137.596 104.515C137.393 106.219 136.572 107.701 135.383 108.911Z" fill="#263238"/>
<path d="M230.611 148.416H163.35V151.65H230.611V148.416Z" fill="#455A64"/>
<path d="M194.844 148.416H163.35V151.65H194.844V148.416Z" fill="#A6A6A6"/>
<path d="M193.49 151.65H263.68L273.598 103.905H203.408L193.49 151.65Z" fill="#A6A6A6"/>
<path d="M196.68 151.65H266.86L276.778 103.905H206.588L196.68 151.65Z" fill="#C7C7C7"/>
<path d="M232.051 128.838C231.781 131.423 233.656 133.524 236.237 133.524C238.818 133.524 241.138 131.423 241.409 128.838C241.679 126.253 239.804 124.151 237.223 124.151C234.632 124.151 232.322 126.253 232.051 128.838Z" fill="#EBEBEB"/>
<path d="M100.428 154.342C106.48 158.418 117.5 155.378 145.959 150.324C149.893 149.627 152.455 120.462 148.211 120.995C142.865 121.663 122.266 125.41 120.796 125.875C108.375 129.796 96.3201 151.582 100.428 154.342Z" fill="#EB9481"/>
<path d="M144.055 122.951C144.055 122.951 153.963 117.422 160.063 116.134C168.231 114.411 175.994 116.289 179.203 117.267C185.893 119.32 200.654 128.915 198.633 133.66C196.806 137.949 182.21 127.376 182.21 127.376C182.21 127.376 198.865 135.703 195.714 140.457C192.563 145.221 176.322 131.975 176.322 131.975C176.322 131.975 193.239 140.912 189.218 145.308C186.183 148.629 170.793 137.465 170.793 137.465C170.793 137.465 185.284 145.25 182.306 148.794C179.01 152.715 164.171 143.304 164.171 143.304C155.085 151.05 147.593 151.021 142.257 150.362C140.971 150.227 144.055 122.951 144.055 122.951Z" fill="#EB9481"/>
<path d="M176.632 124.142C178.623 125.052 180.643 125.952 182.548 127.037C184.452 128.121 186.318 129.264 188.116 130.523C192.524 133.602 194.795 136.216 194.641 136.071C190.9 132.614 184.143 128.635 182.238 127.56C180.334 126.485 178.488 125.304 176.593 124.229C176.535 124.18 176.583 124.113 176.632 124.142Z" fill="#263238"/>
<path d="M172.611 130.958C175.105 132.227 177.628 133.398 180.064 134.773C182.491 136.148 184.675 137.659 186.995 139.198C187.179 139.315 187.053 139.373 186.87 139.266C184.482 137.823 182.172 136.681 179.765 135.267C177.367 133.863 175.018 132.343 172.573 131.026C172.534 130.987 172.573 130.939 172.611 130.958Z" fill="#263238"/>
<path d="M168.106 136.187C172.011 137.93 175.598 140.389 179.058 142.897C179.232 143.023 179.068 143.081 178.884 142.965C175.288 140.67 172.475 138.84 168.048 136.332C167.98 136.284 168.029 136.148 168.106 136.187Z" fill="#263238"/>
<path d="M142.421 118.836L130.705 159.629C130.705 159.629 101.589 160.142 96.8715 155.175C93.4978 151.621 106.635 130.629 120.246 125.846L142.421 118.836Z" fill="#FFC727"/>
<path d="M106.201 137.194C107.477 134.647 112.426 128.702 120.246 125.827C120.314 125.797 120.372 125.904 120.304 125.933C114.688 128.644 107.738 134.919 106.297 137.262C106.268 137.32 106.172 137.252 106.201 137.194Z" fill="#263238"/>
<path d="M124.886 153.887C125.707 149.869 126.732 145.899 127.776 141.929C128.82 137.959 129.854 133.979 130.995 130.038C131.643 127.811 132.271 125.575 132.996 123.367C133.015 123.309 133.112 123.328 133.102 123.386C132.29 127.395 131.266 131.384 130.251 135.345C129.236 139.324 128.172 143.294 127.08 147.254C126.461 149.491 125.804 151.718 125.079 153.926C125.05 154.042 124.857 154.003 124.886 153.887Z" fill="#263238"/>
<path d="M142.295 118.497C140.719 118.748 139.201 119.233 137.674 119.697C136.147 120.152 134.629 120.646 133.111 121.14C130.095 122.137 123.599 123.89 118.466 126.572C118.408 126.601 118.843 126.727 118.901 126.698C121.279 125.304 140.622 119.717 142.111 119.078C142.101 119.204 142.101 119.32 142.111 119.455C142.121 119.542 142.237 119.601 142.285 119.504C142.401 119.291 142.449 119.068 142.556 118.845C142.623 118.652 142.498 118.468 142.295 118.497Z" fill="#263238"/>
<path d="M132.822 152.715C132.222 155.117 131.575 157.499 130.898 159.871C128.559 159.91 126.229 159.861 123.889 159.793C117.084 159.561 110.211 159.261 103.541 157.837C111.216 158.748 122.903 159.009 130.724 159.377L130.482 159.551C131.227 157.266 132 154.981 132.822 152.715Z" fill="#263238"/>
<path d="M139.896 81.9349C140.244 83.1646 146.547 90.9108 152.173 90.3588C154.01 90.1749 153.469 80.0855 153.469 80.0855L153.594 79.3303L155.402 68.7761L142.787 61.5141L140.969 60.5652C140.969 60.5652 140.66 63.4894 140.322 67.1204C140.302 67.285 140.283 67.4593 140.273 67.6433C140.244 67.8466 140.225 68.0402 140.206 68.2339C140.148 68.7761 140.09 69.328 140.041 69.8896C140.003 70.3157 139.964 70.7224 139.945 71.1678C139.916 71.6132 139.887 72.0489 139.858 72.4943C139.635 76.8805 139.761 81.412 139.896 81.9349Z" fill="#EB9481"/>
<path d="M140.332 67.1398C143.725 75.3023 150.511 78.3523 153.604 79.3399L155.412 68.7858L142.797 61.5238L140.98 60.5749C140.98 60.5749 140.68 63.4991 140.332 67.1398Z" fill="#263238"/>
<path d="M137.975 60.3716C133.712 60.2166 123.697 65.087 121.174 71.2065C118.641 77.3356 120.565 86.1469 122.537 86.6794C124.509 87.212 132.204 85.1108 137.018 81.17C141.842 77.2291 140.082 60.449 137.975 60.3716Z" fill="#263238"/>
<path d="M137.994 60.3909C138.129 60.3328 138.1 60.1004 137.945 60.1295C134.34 60.7008 130.715 62.6179 127.476 64.2253C124.866 65.5324 122.198 66.9945 120.313 69.2893C118.428 71.5841 117.713 74.2856 118.138 77.2098C118.602 80.405 119.753 84.1522 121.821 86.6697C121.879 86.7472 122.034 86.6891 121.986 86.5923C119.24 80.9085 116.456 73.8595 121.647 68.689C126.065 64.2931 132.445 62.7051 137.994 60.3909Z" fill="#263238"/>
<path d="M122.845 85.014C119.345 86.1372 111.274 94.6773 110.955 101.794C110.645 108.911 118.021 117.993 119.906 118.4C121.801 118.807 128.529 110.809 130.23 105.522C131.371 101.988 129.322 98.4923 127.852 94.9097C125.706 89.6326 123.386 84.8397 122.845 85.014Z" fill="#263238"/>
<path d="M132.232 104.283C132.029 97.127 126.829 90.9592 123.31 85.1011C123.271 85.043 123.165 85.0915 123.194 85.1592C125.611 90.9495 130.222 95.7037 131.478 101.997C132.223 105.735 131.594 109.647 128.936 112.503C126.626 114.982 123.445 116.502 120.545 118.177C120.352 118.284 120.545 118.565 120.729 118.458C126.539 115.301 132.445 111.67 132.232 104.283Z" fill="#263238"/>
<path d="M122.188 85.7983C122.352 85.6724 122.178 85.411 122.014 85.5369C117.354 88.8871 111.864 93.5444 110.075 99.2185C108.142 105.367 112.183 110.692 115.73 115.263C115.779 115.321 115.866 115.263 115.827 115.205C112.299 110.547 108.384 104.67 110.752 98.5988C112.792 93.3702 117.809 89.0517 122.188 85.7983Z" fill="#263238"/>
<path d="M120.293 118.148C122.836 119.165 126.77 122.99 128.036 127.782C130.211 135.993 133.198 134.047 142.507 135.393C150.376 136.536 152.832 144.989 149.139 149.636C149.139 149.636 151.014 144.098 145.582 141.987C139.095 139.469 125.562 147.341 117.664 139.256C107.446 128.809 120.293 118.148 120.293 118.148Z" fill="#263238"/>
<path d="M123.928 121.692C123.812 121.586 123.995 121.392 124.111 121.489C125.262 122.457 126.228 123.561 126.963 124.878C127.91 126.572 128.133 128.48 128.954 130.213C131.042 134.628 136.543 133.941 140.574 133.844C145.968 133.708 150.598 136.574 151.468 142.2C151.478 142.277 151.352 142.306 151.342 142.219C150.733 138.734 148.307 135.732 144.885 134.657C141.627 133.631 138.157 134.667 134.832 134.192C132.56 133.863 130.25 133.137 129.012 131.055C128.336 129.922 128.065 128.567 127.649 127.327C126.857 125.081 125.658 123.328 123.928 121.692Z" fill="#263238"/>
<path d="M118.979 119.3C119.027 119.252 119.104 119.329 119.066 119.378C116.32 122.67 113.391 125.991 112.937 130.465C112.444 135.277 115.334 139.779 119.307 142.277C123.764 145.076 128.065 143.12 132.618 141.774C135.915 140.796 139.288 140.07 142.691 140.902C142.797 140.932 142.759 141.096 142.652 141.086C137.229 140.36 132.531 142.413 127.408 143.749C123.222 144.843 119.733 143.681 116.678 140.641C109.93 133.912 112.84 125.226 118.979 119.3Z" fill="#263238"/>
<path d="M134.145 57.186C132.743 55.9466 130.849 58.1542 132.25 59.3936C133.662 60.633 135.556 58.4253 134.145 57.186Z" fill="#FFC727"/>
<path d="M135.702 59.4033C134.3 58.1639 132.405 60.3716 133.807 61.6109C135.209 62.8503 137.103 60.6427 135.702 59.4033Z" fill="#FFC727"/>
<path d="M137.625 61.3398C136.224 60.1004 134.329 62.3081 135.731 63.5475C137.132 64.7869 139.027 62.5792 137.625 61.3398Z" fill="#FFC727"/>
<path d="M139.733 62.9568C138.331 61.7174 136.436 63.9251 137.838 65.1645C139.24 66.4136 141.134 64.2059 139.733 62.9568Z" fill="#FFC727"/>
<path d="M142.139 64.2156C140.737 62.9762 138.843 65.1839 140.244 66.4232C141.646 67.6723 143.541 65.4647 142.139 64.2156Z" fill="#FFC727"/>
<path d="M144.633 64.9999C143.232 63.7605 141.337 65.9682 142.739 67.2075C144.15 68.4469 146.045 66.2393 144.633 64.9999Z" fill="#FFC727"/>
<path d="M167.573 49.7593C172.097 67.9918 161.715 72.7751 157.79 73.753C154.233 74.6342 141.995 77.2001 135.615 59.5292C129.235 41.8583 136.262 33.9862 144.295 31.5268C152.338 29.0674 163.049 31.5268 167.573 49.7593Z" fill="#EB9481"/>
<path d="M137.983 61.059C141.763 59.9068 139.404 51.1633 139.404 51.1633C139.404 51.1633 145.455 48.0939 146.847 42.9621C146.847 42.9621 146.171 47.2515 144.112 49.5463C143.764 49.9336 156.388 44.8115 154.716 34.4607C154.716 34.4607 159.491 43.7657 166.007 44.0562C166.316 44.0659 162.788 36.862 159.665 34.5285C156.543 32.1949 155.344 31.6527 155.344 31.6527C155.344 31.6527 148.326 28.593 140.67 32.0981C133.024 35.6032 130.24 45.5377 130.636 49.1687C131.429 56.3048 136.195 61.6109 137.983 61.059Z" fill="#263238"/>
<path d="M144.584 49.6335C151.583 47.2515 155.914 41.0643 154.396 33.628C154.358 33.444 154.638 33.3665 154.715 33.5312C157.818 40.6189 151.438 48.3457 144.565 49.7787C144.391 49.8174 144.42 49.6916 144.584 49.6335Z" fill="#263238"/>
<path d="M137.877 60.6524C141.145 57.5539 140.632 53.4969 139.782 49.4882C139.753 49.372 139.956 49.3043 139.985 49.4301C141.164 53.2742 141.831 58.2026 138.109 60.9428C137.926 61.0784 137.713 60.817 137.877 60.6524Z" fill="#263238"/>
<path d="M154.339 32.9405C154.329 32.8921 154.397 32.8824 154.416 32.9211C156.466 36.7458 158.631 43.5624 164.131 43.0783C164.276 43.0686 164.315 43.2719 164.17 43.301C158.931 44.2402 155.016 37.3171 154.339 32.9405Z" fill="#263238"/>
<path d="M139.22 60.0714C139.22 60.0714 134.261 54.9202 131.873 56.7793C129.486 58.6384 133.845 66.5588 137.103 67.2172C140.361 67.8756 141.028 64.8643 141.028 64.8643L139.22 60.0714Z" fill="#EB9481"/>
<path d="M133.179 59.0257C133.13 59.0257 133.13 59.1031 133.179 59.1128C135.48 59.6454 136.93 61.4754 138.051 63.4216C137.287 62.7245 136.34 62.4243 135.393 63.3635C135.344 63.4119 135.412 63.4894 135.47 63.47C136.321 63.1408 136.988 63.1892 137.693 63.8089C138.196 64.2446 138.583 64.8353 138.979 65.3678C139.114 65.5421 139.443 65.3872 139.337 65.1742C139.327 65.1548 139.317 65.1451 139.308 65.1258C138.921 62.3468 136.176 58.832 133.179 59.0257Z" fill="#263238"/>
<path d="M73.9888 220.533H72.8288L72.8385 219.807H73.9985C74.8879 219.807 75.7869 219.797 76.6955 219.787L76.7052 220.514C75.7869 220.523 74.8879 220.533 73.9888 220.533ZM67.9858 220.426C66.6711 220.378 65.3855 220.31 64.1191 220.233L64.1674 219.507C65.4241 219.584 66.7098 219.652 68.0245 219.7L67.9858 220.426ZM81.5482 220.368L81.5192 219.642C82.7856 219.594 84.0713 219.526 85.3763 219.439L85.4246 220.165C84.1099 220.252 82.8146 220.32 81.5482 220.368ZM59.2858 219.836C57.9711 219.71 56.6757 219.555 55.4287 219.39L55.5254 218.674C56.7627 218.838 58.0484 218.984 59.3534 219.11L59.2858 219.836ZM90.2386 219.807L90.1806 219.08C91.447 218.974 92.7326 218.848 94.0183 218.713L94.0957 219.439C92.8003 219.574 91.5146 219.691 90.2386 219.807ZM98.9097 218.877L98.813 218.161C100.079 217.996 101.355 217.822 102.641 217.638L102.747 218.354C101.452 218.538 100.176 218.713 98.9097 218.877ZM50.634 218.664C49.3387 218.441 48.0627 218.19 46.8253 217.928L46.98 217.221C48.2077 217.483 49.474 217.735 50.7597 217.957L50.634 218.664ZM107.523 217.609L107.407 216.892C108.663 216.679 109.93 216.466 111.215 216.234L111.341 216.95C110.055 217.173 108.789 217.396 107.523 217.609ZM42.108 216.776C40.832 216.427 39.5753 216.05 38.3863 215.653L38.6183 214.965C39.7976 215.353 41.035 215.73 42.3013 216.079L42.108 216.776ZM116.097 216.03L115.952 215.314C117.199 215.062 118.465 214.801 119.732 214.52L119.886 215.227C118.61 215.508 117.344 215.779 116.097 216.03ZM124.604 214.162L124.44 213.455C125.687 213.164 126.934 212.855 128.19 212.545L128.364 213.252C127.108 213.561 125.851 213.871 124.604 214.162ZM33.8429 213.958C32.6056 213.435 31.4166 212.884 30.3146 212.312L30.6432 211.664C31.7356 212.225 32.9052 212.777 34.1232 213.29L33.8429 213.958ZM133.053 212.031L132.869 211.334C134.106 211.005 135.344 210.657 136.591 210.308L136.784 211.005C135.527 211.354 134.29 211.693 133.053 212.031ZM26.1289 209.795C25.0075 209.011 23.9732 208.187 23.0742 207.345L23.5672 206.813C24.4468 207.636 25.4425 208.439 26.5349 209.204L26.1289 209.795ZM141.434 209.64L141.221 208.943C142.449 208.575 143.676 208.197 144.914 207.81L145.126 208.507C143.889 208.894 142.652 209.272 141.434 209.64ZM149.737 207.016L149.505 206.328C150.723 205.922 151.941 205.515 153.169 205.089L153.401 205.776C152.173 206.203 150.955 206.619 149.737 207.016ZM157.964 204.169L157.722 203.482C158.93 203.046 160.139 202.601 161.347 202.145L161.598 202.823C160.38 203.288 159.172 203.733 157.964 204.169ZM19.9228 203.569C19.1978 202.388 18.6661 201.168 18.3471 199.938L19.0528 199.754C19.3525 200.916 19.8551 202.068 20.5415 203.182L19.9228 203.569ZM166.122 201.1L165.861 200.422C167.05 199.957 168.249 199.483 169.448 198.999L169.719 199.676C168.51 200.161 167.311 200.635 166.122 201.1ZM174.194 197.827L173.914 197.159C175.093 196.665 176.282 196.162 177.471 195.648L177.761 196.317C176.563 196.83 175.374 197.333 174.194 197.827ZM18.8208 195.106L18.1055 195.009C18.2698 193.789 18.5985 192.511 19.0818 191.204L19.7585 191.456C19.2945 192.705 18.9755 193.935 18.8208 195.106ZM182.189 194.37L181.889 193.712L182.527 193.421C183.484 192.986 184.441 192.55 185.398 192.105L185.707 192.763C184.75 193.208 183.784 193.654 182.827 194.089L182.189 194.37ZM190.067 190.652L189.748 190.003C190.898 189.432 192.049 188.851 193.199 188.251L193.528 188.9C192.387 189.49 191.227 190.071 190.067 190.652ZM21.8562 187.176L21.2375 186.798C21.8755 185.743 22.6102 184.649 23.4222 183.555L24.0022 183.99C23.1998 185.075 22.4748 186.14 21.8562 187.176ZM197.81 186.614L197.462 185.975C198.593 185.356 199.724 184.736 200.845 184.097L201.203 184.726C200.082 185.375 198.951 186.004 197.81 186.614ZM205.398 182.306L205.031 181.676C206.143 181.018 207.245 180.359 208.337 179.682L208.714 180.301C207.622 180.989 206.51 181.647 205.398 182.306ZM27.0472 180.282L26.5059 179.798C27.3372 178.868 28.2362 177.919 29.1835 176.97L29.6959 177.484C28.7582 178.423 27.8689 179.372 27.0472 180.282ZM212.822 177.755L212.436 177.145C213.518 176.457 214.601 175.76 215.674 175.053L216.07 175.663C214.997 176.36 213.915 177.058 212.822 177.755ZM33.1952 174.163L32.7119 173.62C33.6496 172.778 34.6356 171.916 35.6409 171.064L36.1049 171.616C35.0996 172.468 34.1232 173.32 33.1952 174.163ZM220.092 172.972L219.686 172.371C220.749 171.645 221.813 170.919 222.857 170.193L223.272 170.793C222.219 171.519 221.165 172.255 220.092 172.972ZM39.8556 168.576L39.4109 168.004C40.4163 167.21 41.4506 166.426 42.4946 165.642L42.9296 166.223C41.8856 166.997 40.861 167.782 39.8556 168.576ZM227.226 167.985L226.801 167.394C227.845 166.639 228.889 165.884 229.923 165.119L230.358 165.7C229.324 166.465 228.28 167.23 227.226 167.985ZM46.835 163.386L46.4193 162.795C47.473 162.049 48.5363 161.314 49.6094 160.587L50.0154 161.188C48.9423 161.914 47.8887 162.64 46.835 163.386ZM234.234 162.795L233.799 162.214C234.834 161.43 235.849 160.645 236.864 159.851L237.308 160.423C236.293 161.226 235.269 162.011 234.234 162.795ZM54.0464 158.515L53.65 157.905C54.7424 157.198 55.8347 156.501 56.9271 155.814L57.3137 156.434C56.2214 157.121 55.1291 157.808 54.0464 158.515ZM241.107 157.431L240.653 156.86C241.668 156.056 242.664 155.243 243.659 154.429L244.114 154.991C243.128 155.814 242.122 156.627 241.107 157.431ZM61.4414 153.906L61.0644 153.287C62.1761 152.619 63.2974 151.96 64.4091 151.311L64.7765 151.941C63.6648 152.589 62.5531 153.238 61.4414 153.906ZM247.855 151.912L247.391 151.35C248.386 150.517 249.363 149.685 250.339 148.852L250.813 149.404C249.836 150.237 248.85 151.069 247.855 151.912ZM68.9718 149.539L68.6142 148.9C69.7548 148.261 70.8858 147.642 72.0072 147.032L72.3552 147.671C71.2435 148.281 70.1125 148.91 68.9718 149.539ZM254.476 146.228L254.003 145.686C254.979 144.834 255.946 143.972 256.903 143.12L257.386 143.662C256.419 144.514 255.453 145.376 254.476 146.228ZM76.6375 145.405L76.2992 144.756C77.4689 144.146 78.6289 143.556 79.7502 142.994L80.0789 143.643C78.9576 144.214 77.8072 144.805 76.6375 145.405ZM84.4289 141.512L84.1196 140.854C85.3376 140.273 86.5073 139.721 87.6383 139.208L87.938 139.866C86.8069 140.389 85.6373 140.941 84.4289 141.512ZM260.972 140.418L260.479 139.886C261.436 139.014 262.384 138.133 263.321 137.262L263.814 137.794C262.877 138.656 261.929 139.537 260.972 140.418ZM92.3653 137.94L92.085 137.271C93.1966 136.807 94.231 136.39 95.188 136.022L95.449 136.7C94.492 137.058 93.4673 137.475 92.3653 137.94ZM267.352 134.463L266.85 133.941C267.797 133.04 268.725 132.149 269.644 131.259L270.146 131.781C269.228 132.672 268.29 133.563 267.352 134.463ZM273.607 128.392L273.095 127.879C274.023 126.959 274.941 126.049 275.84 125.149L276.352 125.662C275.453 126.562 274.535 127.473 273.607 128.392ZM279.745 122.205L279.223 121.702C280.142 120.762 281.031 119.833 281.911 118.913L282.433 119.417C281.563 120.336 280.664 121.266 279.745 122.205ZM285.777 115.902L285.246 115.408C286.145 114.449 287.024 113.5 287.885 112.571L288.416 113.065C287.566 113.994 286.686 114.934 285.777 115.902ZM291.693 109.482L291.152 108.998C292.041 108.01 292.902 107.052 293.733 106.113L294.274 106.597C293.443 107.536 292.583 108.495 291.693 109.482ZM297.484 102.956L296.942 102.482C297.822 101.465 298.673 100.487 299.475 99.5477L300.026 100.022C299.214 100.961 298.373 101.939 297.484 102.956ZM303.158 96.3137L302.597 95.8489C303.496 94.7741 304.318 93.7768 305.062 92.857L305.623 93.3217C304.879 94.2319 304.047 95.2389 303.158 96.3137ZM308.678 89.5358L308.107 89.0807C309.673 87.1055 310.495 86.0113 310.495 86.0113L311.075 86.447C311.075 86.447 310.253 87.5412 308.678 89.5358Z" fill="#263238"/>
<path d="M312.786 65.3678L310.021 87.6186L322.888 71.7584L377.834 36.2326L312.786 65.3678Z" fill="#FFC727"/>
<path opacity="0.4" d="M312.786 65.3678L310.021 87.6186L322.888 71.7584L377.834 36.2326L312.786 65.3678Z" fill="white"/>
<path d="M326.001 76.0866L310.021 87.6186L322.888 71.7584L326.001 76.0866Z" fill="#FFC727"/>
<path opacity="0.3" d="M326.001 76.0866L310.021 87.6186L322.888 71.7584L326.001 76.0866Z" fill="white"/>
<path d="M322.887 71.7584L377.832 36.2326L339.678 95.5585L322.887 71.7584Z" fill="#FFC727"/>
<path opacity="0.7" d="M322.887 71.7584L377.832 36.2326L339.678 95.5585L322.887 71.7584Z" fill="white"/>
<path d="M312.786 65.3678L284.201 54.9783L377.833 36.2326L312.786 65.3678Z" fill="#FFC727"/>
<path opacity="0.7" d="M312.786 65.3678L284.201 54.9783L377.833 36.2326L312.786 65.3678Z" fill="white"/>
<path d="M73.6113 26.7436C73.6113 41.4032 85.4821 53.2838 100.108 53.2838C106.024 53.2838 111.476 51.3376 115.894 48.0455L128.876 51.3667L123.472 39.2633C125.483 35.5258 126.604 31.2654 126.604 26.7436C126.604 12.084 114.734 0.203339 100.108 0.203339C85.4821 0.203339 73.6113 12.084 73.6113 26.7436Z" fill="white"/>
<path d="M73.6117 26.7436C74.0273 48.8782 98.2812 60.5555 115.981 47.7163L128.983 50.96L128.49 51.5409L123.047 39.4473L122.951 39.2439C131.129 24.4972 122.825 5.35453 106.479 1.27812C90.1031 -3.19529 73.5247 9.76983 73.6117 26.7436ZM73.6117 26.7436C73.6793 4.15387 99.9825 -8.21092 117.402 6.17756C127.02 13.9721 129.978 28.6317 123.888 39.486L123.908 39.0793L129.273 51.2021L129.63 52.0057L128.78 51.783L115.817 48.3844C99.2188 60.9816 73.747 49.1396 73.6117 26.7436Z" fill="#263238"/>
<path d="M95.8649 43.0202L83.9941 30.9749L87.9865 27.0341L94.9176 34.0637L109.331 11.4353L114.058 14.4563L95.8649 43.0202Z" fill="#FFC727"/>
</g>
<defs>
<clipPath id="clip0_316_7753">
<rect width="391" height="415" fill="white"/>
</clipPath>
</defs>
</svg>
