<svg width="51" height="61" viewBox="0 0 51 61" fill="none" xmlns="http://www.w3.org/2000/svg">
<path d="M7.12493 60.4797C6.04747 60.0826 4.88697 59.8293 3.90842 59.2628C0.714896 57.4124 -0.714934 53.5677 0.346631 50.0274C1.40643 46.4933 4.71741 44.1373 8.42318 44.2785C12.5714 44.4364 15.9937 47.7331 16.2153 51.7843C16.4503 56.0896 13.5561 59.7084 9.34873 60.3738C9.2348 60.3914 9.12706 60.4435 9.01666 60.4797C8.38608 60.4797 7.75551 60.4797 7.12493 60.4797Z" fill="#595959"/>
<path d="M16.2303 30.2226C16.2382 34.6946 12.6181 38.3329 8.13431 38.3584C3.67962 38.384 0.0233165 34.7361 0.0127186 30.2552C0.00212057 25.7761 3.61693 22.1405 8.10164 22.1202C12.5563 22.099 16.2223 25.7522 16.2303 30.2226Z" fill="#595959"/>
<path d="M8.14511 16.2118C3.66039 16.2365 0.0296906 12.6327 0.0120273 8.13858C-0.00563598 3.65766 3.61004 0.0150474 8.08946 4.63353e-05C12.5618 -0.0149548 16.2172 3.61443 16.2296 8.08298C16.2437 12.5674 12.6431 16.1871 8.14511 16.2118Z" fill="#595959"/>
<path d="M34.3247 2.21895C39.0134 2.21895 43.7012 2.20748 48.3891 2.23748C48.8439 2.24013 49.3968 2.39102 49.7324 2.67516C50.5846 3.39786 50.1828 4.79737 49.085 5.09122C48.8236 5.16093 48.5401 5.16887 48.2663 5.16975C38.9683 5.17328 29.6704 5.17152 20.3733 5.17593C19.7383 5.17593 19.1536 5.09651 18.7509 4.53265C18.0894 3.60699 18.6555 2.34778 19.7878 2.23483C20.0218 2.21189 20.2603 2.21895 20.4961 2.21895C25.1062 2.21895 29.7154 2.21895 34.3247 2.21895Z" fill="#595959"/>
<path d="M34.3777 27.2874C29.6899 27.2874 25.0011 27.2883 20.3133 27.2848C20.0589 27.2848 19.794 27.2901 19.5529 27.2248C18.857 27.0368 18.4092 26.3671 18.4719 25.662C18.532 24.9896 19.1352 24.409 19.8479 24.3437C19.9848 24.3313 20.1234 24.3357 20.2612 24.3357C29.6378 24.3357 39.0143 24.3348 48.39 24.3357C49.456 24.3357 50.1334 24.8687 50.1731 25.7282C50.2129 26.5832 49.5735 27.2627 48.6779 27.2812C47.7921 27.2998 46.9054 27.2865 46.0187 27.2865C42.139 27.2874 38.2583 27.2874 34.3777 27.2874Z" fill="#595959"/>
<path d="M34.2566 49.4067C29.5688 49.4067 24.88 49.4084 20.1922 49.4049C19.1624 49.404 18.5071 48.8693 18.4683 48.0222C18.4356 47.3056 18.9134 46.6668 19.6199 46.5194C19.8681 46.4673 20.1277 46.4603 20.383 46.4603C29.68 46.4576 38.978 46.4594 48.2751 46.4541C48.9569 46.4541 49.5654 46.5547 49.9602 47.1971C50.4927 48.0636 49.9761 49.2258 48.9702 49.3775C48.7185 49.4155 48.4597 49.4058 48.2036 49.4058C43.5546 49.4067 38.9056 49.4067 34.2566 49.4067Z" fill="#595959"/>
<path d="M27.6329 58.2565C25.1132 58.2573 22.5944 58.2618 20.0748 58.2547C19.2296 58.252 18.599 57.7614 18.4806 57.052C18.3482 56.2622 18.8648 55.5192 19.6712 55.3498C19.824 55.318 19.9838 55.3065 20.1401 55.3065C25.1591 55.3048 30.1782 55.2915 35.1963 55.3277C35.6405 55.3312 36.1554 55.5633 36.5061 55.8492C36.9353 56.1995 37.0413 56.7616 36.7975 57.3079C36.5255 57.9167 36.0565 58.2565 35.3685 58.2565C32.7897 58.2547 30.2109 58.2556 27.6329 58.2565Z" fill="#595959"/>
<path d="M27.7017 33.1914C30.2408 33.1914 32.7799 33.194 35.319 33.1896C36.0026 33.1887 36.4875 33.502 36.778 34.1003C37.0377 34.635 36.9564 35.1901 36.5378 35.5695C36.2287 35.8492 35.7633 36.114 35.3659 36.1175C30.2488 36.1537 25.1308 36.1457 20.0138 36.1378C19.1077 36.136 18.4506 35.4689 18.4674 34.6297C18.4833 33.8223 19.1412 33.1984 20.0261 33.1949C22.5838 33.1852 25.1432 33.1914 27.7017 33.1914Z" fill="#595959"/>
<path d="M27.6982 11.0727C30.2567 11.0736 32.8152 11.0753 35.3729 11.0727C36.0379 11.0718 36.4963 11.3965 36.7762 11.9719C37.0359 12.5057 36.9617 13.0661 36.5369 13.4385C36.2092 13.7252 35.7244 13.9917 35.3075 13.9944C30.2302 14.0323 25.1529 14.0253 20.0756 14.0138C19.1014 14.012 18.4514 13.367 18.4673 12.5049C18.4823 11.6674 19.1279 11.0789 20.0818 11.0753C22.6209 11.0665 25.1591 11.0718 27.6982 11.0727Z" fill="#595959"/>
</svg>
