<svg width="392" height="395" viewBox="0 0 392 395" fill="none" xmlns="http://www.w3.org/2000/svg">
<g clip-path="url(#clip0_312_5431)">
<path d="M0 15.7496V330.314C0 339.004 6.92635 346.063 15.454 346.063H168.02C176.538 346.063 183.455 339.004 183.455 330.314V15.7496C183.455 7.04957 176.538 0 168.02 0H15.454C6.92635 0 0 7.04025 0 15.7496ZM9.65407 27.6668C9.65407 12.2155 15.845 9.97757 23.4789 9.97757H50.8119C52.4318 9.97757 53.7072 11.7866 53.7072 14.0246V14.9943C53.7072 20.2442 56.5559 20.2629 60.1122 20.2629H123.334C126.853 20.2629 129.72 20.2442 129.72 14.9943V14.0246C129.72 11.7866 131.024 9.97757 132.606 9.97757H159.949C167.601 9.97757 173.792 10.7982 173.792 27.6668V320.579C173.792 328.859 167.601 335.554 159.949 335.554H23.4789C15.845 335.554 9.65407 328.859 9.65407 320.579V27.6668Z" fill="#263238"/>
<path d="M9.6543 27.6668V320.578C9.6543 328.859 15.8452 335.554 23.4791 335.554H159.958C167.611 335.554 173.801 328.859 173.801 320.578V27.6668C173.801 10.7982 167.611 9.97757 159.958 9.97757H132.616C131.024 9.97757 129.73 11.7866 129.73 14.0245V14.9943C129.73 20.2442 126.862 20.2629 123.343 20.2629H60.1217C56.5655 20.2629 53.7167 20.2442 53.7167 14.9943V14.0245C53.7167 11.7866 52.432 9.97757 50.8214 9.97757H23.4791C15.8452 9.97757 9.6543 12.2249 9.6543 27.6668Z" fill="white"/>
<path d="M137.336 16.5609C137.42 16.6448 137.513 16.7381 137.597 16.822C137.643 16.8686 137.699 16.9246 137.746 16.9712C138.453 16.2812 139.3 15.9175 140.287 15.9175C141.274 15.9175 142.121 16.2812 142.838 16.9805C142.884 16.9339 142.931 16.8779 142.978 16.8313C143.061 16.7474 143.154 16.6542 143.238 16.5702H143.248C143.248 16.5702 143.248 16.5702 143.248 16.5609C143.238 16.5516 143.238 16.5516 143.229 16.5423C143.117 16.4397 143.005 16.3371 142.894 16.2439C142.661 16.048 142.4 15.8895 142.121 15.7496C141.795 15.5911 141.451 15.4699 141.097 15.4046C140.929 15.3766 140.753 15.358 140.585 15.3393C140.529 15.33 140.147 15.33 140.138 15.33C140.026 15.3393 139.905 15.3393 139.794 15.358C139.468 15.3953 139.161 15.4699 138.853 15.5818C138.63 15.6657 138.425 15.759 138.22 15.8802C138.006 16.0014 137.801 16.1413 137.615 16.3091C137.522 16.3837 137.429 16.4677 137.336 16.5609C137.336 16.5516 137.336 16.5516 137.336 16.5609Z" fill="#C7C7C7"/>
<path d="M142.009 17.8011C142.149 17.6612 142.288 17.5307 142.428 17.3908C141.953 16.9246 141.394 16.6262 140.733 16.5329C139.747 16.4024 138.899 16.7008 138.183 17.3815C138.322 17.5214 138.462 17.6612 138.602 17.8011C139.076 17.3442 139.644 17.0924 140.305 17.0924C140.966 17.0924 141.534 17.3442 142.009 17.8011Z" fill="#C7C7C7"/>
<path d="M139.012 18.2207C139.151 18.3606 139.291 18.5005 139.431 18.6403C139.673 18.4072 139.961 18.2767 140.306 18.2767C140.65 18.2767 140.939 18.4072 141.181 18.6403C141.32 18.5005 141.46 18.3606 141.6 18.2207C140.929 17.5307 139.738 17.4747 139.012 18.2207Z" fill="#C7C7C7"/>
<path d="M139.924 19.0133C139.924 19.2185 140.091 19.3863 140.296 19.3863C140.501 19.3863 140.669 19.2185 140.669 19.0133C140.669 18.8082 140.501 18.6403 140.296 18.6403C140.091 18.6403 139.924 18.8082 139.924 19.0133Z" fill="#C7C7C7"/>
<path d="M163.095 17.3535C163.095 16.7474 162.611 16.2625 162.006 16.2625C161.401 16.2625 160.917 16.7474 160.917 17.3535C160.917 17.9596 161.401 18.4445 162.006 18.4445C162.611 18.4445 163.095 17.9596 163.095 17.3535Z" fill="#C7C7C7"/>
<path d="M159.669 17.3535C159.669 16.7474 159.185 16.2625 158.579 16.2625C157.974 16.2625 157.49 16.7474 157.49 17.3535C157.49 17.9596 157.974 18.4445 158.579 18.4445C159.185 18.4445 159.669 17.9596 159.669 17.3535Z" fill="#C7C7C7"/>
<path d="M156.243 17.3535C156.243 16.7474 155.759 16.2625 155.154 16.2625C154.549 16.2625 154.064 16.7474 154.064 17.3535C154.064 17.9596 154.549 18.4445 155.154 18.4445C155.759 18.4445 156.243 17.9596 156.243 17.3535Z" fill="#C7C7C7"/>
<path d="M152.817 17.3535C152.817 16.7474 152.333 16.2625 151.728 16.2625C151.123 16.2625 150.639 16.7474 150.639 17.3535C150.639 17.9596 151.123 18.4445 151.728 18.4445C152.333 18.4445 152.817 17.9596 152.817 17.3535Z" fill="#C7C7C7"/>
<path d="M149.391 17.3535C149.391 16.7474 148.907 16.2625 148.302 16.2625C147.697 16.2625 147.213 16.7474 147.213 17.3535C147.213 17.9596 147.697 18.4445 148.302 18.4445C148.907 18.4445 149.391 17.9596 149.391 17.3535Z" fill="#C7C7C7"/>
<path d="M21.9707 15.6284H30.8241V19.7407H21.9707V15.6284ZM30.368 16.076H22.4176V19.2838H30.368V16.076Z" fill="#C7C7C7"/>
<path d="M24.3791 19.035L30.0859 19.035L30.0859 16.3214L24.3791 16.3214L24.3791 19.035Z" fill="#C7C7C7"/>
<path d="M21.1735 18.783L21.9648 18.783L21.9648 16.5824L21.1735 16.5824L21.1735 18.783Z" fill="#C7C7C7"/>
<path d="M83.0974 13.7075H100.339C100.925 13.7075 101.4 13.2319 101.4 12.6445C101.4 12.057 100.925 11.5814 100.339 11.5814H83.0974C82.5109 11.5814 82.0361 12.057 82.0361 12.6445C82.0361 13.2319 82.5109 13.7075 83.0974 13.7075Z" fill="white"/>
<path d="M152.464 318.322H153.264V322.014H154.763V320.131H157.417V322.014H158.925V318.322H159.725L156.095 314.564L152.464 318.322Z" fill="#EBEBEB"/>
<path d="M22.4306 315.819L31.1816 315.819L31.1816 314.57L22.4306 314.57L22.4306 315.819Z" fill="#EBEBEB"/>
<path d="M22.4306 318.913L31.1816 318.913L31.1816 317.664L22.4306 317.664L22.4306 318.913Z" fill="#EBEBEB"/>
<path d="M22.4306 322.016L31.1816 322.016L31.1816 320.767L22.4306 320.767L22.4306 322.016Z" fill="#EBEBEB"/>
<path d="M88.5068 318.424L90.9925 321.082L93.4782 318.424L93.0406 318.005L90.9925 320.196L88.9444 318.005L88.5068 318.424Z" fill="#EBEBEB"/>
<path d="M86.4678 319.301C86.4678 316.802 88.4973 314.769 90.9922 314.769C93.4872 314.769 95.5167 316.802 95.5167 319.301C95.5167 321.8 93.4872 323.833 90.9922 323.833C88.4973 323.833 86.4678 321.8 86.4678 319.301ZM87.0636 319.301C87.0636 321.464 88.8231 323.227 90.9922 323.227C93.1521 323.227 94.9209 321.464 94.9209 319.301C94.9209 317.138 93.1614 315.375 90.9922 315.375C88.8231 315.366 87.0636 317.138 87.0636 319.301Z" fill="#EBEBEB"/>
<path d="M18.3457 74.7281L165.121 74.7281L165.121 31.8152L18.3457 31.8152L18.3457 74.7281Z" fill="#FFC727"/>
<path d="M156.765 45.5891L161.615 41.0386L156.765 36.4881L156.011 37.29L160.005 41.0386L156.011 44.7872L156.765 45.5891Z" fill="white"/>
<path d="M21.8311 38.2038C21.8311 38.7354 22.2593 39.1643 22.7899 39.1643C23.3206 39.1643 23.7488 38.7354 23.7488 38.2038C23.7488 37.6723 23.3206 37.2434 22.7899 37.2434C22.2593 37.2434 21.8311 37.6723 21.8311 38.2038Z" fill="white"/>
<path d="M21.8311 41.6074C21.8311 42.1389 22.2593 42.5679 22.7899 42.5679C23.3206 42.5679 23.7488 42.1389 23.7488 41.6074C23.7488 41.0759 23.3206 40.6469 22.7899 40.6469C22.2593 40.6469 21.8311 41.0759 21.8311 41.6074Z" fill="white"/>
<path d="M21.8311 45.0016C21.8311 45.5332 22.2593 45.9621 22.7899 45.9621C23.3206 45.9621 23.7488 45.5332 23.7488 45.0016C23.7488 44.4701 23.3206 44.0412 22.7899 44.0412C22.2593 44.0412 21.8311 44.4795 21.8311 45.0016Z" fill="white"/>
<path d="M149.392 41.0386C132.504 40.4138 115.496 40.4138 98.5986 41.0386C115.496 41.6634 132.504 41.6634 149.392 41.0386Z" fill="white"/>
<path d="M149.392 45.5891C137.988 45.2814 125.438 45.2814 114.034 45.5891C125.438 45.8968 137.988 45.8968 149.392 45.5891Z" fill="white"/>
<path d="M132.588 61.2642C106.409 60.9751 77.0468 60.9751 50.8682 61.2642C77.0468 61.5532 106.419 61.5532 132.588 61.2642Z" fill="white"/>
<path d="M158.431 109.968C135.269 109.8 112.097 109.847 88.9348 109.781C65.7724 109.847 42.6008 109.809 19.4385 109.968C42.6008 110.136 65.7724 110.089 88.9348 110.164C112.097 110.098 135.259 110.136 158.431 109.968Z" fill="#455A64"/>
<path d="M158.431 125.652C135.269 125.484 112.097 125.531 88.9348 125.456C65.7724 125.522 42.6008 125.484 19.4385 125.652C42.6008 125.82 65.7724 125.773 88.9348 125.839C112.097 125.783 135.259 125.82 158.431 125.652Z" fill="#455A64"/>
<path d="M158.431 141.337C135.269 141.169 112.097 141.215 88.9348 141.141C65.7724 141.206 42.6008 141.169 19.4385 141.337C42.6008 141.504 65.7724 141.458 88.9348 141.532C112.097 141.458 135.259 141.504 158.431 141.337Z" fill="#455A64"/>
<path d="M158.431 157.021C135.269 156.853 112.097 156.9 88.9348 156.825C65.7724 156.89 42.6008 156.853 19.4385 157.021C42.6008 157.189 65.7724 157.142 88.9348 157.217C112.097 157.142 135.259 157.189 158.431 157.021Z" fill="#455A64"/>
<path d="M158.431 172.705C135.269 172.537 112.097 172.584 88.9348 172.509C65.7724 172.575 42.6008 172.537 19.4385 172.705C42.6008 172.873 65.7724 172.826 88.9348 172.901C112.097 172.826 135.259 172.873 158.431 172.705Z" fill="#455A64"/>
<path d="M130.447 99.7757C130.242 114.434 130.298 129.084 130.214 143.742C130.298 158.401 130.242 173.05 130.447 187.709C130.651 173.05 130.605 158.401 130.689 143.742C130.596 129.084 130.642 114.434 130.447 99.7757Z" fill="#455A64"/>
<path d="M106.409 99.7757C106.204 114.434 106.26 129.084 106.167 143.742C106.251 158.401 106.195 173.05 106.409 187.709C106.614 173.05 106.558 158.401 106.642 143.742C106.558 129.084 106.614 114.434 106.409 99.7757Z" fill="#455A64"/>
<path d="M82.3714 99.7757C82.1666 114.434 82.2225 129.084 82.1387 143.742C82.2225 158.401 82.1666 173.05 82.3714 187.709C82.5762 173.05 82.5204 158.401 82.6042 143.742C82.5204 129.084 82.5762 114.434 82.3714 99.7757Z" fill="#455A64"/>
<path d="M58.3338 99.7757C58.129 114.434 58.1849 129.084 58.0918 143.742C58.1756 158.401 58.1197 173.05 58.3338 187.709C58.5387 173.05 58.4828 158.401 58.5666 143.742C58.4828 129.084 58.5387 114.434 58.3338 99.7757Z" fill="#455A64"/>
<path d="M34.2962 99.7757C34.0914 114.434 34.1473 129.084 34.0635 143.742C34.1473 158.401 34.0914 173.05 34.2962 187.709C34.501 173.05 34.4452 158.401 34.529 143.742C34.4452 129.084 34.501 114.434 34.2962 99.7757Z" fill="#455A64"/>
<path opacity="0.5" d="M154.931 161.329C150.686 161.329 148.163 145.402 142.149 145.402C136.144 145.402 135.511 157.021 130.447 157.021C125.382 157.021 125.541 136.609 118.745 136.609C111.949 136.609 113.522 144.889 106.409 144.889C99.2969 144.889 101.978 125.652 94.549 125.652C87.1199 125.652 90.1176 152.153 82.372 152.153C77.4658 152.153 75.576 143.733 69.7202 143.733C65.8474 143.733 63.5573 147.948 58.4928 147.948C53.3446 147.948 52.3206 131.76 45.9993 131.76C39.6781 131.76 38.952 141.337 34.2971 141.337C29.6423 141.337 27.9759 125.652 19.4297 125.652V187.7H154.922V161.329H154.931Z" fill="#FFC727"/>
<path opacity="0.3" d="M154.931 161.329C150.686 161.329 148.163 145.402 142.149 145.402C136.144 145.402 135.511 157.021 130.447 157.021C125.382 157.021 125.541 136.609 118.745 136.609C111.949 136.609 113.522 144.889 106.409 144.889C99.2969 144.889 101.978 125.652 94.549 125.652C87.1199 125.652 90.1176 152.153 82.372 152.153C77.4658 152.153 75.576 143.733 69.7202 143.733C65.8474 143.733 63.5573 147.948 58.4928 147.948C53.3446 147.948 52.3206 131.76 45.9993 131.76C39.6781 131.76 38.952 141.337 34.2971 141.337C29.6423 141.337 27.9759 125.652 19.4297 125.652V187.7H154.922V161.329H154.931Z" fill="#FFC727"/>
<path d="M154.921 162.094V160.564C153.637 160.564 151.868 156.844 150.574 154.121C148.358 149.458 146.059 144.628 142.139 144.628C138.378 144.628 136.507 148.162 134.859 151.277C133.565 153.72 132.234 156.247 130.437 156.247C128.854 156.247 127.486 151.342 126.481 147.761C124.842 141.896 123.148 135.826 118.735 135.826C114.797 135.826 113.252 138.203 111.892 140.311C110.57 142.353 109.425 144.115 106.4 144.115C103.663 144.115 102.592 139.621 101.559 135.275C100.339 130.165 99.0823 124.878 94.5392 124.878C90.0334 124.878 88.879 131.536 87.6594 138.576C86.6726 144.274 85.4437 151.37 82.3622 151.37C80.5189 151.37 79.0108 149.617 77.4095 147.771C75.4638 145.514 73.2574 142.959 69.7105 142.959C67.5786 142.959 65.9121 144.003 64.3016 145.01C62.6165 146.074 60.8663 147.165 58.4924 147.165C56.7329 147.165 55.1316 143.313 53.8469 140.218C51.957 135.676 50.002 130.977 45.9896 130.977C42.0051 130.977 40.0407 134.035 38.3184 136.73C37.0523 138.698 35.8607 140.553 34.2874 140.553C32.9468 140.553 31.4386 137.569 30.0981 134.949C27.8172 130.464 24.9685 124.869 19.4199 124.869V126.398C23.693 126.398 26.1601 131.247 28.3385 135.518C30.2005 139.182 31.6714 142.073 34.2874 142.073C37.0151 142.073 38.4674 139.817 40.0035 137.42C41.5582 134.996 43.1688 132.497 45.9896 132.497C48.6335 132.497 50.4396 136.851 52.0408 140.693C53.8283 144.983 55.3643 148.684 58.4831 148.684C61.5087 148.684 63.6127 147.37 65.4653 146.204C66.9455 145.272 68.2302 144.47 69.7105 144.47C72.2706 144.47 74.086 146.586 75.8455 148.629C77.6516 150.727 79.5135 152.89 82.3529 152.89C87.0915 152.89 88.2831 146.036 89.5399 138.772C90.4895 133.252 91.6812 126.389 94.5299 126.389C97.4997 126.389 98.6634 131.247 99.6874 135.536C100.926 140.721 102.089 145.617 106.4 145.617C110.57 145.617 112.172 143.164 113.577 140.991C114.853 139.024 115.951 137.327 118.735 137.327C121.621 137.327 123.287 143.276 124.628 148.069C126.136 153.477 127.337 157.748 130.437 157.748C133.491 157.748 134.999 154.876 136.609 151.846C138.099 149.03 139.635 146.129 142.139 146.129C144.755 146.129 146.999 150.848 148.796 154.634C150.779 158.821 152.333 162.094 154.921 162.094Z" fill="#FFC727"/>
<path opacity="0.5" d="M82.3711 152.153V187.69H106.409V144.889C99.296 144.889 101.977 125.652 94.5481 125.652C87.1097 125.652 90.1167 152.153 82.3711 152.153Z" fill="#FFC727"/>
<path d="M94.5488 128.972C96.6517 128.972 98.3565 127.264 98.3565 125.158C98.3565 123.052 96.6517 121.344 94.5488 121.344C92.4459 121.344 90.7412 123.052 90.7412 125.158C90.7412 127.264 92.4459 128.972 94.5488 128.972Z" fill="#263238"/>
<path d="M92.3799 125.158C92.3799 126.361 93.3574 127.34 94.5583 127.34C95.7593 127.34 96.7368 126.361 96.7368 125.158C96.7368 123.955 95.7593 122.976 94.5583 122.976C93.3481 122.976 92.3799 123.955 92.3799 125.158Z" fill="#FFC727"/>
<path d="M87.6992 117.333L101.515 117.333L101.515 109.612L87.6992 109.612L87.6992 117.333Z" fill="#FFC727"/>
<path d="M96.4198 117.334H92.7891L94.6044 119.955L96.4198 117.334Z" fill="#FFC727"/>
<path d="M98.9239 112.458C96.01 112.299 93.0868 112.299 90.1729 112.458C93.0961 112.616 96.01 112.616 98.9239 112.458Z" fill="white"/>
<path d="M98.9239 113.959C96.01 113.8 93.0868 113.8 90.1729 113.959C93.0961 114.117 96.01 114.108 98.9239 113.959Z" fill="white"/>
<path d="M154.931 100.727C154.782 115.218 154.642 129.718 154.633 144.209L154.493 187.69L154.94 187.336L87.1753 187.429L53.2976 187.504L19.4199 187.7L53.2976 187.895L87.1753 187.97L154.921 188.063H155.368V187.709L155.229 144.227C155.21 129.718 155.08 115.227 154.931 100.727Z" fill="#455A64"/>
<path d="M147.669 194.208C144.457 193.733 141.226 193.723 138.015 194.208C141.236 194.684 144.457 194.684 147.669 194.208Z" fill="#DBDBDB"/>
<path d="M165.115 109.977C163.654 109.502 162.174 109.492 160.712 109.977C162.174 110.453 163.654 110.453 165.115 109.977Z" fill="#DBDBDB"/>
<path d="M165.115 125.652C163.654 125.177 162.174 125.167 160.712 125.652C162.174 126.137 163.654 126.137 165.115 125.652Z" fill="#DBDBDB"/>
<path d="M165.115 141.337C163.654 140.861 162.174 140.852 160.712 141.337C162.174 141.821 163.654 141.821 165.115 141.337Z" fill="#DBDBDB"/>
<path d="M165.115 157.021C163.654 156.545 162.174 156.536 160.712 157.021C162.174 157.506 163.654 157.506 165.115 157.021Z" fill="#DBDBDB"/>
<path d="M165.115 172.705C163.654 172.23 162.174 172.22 160.712 172.705C162.174 173.19 163.654 173.181 165.115 172.705Z" fill="#DBDBDB"/>
<path d="M123.995 194.208C120.783 193.733 117.553 193.723 114.341 194.208C117.553 194.684 120.783 194.684 123.995 194.208Z" fill="#DBDBDB"/>
<path d="M100.32 194.208C97.1083 193.733 93.8778 193.723 90.666 194.208C93.8778 194.684 97.099 194.684 100.32 194.208Z" fill="#DBDBDB"/>
<path d="M76.6365 194.208C73.4247 193.733 70.1942 193.723 66.9824 194.208C70.2035 194.684 73.4247 194.684 76.6365 194.208Z" fill="#DBDBDB"/>
<path d="M52.9627 194.208C49.7508 193.733 46.5204 193.723 43.3086 194.208C46.5297 194.684 49.7508 194.684 52.9627 194.208Z" fill="#DBDBDB"/>
<path d="M29.2879 194.208C26.076 193.733 22.8456 193.723 19.6338 194.208C22.8456 194.684 26.076 194.684 29.2879 194.208Z" fill="#DBDBDB"/>
<path d="M164.994 85.6579C151.365 85.0238 137.633 85.0238 124.004 85.6579C137.624 86.292 151.365 86.292 164.994 85.6579Z" fill="#DBDBDB"/>
<path d="M164.994 89.9753C156.262 89.3412 147.427 89.3412 138.694 89.9753C147.427 90.6094 156.252 90.6094 164.994 89.9753Z" fill="#DBDBDB"/>
<path d="M45.7294 89.9753C36.969 89.5091 28.19 89.4998 19.4297 89.9753C28.19 90.4416 36.969 90.4416 45.7294 89.9753Z" fill="#FFC727"/>
<path d="M164.082 208.625C150.295 207.99 136.405 207.99 122.617 208.625C136.405 209.259 150.295 209.259 164.082 208.625Z" fill="#263238"/>
<path d="M50.7379 208.625C40.3112 208.158 29.8565 208.149 19.4297 208.625C29.8565 209.1 40.3112 209.091 50.7379 208.625Z" fill="#FFC727"/>
<path d="M135.856 221.642C125.019 221.008 114.081 221.008 103.244 221.642C114.081 222.276 125.01 222.276 135.856 221.642Z" fill="#263238"/>
<path d="M135.855 226.444C126.779 225.81 117.599 225.81 108.522 226.444C117.599 227.078 126.769 227.078 135.855 226.444Z" fill="#263238"/>
<path d="M19.4296 241.821C19.4575 241.718 19.2806 216.327 19.3272 216.243C43.467 216.112 67.6162 216.15 91.756 216.094L164.082 215.991H164.427V216.336L164.39 241.812C164.725 242.735 19.7554 241.504 19.4296 241.821ZM19.4296 241.821C18.992 242.101 165.74 240.954 163.766 241.821L163.729 216.345C165.74 217.269 91.4208 216.336 91.7467 216.597C67.8303 216.439 42.9643 216.774 19.5227 216.345L19.4296 241.821Z" fill="#DBDBDB"/>
<path d="M141.907 238.476L160.34 238.476L160.34 220.013L141.907 220.013L141.907 238.476Z" fill="#FFC727"/>
<path d="M23.665 229.242C23.665 234.342 27.7892 238.473 32.8816 238.473C37.9739 238.473 42.0981 234.342 42.0981 229.242C42.0981 224.141 37.9739 220.01 32.8816 220.01C29.4556 220.01 26.4765 221.875 24.8846 224.654C24.1119 226.006 23.665 227.573 23.665 229.242Z" fill="#455A64"/>
<path d="M24.8848 224.654L32.8817 229.242V220.01C29.4558 220.01 26.4767 221.884 24.8848 224.654Z" fill="#FFC727"/>
<path d="M32.882 235.629C36.4039 235.629 39.2591 232.769 39.2591 229.242C39.2591 225.714 36.4039 222.854 32.882 222.854C29.36 222.854 26.5049 225.714 26.5049 229.242C26.5049 232.769 29.36 235.629 32.882 235.629Z" fill="white"/>
<path d="M135.856 254.4C125.019 253.766 114.081 253.766 103.244 254.4C114.081 255.034 125.01 255.034 135.856 254.4Z" fill="#263238"/>
<path d="M135.855 259.202C126.779 258.568 117.599 258.568 108.522 259.202C117.599 259.837 126.769 259.837 135.855 259.202Z" fill="#263238"/>
<path d="M19.4296 274.579C19.4575 274.477 19.2806 249.085 19.3272 249.001C43.467 248.871 67.6162 248.908 91.756 248.852L164.082 248.749H164.427V249.094L164.39 274.57C164.725 275.493 19.7554 274.262 19.4296 274.579ZM19.4296 274.579C18.992 274.859 165.74 273.712 163.766 274.579L163.729 249.104C165.74 250.027 91.4208 249.094 91.7467 249.355C67.8303 249.197 42.9643 249.533 19.5227 249.104L19.4296 274.579Z" fill="#DBDBDB"/>
<path d="M141.907 271.235L160.34 271.235L160.34 252.771L141.907 252.771L141.907 271.235Z" fill="#455A64"/>
<path d="M23.665 262C23.665 262.457 23.7023 262.914 23.7674 263.352C24.4191 267.809 28.2547 271.231 32.8816 271.231C37.9739 271.231 42.0981 267.101 42.0981 262C42.0981 256.899 37.9739 252.768 32.8816 252.768C29.4649 252.768 26.4765 254.633 24.8846 257.412C24.1026 258.764 23.665 260.331 23.665 262Z" fill="#455A64"/>
<path d="M23.665 262C23.665 262.457 23.7023 262.914 23.7674 263.352L32.8816 262V252.768C29.4649 252.768 26.4765 254.633 24.8846 257.412C24.1026 258.764 23.665 260.331 23.665 262Z" fill="#FFC727"/>
<path d="M26.5049 262C26.5049 265.525 29.3536 268.387 32.882 268.387C36.4103 268.387 39.2591 265.525 39.2591 262C39.2591 258.475 36.4103 255.612 32.882 255.612C29.3536 255.612 26.5049 258.475 26.5049 262Z" fill="white"/>
<path d="M135.856 287.158C125.019 286.524 114.081 286.524 103.244 287.158C114.081 287.792 125.01 287.792 135.856 287.158Z" fill="#263238"/>
<path d="M135.855 291.961C126.779 291.326 117.599 291.326 108.522 291.961C117.599 292.595 126.769 292.595 135.855 291.961Z" fill="#263238"/>
<path d="M19.4296 307.337C19.4575 307.235 19.2806 281.843 19.3272 281.759C43.467 281.629 67.6162 281.666 91.756 281.61L164.082 281.507H164.427V281.852L164.39 307.328C164.725 308.251 19.7554 307.02 19.4296 307.337ZM19.4296 307.337C18.992 307.617 165.74 306.47 163.766 307.337L163.729 281.862C165.74 282.785 91.4208 281.852 91.7467 282.114C67.8303 281.955 42.9643 282.291 19.5227 281.862L19.4296 307.337Z" fill="#DBDBDB"/>
<path d="M141.907 303.993L160.34 303.993L160.34 285.53L141.907 285.53L141.907 303.993Z" fill="#FFC727"/>
<path d="M23.665 294.758C23.665 298.684 26.1228 302.05 29.5766 303.374C30.6007 303.775 31.7179 303.99 32.8816 303.99C37.9739 303.99 42.0981 299.859 42.0981 294.758C42.0981 289.657 37.9739 285.526 32.8816 285.526C29.4556 285.526 26.4765 287.391 24.8846 290.17C24.1119 291.522 23.665 293.089 23.665 294.758Z" fill="#455A64"/>
<path d="M23.665 294.758C23.665 298.684 26.1228 302.05 29.5766 303.374L32.8816 294.758V285.526C29.4556 285.526 26.4765 287.391 24.8846 290.17C24.1119 291.522 23.665 293.089 23.665 294.758Z" fill="#FFC727"/>
<path d="M26.5049 294.758C26.5049 298.283 29.3536 301.146 32.882 301.146C36.4103 301.146 39.2591 298.283 39.2591 294.758C39.2591 291.233 36.4103 288.371 32.882 288.371C29.3536 288.371 26.5049 291.233 26.5049 294.758Z" fill="white"/>
<path d="M258.071 187.01C259.645 189.033 261.46 190.879 264.15 191.178C264.942 191.262 265.742 191.178 266.534 191.262C267.837 191.42 268.731 192.064 269.69 192.866C270.732 193.733 271.756 194.572 272.948 195.253C276.551 197.313 281.234 198.293 284.734 195.682C288.234 200.698 295.3 202.601 300.895 200.036C301.631 199.691 302.338 199.272 302.99 198.787C303.893 198.106 304.712 196.996 305.876 196.754C307.003 196.512 308.38 197.015 309.498 197.183C310.438 197.314 311.397 197.407 312.346 197.332C314.851 197.136 317.485 195.29 317.429 192.698C320.576 193.929 324.104 192.213 326.348 189.807C329.271 186.665 330.584 182.356 330.118 178.132C335.406 177.144 339.121 171.558 337.948 166.28C342.919 164.481 345.219 158.177 342.565 153.589C345.684 150.354 346.866 146.008 345.982 141.598C345.786 140.619 345.824 139.835 346.01 139.043C348.151 136.945 349.706 134.38 349.51 131.191C349.315 127.946 347.09 125.093 343.952 124.272C344.129 123.069 344.26 120.514 343.031 117.092C341.811 113.698 338.944 111.049 335.406 110.425C335.49 101.734 328.08 94.9734 319.477 95.8686C319.952 91.7284 317.271 87.8399 313.687 85.9004C309.33 83.5412 304.117 84.1193 299.452 85.2383C299.071 81.7508 296.371 78.8601 292.712 78.6363C289.966 78.4685 287.415 79.9232 285.851 82.0865C283.123 80.9769 280.033 80.3241 277.249 81.5084C274.829 82.5248 273.06 84.7907 272.995 87.383C266.031 85.229 259.188 91.1223 260.203 98.2558C256.274 96.1297 251.285 96.2043 247.533 98.7873C243.539 101.538 241.733 106.704 242.748 111.366C238.623 110.816 234.527 113.092 232.414 116.691C229.9 120.971 230.422 126.342 232.339 130.744C228.448 132.329 225.934 136.413 225.972 140.637C226.009 144.488 228.02 147.911 230.794 150.456C227.107 148.946 224.231 146.176 223.924 141.654C223.56 136.366 227.452 132.161 232.246 130.613C232.284 130.604 232.265 130.538 232.228 130.548C226.837 131.667 222.704 136.012 223.011 141.747C223.318 147.286 227.498 150.811 232.433 152.013C229.025 155.212 227.443 160.191 228.765 164.76C230.114 169.404 234.211 172.761 238.884 173.582C237.609 184.277 248.426 193.621 258.071 187.01ZM346.475 137.607C346.522 137.495 346.55 137.401 346.596 137.29C346.959 136.45 347.267 135.592 347.416 134.679C347.751 132.655 347.444 130.52 346.578 128.664C346.168 127.769 345.628 126.93 344.976 126.193C344.613 125.792 343.785 125.055 343.785 125.055C343.785 125.055 343.831 124.897 343.878 124.645C346.969 126.193 348.803 129.168 348.486 132.683C348.319 134.595 347.518 136.161 346.475 137.607ZM286.763 82.5155C286.745 82.5061 286.736 82.5061 286.717 82.4968C288.076 80.5945 289.966 79.2238 292.638 79.3357C296.464 79.5035 298.13 82.1798 298.987 85.3689C298.903 85.3875 298.819 85.4062 298.736 85.4248C297.479 82.4875 294.341 80.6598 291.148 80.8929C289.51 81.0048 288.03 81.6016 286.763 82.5155ZM240.122 178.319C242.701 185.098 250.298 189.061 257.68 186.506C257.699 186.534 257.727 186.571 257.755 186.599C248.901 191.29 242.44 186.002 240.122 178.319Z" fill="#263238"/>
<path d="M287.155 229.876C268.303 270.29 236.334 325.008 221.662 327.292C212.799 328.672 197.811 329.866 186.416 319.124C161.559 295.672 144.532 262.168 135.092 244.963C130.8 237.159 178.717 202.396 184.749 209.762C198.872 227.022 214.801 260.452 217.407 260.349C227.08 259.967 241.408 236.403 264.821 214.546C293.02 188.212 295.217 212.606 287.155 229.876Z" fill="#AD6359"/>
<path d="M141.925 255.901C130.083 243.248 114.536 224.393 114.499 216.457C114.462 208.13 115.495 178.86 117.925 172.136C120.355 165.413 133.36 148.069 139.328 145.784C144.104 143.957 146.664 149.869 141.106 160.611C134.896 172.621 136.796 177.47 136.507 181.312C136.209 185.303 142.875 202.274 148.479 203.71C151.784 204.559 158.636 204.522 160.191 198.554C161.745 192.595 160.181 187.187 162.49 176.78C164.287 168.696 171.046 163.66 173.82 165.078C176.603 166.495 174.295 171.335 176.129 183.457C177.274 191.019 178.391 196.446 187.384 207.496C195.26 217.166 195.753 230.557 195.753 230.557L141.925 255.901Z" fill="#AD6359"/>
<path d="M113.949 197.798C114.275 193.239 111.166 179.41 112.246 173.386C113.316 167.362 120.382 145.197 127.113 143.388C135.575 141.113 133.062 159.147 131.256 166.868C129.45 174.598 134.393 188.539 134.393 188.539L122.747 193.5L113.949 197.798Z" fill="#AD6359"/>
<path d="M136.078 191.719C133.993 184.706 131.405 177.582 131.312 170.216C131.666 164.947 132.727 159.753 132.978 154.429C133.053 151.277 133.248 147.836 131.656 144.983C131.107 144.041 130.13 143.36 129.068 143.239C130.111 143.463 130.968 144.181 131.442 145.104C132.774 147.976 132.457 151.286 132.271 154.373C131.917 158.578 131.228 162.746 130.688 166.97C129.59 175.531 133.053 183.895 136.078 191.719Z" fill="#263238"/>
<path d="M114.34 201.771C113.391 197.323 106.623 185.052 105.971 179C105.329 172.948 105.915 149.766 111.817 146.083C119.237 141.458 121.825 159.371 122.244 167.26C122.663 175.149 131.219 187 131.219 187L121.518 195.113L114.34 201.771Z" fill="#AD6359"/>
<path d="M133.704 189.537C129.775 183.447 125.334 177.386 123.231 170.393C122.123 165.273 121.685 160.042 120.456 154.904C119.656 151.892 118.902 148.554 116.593 146.279C115.811 145.533 114.684 145.169 113.642 145.365C114.694 145.272 115.718 145.719 116.425 146.456C118.483 148.815 119.097 152.06 119.767 155.053C120.587 159.147 121.08 163.315 121.732 167.483C123.026 175.932 128.649 182.963 133.704 189.537Z" fill="#263238"/>
<path d="M132.112 200.242C137.549 204.745 145.127 206.433 152.026 206.881C157.267 207.161 162.471 208.298 167.144 210.751C168.736 211.506 170.217 212.457 171.715 213.39C166.232 208.82 159.194 206.303 152.091 205.967C145.183 205.491 137.996 204.102 132.112 200.242Z" fill="#263238"/>
<path d="M114.917 148.2L139.551 215.031C140.23 216.877 142.306 218.071 144.178 217.698L177.646 211.021C179.517 210.648 180.476 208.848 179.796 207.002L155.163 140.171C154.483 138.325 152.417 137.131 150.545 137.504L117.077 144.181C115.206 144.554 114.238 146.353 114.917 148.2Z" fill="#37474F"/>
<path d="M116.965 147.799L141.598 214.63C142.278 216.476 144.354 217.67 146.225 217.297L179.693 210.62C181.565 210.247 182.523 208.447 181.844 206.601L157.211 139.77C156.531 137.924 154.464 136.73 152.593 137.103L119.125 143.78C117.254 144.143 116.276 145.943 116.965 147.799ZM120.009 149.906C118.799 146.624 119.981 145.878 121.657 145.542L127.653 144.348C128.006 144.274 128.425 144.61 128.602 145.085L128.677 145.29C129.086 146.409 129.719 146.288 130.492 146.129L144.363 143.36C145.136 143.201 145.76 143.08 145.35 141.961L145.276 141.756C145.099 141.281 145.248 140.842 145.592 140.768L151.588 139.574C153.263 139.238 154.688 139.145 156.01 142.726L178.949 204.96C179.6 206.722 178.762 208.41 177.087 208.746L147.147 214.714C145.471 215.049 143.591 213.893 142.939 212.14L120.009 149.906Z" fill="#263238"/>
<path d="M120.009 149.906L142.948 212.14C143.6 213.902 145.48 215.049 147.156 214.714L177.096 208.746C178.772 208.41 179.61 206.713 178.958 204.96L156.019 142.726C154.697 139.145 153.273 139.238 151.597 139.574L145.601 140.768C145.257 140.833 145.108 141.281 145.285 141.756L145.359 141.961C145.769 143.08 145.145 143.211 144.373 143.36L130.501 146.129C129.719 146.288 129.096 146.409 128.686 145.29L128.611 145.085C128.435 144.61 128.016 144.283 127.662 144.348L121.666 145.542C119.991 145.878 118.808 146.624 120.009 149.906Z" fill="white"/>
<path d="M147.156 141.961C147.184 141.98 147.212 141.989 147.231 142.008C147.249 142.017 147.259 142.027 147.277 142.036C147.38 141.859 147.538 141.747 147.752 141.7C147.966 141.654 148.18 141.7 148.394 141.812C148.404 141.803 148.404 141.784 148.413 141.775C148.422 141.756 148.441 141.728 148.45 141.71C148.45 141.71 148.45 141.71 148.441 141.71C148.413 141.691 148.376 141.672 148.348 141.663C148.283 141.635 148.208 141.607 148.143 141.588C148.059 141.57 147.975 141.56 147.892 141.56C147.854 141.56 147.817 141.57 147.771 141.57C147.761 141.57 147.678 141.588 147.668 141.588C147.64 141.598 147.622 141.598 147.594 141.607C147.529 141.626 147.463 141.663 147.408 141.7C147.361 141.728 147.324 141.756 147.296 141.793C147.259 141.831 147.221 141.868 147.193 141.915C147.184 141.915 147.166 141.933 147.156 141.961Z" fill="#C7C7C7"/>
<path d="M148.274 142.017C148.292 141.98 148.311 141.943 148.329 141.915C148.19 141.84 148.041 141.793 147.892 141.812C147.668 141.831 147.501 141.924 147.398 142.101C147.445 142.129 147.482 142.148 147.519 142.176C147.585 142.055 147.696 141.98 147.836 141.952C147.994 141.915 148.134 141.943 148.274 142.017Z" fill="#C7C7C7"/>
<path d="M147.649 142.241C147.687 142.26 147.733 142.288 147.77 142.316C147.808 142.26 147.854 142.213 147.938 142.204C148.012 142.185 148.087 142.204 148.161 142.241C148.18 142.204 148.199 142.166 148.217 142.138C148.022 142.008 147.752 142.045 147.649 142.241Z" fill="#C7C7C7"/>
<path d="M147.911 142.363C147.929 142.41 147.976 142.438 148.023 142.428C148.07 142.419 148.088 142.372 148.079 142.335C148.06 142.288 148.013 142.26 147.967 142.269C147.92 142.278 147.901 142.325 147.911 142.363Z" fill="#C7C7C7"/>
<path d="M152.872 141.001C152.826 140.87 152.677 140.786 152.547 140.814C152.416 140.842 152.342 140.964 152.398 141.094C152.444 141.225 152.593 141.309 152.724 141.281C152.854 141.253 152.919 141.131 152.872 141.001Z" fill="#C7C7C7"/>
<path d="M152.119 141.15C152.072 141.019 151.923 140.936 151.793 140.964C151.662 140.991 151.588 141.113 151.644 141.243C151.69 141.374 151.839 141.458 151.97 141.43C152.1 141.402 152.165 141.281 152.119 141.15Z" fill="#C7C7C7"/>
<path d="M151.365 141.299C151.318 141.169 151.169 141.085 151.039 141.113C150.908 141.141 150.834 141.262 150.89 141.392C150.936 141.523 151.085 141.607 151.216 141.579C151.346 141.551 151.411 141.43 151.365 141.299Z" fill="#C7C7C7"/>
<path d="M150.611 141.448C150.564 141.318 150.415 141.234 150.285 141.262C150.155 141.29 150.08 141.411 150.136 141.542C150.183 141.672 150.331 141.756 150.462 141.728C150.592 141.7 150.657 141.579 150.611 141.448Z" fill="#C7C7C7"/>
<path d="M149.866 141.598C149.819 141.467 149.67 141.383 149.54 141.411C149.409 141.439 149.335 141.56 149.391 141.691C149.447 141.821 149.586 141.905 149.717 141.877C149.838 141.849 149.912 141.728 149.866 141.598Z" fill="#C7C7C7"/>
<path d="M121.769 146.81L123.714 146.419L124.04 147.295L122.094 147.687L121.769 146.81ZM123.649 146.54L121.908 146.885L122.16 147.566L123.9 147.22L123.649 146.54Z" fill="#C7C7C7"/>
<path d="M122.355 146.847L123.612 146.605L123.817 147.174L122.57 147.426L122.355 146.847Z" fill="#C7C7C7"/>
<path d="M121.843 147.51L122.02 147.482L121.843 147.015L121.676 147.043L121.843 147.51Z" fill="#C7C7C7"/>
<path d="M135.035 143.724L138.814 142.968C138.945 142.94 139.01 142.819 138.963 142.698C138.917 142.577 138.777 142.493 138.647 142.521L134.867 143.276C134.737 143.304 134.672 143.425 134.718 143.546C134.765 143.668 134.904 143.752 135.035 143.724Z" fill="white"/>
<path d="M174.107 205.407L174.275 205.37L174.573 206.163L174.899 206.097L174.75 205.697L175.336 205.575L175.476 205.976L175.811 205.911L175.522 205.128L175.699 205.09L174.601 204.456L174.107 205.407Z" fill="#EBEBEB"/>
<path d="M145.378 210.564L147.296 210.182L147.203 209.921L145.285 210.303L145.378 210.564Z" fill="#EBEBEB"/>
<path d="M145.62 211.226L147.548 210.844L147.445 210.573L145.527 210.956L145.62 211.226Z" fill="#EBEBEB"/>
<path d="M145.863 211.888L147.79 211.506L147.687 211.235L145.77 211.618L145.863 211.888Z" fill="#EBEBEB"/>
<path d="M160.078 208.233L160.832 208.69L161.167 208.009L161.046 207.944L160.767 208.494L160.143 208.121L160.078 208.233Z" fill="#EBEBEB"/>
<path d="M159.706 208.503C159.51 207.972 159.799 207.45 160.339 207.347C160.888 207.235 161.493 207.58 161.689 208.112C161.884 208.643 161.596 209.165 161.056 209.268C160.506 209.38 159.901 209.035 159.706 208.503ZM159.836 208.475C160.004 208.932 160.534 209.231 161.009 209.137C161.484 209.044 161.735 208.587 161.558 208.13C161.391 207.673 160.86 207.375 160.385 207.468C159.911 207.571 159.659 208.018 159.836 208.475Z" fill="#EBEBEB"/>
<path d="M153.691 147.276L154.399 146.102L152.974 145.346L152.872 145.542L154.045 146.167L153.459 147.137L153.691 147.276Z" fill="#DBDBDB"/>
<path d="M123.51 151.612C123.547 151.724 123.677 151.799 123.798 151.771C123.91 151.752 123.975 151.64 123.928 151.529C123.891 151.417 123.761 151.342 123.64 151.37C123.528 151.389 123.472 151.501 123.51 151.612Z" fill="#DBDBDB"/>
<path d="M123.78 152.33C123.817 152.442 123.947 152.517 124.068 152.489C124.18 152.47 124.245 152.358 124.199 152.247C124.162 152.135 124.031 152.06 123.91 152.088C123.798 152.116 123.733 152.219 123.78 152.33Z" fill="#DBDBDB"/>
<path d="M124.04 153.058C124.077 153.17 124.207 153.244 124.328 153.216C124.44 153.198 124.505 153.086 124.459 152.974C124.422 152.862 124.291 152.787 124.17 152.815C124.058 152.834 124.003 152.946 124.04 153.058Z" fill="#DBDBDB"/>
<path d="M145.331 148.032C141.142 148.712 136.98 149.542 132.894 150.512C137.083 149.841 141.244 149.011 145.331 148.032Z" fill="#DBDBDB"/>
<path d="M157.053 151.137C154.008 151.585 150.992 152.181 148.06 152.927C151.104 152.48 154.12 151.883 157.053 151.137Z" fill="#DBDBDB"/>
<path d="M133.397 159.389C131.321 159.641 129.263 160.051 127.299 160.602C129.375 160.359 131.423 159.949 133.397 159.389Z" fill="#DBDBDB"/>
<path d="M133.639 160.051C131.563 160.303 129.505 160.714 127.541 161.264C129.617 161.012 131.665 160.611 133.639 160.051Z" fill="#DBDBDB"/>
<path d="M157.387 152.051C155.414 152.284 153.477 152.666 151.615 153.198C153.589 152.974 155.525 152.582 157.387 152.051Z" fill="#DBDBDB"/>
<path d="M144.745 157.338L150.415 165.385L153.692 174.272C158.747 173.265 161.381 168.462 159.575 163.558C157.769 158.653 152.202 155.492 147.138 156.499C146.263 156.667 145.462 156.956 144.745 157.338Z" fill="#FFC727"/>
<path d="M147.622 173.619C149.54 174.402 151.653 174.673 153.683 174.263L150.406 165.376L147.622 173.619Z" fill="#263238"/>
<path d="M141.245 167.204C142.325 170.141 144.755 172.453 147.622 173.619L150.406 165.376L141.227 161.208C140.51 162.998 140.463 165.096 141.245 167.204Z" fill="#37474F"/>
<path d="M139.988 160.77L150.536 165.553L144.029 156.312C142.13 157.319 140.733 158.886 139.988 160.77Z" fill="#C7C7C7"/>
<path d="M145.825 166.29C146.728 168.742 149.512 170.327 152.044 169.824C154.576 169.32 155.889 166.924 154.986 164.462C154.083 162.01 151.299 160.424 148.767 160.928C146.244 161.441 144.922 163.837 145.825 166.29Z" fill="white"/>
<path d="M134.616 160.014L135.603 159.818L135.25 158.867L134.263 159.063L134.616 160.014Z" fill="#FFC727"/>
<path d="M134.319 161.898C132.242 162.15 130.185 162.56 128.221 163.11C130.297 162.858 132.345 162.457 134.319 161.898Z" fill="#DBDBDB"/>
<path d="M134.561 162.56C132.485 162.812 130.427 163.222 128.463 163.772C130.539 163.52 132.587 163.11 134.561 162.56Z" fill="#DBDBDB"/>
<path d="M135.538 162.523L136.525 162.327L136.171 161.366L135.193 161.562L135.538 162.523Z" fill="#263238"/>
<path d="M135.24 164.406C133.164 164.658 131.107 165.068 129.143 165.618C131.228 165.367 133.276 164.956 135.24 164.406Z" fill="#DBDBDB"/>
<path d="M135.482 165.068C133.406 165.32 131.348 165.73 129.384 166.28C131.469 166.029 133.517 165.618 135.482 165.068Z" fill="#DBDBDB"/>
<path d="M136.469 165.031L137.456 164.835L137.102 163.875L136.115 164.07L136.469 165.031Z" fill="#37474F"/>
<path d="M136.161 166.915C134.085 167.166 132.028 167.577 130.063 168.127C132.149 167.875 134.197 167.465 136.161 166.915Z" fill="#DBDBDB"/>
<path d="M136.413 167.577C134.337 167.828 132.28 168.239 130.315 168.789C132.391 168.537 134.44 168.127 136.413 167.577Z" fill="#DBDBDB"/>
<path d="M137.391 167.539L138.378 167.343L138.024 166.383L137.037 166.579L137.391 167.539Z" fill="#C7C7C7"/>
<path d="M155.442 206.61L157.593 206.181L150.043 185.685L147.883 186.114L155.442 206.61Z" fill="#EBEBEB"/>
<path d="M165.757 175.344C159.948 176.342 153.878 177.554 148.171 178.85C153.989 177.843 160.059 176.64 165.757 175.344Z" fill="#263238"/>
<path d="M166.175 176.482C162.871 176.976 159.594 177.629 156.4 178.431C159.715 177.936 162.982 177.284 166.175 176.482Z" fill="#263238"/>
<path d="M140.891 180.305C138.564 180.65 136.273 181.107 134.021 181.676C136.357 181.331 138.647 180.874 140.891 180.305Z" fill="#FFC727"/>
<path d="M169.908 194.32L170.616 194.18L166.501 183.028L165.803 183.168L169.908 194.32Z" fill="#FFC727"/>
<path d="M172.906 202.451L173.613 202.312L170.969 195.141L170.262 195.281L172.906 202.451Z" fill="#455A64"/>
<path d="M164.816 190.385L165.524 190.245L163.113 183.709L162.405 183.848L164.816 190.385Z" fill="#FFC727"/>
<path d="M169.518 203.132L170.216 202.992L165.877 191.215L165.17 191.355L169.518 203.132Z" fill="#455A64"/>
<path d="M160.124 187.532L160.822 187.392L159.714 184.38L159.007 184.52L160.124 187.532Z" fill="#FFC727"/>
<path d="M166.119 203.813L166.827 203.673L161.176 188.352L160.478 188.492L166.119 203.813Z" fill="#455A64"/>
<path d="M158.672 193.49L159.379 193.35L156.316 185.061L155.618 185.201L158.672 193.49Z" fill="#FFC727"/>
<path d="M162.721 204.484L163.429 204.344L159.733 194.32L159.025 194.46L162.721 204.484Z" fill="#455A64"/>
<path d="M154.632 192.418L155.339 192.278L152.928 185.732L152.221 185.881L154.632 192.418Z" fill="#FFC727"/>
<path d="M159.333 205.165L160.031 205.025L155.693 193.248L154.985 193.388L159.333 205.165Z" fill="#455A64"/>
<path d="M154.082 200.829L154.79 200.689L149.53 186.413L148.822 186.553L154.082 200.829Z" fill="#FFC727"/>
<path d="M155.934 205.846L156.642 205.706L155.143 201.65L154.436 201.789L155.934 205.846Z" fill="#455A64"/>
<path d="M147.668 193.294L148.366 193.155L146.132 187.093L145.434 187.233L147.668 193.294Z" fill="#FFC727"/>
<path d="M152.537 206.517L153.244 206.377L148.729 194.115L148.021 194.255L152.537 206.517Z" fill="#455A64"/>
<path d="M148.339 205.016L149.046 204.876L142.744 187.765L142.036 187.905L148.339 205.016Z" fill="#FFC727"/>
<path d="M149.149 207.198L149.847 207.058L149.4 205.846L148.692 205.986L149.149 207.198Z" fill="#455A64"/>
<path d="M139.988 192.25L140.695 192.11L139.345 188.446L138.638 188.585L139.988 192.25Z" fill="#FFC727"/>
<path d="M145.751 207.869L146.458 207.729L141.049 193.071L140.342 193.211L145.751 207.869Z" fill="#455A64"/>
<path d="M163.28 179.848C161.204 180.1 159.147 180.51 157.183 181.06C159.268 180.818 161.316 180.408 163.28 179.848Z" fill="#DBDBDB"/>
<path d="M163.523 180.51C161.447 180.762 159.389 181.172 157.425 181.722C159.51 181.471 161.558 181.07 163.523 180.51Z" fill="#DBDBDB"/>
<path d="M164.509 180.473L165.496 180.277L165.142 179.326L164.155 179.522L164.509 180.473Z" fill="#FFC727"/>
<path d="M153.096 181.881C151.02 182.133 148.962 182.543 146.998 183.093C149.083 182.841 151.132 182.44 153.096 181.881Z" fill="#DBDBDB"/>
<path d="M153.338 182.543C151.262 182.795 149.205 183.205 147.24 183.755C149.326 183.503 151.374 183.093 153.338 182.543Z" fill="#DBDBDB"/>
<path d="M154.324 182.506L155.311 182.31L154.958 181.349L153.971 181.545L154.324 182.506Z" fill="#455A64"/>
<path d="M116.267 221.968C114.377 217.949 107.963 202.134 107.591 195.43C107.228 188.725 109.22 163.194 116.016 159.352C124.553 154.522 126.396 174.365 126.405 183.074C126.415 191.784 134.179 201.025 134.179 201.025L121.732 212.056L116.267 221.968Z" fill="#AD6359"/>
<path d="M125.288 169.432C125.13 172.304 125.288 175.251 125.418 178.123C125.549 180.837 125.465 183.681 126.005 186.347C126.545 189.024 127.699 191.476 129.068 193.817C129.747 194.964 130.483 196.064 131.255 197.146C132.103 198.33 133.071 199.44 133.89 200.633C133.974 200.764 134.188 200.633 134.104 200.503C132.661 198.311 131.46 195.85 130.324 193.481C129.133 191.019 128.23 188.362 127.69 185.685C126.61 180.314 126.694 174.757 125.67 169.376C125.623 169.162 125.297 169.227 125.288 169.432Z" fill="#263238"/>
<path d="M126.005 186.347C126.088 180.249 127.69 154.913 116.77 158.662C110.681 162.205 109.015 175.475 108.316 182.011C109.48 175.922 111.593 162.69 117.151 159.464C126.554 156.396 125.427 180.799 126.005 186.347Z" fill="#263238"/>
<path d="M196.264 223.479L142.231 268.07C142.231 268.07 170.97 312.037 190.455 324.448C199.653 330.304 218.31 330.323 224.528 328.001C230.338 325.828 262.931 293.257 287.331 234.604C306.276 189.042 276.104 200.214 264.774 212.028C252.569 224.757 220.404 257.403 218.635 256.871C216.857 256.33 196.264 223.479 196.264 223.479Z" fill="#FFC727"/>
<path d="M203.274 239.639C195.138 245.998 187.197 252.6 179.293 259.249C175.42 262.513 160.543 276.043 156.251 279.857C156.084 280.006 156.493 280.454 156.67 280.314C160.888 277.059 176.621 263.8 180.438 260.48C188.211 253.71 195.938 246.894 203.46 239.853C203.6 239.714 203.423 239.527 203.274 239.639Z" fill="#263238"/>
<path opacity="0.1" d="M196.022 326.985C205.779 330.239 219.399 329.913 224.528 327.992C230.338 325.819 262.94 293.238 287.34 234.604C297.739 209.613 293.354 201.687 285.395 201.594C273.879 217.642 226.065 284.585 196.022 326.985Z" fill="black"/>
<path d="M231.576 382.719H374.218C367.227 348.879 336.803 227.032 311.993 208.97C296.743 197.873 276.588 205.566 273.162 210.303C259.095 229.755 235.672 351.593 231.576 382.719Z" fill="#EBEBEB"/>
<path d="M270.807 213.912C270.826 213.846 270.928 213.865 270.919 213.93C270.23 219.88 269.066 233.69 279.912 233.531C284.278 233.466 288.356 231.368 291.772 229.27C295.282 227.116 298.438 224.561 301.305 221.791C304.489 218.723 307.766 215.497 310.308 211.991C310.419 211.842 310.68 212.019 310.568 212.168C307.841 215.655 305.532 219.311 302.413 222.565C299.406 225.689 296.017 228.57 292.117 230.855C288.467 233 284.129 235.079 279.511 234.958C275.117 234.837 272.026 232.291 270.9 228.701C269.42 223.973 269.746 218.583 270.807 213.912Z" fill="#263238"/>
<path d="M307.449 204.214C307.449 204.214 297.991 254.764 296.203 273.544C294.416 292.324 300.104 382.719 300.104 382.719H376.61C376.61 382.719 353.429 271.539 330.686 228.486C317.997 204.456 307.449 204.214 307.449 204.214Z" fill="#FFC727"/>
<path d="M274.828 207.645C274.828 207.645 259.551 264.835 258.546 270.905C257.54 276.976 252.467 383.176 252.467 383.176L227.461 382.999C227.461 383.008 253.789 222.966 274.828 207.645Z" fill="#FFC727"/>
<path d="M331.384 224.663C363.586 268.098 399.577 354.987 388.48 370.009C376.126 386.738 331.329 325.903 331.962 322.807C332.446 320.467 320.892 269.143 311.909 231.731C302.944 194.358 323.415 213.921 331.384 224.663Z" fill="#AD6359"/>
<path d="M331.608 322.816C330.742 317.38 314.73 249.589 310.429 228.263C306.128 206.937 313.64 201.575 331.478 223.069C349.306 244.562 385.371 313.053 390.966 347.499C396.347 380.677 380.009 378.374 360.505 360.685C344.53 346.203 331.608 322.816 331.608 322.816Z" fill="#FFC727"/>
<path d="M331.608 322.816C326.972 296.502 321.088 270.42 313.957 244.674C318.584 270.989 324.486 297.08 331.608 322.816Z" fill="#263238"/>
<path d="M313.054 248.535C313.212 252.06 314.692 255.491 316.945 258.186C315.837 254.913 314.45 251.705 313.054 248.535Z" fill="#263238"/>
<path d="M388.48 370.009C378.323 380.929 354.984 379.996 295.989 383.167C287.825 383.605 269.233 326.733 277.928 325.819C288.877 324.663 331.617 322.555 334.764 322.798C361.296 324.831 395.369 362.606 388.48 370.009Z" fill="#AD6359"/>
<path d="M288.243 327.861C288.243 327.861 266.533 320.84 253.984 320.681C237.18 320.476 222.592 327.227 216.653 330.426C204.243 337.102 178.855 361.841 184.693 370.41C189.98 378.169 214.651 351.565 214.651 351.565C214.651 351.565 185.028 374.523 193.099 382.691C201.18 390.86 228.066 358.353 228.066 358.353C228.066 358.353 198.154 382.626 207.808 389.731C215.107 395.103 241.118 367.025 241.118 367.025C241.118 367.025 215.554 388.072 222.825 393.909C230.859 400.362 256.488 375.968 256.488 375.968C277.463 387.708 292.237 384.696 302.496 381.311C304.991 380.491 288.243 327.861 288.243 327.861Z" fill="#AD6359"/>
<path d="M224.399 342.967C220.824 345.541 217.184 348.115 213.841 350.996C210.509 353.877 207.269 356.88 204.206 360.06C196.712 367.855 193.239 373.917 193.5 373.562C199.533 365.272 211.328 354.773 214.661 351.891C217.994 349.019 221.177 345.97 224.51 343.098C224.594 343.014 224.482 342.902 224.399 342.967Z" fill="#263238"/>
<path d="M235.002 354.847C230.58 358.325 226.056 361.617 221.782 365.3C217.528 368.956 213.813 372.807 209.82 376.751C209.512 377.059 209.773 377.124 210.099 376.826C214.242 373.049 218.366 369.87 222.555 366.14C226.726 362.419 230.794 358.512 235.095 354.95C235.16 354.894 235.067 354.791 235.002 354.847Z" fill="#263238"/>
<path d="M245.932 363.407C238.894 368.378 232.786 374.644 226.931 380.938C226.642 381.255 226.986 381.302 227.303 380.994C233.513 375.045 238.335 370.336 246.099 363.65C246.229 363.547 246.081 363.296 245.932 363.407Z" fill="#263238"/>
<path d="M284.705 324.103L327.12 387.298C327.12 387.298 379.626 382.766 388.954 370.755C395.098 362.848 361.696 322.621 332.221 322.602L284.705 324.103Z" fill="#FFC727"/>
<path d="M365.429 336.599C361.24 332.561 349.221 322.816 332.185 322.565C332.036 322.565 331.999 322.798 332.148 322.816C344.818 324.243 360.924 333.251 365.28 336.794C365.402 336.878 365.532 336.701 365.429 336.599Z" fill="#263238"/>
<path d="M342.201 379.847C337.91 372.648 333.236 365.683 328.544 358.736C323.852 351.779 319.169 344.814 314.301 337.979C311.554 334.118 308.817 330.239 305.941 326.472C305.866 326.369 305.68 326.472 305.745 326.584C310.027 333.773 314.673 340.757 319.318 347.732C323.964 354.717 328.693 361.664 333.478 368.555C336.187 372.453 338.962 376.294 341.838 380.062C341.978 380.248 342.323 380.052 342.201 379.847Z" fill="#263238"/>
<path d="M284.724 323.367C287.936 322.779 291.194 322.695 294.453 322.546C297.711 322.397 300.969 322.304 304.228 322.238C310.716 322.117 324.439 321.11 336.141 322.788C336.271 322.807 335.517 323.339 335.387 323.32C329.857 322.229 288.783 324.56 285.469 324.336C285.571 324.57 285.664 324.803 285.729 325.054C285.776 325.222 285.58 325.409 285.422 325.269C285.05 324.933 284.808 324.551 284.463 324.187C284.184 323.898 284.305 323.441 284.724 323.367Z" fill="#263238"/>
<path d="M375.67 378.309C370.475 379.39 363.195 381.516 358 382.878C364.126 382.617 370.093 380.789 375.67 378.309Z" fill="#263238"/>
<path d="M280.935 228.561C288.662 229.503 303.371 218.873 307.542 207.487C307.821 206.704 305.587 199.272 303.287 190.105C301.919 184.538 300.522 178.309 299.656 172.537C299.489 171.353 264.811 186.767 264.811 186.767C264.811 186.767 270.182 198.339 271.625 208.419C271.737 209.259 271.774 210.061 271.728 210.825C271.728 210.937 271.718 211.077 271.737 211.226C271.672 215.851 272.659 227.554 280.935 228.561Z" fill="#AD6359"/>
<path d="M271.709 210.844C271.719 210.956 271.719 211.105 271.728 211.245C272.883 211.226 274.121 211.105 275.461 210.881C296.678 207.216 298.298 179.68 298.372 172.752C292.088 174.636 264.802 186.786 264.802 186.786C264.802 186.786 270.173 198.367 271.626 208.447C271.719 209.277 271.765 210.079 271.709 210.844Z" fill="#263238"/>
<path d="M299.63 126.566C305.076 139.005 302.655 177.069 294.463 186.459C282.593 200.074 260.995 203.785 248.892 188.996C237.172 174.663 241.203 125.111 250.55 116.355C264.328 103.459 291.586 108.196 299.63 126.566Z" fill="#AD6359"/>
<path d="M242.673 137.868C244.097 137.914 249.45 134.865 250.605 126.687C253.277 127.526 259.067 123.778 261.087 121.559C262.353 130.669 272.175 135.08 279.25 130.604C279.278 134.287 279.977 138.064 282.118 140.814C285.618 145.309 289.854 146.307 289.854 146.307C289.854 146.325 289.863 146.344 289.863 146.363C287.815 153.076 293.382 159.296 299.024 158.354C299.545 158.326 300.067 158.242 300.579 158.103C303.334 157.338 306.062 155.977 307.365 152.899C309.05 148.927 307.877 143.873 304.722 141.616C307.133 139.117 307.952 135.089 306.416 131.732C305.476 129.653 302.943 128.524 302.85 126.118C302.766 124.123 302.403 122.267 301.566 120.533C300.123 117.53 297.749 115.469 294.891 114.621C293.55 114.229 292.61 113.838 291.632 112.709C291.036 112.019 290.459 111.357 289.798 110.77C288.653 109.763 287.368 108.97 286.019 108.411C284.38 107.72 282.62 107.375 280.861 107.422C278.962 107.459 277.016 108.429 275.191 107.693C273.599 107.049 268.47 107.133 266.776 107.45C259.393 108.83 256.153 112.495 256.153 112.495C256.153 112.495 252.29 113.166 248.733 118.22C245.335 123.06 245.363 126.836 245.363 126.836C245.363 126.836 243.865 127.508 242.757 130.706C241.481 134.371 242.477 137.868 242.673 137.868ZM289.91 146.726C290.496 151.855 291.735 154.27 293.373 155.967C290.776 153.981 289.128 150.615 289.91 146.726ZM261.748 121.782C263.443 126.557 266.934 129.858 270.993 130.995C266.654 130.231 263.042 127.359 261.748 121.782Z" fill="#263238"/>
<path d="M267.018 166.803C261.357 166.066 257.336 160.863 258.071 155.184C258.797 149.514 264.001 145.486 269.671 146.223C275.331 146.95 279.353 152.163 278.617 157.841C278.003 162.644 274.186 166.252 269.596 166.812C268.759 166.915 267.893 166.915 267.018 166.803ZM259.449 155.361C258.816 160.275 262.298 164.788 267.204 165.423C272.11 166.057 276.616 162.569 277.249 157.655C277.882 152.741 274.4 148.228 269.494 147.593C268.74 147.491 267.986 147.5 267.26 147.584C263.285 148.078 259.98 151.212 259.449 155.361Z" fill="#FFC727"/>
<path d="M245.15 166.831C240.904 166.849 237.423 162.206 237.395 156.489C237.385 153.757 238.149 151.184 239.554 149.225C241.007 147.202 242.952 146.083 245.066 146.083C247.17 146.074 249.134 147.174 250.605 149.179C252.029 151.118 252.811 153.692 252.821 156.424C252.839 161.833 249.767 166.308 245.829 166.784C245.606 166.812 245.382 166.831 245.15 166.831ZM240.681 150.037C239.443 151.752 238.772 154.046 238.782 156.48C238.8 161.432 241.658 165.451 245.15 165.441C248.65 165.432 251.461 161.385 251.443 156.424C251.434 153.981 250.735 151.696 249.488 149.999C248.287 148.358 246.723 147.463 245.075 147.472C244.898 147.472 244.721 147.482 244.554 147.51C243.092 147.677 241.733 148.563 240.681 150.037Z" fill="#FFC727"/>
<path d="M258.425 156.387L259.31 155.324C257.736 154.009 254.096 152.247 251.573 154.969L252.588 155.911C254.841 153.468 258.276 156.266 258.425 156.387Z" fill="#FFC727"/>
<path d="M304.582 158.858L305.811 158.214C305.513 157.646 302.804 152.601 299.704 152.107C296.809 151.659 278.255 153.477 277.473 153.561L277.612 154.941C282.928 154.41 297.256 153.132 299.49 153.477C301.529 153.804 303.856 157.478 304.582 158.858Z" fill="#FFC727"/>
<path d="M293.839 158.476C293.839 158.476 301.1 145.579 306.863 148.05C312.626 150.531 307.99 168.649 301.799 171.67C295.608 174.691 292.703 169.003 292.703 169.003L293.839 158.476Z" fill="#AD6359"/>
<path d="M305.402 153.216C305.504 153.198 305.542 153.338 305.448 153.384C301.119 155.65 299.155 160.061 297.917 164.565C299.09 162.765 300.831 161.674 303.214 163.054C303.335 163.129 303.242 163.324 303.112 163.306C301.231 163.091 299.928 163.539 298.829 165.143C298.047 166.28 297.572 167.661 297.06 168.929C296.893 169.348 296.139 169.208 296.251 168.733C296.26 168.696 296.269 168.658 296.278 168.621C295.608 162.877 299.295 154.391 305.402 153.216Z" fill="#263238"/>
</g>
<defs>
<clipPath id="clip0_312_5431">
<rect width="392" height="395" fill="white"/>
</clipPath>
</defs>
</svg>
