<svg width="467" height="417" viewBox="0 0 467 417" fill="none" xmlns="http://www.w3.org/2000/svg">
<g clip-path="url(#clip0_543_613)">
<path d="M399.89 0H7.09961V235.08H399.89V0Z" fill="#F5F5F5"/>
<path d="M415.51 330.74H327.07V416.31H415.51V330.74Z" fill="#F5F5F5"/>
<path d="M333.92 408.98L358.39 364.95L378.4 393.09L390.56 378.15L408.65 408.98H333.92Z" fill="#E0E0E0"/>
<path d="M386.93 356.39C386.93 359.91 384.08 362.75 380.57 362.75C377.06 362.75 374.21 359.9 374.21 356.39C374.21 352.87 377.06 350.03 380.57 350.03C384.08 350.03 386.93 352.87 386.93 356.39Z" fill="#E0E0E0"/>
<g opacity="0.3">
<path d="M408.65 409.22C408.64 409.21 408.64 409.1 408.63 408.87C408.63 408.61 408.62 408.29 408.61 407.87C408.6 406.96 408.59 405.67 408.57 404.02C408.55 400.63 408.52 395.72 408.48 389.49C408.43 376.99 408.37 359.19 408.29 337.83L408.65 338.19C387.01 338.21 361.35 338.23 333.93 338.25C333.83 338.34 334.72 337.46 334.34 337.84V337.86V337.9V337.98V338.13V338.44V339.05V340.27V342.7C334.34 344.32 334.34 345.93 334.34 347.53C334.34 350.74 334.34 353.91 334.34 357.06C334.34 363.35 334.33 369.5 334.33 375.5C334.32 387.48 334.3 398.81 334.29 409.24L333.92 408.87C356.22 408.95 374.85 409.01 387.95 409.06C394.48 409.1 399.63 409.13 403.19 409.16C404.93 409.18 406.28 409.19 407.23 409.2C407.67 409.21 408.01 409.22 408.28 409.22C408.52 409.21 408.65 409.21 408.65 409.22C408.66 409.23 408.55 409.23 408.32 409.24C408.06 409.24 407.73 409.25 407.31 409.26C406.37 409.27 405.05 409.28 403.34 409.3C399.8 409.32 394.68 409.35 388.18 409.4C375.03 409.45 356.32 409.51 333.91 409.59H333.54V409.22C333.53 398.8 333.51 387.47 333.5 375.48C333.5 369.49 333.49 363.33 333.49 357.04C333.49 353.9 333.49 350.72 333.49 347.51C333.49 345.91 333.49 344.3 333.49 342.68V340.25V339.03V338.42V338.11V337.96V337.88V337.84V337.82C333.11 338.19 334 337.29 333.92 337.39C361.34 337.41 387 337.43 408.64 337.45H409V337.81C408.92 359.27 408.86 377.15 408.82 389.7C408.78 395.9 408.75 400.78 408.73 404.15C408.71 405.78 408.7 407.04 408.69 407.93C408.68 408.33 408.67 408.64 408.67 408.89C408.67 409.12 408.66 409.23 408.65 409.22Z" fill="#E0E0E0"/>
</g>
<path d="M420.04 24.1799H22.8896V249.95H420.04V24.1799Z" fill="#E0E0E0"/>
<path d="M466.24 416.71C466.24 416.85 361.86 416.97 233.13 416.97C104.36 416.97 0 416.86 0 416.71C0 416.56 104.36 416.45 233.13 416.45C361.86 416.45 466.24 416.57 466.24 416.71Z" fill="#263238"/>
<path d="M366.7 416.65L226.62 416.71C225.44 416.71 224.48 415.75 224.48 414.58L224.44 329.98C224.44 328.8 225.4 327.84 226.57 327.84L366.65 327.78C367.83 327.78 368.79 328.74 368.79 329.91L368.83 414.51C368.84 415.69 367.88 416.65 366.7 416.65Z" fill="#263238"/>
<path d="M298.151 363.3L310.001 369.67L298.621 377.16L287.251 384.66L286.781 370.79L286.301 356.92L298.151 363.3Z" fill="white"/>
<path d="M358.41 407.78C358.41 407.92 330.76 408.05 296.66 408.07C262.55 408.09 234.91 407.98 234.91 407.84C234.91 407.7 262.55 407.57 296.66 407.55C330.76 407.53 358.41 407.63 358.41 407.78Z" fill="white"/>
<path d="M237.06 407.83C237.06 408.69 236.36 409.39 235.5 409.39C234.64 409.39 233.94 408.69 233.94 407.83C233.94 406.97 234.64 406.27 235.5 406.27C236.37 406.27 237.06 406.97 237.06 407.83Z" fill="white"/>
<path d="M344.82 416.4L196.05 416.47C194.87 416.47 193.91 415.51 193.91 414.34L193.87 324.39C193.87 323.21 194.83 322.25 196 322.25L344.77 322.18C345.95 322.18 346.91 323.14 346.91 324.31L346.95 414.26C346.96 415.45 346 416.4 344.82 416.4Z" fill="#455A64"/>
<path d="M272.01 359.84L284.57 366.59L272.52 374.54L260.46 382.49L259.96 367.79L259.45 353.08L272.01 359.84Z" fill="white"/>
<path d="M335.9 406.99C335.9 407.13 306.59 407.26 270.44 407.28C234.28 407.3 204.97 407.19 204.97 407.05C204.97 406.91 234.28 406.78 270.44 406.76C306.59 406.75 335.9 406.85 335.9 406.99Z" fill="white"/>
<path d="M207.25 407.05C207.25 407.96 206.51 408.7 205.6 408.7C204.69 408.7 203.95 407.96 203.95 407.05C203.95 406.14 204.69 405.4 205.6 405.4C206.51 405.4 207.25 406.14 207.25 407.05Z" fill="white"/>
<path d="M287.76 416.67L204.22 416.71C203.04 416.71 202.08 415.75 202.08 414.58L202.06 364.79C202.06 363.61 203.02 362.65 204.19 362.65L287.73 362.61C288.91 362.61 289.87 363.57 289.87 364.74L289.89 414.53C289.9 415.72 288.94 416.67 287.76 416.67Z" fill="#FFC727"/>
<path d="M246.899 384.22L254.109 388.09L247.189 392.65L240.269 397.22L239.979 388.78L239.689 380.34L246.899 384.22Z" fill="white"/>
<path d="M283.559 411.28C283.559 411.42 266.739 411.55 245.999 411.56C225.249 411.57 208.439 411.46 208.439 411.32C208.439 411.18 225.249 411.05 245.999 411.04C266.739 411.02 283.559 411.13 283.559 411.28Z" fill="white"/>
<path d="M209.74 411.31C209.74 411.83 209.32 412.26 208.79 412.26C208.27 412.26 207.84 411.84 207.84 411.31C207.84 410.79 208.26 410.36 208.79 410.36C209.32 410.36 209.74 410.79 209.74 411.31Z" fill="white"/>
<path d="M431.339 48.99H38.1094V299.49H431.339V48.99Z" fill="white"/>
<path d="M431.61 298.53C431.61 296.59 431.53 201.75 431.39 48.03L431.61 48.27C326.13 48.29 188.48 48.31 38.4096 48.34H38.3796L38.6596 48.03C38.6496 136.69 38.6496 221.4 38.6396 298.53L38.3796 298.24C268.88 298.41 429.22 298.53 431.61 298.53C429.22 298.53 268.88 298.65 38.3796 298.82H38.1196V298.53C38.1096 221.4 38.1096 136.69 38.0996 48.03V47.72H38.3796H38.4096C188.48 47.75 326.12 47.77 431.61 47.79H431.83V48.03C431.7 201.76 431.61 296.6 431.61 298.53Z" fill="#263238"/>
<path d="M431.839 63.0501C431.839 63.2101 343.699 63.3301 235.009 63.3301C126.279 63.3301 38.1592 63.2001 38.1592 63.0501C38.1592 62.8901 126.279 62.7701 235.009 62.7701C343.699 62.7601 431.839 62.8901 431.839 63.0501Z" fill="#263238"/>
<path d="M51.1601 53.77C51.1601 55.17 50.0201 56.31 48.6201 56.31C47.2201 56.31 46.0801 55.17 46.0801 53.77C46.0801 52.37 47.2201 51.23 48.6201 51.23C50.0201 51.23 51.1601 52.36 51.1601 53.77Z" fill="#263238"/>
<path d="M58.9101 53.77C58.9101 55.17 57.7701 56.31 56.3701 56.31C54.9701 56.31 53.8301 55.17 53.8301 53.77C53.8301 52.37 54.9701 51.23 56.3701 51.23C57.7701 51.23 58.9101 52.36 58.9101 53.77Z" fill="#263238"/>
<path d="M66.6601 53.77C66.6601 55.17 65.5201 56.31 64.1201 56.31C62.7201 56.31 61.5801 55.17 61.5801 53.77C61.5801 52.37 62.7201 51.23 64.1201 51.23C65.5201 51.23 66.6601 52.36 66.6601 53.77Z" fill="#263238"/>
<path d="M145.579 198.03H64.4893V276.49H145.579V198.03Z" fill="#FFC727"/>
<g opacity="0.3">
<path d="M70.7793 269.77L93.2093 229.39L111.559 255.2L122.709 241.49L139.289 269.77H70.7793Z" fill="black"/>
</g>
<g opacity="0.3">
<path d="M119.369 221.54C119.369 224.76 116.759 227.38 113.529 227.38C110.309 227.38 107.689 224.77 107.689 221.54C107.689 218.32 110.299 215.7 113.529 215.7C116.759 215.71 119.369 218.32 119.369 221.54Z" fill="black"/>
</g>
<g opacity="0.3">
<path d="M139.29 269.98C139.28 269.97 139.28 269.87 139.27 269.66C139.27 269.42 139.26 269.13 139.25 268.75C139.24 267.92 139.23 266.74 139.21 265.22C139.19 262.11 139.16 257.61 139.12 251.9C139.08 240.44 139.02 224.12 138.95 204.53L139.28 204.86C119.44 204.88 95.9097 204.89 70.7697 204.91C70.6797 204.99 71.4897 204.18 71.1497 204.53V204.55V204.58V204.65V204.79V205.07V205.63V206.75V208.98C71.1497 210.46 71.1497 211.94 71.1497 213.41C71.1497 216.35 71.1497 219.26 71.1497 222.15C71.1497 227.92 71.1397 233.56 71.1397 239.06C71.1297 250.05 71.1097 260.44 71.0997 269.99L70.7597 269.65C91.2097 269.72 108.29 269.78 120.3 269.82C126.29 269.86 131.01 269.89 134.27 269.91C135.86 269.93 137.1 269.94 137.98 269.95C138.38 269.96 138.7 269.96 138.94 269.97C139.17 269.97 139.29 269.98 139.29 269.98C139.3 269.99 139.2 269.99 138.99 270C138.75 270 138.45 270.01 138.07 270.02C137.21 270.03 136 270.04 134.43 270.06C131.18 270.08 126.49 270.11 120.53 270.15C108.47 270.19 91.3097 270.25 70.7697 270.32H70.4297V269.98C70.4197 260.42 70.4097 250.04 70.3897 239.05C70.3897 233.55 70.3797 227.91 70.3797 222.14C70.3797 219.26 70.3797 216.34 70.3797 213.4C70.3797 211.93 70.3797 210.45 70.3797 208.97V206.74V205.62V205.06V204.78V204.64V204.57V204.54V204.52C70.0397 204.86 70.8497 204.04 70.7697 204.12C95.9097 204.14 119.44 204.16 139.28 204.17H139.61V204.5C139.54 224.18 139.48 240.57 139.44 252.08C139.4 257.76 139.37 262.24 139.35 265.33C139.33 266.82 139.32 267.98 139.31 268.8C139.3 269.17 139.3 269.45 139.29 269.68C139.31 269.89 139.3 269.99 139.29 269.98Z" fill="black"/>
</g>
<path d="M211.719 212.95H156.829V215.71H211.719V212.95Z" fill="#FFC727"/>
<path d="M230.799 224.79C230.799 224.95 214.309 225.07 193.979 225.07C173.639 225.07 157.159 224.94 157.159 224.79C157.159 224.63 173.639 224.51 193.979 224.51C214.309 224.51 230.799 224.64 230.799 224.79Z" fill="#263238"/>
<path d="M230.799 232.49C230.799 232.65 214.309 232.77 193.979 232.77C173.639 232.77 157.159 232.64 157.159 232.49C157.159 232.33 173.639 232.21 193.979 232.21C214.309 232.21 230.799 232.34 230.799 232.49Z" fill="#263238"/>
<path d="M230.799 240.19C230.799 240.35 214.309 240.47 193.979 240.47C173.639 240.47 157.159 240.34 157.159 240.19C157.159 240.03 173.639 239.91 193.979 239.91C214.309 239.91 230.799 240.03 230.799 240.19Z" fill="#263238"/>
<path d="M230.799 247.89C230.799 248.05 214.309 248.17 193.979 248.17C173.639 248.17 157.159 248.04 157.159 247.89C157.159 247.73 173.639 247.61 193.979 247.61C214.309 247.61 230.799 247.73 230.799 247.89Z" fill="#263238"/>
<path d="M230.799 255.59C230.799 255.75 214.309 255.87 193.979 255.87C173.639 255.87 157.159 255.74 157.159 255.59C157.159 255.43 173.639 255.31 193.979 255.31C214.309 255.3 230.799 255.43 230.799 255.59Z" fill="#263238"/>
<path d="M194.969 262.66C194.969 262.82 186.499 262.94 176.059 262.94C165.619 262.94 157.149 262.81 157.149 262.66C157.149 262.5 165.609 262.38 176.059 262.38C186.509 262.38 194.969 262.5 194.969 262.66Z" fill="#263238"/>
<path d="M389.03 208.31H334.14V211.07H389.03V208.31Z" fill="#FFC727"/>
<path d="M408.11 220.15C408.11 220.31 391.62 220.43 371.29 220.43C350.95 220.43 334.47 220.3 334.47 220.15C334.47 219.99 350.95 219.87 371.29 219.87C391.62 219.87 408.11 219.99 408.11 220.15Z" fill="#263238"/>
<path d="M408.11 227.85C408.11 228.01 391.62 228.13 371.29 228.13C350.95 228.13 334.47 228 334.47 227.85C334.47 227.69 350.95 227.57 371.29 227.57C391.62 227.57 408.11 227.69 408.11 227.85Z" fill="#263238"/>
<path d="M408.11 235.55C408.11 235.71 391.62 235.83 371.29 235.83C350.95 235.83 334.47 235.7 334.47 235.55C334.47 235.39 350.95 235.27 371.29 235.27C391.62 235.26 408.11 235.39 408.11 235.55Z" fill="#263238"/>
<path d="M408.11 243.25C408.11 243.41 391.62 243.53 371.29 243.53C350.95 243.53 334.47 243.4 334.47 243.25C334.47 243.09 350.95 242.97 371.29 242.97C391.62 242.96 408.11 243.09 408.11 243.25Z" fill="#263238"/>
<path d="M408.11 250.94C408.11 251.1 391.62 251.22 371.29 251.22C350.95 251.22 334.47 251.09 334.47 250.94C334.47 250.78 350.95 250.66 371.29 250.66C391.62 250.66 408.11 250.79 408.11 250.94Z" fill="#263238"/>
<path d="M372.28 258.02C372.28 258.18 363.81 258.3 353.37 258.3C342.93 258.3 334.46 258.17 334.46 258.02C334.46 257.86 342.92 257.74 353.37 257.74C363.82 257.73 372.28 257.86 372.28 258.02Z" fill="#263238"/>
<path d="M322.8 279.14C322.8 278.98 324.02 278.86 325.52 278.86C324.95 279.43 325.36 279.02 325.24 279.14V279.13V279.11V279.07V279V278.86V278.59C325.25 278.43 325.25 278.26 325.26 278.08C325.27 277.75 325.3 277.46 325.32 277.22C325.37 276.73 325.44 276.42 325.52 276.42C325.6 276.42 325.67 276.72 325.72 277.22C325.75 277.47 325.77 277.76 325.78 278.08C325.79 278.26 325.79 278.43 325.8 278.59V278.86V279V279.07V279.11V279.13V279.14C325.67 279.27 326.08 278.86 325.52 279.42C324.01 279.42 322.8 279.29 322.8 279.14Z" fill="#263238"/>
<path d="M311.16 279.14C311.16 278.98 312.46 278.86 314.07 278.86C315.68 278.86 316.98 278.99 316.98 279.14C316.98 279.3 315.68 279.42 314.07 279.42C312.46 279.42 311.16 279.29 311.16 279.14Z" fill="#263238"/>
<path d="M299.52 279.14C299.52 278.98 300.82 278.86 302.43 278.86C304.04 278.86 305.34 278.99 305.34 279.14C305.34 279.3 304.04 279.42 302.43 279.42C300.82 279.42 299.52 279.29 299.52 279.14Z" fill="#263238"/>
<path d="M287.88 279.14C287.88 278.98 289.18 278.86 290.79 278.86C292.4 278.86 293.7 278.99 293.7 279.14C293.7 279.3 292.4 279.42 290.79 279.42C289.18 279.42 287.88 279.29 287.88 279.14Z" fill="#263238"/>
<path d="M276.239 279.14C276.239 278.98 277.539 278.86 279.149 278.86C280.759 278.86 282.059 278.99 282.059 279.14C282.059 279.3 280.759 279.42 279.149 279.42C277.539 279.42 276.239 279.29 276.239 279.14Z" fill="#263238"/>
<path d="M264.6 279.14C264.6 278.98 265.9 278.86 267.51 278.86C269.12 278.86 270.42 278.99 270.42 279.14C270.42 279.3 269.12 279.42 267.51 279.42C265.9 279.42 264.6 279.29 264.6 279.14Z" fill="#263238"/>
<path d="M252.96 279.14C252.96 278.98 254.26 278.86 255.87 278.86C257.48 278.86 258.78 278.99 258.78 279.14C258.78 279.3 257.48 279.42 255.87 279.42C254.26 279.42 252.96 279.29 252.96 279.14Z" fill="#263238"/>
<path d="M244.42 276.42C244.58 276.42 244.7 277.64 244.7 279.14C244.13 278.57 244.54 278.98 244.42 278.86H244.43H244.45H244.49H244.56H244.7H244.97C245.13 278.87 245.3 278.87 245.48 278.88C245.81 278.89 246.1 278.92 246.34 278.94C246.83 278.99 247.14 279.06 247.14 279.14C247.14 279.22 246.84 279.29 246.34 279.34C246.09 279.37 245.8 279.39 245.48 279.4C245.3 279.41 245.13 279.41 244.97 279.42H244.7H244.56H244.49H244.45H244.43H244.42C244.29 279.29 244.7 279.7 244.14 279.14C244.14 277.63 244.27 276.42 244.42 276.42Z" fill="#263238"/>
<path d="M244.42 265.18C244.58 265.18 244.7 266.44 244.7 267.99C244.7 269.54 244.57 270.8 244.42 270.8C244.27 270.8 244.14 269.54 244.14 267.99C244.14 266.44 244.27 265.18 244.42 265.18Z" fill="#263238"/>
<path d="M244.42 253.95C244.58 253.95 244.7 255.21 244.7 256.76C244.7 258.31 244.57 259.57 244.42 259.57C244.27 259.57 244.14 258.31 244.14 256.76C244.14 255.21 244.27 253.95 244.42 253.95Z" fill="#263238"/>
<path d="M244.42 242.72C244.58 242.72 244.7 243.98 244.7 245.53C244.7 247.08 244.57 248.34 244.42 248.34C244.27 248.34 244.14 247.08 244.14 245.53C244.14 243.97 244.27 242.72 244.42 242.72Z" fill="#263238"/>
<path d="M244.42 231.48C244.58 231.48 244.7 232.74 244.7 234.29C244.7 235.84 244.57 237.1 244.42 237.1C244.27 237.1 244.14 235.84 244.14 234.29C244.14 232.74 244.27 231.48 244.42 231.48Z" fill="#263238"/>
<path d="M244.42 220.25C244.58 220.25 244.7 221.51 244.7 223.06C244.7 224.61 244.57 225.87 244.42 225.87C244.27 225.87 244.14 224.61 244.14 223.06C244.14 221.51 244.27 220.25 244.42 220.25Z" fill="#263238"/>
<path d="M244.42 209.01C244.58 209.01 244.7 210.27 244.7 211.82C244.7 213.37 244.57 214.63 244.42 214.63C244.27 214.63 244.14 213.37 244.14 211.82C244.14 210.27 244.27 209.01 244.42 209.01Z" fill="#263238"/>
<path d="M247.14 200.68C247.14 200.84 245.92 200.96 244.42 200.96C244.99 200.39 244.58 200.8 244.7 200.68V200.69V200.71V200.75V200.82V200.96V201.23C244.69 201.39 244.69 201.56 244.68 201.74C244.67 202.07 244.65 202.36 244.62 202.6C244.57 203.09 244.5 203.4 244.42 203.4C244.34 203.4 244.27 203.1 244.22 202.6C244.19 202.35 244.17 202.06 244.16 201.74C244.15 201.56 244.15 201.39 244.14 201.23V200.96V200.82V200.75V200.71V200.69V200.68C244.27 200.55 243.86 200.96 244.42 200.4C245.92 200.4 247.14 200.52 247.14 200.68Z" fill="#263238"/>
<path d="M258.78 200.68C258.78 200.84 257.48 200.96 255.87 200.96C254.26 200.96 252.96 200.83 252.96 200.68C252.96 200.53 254.26 200.4 255.87 200.4C257.48 200.4 258.78 200.52 258.78 200.68Z" fill="#263238"/>
<path d="M270.42 200.68C270.42 200.84 269.12 200.96 267.51 200.96C265.9 200.96 264.6 200.83 264.6 200.68C264.6 200.53 265.9 200.4 267.51 200.4C269.12 200.4 270.42 200.52 270.42 200.68Z" fill="#263238"/>
<path d="M282.059 200.68C282.059 200.84 280.759 200.96 279.149 200.96C277.539 200.96 276.239 200.83 276.239 200.68C276.239 200.53 277.539 200.4 279.149 200.4C280.759 200.4 282.059 200.52 282.059 200.68Z" fill="#263238"/>
<path d="M293.7 200.68C293.7 200.84 292.4 200.96 290.79 200.96C289.18 200.96 287.88 200.83 287.88 200.68C287.88 200.53 289.18 200.4 290.79 200.4C292.39 200.4 293.7 200.52 293.7 200.68Z" fill="#263238"/>
<path d="M305.34 200.68C305.34 200.84 304.04 200.96 302.43 200.96C300.82 200.96 299.52 200.83 299.52 200.68C299.52 200.53 300.82 200.4 302.43 200.4C304.03 200.4 305.34 200.52 305.34 200.68Z" fill="#263238"/>
<path d="M316.98 200.68C316.98 200.84 315.68 200.96 314.07 200.96C312.46 200.96 311.16 200.83 311.16 200.68C311.16 200.53 312.46 200.4 314.07 200.4C315.67 200.4 316.98 200.52 316.98 200.68Z" fill="#263238"/>
<path d="M325.51 203.4C325.35 203.4 325.23 202.18 325.23 200.68C325.8 201.25 325.39 200.84 325.51 200.96H325.5H325.48H325.44H325.37H325.23H324.96C324.8 200.95 324.63 200.95 324.45 200.94C324.12 200.93 323.83 200.9 323.59 200.88C323.1 200.83 322.79 200.76 322.79 200.68C322.79 200.6 323.09 200.53 323.59 200.48C323.84 200.45 324.13 200.43 324.45 200.42C324.63 200.41 324.8 200.41 324.96 200.4H325.23H325.37H325.44H325.48H325.5H325.51C325.64 200.53 325.23 200.12 325.79 200.68C325.8 202.18 325.67 203.4 325.51 203.4Z" fill="#263238"/>
<path d="M325.509 214.63C325.349 214.63 325.229 213.37 325.229 211.82C325.229 210.27 325.359 209.01 325.509 209.01C325.659 209.01 325.789 210.27 325.789 211.82C325.799 213.37 325.669 214.63 325.509 214.63Z" fill="#263238"/>
<path d="M325.509 225.87C325.349 225.87 325.229 224.61 325.229 223.06C325.229 221.51 325.359 220.25 325.509 220.25C325.659 220.25 325.789 221.51 325.789 223.06C325.799 224.61 325.669 225.87 325.509 225.87Z" fill="#263238"/>
<path d="M325.509 237.1C325.349 237.1 325.229 235.84 325.229 234.29C325.229 232.74 325.359 231.48 325.509 231.48C325.659 231.48 325.789 232.74 325.789 234.29C325.799 235.84 325.669 237.1 325.509 237.1Z" fill="#263238"/>
<path d="M325.509 248.33C325.349 248.33 325.229 247.07 325.229 245.52C325.229 243.97 325.359 242.71 325.509 242.71C325.659 242.71 325.789 243.97 325.789 245.52C325.799 247.08 325.669 248.33 325.509 248.33Z" fill="#263238"/>
<path d="M325.509 259.57C325.349 259.57 325.229 258.31 325.229 256.76C325.229 255.21 325.359 253.95 325.509 253.95C325.659 253.95 325.789 255.21 325.789 256.76C325.799 258.31 325.669 259.57 325.509 259.57Z" fill="#263238"/>
<path d="M325.509 270.8C325.349 270.8 325.229 269.54 325.229 267.99C325.229 266.44 325.359 265.18 325.509 265.18C325.659 265.18 325.789 266.44 325.789 267.99C325.799 269.54 325.669 270.8 325.509 270.8Z" fill="#263238"/>
<path d="M300.629 125.98C300.629 125.98 300.619 125.78 300.609 125.4C300.599 125 300.599 124.45 300.589 123.74C300.579 122.27 300.559 120.15 300.539 117.44C300.509 111.99 300.479 104.17 300.429 94.6201L300.629 94.8201C286.799 94.8401 269.019 94.8601 249.689 94.8801C249.629 94.9401 250.179 94.3901 249.949 94.6201V94.6301V94.6501V94.6801V94.7501V94.8801V95.1401V95.6601V96.7001C249.949 97.3901 249.949 98.0801 249.949 98.7701C249.949 100.14 249.949 101.51 249.949 102.86C249.949 105.57 249.949 108.24 249.949 110.86C249.939 116.11 249.939 121.17 249.939 125.99L249.699 125.75C264.609 125.8 277.309 125.84 286.309 125.87C290.799 125.9 294.369 125.92 296.839 125.94C298.049 125.95 298.989 125.96 299.659 125.97C299.969 125.98 300.209 125.98 300.389 125.98C300.539 125.97 300.629 125.97 300.629 125.98C300.629 125.98 300.559 125.99 300.399 125.99C300.219 125.99 299.989 126 299.699 126C299.049 126.01 298.119 126.02 296.929 126.03C294.469 126.05 290.919 126.07 286.459 126.1C277.419 126.13 264.659 126.17 249.689 126.22H249.449V125.98C249.449 121.16 249.439 116.09 249.439 110.85C249.439 108.23 249.439 105.56 249.439 102.85C249.439 101.5 249.439 100.13 249.439 98.7601C249.439 98.0701 249.439 97.3801 249.439 96.6901V95.6501V95.1301V94.8701V94.7401V94.6701V94.6401V94.6201V94.6101C249.209 94.8401 249.759 94.2901 249.699 94.3501C269.039 94.3701 286.809 94.3901 300.639 94.4101H300.839V94.6101C300.789 104.22 300.759 112.08 300.729 117.56C300.709 120.25 300.689 122.36 300.679 123.82C300.669 124.51 300.659 125.05 300.659 125.44C300.639 125.8 300.629 125.98 300.629 125.98Z" fill="#FFC727"/>
<path d="M275.469 107.69L279.649 109.94L275.639 112.58L271.619 115.23L271.449 110.33L271.289 105.44L275.469 107.69Z" fill="#FFC727"/>
<path d="M296.949 122.84C296.949 122.98 287.189 123.1 275.159 123.1C263.119 123.1 253.359 122.98 253.359 122.84C253.359 122.7 263.119 122.58 275.159 122.58C287.189 122.58 296.949 122.7 296.949 122.84Z" fill="#FFC727"/>
<path d="M253.57 123.39C253.873 123.39 254.12 123.144 254.12 122.84C254.12 122.536 253.873 122.29 253.57 122.29C253.266 122.29 253.02 122.536 253.02 122.84C253.02 123.144 253.266 123.39 253.57 123.39Z" fill="#FFC727"/>
<path d="M366.969 98.28H312.079V101.04H366.969V98.28Z" fill="#FFC727"/>
<path d="M386.049 110.13C386.049 110.29 369.559 110.41 349.229 110.41C328.889 110.41 312.409 110.28 312.409 110.13C312.409 109.97 328.889 109.85 349.229 109.85C369.559 109.84 386.049 109.97 386.049 110.13Z" fill="#263238"/>
<path d="M386.049 117.82C386.049 117.98 369.559 118.1 349.229 118.1C328.889 118.1 312.409 117.97 312.409 117.82C312.409 117.66 328.889 117.54 349.229 117.54C369.559 117.54 386.049 117.67 386.049 117.82Z" fill="#263238"/>
<path d="M300.629 172.05C300.629 172.05 300.619 171.85 300.609 171.47C300.599 171.07 300.599 170.52 300.589 169.81C300.579 168.34 300.559 166.22 300.539 163.51C300.509 158.06 300.479 150.24 300.429 140.69L300.629 140.89C286.799 140.91 269.019 140.93 249.689 140.95C249.629 141.01 250.179 140.46 249.949 140.69V140.7V140.72V140.75V140.82V140.95V141.21V141.73V142.77C249.949 143.46 249.949 144.15 249.949 144.84C249.949 146.21 249.949 147.58 249.949 148.93C249.949 151.64 249.949 154.31 249.949 156.93C249.939 162.18 249.939 167.24 249.939 172.06L249.699 171.82C264.609 171.87 277.309 171.91 286.309 171.94C290.799 171.97 294.369 171.99 296.839 172.01C298.049 172.02 298.989 172.03 299.659 172.04C299.969 172.05 300.209 172.05 300.389 172.05C300.539 172.04 300.629 172.05 300.629 172.05C300.629 172.05 300.559 172.06 300.399 172.06C300.219 172.06 299.989 172.07 299.699 172.07C299.049 172.08 298.119 172.09 296.929 172.1C294.469 172.12 290.919 172.14 286.459 172.17C277.419 172.2 264.659 172.24 249.689 172.29H249.449V172.05C249.449 167.23 249.439 162.16 249.439 156.92C249.439 154.3 249.439 151.63 249.439 148.92C249.439 147.57 249.439 146.2 249.439 144.83C249.439 144.14 249.439 143.45 249.439 142.76V141.72V141.2V140.94V140.81V140.74V140.71V140.69V140.68C249.209 140.91 249.759 140.36 249.699 140.42C269.039 140.44 286.809 140.46 300.639 140.48H300.839V140.68C300.789 150.29 300.759 158.15 300.729 163.63C300.709 166.32 300.689 168.43 300.679 169.89C300.669 170.58 300.659 171.12 300.659 171.51C300.639 171.88 300.629 172.05 300.629 172.05Z" fill="#FFC727"/>
<path d="M275.469 153.76L279.649 156.01L275.639 158.66L271.619 161.3L271.449 156.41L271.289 151.51L275.469 153.76Z" fill="#FFC727"/>
<path d="M296.949 168.92C296.949 169.06 287.189 169.18 275.159 169.18C263.119 169.18 253.359 169.06 253.359 168.92C253.359 168.78 263.119 168.66 275.159 168.66C287.189 168.66 296.949 168.78 296.949 168.92Z" fill="#FFC727"/>
<path d="M253.57 169.47C253.873 169.47 254.12 169.224 254.12 168.92C254.12 168.616 253.873 168.37 253.57 168.37C253.266 168.37 253.02 168.616 253.02 168.92C253.02 169.224 253.266 169.47 253.57 169.47Z" fill="#FFC727"/>
<path d="M366.969 144.36H312.079V147.12H366.969V144.36Z" fill="#FFC727"/>
<path d="M386.049 156.2C386.049 156.36 369.559 156.48 349.229 156.48C328.889 156.48 312.409 156.35 312.409 156.2C312.409 156.04 328.889 155.92 349.229 155.92C369.559 155.92 386.049 156.05 386.049 156.2Z" fill="#263238"/>
<path d="M386.049 163.9C386.049 164.06 369.559 164.18 349.229 164.18C328.889 164.18 312.409 164.05 312.409 163.9C312.409 163.74 328.889 163.62 349.229 163.62C369.559 163.62 386.049 163.75 386.049 163.9Z" fill="#263238"/>
<path d="M222.88 183.1C222.88 182.96 224 182.84 225.38 182.84C224.86 183.36 225.24 182.98 225.12 183.1V183.09V183.07V183.04V182.98V182.85V182.6C225.12 182.45 225.13 182.3 225.14 182.13C225.15 181.83 225.17 181.56 225.2 181.34C225.25 180.89 225.31 180.61 225.38 180.61C225.45 180.61 225.52 180.89 225.56 181.34C225.58 181.57 225.6 181.84 225.62 182.13C225.63 182.3 225.63 182.45 225.64 182.6V182.85V182.98V183.04V183.07V183.09V183.1C225.52 183.22 225.9 182.84 225.38 183.36C224 183.36 222.88 183.25 222.88 183.1Z" fill="#E0E0E0"/>
<path d="M212.91 183.1C212.91 182.96 214.03 182.84 215.4 182.84C216.78 182.84 217.89 182.96 217.89 183.1C217.89 183.24 216.77 183.36 215.4 183.36C214.03 183.36 212.91 183.25 212.91 183.1Z" fill="#E0E0E0"/>
<path d="M202.94 183.1C202.94 182.96 204.06 182.84 205.43 182.84C206.81 182.84 207.92 182.96 207.92 183.1C207.92 183.24 206.8 183.36 205.43 183.36C204.05 183.36 202.94 183.25 202.94 183.1Z" fill="#E0E0E0"/>
<path d="M192.96 183.1C192.96 182.96 194.08 182.84 195.45 182.84C196.83 182.84 197.94 182.96 197.94 183.1C197.94 183.24 196.82 183.36 195.45 183.36C194.08 183.36 192.96 183.25 192.96 183.1Z" fill="#E0E0E0"/>
<path d="M182.99 183.1C182.99 182.96 184.11 182.84 185.48 182.84C186.86 182.84 187.97 182.96 187.97 183.1C187.97 183.24 186.85 183.36 185.48 183.36C184.1 183.36 182.99 183.25 182.99 183.1Z" fill="#E0E0E0"/>
<path d="M173.01 183.1C173.01 182.96 174.13 182.84 175.5 182.84C176.88 182.84 177.99 182.96 177.99 183.1C177.99 183.24 176.87 183.36 175.5 183.36C174.13 183.36 173.01 183.25 173.01 183.1Z" fill="#E0E0E0"/>
<path d="M163.04 183.1C163.04 182.96 164.16 182.84 165.53 182.84C166.91 182.84 168.02 182.96 168.02 183.1C168.02 183.24 166.9 183.36 165.53 183.36C164.15 183.36 163.04 183.25 163.04 183.1Z" fill="#E0E0E0"/>
<path d="M153.06 183.1C153.06 182.96 154.18 182.84 155.55 182.84C156.93 182.84 158.04 182.96 158.04 183.1C158.04 183.24 156.92 183.36 155.55 183.36C154.18 183.36 153.06 183.25 153.06 183.1Z" fill="#E0E0E0"/>
<path d="M143.09 183.1C143.09 182.96 144.21 182.84 145.58 182.84C146.96 182.84 148.07 182.96 148.07 183.1C148.07 183.24 146.95 183.36 145.58 183.36C144.2 183.36 143.09 183.25 143.09 183.1Z" fill="#E0E0E0"/>
<path d="M133.11 183.1C133.11 182.96 134.23 182.84 135.6 182.84C136.98 182.84 138.09 182.96 138.09 183.1C138.09 183.24 136.97 183.36 135.6 183.36C134.23 183.36 133.11 183.25 133.11 183.1Z" fill="#E0E0E0"/>
<path d="M123.14 183.1C123.14 182.96 124.26 182.84 125.63 182.84C127.01 182.84 128.12 182.96 128.12 183.1C128.12 183.24 127 183.36 125.63 183.36C124.26 183.36 123.14 183.25 123.14 183.1Z" fill="#E0E0E0"/>
<path d="M113.16 183.1C113.16 182.96 114.28 182.84 115.65 182.84C117.03 182.84 118.14 182.96 118.14 183.1C118.14 183.24 117.02 183.36 115.65 183.36C114.28 183.36 113.16 183.25 113.16 183.1Z" fill="#E0E0E0"/>
<path d="M103.19 183.1C103.19 182.96 104.31 182.84 105.68 182.84C107.06 182.84 108.17 182.96 108.17 183.1C108.17 183.24 107.05 183.36 105.68 183.36C104.31 183.36 103.19 183.25 103.19 183.1Z" fill="#E0E0E0"/>
<path d="M93.2197 183.1C93.2197 182.96 94.3397 182.84 95.7097 182.84C97.0897 182.84 98.1997 182.96 98.1997 183.1C98.1997 183.24 97.0797 183.36 95.7097 183.36C94.3297 183.36 93.2197 183.25 93.2197 183.1Z" fill="#E0E0E0"/>
<path d="M83.2402 183.1C83.2402 182.96 84.3602 182.84 85.7302 182.84C87.1102 182.84 88.2202 182.96 88.2202 183.1C88.2202 183.24 87.1002 183.36 85.7302 183.36C84.3602 183.36 83.2402 183.25 83.2402 183.1Z" fill="#E0E0E0"/>
<path d="M73.2695 183.1C73.2695 182.96 74.3895 182.84 75.7595 182.84C77.1395 182.84 78.2495 182.96 78.2495 183.1C78.2495 183.24 77.1295 183.36 75.7595 183.36C74.3795 183.36 73.2695 183.25 73.2695 183.1Z" fill="#E0E0E0"/>
<path d="M65.7795 180.6C65.9195 180.6 66.0395 181.72 66.0395 183.1C65.5195 182.58 65.8995 182.96 65.7795 182.84H65.7895H65.8095H65.8395H65.8995H66.0295H66.2795C66.4295 182.84 66.5795 182.85 66.7495 182.86C67.0495 182.87 67.3195 182.89 67.5395 182.92C67.9895 182.97 68.2695 183.03 68.2695 183.1C68.2695 183.17 67.9895 183.24 67.5395 183.28C67.3095 183.3 67.0395 183.32 66.7495 183.34C66.5795 183.35 66.4295 183.35 66.2795 183.36H66.0295H65.8995H65.8395H65.8095H65.7895H65.7795C65.6595 183.24 66.0395 183.62 65.5195 183.1C65.5195 181.72 65.6395 180.6 65.7795 180.6Z" fill="#E0E0E0"/>
<path d="M65.7795 170.78C65.9195 170.78 66.0395 171.88 66.0395 173.23C66.0395 174.59 65.9195 175.68 65.7795 175.68C65.6395 175.68 65.5195 174.58 65.5195 173.23C65.5195 171.88 65.6395 170.78 65.7795 170.78Z" fill="#E0E0E0"/>
<path d="M65.7795 160.97C65.9195 160.97 66.0395 162.07 66.0395 163.42C66.0395 164.78 65.9195 165.87 65.7795 165.87C65.6395 165.87 65.5195 164.77 65.5195 163.42C65.5195 162.07 65.6395 160.97 65.7795 160.97Z" fill="#E0E0E0"/>
<path d="M65.7795 151.15C65.9195 151.15 66.0395 152.25 66.0395 153.6C66.0395 154.96 65.9195 156.05 65.7795 156.05C65.6395 156.05 65.5195 154.95 65.5195 153.6C65.5195 152.25 65.6395 151.15 65.7795 151.15Z" fill="#E0E0E0"/>
<path d="M65.7795 141.33C65.9195 141.33 66.0395 142.43 66.0395 143.78C66.0395 145.14 65.9195 146.23 65.7795 146.23C65.6395 146.23 65.5195 145.13 65.5195 143.78C65.5195 142.43 65.6395 141.33 65.7795 141.33Z" fill="#E0E0E0"/>
<path d="M65.7795 131.51C65.9195 131.51 66.0395 132.61 66.0395 133.96C66.0395 135.32 65.9195 136.41 65.7795 136.41C65.6395 136.41 65.5195 135.31 65.5195 133.96C65.5195 132.61 65.6395 131.51 65.7795 131.51Z" fill="#E0E0E0"/>
<path d="M65.7795 121.7C65.9195 121.7 66.0395 122.8 66.0395 124.15C66.0395 125.51 65.9195 126.6 65.7795 126.6C65.6395 126.6 65.5195 125.5 65.5195 124.15C65.5195 122.8 65.6395 121.7 65.7795 121.7Z" fill="#E0E0E0"/>
<path d="M65.7795 111.88C65.9195 111.88 66.0395 112.98 66.0395 114.33C66.0395 115.69 65.9195 116.78 65.7795 116.78C65.6395 116.78 65.5195 115.68 65.5195 114.33C65.5195 112.98 65.6395 111.88 65.7795 111.88Z" fill="#E0E0E0"/>
<path d="M65.7795 102.06C65.9195 102.06 66.0395 103.16 66.0395 104.51C66.0395 105.87 65.9195 106.96 65.7795 106.96C65.6395 106.96 65.5195 105.86 65.5195 104.51C65.5195 103.16 65.6395 102.06 65.7795 102.06Z" fill="#E0E0E0"/>
<path d="M65.7795 92.24C65.9195 92.24 66.0395 93.34 66.0395 94.69C66.0395 96.05 65.9195 97.14 65.7795 97.14C65.6395 97.14 65.5195 96.04 65.5195 94.69C65.5195 93.34 65.6395 92.24 65.7795 92.24Z" fill="#E0E0E0"/>
<path d="M68.28 84.8402C68.28 84.9802 67.16 85.1002 65.78 85.1002C66.3 84.5802 65.92 84.9602 66.04 84.8402V84.8502V84.8702V84.9002V84.9602V85.0902V85.3402C66.04 85.4902 66.03 85.6402 66.02 85.8102C66.01 86.1102 65.99 86.3802 65.96 86.6002C65.91 87.0502 65.85 87.3302 65.78 87.3302C65.71 87.3302 65.64 87.0502 65.6 86.6002C65.58 86.3702 65.56 86.1002 65.54 85.8102C65.53 85.6402 65.53 85.4902 65.52 85.3402V85.0902V84.9602V84.9002V84.8702V84.8502V84.8402C65.64 84.7202 65.26 85.1002 65.78 84.5802C67.16 84.5702 68.28 84.6902 68.28 84.8402Z" fill="#E0E0E0"/>
<path d="M78.2495 84.8402C78.2495 84.9802 77.1295 85.1002 75.7595 85.1002C74.3795 85.1002 73.2695 84.9802 73.2695 84.8402C73.2695 84.7002 74.3895 84.5802 75.7595 84.5802C77.1395 84.5702 78.2495 84.6902 78.2495 84.8402Z" fill="#E0E0E0"/>
<path d="M88.23 84.8402C88.23 84.9802 87.11 85.1002 85.74 85.1002C84.36 85.1002 83.25 84.9802 83.25 84.8402C83.25 84.7002 84.37 84.5802 85.74 84.5802C87.11 84.5702 88.23 84.6902 88.23 84.8402Z" fill="#E0E0E0"/>
<path d="M98.1997 84.8402C98.1997 84.9802 97.0797 85.1002 95.7097 85.1002C94.3297 85.1002 93.2197 84.9802 93.2197 84.8402C93.2197 84.7002 94.3397 84.5802 95.7097 84.5802C97.0897 84.5702 98.1997 84.6902 98.1997 84.8402Z" fill="#E0E0E0"/>
<path d="M108.18 84.8402C108.18 84.9802 107.06 85.1002 105.69 85.1002C104.31 85.1002 103.2 84.9802 103.2 84.8402C103.2 84.7002 104.32 84.5802 105.69 84.5802C107.06 84.5702 108.18 84.6902 108.18 84.8402Z" fill="#E0E0E0"/>
<path d="M118.15 84.8402C118.15 84.9802 117.03 85.1002 115.66 85.1002C114.28 85.1002 113.17 84.9802 113.17 84.8402C113.17 84.7002 114.29 84.5802 115.66 84.5802C117.04 84.5702 118.15 84.6902 118.15 84.8402Z" fill="#E0E0E0"/>
<path d="M128.13 84.8402C128.13 84.9802 127.01 85.1002 125.64 85.1002C124.26 85.1002 123.15 84.9802 123.15 84.8402C123.15 84.7002 124.27 84.5802 125.64 84.5802C127.01 84.5702 128.13 84.6902 128.13 84.8402Z" fill="#E0E0E0"/>
<path d="M138.1 84.8402C138.1 84.9802 136.98 85.1002 135.61 85.1002C134.23 85.1002 133.12 84.9802 133.12 84.8402C133.12 84.7002 134.24 84.5802 135.61 84.5802C136.98 84.5702 138.1 84.6902 138.1 84.8402Z" fill="#E0E0E0"/>
<path d="M148.08 84.8402C148.08 84.9802 146.96 85.1002 145.59 85.1002C144.21 85.1002 143.1 84.9802 143.1 84.8402C143.1 84.7002 144.22 84.5802 145.59 84.5802C146.96 84.5702 148.08 84.6902 148.08 84.8402Z" fill="#E0E0E0"/>
<path d="M158.05 84.8402C158.05 84.9802 156.93 85.1002 155.56 85.1002C154.18 85.1002 153.07 84.9802 153.07 84.8402C153.07 84.7002 154.19 84.5802 155.56 84.5802C156.93 84.5702 158.05 84.6902 158.05 84.8402Z" fill="#E0E0E0"/>
<path d="M168.02 84.8402C168.02 84.9802 166.9 85.1002 165.53 85.1002C164.15 85.1002 163.04 84.9802 163.04 84.8402C163.04 84.7002 164.16 84.5802 165.53 84.5802C166.91 84.5702 168.02 84.6902 168.02 84.8402Z" fill="#E0E0E0"/>
<path d="M178 84.8402C178 84.9802 176.88 85.1002 175.51 85.1002C174.13 85.1002 173.02 84.9802 173.02 84.8402C173.02 84.7002 174.14 84.5802 175.51 84.5802C176.88 84.5702 178 84.6902 178 84.8402Z" fill="#E0E0E0"/>
<path d="M187.97 84.8402C187.97 84.9802 186.85 85.1002 185.48 85.1002C184.1 85.1002 182.99 84.9802 182.99 84.8402C182.99 84.7002 184.11 84.5802 185.48 84.5802C186.86 84.5702 187.97 84.6902 187.97 84.8402Z" fill="#E0E0E0"/>
<path d="M197.95 84.8402C197.95 84.9802 196.83 85.1002 195.46 85.1002C194.08 85.1002 192.97 84.9802 192.97 84.8402C192.97 84.7002 194.09 84.5802 195.46 84.5802C196.83 84.5702 197.95 84.6902 197.95 84.8402Z" fill="#E0E0E0"/>
<path d="M207.92 84.8402C207.92 84.9802 206.8 85.1002 205.43 85.1002C204.05 85.1002 202.94 84.9802 202.94 84.8402C202.94 84.7002 204.06 84.5802 205.43 84.5802C206.81 84.5702 207.92 84.6902 207.92 84.8402Z" fill="#E0E0E0"/>
<path d="M217.9 84.8402C217.9 84.9802 216.78 85.1002 215.41 85.1002C214.03 85.1002 212.92 84.9802 212.92 84.8402C212.92 84.7002 214.04 84.5802 215.41 84.5802C216.78 84.5702 217.9 84.6902 217.9 84.8402Z" fill="#E0E0E0"/>
<path d="M225.38 87.3401C225.24 87.3401 225.12 86.2201 225.12 84.8401C225.64 85.3601 225.26 84.9801 225.38 85.1001H225.37H225.35H225.32H225.26H225.13H224.88C224.73 85.1001 224.58 85.0901 224.41 85.0801C224.11 85.0701 223.84 85.0501 223.62 85.0201C223.17 84.9701 222.89 84.9101 222.89 84.8401C222.89 84.7701 223.17 84.7001 223.62 84.6601C223.85 84.6401 224.12 84.6201 224.41 84.6001C224.58 84.5901 224.73 84.5901 224.88 84.5801H225.13H225.26H225.32H225.35H225.37H225.38C225.5 84.7001 225.12 84.3201 225.64 84.8401C225.65 86.2201 225.53 87.3401 225.38 87.3401Z" fill="#E0E0E0"/>
<path d="M225.38 97.15C225.24 97.15 225.12 96.05 225.12 94.7C225.12 93.34 225.24 92.25 225.38 92.25C225.52 92.25 225.64 93.35 225.64 94.7C225.65 96.05 225.53 97.15 225.38 97.15Z" fill="#E0E0E0"/>
<path d="M225.38 106.97C225.24 106.97 225.12 105.87 225.12 104.52C225.12 103.16 225.24 102.07 225.38 102.07C225.52 102.07 225.64 103.17 225.64 104.52C225.65 105.87 225.53 106.97 225.38 106.97Z" fill="#E0E0E0"/>
<path d="M225.38 116.79C225.24 116.79 225.12 115.69 225.12 114.34C225.12 112.98 225.24 111.89 225.38 111.89C225.52 111.89 225.64 112.99 225.64 114.34C225.65 115.69 225.53 116.79 225.38 116.79Z" fill="#E0E0E0"/>
<path d="M225.38 126.61C225.24 126.61 225.12 125.51 225.12 124.16C225.12 122.8 225.24 121.71 225.38 121.71C225.52 121.71 225.64 122.81 225.64 124.16C225.65 125.51 225.53 126.61 225.38 126.61Z" fill="#E0E0E0"/>
<path d="M225.38 136.42C225.24 136.42 225.12 135.32 225.12 133.97C225.12 132.61 225.24 131.52 225.38 131.52C225.52 131.52 225.64 132.62 225.64 133.97C225.65 135.32 225.53 136.42 225.38 136.42Z" fill="#E0E0E0"/>
<path d="M225.38 146.24C225.24 146.24 225.12 145.14 225.12 143.79C225.12 142.43 225.24 141.34 225.38 141.34C225.52 141.34 225.64 142.44 225.64 143.79C225.65 145.14 225.53 146.24 225.38 146.24Z" fill="#E0E0E0"/>
<path d="M225.38 156.06C225.24 156.06 225.12 154.96 225.12 153.61C225.12 152.25 225.24 151.16 225.38 151.16C225.52 151.16 225.64 152.26 225.64 153.61C225.65 154.96 225.53 156.06 225.38 156.06Z" fill="#E0E0E0"/>
<path d="M225.38 165.88C225.24 165.88 225.12 164.78 225.12 163.43C225.12 162.07 225.24 160.98 225.38 160.98C225.52 160.98 225.64 162.08 225.64 163.43C225.65 164.78 225.53 165.88 225.38 165.88Z" fill="#E0E0E0"/>
<path d="M225.38 175.69C225.24 175.69 225.12 174.59 225.12 173.24C225.12 171.88 225.24 170.79 225.38 170.79C225.52 170.79 225.64 171.89 225.64 173.24C225.65 174.59 225.53 175.69 225.38 175.69Z" fill="#E0E0E0"/>
<path d="M213.86 182.33L58.7603 190.84C57.5803 190.9 56.5803 190 56.5103 188.82L51.3603 94.9701C51.3003 93.7901 52.2003 92.7801 53.3803 92.7201L208.48 84.2101C209.66 84.1501 210.66 85.0501 210.73 86.2301L215.88 180.08C215.94 181.26 215.04 182.27 213.86 182.33Z" fill="#FFC727"/>
<path d="M134.74 127.56L148.21 133.88L136.1 142.84L124 151.8L122.64 136.52L121.28 121.24L134.74 127.56Z" fill="white"/>
<path d="M203.951 173.05C203.961 173.19 173.441 174.98 135.791 177.05C98.1306 179.12 67.6106 180.67 67.6006 180.53C67.5906 180.39 98.1006 178.6 135.761 176.53C173.411 174.46 203.941 172.9 203.951 173.05Z" fill="white"/>
<path d="M69.9803 180.4C70.0303 181.35 69.3003 182.16 68.3603 182.21C67.4103 182.26 66.6003 181.53 66.5503 180.59C66.5003 179.64 67.2303 178.83 68.1703 178.78C69.1203 178.72 69.9303 179.45 69.9803 180.4Z" fill="white"/>
<g opacity="0.3">
<path d="M200.19 84.81C197.71 89.57 195.17 95 196.88 100.09C197.66 102.43 199.27 104.38 200.48 106.53C204.19 113.1 204.07 121.07 203.84 128.61C203.78 130.75 203.59 133.14 201.98 134.55C200.66 135.7 198.76 135.82 197.01 135.89C189.98 136.16 182.95 136.43 175.91 136.7V173.85L215.05 165.2L213.18 109.62L212.23 100.24L208.28 84.25L200.19 84.81Z" fill="black"/>
</g>
<path d="M166.65 385.2L167.98 416.54L184.91 416.16L183.64 384.76L166.65 385.2Z" fill="#FFC727"/>
<path d="M176.29 415.17C176.43 415.16 176.17 408.3 175.7 399.84C175.24 391.38 174.74 384.53 174.6 384.54C174.46 384.55 174.72 391.41 175.19 399.87C175.66 408.33 176.15 415.18 176.29 415.17Z" fill="#263238"/>
<path d="M167.891 414.38L184.821 413.95L184.911 416.16L167.981 416.54L167.891 414.38Z" fill="#E0E0E0"/>
<path d="M184.501 406.13C184.521 406.11 184.371 405.87 184.041 405.47C183.711 405.07 183.181 404.52 182.461 403.93C181.731 403.34 180.801 402.71 179.641 402.22C178.501 401.73 177.111 401.41 175.661 401.49C172.741 401.63 170.341 403.18 169.201 404.66C168.601 405.39 168.251 406.07 168.051 406.56C167.851 407.05 167.791 407.33 167.821 407.34C167.911 407.39 168.271 406.26 169.481 404.9C170.651 403.54 172.921 402.14 175.701 402C178.471 401.86 180.811 403.15 182.251 404.21C183.701 405.29 184.431 406.19 184.501 406.13Z" fill="#263238"/>
<g opacity="0.3">
<path d="M184.001 393.7L184.141 397.15L167.171 397.45L167.061 394.85L184.001 393.7Z" fill="black"/>
</g>
<path d="M125.72 386.02L126.57 405.63C126.57 405.63 106.92 413.08 106.73 416.72L144.81 416.44L144.74 385.83L125.72 386.02Z" fill="#FFC727"/>
<path d="M138.071 403.96C138.811 404.16 139.331 404.99 139.171 405.74C139.001 406.49 138.161 407.03 137.421 406.84C136.671 406.66 136.021 405.68 136.271 404.95C136.521 404.22 137.541 403.65 138.221 404.01" fill="#E0E0E0"/>
<path d="M144.801 416.43L144.791 413.37L107.951 414.76C107.951 414.76 106.251 415.52 106.451 416.72L144.801 416.43Z" fill="#E0E0E0"/>
<path d="M126.221 405.75C126.231 405.94 127.161 406.02 128.091 406.61C129.031 407.18 129.511 407.99 129.681 407.91C129.851 407.87 129.571 406.75 128.431 406.05C127.311 405.35 126.181 405.58 126.221 405.75Z" fill="#263238"/>
<path d="M122.211 407.45C122.171 407.63 122.981 407.94 123.621 408.73C124.291 409.5 124.451 410.35 124.641 410.34C124.821 410.37 124.941 409.27 124.121 408.31C123.311 407.34 122.211 407.27 122.211 407.45Z" fill="#263238"/>
<path d="M119.961 412.28C120.131 412.32 120.381 411.38 119.901 410.36C119.421 409.33 118.531 408.94 118.451 409.09C118.351 409.24 118.921 409.79 119.311 410.64C119.711 411.47 119.771 412.26 119.961 412.28Z" fill="#263238"/>
<path d="M126.521 401.23C126.601 401.4 127.461 401.14 128.521 401.2C129.581 401.24 130.411 401.59 130.501 401.43C130.611 401.29 129.801 400.61 128.551 400.55C127.311 400.48 126.431 401.08 126.521 401.23Z" fill="#263238"/>
<path d="M125.811 397.01C125.811 397.09 126.551 397.2 127.731 396.99C128.321 396.88 129.011 396.69 129.731 396.36C130.091 396.2 130.461 396 130.831 395.77C131.011 395.65 131.211 395.54 131.411 395.31C131.621 395.11 131.731 394.62 131.491 394.31C131.291 394.02 130.941 393.89 130.671 393.89C130.391 393.88 130.161 393.94 129.951 393.99C129.521 394.1 129.121 394.24 128.761 394.41C128.031 394.75 127.441 395.17 127.001 395.59C126.121 396.42 125.821 397.12 125.881 397.16C125.971 397.22 126.391 396.63 127.291 395.94C127.741 395.6 128.311 395.24 129.001 394.96C129.341 394.82 129.711 394.7 130.101 394.61C130.511 394.5 130.851 394.5 130.961 394.67C131.001 394.74 131.001 394.77 130.921 394.89C130.831 395 130.671 395.11 130.501 395.22C130.161 395.44 129.821 395.64 129.491 395.81C128.821 396.15 128.191 396.38 127.641 396.54C126.531 396.85 125.811 396.91 125.811 397.01Z" fill="#263238"/>
<path d="M126.061 397.28C126.131 397.31 126.491 396.63 126.551 395.42C126.581 394.82 126.511 394.09 126.271 393.32C126.151 392.94 125.991 392.54 125.771 392.16C125.541 391.78 125.261 391.28 124.541 391.2C124.161 391.19 123.851 391.49 123.741 391.74C123.621 392 123.591 392.22 123.551 392.45C123.481 392.9 123.491 393.34 123.561 393.74C123.691 394.56 124.031 395.23 124.391 395.72C125.151 396.71 125.931 396.93 125.951 396.86C126.011 396.77 125.361 396.41 124.781 395.46C124.491 394.99 124.241 394.37 124.161 393.66C124.121 393.31 124.121 392.93 124.191 392.55C124.251 392.14 124.401 391.81 124.551 391.85C124.741 391.85 125.071 392.15 125.231 392.47C125.431 392.81 125.591 393.16 125.711 393.51C125.961 394.2 126.071 394.86 126.101 395.42C126.151 396.55 125.951 397.25 126.061 397.28Z" fill="#263238"/>
<g opacity="0.3">
<path d="M144.811 397.58L144.771 401.93H126.401V399.54L144.811 397.58Z" fill="black"/>
</g>
<path d="M201.821 87.8601C201.391 87.9101 200.281 92.2001 199.741 94.3801C199.541 95.1801 199.661 96.0201 200.061 96.7401L204.471 104.54C205.291 105.99 206.481 107.19 207.931 108.01L210.141 109.27L210.421 113.91L222.831 114.1L219.051 99.6301L217.471 90.8001C217.051 89.9101 216.221 89.3001 215.251 89.1501L214.091 88.9801L213.651 87.8601C213.391 87.2001 212.781 86.7301 212.081 86.6401L211.361 86.5501L210.341 84.0401C210.001 83.2101 209.191 82.6701 208.291 82.6801L202.281 82.7601C202.281 82.7601 200.961 84.5401 203.991 85.3801C205.471 85.7901 206.571 85.7001 206.571 85.7001L207.971 91.1101C207.971 91.1101 208.961 96.7901 206.301 96.7901C203.961 96.7901 203.741 93.7401 203.741 93.7401C203.741 93.7401 204.881 87.5201 201.821 87.8601Z" fill="#FFBE9D"/>
<path d="M214.14 93.2801C214.1 93.2801 214.13 92.8301 213.91 92.1501C213.69 91.4601 213.16 90.6601 212.22 90.0001C211.7 88.9601 211.46 88.0201 211.29 87.3101C211.13 86.6001 211.14 86.1501 211.16 86.1401C211.19 86.1401 211.24 86.5801 211.43 87.2701C211.62 87.9401 211.93 88.9401 212.38 89.8701C212.57 90.0301 212.78 90.1901 212.99 90.3701C213.19 90.5501 213.35 90.7501 213.5 90.9501C213.78 91.3501 213.96 91.7601 214.06 92.1101C214.16 92.4601 214.19 92.7601 214.19 92.9701C214.17 93.1701 214.15 93.2801 214.14 93.2801Z" fill="#EB996E"/>
<path d="M216.03 92.24C216.01 92.24 216.03 92 215.85 91.67C215.69 91.34 215.27 90.98 214.7 90.92L214.64 90.91L214.62 90.85C214.6 90.79 214.57 90.72 214.55 90.65C214.11 89.43 213.79 88.42 213.84 88.4C213.89 88.38 214.3 89.35 214.74 90.57C214.76 90.64 214.79 90.7 214.81 90.77L214.72 90.7C215.37 90.76 215.84 91.22 215.98 91.59C216.14 91.98 216.06 92.25 216.03 92.24Z" fill="#EB996E"/>
<path d="M206.54 85.7002C206.5 85.7402 206.27 85.4302 206.33 85.0102C206.38 84.6002 206.59 84.3302 206.64 84.3602C206.69 84.3902 206.58 84.6802 206.54 85.0402C206.49 85.3902 206.6 85.6702 206.54 85.7002Z" fill="#EB996E"/>
<path d="M142.971 141.97L165.481 141.68L162.971 122.52C162.971 122.52 164.511 122.19 164.611 113.85C164.711 105.51 165.101 91.35 165.101 91.35C155.451 87.2 144.311 88.6 135.981 95.01L134.741 95.96L142.971 141.97Z" fill="#FFBE9D"/>
<path d="M137.361 106.21C137.221 106.15 131.631 104.52 131.811 110.22C131.991 115.92 137.681 114.56 137.681 114.4C137.691 114.23 137.361 106.21 137.361 106.21Z" fill="#FFBE9D"/>
<path d="M164.131 105.02C164.271 104.96 169.351 103.59 169.171 109.29C168.991 114.99 163.301 113.63 163.301 113.47C163.291 113.3 164.131 105.02 164.131 105.02Z" fill="#FFBE9D"/>
<path d="M170.531 88.5501C170.621 87.5201 170.231 86.4101 169.391 85.8001C168.551 85.1901 167.241 85.2301 166.561 86.0101C166.951 84.6201 165.811 83.0101 164.371 82.9201C163.011 82.8301 161.851 83.8601 160.541 84.2201C159.261 84.5701 157.881 84.2701 156.651 83.7701C155.421 83.2701 154.261 82.5901 153.011 82.1301C150.401 81.1801 147.431 81.3001 144.901 82.4601C142.381 83.6201 140.351 85.8001 139.371 88.4001C137.551 87.8301 135.471 88.7601 134.351 90.3001C133.231 91.8401 132.941 93.8701 133.161 95.7701C133.311 97.0501 133.681 98.2901 134.111 99.5101C134.111 99.6201 134.101 99.7201 134.101 99.8301C134.191 104.41 136.581 118.9 138.531 118.93C141.941 118.98 139.251 103.45 139.251 103.45C143.431 101.83 141.881 95.5601 142.921 94.6101C143.971 93.6601 146.151 91.4501 154.911 95.9301C158.311 97.6701 162.831 97.6101 165.301 97.0501C165.371 97.0301 165.451 97.0201 165.521 97.0101C165.541 97.0101 165.561 97.0001 165.571 97.0001C165.601 96.9901 165.621 96.9801 165.641 96.9701C166.431 96.7601 167.191 96.4601 167.891 96.0201C168.681 95.5201 169.401 94.8401 169.741 93.9601C170.081 93.0801 169.951 91.9901 169.261 91.3501C169.931 90.5401 170.441 89.5801 170.531 88.5501Z" fill="#263238"/>
<path d="M135.511 105.57C136.361 110.35 136.191 112.86 136.981 116.05C138.231 121.1 140.731 124.97 145.281 127.49C149.831 130.01 155.981 129.97 159.891 126.53C162.601 124.15 164.521 121.46 164.921 117.87C165.321 114.28 165.731 107.93 165.751 104.33C165.801 97.8202 166.231 91.6002 166.231 91.6002L147.641 88.2402L137.061 94.5302L135.511 105.57Z" fill="#263238"/>
<path d="M154.691 130.37C154.721 130.5 153.261 130.86 151.431 130.66C149.601 130.46 148.261 129.79 148.311 129.67C148.361 129.53 149.741 129.96 151.481 130.14C153.231 130.34 154.671 130.22 154.691 130.37Z" fill="#263238"/>
<path d="M159.52 87.4001C159.52 87.4001 159.22 87.5301 158.64 87.5601C158.06 87.5901 157.2 87.4601 156.26 87.0101C155.31 86.5801 154.33 85.8101 153.25 84.9901C152.18 84.1701 150.88 83.3601 149.32 83.1801C147.78 82.9701 146.27 83.2801 145.09 83.9201C143.9 84.5501 143.05 85.4801 142.51 86.3401C141.43 88.1001 141.47 89.4601 141.41 89.4401C141.41 89.4401 141.4 89.1201 141.5 88.5501C141.61 87.9801 141.85 87.1601 142.39 86.2701C142.93 85.3901 143.78 84.4201 145 83.7601C146.21 83.0901 147.77 82.7701 149.35 82.9801C150.95 83.1701 152.3 84.0201 153.37 84.8401C154.45 85.6701 155.4 86.4401 156.33 86.8801C157.24 87.3401 158.08 87.4901 158.64 87.4901C159.21 87.4801 159.52 87.3701 159.52 87.4001Z" fill="#455A64"/>
<path d="M141.661 89.7502C141.641 89.7902 141.181 89.4502 140.321 89.2502C139.481 89.0502 138.181 89.0601 137.031 89.7701C135.891 90.4801 135.301 91.6401 135.111 92.4901C134.901 93.3501 135.011 93.9102 134.961 93.9102C134.951 93.9102 134.911 93.7801 134.891 93.5301C134.871 93.2801 134.871 92.9101 134.961 92.4601C135.121 91.5801 135.711 90.3501 136.921 89.6001C138.131 88.8601 139.491 88.8702 140.351 89.1202C140.791 89.2402 141.121 89.4001 141.341 89.5301C141.561 89.6401 141.671 89.7402 141.661 89.7502Z" fill="#455A64"/>
<path d="M141.11 110.07C140.98 110.13 140.28 108.82 139.55 107.15C138.82 105.48 138.34 104.08 138.47 104.02C138.6 103.96 139.3 105.27 140.03 106.94C140.76 108.61 141.24 110.01 141.11 110.07Z" fill="#455A64"/>
<path d="M145.981 113.35C145.901 113.46 144.491 112.48 143.351 110.72C142.201 108.97 141.871 107.28 142.001 107.25C142.151 107.2 142.681 108.76 143.781 110.43C144.871 112.11 146.091 113.23 145.981 113.35Z" fill="#455A64"/>
<path d="M150.79 114.4C150.72 114.52 149.66 113.98 148.56 113.03C147.46 112.08 146.79 111.1 146.9 111.01C147.01 110.91 147.84 111.71 148.9 112.64C149.97 113.56 150.87 114.27 150.79 114.4Z" fill="#455A64"/>
<path d="M159.281 106.67C159.421 106.68 159.401 108.01 158.781 109.51C158.161 111.01 157.231 111.96 157.131 111.87C157.011 111.78 157.721 110.73 158.301 109.31C158.891 107.9 159.131 106.66 159.281 106.67Z" fill="#455A64"/>
<path d="M162.161 102.17C162.291 102.16 162.431 103.78 161.831 105.66C161.241 107.55 160.211 108.8 160.101 108.72C159.971 108.63 160.781 107.31 161.331 105.51C161.911 103.71 162.001 102.17 162.161 102.17Z" fill="#455A64"/>
<path d="M164.371 90.6501C164.371 90.6501 164.151 90.9101 163.631 91.2301C163.111 91.5501 162.271 91.8901 161.181 91.9801C160.091 92.0901 158.771 91.9101 157.421 91.4001C156.061 90.9101 154.691 90.1201 153.251 89.3201C151.811 88.5201 150.401 87.8301 149.021 87.5001C147.651 87.1501 146.341 87.2001 145.321 87.5201C144.291 87.8201 143.561 88.3401 143.151 88.7601C142.731 89.1901 142.571 89.4801 142.551 89.4701C142.551 89.4701 142.681 89.1501 143.101 88.7001C143.511 88.2501 144.241 87.7001 145.291 87.3701C146.331 87.0301 147.681 86.9501 149.081 87.3101C150.491 87.6401 151.931 88.3401 153.371 89.1401C154.811 89.9401 156.171 90.7301 157.501 91.2201C158.821 91.7301 160.111 91.9101 161.181 91.8301C163.341 91.6801 164.361 90.5801 164.371 90.6501Z" fill="#455A64"/>
<path d="M166.021 93.3502C166.031 93.3602 165.921 93.4302 165.721 93.5502C165.521 93.6702 165.221 93.8202 164.831 93.9902C164.061 94.3202 162.941 94.6602 161.671 94.7802C160.391 94.8902 159.231 94.7702 158.421 94.5802C158.011 94.4902 157.691 94.3902 157.471 94.3102C157.251 94.2302 157.131 94.1802 157.141 94.1702C157.151 94.1402 157.641 94.2902 158.451 94.4402C159.261 94.5902 160.401 94.6902 161.651 94.5802C162.901 94.4602 164.001 94.1502 164.771 93.8602C165.551 93.5602 166.001 93.3202 166.021 93.3502Z" fill="#455A64"/>
<path d="M155.66 265.64L161.13 318.4L165.06 397.86H186.03L186.6 228.75L126.56 233.03L114.12 321.76L124.9 399.42H147.9L142.52 325.57L155.66 265.64Z" fill="#263238"/>
<path d="M155.66 265.64C155.76 265.75 153.93 267.55 151.58 269.66C149.23 271.78 147.25 273.4 147.15 273.3C147.05 273.19 148.88 271.39 151.23 269.28C153.58 267.16 155.56 265.53 155.66 265.64Z" fill="#455A64"/>
<path d="M155.6 264.58C155.46 264.57 155.58 261.54 155.71 257.81C155.85 254.08 155.96 251.05 156.1 251.05C156.24 251.05 156.37 254.09 156.23 257.83C156.1 261.57 155.74 264.6 155.6 264.58Z" fill="#455A64"/>
<path d="M162.53 244.89C162.52 244.88 162.63 244.87 162.87 244.85C163.15 244.83 163.49 244.81 163.91 244.79C164.89 244.74 166.23 244.68 167.89 244.6C171.41 244.45 176.31 244.25 182.11 244.01L182.35 244V244.24C182.36 248.68 182.37 253.7 182.38 259V259.28V259.46L182.22 259.53C179 260.82 175.9 262.06 172.97 263.23L172.88 263.26L172.79 263.23C169.86 262.21 167.12 261.26 164.61 260.39L164.48 260.35L164.46 260.22C163.86 255.62 163.36 251.78 163.01 249.03C162.85 247.75 162.73 246.72 162.63 245.95C162.55 245.24 162.51 244.88 162.53 244.89C162.54 244.9 162.56 245 162.6 245.19C162.64 245.42 162.68 245.69 162.74 246.02C162.86 246.79 163.03 247.84 163.23 249.13C163.64 251.84 164.21 255.62 164.89 260.15L164.75 259.97C167.26 260.82 170.01 261.76 172.95 262.75H172.78C175.7 261.57 178.8 260.32 182.02 259.02L181.86 259.26V259C181.87 253.7 181.88 248.68 181.89 244.24L182.13 244.47C176.4 244.61 171.55 244.73 168.07 244.82C166.38 244.85 165.02 244.87 164.03 244.89C163.59 244.89 163.23 244.9 162.94 244.9C162.68 244.9 162.54 244.9 162.53 244.89Z" fill="#455A64"/>
<path d="M132.26 245.15C132.25 245.14 132.35 245.13 132.56 245.12C132.81 245.11 133.12 245.1 133.49 245.08C134.38 245.05 135.58 245.01 137.09 244.97C140.29 244.9 144.74 244.79 150.06 244.67L150.3 244.66L150.29 244.9C150.15 249.28 149.99 254.33 149.81 259.71V259.84L149.7 259.91C149.22 260.22 148.71 260.55 148.2 260.89C145.57 262.61 143.02 264.27 140.6 265.85L140.47 265.94L140.34 265.86C137.25 263.98 134.37 262.22 131.78 260.64L131.67 260.57V260.45C131.83 255.85 131.97 252.02 132.06 249.27C132.12 247.99 132.16 246.96 132.19 246.2C132.22 245.49 132.25 245.13 132.26 245.15C132.27 245.16 132.27 245.26 132.28 245.45C132.28 245.68 132.28 245.95 132.28 246.28C132.27 247.06 132.27 248.1 132.26 249.4C132.22 252.12 132.16 255.9 132.09 260.45L131.99 260.26C134.6 261.82 137.49 263.56 140.59 265.42H140.32C142.73 263.84 145.28 262.17 147.91 260.45C148.42 260.11 148.93 259.78 149.41 259.47L149.29 259.68C149.49 254.3 149.67 249.26 149.83 244.88L150.06 245.12C144.8 245.15 140.39 245.17 137.23 245.19C135.7 245.19 134.48 245.18 133.58 245.18C133.19 245.17 132.87 245.17 132.6 245.17C132.39 245.16 132.27 245.16 132.26 245.15Z" fill="#455A64"/>
<path d="M180.12 269.05C180.11 269.12 179.03 269.09 177.28 268.96C175.53 268.83 173.12 268.59 170.46 268.25C167.8 267.91 165.41 267.52 163.69 267.2C161.96 266.88 160.91 266.63 160.92 266.56C160.93 266.49 162.01 266.61 163.75 266.84C165.66 267.09 167.97 267.4 170.53 267.74C173.09 268.07 175.41 268.36 177.32 268.6C179.05 268.82 180.13 268.98 180.12 269.05Z" fill="#455A64"/>
<path d="M179.631 327.87C179.651 327.88 179.541 328.17 179.131 328.54C178.721 328.89 177.971 329.27 176.991 329.27C176.001 329.3 174.851 328.85 173.861 328.07C172.851 327.29 171.951 326.26 171.011 325.18C169.141 323.01 167.701 320.83 166.761 319.21C165.831 317.58 165.381 316.51 165.431 316.48C165.501 316.44 166.071 317.45 167.071 319.02C168.071 320.59 169.551 322.7 171.401 324.85C172.331 325.92 173.221 326.94 174.161 327.7C175.091 328.46 176.111 328.89 177.001 328.91C177.901 328.96 178.601 328.67 179.021 328.39C179.431 328.08 179.591 327.84 179.631 327.87Z" fill="#455A64"/>
<path d="M138.22 329.72C138.24 329.73 138.19 329.99 137.94 330.39C137.69 330.79 137.23 331.33 136.49 331.77C135.76 332.21 134.76 332.54 133.61 332.53C132.47 332.52 131.24 332.12 130.14 331.43C127.92 330.02 126.72 327.91 125.97 326.46C125.23 324.97 124.88 324.02 124.93 323.99C125 323.95 125.48 324.86 126.29 326.29C127.11 327.68 128.33 329.68 130.41 330.99C131.44 331.64 132.57 332.02 133.61 332.05C134.65 332.09 135.59 331.82 136.29 331.45C137.74 330.69 138.14 329.65 138.22 329.72Z" fill="#455A64"/>
<path d="M139.56 321.76C139.59 321.81 138.97 322.27 137.84 322.76C136.71 323.25 135.04 323.73 133.14 323.81C131.24 323.89 129.54 323.55 128.37 323.15C127.2 322.75 126.54 322.35 126.57 322.29C126.62 322.13 129.42 323.46 133.12 323.28C136.81 323.16 139.49 321.6 139.56 321.76Z" fill="#455A64"/>
<path d="M207.8 135.54H177.23C177.23 135.54 173.08 133.15 171.07 133.55C169.06 133.95 167.32 136.1 167.32 136.1L171.36 169.79L181.26 162.46L218.12 158.62C221.31 158.59 224.36 157.26 226.55 154.93C228.93 152.4 230.07 148.95 229.65 145.5L222.83 109.27L208.84 109.73L208.29 118.92L207.8 135.54Z" fill="#455A64"/>
<path d="M123.641 144.03C123.641 144.03 118.701 146.76 116.261 152.61C114.481 156.89 102.301 178.26 95.8905 189.45C93.5605 193.52 94.1805 198.63 97.4205 202.02C101.321 206.1 107.861 207.21 113.551 205.36C116.101 204.53 126.311 196.24 126.311 196.24L123.641 144.03Z" fill="#455A64"/>
<path d="M128.96 220.42L121.95 160.11L123.64 144.03L141.48 136.43L164.6 134.92L186.6 137.34L181.45 199.2L187.09 234.09L125.45 236.88L128.96 220.42Z" fill="#455A64"/>
<path d="M128.931 220.16C128.791 220.18 127.111 206.74 125.181 190.16C123.251 173.57 121.811 160.12 121.951 160.1C122.091 160.08 123.771 173.51 125.701 190.1C127.621 206.69 129.071 220.15 128.931 220.16Z" fill="#263238"/>
<path d="M186.15 150.87C186.17 150.87 186.161 151.06 186.141 151.41C186.101 151.82 186.061 152.33 186.001 152.96C185.861 154.38 185.661 156.3 185.421 158.65C184.931 163.52 184.27 170.12 183.54 177.41C182.84 184.74 182.271 191.39 181.911 196.2C181.741 198.55 181.601 200.48 181.501 201.9C181.451 202.52 181.411 203.04 181.381 203.45C181.351 203.8 181.321 203.99 181.301 203.99C181.281 203.99 181.271 203.8 181.271 203.45C181.281 203.04 181.291 202.52 181.301 201.89C181.331 200.54 181.421 198.59 181.551 196.18C181.821 191.36 182.331 184.7 183.021 177.37C183.721 170.04 184.471 163.41 185.061 158.61C185.361 156.21 185.611 154.28 185.801 152.94C185.901 152.32 185.97 151.81 186.04 151.4C186.09 151.05 186.13 150.87 186.15 150.87Z" fill="#263238"/>
<path d="M175.551 210.92C175.581 210.94 175.231 211.37 174.571 212.11C174.251 212.49 173.841 212.94 173.321 213.42C172.801 213.9 172.251 214.49 171.541 215.03C170.861 215.6 170.101 216.21 169.221 216.79C168.381 217.42 167.401 217.96 166.391 218.56C164.321 219.68 161.941 220.74 159.341 221.53C156.731 222.29 154.161 222.71 151.811 222.91C150.631 222.96 149.521 223.04 148.471 222.98C147.421 222.98 146.451 222.88 145.571 222.78C144.681 222.72 143.891 222.53 143.201 222.41C142.501 222.3 141.911 222.15 141.441 222C140.481 221.73 139.961 221.57 139.971 221.54C140.001 221.42 142.101 222.08 145.611 222.41C146.491 222.49 147.451 222.56 148.481 222.55C149.511 222.59 150.621 222.5 151.781 222.44C154.091 222.22 156.621 221.79 159.201 221.04C161.771 220.26 164.111 219.23 166.171 218.15C167.181 217.57 168.151 217.04 168.991 216.44C169.871 215.89 170.631 215.3 171.321 214.75C174.061 212.54 175.461 210.84 175.551 210.92Z" fill="#263238"/>
<g opacity="0.3">
<path d="M142.961 222.18C139.961 221.32 139.791 218.5 140.951 217.28C142.111 216.06 144.001 215.91 145.661 216.15C147.321 216.39 148.961 216.94 150.641 216.83C153.381 216.64 155.681 214.74 157.581 212.76C159.481 210.78 161.291 208.56 163.791 207.43C166.291 206.29 169.771 206.69 171.091 209.1C171.931 210.63 171.661 212.59 170.791 214.11C169.921 215.62 168.521 216.76 167.081 217.75C160.111 222.47 151.131 224.24 142.961 222.18Z" fill="black"/>
</g>
<g opacity="0.2">
<path d="M124.48 182.26C123.94 183.02 118.73 190.13 118.73 190.13C118.59 190.85 113.54 197.37 113.54 197.37C113.54 197.37 118.02 194.87 121.47 193.1C123.12 192.25 125.6 190.14 125.6 190.14C125.6 190.14 124.82 185.24 124.48 183.42C123.71 179.32 123.19 170.06 123.19 170.06" fill="black"/>
</g>
<path d="M179.41 136.77C179.43 136.64 181.72 137.57 183.42 139.96C185.15 142.33 185.31 144.79 185.18 144.77C185.02 144.81 184.64 142.51 182.99 140.26C181.39 138 179.32 136.91 179.41 136.77Z" fill="#263238"/>
<path d="M124.48 182.26C124.54 182.3 123.96 183.23 122.97 184.69C121.98 186.15 120.59 188.16 119.02 190.34C115.88 194.7 113.18 198.19 112.99 197.99C113.46 197.3 113.94 196.61 114.6 195.65C115.72 194.07 117.08 192.15 118.59 190.03C120.16 187.85 121.6 185.88 122.67 184.47C123.73 183.07 124.42 182.21 124.48 182.26Z" fill="#263238"/>
</g>
<defs>
<clipPath id="clip0_543_613">
<rect width="466.24" height="416.97" fill="white"/>
</clipPath>
</defs>
</svg>
