<svg width="741" height="593" viewBox="0 0 741 593" fill="none" xmlns="http://www.w3.org/2000/svg">
<g clip-path="url(#clip0_340_4370)">
<path d="M741 539.993H679.25V540.458H741V539.993Z" fill="#EBEBEB"/>
<path d="M519.729 545.049H503.527V545.513H519.729V545.049Z" fill="#EBEBEB"/>
<path d="M677.386 522.746H641.607V523.21H677.386V522.746Z" fill="#EBEBEB"/>
<path d="M80.5248 525.868H0V526.333H80.5248V525.868Z" fill="#EBEBEB"/>
<path d="M108.939 525.868H97.1367V526.333H108.939V525.868Z" fill="#EBEBEB"/>
<path d="M321.969 533.711H147.309V534.176H321.969V533.711Z" fill="#EBEBEB"/>
<path d="M368.299 593C567.948 593 729.794 583.58 729.794 571.961C729.794 560.341 567.948 550.922 368.299 550.922C168.651 550.922 6.80469 560.341 6.80469 571.961C6.80469 583.58 168.651 593 368.299 593Z" fill="#F5F5F5"/>
<path d="M407.658 406.733H418.845L437.75 563.523C438.235 566.85 435.662 568.169 432.287 568.169C429.547 568.169 427.216 567.835 426.806 565.14L407.658 406.733Z" fill="#263238"/>
<path opacity="0.2" d="M407.658 406.733H418.845L437.75 563.523C438.235 566.85 435.662 568.169 432.287 568.169C429.547 568.169 427.216 567.835 426.806 565.14L407.658 406.733Z" fill="white"/>
<path d="M372.232 406.733H383.419L392.76 563.876C393.002 567.091 390.448 568.169 387.204 568.169C384.277 568.169 381.853 567.593 381.648 564.694L372.232 406.733Z" fill="#263238"/>
<path opacity="0.2" d="M372.232 406.733H383.419L392.76 563.876C393.002 567.091 390.448 568.169 387.204 568.169C384.277 568.169 381.853 567.593 381.648 564.694L372.232 406.733Z" fill="white"/>
<path d="M345.722 406.733H334.535L324.635 563.876C324.393 567.091 326.947 568.169 330.191 568.169C333.118 568.169 335.542 567.593 335.747 564.694L345.722 406.733Z" fill="#263238"/>
<path opacity="0.2" d="M345.722 406.733H334.535L324.635 563.876C324.393 567.091 326.947 568.169 330.191 568.169C333.118 568.169 335.542 567.593 335.747 564.694L345.722 406.733Z" fill="white"/>
<path d="M310.297 406.733H299.11L279.627 563.523C279.142 566.85 281.715 568.169 285.09 568.169C287.831 568.169 290.161 567.835 290.553 565.14L310.297 406.733Z" fill="#263238"/>
<path opacity="0.2" d="M310.297 406.733H299.11L279.627 563.523C279.142 566.85 281.715 568.169 285.09 568.169C287.831 568.169 290.161 567.835 290.553 565.14L310.297 406.733Z" fill="white"/>
<path d="M388.92 256.782L342.328 398.462H444.257L461.876 249.18H399.454C394.663 249.18 390.412 252.247 388.92 256.782Z" fill="#263238"/>
<path opacity="0.2" d="M388.92 256.782L342.328 398.462H444.257L461.876 249.18H399.454C394.663 249.18 390.412 252.247 388.92 256.782Z" fill="white"/>
<path d="M372.979 387.125H272.02C267.359 387.125 263.574 390.897 263.574 395.544V401.417C263.574 406.063 267.359 409.836 272.02 409.836H372.979V387.125Z" fill="#263238"/>
<path opacity="0.1" d="M372.979 387.125H272.02C267.359 387.125 263.574 390.897 263.574 395.544V401.417C263.574 406.063 267.359 409.836 272.02 409.836H372.979V387.125Z" fill="white"/>
<path d="M453.356 257.488L440.211 371.308C439.167 380.322 431.505 387.125 422.406 387.125H352.061C347.4 387.125 343.615 390.898 343.615 395.544V401.417C343.615 406.064 347.4 409.837 352.061 409.837H437.228C446.439 409.837 454.157 402.867 455.071 393.723L469.408 249.199H462.678C457.924 249.18 453.915 252.749 453.356 257.488Z" fill="#263238"/>
<path opacity="0.2" d="M453.356 257.488L440.211 371.308C439.167 380.322 431.505 387.125 422.406 387.125H352.061C347.4 387.125 343.615 390.898 343.615 395.544V401.417C343.615 406.064 347.4 409.837 352.061 409.837H437.228C446.439 409.837 454.157 402.867 455.071 393.723L469.408 249.199H462.678C457.924 249.18 453.915 252.749 453.356 257.488Z" fill="white"/>
<path d="M270.23 513.397L273.996 543.543L257.123 546.033L250.84 517.616L270.23 513.397Z" fill="#FF8B7B"/>
<path d="M255.948 545.81L275.189 543.227C275.916 543.134 276.606 543.543 276.867 544.231L282.46 559.359C282.964 560.698 282.293 562.185 280.95 562.686C280.782 562.742 280.596 562.798 280.409 562.816C273.455 563.634 267.247 564.08 258.614 565.251C248.434 566.627 251.175 567.482 239.224 569.266C232.027 570.325 229.604 562.333 232.605 561.515C246.365 557.873 247.26 553.468 251.977 547.743C253.002 546.647 254.419 545.941 255.948 545.81Z" fill="#263238"/>
<path d="M247.298 550.475C245.116 550.773 242.786 550.68 241.928 549.825C241.481 549.323 241.388 548.598 241.723 548.004C241.947 547.483 242.376 547.074 242.898 546.851C245.732 545.643 252.35 548.319 252.649 548.45C252.817 548.524 252.91 548.673 252.91 548.858C252.891 549.026 252.779 549.193 252.611 549.249C250.878 549.806 249.106 550.215 247.298 550.475ZM244.035 547.427C243.755 547.465 243.494 547.539 243.252 547.632C242.916 547.743 242.637 547.985 242.506 548.319C242.264 548.877 242.413 549.119 242.544 549.249C243.513 550.29 247.969 549.713 251.194 548.877C248.92 547.948 246.496 547.465 244.035 547.427Z" fill="#FFC727"/>
<path d="M252.555 549.249C252.499 549.267 252.443 549.267 252.387 549.249C250.15 548.598 245.414 545.364 245.507 543.339C245.489 542.855 245.768 542.223 246.906 541.963C247.726 541.759 248.602 541.907 249.329 542.354C251.828 543.896 252.928 548.561 252.984 548.784C253.021 548.933 252.965 549.082 252.853 549.193C252.76 549.249 252.648 549.267 252.555 549.249ZM247.278 542.725L247.036 542.744C246.29 542.911 246.29 543.208 246.272 543.32C246.328 544.528 249.497 547.13 251.865 548.134C251.38 546.164 250.317 544.398 248.789 543.06C248.341 542.762 247.819 542.651 247.278 542.725Z" fill="#FFC727"/>
<path opacity="0.2" d="M251.66 521.314L254.811 535.495L272.672 532.856L270.696 517.095H271.069L251.66 521.314Z" fill="#263238"/>
<path d="M341.992 325.141C341.992 325.141 245.955 339.099 233.072 370.49C220.189 401.882 249.292 526.704 249.292 526.704L275.562 524.567C275.562 524.567 274.164 444.908 268.85 391.176L341.992 387.608L409.149 319.435L341.992 325.141Z" fill="#FFC727"/>
<path opacity="0.5" d="M341.992 325.141C341.992 325.141 245.955 339.099 233.072 370.49C220.189 401.882 249.292 526.704 249.292 526.704L275.562 524.567C275.562 524.567 274.164 444.908 268.85 391.176L341.992 387.608L409.149 319.435L341.992 325.141Z" fill="black"/>
<path d="M247.129 523.619L276.848 520.366V528.507L248.77 530.96L247.129 523.619Z" fill="#FFC727"/>
<path d="M336.269 517.839L337.91 548.189L320.888 549.49L316.637 520.682L336.269 517.839Z" fill="#FF8B7B"/>
<path d="M320.589 547.743L339.96 546.517C340.687 546.479 341.359 546.925 341.564 547.632L346.057 563.114C346.467 564.489 345.684 565.92 344.304 566.329C344.137 566.385 343.95 566.422 343.764 566.422C336.772 566.738 330.545 566.757 321.857 567.314C311.602 567.965 314.287 569.024 302.224 569.953C294.972 570.511 293.107 562.352 296.165 561.757C310.148 559.099 311.341 554.769 316.469 549.397C317.587 548.375 319.041 547.78 320.589 547.743Z" fill="#263238"/>
<path d="M311.733 551.813C309.533 551.944 307.221 551.702 306.438 550.791C306.028 550.271 305.99 549.527 306.363 548.97C306.624 548.468 307.09 548.078 307.631 547.91C310.54 546.907 316.953 550.048 317.233 550.178C317.401 550.252 317.494 550.42 317.457 550.605C317.438 550.773 317.308 550.921 317.14 550.977C315.369 551.405 313.56 551.683 311.733 551.813ZM308.694 548.542C308.414 548.561 308.153 548.598 307.892 548.691C307.538 548.765 307.258 549.007 307.109 549.323C306.829 549.862 306.96 550.104 307.09 550.252C307.985 551.349 312.46 551.089 315.741 550.475C313.541 549.397 311.155 548.747 308.694 548.542Z" fill="#FFC727"/>
<path d="M317.066 550.959C317.01 550.977 316.954 550.977 316.898 550.959C314.717 550.159 310.205 546.591 310.466 544.584C310.485 544.1 310.802 543.487 311.957 543.301C312.796 543.153 313.654 543.357 314.344 543.877C316.712 545.587 317.495 550.327 317.532 550.55C317.551 550.698 317.495 550.847 317.364 550.94C317.271 550.977 317.159 550.996 317.066 550.959ZM312.274 544.082H312.032C311.286 544.193 311.249 544.491 311.23 544.602C311.193 545.81 314.176 548.635 316.469 549.788C316.134 547.799 315.183 545.959 313.766 544.509C313.337 544.193 312.815 544.026 312.274 544.082Z" fill="#FFC727"/>
<path opacity="0.2" d="M337.183 534.696L336.269 517.857L316.637 520.682L318.893 535.923L337.183 534.696Z" fill="#263238"/>
<path d="M434.188 323.709C434.188 323.709 454.231 388.648 414.145 390.061C374.06 391.492 321.092 390.061 321.092 390.061C321.092 390.061 339.773 441.265 339.829 523.489L314.641 525.626C314.641 525.626 272.299 386.548 282.423 367.944C296.015 342.964 390.504 323.709 390.504 323.709H434.188Z" fill="#FFC727"/>
<path opacity="0.4" d="M434.188 323.709C434.188 323.709 454.231 388.648 414.145 390.061C374.06 391.492 321.092 390.061 321.092 390.061C321.092 390.061 339.773 441.265 339.829 523.489L314.641 525.626C314.641 525.626 272.299 386.548 282.423 367.944C296.015 342.964 390.504 323.709 390.504 323.709H434.188Z" fill="black"/>
<path d="M311.713 522.243L313.745 530.254L341.861 527.912V520.18L311.713 522.243Z" fill="#FFC727"/>
<path d="M367.87 204.407C368.02 210.596 367.815 216.376 367.572 222.342C367.33 228.308 366.864 234.2 366.267 240.148C365.148 252.284 362.948 264.309 359.704 276.074L358.213 280.646L357.84 281.78L357.747 282.077L357.597 282.505L357.131 283.731C356.535 285.144 355.77 286.501 354.857 287.746C353.402 289.735 351.613 291.5 349.599 292.931C347.958 294.121 346.224 295.162 344.397 296.035C338.357 298.842 305.281 302.336 293.181 301.611L292.436 293.545C292.436 293.545 315.834 285.59 320.961 283.917C325.697 282.505 330.228 280.553 334.497 278.063C335.653 277.449 336.623 276.557 337.331 275.479C337.312 275.2 336.865 276.427 337.387 274.476L338.301 270.721C340.426 260.016 341.806 249.18 342.44 238.289C342.85 232.732 343.111 227.137 343.372 221.525C343.633 215.912 343.707 210.224 343.782 204.872L367.87 204.407Z" fill="#FF8B7B"/>
<path d="M292.921 293.396L278.117 285.943L278.844 302.373C278.844 302.373 292.622 306.945 294.655 300.793L292.921 293.396Z" fill="#FF8B7B"/>
<path d="M270.081 297.764L270.808 302.336C270.995 304.194 272.878 305.402 275.134 305.105L278.863 302.373L278.136 285.943L271.964 291.296C269.112 293.879 269.895 296.017 270.081 297.764Z" fill="#FF8B7B"/>
<path d="M376.933 191.899C379.785 206.73 368.189 241.69 368.189 241.69L330.396 236.951C336.195 223.718 338.283 204.611 345.573 192.122C352.378 180.915 373.8 175.766 376.933 191.899Z" fill="#FFC727"/>
<path opacity="0.1" d="M376.933 191.899C379.785 206.73 368.189 241.69 368.189 241.69L330.396 236.951C336.195 223.718 338.283 204.611 345.573 192.122C352.378 180.915 373.8 175.766 376.933 191.899Z" fill="black"/>
<path d="M430.832 181.23C435.791 181.881 439.278 186.397 438.625 191.341C438.607 191.415 438.607 191.508 438.588 191.583C436.444 206.061 435.158 220.632 434.729 235.259C434.337 247.582 434.486 259.291 434.878 269.885C435.773 294.716 434.729 318.766 434.561 325.215L352.694 324.007C347.324 244.757 344.751 212.139 348.834 194.333C350.121 188.683 354.539 184.26 360.207 182.977C363.414 182.271 367.236 181.509 371.301 180.896C372.718 180.766 374.172 180.506 375.626 180.338C387.615 179.39 399.64 179.112 411.666 179.539C413.94 179.595 416.234 179.744 418.49 179.874C422.983 180.283 427.29 180.766 430.832 181.23Z" fill="#FFC727"/>
<path d="M407.341 139.264C405.29 150.861 403.444 172.049 411.685 179.614C393.357 194.445 382.562 213.979 378.61 210.299C376.522 208.366 373.539 184.13 375.683 180.32C388.547 176.974 388.025 167.44 385.601 158.519L407.341 139.264Z" fill="#FF8B7B"/>
<path d="M411.032 187.55L381.854 217.138C381.854 217.138 375.123 208.31 372.997 194.798C371.413 184.836 374.247 182.68 375.85 182.215C374.545 181.175 373.725 179.595 373.725 177.792C373.725 176.212 374.359 174.781 375.403 173.759C376.447 172.718 377.864 172.086 379.448 172.086H409.074C412.225 172.086 414.798 174.632 414.798 177.792C414.798 178.591 414.63 179.335 414.351 180.022C416.868 182.104 411.032 187.55 411.032 187.55Z" fill="#FFC727"/>
<path opacity="0.2" d="M398.503 147.107L385.639 158.481C386.235 160.563 386.664 162.682 386.869 164.838C391.791 164.039 398.466 158.5 398.876 153.333C399.137 151.252 399.007 149.151 398.503 147.107Z" fill="black"/>
<path d="M363.975 110.102C356.293 111.106 353.254 124.711 362.036 134.989C370.817 145.267 374.285 108.727 363.975 110.102Z" fill="#263238"/>
<path d="M402.96 118.336C405.272 133.837 407.416 142.795 401.338 152.274C392.184 166.548 371.731 163.574 364.814 149.077C358.605 136.011 355.827 112.853 369.587 103.597C379.356 96.9251 392.706 99.4156 399.399 109.155C401.282 111.905 402.513 115.046 402.96 118.336Z" fill="#FF8B7B"/>
<path d="M388.398 120.659C389.554 123.707 392.276 126.384 395.539 126.495C397.31 129.748 397.72 133.706 396.695 137.256C398.597 137.498 400.517 137.74 402.419 138C402.176 133.409 406.166 129.023 410.771 128.837C409.205 135.063 407.359 141.215 405.253 147.274C411.443 142.126 416.271 135.361 419.143 127.852C420.541 124.209 421.473 120.343 421.212 116.459C420.951 112.574 419.366 108.671 416.365 106.162C412.468 102.891 406.781 102.464 401.878 103.802C393.171 106.144 384.576 110.641 388.398 120.659Z" fill="#263238"/>
<path d="M294.076 243.121L313.448 305.421C313.448 305.421 332.614 299.399 341.004 304.641C349.301 309.826 355.435 316.034 355.435 316.034L342.048 248.233C342.067 248.233 324.261 227.268 294.076 243.121Z" fill="#FFC727"/>
<path d="M342.066 248.233L355.453 316.034C355.453 316.034 376.26 293.601 395.315 303.005L401.784 306.332L393.954 238.568C393.972 238.549 369.194 225.967 342.066 248.233Z" fill="#FFC727"/>
<path opacity="0.8" d="M342.066 248.233L355.453 316.034C355.453 316.034 376.26 293.601 395.315 303.005L401.784 306.332L393.954 238.568C393.972 238.549 369.194 225.967 342.066 248.233Z" fill="white"/>
<path opacity="0.8" d="M294.076 243.121L313.448 305.421C313.448 305.421 332.614 299.399 341.004 304.641C349.301 309.826 355.435 316.034 355.435 316.034L342.048 248.233C342.067 248.233 324.261 227.268 294.076 243.121Z" fill="white"/>
<path d="M355.416 315.346C339.233 310.142 323.479 304.641 310.558 316.09C305.748 297.671 298.644 280.126 293.237 261.875C288.912 247.266 288.893 249.812 296.649 245.575C303.343 241.913 334.609 238.549 341.209 255.648C343.633 261.875 354.242 313.896 355.416 315.346Z" fill="#263238"/>
<path d="M406.67 312.521C397.105 304.176 382.059 304.622 372.103 312.502C367.871 315.848 361.942 318.19 361.961 317.781L361.924 317.688L348.108 254.347C347.922 254.496 347.717 254.626 347.549 254.756C350.383 245.184 365.074 240.557 374.378 240.259C383.253 239.962 393.955 244.701 397.497 247.619C397.516 247.619 404.6 294.14 406.67 312.521Z" fill="#263238"/>
<path d="M361.98 317.781C361.98 317.781 356.387 319.509 354.205 314.956L340.576 254.031C340.576 254.031 342.869 258.027 347.586 254.756C347.754 254.626 347.959 254.496 348.146 254.347L361.961 317.688C361.961 317.744 361.98 317.781 361.98 317.781Z" fill="#263238"/>
<path opacity="0.1" d="M361.98 317.781C361.98 317.781 356.387 319.509 354.205 314.956L340.576 254.031C340.576 254.031 342.869 258.027 347.586 254.756C347.754 254.626 347.959 254.496 348.146 254.347L361.961 317.688C361.961 317.744 361.98 317.781 361.98 317.781Z" fill="white"/>
<path opacity="0.1" d="M426.692 189.594C419.701 188.572 416.811 191.062 411.963 200.578C407.489 209.37 405.046 234.683 405.046 234.683C404.17 248.548 402.399 246.987 415.562 247.991C423.989 248.641 434.672 250.407 434.672 250.407C434.672 250.407 447.593 192.661 426.692 189.594Z" fill="black"/>
<path d="M446.157 202.716C446.306 208.905 446.101 214.685 445.859 220.651C445.616 226.617 445.15 232.509 444.554 238.456C443.435 250.593 441.235 262.618 437.991 274.383L436.499 278.955L436.126 280.089L436.033 280.386L435.884 280.814L435.418 282.04C434.821 283.453 434.057 284.81 433.143 286.055C431.689 288.062 429.899 289.809 427.886 291.24C426.245 292.43 424.511 293.47 422.684 294.344C416.643 297.15 410.229 299.102 403.629 300.143C391.66 302.113 379.504 302.745 367.403 302.039L366.77 290.199L375.029 288.508C377.807 287.932 380.548 287.263 383.27 286.631C388.714 285.33 394.102 283.936 399.229 282.263C403.965 280.851 408.496 278.899 412.765 276.409C413.921 275.795 414.891 274.903 415.599 273.825C415.58 273.546 415.133 274.773 415.655 272.822L416.569 269.067C418.694 258.362 420.074 247.526 420.708 236.635C421.118 231.078 421.379 225.483 421.64 219.871C421.901 214.258 421.975 208.57 422.05 203.218L446.157 202.716Z" fill="#FF8B7B"/>
<path d="M371.804 290.794L358.772 281.408L354.838 301.202C354.838 301.202 367.721 306.741 371.413 300.273L371.804 290.794Z" fill="#FF8B7B"/>
<path d="M344.826 286.668L343.875 293.024C343.428 296.035 345.348 298.879 348.312 299.604L354.857 301.184L358.772 281.39L350.457 281.65C347.623 281.743 345.255 283.862 344.826 286.668Z" fill="#FF8B7B"/>
<path d="M446.532 191.193C455.407 203.404 452.48 244.59 452.48 244.59L411.313 240.668C411.313 240.668 407.025 217.622 413.14 199.092C419.777 178.982 435.774 176.38 446.532 191.193Z" fill="#FFC727"/>
<path d="M363.564 140.193C363.527 140.193 363.489 140.193 363.452 140.193C359.164 140.118 355.733 136.606 355.808 132.331C355.845 130.268 356.684 128.335 358.176 126.885C359.667 125.454 361.625 124.692 363.713 124.711C368.001 124.785 371.432 128.298 371.357 132.573C371.283 136.792 367.796 140.193 363.564 140.193ZM363.564 126.439C361.998 126.439 360.506 127.034 359.388 128.131C358.232 129.246 357.579 130.751 357.56 132.35C357.504 135.658 360.171 138.39 363.489 138.446C363.527 138.446 363.545 138.446 363.583 138.446C366.864 138.446 369.549 135.807 369.605 132.535C369.661 129.227 366.994 126.495 363.676 126.439C363.638 126.439 363.601 126.439 363.564 126.439Z" fill="#FFC727"/>
<path d="M381.499 135.937C381.462 135.937 381.425 135.937 381.388 135.937C377.099 135.862 373.669 132.35 373.743 128.075C373.781 126.012 374.62 124.079 376.111 122.629C377.603 121.198 379.56 120.436 381.649 120.455C385.937 120.529 389.367 124.042 389.293 128.316C389.2 132.554 385.713 135.937 381.499 135.937ZM381.481 122.202C379.915 122.202 378.423 122.797 377.304 123.893C376.148 125.008 375.496 126.514 375.477 128.112C375.421 131.42 378.088 134.152 381.406 134.208C384.744 134.208 387.466 131.606 387.522 128.298C387.577 124.99 384.911 122.258 381.593 122.202C381.555 122.202 381.518 122.202 381.481 122.202Z" fill="#FFC727"/>
<path d="M370.666 129.692L368.951 129.357C369.007 129.06 369.566 126.495 371.431 125.938C372.587 125.584 373.873 126.105 375.234 127.48L373.985 128.707C373.146 127.852 372.419 127.462 371.934 127.61C371.244 127.815 370.778 129.116 370.666 129.692Z" fill="#FFC727"/>
<path d="M388.474 127.833L388.082 126.123L405.776 121.942L409.187 122.685L408.815 124.395L405.776 123.726L388.474 127.833Z" fill="#FFC727"/>
<path d="M413.586 130.454C413.269 134.375 411.405 138.018 408.384 140.583C404.376 143.947 400.218 140.899 399.528 135.992C398.894 131.588 400.255 124.525 405.14 123.057C410.025 121.588 413.94 125.64 413.586 130.454Z" fill="#FF8B7B"/>
<path d="M394.85 85.5134C373.726 76.4807 355.063 93.208 351.39 99.3413C347.698 105.475 344.249 111.199 348.146 117.202C346.598 117.611 345.927 119.451 344.734 120.511C344.174 121.012 343.746 121.682 343.559 122.406C342.888 124.99 346.934 126.681 347.94 127.833C348.891 128.93 349.04 130.64 348.295 131.885C347.549 133.13 345.964 133.799 344.547 133.484C347.046 133.874 349.6 133.409 351.763 132.257C354.485 130.826 355.249 127.629 354.466 124.655C354.41 124.451 354.41 124.209 354.485 123.986C354.727 123.243 355.473 122.797 356.163 122.425C357.617 121.626 363.993 120.288 370.37 119.061C376.354 117.909 381.854 114.879 385.9 110.326C391.363 104.155 407.323 104.267 413.606 104.415C413.196 104.192 412.226 92.9478 394.85 85.5134Z" fill="#263238"/>
<path opacity="0.9" d="M534.104 246.82H435.326C431.057 246.82 427.607 252.173 427.607 258.789C427.607 265.387 431.057 270.74 435.326 270.74H534.104V246.82Z" fill="white"/>
<path d="M534.104 246.82H435.326C431.057 246.82 427.607 252.173 427.607 258.789C427.607 265.387 431.057 270.74 435.326 270.74H534.104V246.82Z" fill="#FFC727"/>
<path d="M534.103 272.654C513.8 272.654 456.711 273.026 436.388 272.654C422.48 272.413 421.734 245.816 435.382 244.887C444.89 244.237 454.679 244.887 464.206 244.887C475.262 244.887 523.047 244.887 534.103 244.887C536.583 244.887 536.583 248.734 534.103 248.734C514.844 248.734 458.855 248.734 439.614 248.734C435.158 248.734 431.97 248.79 430.254 254.031C428.763 258.566 429.229 267.822 435.326 268.826C435.978 268.937 436.761 268.826 437.414 268.826C447.911 268.826 458.407 268.826 468.904 268.826C478.394 268.826 524.632 268.826 534.103 268.826C536.583 268.826 536.583 272.654 534.103 272.654Z" fill="#FFC727"/>
<g opacity="0.2">
<path d="M534.103 272.654C513.8 272.654 456.711 273.026 436.388 272.654C422.48 272.413 421.734 245.816 435.382 244.887C444.89 244.237 454.679 244.887 464.206 244.887C475.262 244.887 523.047 244.887 534.103 244.887C536.583 244.887 536.583 248.734 534.103 248.734C514.844 248.734 458.855 248.734 439.614 248.734C435.158 248.734 431.97 248.79 430.254 254.031C428.763 258.566 429.229 267.822 435.326 268.826C435.978 268.937 436.761 268.826 437.414 268.826C447.911 268.826 458.407 268.826 468.904 268.826C478.394 268.826 524.632 268.826 534.103 268.826C536.583 268.826 536.583 272.654 534.103 272.654Z" fill="white"/>
</g>
<path d="M573.498 246.82H518.721C514.451 246.82 511.002 252.173 511.002 258.789C511.002 265.387 514.451 270.74 518.721 270.74H573.498V246.82Z" fill="#FFC727"/>
<path opacity="0.9" d="M573.498 246.82H518.721C514.451 246.82 511.002 252.173 511.002 258.789C511.002 265.387 514.451 270.74 518.721 270.74H573.498V246.82Z" fill="white"/>
<path d="M573.498 272.654C553.195 272.654 540.106 273.026 519.803 272.654C505.894 272.413 505.148 245.816 518.796 244.887C528.304 244.237 538.093 244.887 547.62 244.887C558.676 244.887 562.461 244.887 573.517 244.887C575.997 244.887 575.997 248.734 573.517 248.734C554.276 248.734 542.269 248.734 523.028 248.734C518.572 248.734 515.384 248.79 513.669 254.031C512.177 258.566 512.643 267.822 518.74 268.826C519.392 268.937 520.175 268.826 520.828 268.826C531.325 268.826 541.821 268.826 552.318 268.826C561.808 268.826 564.027 268.826 573.517 268.826C575.978 268.826 575.978 272.654 573.498 272.654Z" fill="#FFC727"/>
<g opacity="0.2">
<path d="M573.498 272.654C553.195 272.654 540.106 273.026 519.803 272.654C505.894 272.413 505.148 245.816 518.796 244.887C528.304 244.237 538.093 244.887 547.62 244.887C558.676 244.887 562.461 244.887 573.517 244.887C575.997 244.887 575.997 248.734 573.517 248.734C554.276 248.734 542.269 248.734 523.028 248.734C518.572 248.734 515.384 248.79 513.669 254.031C512.177 258.566 512.643 267.822 518.74 268.826C519.392 268.937 520.175 268.826 520.828 268.826C531.325 268.826 541.821 268.826 552.318 268.826C561.808 268.826 564.027 268.826 573.517 268.826C575.978 268.826 575.978 272.654 573.498 272.654Z" fill="white"/>
</g>
<path opacity="0.9" d="M546.951 292.039H444.202C439.764 292.039 436.166 297.615 436.166 304.473C436.166 311.331 439.764 316.907 444.202 316.907H546.951V292.039Z" fill="white"/>
<path d="M546.951 292.039H444.202C439.764 292.039 436.166 297.615 436.166 304.473C436.166 311.331 439.764 316.907 444.202 316.907H546.951V292.039Z" fill="#263238"/>
<path d="M455.35 305.532C455.35 307.837 453.206 308.896 450.484 308.896H444.648L446.774 298.321H452.143C454.53 298.321 455.835 299.213 455.835 300.793C455.835 302.057 455.089 302.949 453.933 303.432C454.847 303.822 455.35 304.547 455.35 305.532ZM452.367 305.477C452.367 304.845 451.845 304.584 451.118 304.584H448.471L448.042 306.74H450.652C451.696 306.722 452.367 306.313 452.367 305.477ZM449.31 300.477L448.899 302.521H451.043C452.106 302.521 452.684 302.094 452.684 301.313C452.684 300.737 452.218 300.477 451.435 300.477H449.31Z" fill="white"/>
<path d="M463.945 306.833H459.433L458.203 308.896H455.033L461.838 298.321H464.803L467.357 308.896H464.374L463.945 306.833ZM463.479 304.622L462.771 301.183L460.738 304.622H463.479Z" fill="white"/>
<path d="M480.407 298.302L478.282 308.878H475.28L476.101 304.77H472.017L471.197 308.878H468.195L470.321 298.302H473.323L472.539 302.261H476.623L477.406 298.302H480.407Z" fill="white"/>
<path d="M488.053 306.833H483.541L482.31 308.896H479.141L485.946 298.321H488.91L491.465 308.896H488.481L488.053 306.833ZM487.605 304.622L486.897 301.183L484.864 304.622H487.605Z" fill="white"/>
<path d="M491.855 307.967L493.03 305.737C494.111 306.425 495.342 306.778 496.554 306.778C497.71 306.778 498.381 306.406 498.381 305.848C498.381 304.436 493.217 305.216 493.217 301.89C493.217 299.604 495.174 298.117 498.306 298.117C499.817 298.117 501.178 298.433 502.129 299.027L501.029 301.258C500.19 300.719 499.164 300.459 498.12 300.459C496.871 300.459 496.218 300.905 496.218 301.481C496.2 302.93 501.383 302.094 501.383 305.365C501.383 307.633 499.388 309.138 496.274 309.138C494.466 309.101 492.806 308.618 491.855 307.967Z" fill="white"/>
<path d="M509.773 306.833H505.261L504.031 308.896H500.861L507.666 298.321H510.631L513.185 308.896H510.202L509.773 306.833ZM509.307 304.622L508.599 301.183L506.566 304.622H509.307Z" fill="white"/>
<path d="M546.95 314.937C549.523 314.937 549.542 318.933 546.95 318.933C525.826 318.933 466.444 319.305 445.32 318.933C430.852 318.673 430.069 291.017 444.257 290.051C454.157 289.381 464.318 290.051 474.237 290.051C485.741 290.051 535.447 290.051 546.95 290.051C549.523 290.051 549.542 294.047 546.95 294.047C526.926 294.047 468.681 294.047 448.657 294.047C444.015 294.047 440.715 294.102 438.925 299.548C437.377 304.269 437.862 313.878 444.201 314.937C444.891 315.049 445.693 314.937 446.383 314.937C457.308 314.937 468.215 314.937 479.141 314.937H546.95Z" fill="#263238"/>
<path d="M587.931 292.039H530.954C526.516 292.039 522.918 297.615 522.918 304.473C522.918 311.331 526.516 316.907 530.954 316.907H587.931V292.039Z" fill="#FFC727"/>
<path opacity="0.9" d="M587.931 292.039H530.954C526.516 292.039 522.918 297.615 522.918 304.473C522.918 311.331 526.516 316.907 530.954 316.907H587.931V292.039Z" fill="white"/>
<path d="M587.93 318.933C566.806 318.933 553.196 319.305 532.072 318.933C517.604 318.673 516.821 291.017 531.009 290.051C540.909 289.381 551.07 290.051 560.989 290.051C572.493 290.051 576.427 290.051 587.93 290.051C590.503 290.051 590.522 294.047 587.93 294.047C567.906 294.047 555.433 294.047 535.409 294.047C530.767 294.047 527.467 294.102 525.677 299.548C524.129 304.269 524.614 313.878 530.953 314.937C531.643 315.049 532.445 314.937 533.135 314.937C544.06 314.937 554.967 314.937 565.893 314.937C575.755 314.937 578.086 314.937 587.949 314.937C590.503 314.937 590.522 318.933 587.93 318.933Z" fill="#FFC727"/>
<g opacity="0.2">
<path d="M587.93 318.933C566.806 318.933 553.196 319.305 532.072 318.933C517.604 318.673 516.821 291.017 531.009 290.051C540.909 289.381 551.07 290.051 560.989 290.051C572.493 290.051 576.427 290.051 587.93 290.051C590.503 290.051 590.522 294.047 587.93 294.047C567.906 294.047 555.433 294.047 535.409 294.047C530.767 294.047 527.467 294.102 525.677 299.548C524.129 304.269 524.614 313.878 530.953 314.937C531.643 315.049 532.445 314.937 533.135 314.937C544.06 314.937 554.967 314.937 565.893 314.937C575.755 314.937 578.086 314.937 587.949 314.937C590.503 314.937 590.522 318.933 587.93 318.933Z" fill="white"/>
</g>
<path opacity="0.9" d="M525.789 272.599H427.012C422.742 272.599 419.293 276.204 419.293 280.665C419.293 285.107 422.742 288.713 427.012 288.713H525.789V272.599Z" fill="white"/>
<path d="M525.789 272.599H427.012C422.742 272.599 419.293 276.204 419.293 280.665C419.293 285.107 422.742 288.713 427.012 288.713H525.789V272.599Z" fill="#FFC727"/>
<path opacity="0.2" d="M525.789 272.599H427.012C422.742 272.599 419.293 276.204 419.293 280.665C419.293 285.107 422.742 288.713 427.012 288.713H525.789V272.599Z" fill="black"/>
<path opacity="0.2" d="M525.789 272.599H427.012C422.742 272.599 419.293 276.204 419.293 280.665C419.293 285.107 422.742 288.713 427.012 288.713H525.789V272.599Z" fill="black"/>
<path d="M432.66 276.483H436.035C438.477 276.483 440.137 277.951 440.137 280.2C440.137 282.449 438.459 283.917 436.035 283.917H432.66V276.483ZM435.96 282.505C437.433 282.505 438.403 281.631 438.403 280.2C438.403 278.788 437.433 277.895 435.96 277.895H434.394V282.505H435.96Z" fill="white"/>
<path d="M441.125 276.483C441.125 275.963 441.535 275.554 442.15 275.554C442.766 275.554 443.176 275.944 443.176 276.446C443.176 277.003 442.766 277.394 442.15 277.394C441.535 277.412 441.125 277.003 441.125 276.483ZM441.33 278.193H442.989V283.899H441.33V278.193Z" fill="white"/>
<path d="M444.107 281.055C444.107 279.345 445.431 278.119 447.296 278.119C448.507 278.119 449.44 278.639 449.869 279.568L448.582 280.256C448.265 279.717 447.818 279.475 447.296 279.475C446.457 279.475 445.804 280.052 445.804 281.055C445.804 282.059 446.457 282.635 447.296 282.635C447.818 282.635 448.265 282.393 448.582 281.854L449.869 282.561C449.458 283.471 448.507 284.01 447.296 284.01C445.431 283.992 444.107 282.765 444.107 281.055Z" fill="white"/>
<path d="M454.585 283.639C454.25 283.88 453.746 283.992 453.243 283.992C451.882 283.992 451.099 283.304 451.099 281.947V279.606H450.223V278.342H451.099V276.948H452.758V278.342H454.175V279.606H452.758V281.929C452.758 282.412 453.019 282.691 453.467 282.691C453.709 282.691 453.952 282.616 454.138 282.486L454.585 283.639Z" fill="white"/>
<path d="M455.312 276.483C455.312 275.963 455.723 275.554 456.338 275.554C456.953 275.554 457.363 275.944 457.363 276.446C457.363 277.003 456.953 277.394 456.338 277.394C455.723 277.394 455.312 277.003 455.312 276.483ZM455.518 278.193H457.177V283.899H455.518V278.193Z" fill="white"/>
<path d="M458.297 281.055C458.297 279.345 459.621 278.119 461.448 278.119C463.275 278.119 464.58 279.345 464.58 281.055C464.58 282.765 463.256 283.992 461.448 283.992C459.621 283.992 458.297 282.765 458.297 281.055ZM462.902 281.055C462.902 280.07 462.268 279.475 461.448 279.475C460.627 279.475 459.975 280.07 459.975 281.055C459.975 282.04 460.609 282.635 461.448 282.635C462.268 282.635 462.902 282.04 462.902 281.055Z" fill="white"/>
<path d="M471.534 280.646V283.917H469.875V280.906C469.875 279.977 469.446 279.568 468.719 279.568C467.917 279.568 467.339 280.051 467.339 281.111V283.936H465.68V278.23H467.264V278.899C467.712 278.416 468.383 278.137 469.166 278.137C470.509 278.118 471.534 278.899 471.534 280.646Z" fill="white"/>
<path d="M478.096 280.646V283.899H476.549V283.192C476.232 283.713 475.654 283.992 474.796 283.992C473.454 283.992 472.652 283.248 472.652 282.263C472.652 281.259 473.361 280.553 475.113 280.553H476.437C476.437 279.847 476.008 279.438 475.113 279.438C474.498 279.438 473.883 279.642 473.473 279.977L472.876 278.825C473.51 278.379 474.424 278.137 475.337 278.137C477.09 278.118 478.096 278.918 478.096 280.646ZM476.437 282.114V281.538H475.3C474.517 281.538 474.274 281.817 474.274 282.207C474.274 282.616 474.629 282.895 475.207 282.895C475.766 282.876 476.251 282.616 476.437 282.114Z" fill="white"/>
<path d="M483.149 278.119V279.643C483.018 279.624 482.907 279.624 482.776 279.624C481.862 279.624 481.247 280.126 481.247 281.222V283.917H479.588V278.212H481.173V278.974C481.583 278.397 482.254 278.119 483.149 278.119Z" fill="white"/>
<path d="M490.01 278.193L487.419 284.252C486.859 285.627 486.076 286.036 485.051 286.036C484.473 286.036 483.82 285.85 483.447 285.516L484.063 284.345C484.324 284.568 484.678 284.698 484.995 284.698C485.461 284.698 485.703 284.493 485.927 283.992L485.946 283.936L483.466 278.193H485.181L486.785 282.059L488.407 278.193H490.01Z" fill="white"/>
<path d="M525.789 290.014C505.485 290.014 448.396 290.255 428.074 290.014C414.165 289.846 413.42 271.93 427.067 271.316C436.576 270.87 446.364 271.316 455.891 271.316C466.947 271.316 514.733 271.316 525.789 271.316C528.269 271.316 528.269 273.9 525.789 273.9C506.529 273.9 450.54 273.9 431.299 273.9C426.843 273.9 423.655 273.937 421.94 277.468C420.448 280.516 420.915 286.761 427.011 287.43C427.664 287.504 428.447 287.43 429.099 287.43C439.596 287.43 450.093 287.43 460.59 287.43C470.08 287.43 516.318 287.43 525.789 287.43C528.269 287.412 528.269 290.014 525.789 290.014Z" fill="#FFC727"/>
<g opacity="0.2">
<path d="M525.789 290.014C505.485 290.014 448.396 290.255 428.074 290.014C414.165 289.846 413.42 271.93 427.067 271.316C436.576 270.87 446.364 271.316 455.891 271.316C466.947 271.316 514.733 271.316 525.789 271.316C528.269 271.316 528.269 273.9 525.789 273.9C506.529 273.9 450.54 273.9 431.299 273.9C426.843 273.9 423.655 273.937 421.94 277.468C420.448 280.516 420.915 286.761 427.011 287.43C427.664 287.504 428.447 287.43 429.099 287.43C439.596 287.43 450.093 287.43 460.59 287.43C470.08 287.43 516.318 287.43 525.789 287.43C528.269 287.412 528.269 290.014 525.789 290.014Z" fill="white"/>
</g>
<path d="M565.183 272.599H510.406C506.137 272.599 502.688 276.204 502.688 280.665C502.688 285.107 506.137 288.713 510.406 288.713H565.183V272.599Z" fill="#FFC727"/>
<path opacity="0.9" d="M565.183 272.599H510.406C506.137 272.599 502.688 276.204 502.688 280.665C502.688 285.107 506.137 288.713 510.406 288.713H565.183V272.599Z" fill="white"/>
<path d="M565.184 290.014C544.88 290.014 531.792 290.255 511.488 290.014C497.579 289.846 496.834 271.93 510.481 271.316C519.99 270.87 529.778 271.316 539.305 271.316C550.362 271.316 554.146 271.316 565.202 271.316C567.682 271.316 567.682 273.9 565.202 273.9C545.943 273.9 533.955 273.9 514.714 273.9C510.258 273.9 507.069 273.937 505.354 277.468C503.863 280.516 504.329 286.761 510.425 287.43C511.078 287.504 511.861 287.43 512.514 287.43C523.01 287.43 533.507 287.43 544.004 287.43C553.494 287.43 555.712 287.43 565.202 287.43C567.663 287.412 567.663 290.014 565.184 290.014Z" fill="#FFC727"/>
<g opacity="0.2">
<path d="M565.184 290.014C544.88 290.014 531.792 290.255 511.488 290.014C497.579 289.846 496.834 271.93 510.481 271.316C519.99 270.87 529.778 271.316 539.305 271.316C550.362 271.316 554.146 271.316 565.202 271.316C567.682 271.316 567.682 273.9 565.202 273.9C545.943 273.9 533.955 273.9 514.714 273.9C510.258 273.9 507.069 273.937 505.354 277.468C503.863 280.516 504.329 286.761 510.425 287.43C511.078 287.504 511.861 287.43 512.514 287.43C523.01 287.43 533.507 287.43 544.004 287.43C553.494 287.43 555.712 287.43 565.202 287.43C567.663 287.412 567.663 290.014 565.184 290.014Z" fill="white"/>
</g>
<path d="M448.564 240.427L569.641 239.943C569.641 239.943 566.788 225.298 565.185 224.982C563.6 224.647 542.942 208.533 520.177 217.715C515.199 219.703 511.601 221.209 509.028 222.305C506.436 221.227 502.838 219.759 497.841 217.808C474.983 208.812 454.475 225.093 452.871 225.428C451.324 225.762 448.564 240.427 448.564 240.427Z" fill="#FFC727"/>
<path opacity="0.6" d="M448.564 240.427L569.641 239.943L569.566 239.59C569.1 237.323 566.62 225.279 565.166 224.982C565.091 224.963 565.017 224.945 564.886 224.87C561.997 223.476 542.066 208.868 520.177 217.715C515.181 219.703 511.601 221.209 509.028 222.305C506.436 221.209 502.819 219.74 497.841 217.789C474.983 208.793 454.475 225.075 452.871 225.409C451.324 225.762 448.564 240.427 448.564 240.427Z" fill="white"/>
<path d="M434.748 240.482L557.279 239.999C557.279 239.999 554.389 225.186 552.767 224.852C551.163 224.517 530.263 210.448 507.237 219.74C502.203 221.766 495.976 229.554 495.976 229.554C495.976 229.554 489.693 221.822 484.64 219.833C461.503 210.726 440.752 224.963 439.129 225.316C437.526 225.632 434.748 240.482 434.748 240.482Z" fill="#FFC727"/>
<path opacity="0.8" d="M434.748 240.482L557.279 239.999C557.279 239.999 554.389 225.186 552.767 224.852C551.163 224.517 530.263 210.448 507.237 219.74C502.203 221.766 495.976 229.554 495.976 229.554C495.976 229.554 489.693 221.822 484.64 219.833C461.503 210.726 440.752 224.963 439.129 225.316C437.526 225.632 434.748 240.482 434.748 240.482Z" fill="white"/>
<path d="M495.436 233.624L499.351 240.649L490.141 240.687L495.436 233.624Z" fill="#FFC727"/>
<g opacity="0.3">
<path d="M495.436 233.624L499.351 240.649L490.141 240.687L495.436 233.624Z" fill="black"/>
</g>
<path opacity="0.1" d="M552.936 224.926C553.775 226.599 554.427 228.327 554.912 230.148C556.068 234.609 557.298 240.018 557.298 240.018L569.66 239.962L569.585 239.609C569.119 237.341 566.639 225.298 565.185 225C565.11 224.982 565.036 224.963 564.905 224.889L552.936 224.926Z" fill="black"/>
<path d="M430.088 245.036L490.179 246.188L490.309 246.077C492.845 243.809 496.685 243.79 499.24 246.039L499.37 246.151L561.251 245.091L576.875 244.85L575.681 239.516L499.352 239.813C498.046 238.605 496.387 238.01 494.746 238.01C493.087 238.01 491.409 238.624 490.141 239.85L431.579 239.999L430.088 245.036Z" fill="#263238"/>
<g opacity="0.3">
<path d="M560.02 239.59L561.25 245.092L576.874 244.85L575.662 239.534L560.02 239.59Z" fill="black"/>
</g>
<path d="M490.104 230.372C490.104 230.372 480.633 219.61 469.223 221.655C469.223 221.655 477.221 220.614 490.104 230.372Z" fill="#FFC727"/>
<path opacity="0.4" d="M490.104 230.372C490.104 230.372 480.633 219.61 469.223 221.655C469.223 221.655 477.221 220.614 490.104 230.372Z" fill="white"/>
<path d="M512.57 235.241C512.57 235.241 525.155 228.346 535.186 234.163C535.186 234.163 528.026 230.465 512.57 235.241Z" fill="#FFC727"/>
<path opacity="0.4" d="M512.57 235.241C512.57 235.241 525.155 228.346 535.186 234.163C535.186 234.163 528.026 230.465 512.57 235.241Z" fill="white"/>
<path d="M500.639 231.58C500.639 231.58 510.688 221.357 521.986 224.034C521.968 224.034 514.044 222.565 500.639 231.58Z" fill="#FFC727"/>
<path opacity="0.4" d="M500.639 231.58C500.639 231.58 510.688 221.357 521.986 224.034C521.968 224.034 514.044 222.565 500.639 231.58Z" fill="white"/>
<path d="M475.096 230.26C475.096 230.26 462.493 223.402 452.481 229.256C452.462 229.238 459.621 225.521 475.096 230.26Z" fill="#FFC727"/>
<path opacity="0.4" d="M475.096 230.26C475.096 230.26 462.493 223.402 452.481 229.256C452.462 229.238 459.621 225.521 475.096 230.26Z" fill="white"/>
<path d="M440.342 262.581L441.032 261.299C441.684 261.782 442.56 262.042 443.418 262.042C444.332 262.042 444.91 261.726 444.91 261.206C444.91 260.053 441.33 260.667 441.33 258.381C441.33 256.894 442.635 255.946 444.63 255.946C445.6 255.946 446.494 256.169 447.128 256.559L446.494 257.842C445.954 257.47 445.245 257.284 444.537 257.284C443.567 257.284 442.989 257.656 442.989 258.176C442.971 259.366 446.569 258.734 446.569 260.964C446.569 262.451 445.245 263.417 443.232 263.417C442.076 263.38 440.957 263.027 440.342 262.581Z" fill="#263238"/>
<path d="M456.059 258.306C456.059 260.146 454.698 261.28 452.554 261.28H450.95L450.559 263.269H448.881L450.335 256.057H453.262C455.033 256.057 456.059 256.894 456.059 258.306ZM454.362 258.436C454.362 257.73 453.859 257.414 453.02 257.414H451.715L451.211 259.923H452.628C453.71 259.923 454.362 259.403 454.362 258.436Z" fill="#263238"/>
<path d="M462.622 261.726H459.247L458.315 263.269H456.525L461.205 256.057H462.864L464.636 263.269H462.958L462.622 261.726ZM462.342 260.444L461.727 257.656L460.031 260.444H462.342Z" fill="#263238"/>
<path d="M475.001 256.057L473.547 263.269H472.167L469.464 258.752L468.55 263.269H466.891L468.345 256.057H469.725L472.428 260.574L473.323 256.057H475.001Z" fill="#263238"/>
<path d="M478.265 256.057H479.943L478.489 263.269H476.811L478.265 256.057Z" fill="#263238"/>
<path d="M481.359 262.581L482.049 261.299C482.702 261.782 483.578 262.042 484.436 262.042C485.349 262.042 485.927 261.726 485.927 261.206C485.927 260.053 482.348 260.667 482.348 258.381C482.348 256.894 483.653 255.946 485.648 255.946C486.617 255.946 487.512 256.169 488.146 256.559L487.512 257.842C486.971 257.47 486.263 257.284 485.554 257.284C484.585 257.284 484.007 257.656 484.007 258.176C483.988 259.366 487.587 258.734 487.587 260.964C487.587 262.451 486.263 263.417 484.249 263.417C483.093 263.38 481.975 263.027 481.359 262.581Z" fill="#263238"/>
<path d="M497.953 256.057L496.499 263.269H494.821L495.417 260.332H492.136L491.539 263.269H489.861L491.316 256.057H492.994L492.434 258.882H495.716L496.275 256.057H497.953Z" fill="#263238"/>
<path d="M209.787 333.597V566.998H203.709L198.302 344.935H191.143V333.597H209.787Z" fill="#263238"/>
<path d="M204.38 566.98H198.6L191.143 333.597H198.787L204.38 566.98Z" fill="#263238"/>
<g opacity="0.3">
<path d="M203.261 566.98H198.6L191.664 345.195H198.208L203.261 566.98Z" fill="white"/>
</g>
<path opacity="0.5" d="M209.787 333.597V566.998H203.709L198.302 344.935H191.143V333.597H209.787Z" fill="white"/>
<path d="M574.414 566.98H568.616L561.158 333.597H568.821L574.414 566.98Z" fill="#263238"/>
<path opacity="0.3" d="M574.414 566.98H568.616L561.158 333.597H568.821L574.414 566.98Z" fill="white"/>
<path d="M480.986 333.597V566.98H487.12L494.336 344.916H568.316L573.742 566.98H579.801V333.597H480.986Z" fill="#263238"/>
<path opacity="0.5" d="M480.986 333.597V566.98H487.12L494.336 344.916H568.316L573.742 566.98H579.801V333.597H480.986Z" fill="white"/>
<path d="M480.987 566.98H475.189L473.324 333.597H480.987V566.98Z" fill="#263238"/>
<path opacity="0.3" d="M480.987 566.98H475.189L473.324 333.597H480.987V566.98Z" fill="white"/>
<path d="M190.768 333.597V344.935H123.947L116.732 566.998H110.598V333.597H190.768Z" fill="#263238"/>
<path opacity="0.5" d="M190.768 333.597V344.935H123.947L116.732 566.998H110.598V333.597H190.768Z" fill="white"/>
<path d="M110.58 566.98H104.8L102.936 333.597H110.58V566.98Z" fill="#263238"/>
<g opacity="0.3">
<path d="M110.58 566.98H104.8L102.936 333.597H110.58V566.98Z" fill="white"/>
</g>
<path d="M476.214 319.342H92.793V333.597H476.214V319.342Z" fill="#263238"/>
<path opacity="0.8" d="M476.214 319.342H92.793V333.597H476.214V319.342Z" fill="white"/>
<path d="M589.943 319.342H467.301V333.597H589.943V319.342Z" fill="#263238"/>
<path opacity="0.6" d="M589.943 319.342H467.301V333.597H589.943V319.342Z" fill="white"/>
<path d="M149.268 315.42V317.39C149.268 318.413 150.107 319.23 151.113 319.23H221.999C222.95 319.23 223.714 318.468 223.714 317.521V315.625C223.714 314.677 222.95 313.915 221.999 313.915H204.362C202.367 313.915 200.838 312.112 201.173 310.142L207.363 274.531H167.092L149.846 312.558C149.491 313.469 149.268 314.435 149.268 315.42Z" fill="#263238"/>
<path opacity="0.2" d="M223.733 315.625V317.521C223.733 318.468 222.969 319.212 222.036 319.212H151.132C150.107 319.212 149.268 318.375 149.268 317.372V315.402C149.268 314.881 149.324 314.361 149.454 313.859C149.566 313.413 149.696 312.986 149.883 312.577L167.129 274.55H207.401L201.211 310.161C201.173 310.384 201.155 310.588 201.155 310.792C201.192 312.279 202.273 313.562 203.709 313.859C203.933 313.915 204.138 313.933 204.38 313.933H222.018C222.969 313.933 223.733 314.695 223.733 315.625Z" fill="white"/>
<path d="M147.607 312.576L164.853 274.55H167.128L149.882 312.576C149.472 313.469 149.267 314.435 149.267 315.42V317.39C149.267 318.412 150.106 319.23 151.113 319.23H148.838C147.813 319.23 146.992 318.394 146.992 317.39V315.42C146.992 314.435 147.197 313.469 147.607 312.576Z" fill="#263238"/>
<path opacity="0.3" d="M167.128 274.55H207.4L205.815 283.639H163.008L167.128 274.55Z" fill="black"/>
<path d="M277.241 278.546H105.434C101.966 278.546 98.9084 275.74 98.6101 272.283L87.7405 148.52C87.4422 145.063 89.9964 142.256 93.4643 142.256H265.272C268.74 142.256 271.797 145.063 272.096 148.52L282.965 272.283C283.282 275.74 280.709 278.546 277.241 278.546Z" fill="#263238"/>
<path d="M103.495 255.109H275.078C276.961 255.109 278.36 253.585 278.192 251.708L269.224 149.43C269.056 147.553 267.397 146.029 265.514 146.029H93.93C92.0469 146.029 90.6486 147.553 90.8164 149.43L99.7843 251.708C99.9521 253.585 101.611 255.109 103.495 255.109Z" fill="white"/>
<path d="M89.6799 142.256H93.4833C90.0155 142.256 87.4426 145.063 87.7595 148.52L98.6292 272.283C98.9275 275.74 101.985 278.546 105.453 278.546H101.65C98.1817 278.546 95.1241 275.74 94.8257 272.283L83.9561 148.52C83.6391 145.063 86.2121 142.256 89.6799 142.256Z" fill="#FFC727"/>
<path opacity="0.3" d="M89.6799 142.256H93.4833C90.0155 142.256 87.4426 145.063 87.7595 148.52L98.6292 272.283C98.9275 275.74 101.985 278.546 105.453 278.546H101.65C98.1817 278.546 95.1241 275.74 94.8257 272.283L83.9561 148.52C83.6391 145.063 86.2121 142.256 89.6799 142.256Z" fill="white"/>
<path d="M247.597 240.018H124.507L118.037 166.176H241.127L247.597 240.018Z" stroke="#FFC727" stroke-miterlimit="10"/>
<path d="M138.471 188.906H172.683" stroke="#FFC727" stroke-miterlimit="10"/>
<path d="M129.764 199.686H173.634" stroke="#FFC727" stroke-miterlimit="10"/>
<path d="M130.695 210.485H174.565" stroke="#FFC727" stroke-miterlimit="10"/>
<path d="M131.646 221.264H175.517" stroke="#FFC727" stroke-miterlimit="10"/>
<path d="M132.598 232.044H176.468" stroke="#FFC727" stroke-miterlimit="10"/>
<path d="M199.346 188.906H233.558" stroke="#FFC727" stroke-miterlimit="10"/>
<path d="M190.639 199.686H234.509" stroke="#FFC727" stroke-miterlimit="10"/>
<path d="M191.57 210.485H235.44" stroke="#FFC727" stroke-miterlimit="10"/>
<path d="M192.521 221.264H236.392" stroke="#FFC727" stroke-miterlimit="10"/>
<path d="M193.473 232.044H215.398" stroke="#FFC727" stroke-miterlimit="10"/>
<path d="M153.312 174.465H151.578V173.443H156.314V174.465H154.58V178.87H153.331V174.465H153.312Z" fill="black"/>
<path d="M160.452 178.87L159.408 177.365H159.352H158.252V178.87H156.984V173.443H159.334C160.788 173.443 161.701 174.187 161.701 175.413C161.701 176.231 161.291 176.826 160.583 177.123L161.795 178.87H160.452ZM159.278 174.465H158.252V176.361H159.278C160.042 176.361 160.434 176.008 160.434 175.413C160.434 174.818 160.042 174.465 159.278 174.465Z" fill="black"/>
<path d="M166.271 177.699H163.754L163.269 178.852H161.982L164.406 173.425H165.655L168.079 178.852H166.755L166.271 177.699ZM165.879 176.751L165.021 174.67L164.164 176.751H165.879Z" fill="black"/>
<path d="M173.615 173.443V178.87H172.589L169.886 175.58V178.87H168.637V173.443H169.681L172.384 176.733V173.443H173.615Z" fill="black"/>
<path d="M174.473 178.331L174.901 177.383C175.368 177.718 176.039 177.941 176.691 177.941C177.437 177.941 177.735 177.699 177.735 177.365C177.735 176.342 174.566 177.049 174.566 175.041C174.566 174.112 175.312 173.35 176.859 173.35C177.549 173.35 178.239 173.517 178.742 173.833L178.351 174.781C177.847 174.502 177.325 174.354 176.84 174.354C176.095 174.354 175.815 174.633 175.815 174.967C175.815 175.971 178.985 175.283 178.985 177.272C178.985 178.182 178.239 178.944 176.673 178.944C175.834 178.963 174.957 178.703 174.473 178.331Z" fill="black"/>
<path d="M179.862 173.443H181.112V177.848H183.834V178.87H179.844V173.443H179.862Z" fill="black"/>
<path d="M188.177 177.699H185.66L185.175 178.852H183.889L186.312 173.425H187.562L189.985 178.852H188.662L188.177 177.699ZM187.785 176.751L186.928 174.67L186.07 176.751H187.785Z" fill="black"/>
<path d="M191.384 174.465H189.65V173.443H194.386V174.465H192.652V178.87H191.403V174.465H191.384Z" fill="black"/>
<path d="M195.057 173.443H196.306V178.87H195.057V173.443Z" fill="black"/>
<path d="M197.275 176.157C197.275 174.54 198.525 173.35 200.258 173.35C201.974 173.35 203.242 174.54 203.242 176.157C203.242 177.774 201.974 178.963 200.258 178.963C198.525 178.963 197.275 177.755 197.275 176.157ZM201.936 176.157C201.936 175.134 201.209 174.428 200.24 174.428C199.27 174.428 198.543 175.134 198.543 176.157C198.543 177.179 199.27 177.885 200.24 177.885C201.209 177.885 201.936 177.179 201.936 176.157Z" fill="black"/>
<path d="M209.152 173.443V178.87H208.126L205.423 175.58V178.87H204.174V173.443H205.218L207.921 176.733V173.443H209.152Z" fill="black"/>
<g opacity="0.2">
<path d="M164.648 146.029H158.048L134.799 255.109H141.399L164.648 146.029Z" fill="white"/>
<path d="M128.125 255.109L151.393 146.029H126.596L103.328 255.109H128.125Z" fill="white"/>
</g>
<path opacity="0.2" d="M161.516 315.643V317.446C161.516 318.431 162.317 319.23 163.305 319.23H222.016C222.967 319.23 223.732 318.468 223.732 317.521V315.625C223.732 314.677 222.967 313.915 222.016 313.915H204.379C204.155 313.915 203.931 313.896 203.726 313.841H163.305C162.317 313.859 161.516 314.658 161.516 315.643Z" fill="white"/>
<path opacity="0.2" d="M149.453 313.859H203.727C202.272 313.562 201.191 312.279 201.154 310.792H150.833L149.453 313.859Z" fill="black"/>
<path d="M319.097 314.361H324.877C325.492 314.361 325.977 313.915 325.977 313.357V307.8C325.977 307.243 325.474 306.797 324.877 306.797H320.719C320.216 306.797 319.787 307.094 319.657 307.54L318.016 313.097C317.848 313.729 318.37 314.361 319.097 314.361Z" fill="#263238"/>
<path d="M311.098 314.361H316.878C317.493 314.361 317.978 313.915 317.978 313.357V307.8C317.978 307.243 317.475 306.797 316.878 306.797H312.721C312.217 306.797 311.788 307.094 311.658 307.54L310.017 313.097C309.849 313.729 310.39 314.361 311.098 314.361Z" fill="#263238"/>
<path d="M303.118 314.361H308.898C309.513 314.361 309.998 313.915 309.998 313.357V307.8C309.998 307.243 309.495 306.797 308.898 306.797H304.741C304.237 306.797 303.808 307.094 303.678 307.54L302.037 313.097C301.851 313.729 302.391 314.361 303.118 314.361Z" fill="#263238"/>
<path d="M295.12 314.361H300.9C301.515 314.361 302 313.915 302 313.357V307.8C302 307.243 301.497 306.797 300.9 306.797H296.742C296.239 306.797 295.81 307.094 295.68 307.54L294.039 313.097C293.853 313.729 294.393 314.361 295.12 314.361Z" fill="#263238"/>
<path d="M287.123 314.361H292.902C293.518 314.361 294.002 313.915 294.002 313.357V307.8C294.002 307.243 293.499 306.797 292.902 306.797H288.745C288.241 306.797 287.813 307.094 287.682 307.54L286.041 313.097C285.874 313.729 286.396 314.361 287.123 314.361Z" fill="#263238"/>
<path d="M279.123 314.361H284.902C285.518 314.361 286.002 313.915 286.002 313.357V307.8C286.002 307.243 285.499 306.797 284.902 306.797H280.745C280.241 306.797 279.813 307.094 279.682 307.54L278.041 313.097C277.874 313.729 278.396 314.361 279.123 314.361Z" fill="#263238"/>
<path d="M271.125 314.361H276.904C277.52 314.361 278.004 313.915 278.004 313.357V307.8C278.004 307.243 277.501 306.797 276.904 306.797H272.747C272.243 306.797 271.814 307.094 271.684 307.54L270.043 313.097C269.875 313.729 270.398 314.361 271.125 314.361Z" fill="#263238"/>
<path d="M263.127 314.361H268.906C269.522 314.361 270.006 313.915 270.006 313.357V307.8C270.006 307.243 269.503 306.797 268.906 306.797H264.749C264.245 306.797 263.816 307.094 263.686 307.54L262.045 313.097C261.877 313.729 262.399 314.361 263.127 314.361Z" fill="#263238"/>
<path d="M255.148 314.361H260.927C261.543 314.361 262.027 313.915 262.027 313.357V307.8C262.027 307.243 261.524 306.797 260.927 306.797H256.77C256.266 306.797 255.838 307.094 255.707 307.54L254.066 313.097C253.88 313.729 254.421 314.361 255.148 314.361Z" fill="#263238"/>
<path d="M247.148 314.361H252.928C253.543 314.361 254.028 313.915 254.028 313.357V307.8C254.028 307.243 253.524 306.797 252.928 306.797H248.77C248.266 306.797 247.838 307.094 247.707 307.54L246.066 313.097C245.88 313.729 246.421 314.361 247.148 314.361Z" fill="#263238"/>
<path d="M239.15 314.361H244.93C245.545 314.361 246.03 313.915 246.03 313.357V307.8C246.03 307.243 245.526 306.797 244.93 306.797H240.772C240.269 306.797 239.84 307.094 239.709 307.54L238.069 313.097C237.901 313.729 238.423 314.361 239.15 314.361Z" fill="#263238"/>
<path d="M231.152 314.361H236.932C237.547 314.361 238.032 313.915 238.032 313.357V307.8C238.032 307.243 237.528 306.797 236.932 306.797H232.774C232.271 306.797 231.842 307.094 231.711 307.54L230.071 313.097C229.903 313.729 230.425 314.361 231.152 314.361Z" fill="#263238"/>
<path d="M223.154 314.361H228.934C229.549 314.361 230.034 313.915 230.034 313.357V307.8C230.034 307.243 229.53 306.797 228.934 306.797H224.776C224.273 306.797 223.844 307.094 223.713 307.54L222.073 313.097C221.905 313.729 222.427 314.361 223.154 314.361Z" fill="#263238"/>
<path d="M215.154 314.361H220.934C221.549 314.361 222.034 313.915 222.034 313.357V307.8C222.034 307.243 221.53 306.797 220.934 306.797H216.776C216.273 306.797 215.844 307.094 215.713 307.54L214.073 313.097C213.905 313.729 214.427 314.361 215.154 314.361Z" fill="#263238"/>
<path d="M207.175 314.361H212.955C213.57 314.361 214.055 313.915 214.055 313.357V307.8C214.055 307.243 213.551 306.797 212.955 306.797H208.797C208.294 306.797 207.865 307.094 207.734 307.54L206.094 313.097C205.907 313.729 206.448 314.361 207.175 314.361Z" fill="#263238"/>
<path d="M201.34 314.974C201.34 317.391 203.521 319.361 206.15 319.361H325.865C328.531 319.361 330.676 317.409 330.676 314.974C330.676 313.766 330.135 312.651 329.277 311.871C328.438 311.109 327.264 310.625 325.977 310.588H206.15C205.684 310.588 205.237 310.644 204.826 310.755C202.813 311.294 201.34 312.967 201.34 314.974Z" fill="#263238"/>
<path opacity="0.2" d="M201.34 314.974C201.34 317.391 203.521 319.361 206.15 319.361H325.865C328.531 319.361 330.676 317.409 330.676 314.974C330.676 313.766 330.135 312.651 329.277 311.871C328.438 311.109 327.264 310.625 325.977 310.588H206.15C205.684 310.588 205.237 310.644 204.826 310.755C202.813 311.294 201.34 312.967 201.34 314.974Z" fill="white"/>
<path d="M201.34 314.974C201.34 317.39 203.521 319.361 206.15 319.361H246.683C248.622 318.784 250.02 317.13 250.02 315.179C250.02 314.9 250.002 314.64 249.946 314.398C249.759 313.506 249.293 312.688 248.585 312.075C248.286 311.796 247.932 311.573 247.559 311.35C247.373 311.257 247.186 311.183 247 311.09C246.422 310.885 245.807 310.774 245.154 310.774H204.808C202.813 311.294 201.34 312.967 201.34 314.974Z" fill="#263238"/>
<path d="M395.949 57.8206L385.732 57.8764C382.898 57.9879 380.512 55.7762 380.4 52.9511C380.381 52.6723 380.4 52.3935 380.437 52.1148L385.21 7.36003C385.658 4.07034 388.417 1.59842 391.754 1.50549L489.413 0.929331C492.247 0.817816 494.634 3.02953 494.745 5.85458C494.764 6.13337 494.746 6.41216 494.708 6.69094L489.917 51.4642C489.469 54.7539 486.691 57.2259 483.373 57.3002L410.138 57.7463L409.802 57.8392C412.002 64.1955 421.361 72.745 421.361 72.745C421.361 72.745 406.11 70.6448 395.614 57.7648" stroke="#FFC727" stroke-miterlimit="10"/>
<path d="M419.964 19.3665L415.862 39.7923H412.077L413.811 31.1313H403.221L401.487 39.7923H397.684L401.785 19.3665H405.589L403.911 27.7487H414.501L416.16 19.3665H419.964Z" fill="#263238"/>
<path d="M437.172 33.0828H424.754C424.81 35.5547 426.246 36.9115 429.266 36.9115C431.056 36.9115 432.697 36.3353 433.778 35.3131L435.307 37.8593C433.666 39.309 431.299 40.0153 428.893 40.0153C424.176 40.0153 421.193 37.3018 421.193 33.1571C421.193 27.8787 424.978 24.05 430.217 24.05C434.543 24.05 437.414 26.6149 437.414 30.8711C437.414 31.6517 437.321 32.4137 437.172 33.0828ZM425.09 30.6666H434.039C434.077 28.269 432.455 26.968 430.031 26.968C427.551 26.968 425.761 28.3991 425.09 30.6666Z" fill="#263238"/>
<path d="M443.493 18.1399H447.148L442.822 39.7924H439.168L443.493 18.1399Z" fill="#263238"/>
<path d="M451.956 18.1399H455.611L451.285 39.7924H447.631L451.956 18.1399Z" fill="#263238"/>
<path d="M456.227 33.1571C456.227 27.9345 460.086 24.05 465.511 24.05C470.135 24.05 473.118 26.7264 473.118 30.8711C473.118 36.0937 469.222 39.9967 463.815 39.9967C459.21 40.0153 456.227 37.2646 456.227 33.1571ZM469.427 31.0383C469.427 28.6222 467.935 27.1353 465.306 27.1353C462.211 27.1353 459.918 29.5329 459.918 32.9713C459.918 35.3874 461.41 36.8743 464.039 36.8743C467.133 36.8743 469.427 34.4953 469.427 31.0383Z" fill="#263238"/>
<path d="M481.173 114.898L578.832 114.322C581.666 114.21 584.053 116.422 584.165 119.247C584.183 119.526 584.165 119.804 584.127 120.083L579.336 164.857C578.888 168.146 576.11 170.618 572.792 170.693L529.63 171.139C519.152 184.037 503.882 186.119 503.882 186.119C503.882 186.119 513.242 177.569 515.442 171.213L475.133 171.269C472.299 171.38 469.912 169.168 469.8 166.343C469.782 166.065 469.8 165.786 469.838 165.507L474.611 120.752C475.077 117.463 477.836 114.972 481.173 114.898Z" stroke="#FFC727" stroke-miterlimit="10"/>
<path d="M512.681 132.759L508.58 153.185H501.663L503.191 145.657H496.815L495.286 153.185H488.369L492.471 132.759H499.388L497.915 139.989H504.291L505.764 132.759H512.681Z" fill="#263238"/>
<path d="M513.875 146.085C513.875 140.825 518.033 136.922 523.85 136.922C529.145 136.922 532.538 139.84 532.538 144.3C532.538 149.56 528.38 153.463 522.563 153.463C517.268 153.482 513.875 150.564 513.875 146.085ZM525.845 144.635C525.845 143.148 524.968 142.126 523.477 142.126C521.743 142.126 520.587 143.557 520.587 145.769C520.587 147.256 521.463 148.278 522.955 148.278C524.67 148.278 525.845 146.847 525.845 144.635Z" fill="#263238"/>
<path d="M538.747 131.532H545.366L541.041 153.184H534.422L538.747 131.532Z" fill="#263238"/>
<path d="M566.21 137.219L563.021 153.184H556.794L557.092 151.716C555.918 152.85 554.482 153.463 552.767 153.463C549.579 153.463 546.186 150.843 546.186 146.085C546.186 140.825 550.101 136.922 554.706 136.922C556.664 136.922 558.304 137.479 559.274 138.911L559.628 137.219H566.21ZM555.228 148.278C556.962 148.278 558.118 146.847 558.118 144.635C558.118 143.148 557.242 142.126 555.75 142.126C554.016 142.126 552.86 143.557 552.86 145.769C552.86 147.256 553.736 148.278 555.228 148.278Z" fill="#263238"/>
<path d="M266.372 118.875C264.172 125.231 254.812 133.781 254.812 133.781C254.812 133.781 270.063 131.681 280.56 118.801L281.343 118.559L291.56 118.615C294.376 118.726 297.154 116.515 297.769 113.69C297.825 113.411 297.862 113.132 297.881 112.853L300.957 68.0986C301.088 64.8089 298.757 62.3369 295.438 62.244L197.873 61.6679C195.057 61.5563 192.279 63.7681 191.664 66.5931C191.608 66.8719 191.571 67.1507 191.552 67.4295L188.476 112.203C188.345 115.492 190.676 117.964 193.995 118.039L267.155 118.485" stroke="#FFC727" stroke-miterlimit="10"/>
<path d="M214.446 92.6504C214.446 95.9029 211.724 97.557 207.622 97.557H200.053L203.204 81.8892H210.158C213.309 81.8892 215.117 83.0787 215.117 85.3275C215.117 87.4277 213.887 88.8403 212.227 89.4722C213.589 89.9368 214.446 91.0148 214.446 92.6504ZM212.227 92.669C212.227 91.0892 211.053 90.513 208.946 90.513H203.688L202.663 95.7356H207.79C210.605 95.7356 212.227 94.6576 212.227 92.669ZM205.068 83.692L204.061 88.7102H208.666C211.127 88.7102 212.805 87.7065 212.805 85.6807C212.805 84.3239 211.668 83.692 209.71 83.692H205.068Z" fill="#263238"/>
<path d="M216.74 92.5576C216.74 88.5431 219.649 85.5693 223.713 85.5693C227.106 85.5693 229.288 87.558 229.288 90.6804C229.288 94.7136 226.398 97.6873 222.334 97.6873C218.94 97.6873 216.74 95.6429 216.74 92.5576ZM227.106 90.792C227.106 88.6918 225.82 87.4651 223.564 87.4651C220.898 87.4651 218.922 89.5467 218.922 92.4833C218.922 94.5649 220.208 95.8101 222.464 95.8101C225.167 95.8101 227.106 93.7285 227.106 90.792Z" fill="#263238"/>
<path d="M243.774 89.5095C243.774 89.937 243.737 90.4017 243.644 90.9035L242.32 97.5572H240.157L241.481 90.9035C241.556 90.5503 241.593 90.2158 241.593 89.9184C241.593 88.3758 240.698 87.5023 238.833 87.5023C236.522 87.5023 234.955 88.7289 234.433 91.2752L233.184 97.5386H231.021L233.371 85.6808H235.44L235.142 87.2049C236.242 86.0897 237.752 85.5693 239.449 85.5693C242.152 85.5693 243.774 86.9819 243.774 89.5095Z" fill="#263238"/>
<path d="M241.463 101.312L242.414 99.6574C242.861 100.011 243.476 100.215 244.11 100.215C245.304 100.215 245.975 99.5831 246.273 98.1148L248.771 85.6995H250.934L248.436 98.1148C247.914 100.717 246.497 102.036 244.11 102.036C243.029 102.018 242.115 101.776 241.463 101.312ZM249.107 82.1124C249.107 81.276 249.741 80.6069 250.655 80.6069C251.438 80.6069 252.016 81.1831 252.016 81.8522C252.016 82.7629 251.363 83.3948 250.449 83.3948C249.666 83.4134 249.107 82.8187 249.107 82.1124Z" fill="#263238"/>
<path d="M252.668 92.5576C252.668 88.5431 255.576 85.5693 259.641 85.5693C263.034 85.5693 265.216 87.558 265.216 90.6804C265.216 94.7136 262.326 97.6873 258.261 97.6873C254.868 97.6873 252.668 95.6429 252.668 92.5576ZM263.034 90.792C263.034 88.6918 261.748 87.4651 259.492 87.4651C256.826 87.4651 254.849 89.5467 254.849 92.4833C254.849 94.5649 256.136 95.8101 258.392 95.8101C261.077 95.8101 263.034 93.7285 263.034 90.792Z" fill="#263238"/>
<path d="M280.392 85.6807L278.043 97.5384H275.973L276.271 96.0144C275.171 97.1295 273.661 97.6685 272.002 97.6685C269.392 97.6685 267.732 96.2188 267.732 93.6912C267.732 93.2637 267.77 92.8176 267.863 92.3344L269.187 85.6807H271.349L270.026 92.353C269.951 92.7061 269.914 93.0407 269.914 93.3566C269.914 94.8807 270.809 95.7542 272.636 95.7542C274.873 95.7542 276.477 94.5089 276.999 91.9813L278.248 85.6993H280.392V85.6807Z" fill="#263238"/>
<path d="M290.926 85.5693L290.516 87.6509C290.311 87.6324 290.18 87.6324 289.957 87.6324C287.57 87.6324 286.004 88.8776 285.463 91.6097L284.27 97.5386H282.107L284.457 85.6808H286.526L286.191 87.4465C287.291 86.1083 288.801 85.5693 290.926 85.5693Z" fill="#263238"/>
<path d="M607.991 207.288L705.65 206.712C708.484 206.6 710.87 208.812 710.982 211.637C711 211.916 710.982 212.195 710.945 212.473L706.153 257.247C705.705 260.536 702.927 263.008 699.609 263.083L626.374 263.529C615.896 276.427 600.626 278.509 600.626 278.509C600.626 278.509 609.986 269.959 612.186 263.603L601.968 263.659C599.135 263.77 596.748 261.559 596.636 258.734C596.618 258.455 596.636 258.176 596.673 257.897L601.446 213.143C601.894 209.853 604.653 207.381 607.991 207.288Z" stroke="#FFC727" stroke-miterlimit="10"/>
<path d="M627.494 229.071L624.846 242.304H622.516L624.25 233.624L618.582 240.798H617.482L614.443 233.457L612.671 242.304H610.322L612.97 229.071H614.983L618.488 237.88L625.368 229.071H627.494Z" fill="#263238"/>
<path d="M638.644 237.955H630.589C630.627 239.572 631.559 240.427 633.516 240.427C634.672 240.427 635.735 240.055 636.444 239.386L637.432 241.04C636.369 241.988 634.84 242.434 633.274 242.434C630.216 242.434 628.277 240.668 628.277 237.992C628.277 234.572 630.72 232.082 634.113 232.082C636.928 232.082 638.774 233.754 638.774 236.505C638.793 237.025 638.737 237.527 638.644 237.955ZM630.813 236.393H636.611C636.63 234.851 635.586 233.996 634.02 233.996C632.398 233.977 631.242 234.907 630.813 236.393Z" fill="#263238"/>
<path d="M647.835 232.1L647.406 234.349C647.201 234.312 647.052 234.293 646.809 234.293C644.945 234.293 643.714 235.241 643.304 237.341L642.297 242.322H639.93L641.943 232.23H644.199L643.938 233.531C644.87 232.453 646.138 232.1 647.835 232.1Z" fill="#263238"/>
<path d="M659.04 235.52C659.04 235.873 658.984 236.301 658.91 236.709L657.791 242.304H655.423L656.523 236.765C656.579 236.486 656.598 236.226 656.598 235.985C656.598 234.814 655.945 234.145 654.566 234.145C652.832 234.145 651.638 235.092 651.247 237.063L650.184 242.304H647.816L650.632 228.271H653L652.011 233.215C652.925 232.435 654.081 232.1 655.349 232.1C657.549 232.1 659.04 233.29 659.04 235.52Z" fill="#263238"/>
<path d="M672.799 232.212L670.785 242.304H668.53L668.735 241.263C667.877 242.025 666.758 242.434 665.435 242.434C662.955 242.434 660.979 240.78 660.979 237.992C660.979 234.553 663.44 232.082 666.684 232.082C668.25 232.082 669.462 232.621 670.133 233.699L670.413 232.212H672.799ZM669.536 236.635C669.536 235.074 668.567 234.107 666.852 234.107C664.838 234.107 663.365 235.65 663.365 237.899C663.365 239.46 664.335 240.427 666.031 240.427C668.045 240.408 669.536 238.865 669.536 236.635Z" fill="#263238"/>
<path d="M685.72 236.524C685.72 239.962 683.259 242.452 680.033 242.452C678.374 242.452 677.125 241.858 676.491 240.705L676.174 242.322H673.918L676.733 228.29H679.101L678.132 233.178C678.971 232.49 680.033 232.119 681.282 232.119C683.744 232.1 685.72 233.717 685.72 236.524ZM683.315 236.635C683.315 235.074 682.345 234.107 680.63 234.107C678.616 234.107 677.143 235.65 677.143 237.899C677.143 239.46 678.113 240.427 679.81 240.427C681.842 240.408 683.315 238.865 683.315 236.635Z" fill="#263238"/>
<path d="M698.809 232.212L696.795 242.304H694.539L694.744 241.263C693.887 242.025 692.768 242.434 691.444 242.434C688.965 242.434 686.988 240.78 686.988 237.992C686.988 234.553 689.449 232.082 692.693 232.082C694.26 232.082 695.471 232.621 696.143 233.699L696.422 232.212H698.809ZM695.546 236.635C695.546 235.074 694.577 234.107 692.861 234.107C690.848 234.107 689.375 235.65 689.375 237.899C689.375 239.46 690.344 240.427 692.041 240.427C694.073 240.408 695.546 238.865 695.546 236.635Z" fill="#263238"/>
<path d="M116.004 360.547L18.3455 361.123C15.5115 361.235 13.125 359.023 13.0132 356.198C12.9945 355.919 13.0132 355.64 13.0505 355.361L17.8421 310.588C18.2895 307.298 21.0675 304.827 24.3862 304.752L97.6211 304.306C108.099 291.408 123.369 289.326 123.369 289.326C123.369 289.326 114.009 297.875 111.809 304.232L122.027 304.176C124.86 304.065 127.247 306.276 127.359 309.101C127.377 309.38 127.359 309.659 127.322 309.938L122.549 354.692C122.101 357.982 119.323 360.473 116.004 360.547Z" stroke="#FFC727" stroke-miterlimit="10"/>
<path d="M35.9082 335.177C35.9082 328.077 41.1473 322.929 48.7541 322.929C52.5389 322.929 55.5966 324.305 57.0695 326.776L52.8745 330.103C51.905 328.561 50.4135 327.706 48.3626 327.706C44.3727 327.706 41.7439 330.772 41.7439 334.806C41.7439 337.556 43.6083 339.378 46.7406 339.378C48.5863 339.378 50.283 338.671 51.7559 337.017L55.1864 340.381C52.8745 343.151 49.8542 344.173 46.1999 344.173C39.9354 344.173 35.9082 340.511 35.9082 335.177Z" fill="#263238"/>
<path d="M59.5309 327.947H65.0682L61.8987 343.764H56.3613L59.5309 327.947ZM59.8851 323.45C59.8851 321.665 61.2834 320.29 63.4648 320.29C65.4225 320.29 66.6903 321.424 66.6903 322.948C66.6903 324.844 65.2547 326.182 63.0919 326.182C61.1156 326.182 59.8851 324.955 59.8851 323.45Z" fill="#263238"/>
<path d="M85.4469 327.947L82.2774 343.764H77.001L77.318 342.277C76.0875 343.411 74.5586 344.024 72.7315 344.024C69.3009 344.024 66.0195 341.422 66.0195 336.813C66.0195 331.553 69.8789 327.687 74.6332 327.687C76.7773 327.687 78.4926 328.319 79.4994 329.843L79.8723 327.947H85.4469ZM78.4366 335.14C78.4366 333.3 77.318 332.11 75.4163 332.11C73.2162 332.11 71.6315 333.895 71.6315 336.552C71.6315 338.392 72.7501 339.563 74.6519 339.563C76.8892 339.563 78.4366 337.779 78.4366 335.14Z" fill="#263238"/>
<path d="M86.3418 336.813C86.3418 331.59 90.4063 327.687 96.0928 327.687C101.164 327.687 104.408 330.512 104.408 334.861C104.408 340.121 100.344 344.024 94.6572 344.024C89.5859 344.024 86.3418 341.162 86.3418 336.813ZM98.7589 335.14C98.7589 333.3 97.6775 332.11 95.7758 332.11C93.5571 332.11 91.991 333.895 91.991 336.552C91.991 338.392 93.0724 339.563 94.9741 339.563C97.1928 339.563 98.7589 337.779 98.7589 335.14Z" fill="#263238"/>
</g>
<defs>
<clipPath id="clip0_340_4370">
<rect width="741" height="593" fill="white"/>
</clipPath>
</defs>
</svg>
