<svg width="59" height="67" viewBox="0 0 59 67" fill="none" xmlns="http://www.w3.org/2000/svg">
<path d="M29.2843 38.1966C28.2803 37.1647 27.4065 36.0715 26.3449 35.2077C21.1085 30.9426 13.2431 32.0795 9.5015 37.709C6.12706 42.7859 6.21073 48.0364 9.24958 53.2443C10.0184 54.5613 11.0409 55.7307 11.9473 56.9679C13.0107 58.4205 12.9438 60.4203 11.793 61.6128C10.3874 63.0683 8.20845 63.0906 6.75456 61.6323C4.64902 59.5212 2.93207 57.1128 1.89464 54.3226C-0.377299 48.2055 -0.722184 41.9053 1.49584 35.7799C4.22235 28.2491 9.78039 23.7759 17.7647 22.483C18.1105 22.4273 18.5958 22.6038 18.8728 22.8397C24.27 27.4234 31.4158 28.0317 37.4471 24.3638C38.1833 23.9162 38.8164 23.3022 39.5396 22.8304C39.8576 22.6233 40.3038 22.4329 40.6551 22.4839C47.0071 23.41 51.828 26.7045 55.2061 32.1027C57.2921 35.4362 58.2078 39.1217 58.2124 43.0515C58.2152 46.0274 58.1845 48.9866 57.3544 51.8863C56.2742 55.6592 54.349 58.9249 51.5826 61.6918C50.3071 62.967 48.2546 63.0516 46.9801 61.9565C45.5225 60.7045 45.2603 58.6462 46.3889 57.0737C47.2683 55.8477 48.2816 54.7071 49.0643 53.4244C51.7313 49.0544 52.1868 44.4651 50.084 39.7384C47.3231 33.5312 40.195 30.9027 34.134 33.8247C32.3334 34.6931 30.9269 36.0418 29.7286 37.6208C29.579 37.8167 29.4274 38.0118 29.2843 38.1966Z" fill="#595959"/>
<path d="M29.0853 66.525C24.9021 62.7967 20.7143 59.1567 16.6417 55.3941C14.5417 53.4538 12.7969 51.1978 11.9073 48.3956C10.8234 44.9831 11.8747 40.9753 14.4451 38.8251C17.892 35.9402 22.765 36.6888 25.2703 40.5657C26.0418 41.7592 26.5735 43.1088 27.1964 44.3961C27.6054 45.2413 28.2886 45.689 29.195 45.6918C30.1004 45.6936 30.8106 45.2664 31.1955 44.4072C31.3675 44.0246 31.4772 43.6103 31.6779 43.2444C32.271 42.1642 32.7944 41.0273 33.5232 40.0437C37.025 35.3133 43.852 36.504 46.0914 41.7128C47.6494 45.336 46.9819 48.7262 44.7667 51.8851C42.8582 54.6065 40.4208 56.8291 37.9397 58.9979C35.1974 61.3933 32.403 63.7293 29.631 66.0894C29.5008 66.1999 29.3651 66.3021 29.0853 66.525Z" fill="#595959"/>
<path d="M40.3539 11.1597C40.3446 17.2935 35.3034 22.3081 29.1672 22.2868C23.0272 22.2664 18.0166 17.2211 18.0482 11.0909C18.0799 4.984 23.0885 0.00185775 29.1978 1.28647e-07C35.3369 -0.000928681 40.3641 5.02765 40.3539 11.1597Z" fill="#595959"/>
</svg>
