<svg width="649" height="629" viewBox="0 0 649 629" fill="none" xmlns="http://www.w3.org/2000/svg">
<g clip-path="url(#clip0_349_11256)">
<path d="M183.212 123.123H47.3839C37.625 123.123 29.709 115.209 29.709 105.452V77.0338C29.709 67.2772 37.625 59.363 47.3839 59.363H183.212C192.971 59.363 200.887 67.2772 200.887 77.0338V105.452C200.887 115.209 192.971 123.123 183.212 123.123Z" fill="#E0E0E0"/>
<path d="M74.2587 92.9877V95.8072C74.2587 99.199 72.5555 101.139 69.2885 101.139C66.0216 101.139 64.3184 99.199 64.3184 95.8072V84.7804C64.3184 81.3886 66.0216 79.4485 69.2885 79.4485C72.5555 79.4485 74.2587 81.3886 74.2587 84.7804V86.8462H71.1035V84.571C71.1035 83.0636 70.4334 82.4774 69.3723 82.4774C68.3113 82.4774 67.6411 83.0496 67.6411 84.571V96.0165C67.6411 97.538 68.3113 98.0823 69.3723 98.0823C70.4334 98.0823 71.1035 97.538 71.1035 96.0165V92.9877H74.2587Z" fill="white"/>
<path d="M76.2832 79.6858H79.6199V97.859H85.1067V100.888H76.2972V79.6858H76.2832Z" fill="white"/>
<path d="M86.5586 79.6858H89.8953V100.888H86.5586V79.6858Z" fill="white"/>
<path d="M101.972 92.9877V95.8072C101.972 99.199 100.268 101.139 97.0014 101.139C93.7345 101.139 92.0312 99.199 92.0312 95.8072V84.7804C92.0312 81.3886 93.7345 79.4485 97.0014 79.4485C100.268 79.4485 101.972 81.3886 101.972 84.7804V86.8462H98.8164V84.571C98.8164 83.0636 98.1463 82.4774 97.0852 82.4774C96.0242 82.4774 95.354 83.0496 95.354 84.571V96.0165C95.354 97.538 96.0242 98.0823 97.0852 98.0823C98.1463 98.0823 98.8164 97.538 98.8164 96.0165V92.9877H101.972Z" fill="white"/>
<path d="M108.366 92.4433L107.333 94.3835V100.902H104.01V79.6858H107.346V88.9259L111.702 79.6858H115.039L110.404 89.1353L115.039 100.888H111.619L108.366 92.4433Z" fill="white"/>
<path d="M124.575 100.888H121.238V79.6858H124.575V88.7724H128.358V79.6858H131.751V100.888H128.358V91.8013H124.575V100.888Z" fill="white"/>
<path d="M137.516 88.6189H142.096V91.6477H137.516V97.859H143.268V100.888H134.18V79.6858H143.268V82.7147H137.516V88.6189Z" fill="white"/>
<path d="M152.287 100.888C152.105 100.344 151.98 100.009 151.98 98.2778V94.9418C151.98 92.9737 151.31 92.2479 149.802 92.2479H148.657V100.874H145.32V79.6858H150.346C153.795 79.6858 155.289 81.291 155.289 84.5571V86.2181C155.289 88.3955 154.591 89.8192 153.111 90.5171C154.772 91.215 155.317 92.8202 155.317 95.0256V98.2917C155.317 99.3246 155.344 100.078 155.68 100.86H152.287V100.888ZM148.657 82.7147V89.233H149.955C151.198 89.233 151.952 88.6887 151.952 86.9858V84.8921C151.952 83.3707 151.435 82.7147 150.249 82.7147H148.657Z" fill="white"/>
<path d="M160.833 88.6189H165.412V91.6477H160.833V97.859H166.585V100.888H157.496V79.6858H166.585V82.7147H160.833V88.6189Z" fill="white"/>
<path d="M451.184 59.0979V193.108V220.019L477.109 193.108H600.066V59.0979H451.184Z" fill="#F5F5F5"/>
<path d="M599.243 84.5293C599.243 84.7526 566.42 84.9341 525.947 84.9341C485.459 84.9341 452.65 84.7526 452.65 84.5293C452.65 84.306 485.459 84.1245 525.947 84.1245C566.434 84.1385 599.243 84.306 599.243 84.5293Z" fill="#E0E0E0"/>
<path d="M467.799 74.5494C467.799 76.5873 466.152 78.2343 464.113 78.2343C462.075 78.2343 460.428 76.5873 460.428 74.5494C460.428 72.5115 462.075 70.8645 464.113 70.8645C466.152 70.8645 467.799 72.5115 467.799 74.5494Z" fill="#E0E0E0"/>
<path d="M478.717 74.5494C478.717 76.5873 477.07 78.2343 475.031 78.2343C472.993 78.2343 471.346 76.5873 471.346 74.5494C471.346 72.5115 472.993 70.8645 475.031 70.8645C477.056 70.8645 478.717 72.5115 478.717 74.5494Z" fill="#E0E0E0"/>
<path d="M489.635 74.5494C489.635 76.5873 487.988 78.2343 485.949 78.2343C483.911 78.2343 482.264 76.5873 482.264 74.5494C482.264 72.5115 483.911 70.8645 485.949 70.8645C487.974 70.8645 489.635 72.5115 489.635 74.5494Z" fill="#E0E0E0"/>
<path d="M505.005 143.32H495.148L493.319 147.856H486.59L496.879 124.533H503.371L513.703 147.856H506.834L505.005 143.32ZM503.064 138.463L500.062 130.995L497.061 138.463H503.064Z" fill="#E0E0E0"/>
<path d="M515.559 124.533H526.588C534.322 124.533 539.614 129.027 539.614 136.188C539.614 143.348 534.322 147.842 526.588 147.842H515.559V124.533ZM526.323 142.594C530.288 142.594 532.954 140.235 532.954 136.202C532.954 132.168 530.288 129.809 526.323 129.809H522.162V142.594H526.323Z" fill="#E0E0E0"/>
<path d="M541.443 145.763L543.607 140.905C545.674 142.273 548.605 143.209 551.3 143.209C554.036 143.209 555.097 142.441 555.097 141.31C555.097 137.611 541.834 140.305 541.834 131.651C541.834 127.492 545.227 124.086 552.166 124.086C555.195 124.086 558.336 124.784 560.626 126.124L558.588 131.023C556.354 129.823 554.162 129.223 552.124 129.223C549.359 129.223 548.354 130.158 548.354 131.316C548.354 134.876 561.575 132.21 561.575 140.808C561.575 144.87 558.183 148.331 551.244 148.331C547.447 148.317 543.649 147.284 541.443 145.763Z" fill="#E0E0E0"/>
<path d="M375.767 260.762L372.612 389.342C372.068 411.214 366.818 443.22 332.278 440.791C302.471 436.422 295.574 407.809 296.105 387.402C296.356 377.729 296.538 369.648 296.496 368.657C296.496 368.657 263.827 364.776 262.263 332.324C261.509 316.636 262.57 284.211 263.882 254.886C265.292 223.383 290.688 198.258 322.212 197.128L325.34 197.016C359.195 197.77 377.457 226.942 375.767 260.762Z" fill="#FFBE9D"/>
<path d="M296.481 368.657C296.481 368.657 316.99 369.117 338.323 354.643C338.323 354.643 328.857 378.734 296.342 376.976L296.481 368.657Z" fill="#EB996E"/>
<path d="M373.98 284.895C374.525 284.63 396.053 277.497 396.151 299.718C396.235 321.94 373.911 317.445 373.869 316.803C373.813 316.175 373.98 284.895 373.98 284.895Z" fill="#FFBE9D"/>
<path d="M380.611 308.373C380.708 308.303 381.002 308.638 381.658 308.945C382.3 309.238 383.389 309.433 384.548 308.987C386.893 308.121 388.848 304.381 388.946 300.375C388.987 298.351 388.569 296.425 387.843 294.833C387.159 293.214 386.098 292.084 384.911 291.874C383.738 291.609 382.9 292.321 382.635 292.949C382.342 293.577 382.482 294.01 382.37 294.052C382.314 294.108 381.895 293.675 382.063 292.768C382.146 292.321 382.412 291.805 382.928 291.372C383.459 290.939 384.241 290.716 385.064 290.8C386.782 290.911 388.331 292.489 389.127 294.233C390.021 295.992 390.551 298.155 390.495 300.417C390.37 304.897 388.094 309.098 384.883 310.034C383.319 310.452 382.021 309.978 381.337 309.461C380.653 308.903 380.527 308.415 380.611 308.373Z" fill="#EB996E"/>
<path d="M404.82 250.07C400.479 242.072 399.753 232.693 397.547 223.871C395.341 215.05 388.877 203.842 380.416 200.478C372.947 195.858 362.923 196.081 356.417 201.19C355.272 189.605 347.677 182.765 336.536 179.401C325.381 176.037 307.26 177.126 296.3 181.076C287.826 184.133 279.505 190.707 269.313 200.464C265.027 204.567 261.048 209.02 257.474 213.766L246.57 243.636L254.375 259.799C254.835 260.902 255.31 261.99 255.91 263.079L255.924 263.009L262.249 296.69C263.058 287.603 263.575 255.891 264.385 246.79C278.472 246.706 291.4 241.5 301.214 231.408C306.394 226.077 310.568 219.321 317.34 216.278C326.079 212.356 336.187 215.818 345.122 219.293L344.745 218.93C349.367 221.275 353.541 224.527 356.948 228.435C354.253 246.288 355.44 264.726 360.438 282.09C361.192 284.7 363.314 290.116 365.813 291.19C370.727 293.298 372.249 288.273 375.348 285.691C377.624 283.793 380.919 283.653 384.493 283.793C386.797 278.335 389.31 269.095 391.432 260.985C394.405 262.004 397.603 262.381 400.73 261.948C399.864 259.631 398.985 257.3 398.119 254.983C399.334 255.821 400.59 256.672 402.042 256.938C403.494 257.203 405.183 256.728 405.882 255.43C406.803 253.741 405.728 251.745 404.82 250.07Z" fill="#263238"/>
<path d="M348.278 207.191C348.208 207.275 349.604 208.099 351.419 210.276C353.22 212.454 355.175 216.194 355.984 221.205C356.403 223.704 356.613 226.481 356.501 229.454C356.403 232.441 356.04 235.624 355.691 238.974C355.342 242.324 354.979 245.869 355.049 249.582C355.091 251.424 355.245 253.322 355.566 255.207C355.901 257.063 356.32 259.087 357.646 260.72C358.707 262.046 360.536 262.688 362.155 262.423C363.789 262.2 365.255 261.39 366.358 260.259C368.536 257.901 369.164 254.844 369.778 252.15L369.094 252.206C370.113 254.69 371.16 257.147 372.78 259.129C374.371 261.125 376.619 262.493 378.951 262.786C380.109 262.939 381.296 262.786 382.315 262.325C383.348 261.865 384.13 261.055 384.661 260.176C385.177 259.282 385.471 258.291 385.457 257.328C385.443 256.365 385.094 255.444 384.507 254.774L384.158 255.067C386.546 257.998 389.128 259.631 390.915 260.539C391.823 260.999 392.549 261.278 393.037 261.46C393.54 261.627 393.791 261.697 393.805 261.683C393.819 261.655 393.568 261.544 393.093 261.348C392.619 261.139 391.921 260.818 391.041 260.329C389.31 259.352 386.811 257.691 384.521 254.788L384.172 255.081C385.219 256.281 385.205 258.305 384.214 259.897C383.711 260.678 382.999 261.404 382.092 261.795C381.184 262.2 380.109 262.325 379.048 262.172C376.912 261.879 374.804 260.594 373.324 258.696C371.802 256.798 370.783 254.411 369.778 251.927L369.345 250.866L369.094 251.982C368.48 254.676 367.81 257.621 365.827 259.729C364.85 260.748 363.496 261.474 362.072 261.669C360.648 261.893 359.168 261.362 358.232 260.232C357.073 258.808 356.641 256.896 356.306 255.067C355.984 253.225 355.831 251.382 355.789 249.554C355.705 245.911 356.054 242.393 356.375 239.043C356.71 235.693 357.046 232.497 357.115 229.468C357.199 226.453 356.948 223.634 356.487 221.107C355.594 216.027 353.513 212.23 351.615 210.081C349.716 207.931 348.278 207.191 348.278 207.191Z" fill="#455A64"/>
<path d="M260.336 210.109C257.488 213.682 253.174 216.892 248.636 216.292C247.296 216.111 243.848 214.757 243.848 214.757C242.242 215.678 242.479 221.121 243.54 222.643C244.602 224.164 246.863 226.244 246.863 226.244C241.474 228.98 236.658 227.444 231.031 225.239C231.799 234.926 238.151 243.971 247.017 247.963C249.851 249.233 253.299 249.972 255.952 248.353C258.284 246.93 259.289 244.11 260.057 241.486C262.835 231.841 264.426 221.847 264.761 211.812L260.336 210.109Z" fill="#263238"/>
<path d="M348.529 206.996C348.431 207.066 347.705 205.224 345.22 202.851C342.791 200.506 338.309 197.784 332.194 197.268C329.164 197.03 325.786 197.393 322.351 198.426C318.917 199.473 315.441 201.176 312.076 203.423C305.291 207.903 299.315 214.631 292.754 221.359C289.459 224.723 286.08 227.863 282.478 230.515C278.89 233.153 275.079 235.275 271.156 236.559C263.295 239.113 255.589 238.597 249.655 236.908C243.68 235.205 239.324 232.497 236.658 230.32C236.015 229.762 235.429 229.259 234.926 228.812C234.424 228.366 234.061 227.947 233.74 227.626C233.46 227.319 233.223 227.068 233.028 226.872C232.874 226.705 232.79 226.607 232.804 226.593C232.818 226.579 232.902 226.663 233.083 226.816C233.279 226.998 233.53 227.235 233.837 227.514C234.172 227.821 234.549 228.226 235.066 228.645C235.583 229.064 236.169 229.552 236.839 230.083C239.534 232.176 243.875 234.772 249.795 236.392C255.659 237.997 263.254 238.443 270.946 235.903C274.772 234.619 278.513 232.525 282.059 229.915C285.605 227.291 288.956 224.164 292.237 220.815C298.771 214.115 304.802 207.345 311.699 202.823C315.119 200.562 318.666 198.845 322.17 197.798C325.674 196.765 329.123 196.416 332.236 196.695C338.49 197.295 343.014 200.157 345.415 202.599C346.672 203.814 347.398 204.958 347.886 205.712C348.082 206.075 348.249 206.382 348.375 206.619C348.487 206.885 348.529 206.996 348.529 206.996Z" fill="#455A64"/>
<path d="M284.027 379.418L296.341 376.962L372.513 372.272L388.75 376.683L386.628 416.226L349.91 439.633L314.309 438.921L291.929 418.529L286.959 398.317L284.027 379.418Z" fill="#FFBE9D"/>
<path d="M491.756 441.671C486.548 430.937 481.55 422.325 477.11 415.514C468.371 402.1 455.01 392.371 439.555 388.184L380.862 372.286C380.862 372.286 377.818 430.909 337.457 430.909C297.095 430.909 289.235 375.957 289.235 375.957L221.314 403.035C218.982 403.942 203.234 409.386 184.903 448.678C167.451 486.099 159.814 505.249 159.814 505.249L229.774 525.446L234.144 588.355L232.65 624.268L444.986 623.794L443.799 582.73L444.693 519.765L447.345 524.05L518.017 495.716C518.031 495.716 508.942 477.04 491.756 441.671Z" fill="#F1C72F"/>
<path d="M445.795 479.678C446.102 479.678 445.921 502.43 445.376 530.485C444.832 558.54 444.134 581.278 443.827 581.264C443.52 581.264 443.701 558.513 444.246 530.457C444.79 502.416 445.474 479.678 445.795 479.678Z" fill="#263238"/>
<path d="M219.191 466.823C219.261 466.809 219.54 467.632 219.973 469.154C220.405 470.675 220.978 472.895 221.634 475.63C222.96 481.116 224.608 488.751 226.143 497.237C227.665 505.724 228.782 513.456 229.452 519.053C229.787 521.859 230.025 524.134 230.15 525.711C230.276 527.289 230.318 528.154 230.234 528.168C230.15 528.182 229.969 527.317 229.717 525.767C229.424 523.967 229.075 521.761 228.656 519.165C227.791 513.596 226.548 505.905 225.027 497.433C223.505 488.974 221.969 481.325 220.852 475.798C220.336 473.216 219.903 471.024 219.54 469.252C219.247 467.702 219.121 466.837 219.191 466.823Z" fill="#263238"/>
<path d="M165.874 506.98L137.421 564.082C134.238 570.461 132.758 577.551 133.107 584.656C134.182 606.821 152.485 624.241 174.683 624.241L256.272 619.509L259.832 582.297L197.747 567.334L221.286 522.85L165.874 506.98Z" fill="#FFBE9D"/>
<path d="M197.746 567.348C197.704 567.599 194.926 567.139 190.417 567.167C185.935 567.236 179.694 567.962 173.216 570.196C166.71 572.373 161.321 575.611 157.803 578.375C154.271 581.166 152.61 583.442 152.414 583.302C152.33 583.246 152.693 582.646 153.447 581.585C154.215 580.552 155.458 579.156 157.175 577.621C160.623 574.578 166.096 571.103 172.77 568.869C179.415 566.566 185.865 565.98 190.444 566.176C192.734 566.315 194.591 566.511 195.833 566.804C197.076 567.069 197.76 567.25 197.746 567.348Z" fill="#EB996E"/>
<path d="M222.277 522.431C222.416 522.487 221.955 524.162 220.936 526.786C219.931 529.41 218.326 532.97 216.259 536.738C214.179 540.493 212.015 543.745 210.326 545.992C208.636 548.24 207.464 549.538 207.352 549.44C207.087 549.231 211.177 543.648 215.282 536.194C219.401 528.754 221.955 522.306 222.277 522.431Z" fill="#EB996E"/>
<path d="M515.14 624.073H419.324V587.922L474.806 564.417L454.227 521.301L509.765 499.024L536.877 559.322C543.174 576.839 549.61 585.158 544.123 601.098C541.275 609.389 529.506 624.073 515.14 624.073Z" fill="#FFBE9D"/>
<path d="M243.86 580.161H259.832C259.832 580.161 295.88 567.139 303.279 568.381C309.952 569.498 334.399 585.731 339.173 588.941C339.704 589.304 340.109 589.82 340.332 590.42C341.309 593.059 340.025 596.004 337.414 597.078L336.912 597.288L337.135 598.014C337.4 598.907 337.554 599.926 337.498 600.931C337.316 604.364 332.709 605.411 330.95 602.452L331.872 604.085C332.249 604.755 332.43 605.509 332.388 606.277L332.304 607.756C332.207 609.403 331.118 610.827 329.54 611.343C328.046 611.832 326.399 611.399 325.338 610.241C322.238 606.835 315.537 600.01 311.014 599.256C306.993 598.586 300.277 598.502 296.215 598.516C294.148 598.53 292.319 599.8 291.566 601.712C294.26 601.908 312.982 611.664 319.614 615.168C321.666 616.243 323.202 618.197 323.467 620.5C323.704 622.58 322.657 624.743 318.553 623.794C309.743 621.742 293.897 614.456 293.897 614.456C293.897 614.456 285.73 612.125 280.425 615.852C272.983 621.1 269.563 623.026 263.169 620.919C256.774 618.797 252.055 615.754 252.055 615.754L239.448 614.498C239.476 614.498 227.567 584.726 243.86 580.161Z" fill="#FFBE9D"/>
<path d="M291.453 586.247C291.481 586.387 294.008 585.577 298.225 585.312C302.413 585.033 308.36 585.507 314.28 588.034C320.199 590.56 324.667 594.524 327.362 597.735C330.084 600.959 331.243 603.346 331.368 603.276C331.41 603.262 331.145 602.648 330.573 601.615C330 600.568 329.065 599.116 327.739 597.441C325.114 594.105 320.604 590.002 314.559 587.42C308.514 584.837 302.427 584.433 298.197 584.837C296.075 585.033 294.371 585.368 293.226 585.675C292.054 585.968 291.439 586.205 291.453 586.247Z" fill="#EB996E"/>
<path d="M295.266 577.481C295.308 577.649 297.876 576.393 302.316 576.253C306.728 576.058 312.913 577.384 318.706 580.901C324.5 584.419 328.842 588.885 331.914 592.081C333.38 593.631 334.594 594.929 335.53 595.934C336.381 596.841 336.87 597.33 336.912 597.302C336.954 597.274 336.521 596.729 335.725 595.766C334.929 594.803 333.757 593.421 332.263 591.774C329.261 588.494 324.947 583.93 319.055 580.343C313.15 576.77 306.784 575.485 302.288 575.807C300.04 575.946 298.239 576.351 297.053 576.77C296.452 576.937 296.006 577.174 295.698 577.286C295.419 577.384 295.266 577.468 295.266 577.481Z" fill="#EB996E"/>
<path d="M442.723 581.278H426.751C426.751 581.278 390.703 568.255 383.29 569.498C376.617 570.614 352.184 586.847 347.396 590.058C346.865 590.421 346.46 590.937 346.237 591.537C345.26 594.175 346.544 597.12 349.155 598.195L349.657 598.404L349.434 599.13C349.169 600.024 349.015 601.042 349.071 602.047C349.253 605.481 353.86 606.528 355.619 603.569L354.697 605.202C354.321 605.872 354.139 606.626 354.181 607.393L354.265 608.873C354.362 610.52 355.451 611.944 357.029 612.46C358.523 612.949 360.17 612.516 361.231 611.357C364.331 607.952 371.032 601.126 375.556 600.373C379.576 599.703 386.292 599.619 390.354 599.633C392.421 599.647 394.25 600.917 395.003 602.829C392.309 603.025 373.587 612.781 366.955 616.285C364.903 617.359 363.367 619.313 363.102 621.616C362.865 623.696 363.912 625.86 368.016 624.911C376.826 622.859 392.672 615.573 392.672 615.573C392.672 615.573 400.839 613.242 406.144 616.968C413.6 622.217 417.006 624.143 423.4 622.035C429.795 619.914 434.514 616.871 434.514 616.871L447.121 615.615C447.093 615.615 459.015 585.842 442.723 581.278Z" fill="#FFBE9D"/>
<path d="M395.128 587.364C395.1 587.503 392.573 586.694 388.357 586.428C384.169 586.149 378.221 586.624 372.302 589.15C366.382 591.677 361.915 595.641 359.22 598.851C356.498 602.075 355.339 604.462 355.213 604.392C355.171 604.378 355.437 603.764 356.009 602.731C356.581 601.684 357.517 600.233 358.843 598.558C361.468 595.222 365.977 591.118 372.023 588.536C378.068 585.954 384.155 585.549 388.385 585.954C390.507 586.149 392.21 586.484 393.355 586.791C394.514 587.098 395.142 587.336 395.128 587.364Z" fill="#EB996E"/>
<path d="M391.304 578.612C391.262 578.78 388.693 577.523 384.253 577.384C379.842 577.188 373.657 578.528 367.863 582.032C362.069 585.549 357.727 590.016 354.656 593.212C353.19 594.761 351.975 596.06 351.04 597.064C350.188 597.972 349.699 598.46 349.658 598.432C349.63 598.404 350.048 597.86 350.844 596.897C351.64 595.934 352.813 594.552 354.307 592.905C357.308 589.625 361.622 585.061 367.514 581.473C373.42 577.9 379.786 576.616 384.281 576.937C386.529 577.077 388.33 577.482 389.517 577.9C390.117 578.068 390.564 578.305 390.871 578.417C391.164 578.514 391.318 578.598 391.304 578.612Z" fill="#EB996E"/>
<path d="M517.613 566.985C517.529 567.111 515.435 565.589 511.679 563.859C510.744 563.426 509.697 562.979 508.552 562.588C507.421 562.142 506.165 561.807 504.866 561.416C502.227 560.746 499.268 560.216 496.112 560.02C492.971 559.853 489.97 560.048 487.261 560.411C485.921 560.648 484.636 560.83 483.464 561.151C482.277 561.402 481.188 561.737 480.211 562.058C476.274 563.342 474.026 564.626 473.956 564.487C473.928 564.445 474.487 564.11 475.506 563.551C476.008 563.258 476.651 562.937 477.418 562.616C478.186 562.295 479.038 561.876 480.043 561.569C481.034 561.22 482.109 560.844 483.31 560.564C484.497 560.216 485.795 560.006 487.163 559.755C489.9 559.35 492.957 559.141 496.154 559.308C499.351 559.518 502.353 560.062 505.034 560.788C506.36 561.193 507.63 561.556 508.761 562.044C509.92 562.463 510.953 562.951 511.903 563.412C512.866 563.831 513.662 564.347 514.388 564.752C515.114 565.157 515.714 565.547 516.175 565.896C517.124 566.552 517.641 566.943 517.613 566.985Z" fill="#EB996E"/>
<path d="M436.344 628.679H236.838C231.17 628.679 226.507 624.212 226.256 618.559L220.266 481.269C220.001 475.239 224.818 470.215 230.849 470.215H441.942C447.959 470.215 452.762 475.225 452.525 481.227L446.926 618.518C446.689 624.198 442.012 628.679 436.344 628.679Z" fill="#E0E0E0"/>
<path d="M436.344 628.679C436.344 628.637 437.014 628.693 438.271 628.456C439.513 628.218 441.412 627.632 443.283 625.971C445.139 624.366 446.899 621.491 446.843 617.806C446.982 614.149 447.15 609.919 447.317 605.174C448.071 586.149 449.146 558.652 450.487 524.678C450.822 516.178 451.185 507.287 451.548 498.005C451.729 493.371 451.925 488.639 452.12 483.81C452.148 482.609 452.26 481.367 452.218 480.208C452.134 479.022 451.869 477.85 451.394 476.761C450.473 474.555 448.714 472.699 446.536 471.61C445.447 471.066 444.274 470.703 443.045 470.577C441.845 470.48 440.546 470.536 439.276 470.522C436.735 470.522 434.166 470.522 431.583 470.522C426.418 470.522 421.168 470.522 415.835 470.536C405.183 470.536 394.209 470.55 382.97 470.55C337.987 470.563 288.537 470.564 236.629 470.577C235.01 470.577 233.39 470.577 231.771 470.577C230.151 470.536 228.615 470.689 227.149 471.275C224.218 472.364 221.928 474.904 221.048 477.877C220.825 478.617 220.699 479.385 220.63 480.153C220.602 480.92 220.63 481.702 220.671 482.511C220.741 484.103 220.811 485.694 220.881 487.285C221.02 490.467 221.16 493.636 221.3 496.79C221.844 509.422 222.389 521.859 222.919 534.086C223.98 558.54 224.999 582.115 225.977 604.588C226.102 607.393 226.214 610.185 226.34 612.962C226.395 614.344 226.465 615.726 226.521 617.108C226.563 618.504 226.619 619.83 227.038 621.1C227.806 623.64 229.607 625.831 231.896 627.088C233.041 627.716 234.311 628.121 235.596 628.274C236.866 628.414 238.235 628.344 239.561 628.358C250.213 628.358 260.559 628.372 270.569 628.372C290.575 628.386 309.199 628.4 326.218 628.414C360.227 628.47 387.759 628.497 406.788 628.525C416.296 628.553 423.681 628.581 428.693 628.595C431.192 628.609 433.091 628.623 434.389 628.637C435.674 628.651 436.344 628.679 436.344 628.679C436.344 628.679 435.688 628.707 434.403 628.721C433.105 628.735 431.206 628.735 428.707 628.763C423.681 628.777 416.31 628.805 406.802 628.832C387.759 628.86 360.241 628.902 326.232 628.944C309.227 628.958 290.589 628.972 270.583 628.986C260.586 628.986 250.241 629 239.575 629C238.235 628.986 236.922 629.056 235.526 628.916C234.158 628.749 232.804 628.33 231.589 627.646C229.146 626.306 227.233 623.989 226.409 621.281C225.977 619.927 225.921 618.476 225.865 617.122C225.809 615.74 225.739 614.358 225.683 612.976C225.558 610.199 225.432 607.407 225.32 604.601C224.329 582.129 223.296 558.554 222.221 534.1C221.691 521.873 221.146 509.436 220.588 496.804C220.448 493.65 220.308 490.481 220.169 487.299C220.099 485.708 220.029 484.117 219.959 482.525C219.917 481.73 219.89 480.934 219.917 480.097C219.987 479.273 220.113 478.45 220.364 477.654C221.314 474.472 223.771 471.764 226.912 470.591C228.448 469.963 230.193 469.81 231.798 469.852C233.418 469.852 235.037 469.852 236.657 469.852C288.565 469.866 338.015 469.866 382.998 469.88C394.237 469.88 405.21 469.894 415.863 469.894C421.196 469.894 426.445 469.894 431.611 469.907C434.194 469.907 436.763 469.907 439.304 469.907C440.588 469.921 441.817 469.866 443.129 469.977C444.413 470.117 445.67 470.508 446.815 471.08C449.118 472.224 450.975 474.193 451.939 476.537C452.427 477.696 452.72 478.938 452.804 480.194C452.846 481.465 452.748 482.637 452.706 483.851C452.511 488.667 452.316 493.399 452.12 498.033C451.729 507.301 451.366 516.206 451.003 524.706C449.565 558.68 448.406 586.177 447.611 605.202C447.401 609.947 447.22 614.177 447.066 617.834C447.094 621.574 445.279 624.492 443.38 626.097C441.468 627.758 439.527 628.33 438.285 628.539C437.642 628.637 437.168 628.679 436.833 628.679C436.498 628.679 436.344 628.679 436.344 628.679Z" fill="#263238"/>
<path d="M347.299 551.869C347.299 557.898 342.412 562.798 336.367 562.798C330.336 562.798 325.436 557.912 325.436 551.869C325.436 545.839 330.322 540.939 336.367 540.939C342.412 540.939 347.299 545.839 347.299 551.869Z" fill="white"/>
<path d="M210.562 355.495H210.409V187.176H0.292969V355.955H183.185L210.562 383.313V355.495Z" fill="white"/>
<path d="M210.563 355.495C210.563 355.495 210.577 356.095 210.577 357.295C210.577 358.495 210.591 360.282 210.605 362.627C210.619 367.345 210.633 374.31 210.66 383.327V383.578L210.479 383.396C203.205 376.152 193.977 366.94 183.073 356.067L183.185 356.109C139.291 356.137 75.5021 356.178 0.293185 356.22H0.0279224V355.955C0.0279224 310.117 0.0139612 259.757 0 207.01C0 200.338 0 193.694 0 187.19V186.897H0.293185C78.6294 186.911 150.893 186.939 210.409 186.953H210.646V187.19C210.605 238.066 210.577 280.052 210.549 309.364C210.521 324.019 210.493 335.493 210.479 343.351C210.465 347.273 210.451 350.288 210.451 352.34C210.437 353.359 210.437 354.141 210.437 354.671C210.437 355.201 210.423 355.481 210.423 355.508C210.549 355.495 210.549 355.495 210.563 355.495C210.563 355.495 210.563 355.495 210.423 355.495C210.423 355.467 210.409 355.187 210.409 354.657C210.409 354.113 210.395 353.345 210.395 352.326C210.381 350.274 210.381 347.259 210.367 343.337C210.353 335.479 210.325 323.991 210.297 309.35C210.27 280.038 210.242 238.053 210.2 187.176L210.437 187.413C150.921 187.427 78.6434 187.441 0.321107 187.469L0.614293 187.176C0.614293 193.694 0.614293 200.324 0.614293 206.996C0.572409 259.757 0.558448 310.117 0.558448 355.955L0.293185 355.69C75.5021 355.732 139.291 355.774 183.185 355.802H183.255L183.296 355.843C194.172 366.759 203.387 375.985 210.633 383.243L210.451 383.313C210.521 365.391 210.549 356.234 210.563 355.495Z" fill="#263238"/>
<path d="M210.409 205.949C210.409 206.103 163.374 206.242 105.351 206.242C47.3146 206.242 0.279297 206.117 0.279297 205.949C0.279297 205.782 47.3146 205.656 105.351 205.656C163.374 205.656 210.409 205.782 210.409 205.949Z" fill="#263238"/>
<path d="M12.481 196.835C12.481 198.3 11.2943 199.487 9.82841 199.487C8.36248 199.487 7.17578 198.3 7.17578 196.835C7.17578 195.369 8.36248 194.183 9.82841 194.183C11.3083 194.183 12.481 195.369 12.481 196.835Z" fill="#E0E0E0"/>
<path d="M20.3131 196.835C20.3131 198.3 19.1264 199.487 17.6604 199.487C16.1945 199.487 15.0078 198.3 15.0078 196.835C15.0078 195.369 16.1945 194.183 17.6604 194.183C19.1264 194.183 20.3131 195.369 20.3131 196.835Z" fill="#E0E0E0"/>
<path d="M25.5061 199.487C26.9711 199.487 28.1588 198.299 28.1588 196.835C28.1588 195.37 26.9711 194.183 25.5061 194.183C24.0411 194.183 22.8535 195.37 22.8535 196.835C22.8535 198.299 24.0411 199.487 25.5061 199.487Z" fill="#E0E0E0"/>
<path d="M210.562 212.356C221.542 212.356 230.443 203.457 230.443 192.48C230.443 181.503 221.542 172.604 210.562 172.604C199.583 172.604 190.682 181.503 190.682 192.48C190.682 203.457 199.583 212.356 210.562 212.356Z" fill="#F1C72F"/>
<path d="M218.3 187.546L215.477 184.723L202.801 197.396L205.624 200.219L218.3 187.546Z" fill="white"/>
<path d="M205.622 184.731L202.799 187.554L215.474 200.227L218.298 197.404L205.622 184.731Z" fill="white"/>
<path d="M97.5473 209.899L113.086 225.923L134.824 220.842L139.235 242.714L160.275 250.196L152.15 270.979L165.804 288.65L147.724 301.743L149.664 323.978L127.368 325.234L116.967 344.984L97.5473 333.985L78.1133 344.984L67.7262 325.234L45.4302 323.978L47.3708 301.743L29.291 288.65L42.9451 270.979L34.8196 250.196L55.8592 242.714L60.2709 220.842L82.0085 225.923L97.5473 209.899Z" fill="#F1C72F"/>
<g opacity="0.3">
<path d="M89.0029 259.799C89.0029 255.263 87.4253 254.034 84.8983 254.034C82.3714 254.034 80.7937 255.402 80.7937 259.003V262.242H73.3105V259.506C73.3105 251.438 77.3453 246.832 85.1217 246.832C92.8981 246.832 96.9329 251.438 96.9329 259.506V260.804C96.9329 266.206 95.2017 269.583 91.3903 271.175C95.3553 272.905 96.9329 276.646 96.9329 281.755V285.719C96.9329 293.786 92.8981 298.393 85.1217 298.393C77.3453 298.393 73.3105 293.786 73.3105 285.719V281.545H80.7937V286.221C80.7937 289.822 82.3714 291.19 84.8983 291.19C87.4253 291.19 89.0029 289.962 89.0029 285.509V281.545C89.0029 276.87 87.4253 275.139 83.8233 275.139H81.1567V267.936H84.2561C87.2019 267.936 89.0029 266.638 89.0029 262.604V259.799Z" fill="black"/>
<path d="M101.609 259.52C101.609 251.452 105.854 246.846 113.63 246.846C121.406 246.846 125.651 251.452 125.651 259.52V285.719C125.651 293.786 121.406 298.393 113.63 298.393C105.854 298.393 101.609 293.786 101.609 285.719V259.52ZM109.525 286.221C109.525 289.822 111.103 291.19 113.63 291.19C116.157 291.19 117.735 289.822 117.735 286.221V259.003C117.735 255.402 116.157 254.034 113.63 254.034C111.103 254.034 109.525 255.402 109.525 259.003V286.221Z" fill="black"/>
</g>
<g opacity="0.3">
<path d="M127.76 247.014C127.76 245.576 128.5 244.78 129.882 244.78C131.264 244.78 132.004 245.576 132.004 247.014V251.606C132.004 253.043 131.264 253.839 129.882 253.839C128.5 253.839 127.76 253.043 127.76 251.606V247.014ZM129.156 251.703C129.156 252.318 129.421 252.583 129.868 252.583C130.301 252.583 130.594 252.318 130.594 251.703V246.916C130.594 246.302 130.315 246.036 129.868 246.036C129.407 246.036 129.156 246.302 129.156 246.916V251.703ZM135.383 244.878H136.681L131.166 258.85H129.868L135.383 244.878ZM134.685 252.122C134.685 250.684 135.424 249.889 136.807 249.889C138.189 249.889 138.929 250.684 138.929 252.122V256.714C138.929 258.152 138.189 258.948 136.807 258.948C135.424 258.948 134.685 258.152 134.685 256.714V252.122ZM136.081 256.812C136.081 257.426 136.346 257.691 136.793 257.691C137.225 257.691 137.505 257.426 137.505 256.812V252.024C137.505 251.41 137.225 251.145 136.793 251.145C136.332 251.145 136.081 251.41 136.081 252.024V256.812Z" fill="black"/>
</g>
<g opacity="0.3">
<path d="M83.2221 300.919C86.3633 300.919 87.9828 302.803 87.9828 306.097V306.739H84.9253V305.888C84.9253 304.422 84.339 303.864 83.3058 303.864C82.2727 303.864 81.6863 304.422 81.6863 305.888C81.6863 310.117 88.0108 310.913 88.0108 316.803C88.0108 320.097 86.3633 321.981 83.1802 321.981C79.997 321.981 78.3496 320.097 78.3496 316.803V315.533H81.4071V316.998C81.4071 318.464 82.0493 318.994 83.0825 318.994C84.1156 318.994 84.7578 318.464 84.7578 316.998C84.7578 312.769 78.4334 311.974 78.4334 306.083C78.4613 302.803 80.0808 300.919 83.2221 300.919Z" fill="black"/>
<path d="M100.352 321.744H97.0852L96.5267 318.003H92.5478L91.9894 321.744H89.0156L92.3105 301.156H97.0433L100.352 321.744ZM92.9666 315.212H96.08L94.5163 304.799L92.9666 315.212Z" fill="black"/>
<path d="M101.859 301.156H105.098V318.799H110.418V321.744H101.859V301.156Z" fill="black"/>
<path d="M115.067 309.838H119.507V312.783H115.067V318.813H120.652V321.758H111.828V301.17H120.652V304.115H115.067V309.838Z" fill="black"/>
</g>
<path d="M86.0576 261.265C86.0576 256.728 84.48 255.5 81.953 255.5C79.426 255.5 77.8484 256.868 77.8484 260.469V263.707H70.3652V260.971C70.3652 252.904 74.4 248.298 82.1764 248.298C89.9528 248.298 93.9876 252.904 93.9876 260.971V262.269C93.9876 267.671 92.2564 271.049 88.445 272.64C92.41 274.371 93.9876 278.112 93.9876 283.22V287.184C93.9876 295.252 89.9528 299.858 82.1764 299.858C74.4 299.858 70.3652 295.252 70.3652 287.184V283.011H77.8484V287.687C77.8484 291.288 79.426 292.656 81.953 292.656C84.48 292.656 86.0576 291.428 86.0576 286.975V283.011C86.0576 278.335 84.48 276.604 80.878 276.604H78.2114V269.402H81.3108C84.2566 269.402 86.0576 268.104 86.0576 264.07V261.265Z" fill="white"/>
<path d="M98.6641 260.971C98.6641 252.904 102.908 248.298 110.685 248.298C118.461 248.298 122.705 252.904 122.705 260.971V287.17C122.705 295.238 118.461 299.844 110.685 299.844C102.908 299.844 98.6641 295.238 98.6641 287.17V260.971ZM106.58 287.687C106.58 291.288 108.158 292.656 110.685 292.656C113.212 292.656 114.789 291.288 114.789 287.687V260.469C114.789 256.868 113.212 255.5 110.685 255.5C108.158 255.5 106.58 256.868 106.58 260.469V287.687Z" fill="white"/>
<path d="M124.799 247.014C124.799 245.576 125.539 244.78 126.921 244.78C128.303 244.78 129.043 245.576 129.043 247.014V251.606C129.043 253.043 128.303 253.839 126.921 253.839C125.539 253.839 124.799 253.043 124.799 251.606V247.014ZM126.195 251.703C126.195 252.318 126.46 252.583 126.907 252.583C127.354 252.583 127.619 252.318 127.619 251.703V246.916C127.619 246.302 127.34 246.036 126.907 246.036C126.446 246.036 126.195 246.302 126.195 246.916V251.703ZM132.422 244.878H133.72L128.205 258.85H126.907L132.422 244.878ZM131.724 252.122C131.724 250.684 132.464 249.889 133.846 249.889C135.228 249.889 135.968 250.684 135.968 252.122V256.714C135.968 258.152 135.228 258.948 133.846 258.948C132.464 258.948 131.724 258.152 131.724 256.714V252.122ZM133.12 256.812C133.12 257.426 133.385 257.691 133.832 257.691C134.265 257.691 134.544 257.426 134.544 256.812V252.024C134.544 251.41 134.265 251.145 133.832 251.145C133.371 251.145 133.12 251.41 133.12 252.024V256.812Z" fill="white"/>
<path d="M80.2631 300.919C83.4044 300.919 85.0239 302.803 85.0239 306.097V306.739H81.9663V305.888C81.9663 304.422 81.38 303.864 80.3468 303.864C79.3137 303.864 78.7273 304.422 78.7273 305.888C78.7273 310.117 85.0518 310.913 85.0518 316.803C85.0518 320.097 83.4043 321.981 80.2212 321.981C77.038 321.981 75.3906 320.097 75.3906 316.803V315.533H78.4481V316.998C78.4481 318.464 79.0903 318.994 80.1235 318.994C81.1566 318.994 81.7988 318.464 81.7988 316.998C81.7988 312.769 75.4744 311.974 75.4744 306.083C75.5023 302.803 77.1218 300.919 80.2631 300.919Z" fill="white"/>
<path d="M97.3931 321.744H94.1262L93.5678 318.003H89.5888L89.0304 321.744H86.0566L89.3515 301.156H94.0843L97.3931 321.744ZM90.0077 315.212H93.121L91.5574 304.799L90.0077 315.212Z" fill="white"/>
<path d="M98.9004 301.156H102.139V318.799H107.459V321.744H98.9004V301.156Z" fill="white"/>
<path d="M112.108 309.838H116.548V312.783H112.108V318.813H117.693V321.758H108.869V301.17H117.693V304.115H112.108V309.838Z" fill="white"/>
<path d="M139.346 221.889L140.253 219.837C141.119 220.41 142.361 220.815 143.506 220.815C144.665 220.815 145.112 220.493 145.112 220.019C145.112 218.456 139.513 219.6 139.513 215.943C139.513 214.185 140.951 212.747 143.869 212.747C145.154 212.747 146.466 213.04 147.443 213.598L146.592 215.664C145.656 215.162 144.721 214.91 143.869 214.91C142.696 214.91 142.278 215.301 142.278 215.79C142.278 217.297 147.862 216.167 147.862 219.796C147.862 221.512 146.424 222.978 143.506 222.978C141.873 222.978 140.281 222.545 139.346 221.889Z" fill="#E0E0E0"/>
<path d="M152.47 220.103L151.688 220.898V222.769H149.021V212.342H151.688V217.814L154.411 215.162H157.58L154.411 218.428L157.845 222.783H154.606L152.47 220.103Z" fill="#E0E0E0"/>
<path d="M158.332 212.9C158.332 212.105 158.974 211.477 159.965 211.477C160.943 211.477 161.599 212.049 161.599 212.858C161.599 213.696 160.957 214.324 159.965 214.324C158.974 214.31 158.332 213.696 158.332 212.9ZM158.625 215.161H161.292V222.782H158.625V215.161Z" fill="#E0E0E0"/>
<path d="M171.567 218.972C171.567 221.387 169.892 222.908 167.826 222.908C166.946 222.908 166.22 222.643 165.704 222.113V225.518H163.037V215.176H165.578V215.929C166.081 215.329 166.835 215.05 167.826 215.05C169.892 215.036 171.567 216.557 171.567 218.972ZM168.859 218.972C168.859 217.814 168.161 217.158 167.253 217.158C166.36 217.158 165.648 217.814 165.648 218.972C165.648 220.131 166.346 220.787 167.253 220.787C168.161 220.787 168.859 220.117 168.859 218.972Z" fill="#E0E0E0"/>
<path d="M183.616 220.87H179.455L178.688 222.782H175.854L180.195 212.942H182.932L187.288 222.782H184.398L183.616 220.87ZM182.806 218.818L181.536 215.664L180.265 218.818H182.806Z" fill="#E0E0E0"/>
<path d="M195.972 212.342V222.768H193.431V222.015C192.928 222.615 192.174 222.894 191.197 222.894C189.117 222.894 187.441 221.373 187.441 218.944C187.441 216.529 189.117 215.022 191.197 215.022C192.077 215.022 192.803 215.273 193.305 215.803V212.328H195.972V212.342ZM193.347 218.958C193.347 217.799 192.663 217.157 191.755 217.157C190.848 217.157 190.15 217.799 190.15 218.958C190.15 220.13 190.834 220.786 191.755 220.786C192.663 220.786 193.347 220.116 193.347 218.958Z" fill="#E0E0E0"/>
<path d="M197.09 222.113L197.886 220.284C198.584 220.717 199.617 220.982 200.538 220.982C201.432 220.982 201.739 220.787 201.739 220.466C201.739 219.447 197.243 220.605 197.243 217.562C197.243 216.125 198.57 215.036 200.957 215.036C202.032 215.036 203.205 215.259 203.973 215.678L203.177 217.492C202.423 217.074 201.655 216.934 200.985 216.934C200.092 216.934 199.756 217.185 199.756 217.465C199.756 218.525 204.238 217.381 204.238 220.396C204.238 221.805 202.94 222.894 200.468 222.894C199.17 222.908 197.83 222.587 197.09 222.113Z" fill="#E0E0E0"/>
<path d="M631.282 249.875H428.873L429.892 391.631H452.021V424.419L481.953 391.631H632.302L631.282 249.875Z" fill="white"/>
<path d="M631.283 249.875C631.283 249.875 631.311 250.712 631.339 252.387C631.353 254.076 631.381 256.547 631.423 259.785C631.492 266.303 631.576 275.878 631.702 288.161C631.911 312.797 632.232 348.264 632.609 391.631V391.925H632.316C589.525 391.939 538.134 391.966 481.968 391.994L482.233 391.883C472.698 402.337 462.59 413.406 452.3 424.67L451.672 425.354V424.419C451.672 414.467 451.672 403.873 451.672 393.167C451.672 392.65 451.672 392.134 451.672 391.631L452.035 391.994C444.594 391.994 437.222 391.994 429.921 391.994H429.558V391.631C429.195 340.573 428.86 292.446 428.566 249.875V249.554H428.888C489.144 249.624 539.781 249.679 575.368 249.721C593.113 249.763 607.102 249.791 616.68 249.805C621.44 249.819 625.098 249.833 627.583 249.847C628.798 249.861 629.733 249.861 630.375 249.861C630.962 249.861 631.283 249.875 631.283 249.875C631.283 249.875 630.948 249.889 630.32 249.889C629.677 249.889 628.728 249.903 627.499 249.903C625 249.917 621.329 249.931 616.54 249.945C606.949 249.959 592.932 250 575.159 250.028C539.628 250.07 489.06 250.126 428.888 250.196L429.209 249.875C429.53 292.446 429.893 340.573 430.284 391.631L429.921 391.269C437.222 391.269 444.594 391.269 452.035 391.269H452.398V391.631C452.398 392.134 452.398 392.65 452.398 393.167C452.398 403.873 452.398 414.467 452.398 424.419L451.77 424.181C462.059 412.917 472.167 401.849 481.717 391.394L481.828 391.282H481.982C538.148 391.31 589.539 391.338 632.33 391.352L632.051 391.645C631.799 348.348 631.59 312.937 631.45 288.343C631.395 276.032 631.353 266.443 631.311 259.897C631.297 256.63 631.297 254.146 631.283 252.443C631.255 250.754 631.283 249.875 631.283 249.875Z" fill="#263238"/>
<path d="M630.249 269.876C630.249 270.058 585.392 270.197 530.078 270.197C474.75 270.197 429.906 270.058 429.906 269.876C429.906 269.695 474.75 269.555 530.078 269.555C585.392 269.555 630.249 269.695 630.249 269.876Z" fill="#263238"/>
<path d="M438.214 264.865C439.694 264.865 440.894 263.553 440.894 261.934C440.894 260.316 439.694 259.003 438.214 259.003C436.733 259.003 435.533 260.316 435.533 261.934C435.533 263.553 436.733 264.865 438.214 264.865Z" fill="#E0E0E0"/>
<path d="M446.13 264.865C447.61 264.865 448.81 263.553 448.81 261.934C448.81 260.316 447.61 259.003 446.13 259.003C444.649 259.003 443.449 260.316 443.449 261.934C443.449 263.553 444.649 264.865 446.13 264.865Z" fill="#E0E0E0"/>
<path d="M454.046 264.865C455.526 264.865 456.726 263.553 456.726 261.934C456.726 260.316 455.526 259.003 454.046 259.003C452.565 259.003 451.365 260.316 451.365 261.934C451.365 263.553 452.565 264.865 454.046 264.865Z" fill="#E0E0E0"/>
<path d="M532.857 349.255C548.625 349.255 561.408 336.476 561.408 320.711C561.408 304.947 548.625 292.167 532.857 292.167C517.089 292.167 504.307 304.947 504.307 320.711C504.307 336.476 517.089 349.255 532.857 349.255Z" fill="#F1C72F"/>
<path d="M525.988 329.058V312.211C525.988 311.387 526.868 310.871 527.594 311.276L542.644 319.762C543.37 320.167 543.37 321.228 542.644 321.632L527.594 329.993C526.854 330.398 525.988 329.881 525.988 329.058Z" fill="white"/>
<path d="M617.042 373.625H442.262V374.491H617.042V373.625Z" fill="#263238"/>
<path d="M496.739 372.69H442.123V375.007H496.739V372.69Z" fill="#F1C72F"/>
<path d="M495.846 376.962C497.311 376.962 498.499 375.662 498.499 374.058C498.499 372.455 497.311 371.155 495.846 371.155C494.381 371.155 493.193 372.455 493.193 374.058C493.193 375.662 494.381 376.962 495.846 376.962Z" fill="#F1C72F"/>
<path d="M629.733 275.32C640.374 275.32 649 266.696 649 256.058C649 245.42 640.374 236.796 629.733 236.796C619.093 236.796 610.467 245.42 610.467 256.058C610.467 266.696 619.093 275.32 629.733 275.32Z" fill="#F1C72F"/>
<path d="M637.242 251.283L634.498 248.539L622.217 260.817L624.962 263.561L637.242 251.283Z" fill="white"/>
<path d="M624.955 248.534L622.211 251.278L634.492 263.555L637.236 260.812L624.955 248.534Z" fill="white"/>
<path d="M249.416 20.7974V159.414H376.044L403.408 180.574V159.414V153.984V20.7974H249.416Z" fill="white"/>
<path d="M249.417 20.7973C249.417 20.7973 249.64 20.7834 250.115 20.7834C250.603 20.7834 251.301 20.7694 252.209 20.7694C254.08 20.7554 256.844 20.7554 260.418 20.7275C267.65 20.7136 278.218 20.6856 291.677 20.6438C318.664 20.6019 357.197 20.5461 403.395 20.4902H403.716V20.8113C403.73 65.2533 403.744 117.679 403.758 173.609C403.758 175.94 403.758 178.271 403.758 180.588V181.327L403.171 180.881C393.901 173.72 384.77 166.644 375.821 159.721L376.045 159.79C329.665 159.776 286.637 159.748 249.417 159.735H249.109V159.427C249.179 117.609 249.235 82.924 249.263 58.6791C249.291 46.6055 249.319 37.1281 249.347 30.6516C249.361 27.4413 249.375 24.9847 249.375 23.3097C249.389 21.6348 249.417 20.7973 249.417 20.7973C249.417 20.7973 249.444 21.6767 249.444 23.3516C249.458 25.0405 249.458 27.525 249.472 30.7633C249.486 37.2537 249.514 46.7451 249.556 58.8606C249.598 83.0636 249.654 117.679 249.71 159.413L249.403 159.106C286.623 159.092 329.652 159.065 376.031 159.051H376.156L376.254 159.12C385.203 166.043 394.348 173.106 403.618 180.267L403.032 180.56C403.032 178.243 403.032 175.912 403.032 173.581C403.046 117.665 403.059 65.2393 403.073 20.7834L403.395 21.1044C357.267 21.0346 318.818 20.9788 291.873 20.9508C278.386 20.909 267.789 20.8811 260.544 20.8671C256.928 20.8531 254.149 20.8392 252.265 20.8252C251.329 20.8113 250.631 20.8113 250.129 20.8113C249.668 20.8113 249.417 20.7973 249.417 20.7973Z" fill="#263238"/>
<path d="M402.556 47.1082C402.556 47.3455 368.616 47.5269 326.747 47.5269C284.877 47.5269 250.938 47.3455 250.938 47.1082C250.938 46.8849 284.877 46.6895 326.747 46.6895C368.616 46.7034 402.556 46.8849 402.556 47.1082Z" fill="#263238"/>
<path d="M266.601 36.7932C266.601 38.9009 264.898 40.6037 262.79 40.6037C260.682 40.6037 258.979 38.9009 258.979 36.7932C258.979 34.6856 260.682 32.9688 262.79 32.9688C264.884 32.9688 266.601 34.6856 266.601 36.7932Z" fill="#E0E0E0"/>
<path d="M277.896 36.7932C277.896 38.9009 276.193 40.6037 274.085 40.6037C271.977 40.6037 270.273 38.9009 270.273 36.7932C270.273 34.6856 271.977 32.9688 274.085 32.9688C276.179 32.9688 277.896 34.6856 277.896 36.7932Z" fill="#E0E0E0"/>
<path d="M289.178 36.7932C289.178 38.9009 287.474 40.6037 285.366 40.6037C283.258 40.6037 281.555 38.9009 281.555 36.7932C281.555 34.6856 283.258 32.9688 285.366 32.9688C287.474 32.9688 289.178 34.6856 289.178 36.7932Z" fill="#E0E0E0"/>
<path d="M374.997 97.4682C375.556 121.099 356.82 140.71 333.141 141.268C309.463 141.84 289.792 123.151 289.233 99.52C288.661 75.8893 307.411 56.2784 331.089 55.7201C354.781 55.1478 374.439 73.8514 374.997 97.4682Z" fill="#F1C72F"/>
<path d="M364.792 97.7195C365.225 115.725 350.942 130.674 332.891 131.107C314.839 131.54 299.858 117.289 299.426 99.2967C298.993 81.291 313.275 66.3421 331.327 65.9094C349.379 65.4627 364.373 79.7138 364.792 97.7195Z" fill="#F1C72F"/>
<g opacity="0.3">
<path d="M364.763 96.6865C364.567 96.7005 364.386 95.2628 363.8 92.7783C363.199 90.3077 362.124 86.7345 359.793 82.8542C358.62 80.928 357.154 78.932 355.325 77.0198C353.482 75.1355 351.304 73.307 348.763 71.7856C347.493 71.0179 346.153 70.306 344.729 69.7058C343.305 69.1056 341.811 68.5613 340.247 68.1705C338.697 67.7796 337.078 67.4586 335.43 67.3051C333.783 67.1515 332.094 67.0957 330.39 67.1794C328.687 67.2911 327.012 67.5144 325.392 67.8494C323.759 68.1844 322.195 68.6869 320.701 69.2452C319.194 69.8035 317.77 70.5014 316.415 71.2691C315.061 72.0228 313.805 72.8743 312.632 73.7815C310.272 75.5821 308.318 77.6339 306.684 79.7137C305.079 81.8074 303.836 83.9569 302.887 86.0087C301.002 90.1123 300.318 93.7833 299.997 96.3096C299.69 98.85 299.676 100.288 299.48 100.302C299.341 100.316 299.02 98.8919 299.034 96.2538C299.062 93.6297 299.48 89.7494 301.267 85.3108C302.161 83.1054 303.39 80.7745 305.023 78.4854C306.67 76.2102 308.723 73.963 311.208 71.981C312.45 70.99 313.777 70.0408 315.229 69.2173C316.667 68.3798 318.188 67.6121 319.808 66.984C321.427 66.3559 323.117 65.8116 324.862 65.4347C326.607 65.0578 328.422 64.8066 330.251 64.6949C332.094 64.6112 333.909 64.6531 335.696 64.8345C337.483 65.016 339.214 65.3649 340.889 65.8116C342.565 66.2443 344.17 66.8445 345.692 67.5284C347.214 68.1984 348.652 68.98 349.992 69.8315C352.687 71.5204 354.962 73.5443 356.861 75.624C358.746 77.7177 360.212 79.8951 361.342 81.9888C363.604 86.2041 364.456 90.0146 364.777 92.6108C365.07 95.2349 364.916 96.6865 364.763 96.6865Z" fill="black"/>
</g>
<g opacity="0.3">
<path d="M336.283 117.903L336.507 123.597L331.425 123.793L331.215 118.252C326.175 118.14 321.289 116.758 318.413 114.678L320.968 108.369C323.579 110.156 327.292 111.384 330.964 111.594L330.643 103.107C324.947 101.949 318.581 100.316 318.301 93.0575C318.092 87.6698 321.833 82.8962 329.819 81.6818L329.596 76.0428L334.678 75.8474L334.887 81.3887C338.713 81.5422 342.454 82.4216 345.316 84.0965L343.013 90.4474C340.36 89.0795 337.693 88.3118 335.138 88.1025L335.474 96.7424C341.17 97.8451 347.438 99.4921 347.704 106.653C347.913 111.901 344.227 116.619 336.283 117.903ZM330.336 95.6397L330.057 88.4235C327.39 89.1354 326.385 90.6568 326.441 92.3317C326.51 94.1044 328.074 95.0116 330.336 95.6397ZM339.55 107.546C339.48 105.773 337.973 104.866 335.753 104.182L336.018 111.189C338.545 110.533 339.606 109.179 339.55 107.546Z" fill="black"/>
</g>
<path d="M365.405 97.0775C365.391 97.0775 365.363 96.896 365.322 96.5471C365.28 96.1563 365.238 95.6398 365.168 94.9698C365.14 94.6209 365.098 94.2301 365.07 93.8113C365.014 93.3926 364.903 92.932 364.819 92.4295C364.637 91.4385 364.442 90.28 364.037 89.0238C363.381 86.4834 362.096 83.4825 360.114 80.328C358.118 77.1874 355.283 73.9213 351.458 71.1995C347.647 68.4917 342.886 66.2305 337.413 65.407C331.996 64.6114 325.895 64.9324 320.143 67.2634C318.677 67.7658 317.309 68.5335 315.899 69.2454C314.559 70.0968 313.162 70.8785 311.92 71.9253C310.608 72.8744 309.463 74.0469 308.262 75.1775C307.187 76.4337 306.042 77.6481 305.121 79.0578C303.222 81.8215 301.589 84.8783 300.625 88.2282C299.634 91.5502 299.131 95.0815 299.173 98.6408C299.299 102.214 299.969 105.703 301.128 108.984C302.245 112.278 304.032 115.265 306.056 117.931C307.047 119.299 308.234 120.471 309.379 121.657C310.636 122.732 311.836 123.849 313.19 124.742C314.475 125.733 315.913 126.445 317.295 127.241C318.733 127.897 320.143 128.581 321.637 129.027C327.501 131.093 333.602 131.107 338.977 130.06C344.394 128.971 349.057 126.487 352.728 123.598C356.414 120.68 359.095 117.289 360.938 114.064C362.767 110.812 363.897 107.769 364.442 105.187C364.805 103.917 364.931 102.758 365.07 101.753C365.14 101.251 365.224 100.79 365.252 100.358C365.266 99.9389 365.28 99.548 365.294 99.1991C365.321 98.5291 365.349 98.0127 365.377 97.6219C365.377 97.2589 365.391 97.0775 365.405 97.0775C365.419 97.0775 365.419 97.2589 365.433 97.6219C365.433 98.0127 365.433 98.5431 365.433 99.2131C365.433 99.562 365.419 99.9528 365.419 100.386C365.391 100.818 365.322 101.279 365.266 101.795C365.154 102.814 365.042 103.987 364.707 105.271C364.205 107.881 363.102 110.98 361.287 114.288C359.458 117.582 356.763 121.043 353.05 124.03C349.336 126.989 344.617 129.544 339.102 130.674C333.63 131.777 327.417 131.777 321.428 129.683C319.906 129.237 318.468 128.539 316.988 127.883C315.578 127.087 314.112 126.361 312.799 125.356C311.403 124.449 310.175 123.318 308.904 122.216C307.746 121.001 306.517 119.801 305.512 118.405C303.432 115.683 301.603 112.641 300.458 109.263C299.271 105.913 298.601 102.34 298.461 98.6966C298.419 95.0536 298.936 91.4525 299.955 88.0467C300.932 84.627 302.622 81.5004 304.562 78.6809C305.512 77.2433 306.671 75.9871 307.773 74.7169C309.002 73.5584 310.175 72.358 311.515 71.3949C312.786 70.3201 314.224 69.5245 315.578 68.6592C317.016 67.9333 318.426 67.1517 319.92 66.6492C325.797 64.2764 332.01 63.9832 337.525 64.8207C343.081 65.6861 347.926 68.0171 351.765 70.7947C355.618 73.6003 358.481 76.9222 360.463 80.1326C362.432 83.3429 363.688 86.3857 364.316 88.9679C364.721 90.2381 364.875 91.4106 365.042 92.4155C365.126 92.918 365.21 93.3786 365.266 93.8113C365.294 94.244 365.308 94.6209 365.335 94.9838C365.363 95.6538 365.391 96.1702 365.419 96.5611C365.419 96.896 365.419 97.0775 365.405 97.0775Z" fill="#263238"/>
<path d="M417.26 35.5051C425.384 27.3833 425.384 14.2153 417.26 6.09355C409.137 -2.02823 395.966 -2.02823 387.842 6.09354C379.718 14.2153 379.718 27.3833 387.842 35.5051C395.966 43.6269 409.137 43.6269 417.26 35.5051Z" fill="#F1C72F"/>
<path d="M410.669 15.6445L407.707 12.6836L394.449 25.9385L397.411 28.8994L410.669 15.6445Z" fill="white"/>
<path d="M397.391 12.6795L394.43 15.6404L407.688 28.8953L410.649 25.9344L397.391 12.6795Z" fill="white"/>
</g>
<defs>
<clipPath id="clip0_349_11256">
<rect width="649" height="629" fill="white"/>
</clipPath>
</defs>
</svg>
