<svg width="64" height="52" viewBox="0 0 64 52" fill="none" xmlns="http://www.w3.org/2000/svg">
<g clip-path="url(#clip0_69_3544)">
<path d="M32.0502 51.9925C27.9056 51.9757 23.7684 51.7971 19.7856 50.5148C18.4965 50.0998 17.2668 49.4578 16.0763 48.8009C15.1182 48.2723 14.7797 47.3716 14.9527 46.2476C15.5387 42.4437 15.9256 38.6026 16.6809 34.8341C17.9533 28.4862 23.7517 23.8579 30.2365 23.7984C32.5562 23.776 34.8834 23.642 37.1696 24.2525C42.6927 25.7245 46.7871 30.3286 47.6168 36.0623C48.1098 39.4587 48.5637 42.8606 49.0771 46.2532C49.2482 47.3846 48.8892 48.2668 47.9535 48.812C46.8987 49.4262 45.7919 49.9975 44.6404 50.3957C41.1561 51.5961 37.5175 51.8808 33.8603 51.9906C33.2575 52.0092 32.6529 51.9925 32.0502 51.9925Z" fill="#EBEFF2"/>
<path d="M31.9944 22.2892C25.8128 22.2818 20.8348 17.2962 20.8441 11.1232C20.8534 5.00985 25.8575 0.0167905 31.9888 4.15518e-05C38.1686 -0.0167074 43.1987 5.03218 43.1727 11.2219C43.1485 17.3501 38.15 22.2967 31.9944 22.2892Z" fill="#EBEFF2"/>
<path d="M45.3194 25.3692C48.4781 23.6571 51.7893 23.2477 55.1899 24.4369C59.8293 26.0578 62.5137 29.402 63.4029 34.2071C63.5796 35.1655 63.7154 36.1314 63.92 37.0823C64.1525 38.1599 63.8754 39.042 63.0773 39.7938C61.684 41.1077 60.0023 41.9209 58.1681 42.2857C56.1721 42.6821 54.1277 42.8347 52.1037 43.1027C51.6293 43.1659 51.5921 42.8812 51.5401 42.5239C51.1438 39.8161 50.8015 37.0991 50.3048 34.4099C49.6984 31.1271 48.1023 28.3301 45.7696 25.9461C45.6393 25.814 45.5073 25.6837 45.3826 25.546C45.3566 25.5162 45.3529 25.4623 45.3194 25.3692Z" fill="#EBEFF2"/>
<path d="M18.6825 25.3878C17.8975 26.3407 17.0808 27.2284 16.3795 28.2017C14.5695 30.7066 13.6896 33.5632 13.3138 36.6059C13.0664 38.6084 12.7613 40.6034 12.4469 42.5965C12.4172 42.7863 12.1381 43.0859 11.98 43.0822C9.05941 43.0245 6.16486 42.7286 3.49355 41.4482C2.52622 40.9849 1.65004 40.2963 0.805487 39.6207C0.202767 39.1406 -0.111615 38.4241 0.0390649 37.6295C0.396233 35.7406 0.608301 33.7995 1.20544 31.9851C3.49913 25.0305 11.6619 21.7589 18.1765 25.0901C18.3551 25.185 18.5244 25.2948 18.6825 25.3878Z" fill="#EBEFF2"/>
<path d="M13.3175 22.2893C9.18591 22.2856 6.11464 20.1324 4.95012 16.8887C3.77445 13.6115 4.78828 10.0011 7.50796 7.77724C10.1365 5.62779 13.8961 5.36911 16.8501 7.09612C17.3877 7.41063 17.5421 7.70839 17.4138 8.36346C16.7292 11.8361 17.2575 15.1524 18.9615 18.2547C19.2536 18.785 19.1885 19.0921 18.8127 19.509C17.1589 21.3328 15.1182 22.267 13.3175 22.2893Z" fill="#EBEFF2"/>
<path d="M50.8239 22.2892C48.7925 22.252 46.7276 21.2638 45.0831 19.3637C44.8004 19.038 44.7632 18.7942 44.9827 18.396C46.7685 15.1653 47.3303 11.7336 46.5453 8.11212C46.4355 7.60407 46.6774 7.40866 47.0364 7.1872C49.996 5.35784 53.7891 5.58302 56.4939 7.76225C59.1987 9.94148 60.2311 13.5909 59.0703 16.8681C57.9095 20.1435 54.8476 22.2818 50.8239 22.2892Z" fill="#EBEFF2"/>
</g>
<defs>
<clipPath id="clip0_69_3544">
<rect width="64" height="52" fill="white"/>
</clipPath>
</defs>
</svg>
