<svg width="580" height="495" viewBox="0 0 580 495" fill="none" xmlns="http://www.w3.org/2000/svg">
<g clip-path="url(#clip0_320_8538)">
<path d="M290 494.985C450.163 494.985 580 487.398 580 478.038C580 468.679 450.163 461.092 290 461.092C129.837 461.092 0 468.679 0 478.038C0 487.398 129.837 494.985 290 494.985Z" fill="#F5F5F5"/>
<path d="M284.571 464.161L297.808 464.265L304.868 433.576L291.616 433.456L284.571 464.161Z" fill="#FF8B7B"/>
<path d="M298.137 462.738L283.659 462.604C283.121 462.604 282.627 462.978 282.462 463.502L278.963 475.269C278.604 476.481 279.441 477.649 280.698 477.649C285.932 477.604 293.501 477.365 300.067 477.425C307.74 477.499 309.325 477.963 318.329 478.053C323.773 478.098 325.688 472.604 323.459 472.095C313.259 469.73 309.819 469.415 301.278 463.816C300.336 463.188 299.289 462.738 298.137 462.738Z" fill="#263238"/>
<path opacity="0.2" d="M304.853 433.576L301.218 449.4L287.981 449.295L291.601 433.456L304.853 433.576Z" fill="black"/>
<path d="M303.611 465.104C302.116 465.104 300.5 464.834 299.364 464.595C299.229 464.565 299.139 464.46 299.109 464.325C299.094 464.191 299.169 464.056 299.289 464.011C299.917 463.697 305.496 461.032 307.007 461.975C307.306 462.155 307.455 462.454 307.455 462.828C307.455 463.457 307.216 463.966 306.752 464.34C306.049 464.909 304.883 465.104 303.611 465.104ZM300.44 464.161C303.312 464.67 305.496 464.55 306.363 463.846C306.678 463.592 306.842 463.247 306.827 462.813C306.827 462.619 306.752 462.544 306.678 462.499C305.87 461.99 302.729 463.128 300.44 464.161Z" fill="#FFC727"/>
<path d="M299.438 464.595C299.363 464.595 299.303 464.565 299.244 464.52C299.154 464.445 299.109 464.34 299.124 464.22C299.169 463.981 300.171 458.277 303.327 458.621C304.164 458.711 304.389 459.13 304.449 459.475C304.673 460.972 301.263 463.831 299.558 464.565C299.513 464.595 299.483 464.595 299.438 464.595ZM303.058 459.25C301.158 459.25 300.201 462.349 299.872 463.711C301.622 462.723 303.94 460.463 303.82 459.58C303.805 459.52 303.776 459.325 303.252 459.265C303.192 459.25 303.117 459.25 303.058 459.25Z" fill="#FFC727"/>
<path d="M364.755 101.365C364.95 109.449 365.234 117.818 365.623 126.007C365.802 130.124 366.026 134.226 366.311 138.297C366.565 142.369 366.924 146.426 367.358 150.424C367.567 152.43 367.791 154.406 368.076 156.352L368.27 157.819C368.3 157.999 368.27 157.864 368.27 157.909H368.24H368.195C368.15 157.939 368.135 158.074 368.255 158.343C368.494 158.897 369.287 159.81 370.424 160.678C371.575 161.547 372.996 162.46 374.552 163.268C380.879 166.562 388.911 168.987 396.539 171.128L395.731 181.263C391.109 181.532 386.772 181.428 382.255 180.963C380.011 180.754 377.753 180.425 375.464 179.975C373.176 179.556 370.872 178.987 368.539 178.239C366.206 177.475 363.798 176.577 361.375 175.23C358.952 173.867 356.394 172.146 354.031 169.361C352.864 167.969 351.787 166.262 350.995 164.316C350.785 163.837 350.636 163.328 350.456 162.819L350.247 162.041L350.082 161.352L349.723 159.72C349.23 157.535 348.796 155.349 348.392 153.178C346.822 144.48 345.864 135.887 345.161 127.279C344.862 122.983 344.548 118.686 344.429 114.39C344.294 110.063 344.144 105.841 344.219 101.395L364.755 101.365Z" fill="#FF8B7B"/>
<path d="M339.522 102.383C337.638 117.429 341.093 139.645 341.093 139.645C341.093 139.645 351.578 141.127 359.714 139.001C367.851 136.86 369.586 135.244 369.586 135.244C369.586 135.244 372.906 120.033 369.825 103.91C366.55 86.9187 352.909 80.4664 343.486 90.8559C341.362 93.1764 340.151 97.3831 339.522 102.383Z" fill="#FFC727"/>
<path opacity="0.2" d="M341.078 109.659C340.3 112.054 339.627 114.674 339.044 117.399C339.448 128.956 341.108 139.645 341.108 139.645C341.108 139.645 350.546 140.992 358.458 139.316C358.697 136.456 358.847 133.402 358.832 130.228C358.832 115.827 350.381 107.249 341.078 109.659Z" fill="black"/>
<path d="M391.977 170.454L402.357 169.766L401.834 182.91C401.834 182.91 395.357 184.167 388.971 178.868L391.977 170.454Z" fill="#FF8B7B"/>
<path d="M412.901 175.844L410.972 181.293C410.448 182.79 408.938 183.733 407.367 183.553L401.833 182.925L402.357 169.781L410.344 171.367C412.378 171.757 413.589 173.882 412.901 175.844Z" fill="#FF8B7B"/>
<path d="M399.366 184.167L396 182.296C395.148 181.817 394.834 180.739 395.312 179.886L402.806 166.412C403.284 165.559 404.361 165.244 405.214 165.724L408.579 167.595C409.432 168.074 409.746 169.152 409.267 170.005L401.774 183.479C401.31 184.332 400.218 184.646 399.366 184.167Z" fill="#263238"/>
<path d="M398.289 189.377L392.142 185.949C391.678 185.694 391.514 185.11 391.768 184.646L394.774 179.257C395.028 178.793 395.612 178.628 396.075 178.883L402.223 182.311C402.686 182.565 402.851 183.149 402.597 183.613L399.59 189.003C399.336 189.467 398.753 189.631 398.289 189.377Z" fill="#263238"/>
<path d="M416.776 170.814C413.156 170.814 409.492 169.93 406.141 168.044C395.312 162.011 391.573 147.984 397.81 136.786C404.032 125.588 417.912 121.396 428.741 127.444C439.57 133.477 443.309 147.504 437.072 158.702C432.78 166.427 424.837 170.814 416.776 170.814ZM418.092 127.878C411.152 127.878 404.302 131.681 400.592 138.357C395.223 148.013 398.409 160.08 407.697 165.274C416.985 170.454 428.921 166.816 434.305 157.16C439.675 147.504 436.489 135.438 427.201 130.243C424.314 128.642 421.188 127.878 418.092 127.878Z" fill="#263238"/>
<path d="M337.011 199.662C337.011 199.662 343.801 274.574 341.827 315.458C339.778 357.99 309.684 441.69 309.684 441.69L285.738 441.181C285.738 441.181 302.146 348.933 301.727 306.671C301.279 260.607 297.046 191.607 297.046 191.607L337.011 199.662Z" fill="#263238"/>
<path opacity="0.2" d="M305.736 211.114C303.013 207.88 300.56 210.964 298.481 216.967C299.334 233.106 300.366 254.903 301.039 276.026C312.72 258.241 314.545 221.578 305.736 211.114Z" fill="black"/>
<path d="M282.807 442.259L310.956 442.828L313.962 433.456L284.572 433.396L282.807 442.259Z" fill="#FFC727"/>
<path opacity="0.4" d="M282.807 442.259L310.956 442.828L313.962 433.456L284.572 433.396L282.807 442.259Z" fill="white"/>
<path d="M185.406 411.988L195.427 420.686L218.057 399.638L208.021 390.955L185.406 411.988Z" fill="#FF8B7B"/>
<path d="M196.31 421.105L188.757 408.74C188.473 408.276 187.889 408.051 187.366 408.201L175.535 411.464C174.309 411.809 173.77 413.141 174.443 414.189C177.255 418.605 181.458 424.908 184.883 430.507C188.892 437.064 188.877 436.944 193.573 444.639C196.415 449.28 202.084 448.007 201.336 445.837C197.941 435.926 196.834 434.549 197.058 424.324C197.088 423.201 196.909 422.078 196.31 421.105Z" fill="#263238"/>
<path opacity="0.2" d="M218.043 399.638L206.392 410.491L196.355 401.794L208.007 390.955L218.043 399.638Z" fill="black"/>
<path d="M197.193 427.004C196.4 425.731 195.772 424.219 195.383 423.127C195.338 423.007 195.383 422.857 195.473 422.767C195.577 422.677 195.727 422.677 195.832 422.737C196.43 423.112 201.65 426.42 201.65 428.217C201.65 428.561 201.485 428.845 201.171 429.04C200.648 429.369 200.079 429.444 199.511 429.249C198.658 428.965 197.866 428.082 197.193 427.004ZM196.325 423.8C197.417 426.51 198.658 428.291 199.735 428.666C200.124 428.8 200.483 428.755 200.857 428.516C201.022 428.411 201.037 428.306 201.037 428.217C201.037 427.273 198.404 425.192 196.325 423.8Z" fill="#FFC727"/>
<path d="M195.413 423.186C195.383 423.126 195.353 423.051 195.368 422.992C195.383 422.872 195.458 422.782 195.563 422.737C195.787 422.647 201.157 420.477 202.533 423.336C202.892 424.099 202.667 424.519 202.398 424.728C201.246 425.701 197.014 424.339 195.503 423.276C195.458 423.246 195.428 423.216 195.413 423.186ZM201.86 423.426C200.857 421.809 197.716 422.647 196.4 423.081C198.165 424.04 201.306 424.818 201.994 424.234C202.039 424.189 202.189 424.069 201.964 423.59C201.934 423.546 201.904 423.486 201.86 423.426Z" fill="#FFC727"/>
<path d="M312.75 194.766C312.75 194.766 300.141 264.903 291.122 304.814C281.729 346.343 216.562 409.009 216.562 409.009L198.644 393.095C198.644 393.095 246.237 330.878 253.147 289.185C260.685 243.735 267.49 185.619 267.49 185.619L312.75 194.766Z" fill="#263238"/>
<path d="M195.054 393.17L215.5 411.509L222.455 405.656L200.872 384.892L195.054 393.17Z" fill="#FFC727"/>
<path opacity="0.4" d="M195.054 393.17L215.5 411.509L222.455 405.656L200.872 384.892L195.054 393.17Z" fill="white"/>
<path d="M358.892 87.0683C358.892 87.0683 366.326 129.45 337.01 199.662C316.07 195.44 277.691 187.685 267.49 185.634C269.165 174.855 286.366 124.105 286.201 71.6936C286.201 71.6936 298.601 71.7086 310.073 73.4452C319.047 74.8075 331.955 77.1129 339.628 79.4034C349.738 82.4424 358.892 87.0683 358.892 87.0683Z" fill="#FFC727"/>
<path opacity="0.2" d="M346.149 129.465C345.222 143.178 336.038 153.882 325.838 153.193C322.562 152.968 319.421 151.591 316.759 149.211L319.66 143.552C321.605 145.289 323.908 146.307 326.301 146.471C333.765 146.98 340.48 139.151 341.154 129.12L346.149 129.465Z" fill="#263238"/>
<path opacity="0.5" d="M346.149 129.465L341.139 129.12C341.318 126.456 341.064 123.791 340.376 121.321C339.703 118.836 338.626 116.62 337.205 114.809L340.78 109.868C342.709 112.354 344.175 115.407 345.102 118.791C346.045 122.174 346.404 125.812 346.149 129.465Z" fill="white"/>
<path opacity="0.4" d="M340.794 109.883L337.22 114.824C336.098 113.371 334.796 112.189 333.346 111.365C331.91 110.542 330.339 110.063 328.754 109.943L329.218 103.221C331.386 103.371 333.51 104.03 335.485 105.168C337.474 106.29 339.269 107.892 340.794 109.883Z" fill="#263238"/>
<path opacity="0.2" d="M329.233 103.207L328.769 109.928C321.291 109.419 314.59 117.249 313.917 127.279C313.483 133.791 315.652 140.019 319.646 143.567L316.744 149.226C311.285 144.375 308.278 135.857 308.906 126.95C309.849 113.222 319.017 102.518 329.233 103.207Z" fill="white"/>
<path opacity="0.2" d="M284.092 106.066C283.464 111.336 282.716 116.5 281.894 121.501C287.697 118.806 295.624 104.539 294.771 96.6794L284.092 106.066Z" fill="black"/>
<path d="M319.705 40.7495C319.645 50.645 317.999 68.4599 310.072 73.4601C310.072 73.4601 312.735 84.4634 333.211 91.9487C343.247 87.5024 339.627 79.4183 339.627 79.4183C329.531 74.7475 331.401 66.9329 334.736 59.8968L319.705 40.7495Z" fill="#FF8B7B"/>
<path opacity="0.2" d="M325.838 48.5642L334.722 59.8969C333.929 61.5586 333.226 63.2653 332.748 64.9569C328.814 63.5497 324.148 57.9807 324.566 53.6542C324.791 51.4984 325.284 49.4774 325.838 48.5642Z" fill="black"/>
<path d="M348.976 37.8602C350.815 33.3541 351.099 28.2342 347.51 24.8059C347.719 21.8717 349.948 18.4135 352.999 15.7338C357.396 13.2936 366.221 30.2702 348.976 37.8602Z" fill="#263238"/>
<path d="M354.166 23.3389C353.358 23.3389 352.7 22.6952 352.67 21.8867C352.64 21.0634 353.283 20.3747 354.106 20.3448C354.39 20.3298 361.225 19.9555 363.424 11.9613C363.648 11.1679 364.471 10.6888 365.264 10.9134C366.056 11.1379 366.52 11.9613 366.311 12.7547C364.067 20.8837 357.411 23.2341 354.211 23.3389C354.196 23.3389 354.181 23.3389 354.166 23.3389Z" fill="#263238"/>
<path d="M321.455 26.1983C319.645 39.2377 317.925 46.7828 323.1 54.7172C330.878 66.6337 347.959 63.939 353.627 51.7081C358.728 40.6898 360.822 21.1982 349.245 13.5333C337.848 5.95821 323.265 13.1441 321.455 26.1983Z" fill="#FF8B7B"/>
<path d="M321.036 37.7405C322.921 37.8154 324.386 38.025 325.508 38.2795C327.094 38.6388 328.574 37.3363 328.455 35.7195C328.215 32.5308 329.068 29.2822 332 27.875C332.463 26.0037 331.775 23.3988 330.399 21.1083C329.696 19.9406 330.878 18.5483 332.134 19.0424C338.625 21.5574 348.422 25.5246 353.343 22.9497C359.73 19.6262 367.044 7.76958 357.381 6.9462C352.775 6.55696 353.298 3.92215 349.798 1.54184C346.313 -0.823499 337.878 -0.539059 331.356 2.66463C325.015 5.7785 314.964 -0.0749731 311.105 4.65571C308.278 8.1139 310.058 13.0093 310.058 13.0093C310.058 13.0093 304.509 13.7578 303.566 24.2521C302.863 32.0817 315.442 46.9324 319.346 48.5343C321.589 40.4203 321.036 37.7405 321.036 37.7405Z" fill="#263238"/>
<path d="M311.883 16.7518C311.27 16.7518 310.686 16.3626 310.477 15.7488C310.238 15.0901 308.877 11.9163 304.763 13.3385C303.986 13.608 303.133 13.1888 302.864 12.4104C302.595 11.6319 303.013 10.7786 303.791 10.5091C305.975 9.76058 307.964 9.8055 309.684 10.6438C312.317 11.9313 313.274 14.6559 313.304 14.7757C313.573 15.5542 313.154 16.4075 312.377 16.677C312.212 16.7219 312.047 16.7518 311.883 16.7518Z" fill="#263238"/>
<path d="M296.716 94.823C293.605 98.0716 290.24 101.56 287.084 105.018C283.898 108.506 280.712 111.979 277.631 115.527C271.454 122.593 265.471 129.839 260.266 137.279L258.381 140.004C258.007 140.528 257.678 141.112 257.394 141.741C256.826 143.013 256.362 144.51 256.138 146.217C255.689 149.63 255.988 153.732 256.856 157.909C258.531 166.277 262.121 175.155 266.039 183.314L257.708 189.137C255.898 187.056 254.403 185.11 252.877 182.999C251.396 180.903 249.961 178.763 248.644 176.532C245.982 172.086 243.634 167.37 241.779 162.22C239.999 157.07 238.608 151.456 238.728 145.154C238.803 142.01 239.236 138.687 240.358 135.408C240.912 133.761 241.615 132.13 242.482 130.573L244.471 127.144C245.773 124.884 247.164 122.758 248.555 120.602C249.99 118.506 251.411 116.381 252.892 114.345C255.809 110.198 258.935 106.261 262.076 102.368C265.232 98.4758 268.507 94.7183 271.872 91.0355C275.283 87.3528 278.588 83.7748 282.357 80.1819L296.716 94.823Z" fill="#FF8B7B"/>
<path d="M286.216 71.7085C273.548 72.1726 254.702 107.159 254.702 107.159C257.185 113.207 268.014 122.623 273.787 124.15C273.787 124.15 288.849 114.554 297.045 100.347C305.616 85.4664 299.782 71.2145 286.216 71.7085Z" fill="#FFC727"/>
<path d="M262.705 180.499L276.719 183.104L265.531 195.739C265.531 195.739 255.974 191.518 255.959 186.323L262.705 180.499Z" fill="#FF8B7B"/>
<path d="M280.697 196.398L277.84 199.332C275.806 201.413 272.515 201.593 270.287 199.721L265.516 195.754L276.703 183.119L281.19 189.212C282.806 191.398 282.596 194.437 280.697 196.398Z" fill="#FF8B7B"/>
<path d="M313.976 35.2404C313.887 38.7884 315.442 42.052 317.491 44.1329C320.557 47.2618 324.282 45.0461 325.254 40.9891C326.121 37.3513 325.583 31.3331 321.619 29.7163C317.701 28.1294 314.081 31.1834 313.976 35.2404Z" fill="#FF8B7B"/>
<path d="M53.7252 402.677H30.856C27.3411 402.677 24.4844 399.817 24.4844 396.299V356.029C24.4844 352.511 27.3411 349.651 30.856 349.651H53.7252C57.2401 349.651 60.0968 352.511 60.0968 356.029V396.299C60.0968 399.817 57.2401 402.677 53.7252 402.677Z" fill="#FFC727"/>
<path d="M95.0064 402.677H72.1373C68.6224 402.677 65.7656 399.817 65.7656 396.299V327.824C65.7656 324.306 68.6224 321.447 72.1373 321.447H95.0064C98.5213 321.447 101.378 324.306 101.378 327.824V396.299C101.378 399.817 98.5213 402.677 95.0064 402.677Z" fill="#FFC727"/>
<path d="M136.287 402.677H113.433C109.918 402.677 107.062 399.817 107.062 396.299V340.07C107.062 336.552 109.918 333.693 113.433 333.693H136.302C139.817 333.693 142.674 336.552 142.674 340.07V396.299C142.659 399.817 139.802 402.677 136.287 402.677Z" fill="#FFC727"/>
<path d="M177.584 402.677H154.714C151.2 402.677 148.343 399.817 148.343 396.299V322.599C148.343 319.081 151.2 316.222 154.714 316.222H177.584C181.098 316.222 183.955 319.081 183.955 322.599V396.299C183.94 399.817 181.098 402.677 177.584 402.677Z" fill="#FFC727"/>
<path d="M218.865 402.677H195.996C192.481 402.677 189.624 399.817 189.624 396.299V304.141C189.624 300.623 192.481 297.763 195.996 297.763H218.865C222.38 297.763 225.236 300.623 225.236 304.141V396.299C225.236 399.817 222.38 402.677 218.865 402.677Z" fill="#FFC727"/>
<path d="M260.146 402.677H237.277C233.762 402.677 230.905 399.817 230.905 396.299V284.679C230.905 281.161 233.762 278.302 237.277 278.302H260.146C263.661 278.302 266.518 281.161 266.518 284.679V396.299C266.518 399.817 263.661 402.677 260.146 402.677Z" fill="#FFC727"/>
<path d="M301.427 402.677H278.558C275.043 402.677 272.187 399.817 272.187 396.299V314.111C272.187 310.593 275.043 307.734 278.558 307.734H301.427C304.942 307.734 307.799 310.593 307.799 314.111V396.299C307.799 399.817 304.942 402.677 301.427 402.677Z" fill="#FFC727"/>
<path d="M342.709 402.677H319.839C316.325 402.677 313.468 399.817 313.468 396.299V276.191C313.468 272.673 316.325 269.813 319.839 269.813H342.709C346.223 269.813 349.08 272.673 349.08 276.191V396.299C349.08 399.817 346.238 402.677 342.709 402.677Z" fill="#FFC727"/>
<path d="M384.004 402.677H361.135C357.62 402.677 354.764 399.817 354.764 396.299V264.709C354.764 261.19 357.62 258.331 361.135 258.331H384.004C387.519 258.331 390.376 261.19 390.376 264.709V396.299C390.361 399.817 387.519 402.677 384.004 402.677Z" fill="#FFC727"/>
<path d="M425.286 402.677H402.417C398.902 402.677 396.045 399.817 396.045 396.299V271.7C396.045 268.182 398.902 265.322 402.417 265.322H425.286C428.801 265.322 431.657 268.182 431.657 271.7V396.299C431.657 399.817 428.801 402.677 425.286 402.677Z" fill="#FFC727"/>
<path d="M466.567 402.677H443.698C440.183 402.677 437.326 399.817 437.326 396.299V230.845C437.326 227.327 440.183 224.468 443.698 224.468H466.567C470.082 224.468 472.939 227.327 472.939 230.845V396.299C472.939 399.817 470.082 402.677 466.567 402.677Z" fill="#FFC727"/>
<path d="M507.847 402.677H484.978C481.463 402.677 478.606 399.817 478.606 396.299V247.822C478.606 244.304 481.463 241.444 484.978 241.444H507.847C511.362 241.444 514.219 244.304 514.219 247.822V396.299C514.219 399.817 511.377 402.677 507.847 402.677Z" fill="#FFC727"/>
<path d="M549.144 402.677H526.275C522.76 402.677 519.903 399.817 519.903 396.299V206.473C519.903 202.955 522.76 200.096 526.275 200.096H549.144C552.659 200.096 555.516 202.955 555.516 206.473V396.284C555.501 399.817 552.659 402.677 549.144 402.677Z" fill="#FFC727"/>
<path d="M42.2981 373.26C42.0737 373.26 41.8344 373.155 41.6998 372.945C41.4605 372.616 41.5353 372.137 41.8643 371.897L43.6741 370.58C44.0032 370.34 44.4818 370.415 44.7211 370.745C44.9604 371.074 44.8857 371.553 44.5566 371.792L42.7468 373.11C42.5972 373.215 42.4477 373.26 42.2981 373.26Z" fill="#263238"/>
<path d="M50.1799 367.511C49.9556 367.511 49.7163 367.406 49.5817 367.197C49.3423 366.867 49.4171 366.388 49.7462 366.149L53.3957 363.499C53.7247 363.259 54.2034 363.334 54.4427 363.664C54.682 363.993 54.6072 364.472 54.2781 364.712L50.6286 367.361C50.4791 367.466 50.3295 367.511 50.1799 367.511ZM59.887 360.445C59.6626 360.445 59.4233 360.34 59.2887 360.131C59.0494 359.801 59.1242 359.322 59.4532 359.083L63.1027 356.433C63.4318 356.193 63.9104 356.268 64.1497 356.598C64.389 356.927 64.3142 357.406 63.9852 357.646L60.3357 360.295C60.2011 360.385 60.0366 360.445 59.887 360.445ZM69.609 353.364C69.3846 353.364 69.1453 353.259 69.0107 353.05C68.7714 352.72 68.8462 352.241 69.1752 352.002L72.8247 349.352C73.1538 349.112 73.6324 349.187 73.8717 349.517C74.111 349.846 74.0362 350.325 73.7072 350.564L70.0577 353.214C69.9081 353.319 69.7586 353.364 69.609 353.364ZM79.316 346.283C79.0917 346.283 78.8524 346.178 78.7178 345.969C78.4785 345.639 78.5532 345.16 78.8823 344.921L82.5318 342.271C82.8608 342.031 83.3395 342.106 83.5788 342.435C83.8181 342.765 83.7433 343.244 83.4142 343.483L79.7648 346.133C79.6301 346.238 79.4806 346.283 79.316 346.283ZM89.038 339.202C88.8137 339.202 88.5744 339.097 88.4398 338.887C88.2005 338.558 88.2752 338.079 88.6043 337.84L92.2538 335.19C92.5828 334.95 93.0615 335.025 93.3008 335.354C93.5401 335.684 93.4653 336.163 93.1362 336.402L89.4868 339.052C89.3372 339.157 89.1876 339.202 89.038 339.202ZM98.7451 332.121C98.5207 332.121 98.2814 332.016 98.1468 331.806C97.9075 331.477 97.9823 330.998 98.3114 330.758L101.961 328.109C102.29 327.869 102.769 327.944 103.008 328.273C103.247 328.603 103.172 329.082 102.843 329.321L99.1938 331.971C99.0592 332.076 98.9096 332.121 98.7451 332.121ZM108.467 325.055C108.243 325.055 108.003 324.95 107.869 324.74C107.63 324.411 107.704 323.932 108.033 323.692L111.683 321.043C112.012 320.803 112.491 320.878 112.73 321.207C112.969 321.537 112.894 322.016 112.565 322.255L108.916 324.905C108.766 324.995 108.617 325.055 108.467 325.055ZM118.174 317.974C117.95 317.974 117.71 317.869 117.576 317.659C117.337 317.33 117.411 316.851 117.74 316.611L121.39 313.962C121.719 313.722 122.198 313.797 122.437 314.126C122.676 314.456 122.601 314.935 122.272 315.174L118.623 317.824C118.488 317.929 118.339 317.974 118.174 317.974ZM127.896 310.893C127.672 310.893 127.433 310.788 127.298 310.578C127.059 310.249 127.133 309.77 127.462 309.53L131.112 306.881C131.441 306.641 131.92 306.716 132.159 307.045C132.398 307.375 132.323 307.854 131.994 308.093L128.345 310.743C128.21 310.848 128.046 310.893 127.896 310.893ZM137.618 303.812C137.394 303.812 137.155 303.707 137.02 303.497C136.781 303.168 136.855 302.689 137.184 302.449L140.834 299.799C141.163 299.56 141.642 299.635 141.881 299.964C142.12 300.293 142.045 300.773 141.716 301.012L138.067 303.662C137.917 303.767 137.768 303.812 137.618 303.812ZM147.325 296.731C147.101 296.731 146.862 296.626 146.727 296.416C146.488 296.087 146.562 295.608 146.891 295.368L150.541 292.718C150.87 292.479 151.349 292.554 151.588 292.883C151.827 293.212 151.752 293.691 151.423 293.931L147.774 296.581C147.639 296.686 147.475 296.731 147.325 296.731ZM157.047 289.649C156.823 289.649 156.584 289.545 156.449 289.335C156.21 289.006 156.284 288.527 156.613 288.287L160.263 285.637C160.592 285.398 161.071 285.473 161.31 285.802C161.549 286.131 161.474 286.61 161.145 286.85L157.496 289.5C157.346 289.605 157.197 289.649 157.047 289.649ZM166.754 282.583C166.53 282.583 166.291 282.479 166.156 282.269C165.917 281.94 165.991 281.461 166.321 281.221L169.97 278.571C170.299 278.332 170.778 278.407 171.017 278.736C171.256 279.065 171.182 279.544 170.852 279.784L167.203 282.434C167.068 282.524 166.904 282.583 166.754 282.583ZM176.476 275.502C176.252 275.502 176.013 275.398 175.878 275.188C175.639 274.859 175.713 274.38 176.043 274.14L179.692 271.49C180.021 271.251 180.5 271.326 180.739 271.655C180.978 271.984 180.904 272.463 180.574 272.703L176.925 275.353C176.775 275.457 176.626 275.502 176.476 275.502ZM186.183 268.421C185.959 268.421 185.72 268.316 185.585 268.107C185.346 267.778 185.421 267.298 185.75 267.059L189.399 264.409C189.728 264.17 190.207 264.244 190.446 264.574C190.685 264.903 190.611 265.382 190.282 265.622L186.632 268.272C186.497 268.376 186.333 268.421 186.183 268.421ZM195.905 261.34C195.681 261.34 195.442 261.235 195.307 261.026C195.068 260.696 195.143 260.217 195.472 259.978L199.121 257.328C199.45 257.089 199.929 257.163 200.168 257.493C200.407 257.822 200.333 258.301 200.004 258.541L196.354 261.191C196.204 261.295 196.055 261.34 195.905 261.34Z" fill="#263238"/>
<path d="M205.613 254.259C205.388 254.259 205.149 254.154 205.014 253.945C204.775 253.615 204.85 253.136 205.179 252.897L206.989 251.579C207.168 251.445 207.407 251.4 207.617 251.46L209.786 252.029C210.189 252.133 210.429 252.538 210.324 252.942C210.219 253.346 209.815 253.57 209.412 253.481L207.587 253.002L206.061 254.109C205.927 254.214 205.762 254.259 205.613 254.259Z" fill="#263238"/>
<path d="M372.502 295.578C372.457 295.578 372.412 295.578 372.383 295.563L368.135 294.47C367.731 294.365 367.492 293.961 367.596 293.557C367.701 293.153 368.105 292.913 368.509 293.018L372.637 294.081C372.891 294.081 373.145 294.215 373.28 294.44C373.489 294.799 373.415 295.233 373.056 295.428C372.906 295.518 372.682 295.578 372.502 295.578ZM361.03 292.614C360.97 292.614 360.911 292.614 360.851 292.584L356.483 291.461C356.079 291.356 355.84 290.952 355.945 290.548C356.05 290.143 356.453 289.904 356.857 290.009L361.225 291.131C361.629 291.236 361.868 291.64 361.763 292.045C361.673 292.389 361.374 292.614 361.03 292.614ZM379.203 291.79C378.949 291.79 378.694 291.655 378.56 291.416C378.35 291.057 378.485 290.593 378.829 290.398L382.748 288.152C383.107 287.943 383.555 288.063 383.765 288.422C383.974 288.781 383.84 289.245 383.496 289.44L379.577 291.685C379.457 291.76 379.323 291.79 379.203 291.79ZM349.394 289.604C349.334 289.604 349.274 289.604 349.214 289.575L344.847 288.452C344.443 288.347 344.204 287.943 344.308 287.539C344.413 287.134 344.817 286.895 345.221 287L349.588 288.122C349.992 288.227 350.231 288.631 350.127 289.036C350.022 289.38 349.723 289.604 349.394 289.604ZM337.742 286.595C337.682 286.595 337.623 286.595 337.563 286.565L333.195 285.443C332.792 285.338 332.552 284.934 332.657 284.529C332.762 284.125 333.165 283.886 333.569 283.991L337.937 285.113C338.341 285.218 338.58 285.622 338.475 286.027C338.37 286.371 338.071 286.595 337.742 286.595ZM389.628 285.802C389.374 285.802 389.119 285.667 388.985 285.428C388.775 285.068 388.91 284.604 389.254 284.41L393.173 282.164C393.532 281.955 393.98 282.074 394.19 282.434C394.399 282.793 394.265 283.257 393.921 283.452L390.002 285.697C389.882 285.772 389.763 285.802 389.628 285.802ZM326.091 283.586C326.031 283.586 325.971 283.586 325.911 283.556L321.544 282.434C321.14 282.329 320.901 281.925 321.005 281.52C321.11 281.116 321.514 280.877 321.918 280.981L326.285 282.104C326.689 282.209 326.928 282.613 326.824 283.017C326.734 283.362 326.42 283.586 326.091 283.586ZM314.439 280.577C314.38 280.577 314.32 280.577 314.26 280.547L309.892 279.425C309.489 279.32 309.249 278.916 309.354 278.511C309.459 278.107 309.863 277.868 310.266 277.972L314.634 279.095C315.038 279.2 315.277 279.604 315.172 280.008C315.083 280.353 314.768 280.577 314.439 280.577ZM400.068 279.814C399.814 279.814 399.559 279.679 399.425 279.44C399.215 279.08 399.35 278.616 399.694 278.422L403.613 276.176C403.972 275.966 404.435 276.086 404.63 276.445C404.839 276.805 404.704 277.269 404.36 277.463L400.442 279.709C400.322 279.784 400.202 279.814 400.068 279.814ZM302.788 277.568C302.728 277.568 302.668 277.568 302.608 277.538L298.241 276.415C297.837 276.311 297.598 275.906 297.703 275.502C297.807 275.098 298.211 274.859 298.615 274.963L302.982 276.086C303.386 276.191 303.626 276.595 303.521 276.999C303.431 277.344 303.132 277.568 302.788 277.568ZM291.136 274.559C291.077 274.559 291.017 274.559 290.942 274.529L286.575 273.406C286.171 273.302 285.931 272.897 286.036 272.493C286.141 272.089 286.545 271.849 286.949 271.954L291.316 273.077C291.72 273.182 291.959 273.586 291.854 273.99C291.78 274.335 291.48 274.559 291.136 274.559ZM410.508 273.826C410.254 273.826 409.999 273.691 409.865 273.451C409.655 273.092 409.79 272.628 410.134 272.433L414.053 270.188C414.412 269.978 414.875 270.098 415.07 270.457C415.279 270.817 415.144 271.281 414.8 271.475L410.882 273.721C410.762 273.796 410.642 273.826 410.508 273.826ZM279.5 271.55C279.44 271.55 279.38 271.55 279.306 271.52L274.938 270.397C274.534 270.293 274.295 269.888 274.4 269.484C274.504 269.08 274.908 268.84 275.312 268.945L279.679 270.068C280.083 270.173 280.323 270.577 280.218 270.981C280.128 271.325 279.829 271.55 279.5 271.55ZM267.849 268.541C267.789 268.541 267.729 268.541 267.654 268.511L263.287 267.388C262.883 267.283 262.644 266.879 262.748 266.475C262.853 266.071 263.257 265.831 263.661 265.936L268.028 267.059C268.432 267.164 268.671 267.568 268.566 267.972C268.477 268.316 268.178 268.541 267.849 268.541ZM420.948 267.837C420.693 267.837 420.439 267.703 420.305 267.463C420.095 267.104 420.23 266.64 420.574 266.445L424.493 264.2C424.851 263.99 425.3 264.11 425.51 264.469C425.719 264.828 425.584 265.292 425.24 265.487L421.322 267.733C421.202 267.807 421.067 267.837 420.948 267.837ZM256.197 265.532C256.137 265.532 256.077 265.532 256.003 265.502L251.635 264.379C251.231 264.274 250.992 263.87 251.097 263.466C251.201 263.062 251.605 262.822 252.009 262.927L256.377 264.05C256.78 264.155 257.02 264.559 256.915 264.963C256.84 265.307 256.526 265.532 256.197 265.532ZM244.546 262.523C244.486 262.523 244.426 262.523 244.351 262.493L239.984 261.37C239.58 261.265 239.341 260.861 239.445 260.457C239.55 260.053 239.954 259.813 240.358 259.918L244.725 261.041C245.129 261.146 245.368 261.55 245.264 261.954C245.189 262.298 244.875 262.523 244.546 262.523ZM431.388 261.849C431.133 261.849 430.879 261.714 430.745 261.475C430.535 261.116 430.67 260.652 431.014 260.457L434.932 258.211C435.291 258.002 435.74 258.122 435.95 258.481C436.159 258.84 436.024 259.304 435.68 259.499L431.762 261.744C431.642 261.819 431.507 261.849 431.388 261.849ZM232.894 259.514C232.834 259.514 232.775 259.514 232.7 259.484L228.332 258.361C227.928 258.256 227.689 257.852 227.794 257.448C227.899 257.044 228.302 256.804 228.706 256.909L233.074 258.032C233.478 258.136 233.717 258.541 233.612 258.945C233.537 259.289 233.238 259.514 232.894 259.514ZM221.258 256.505C221.198 256.505 221.138 256.505 221.063 256.475L216.696 255.352C216.292 255.247 216.053 254.843 216.157 254.439C216.262 254.035 216.666 253.795 217.07 253.9L221.437 255.023C221.841 255.127 222.08 255.532 221.976 255.936C221.886 256.28 221.587 256.505 221.258 256.505ZM441.828 255.861C441.573 255.861 441.319 255.726 441.184 255.487C440.975 255.127 441.11 254.663 441.454 254.469L445.372 252.223C445.731 252.014 446.18 252.133 446.389 252.493C446.599 252.852 446.464 253.316 446.12 253.511L442.202 255.756C442.082 255.831 441.947 255.861 441.828 255.861ZM452.253 249.873C451.998 249.873 451.744 249.738 451.609 249.499C451.4 249.139 451.535 248.675 451.879 248.48L455.797 246.235C456.156 246.025 456.605 246.145 456.814 246.504C457.024 246.864 456.889 247.328 456.545 247.522L452.627 249.768C452.507 249.843 452.387 249.873 452.253 249.873ZM462.693 243.885C462.438 243.885 462.184 243.75 462.049 243.51C461.84 243.151 461.975 242.687 462.319 242.492L466.237 240.247C466.596 240.037 467.06 240.157 467.254 240.516C467.464 240.875 467.329 241.34 466.985 241.534L463.066 243.78C462.947 243.855 462.827 243.885 462.693 243.885ZM473.132 237.896C472.878 237.896 472.624 237.762 472.489 237.522C472.28 237.163 472.415 236.699 472.759 236.504L476.677 234.259C477.036 234.049 477.485 234.169 477.694 234.528C477.904 234.887 477.769 235.351 477.425 235.546L473.506 237.792C473.387 237.866 473.267 237.896 473.132 237.896ZM483.572 231.908C483.318 231.908 483.064 231.773 482.929 231.534C482.72 231.175 482.854 230.71 483.198 230.516L487.117 228.27C487.476 228.061 487.94 228.18 488.134 228.54C488.344 228.899 488.209 229.363 487.865 229.558L483.946 231.803C483.827 231.878 483.692 231.908 483.572 231.908ZM494.012 225.92C493.758 225.92 493.504 225.785 493.369 225.546C493.16 225.186 493.294 224.722 493.638 224.528L497.557 222.282C497.916 222.073 498.38 222.192 498.574 222.552C498.784 222.911 498.649 223.375 498.305 223.57L494.386 225.815C494.267 225.89 494.132 225.92 494.012 225.92ZM504.452 219.932C504.198 219.932 503.944 219.797 503.809 219.557C503.6 219.198 503.734 218.734 504.078 218.539L507.997 216.294C508.356 216.084 508.805 216.204 509.014 216.563C509.224 216.923 509.089 217.387 508.745 217.581L504.826 219.827C504.707 219.902 504.572 219.932 504.452 219.932ZM514.877 213.944C514.623 213.944 514.369 213.809 514.234 213.569C514.025 213.21 514.159 212.746 514.503 212.551L518.422 210.306C518.781 210.096 519.245 210.216 519.439 210.575C519.649 210.934 519.514 211.399 519.17 211.593L515.251 213.839C515.132 213.914 515.012 213.944 514.877 213.944ZM525.317 207.955C525.063 207.955 524.809 207.821 524.674 207.581C524.465 207.222 524.599 206.758 524.943 206.563L528.862 204.317C529.221 204.108 529.67 204.228 529.879 204.587C530.088 204.946 529.954 205.41 529.61 205.605L525.691 207.851C525.572 207.925 525.452 207.955 525.317 207.955Z" fill="#263238"/>
<path d="M535.758 201.967C535.503 201.967 535.249 201.832 535.114 201.593C534.905 201.234 535.04 200.769 535.384 200.575L537.328 199.452C537.687 199.242 538.151 199.362 538.345 199.721C538.555 200.081 538.42 200.545 538.076 200.739L536.132 201.862C536.012 201.937 535.892 201.967 535.758 201.967Z" fill="#263238"/>
<path d="M48.4307 372.511C48.4307 375.91 45.6786 378.649 42.2984 378.649C38.9031 378.649 36.166 375.895 36.166 372.511C36.166 369.113 38.9181 366.373 42.2984 366.373C45.6786 366.373 48.4307 369.128 48.4307 372.511Z" fill="white"/>
<path d="M42.2835 379.398C38.4844 379.398 35.4033 376.314 35.4033 372.511C35.4033 368.709 38.4844 365.625 42.2835 365.625C46.0826 365.625 49.1637 368.724 49.1637 372.511C49.1637 376.299 46.0826 379.398 42.2835 379.398ZM42.2835 367.122C39.3071 367.122 36.899 369.547 36.899 372.511C36.899 375.49 39.322 377.901 42.2835 377.901C45.2599 377.901 47.668 375.475 47.668 372.511C47.683 369.547 45.2599 367.122 42.2835 367.122Z" fill="#263238"/>
<path d="M207.422 258.331C210.809 258.331 213.555 255.583 213.555 252.193C213.555 248.803 210.809 246.055 207.422 246.055C204.036 246.055 201.29 248.803 201.29 252.193C201.29 255.583 204.036 258.331 207.422 258.331Z" fill="white"/>
<path d="M207.422 259.08C203.623 259.08 200.542 255.996 200.542 252.193C200.542 248.391 203.623 245.307 207.422 245.307C211.221 245.307 214.302 248.406 214.302 252.193C214.302 255.981 211.221 259.08 207.422 259.08ZM207.422 246.804C204.446 246.804 202.038 249.229 202.038 252.193C202.038 255.172 204.461 257.582 207.422 257.582C210.399 257.582 212.807 255.157 212.807 252.193C212.822 249.214 210.399 246.804 207.422 246.804Z" fill="#263238"/>
<path d="M372.562 300.982C375.949 300.982 378.694 298.234 378.694 294.844C378.694 291.454 375.949 288.706 372.562 288.706C369.175 288.706 366.43 291.454 366.43 294.844C366.43 298.234 369.175 300.982 372.562 300.982Z" fill="white"/>
<path d="M372.562 301.731C368.763 301.731 365.682 298.647 365.682 294.844C365.682 291.042 368.778 287.958 372.562 287.958C376.346 287.958 379.442 291.042 379.442 294.844C379.442 298.647 376.361 301.731 372.562 301.731ZM372.562 289.455C369.585 289.455 367.177 291.88 367.177 294.844C367.177 297.823 369.6 300.234 372.562 300.234C375.538 300.234 377.946 297.808 377.946 294.844C377.961 291.88 375.538 289.455 372.562 289.455Z" fill="#263238"/>
<path d="M537.702 206.249C541.088 206.249 543.834 203.501 543.834 200.111C543.834 196.721 541.088 193.973 537.702 193.973C534.315 193.973 531.569 196.721 531.569 200.111C531.569 203.501 534.315 206.249 537.702 206.249Z" fill="white"/>
<path d="M537.701 206.997C533.902 206.997 530.821 203.913 530.821 200.111C530.821 196.308 533.902 193.224 537.701 193.224C541.501 193.224 544.582 196.308 544.582 200.111C544.582 203.913 541.501 206.997 537.701 206.997ZM537.701 194.706C534.725 194.706 532.317 197.132 532.317 200.096C532.317 203.06 534.74 205.485 537.701 205.485C540.678 205.485 543.086 203.06 543.086 200.096C543.086 197.132 540.678 194.706 537.701 194.706Z" fill="#263238"/>
</g>
<defs>
<clipPath id="clip0_320_8538">
<rect width="580" height="495" fill="white"/>
</clipPath>
</defs>
</svg>
