<svg width="622" height="641" viewBox="0 0 622 641" fill="none" xmlns="http://www.w3.org/2000/svg">
<g clip-path="url(#clip0_340_3567)">
<path d="M575.706 70.2426C575.578 70.2426 575.422 68.7638 575.223 65.9769C575.166 64.5834 575.038 62.8629 574.655 60.858C574.342 58.8389 574.058 56.5211 573.305 53.9759C572.183 48.8286 569.853 42.7428 566.16 36.273C562.453 29.8318 557.069 23.0919 549.711 17.3047C542.381 11.5886 533.105 6.65452 522.337 4.53587C511.641 2.47409 499.538 2.5594 487.932 6.68296C482.094 8.57411 476.441 11.489 471.227 15.2145C468.528 16.9776 466.17 19.21 463.684 21.3429C461.44 23.7317 459.082 26.0495 457.122 28.7653C448.854 39.2591 444.01 52.881 443.527 67.0149C443.314 81.1772 447.49 95.0124 455.246 105.89C457.065 108.691 459.309 111.137 461.44 113.625C463.812 115.886 466.071 118.218 468.67 120.109C473.699 124.091 479.211 127.276 484.949 129.451C496.342 134.144 508.43 134.812 519.212 133.262C530.065 131.655 539.568 127.19 547.168 121.83C554.796 116.412 560.492 109.943 564.512 103.686C568.504 97.4012 571.132 91.4434 572.496 86.353C573.362 83.8504 573.76 81.5469 574.172 79.542C574.655 77.5513 574.868 75.845 574.996 74.4515C575.351 71.7072 575.578 70.2426 575.706 70.2426C575.834 70.2426 575.848 71.7214 575.763 74.5368C575.749 75.9587 575.649 77.6935 575.28 79.741C574.982 81.7886 574.683 84.1632 573.902 86.7511C572.709 92.0122 570.223 98.2117 566.274 104.795C562.296 111.35 556.543 118.19 548.716 123.948C540.918 129.665 531.059 134.471 519.724 136.291C508.459 138.04 495.774 137.457 483.742 132.622C477.691 130.375 471.866 127.062 466.54 122.896C463.784 120.92 461.383 118.46 458.883 116.085C456.624 113.483 454.252 110.909 452.32 107.952C444.095 96.4912 439.635 81.8597 439.877 66.9154C440.374 51.9852 445.53 37.5812 454.295 26.5471C456.369 23.6891 458.869 21.2434 461.255 18.755C463.869 16.5084 466.383 14.1765 469.238 12.328C474.764 8.43192 480.73 5.40324 486.895 3.45521C499.14 -0.796322 511.854 -0.753664 523.005 1.53562C534.241 3.896 543.858 9.18553 551.373 15.2713C558.915 21.414 564.328 28.5236 567.978 35.2493C571.601 42.0176 573.788 48.3451 574.726 53.6489C575.379 56.2652 575.564 58.654 575.763 60.7158C576.033 62.7634 576.047 64.5265 575.99 65.9342C575.919 68.7781 575.834 70.2426 575.706 70.2426Z" fill="#EBEBEB"/>
<path d="M562.31 28.3387C562.453 28.552 561.245 29.6042 558.915 31.339C557.637 32.2632 556.202 33.287 554.597 34.4387C553.745 35.0217 552.85 35.69 551.855 36.3157C550.804 36.8702 549.696 37.439 548.56 38.0362C539.596 43.2262 525.391 48.5157 509.169 47.9612C507.152 47.8759 505.163 47.7763 503.203 47.691C501.271 47.3924 499.353 47.0938 497.478 46.7952C496.541 46.6388 495.603 46.5108 494.694 46.326C493.799 46.0842 492.904 45.8425 492.023 45.615C490.262 45.1316 488.529 44.7192 486.867 44.1789C480.29 41.8896 474.608 39.2164 470.148 36.4721C461.17 31.0404 456.795 26.0921 457.136 25.7793C457.505 25.3669 462.377 29.5047 471.426 34.197C475.915 36.5858 481.512 38.9036 487.876 40.9369C489.481 41.4061 491.157 41.7616 492.847 42.1882C493.7 42.4015 494.552 42.6148 495.419 42.828C496.299 42.956 497.194 43.0982 498.089 43.2262C499.879 43.4963 501.711 43.7523 503.558 44.0367C505.433 44.1078 507.322 44.1931 509.24 44.2642C524.667 44.7903 538.332 40.1691 547.395 35.69C548.56 35.1924 549.668 34.7089 550.733 34.2397C551.756 33.7136 552.679 33.1306 553.56 32.6471C555.265 31.7087 556.77 30.8697 558.134 30.1303C560.677 28.7795 562.154 28.1254 562.31 28.3387Z" fill="#EBEBEB"/>
<path d="M455.105 109.886C454.963 109.672 456.17 108.62 458.5 106.885C459.778 105.961 461.213 104.937 462.818 103.786C463.671 103.203 464.566 102.534 465.56 101.909C466.611 101.354 467.719 100.785 468.856 100.188C477.819 94.9983 492.024 89.7087 508.246 90.2633C510.264 90.3486 512.252 90.4481 514.213 90.5334C516.144 90.832 518.062 91.1306 519.937 91.4292C520.875 91.5857 521.812 91.7136 522.721 91.8985C523.616 92.1402 524.511 92.3819 525.392 92.6094C527.153 93.0929 528.886 93.5052 530.548 94.0456C537.125 96.3349 542.807 99.0081 547.268 101.752C556.246 107.184 560.621 112.132 560.28 112.445C559.91 112.858 555.038 108.72 545.989 104.027C541.501 101.639 535.904 99.3209 529.54 97.2875C527.935 96.8183 526.258 96.4628 524.568 96.0363C523.716 95.823 522.863 95.6097 521.997 95.3964C521.116 95.2684 520.221 95.1262 519.326 94.9982C517.537 94.7281 515.704 94.4721 513.857 94.1878C511.982 94.1167 510.093 94.0314 508.175 93.9603C492.749 93.4341 479.083 98.0554 470.02 102.534C468.856 103.032 467.748 103.516 466.682 103.985C465.659 104.511 464.736 105.094 463.855 105.577C462.151 106.516 460.645 107.355 459.281 108.094C456.739 109.445 455.247 110.099 455.105 109.886Z" fill="#EBEBEB"/>
<path d="M575.678 71.8068C575.65 72.8305 545.634 72.9159 508.644 72.02C471.64 71.1242 441.667 69.5601 441.695 68.5506C441.724 67.5268 471.725 67.4415 508.744 68.3373C545.72 69.2331 575.692 70.783 575.678 71.8068Z" fill="#EBEBEB"/>
<path d="M505.59 135.622C504.567 135.594 504.482 105.563 505.377 68.5364C506.272 31.5097 507.834 1.50723 508.843 1.53566C509.866 1.5641 509.951 31.595 509.056 68.6217C508.161 105.648 506.598 135.637 505.59 135.622Z" fill="#EBEBEB"/>
<path d="M505.59 135.509C505.334 135.893 497.961 130.887 489.438 119.54C485.219 113.881 480.802 106.587 477.463 97.7709C474.139 88.9835 472.051 78.6177 472.279 67.7116C472.477 56.7771 475.219 46.5393 479.04 37.9651C482.861 29.3625 487.663 22.324 492.123 16.8639C501.143 5.94354 508.587 1.10902 508.843 1.49294C509.198 1.9053 502.465 7.40811 494.183 18.4706C490.092 24.0019 485.66 30.9693 482.165 39.3159C478.657 47.6341 476.157 57.3885 475.972 67.7827C475.759 78.1911 477.634 88.0877 480.66 96.6049C483.699 105.136 487.734 112.317 491.569 118.033C499.311 129.48 505.959 135.11 505.59 135.509Z" fill="#EBEBEB"/>
<path d="M510.348 1.54989C510.604 1.16597 517.977 6.17112 526.5 17.518C530.719 23.1772 535.136 30.4717 538.475 39.2876C541.799 48.075 543.887 58.4408 543.659 69.3469C543.461 80.2814 540.719 90.5192 536.898 99.0934C533.077 107.696 528.275 114.734 523.815 120.195C514.795 131.115 507.351 135.949 507.095 135.566C506.74 135.153 513.474 129.65 521.755 118.588C525.846 113.057 530.278 106.089 533.773 97.7425C537.281 89.4243 539.781 79.67 539.966 69.2758C540.179 58.8674 538.304 48.9708 535.278 40.4535C532.239 31.922 528.204 24.7414 524.369 19.0252C516.613 7.59303 509.965 1.96224 510.348 1.54989Z" fill="#EBEBEB"/>
<path d="M457.25 320.486H169.908C160.036 320.486 152.038 312.48 152.038 302.598V57.0616C152.038 50.8905 157.024 45.8995 163.189 45.8995H462.676C469.551 45.8995 475.12 51.4735 475.12 58.3555V302.584C475.12 312.466 467.122 320.486 457.25 320.486Z" fill="white"/>
<path d="M474.679 78.9591H152.038V54.7012C152.038 49.8382 155.973 45.8995 160.831 45.8995H464.594C470.162 45.8995 474.679 50.4212 474.679 55.9951V78.9591Z" fill="#E0E0E0"/>
<path d="M474.679 78.9591C474.679 79.1581 402.545 79.3288 313.593 79.3288C224.612 79.3288 152.492 79.1581 152.492 78.9591C152.492 78.76 224.612 78.5894 313.593 78.5894C402.545 78.5894 474.679 78.76 474.679 78.9591Z" fill="#263238"/>
<path d="M169.667 63.1474C169.667 64.8252 168.303 66.1903 166.627 66.1903C164.951 66.1903 163.587 64.8252 163.587 63.1474C163.587 61.4695 164.951 60.1045 166.627 60.1045C168.303 60.0903 169.667 61.4553 169.667 63.1474Z" fill="#263238"/>
<path d="M179.383 63.1474C179.383 64.8252 178.019 66.1903 176.343 66.1903C174.666 66.1903 173.303 64.8252 173.303 63.1474C173.303 61.4695 174.666 60.1045 176.343 60.1045C178.019 60.0903 179.383 61.4553 179.383 63.1474Z" fill="#263238"/>
<path d="M189.299 63.1474C189.299 64.8252 187.935 66.1903 186.259 66.1903C184.582 66.1903 183.219 64.8252 183.219 63.1474C183.219 61.4695 184.582 60.1045 186.259 60.1045C187.935 60.0903 189.299 61.4553 189.299 63.1474Z" fill="#263238"/>
<path d="M367.132 103.601C367.132 103.8 343.836 103.971 315.099 103.971C286.362 103.971 263.065 103.8 263.065 103.601C263.065 103.402 286.362 103.231 315.099 103.231C343.836 103.231 367.132 103.402 367.132 103.601Z" fill="#263238"/>
<path d="M318.906 125.584C318.906 125.783 291.021 125.953 256.645 125.953C222.254 125.953 194.384 125.783 194.384 125.584C194.384 125.385 222.254 125.214 256.645 125.214C291.021 125.214 318.906 125.37 318.906 125.584Z" fill="#263238"/>
<path d="M318.906 137.371C318.906 137.57 291.021 137.741 256.645 137.741C222.254 137.741 194.384 137.57 194.384 137.371C194.384 137.172 222.254 137.002 256.645 137.002C291.021 137.002 318.906 137.158 318.906 137.371Z" fill="#263238"/>
<path d="M318.906 149.159C318.906 149.358 291.021 149.529 256.645 149.529C222.254 149.529 194.384 149.358 194.384 149.159C194.384 148.96 222.254 148.789 256.645 148.789C291.021 148.789 318.906 148.946 318.906 149.159Z" fill="#263238"/>
<path d="M318.906 160.947C318.906 161.146 291.021 161.316 256.645 161.316C222.254 161.316 194.384 161.146 194.384 160.947C194.384 160.748 222.254 160.577 256.645 160.577C291.021 160.577 318.906 160.733 318.906 160.947Z" fill="#263238"/>
<path d="M318.906 172.734C318.906 172.934 291.021 173.104 256.645 173.104C222.254 173.104 194.384 172.934 194.384 172.734C194.384 172.535 222.254 172.365 256.645 172.365C291.021 172.365 318.906 172.521 318.906 172.734Z" fill="#263238"/>
<path d="M318.906 205.481C318.906 205.68 291.021 205.851 256.645 205.851C222.254 205.851 194.384 205.68 194.384 205.481C194.384 205.282 222.254 205.111 256.645 205.111C291.021 205.111 318.906 205.282 318.906 205.481Z" fill="#263238"/>
<path d="M318.906 193.608C318.906 193.807 291.021 193.978 256.645 193.978C222.254 193.978 194.384 193.807 194.384 193.608C194.384 193.409 222.254 193.239 256.645 193.239C291.021 193.239 318.906 193.409 318.906 193.608Z" fill="#263238"/>
<path d="M398.567 123.167C379.987 123.167 364.943 138.239 364.943 156.837C364.943 175.436 380.001 190.494 398.567 190.494C417.147 190.494 432.205 175.422 432.205 156.837C432.19 138.239 417.147 123.167 398.567 123.167ZM399.078 177C387.672 177 378.424 167.744 378.424 156.326C378.424 144.908 387.672 135.651 399.078 135.651C410.485 135.651 419.733 144.908 419.733 156.326C419.733 167.744 410.485 177 399.078 177Z" fill="#FFC727"/>
<path d="M378.41 156.326C378.41 147.908 383.439 140.67 390.655 137.443L385.485 125.811C373.41 130.916 364.93 142.888 364.93 156.837C364.93 157.307 364.944 157.776 364.972 158.245H378.51C378.453 157.605 378.41 156.965 378.41 156.326Z" fill="#E0E0E0"/>
<path d="M426.396 198.983C426.396 199.154 413.938 199.296 398.568 199.296C383.198 199.296 370.74 199.154 370.74 198.983C370.74 198.812 383.198 198.67 398.568 198.67C413.938 198.67 426.396 198.812 426.396 198.983Z" fill="#263238"/>
<path d="M414.009 204.102C414.009 204.273 407.091 204.415 398.568 204.415C390.045 204.415 383.127 204.273 383.127 204.102C383.127 203.931 390.031 203.789 398.568 203.789C407.091 203.775 414.009 203.917 414.009 204.102Z" fill="#263238"/>
<path d="M396.139 151.96V153.34L393.412 159.724H391.025L393.639 153.709H391.608V154.904H389.732V151.96H396.139Z" fill="#263238"/>
<path d="M402.745 157.221C402.745 158.601 401.708 159.866 399.364 159.866C398.285 159.866 397.148 159.596 396.367 159.098L397.148 157.449C397.773 157.876 398.555 158.089 399.293 158.089C400.032 158.089 400.529 157.79 400.529 157.264C400.529 156.795 400.203 156.482 399.024 156.482H396.921L397.305 151.946H402.248V153.638H399.123L399.024 154.776H399.549C401.85 154.79 402.745 155.856 402.745 157.221Z" fill="#263238"/>
<path d="M403.127 154.008C403.127 152.671 403.965 151.861 405.116 151.861C406.266 151.861 407.104 152.671 407.104 154.008C407.104 155.359 406.266 156.155 405.116 156.155C403.965 156.155 403.127 155.359 403.127 154.008ZM409.69 151.96H411.281L405.982 159.724H404.391L409.69 151.96ZM405.755 154.008C405.755 153.226 405.471 152.913 405.101 152.913C404.746 152.913 404.448 153.226 404.448 154.008C404.448 154.79 404.746 155.103 405.101 155.103C405.485 155.103 405.755 154.804 405.755 154.008ZM408.596 157.662C408.596 156.326 409.42 155.515 410.585 155.515C411.735 155.515 412.573 156.326 412.573 157.662C412.573 159.013 411.735 159.809 410.585 159.809C409.42 159.824 408.596 159.027 408.596 157.662ZM411.224 157.662C411.224 156.88 410.94 156.567 410.57 156.567C410.201 156.567 409.917 156.88 409.917 157.662C409.917 158.444 410.201 158.757 410.57 158.757C410.94 158.771 411.224 158.459 411.224 157.662Z" fill="#263238"/>
<path d="M217.382 273.662H207.779V295.801H217.382V273.662Z" fill="#EBEBEB"/>
<path d="M249.954 273.662H240.352V295.801H249.954V273.662Z" fill="#EBEBEB"/>
<path d="M233.675 253.499H224.072V295.801H233.675V253.499Z" fill="#F5F5F5"/>
<path d="M266.247 253.499H256.645V295.801H266.247V253.499Z" fill="#F5F5F5"/>
<path d="M282.526 254.708H272.924V295.801H282.526V254.708Z" fill="#EBEBEB"/>
<path d="M315.099 254.708H305.496V295.801H315.099V254.708Z" fill="#EBEBEB"/>
<path d="M347.671 254.708H338.068V295.801H347.671V254.708Z" fill="#EBEBEB"/>
<path d="M298.819 233.152H289.217V295.816H298.819V233.152Z" fill="#F5F5F5"/>
<path d="M331.392 239.28H321.789V295.801H331.392V239.28Z" fill="#F5F5F5"/>
<path d="M395.784 254.708H386.182V295.801H395.784V254.708Z" fill="#EBEBEB"/>
<path d="M379.505 262.6H369.902V295.801H379.505V262.6Z" fill="#F5F5F5"/>
<path d="M429.849 232.782H420.246V295.801H429.849V232.782Z" fill="#EBEBEB"/>
<path d="M413.569 262.6H403.967V295.801H413.569V262.6Z" fill="#F5F5F5"/>
<path d="M446.155 262.6H436.553V295.801H446.155V262.6Z" fill="#F5F5F5"/>
<path d="M363.964 247.94H354.361V295.801H363.964V247.94Z" fill="#EBEBEB"/>
<path d="M293.224 235.626C294.589 235.626 295.695 234.518 295.695 233.152C295.695 231.785 294.589 230.678 293.224 230.678C291.859 230.678 290.752 231.785 290.752 233.152C290.752 234.518 291.859 235.626 293.224 235.626Z" fill="#FFC727"/>
<path d="M293.223 237.631C290.752 237.631 288.734 235.612 288.734 233.138C288.734 230.663 290.752 228.644 293.223 228.644C295.695 228.644 297.712 230.663 297.712 233.138C297.712 235.626 295.695 237.631 293.223 237.631ZM293.223 229.028C290.95 229.028 289.104 230.877 289.104 233.152C289.104 235.427 290.95 237.275 293.223 237.275C295.496 237.275 297.343 235.427 297.343 233.152C297.343 230.877 295.496 229.028 293.223 229.028Z" fill="#FFC727"/>
<path d="M295.198 226.853L295.07 221.99L296.278 222.004L294.019 219.231L291.746 222.032H293.01L293.124 226.838L295.198 226.853Z" fill="#EBEBEB"/>
<path d="M215.308 263.538C215.308 264.903 214.2 266.012 212.836 266.012C211.472 266.012 210.364 264.903 210.364 263.538C210.364 262.173 211.472 261.064 212.836 261.064C214.2 261.064 215.308 262.173 215.308 263.538Z" fill="#FFC727"/>
<path d="M212.85 268.117C210.378 268.117 208.361 266.098 208.361 263.623C208.361 261.149 210.378 259.13 212.85 259.13C215.322 259.13 217.339 261.149 217.339 263.623C217.325 266.112 215.322 268.117 212.85 268.117ZM212.85 259.514C210.577 259.514 208.731 261.363 208.731 263.638C208.731 265.913 210.577 267.761 212.85 267.761C215.123 267.761 216.97 265.913 216.97 263.638C216.97 261.363 215.123 259.514 212.85 259.514Z" fill="#FFC727"/>
<path d="M211.359 248.21L211.487 253.272L210.223 253.258L212.581 256.144L214.939 253.229L213.632 253.215L213.504 248.224L211.359 248.21Z" fill="#EBEBEB"/>
<path d="M342.004 237.631L342.131 242.693L340.867 242.679L343.225 245.565L345.583 242.65L344.276 242.636L344.149 237.645L342.004 237.631Z" fill="#EBEBEB"/>
<path d="M371.735 282.45L342.827 255.305C324.503 246.447 296.22 233.408 292.925 233.593C289.232 233.806 219.115 261.491 192.409 272.141L191.884 270.818C195.819 269.254 288.166 232.455 292.84 232.171C292.868 232.171 292.911 232.171 292.939 232.171C298.067 232.171 338.864 251.822 343.538 254.082L343.708 254.21L371.962 280.743C377.318 277.914 408.057 261.69 408.569 261.448C408.754 261.363 409.236 261.164 451.497 261.178V262.6C435.289 262.585 410.927 262.642 409.066 262.785C407.461 263.595 384.406 275.767 372.175 282.236L371.735 282.45Z" fill="#FFC727"/>
<path d="M345.697 254.111C345.697 255.476 344.589 256.585 343.226 256.585C341.862 256.585 340.754 255.476 340.754 254.111C340.754 252.746 341.862 251.637 343.226 251.637C344.589 251.637 345.697 252.746 345.697 254.111Z" fill="#FFC727"/>
<path d="M343.225 258.689C340.753 258.689 338.736 256.67 338.736 254.196C338.736 251.722 340.753 249.703 343.225 249.703C345.697 249.703 347.714 251.722 347.714 254.196C347.714 256.67 345.697 258.689 343.225 258.689ZM343.225 250.073C340.952 250.073 339.106 251.921 339.106 254.196C339.106 256.471 340.952 258.32 343.225 258.32C345.498 258.32 347.345 256.471 347.345 254.196C347.345 251.921 345.498 250.073 343.225 250.073Z" fill="#FFC727"/>
<path d="M411.338 261.476C411.338 262.841 410.23 263.95 408.866 263.95C407.503 263.95 406.395 262.841 406.395 261.476C406.395 260.111 407.503 259.002 408.866 259.002C410.23 259.002 411.338 260.111 411.338 261.476Z" fill="#FFC727"/>
<path d="M408.868 266.055C406.396 266.055 404.379 264.036 404.379 261.562C404.379 259.087 406.396 257.068 408.868 257.068C411.339 257.068 413.357 259.087 413.357 261.562C413.357 264.05 411.339 266.055 408.868 266.055ZM408.868 257.438C406.595 257.438 404.748 259.287 404.748 261.562C404.748 263.837 406.595 265.685 408.868 265.685C411.141 265.685 412.987 263.837 412.987 261.562C412.987 259.301 411.141 257.438 408.868 257.438Z" fill="#FFC727"/>
<path d="M407.532 246.788L407.674 251.85L406.41 251.836L408.768 254.708L411.126 251.807L409.819 251.793L409.692 246.802L407.532 246.788Z" fill="#EBEBEB"/>
<path d="M458.059 320.486C458.059 320.486 458.315 320.457 458.812 320.429C459.067 320.415 459.38 320.4 459.749 320.372C460.119 320.315 460.559 320.244 461.042 320.173C462.022 320.002 463.23 319.661 464.593 319.121C465.943 318.524 467.449 317.699 468.94 316.448C470.432 315.21 471.881 313.533 473.003 311.414C474.125 309.295 474.878 306.722 474.963 303.892C474.963 298.19 474.963 291.607 474.949 284.198C474.92 254.537 474.878 211.638 474.835 158.629C474.821 132.124 474.807 103.089 474.793 71.9206C474.793 68.0245 474.793 64.1 474.793 60.1329C474.778 58.1422 474.892 56.1657 474.31 54.303C473.741 52.4545 472.704 50.7198 471.27 49.3832C469.849 48.0324 468.088 47.037 466.156 46.582C464.252 46.0701 462.207 46.2976 460.161 46.2407C456.07 46.2407 451.965 46.2407 447.817 46.2407C431.225 46.2407 414.165 46.255 396.65 46.255C326.619 46.2692 249.641 46.2692 168.828 46.2834C166.314 46.3118 163.743 46.2265 161.3 46.3403C158.885 46.5962 156.583 47.7764 154.964 49.5822C153.33 51.3739 152.393 53.7627 152.379 56.1942C152.379 58.6967 152.379 61.1993 152.379 63.6877C152.379 73.6695 152.379 83.5945 152.379 93.4484C152.379 113.142 152.379 132.565 152.379 151.633C152.365 189.783 152.365 226.582 152.35 261.633C152.35 270.392 152.35 279.051 152.336 287.583C152.336 291.848 152.336 296.1 152.336 300.309C152.365 302.427 152.208 304.518 152.634 306.523C153.018 308.542 153.771 310.475 154.836 312.196C156.967 315.665 160.376 318.282 164.212 319.448C166.144 320.073 168.132 320.187 170.149 320.173C172.181 320.173 174.198 320.173 176.201 320.173C184.241 320.173 192.167 320.173 199.952 320.187C231.089 320.201 260.096 320.216 286.589 320.23C339.546 320.287 382.402 320.315 412.034 320.344C426.836 320.372 438.328 320.4 446.141 320.415C450.033 320.429 453.002 320.443 455.005 320.457C457.036 320.457 458.059 320.486 458.059 320.486C458.059 320.486 457.036 320.514 455.033 320.528C453.03 320.543 450.061 320.543 446.169 320.571C438.371 320.585 426.864 320.614 412.063 320.642C382.431 320.671 339.588 320.713 286.617 320.756C260.139 320.77 231.132 320.784 199.98 320.799C192.196 320.799 184.269 320.799 176.229 320.813C174.212 320.813 172.195 320.813 170.178 320.813C168.161 320.827 166.03 320.713 164.055 320.059C160.064 318.851 156.527 316.135 154.311 312.537C153.203 310.746 152.421 308.727 152.009 306.636C151.569 304.532 151.725 302.385 151.697 300.295C151.697 296.086 151.697 291.848 151.697 287.568C151.697 279.023 151.697 270.377 151.683 261.618C151.683 226.568 151.669 189.769 151.654 151.619C151.654 132.551 151.654 113.128 151.654 93.4342C151.654 83.5803 151.654 73.6553 151.654 63.6734C151.654 61.1709 151.654 58.6683 151.654 56.1657C151.669 53.5636 152.677 50.9899 154.424 49.0704C156.157 47.1365 158.629 45.8568 161.229 45.6009C163.814 45.4729 166.286 45.5724 168.828 45.544C249.641 45.5582 326.619 45.5582 396.65 45.5724C414.151 45.5724 431.225 45.5867 447.817 45.5867C451.965 45.5867 456.084 45.5867 460.161 45.5867H463.215C464.252 45.6009 465.304 45.672 466.312 45.9421C468.343 46.4256 470.204 47.4778 471.71 48.8997C473.216 50.3216 474.31 52.1417 474.906 54.1039C475.531 56.0946 475.403 58.1564 475.418 60.1186C475.418 64.0858 475.418 68.0103 475.418 71.9063C475.403 103.075 475.389 132.11 475.375 158.615C475.332 211.624 475.29 254.523 475.261 284.184C475.233 291.592 475.219 298.176 475.204 303.892C475.105 306.764 474.324 309.366 473.187 311.499C472.037 313.632 470.559 315.31 469.054 316.561C467.534 317.813 466 318.637 464.65 319.234C463.258 319.775 462.051 320.102 461.07 320.258C460.573 320.329 460.147 320.386 459.764 320.443C459.394 320.457 459.067 320.472 458.812 320.486C458.315 320.472 458.059 320.486 458.059 320.486Z" fill="#263238"/>
<path d="M491.508 189.046C493.393 181.011 488.415 172.968 480.388 171.08C472.361 169.193 464.326 174.176 462.44 182.211C460.554 190.246 465.532 198.289 473.559 200.177C481.586 202.064 489.622 197.081 491.508 189.046Z" fill="#F5F5F5"/>
<path d="M462.051 185.645C462.15 185.631 462.065 186.982 462.661 189.257C463.244 191.49 464.75 194.774 468.116 197.319C469.778 198.556 471.881 199.609 474.295 200.021C476.696 200.419 479.395 200.348 481.966 199.353C483.259 198.898 484.509 198.215 485.645 197.362C486.81 196.523 487.861 195.471 488.728 194.262C490.518 191.873 491.526 188.802 491.555 185.645C491.526 182.489 490.518 179.417 488.728 177.029C487.861 175.82 486.81 174.768 485.645 173.929C484.495 173.062 483.259 172.379 481.966 171.938C479.395 170.957 476.696 170.872 474.295 171.27C471.881 171.682 469.792 172.734 468.116 173.972C464.75 176.503 463.258 179.787 462.661 182.034C462.065 184.309 462.15 185.645 462.051 185.645C462.051 185.645 461.866 184.309 462.377 181.963C462.889 179.659 464.352 176.247 467.789 173.559C469.494 172.251 471.653 171.128 474.168 170.658C476.668 170.203 479.48 170.275 482.179 171.284C483.543 171.753 484.85 172.45 486.057 173.346C487.279 174.227 488.387 175.322 489.296 176.588C491.185 179.09 492.251 182.318 492.279 185.631C492.251 188.959 491.185 192.172 489.296 194.675C488.387 195.94 487.279 197.035 486.057 197.917C484.85 198.812 483.543 199.523 482.179 199.978C479.48 200.988 476.653 201.045 474.168 200.604C471.653 200.135 469.494 199.026 467.789 197.703C464.352 195.016 462.889 191.603 462.377 189.3C461.852 186.968 462.051 185.645 462.051 185.645Z" fill="#263238"/>
<path d="M474.72 189.883C474.507 189.883 474.294 189.783 474.166 189.613C473.924 189.3 473.981 188.859 474.294 188.617L478.129 185.617L474.251 182.688C473.938 182.446 473.882 182.005 474.109 181.693C474.35 181.38 474.791 181.323 475.103 181.55L479.72 185.034C479.89 185.162 480.004 185.375 480.004 185.589C480.004 185.816 479.905 186.015 479.734 186.157L475.174 189.726C475.018 189.826 474.862 189.883 474.72 189.883Z" fill="#263238"/>
<path d="M164.151 189.95C166.037 181.915 161.059 173.871 153.032 171.984C145.005 170.096 136.969 175.079 135.083 183.114C133.198 191.149 138.176 199.193 146.203 201.08C154.23 202.968 162.266 197.985 164.151 189.95Z" fill="#F5F5F5"/>
<path d="M164.552 186.541C164.452 186.556 164.538 185.205 163.941 182.93C163.359 180.697 161.853 177.413 158.486 174.867C156.824 173.63 154.722 172.578 152.307 172.166C149.906 171.768 147.207 171.839 144.636 172.834C143.344 173.289 142.093 173.972 140.957 174.825C139.792 175.664 138.741 176.716 137.875 177.925C136.085 180.313 135.076 183.385 135.048 186.541C135.076 189.698 136.085 192.769 137.875 195.158C138.741 196.367 139.792 197.419 140.957 198.258C142.108 199.125 143.344 199.808 144.636 200.249C147.207 201.23 149.906 201.315 152.307 200.917C154.722 200.505 156.81 199.452 158.486 198.215C161.853 195.684 163.344 192.4 163.941 190.153C164.538 187.878 164.452 186.527 164.552 186.541C164.552 186.541 164.736 187.878 164.225 190.224C163.714 192.528 162.251 195.94 158.813 198.628C157.108 199.936 154.949 201.059 152.435 201.528C149.935 201.983 147.122 201.912 144.423 200.903C143.059 200.433 141.753 199.737 140.545 198.841C139.323 197.959 138.215 196.864 137.306 195.599C135.417 193.096 134.352 189.869 134.323 186.556C134.352 183.228 135.417 180.015 137.306 177.512C138.215 176.247 139.323 175.152 140.545 174.27C141.753 173.374 143.059 172.663 144.423 172.208C147.122 171.199 149.949 171.142 152.435 171.583C154.949 172.052 157.108 173.161 158.813 174.483C162.251 177.171 163.714 180.583 164.225 182.887C164.736 185.205 164.552 186.541 164.552 186.541Z" fill="#263238"/>
<path d="M151.924 190.779C151.768 190.779 151.626 190.736 151.498 190.636L146.895 187.153C146.725 187.025 146.611 186.811 146.611 186.598C146.611 186.371 146.711 186.172 146.881 186.029L151.441 182.46C151.754 182.219 152.194 182.276 152.435 182.588C152.677 182.901 152.62 183.342 152.308 183.584L148.472 186.584L152.35 189.513C152.663 189.755 152.72 190.196 152.492 190.508C152.35 190.679 152.137 190.779 151.924 190.779Z" fill="#263238"/>
<path d="M467.461 439.913H346.732C342.115 439.913 338.365 436.159 338.365 431.538V357.541C338.365 352.92 342.115 349.166 346.732 349.166H467.461C472.078 349.166 475.828 352.92 475.828 357.541V431.538C475.828 436.159 472.078 439.913 467.461 439.913Z" fill="white"/>
<path d="M467.462 439.913C467.462 439.884 467.845 439.898 468.598 439.785C469.337 439.685 470.459 439.429 471.695 438.661C472.931 437.922 474.309 436.6 475.118 434.623C475.985 432.647 475.616 430.087 475.687 427.3C475.658 416.095 475.616 399.9 475.573 379.908C475.559 374.903 475.559 369.67 475.545 364.21C475.545 362.845 475.545 361.465 475.545 360.072C475.516 358.678 475.63 357.257 475.374 355.92C474.82 353.247 472.817 350.815 470.104 349.919C468.769 349.393 467.32 349.479 465.814 349.479C464.323 349.479 462.817 349.479 461.297 349.479C458.257 349.479 455.174 349.479 452.049 349.493C445.785 349.493 439.35 349.507 432.745 349.507C406.309 349.521 377.259 349.521 346.761 349.536C344.943 349.55 343.124 350.175 341.718 351.327C340.312 352.479 339.317 354.1 338.934 355.863C338.749 356.745 338.749 357.64 338.749 358.593V361.409C338.749 363.285 338.749 365.148 338.749 367.011C338.749 374.447 338.749 381.77 338.749 388.965C338.735 403.355 338.735 417.247 338.721 430.485C338.664 432.149 338.82 433.713 339.559 435.121C340.255 436.528 341.363 437.709 342.698 438.476C344.033 439.258 345.568 439.628 347.116 439.571C348.707 439.571 350.284 439.571 351.846 439.571C358.111 439.571 364.191 439.586 370.057 439.586C381.805 439.6 392.757 439.614 402.757 439.628C422.73 439.685 438.895 439.714 450.103 439.742C455.672 439.77 460.004 439.799 462.973 439.813C464.436 439.827 465.544 439.841 466.325 439.856C467.078 439.884 467.462 439.913 467.462 439.913C467.462 439.913 467.078 439.941 466.325 439.955C465.544 439.969 464.436 439.969 462.973 439.998C460.004 440.012 455.672 440.041 450.103 440.069C438.91 440.097 422.73 440.14 402.757 440.183C392.757 440.197 381.819 440.211 370.057 440.225C364.176 440.225 358.097 440.24 351.846 440.24C350.284 440.24 348.707 440.24 347.116 440.24C345.497 440.296 343.792 439.913 342.357 439.059C340.908 438.22 339.701 436.941 338.948 435.419C338.138 433.926 337.968 432.106 338.025 430.471C338.025 417.247 338.01 403.355 337.996 388.951C337.996 381.756 337.996 374.433 337.996 366.997C337.996 365.134 337.996 363.271 337.996 361.394V358.579C337.996 357.655 337.982 356.659 338.195 355.692C338.607 353.759 339.701 351.995 341.235 350.744C342.769 349.493 344.758 348.81 346.747 348.796C377.245 348.81 406.295 348.81 432.73 348.825C439.336 348.825 445.785 348.839 452.035 348.839C455.16 348.839 458.243 348.839 461.283 348.853C462.803 348.853 464.308 348.853 465.8 348.853C467.263 348.853 468.854 348.782 470.289 349.336C473.201 350.303 475.36 352.92 475.942 355.792C476.212 357.257 476.084 358.678 476.113 360.058C476.113 361.451 476.113 362.83 476.113 364.196C476.099 369.656 476.099 374.903 476.084 379.893C476.042 399.886 475.999 416.067 475.971 427.286C475.971 428.679 475.957 430.002 475.957 431.239C475.971 432.49 475.743 433.67 475.317 434.68C474.479 436.713 473.044 438.036 471.766 438.761C470.488 439.514 469.337 439.756 468.598 439.827C467.845 439.941 467.462 439.913 467.462 439.913Z" fill="#263238"/>
<path d="M405.245 401.862H399.975V422.878H405.245V401.862Z" fill="#FFC727"/>
<path d="M361.194 398.819H355.924V422.878H361.194V398.819Z" fill="#FFC727"/>
<path d="M372.204 393.8H366.934V422.864H372.204V393.8Z" fill="#FFC727"/>
<path d="M383.225 395.392H377.955V422.864H383.225V395.392Z" fill="#FFC727"/>
<path d="M394.235 386.107H388.965V422.878H394.235V386.107Z" fill="#FFC727"/>
<path d="M416.268 386.278H410.998V422.864H416.268V386.278Z" fill="#FFC727"/>
<path d="M427.276 398.293H422.006V422.864H427.276V398.293Z" fill="#FFC727"/>
<path d="M438.286 387.899H433.016V422.878H438.286V387.899Z" fill="#FFC727"/>
<path d="M449.309 380.007H444.039V422.864H449.309V380.007Z" fill="#FFC727"/>
<path d="M460.317 387.714H455.047V422.878H460.317V387.714Z" fill="#FFC727"/>
<path d="M356.363 361.664C356.363 363.499 354.871 364.992 353.039 364.992C351.206 364.992 349.715 363.499 349.715 361.664C349.715 359.83 351.206 358.337 353.039 358.337C354.871 358.337 356.363 359.83 356.363 361.664Z" fill="#E0E0E0"/>
<path d="M364.943 361.664C364.943 363.499 363.451 364.992 361.619 364.992C359.786 364.992 358.295 363.499 358.295 361.664C358.295 359.83 359.786 358.337 361.619 358.337C363.451 358.337 364.943 359.83 364.943 361.664Z" fill="#E0E0E0"/>
<path d="M373.509 361.664C373.509 363.499 372.018 364.992 370.185 364.992C368.353 364.992 366.861 363.499 366.861 361.664C366.861 359.83 368.353 358.337 370.185 358.337C372.032 358.337 373.509 359.83 373.509 361.664Z" fill="#E0E0E0"/>
<path d="M609.684 336.61H516.399C509.793 336.61 504.424 331.25 504.424 324.624V165.341C504.424 158.729 509.779 153.354 516.399 153.354H609.684C616.289 153.354 621.659 158.714 621.659 165.341V324.624C621.659 331.25 616.303 336.61 609.684 336.61Z" fill="white"/>
<path d="M609.684 336.61C609.684 336.61 609.812 336.596 610.054 336.568C610.295 336.539 610.679 336.553 611.162 336.468C612.142 336.34 613.591 336.013 615.295 335.117C616.957 334.193 618.875 332.615 620.182 330.112C620.835 328.875 621.304 327.411 621.46 325.804C621.574 324.197 621.489 322.448 621.503 320.614C621.475 305.911 621.432 284.653 621.389 258.405C621.361 232.128 621.347 200.86 621.304 166.137C621.588 161.857 619.372 157.548 615.622 155.344C611.886 152.927 607.127 153.894 602.639 153.695C593.562 153.695 584.286 153.695 574.853 153.709C555.975 153.709 536.429 153.709 516.414 153.723C513.984 153.738 511.57 154.491 509.623 155.927C507.649 157.321 506.172 159.368 505.405 161.643C504.581 163.904 504.836 166.393 504.794 168.853C504.794 171.313 504.794 173.758 504.794 176.204C504.794 185.958 504.794 195.585 504.794 205.026C504.779 223.923 504.78 242.152 504.765 259.528C504.751 276.89 504.737 293.398 504.737 308.84C504.737 312.708 504.737 316.49 504.723 320.216C504.751 322.064 504.666 323.955 504.78 325.718C504.936 327.496 505.532 329.202 506.441 330.695C508.231 333.71 511.413 335.729 514.723 336.184C516.371 336.411 518.104 336.298 519.766 336.326C521.442 336.326 523.104 336.326 524.738 336.326C550.975 336.369 572.197 336.411 586.885 336.44C594.215 336.468 599.897 336.497 603.775 336.511C605.693 336.525 607.156 336.539 608.164 336.553C609.173 336.582 609.684 336.61 609.684 336.61C609.684 336.61 609.173 336.639 608.193 336.653C607.184 336.667 605.721 336.667 603.803 336.696C599.925 336.71 594.229 336.738 586.914 336.767C572.225 336.795 550.989 336.838 524.766 336.88C523.133 336.88 521.471 336.88 519.794 336.88C518.118 336.852 516.428 336.98 514.666 336.753C511.186 336.283 507.862 334.179 505.973 331.008C505.021 329.444 504.396 327.652 504.225 325.775C504.112 323.898 504.183 322.093 504.169 320.216C504.169 316.49 504.169 312.694 504.154 308.84C504.14 293.398 504.126 276.89 504.126 259.528C504.126 242.167 504.112 223.938 504.098 205.026C504.098 195.57 504.098 185.958 504.098 176.204C504.098 173.758 504.098 171.313 504.098 168.853L504.112 165.156C504.126 163.89 504.368 162.625 504.751 161.402C505.561 158.985 507.138 156.809 509.226 155.33C511.3 153.809 513.871 152.998 516.442 152.984C536.457 152.984 556.003 152.984 574.882 152.998C584.314 152.998 593.59 152.998 602.667 153.012C604.94 153.012 607.198 153.012 609.443 153.012C611.73 152.998 614.074 153.567 616.006 154.761C617.98 155.927 619.571 157.662 620.622 159.653C621.148 160.648 621.503 161.729 621.759 162.824C621.958 163.919 622.043 165.07 622.014 166.137C621.986 200.86 621.958 232.142 621.929 258.405C621.887 284.668 621.844 305.911 621.816 320.614C621.787 322.448 621.872 324.169 621.745 325.818C621.574 327.453 621.077 328.946 620.409 330.197C619.06 332.729 617.099 334.321 615.395 335.231C613.662 336.113 612.184 336.425 611.204 336.525C610.196 336.639 609.684 336.61 609.684 336.61Z" fill="#263238"/>
<path d="M520.235 172.663C522.219 172.663 523.828 171.053 523.828 169.066C523.828 167.079 522.219 165.469 520.235 165.469C518.25 165.469 516.641 167.079 516.641 169.066C516.641 171.053 518.25 172.663 520.235 172.663Z" fill="#E0E0E0"/>
<path d="M533.104 169.066C533.104 171.057 531.499 172.663 529.51 172.663C527.521 172.663 525.916 171.057 525.916 169.066C525.916 167.075 527.521 165.469 529.51 165.469C531.484 165.469 533.104 167.075 533.104 169.066Z" fill="#E0E0E0"/>
<path d="M538.787 172.663C540.772 172.663 542.381 171.053 542.381 169.066C542.381 167.079 540.772 165.469 538.787 165.469C536.802 165.469 535.193 167.079 535.193 169.066C535.193 171.053 536.802 172.663 538.787 172.663Z" fill="#E0E0E0"/>
<path d="M604.514 187.949C604.514 188.148 585.947 188.319 563.049 188.319C540.136 188.319 521.584 188.148 521.584 187.949C521.584 187.75 540.15 187.579 563.049 187.579C585.947 187.579 604.514 187.75 604.514 187.949Z" fill="#263238"/>
<path d="M604.514 195.258C604.514 195.457 585.947 195.627 563.049 195.627C540.136 195.627 521.584 195.457 521.584 195.258C521.584 195.059 540.15 194.888 563.049 194.888C585.947 194.888 604.514 195.059 604.514 195.258Z" fill="#263238"/>
<path d="M604.514 202.566C604.514 202.765 585.947 202.936 563.049 202.936C540.136 202.936 521.584 202.765 521.584 202.566C521.584 202.367 540.15 202.197 563.049 202.197C585.947 202.197 604.514 202.353 604.514 202.566Z" fill="#263238"/>
<path d="M604.514 209.875C604.514 210.074 585.947 210.245 563.049 210.245C540.136 210.245 521.584 210.074 521.584 209.875C521.584 209.676 540.15 209.505 563.049 209.505C585.947 209.505 604.514 209.662 604.514 209.875Z" fill="#263238"/>
<path d="M604.514 217.184C604.514 217.383 585.947 217.553 563.049 217.553C540.136 217.553 521.584 217.383 521.584 217.184C521.584 216.984 540.15 216.814 563.049 216.814C585.947 216.814 604.514 216.97 604.514 217.184Z" fill="#263238"/>
<path d="M604.514 224.492C604.514 224.691 585.947 224.862 563.049 224.862C540.136 224.862 521.584 224.691 521.584 224.492C521.584 224.293 540.15 224.123 563.049 224.123C585.947 224.123 604.514 224.279 604.514 224.492Z" fill="#263238"/>
<path d="M604.514 280.402C604.514 280.601 585.947 280.772 563.049 280.772C540.136 280.772 521.584 280.601 521.584 280.402C521.584 280.203 540.15 280.032 563.049 280.032C585.947 280.032 604.514 280.189 604.514 280.402Z" fill="#263238"/>
<path d="M604.514 288.35C604.514 288.549 585.947 288.72 563.049 288.72C540.136 288.72 521.584 288.549 521.584 288.35C521.584 288.151 540.15 287.981 563.049 287.981C585.947 287.981 604.514 288.151 604.514 288.35Z" fill="#263238"/>
<path d="M604.514 296.313C604.514 296.512 585.947 296.683 563.049 296.683C540.136 296.683 521.584 296.512 521.584 296.313C521.584 296.114 540.15 295.943 563.049 295.943C585.947 295.943 604.514 296.1 604.514 296.313Z" fill="#263238"/>
<path d="M604.514 304.262C604.514 304.461 585.947 304.631 563.049 304.631C540.136 304.631 521.584 304.461 521.584 304.262C521.584 304.063 540.15 303.892 563.049 303.892C585.947 303.892 604.514 304.063 604.514 304.262Z" fill="#263238"/>
<path d="M604.514 312.224C604.514 312.423 585.947 312.594 563.049 312.594C540.136 312.594 521.584 312.423 521.584 312.224C521.584 312.025 540.15 311.855 563.049 311.855C585.947 311.855 604.514 312.011 604.514 312.224Z" fill="#263238"/>
<path d="M606.674 235.057C606.674 235.057 606.532 235.057 606.248 235.071C605.964 235.071 605.552 235.071 605.012 235.085C603.918 235.085 602.299 235.1 600.211 235.1C596.02 235.114 589.955 235.114 582.369 235.128C567.184 235.142 545.961 235.157 521.742 235.171L521.884 235.057C521.884 239.82 521.884 244.769 521.884 249.831C521.884 255.049 521.884 260.14 521.884 265.059L521.742 264.96C545.791 264.974 566.871 264.988 581.943 265.003C589.472 265.017 595.495 265.031 599.643 265.031C601.717 265.045 603.308 265.045 604.401 265.045C604.941 265.045 605.353 265.059 605.637 265.059C605.907 265.059 606.049 265.074 606.049 265.074C606.049 265.074 605.907 265.074 605.637 265.088C605.353 265.088 604.941 265.088 604.401 265.102C603.308 265.102 601.717 265.116 599.643 265.116C595.495 265.131 589.472 265.131 581.943 265.145C566.871 265.159 545.791 265.173 521.742 265.187H521.6V265.074C521.6 260.154 521.6 255.063 521.6 249.845C521.6 244.783 521.6 239.835 521.6 235.071V234.958H521.742C545.947 234.972 567.184 234.986 582.369 235C589.955 235.014 596.02 235.029 600.211 235.029C602.299 235.043 603.904 235.043 605.012 235.043C605.552 235.043 605.964 235.057 606.248 235.057C606.532 235.057 606.674 235.057 606.674 235.057Z" fill="#E0E0E0"/>
<path d="M606.674 240.105C606.674 240.162 587.668 240.219 564.215 240.219C540.762 240.219 521.756 240.176 521.756 240.105C521.756 240.048 540.762 239.991 564.215 239.991C587.653 240.005 606.674 240.048 606.674 240.105Z" fill="#E0E0E0"/>
<path d="M606.674 244.243C606.674 244.3 587.668 244.356 564.215 244.356C540.762 244.356 521.756 244.314 521.756 244.243C521.756 244.186 540.762 244.129 564.215 244.129C587.653 244.129 606.674 244.186 606.674 244.243Z" fill="#E0E0E0"/>
<path d="M606.674 248.366C606.674 248.423 587.668 248.48 564.215 248.48C540.762 248.48 521.756 248.437 521.756 248.366C521.756 248.295 540.762 248.252 564.215 248.252C587.653 248.267 606.674 248.309 606.674 248.366Z" fill="#E0E0E0"/>
<path d="M606.674 252.504C606.674 252.561 587.668 252.618 564.215 252.618C540.762 252.618 521.756 252.575 521.756 252.504C521.756 252.433 540.762 252.39 564.215 252.39C587.653 252.39 606.674 252.447 606.674 252.504Z" fill="#E0E0E0"/>
<path d="M606.674 256.642C606.674 256.699 587.668 256.755 564.215 256.755C540.762 256.755 521.756 256.713 521.756 256.642C521.756 256.585 540.762 256.528 564.215 256.528C587.653 256.528 606.674 256.571 606.674 256.642Z" fill="#E0E0E0"/>
<path d="M521.74 260.765C521.74 260.708 540.747 260.651 564.199 260.651C587.652 260.651 606.659 260.694 606.659 260.765C606.659 260.822 587.652 260.879 564.199 260.879C540.761 260.879 521.74 260.822 521.74 260.765Z" fill="#E0E0E0"/>
<path d="M533.787 265.514C533.731 265.514 533.674 258.689 533.674 250.286C533.674 241.868 533.716 235.057 533.787 235.057C533.844 235.057 533.901 241.868 533.901 250.286C533.887 258.689 533.844 265.514 533.787 265.514Z" fill="#E0E0E0"/>
<path d="M546.018 265.514C545.961 265.514 545.904 258.689 545.904 250.286C545.904 241.868 545.947 235.057 546.018 235.057C546.089 235.057 546.132 241.868 546.132 250.286C546.117 258.689 546.075 265.514 546.018 265.514Z" fill="#E0E0E0"/>
<path d="M558.248 265.514C558.192 265.514 558.135 258.689 558.135 250.286C558.135 241.868 558.177 235.057 558.248 235.057C558.319 235.057 558.362 241.868 558.362 250.286C558.348 258.689 558.305 265.514 558.248 265.514Z" fill="#E0E0E0"/>
<path d="M570.479 265.514C570.422 265.514 570.365 258.689 570.365 250.286C570.365 241.868 570.408 235.057 570.479 235.057C570.536 235.057 570.593 241.868 570.593 250.286C570.578 258.689 570.536 265.514 570.479 265.514Z" fill="#E0E0E0"/>
<path d="M582.709 265.514C582.653 265.514 582.596 258.689 582.596 250.286C582.596 241.868 582.638 235.057 582.709 235.057C582.766 235.057 582.823 241.868 582.823 250.286C582.809 258.689 582.766 265.514 582.709 265.514Z" fill="#E0E0E0"/>
<path d="M594.543 265.514C594.487 265.514 594.43 258.689 594.43 250.286C594.43 241.868 594.472 235.057 594.543 235.057C594.6 235.057 594.657 241.868 594.657 250.286C594.657 258.689 594.6 265.514 594.543 265.514Z" fill="#E0E0E0"/>
<path d="M606.774 265.514C606.717 265.514 606.66 258.689 606.66 250.286C606.66 241.868 606.703 235.057 606.774 235.057C606.845 235.057 606.887 241.868 606.887 250.286C606.887 258.689 606.845 265.514 606.774 265.514Z" fill="#E0E0E0"/>
<path d="M534.526 260.765C534.526 261.178 534.199 261.505 533.787 261.505C533.376 261.505 533.049 261.178 533.049 260.765C533.049 260.353 533.376 260.026 533.787 260.026C534.185 260.026 534.526 260.353 534.526 260.765Z" fill="#FFC727"/>
<path d="M546.018 253.243C546.426 253.243 546.757 252.912 546.757 252.504C546.757 252.096 546.426 251.765 546.018 251.765C545.61 251.765 545.279 252.096 545.279 252.504C545.279 252.912 545.61 253.243 546.018 253.243Z" fill="#FFC727"/>
<path d="M558.987 256.571C558.987 256.983 558.66 257.31 558.248 257.31C557.836 257.31 557.51 256.983 557.51 256.571C557.51 256.158 557.836 255.831 558.248 255.831C558.66 255.817 558.987 256.158 558.987 256.571Z" fill="#FFC727"/>
<path d="M571.147 247.854C571.758 248.651 570.849 249.561 570.054 248.949C569.443 248.153 570.352 247.257 571.147 247.854Z" fill="#FFC727"/>
<path d="M583.519 247.854C584.129 248.651 583.22 249.561 582.425 248.949C581.814 248.153 582.723 247.257 583.519 247.854Z" fill="#FFC727"/>
<path d="M595.096 255.973C595.707 256.77 594.798 257.68 594.003 257.068C593.392 256.272 594.287 255.362 595.096 255.973Z" fill="#FFC727"/>
<path d="M546.757 244.243C546.757 244.655 546.43 244.982 546.018 244.982C545.606 244.982 545.279 244.655 545.279 244.243C545.279 243.83 545.606 243.503 546.018 243.503C546.43 243.489 546.757 243.83 546.757 244.243Z" fill="#455A64"/>
<path d="M534.526 256.642C534.526 257.054 534.199 257.381 533.787 257.381C533.376 257.381 533.049 257.054 533.049 256.642C533.049 256.229 533.376 255.902 533.787 255.902C534.185 255.888 534.526 256.229 534.526 256.642Z" fill="#455A64"/>
<path d="M595.097 260.225C595.707 261.021 594.798 261.931 594.003 261.32C593.392 260.524 594.301 259.614 595.097 260.225Z" fill="#455A64"/>
<path d="M583.448 252.504C583.448 252.916 583.121 253.243 582.709 253.243C582.297 253.243 581.971 252.916 581.971 252.504C581.971 252.092 582.297 251.765 582.709 251.765C583.121 251.765 583.448 252.092 583.448 252.504Z" fill="#455A64"/>
<path d="M571.344 252.39C571.344 252.803 571.018 253.13 570.606 253.13C570.194 253.13 569.867 252.803 569.867 252.39C569.867 251.978 570.194 251.651 570.606 251.651C571.004 251.651 571.344 251.978 571.344 252.39Z" fill="#455A64"/>
<path d="M528.673 268.472C528.673 268.529 528.147 268.586 527.493 268.586C526.84 268.586 526.314 268.543 526.314 268.472C526.314 268.415 526.84 268.358 527.493 268.358C528.147 268.372 528.673 268.415 528.673 268.472Z" fill="#E0E0E0"/>
<path d="M541.174 268.472C541.174 268.529 540.649 268.586 539.995 268.586C539.342 268.586 538.816 268.543 538.816 268.472C538.816 268.415 539.342 268.358 539.995 268.358C540.649 268.372 541.174 268.415 541.174 268.472Z" fill="#E0E0E0"/>
<path d="M553.674 268.472C553.674 268.529 553.149 268.586 552.495 268.586C551.842 268.586 551.316 268.543 551.316 268.472C551.316 268.415 551.842 268.358 552.495 268.358C553.149 268.372 553.674 268.415 553.674 268.472Z" fill="#E0E0E0"/>
<path d="M566.174 268.472C566.174 268.529 565.649 268.586 564.995 268.586C564.342 268.586 563.816 268.543 563.816 268.472C563.816 268.415 564.342 268.358 564.995 268.358C565.649 268.372 566.174 268.415 566.174 268.472Z" fill="#E0E0E0"/>
<path d="M578.674 268.472C578.674 268.529 578.149 268.586 577.495 268.586C576.842 268.586 576.316 268.543 576.316 268.472C576.316 268.415 576.842 268.358 577.495 268.358C578.149 268.372 578.674 268.415 578.674 268.472Z" fill="#E0E0E0"/>
<path d="M589.854 268.472C589.854 268.529 589.329 268.586 588.675 268.586C588.022 268.586 587.496 268.543 587.496 268.472C587.496 268.415 588.022 268.358 588.675 268.358C589.329 268.372 589.854 268.415 589.854 268.472Z" fill="#E0E0E0"/>
<path d="M601.034 268.472C601.034 268.529 600.508 268.586 599.855 268.586C599.201 268.586 598.676 268.543 598.676 268.472C598.676 268.415 599.201 268.358 599.855 268.358C600.508 268.372 601.034 268.415 601.034 268.472Z" fill="#E0E0E0"/>
<path d="M519.98 264.889C519.98 264.946 519.554 265.003 519.028 265.003C518.502 265.003 518.076 264.96 518.076 264.889C518.076 264.832 518.502 264.775 519.028 264.775C519.554 264.775 519.98 264.832 519.98 264.889Z" fill="#E0E0E0"/>
<path d="M519.98 260.083C519.98 260.14 519.554 260.197 519.028 260.197C518.502 260.197 518.076 260.154 518.076 260.083C518.076 260.026 518.502 259.969 519.028 259.969C519.554 259.969 519.98 260.026 519.98 260.083Z" fill="#E0E0E0"/>
<path d="M519.98 255.277C519.98 255.334 519.554 255.39 519.028 255.39C518.502 255.39 518.076 255.348 518.076 255.277C518.076 255.22 518.502 255.163 519.028 255.163C519.554 255.163 519.98 255.22 519.98 255.277Z" fill="#E0E0E0"/>
<path d="M519.98 250.471C519.98 250.527 519.554 250.584 519.028 250.584C518.502 250.584 518.076 250.542 518.076 250.471C518.076 250.414 518.502 250.357 519.028 250.357C519.554 250.357 519.98 250.414 519.98 250.471Z" fill="#E0E0E0"/>
<path d="M519.98 245.665C519.98 245.721 519.554 245.778 519.028 245.778C518.502 245.778 518.076 245.736 518.076 245.665C518.076 245.608 518.502 245.551 519.028 245.551C519.554 245.551 519.98 245.608 519.98 245.665Z" fill="#E0E0E0"/>
<path d="M519.98 240.858C519.98 240.915 519.554 240.972 519.028 240.972C518.502 240.972 518.076 240.929 518.076 240.858C518.076 240.802 518.502 240.745 519.028 240.745C519.554 240.745 519.98 240.802 519.98 240.858Z" fill="#E0E0E0"/>
<path d="M519.98 236.052C519.98 236.109 519.554 236.166 519.028 236.166C518.502 236.166 518.076 236.123 518.076 236.052C518.076 235.995 518.502 235.939 519.028 235.939C519.554 235.939 519.98 235.995 519.98 236.052Z" fill="#E0E0E0"/>
<path d="M521.655 265.244L521.527 264.86L533.687 260.58L545.974 252.276L558.219 256.343L570.535 248.196L582.879 248.167L582.936 248.21L594.655 256.5L606.019 248.978L606.247 249.319L594.655 256.997L594.542 256.912L582.751 248.579L570.663 248.608L558.276 256.798L546.045 252.731L533.843 260.964L521.655 265.244Z" fill="#FFC727"/>
<path d="M594.726 260.851L582.751 252.703H570.407L558.063 244.555L546.102 244.442L533.871 256.841H521.74V256.428H533.701L545.932 244.029L558.191 244.143L570.535 252.305H582.879L594.584 260.268L606.275 239.693L606.63 239.906L594.726 260.851Z" fill="#455A64"/>
<path d="M198.402 438.021C198.402 438.021 204.667 438.306 208.048 437.509C211.428 436.699 214.483 434.609 214.483 434.609C214.483 434.609 221.486 435.59 222.608 434.012C223.73 432.433 223.659 430.67 223.659 430.67L228.801 430.03L233.461 430.912L236.032 434.054C236.032 434.054 237.964 434.054 238.049 432.888C238.049 432.888 240.62 431.722 240.379 430.912C240.137 430.101 238.717 426.248 238.717 426.248L236.756 422.067C236.756 422.067 224.057 421.257 223.574 421.584C223.091 421.911 207.011 429.39 207.011 429.39L201.059 430.755L198.402 438.021Z" fill="#EB996E"/>
<path d="M205.008 417.233L225.137 412.711L239.2 411.958C239.2 411.958 251.189 417.532 250.848 422.508L253.348 423.859C253.348 423.859 253.149 427.585 250.152 426.76C248.049 426.191 245.89 425.167 245.89 425.167L249.101 430.087C249.101 430.087 247.14 431.381 244.654 430.172C243.646 429.689 236.572 424.328 236.572 424.328L230.591 424.158C230.591 424.158 219.469 431.793 214.326 432.632C209.184 433.457 200.377 431.694 200.377 431.694L205.008 417.233Z" fill="#FFBE9D"/>
<path d="M250.151 426.774C250.165 426.689 250.663 426.859 251.472 426.717C251.87 426.632 252.325 426.39 252.595 425.892C252.864 425.395 252.992 424.698 252.935 423.973L253.049 424.172C250.62 422.565 247.637 420.603 244.356 418.427C243.461 417.844 242.594 417.261 241.742 416.707C240.932 416.181 240.009 415.584 239.355 415.228C239.341 415.228 239.355 415.2 239.341 415.171H239.171H238.83C238.602 415.171 238.375 415.185 238.162 415.185C237.722 415.185 237.296 415.2 236.869 415.2C236.06 415.214 235.293 415.214 234.554 415.228C231.727 415.242 229.994 415.2 229.994 415.1C229.994 415.001 231.727 414.858 234.511 414.702C235.236 414.673 235.989 414.631 236.784 414.588C237.196 414.574 237.622 414.546 238.048 414.531L238.716 414.503L239.057 414.489H239.227C239.313 414.503 239.426 414.517 239.54 414.56C240.549 415.043 241.245 415.541 242.14 416.095C242.992 416.65 243.873 417.219 244.767 417.802C248.134 420.034 251.146 422.124 253.362 423.703L253.475 423.788V423.916C253.504 424.769 253.333 425.509 252.964 426.106C252.58 426.703 251.984 426.973 251.515 427.016C251.046 427.073 250.691 426.987 250.464 426.916C250.265 426.859 250.151 426.802 250.151 426.774Z" fill="#EB996E"/>
<path d="M248.902 429.774C248.817 429.831 248.021 428.893 246.799 427.329C245.578 425.764 243.916 423.561 242.112 421.086L242.183 421.157C242.112 421.101 242.026 421.029 241.941 420.973C241.33 420.503 240.72 420.048 240.123 419.65C239.825 419.451 239.526 419.266 239.228 419.096C238.958 418.939 238.674 418.868 238.347 418.811C237.069 418.57 235.833 418.527 234.824 418.47C232.779 418.37 231.515 418.328 231.515 418.214C231.515 418.115 232.779 417.972 234.839 417.944C235.876 417.944 237.097 417.93 238.475 418.143C238.802 418.2 239.214 418.299 239.569 418.484C239.896 418.655 240.208 418.854 240.521 419.053C241.146 419.465 241.771 419.92 242.396 420.404C242.481 420.475 242.566 420.546 242.651 420.603L242.694 420.631L242.722 420.674C244.527 423.148 246.118 425.395 247.24 427.044C248.334 428.679 248.987 429.717 248.902 429.774Z" fill="#EB996E"/>
<path d="M327.712 580.625L328.181 617.936C328.181 617.936 366.052 627.278 366.805 634.175L294.728 640.389L291.617 582.275L327.712 580.625Z" fill="#FFC727"/>
<g opacity="0.6">
<path d="M305.695 615.889C304.317 616.344 303.422 617.965 303.82 619.358C304.217 620.752 305.851 621.676 307.243 621.25C308.635 620.823 309.757 618.918 309.218 617.567C308.678 616.216 306.689 615.249 305.439 615.988" fill="white"/>
</g>
<g opacity="0.6">
<path d="M294.742 640.388L294.43 634.53L364.234 630.961C364.234 630.961 366.634 631.786 367.231 634.672L294.742 640.388Z" fill="white"/>
</g>
<path d="M329.345 617.524C329.345 617.88 327.598 618.121 325.908 619.344C324.189 620.524 323.379 622.088 323.038 621.975C322.711 621.918 323.138 619.785 325.197 618.349C327.243 616.87 329.402 617.183 329.345 617.524Z" fill="#263238"/>
<path d="M337.075 620.283C337.174 620.624 335.668 621.292 334.546 622.842C333.381 624.364 333.154 625.985 332.799 625.999C332.472 626.07 332.131 624.008 333.566 622.117C334.972 620.197 337.046 619.956 337.075 620.283Z" fill="#263238"/>
<path d="M341.819 629.155C341.506 629.241 340.924 627.506 341.734 625.529C342.529 623.539 344.163 622.7 344.319 622.984C344.532 623.269 343.509 624.349 342.87 625.984C342.188 627.605 342.16 629.098 341.819 629.155Z" fill="#263238"/>
<path d="M328.295 609.021C328.167 609.348 326.52 608.936 324.531 609.178C322.542 609.377 321.022 610.116 320.823 609.817C320.61 609.576 322.059 608.196 324.403 607.955C326.747 607.699 328.452 608.737 328.295 609.021Z" fill="#263238"/>
<g opacity="0.3">
<path d="M327.797 588.019L327.897 594.674L292.512 598.456L292.043 590.095L327.797 588.019Z" fill="black"/>
</g>
<path d="M328.053 601.499C328.068 601.641 326.676 601.926 324.431 601.656C323.309 601.513 321.988 601.215 320.596 600.674C319.9 600.404 319.175 600.077 318.465 599.665C318.124 599.466 317.712 599.267 317.329 598.869C316.917 598.513 316.647 597.589 317.073 596.992C317.414 596.423 318.053 596.153 318.579 596.11C319.104 596.067 319.545 596.153 319.942 596.238C320.752 596.394 321.519 596.622 322.229 596.906C323.636 597.461 324.8 598.215 325.667 598.94C327.414 600.418 328.053 601.698 327.94 601.784C327.784 601.912 326.917 600.845 325.156 599.636C324.275 599.039 323.153 598.428 321.846 597.973C321.192 597.745 320.482 597.56 319.743 597.432C318.962 597.262 318.323 597.29 318.138 597.646C318.067 597.774 318.067 597.831 318.238 598.044C318.408 598.243 318.735 598.428 319.076 598.627C319.729 599.011 320.397 599.338 321.036 599.622C322.329 600.191 323.55 600.561 324.602 600.788C326.69 601.272 328.053 601.314 328.053 601.499Z" fill="#263238"/>
<path d="M327.627 602.025C327.499 602.082 326.746 600.859 326.505 598.57C326.391 597.432 326.434 596.053 326.803 594.574C326.988 593.835 327.258 593.081 327.613 592.328C327.996 591.588 328.465 590.607 329.829 590.394C330.539 590.337 331.164 590.863 331.391 591.332C331.647 591.816 331.718 592.228 331.832 592.641C332.002 593.479 332.031 594.304 331.945 595.086C331.789 596.636 331.221 597.944 330.582 598.897C329.261 600.845 327.812 601.328 327.769 601.215C327.641 601.044 328.834 600.305 329.829 598.442C330.312 597.532 330.738 596.338 330.809 594.987C330.852 594.318 330.809 593.607 330.638 592.896C330.482 592.129 330.17 591.531 329.886 591.617C329.53 591.631 328.948 592.242 328.678 592.868C328.337 593.536 328.082 594.205 327.883 594.873C327.499 596.195 327.357 597.461 327.357 598.527C327.371 600.66 327.812 601.968 327.627 602.025Z" fill="#263238"/>
<path d="M147.207 452.61C147.207 452.61 264.541 433.116 269.769 432.305C289.883 429.206 312.839 431.651 320.495 446.112C320.495 446.112 326.177 459.478 327.271 479.485C328.237 497.23 335.283 602.452 335.283 602.452L286.843 610.514L270.905 494.088L243.574 499.221C245.109 499.036 172.634 512.089 150.644 514.321C133.726 516.042 114.237 506.913 110.33 491.813C107.773 481.944 102.233 454.473 102.233 454.473L147.207 452.61Z" fill="#263238"/>
<path d="M282.398 478.006C282.554 478.191 279.003 480.835 275.92 485.243C272.781 489.609 271.46 493.832 271.233 493.761C271.148 493.732 271.361 492.651 272 490.974C272.625 489.296 273.733 487.063 275.31 484.817C276.901 482.584 278.648 480.807 280.012 479.655C281.389 478.503 282.341 477.935 282.398 478.006Z" fill="#455A64"/>
<path d="M47.303 253.385C47.303 253.385 44.874 256.713 44.9166 262.742C44.945 265.969 47.1326 272.51 52.8572 272.837C51.3373 282.066 57.2324 288.877 67.0624 288.891C76.8781 288.905 88.1286 272.041 97.2199 268.33L123.641 261.348C125.957 260.808 126.923 257.978 126.88 255.589C126.838 253.201 126.227 250.727 127.065 248.494C128.215 245.437 131.753 243.802 132.974 240.759C134.352 237.304 132.221 233.464 129.764 230.677C127.306 227.891 124.323 225.232 123.542 221.591C122.832 218.25 124.11 214.482 122.448 211.496C120.403 207.827 115.019 207.372 112.519 203.988C111.311 202.353 110.928 200.22 109.735 198.571C107.703 195.755 103.783 195.03 100.331 195.4C96.8789 195.784 93.5691 197.021 90.1173 197.277C85.3728 197.618 80.472 196.082 75.9264 197.462C70.8978 198.983 67.8436 203.448 64.5907 207.756L60.3433 212.761C59.4626 213.615 58.5393 214.411 57.5165 215.079C55.7267 216.245 53.6811 217.056 52.1328 218.534C48.8372 221.705 49.1355 227.805 52.7152 230.649C49.0645 231.829 46.4507 235.654 46.6922 239.479C46.6922 239.479 46.2234 243.859 48.9934 245.807C48.965 245.835 44.9876 248.835 47.303 253.385Z" fill="#263238"/>
<path d="M65.0022 262.344C62.8288 255.632 60.6696 248.878 59.6753 241.896C58.6809 234.915 58.894 227.635 61.3515 221.023C61.7208 220.027 64.9027 213.302 65.9539 213.401C66.7068 213.472 64.7607 219.743 65.1442 220.411C68.8092 226.71 69.8035 234.289 69.2211 241.569C68.6387 248.821 67.133 255.362 65.0022 262.344Z" fill="#263238"/>
<path d="M82.4039 323.87C66.8067 321.908 65.0169 296.825 65.0169 296.825L64.3066 235.427C63.7384 217.752 73.5399 202.68 91.2111 202.595L92.8447 202.68C109.28 203.562 122.292 216.928 122.732 233.408C123.144 248.736 123.4 265.671 122.86 273.861C121.738 290.796 104.663 292.531 104.663 292.531C104.621 292.531 104.209 307.731 104.266 312.964C104.465 330.979 86.7791 324.254 82.4039 323.87Z" fill="#FFBE9D"/>
<path d="M104.678 292.517C104.678 292.517 93.9669 292.573 82.9863 284.81C82.9863 284.81 87.5462 298.147 104.521 297.522L104.678 292.517Z" fill="#EB996E"/>
<path d="M65.0168 248.053C64.7327 247.911 53.5674 243.987 53.3117 255.59C53.0561 267.192 64.7611 265.059 64.7753 264.718C64.8179 264.391 65.0168 248.053 65.0168 248.053Z" fill="#FFBE9D"/>
<path d="M61.3379 260.253C61.2811 260.211 61.139 260.395 60.7839 260.538C60.443 260.68 59.8747 260.779 59.2781 260.538C58.0565 260.054 57.0763 258.092 57.0621 256.002C57.0621 254.95 57.3036 253.94 57.6872 253.115C58.0565 252.276 58.6247 251.693 59.2355 251.594C59.8463 251.466 60.2867 251.85 60.4145 252.177C60.5566 252.504 60.4856 252.731 60.5424 252.76C60.5708 252.788 60.7981 252.575 60.7129 252.091C60.6702 251.864 60.5424 251.58 60.2725 251.352C60.0026 251.125 59.5906 250.997 59.1645 251.039C58.2696 251.082 57.4457 251.892 57.0195 252.788C56.5365 253.698 56.2382 254.822 56.2524 256.002C56.2808 258.348 57.4315 260.552 59.0935 261.078C59.9032 261.306 60.585 261.078 60.9543 260.808C61.3095 260.523 61.3805 260.268 61.3379 260.253Z" fill="#EB996E"/>
<path d="M115.474 214.069C117.363 213.06 111.809 206.903 107.221 204.742C100.288 201.486 89.663 199.395 83.2139 201.144C75.4437 203.234 68.9661 207.017 64.9887 214.013C61.0113 221.008 59.4487 229.213 59.5765 237.261C59.6192 239.721 59.8322 242.28 61.1249 244.371C62.7159 246.958 65.7984 248.608 65.6137 252.148C65.5427 253.442 65.8978 254.751 66.7785 255.703C68.8667 257.992 71.4947 255.902 72.7163 253.784C75.33 249.276 75.671 243.844 75.9693 238.64C76.1823 234.943 76.3812 231.161 75.3727 227.592C74.8329 225.644 73.9379 223.81 73.5118 221.833C73.0714 219.857 73.1709 217.638 74.4067 216.046C74.6056 215.79 74.9465 215.463 75.3584 215.107C78.6824 212.264 83.2849 211.467 87.3902 212.975C93.8961 215.378 105.005 218.975 107.945 216.785C112.178 213.643 113.201 211.581 113.201 211.581L115.474 214.069Z" fill="#263238"/>
<path d="M83.8525 199.58C90.259 197.533 97.5036 197.732 103.427 200.903C106.567 202.58 109.393 205.254 110.317 208.695C111.24 212.15 109.72 216.359 106.396 217.653L106.169 217.795C101.197 219.402 97.9866 218.691 93.0858 216.928C88.9521 215.435 85.2872 212.818 81.1535 211.354C76.7499 209.79 71.8776 209.59 67.3604 210.771C71.8634 205.794 77.446 201.642 83.8525 199.58Z" fill="#263238"/>
<path d="M61.7919 211.055C61.8913 211.14 62.8289 210.031 64.7039 208.723C65.6415 208.083 66.8205 207.372 68.2268 206.832C69.6189 206.306 71.2525 205.908 72.9429 206.036C76.3948 206.363 79.2642 207.97 81.0256 209.377C82.8155 210.799 83.6536 211.994 83.7672 211.908C83.8098 211.88 83.6394 211.553 83.2558 211.012C82.8865 210.472 82.2615 209.747 81.3808 208.951C79.6335 207.387 76.6789 205.609 72.9997 205.268C71.1389 205.111 69.4058 205.566 67.9569 206.164C66.4938 206.761 65.3148 207.543 64.3772 208.268C62.5306 209.761 61.7351 211.012 61.7919 211.055Z" fill="#455A64"/>
<path d="M97.1343 198.528C97.1059 198.656 98.3417 198.94 100.203 199.68C102.078 200.419 104.549 201.713 106.922 203.647C109.28 205.595 111.027 207.799 112.106 209.491C113.2 211.183 113.712 212.335 113.825 212.292C113.911 212.264 113.57 211.027 112.575 209.207C111.595 207.401 109.862 205.069 107.419 203.05C104.976 201.045 102.362 199.779 100.401 199.154C98.4269 198.542 97.1485 198.443 97.1343 198.528Z" fill="#455A64"/>
<path d="M62.8004 282.691L60.7549 291.507L108.299 321.083L106.169 306.366C106.169 306.366 99.7906 299.569 91.6652 294.834C78.1135 286.914 62.8004 282.691 62.8004 282.691Z" fill="#F5F5F5"/>
<path d="M58.9792 294.152C58.9792 294.152 44.3479 325.192 43.311 336.98C42.2598 348.768 46.3082 387.927 46.3082 387.927L112.305 463.303L178.174 467.683C178.174 467.683 146.994 402.047 140.019 389.235C133.045 376.438 109.592 318.438 109.592 318.438C109.592 318.438 107.745 312.423 101.325 305.598C92.3897 296.114 75.0736 290.27 59.4622 287.128L58.9792 294.152Z" fill="#FFC727"/>
<path d="M84.122 307.347C93.9093 308.499 106.467 315.893 110.842 333.098L115.032 354.37L136.113 397.241L205.221 416.977L196.243 444.079C196.243 444.079 127.803 438.69 118.896 436.358C110.004 434.026 73.1698 381.657 73.1698 381.657C73.1698 381.657 54.76 349.791 59.4619 326.301C61.8199 314.528 72.0334 305.925 84.122 307.347Z" fill="#FFC727"/>
<path d="M84.122 307.347C84.122 307.347 83.5538 307.333 82.46 307.276C81.3662 307.219 79.7326 307.29 77.6444 307.632C75.5705 308.058 73.042 308.854 70.3998 310.475C67.7577 312.068 65.1013 314.556 62.9705 317.926C61.962 319.633 60.9676 321.51 60.3568 323.628C60.1579 324.14 60.0443 324.695 59.9164 325.235C59.7886 325.789 59.6181 326.33 59.5755 326.913C59.4193 328.065 59.263 329.231 59.0925 330.425C58.7232 335.245 59.0783 340.521 60.1011 346.052C61.1239 351.583 62.8143 357.37 65.0445 363.3C67.3031 369.229 70.0305 375.372 73.4255 381.472L73.4113 381.443C78.7666 388.979 84.5623 396.9 90.8126 405.104C97.1055 413.266 103.711 421.854 111.424 429.959C113.385 431.921 115.387 433.983 117.76 435.419C118.896 436.13 120.373 436.23 121.751 436.514C123.172 436.713 124.592 436.955 126.027 437.126C131.766 437.865 137.633 438.476 143.57 439.059C155.46 440.24 167.677 441.306 180.134 442.358C185.561 442.799 190.93 443.24 196.243 443.681L195.86 443.937C198.914 434.722 201.911 425.665 204.837 416.835L205.079 417.304C180.163 410.166 156.852 403.497 135.985 397.525L135.843 397.483L135.786 397.355C127.945 381.372 120.899 366.982 114.762 354.455L114.748 354.427V354.398C113.839 349.72 112.973 345.284 112.149 341.075C111.282 336.895 110.742 332.871 109.45 329.358C107.035 322.235 102.816 317.059 98.7533 313.788C94.6764 310.461 90.77 309.011 88.1704 308.215C86.8494 307.845 85.8266 307.617 85.1305 307.518C84.4629 307.433 84.122 307.347 84.122 307.347C84.122 307.347 84.4771 307.376 85.1732 307.475C85.8692 307.546 86.9062 307.774 88.2415 308.115C90.8694 308.869 94.8184 310.291 98.9521 313.604C103.072 316.86 107.376 322.078 109.847 329.259C111.183 332.828 111.723 336.824 112.617 341.018C113.456 345.213 114.336 349.663 115.274 354.327L115.26 354.27C121.425 366.769 128.527 381.145 136.411 397.113L136.212 396.942C157.094 402.886 180.404 409.526 205.334 416.636L205.704 416.735L205.59 417.091C202.664 425.935 199.681 434.978 196.627 444.192L196.541 444.463L196.257 444.434C190.93 443.993 185.561 443.553 180.134 443.112C167.677 442.06 155.446 440.979 143.556 439.799C137.604 439.202 131.752 438.604 125.984 437.851C124.55 437.68 123.115 437.438 121.68 437.239C120.97 437.14 120.26 436.969 119.535 436.827C118.854 436.713 118.058 436.443 117.447 436.059C114.919 434.523 112.944 432.462 110.955 430.471C103.185 422.309 96.5941 413.707 90.3012 405.531C84.051 397.312 78.2695 389.378 72.9283 381.813L72.9141 381.799V381.785C69.5049 375.613 66.7917 369.471 64.5473 363.499C62.3171 357.527 60.6409 351.711 59.6323 346.137C58.6238 340.577 58.2829 335.259 58.6806 330.396C58.8511 329.188 59.0215 328.008 59.1778 326.842C59.2346 326.259 59.4051 325.704 59.5329 325.15C59.675 324.595 59.7886 324.041 59.9875 323.514C60.6267 321.367 61.6353 319.462 62.6722 317.741C64.8598 314.343 67.5588 311.84 70.2436 310.248C72.9141 308.627 75.4853 307.859 77.5876 307.447C79.7042 307.12 81.352 307.091 82.4458 307.177C83.5538 307.276 84.122 307.347 84.122 307.347Z" fill="#263238"/>
<path d="M124.252 413.835C124.166 413.792 124.522 412.683 125.331 410.977C126.127 409.27 127.419 406.995 129.11 404.663C130.814 402.331 132.59 400.426 133.968 399.146C135.346 397.866 136.298 397.184 136.354 397.255C136.511 397.426 133.045 400.511 129.706 405.104C126.34 409.683 124.465 413.934 124.252 413.835Z" fill="#263238"/>
<path d="M112.135 323.941C112.093 323.969 111.496 323.344 110.459 322.178C109.948 321.595 109.323 320.87 108.527 320.088C107.746 319.305 106.908 318.353 105.871 317.429C103.868 315.495 101.339 313.348 98.3989 311.129C95.43 308.968 92.0208 306.764 88.2848 304.759C80.7845 300.749 73.4689 298.218 68.142 296.612C65.4714 295.815 63.298 295.218 61.7781 294.834C60.2723 294.436 59.4342 294.194 59.4484 294.152C59.4626 294.095 60.3149 294.251 61.8491 294.564C63.3832 294.863 65.585 295.389 68.284 296.114C73.6678 297.593 81.0686 300.067 88.6258 304.105C92.3901 306.139 95.8136 308.371 98.7966 310.589C101.737 312.85 104.266 315.054 106.226 317.059C107.249 318.026 108.073 318.993 108.825 319.817C109.593 320.628 110.189 321.381 110.672 321.993C111.666 323.216 112.178 323.913 112.135 323.941Z" fill="#263238"/>
<path d="M314.615 343.151C313.35 342.767 312.029 343.492 311.646 344.758L287.625 425.21L207.11 437.78C204.511 438.192 202.735 440.624 203.133 443.226L291.318 429.462H291.332H291.347V429.419L316.22 346.123C316.589 344.857 315.879 343.521 314.615 343.151Z" fill="#E0E0E0"/>
<path d="M314.615 343.151C314.572 343.165 315.283 343.165 315.964 344.104C316.277 344.559 316.518 345.298 316.291 346.109C316.064 346.891 315.808 347.801 315.51 348.81C314.302 352.92 312.555 358.906 310.325 366.499C305.808 381.742 299.359 403.469 291.645 429.504L291.659 429.362V429.405L291.716 429.717L291.404 429.774H291.39L291.645 429.547L291.56 429.86L291.248 429.774H291.233L291.375 429.789C266.133 433.741 236.458 438.391 204.838 443.339C204.284 443.425 203.73 443.51 203.19 443.595L202.835 443.652L202.778 443.283C202.409 441.093 203.644 438.775 205.633 437.851C206.116 437.609 206.67 437.467 207.182 437.382L208.673 437.154L211.656 436.685C215.619 436.073 219.54 435.462 223.418 434.851C231.174 433.642 238.774 432.462 246.146 431.31C260.905 429.021 274.826 426.859 287.583 424.883L287.327 425.11C294.912 399.9 301.22 378.912 305.652 364.196C307.882 356.873 309.629 351.114 310.836 347.161C311.135 346.18 311.405 345.312 311.646 344.559C311.944 343.791 312.541 343.364 313.038 343.165C314.061 342.81 314.629 343.18 314.615 343.151C314.629 343.208 314.047 342.895 313.052 343.279C312.584 343.478 312.03 343.905 311.76 344.63C311.532 345.384 311.291 346.251 310.993 347.232C309.828 351.199 308.137 356.972 305.978 364.324C301.617 379.055 295.381 400.07 287.909 425.309L287.853 425.509L287.654 425.537C274.897 427.542 260.976 429.732 246.231 432.035C238.859 433.187 231.259 434.381 223.503 435.59C219.625 436.201 215.705 436.813 211.741 437.424L208.758 437.893C207.75 438.078 206.741 438.121 205.917 438.533C204.213 439.33 203.162 441.306 203.474 443.183L203.048 442.87C203.588 442.785 204.142 442.7 204.696 442.614C236.316 437.694 266.005 433.073 291.248 429.149L291.319 429.134L291.39 429.149H291.404L291.006 429.362L291.063 429.163L291.262 429.134C291.276 429.134 291.276 429.134 291.276 429.134L291.006 429.504V429.462L290.992 429.39L291.006 429.319C298.833 403.327 305.353 381.628 309.941 366.399C312.243 358.821 314.061 352.863 315.297 348.754C315.609 347.744 315.879 346.848 316.121 346.066C316.348 345.298 316.135 344.602 315.851 344.161C315.254 343.236 314.572 343.194 314.615 343.151Z" fill="#263238"/>
<path d="M291.332 429.447C291.162 429.561 290.31 428.58 289.259 427.371C288.222 426.163 287.369 425.167 287.497 425.011C287.625 424.855 288.733 425.637 289.813 426.874C290.906 428.125 291.503 429.334 291.332 429.447Z" fill="#455A64"/>
<path d="M278.05 428.239C277.979 428.153 278.405 427.883 278.959 428.182C279.215 428.295 279.57 428.679 279.528 429.177C279.499 429.646 279.187 430.116 278.633 430.272C278.065 430.414 277.567 430.144 277.312 429.789C277.028 429.419 277.056 428.921 277.212 428.651C277.582 428.068 278.079 428.153 278.05 428.239C278.079 428.338 277.78 428.48 277.709 428.85C277.681 429.035 277.709 429.22 277.851 429.376C277.994 429.533 278.249 429.632 278.448 429.575C278.647 429.533 278.832 429.305 278.86 429.12C278.903 428.935 278.817 428.779 278.661 428.623C278.377 428.324 278.093 428.338 278.05 428.239Z" fill="#455A64"/>
<path d="M283.207 427.457C283.136 427.371 283.562 427.101 284.116 427.4C284.371 427.514 284.727 427.897 284.684 428.395C284.655 428.864 284.343 429.334 283.789 429.49C283.221 429.632 282.724 429.362 282.468 429.007C282.184 428.637 282.212 428.139 282.368 427.869C282.724 427.272 283.221 427.357 283.207 427.457C283.235 427.556 282.937 427.698 282.866 428.068C282.837 428.253 282.866 428.438 283.008 428.594C283.15 428.751 283.405 428.85 283.604 428.793C283.803 428.751 283.974 428.523 284.016 428.338C284.059 428.153 283.974 427.997 283.817 427.841C283.519 427.542 283.235 427.542 283.207 427.457Z" fill="#455A64"/>
<path d="M84.5483 533.404L51.8623 640.886L63.7804 641L107.944 532.295L84.5483 533.404Z" fill="#263238"/>
<path d="M225.109 518.772C225.023 518.772 262.099 640.716 262.099 640.716L273.917 640.872L251.061 516.298L225.109 518.772Z" fill="#263238"/>
<path d="M33.4669 362.66C29.9014 359.304 24.5461 358.351 19.9863 360.299C10.8382 364.21 -2.58569 372.229 0.439999 384.899C4.20436 400.71 47.53 504.055 61.5078 537.2C64.1216 543.385 70.1872 547.381 76.9062 547.324L258.434 545.831C266.488 545.76 272.667 538.665 271.616 530.674L264.84 479.058C262.596 461.967 248.802 448.743 231.657 447.207L114.237 436.77L33.4669 362.66Z" fill="#455A64"/>
<path d="M55.5554 521.189C55.5412 521.189 55.5128 521.061 55.456 520.82C55.3992 520.535 55.3281 520.166 55.2287 519.725C55.0298 518.701 54.7599 517.279 54.419 515.473C53.7372 511.719 52.7854 506.387 51.6064 499.832C50.4416 493.206 49.0495 485.343 47.5153 476.612C46.7482 472.233 45.9528 467.654 45.1289 462.891C44.7169 460.516 44.2907 458.085 43.8646 455.639C43.4526 453.193 43.0549 450.577 43.6657 447.961C43.9782 446.667 44.5749 445.444 45.4414 444.434C46.2937 443.425 47.3591 442.628 48.4955 442.031C50.7825 440.837 53.2542 440.325 55.6549 439.998C60.4846 439.458 65.1155 439.187 69.5333 438.86C78.3831 438.249 86.3521 437.851 93.057 437.581C99.7618 437.31 105.188 437.197 108.938 437.14C110.771 437.126 112.22 437.111 113.257 437.111C113.711 437.111 114.081 437.126 114.379 437.126C114.635 437.126 114.762 437.14 114.762 437.154C114.762 437.168 114.635 437.183 114.379 437.197C114.081 437.211 113.711 437.239 113.257 437.254C112.22 437.296 110.771 437.353 108.938 437.424C105.131 437.581 99.7334 437.822 93.0712 438.107C86.3805 438.434 78.4115 438.889 69.5759 439.543C65.1723 439.898 60.4988 440.183 55.7401 440.723C53.382 441.064 50.9672 441.562 48.8222 442.685C46.6772 443.78 44.9158 445.728 44.376 448.146C43.8078 450.563 44.1771 453.094 44.5891 455.525C45.0152 457.985 45.4272 460.402 45.8391 462.777C46.6488 467.54 47.4443 472.119 48.183 476.499C49.6603 485.229 50.9956 493.107 52.1178 499.747C53.1974 506.33 54.0781 511.663 54.7031 515.431C54.9872 517.236 55.2145 518.673 55.3708 519.696C55.4276 520.151 55.4844 520.521 55.527 520.805C55.5696 521.047 55.5696 521.189 55.5554 521.189Z" fill="#263238"/>
<path d="M263.405 516.312C263.405 516.511 216.514 516.682 158.67 516.682C100.813 516.682 53.9219 516.511 53.9219 516.312C53.9219 516.113 100.813 515.943 158.67 515.943C216.5 515.943 263.405 516.113 263.405 516.312Z" fill="#263238"/>
<path d="M76.4377 438.434C76.2814 438.562 61.9484 422.068 44.4193 401.578C26.876 381.088 12.7845 364.366 12.9407 364.238C13.097 364.11 27.43 380.604 44.9733 401.108C62.5024 421.584 76.5797 438.306 76.4377 438.434Z" fill="#263238"/>
</g>
<defs>
<clipPath id="clip0_340_3567">
<rect width="622" height="641" fill="white"/>
</clipPath>
</defs>
</svg>
