<svg width="394" height="440" viewBox="0 0 394 440" fill="none" xmlns="http://www.w3.org/2000/svg">
<g clip-path="url(#clip0_311_4364)">
<path d="M330.73 307.29L335.25 316.44L345.35 317.9L338.04 325.03L339.76 335.08L330.73 330.33L321.7 335.08L323.43 325.03L316.12 317.9L326.22 316.44L330.73 307.29Z" fill="#F0C63D"/>
<path d="M352.28 299.18L354.4 303.49L359.16 304.18L355.72 307.54L356.53 312.28L352.28 310.04L348.02 312.28L348.83 307.54L345.39 304.18L350.15 303.49L352.28 299.18Z" fill="#F0C63D"/>
<path d="M324.041 61.03L327.571 49.97C324.821 44.46 323.521 38.14 324.111 31.56C325.821 12.63 342.581 -1.33 361.531 0.390001C380.491 2.1 394.471 18.84 392.751 37.77C391.041 56.7 374.281 70.66 355.331 68.94C347.411 68.22 340.901 65.36 335.491 60.34L324.041 61.03Z" fill="#FAFAFA"/>
<path d="M324.04 61.03C324.04 61.03 324.31 61 324.8 60.97C325.31 60.93 326.05 60.88 327 60.81C328.94 60.68 331.79 60.48 335.49 60.23H335.54L335.58 60.26C338.84 63.27 343.81 66.6 350.54 68.03C352.21 68.39 353.97 68.67 355.8 68.78C356.72 68.81 357.65 68.85 358.6 68.89C359.55 68.88 360.51 68.78 361.49 68.73C365.39 68.37 369.47 67.32 373.39 65.4C377.31 63.49 381.05 60.72 384.18 57.15C387.3 53.58 389.84 49.22 391.25 44.33C392.66 39.45 393.01 34.1 392.1 28.82C391.94 27.49 391.52 26.2 391.19 24.89C391.04 24.23 390.76 23.6 390.53 22.96C390.29 22.33 390.06 21.68 389.8 21.05C388.62 18.59 387.33 16.12 385.57 13.95C384.77 12.8 383.79 11.82 382.86 10.8C382.42 10.27 381.86 9.85 381.36 9.38C380.84 8.93 380.36 8.44 379.82 8.03L378.18 6.82L377.36 6.22L376.49 5.7L374.75 4.66C374.17 4.33 373.54 4.07 372.94 3.78C368.1 1.51 362.86 0.41 357.78 0.52C352.7 0.62 347.83 1.86 343.56 3.92C339.29 5.98 335.62 8.84 332.74 12.1C329.85 15.36 327.75 19.01 326.36 22.67C326.19 23.13 326.03 23.59 325.87 24.04C325.7 24.49 325.55 24.94 325.45 25.41C325.22 26.33 325 27.24 324.77 28.13C324.53 29.95 324.19 31.7 324.16 33.41C323.88 40.26 325.69 45.95 327.66 49.94L327.68 49.98V50C326.51 53.56 325.61 56.3 325 58.17C324.69 59.09 324.46 59.8 324.3 60.29C324.13 60.77 324.04 61.03 324.04 61.03C324.04 61.03 324.1 60.8 324.24 60.33C324.39 59.84 324.61 59.14 324.89 58.22C325.48 56.32 326.34 53.54 327.46 49.93L327.47 50.01C325.45 46.02 323.58 40.29 323.83 33.37C323.86 31.64 324.18 29.88 324.42 28.04C324.64 27.14 324.86 26.22 325.09 25.29C325.19 24.82 325.34 24.36 325.51 23.9C325.67 23.44 325.84 22.98 326 22.51C327.38 18.81 329.5 15.1 332.42 11.79C335.33 8.48 339.03 5.57 343.36 3.47C347.68 1.37 352.63 0.11 357.78 -1.11759e-07C362.93 -0.12 368.25 0.99 373.17 3.29C373.78 3.59 374.41 3.85 375 4.18L376.76 5.23L377.64 5.76L378.47 6.37L380.14 7.6C380.69 8.02 381.18 8.52 381.71 8.97C382.22 9.45 382.78 9.87 383.23 10.41C384.17 11.45 385.17 12.44 385.98 13.6C387.76 15.8 389.08 18.31 390.27 20.81C390.54 21.45 390.76 22.11 391.01 22.75C391.24 23.4 391.53 24.03 391.68 24.71C392.02 26.04 392.45 27.35 392.61 28.7C393.53 34.06 393.16 39.49 391.73 44.44C390.29 49.4 387.71 53.82 384.53 57.43C381.35 61.05 377.55 63.84 373.57 65.76C369.59 67.69 365.45 68.74 361.51 69.09C360.52 69.14 359.55 69.23 358.59 69.24C357.63 69.2 356.69 69.16 355.76 69.12C353.91 69 352.14 68.71 350.45 68.34C343.66 66.87 338.66 63.46 335.42 60.4L335.5 60.43C331.76 60.63 328.89 60.78 326.93 60.88C325.99 60.93 325.26 60.96 324.75 60.99C324.27 61.02 324.04 61.03 324.04 61.03Z" fill="#263238"/>
<path d="M338.9 33.36L344.58 28.45L354.13 38.26L375.55 20.42L380.08 26.06L352.64 48.41L338.9 33.36Z" fill="#F0C63D"/>
<path d="M264.709 306.86L72.9494 349.6C68.2994 350.64 63.6794 347.7 62.6394 343.05L0.409383 63.8C-0.630617 59.15 2.30938 54.53 6.95938 53.49L198.719 10.75C203.369 9.71 207.989 12.65 209.029 17.3L271.259 296.55C272.299 301.21 269.359 305.82 264.709 306.86Z" fill="#E0E0E0"/>
<path d="M264.71 306.86C264.71 306.86 264.92 306.79 265.35 306.67C265.77 306.55 266.39 306.31 267.15 305.89C267.89 305.45 268.77 304.79 269.57 303.78C270.36 302.78 271.07 301.41 271.32 299.73C271.46 298.9 271.45 297.99 271.3 297.06C271.14 296.13 270.89 295.16 270.67 294.14C270.21 292.1 269.71 289.86 269.17 287.44C268.08 282.6 266.83 277.01 265.42 270.71C259.79 245.54 251.65 209.11 241.6 164.11C236.58 141.6 231.07 116.95 225.17 90.49C222.22 77.26 219.16 63.57 216.02 49.48C214.45 42.43 212.85 35.28 211.24 28.03C210.43 24.41 209.61 20.76 208.79 17.09C208.35 15.3 207.27 13.69 205.82 12.53C204.35 11.4 202.52 10.73 200.65 10.74C199.71 10.74 198.8 10.92 197.87 11.14C196.94 11.35 196 11.56 195.07 11.77C193.2 12.19 191.32 12.61 189.44 13.03C185.67 13.87 181.89 14.71 178.08 15.56C170.46 17.26 162.76 18.98 154.97 20.71C139.39 24.18 123.49 27.73 107.3 31.34C74.8896 38.56 41.3596 46.03 7.02958 53.69C4.92958 54.15 3.02958 55.44 1.84958 57.23C0.649575 59 0.169575 61.24 0.549575 63.35C1.44958 67.61 2.43958 71.87 3.36958 76.11C5.25958 84.59 7.13958 93.02 8.99958 101.38C12.7296 118.11 16.3996 134.59 20.0096 150.78C27.2196 183.17 34.1796 214.41 40.8096 244.17C47.4396 273.93 53.7296 302.21 59.6296 328.68C60.3696 331.99 61.0996 335.27 61.8196 338.52C62.1896 340.14 62.5296 341.78 62.9196 343.36C63.3296 344.93 64.2096 346.35 65.3996 347.43C66.5896 348.51 68.0796 349.23 69.6396 349.51C70.4196 349.64 71.2196 349.66 72.0096 349.58C72.7896 349.48 73.5696 349.29 74.3596 349.11C77.4896 348.41 80.5996 347.72 83.6696 347.04C95.9596 344.31 107.75 341.68 119 339.18C164.02 329.18 200.45 321.08 225.62 315.49C238.21 312.7 247.98 310.54 254.61 309.07C257.92 308.34 260.45 307.78 262.15 307.41C263.84 307.04 264.71 306.86 264.71 306.86C264.71 306.86 263.84 307.07 262.15 307.45C260.45 307.83 257.93 308.4 254.62 309.15C247.99 310.64 238.22 312.83 225.64 315.65C200.47 321.28 164.05 329.42 119.04 339.47C107.79 341.98 95.9996 344.61 83.7096 347.36C80.6396 348.05 77.5396 348.74 74.3996 349.44C73.6196 349.61 72.8396 349.81 72.0196 349.91C71.1996 349.99 70.3696 349.97 69.5596 349.84C67.9296 349.55 66.3796 348.8 65.1496 347.68C63.9196 346.56 62.9896 345.08 62.5696 343.45C62.1696 341.83 61.8396 340.22 61.4696 338.59C60.7396 335.34 60.0096 332.06 59.2696 328.75C53.3696 302.28 47.0596 274 40.4196 244.24C33.7796 214.48 26.8196 183.24 19.5896 150.85C15.9796 134.66 12.3096 118.17 8.57958 101.45C6.71958 93.1 4.84958 84.67 2.95958 76.19C2.01958 71.94 1.04958 67.71 0.129575 63.41C-0.260425 61.21 0.239575 58.85 1.49958 56.99C2.73958 55.12 4.72958 53.76 6.93958 53.28C41.2796 45.63 74.8096 38.16 107.19 30.94C123.38 27.33 139.29 23.79 154.86 20.32C162.65 18.59 170.35 16.87 177.97 15.17C181.78 14.32 185.57 13.48 189.33 12.64C191.21 12.22 193.09 11.8 194.96 11.39C195.9 11.18 196.83 10.97 197.76 10.77C198.68 10.55 199.65 10.35 200.63 10.36C202.58 10.35 204.5 11.05 206.03 12.23C207.54 13.43 208.67 15.12 209.13 16.99C209.95 20.66 210.77 24.31 211.58 27.94C213.19 35.19 214.79 42.34 216.36 49.39C219.5 63.49 222.54 77.17 225.49 90.41C231.38 116.88 236.86 141.53 241.87 164.04C251.87 209.06 259.97 245.49 265.57 270.67C266.97 276.96 268.21 282.56 269.28 287.4C269.82 289.82 270.31 292.06 270.76 294.11C270.98 295.14 271.23 296.1 271.38 297.04C271.53 297.98 271.54 298.9 271.39 299.74C271.13 301.43 270.4 302.81 269.6 303.82C268.79 304.83 267.9 305.49 267.15 305.93C266.38 306.34 265.76 306.58 265.34 306.7C264.93 306.81 264.71 306.86 264.71 306.86Z" fill="#263238"/>
<g opacity="0.3">
<path d="M82.6693 339.71L257.389 299.77L251.859 265.52L241.959 246.33L74.8193 311.99L82.6693 339.71Z" fill="black"/>
</g>
<g opacity="0.3">
<path d="M155.609 21L162.219 31.91L163.509 37.69L159.019 38.69L155.609 21Z" fill="black"/>
</g>
<path d="M10.3594 65.42L70.9794 337.42L260.989 295.07L250.149 246.44L200.369 23.07L10.3594 65.42Z" fill="white"/>
<path d="M10.3594 65.42C11.7094 65.12 84.8494 48.75 200.329 22.91L200.499 22.87L200.539 23.04C217.399 98.63 238.429 192.96 261.189 295.01V295.03L261.239 295.23L261.039 295.28C193.109 310.41 128.609 324.78 71.0294 337.61L70.8394 337.65L70.7994 337.46C35.1094 176.84 10.7294 67.07 10.3594 65.42C10.7294 67.08 35.2594 176.8 71.1594 337.38L70.9294 337.24C128.509 324.4 193.009 310.02 260.939 294.88L260.779 295.13V295.11C238.049 193.04 217.039 98.7 200.209 23.11L200.409 23.24C84.8794 48.88 11.7094 65.12 10.3594 65.42Z" fill="#263238"/>
<path d="M160.05 40.9L63.9098 62.33L59.0698 40.62C58.3098 37.21 60.4598 33.83 63.8698 33.07L147.66 14.4C151.07 13.64 154.45 15.79 155.21 19.2L160.05 40.9Z" fill="#263238"/>
<path d="M115.659 10.52L91.1895 15.97L98.7295 36.31L117.159 32.2L115.659 10.52Z" fill="#263238"/>
<path d="M147.66 14.39C147.68 14.5 128.95 18.77 105.81 23.93C82.6701 29.09 63.8901 33.18 63.8701 33.07C63.8501 32.96 82.5801 28.69 105.72 23.53C128.86 18.37 147.63 14.28 147.66 14.39Z" fill="#455A64"/>
<path d="M65.0594 57.35C64.9494 57.37 63.9794 53.45 62.8894 48.59C61.8094 43.72 61.0194 39.76 61.1294 39.74C61.2394 39.72 62.2094 43.64 63.2994 48.5C64.3794 53.36 65.1694 57.33 65.0594 57.35Z" fill="#455A64"/>
<path d="M155.47 35.01C155.36 35.03 154.47 31.47 153.49 27.06C152.51 22.64 151.8 19.04 151.91 19.02C152.02 19 152.91 22.56 153.89 26.97C154.87 31.39 155.58 34.99 155.47 35.01Z" fill="#455A64"/>
<path d="M151.659 39.75C151.679 39.86 132.449 44.24 108.699 49.54C84.9394 54.83 65.6694 59.03 65.6494 58.92C65.6294 58.81 84.8594 54.43 108.609 49.13C132.359 43.84 151.639 39.64 151.659 39.75Z" fill="#455A64"/>
<path d="M101.05 118.88C101.08 118.99 88.0998 121.98 72.0798 125.55C56.0498 129.12 43.0398 131.93 43.0098 131.81C42.9798 131.7 55.9498 128.71 71.9798 125.14C88.0098 121.57 101.02 118.77 101.05 118.88Z" fill="#263238"/>
<path d="M197.76 107.99C197.79 108.1 163.89 115.75 122.06 125.08C80.2098 134.41 46.2798 141.87 46.2598 141.76C46.2298 141.65 80.1298 134 121.97 124.67C163.8 115.34 197.74 107.88 197.76 107.99Z" fill="#263238"/>
<path d="M199.84 117.34C199.87 117.45 165.97 125.1 124.14 134.43C82.2899 143.76 48.3599 151.22 48.3399 151.11C48.3099 151 82.2099 143.35 124.05 134.02C165.88 124.69 199.82 117.22 199.84 117.34Z" fill="#263238"/>
<path d="M201.93 126.69C201.96 126.8 168.06 134.45 126.23 143.78C84.3797 153.11 50.4497 160.57 50.4297 160.46C50.3997 160.35 84.2997 152.7 126.14 143.37C167.96 134.04 201.9 126.57 201.93 126.69Z" fill="#263238"/>
<path d="M204.01 136.03C204.04 136.14 170.14 143.79 128.31 153.12C86.4598 162.45 52.5298 169.91 52.5098 169.8C52.4798 169.69 86.3798 162.04 128.22 152.71C170.05 143.39 203.99 135.92 204.01 136.03Z" fill="#263238"/>
<path d="M206.09 145.38C206.12 145.49 172.22 153.14 130.39 162.47C88.5399 171.8 54.6099 179.26 54.5899 179.15C54.5599 179.04 88.4599 171.39 130.3 162.06C172.13 152.74 206.07 145.27 206.09 145.38Z" fill="#263238"/>
<path d="M83.9696 211.18C83.9596 211.17 83.9296 211.07 83.8796 210.86C83.8196 210.63 83.7496 210.33 83.6596 209.97C83.4696 209.16 83.1996 208.04 82.8696 206.63C82.1996 203.74 81.2596 199.68 80.1396 194.82L80.3596 194.96C75.5896 196.03 69.9596 197.3 63.9596 198.64C63.9196 198.69 64.2596 198.17 64.1196 198.39V198.4V198.42L64.1296 198.46L64.1496 198.53L64.1796 198.67L64.2396 198.95L64.3596 199.51C64.4396 199.88 64.5296 200.25 64.6096 200.62C64.7696 201.36 64.9396 202.09 65.0996 202.81C65.4196 204.26 65.7296 205.67 66.0396 207.05C66.6496 209.8 67.2196 212.4 67.7396 214.79L67.5196 214.65C72.3996 213.6 76.4696 212.73 79.3696 212.1C80.7896 211.8 81.9196 211.57 82.7296 211.4C83.0996 211.33 83.3896 211.27 83.6296 211.22C83.8496 211.19 83.9596 211.18 83.9696 211.18C83.9796 211.19 83.8796 211.21 83.6896 211.26C83.4696 211.32 83.1796 211.39 82.8296 211.47C82.0296 211.66 80.9196 211.92 79.5296 212.25C76.6096 212.92 72.5096 213.87 67.5996 215L67.4196 215.04L67.3796 214.86C66.8396 212.47 66.2596 209.88 65.6396 207.13C65.3296 205.75 65.0096 204.34 64.6896 202.89C64.5296 202.17 64.3596 201.44 64.1996 200.7C64.1196 200.33 64.0296 199.96 63.9496 199.59L63.8296 199.03L63.7696 198.75L63.7396 198.61L63.7196 198.54L63.7096 198.5V198.48V198.47C63.5696 198.69 63.8996 198.16 63.8696 198.22C69.8696 196.89 75.4996 195.65 80.2796 194.59L80.4596 194.55L80.4996 194.73C81.5596 199.65 82.4396 203.77 83.0696 206.7C83.3596 208.1 83.5896 209.22 83.7596 210.02C83.8296 210.37 83.8896 210.66 83.9296 210.89C83.9596 211.09 83.9796 211.19 83.9696 211.18Z" fill="#263238"/>
<path d="M205.878 170.752L91.46 196.247L93.5871 205.793L208.006 180.298L205.878 170.752Z" fill="#E0E0E0"/>
<path d="M90.3094 239.63C90.2994 239.62 90.2694 239.52 90.2194 239.31C90.1594 239.08 90.0894 238.78 89.9994 238.42C89.8094 237.61 89.5394 236.49 89.2094 235.08C88.5394 232.19 87.5994 228.13 86.4794 223.27L86.6994 223.41C81.9294 224.48 76.2994 225.75 70.3094 227.09C70.2694 227.14 70.6094 226.62 70.4694 226.84V226.85V226.87L70.4794 226.91L70.4994 226.98L70.5294 227.12L70.5894 227.4L70.7094 227.96C70.7894 228.33 70.8794 228.7 70.9594 229.07C71.1194 229.81 71.2894 230.54 71.4494 231.26C71.7694 232.71 72.0794 234.12 72.3894 235.5C72.9994 238.25 73.5694 240.85 74.0894 243.24L73.8694 243.1C78.7494 242.05 82.8194 241.18 85.7194 240.55C87.1394 240.25 88.2694 240.02 89.0794 239.85C89.4494 239.78 89.7394 239.72 89.9794 239.67C90.1894 239.65 90.2994 239.63 90.3094 239.63C90.3194 239.64 90.2194 239.66 90.0294 239.71C89.8094 239.77 89.5194 239.84 89.1694 239.92C88.3694 240.11 87.2594 240.37 85.8694 240.7C82.9494 241.37 78.8494 242.32 73.9394 243.45L73.7594 243.49L73.7194 243.31C73.1794 240.92 72.5994 238.33 71.9794 235.58C71.6694 234.2 71.3494 232.79 71.0294 231.34C70.8694 230.62 70.6994 229.89 70.5394 229.15C70.4594 228.78 70.3694 228.41 70.2894 228.04L70.1694 227.48L70.1094 227.2L70.0794 227.06L70.0594 227L70.0494 226.96V226.94V226.93C69.9094 227.15 70.2394 226.62 70.2094 226.68C76.2094 225.35 81.8394 224.11 86.6194 223.05L86.7994 223.01L86.8394 223.19C87.8994 228.11 88.7794 232.23 89.4094 235.16C89.6994 236.56 89.9294 237.68 90.0994 238.48C90.1694 238.83 90.2294 239.12 90.2694 239.35C90.2994 239.54 90.3194 239.64 90.3094 239.63Z" fill="#263238"/>
<path d="M212.227 199.201L97.8086 224.697L99.9357 234.243L214.354 208.747L212.227 199.201Z" fill="#E0E0E0"/>
<path d="M96.6493 268.08C96.6393 268.07 96.6093 267.97 96.5593 267.76C96.4993 267.53 96.4293 267.23 96.3393 266.87C96.1493 266.06 95.8793 264.94 95.5493 263.53C94.8793 260.64 93.9393 256.58 92.8193 251.72L93.0393 251.86C88.2693 252.93 82.6393 254.2 76.6493 255.54C76.6093 255.59 76.9493 255.07 76.8093 255.29V255.3V255.32L76.8193 255.36L76.8393 255.43L76.8693 255.57L76.9293 255.85L77.0493 256.41C77.1293 256.78 77.2193 257.15 77.2993 257.52C77.4593 258.26 77.6293 258.99 77.7893 259.71C78.1093 261.16 78.4193 262.57 78.7293 263.95C79.3393 266.7 79.9093 269.3 80.4293 271.69L80.2093 271.55C85.0893 270.5 89.1593 269.63 92.0593 269C93.4793 268.7 94.6093 268.47 95.4193 268.3C95.7893 268.23 96.0793 268.17 96.3193 268.12C96.5293 268.1 96.6393 268.08 96.6493 268.08C96.6593 268.09 96.5593 268.11 96.3693 268.16C96.1493 268.22 95.8593 268.29 95.5093 268.37C94.7093 268.56 93.5993 268.82 92.2093 269.15C89.2893 269.82 85.1893 270.77 80.2793 271.9L80.0993 271.94L80.0593 271.76C79.5193 269.37 78.9393 266.78 78.3193 264.03C78.0093 262.65 77.6893 261.24 77.3693 259.79C77.2093 259.07 77.0493 258.34 76.8793 257.6C76.7993 257.23 76.7093 256.86 76.6293 256.49L76.5093 255.93L76.4493 255.65L76.4193 255.51L76.3993 255.44L76.3893 255.4V255.38V255.37C76.2493 255.59 76.5793 255.06 76.5493 255.12C82.5493 253.79 88.1793 252.55 92.9593 251.49L93.1393 251.45L93.1793 251.63C94.2393 256.55 95.1193 260.67 95.7493 263.6C96.0393 265 96.2693 266.12 96.4393 266.92C96.5093 267.27 96.5693 267.56 96.6093 267.79C96.6393 267.99 96.6593 268.09 96.6493 268.08Z" fill="#263238"/>
<path d="M218.567 227.653L104.148 253.148L106.276 262.694L220.694 237.199L218.567 227.653Z" fill="#E0E0E0"/>
<path d="M68.21 205.3L69.93 202.6L75.04 205.44L81.61 195.52L84.16 197.27L75.67 209.77L68.21 205.3Z" fill="#F0C63D"/>
<path d="M74.3398 232.8L76.0598 230.1L81.1698 232.94L87.7398 223.02L90.2898 224.77L81.7999 237.27L74.3398 232.8Z" fill="#F0C63D"/>
<path d="M80.6299 261L82.3399 258.3L87.4499 261.13L94.0299 251.22L96.5699 252.97L88.0899 265.47L80.6299 261Z" fill="#F0C63D"/>
<path d="M132.989 296.38C133.019 296.49 123.359 298.74 111.419 301.4C99.4791 304.06 89.7791 306.13 89.7491 306.01C89.7191 305.9 99.3791 303.65 111.329 300.99C123.269 298.33 132.969 296.27 132.989 296.38Z" fill="#263238"/>
<path d="M154.54 291.23C154.57 291.34 151.01 292.23 146.6 293.21C142.19 294.19 138.6 294.9 138.57 294.78C138.54 294.67 142.1 293.78 146.51 292.8C150.92 291.82 154.51 291.12 154.54 291.23Z" fill="#263238"/>
<path d="M225.88 268.78C225.91 268.89 217.21 270.93 206.47 273.32C195.72 275.72 186.99 277.57 186.97 277.45C186.94 277.34 195.63 275.3 206.38 272.91C217.12 270.51 225.85 268.66 225.88 268.78Z" fill="#263238"/>
<path d="M216.589 295.1C216.569 295.09 216.679 294.83 216.779 294.3C216.899 293.78 216.899 292.97 216.659 291.99C216.409 291 215.889 289.87 215.279 288.55C214.689 287.24 213.919 285.68 213.909 283.78C213.939 281.92 214.759 279.85 216.439 278.4C218.099 276.92 220.719 276.4 223.089 277.16C224.269 277.54 225.409 278.21 226.249 279.24C226.649 279.76 226.979 280.39 226.999 281.11C227.059 281.84 226.499 282.57 225.829 282.8C225.159 283.05 224.519 283.13 223.859 283.29C223.199 283.43 222.539 283.56 221.869 283.7C220.529 283.96 219.169 284.21 217.779 284.39C214.999 284.76 212.209 284.81 209.599 284.44C208.319 284.3 206.969 284.28 206.009 285.02C205.049 285.75 204.559 286.94 203.849 287.94C203.499 288.44 203.049 288.93 202.459 289.19C201.879 289.46 201.199 289.45 200.629 289.27C199.479 288.88 198.629 288.11 197.709 287.59C197.259 287.32 196.789 287.11 196.299 287.06C195.819 287.01 195.339 287.13 194.959 287.4C194.189 287.95 193.779 288.86 193.269 289.62C192.259 291.24 190.519 292 189.049 292.06C187.539 292.13 186.319 291.49 185.549 290.82C184.759 290.13 184.369 289.4 184.169 288.9C183.969 288.39 183.939 288.11 183.939 288.11C183.959 288.1 184.019 288.38 184.239 288.87C184.469 289.35 184.869 290.05 185.649 290.7C186.419 291.34 187.599 291.92 189.029 291.83C190.439 291.76 192.069 291.01 193.019 289.47C193.519 288.73 193.899 287.79 194.779 287.15C195.209 286.84 195.779 286.69 196.339 286.74C196.899 286.79 197.409 287.03 197.889 287.31C198.839 287.85 199.699 288.6 200.739 288.94C201.259 289.1 201.819 289.1 202.309 288.87C202.809 288.65 203.209 288.23 203.539 287.74C204.229 286.79 204.699 285.56 205.779 284.72C206.319 284.3 206.989 284.09 207.649 284.02C208.319 283.95 208.989 283.99 209.649 284.05C212.259 284.42 214.969 284.36 217.739 284C219.119 283.82 220.469 283.58 221.809 283.32C222.479 283.18 223.139 283.05 223.789 282.91C224.439 282.76 225.119 282.67 225.689 282.45C226.259 282.24 226.649 281.74 226.609 281.15C226.599 280.57 226.319 279.99 225.949 279.52C225.179 278.58 224.099 277.93 222.979 277.56C220.729 276.83 218.259 277.31 216.679 278.7C215.069 280.07 214.259 282.04 214.219 283.82C214.209 285.62 214.929 287.17 215.509 288.49C216.099 289.81 216.609 290.98 216.839 291.99C217.059 293 217.029 293.83 216.879 294.35C216.729 294.85 216.589 295.1 216.589 295.1Z" fill="#263238"/>
<path d="M237.259 282.3C237.259 282.31 237.079 282.37 236.739 282.46C236.349 282.55 235.849 282.67 235.229 282.82C233.859 283.14 231.969 283.58 229.649 284.11C224.939 285.2 218.439 286.74 211.299 288.55C204.149 290.36 197.699 292.11 193.039 293.39C190.749 294.02 188.869 294.54 187.519 294.91C186.899 295.07 186.399 295.21 186.019 295.31C185.669 295.4 185.489 295.44 185.489 295.42C185.489 295.41 185.659 295.34 185.999 295.23C186.379 295.11 186.869 294.95 187.479 294.75C188.769 294.34 190.639 293.78 192.959 293.1C197.599 291.74 204.039 289.95 211.189 288.14C218.339 286.33 224.849 284.83 229.579 283.81C231.939 283.3 233.859 282.9 235.189 282.65C235.819 282.53 236.329 282.44 236.719 282.36C237.079 282.31 237.259 282.28 237.259 282.3Z" fill="#263238"/>
<path d="M155.256 62.8708L77.5879 80.1772L80.8395 94.7699L158.508 77.4634L155.256 62.8708Z" fill="#E0E0E0"/>
<path d="M228.721 299.67L253.811 432.24L276.741 389.87L320.201 415.38L274.071 286.29L228.721 299.67Z" fill="#F0C63D"/>
<g opacity="0.3">
<path d="M237.151 344.26C241.791 345.22 247.201 343.58 250.491 340.17C252.781 337.8 254.301 334.59 257.181 333.01C259.771 331.59 262.961 331.79 265.801 332.58C268.651 333.37 271.331 334.68 274.181 335.43C279.781 336.88 285.961 335.97 290.901 332.95L283.661 312.85L250.061 308.65L234.041 327.9L237.151 344.26Z" fill="black"/>
</g>
<path d="M275.101 384.6C274.961 384.64 271.221 370.87 266.761 353.85C262.291 336.83 258.781 323 258.921 322.97C259.061 322.93 262.791 336.7 267.271 353.72C271.731 370.74 275.241 384.57 275.101 384.6Z" fill="#263238"/>
<path d="M232.39 306.57L207.3 439.13L184.37 396.76L140.9 422.27L187.04 293.19L232.39 306.57Z" fill="#F0C63D"/>
<g opacity="0.3">
<path d="M173.24 331.8C173.24 331.8 180.38 337.67 188.89 334.97C197.4 332.26 202.69 331.69 207.3 334.97C211.91 338.25 224.38 348.93 224.38 348.93L227.28 333.64L210.53 310.64L193.04 314.17L180.58 315.41L175.95 324.17L173.24 331.8Z" fill="black"/>
</g>
<path d="M379.5 186.9C379.5 196.41 367.34 204.6 365.56 213.59C363.73 222.85 371.79 235.06 368.26 243.58C364.66 252.25 350.29 255.17 345.14 262.87C339.94 270.64 342.71 285.02 336.13 291.6C329.55 298.18 315.16 295.41 307.4 300.61C299.69 305.77 296.78 320.14 288.11 323.73C279.59 327.26 267.38 319.2 258.12 321.03C249.13 322.81 240.94 334.97 231.43 334.97C221.92 334.97 213.73 322.81 204.74 321.03C195.48 319.2 183.27 327.26 174.75 323.73C166.08 320.13 163.16 305.76 155.46 300.61C147.69 295.41 133.31 298.18 126.73 291.6C120.15 285.02 122.92 270.63 117.72 262.87C112.56 255.16 98.1903 252.25 94.6003 243.58C91.0703 235.06 99.1304 222.85 97.3004 213.59C95.5204 204.6 83.3604 196.41 83.3604 186.9C83.3604 177.39 95.5204 169.2 97.3004 160.21C99.1304 150.95 91.0703 138.74 94.6003 130.22C98.2003 121.55 112.57 118.63 117.72 110.93C122.92 103.16 120.15 88.78 126.73 82.2C133.31 75.62 147.7 78.39 155.46 73.19C163.17 68.03 166.08 53.66 174.75 50.07C183.27 46.54 195.48 54.6 204.74 52.77C213.73 50.99 221.92 38.83 231.43 38.83C240.94 38.83 249.13 50.99 258.12 52.77C267.38 54.6 279.59 46.54 288.11 50.07C296.78 53.67 299.7 68.04 307.4 73.19C315.17 78.39 329.55 75.62 336.13 82.2C342.71 88.78 339.94 103.17 345.14 110.93C350.3 118.64 364.67 121.55 368.26 130.22C371.79 138.74 363.73 150.95 365.56 160.21C367.34 169.2 379.5 177.39 379.5 186.9Z" fill="#F0C63D"/>
<path d="M196.76 103.9C196.74 103.91 196.65 103.77 196.49 103.49C196.3 103.16 196.08 102.76 195.81 102.27C195.22 101.21 194.42 99.65 193.45 97.71C191.52 93.83 189.02 88.37 186.61 82.21C184.21 76.04 182.35 70.33 181.14 66.17C180.53 64.09 180.08 62.39 179.79 61.22C179.66 60.68 179.55 60.23 179.47 59.86C179.4 59.55 179.37 59.38 179.39 59.38C179.41 59.38 179.47 59.53 179.57 59.84C179.68 60.2 179.82 60.64 179.99 61.17C180.37 62.41 180.88 64.06 181.5 66.07C182.8 70.2 184.7 75.87 187.1 82.03C189.5 88.18 191.94 93.65 193.78 97.56C194.69 99.46 195.43 101.02 195.99 102.19C196.23 102.69 196.42 103.11 196.58 103.45C196.72 103.73 196.78 103.89 196.76 103.9Z" fill="#263238"/>
<path d="M209.94 98.89C209.91 98.9 209.77 98.51 209.56 97.79C209.35 97.07 209.06 96.03 208.73 94.73C208.07 92.13 207.25 88.52 206.51 84.5C205.77 80.48 205.25 76.81 204.95 74.15C204.8 72.82 204.69 71.74 204.64 70.99C204.58 70.24 204.57 69.83 204.61 69.82C204.65 69.82 204.73 70.22 204.85 70.96C204.98 71.81 205.14 72.86 205.33 74.09C205.73 76.73 206.3 80.38 207.04 84.4C207.78 88.41 208.54 92.03 209.1 94.64C209.36 95.86 209.59 96.9 209.77 97.74C209.91 98.47 209.98 98.88 209.94 98.89Z" fill="#263238"/>
<path d="M233.19 96.58C233.05 96.58 232.68 85.37 232.36 71.53C232.05 57.69 231.91 46.47 232.05 46.46C232.19 46.46 232.56 57.67 232.88 71.51C233.2 85.35 233.34 96.57 233.19 96.58Z" fill="#263238"/>
<path d="M256.59 73.53C256.73 73.57 255.11 79.18 252.98 86.06C250.85 92.94 249.011 98.48 248.881 98.43C248.741 98.39 250.361 92.78 252.491 85.9C254.611 79.03 256.45 73.49 256.59 73.53Z" fill="#263238"/>
<path d="M266.14 102.51C266.12 102.5 266.17 102.34 266.27 102.04C266.39 101.68 266.54 101.25 266.73 100.72C267.13 99.58 267.75 97.94 268.53 95.91C270.09 91.87 272.34 86.32 274.9 80.23C277.46 74.13 279.84 68.64 281.59 64.68C282.45 62.76 283.17 61.18 283.7 60C283.94 59.5 284.14 59.08 284.3 58.74C284.44 58.45 284.53 58.31 284.54 58.31C284.56 58.32 284.51 58.48 284.39 58.78C284.25 59.13 284.08 59.56 283.88 60.08C283.39 61.28 282.73 62.88 281.93 64.82C280.23 68.88 277.93 74.37 275.38 80.43C272.85 86.49 270.57 91.98 268.87 96.05C268.07 98 267.41 99.6 266.92 100.79C266.7 101.3 266.52 101.72 266.37 102.07C266.23 102.37 266.15 102.52 266.14 102.51Z" fill="#263238"/>
<path d="M278.641 109.03C278.611 109.01 278.811 108.65 279.211 108.01C279.601 107.37 280.201 106.47 280.951 105.36C282.451 103.14 284.611 100.13 287.121 96.91C289.641 93.69 292.031 90.86 293.821 88.86C294.711 87.86 295.451 87.06 295.971 86.53C296.491 85.99 296.791 85.71 296.821 85.73C296.851 85.75 296.601 86.09 296.121 86.67C295.571 87.33 294.901 88.15 294.101 89.11C292.391 91.16 290.041 94.02 287.531 97.24C285.021 100.46 282.821 103.43 281.251 105.59C280.511 106.6 279.881 107.45 279.381 108.15C278.931 108.73 278.671 109.05 278.641 109.03Z" fill="#263238"/>
<path d="M296.82 123.94C296.72 123.83 304.63 116.31 314.49 107.15C324.35 97.98 332.42 90.63 332.52 90.74C332.62 90.85 324.71 98.36 314.85 107.54C304.99 116.69 296.92 124.04 296.82 123.94Z" fill="#263238"/>
<path d="M328.58 127.04C328.61 127.11 327.44 127.7 325.57 128.68C323.69 129.66 321.14 131.07 318.32 132.66C315.5 134.24 312.9 135.61 310.98 136.51C310.02 136.96 309.23 137.31 308.68 137.53C308.13 137.75 307.82 137.86 307.8 137.83C307.77 137.76 308.94 137.17 310.81 136.19C312.69 135.21 315.24 133.8 318.06 132.21C320.88 130.63 323.48 129.26 325.4 128.36C326.36 127.91 327.15 127.56 327.7 127.34C328.25 127.12 328.57 127.01 328.58 127.04Z" fill="#263238"/>
<path d="M357.99 139.24C358.04 139.38 348.62 142.81 336.96 146.92C325.29 151.03 315.8 154.25 315.75 154.11C315.7 153.97 325.12 150.54 336.79 146.43C348.44 142.33 357.94 139.11 357.99 139.24Z" fill="#263238"/>
<path d="M367.34 192.71C367.33 192.85 357.09 192 344.48 190.8C331.87 189.6 321.65 188.51 321.67 188.37C321.68 188.23 331.92 189.08 344.53 190.28C357.14 191.48 367.36 192.56 367.34 192.71Z" fill="#263238"/>
<path d="M359.82 240.66C359.76 240.79 350.19 236.4 338.45 230.85C326.71 225.3 317.24 220.7 317.3 220.57C317.36 220.44 326.93 224.83 338.67 230.38C350.41 235.93 359.88 240.53 359.82 240.66Z" fill="#263238"/>
<path d="M328.341 286.29C328.231 286.38 321.33 278.38 312.931 268.41C304.521 258.44 297.801 250.29 297.911 250.19C298.021 250.1 304.92 258.1 313.33 268.07C321.72 278.04 328.451 286.2 328.341 286.29Z" fill="#263238"/>
<path d="M302.06 292.32C302.03 292.34 301.73 291.94 301.23 291.2C300.72 290.46 300 289.37 299.13 288.02C297.39 285.31 295.06 281.53 292.61 277.27C290.16 273.02 288.04 269.1 286.57 266.24C285.83 264.81 285.25 263.65 284.86 262.83C284.47 262.02 284.27 261.56 284.3 261.54C284.33 261.52 284.59 261.95 285.04 262.73C285.53 263.6 286.15 264.72 286.89 266.06C288.45 268.87 290.61 272.75 293.06 277C295.51 281.25 297.79 285.06 299.45 287.81C300.24 289.12 300.89 290.22 301.4 291.08C301.85 291.86 302.09 292.3 302.06 292.32Z" fill="#263238"/>
<path d="M285.74 315.27C285.72 315.28 285.63 315.14 285.48 314.86C285.3 314.53 285.09 314.12 284.83 313.64C284.27 312.58 283.49 311.02 282.57 309.07C280.73 305.18 278.36 299.72 276.11 293.55C273.86 287.37 272.16 281.67 271.07 277.5C270.52 275.42 270.11 273.73 269.86 272.55C269.75 272.01 269.65 271.56 269.57 271.19C269.51 270.88 269.49 270.71 269.51 270.71C269.53 270.71 269.58 270.86 269.68 271.17C269.78 271.53 269.91 271.97 270.06 272.5C270.41 273.74 270.87 275.39 271.43 277.4C272.61 281.53 274.36 287.2 276.6 293.37C278.85 299.53 281.15 305 282.91 308.92C283.77 310.82 284.48 312.39 285.01 313.55C285.24 314.05 285.42 314.47 285.58 314.81C285.7 315.1 285.75 315.26 285.74 315.27Z" fill="#263238"/>
<path d="M252.681 299.18C252.601 299.18 252.481 297.85 252.251 295.7C252.021 293.55 251.661 290.58 251.111 287.33C250.561 284.08 249.941 281.15 249.461 279.04C248.981 276.93 248.661 275.63 248.741 275.61C248.771 275.6 248.901 275.91 249.091 276.49C249.281 277.07 249.541 277.91 249.821 278.95C250.391 281.04 251.081 283.97 251.631 287.24C252.181 290.51 252.481 293.5 252.621 295.66C252.691 296.74 252.731 297.62 252.731 298.23C252.731 298.84 252.711 299.18 252.681 299.18Z" fill="#263238"/>
<path d="M231.05 327.97C231.03 327.97 231.02 327.79 231.01 327.46C231 327.06 231 326.58 230.99 325.99C230.98 324.71 230.99 322.87 231.03 320.58C231.11 316.02 231.32 309.71 231.68 302.76C232.04 295.8 232.49 289.51 232.86 284.96C233.05 282.69 233.21 280.85 233.34 279.58C233.41 278.99 233.46 278.51 233.5 278.12C233.54 277.79 233.58 277.61 233.59 277.61C233.61 277.61 233.61 277.79 233.6 278.12C233.58 278.52 233.56 279 233.53 279.59C233.45 280.94 233.34 282.77 233.21 284.98C232.94 289.61 232.58 295.86 232.19 302.78C231.82 309.73 231.56 316.03 231.39 320.59C231.31 322.81 231.24 324.64 231.19 325.99C231.16 326.58 231.14 327.06 231.12 327.46C231.09 327.79 231.07 327.97 231.05 327.97Z" fill="#263238"/>
<path d="M213.47 277.6C213.54 277.61 213.43 278.59 213.17 280.15C212.91 281.71 212.49 283.86 211.94 286.22C211.39 288.58 210.81 290.69 210.35 292.2C209.89 293.72 209.55 294.64 209.48 294.62C209.41 294.6 209.62 293.64 209.99 292.1C210.4 290.38 210.89 288.35 211.43 286.09C211.95 283.83 212.41 281.79 212.81 280.07C213.16 278.54 213.39 277.59 213.47 277.6Z" fill="#263238"/>
<path d="M181.68 262.33C181.79 262.42 179.84 265.19 177.3 268.53C174.77 271.87 172.62 274.5 172.51 274.42C172.4 274.33 174.35 271.56 176.89 268.22C179.42 264.88 181.56 262.24 181.68 262.33Z" fill="#263238"/>
<path d="M165 251.12C165.11 251.21 158.9 258.5 151.14 267.39C143.38 276.29 137 283.42 136.89 283.32C136.78 283.23 142.99 275.94 150.75 267.04C158.51 258.16 164.89 251.03 165 251.12Z" fill="#263238"/>
<path d="M156.66 238.72C156.75 238.83 153.3 241.83 148.95 245.41C144.6 249 141 251.81 140.91 251.7C140.82 251.59 144.27 248.59 148.62 245.01C152.97 241.43 156.57 238.61 156.66 238.72Z" fill="#263238"/>
<path d="M146.901 220.01C146.961 220.14 138.321 224.43 127.601 229.6C116.871 234.77 108.131 238.85 108.071 238.72C108.011 238.59 116.651 234.3 127.381 229.13C138.091 223.96 146.831 219.88 146.901 220.01Z" fill="#263238"/>
<path d="M142.97 210.67C142.98 210.71 142.66 210.8 142.07 210.94C141.49 211.08 140.63 211.26 139.58 211.45C137.47 211.84 134.53 212.29 131.27 212.62C128.01 212.95 125.04 213.09 122.89 213.12C121.82 213.14 120.95 213.13 120.35 213.11C119.75 213.09 119.42 213.06 119.42 213.03C119.42 212.95 120.74 212.88 122.88 212.75C125.02 212.62 127.97 212.42 131.22 212.09C134.47 211.76 137.4 211.38 139.52 211.08C141.65 210.79 142.96 210.6 142.97 210.67Z" fill="#263238"/>
<path d="M139.81 189.13C139.81 189.17 139.18 189.15 138.06 189.09C136.85 189.03 135.25 188.95 133.3 188.85C129.28 188.66 123.73 188.47 117.6 188.5C111.47 188.54 105.92 188.78 101.9 189.02C99.9604 189.14 98.3604 189.24 97.1504 189.32C96.0304 189.39 95.4004 189.41 95.4004 189.38C95.4004 189.34 96.0104 189.25 97.1304 189.12C98.2504 188.98 99.8704 188.82 101.88 188.66C105.89 188.33 111.45 188.03 117.6 187.99C123.75 187.96 129.31 188.2 133.32 188.49C135.33 188.63 136.95 188.78 138.07 188.9C139.19 189.01 139.81 189.09 139.81 189.13Z" fill="#263238"/>
<path d="M141.77 170.21C141.73 170.35 135.26 168.66 127.31 166.45C119.36 164.23 112.95 162.32 112.99 162.18C113.03 162.04 119.5 163.73 127.45 165.94C135.4 168.16 141.81 170.07 141.77 170.21Z" fill="#263238"/>
<path d="M145.96 154.34C145.95 154.36 145.79 154.32 145.49 154.23C145.13 154.12 144.69 153.99 144.17 153.83C143.02 153.48 141.38 152.92 139.36 152.18C135.33 150.71 129.83 148.47 123.95 145.58C118.07 142.68 112.94 139.69 109.32 137.38C107.51 136.23 106.06 135.27 105.08 134.57C104.63 134.25 104.26 133.99 103.96 133.77C103.71 133.58 103.58 133.48 103.59 133.46C103.6 133.45 103.75 133.52 104.02 133.68C104.34 133.88 104.73 134.11 105.2 134.4C106.21 135.04 107.69 135.95 109.52 137.06C113.18 139.28 118.33 142.21 124.19 145.1C130.05 147.98 135.51 150.27 139.5 151.82C141.5 152.6 143.12 153.21 144.24 153.62C144.75 153.82 145.18 153.98 145.53 154.11C145.81 154.25 145.96 154.32 145.96 154.34Z" fill="#263238"/>
<path d="M155.37 138.39C155.29 138.51 150.22 135.09 144.06 130.75C137.9 126.41 132.97 122.8 133.05 122.68C133.13 122.56 138.19 125.98 144.36 130.32C150.52 134.66 155.45 138.28 155.37 138.39Z" fill="#263238"/>
<path d="M135.47 89.78C135.48 89.77 135.61 89.86 135.85 90.06C136.13 90.3 136.46 90.59 136.87 90.93C137.8 91.76 139.05 92.86 140.55 94.19C143.71 97.01 147.96 100.8 152.66 105C157.38 109.17 161.65 112.95 164.82 115.75C166.32 117.09 167.57 118.19 168.5 119.02C168.89 119.38 169.21 119.68 169.48 119.93C169.7 120.14 169.81 120.26 169.8 120.27C169.79 120.28 169.65 120.19 169.41 120.01C169.12 119.78 168.78 119.51 168.36 119.18C167.46 118.45 166.16 117.37 164.57 116.03C161.39 113.35 157.05 109.6 152.3 105.39C147.56 101.18 143.32 97.3 140.28 94.47C138.76 93.05 137.54 91.89 136.71 91.08C136.33 90.71 136.02 90.4 135.76 90.14C135.57 89.92 135.46 89.8 135.47 89.78Z" fill="#263238"/>
<path d="M166.67 90.69C166.7 90.67 166.94 90.92 167.35 91.38C167.76 91.85 168.34 92.54 169.03 93.41C170.42 95.15 172.27 97.6 174.19 100.4C176.11 103.2 177.72 105.82 178.84 107.75C179.4 108.71 179.83 109.5 180.12 110.05C180.41 110.6 180.55 110.92 180.52 110.93C180.45 110.97 179.72 109.81 178.53 107.93C177.34 106.06 175.68 103.48 173.77 100.69C171.86 97.9 170.06 95.42 168.75 93.63C167.43 91.85 166.61 90.74 166.67 90.69Z" fill="#263238"/>
<g opacity="0.2">
<path d="M126.7 82.19L170.2 120.28L181.01 111.63L155.77 72.95C155.77 72.95 153.84 74.37 148.81 75.81C143.94 77.2 129.61 77.57 126.7 82.19Z" fill="black"/>
</g>
<g opacity="0.2">
<path d="M175.13 49.97L196.37 103.14L209.94 98.89L205.42 52.77C205.42 52.77 203.08 53.32 197.9 52.66C192.87 52.02 180.68 47.25 175.13 49.97Z" fill="black"/>
</g>
<g opacity="0.3">
<path d="M231.771 38.83L233.191 96.57L245.911 97.18L258.791 52.86C258.541 52.84 255.221 52.26 251.301 49.76C246.901 46.95 237.931 38.38 231.771 38.83Z" fill="black"/>
</g>
<g opacity="0.2">
<path d="M287.251 49.74L266.141 102.97L277.631 108.46L306.681 72.6C306.461 72.48 303.711 70.19 301.161 66.11C298.401 61.69 293.681 51.52 287.251 49.74Z" fill="black"/>
</g>
<g opacity="0.2">
<path d="M336.831 82.96L297.511 123.94L306.271 135.75L344.691 110.11C344.691 110.11 343.081 107.55 342.161 102.63C341.241 97.64 341.101 88.57 336.831 82.96Z" fill="black"/>
</g>
<g opacity="0.2">
<path d="M367.87 129.22L314.92 151.01L319.31 164.54L365.38 159.54C365.38 159.54 365.09 158.12 365.7 152.92C366.28 147.89 371.56 136.66 367.87 129.22Z" fill="black"/>
</g>
<g opacity="0.2">
<path d="M379.58 186.9L321.86 188.92L321.38 201.65L365.42 214.53C365.44 214.28 365.83 211.8 367.17 209.27C370.4 203.15 379.58 194.51 379.58 186.9Z" fill="black"/>
</g>
<g opacity="0.2">
<path d="M368.95 241.49L315.8 220.77L310.42 232.32L346.58 261C346.69 260.78 348.8 258.82 352.86 256.24C357.27 253.42 367.73 248.88 368.95 241.49Z" fill="black"/>
</g>
<g opacity="0.2">
<path d="M290.77 240.66L277.62 251.7C278.62 252.74 296.15 282.54 306.95 300.96C307.1 300.85 307.24 300.72 307.39 300.62C314.51 295.86 327.16 297.77 334.3 293.05L290.77 240.66Z" fill="black"/>
<path d="M266.6 261.55L246.96 268.25L256.26 321.57C256.87 321.36 257.49 321.18 258.11 321.06C267.37 319.23 279.58 327.29 288.1 323.76C289.27 323.27 290.33 322.58 291.32 321.75L266.6 261.55Z" fill="black"/>
<path d="M230.73 334.96L233.87 265.3L216.89 261L204.25 320.98C204.41 321.01 204.56 321.03 204.72 321.06C213.49 322.79 221.51 334.41 230.73 334.96Z" fill="black"/>
<path d="M188.03 253.48C188.03 253.48 165.59 283.54 153.86 299.73C154.41 300 154.94 300.3 155.44 300.64C163.15 305.8 166.06 320.17 174.73 323.76C175.13 323.92 175.54 324.06 175.95 324.17L207.3 264.83L188.03 253.48Z" fill="black"/>
<path d="M165 229.28L117.14 262.18C117.32 262.42 117.52 262.65 117.69 262.89C122.89 270.66 120.12 285.04 126.7 291.62C127.31 292.23 128 292.73 128.72 293.19C145.63 274.13 175.99 239.91 177.09 238.72L165 229.28Z" fill="black"/>
<path d="M154.04 205.79L97.4497 214.93C98.3497 224.01 91.1997 235.47 94.5597 243.59C94.7697 244.09 95.0197 244.56 95.2897 245.02C115.09 235.16 156.47 214.65 158.19 214.54L154.04 205.79Z" fill="black"/>
<path d="M150.95 174.27L97.4601 158.83C97.4201 159.3 97.3601 159.76 97.2701 160.21C95.4901 169.2 83.3301 177.39 83.3301 186.9C83.3301 187.54 83.3901 188.17 83.4901 188.8H148.78L150.95 174.27Z" fill="black"/>
<path d="M94.7803 129.79C114.77 140.5 153.86 162.17 153.86 162.17L163.48 143.9L118.29 109.88C118.1 110.23 117.91 110.59 117.69 110.92C112.62 118.5 98.6703 121.46 94.7803 129.79Z" fill="black"/>
</g>
<path d="M379.5 186.9C379.5 186.9 379.47 186.69 379.44 186.27C379.39 185.85 379.41 185.21 379.18 184.41C378.87 182.78 377.95 180.43 376.18 177.71C374.46 174.95 371.86 171.86 369.15 167.95C367.83 165.98 366.45 163.76 365.72 161.1C364.99 158.43 365.13 155.42 365.7 152.39C366.25 149.34 367.16 146.2 367.96 142.87C368.69 139.56 369.49 135.94 368.75 132.26C368.36 130.44 367.49 128.71 366.27 127.2C365.03 125.7 363.47 124.44 361.82 123.25C358.5 120.89 354.69 119.01 351.03 116.55C349.21 115.32 347.41 113.94 345.93 112.19C344.43 110.44 343.46 108.26 342.8 106C341.51 101.45 341.23 96.59 340.25 91.72C339.75 89.3 339.08 86.84 337.79 84.66C336.53 82.46 334.48 80.76 332.09 79.73C329.71 78.67 327.09 78.13 324.44 77.69C321.79 77.25 319.07 76.94 316.35 76.46C313.63 75.97 310.85 75.33 308.33 73.94C305.8 72.56 303.82 70.34 302.17 67.97C300.51 65.58 299.08 63.02 297.56 60.5C296.04 57.98 294.44 55.45 292.36 53.29C290.29 51.16 287.52 49.62 284.47 49.42C281.43 49.19 278.36 49.77 275.33 50.49C272.29 51.22 269.25 52.11 266.09 52.7C262.96 53.31 259.6 53.53 256.43 52.52C253.31 51.44 250.56 49.54 247.9 47.59C245.24 45.63 242.64 43.54 239.78 41.81C236.94 40.13 233.7 38.74 230.33 39.11L229.7 39.16C229.49 39.2 229.29 39.25 229.09 39.29C228.68 39.39 228.27 39.46 227.86 39.58C227.07 39.87 226.25 40.11 225.5 40.5C223.95 41.19 222.5 42.12 221.07 43.07C218.22 45.01 215.54 47.24 212.62 49.22C211.18 50.23 209.63 51.12 208.02 51.88C206.39 52.62 204.61 53.06 202.81 53.2C199.19 53.38 195.63 52.56 192.14 51.68C188.64 50.8 185.14 49.8 181.54 49.45C179.74 49.3 177.92 49.38 176.17 49.81C174.41 50.23 172.85 51.23 171.47 52.39C168.71 54.8 166.78 58.04 164.87 61.22C162.96 64.42 161.14 67.76 158.6 70.63C157.32 72.04 155.84 73.33 154.1 74.2C152.36 75.05 150.52 75.62 148.64 76.06C144.88 76.88 141.04 77.24 137.26 77.92C133.52 78.6 129.62 79.66 126.85 82.35C125.51 83.72 124.58 85.44 123.89 87.24C123.19 89.05 122.79 90.97 122.43 92.89C121.73 96.75 121.41 100.71 120.47 104.6C120.02 106.55 119.36 108.47 118.34 110.23C117.32 111.99 115.92 113.51 114.33 114.76C111.17 117.3 107.58 119.18 104.14 121.28C102.43 122.34 100.74 123.44 99.1803 124.71C97.6503 126 96.2603 127.48 95.3003 129.23C94.3303 130.97 93.8903 132.98 93.9103 134.99C93.9003 137.01 94.2103 139.03 94.6103 141.02C95.4603 145.02 96.7203 148.95 97.4003 153.06C97.7503 155.11 97.8803 157.23 97.6103 159.32C97.3403 161.42 96.5303 163.41 95.5203 165.25C93.4403 168.91 90.7203 172.11 88.3103 175.51C87.0903 177.2 85.9703 178.97 85.0803 180.85C84.2003 182.72 83.5803 184.74 83.5703 186.81C83.5803 188.88 84.1903 190.9 85.0603 192.77C85.9403 194.65 87.0603 196.42 88.2803 198.11C90.6903 201.52 93.4103 204.72 95.5003 208.37C96.5103 210.2 97.3303 212.2 97.6003 214.3C97.8803 216.39 97.7603 218.51 97.4003 220.56C96.7303 224.67 95.4603 228.61 94.6103 232.61C94.2003 234.61 93.9003 236.63 93.9003 238.65C93.8803 240.67 94.3203 242.67 95.2803 244.42C96.2303 246.17 97.6203 247.66 99.1503 248.95C100.71 250.22 102.4 251.33 104.11 252.39C107.54 254.49 111.14 256.37 114.3 258.91C115.88 260.16 117.3 261.68 118.31 263.44C119.33 265.2 120 267.13 120.44 269.07C121.38 272.97 121.7 276.93 122.4 280.79C122.75 282.72 123.16 284.64 123.86 286.44C124.55 288.24 125.48 289.96 126.81 291.33C129.58 294.02 133.48 295.09 137.22 295.77C141.01 296.46 144.85 296.81 148.61 297.63C150.48 298.07 152.33 298.64 154.07 299.49C155.81 300.36 157.29 301.65 158.57 303.06C161.11 305.93 162.93 309.27 164.84 312.48C166.76 315.66 168.69 318.9 171.44 321.31C172.82 322.47 174.38 323.47 176.14 323.89C177.89 324.33 179.71 324.4 181.51 324.25C185.12 323.9 188.62 322.9 192.11 322.02C195.6 321.14 199.16 320.32 202.78 320.5C204.58 320.64 206.36 321.08 207.99 321.82C209.6 322.58 211.15 323.47 212.59 324.48C215.51 326.46 218.19 328.69 221.04 330.63C222.47 331.58 223.92 332.51 225.47 333.2C226.23 333.6 227.04 333.83 227.83 334.12C228.23 334.23 228.65 334.31 229.06 334.41C229.27 334.45 229.47 334.51 229.67 334.54L230.3 334.59C233.67 334.97 236.91 333.57 239.75 331.89C242.6 330.16 245.2 328.07 247.87 326.11C250.53 324.16 253.28 322.27 256.4 321.19C259.57 320.18 262.93 320.4 266.06 321.01C269.21 321.6 272.26 322.49 275.3 323.22C278.33 323.94 281.41 324.52 284.44 324.29C287.49 324.08 290.25 322.55 292.32 320.41C294.39 318.26 295.99 315.72 297.52 313.2C299.04 310.67 300.47 308.11 302.13 305.73C303.79 303.36 305.77 301.14 308.3 299.76C310.82 298.37 313.6 297.73 316.32 297.24C319.05 296.76 321.76 296.45 324.41 296.01C327.06 295.57 329.67 295.02 332.06 293.96C334.45 292.93 336.49 291.23 337.75 289.03C339.04 286.85 339.71 284.39 340.21 281.97C341.19 277.11 341.47 272.24 342.76 267.7C343.41 265.44 344.39 263.26 345.89 261.52C347.37 259.77 349.18 258.39 350.99 257.16C354.64 254.7 358.46 252.82 361.77 250.46C363.42 249.28 364.97 248.01 366.22 246.51C367.45 245 368.31 243.27 368.7 241.45C369.13 239.63 369.02 237.77 368.85 236C368.67 234.22 368.27 232.5 367.91 230.84C367.11 227.51 366.21 224.37 365.65 221.32C365.08 218.29 364.94 215.28 365.67 212.61C366.41 209.94 367.78 207.72 369.1 205.76C371.81 201.85 374.42 198.77 376.13 196C377.9 193.27 378.81 190.93 379.13 189.3C379.36 188.5 379.34 187.86 379.39 187.44C379.48 187.12 379.5 186.9 379.5 186.9C379.5 186.9 379.49 187.11 379.46 187.53C379.42 187.95 379.44 188.59 379.22 189.4C378.92 191.04 378.02 193.41 376.26 196.15C374.55 198.93 371.96 202.03 369.27 205.94C367.96 207.91 366.6 210.12 365.88 212.75C365.17 215.38 365.31 218.36 365.89 221.37C366.45 224.4 367.36 227.54 368.17 230.87C368.54 232.54 368.95 234.26 369.13 236.06C369.3 237.85 369.41 239.73 368.98 241.59C368.59 243.45 367.7 245.23 366.46 246.77C365.2 248.3 363.63 249.58 361.97 250.77C358.63 253.15 354.82 255.04 351.19 257.49C349.39 258.72 347.61 260.08 346.15 261.8C344.69 263.51 343.73 265.64 343.09 267.88C341.82 272.38 341.54 277.24 340.57 282.13C340.07 284.57 339.4 287.06 338.08 289.3C336.79 291.56 334.67 293.33 332.24 294.38C329.81 295.46 327.17 296.02 324.51 296.46C321.85 296.9 319.13 297.21 316.42 297.7C313.72 298.19 310.97 298.83 308.52 300.19C306.06 301.53 304.13 303.7 302.49 306.05C300.85 308.41 299.43 310.97 297.9 313.5C296.38 316.03 294.77 318.59 292.65 320.79C290.55 322.97 287.65 324.58 284.52 324.79C281.4 325.03 278.29 324.43 275.24 323.72C272.19 322.99 269.15 322.1 266.02 321.52C262.92 320.92 259.64 320.72 256.57 321.69C253.53 322.74 250.81 324.61 248.16 326.56C245.51 328.52 242.9 330.61 240.01 332.37C239.27 332.77 238.56 333.24 237.77 333.57C237.38 333.75 237 333.94 236.61 334.1L235.4 334.53C233.77 335.03 232.03 335.36 230.29 335.13L229.64 335.08C229.43 335.05 229.22 334.99 229 334.95C228.58 334.85 228.15 334.77 227.73 334.65C226.92 334.35 226.08 334.11 225.31 333.7C223.72 332.99 222.26 332.05 220.81 331.09C217.94 329.13 215.25 326.9 212.36 324.94C210.93 323.94 209.41 323.07 207.83 322.32C206.23 321.6 204.53 321.18 202.78 321.04C199.26 320.87 195.74 321.67 192.26 322.55C188.77 323.42 185.26 324.44 181.58 324.79C179.74 324.94 177.86 324.87 176.04 324.42C174.2 323.98 172.57 322.93 171.14 321.74C168.3 319.26 166.36 315.98 164.43 312.79C162.52 309.58 160.7 306.26 158.21 303.45C156.95 302.07 155.53 300.84 153.85 299.99C152.17 299.17 150.35 298.61 148.51 298.17C144.79 297.36 140.96 297 137.14 296.31C135.24 295.94 133.32 295.55 131.49 294.82C129.66 294.11 127.9 293.13 126.47 291.73C125.07 290.29 124.1 288.51 123.4 286.66C122.68 284.81 122.28 282.86 121.92 280.92C121.21 277.03 120.89 273.07 119.96 269.23C119.52 267.31 118.86 265.43 117.88 263.73C116.9 262.04 115.54 260.57 113.98 259.34C110.88 256.85 107.3 254.97 103.84 252.86C102.12 251.79 100.41 250.68 98.8203 249.38C97.2603 248.06 95.8203 246.53 94.8203 244.7C93.8203 242.88 93.3503 240.76 93.3803 238.69C93.3803 236.61 93.6903 234.56 94.1003 232.54C94.9503 228.51 96.2203 224.57 96.8803 220.52C97.2303 218.5 97.3503 216.43 97.0703 214.41C96.8003 212.39 96.0203 210.47 95.0303 208.67C92.9803 205.08 90.2703 201.88 87.8403 198.45C86.6203 196.74 85.4703 194.95 84.5703 193.03C83.6703 191.11 83.0403 189.01 83.0303 186.85C83.0503 184.68 83.6903 182.59 84.5903 180.67C85.4903 178.75 86.6403 176.96 87.8603 175.25C90.2903 171.83 93.0003 168.63 95.0403 165.04C96.0303 163.24 96.8103 161.31 97.0703 159.29C97.3303 157.27 97.2103 155.21 96.8703 153.19C96.2003 149.14 94.9403 145.2 94.0803 141.17C93.6703 139.15 93.3603 137.1 93.3703 135.02C93.3503 132.95 93.8103 130.84 94.8303 129.02C95.8303 127.19 97.2703 125.66 98.8303 124.35C100.42 123.05 102.13 121.94 103.85 120.87C107.3 118.76 110.88 116.88 113.98 114.39C115.54 113.16 116.89 111.69 117.87 110C118.85 108.3 119.5 106.42 119.94 104.5C120.86 100.66 121.19 96.7 121.9 92.82C122.26 90.88 122.67 88.93 123.38 87.08C124.08 85.23 125.05 83.45 126.45 82.01C127.88 80.61 129.65 79.63 131.48 78.92C133.31 78.2 135.23 77.8 137.13 77.44C140.95 76.75 144.78 76.4 148.49 75.58C150.34 75.15 152.15 74.58 153.83 73.76C155.51 72.92 156.93 71.68 158.19 70.3C160.68 67.49 162.49 64.17 164.4 60.97C166.33 57.78 168.26 54.51 171.11 52.02C172.54 50.82 174.17 49.78 176.01 49.34C177.83 48.89 179.71 48.81 181.55 48.97C185.22 49.33 188.74 50.34 192.23 51.21C195.71 52.09 199.23 52.89 202.75 52.72C204.5 52.59 206.2 52.16 207.8 51.45C209.38 50.7 210.9 49.83 212.33 48.83C215.22 46.87 217.91 44.64 220.78 42.68C222.23 41.72 223.69 40.78 225.28 40.07C226.05 39.67 226.89 39.42 227.7 39.12C228.12 39 228.55 38.92 228.97 38.82C229.18 38.78 229.39 38.72 229.61 38.68L230.26 38.63C231.99 38.4 233.74 38.74 235.37 39.23L236.58 39.66C236.98 39.82 237.35 40.02 237.74 40.19C238.53 40.52 239.24 40.99 239.98 41.39C242.87 43.15 245.47 45.24 248.13 47.2C250.78 49.15 253.5 51.01 256.54 52.07C259.6 53.04 262.88 52.85 265.98 52.24C269.1 51.66 272.14 50.77 275.2 50.04C278.25 49.32 281.36 48.73 284.48 48.96C287.62 49.16 290.51 50.77 292.62 52.95C294.74 55.15 296.34 57.71 297.87 60.23C299.39 62.76 300.81 65.32 302.46 67.68C304.1 70.03 306.03 72.2 308.49 73.54C310.94 74.9 313.69 75.54 316.39 76.03C319.1 76.51 321.81 76.83 324.48 77.27C327.14 77.71 329.78 78.27 332.21 79.35C334.64 80.4 336.77 82.17 338.06 84.42C339.38 86.66 340.06 89.15 340.55 91.59C341.53 96.48 341.8 101.34 343.07 105.84C343.72 108.07 344.66 110.21 346.13 111.92C347.58 113.64 349.36 115.01 351.16 116.23C354.79 118.68 358.6 120.57 361.94 122.95C363.6 124.14 365.17 125.42 366.43 126.95C367.68 128.49 368.56 130.27 368.96 132.12C369.39 133.98 369.27 135.86 369.11 137.65C368.93 139.45 368.52 141.17 368.15 142.84C367.35 146.18 366.43 149.31 365.87 152.34C365.29 155.36 365.15 158.33 365.86 160.96C366.58 163.59 367.94 165.81 369.25 167.77C371.94 171.68 374.54 174.78 376.24 177.56C378 180.3 378.9 182.67 379.2 184.31C379.42 185.12 379.39 185.76 379.44 186.18C379.49 186.69 379.5 186.9 379.5 186.9Z" fill="#263238"/>
<path d="M203.64 324.33C203.78 324.37 200.09 339.33 195.4 357.75C190.71 376.18 186.79 391.08 186.65 391.05C186.51 391.01 190.2 376.05 194.89 357.63C199.58 339.2 203.5 324.29 203.64 324.33Z" fill="#263238"/>
<path d="M231.411 277.68C281.547 277.68 322.191 237.036 322.191 186.9C322.191 136.764 281.547 96.12 231.411 96.12C181.274 96.12 140.631 136.764 140.631 186.9C140.631 237.036 181.274 277.68 231.411 277.68Z" fill="white"/>
<path d="M175.521 155.45C174.271 156.7 167.381 169.22 166.761 179.54C166.131 189.87 167.621 247.86 167.621 247.86L167.891 251.7C184.231 270.81 243.631 299.25 297.131 251.6L300.131 215.93L291.301 140.42L260.631 132.91L253.441 121.25L205.511 132.47L201.241 142.57L175.521 155.45Z" fill="#455A64"/>
<path d="M250.121 90.9C252.231 83.06 254.311 75.15 255.041 67.06C255.771 58.97 255.091 50.61 251.881 43.15C251.391 42.02 247.341 34.47 246.121 34.66C245.251 34.79 247.871 41.89 247.471 42.67C243.621 50.14 242.921 58.91 244.031 67.24C245.121 75.58 247.251 83.01 250.121 90.9Z" fill="#263238"/>
<path d="M249.321 59.91C248.931 39.54 236.761 22.79 216.401 23.74L214.521 23.94C195.651 25.93 181.461 42.08 181.921 61.05C182.351 78.7 183.061 98.2 184.161 107.58C186.451 127 206.211 127.97 206.211 127.97C206.251 127.97 207.121 140.74 207.121 140.74L215.471 149.81L254.181 125.83L249.321 59.91Z" fill="#FFBF9D"/>
<path d="M206.231 128.12C206.231 128.12 218.561 127.55 230.751 117.97C230.751 117.97 226.671 135.58 207.081 135.87L206.231 128.12Z" fill="#FF9A6C"/>
<path d="M249.251 74.47C249.571 74.29 262.191 69.11 263.171 82.45C264.151 95.79 250.561 94.02 250.501 93.63C250.451 93.25 249.251 74.47 249.251 74.47Z" fill="#FFBF9D"/>
<path d="M254.211 88.28C254.271 88.23 254.451 88.43 254.861 88.58C255.261 88.73 255.921 88.8 256.601 88.49C257.971 87.87 258.991 85.55 258.881 83.14C258.821 81.92 258.491 80.79 257.991 79.86C257.511 78.91 256.831 78.28 256.111 78.2C255.391 78.09 254.921 78.55 254.791 78.94C254.641 79.33 254.741 79.59 254.671 79.61C254.641 79.65 254.371 79.41 254.431 78.85C254.471 78.58 254.601 78.25 254.891 77.98C255.191 77.7 255.651 77.53 256.151 77.55C257.181 77.55 258.181 78.42 258.731 79.44C259.341 80.46 259.751 81.73 259.811 83.1C259.921 85.79 258.731 88.41 256.841 89.11C255.921 89.42 255.121 89.2 254.691 88.91C254.251 88.6 254.161 88.31 254.211 88.28Z" fill="#FF9A6C"/>
<path d="M189.141 38.38C186.901 37.33 192.931 29.92 198.091 27.17C205.881 23.01 217.981 19.99 225.511 21.61C234.581 23.56 242.261 27.52 247.251 35.33C252.241 43.15 254.531 52.48 254.871 61.75C254.971 64.58 254.871 67.54 253.521 70.02C251.851 73.09 248.391 75.18 248.811 79.24C248.961 80.72 248.641 82.25 247.691 83.4C245.421 86.15 242.271 83.91 240.741 81.55C237.471 76.51 236.741 70.29 236.101 64.32C235.641 60.08 235.191 55.74 236.131 51.57C236.641 49.3 237.551 47.13 237.941 44.84C238.321 42.55 238.091 39.99 236.571 38.24C236.321 37.95 235.921 37.6 235.421 37.21C231.431 34.14 226.071 33.49 221.441 35.47C214.101 38.61 201.521 43.41 198.001 41.07C192.941 37.71 191.631 35.39 191.631 35.39L189.141 38.38Z" fill="#263238"/>
<path d="M175.52 155.45C174.75 156.52 163.82 160.15 159.67 167.06C155.52 173.97 151.42 204.99 151.42 204.99L148.78 225.41C153.98 233.64 160.95 244.53 168.36 252.21L175.52 155.45Z" fill="#455A64"/>
<g opacity="0.3">
<path d="M257.641 185.4C258.101 189.56 258.571 193.77 260.001 197.71C261.431 201.64 263.941 205.34 267.611 207.37C269.141 208.22 270.881 208.78 272.161 209.97C273.541 211.25 274.231 213.11 275.481 214.52C276.931 216.16 279.031 217.07 281.091 217.81C287.201 219.98 293.231 221.01 299.711 220.78C299.911 218.64 299.921 210.78 300.121 208.64L257.641 185.4Z" fill="black"/>
</g>
<path d="M291.3 140.43C291.3 140.43 305.08 144.51 309.12 150.38C313.16 156.25 320.31 179.01 321.78 183.23C323.25 187.45 321.96 197.24 319.21 204.27C316.46 211.3 311.68 217.36 303.43 218.28C295.18 219.2 282.14 214.43 279.21 211.31C276.28 208.19 275.05 201.19 275.05 201.19C278.72 200.55 282.33 199.64 285.87 198.48" fill="#455A64"/>
<path d="M285.86 198.46C285.86 198.47 285.8 198.49 285.69 198.54C285.55 198.59 285.38 198.65 285.17 198.73C284.71 198.89 284.02 199.12 283.11 199.39C281.29 199.93 278.59 200.67 275.07 201.32L275.18 201.16C275.49 202.72 275.93 204.43 276.59 206.22C276.92 207.11 277.3 208.03 277.78 208.92C278.27 209.81 278.84 210.71 279.63 211.43C280.42 212.15 281.4 212.73 282.42 213.27C283.44 213.82 284.53 214.3 285.66 214.76C287.93 215.67 290.38 216.46 292.98 217.08C295.58 217.68 298.34 218.13 301.2 218.14C301.92 218.17 302.63 218.08 303.35 218.04C304.06 217.92 304.79 217.86 305.5 217.66C306.93 217.34 308.33 216.8 309.64 216.05C312.28 214.59 314.51 212.31 316.21 209.64C317.93 206.97 319.19 203.94 320.11 200.78C320.83 198.35 321.36 195.89 321.7 193.45C322.05 191.01 322.22 188.57 322.06 186.2C321.97 185.01 321.75 183.89 321.34 182.78C320.97 181.66 320.6 180.55 320.24 179.45C319.51 177.26 318.79 175.11 318.09 173.02C316.67 168.84 315.27 164.89 313.87 161.22C312.44 157.57 311.11 154.15 309.44 151.28C308.62 149.84 307.51 148.71 306.33 147.8C305.17 146.86 303.97 146.11 302.82 145.45C300.52 144.14 298.43 143.22 296.71 142.5C294.99 141.79 293.63 141.29 292.7 140.96C292.26 140.8 291.91 140.68 291.65 140.59C291.41 140.51 291.29 140.46 291.29 140.45C291.29 140.44 291.42 140.47 291.66 140.54C291.93 140.62 292.28 140.73 292.73 140.86C293.67 141.16 295.04 141.62 296.78 142.31C298.52 143 300.63 143.91 302.96 145.2C304.12 145.85 305.34 146.6 306.53 147.54C307.73 148.45 308.91 149.62 309.75 151.09C311.47 153.99 312.82 157.41 314.27 161.06C315.69 164.73 317.11 168.68 318.54 172.86C319.25 174.95 319.97 177.1 320.71 179.29C321.08 180.39 321.45 181.49 321.82 182.61C322.23 183.72 322.48 184.95 322.57 186.16C322.74 188.59 322.57 191.06 322.22 193.52C321.87 195.99 321.34 198.47 320.61 200.93C319.67 204.13 318.4 207.2 316.64 209.93C314.91 212.66 312.61 215 309.88 216.5C308.53 217.27 307.08 217.82 305.61 218.15C304.88 218.35 304.13 218.42 303.4 218.54C302.66 218.58 301.92 218.67 301.2 218.64C298.28 218.62 295.49 218.16 292.87 217.54C290.25 216.91 287.78 216.1 285.5 215.17C284.36 214.7 283.26 214.21 282.23 213.64C281.2 213.09 280.21 212.49 279.37 211.73C278.54 210.96 277.96 210.02 277.47 209.11C276.98 208.19 276.6 207.26 276.28 206.35C275.64 204.53 275.21 202.81 274.91 201.23L274.88 201.1L275.02 201.08C278.54 200.48 281.24 199.78 283.07 199.29C283.96 199.04 284.65 198.84 285.15 198.7C285.37 198.64 285.54 198.59 285.68 198.55C285.8 198.47 285.86 198.46 285.86 198.46Z" fill="#263238"/>
<path d="M311.14 191.1C311.04 191.12 310.72 189.4 309.57 186.86C308.44 184.33 306.41 180.98 303.35 178.03C301.83 176.55 300.14 175.43 298.52 174.59C298.1 174.4 297.7 174.22 297.3 174.05C296.91 173.87 296.49 173.79 296.11 173.66C295.34 173.38 294.59 173.31 293.9 173.2C293.73 173.17 293.56 173.15 293.4 173.12C293.24 173.12 293.08 173.12 292.92 173.12C292.61 173.12 292.32 173.12 292.04 173.12C291.49 173.09 291.02 173.19 290.63 173.24C289.86 173.35 289.43 173.4 289.42 173.36C289.41 173.33 289.83 173.21 290.6 173.04C290.99 172.95 291.46 172.82 292.02 172.83C292.31 172.82 292.61 172.8 292.92 172.79C293.08 172.78 293.25 172.78 293.41 172.77C293.58 172.79 293.75 172.81 293.93 172.83C294.64 172.92 295.42 172.97 296.22 173.24C296.62 173.36 297.05 173.44 297.46 173.62C297.87 173.8 298.29 173.98 298.72 174.16C300.4 175 302.15 176.14 303.7 177.65C306.82 180.66 308.84 184.1 309.9 186.71C310.17 187.36 310.41 187.96 310.56 188.5C310.72 189.04 310.88 189.49 310.94 189.88C311.11 190.66 311.18 191.09 311.14 191.1Z" fill="#263238"/>
<path d="M318.671 178.73C318.561 178.77 318.181 176.96 316.591 174.53C315.031 172.14 312.051 169.15 307.811 167.88C303.581 166.59 299.471 166.99 296.601 167.26C295.231 167.42 294.091 167.56 293.171 167.67C292.361 167.77 291.911 167.81 291.901 167.77C291.891 167.73 292.331 167.63 293.131 167.47C293.931 167.31 295.091 167.1 296.541 166.89C299.411 166.52 303.581 166.05 307.941 167.37C310.111 168.03 312.011 169.14 313.501 170.41C315.011 171.67 316.101 173.07 316.881 174.32C317.661 175.58 318.101 176.69 318.351 177.48C318.621 178.27 318.691 178.72 318.671 178.73Z" fill="#263238"/>
<path d="M308.27 163.94C308.23 164.11 304.64 162.95 300.08 163.16C295.51 163.32 292.02 164.75 291.97 164.58C291.95 164.52 292.78 164.09 294.23 163.63C295.67 163.17 297.74 162.73 300.06 162.63C302.38 162.54 304.47 162.82 305.95 163.17C307.42 163.51 308.29 163.88 308.27 163.94Z" fill="#263238"/>
<path d="M285.97 143.87C286.05 143.88 285.85 145.28 285.69 147.53C285.53 149.79 285.45 152.92 285.76 156.36C286.04 159.66 286.64 162.63 287.17 164.78L286.81 164.9C286.4 163.74 286.08 162.81 285.87 162.15C285.66 161.49 285.56 161.13 285.59 161.12C285.63 161.11 285.79 161.45 286.06 162.08C286.33 162.71 286.71 163.63 287.16 164.77L286.8 164.89C286.18 162.74 285.52 159.76 285.24 156.42C284.93 152.95 285.06 149.78 285.32 147.52C285.45 146.39 285.59 145.48 285.72 144.85C285.85 144.21 285.94 143.86 285.97 143.87Z" fill="#263238"/>
<path d="M266.49 118.21C266.49 118.21 259.34 118.21 258.44 126.81C257.75 133.41 258.44 139.82 258.44 142.71C258.44 145.6 257.17 155.88 257.17 155.88C257.17 155.88 252.29 160.21 252.37 165.41C252.45 170.64 256.17 172.23 256.17 172.23C256.17 172.23 253.9 177.18 258.23 181.73C258.23 181.73 256.15 186.52 257.86 189.75C259.18 192.25 262.15 193.08 262.15 193.08C262.15 193.08 260.04 197.8 265.11 199.79C268.11 200.96 272.54 200.7 272.54 200.7L277.88 200.6L282.58 203.2C282.58 203.2 290.63 199.69 290.84 194.94C291.05 190.19 291.05 190.19 291.05 190.19C291.05 190.19 288.78 182.35 288.57 179.87C288.36 177.39 290.43 171.41 289.19 168.72C287.95 166.04 283.62 164.46 284.03 160.71C284.44 156.96 283.62 154.89 281.76 152.83C279.9 150.77 271.69 146.64 271.69 146.64C271.69 146.64 269.58 140.65 269.58 136.52C269.59 132.38 273.72 119.79 266.49 118.21Z" fill="#FFBF9D"/>
<path d="M271.31 148.19C271.35 148.25 270.59 148.74 269.33 149.47C268.07 150.21 266.32 151.19 264.37 152.25C262.42 153.31 260.63 154.25 259.33 154.9C258.03 155.55 257.2 155.93 257.17 155.86C257.14 155.8 257.9 155.31 259.15 154.57C260.41 153.83 262.16 152.85 264.11 151.79C266.06 150.73 267.84 149.8 269.15 149.14C270.45 148.51 271.27 148.13 271.31 148.19Z" fill="#FF9A6C"/>
<path d="M276.011 164.36C276.031 164.39 275.811 164.59 275.391 164.92C274.971 165.26 274.341 165.71 273.531 166.23C271.921 167.28 269.571 168.56 266.831 169.61C264.081 170.66 261.481 171.27 259.581 171.57C258.631 171.72 257.861 171.81 257.321 171.84C256.781 171.87 256.491 171.88 256.481 171.84C256.471 171.76 257.641 171.6 259.511 171.21C261.381 170.82 263.931 170.16 266.641 169.13C269.351 168.09 271.691 166.88 273.341 165.92C274.981 164.96 275.961 164.29 276.011 164.36Z" fill="#FF9A6C"/>
<path d="M282.15 159.22C282.28 159.26 282.01 160.18 281.16 160.95C280.32 161.72 279.38 161.9 279.35 161.77C279.3 161.63 280.07 161.26 280.81 160.56C281.57 159.88 282.01 159.15 282.15 159.22Z" fill="#FF9A6C"/>
<path d="M279.2 178.52C279.22 178.58 278.09 179.04 276.21 179.62C274.33 180.2 271.68 180.86 268.71 181.34C265.74 181.82 263.02 182.02 261.05 182.06C259.08 182.11 257.86 182.02 257.86 181.96C257.86 181.88 259.07 181.83 261.03 181.69C262.98 181.55 265.68 181.3 268.63 180.82C271.58 180.34 274.21 179.74 276.11 179.26C278.01 178.78 279.18 178.44 279.2 178.52Z" fill="#FF9A6C"/>
<path d="M285.73 177.33C285.66 177.29 285.97 176.74 286.28 175.8C286.59 174.86 286.85 173.5 286.67 172.01C286.49 170.52 285.92 169.25 285.4 168.42C284.88 167.58 284.45 167.12 284.51 167.06C284.55 167.01 285.08 167.38 285.71 168.21C286.33 169.03 287.01 170.36 287.2 171.95C287.39 173.54 287.05 174.99 286.64 175.93C286.22 176.88 285.78 177.36 285.73 177.33Z" fill="#FF9A6C"/>
<path d="M279.57 192.99C279.58 193.05 278.62 193.32 277.03 193.59C275.44 193.86 273.21 194.09 270.74 194.08C268.27 194.07 266.05 193.83 264.46 193.55C262.87 193.28 261.91 193 261.92 192.94C261.94 192.86 262.92 193.01 264.51 193.19C266.1 193.37 268.3 193.55 270.74 193.56C273.18 193.56 275.38 193.4 276.98 193.22C278.57 193.06 279.56 192.92 279.57 192.99Z" fill="#FF9A6C"/>
<path d="M266.881 136.63C266.911 136.69 266.561 136.95 265.891 137.19C265.231 137.43 264.231 137.6 263.151 137.47C262.071 137.34 261.141 136.94 260.551 136.55C259.961 136.16 259.681 135.82 259.721 135.77C259.811 135.64 261.171 136.73 263.211 136.95C265.241 137.22 266.821 136.48 266.881 136.63Z" fill="#FF9A6C"/>
<path d="M287.22 177.93C287.25 177.93 287.31 178.2 287.33 178.7C287.35 179.2 287.28 179.93 287.08 180.81C286.89 181.69 286.56 182.7 286.24 183.81C285.94 184.92 285.65 186.18 285.87 187.45C286.04 188.71 286.99 189.74 287.14 191.03C287.31 192.29 286.81 193.36 286.35 194.12C285.87 194.89 285.4 195.44 285.06 195.8C284.72 196.16 284.51 196.35 284.49 196.32C284.41 196.26 285.18 195.44 286.04 193.93C286.44 193.18 286.85 192.18 286.67 191.09C286.55 190 285.59 188.98 285.36 187.53C285.12 186.11 285.46 184.79 285.79 183.67C286.14 182.54 286.5 181.56 286.73 180.71C287.23 179.04 287.13 177.94 287.22 177.93Z" fill="#FF9A6C"/>
<path d="M289.91 184.22C289.94 184.21 290.07 184.54 290.25 185.16C290.43 185.77 290.67 186.67 290.9 187.8C291.12 188.93 291.34 190.28 291.38 191.81C291.41 193.33 291.26 195.07 290.48 196.71C289.68 198.32 288.52 199.59 287.41 200.63C286.29 201.66 285.18 202.48 284.23 203.12C283.28 203.76 282.49 204.24 281.93 204.56C281.37 204.87 281.05 205.03 281.03 205C280.99 204.93 282.18 204.18 284.02 202.83C284.93 202.15 286 201.32 287.08 200.29C288.15 199.25 289.26 198.02 290.01 196.5C290.74 194.98 290.91 193.32 290.9 191.83C290.89 190.34 290.71 189 290.54 187.87C290.16 185.61 289.83 184.23 289.91 184.22Z" fill="#263238"/>
<path d="M214.45 150.93C214.43 150.96 214.02 150.65 213.29 150.06C212.5 149.41 211.48 148.56 210.26 147.55C209.62 147.01 208.92 146.42 208.18 145.8C207.81 145.49 207.43 145.16 207 144.95C206.57 144.74 206.09 144.68 205.66 144.9C204.8 145.35 204.22 146.46 203.48 147.38C202.77 148.34 202.03 149.33 201.28 150.35C200.07 151.97 198.91 153.52 197.84 154.96L197.19 155.82L197.4 154.76C198.1 151.14 199.08 148.12 199.89 146.04C200.29 145 200.65 144.18 200.91 143.63C201.17 143.08 201.33 142.79 201.35 142.8C201.38 142.81 201.27 143.12 201.06 143.69C200.85 144.26 200.54 145.09 200.18 146.14C199.46 148.25 198.55 151.26 197.89 154.85L197.45 154.66C198.52 153.22 199.67 151.66 200.87 150.04C201.63 149.03 202.37 148.04 203.08 147.08C203.44 146.6 203.79 146.13 204.14 145.67C204.5 145.21 204.9 144.74 205.46 144.47C206.03 144.18 206.72 144.28 207.21 144.54C207.71 144.8 208.1 145.15 208.47 145.47C209.19 146.11 209.87 146.71 210.5 147.27C211.68 148.33 212.66 149.22 213.42 149.9C214.11 150.54 214.48 150.9 214.45 150.93Z" fill="#263238"/>
<path d="M256.68 142.47C256.69 142.48 256.56 142.6 256.29 142.82C255.97 143.07 255.58 143.37 255.11 143.74C254.01 144.57 252.52 145.69 250.7 147.06C246.89 149.86 241.72 153.67 235.99 157.89L235.77 158.05L235.62 157.82C235.5 157.64 235.38 157.44 235.26 157.25C232.55 152.97 230.02 148.98 227.88 145.59L228.15 145.68C224.62 147.08 221.84 148.62 219.95 149.77C219 150.34 218.28 150.82 217.78 151.14C217.28 151.46 217.02 151.63 217 151.61C216.99 151.59 217.23 151.39 217.7 151.03C218.17 150.67 218.88 150.16 219.81 149.55C221.67 148.34 224.43 146.73 227.98 145.27L228.15 145.2L228.25 145.36C230.41 148.73 232.96 152.71 235.7 156.97C235.82 157.17 235.95 157.36 236.06 157.54L235.69 157.47C241.46 153.3 246.66 149.54 250.5 146.77C252.36 145.46 253.88 144.38 255 143.59C255.5 143.25 255.91 142.97 256.24 142.75C256.51 142.55 256.67 142.46 256.68 142.47Z" fill="#263238"/>
<path d="M166.93 182.24C166.95 182.24 166.97 182.48 166.98 182.95C166.99 183.46 167.01 184.14 167.04 184.97C167.07 186.79 167.12 189.32 167.18 192.41C167.3 198.69 167.55 207.37 167.88 216.96C168.21 226.55 168.4 235.24 168.42 241.52C168.43 244.66 168.42 247.21 168.39 248.97C168.37 249.81 168.36 250.48 168.35 250.99C168.33 251.45 168.32 251.7 168.3 251.7C168.28 251.7 168.26 251.46 168.25 250.99C168.24 250.48 168.22 249.8 168.19 248.97C168.16 247.15 168.11 244.63 168.05 241.53C167.93 235.25 167.68 226.57 167.35 216.98C167.02 207.39 166.83 198.71 166.81 192.42C166.8 189.28 166.81 186.73 166.84 184.97C166.86 184.13 166.87 183.46 166.88 182.95C166.9 182.49 166.91 182.24 166.93 182.24Z" fill="#263238"/>
<path d="M214.78 272.57C214.77 272.57 214.75 272.47 214.73 272.28C214.71 272.06 214.67 271.78 214.63 271.43C214.55 270.64 214.45 269.55 214.31 268.16C214.03 265.32 213.71 261.2 213.39 256.11C213.06 251.02 212.8 244.95 212.62 238.2C212.47 231.45 212.44 224.03 212.6 216.25C212.78 208.46 213.14 201.05 213.58 194.31C214.05 187.58 214.58 181.52 215.12 176.45C215.66 171.38 216.16 167.28 216.56 164.45C216.76 163.07 216.91 161.98 217.02 161.2C217.07 160.85 217.12 160.58 217.15 160.36C217.18 160.17 217.2 160.07 217.21 160.07C217.22 160.07 217.22 160.17 217.2 160.36C217.18 160.58 217.15 160.86 217.12 161.21C217.03 161.99 216.91 163.09 216.75 164.47C216.41 167.3 215.97 171.41 215.48 176.48C214.98 181.55 214.49 187.61 214.05 194.34C213.64 201.07 213.29 208.48 213.11 216.26C212.95 224.04 212.97 231.45 213.09 238.19C213.24 244.93 213.46 251 213.74 256.09C214.01 261.18 214.28 265.3 214.49 268.15C214.58 269.54 214.66 270.64 214.71 271.43C214.73 271.78 214.74 272.06 214.75 272.28C214.79 272.47 214.79 272.57 214.78 272.57Z" fill="#263238"/>
<path d="M184.991 108.88C184.991 108.88 184.641 109.13 183.931 109.59C183.221 110.05 182.171 110.73 180.801 111.62C179.431 112.51 177.841 113.78 175.901 115.19C174.941 115.91 173.991 116.78 172.921 117.65C172.391 118.09 171.851 118.55 171.291 119.02C170.741 119.5 170.211 120.04 169.641 120.57C165.091 124.8 159.931 130.48 155.181 137.93C154.601 138.87 154.001 139.82 153.401 140.79C152.771 141.75 152.291 142.81 151.711 143.83C151.171 144.88 150.561 145.91 150.041 147.01C149.541 148.12 149.021 149.24 148.501 150.38C148.251 150.95 147.961 151.52 147.731 152.11C147.501 152.7 147.281 153.3 147.051 153.9C146.601 155.11 146.111 156.32 145.671 157.56C144.931 160.1 144.001 162.65 143.441 165.38C142.051 170.76 141.291 176.56 140.981 182.61C140.631 188.66 140.991 195 142.031 201.45C144.141 214.32 149.211 227.72 157.841 239.63C166.361 251.58 178.401 261.97 192.851 268.8C207.281 275.67 224.161 278.64 241.021 276.9C257.901 275.15 273.721 268.5 286.391 258.79C289.581 256.39 292.521 253.72 295.331 250.99C296.011 250.28 296.681 249.58 297.361 248.87C298.041 248.17 298.701 247.46 299.331 246.71C299.971 245.98 300.601 245.24 301.231 244.51C301.831 243.75 302.421 242.99 303.021 242.24C307.771 236.19 311.521 229.6 314.491 222.89C317.451 216.17 319.411 209.22 320.611 202.38C321.231 198.96 321.571 195.54 321.801 192.17C321.911 190.49 321.901 188.81 321.961 187.15C321.931 185.49 321.841 183.85 321.781 182.21C321.751 181.39 321.721 180.58 321.681 179.77C321.631 178.96 321.501 178.17 321.411 177.37C321.221 175.78 321.031 174.2 320.841 172.63C320.591 171.08 320.231 169.55 319.941 168.04C319.631 166.53 319.371 165.01 318.901 163.57C318.481 162.11 318.071 160.67 317.651 159.24C317.471 158.52 317.211 157.83 316.941 157.14C316.681 156.45 316.421 155.77 316.171 155.09C315.641 153.74 315.201 152.36 314.611 151.07C314.011 149.78 313.411 148.51 312.821 147.25C307.991 137.23 301.791 129.13 295.571 122.88C289.321 116.61 283.041 112.22 277.741 108.99C276.391 108.22 275.121 107.48 273.921 106.8C273.331 106.44 272.731 106.16 272.141 105.88C271.561 105.6 271.001 105.34 270.461 105.08C269.381 104.56 268.381 104.09 267.471 103.65C266.571 103.19 265.681 102.93 264.931 102.62C263.411 102.03 262.251 101.58 261.451 101.27C260.671 100.96 260.271 100.79 260.271 100.79C260.271 100.79 260.681 100.93 261.471 101.22C262.271 101.52 263.441 101.95 264.971 102.52C265.731 102.83 266.621 103.08 267.531 103.53C268.451 103.96 269.451 104.43 270.541 104.94C271.081 105.19 271.651 105.46 272.231 105.73C272.821 106 273.431 106.28 274.021 106.64C275.221 107.32 276.501 108.05 277.861 108.82C283.181 112.03 289.501 116.41 295.791 122.68C302.051 128.93 308.301 137.04 313.171 147.1C313.761 148.36 314.361 149.64 314.971 150.93C315.571 152.22 316.011 153.61 316.551 154.96C316.811 155.64 317.071 156.33 317.331 157.02C317.601 157.71 317.861 158.4 318.041 159.13C318.461 160.56 318.871 162.01 319.301 163.47C319.771 164.92 320.041 166.44 320.361 167.96C320.661 169.48 321.021 171.01 321.271 172.57C321.461 174.14 321.661 175.73 321.851 177.33C321.941 178.13 322.071 178.93 322.121 179.74C322.151 180.55 322.191 181.37 322.221 182.19C322.281 183.83 322.371 185.48 322.411 187.15C322.361 188.82 322.361 190.5 322.251 192.19C322.031 195.57 321.691 199.01 321.071 202.45C319.871 209.33 317.901 216.31 314.941 223.08C311.971 229.83 308.201 236.46 303.431 242.54C302.831 243.3 302.231 244.06 301.631 244.82C300.991 245.55 300.361 246.29 299.721 247.03C299.091 247.78 298.431 248.5 297.741 249.2C297.061 249.91 296.381 250.62 295.701 251.33C292.871 254.07 289.921 256.76 286.711 259.18C273.981 268.96 258.071 275.64 241.091 277.4C224.141 279.16 207.161 276.17 192.651 269.25C178.111 262.37 166.021 251.92 157.461 239.9C148.801 227.92 143.711 214.44 141.611 201.51C140.571 195.03 140.221 188.67 140.581 182.58C140.901 176.5 141.681 170.68 143.081 165.28C143.651 162.54 144.591 159.98 145.341 157.44C145.791 156.19 146.281 154.98 146.731 153.77C146.961 153.17 147.191 152.57 147.421 151.97C147.661 151.38 147.941 150.81 148.201 150.24C148.721 149.1 149.241 147.97 149.751 146.86C150.271 145.76 150.891 144.72 151.441 143.67C152.021 142.64 152.511 141.58 153.141 140.62C153.751 139.65 154.351 138.69 154.931 137.76C159.721 130.3 164.921 124.62 169.501 120.41C170.071 119.88 170.611 119.34 171.161 118.86C171.731 118.39 172.271 117.93 172.811 117.49C173.881 116.62 174.851 115.76 175.811 115.04C177.761 113.65 179.361 112.39 180.751 111.51C182.131 110.64 183.191 109.97 183.911 109.52C184.611 109.1 184.991 108.88 184.991 108.88Z" fill="#263238"/>
</g>
<defs>
<clipPath id="clip0_311_4364">
<rect width="393.12" height="439.13" fill="white"/>
</clipPath>
</defs>
</svg>
