<svg width="59" height="43" viewBox="0 0 59 43" fill="none" xmlns="http://www.w3.org/2000/svg">
<path d="M41.2533 17.9872C42.2416 17.6531 43.2198 17.4325 44.223 17.3218C50.2658 16.6564 55.7679 19.9435 57.9429 25.0342C59.8526 29.5061 58.8624 34.7085 55.3966 38.1957C52.5804 41.0296 49.136 42.3055 45.1593 42.1845C43.0653 42.1203 41.069 41.6615 39.2151 40.662C36.8428 39.3832 35.1397 37.4679 33.9429 35.0789C32.9201 33.0389 32.3533 30.8648 32.1448 28.6024C31.5892 22.5689 32.9964 16.9635 35.9354 11.7164C37.8573 8.28594 40.3943 5.3804 43.5697 3.04629C45.2356 1.82247 47.0253 0.818278 48.9406 0.0421058C49.0495 -0.00163737 49.1947 -0.0100106 49.3073 0.0207015C50.4836 0.346435 51.0197 1.74615 50.3673 2.78013C50.3087 2.87319 50.2202 2.9523 50.1346 3.02396C48.2249 4.60423 46.4203 6.29153 44.8596 8.22452C43.4906 9.91926 42.3459 11.7434 41.687 13.8392C41.2858 15.1161 41.1221 16.4209 41.2198 17.7573C41.2254 17.8253 41.2393 17.8904 41.2533 17.9872Z" fill="#FFC41F"/>
<path d="M9.22544 17.9562C9.83781 17.8017 10.4251 17.6267 11.0235 17.5076C16.5516 16.4066 22.1356 18.7194 25.0328 23.3327C28.1319 28.268 27.2729 34.6272 22.9695 38.5975C20.1952 41.1568 16.8932 42.3052 13.1342 42.1842C11.1975 42.1219 9.33898 41.7245 7.59398 40.8655C5.17518 39.6761 3.3976 37.8306 2.13004 35.4741C1.003 33.3801 0.388762 31.1279 0.143996 28.7743C-0.38369 23.7133 0.560002 18.8934 2.6177 14.2754C4.40272 10.2689 6.9453 6.81799 10.3255 4.00366C12.3218 2.34056 14.5256 1.01808 16.9323 0.0371581C17.0347 -0.00472346 17.1715 -0.0112351 17.2785 0.0176154C18.4539 0.334972 19.0021 1.73655 18.359 2.77052C18.305 2.858 18.2259 2.93432 18.1459 3.00133C16.2436 4.57788 14.4418 6.2568 12.8802 8.18049C11.5996 9.75796 10.5116 11.4499 9.82572 13.3773C9.31478 14.8124 9.07746 16.2885 9.21055 17.8138C9.21241 17.8585 9.21892 17.9032 9.22544 17.9562Z" fill="#FFC41F"/>
</svg>
