<svg width="78" height="75" viewBox="0 0 78 75" fill="none" xmlns="http://www.w3.org/2000/svg">
<path d="M0 36.9253C0 36.4183 0 35.9103 0 35.4033C0.517945 34.6118 0.896885 33.67 1.57288 33.0516C13.0467 22.5474 24.5558 12.0812 36.0639 1.6141C37.9443 -0.0963386 40.0494 -0.0982449 41.9279 1.61029C53.436 12.0765 64.9384 22.5512 76.4379 33.0269C77.9127 34.3701 78.3459 35.9702 77.7261 37.6112C77.0958 39.2798 75.681 40.1921 73.653 40.2111C72.181 40.2254 70.7081 40.2121 69.2352 40.2159C68.9696 40.2168 68.7039 40.2425 68.4012 40.2587C68.4012 40.6478 68.4012 40.9493 68.4012 41.2509C68.4012 51.3974 68.4021 61.544 68.4002 71.6905C68.4002 73.5427 67.5576 74.397 65.7172 74.3989C59.599 74.4036 53.4798 74.4027 47.3615 74.3989C45.4688 74.3979 44.6357 73.5541 44.6347 71.6544C44.6328 65.6422 44.6338 59.6309 44.6338 53.6187C44.6338 53.3485 44.6338 53.0784 44.6338 52.8015C40.8311 52.8015 37.1169 52.8015 33.3608 52.8015C33.3608 53.1316 33.3608 53.4075 33.3608 53.6834C33.3608 59.6195 33.3608 65.5546 33.3608 71.4907C33.3608 73.6102 32.5849 74.3989 30.4931 74.3998C24.4758 74.4017 18.4594 74.4017 12.4421 74.3998C10.3894 74.3989 9.59438 73.6026 9.59438 71.5497C9.59343 61.4289 9.59438 51.3071 9.59438 41.1862C9.59438 40.8884 9.59438 40.5907 9.59438 40.2121C7.79395 40.2121 6.07443 40.2083 4.35493 40.213C2.8706 40.2168 1.59669 39.7573 0.746459 38.4826C0.43036 38.0107 0.244691 37.4485 0 36.9253Z" fill="#595959"/>
<path d="M52.6609 4.93226C53.0874 4.93226 53.514 4.93226 53.9406 4.93226C58.4078 4.93226 62.8751 4.93036 67.3424 4.93321C69.2475 4.93416 70.0863 5.76751 70.0882 7.65298C70.0911 11.8121 70.0892 15.9711 70.0892 20.1312C70.0892 20.3519 70.0892 20.5726 70.0892 20.9902C64.1681 15.6115 58.3821 10.3547 52.5952 5.09779C52.6171 5.04261 52.639 4.98744 52.6609 4.93226Z" fill="#595959"/>
</svg>
