<svg width="518" height="533" viewBox="0 0 518 533" fill="none" xmlns="http://www.w3.org/2000/svg">
<g clip-path="url(#clip0_342_4736)">
<path d="M433.874 533V424.287L391.715 366.717V316.072" stroke="#EBEBEB" stroke-miterlimit="10"/>
<path d="M395.457 312.392C395.457 314.462 393.784 316.136 391.716 316.136C389.647 316.136 387.975 314.462 387.975 312.392C387.975 310.323 389.647 308.649 391.716 308.649C393.784 308.636 395.457 310.323 395.457 312.392Z" stroke="#EBEBEB" stroke-miterlimit="10"/>
<path d="M423.02 533V431.25L380.861 373.667V345.662" stroke="#EBEBEB" stroke-miterlimit="10"/>
<path d="M384.603 341.982C384.603 344.052 382.93 345.726 380.862 345.726C378.794 345.726 377.121 344.052 377.121 341.982C377.121 339.913 378.794 338.239 380.862 338.239C382.93 338.226 384.603 339.913 384.603 341.982Z" stroke="#EBEBEB" stroke-miterlimit="10"/>
<path d="M444.33 533V359.984" stroke="#EBEBEB" stroke-miterlimit="10"/>
<path d="M448.083 356.241C448.083 358.31 446.411 359.984 444.343 359.984C442.274 359.984 440.602 358.31 440.602 356.241C440.602 354.171 442.274 352.497 444.343 352.497C446.398 352.484 448.083 354.171 448.083 356.241Z" stroke="#EBEBEB" stroke-miterlimit="10"/>
<path d="M454.404 532.042V441.79L483.03 387.772V276.836" stroke="#EBEBEB" stroke-miterlimit="10"/>
<path d="M486.771 273.08C486.771 275.15 485.098 276.823 483.03 276.823C480.962 276.823 479.289 275.15 479.289 273.08C479.289 271.01 480.962 269.336 483.03 269.336C485.098 269.336 486.771 271.01 486.771 273.08Z" stroke="#EBEBEB" stroke-miterlimit="10"/>
<path d="M464.414 532.233V447.565L498.159 387.836V324.057" stroke="#EBEBEB" stroke-miterlimit="10"/>
<path d="M501.914 320.314C501.914 322.383 500.241 324.057 498.173 324.057C496.104 324.057 494.432 322.383 494.432 320.314C494.432 318.244 496.104 316.57 498.173 316.57C500.228 316.557 501.914 318.244 501.914 320.314Z" stroke="#EBEBEB" stroke-miterlimit="10"/>
<path d="M84.127 533V311.575L126.286 253.992V203.36" stroke="#EBEBEB" stroke-miterlimit="10"/>
<path d="M122.545 199.668C122.545 201.737 124.217 203.411 126.286 203.411C128.354 203.411 130.027 201.737 130.027 199.668C130.027 197.598 128.354 195.924 126.286 195.924C124.217 195.924 122.545 197.598 122.545 199.668Z" stroke="#EBEBEB" stroke-miterlimit="10"/>
<path d="M94.9805 533V318.525L137.14 260.955V232.949" stroke="#EBEBEB" stroke-miterlimit="10"/>
<path d="M133.398 229.257C133.398 231.327 135.071 233.001 137.139 233.001C139.208 233.001 140.88 231.327 140.88 229.257C140.88 227.187 139.208 225.514 137.139 225.514C135.071 225.514 133.398 227.187 133.398 229.257Z" stroke="#EBEBEB" stroke-miterlimit="10"/>
<path d="M73.6699 533V190.903" stroke="#EBEBEB" stroke-miterlimit="10"/>
<path d="M69.916 187.16C69.916 189.229 71.5886 190.903 73.657 190.903C75.7253 190.903 77.3979 189.229 77.3979 187.16C77.3979 185.09 75.7253 183.416 73.657 183.416C71.6014 183.403 69.916 185.09 69.916 187.16Z" stroke="#EBEBEB" stroke-miterlimit="10"/>
<path d="M63.596 532.042V329.078L34.9707 275.047V150.019" stroke="#EBEBEB" stroke-miterlimit="10"/>
<path d="M31.2305 146.275C31.2305 148.345 32.903 150.019 34.9714 150.019C37.0398 150.019 38.7124 148.345 38.7124 146.275C38.7124 144.206 37.0398 142.532 34.9714 142.532C32.903 142.532 31.2305 144.206 31.2305 146.275Z" stroke="#EBEBEB" stroke-miterlimit="10"/>
<path d="M53.5869 532.233V334.84L19.8418 275.124V197.253" stroke="#EBEBEB" stroke-miterlimit="10"/>
<path d="M16.0879 193.496C16.0879 195.566 17.7605 197.24 19.8288 197.24C21.8972 197.24 23.5698 195.566 23.5698 193.496C23.5698 191.427 21.8972 189.753 19.8288 189.753C17.7732 189.753 16.0879 191.427 16.0879 193.496Z" stroke="#EBEBEB" stroke-miterlimit="10"/>
<g opacity="0.5">
<path d="M71.0023 86.342C52.6806 86.342 37.7679 101.265 37.7679 119.599C37.7679 137.933 52.6678 152.842 71.0023 152.842C89.3113 152.842 104.211 137.933 104.211 119.599C104.211 101.252 89.3113 86.342 71.0023 86.342ZM71.0023 145.752C56.5365 145.752 44.8412 134.036 44.8412 119.586C44.8412 105.123 56.5365 93.4073 71.0023 93.4073C85.4426 93.4073 97.1379 105.123 97.1379 119.586C97.1379 134.036 85.4426 145.752 71.0023 145.752ZM71.0023 86.342C52.6806 86.342 37.7679 101.265 37.7679 119.599C37.7679 137.933 52.6678 152.842 71.0023 152.842C89.3113 152.842 104.211 137.933 104.211 119.599C104.211 101.252 89.3113 86.342 71.0023 86.342ZM71.0023 145.752C56.5365 145.752 44.8412 134.036 44.8412 119.586C44.8412 105.123 56.5365 93.4073 71.0023 93.4073C85.4426 93.4073 97.1379 105.123 97.1379 119.586C97.1379 134.036 85.4426 145.752 71.0023 145.752ZM71.0023 63.5364C40.0661 63.5364 14.9902 88.629 14.9902 119.586C14.9902 150.53 40.0661 175.623 71.0023 175.623C101.913 175.623 126.989 150.53 126.989 119.586C127.002 88.629 101.913 63.5364 71.0023 63.5364ZM71.0023 156.024C50.9187 156.024 34.576 139.683 34.576 119.586C34.576 99.5015 50.9187 83.1479 71.0023 83.1479C91.0732 83.1479 107.403 99.5015 107.403 119.586C107.403 139.683 91.0732 156.024 71.0023 156.024ZM71.0023 86.342C52.6806 86.342 37.7679 101.265 37.7679 119.599C37.7679 137.933 52.6678 152.842 71.0023 152.842C89.3113 152.842 104.211 137.933 104.211 119.599C104.211 101.252 89.3113 86.342 71.0023 86.342ZM71.0023 145.752C56.5365 145.752 44.8412 134.036 44.8412 119.586C44.8412 105.123 56.5365 93.4073 71.0023 93.4073C85.4426 93.4073 97.1379 105.123 97.1379 119.586C97.1379 134.036 85.4426 145.752 71.0023 145.752Z" fill="#EBEBEB"/>
<path d="M77.5649 64.5585H64.7461L66.0229 51.7439H76.2881L77.5649 64.5585Z" fill="#EBEBEB"/>
<path d="M49.1937 68.6341L38.0857 75.0478L32.7871 63.3192L41.6862 58.1831L49.1937 68.6341Z" fill="#EBEBEB"/>
<path d="M26.6592 86.3675L20.237 97.4828L9.79297 89.9704L14.9256 81.0781L26.6592 86.3675Z" fill="#EBEBEB"/>
<path d="M15.9984 113.006V125.833L3.20508 124.556V114.284L15.9984 113.006Z" fill="#EBEBEB"/>
<path d="M20.071 141.395L26.4931 152.51L14.7596 157.813L9.62695 148.907L20.071 141.395Z" fill="#EBEBEB"/>
<path d="M37.7937 163.945L48.9016 170.372L41.3942 180.822L32.5078 175.686L37.7937 163.945Z" fill="#EBEBEB"/>
<path d="M64.4141 174.613H77.2329L75.9561 187.428H65.6908L64.4141 174.613Z" fill="#EBEBEB"/>
<path d="M92.7969 170.538L103.892 164.111L109.191 175.852L100.292 180.989L92.7969 170.538Z" fill="#EBEBEB"/>
<path d="M115.332 152.804L121.741 141.689L132.185 149.201L127.053 158.093L115.332 152.804Z" fill="#EBEBEB"/>
<path d="M125.98 126.165V113.338L138.787 114.616V124.888L125.98 126.165Z" fill="#EBEBEB"/>
<path d="M121.907 97.7641L115.498 86.6615L127.219 81.3594L132.351 90.2644L121.907 97.7641Z" fill="#EBEBEB"/>
<path d="M104.186 75.2138L93.0781 68.8001L100.586 58.3491L109.472 63.4852L104.186 75.2138Z" fill="#EBEBEB"/>
<path d="M52.9746 124.926L66.6233 137.869L84.6258 132.515L89.0179 114.245L75.382 101.29L57.3667 106.644L52.9746 124.926ZM65.0401 119.739C64.9507 116.456 67.5554 113.709 70.8367 113.619C74.1308 113.53 76.8631 116.136 76.9524 119.42C77.0418 122.716 74.4499 125.45 71.1559 125.54C67.8618 125.629 65.1295 123.035 65.0401 119.739Z" fill="#EBEBEB"/>
</g>
<path d="M474.591 207.346C456.588 207.819 442.391 222.805 442.863 240.82C443.335 258.822 458.312 273.042 476.315 272.569C494.304 272.096 508.515 257.11 508.042 239.108C507.557 221.081 492.581 206.861 474.591 207.346ZM476.008 261.121C464.313 261.428 454.597 252.204 454.29 240.513C453.984 228.81 463.202 219.087 474.897 218.781C486.58 218.474 496.296 227.699 496.615 239.402C496.909 251.092 487.691 260.815 476.008 261.121Z" fill="#EBEBEB"/>
<path d="M480.886 208.534L468.348 208.866L468.807 199.961L479.954 199.667L480.886 208.534Z" fill="#EBEBEB"/>
<path d="M457.15 213.389L448.519 222.486L442.557 215.868L450.23 207.781L457.15 213.389Z" fill="#EBEBEB"/>
<path d="M443.794 233.614L444.126 246.148L435.227 245.688L434.934 234.547L443.794 233.614Z" fill="#EBEBEB"/>
<path d="M448.646 257.365L457.737 266.002L451.123 271.968L443.041 264.29L448.646 257.365Z" fill="#EBEBEB"/>
<path d="M468.857 270.729L481.383 270.397L480.923 279.289L469.789 279.583L468.857 270.729Z" fill="#EBEBEB"/>
<path d="M492.592 265.874L501.223 256.777L507.185 263.395L499.512 271.483L492.592 265.874Z" fill="#EBEBEB"/>
<path d="M505.947 245.649L505.615 233.103L514.502 233.563L514.795 244.717L505.947 245.649Z" fill="#EBEBEB"/>
<path d="M501.096 221.898L492.006 213.261L498.62 207.295L506.702 214.973L501.096 221.898Z" fill="#EBEBEB"/>
<path d="M148.31 7.66575C130.307 8.13847 116.109 23.125 116.582 41.1396C117.054 59.1413 132.031 73.3613 150.033 72.8886C168.023 72.4158 182.233 57.4293 181.761 39.4275C181.276 21.413 166.299 7.19303 148.31 7.66575ZM149.727 61.4538C138.032 61.7604 128.315 52.536 128.009 40.8457C127.702 29.1426 136.921 19.4199 148.616 19.1133C160.299 18.8066 170.015 28.0311 170.334 39.7342C170.64 51.4117 161.422 61.1344 149.727 61.4538Z" fill="#EBEBEB"/>
<path d="M154.605 8.85395L142.08 9.18613L142.54 0.293854L153.686 0L154.605 8.85395Z" fill="#EBEBEB"/>
<path d="M130.87 13.7089L122.239 22.8183L116.289 16.2002L123.962 8.1001L130.87 13.7089Z" fill="#EBEBEB"/>
<path d="M117.514 33.9465L117.846 46.48L108.96 46.0201L108.666 34.8664L117.514 33.9465Z" fill="#EBEBEB"/>
<path d="M122.367 57.6975L131.457 66.3215L124.856 72.288L116.762 64.6095L122.367 57.6975Z" fill="#EBEBEB"/>
<path d="M142.576 71.0617L155.114 70.7295L154.654 79.6218L143.508 79.9156L142.576 71.0617Z" fill="#EBEBEB"/>
<path d="M166.324 66.2066L174.942 57.1099L180.905 63.7152L173.232 71.8153L166.324 66.2066Z" fill="#EBEBEB"/>
<path d="M179.68 45.9818L179.348 33.4355L188.234 33.8955L188.528 45.0492L179.68 45.9818Z" fill="#EBEBEB"/>
<path d="M174.828 22.2179L165.725 13.594L172.338 7.62744L180.433 15.306L174.828 22.2179Z" fill="#EBEBEB"/>
<path d="M0 532.361L64.7452 532.055L129.503 531.94L258.994 531.722L388.497 531.94L453.255 532.055L518 532.361L453.255 532.681L388.497 532.783L258.994 533L129.503 532.783L64.7452 532.668L0 532.361Z" fill="#263238"/>
<path d="M203.046 143.49C178.354 150.632 173.106 182.407 188.083 206.503C203.072 230.599 237.672 252.791 257.986 277.999C289.79 317.477 283.815 373.156 277.303 390.34" stroke="#263238" stroke-miterlimit="10"/>
<path d="M203.046 147.796C203.046 147.796 182.809 159.895 188.082 191.925C193.355 223.955 232.462 257.11 253.274 278.497C275.847 301.686 281.925 341.548 280.686 376.823" stroke="#263238" stroke-miterlimit="10"/>
<path d="M172.111 346.109C123.913 350.747 106.242 378.957 106.242 405.953C106.242 432.962 126.339 489.51 126.339 489.51" stroke="#263238" stroke-width="2" stroke-miterlimit="10"/>
<path d="M172.11 353.174C133.769 360.022 116.098 376.593 112.14 406.847C108.629 433.626 118.307 492.78 118.307 492.78" stroke="#263238" stroke-width="2" stroke-miterlimit="10"/>
<path d="M351.139 384.936C399.452 383.39 417.722 403.359 421.502 423.827C427.171 454.566 408.3 489.957 408.3 489.957" stroke="#263238" stroke-width="2" stroke-miterlimit="10"/>
<path d="M351.713 390.34C390.399 391.528 409.308 402.363 415.718 425.117C421.386 445.265 414.237 495.923 414.237 495.923" stroke="#263238" stroke-width="2" stroke-miterlimit="10"/>
<path d="M286.662 129.257L272.835 99.0798L196.611 130.816C186.206 134.956 181.405 146.978 186.065 157.161C190.738 167.343 202.97 171.534 212.89 166.36L286.662 129.257Z" fill="#FFC727"/>
<path d="M388.779 123.316L390.758 109.48L407.727 109.25L411.289 121.413L388.779 123.316Z" fill="#FFC727"/>
<path d="M375.551 105.327L390.732 109.492L384.987 122.818L341.908 115.485L375.551 105.327Z" fill="#FFC727"/>
<path d="M407.727 109.25L414.162 120.646L429.176 110.336L425.231 104.484L407.727 109.25Z" fill="#FFC727"/>
<path d="M390.758 109.48L385.293 122.128L388.893 122.563L390.758 109.48Z" fill="#37474F"/>
<path d="M407.727 109.25L411.059 120.633L413.689 119.854L407.727 109.25Z" fill="#37474F"/>
<path opacity="0.1" d="M382.548 119.688C381.067 120.544 378.705 119.79 378.092 117.925C377.352 116.098 378.667 114.015 380.352 113.709C382.037 113.313 383.595 114.373 384.067 115.74C384.591 117.069 384.093 118.909 382.548 119.688ZM380.633 114.437C379.484 115.089 379.216 116.43 379.573 117.375C379.905 118.334 380.99 119.177 382.28 118.934C383.569 118.768 384.655 117.158 384.08 115.727C383.595 114.258 381.718 113.734 380.633 114.437Z" fill="black"/>
<path opacity="0.1" d="M406.68 120.94C405.314 121.975 402.888 121.528 402.045 119.752C401.087 118.027 402.134 115.791 403.769 115.28C405.39 114.68 407.076 115.536 407.701 116.826C408.378 118.091 408.11 119.969 406.68 120.94ZM404.113 115.97C403.054 116.749 402.952 118.129 403.437 119.023C403.896 119.931 405.071 120.633 406.309 120.237C407.561 119.905 408.442 118.18 407.688 116.826C407.037 115.433 405.109 115.139 404.113 115.97Z" fill="black"/>
<path d="M377.836 34.151L384.322 46.8634L404.201 41.3313L402.759 29.0405L377.836 34.151Z" fill="#FFC727"/>
<path d="M356.323 70.8955L384.323 46.8634L374.67 36.0547L341.219 57.9788L356.323 70.8955Z" fill="#FFC727"/>
<path d="M404.201 41.3312L405.631 28.6316L427.158 33.9337L424.872 40.9735L404.201 41.3312Z" fill="#FFC727"/>
<path d="M384.322 46.8634L375.41 36.8851L378.308 35.0964L384.322 46.8634Z" fill="#37474F"/>
<path d="M404.201 41.3311L402.848 29.8197L405.516 29.5259L404.201 41.3311Z" fill="#37474F"/>
<path opacity="0.1" d="M375.564 44.7553C374.823 45.9563 373.112 46.6462 371.593 45.9052C370.048 45.2536 369.231 42.9922 370.316 41.4079C371.299 39.7598 373.7 39.5298 374.938 40.6669C376.253 41.7273 376.343 43.5799 375.564 44.7553ZM375.564 44.7553C376.419 43.516 375.717 41.7401 374.53 41.3185C373.355 40.8202 372.142 41.3951 371.619 42.2384C371.07 43.0688 371.057 44.4103 372.014 45.2664C372.908 46.1607 374.798 46.0585 375.564 44.7553Z" fill="black"/>
<path opacity="0.1" d="M400.652 35.863C399.911 37.0639 398.2 37.7539 396.681 37.0128C395.136 36.3612 394.319 34.0998 395.404 32.5156C396.387 30.8675 398.788 30.6375 400.026 31.7746C401.328 32.8478 401.431 34.7003 400.652 35.863ZM400.652 35.863C401.507 34.6237 400.805 32.8478 399.618 32.4262C398.443 31.9279 397.23 32.5028 396.706 33.346C396.157 34.1765 396.145 35.518 397.102 36.374C397.983 37.2811 399.886 37.1661 400.652 35.863Z" fill="black"/>
<path opacity="0.1" d="M425.589 38.7503L424.874 40.9606L404.203 41.3311L384.336 46.8632L356.324 70.8954L342.088 58.7196C343.531 57.6081 344.424 56.9437 344.424 56.9437L371.377 45.8028L372.22 45.4451L375.91 43.9247L375.948 43.8991L380.136 42.1616L381.604 41.5483H381.617L388.218 38.8142L403.858 38.4181L404.535 38.3926L425.589 38.7503Z" fill="black"/>
<path d="M405.748 58.6814L408.442 72.697L430.798 71.8026L432.841 59.5885L405.748 58.6814Z" fill="#FFC727"/>
<path d="M374.85 87.9775L408.442 72.6971L402.186 59.627L363.959 71.3556L374.85 87.9775Z" fill="#FFC727"/>
<path d="M430.799 71.8026L435.714 59.9973L456.373 67.2031L452.21 73.3357L430.799 71.8026Z" fill="#FFC727"/>
<path d="M408.442 72.697L402.658 60.6234L405.94 59.7163L408.442 72.697Z" fill="#37474F"/>
<path d="M430.799 71.8027L432.714 60.3679L435.344 60.8279L430.799 71.8027Z" fill="#37474F"/>
<path opacity="0.1" d="M400.972 67.3564C400.244 68.5573 398.521 69.2473 397.001 68.5062C395.456 67.8546 394.639 65.5933 395.725 64.009C396.708 62.3609 399.108 62.1309 400.346 63.268C401.662 64.3412 401.751 66.1937 400.972 67.3564ZM400.972 67.3564C401.827 66.1171 401.125 64.3412 399.938 63.9196C398.763 63.4213 397.55 63.9962 397.027 64.8395C396.478 65.6699 396.465 67.0114 397.423 67.8674C398.316 68.7745 400.206 68.6596 400.972 67.3564Z" fill="black"/>
<path opacity="0.1" d="M429.458 65.4018C428.718 66.6028 427.007 67.2927 425.488 66.5516C423.943 65.9001 423.126 63.6387 424.211 62.0544C425.194 60.4063 427.594 60.1763 428.833 61.3134C430.148 62.3738 430.237 64.2264 429.458 65.4018ZM429.458 65.4018C430.314 64.1625 429.612 62.3866 428.424 61.965C427.25 61.4667 426.037 62.0416 425.513 62.8849C424.964 63.7153 424.951 65.0568 425.909 65.9128C426.803 66.8072 428.692 66.705 429.458 65.4018Z" fill="black"/>
<path opacity="0.1" d="M398.777 77.092L374.863 87.9646L371.557 82.9308L398.777 77.092Z" fill="black"/>
<path d="M412.846 80.4138L412.553 94.6849L434.59 98.4922L439.148 86.9936L412.846 80.4138Z" fill="#FFC727"/>
<path d="M379.394 102.836L412.552 94.685L409.169 80.5928L372.219 84.2979L379.394 102.836Z" fill="#FFC727"/>
<path d="M434.59 98.4923L441.88 87.9902L459.142 98.5051L455.223 104.484L434.59 98.4923Z" fill="#FFC727"/>
<path d="M412.552 94.685L409.424 81.666L412.833 81.4744L412.552 94.685Z" fill="#37474F"/>
<path d="M434.59 98.4923L438.867 87.7219L441.344 88.7185L434.59 98.4923Z" fill="#37474F"/>
<path opacity="0.1" d="M406.462 87.3129C405.722 88.5139 404.011 89.2038 402.492 88.4628C400.947 87.8112 400.129 85.5498 401.215 83.9655C402.198 82.3174 404.598 82.0874 405.837 83.2245C407.152 84.2849 407.241 86.1375 406.462 87.3129ZM406.462 87.3129C407.318 86.0736 406.616 84.2977 405.428 83.8761C404.253 83.3778 403.041 83.9528 402.517 84.796C401.968 85.6265 401.955 86.968 402.913 87.824C403.807 88.7183 405.696 88.6161 406.462 87.3129Z" fill="black"/>
<path opacity="0.1" d="M435.24 91.1203C434.499 92.3213 432.788 93.0112 431.269 92.2702C429.724 91.6186 428.907 89.3572 429.992 87.7729C430.975 86.1248 433.376 85.8948 434.614 87.0319C435.929 88.1051 436.018 89.9577 435.24 91.1203ZM435.24 91.1203C436.095 89.881 435.393 88.1051 434.205 87.6835C433.031 87.1852 431.818 87.7601 431.294 88.6034C430.745 89.4338 430.733 90.7753 431.69 91.6313C432.584 92.5385 434.474 92.4235 435.24 91.1203Z" fill="black"/>
<path d="M400.193 42.0084L403.334 55.9346L423.967 53.7882L425.614 41.5229L400.193 42.0084Z" fill="#FFC727"/>
<path d="M370.253 72.2882L403.334 55.9346L396.657 43.0562L358.826 56.0241L370.253 72.2882Z" fill="#FFC727"/>
<path d="M423.967 53.7882L428.499 41.8296L448.915 49.8403L444.957 56.0879L423.967 53.7882Z" fill="#FFC727"/>
<path d="M403.335 55.9345L397.168 44.0526L400.424 43.0305L403.335 55.9345Z" fill="#37474F"/>
<path d="M423.967 53.7881L425.512 42.3022L428.167 42.6728L423.967 53.7881Z" fill="#37474F"/>
<path opacity="0.1" d="M396.312 50.3257C395.572 51.5267 393.848 52.1911 392.329 51.45C390.797 50.7984 389.992 48.5115 391.09 46.94C392.086 45.2919 394.486 45.0875 395.712 46.2245C397.014 47.3105 397.091 49.1631 396.312 50.3257ZM396.312 50.3257C397.18 49.0864 396.491 47.3105 395.304 46.8761C394.129 46.3651 392.916 46.9272 392.393 47.7705C391.843 48.6009 391.805 49.9424 392.763 50.7984C393.631 51.7183 395.533 51.6161 396.312 50.3257Z" fill="black"/>
<path opacity="0.1" d="M422.742 47.4895C422.001 48.6905 420.278 49.3549 418.758 48.6139C417.226 47.9623 416.422 45.6753 417.52 44.1038C418.516 42.4557 420.916 42.2513 422.142 43.3884C423.444 44.4743 423.533 46.3269 422.742 47.4895ZM422.742 47.4895C423.61 46.2502 422.921 44.4871 421.733 44.04C420.559 43.5289 419.346 44.0911 418.822 44.9343C418.273 45.7647 418.235 47.1063 419.192 47.9623C420.073 48.8822 421.963 48.7799 422.742 47.4895Z" fill="black"/>
<path opacity="0.1" d="M397.615 58.7454L370.253 72.2754L366.717 67.2288L397.615 58.7454Z" fill="black"/>
<path d="M315.748 71.892L359.503 43.0815L386.52 101.737L335.832 114.871L315.748 71.892Z" fill="#FFC727"/>
<path opacity="0.1" d="M315.748 71.892L359.503 43.0815L386.52 101.737L335.832 114.871L315.748 71.892Z" fill="black"/>
<path d="M312.785 72.7736L347.871 48.0898L375.551 105.327L333.916 117.899L312.785 72.7736Z" fill="#FFC727"/>
<path opacity="0.1" d="M347.808 60.5722C347.067 61.7732 345.357 62.4631 343.837 61.7221C342.292 61.0705 341.475 58.8091 342.56 57.2248C343.544 55.5767 345.944 55.3467 347.182 56.4838C348.485 57.557 348.587 59.3968 347.808 60.5722ZM347.808 60.5722C348.663 59.3329 347.961 57.557 346.774 57.1354C345.599 56.6371 344.386 57.212 343.863 58.0553C343.314 58.8857 343.301 60.2272 344.259 61.0832C345.14 61.9776 347.042 61.8754 347.808 60.5722Z" fill="black"/>
<path opacity="0.1" d="M354.984 74.6005C354.256 75.8015 352.532 76.4914 351.013 75.7504C349.468 75.0988 348.651 72.8374 349.736 71.2531C350.719 69.605 353.12 69.375 354.358 70.5121C355.66 71.5725 355.763 73.4251 354.984 74.6005ZM354.984 74.6005C355.839 73.3612 355.137 71.5853 353.95 71.1637C352.775 70.6654 351.562 71.2404 351.039 72.0836C350.49 72.914 350.477 74.2556 351.434 75.1116C352.315 76.0059 354.218 75.8909 354.984 74.6005Z" fill="black"/>
<path opacity="0.1" d="M362.16 88.6161C361.419 89.8171 359.708 90.507 358.189 89.766C356.644 89.1144 355.827 86.853 356.912 85.2688C357.895 83.6206 360.295 83.3907 361.534 84.5277C362.849 85.5882 362.938 87.4407 362.16 88.6161ZM362.16 88.6161C363.015 87.3768 362.313 85.6009 361.125 85.1793C359.951 84.681 358.738 85.256 358.214 86.0992C357.665 86.9297 357.653 88.2712 358.61 89.1272C359.491 90.0215 361.393 89.9193 362.16 88.6161Z" fill="black"/>
<path opacity="0.1" d="M369.335 102.632C368.595 103.832 366.884 104.522 365.365 103.781C363.82 103.13 363.003 100.868 364.088 99.2841C365.071 97.636 367.471 97.406 368.71 98.5431C370.025 99.6163 370.114 101.469 369.335 102.632ZM369.335 102.632C370.191 101.392 369.489 99.6163 368.301 99.1947C367.126 98.6964 365.914 99.2714 365.39 100.115C364.841 100.945 364.828 102.287 365.786 103.143C366.68 104.05 368.569 103.935 369.335 102.632Z" fill="black"/>
<path d="M299.693 129.845L280.898 88.8374L270.349 93.6791L289.144 134.687L299.693 129.845Z" fill="#455A64"/>
<path d="M316.676 115.161L303.098 85.5347L283.507 94.5257L297.086 124.152L316.676 115.161Z" fill="#37474F"/>
<path d="M344.147 120.392L316.889 60.9182L296.137 70.4419L323.396 129.915L344.147 120.392Z" fill="#455A64"/>
<path d="M314.137 82.292C316.959 80.9888 318.21 77.6542 316.908 74.8179C315.606 71.9943 312.273 70.7422 309.439 72.0454C306.617 73.3486 305.366 76.6832 306.668 79.5195C307.97 82.3559 311.316 83.5952 314.137 82.292Z" fill="#37474F"/>
<path d="M330.838 118.743C333.66 117.439 334.911 114.105 333.609 111.269C332.307 108.445 328.974 107.193 326.14 108.496C323.318 109.799 322.067 113.134 323.369 115.97C324.672 118.794 328.017 120.033 330.838 118.743Z" fill="#37474F"/>
<path d="M224.713 139.683L279.755 273.616C284.606 285.434 278.976 298.964 267.166 303.819C255.355 308.674 241.834 303.04 236.983 291.222L181.941 157.289C177.089 145.47 182.72 131.94 194.53 127.085C206.34 122.218 219.861 127.852 224.713 139.683Z" fill="#37474F"/>
<path d="M249.903 278.458C251.576 273.987 256.568 271.725 261.024 273.412C265.493 275.086 267.752 280.081 266.067 284.54C264.394 289.012 259.402 291.273 254.946 289.587C250.49 287.913 248.231 282.93 249.903 278.458Z" fill="#263238"/>
<path d="M194.964 144.755C196.637 140.283 201.629 138.022 206.085 139.708C210.554 141.382 212.814 146.378 211.128 150.837C209.456 155.308 204.464 157.57 200.008 155.883C195.539 154.21 193.279 149.227 194.964 144.755Z" fill="#263238"/>
<path d="M418.055 492.78H113.059C102.539 492.78 94.0098 501.315 94.0098 511.842V513.363C94.0098 523.89 102.539 532.425 113.059 532.425H418.055C428.576 532.425 437.104 523.89 437.104 513.363V511.842C437.104 501.315 428.576 492.78 418.055 492.78Z" fill="#455A64"/>
<path d="M188.084 372.351H360.474C372.208 372.351 381.72 381.87 381.72 393.611V489.522H188.084V372.351Z" fill="#263238"/>
<path d="M412.809 425.961V492.78H118.309V390.66L142.708 367.343H311.944V402.631H388.41L412.809 425.961Z" fill="#455A64"/>
<path d="M412.821 425.961V492.78H118.295V390.66L127.5 381.87L142.694 367.343H311.943V402.631H388.422L412.821 425.961Z" fill="#455A64"/>
<path d="M412.809 492.78V485.92L118.309 477.385V492.78H412.809Z" fill="#37474F"/>
<path d="M172.111 460.942H131.203V465.158H172.111V460.942Z" fill="#263238"/>
<path d="M172.111 470.166H131.203V474.382H172.111V470.166Z" fill="#263238"/>
<path d="M172.111 479.378H131.203V483.594H172.111V479.378Z" fill="#263238"/>
<path d="M399.565 450.532C401.063 431.914 387.196 415.606 368.59 414.106C349.985 412.606 333.687 426.483 332.188 445.101C330.69 463.719 344.557 480.027 363.163 481.527C381.768 483.027 398.066 469.15 399.565 450.532Z" fill="#263238"/>
<path d="M365.402 476.912C381.464 477.168 394.679 464.34 394.934 448.268C395.189 432.195 382.37 418.972 366.309 418.716C350.247 418.461 337.032 431.288 336.777 447.361C336.534 463.433 349.353 476.67 365.402 476.912Z" stroke="#455A64" stroke-width="2" stroke-miterlimit="10"/>
<path d="M373.408 470.997C373.434 469.566 374.263 468.301 375.54 467.675C376.268 467.33 376.957 466.947 377.609 466.538C378.809 465.771 380.328 465.733 381.554 466.449L385.716 468.94L393.836 455.346L389.674 452.855C388.448 452.114 387.797 450.759 387.887 449.316C387.912 448.945 387.925 448.549 387.938 448.153C387.938 447.757 387.938 447.374 387.925 446.978C387.887 445.559 388.576 444.218 389.815 443.515L394.053 441.152L386.367 427.315L382.103 429.679C380.864 430.356 379.345 430.266 378.158 429.474C377.506 429.04 376.83 428.644 376.14 428.273C374.876 427.596 374.085 426.306 374.11 424.887L374.187 420.045L358.368 419.802L358.291 424.645C358.265 426.063 357.436 427.341 356.159 427.967C355.457 428.311 354.767 428.695 354.103 429.104C352.903 429.87 351.371 429.909 350.158 429.193L345.97 426.702L337.85 440.296L342.038 442.813C343.263 443.554 343.915 444.895 343.825 446.313C343.787 446.709 343.774 447.093 343.774 447.489C343.774 447.885 343.761 448.268 343.787 448.651C343.825 450.082 343.123 451.424 341.872 452.126L337.633 454.49L345.319 468.327L349.558 465.963C350.809 465.286 352.316 465.375 353.503 466.168C354.167 466.602 354.844 466.998 355.533 467.369C356.797 468.046 357.589 469.323 357.563 470.754L357.487 475.596L373.306 475.839L373.408 470.997ZM355.686 447.668C355.776 442.046 360.385 437.549 366.016 437.638C371.659 437.728 376.128 442.365 376.038 447.987C375.949 453.609 371.34 458.106 365.696 458.016C360.066 457.927 355.597 453.289 355.686 447.668Z" fill="#455A64"/>
<path d="M366.562 465.075C376.067 464.685 383.457 456.659 383.068 447.148C382.679 437.637 374.658 430.242 365.153 430.632C355.648 431.021 348.259 439.047 348.648 448.558C349.037 458.069 357.057 465.464 366.562 465.075Z" stroke="#263238" stroke-width="3" stroke-miterlimit="10"/>
<path d="M227.102 432.86C209.878 458.783 174.933 465.81 149.04 448.562C126.799 433.767 118.5 405.863 127.488 381.87L142.682 367.343H224.88C239.168 385.92 240.802 412.252 227.102 432.86Z" fill="#263238"/>
<path d="M306.428 398.159H301.959V402.631H306.428V398.159Z" fill="#263238"/>
<path d="M306.428 389.561H301.959V394.033H306.428V389.561Z" fill="#263238"/>
<path d="M306.428 380.95H301.959V385.421H306.428V380.95Z" fill="#FFC727"/>
<path d="M306.428 372.351H301.959V376.823H306.428V372.351Z" fill="#263238"/>
<path d="M276.934 256.215C262.992 246.939 244.261 250.019 234.022 263.28L144.788 373.948C128.854 394.595 133.757 424.44 155.462 438.903C177.167 453.353 206.584 446.351 219.454 423.661L286.995 298.543C295.269 283.978 290.876 265.491 276.934 256.215Z" fill="#FFC727"/>
<path d="M129.67 409.786C131.956 423.814 140.063 436.36 151.899 444.23C163.722 452.101 178.418 454.745 192.271 451.462C206.085 448.166 218.01 439.184 225.045 426.842L226.373 424.376L275.044 334.163L292.638 301.596C296.225 295.195 297.796 288.117 297.489 281.167C296.992 269.311 290.991 257.863 280.483 250.862C263.808 239.759 241.196 243.477 228.939 259.345L141.468 367.854L139.782 369.924C131.011 381.256 127.385 395.757 129.67 409.786ZM254.449 257.85C255.215 257.633 256.045 257.531 256.85 257.493C257.603 257.378 258.331 257.352 259.046 257.365C260.795 257.288 262.557 257.493 264.293 257.825C265.034 257.953 265.736 258.119 266.464 258.349L266.502 258.374C267.281 258.591 268.085 258.86 268.851 259.166C268.979 259.205 269.12 259.294 269.286 259.358C269.924 259.626 270.55 259.933 271.162 260.252C271.928 260.661 272.656 261.096 273.371 261.568C274.01 261.99 274.635 262.463 275.184 262.935C275.503 263.153 275.797 263.395 276.04 263.664C276.474 264.009 276.857 264.366 277.214 264.75C277.406 264.928 277.597 265.107 277.763 265.325C278.185 265.759 278.619 266.206 278.963 266.692C279.398 267.19 279.781 267.701 280.138 268.25C280.176 268.276 280.215 268.301 280.227 268.352C280.393 268.57 280.572 268.838 280.713 269.094C280.968 269.477 281.172 269.86 281.377 270.256C281.606 270.614 281.811 271.01 281.977 271.368C282.015 271.393 282.015 271.393 282.015 271.393C282.296 271.892 282.5 272.441 282.743 273.003C283.036 273.719 283.356 274.485 283.534 275.277C283.802 276.031 284.032 276.849 284.134 277.628C284.326 278.42 284.415 279.212 284.492 280.03C285.105 285.217 284.134 290.545 281.428 295.374L266.911 322.23L215.648 417.247L213.822 420.607L213.491 421.105C213.12 421.732 212.75 422.37 212.329 423.009C211.333 424.504 210.273 425.858 209.149 427.174C208.817 427.519 208.46 427.902 208.103 428.286C207.439 428.988 206.736 429.64 206.034 430.279C205.97 430.33 205.919 430.381 205.855 430.445C201.221 434.559 195.552 437.523 189.27 439.005C178.775 441.484 168.025 439.567 159.011 433.575C150.035 427.596 144.111 418.41 142.31 407.742C140.791 398.504 142.63 389.331 147.443 381.473C147.494 381.346 147.545 381.269 147.596 381.18C147.622 381.129 147.647 381.09 147.673 381.039C148.337 379.966 149.077 378.931 149.869 377.896C150.265 377.385 150.622 376.912 151.031 376.452L152.193 375.009L239.026 267.305C242.486 262.871 247.044 259.882 252.1 258.464C252.879 258.195 253.632 257.991 254.449 257.85Z" fill="#FFC727"/>
<path opacity="0.1" d="M129.67 409.786C131.956 423.814 140.063 436.36 151.899 444.23C163.722 452.101 178.418 454.745 192.271 451.462C206.085 448.166 218.01 439.184 225.045 426.842L226.373 424.376L275.044 334.163L292.638 301.596C296.225 295.195 297.796 288.117 297.489 281.167C296.992 269.311 290.991 257.863 280.483 250.862C263.808 239.759 241.196 243.477 228.939 259.345L141.468 367.854L139.782 369.924C131.011 381.256 127.385 395.757 129.67 409.786ZM254.449 257.85C255.215 257.633 256.045 257.531 256.85 257.493C257.603 257.378 258.331 257.352 259.046 257.365C260.795 257.288 262.557 257.493 264.293 257.825C265.034 257.953 265.736 258.119 266.464 258.349L266.502 258.374C267.281 258.591 268.085 258.86 268.851 259.166C268.979 259.205 269.12 259.294 269.286 259.358C269.924 259.626 270.55 259.933 271.162 260.252C271.928 260.661 272.656 261.096 273.371 261.568C274.01 261.99 274.635 262.463 275.184 262.935C275.503 263.153 275.797 263.395 276.04 263.664C276.474 264.009 276.857 264.366 277.214 264.75C277.406 264.928 277.597 265.107 277.763 265.325C278.185 265.759 278.619 266.206 278.963 266.692C279.398 267.19 279.781 267.701 280.138 268.25C280.176 268.276 280.215 268.301 280.227 268.352C280.393 268.57 280.572 268.838 280.713 269.094C280.968 269.477 281.172 269.86 281.377 270.256C281.606 270.614 281.811 271.01 281.977 271.368C282.015 271.393 282.015 271.393 282.015 271.393C282.296 271.892 282.5 272.441 282.743 273.003C283.036 273.719 283.356 274.485 283.534 275.277C283.802 276.031 284.032 276.849 284.134 277.628C284.326 278.42 284.415 279.212 284.492 280.03C285.105 285.217 284.134 290.545 281.428 295.374L266.911 322.23L215.648 417.247L213.822 420.607L213.491 421.105C213.12 421.732 212.75 422.37 212.329 423.009C211.333 424.504 210.273 425.858 209.149 427.174C208.817 427.519 208.46 427.902 208.103 428.286C207.439 428.988 206.736 429.64 206.034 430.279C205.97 430.33 205.919 430.381 205.855 430.445C201.221 434.559 195.552 437.523 189.27 439.005C178.775 441.484 168.025 439.567 159.011 433.575C150.035 427.596 144.111 418.41 142.31 407.742C140.791 398.504 142.63 389.331 147.443 381.473C147.494 381.346 147.545 381.269 147.596 381.18C147.622 381.129 147.647 381.09 147.673 381.039C148.337 379.966 149.077 378.931 149.869 377.896C150.265 377.385 150.622 376.912 151.031 376.452L152.193 375.009L239.026 267.305C242.486 262.871 247.044 259.882 252.1 258.464C252.879 258.195 253.632 257.991 254.449 257.85Z" fill="black"/>
<path d="M212.33 423.022C224.127 405.288 219.314 381.333 201.592 369.54C183.87 357.735 159.931 362.552 148.146 380.285C136.349 398.019 141.162 421.974 158.884 433.767C176.605 445.572 200.532 440.755 212.33 423.022Z" fill="#263238"/>
<path d="M209.635 421.233C220.437 404.982 216.032 383.045 199.792 372.236C183.551 361.428 161.629 365.835 150.827 382.087C140.026 398.338 144.431 420.275 160.671 431.084C176.899 441.892 198.834 437.485 209.635 421.233Z" stroke="#455A64" stroke-miterlimit="10"/>
<path d="M206.379 408.508C205.052 407.626 204.375 406.093 204.554 404.509C204.669 403.627 204.72 402.746 204.732 401.89C204.745 400.306 205.613 398.862 207.018 398.159L211.844 395.77L204.043 380.03L199.217 382.419C197.787 383.121 196.127 382.904 194.85 381.972C194.518 381.729 194.161 381.473 193.803 381.231C193.446 380.988 193.076 380.771 192.705 380.541C191.352 379.723 190.522 378.279 190.611 376.695L190.956 371.316L173.439 370.192L173.081 375.583C172.979 377.142 171.97 378.522 170.515 379.135C169.723 379.48 168.944 379.864 168.178 380.298C166.8 381.077 165.101 381.039 163.799 380.157L159.33 377.181L149.601 391.809L154.07 394.786C155.385 395.655 156.075 397.201 155.896 398.785C155.794 399.654 155.743 400.523 155.73 401.392C155.717 402.976 154.836 404.432 153.444 405.122L148.605 407.537L156.407 423.277L161.258 420.875C162.688 420.173 164.323 420.377 165.599 421.31C165.944 421.578 166.302 421.821 166.659 422.064C167.017 422.306 167.387 422.549 167.744 422.741C169.11 423.558 169.94 425.028 169.838 426.612L169.493 431.991L187.011 433.115L187.356 427.736C187.47 426.165 188.466 424.798 189.922 424.184C190.726 423.827 191.505 423.431 192.271 423.009C193.65 422.23 195.335 422.268 196.65 423.15L201.119 426.126L210.848 411.498L206.379 408.508ZM173.975 411.063C168.778 407.601 167.361 400.599 170.821 395.399C174.294 390.187 181.304 388.794 186.5 392.244C191.697 395.706 193.114 402.707 189.654 407.933C186.181 413.12 179.171 414.526 173.975 411.063Z" fill="#455A64"/>
<path d="M280.407 296.55C288.119 284.949 284.978 269.272 273.385 261.556C261.792 253.839 246.126 256.982 238.414 268.583C230.702 280.183 233.843 295.86 245.436 303.577C257.029 311.306 272.695 308.163 280.407 296.55Z" fill="#263238"/>
<path d="M278.671 295.4C285.744 284.757 282.859 270.384 272.223 263.306C261.588 256.228 247.224 259.115 240.151 269.758C233.077 280.401 235.963 294.774 246.598 301.852C257.234 308.93 271.585 306.043 278.671 295.4Z" stroke="#455A64" stroke-miterlimit="10"/>
<path d="M276.41 287.031C275.555 286.456 275.108 285.46 275.223 284.438C275.299 283.863 275.338 283.301 275.338 282.739C275.338 281.716 275.912 280.771 276.832 280.311L279.972 278.752L274.904 268.519L271.763 270.077C270.831 270.537 269.758 270.397 268.928 269.783C268.711 269.63 268.481 269.451 268.252 269.298C268.022 269.145 267.779 268.991 267.537 268.851C266.656 268.327 266.119 267.381 266.183 266.347L266.4 262.846L255.011 262.118L254.782 265.631C254.718 266.64 254.067 267.535 253.122 267.944C252.611 268.161 252.1 268.416 251.602 268.697C250.709 269.196 249.598 269.17 248.755 268.608L245.844 266.666L239.524 276.172L242.435 278.101C243.291 278.663 243.738 279.672 243.623 280.694C243.559 281.257 243.521 281.831 243.508 282.394C243.508 283.416 242.933 284.374 242.014 284.821L238.873 286.393L243.942 296.626L247.095 295.068C248.015 294.608 249.087 294.748 249.917 295.349C250.134 295.528 250.377 295.681 250.607 295.834C250.836 295.988 251.079 296.141 251.309 296.281C252.203 296.818 252.739 297.763 252.675 298.798L252.458 302.299L263.847 303.027L264.064 299.527C264.14 298.504 264.779 297.623 265.724 297.214C266.247 296.984 266.758 296.729 267.243 296.447C268.137 295.949 269.235 295.962 270.09 296.537L273.001 298.466L279.321 288.961L276.41 287.031ZM255.343 288.692C251.96 286.444 251.041 281.883 253.288 278.51C255.535 275.124 260.093 274.217 263.476 276.465C266.86 278.714 267.779 283.275 265.519 286.661C263.272 290.034 258.714 290.941 255.343 288.692Z" fill="#455A64"/>
<path d="M259.275 279.928L260.207 279.059" stroke="#FFC727" stroke-width="0.5" stroke-miterlimit="10"/>
<path d="M262.098 277.334L282.884 258.221H335.436" stroke="#FFC727" stroke-width="0.5" stroke-miterlimit="10" stroke-dasharray="2.01 2.01"/>
<path d="M336.711 258.221H337.988" stroke="#FFC727" stroke-width="0.5" stroke-miterlimit="10"/>
<path d="M337.9 260.138C338.957 260.138 339.815 259.28 339.815 258.221C339.815 257.163 338.957 256.305 337.9 256.305C336.842 256.305 335.984 257.163 335.984 258.221C335.984 259.28 336.842 260.138 337.9 260.138Z" fill="#FFC727"/>
<path d="M357.561 255.768H347.947V260.061H357.561V255.768Z" fill="#FFC727"/>
<path d="M367.585 269.426H357.971V273.719H367.585V269.426Z" fill="#FFC727"/>
<path d="M379.28 255.768H361.061V260.061H379.28V255.768Z" fill="#FFC727"/>
<path d="M385.701 255.768H382.637V260.061H385.701V255.768Z" fill="#FFC727"/>
<path d="M390.605 255.768H387.541V260.061H390.605V255.768Z" fill="#FFC727"/>
<path d="M395.494 255.768H392.43V260.061H395.494V255.768Z" fill="#FFC727"/>
<path d="M366.167 262.527H347.947V266.819H366.167V262.527Z" fill="#FFC727"/>
<path d="M372.601 262.527H369.537V266.819H372.601V262.527Z" fill="#FFC727"/>
<path d="M377.492 262.527H374.428V266.819H377.492V262.527Z" fill="#FFC727"/>
<path d="M382.383 262.527H379.318V266.819H382.383V262.527Z" fill="#FFC727"/>
<path d="M351.012 269.426H347.947V273.719H351.012V269.426Z" fill="#FFC727"/>
<path d="M355.902 269.426H352.838V273.719H355.902V269.426Z" fill="#FFC727"/>
<path d="M357.842 445.623L358.787 444.754" stroke="#FFC727" stroke-width="0.5" stroke-miterlimit="10"/>
<path d="M360.664 443.03L381.45 423.917H434.002" stroke="#FFC727" stroke-width="0.5" stroke-miterlimit="10" stroke-dasharray="2.01 2.01"/>
<path d="M435.291 423.917H436.568" stroke="#FFC727" stroke-width="0.5" stroke-miterlimit="10"/>
<path d="M436.466 425.833C437.524 425.833 438.381 424.975 438.381 423.916C438.381 422.858 437.524 422 436.466 422C435.408 422 434.551 422.858 434.551 423.916C434.551 424.975 435.408 425.833 436.466 425.833Z" fill="#FFC727"/>
<path d="M456.128 421.463H446.514V425.756H456.128V421.463Z" fill="#FFC727"/>
<path d="M466.151 435.121H456.537V439.414H466.151V435.121Z" fill="#FFC727"/>
<path d="M477.847 421.463H459.627V425.756H477.847V421.463Z" fill="#FFC727"/>
<path d="M484.281 421.463H481.217V425.756H484.281V421.463Z" fill="#FFC727"/>
<path d="M489.17 421.463H486.105V425.756H489.17V421.463Z" fill="#FFC727"/>
<path d="M494.06 421.463H490.996V425.756H494.06V421.463Z" fill="#FFC727"/>
<path d="M464.733 428.235H446.514V432.528H464.733V428.235Z" fill="#FFC727"/>
<path d="M471.168 428.235H468.104V432.528H471.168V428.235Z" fill="#FFC727"/>
<path d="M476.058 428.235H472.994V432.528H476.058V428.235Z" fill="#FFC727"/>
<path d="M480.961 428.235H477.896V432.528H480.961V428.235Z" fill="#FFC727"/>
<path d="M449.578 435.121H446.514V439.414H449.578V435.121Z" fill="#FFC727"/>
<path d="M454.48 435.121H451.416V439.414H454.48V435.121Z" fill="#FFC727"/>
<path d="M175.403 401.52L174.369 402.261" stroke="#FFC727" stroke-width="0.5" stroke-miterlimit="10"/>
<path d="M172.288 403.73L137.138 428.631H84.5859" stroke="#FFC727" stroke-width="0.5" stroke-miterlimit="10" stroke-dasharray="2 2"/>
<path d="M83.31 428.631H82.0332" stroke="#FFC727" stroke-width="0.5" stroke-miterlimit="10"/>
<path d="M82.1222 430.547C83.1799 430.547 84.0374 429.689 84.0374 428.631C84.0374 427.572 83.1799 426.714 82.1222 426.714C81.0645 426.714 80.207 427.572 80.207 428.631C80.207 429.689 81.0645 430.547 82.1222 430.547Z" fill="#FFC727"/>
<path d="M33.5536 426.472H23.9395V430.765H33.5536V426.472Z" fill="#FFC727"/>
<path d="M43.577 440.142H33.9629V444.435H43.577V440.142Z" fill="#FFC727"/>
<path d="M55.2723 426.472H37.0527V430.765H55.2723V426.472Z" fill="#FFC727"/>
<path d="M61.6932 426.472H58.6289V430.765H61.6932V426.472Z" fill="#FFC727"/>
<path d="M66.5955 426.472H63.5312V430.765H66.5955V426.472Z" fill="#FFC727"/>
<path d="M71.4861 426.472H68.4219V430.765H71.4861V426.472Z" fill="#FFC727"/>
<path d="M42.159 433.243H23.9395V437.536H42.159V433.243Z" fill="#FFC727"/>
<path d="M48.5936 433.243H45.5293V437.536H48.5936V433.243Z" fill="#FFC727"/>
<path d="M53.4842 433.243H50.4199V437.536H53.4842V433.243Z" fill="#FFC727"/>
<path d="M58.3748 433.243H55.3105V437.536H58.3748V433.243Z" fill="#FFC727"/>
<path d="M27.0037 440.142H23.9395V444.435H27.0037V440.142Z" fill="#FFC727"/>
<path d="M31.8943 440.142H28.8301V444.435H31.8943V440.142Z" fill="#FFC727"/>
<path d="M334.923 68.6085L333.979 67.7397" stroke="#FFC727" stroke-width="0.5" stroke-miterlimit="10"/>
<path d="M332.102 66.015L296.659 33.4355H244.094" stroke="#FFC727" stroke-width="0.5" stroke-miterlimit="10" stroke-dasharray="2 2"/>
<path d="M242.83 33.4355H241.553" stroke="#FFC727" stroke-width="0.5" stroke-miterlimit="10"/>
<path d="M241.642 31.5063C240.582 31.5063 239.727 32.3624 239.727 33.4228C239.727 34.4832 240.582 35.3392 241.642 35.3392C242.701 35.3392 243.557 34.4832 243.557 33.4228C243.557 32.3751 242.701 31.5063 241.642 31.5063Z" fill="#FFC727"/>
<path d="M226.856 31.634H217.242V35.9269H226.856V31.634Z" fill="#FFC727"/>
<path d="M194.606 38.3926H184.992V42.6854H194.606V38.3926Z" fill="#FFC727"/>
<path d="M203.122 31.634H184.902V35.9269H203.122V31.634Z" fill="#FFC727"/>
<path d="M209.556 31.634H206.492V35.9269H209.556V31.634Z" fill="#FFC727"/>
<path d="M214.447 31.634H211.383V35.9269H214.447V31.634Z" fill="#FFC727"/>
<path d="M232.449 31.634H229.385V35.9269H232.449V31.634Z" fill="#FFC727"/>
<path d="M214.907 38.3926H196.688V42.6854H214.907V38.3926Z" fill="#FFC727"/>
<path d="M220.306 38.3926H217.242V42.6854H220.306V38.3926Z" fill="#FFC727"/>
<path d="M187.967 45.2917H184.902V49.5846H187.967V45.2917Z" fill="#FFC727"/>
<path d="M192.869 45.2917H189.805V49.5846H192.869V45.2917Z" fill="#FFC727"/>
</g>
<defs>
<clipPath id="clip0_342_4736">
<rect width="518" height="533" fill="white"/>
</clipPath>
</defs>
</svg>
