<svg width="78" height="78" viewBox="0 0 78 78" fill="none" xmlns="http://www.w3.org/2000/svg">
<path d="M68.5202 30.9603C67.5222 30.9608 66.5187 31.0286 65.5273 30.9451C63.9218 30.8101 62.6784 30.8779 62.7991 33.0803C62.8566 34.1282 61.9066 34.722 60.8865 34.6158C59.8885 34.5116 59.0698 33.8051 59.2198 32.7577C59.4981 30.8116 58.3814 30.933 57.0618 30.9416C51.074 30.9815 45.0857 30.9719 39.0979 30.9482C37.8847 30.9431 36.7726 30.7828 37.0964 32.6661C37.2989 33.8455 36.4469 34.6082 35.3312 34.6355C34.1898 34.6633 33.3883 33.8268 33.456 32.7182C33.558 31.0503 32.7489 30.8804 31.4081 30.937C29.3389 31.025 27.2621 31.0018 25.191 30.9446C24.1162 30.9148 23.4238 31.0119 23.6511 32.3956C23.8592 33.665 23.1667 34.5753 21.9107 34.6117C20.489 34.6527 20.0658 33.5841 19.9057 32.2965C17.7729 15.1681 31.7404 -0.393952 49.1316 0.00760458C60.8062 0.277163 69.5818 5.75734 74.7757 16.1912C79.9377 26.5614 78.7615 36.7212 72.256 46.2553C70.5166 48.8048 70.054 48.8214 67.4712 47.0114C66.7808 46.5274 66.0707 46.0718 65.3707 45.6014C64.3526 44.9172 63.8339 44.0503 64.5884 42.8917C65.2566 41.866 66.3849 41.6855 67.1884 42.4006C69.5656 44.5156 70.2919 42.7369 71.1878 40.9456C72.5035 38.3158 73.4237 35.5772 73.8898 32.6692C74.0888 31.4266 73.8807 30.803 72.4333 30.9355C71.1388 31.0539 69.8252 30.9603 68.5202 30.9603ZM48.077 27.2295C49.7659 27.2295 51.4553 27.2279 53.1441 27.2295C59.6516 27.2355 59.6021 27.2426 58.7365 20.8202C58.5355 19.3293 58.0981 18.8646 56.5749 19.1559C52.2482 19.9838 47.8836 19.9165 43.5003 19.5782C41.6635 19.4365 39.2802 17.9163 38.1706 19.2484C37.0847 20.5517 37.4751 23.0602 37.1398 25.0265C36.864 26.6438 37.1989 27.3857 39.0973 27.274C42.0806 27.098 45.0826 27.2274 48.077 27.2295ZM49.077 16.082C51.33 15.9758 53.8588 15.9373 56.3608 15.467C57.1113 15.3259 57.4976 15.1352 57.2006 14.3094C56.0012 10.9715 54.6845 7.68825 51.9048 5.30117C49.3614 3.11739 46.7508 3.17858 44.2811 5.44378C41.7761 7.74186 40.4559 10.7525 39.3095 13.8729C38.8984 14.9926 39.4983 15.1727 40.3367 15.3264C43.1362 15.8407 45.9619 16.0425 49.077 16.082ZM68.2157 27.2325C69.807 27.2325 71.1186 27.1455 72.4136 27.2558C73.8307 27.3766 74.112 26.7955 73.9161 25.5196C73.5408 23.0738 72.8737 20.7242 71.8404 18.4842C70.0783 14.6639 70.0641 14.67 66.2349 16.4223C66.0258 16.5179 65.8253 16.6327 65.6142 16.7233C62.0622 18.2506 62.0162 18.2577 62.6374 22.0998C62.9036 23.7454 62.1511 25.9439 63.3561 26.9174C64.6208 27.9375 66.7551 27.0838 68.2157 27.2325ZM28.4576 27.2274C33.1636 27.2274 33.1631 27.2274 33.5999 23.5775C33.8267 21.682 34.8004 19.3951 34.0701 18.0028C33.3595 16.6479 30.9055 16.2104 29.2167 15.3704C29.148 15.3365 29.0677 15.3168 29.0111 15.2693C28.199 14.5855 27.7005 14.8991 27.2243 15.727C26.0359 17.7919 25.0293 19.9236 24.391 22.2297C23.0072 27.2315 22.9945 27.2279 27.998 27.2279C28.151 27.2274 28.3041 27.2274 28.4576 27.2274ZM57.0304 5.15248C57.9951 7.10008 58.9087 8.74777 59.6461 10.4713C61.4895 14.7772 61.4572 14.7913 65.7627 12.5555C65.9667 12.4498 66.1551 12.3077 66.3667 12.2237C67.2934 11.8586 67.0419 11.4287 66.4899 10.9027C63.8162 8.35785 60.8349 6.34046 57.0304 5.15248ZM38.3943 6.27977C36.4342 6.75061 34.8651 7.78586 33.3797 8.94754C32.3697 9.7375 30.5278 10.6853 30.7818 11.5602C31.1853 12.9479 33.2222 13.0471 34.5565 13.7156C35.256 14.0661 35.4903 13.789 35.6838 13.1507C36.3898 10.8233 37.5201 8.66534 38.3943 6.27977Z" fill="#595959"/>
<path d="M62.591 41.0058C61.1112 46.9578 59.5748 52.8977 58.192 58.8725C57.6794 61.0866 56.7259 62.0177 54.2845 61.9858C43.8493 61.8483 33.411 61.9085 22.9748 61.9661C22.0571 61.9717 20.4193 61.1322 20.4703 63.2193C20.5127 64.9586 21.5652 65.616 23.1925 65.613C28.2576 65.6034 33.3221 65.6079 38.3872 65.6074C43.1453 65.6069 47.9033 65.61 52.6613 65.6044C53.736 65.6034 54.9128 65.434 55.4077 66.7201C55.8809 67.9495 55.3375 68.833 54.1633 69.2695C53.4052 69.5517 53.8663 69.8986 53.9587 70.3007C54.7032 73.5334 53.9643 75.7591 51.7189 77.1509C49.7815 78.3515 47.2937 78.2291 45.4543 76.8424C43.3074 75.2246 42.8038 72.9958 43.87 69.405H31.5409C32.5823 73.7139 31.5969 76.4626 28.5853 77.5869C26.4672 78.3778 24.4586 78.0445 22.8041 76.5005C21.1753 74.9803 20.4971 73.0721 21.2319 70.8605C21.5632 69.8627 21.8784 69.2073 20.3602 68.7961C18.4678 68.2833 17.4198 66.6735 16.8956 64.7952C13.9042 54.0832 10.8962 43.3762 7.96288 32.648C7.58814 31.2769 6.95936 30.8 5.5816 30.934C4.36546 31.0519 3.12608 30.9947 1.90135 30.9325C0.753383 30.8743 -0.0132741 30.231 0.000362099 29.0522C0.0134932 27.8829 0.738736 27.2356 1.93064 27.228C4.15586 27.2138 6.38159 27.2371 8.60682 27.2189C9.91538 27.2082 10.5093 27.9264 10.8154 29.1159C11.331 31.1196 12.0628 33.0768 12.4477 35.1023C12.7512 36.6999 13.4169 37.1394 15.0401 37.1318C29.851 37.06 44.6619 37.0909 59.4728 37.0919C62.9536 37.0924 63.4182 37.6796 62.591 41.0058Z" fill="#595959"/>
</svg>
