<svg width="584" height="641" viewBox="0 0 584 641" fill="none" xmlns="http://www.w3.org/2000/svg">
<g clip-path="url(#clip0_344_7440)">
<path d="M182.169 497.371C182.169 498.016 182.169 533.267 182.169 533.267H176.174V537.166H182.169V561.186H294.152V539.34H285.864V534.572H294.152V527.434H297.839V524.181H293.462V497.371H182.169Z" fill="#F5F5F5"/>
<path d="M264.416 497.476V560.796H294.15V538.935H285.862V534.572L294.15 534.722V527.569L297.912 527.584L297.837 523.896L293.461 523.776V497.371L264.416 497.476Z" fill="#E0E0E0"/>
<path d="M266.545 536.656C266.545 536.881 246.283 537.061 221.284 537.061C196.286 537.061 176.023 536.881 176.023 536.656C176.023 536.431 196.286 536.251 221.284 536.251C246.283 536.251 266.545 536.431 266.545 536.656Z" fill="#E0E0E0"/>
<path d="M266.545 533.012C266.545 533.237 246.283 533.417 221.284 533.417C196.286 533.417 176.023 533.237 176.023 533.012C176.023 532.787 196.286 532.607 221.284 532.607C246.283 532.607 266.545 532.787 266.545 533.012Z" fill="#E0E0E0"/>
<path d="M272.346 523.191C272.346 523.416 252.083 523.596 227.085 523.596C202.087 523.596 181.824 523.416 181.824 523.191C181.824 522.966 202.087 522.786 227.085 522.786C252.083 522.801 272.346 522.981 272.346 523.191Z" fill="#E0E0E0"/>
<path d="M272.914 549.94C272.914 550.165 252.652 550.345 227.653 550.345C202.655 550.345 182.393 550.165 182.393 549.94C182.393 549.716 202.655 549.536 227.653 549.536C252.652 549.536 272.914 549.716 272.914 549.94Z" fill="#E0E0E0"/>
<path d="M190.62 559.417C190.62 560.062 190.62 595.313 190.62 595.313H184.625V599.211H190.62V623.232H302.603V601.371H294.315V596.602H302.603V589.465H306.29V586.211H301.914V559.402H190.62V559.417Z" fill="#F5F5F5"/>
<path d="M272.869 559.522V622.842H302.603V600.981H294.316V596.617L302.603 596.767V589.615L306.365 589.63L306.29 585.942L301.914 585.822V559.417L272.869 559.522Z" fill="#E0E0E0"/>
<path d="M274.983 598.702C274.983 598.927 254.72 599.107 229.722 599.107C204.723 599.107 184.461 598.927 184.461 598.702C184.461 598.477 204.723 598.297 229.722 598.297C254.72 598.297 274.983 598.477 274.983 598.702Z" fill="#E0E0E0"/>
<path d="M274.983 595.058C274.983 595.283 254.72 595.463 229.722 595.463C204.723 595.463 184.461 595.283 184.461 595.058C184.461 594.833 204.723 594.653 229.722 594.653C254.72 594.653 274.983 594.833 274.983 595.058Z" fill="#E0E0E0"/>
<path d="M280.797 585.237C280.797 585.462 260.535 585.642 235.536 585.642C210.538 585.642 190.275 585.462 190.275 585.237C190.275 585.012 210.538 584.832 235.536 584.832C260.535 584.847 280.797 585.027 280.797 585.237Z" fill="#E0E0E0"/>
<path d="M281.352 611.986C281.352 612.211 261.089 612.391 236.091 612.391C211.093 612.391 190.83 612.211 190.83 611.986C190.83 611.761 211.093 611.582 236.091 611.582C261.089 611.582 281.352 611.761 281.352 611.986Z" fill="#E0E0E0"/>
<path d="M201.2 442.312C201.2 442.957 201.2 478.208 201.2 478.208H195.205V482.107H201.2V506.127H313.183V484.266H304.895V479.498H313.183V472.361H316.87V469.107H312.494V442.297H201.2V442.312Z" fill="#F5F5F5"/>
<path d="M283.449 442.417V505.738H313.184V483.876H304.881V479.513L313.184 479.663V472.511L316.945 472.526L316.87 468.822L312.494 468.717V442.312L283.449 442.417Z" fill="#E0E0E0"/>
<path d="M285.563 481.597C285.563 481.822 265.3 482.002 240.302 482.002C215.303 482.002 195.041 481.822 195.041 481.597C195.041 481.372 215.303 481.192 240.302 481.192C265.3 481.192 285.563 481.372 285.563 481.597Z" fill="#E0E0E0"/>
<path d="M285.563 477.953C285.563 478.178 265.3 478.358 240.302 478.358C215.303 478.358 195.041 478.178 195.041 477.953C195.041 477.728 215.303 477.548 240.302 477.548C265.3 477.548 285.563 477.728 285.563 477.953Z" fill="#E0E0E0"/>
<path d="M291.377 468.132C291.377 468.357 271.115 468.537 246.116 468.537C221.118 468.537 200.855 468.357 200.855 468.132C200.855 467.907 221.118 467.728 246.116 467.728C271.115 467.728 291.377 467.907 291.377 468.132Z" fill="#E0E0E0"/>
<path d="M291.932 494.882C291.932 495.107 271.669 495.287 246.671 495.287C221.673 495.287 201.41 495.107 201.41 494.882C201.41 494.657 221.673 494.477 246.671 494.477C271.669 494.477 291.932 494.657 291.932 494.882Z" fill="#E0E0E0"/>
<path d="M366.208 559.537C366.208 560.167 366.208 594.323 366.208 594.323H360.408V598.102H366.208V621.388H474.744V600.201H466.711V595.583H474.744V588.656H478.311V585.507H474.07V559.522H366.208V559.537Z" fill="#F5F5F5"/>
<path d="M445.91 559.627V620.998H474.73V599.811H466.697V595.583L474.73 595.718V588.806H478.372L478.312 585.222L474.056 585.117V559.537L445.91 559.627Z" fill="#E0E0E0"/>
<path d="M447.963 597.592C447.963 597.802 428.33 597.982 404.111 597.982C379.877 597.982 360.244 597.817 360.244 597.592C360.244 597.382 379.877 597.202 404.111 597.202C428.33 597.217 447.963 597.382 447.963 597.592Z" fill="#E0E0E0"/>
<path d="M447.963 594.069C447.963 594.278 428.33 594.458 404.111 594.458C379.877 594.458 360.244 594.278 360.244 594.069C360.244 593.859 379.877 593.679 404.111 593.679C428.33 593.679 447.963 593.844 447.963 594.069Z" fill="#E0E0E0"/>
<path d="M453.598 584.547C453.598 584.757 433.965 584.937 409.746 584.937C385.512 584.937 365.879 584.772 365.879 584.547C365.879 584.337 385.512 584.157 409.746 584.157C433.965 584.172 453.598 584.337 453.598 584.547Z" fill="#E0E0E0"/>
<path d="M454.137 610.472C454.137 610.682 434.504 610.862 410.285 610.862C386.051 610.862 366.418 610.682 366.418 610.472C366.418 610.262 386.051 610.082 410.285 610.082C434.504 610.082 454.137 610.262 454.137 610.472Z" fill="#E0E0E0"/>
<path d="M12.7687 559.537C12.7687 560.167 12.7687 594.323 12.7687 594.323H6.96875V598.102H12.7687V621.388H121.305V600.201H113.272V595.583H121.305V588.656H124.872V585.507H120.63V559.522H12.7687V559.537Z" fill="#F5F5F5"/>
<path d="M92.4844 559.627V620.998H121.304V599.811H113.256V595.583L121.304 595.718V588.806H124.946L124.871 585.222L120.63 585.117V559.537L92.4844 559.627Z" fill="#E0E0E0"/>
<path d="M94.5375 597.592C94.5375 597.802 74.9045 597.982 50.6854 597.982C26.4514 597.982 6.81836 597.817 6.81836 597.592C6.81836 597.382 26.4514 597.202 50.6854 597.202C74.8895 597.217 94.5375 597.382 94.5375 597.592Z" fill="#E0E0E0"/>
<path d="M94.5375 594.069C94.5375 594.278 74.9045 594.458 50.6854 594.458C26.4514 594.458 6.81836 594.278 6.81836 594.069C6.81836 593.859 26.4514 593.679 50.6854 593.679C74.8895 593.679 94.5375 593.844 94.5375 594.069Z" fill="#E0E0E0"/>
<path d="M100.172 584.547C100.172 584.757 80.5393 584.937 56.3202 584.937C32.0861 584.937 12.4531 584.772 12.4531 584.547C12.4531 584.337 32.0861 584.157 56.3202 584.157C80.5243 584.172 100.172 584.337 100.172 584.547Z" fill="#E0E0E0"/>
<path d="M100.711 610.472C100.711 610.682 81.0783 610.862 56.8592 610.862C32.6252 610.862 12.9922 610.682 12.9922 610.472C12.9922 610.262 32.6252 610.082 56.8592 610.082C81.0633 610.082 100.711 610.262 100.711 610.472Z" fill="#E0E0E0"/>
<path d="M584 246.849H455.996C455.996 182.389 403.257 128.38 338.827 128.38C274.398 128.38 221.778 182.389 221.778 246.849H93.6543C93.6543 111.601 203.644 0 338.827 0C474.01 0 584 111.601 584 246.849Z" fill="#E0E0E0"/>
<path d="M338.887 15.9688C313.634 15.9688 289.31 20.0622 266.545 27.6042L297.973 125.381C310.832 121.033 324.59 118.679 338.887 118.679C354.459 118.679 369.386 121.468 383.204 126.581L415.906 29.2086C391.807 20.6469 365.894 15.9688 338.887 15.9688Z" fill="#FFC727"/>
<path d="M569.672 246.849C569.672 199.527 555.36 155.504 530.856 118.844L448.457 180.47C460.222 199.842 467.011 222.558 467.011 246.834H569.672V246.849Z" fill="#FFC727"/>
<path d="M108.117 246.849H210.778C210.778 222.393 217.657 199.527 229.587 180.05L147.983 117.284C122.834 154.245 108.117 198.867 108.117 246.849Z" fill="#FFC727"/>
<path d="M147.982 117.284L229.587 180.065C245.158 154.664 269.303 135.067 297.988 125.381L266.56 27.604C217.852 43.7227 176.293 75.6453 147.982 117.284Z" fill="#FFC727"/>
<path d="M415.907 29.2085L383.205 126.581C410.541 136.702 433.517 155.879 448.459 180.484L530.857 118.859C503.416 77.7895 463.191 46.0019 415.907 29.2085Z" fill="#FFC727"/>
<g opacity="0.5">
<path d="M108.117 246.849H210.778C210.778 222.393 217.657 199.527 229.587 180.05L147.983 117.284C122.834 154.245 108.117 198.867 108.117 246.849Z" fill="white"/>
</g>
<g opacity="0.3">
<path d="M147.982 117.284L229.587 180.065C245.158 154.664 269.303 135.067 297.988 125.381L266.56 27.604C217.852 43.7227 176.293 75.6453 147.982 117.284Z" fill="white"/>
</g>
<g opacity="0.3">
<path d="M415.905 29.2085L383.203 126.581C410.539 136.702 433.515 155.879 448.457 180.484L530.855 118.859C503.414 77.7895 463.189 46.0019 415.905 29.2085Z" fill="black"/>
</g>
<g opacity="0.5">
<path d="M569.672 246.849C569.672 199.527 555.36 155.504 530.856 118.844L448.457 180.47C460.222 199.842 467.011 222.558 467.011 246.834H569.672V246.849Z" fill="black"/>
</g>
<path d="M530.857 118.844C530.857 118.844 532.61 121.438 535.848 126.536C538.98 131.694 543.521 139.416 548.452 149.942C549.651 152.581 550.97 155.355 552.169 158.368C552.783 159.868 553.427 161.397 554.072 162.972C554.671 164.561 555.271 166.195 555.885 167.86C557.189 171.173 558.253 174.742 559.497 178.416C560.037 180.275 560.591 182.179 561.161 184.113C561.445 185.088 561.715 186.063 562 187.052C562.255 188.042 562.495 189.061 562.749 190.066C564.863 198.163 566.586 207.009 567.845 216.486C569.104 225.977 569.868 236.113 569.898 246.834V247.074H569.658C539.774 247.089 505.259 247.119 466.997 247.134H466.697V246.834C466.652 233.369 464.584 219.35 459.863 205.675C455.217 192 448.024 178.67 438.372 166.735C428.735 154.8 416.656 144.259 402.673 136.117C395.674 132.069 388.18 128.695 380.372 125.936C372.549 123.252 364.366 121.288 355.988 120.163C339.233 117.929 321.623 118.949 304.673 123.687C296.19 126.026 287.902 129.34 279.974 133.493C272.031 137.631 264.447 142.625 257.478 148.472C243.451 160.063 231.746 174.922 223.623 191.805C215.53 208.704 211.138 227.641 211.153 246.849V247.239H210.764C202.686 247.239 193.978 247.239 185.226 247.239C158.804 247.239 132.741 247.239 108.103 247.239H107.713V246.849C107.773 226.037 110.56 205.54 115.821 186.063C121.171 166.6 128.979 148.202 138.676 131.349C148.478 114.54 160.108 99.2764 173.101 85.9166C179.531 79.1543 186.455 73.0667 193.469 67.2789C200.498 61.5062 207.886 56.3632 215.32 51.5351C230.337 42.1037 245.923 34.4717 261.735 28.9539C277.486 23.2861 293.387 19.6125 308.914 17.6033C340.012 13.5699 369.492 16.1489 395.119 22.6563C420.822 29.1188 442.673 39.4648 460.418 50.4705C469.32 55.9583 477.173 61.7461 484.097 67.3839C491.081 72.9617 497.001 78.5995 502.217 83.7425C507.357 88.9755 511.719 93.7886 515.33 98.1069C517.114 100.281 518.747 102.29 520.246 104.135C521.67 106.024 522.974 107.748 524.128 109.278C525.297 110.792 526.271 112.186 527.095 113.386C527.92 114.585 528.609 115.59 529.178 116.4C530.302 118.004 530.857 118.844 530.857 118.844C530.857 118.844 530.257 118.034 529.133 116.43C528.564 115.62 527.86 114.63 527.02 113.446C526.196 112.246 525.222 110.867 524.023 109.353C519.467 103.175 512.318 94.3284 502.022 83.9374C496.791 78.8244 490.872 73.2166 483.888 67.6538C476.964 62.031 469.11 56.2732 460.208 50.8153C442.478 39.8546 420.657 29.5686 394.999 23.1511C369.417 16.7036 340.012 14.1546 309.004 18.2031C293.522 20.2273 277.666 23.9008 261.959 29.5536C246.208 35.0715 230.667 42.7035 215.695 52.1048C208.291 56.933 200.932 62.061 193.918 67.8187C186.934 73.5915 180.025 79.6791 173.626 86.4115C160.677 99.7263 149.092 114.96 139.336 131.709C129.669 148.517 121.906 166.855 116.57 186.243C111.325 205.66 108.552 226.082 108.507 246.819L108.118 246.429C132.756 246.429 158.819 246.429 185.241 246.429C193.993 246.429 202.701 246.429 210.779 246.429L210.389 246.819C210.374 227.506 214.795 208.449 222.948 191.445C231.116 174.457 242.896 159.523 257.014 147.857C264.043 141.98 271.671 136.957 279.644 132.803C287.632 128.635 295.965 125.306 304.493 122.952C321.548 118.184 339.248 117.179 356.108 119.429C364.546 120.568 372.759 122.547 380.627 125.246C388.48 128.02 396.004 131.424 403.033 135.487C417.09 143.674 429.23 154.275 438.897 166.285C448.593 178.296 455.817 191.7 460.463 205.45C465.184 219.2 467.252 233.279 467.282 246.819L466.982 246.519C505.229 246.549 539.759 246.564 569.643 246.579L569.404 246.819C569.389 236.128 568.639 226.007 567.41 216.531C566.181 207.054 564.473 198.238 562.375 190.141C562.12 189.121 561.88 188.117 561.625 187.127C561.341 186.138 561.071 185.163 560.786 184.188C560.232 182.254 559.677 180.365 559.137 178.506C557.909 174.832 556.845 171.263 555.556 167.95C554.941 166.285 554.342 164.651 553.757 163.062C553.113 161.487 552.483 159.958 551.869 158.458C550.685 155.445 549.381 152.671 548.182 150.032C543.311 139.491 538.8 131.754 535.698 126.581C534.124 124.002 532.865 122.098 532.056 120.793C531.262 119.519 530.857 118.844 530.857 118.844Z" fill="#263238"/>
<path d="M122.953 220.249L123.882 216.455L137.206 219.739L139.229 211.507L142.316 212.272L139.349 224.297L122.953 220.249Z" fill="white"/>
<path d="M142.96 207.114C141.821 208.238 140.487 208.973 138.989 209.333C137.49 209.693 135.946 209.633 134.358 209.138C132.769 208.643 131.465 207.819 130.446 206.664C129.412 205.51 128.753 204.145 128.453 202.571C128.153 200.996 128.258 199.377 128.783 197.698C129.307 196.018 130.131 194.624 131.285 193.514C132.424 192.405 133.743 191.655 135.257 191.295C136.771 190.92 138.314 190.98 139.888 191.475C141.477 191.97 142.78 192.795 143.8 193.964C144.834 195.134 145.493 196.498 145.793 198.057C146.093 199.617 145.988 201.236 145.463 202.916C144.939 204.595 144.099 205.989 142.96 207.114ZM142.436 199.137C142.241 198.237 141.821 197.443 141.162 196.753C140.517 196.063 139.693 195.568 138.689 195.254C137.685 194.939 136.726 194.879 135.812 195.074C134.897 195.269 134.088 195.673 133.414 196.318C132.739 196.948 132.245 197.743 131.945 198.687C131.645 199.647 131.6 200.576 131.795 201.476C131.99 202.376 132.409 203.17 133.054 203.86C133.698 204.55 134.523 205.045 135.527 205.36C136.531 205.674 137.49 205.734 138.404 205.54C139.318 205.345 140.128 204.94 140.802 204.31C141.477 203.68 141.971 202.886 142.271 201.941C142.571 200.981 142.631 200.052 142.436 199.137Z" fill="white"/>
<path d="M142.436 162.012L156.029 173.482L154.456 177.381L142.451 176.541L151.623 184.398L150.049 188.266L132.305 187.082L133.833 183.318L146.273 184.233L136.756 176.076L138.12 172.718L150.664 173.632L141.042 165.49L142.436 162.012Z" fill="white"/>
<path d="M300.4 51.5946L298.242 41.6834L295.14 50.9048L293.416 51.2797L286.867 44.3674L288.95 54.0686L285.368 54.8333L281.816 38.2947L284.979 37.62L293.371 46.5715L297.253 34.996L300.385 34.3213L303.982 50.8448L300.4 51.5946Z" fill="white"/>
<path d="M320.182 45.7321L320.557 48.8509L307.563 50.3953L305.555 33.6018L318.234 32.0874L318.608 35.2062L309.781 36.2558L310.216 39.8994L318.009 38.9697L318.369 41.9985L310.575 42.9282L311.04 46.8117L320.182 45.7321Z" fill="white"/>
<path d="M322.656 31.6977L330.33 31.3828C332.158 31.3078 333.792 31.5927 335.23 32.2375C336.669 32.8822 337.793 33.8269 338.632 35.0564C339.472 36.3009 339.921 37.7553 339.981 39.4497C340.056 41.144 339.727 42.6284 338.992 43.9329C338.258 45.2374 337.209 46.272 335.83 47.0217C334.451 47.7714 332.847 48.1912 331.004 48.2662L323.331 48.5811L322.656 31.6977ZM330.689 45.0875C332.383 45.0125 333.702 44.4877 334.676 43.5131C335.65 42.5235 336.1 41.234 336.025 39.6296C335.965 38.0252 335.41 36.7657 334.361 35.8661C333.312 34.9664 331.948 34.5466 330.27 34.6215L326.703 34.7715L327.122 45.2524L330.689 45.0875Z" fill="white"/>
<path d="M343.383 31.1577L347.295 31.2477L346.935 48.1461L343.023 48.0561L343.383 31.1577Z" fill="white"/>
<path d="M352.735 46.5566C351.491 45.1321 350.952 43.1679 351.131 40.6939L351.821 31.2476L355.717 31.5324L355.043 40.8288C354.818 43.8426 355.972 45.447 358.475 45.627C359.689 45.7169 360.648 45.417 361.353 44.7273C362.042 44.0376 362.447 42.928 362.567 41.3686L363.241 32.0722L367.093 32.3571L366.403 41.8034C366.223 44.2775 365.414 46.1368 363.975 47.3663C362.537 48.5958 360.618 49.1356 358.205 48.9557C355.807 48.7907 353.979 47.996 352.735 46.5566Z" fill="white"/>
<path d="M384.476 52.1495L386.17 42.1484L379.86 49.5405L378.122 49.2406L374.615 40.3791L372.936 50.1702L369.324 49.5555L372.187 32.897L375.379 33.4368L379.845 44.8623L387.758 35.5659L390.921 36.1057L388.103 52.7792L384.476 52.1495Z" fill="white"/>
<path d="M542.02 178.505L526.299 184.713L524.86 181.069L531.304 178.52L528.487 171.368L522.042 173.917L520.604 170.273L536.325 164.066L537.764 167.709L531.559 170.154L534.377 177.306L540.581 174.862L542.02 178.505Z" fill="white"/>
<path d="M543.475 182.869L544.734 186.572L528.728 192.015L527.469 188.312L543.475 182.869Z" fill="white"/>
<path d="M541.542 204.19L542.531 207.624L535.952 209.528C535.037 208.839 534.228 207.969 533.539 206.904C532.849 205.855 532.325 204.73 531.995 203.561C531.5 201.881 531.425 200.247 531.755 198.702C532.085 197.143 532.774 195.809 533.823 194.669C534.872 193.53 536.206 192.735 537.81 192.27C539.414 191.805 540.972 191.775 542.471 192.165C543.97 192.555 545.274 193.335 546.383 194.489C547.492 195.644 548.301 197.068 548.795 198.762C549.215 200.187 549.35 201.551 549.2 202.841C549.05 204.145 548.646 205.315 547.956 206.365L545.034 204.595C545.918 203.081 546.128 201.506 545.648 199.857C545.348 198.822 544.869 197.968 544.194 197.278C543.535 196.603 542.741 196.153 541.811 195.929C540.897 195.704 539.923 195.749 538.904 196.049C537.9 196.333 537.061 196.828 536.416 197.503C535.757 198.178 535.322 198.987 535.112 199.902C534.902 200.832 534.947 201.791 535.247 202.826C535.562 203.905 536.071 204.82 536.791 205.54L541.542 204.19Z" fill="white"/>
<path d="M554.82 224.822L538.304 228.436L537.465 224.612L544.239 223.128L542.606 215.631L535.831 217.115L534.992 213.292L551.508 209.678L552.347 213.502L545.843 214.926L547.476 222.423L553.981 220.999L554.82 224.822Z" fill="white"/>
<path d="M122.953 220.249L123.882 216.455L137.206 219.739L139.229 211.507L142.316 212.272L139.349 224.297L122.953 220.249Z" fill="white"/>
<path d="M142.96 207.114C141.821 208.238 140.487 208.973 138.989 209.333C137.49 209.693 135.946 209.633 134.358 209.138C132.769 208.643 131.465 207.819 130.446 206.664C129.412 205.51 128.753 204.145 128.453 202.571C128.153 200.996 128.258 199.377 128.783 197.698C129.307 196.018 130.131 194.624 131.285 193.514C132.424 192.405 133.743 191.655 135.257 191.295C136.771 190.92 138.314 190.98 139.888 191.475C141.477 191.97 142.78 192.795 143.8 193.964C144.834 195.134 145.493 196.498 145.793 198.057C146.093 199.617 145.988 201.236 145.463 202.916C144.939 204.595 144.099 205.989 142.96 207.114ZM142.436 199.137C142.241 198.237 141.821 197.443 141.162 196.753C140.517 196.063 139.693 195.568 138.689 195.254C137.685 194.939 136.726 194.879 135.812 195.074C134.897 195.269 134.088 195.673 133.414 196.318C132.739 196.948 132.245 197.743 131.945 198.687C131.645 199.647 131.6 200.576 131.795 201.476C131.99 202.376 132.409 203.17 133.054 203.86C133.698 204.55 134.523 205.045 135.527 205.36C136.531 205.674 137.49 205.734 138.404 205.54C139.318 205.345 140.128 204.94 140.802 204.31C141.477 203.68 141.971 202.886 142.271 201.941C142.571 200.981 142.631 200.052 142.436 199.137Z" fill="white"/>
<path d="M142.436 162.012L156.029 173.482L154.456 177.381L142.451 176.541L151.623 184.398L150.049 188.266L132.305 187.082L133.833 183.318L146.273 184.233L136.756 176.076L138.12 172.718L150.664 173.632L141.042 165.49L142.436 162.012Z" fill="white"/>
<path d="M300.4 51.5946L298.242 41.6834L295.14 50.9048L293.416 51.2797L286.867 44.3674L288.95 54.0686L285.368 54.8333L281.816 38.2947L284.979 37.62L293.371 46.5715L297.253 34.996L300.385 34.3213L303.982 50.8448L300.4 51.5946Z" fill="white"/>
<path d="M320.182 45.7321L320.557 48.8509L307.563 50.3953L305.555 33.6018L318.234 32.0874L318.608 35.2062L309.781 36.2558L310.216 39.8994L318.009 38.9697L318.369 41.9985L310.575 42.9282L311.04 46.8117L320.182 45.7321Z" fill="white"/>
<path d="M322.656 31.6977L330.33 31.3828C332.158 31.3078 333.792 31.5927 335.23 32.2375C336.669 32.8822 337.793 33.8269 338.632 35.0564C339.472 36.3009 339.921 37.7553 339.981 39.4497C340.056 41.144 339.727 42.6284 338.992 43.9329C338.258 45.2374 337.209 46.272 335.83 47.0217C334.451 47.7714 332.847 48.1912 331.004 48.2662L323.331 48.5811L322.656 31.6977ZM330.689 45.0875C332.383 45.0125 333.702 44.4877 334.676 43.5131C335.65 42.5235 336.1 41.234 336.025 39.6296C335.965 38.0252 335.41 36.7657 334.361 35.8661C333.312 34.9664 331.948 34.5466 330.27 34.6215L326.703 34.7715L327.122 45.2524L330.689 45.0875Z" fill="white"/>
<path d="M343.383 31.1577L347.295 31.2477L346.935 48.1461L343.023 48.0561L343.383 31.1577Z" fill="white"/>
<path d="M352.735 46.5566C351.491 45.1321 350.952 43.1679 351.131 40.6939L351.821 31.2476L355.717 31.5324L355.043 40.8288C354.818 43.8426 355.972 45.447 358.475 45.627C359.689 45.7169 360.648 45.417 361.353 44.7273C362.042 44.0376 362.447 42.928 362.567 41.3686L363.241 32.0722L367.093 32.3571L366.403 41.8034C366.223 44.2775 365.414 46.1368 363.975 47.3663C362.537 48.5958 360.618 49.1356 358.205 48.9557C355.807 48.7907 353.979 47.996 352.735 46.5566Z" fill="white"/>
<path d="M384.476 52.1495L386.17 42.1484L379.86 49.5405L378.122 49.2406L374.615 40.3791L372.936 50.1702L369.324 49.5555L372.187 32.897L375.379 33.4368L379.845 44.8623L387.758 35.5659L390.921 36.1057L388.103 52.7792L384.476 52.1495Z" fill="white"/>
<path d="M542.02 178.505L526.299 184.713L524.86 181.069L531.304 178.52L528.487 171.368L522.042 173.917L520.604 170.273L536.325 164.066L537.764 167.709L531.559 170.154L534.377 177.306L540.581 174.862L542.02 178.505Z" fill="white"/>
<path d="M543.475 182.869L544.734 186.572L528.728 192.015L527.469 188.312L543.475 182.869Z" fill="white"/>
<path d="M541.542 204.19L542.531 207.624L535.952 209.528C535.037 208.839 534.228 207.969 533.539 206.904C532.849 205.855 532.325 204.73 531.995 203.561C531.5 201.881 531.425 200.247 531.755 198.702C532.085 197.143 532.774 195.809 533.823 194.669C534.872 193.53 536.206 192.735 537.81 192.27C539.414 191.805 540.972 191.775 542.471 192.165C543.97 192.555 545.274 193.335 546.383 194.489C547.492 195.644 548.301 197.068 548.795 198.762C549.215 200.187 549.35 201.551 549.2 202.841C549.05 204.145 548.646 205.315 547.956 206.365L545.034 204.595C545.918 203.081 546.128 201.506 545.648 199.857C545.348 198.822 544.869 197.968 544.194 197.278C543.535 196.603 542.741 196.153 541.811 195.929C540.897 195.704 539.923 195.749 538.904 196.049C537.9 196.333 537.061 196.828 536.416 197.503C535.757 198.178 535.322 198.987 535.112 199.902C534.902 200.832 534.947 201.791 535.247 202.826C535.562 203.905 536.071 204.82 536.791 205.54L541.542 204.19Z" fill="white"/>
<path d="M554.82 224.822L538.304 228.436L537.465 224.612L544.239 223.128L542.606 215.631L535.831 217.115L534.992 213.292L551.508 209.678L552.347 213.502L545.843 214.926L547.476 222.423L553.981 220.999L554.82 224.822Z" fill="white"/>
<path d="M386.891 222.863C389.85 210.408 382.157 197.91 369.708 194.949C357.258 191.987 344.766 199.684 341.806 212.14C338.847 224.595 346.54 237.093 358.989 240.054C371.439 243.015 383.931 235.319 386.891 222.863Z" fill="#263238"/>
<path d="M182.332 156.404C181.193 159.478 182.811 162.881 185.914 163.931L364.349 230.61L374.196 207.189L189.526 152.865C186.558 151.951 183.411 153.51 182.332 156.404Z" fill="#263238"/>
<path d="M386.891 222.863C389.85 210.408 382.157 197.91 369.708 194.949C357.258 191.987 344.766 199.684 341.806 212.14C338.847 224.595 346.54 237.093 358.989 240.054C371.439 243.015 383.931 235.319 386.891 222.863Z" fill="#263238"/>
<path d="M182.332 156.404C181.193 159.478 182.811 162.881 185.914 163.931L364.349 230.61L374.196 207.189L189.526 152.865C186.558 151.951 183.411 153.51 182.332 156.404Z" fill="#263238"/>
<path d="M324.049 213.067C324.004 212.182 324.019 211.283 324.064 210.398C324.094 209.933 324.139 209.453 324.199 208.989C324.109 209.798 324.259 208.704 324.304 208.434C324.469 207.564 324.679 206.694 324.949 205.84C325.083 205.39 325.233 204.94 325.398 204.49C325.473 204.295 325.548 204.1 325.623 203.906C325.878 203.231 325.473 204.19 325.668 203.786C326.447 202.166 327.271 200.622 328.336 199.167C328.381 199.107 328.785 198.583 328.515 198.927C328.246 199.272 328.665 198.748 328.71 198.688C329.01 198.328 329.325 197.968 329.639 197.623C330.284 196.933 330.973 196.289 331.693 195.674C333.191 194.399 333.101 191.67 331.693 190.366C330.104 188.896 327.991 189.001 326.387 190.366C319.898 195.884 316.166 204.55 316.526 213.052C316.616 215.001 318.189 216.89 320.273 216.8C322.266 216.741 324.139 215.166 324.049 213.067Z" fill="#B56F57"/>
<path d="M324.08 209.438C323.975 209.648 322.432 209.018 320.438 208.779C318.445 208.509 316.797 208.734 316.752 208.509C316.692 208.314 318.385 207.729 320.543 208.014C322.686 208.269 324.185 209.258 324.08 209.438Z" fill="#263238"/>
<path d="M325.922 203.366C325.757 203.531 324.483 202.466 322.655 201.626C320.841 200.757 319.208 200.457 319.223 200.232C319.223 200.022 321.021 199.992 322.984 200.922C324.963 201.836 326.087 203.231 325.922 203.366Z" fill="#263238"/>
<path d="M328.65 199.002C328.44 199.107 327.571 197.683 326.117 196.303C324.678 194.909 323.225 194.099 323.315 193.889C323.374 193.694 325.098 194.234 326.657 195.749C328.23 197.233 328.845 198.927 328.65 199.002Z" fill="#263238"/>
<path d="M299.799 204.415C299.754 203.53 299.769 202.631 299.814 201.746C299.844 201.281 299.889 200.802 299.949 200.337C299.859 201.146 300.009 200.052 300.054 199.782C300.219 198.912 300.429 198.043 300.698 197.188C300.833 196.738 300.983 196.288 301.148 195.838C301.223 195.644 301.298 195.449 301.373 195.254C301.628 194.579 301.223 195.539 301.418 195.134C302.197 193.514 303.021 191.97 304.086 190.516C304.131 190.456 304.535 189.931 304.265 190.276C303.996 190.62 304.415 190.096 304.46 190.036C304.76 189.676 305.075 189.316 305.389 188.971C306.034 188.281 306.723 187.637 307.443 187.022C308.941 185.747 308.851 183.018 307.443 181.714C305.854 180.245 303.741 180.349 302.137 181.714C295.648 187.232 291.916 195.898 292.276 204.4C292.366 206.349 293.939 208.239 296.023 208.149C298.016 208.089 299.889 206.514 299.799 204.415Z" fill="#B56F57"/>
<path d="M299.83 200.786C299.725 200.996 298.182 200.367 296.188 200.127C294.195 199.857 292.547 200.082 292.502 199.857C292.442 199.662 294.135 199.077 296.293 199.362C298.436 199.617 299.935 200.607 299.83 200.786Z" fill="#263238"/>
<path d="M301.672 194.714C301.507 194.879 300.233 193.814 298.405 192.975C296.591 192.105 294.958 191.805 294.973 191.58C294.973 191.37 296.771 191.34 298.734 192.27C300.713 193.184 301.837 194.579 301.672 194.714Z" fill="#263238"/>
<path d="M304.4 190.35C304.19 190.455 303.321 189.031 301.867 187.652C300.428 186.257 298.975 185.447 299.065 185.237C299.124 185.043 300.848 185.582 302.407 187.097C303.98 188.581 304.595 190.275 304.4 190.35Z" fill="#263238"/>
<path d="M333.641 216.501C333.596 215.616 333.611 214.716 333.656 213.832C333.686 213.367 333.731 212.887 333.791 212.422C333.701 213.232 333.851 212.137 333.896 211.867C334.061 210.998 334.271 210.128 334.54 209.273C334.675 208.824 334.825 208.374 334.99 207.924C335.065 207.729 335.14 207.534 335.215 207.339C335.469 206.664 335.065 207.624 335.26 207.219C336.039 205.6 336.863 204.055 337.927 202.601C337.972 202.541 338.377 202.016 338.107 202.361C337.837 202.706 338.257 202.181 338.302 202.121C338.602 201.761 338.917 201.401 339.231 201.057C339.876 200.367 340.565 199.722 341.284 199.107C342.783 197.833 342.693 195.104 341.284 193.799C339.681 192.33 337.583 192.435 335.979 193.799C329.49 199.317 325.758 207.984 326.118 216.486C326.208 218.435 327.781 220.324 329.864 220.234C331.858 220.159 333.731 218.585 333.641 216.501Z" fill="#B56F57"/>
<path d="M333.672 212.857C333.567 213.067 332.023 212.437 330.03 212.197C328.037 211.927 326.388 212.152 326.343 211.927C326.283 211.732 327.977 211.147 330.135 211.432C332.278 211.687 333.777 212.677 333.672 212.857Z" fill="#263238"/>
<path d="M335.514 206.784C335.349 206.949 334.075 205.885 332.247 205.045C330.433 204.175 328.8 203.875 328.815 203.65C328.815 203.44 330.613 203.41 332.576 204.34C334.555 205.255 335.679 206.649 335.514 206.784Z" fill="#263238"/>
<path d="M338.242 202.421C338.032 202.526 337.163 201.102 335.709 199.722C334.27 198.328 332.816 197.518 332.906 197.308C332.966 197.113 334.69 197.653 336.248 199.168C337.822 200.652 338.422 202.346 338.242 202.421Z" fill="#263238"/>
<path d="M114.891 597.307L130.298 618.644C130.298 618.644 97.4764 634.672 97.7162 641L163.584 634.447L162.94 627.685C162.745 625.631 162.16 623.622 161.201 621.792L141.194 583.527L114.891 597.307Z" fill="#263238"/>
<path d="M163.584 634.447L162.864 629.125L99.9785 637.386C99.9785 637.386 97.1759 638.961 97.7155 640.985L163.584 634.447Z" fill="#455A64"/>
<path d="M129.953 618.659C129.998 618.974 131.617 618.959 133.31 619.843C135.019 620.683 135.978 621.987 136.263 621.837C136.548 621.747 135.888 619.873 133.82 618.839C131.752 617.804 129.848 618.374 129.953 618.659Z" fill="white"/>
<path d="M123.013 622.422C122.968 622.737 124.422 623.157 125.65 624.402C126.909 625.616 127.329 627.056 127.659 627.011C127.958 627.026 128.003 625.121 126.445 623.592C124.886 622.062 122.983 622.107 123.013 622.422Z" fill="white"/>
<path d="M119.941 631.374C120.241 631.419 120.525 629.755 119.521 628.075C118.532 626.381 116.943 625.841 116.838 626.126C116.689 626.411 117.753 627.25 118.547 628.645C119.386 630.024 119.626 631.374 119.941 631.374Z" fill="white"/>
<path d="M127.3 614.1C127.555 614.31 128.679 613.246 130.372 612.541C132.051 611.806 133.595 611.716 133.625 611.401C133.685 611.101 131.916 610.652 129.938 611.506C127.945 612.346 127.045 613.95 127.3 614.1Z" fill="white"/>
<path d="M315.791 562.176L342.513 594.563L371.018 614.086C373.072 615.495 373.506 618.344 371.963 620.308C371.093 621.403 369.775 622.017 368.381 621.942C359.523 621.478 326.927 619.633 325.098 617.159C322.985 614.28 294.645 584.877 294.645 584.877L315.791 562.176Z" fill="#263238"/>
<path d="M371.962 620.293L323.254 615L324.423 616.349C325.427 617.519 326.806 618.284 328.335 618.524C332.396 619.153 343.666 620.638 368.305 622.017C369.729 622.092 371.108 621.447 371.962 620.293Z" fill="#455A64"/>
<path d="M352.719 612.691C352.974 612.631 352.254 610.337 353.363 607.818C354.398 605.254 356.541 604.189 356.421 603.949C356.376 603.845 355.761 603.949 354.937 604.489C354.113 605.014 353.124 606.049 352.524 607.458C351.94 608.868 351.88 610.292 352.075 611.252C352.254 612.226 352.614 612.736 352.719 612.691Z" fill="white"/>
<path d="M358.654 614.985C358.923 614.985 359.043 613.081 360.287 611.192C361.486 609.273 363.165 608.358 363.045 608.103C363 607.863 360.887 608.508 359.508 610.682C358.114 612.856 358.414 615.045 358.654 614.985Z" fill="white"/>
<path d="M343.802 610.877C344.086 610.892 344.266 607.953 345.93 604.849C347.548 601.715 349.871 599.901 349.692 599.676C349.602 599.466 346.859 601.056 345.121 604.414C343.337 607.758 343.562 610.922 343.802 610.877Z" fill="white"/>
<path d="M334.854 601.715C335.109 601.835 336.218 599.586 338.436 597.532C340.624 595.448 342.932 594.458 342.827 594.203C342.783 593.978 340.16 594.623 337.807 596.857C335.439 599.076 334.63 601.655 334.854 601.715Z" fill="white"/>
<path d="M326.777 592.404C327.032 592.509 327.886 589.915 330.389 587.951C332.847 585.926 335.559 585.642 335.514 585.372C335.514 585.267 334.825 585.162 333.716 585.372C332.622 585.582 331.153 586.166 329.804 587.231C328.47 588.311 327.586 589.63 327.152 590.65C326.717 591.684 326.657 592.374 326.777 592.404Z" fill="white"/>
<path d="M328.801 586.227C328.846 586.197 328.546 585.702 327.812 584.982C327.077 584.277 325.878 583.333 324.14 582.658C323.285 582.358 322.266 581.908 321.022 582.268C320.393 582.433 319.808 583.093 319.793 583.828C319.778 584.562 320.108 585.177 320.528 585.702C322.296 587.696 325.713 588.146 328.231 586.467C330.719 584.742 331.663 581.668 331.064 579.149C330.869 578.535 330.524 577.86 329.82 577.53C329.115 577.2 328.276 577.545 327.886 578.01C327.062 578.969 326.942 580.019 326.732 580.904C326.403 582.733 326.523 584.247 326.702 585.252C326.882 586.257 327.107 586.781 327.167 586.766C327.347 586.751 326.628 584.517 327.377 581.039C327.602 580.199 327.812 579.194 328.441 578.535C328.741 578.22 329.145 578.1 329.49 578.265C329.835 578.415 330.105 578.879 330.239 579.374C330.704 581.458 329.85 584.277 327.722 585.702C325.608 587.126 322.611 586.721 321.172 585.147C320.828 584.757 320.588 584.277 320.603 583.858C320.618 583.453 320.873 583.123 321.262 582.988C322.101 582.703 323.091 583.018 323.9 583.273C327.257 584.442 328.681 586.377 328.801 586.227Z" fill="white"/>
<path d="M96.6656 434.59C96.6656 434.59 38.336 497.251 43.7314 512.455C52.4838 537.105 118.352 612.301 118.352 612.301L152.492 595.748L109.944 525.62L98.2243 508.467L145.074 464.369L149.045 463.949C149.045 463.949 238.968 521.931 239.837 521.437C240.706 520.957 309.197 603.784 309.197 603.784L341.359 583.722C341.359 583.722 272.089 492.903 270.665 490.729C269.241 488.554 190.08 428.473 190.08 428.473L166.325 396.295L99.3633 408.141L96.6656 434.59Z" fill="#455A64"/>
<path d="M143.875 462.405C143.74 462.48 142.661 460.396 140.383 457.382C139.259 455.867 137.79 454.173 136.037 452.419C134.253 450.694 132.185 448.91 129.832 447.261C127.464 445.641 125.066 444.322 122.833 443.257C120.57 442.238 118.472 441.443 116.658 440.933C113.047 439.869 110.709 439.584 110.739 439.434C110.739 439.374 111.323 439.419 112.387 439.539C112.912 439.599 113.556 439.674 114.305 439.839C115.04 439.988 115.894 440.123 116.808 440.393C118.652 440.858 120.81 441.593 123.133 442.597C125.426 443.632 127.884 444.966 130.282 446.616C132.665 448.295 134.763 450.125 136.546 451.909C138.3 453.723 139.753 455.477 140.833 457.052C141.402 457.817 141.837 458.566 142.241 459.196C142.646 459.826 142.961 460.41 143.2 460.89C143.68 461.85 143.92 462.375 143.875 462.405Z" fill="#263238"/>
<path d="M180.909 430.692C180.969 430.842 178.526 431.547 175.019 433.511C173.235 434.455 171.272 435.85 169.159 437.469C167.091 439.149 164.947 441.143 162.864 443.422C158.728 447.995 155.7 452.718 153.797 456.272C151.879 459.825 150.98 462.18 150.845 462.12C150.8 462.105 150.98 461.505 151.369 460.425C151.549 459.885 151.819 459.241 152.149 458.506C152.463 457.756 152.838 456.917 153.303 456.017C155.101 452.358 158.098 447.53 162.28 442.897C164.393 440.603 166.581 438.594 168.709 436.914C170.882 435.31 172.906 433.931 174.749 433.046C175.648 432.551 176.487 432.191 177.252 431.876C177.986 431.547 178.646 431.307 179.2 431.157C180.294 430.797 180.894 430.647 180.909 430.692Z" fill="#263238"/>
<path d="M111.174 287.618C111.174 287.618 118.008 288.592 128.634 295.19C139.26 301.787 169.713 320.725 169.713 320.725L204.588 288.532L220.714 303.197C220.714 303.197 185.779 344.925 183.456 347.009C174.869 354.701 166.836 350.428 166.836 350.428L131.676 333.38L111.174 287.618Z" fill="#455A64"/>
<path d="M155.58 375.678L111.953 287.558L81.1698 291.306L71.698 288.157L38.7865 297.064L37.6625 314.097C37.6625 314.097 14.5375 337.323 15.1669 338.763L88.7683 414.903C88.7683 414.903 89.2329 443.497 89.6076 442.762C97.0261 428.428 113.392 436.165 136.127 444.157L138.285 410.045L154.187 439.883L194.202 418.951L155.58 375.678Z" fill="#455A64"/>
<path d="M40.8856 304.246L96.3976 346.26L75.6106 290.991L70.1853 285.668L38.4277 297.649L40.8856 304.246Z" fill="#E0E0E0"/>
<path d="M12.724 224.537C12.634 221.898 14.4175 219.304 16.9203 218.45C18.3891 214.851 22.5854 212.587 26.4071 213.352C27.741 211.043 30.3487 209.513 33.0164 209.468C35.6841 209.423 38.3368 210.878 39.7456 213.157C41.8737 211.478 45.081 211.328 47.344 212.812C49.6071 214.296 50.7611 217.295 50.0567 219.919C53.0541 219.319 56.3512 221.284 57.2505 224.208C58.1497 227.131 56.5311 230.61 53.7135 231.81L17.31 230.355C14.7622 229.65 12.7989 227.176 12.724 224.537Z" fill="#263238"/>
<path d="M54.9286 232.11C47.2102 220.654 31.9984 217.041 19.9638 223.803L18.7648 224.478C6.29562 232.485 6.11578 247.554 14.4636 259.819L39.8216 301.398L70.9347 306.406L70.1854 285.669L68.6867 282.07C68.6867 282.07 80.0019 273.164 73.1828 260.674C69.9006 254.646 62.1074 242.771 54.9286 232.11Z" fill="#FFBF9D"/>
<path d="M68.775 281.996C68.775 281.996 61.1316 286.929 49.8613 286.374C49.8613 286.374 58.4489 293.751 70.1838 285.669L68.775 281.996Z" fill="#FF9A6C"/>
<path d="M50.5516 227.102C50.5516 227.102 42.9232 221.179 38.1573 221.464C32.3873 221.824 33.2416 227.897 28.2359 229.111C23.2452 230.326 17.73 230.655 15.1972 236.488C12.4246 242.861 16.1264 244.15 18.914 249.818C30.2442 272.804 29.7046 281.411 22.6457 271.56C21.8664 270.48 18.1646 271.365 14.9574 266.761C10.806 260.794 6.24991 253.282 5.14087 248.004C4.21167 243.565 4.88609 239.742 7.13415 234.704C10.6711 226.742 18.9739 221.944 24.9837 219.32C30.9785 216.696 45.6059 217.086 50.5516 227.102Z" fill="#263238"/>
<path d="M23.2454 270.765C22.0914 268.89 19.5886 268.306 17.7901 269.565C15.602 271.08 13.7736 273.838 16.6061 278.547C21.6418 286.868 28.9555 280.106 28.8356 279.851C28.7306 279.686 25.3736 274.243 23.2454 270.765Z" fill="#FFBF9D"/>
<path d="M25.1176 277.812C25.0577 277.812 25.0277 278.007 24.8628 278.262C24.683 278.517 24.3233 278.847 23.7988 278.937C22.7197 279.147 21.1461 278.202 20.1869 276.718C19.7073 275.968 19.4375 275.158 19.3326 274.393C19.2127 273.629 19.3476 272.969 19.7523 272.624C20.1269 272.249 20.6065 272.324 20.8463 272.504C21.1011 272.669 21.1461 272.864 21.206 272.849C21.236 272.849 21.2959 272.594 21.0262 272.294C20.8913 272.144 20.6815 272.009 20.3817 271.964C20.082 271.919 19.7373 272.024 19.4525 272.234C18.8381 272.669 18.6132 273.614 18.7182 274.438C18.7931 275.293 19.0778 276.223 19.6174 277.062C20.6815 278.712 22.4949 279.761 23.9037 279.371C24.5781 279.177 24.9678 278.697 25.1026 278.352C25.2225 278.022 25.1476 277.812 25.1176 277.812Z" fill="#FF9A6C"/>
<path d="M14.1778 254.241C15.7065 254.376 17.2951 254.496 18.7039 253.881C20.0977 253.266 21.1918 251.647 20.6822 250.208C20.4574 249.563 19.9179 248.963 20.0527 248.288C20.2026 247.479 21.1618 247.179 21.9111 246.849C24.5189 245.724 26.0626 242.561 25.3432 239.817C26.4972 240.401 27.9509 239.532 28.5504 238.392C29.1499 237.238 29.2098 235.888 29.4646 234.629C29.7344 233.354 30.3488 232.005 31.5628 231.54C32.2372 231.27 33.0315 231.315 33.631 230.91C34.6951 230.19 34.5003 228.571 34.0506 227.371C33.601 226.172 33.0016 224.807 33.616 223.683C34.1705 222.633 35.4894 222.318 36.5984 221.899C37.7075 221.479 38.8915 220.489 38.5917 219.335C38.4269 218.735 37.9023 218.3 37.3478 218.015C34.8599 216.681 31.4579 217.37 29.7044 219.575C27.3065 217.235 23.4548 216.531 20.3825 217.865C17.3101 219.185 15.182 222.468 15.2269 225.827C12.5293 225.212 9.53185 225.992 7.47862 227.851C5.4254 229.711 4.34633 232.619 4.70602 235.363C2.33807 235.978 0.434714 238.092 0.0750246 240.521C-0.284664 242.935 0.914299 245.529 3.01248 246.804C1.97838 248.528 1.52877 250.777 2.47295 252.547C3.43212 254.316 6.1148 255.111 7.55356 253.686C7.64348 255.441 9.23211 256.985 10.9856 257C12.7391 257.015 14.3727 255.516 14.4926 253.761" fill="#263238"/>
<path d="M6.90872 254.016C6.86376 254.016 7.14852 254.811 8.34748 255.35C8.93198 255.59 9.77125 255.725 10.6105 255.41C11.4498 255.111 12.2741 254.391 12.6338 253.356L12.2441 253.506C13.0684 254.001 14.0426 254.436 15.1216 254.676C15.811 254.826 16.5304 254.886 17.2048 254.766C17.8792 254.676 18.5237 254.346 19.0033 253.971C20.0074 253.251 20.6219 252.142 20.6668 251.197C20.7268 250.252 20.517 249.533 20.3671 249.053C20.2022 248.573 20.0823 248.318 20.0524 248.333C20.0074 248.348 20.0673 248.618 20.1573 249.113C20.2472 249.593 20.3821 250.312 20.2772 251.167C20.1573 252.831 17.8942 254.931 15.2565 254.151C14.2524 253.926 13.3232 253.536 12.5289 253.071L12.2441 252.906L12.1392 253.221C11.8694 254.091 11.165 254.736 10.4607 255.021C9.74128 255.32 9.0219 255.26 8.46738 255.081C7.35834 254.646 6.96867 253.941 6.90872 254.016Z" fill="#455A64"/>
<path d="M12.0495 225.632C12.0645 225.662 12.3043 225.572 12.7689 225.512C13.2335 225.467 13.9529 225.482 14.7172 225.887L14.9121 225.992L14.942 225.767C15.1369 224.252 15.6914 222.138 17.1751 220.144C17.9095 219.154 18.8836 218.21 20.0976 217.535C21.2965 216.845 22.7653 216.485 24.264 216.545C25.433 216.59 26.557 216.875 27.5461 217.37C28.5203 217.88 29.3446 218.585 29.9141 219.409L30.0939 219.664L30.3187 219.454C31.3978 218.39 32.8366 217.91 34.0805 217.91C35.3394 217.895 36.4185 218.36 37.1678 218.9C38.6965 220.009 39.0262 221.179 39.1011 221.119C39.1161 221.119 39.0562 220.834 38.8164 220.369C38.5766 219.904 38.127 219.259 37.3477 218.66C36.5833 218.06 35.4443 217.52 34.0805 217.49C32.7316 217.46 31.158 217.94 29.959 219.109L30.3487 219.154C29.7342 218.255 28.85 217.475 27.8009 216.92C26.7518 216.381 25.5379 216.066 24.2939 216.021C22.6903 215.961 21.1167 216.351 19.8428 217.1C18.5539 217.835 17.5498 218.84 16.7854 219.889C15.2717 222.018 14.7622 224.222 14.6423 225.767L14.8671 225.647C14.0128 225.227 13.2335 225.272 12.7539 225.377C12.2593 225.467 12.0345 225.617 12.0495 225.632Z" fill="#455A64"/>
<path d="M97.8806 350.323C97.8657 350.353 97.5959 350.278 97.0564 350.128C96.4419 349.934 95.6925 349.694 94.7633 349.409C92.6801 348.719 89.8326 347.759 86.3556 346.605C79.1918 344.131 69.4652 340.787 58.7045 337.084C56.0069 336.139 53.3691 335.209 50.8363 334.325L50.5066 334.205L50.5815 333.875C51.4208 330.276 52.2151 326.858 52.9495 323.679L53.3092 324.099C48.933 324.264 45.0363 324.414 41.7392 324.533H41.5444L41.4844 324.354C40.2855 321.235 39.3263 318.686 38.6069 316.826C38.3072 316.002 38.0674 315.327 37.8725 314.787C37.7077 314.322 37.6327 314.068 37.6627 314.068C37.6927 314.053 37.7976 314.292 38.0074 314.742C38.2322 315.267 38.532 315.927 38.8767 316.722C39.641 318.566 40.6901 321.07 41.979 324.159L41.7242 323.994C45.0214 323.814 48.918 323.619 53.2942 323.394L53.7438 323.364L53.6389 323.814C52.9195 326.993 52.1552 330.411 51.3309 334.025L51.0911 333.575C53.6389 334.46 56.2766 335.374 58.9743 336.319C69.69 340.097 79.3866 343.531 86.5504 346.05C89.9825 347.31 92.815 348.329 94.8832 349.079C95.7974 349.424 96.5318 349.709 97.1313 349.949C97.6259 350.173 97.8956 350.293 97.8806 350.323Z" fill="#263238"/>
<path d="M138.286 410.045C138.256 410.06 138.136 409.82 137.911 409.355C137.656 408.816 137.342 408.141 136.967 407.331C136.158 405.577 135.064 402.983 133.595 399.849C132.111 396.73 130.208 393.072 127.795 389.188C126.596 387.239 125.277 385.245 123.838 383.221C122.399 381.196 120.811 379.157 119.222 377.043C112.838 368.601 107.083 360.939 102.961 355.376C100.968 352.647 99.3195 350.413 98.1055 348.749C97.581 348.014 97.1613 347.414 96.8166 346.92C96.5319 346.5 96.382 346.275 96.412 346.245C96.427 346.23 96.6218 346.425 96.9515 346.815C97.3262 347.28 97.7908 347.849 98.3603 348.554C99.6192 350.173 101.328 352.363 103.411 355.032C107.652 360.519 113.467 368.136 119.852 376.563C121.44 378.677 123.029 380.716 124.468 382.771C125.906 384.81 127.225 386.849 128.409 388.813C130.792 392.742 132.666 396.46 134.089 399.624C135.498 402.803 136.502 405.427 137.237 407.226C137.566 408.066 137.821 408.756 138.046 409.31C138.226 409.79 138.301 410.045 138.286 410.045Z" fill="#263238"/>
<path d="M188.388 421.905C188.388 421.92 188.193 422.04 187.788 422.265C187.339 422.505 186.754 422.835 186.005 423.24C184.386 424.094 182.078 425.324 179.141 426.883C176.158 428.458 172.531 430.377 168.365 432.566C166.267 433.676 164.049 434.86 161.696 436.105C160.527 436.734 159.313 437.379 158.069 438.039C157.455 438.369 156.825 438.714 156.196 439.059L155.251 439.583L154.787 439.853L154.562 439.988L154.457 440.063L154.412 440.093C154.427 440.078 154.382 440.123 154.427 440.063C154.607 439.988 154.367 439.493 154.262 439.583L153.888 440.033C149.257 431.382 143.816 421.23 137.926 410.225L138.646 410.015C139.185 417.212 139.755 424.859 140.339 432.731C140.624 436.644 140.909 440.498 141.194 444.276L141.254 444.981L140.609 444.636C139.455 444.007 138.301 443.377 137.162 442.747C136.008 442.147 134.914 441.443 133.73 440.978C131.377 439.958 129.099 438.864 126.716 438.189C124.393 437.319 121.995 436.869 119.672 436.345C118.503 436.12 117.319 436.045 116.165 435.895C115.011 435.715 113.857 435.7 112.718 435.7C103.591 435.46 95.3033 438.489 89.7881 442.972L89.3384 443.347L89.3235 442.777C89.1136 433.841 88.9338 426.598 88.8139 421.53C88.7689 419.056 88.739 417.122 88.709 415.758C88.709 415.128 88.709 414.633 88.709 414.258C88.709 413.913 88.724 413.748 88.739 413.748C88.7539 413.748 88.7689 413.928 88.7989 414.258C88.8139 414.633 88.8439 415.128 88.8888 415.758C88.9488 417.122 89.0387 419.071 89.1436 421.53C89.3235 426.598 89.5932 433.841 89.908 442.777L89.4434 442.582C95.0785 437.904 103.471 434.815 112.763 435.01C113.917 435.01 115.101 435.025 116.27 435.205C117.439 435.355 118.653 435.43 119.837 435.655C122.205 436.165 124.633 436.629 126.986 437.499C129.414 438.174 131.722 439.283 134.09 440.303C135.304 440.768 136.398 441.473 137.567 442.087C138.721 442.717 139.875 443.347 141.044 443.992L140.459 444.351C140.174 440.588 139.89 436.719 139.605 432.806C139.02 424.934 138.466 417.287 137.926 410.09L137.792 408.291L138.631 409.88C144.476 420.901 149.871 431.067 154.472 439.748L154.517 439.838L154.097 440.198C154.008 440.273 153.768 439.778 153.948 439.688C154.008 439.628 153.978 439.658 153.993 439.643L154.037 439.598L154.112 439.538L154.232 439.463L154.472 439.313L154.952 439.044L155.911 438.519C156.54 438.174 157.17 437.844 157.799 437.514C159.043 436.854 160.257 436.225 161.441 435.595C163.809 434.365 166.042 433.211 168.14 432.116C172.337 429.972 175.979 428.098 178.991 426.553C181.958 425.054 184.296 423.884 185.93 423.06C186.694 422.685 187.309 422.385 187.758 422.16C188.163 421.98 188.373 421.89 188.388 421.905Z" fill="#263238"/>
<path d="M100.818 349.259C100.788 349.259 100.728 349.019 100.638 348.524C100.533 347.954 100.414 347.265 100.264 346.41C99.949 344.461 99.5293 341.837 99.0048 338.643C97.9707 332.075 96.6069 322.989 95.1531 312.958C94.7785 310.409 94.4188 307.92 94.0741 305.536L94.4188 305.866C90.9118 305.551 87.5847 305.251 84.5273 304.966L84.0178 304.921L84.2576 304.471C85.6663 301.757 86.9552 299.283 88.1092 297.079L88.1991 297.424C85.5764 295.445 83.4033 293.81 81.7997 292.596C81.1103 292.056 80.5408 291.621 80.0762 291.246C79.6865 290.932 79.4917 290.752 79.5067 290.737C79.5216 290.722 79.7465 290.842 80.1661 291.126C80.6607 291.456 81.2452 291.861 81.9645 292.356C83.6131 293.511 85.8162 295.085 88.5139 296.974L88.7087 297.109L88.6038 297.319C87.4948 299.538 86.2358 302.042 84.872 304.771L84.6023 304.276C87.6746 304.531 91.0017 304.801 94.5087 305.101L94.8084 305.131L94.8534 305.431C95.1981 307.83 95.5728 310.304 95.9474 312.853C97.4162 322.884 98.6901 331.986 99.5743 338.568C99.9939 341.777 100.339 344.416 100.593 346.38C100.683 347.235 100.758 347.939 100.833 348.509C100.833 349.004 100.833 349.259 100.818 349.259Z" fill="#263238"/>
<path d="M114.905 298.279C115.1 298.174 123.807 314.338 134.343 334.37C144.894 354.417 153.287 370.731 153.092 370.836C152.897 370.941 144.19 354.777 133.639 334.73C123.118 314.712 114.725 298.384 114.905 298.279Z" fill="#263238"/>
<path d="M70.8145 307.53C70.8145 307.425 70.8294 312.838 70.8294 312.838L75.1607 314.652L77.8883 313.213L77.094 308.445L71.6987 306.675L70.8145 307.53Z" fill="#FFC727"/>
<path d="M75.1758 314.652L80.0915 333.905L96.3974 346.26L88.0197 323.963L77.8435 312.823L75.1758 314.652Z" fill="#FFC727"/>
<path d="M70.9644 307.035C71.0693 307.035 71.1292 308.894 71.1292 311.893C71.1292 312.673 71.1292 313.483 71.1143 314.352C71.1143 314.802 71.0993 315.252 71.0993 315.717V316.077V316.287C71.0543 316.661 70.5447 316.631 70.5897 316.586L70.4998 316.556L69.7804 316.377C67.8471 315.822 65.7639 315.237 63.5758 314.622C59.1846 313.348 55.228 312.148 52.3805 311.234C49.5329 310.319 47.7794 309.659 47.8394 309.524C47.8694 309.494 48.289 309.599 49.1133 309.794C50.1024 310.049 51.2414 310.364 52.5453 310.709C55.4378 311.488 59.4244 312.613 63.8006 313.887C65.9737 314.532 68.0569 315.132 69.9752 315.702L70.6796 315.912L70.7696 315.942H70.7845C70.8595 315.702 70.6946 316.272 70.7096 316.227V316.242C70.7096 316.257 70.7246 316.257 70.7096 316.257L70.4099 316.242V316.227V316.212V316.167V316.077L70.4249 315.717C70.4398 315.252 70.4548 314.802 70.4698 314.352C70.4998 313.498 70.5447 312.673 70.5747 311.908C70.7246 308.879 70.8595 307.035 70.9644 307.035Z" fill="#263238"/>
<path d="M80.1664 302.882C80.3463 302.882 80.4961 305.446 80.5261 308.894V309.389L80.0465 309.269C79.492 309.119 78.9225 308.969 78.338 308.82C74.1866 307.71 70.8744 306.63 70.9344 306.42C70.9943 306.211 74.3964 306.945 78.5478 308.055C79.1323 308.22 79.7018 308.37 80.2563 308.52L79.7767 308.879C79.8217 305.431 79.9866 302.882 80.1664 302.882Z" fill="#263238"/>
<path d="M151.01 385.095C151.039 385.14 150.455 385.47 149.376 386.025C148.297 386.579 146.738 387.344 144.775 388.274C140.863 390.118 135.423 392.562 129.308 395.066C123.209 397.57 117.603 399.654 113.527 401.064C111.489 401.769 109.825 402.323 108.671 402.683C107.517 403.043 106.873 403.223 106.858 403.163C106.843 403.118 107.457 402.848 108.581 402.398C109.855 401.903 111.444 401.289 113.347 400.539C117.379 398.98 122.939 396.82 129.024 394.331C135.123 391.842 140.594 389.473 144.55 387.764C146.423 386.954 147.997 386.28 149.241 385.74C150.35 385.275 150.98 385.05 151.01 385.095Z" fill="#263238"/>
<path d="M207.195 291.621L224.625 277.961L231.834 285.668L218.136 300.857L207.195 291.621Z" fill="#FFBF9D"/>
<path d="M243.899 263.537C243.899 263.537 243.119 260.538 239.942 262.293C238.788 262.923 231.729 268.56 231.729 268.56C231.729 268.56 226.948 272.039 226.783 272.279C226.619 272.519 227.368 275.248 227.368 275.248L233.273 272.804L243.899 263.537Z" fill="#FF9A6C"/>
<path d="M99.9186 526.34C99.8437 525.89 91.7956 480.952 67.9513 433.391C61.297 420.121 64.9389 403.777 76.5988 394.526L337.973 187.787L343.548 194.849L82.174 401.573C73.8412 408.186 71.2334 419.881 75.9843 429.357C100.443 478.148 108.446 522.906 108.776 524.78L99.9186 526.34Z" fill="#B56F57"/>
<path d="M81.0198 439.898C80.9749 440.123 78.7868 439.493 76.4188 440.648C74.0209 441.742 73.1067 443.827 72.9119 443.722C72.8219 443.692 72.9119 443.107 73.3914 442.312C73.856 441.517 74.8002 440.558 76.0891 439.943C77.393 439.328 78.7268 439.223 79.641 439.373C80.5552 439.508 81.0498 439.823 81.0198 439.898Z" fill="#263238"/>
<path d="M75.6839 428.728C75.639 428.953 73.4508 428.323 71.0829 429.477C68.685 430.572 67.7708 432.656 67.5759 432.551C67.486 432.521 67.5759 431.936 68.0555 431.142C68.5201 430.347 69.4643 429.387 70.7532 428.773C72.057 428.158 73.3909 428.053 74.3051 428.203C75.2193 428.323 75.7139 428.638 75.6839 428.728Z" fill="#263238"/>
<path d="M109.389 380.251C109.165 380.266 109.285 377.972 107.621 375.933C106.017 373.849 103.769 373.429 103.829 373.219C103.844 373.129 104.414 373.069 105.313 373.354C106.197 373.624 107.336 374.329 108.235 375.438C109.12 376.563 109.539 377.837 109.599 378.767C109.659 379.712 109.479 380.266 109.389 380.251Z" fill="#263238"/>
<path d="M117.124 373.954C116.899 373.969 117.019 371.675 115.355 369.636C113.752 367.551 111.504 367.132 111.564 366.922C111.579 366.832 112.148 366.772 113.047 367.057C113.932 367.327 115.071 368.031 115.97 369.141C116.854 370.265 117.274 371.54 117.334 372.47C117.409 373.399 117.214 373.969 117.124 373.954Z" fill="#263238"/>
<path d="M134.194 360.714C133.969 360.729 134.089 358.435 132.426 356.396C130.822 354.312 128.574 353.892 128.634 353.682C128.649 353.592 129.218 353.532 130.118 353.817C131.002 354.087 132.141 354.792 133.04 355.901C133.924 357.026 134.344 358.3 134.404 359.23C134.479 360.174 134.284 360.729 134.194 360.714Z" fill="#263238"/>
<path d="M142.407 354.282C142.182 354.297 142.302 352.002 140.639 349.963C139.035 347.879 136.787 347.459 136.847 347.249C136.862 347.159 137.431 347.099 138.331 347.384C139.215 347.654 140.354 348.359 141.253 349.469C142.137 350.593 142.557 351.868 142.617 352.797C142.692 353.742 142.497 354.297 142.407 354.282Z" fill="#263238"/>
<path d="M151.294 347.294C151.069 347.309 151.189 345.015 149.525 342.976C147.922 340.892 145.674 340.472 145.734 340.262C145.749 340.172 146.318 340.112 147.217 340.397C148.102 340.667 149.241 341.372 150.14 342.481C151.024 343.606 151.444 344.88 151.504 345.81C151.579 346.755 151.384 347.309 151.294 347.294Z" fill="#263238"/>
<path d="M160.181 340.307C159.956 340.322 160.076 338.028 158.412 335.989C156.808 333.904 154.56 333.485 154.62 333.275C154.635 333.185 155.205 333.125 156.104 333.41C156.988 333.68 158.127 334.384 159.027 335.494C159.911 336.618 160.33 337.893 160.39 338.823C160.45 339.767 160.27 340.322 160.181 340.307Z" fill="#263238"/>
<path d="M169.067 333.32C168.842 333.335 168.962 331.041 167.299 329.001C165.695 326.917 163.447 326.497 163.507 326.287C163.522 326.197 164.092 326.137 164.991 326.422C165.875 326.692 167.014 327.397 167.913 328.507C168.797 329.631 169.217 330.906 169.277 331.835C169.337 332.78 169.157 333.335 169.067 333.32Z" fill="#263238"/>
<path d="M177.716 326.437C177.491 326.452 177.446 324.263 175.902 322.209C174.433 320.095 172.32 319.495 172.38 319.285C172.395 319.195 172.965 319.18 173.819 319.525C174.658 319.855 175.707 320.62 176.532 321.744C177.356 322.869 177.761 324.083 177.85 324.983C177.955 325.898 177.805 326.452 177.716 326.437Z" fill="#263238"/>
<path d="M185.913 319.885C185.688 319.9 185.643 317.711 184.099 315.657C182.631 313.543 180.517 312.943 180.577 312.733C180.592 312.643 181.162 312.628 182.016 312.973C182.855 313.303 183.905 314.067 184.729 315.192C185.553 316.317 185.958 317.531 186.048 318.431C186.153 319.33 186.003 319.885 185.913 319.885Z" fill="#263238"/>
<path d="M194.471 312.988C194.247 313.003 194.202 310.814 192.658 308.759C191.189 306.645 189.076 306.045 189.136 305.835C189.151 305.746 189.721 305.731 190.575 306.075C191.414 306.405 192.463 307.17 193.287 308.295C194.112 309.419 194.516 310.634 194.606 311.533C194.711 312.433 194.561 312.988 194.471 312.988Z" fill="#263238"/>
<path d="M203.268 306.36C203.043 306.375 202.998 304.186 201.455 302.132C199.986 300.018 197.873 299.418 197.933 299.208C197.948 299.118 198.517 299.103 199.372 299.448C200.211 299.778 201.26 300.543 202.084 301.667C202.909 302.792 203.313 304.006 203.403 304.906C203.508 305.805 203.358 306.36 203.268 306.36Z" fill="#263238"/>
<path d="M212.516 298.758C212.292 298.773 212.247 296.584 210.703 294.53C209.234 292.416 207.121 291.816 207.181 291.606C207.196 291.516 207.765 291.501 208.62 291.846C209.459 292.176 210.508 292.94 211.332 294.065C212.157 295.19 212.561 296.404 212.651 297.304C212.756 298.218 212.621 298.758 212.516 298.758Z" fill="#263238"/>
<path d="M221.778 291.156C221.553 291.171 221.508 288.982 219.965 286.928C218.496 284.814 216.383 284.214 216.443 284.004C216.458 283.914 217.027 283.899 217.881 284.244C218.721 284.574 219.77 285.338 220.594 286.463C221.418 287.588 221.823 288.802 221.913 289.702C222.018 290.616 221.868 291.171 221.778 291.156Z" fill="#263238"/>
<path d="M231.04 283.569C230.815 283.584 230.77 281.395 229.226 279.341C227.758 277.227 225.644 276.627 225.704 276.417C225.719 276.327 226.289 276.312 227.143 276.657C227.982 276.987 229.031 277.752 229.856 278.876C230.68 280.001 231.085 281.215 231.175 282.115C231.28 283.014 231.13 283.569 231.04 283.569Z" fill="#263238"/>
<path d="M253.071 266.536C252.846 266.551 252.801 264.362 251.258 262.308C249.789 260.194 247.676 259.594 247.736 259.384C247.751 259.294 248.32 259.279 249.174 259.624C250.014 259.954 251.063 260.718 251.887 261.843C252.711 262.967 253.116 264.182 253.206 265.082C253.311 265.996 253.161 266.551 253.071 266.536Z" fill="#263238"/>
<path d="M262.303 258.979C262.079 258.994 262.034 256.805 260.49 254.751C259.021 252.636 256.908 252.037 256.968 251.827C256.983 251.737 257.553 251.722 258.407 252.067C259.246 252.396 260.295 253.161 261.119 254.286C261.944 255.41 262.348 256.625 262.438 257.524C262.543 258.439 262.393 258.994 262.303 258.979Z" fill="#263238"/>
<path d="M271.594 251.842C271.37 251.857 271.325 249.668 269.781 247.613C268.312 245.499 266.199 244.899 266.259 244.689C266.274 244.6 266.844 244.585 267.698 244.929C268.537 245.259 269.586 246.024 270.41 247.149C271.235 248.273 271.639 249.488 271.729 250.387C271.834 251.302 271.684 251.857 271.594 251.842Z" fill="#263238"/>
<path d="M280.796 244.704C280.571 244.719 280.526 242.53 278.982 240.476C277.513 238.362 275.4 237.762 275.46 237.552C275.475 237.462 276.045 237.447 276.899 237.792C277.738 238.122 278.787 238.887 279.612 240.011C280.436 241.136 280.841 242.35 280.93 243.25C281.035 244.165 280.886 244.704 280.796 244.704Z" fill="#263238"/>
<path d="M290.073 237.567C289.848 237.582 289.803 235.393 288.26 233.339C286.791 231.225 284.678 230.625 284.738 230.415C284.753 230.325 285.322 230.31 286.176 230.655C287.016 230.985 288.065 231.75 288.889 232.874C289.713 233.999 290.118 235.213 290.208 236.113C290.313 237.013 290.163 237.567 290.073 237.567Z" fill="#263238"/>
<path d="M298.946 229.68C298.721 229.695 298.676 227.506 297.133 225.452C295.664 223.338 293.551 222.738 293.611 222.528C293.626 222.438 294.195 222.423 295.049 222.768C295.889 223.098 296.938 223.862 297.762 224.987C298.586 226.111 298.991 227.326 299.081 228.226C299.186 229.14 299.036 229.695 298.946 229.68Z" fill="#263238"/>
<path d="M308.417 222.588C308.192 222.603 308.147 220.414 306.603 218.359C305.135 216.245 303.021 215.646 303.081 215.436C303.096 215.346 303.666 215.331 304.52 215.675C305.359 216.005 306.408 216.77 307.233 217.895C308.057 219.019 308.462 220.234 308.552 221.133C308.657 222.048 308.507 222.603 308.417 222.588Z" fill="#263238"/>
<path d="M317.694 215.451C317.469 215.466 317.424 213.276 315.881 211.222C314.412 209.108 312.299 208.508 312.359 208.298C312.374 208.208 312.943 208.193 313.797 208.538C314.637 208.868 315.686 209.633 316.51 210.757C317.334 211.882 317.739 213.097 317.829 213.996C317.934 214.911 317.799 215.466 317.694 215.451Z" fill="#263238"/>
<path d="M327.091 207.924C326.866 207.939 326.821 205.75 325.277 203.695C323.808 201.581 321.695 200.981 321.755 200.772C321.77 200.682 322.34 200.667 323.194 201.011C324.033 201.341 325.082 202.106 325.907 203.231C326.731 204.355 327.135 205.57 327.225 206.469C327.33 207.384 327.18 207.939 327.091 207.924Z" fill="#263238"/>
<path d="M125.95 366.922C125.725 366.937 125.845 364.643 124.182 362.603C122.578 360.519 120.33 360.099 120.39 359.889C120.405 359.8 120.974 359.74 121.874 360.024C122.758 360.294 123.897 360.999 124.796 362.109C125.68 363.233 126.1 364.508 126.16 365.437C126.22 366.382 126.04 366.937 125.95 366.922Z" fill="#263238"/>
<path d="M85.305 449.285C85.26 449.51 83.0719 448.88 80.704 450.035C78.3061 451.129 77.3918 453.213 77.197 453.108C77.1071 453.078 77.197 452.494 77.6766 451.699C78.1412 450.904 79.0854 449.945 80.3743 449.33C81.6781 448.715 83.012 448.61 83.9262 448.76C84.8404 448.895 85.335 449.195 85.305 449.285Z" fill="#263238"/>
<path d="M89.8773 460.05C89.8323 460.275 87.6442 459.646 85.2763 460.8C82.8783 461.895 81.9641 463.979 81.7693 463.874C81.6794 463.844 81.7693 463.259 82.2489 462.464C82.7135 461.67 83.6576 460.71 84.9465 460.095C86.2504 459.481 87.5843 459.376 88.4985 459.526C89.4127 459.661 89.9072 459.975 89.8773 460.05Z" fill="#263238"/>
<path d="M94.0886 471.941C94.0287 472.166 91.8705 471.416 89.4576 472.451C87.0147 473.41 85.9956 475.464 85.8008 475.344C85.7109 475.314 85.8308 474.73 86.3403 473.965C86.8499 473.185 87.824 472.286 89.1579 471.731C90.4767 471.191 91.8256 471.146 92.7248 471.341C93.639 471.536 94.1186 471.866 94.0886 471.941Z" fill="#263238"/>
<path d="M97.9695 483.007C97.9095 483.232 95.7514 482.482 93.3385 483.516C90.8956 484.476 89.8765 486.53 89.6816 486.41C89.5917 486.38 89.7116 485.796 90.2212 485.031C90.7307 484.251 91.7049 483.351 93.0387 482.797C94.3576 482.257 95.7064 482.212 96.6056 482.407C97.5348 482.587 98.0144 482.932 97.9695 483.007Z" fill="#263238"/>
<path d="M101.401 494.792C101.326 495.002 99.2428 494.057 96.74 494.852C94.2072 495.572 93.0082 497.521 92.8284 497.386C92.7534 497.341 92.9033 496.786 93.5028 496.066C94.0873 495.347 95.1513 494.537 96.5152 494.117C97.894 493.697 99.2278 493.787 100.112 494.072C100.996 494.327 101.446 494.702 101.401 494.792Z" fill="#263238"/>
<path d="M105.014 507.972C104.924 508.182 102.916 507.087 100.368 507.687C97.7906 508.227 96.4417 510.071 96.2769 509.921C96.2019 509.876 96.3968 509.321 97.0412 508.647C97.6707 507.972 98.7947 507.237 100.188 506.922C101.582 506.607 102.916 506.802 103.77 507.147C104.64 507.492 105.059 507.897 105.014 507.972Z" fill="#263238"/>
<path d="M108.37 522.516C108.28 522.726 106.272 521.631 103.724 522.231C101.146 522.771 99.7972 524.615 99.6323 524.465C99.5574 524.42 99.7522 523.865 100.397 523.191C101.026 522.516 102.15 521.781 103.544 521.466C104.938 521.151 106.272 521.346 107.126 521.691C107.995 522.036 108.415 522.441 108.37 522.516Z" fill="#263238"/>
<path d="M240.753 263.282C241.053 263.057 245.055 261.513 248.277 263.867C251.289 266.056 252.323 267.87 252.323 267.87C252.323 267.87 253.223 269.73 251.499 271.019C249.776 272.324 245.175 272.204 245.175 272.204L247.198 270.494L243.946 267.54C243.946 267.54 241.248 268.17 240.079 265.996C238.94 263.837 240.753 263.282 240.753 263.282Z" fill="#FFBF9D"/>
<path d="M227.234 271.499C227.234 271.499 229.108 269.145 231.446 269.145C233.784 269.145 237.036 270.329 237.036 270.329C237.036 270.329 242.566 276.267 243.046 277.541C243.54 278.816 240.858 280.72 240.858 280.72C240.858 280.72 241.562 283.839 240.318 285.473C239.089 287.108 227.594 294.485 227.594 294.485L219.891 292.191C219.891 292.191 227.459 283.359 229.437 281.785C231.416 280.21 230.561 280.945 230.561 280.945L229.992 279.371C229.482 277.976 228.328 276.911 226.89 276.522L226.005 276.282L222.184 279.281C222.184 279.281 221.344 277.586 222.603 275.682C223.907 273.763 227.234 271.499 227.234 271.499Z" fill="#FFBF9D"/>
<path d="M235.508 272.669C235.508 272.669 233.275 269.535 234.968 268.38C236.677 267.211 238.355 268.05 240.169 268.575C241.982 269.1 244.245 271.019 244.71 272.909C245.175 274.783 245.669 277.467 243.046 277.572C240.424 277.647 235.508 272.669 235.508 272.669Z" fill="#FFBF9D"/>
<path d="M226.815 271.889C226.755 271.829 227.699 271.109 229.528 270.974C231.326 270.809 233.904 271.544 236.002 273.343C238.115 275.098 239.464 277.212 240.184 278.831C240.918 280.451 241.068 281.545 240.993 281.56C240.873 281.59 240.528 280.57 239.704 279.071C238.88 277.572 237.516 275.592 235.523 273.943C233.544 272.264 231.251 271.514 229.573 271.529C227.849 271.514 226.86 272.009 226.815 271.889Z" fill="#FF9A6C"/>
<path d="M243.016 278.216C242.896 278.216 242.836 277.421 242.477 276.222C242.117 275.052 241.382 273.418 240.064 272.129C238.67 270.929 236.946 270.374 235.762 269.984C234.548 269.595 233.784 269.43 233.799 269.31C233.814 269.205 234.623 269.19 235.912 269.445C237.171 269.729 238.985 270.179 240.603 271.559C242.102 273.028 242.776 274.812 243.031 276.102C243.256 277.391 243.106 278.216 243.016 278.216Z" fill="#FF9A6C"/>
<path d="M213.895 297.004C213.895 297.004 223.037 297.829 227.967 294.23C232.898 290.632 226.319 284.919 226.319 284.919L213.895 297.004Z" fill="#FFBF9D"/>
<path d="M231.909 283.36C231.714 283.464 231.249 282.955 230.844 282.22C230.455 281.485 230.275 280.811 230.47 280.706C230.665 280.601 231.129 281.11 231.534 281.845C231.939 282.58 232.103 283.255 231.909 283.36Z" fill="#FF9A6C"/>
<path d="M15.1669 338.763C15.1669 338.763 3.67182 404.557 4.54107 416.148C5.53021 429.327 10.9555 430.167 18.4341 430.842C25.388 431.472 78.1274 424.079 78.1274 424.079L71.9977 399.684L37.1978 401.453L45.7404 365.572L15.1669 338.763Z" fill="#455A64"/>
<path d="M89.2935 415.503C89.1436 415.653 74.3664 400.494 56.307 381.661C38.2476 362.813 23.7252 347.414 23.8901 347.264C24.0399 347.114 38.8022 362.273 56.8765 381.121C74.9359 399.954 89.4584 415.353 89.2935 415.503Z" fill="#263238"/>
<path d="M75.5798 400.014C75.5798 400.014 77.588 389.218 82.3089 385.679C87.0149 382.126 99.4391 378.092 99.4391 378.092C99.4391 378.092 99.8138 379.502 98.0453 382.066C96.2769 384.63 90.2371 387.943 90.2371 387.943L103.546 385.394L115.64 378.842C116.09 378.602 116.674 378.677 117.019 379.052C117.663 379.772 118.218 381.166 116.06 383.1C112.748 386.069 102.901 392.802 102.901 392.802C102.901 392.802 103.905 404.047 100.308 405.816C96.7115 407.601 82.4138 412.354 82.4138 412.354L75.6847 414.543L72.2227 400.254L75.5798 400.014Z" fill="#FFBF9D"/>
<path d="M22.5559 412.384C22.466 412.384 22.4959 411.155 23.2003 409.325C23.8897 407.526 25.3884 405.142 27.8613 403.418C30.3342 401.693 33.0918 401.108 35.0251 401.108C36.9734 401.078 38.1274 401.498 38.1124 401.573C38.0975 401.708 36.9285 401.498 35.0551 401.663C33.2117 401.813 30.6339 402.458 28.3109 404.062C25.9879 405.682 24.4892 407.871 23.7099 409.55C22.9006 411.245 22.6908 412.414 22.5559 412.384Z" fill="#263238"/>
</g>
<defs>
<clipPath id="clip0_344_7440">
<rect width="584" height="641" fill="white"/>
</clipPath>
</defs>
</svg>
