<svg width="65" height="61" viewBox="0 0 65 61" fill="none" xmlns="http://www.w3.org/2000/svg">
<path d="M64.2046 5.01219C64.2046 15.8696 64.2046 26.7263 64.2046 37.5837C60.4119 37.5837 56.6199 37.5837 52.7942 37.5837C52.7942 35.6811 52.8044 33.867 52.7903 32.0528C52.7809 30.8611 52.0144 30.097 50.8319 30.0696C50.2889 30.057 49.7458 30.0664 49.2028 30.0664C47.9889 30.0664 48.0054 30.0594 47.5266 28.9366C47.3683 28.5663 47.4255 28.3376 47.7107 28.0706C48.2906 27.5296 48.8525 26.9674 49.394 26.388C50.1235 25.6074 50.1627 24.552 49.4206 23.7917C47.6418 21.9682 45.8394 20.1673 44.0128 18.3916C43.2722 17.672 42.2261 17.712 41.4612 18.4057C41.0443 18.7838 40.6565 19.1957 40.2576 19.5934C39.3384 20.5103 39.3439 20.4993 38.1692 20.0021C37.8526 19.8683 37.7288 19.7054 37.7406 19.3546C37.768 18.5411 37.7664 17.7261 37.7421 16.9125C37.71 15.8352 36.946 15.0522 35.8677 15.0428C33.3608 15.0209 30.8532 15.0209 28.3464 15.0428C27.2681 15.0522 26.5095 15.836 26.4703 16.9125C26.45 17.4755 26.4649 18.04 26.4649 18.603C26.4649 19.8432 26.457 19.8236 25.2949 20.3138C24.9336 20.4664 24.7291 20.3874 24.4838 20.129C23.9376 19.5543 23.3781 18.9898 22.8006 18.4464C22.0177 17.7088 20.9614 17.654 20.2028 18.3908C18.3754 20.1658 16.5738 21.9674 14.795 23.7909C14.0529 24.5512 14.096 25.6027 14.8201 26.388C15.2166 26.8171 15.6413 27.2203 16.0543 27.6345C16.8841 28.466 16.8653 28.4574 16.4265 29.5724C16.269 29.9725 16.0559 30.097 15.6382 30.0766C14.9086 30.0406 14.1759 30.0586 13.4448 30.0688C12.1855 30.086 11.434 30.8447 11.4207 32.1147C11.4113 32.9916 11.4191 33.8685 11.4183 34.7447C11.4183 35.6764 11.4183 36.6081 11.4183 37.5367C7.5738 37.5367 3.80608 37.5367 0.0313176 37.5367C0.021914 37.4099 0.00937361 37.3277 0.00937361 37.2463C0.00858997 26.7466 -0.00472797 16.2462 0.0328864 5.74662C0.036021 4.89944 0.245259 3.98416 0.608865 3.2192C1.67617 0.973641 3.58197 0.000411348 6.03004 0.000411348C20.6754 0.00119432 35.3215 0.00118552 49.9668 0.00118552C52.704 0.00118552 55.4405 -0.00194559 58.1777 0.00196926C60.1533 0.00510114 61.8585 0.684718 63.0057 2.31173C63.5636 3.10174 63.8152 4.10551 64.2046 5.01219ZM45.2768 13.1848C45.3065 16.2635 47.8659 18.8011 50.9283 18.7878C54.001 18.7744 56.5501 16.222 56.5517 13.1566C56.5533 10.0678 53.9398 7.47698 50.8688 7.52239C47.7797 7.56859 45.247 10.132 45.2768 13.1848Z" fill="#595959"/>
<path d="M64.2047 43.8473C63.8152 44.754 63.5637 45.7585 63.0073 46.5478C61.86 48.1748 60.1549 48.8544 58.1793 48.8575C55.4006 48.8614 52.6218 48.8583 49.843 48.8583C35.2384 48.8583 20.6338 48.8575 6.02926 48.8591C3.55063 48.8591 1.67852 47.835 0.55479 45.5933C-0.106597 44.2748 -0.0102077 42.8427 0.0281904 41.3418C21.4339 41.3418 42.8193 41.3418 64.2055 41.3418C64.2047 42.1772 64.2047 43.0127 64.2047 43.8473Z" fill="#595959"/>
<path d="M20.7185 52.6328C28.3283 52.6328 35.888 52.6328 43.494 52.6328C43.8568 53.7157 44.24 54.7922 44.5723 55.8845C44.693 56.2799 44.8834 56.3887 45.2807 56.384C47.0768 56.3629 48.8736 56.3707 50.6705 56.3762C51.9423 56.3801 52.7949 57.1443 52.791 58.2608C52.7871 59.3758 51.9353 60.1321 50.6572 60.1321C38.2907 60.1344 25.9234 60.1344 13.5561 60.1321C12.2787 60.1321 11.4269 59.3742 11.4246 58.2592C11.4214 57.1427 12.274 56.3809 13.5474 56.377C15.3443 56.3715 17.1404 56.3637 18.9373 56.3848C19.3361 56.3895 19.5242 56.276 19.6441 55.8829C19.9693 54.8063 20.3462 53.7454 20.7185 52.6328Z" fill="#595959"/>
<path d="M49.021 33.8255C49.021 35.1119 49.021 36.2989 49.021 37.5352C46.4522 37.5352 43.8968 37.5352 41.3014 37.5352C41.9181 34.2499 41.0459 31.3873 38.6895 29.029C36.7453 27.0834 34.3404 26.1884 31.5922 26.3317C25.863 26.6292 21.7004 32.0568 22.9103 37.5556C20.3611 37.5556 17.8175 37.5556 15.2268 37.5556C15.2268 36.3396 15.2268 35.1221 15.2268 33.8255C15.9031 33.8255 16.584 33.8286 17.2658 33.8247C18.5133 33.8177 19.0611 33.3776 19.4819 32.2079C19.8408 31.212 20.2499 30.2293 20.7044 29.2725C21.2443 28.1349 21.1785 27.4576 20.293 26.565C19.8118 26.0796 19.3111 25.6129 18.8613 25.1776C19.7891 24.2545 20.6566 23.3916 21.5805 22.4724C22.0154 22.925 22.4809 23.4292 22.9675 23.9115C23.8405 24.7775 24.5254 24.8495 25.6232 24.3375C26.6216 23.8724 27.6434 23.4519 28.6771 23.0706C29.764 22.6698 30.2153 22.0998 30.2247 20.93C30.2302 20.2449 30.2255 19.559 30.2255 18.834C31.4848 18.834 32.7026 18.834 33.987 18.834C33.987 19.5308 33.983 20.2136 33.9877 20.8963C33.9956 22.1092 34.4399 22.6674 35.5628 23.0792C36.5972 23.4582 37.6152 23.888 38.6151 24.3516C39.684 24.8472 40.3712 24.7728 41.2215 23.9374C41.7128 23.4551 42.1838 22.9524 42.6069 22.5179C43.5034 23.4136 44.3678 24.2756 45.3183 25.2246C44.9241 25.6012 44.425 26.0616 43.9454 26.5423C43.0285 27.4607 42.9635 28.1349 43.5207 29.2999C43.9775 30.2552 44.3787 31.2409 44.74 32.2361C45.1498 33.3675 45.7109 33.8169 46.913 33.8255C47.5979 33.8294 48.282 33.8255 49.021 33.8255Z" fill="#595959"/>
<path d="M26.8896 37.5841C25.8669 35.2634 26.9162 32.2231 29.1551 30.925C32.9377 28.7319 37.4005 31.0855 37.732 35.4474C37.7367 35.51 37.7531 35.575 37.7414 35.6345C37.6176 36.2625 37.623 36.975 37.3025 37.48C37.1505 37.7188 36.3731 37.5802 35.8794 37.581C33.1038 37.5872 30.329 37.5841 27.5533 37.5841C27.3261 37.5841 27.0988 37.5841 26.8896 37.5841Z" fill="#595959"/>
<path d="M50.9299 11.2803C51.9533 11.289 52.7989 12.1487 52.7902 13.1704C52.7816 14.193 51.9212 15.0378 50.8985 15.0292C49.8751 15.0206 49.0296 14.1609 49.0382 13.1399C49.0468 12.1173 49.9072 11.2717 50.9299 11.2803Z" fill="#595959"/>
</svg>
