<svg width="67" height="67" viewBox="0 0 67 67" fill="none" xmlns="http://www.w3.org/2000/svg">
<path d="M66.7258 4.29774C66.5633 5.6053 66.4304 6.91721 66.2331 8.21955C65.3242 14.2268 63.243 19.8287 60.2964 25.1196C57.5513 30.0486 54.138 34.4627 49.953 38.2603C49.5664 38.6111 49.5637 38.9948 49.542 39.4246C49.0832 48.3222 45.7811 56 39.6045 62.4266C39.2839 62.7609 38.7877 63.0275 38.3341 63.1099C37.6085 63.2428 36.9993 62.6029 36.8794 61.7659C36.3885 58.3321 35.8958 54.8991 35.3813 51.3046C34.9321 51.7023 34.5567 52.0357 34.1813 52.3682C33.2454 53.1974 32.605 53.1809 31.7099 52.2875C25.933 46.5181 20.1579 40.7478 14.3836 34.9758C13.4929 34.085 13.4808 33.4503 14.321 32.51C14.6478 32.1445 14.9728 31.7772 15.3786 31.3214C13.6867 31.0757 12.1286 30.8456 10.5706 30.6234C8.65972 30.3507 6.74799 30.0807 4.83539 29.8159C4.22625 29.7317 3.75353 29.4495 3.55888 28.8539C3.35728 28.2366 3.57365 27.7252 4.03768 27.272C8.09663 23.2998 12.8316 20.4564 18.2479 18.7477C21.265 17.7953 24.3541 17.257 27.5198 17.145C27.8231 17.1345 28.1993 16.967 28.4053 16.7464C35.5125 9.14421 44.1257 4.07201 54.1693 1.40047C56.7536 0.712828 59.3848 0.276116 62.0569 0.105943C62.2255 0.095524 62.3906 0.0364657 62.5574 0C63.6002 0 64.6429 0 65.6857 0C66.0333 0.347292 66.3809 0.694584 66.7285 1.04188C66.7258 2.12716 66.7258 3.21245 66.7258 4.29774ZM47.6233 26.0287C51.4468 26.0322 54.5933 22.8848 54.5838 19.0663C54.5742 15.2661 51.4694 12.1535 47.665 12.1301C43.8433 12.1066 40.6881 15.234 40.6742 19.0577C40.6612 22.8761 43.7999 26.0261 47.6233 26.0287Z" fill="#595959"/>
<path d="M13.6511 44.3555C17.5884 44.4692 20.9826 47.1138 21.9671 50.9184C22.9325 54.6518 21.3084 58.512 17.9003 60.4004C16.5195 61.1653 15.1014 61.9007 13.6259 62.4476C9.76767 63.8768 5.86774 65.1939 1.98607 66.5587C1.40299 66.7636 0.870316 66.7141 0.418454 66.2731C-0.0342784 65.832 -0.0846806 65.3085 0.101278 64.7155C1.69323 59.6528 3.33905 54.6127 5.68092 49.8279C6.82535 47.4889 8.41903 45.6613 10.9886 44.8938C11.8523 44.6368 12.7621 44.5309 13.6511 44.3555Z" fill="#595959"/>
</svg>
