<svg width="594" height="584" viewBox="0 0 594 584" fill="none" xmlns="http://www.w3.org/2000/svg">
<path d="M297 584C461.029 584 594 517.904 594 436.371C594 354.838 461.029 288.742 297 288.742C132.971 288.742 0 354.838 0 436.371C0 517.904 132.971 584 297 584Z" fill="#FAFAFA"/>
<path d="M481.343 496.211C534.437 496.211 577.478 471.388 577.478 440.768C577.478 410.148 534.437 385.326 481.343 385.326C428.249 385.326 385.208 410.148 385.208 440.768C385.208 471.388 428.249 496.211 481.343 496.211Z" fill="#E0E0E0"/>
<path d="M161.705 443.281L285.065 372.343C287.149 371.148 290.527 371.148 292.611 372.343L475.24 477.685C477.323 478.892 477.323 480.838 475.24 482.033L351.88 552.971C349.796 554.179 346.418 554.179 344.334 552.971L161.705 447.629C159.622 446.422 159.622 444.476 161.705 443.281Z" fill="#E0E0E0"/>
<path d="M113.878 417.968L15.1777 474.889L138.772 546.345L237.472 489.251L113.878 417.968Z" fill="#E0E0E0"/>
<path d="M534.768 409.863C533.744 394.995 533.103 389.157 531.685 362.587C531.562 355.776 531.315 348.483 530.859 342.004C529.318 320.202 526.519 315.016 524.633 307.539C522.758 300.062 521.242 286.081 518.381 239.2C516.791 213.197 513.03 198.797 509.726 186.233H442.516C435.611 215.623 433.639 279.257 433.848 309.559C433.959 325.006 434.12 404.788 433.737 411.169C433.33 417.907 429.915 422.169 427.277 425.002C421.74 430.939 417.77 433.341 410.829 438.514C411.84 441.163 426.376 441.064 430.507 439.056C437.103 435.829 445.623 430.532 447.867 428.87C453.576 424.657 456.091 418.596 456.178 412.179C456.178 412.179 456.424 410.639 456.375 410.516C456.486 406.771 465.856 353.928 468.211 341.302C470.049 331.497 468.039 312.503 468.039 312.503L475.165 265.794C475.165 265.794 483.204 296.798 487.495 315.681C490.652 329.563 498.456 351.477 503.561 373.673C509.529 396.227 510.009 398.223 513.523 414.371C515.299 422.514 516.902 454.823 518.887 460.452C525.261 478.633 540.378 466.39 541.191 456.326C541.734 449.637 534.99 413.066 534.768 409.863Z" fill="#FFA8A7"/>
<path d="M396.822 447.248C396.44 447.26 395.971 451.51 398.104 453.246C400.57 455.266 407.734 458.494 417.043 457.04C426.364 455.599 431.345 452.569 435.007 449.354C438.669 446.127 443.799 441.581 448.003 440.547C451.912 439.586 458.249 437.209 459.47 435.964C460.69 434.72 460.382 429.325 460.382 429.325L396.822 447.248Z" fill="#263238"/>
<path d="M456.387 410.516C456.387 410.516 457.657 411.07 457.941 412.314C458.261 413.792 458.323 415.702 459.014 418.116C459.963 421.479 460.715 428.414 460.271 431.198C459.827 433.969 451.357 436.543 447.3 438.206C443.157 439.906 438.411 443.306 434.255 446.915C429.952 450.647 420.804 454.515 414.713 454.761C405.416 455.131 399.325 452.766 397.377 449.477C394.973 445.4 396.748 440.978 407.302 435.755C409.3 434.77 416.303 430.385 418.683 428.796C421.198 427.12 423.602 425.273 425.822 423.203C426.944 422.156 428.004 421.06 429.003 419.89C429.878 418.867 431.124 417.623 431.617 416.367C431.728 416.084 431.802 415.751 431.9 415.455C432.196 414.605 432.381 413.817 432.529 412.93C432.677 412.043 432.751 410.738 433.59 410.183C434.539 409.543 436.302 409.58 437.399 409.629C438.78 409.703 441.851 410.491 443.17 410.885C445.377 411.551 447.029 412.006 447.991 413.46C448.731 414.568 448.878 415.997 448.965 417.303C449.002 417.931 449.014 418.559 449.026 419.175C449.039 419.446 448.94 419.927 449.31 419.804C449.668 419.693 450.037 418.744 450.161 418.424C450.444 417.722 450.605 416.97 450.913 416.268C451.258 415.468 451.542 414.544 452.183 413.977C453.921 412.437 455.648 412.684 456.153 412.166C456.178 412.179 456.338 411.046 456.387 410.516Z" fill="#37474F"/>
<path d="M405.601 436.605C419.09 437.184 423.516 447.371 424.219 452.495C420.915 453.764 417.487 454.638 414.713 454.749C405.416 455.119 398.943 452.766 396.995 449.477C394.726 445.634 396.144 440.473 405.601 436.605Z" fill="#FAFAFA"/>
<path d="M425.76 438.206C425.908 438.206 426.056 438.145 426.167 438.046C426.438 437.812 426.475 437.393 426.241 437.122C424.305 434.881 418.855 430.003 413.973 430.656C413.615 430.705 413.356 431.037 413.405 431.395C413.455 431.752 413.775 432.01 414.145 431.961C418.707 431.358 423.701 436.199 425.242 437.985C425.378 438.132 425.563 438.219 425.76 438.206Z" fill="#F0F0F0"/>
<path d="M431.469 434.683C431.617 434.683 431.765 434.634 431.876 434.523C432.147 434.289 432.184 433.871 431.95 433.6C430.014 431.358 424.564 426.468 419.682 427.133C419.324 427.182 419.065 427.514 419.114 427.872C419.164 428.229 419.472 428.488 419.854 428.438C424.404 427.835 429.422 432.676 430.951 434.462C431.087 434.61 431.284 434.696 431.469 434.683Z" fill="#F0F0F0"/>
<path d="M436.746 430.693C436.894 430.693 437.042 430.631 437.153 430.532C437.424 430.298 437.461 429.88 437.227 429.609C435.291 427.367 429.816 422.477 424.958 423.142C424.601 423.191 424.342 423.524 424.391 423.881C424.441 424.238 424.761 424.497 425.131 424.447C429.681 423.844 434.687 428.685 436.228 430.471C436.363 430.619 436.561 430.693 436.746 430.693Z" fill="#F0F0F0"/>
<path d="M441.912 426.702C442.06 426.702 442.196 426.652 442.319 426.554C442.603 426.32 442.64 425.901 442.405 425.63C439.742 422.44 433.898 418.461 429.015 419.126C428.658 419.175 428.399 419.508 428.448 419.865C428.497 420.222 428.818 420.469 429.188 420.432C433.577 419.841 439.027 423.647 441.394 426.48C441.53 426.628 441.715 426.702 441.912 426.702Z" fill="#F0F0F0"/>
<path d="M516.68 455.414C517.309 461.61 518.455 465.675 520.823 469.223C523.19 472.77 527.394 473.731 531.562 472.475C535.729 471.218 540.994 468.139 541.968 462.731C542.942 457.324 543.485 453.628 542.276 447.913L516.68 455.414Z" fill="#263238"/>
<path d="M534.768 409.863C536.506 409.925 536.408 418.165 537.776 426.467C539.243 435.361 540.686 438.847 541.968 446.139C543.435 454.466 542.202 458.272 539.49 463.47C536.777 468.668 526.593 474.088 521.143 467.055C516.705 461.327 516.248 454.774 516.261 446.398C516.273 437.738 515.176 431.961 514.189 425.457C513.166 418.732 511.526 412.721 512.993 411.957C513.154 412.869 514.325 417.525 514.781 418.572C514.978 419.028 515.706 420.161 515.891 418.399C515.952 417.882 515.73 416.687 515.755 416.17C515.817 414.716 516.68 414.433 517.247 414.1C518.455 413.361 521.18 412.327 524.571 412.154C527.962 411.982 530.884 411.748 532.82 412.635C533.979 413.164 534.003 414.248 534.176 415.295C534.373 416.552 534.435 417.328 534.731 417.057C535.31 416.527 534.62 410.762 534.768 409.863Z" fill="#37474F"/>
<path d="M542.659 450.968C543.189 456.153 542.104 459.775 539.971 463.84C537.258 469.038 526.235 474.507 520.798 467.486C518.085 463.988 517.222 459.75 516.68 455.414C519.503 449.687 537.603 446.422 542.659 450.968Z" fill="#FAFAFA"/>
<path d="M520.058 446.139C520.132 446.127 520.206 446.102 520.268 446.065C520.342 446.028 528.221 442.358 536.112 443.823C536.457 443.885 536.802 443.651 536.864 443.306C536.926 442.961 536.691 442.616 536.346 442.555C527.999 441.015 519.96 444.772 519.664 444.92C519.356 445.092 519.232 445.474 519.393 445.794C519.528 446.053 519.8 446.176 520.058 446.139Z" fill="#F0F0F0"/>
<path d="M535.458 437.603C535.705 437.566 535.914 437.393 535.988 437.147C536.087 436.802 535.89 436.445 535.544 436.346C527.653 434.055 519.195 438.391 518.874 438.576C518.566 438.748 518.468 439.143 518.64 439.451C518.825 439.759 519.22 439.857 519.516 439.685C519.59 439.648 527.826 435.447 535.174 437.591C535.273 437.615 535.359 437.615 535.458 437.603Z" fill="#F0F0F0"/>
<path d="M534.928 431.727C535.162 431.69 535.372 431.53 535.446 431.284C535.557 430.939 535.359 430.582 535.027 430.483C526.334 427.798 518.332 432.479 518.036 432.676C517.74 432.873 517.666 433.267 517.864 433.562C518.061 433.858 518.468 433.932 518.751 433.735C518.813 433.686 526.556 429.214 534.644 431.702C534.731 431.739 534.829 431.739 534.928 431.727Z" fill="#F0F0F0"/>
<path d="M534.238 425.95C534.472 425.913 534.681 425.753 534.755 425.519C534.866 425.186 534.681 424.817 534.349 424.706C526.199 422.058 517.58 426.874 517.247 427.083C516.951 427.268 516.865 427.675 517.05 427.97C517.235 428.266 517.642 428.364 517.938 428.167C518.012 428.118 526.383 423.474 533.942 425.938C534.053 425.962 534.151 425.962 534.238 425.95Z" fill="#EBEBEB"/>
<path d="M515.077 186.233C517.592 204.562 518.381 209.07 521.131 249.892C523.794 289.481 524.004 295.283 524.398 300.062C525.298 311 530.144 314.782 531.562 340.588C532.857 364.238 533.633 393.419 533.633 393.419C533.633 393.419 530.452 397.792 521.427 398.605C513.104 399.344 508.949 396.227 508.949 396.227C508.949 396.227 493.524 341.093 489.221 327.211C483.377 308.364 475.178 275.291 475.178 275.291L469.74 313.144C469.74 313.144 471.491 331.275 467.977 348.397C463.612 369.621 459.161 392.692 459.161 392.692C459.161 392.692 453.712 394.971 446.622 394.256C436.881 393.271 433.626 391.017 433.626 391.017C433.626 391.017 430.889 326.89 430.889 303.462C430.889 280.046 431.185 222.706 432.554 186.245H515.077V186.233Z" fill="#37474F"/>
<path d="M475.166 275.291L468.409 234.309C468.409 234.309 454.834 230.725 446.117 221.622C446.758 228.409 458.841 237.118 464.488 238.473L472.034 274.786L469.728 313.143L475.166 275.291Z" fill="#263238"/>
<path d="M490.923 192.577C493.056 195.939 494.646 199.61 496.015 203.33C497.396 207.062 498.469 210.881 499.406 214.724C500.306 218.58 501.046 222.472 501.551 226.401C502.069 230.318 502.427 234.285 502.34 238.251C501.391 234.396 500.515 230.577 499.64 226.746C498.74 222.928 497.902 219.097 496.977 215.303C496.101 211.497 495.14 207.703 494.166 203.909C493.167 200.127 492.107 196.371 490.923 192.577Z" fill="#263238"/>
<path d="M496.114 194.018C498.111 195.841 499.874 197.886 501.477 200.029C503.105 202.172 504.523 204.451 505.842 206.792C507.112 209.157 508.259 211.596 509.146 214.145C510.046 216.683 510.737 219.319 510.959 222.016L507.346 214.921C506.126 212.593 504.917 210.278 503.635 207.986C502.402 205.671 501.095 203.392 499.837 201.076C498.567 198.773 497.285 196.457 496.114 194.018Z" fill="#263238"/>
<path d="M490.688 240.875C492.402 253.156 493.931 265.449 495.485 277.73C497.075 290.011 500.034 303.56 502.291 315.693C504.609 327.814 516.741 379.106 518.615 391.362C515.78 379.29 502.217 328.356 499.837 316.149C497.606 303.905 494.757 290.282 493.561 277.952C492.328 265.609 491.428 253.254 490.688 240.875Z" fill="#263238"/>
<path d="M444.686 241.405L442.664 273.714C442.368 279.097 442.023 284.48 441.776 289.863C441.53 295.233 441.209 300.641 441.295 305.95C441.406 311.284 441.739 362.883 441.012 373.673C439.742 361.651 439.162 316.851 438.792 305.987C438.829 295.061 439.754 284.344 440.716 273.566C441.727 262.813 443.022 252.084 444.686 241.405Z" fill="#263238"/>
<path d="M460.148 387.494L458.311 398.728C458.311 398.728 453.81 401.598 444.353 400.625C434.896 399.652 433.54 396.597 433.54 396.597V386.028C433.54 386.028 435.809 388.221 444.427 389.194C453.083 390.167 460.148 387.494 460.148 387.494Z" fill="#37474F"/>
<path d="M533.436 385.597L534.275 396.942C534.275 396.942 530.563 400.785 521.156 402.041C511.736 403.298 509.701 400.637 509.701 400.637L507.235 390.364C507.235 390.364 509.948 391.965 518.566 390.906C527.185 389.847 533.436 385.597 533.436 385.597Z" fill="#37474F"/>
<path d="M317.467 61.0348L231.862 1.30566L42.5376 110.503V284.086L231.862 174.888L341.572 94.2559L317.467 61.0348Z" fill="#FFC727"/>
<path d="M448.027 88.8115C438.016 90.6592 432.097 92.9134 424.169 104.689C417.499 114.593 403.874 132.392 403.874 132.392C403.874 132.392 385.639 116.502 382.901 111.834C378.833 104.886 348.625 106.525 355.579 116.502C357.527 119.298 363.1 121.244 366.01 124.989C373.013 133.956 380.46 147.875 387.205 156.091C394.43 164.886 400.952 169.789 404.738 169.789C409.472 169.789 416.537 162.115 418.535 159.824C426.475 150.696 442.923 131.333 442.923 131.333L448.027 88.8115Z" fill="#FFA8A7"/>
<path d="M372.902 116.601C372.236 116.366 371.608 115.455 371.299 114.839C370.929 114.112 370.781 113.287 370.658 112.486C370.362 110.688 370.128 108.89 369.857 107.091C369.61 105.404 369.4 103.691 369.105 102.016C368.858 100.637 368.402 99.3063 367.366 98.3086C366.75 97.7296 365.529 98.5056 366.232 99.1708C367.391 100.267 367.576 101.955 367.798 103.457C368.094 105.416 368.377 107.387 368.673 109.345C368.932 111.107 369.031 112.991 369.672 114.667C370.264 116.206 371.287 117.032 372.89 117.34C373.395 117.426 373.247 116.724 372.902 116.601Z" fill="#F28F8F"/>
<path d="M448.028 87.9246C437.905 89.8092 433.787 91.2381 427.659 98.7273C421.531 106.217 408.313 126.048 408.313 126.048C408.313 126.048 410.521 133.808 416.685 139.82C422.85 145.843 428.695 148.208 428.695 148.208L444.514 131.333L448.028 87.9246Z" fill="#455A64"/>
<path d="M367.243 77.1711C365.566 78.1812 366.059 81.3222 367.391 88.8484C368.722 96.3746 371.176 112.671 371.176 112.671C371.176 112.671 367.354 114.309 364.321 115.714C361.288 117.13 356.109 118.374 353.581 115.985C351.066 113.595 353.729 110.7 357.872 108.729L352.151 88.5035C352.151 88.5035 352.015 84.8698 358.279 81.3469C364.53 77.8486 367.243 77.1711 367.243 77.1711Z" fill="#37474F"/>
<path d="M354.666 83.9829C352.089 86.4834 352.151 88.5159 352.151 88.5159L357.872 108.742C358.341 110.392 359.783 113.607 362.323 112.191C364.863 110.774 367.563 104.381 364.974 96.5471C362.545 89.218 357.416 85.3132 354.666 83.9829Z" fill="#455A64"/>
<path opacity="0.4" d="M367.243 77.1711C367.243 77.1711 364.53 77.8486 358.279 81.3715C352.028 84.8944 352.151 88.5282 352.151 88.5282L352.657 90.3143C354.95 88.7622 358.279 86.4095 360.918 84.1923C364.074 81.544 365.085 80.3861 366.182 79.5978C366.244 78.3413 366.565 77.5776 367.243 77.1711Z" fill="black"/>
<path d="M357.107 59.6184C357.28 58.9163 356.38 58.5714 353.002 58.0047C344.889 56.6251 335.37 56.0462 325.543 59.0271L323.016 59.7416L344.211 80.263L343.187 84.3526C343.187 84.3526 358.365 80.0413 363.47 78.5878C368.574 77.1343 370.485 75.3359 371.176 72.6014L371.533 71.1602L363.519 63.3999L357.107 59.6184Z" fill="#455A64"/>
<path d="M369.142 63.7693C367.563 62.2911 363.914 61.318 361.041 60.6036C358.871 60.0739 357.12 59.6182 357.12 59.6182C357.12 59.6182 348.859 61.2072 353.791 66.1589C358.735 71.1107 372.384 67.6617 371.164 72.6011C372.483 67.3661 371.904 66.3437 369.142 63.7693Z" fill="#37474F"/>
<path d="M353.594 61.0349C352.151 62.0573 351.325 63.6832 353.791 66.1591C355.542 67.9206 358.402 68.6227 361.3 69.0045C357.958 68.1669 355.147 65.8019 354.358 64.6071C353.557 63.4246 352.903 61.8602 353.594 61.0349Z" fill="#FFC727"/>
<path d="M365.344 77.9841C364.851 79.9673 352.682 88.5898 345.826 92.3467C343.533 93.6031 341.56 94.5269 339.957 95.1798C337.146 96.3377 333.928 95.7341 331.758 93.6278L318.651 80.9404C316.703 79.0558 315.914 76.2719 316.568 73.6483L317.85 68.5364C318.244 66.9474 317.591 65.3953 316.753 64.1635C315.852 62.8455 316.457 61.0471 317.985 60.6037C319.428 60.1849 321.093 59.7168 322.548 59.3103C325.556 58.4727 329.095 61.2319 336.949 68.8936C344.803 76.5553 346.233 80.3491 345.382 83.7242L365.344 77.9841Z" fill="#37474F"/>
<path d="M345.395 83.7242C344.445 87.5058 343.631 92.3714 342.103 94.256C343.397 93.172 343.927 92.9996 346.332 83.4656L345.395 83.7242Z" fill="#263238"/>
<path d="M316.765 64.1512C317.603 65.3829 318.257 66.935 317.862 68.524L316.58 73.6359C315.914 76.2596 316.715 79.0434 318.664 80.928L331.77 93.6154C333.952 95.7217 337.171 96.3253 339.969 95.1674C341.572 94.5023 343.545 93.5907 345.838 92.3343C346.344 92.051 346.886 91.7431 347.441 91.4228C347.318 91.4844 339.698 95.0073 337.454 94.8841C334.421 94.724 332.929 93.6277 329.933 90.6345C326.69 87.3949 320.476 81.2483 319.046 79.5977C318.516 78.9941 317.936 77.3189 318.861 76.7646C321.043 75.4343 323.571 75.5082 324.138 76.0625C325.815 77.6884 338.095 89.5875 338.095 89.5875C338.958 86.1385 337.935 82.7264 333.792 77.9841C329.649 73.2417 322.991 67.3292 319.921 64.7917C316.863 62.2542 316.826 61.2811 317.998 60.5913C316.469 61.0348 315.865 62.8332 316.765 64.1512Z" fill="#263238"/>
<path d="M338.095 89.5875C338.095 89.5875 339.118 86.4342 336.394 82.32C333.262 77.6023 326.382 71.3695 323.854 68.9182L322.461 74.4489L338.095 89.5875Z" fill="#FFC727"/>
<path d="M340.524 66.7009L342.139 68.2653C343.237 69.3246 345.247 69.8789 346.627 69.4847C348.008 69.0906 348.23 67.9081 347.133 66.8487L345.518 65.2844C344.42 64.225 342.411 63.6707 341.03 64.0649C339.649 64.4591 339.427 65.6416 340.524 66.7009Z" fill="#263238"/>
<path d="M366.564 83.946L367.465 89.6246L374.505 90.4006C371.533 87.666 366.564 83.946 366.564 83.946Z" fill="#F28F8F"/>
<path d="M368.599 108.557C368.846 107.559 367.65 105.367 366.589 105.108C369.203 104.529 369.524 103.273 369.326 101.992C369.129 100.711 367.07 99.3186 367.07 99.3186C367.07 99.3186 368.34 98.9614 368.698 97.939C369.055 96.9043 367.982 95.069 366.145 94.1574C364.32 93.2336 360.979 93.8372 359.056 93.6647C357.145 93.4923 352.558 90.0063 352.558 90.0063L352.139 88.5159L346.43 92.0141C346.43 92.0141 347.367 92.9996 347.046 94.3052C346.714 95.6109 345.715 97.397 346.467 98.6657C347.219 99.9222 347.318 100.193 347.009 101.45C346.319 102.94 346.492 104.147 347.009 105.096C347.009 105.096 347.589 106.364 346.96 107.399C346.331 108.434 347.046 109.937 347.823 110.515C348.6 111.094 352.755 114.001 355.011 114.765C357.268 115.529 357.564 115.147 359.943 114.617C362.323 114.088 364.592 113.472 364.616 112.597C364.641 111.723 363.692 111.008 362.57 110.639C363.161 110.491 363.753 110.343 364.333 110.208C366.897 109.604 368.352 109.555 368.599 108.557Z" fill="#F28F8F"/>
<path d="M382.902 111.834C378.488 104.899 379.511 94.8597 377.624 92.5686C375.726 90.2774 366.996 86.9147 365.307 86.89C362.631 86.8408 358.698 91.4969 356.195 94.4285C354.457 96.461 356.75 97.6558 358.735 97.6804C362.175 97.7174 364.863 95.143 364.863 95.143L368.55 96.8182C368.55 96.8182 371.312 115.061 371.41 114.642C371.534 114.236 382.902 111.834 382.902 111.834Z" fill="#FFA8A7"/>
<path d="M403.875 132.38C407.598 135.89 412.345 140.928 413.208 145.843C415.045 139.265 408.757 132.872 405.983 129.62L403.875 132.38Z" fill="#F28F8F"/>
<path d="M491.737 84.5127C496.915 85.5843 503.475 86.9147 510.083 88.7377C516.729 90.5731 517.654 90.9549 519.799 91.7063C519.799 91.7063 523.313 106.796 521.254 142.948C520.946 148.307 517.062 162.669 516.408 173.78C515.521 188.771 516.026 195.472 517.333 208.418C517.333 208.418 504.128 221.117 467.533 218.358C438.805 216.19 431.345 203.675 431.345 203.675C431.345 203.675 431.666 157.791 432.418 136.629C433.404 108.828 441.826 92.7903 448.027 87.9247L466.88 84.7837L491.737 84.5127Z" fill="#455A64"/>
<path d="M499.221 25.1038C499.221 25.1038 503.647 25.4363 506.557 31.0163C508.012 33.8248 509.06 38.9367 505.065 53.5456C502.488 62.9564 499.406 67.0582 498.025 69.6696C496.644 72.2933 493.82 73.0201 493.82 73.0201L494.116 61.7862L494.535 53.9521C494.535 53.9521 488.222 48.2243 487.668 42.5951C486.965 35.3522 489.801 31.2504 489.801 31.2504L499.221 25.1038Z" fill="#37474F"/>
<path d="M500.75 25.4856C499.653 19.1666 491.638 11.628 476.164 10.8028C463.489 10.1253 456.437 14.7075 451.665 21.8642C446.684 29.3411 450.161 38.8135 450.161 38.8135L489.986 36.2144L500.75 25.4856Z" fill="#37474F"/>
<path d="M504.399 65.0874C498.567 67.9205 495.916 63.3136 495.916 63.3136L495.041 86.4834C483.858 101.437 453.995 96.0297 466.239 84.8328L466.263 79.5485C466.263 79.5485 464.303 79.5485 461.22 79.0558C456.067 78.2428 452.454 74.8308 450.913 69.2508C448.644 60.9979 449.347 43.1001 450.703 33.3444C451.085 30.5852 453.009 27.3579 455.499 26.1261C461.689 23.0713 467.422 27.4811 476.041 30.8315C479.616 32.2234 488.272 32.8393 490.565 31.7677C487.557 35.0812 487.582 45.576 492.02 49.8256C492.797 51.3037 493.611 52.166 494.24 52.7203C496.126 54.3586 497.667 50.1335 499.258 48.4706C500.861 46.8324 506.804 45.3419 509.368 50.7987C511.958 56.3417 509.8 62.476 504.399 65.0874Z" fill="#FFA8A7"/>
<path d="M466.239 84.8328C466.239 84.8328 449.976 92.6423 445.155 111.131C440.321 129.62 439.051 182.969 438.879 200.509C438.718 218.05 438.879 224.578 438.879 224.578C438.879 224.578 438.879 223.137 428.842 219.097C428.842 198.526 430.371 129.62 433.293 115.775C438.102 92.9256 448.04 87.9245 448.04 87.9245L466.239 84.8328Z" fill="#FFC727"/>
<path d="M429.545 178.35C429.484 180.727 429.422 183.08 429.36 185.383C432.517 187.317 435.981 188.721 439.039 189.67C439.089 187.502 439.138 185.161 439.212 182.71C436.08 181.552 432.566 180.037 429.545 178.35Z" fill="#FAFAFA"/>
<path d="M429.126 196.1C429.077 198.304 429.04 200.423 429.015 202.456C432.172 204.414 435.636 205.695 438.83 206.52C438.842 204.685 438.854 202.677 438.879 200.509C438.879 200.46 438.879 200.411 438.879 200.362C435.809 199.475 432.43 198.132 429.126 196.1Z" fill="#FAFAFA"/>
<path d="M495.127 84.0198L495.029 86.4833C495.029 86.4833 490.948 98.2222 488.124 113.509C486.583 121.86 486.016 131.591 485.338 140.288C483.71 161.351 483.414 211.731 483.365 229.087C495.51 231.452 512.451 229.062 520.058 223.421C518.616 200.263 517.198 188.278 518.468 170.823C519.812 152.458 527.419 118.276 520.28 91.0286C513.844 89.2425 503.512 86.1384 495.127 84.0198Z" fill="#FFC727"/>
<path d="M518.579 200.817C512.167 206.016 497.532 210.191 483.488 209.76C483.464 212.051 483.451 214.231 483.439 216.301C483.439 216.301 506.545 217.262 518.998 207.223C518.838 205.005 518.702 202.874 518.579 200.817Z" fill="#FAFAFA"/>
<path d="M483.71 190.396C483.673 192.601 483.648 194.794 483.624 196.95C500.54 197.762 512.414 193.291 518.098 190.483C518.024 188.081 517.987 185.703 517.999 183.289C510.453 187.292 498.271 191.517 483.71 190.396Z" fill="#FAFAFA"/>
<path d="M466.263 79.5485C473.032 79.5116 479.037 78.6739 483.032 76.9864C487.027 75.2989 490.565 69.9037 491.724 64.5454C491.724 68.8566 489.826 76.4937 483.772 79.6717C477.718 82.8497 470.665 83.0098 466.239 83.1084L466.263 79.5485Z" fill="#F28F8F"/>
<path d="M336.332 154.589L387.871 169.789L412.616 146.89L361.066 131.702L336.332 154.589Z" fill="#FFDC83"/>
<path d="M336.332 154.589L393.912 224.936L445.463 240.136L387.871 169.789L336.332 154.589Z" fill="#BA68C8"/>
<path d="M336.332 154.589L393.912 224.936L445.463 240.136L387.871 169.789L336.332 154.589Z" fill="#FFC727"/>
<path d="M412.617 146.89L470.197 217.237L445.463 240.136L387.871 169.789L412.617 146.89Z" fill="#FFDC83"/>
<path d="M365.788 163.273L358.402 161.093L415.982 231.44L423.368 233.62L365.788 163.273Z" fill="#263238"/>
<path d="M369.203 151.103L358.402 161.093L365.788 163.273L376.589 153.283L369.203 151.103Z" fill="#455A64"/>
<path d="M458.828 203.342L440.235 180.628C439.027 180.961 437.954 181.922 436.696 182.119C434.625 182.439 432.591 182.661 430.494 182.612C426.29 182.513 422.147 181.651 418.078 180.616C415.834 180.037 413.59 179.409 411.359 178.781C410.064 178.423 408.301 178.288 407.758 179.507C407.339 180.444 408.017 181.503 408.757 182.217C413.023 186.393 419.644 186.837 424.835 189.781C425.217 190.002 425.637 190.347 425.538 190.778C425.439 191.16 424.983 191.296 424.601 191.37C419.829 192.244 408.252 193.082 403.628 194.56C402.777 194.831 401.791 195.373 401.815 196.26C401.84 196.876 402.37 197.356 402.888 197.689C403.961 198.378 405.181 198.822 406.451 198.994C405.872 199.832 406.266 201.051 407.031 201.716C407.795 202.382 408.843 202.616 409.842 202.813C411.47 203.121 413.122 203.367 414.774 203.552C414.786 204.242 413.726 204.18 413.072 204.414C412.259 204.71 411.987 205.806 412.296 206.607C412.604 207.407 413.331 207.986 414.034 208.479C416.056 209.883 418.411 211.053 420.877 210.906C421.925 210.844 422.949 210.536 423.96 210.228C432.073 207.765 446.807 204.118 455.277 203.613C456.461 203.515 457.657 203.478 458.828 203.342Z" fill="#FFC727"/>
<path d="M456.177 182.92C452.811 183.412 449.692 181.035 447.053 177.574C444.427 174.112 443.404 170.947 438.385 170.072C433.355 169.198 430.679 168.951 430.679 168.951L435.056 174.309C435.056 174.309 438.977 179.421 434.28 180.592C431.296 181.343 428.09 181.306 422.702 179.569C413.849 176.711 408.967 174.63 407.993 177.315C407.031 180.013 409.731 180.789 412.998 182.267C416.266 183.745 424.219 186.627 426.216 187.613C428.213 188.598 428.435 189.547 424.367 190.236C420.298 190.926 407.056 191.998 404.392 192.281C401.729 192.564 400.459 194.474 401.815 195.669C403.172 196.863 408.017 197.565 408.017 197.565C408.017 197.565 405.477 200.867 410.495 201.741C415.526 202.616 427.486 201.47 428.201 201.618C428.916 201.766 420.051 204.747 418.806 204.796C417.56 204.845 412.666 202.899 412 203.995C411.334 205.092 412.086 206.311 414.083 207.124C416.081 207.937 418.83 210.142 420.964 209.711C423.097 209.28 434.058 205.313 437.239 204.661C440.42 204.008 456.856 200.337 456.856 200.337L456.177 182.92Z" fill="#FFA8A7"/>
<path d="M519.787 91.6938C511.871 96.3623 505.435 109.025 504.091 121.023C502.747 133.02 499.924 163.642 499.924 163.642C499.924 163.642 472.872 175.455 465.795 177.746C458.718 180.05 450.962 181.7 447.066 177.561L449.84 201.901C449.84 201.901 477.175 197.565 490.023 195.127C503.536 192.564 512.192 190.113 516.396 188.413C523.831 185.408 525.829 184.903 528.134 172.08C530.119 161.019 532.203 139.733 533.646 128.844C535.064 117.98 536.753 96.5101 519.787 91.6938Z" fill="#FFA8A7"/>
<path d="M408.018 197.578C410.126 197.602 412.222 197.43 414.33 197.331L420.631 196.974L423.787 196.814C424.848 196.814 425.859 196.716 426.907 196.58L433.183 195.853C431.124 196.321 429.065 196.74 426.968 197.036C424.872 197.381 422.739 197.331 420.656 197.455C418.547 197.553 416.451 197.639 414.343 197.676C412.234 197.713 410.126 197.738 408.018 197.578Z" fill="#F28F8F"/>
<path d="M519.183 90.7085C524.213 91.9403 529.91 94.2807 532.585 101.979C535.261 109.678 535.705 114.137 534.484 128.857C533.263 143.564 531.143 156.978 531.143 156.978C531.143 156.978 526.79 158.592 516.409 157.828C506.027 157.065 500.232 152.384 500.232 152.384C500.232 152.384 502.328 129.3 503.351 119.606C504.35 109.9 508.592 95.9682 519.183 90.7085Z" fill="#455A64"/>
<path d="M282.623 205.301L219.569 241.676C212.652 245.667 207.005 255.447 207.005 263.417V402.472L201.148 405.848V258.65C201.148 250.68 206.807 240.887 213.712 236.909L282.894 197.011C289.811 193.02 295.459 196.284 295.459 204.254V351.452L289.565 354.852V209.304C289.553 204.907 286.433 203.096 282.623 205.301Z" fill="#E0E0E0"/>
<path d="M338.095 515.217C338.095 508.048 333.052 499.327 326.838 495.743C323.571 493.858 320.648 493.784 318.589 495.164L310.994 499.5L327.134 526.907L334.655 522.583L334.643 522.559C336.763 521.401 338.095 518.876 338.095 515.217Z" fill="#455A64"/>
<path d="M318.959 500.276C325.173 503.86 330.216 512.581 330.216 519.75C330.216 526.919 325.173 529.826 318.959 526.242C312.745 522.657 307.702 513.936 307.702 506.767C307.702 499.598 312.733 496.691 318.959 500.276Z" fill="#37474F"/>
<path d="M315.149 511.054C315.149 508.245 316.851 506.964 318.959 508.172C321.068 509.391 322.769 512.643 322.769 515.451C322.769 518.26 321.068 519.541 318.959 518.334C316.851 517.114 315.149 513.862 315.149 511.054Z" fill="#263238"/>
<path d="M332.152 488.303C332.152 488.303 332.152 501.138 326.024 505.671C324.865 506.521 323.645 507.125 322.917 507.716C321.351 509.009 322.387 511.399 324.286 512.421C327.048 513.899 342.078 509.896 348.44 497.701L332.152 488.303Z" fill="#F0F0F0"/>
<path d="M326.32 491.653C326.32 491.653 326.32 504.488 320.192 509.021C319.033 509.871 317.813 510.475 317.085 511.066C315.519 512.36 316.555 514.749 318.454 515.772C321.216 517.25 336.246 513.246 342.608 501.052L326.32 491.653Z" fill="#FAFAFA"/>
<path d="M318.959 512.015C319.551 512.36 320.044 513.197 320.044 513.887C320.044 514.577 319.563 514.86 318.959 514.515C318.367 514.17 317.874 513.333 317.874 512.643C317.874 511.941 318.355 511.67 318.959 512.015Z" fill="#263238"/>
<path d="M215.882 444.722C215.882 437.554 210.839 428.832 204.625 425.248C201.358 423.363 198.435 423.289 196.376 424.669L188.781 429.005L204.921 456.412L212.442 452.089L212.43 452.064C214.563 450.918 215.882 448.381 215.882 444.722Z" fill="#455A64"/>
<path d="M196.746 429.781C202.961 433.365 208.003 442.086 208.003 449.255C208.003 456.424 202.961 459.331 196.746 455.747C190.532 452.162 185.489 443.441 185.489 436.272C185.489 429.103 190.532 426.196 196.746 429.781Z" fill="#37474F"/>
<path d="M192.937 440.571C192.937 437.763 194.638 436.482 196.746 437.689C198.855 438.908 200.556 442.16 200.556 444.969C200.556 447.777 198.855 449.058 196.746 447.851C194.638 446.632 192.937 443.38 192.937 440.571Z" fill="#263238"/>
<path d="M209.939 417.82C209.939 417.82 209.939 430.655 203.811 435.188C202.652 436.038 201.432 436.642 200.704 437.233C199.138 438.527 200.174 440.916 202.073 441.939C204.835 443.417 219.865 439.413 226.227 427.219L209.939 417.82Z" fill="#F0F0F0"/>
<path d="M204.107 421.171C204.107 421.171 204.107 434.006 197.979 438.539C196.82 439.389 195.6 439.992 194.872 440.584C193.306 441.877 194.342 444.267 196.241 445.289C199.003 446.767 214.033 442.764 220.395 430.569L204.107 421.171Z" fill="#FAFAFA"/>
<path d="M196.746 441.52C197.338 441.865 197.831 442.702 197.831 443.392C197.831 444.082 197.35 444.353 196.746 444.02C196.154 443.675 195.661 442.838 195.661 442.148C195.673 441.458 196.154 441.175 196.746 441.52Z" fill="#263238"/>
<path d="M195.242 409.247L301.352 348.052L466.399 443.257L360.289 504.452L195.242 409.247Z" fill="#455A64"/>
<path d="M195.242 409.247V416.059L360.289 511.251V504.451L195.242 409.247Z" fill="#37474F"/>
<path d="M466.399 443.257V450.056L360.289 511.251V504.451L466.399 443.257Z" fill="#263238"/>
<path d="M204.526 408.951L297.468 462.583L395.663 406.032L302.462 352.536L204.526 408.951Z" fill="#37474F"/>
<path d="M386.674 347.289L301.549 298.128L211.887 349.949L297.024 399.122L386.674 347.289Z" fill="#FFC727"/>
<path opacity="0.3" d="M386.674 347.289L301.549 298.128L211.887 349.949L297.024 399.122L386.674 347.289Z" fill="white"/>
<path d="M297.024 458.568L386.687 406.747V347.289L297.024 399.122V458.568Z" fill="#FFC727"/>
<path d="M307.467 437.061C307.11 437.061 306.777 436.975 306.481 436.802C305.692 436.347 305.248 435.349 305.248 434.068V426V425.987V425.396L305.655 425.47L311.992 421.75V430.767C311.992 433.058 310.624 435.644 308.873 436.655C308.38 436.926 307.911 437.061 307.467 437.061ZM306.247 426.591V434.055C306.247 434.967 306.518 435.644 306.974 435.915C307.43 436.174 307.973 435.977 308.343 435.768C309.761 434.955 310.957 432.651 310.957 430.754V430.089H308.614L308.146 426.923L306.247 426.591ZM309.502 429.079H310.969V423.511L307.196 425.729L309.07 426.061L309.502 429.079Z" fill="#455A64"/>
<path d="M308.602 443.491C308.318 443.491 308.096 443.269 308.096 442.986V436.211C308.096 435.928 308.318 435.706 308.602 435.706C308.885 435.706 309.107 435.928 309.107 436.211V442.986C309.12 443.269 308.885 443.491 308.602 443.491Z" fill="#455A64"/>
<path d="M305.655 445.191C305.482 445.191 305.31 445.104 305.211 444.932C305.076 444.686 305.15 444.378 305.396 444.242L311.29 440.843C311.524 440.695 311.845 440.781 311.98 441.027C312.116 441.274 312.042 441.582 311.795 441.717L305.902 445.117C305.828 445.166 305.741 445.191 305.655 445.191Z" fill="#455A64"/>
<path d="M326.665 433.526C326.468 433.526 326.283 433.476 326.11 433.378C325.728 433.156 325.506 432.713 325.506 432.158V430.766C325.506 430.483 325.728 430.261 326.011 430.261C326.295 430.261 326.517 430.483 326.517 430.766V432.158C326.517 432.368 326.579 432.479 326.616 432.503C326.653 432.528 326.776 432.516 326.948 432.417C327.392 432.158 327.898 431.148 327.898 430.126V421.109C327.898 420.826 328.12 420.604 328.403 420.604C328.687 420.604 328.909 420.826 328.909 421.109V430.126C328.909 431.444 328.292 432.811 327.466 433.292C327.195 433.439 326.924 433.526 326.665 433.526Z" fill="#455A64"/>
<path d="M321.326 425.642V424.768C321.326 420.629 324.236 415.591 327.824 413.522C329.661 412.462 331.412 412.314 332.744 413.09C334.088 413.866 334.827 415.455 334.827 417.562V417.857L321.326 425.642ZM330.857 413.62C330.093 413.62 329.23 413.879 328.33 414.408C325.284 416.158 322.769 420.247 322.387 423.856L333.804 417.266C333.742 415.677 333.187 414.507 332.238 413.965C331.819 413.731 331.363 413.62 330.857 413.62Z" fill="#455A64"/>
<path d="M344.901 423.129C344.617 423.129 344.396 422.908 344.396 422.624V405.367C344.396 405.084 344.617 404.862 344.901 404.862C345.185 404.862 345.407 405.084 345.407 405.367V422.624C345.407 422.908 345.185 423.129 344.901 423.129Z" fill="#455A64"/>
<path d="M343.421 409.296C343.347 409.296 343.286 409.284 343.224 409.26C342.965 409.149 342.854 408.853 342.965 408.594L344.778 404.431L346.787 406.759C346.972 406.968 346.948 407.289 346.738 407.473C346.516 407.658 346.208 407.634 346.023 407.424L345.061 406.316L343.89 409.001C343.804 409.186 343.619 409.296 343.421 409.296Z" fill="#455A64"/>
<path d="M349.599 420.457C349.315 420.457 349.093 420.235 349.093 419.951V402.694C349.093 402.411 349.315 402.189 349.599 402.189C349.882 402.189 350.104 402.411 350.104 402.694V419.951C350.104 420.235 349.882 420.457 349.599 420.457Z" fill="#455A64"/>
<path d="M348.107 406.624C348.033 406.624 347.971 406.611 347.91 406.587C347.651 406.476 347.54 406.18 347.651 405.921L349.451 401.758L351.461 404.086C351.646 404.296 351.621 404.616 351.411 404.801C351.189 404.985 350.881 404.961 350.696 404.751L349.734 403.643L348.563 406.328C348.502 406.513 348.304 406.624 348.107 406.624Z" fill="#455A64"/>
<path d="M297.024 458.568L211.887 409.395V349.949L297.024 399.122V458.568Z" fill="#FFC727"/>
<path opacity="0.1" d="M297.024 458.568L211.887 409.395V349.949L297.024 399.122V458.568Z" fill="black"/>
<path d="M222.651 385.905L247.631 400.317C248.248 400.674 248.753 401.549 248.753 402.263V419.606C248.753 421.035 247.742 421.614 246.497 420.9L221.517 406.488C220.9 406.131 220.395 405.256 220.395 404.542V387.198C220.407 385.769 221.418 385.191 222.651 385.905Z" fill="#FAFAFA"/>
<path d="M222.034 388.603L222.885 389.095V404.406L222.034 403.914V388.603Z" fill="#455A64"/>
<path d="M225.499 390.598L226.954 391.46V406.771L225.499 405.909V390.598Z" fill="#455A64"/>
<path d="M228.951 392.594L229.802 393.086V408.397L228.951 407.905V392.594Z" fill="#455A64"/>
<path d="M231.565 394.072L233.266 395.069V410.393L231.565 409.383V394.072Z" fill="#455A64"/>
<path d="M235.868 396.584L236.719 397.065V412.388L235.868 411.896V396.584Z" fill="#455A64"/>
<path d="M238.359 397.989L240.184 399.06V414.371L238.359 413.3V397.989Z" fill="#455A64"/>
<path d="M242.797 400.563L243.648 401.056V416.367L242.797 415.887V400.563Z" fill="#455A64"/>
<path d="M244.771 401.696L245.19 401.93V417.254L244.771 417.007V401.696Z" fill="#455A64"/>
<path d="M241.219 399.738L241.638 399.984V415.295L241.219 415.049V399.738Z" fill="#455A64"/>
<path d="M234.241 395.661L234.672 395.907V411.218L234.241 410.972V395.661Z" fill="#455A64"/>
<path d="M230.431 393.468L230.85 393.714V409.025L230.431 408.779V393.468Z" fill="#455A64"/>
<path d="M227.693 391.953L228.113 392.199V407.51L227.693 407.264V391.953Z" fill="#455A64"/>
<path d="M223.97 389.699L224.401 389.945L224.389 405.256L223.97 405.01V389.699Z" fill="#455A64"/>
<path d="M246.25 402.559L247.101 403.051V418.362L246.25 417.882V402.559Z" fill="#455A64"/>
<path d="M247.631 379.598L253.451 382.961V373.92L247.631 370.557V379.598Z" fill="#37474F"/>
<path d="M253.451 373.92L343.113 322.099L337.281 318.736L247.631 370.557L253.451 373.92Z" fill="#455A64"/>
<path opacity="0.1" d="M213.132 349.247L282.352 389.046L370.682 338.038L301.549 298.128L213.132 349.247Z" fill="black"/>
<path d="M363.679 280.822L294.756 241.134L213.28 288.212L282.204 327.888L363.679 280.822Z" fill="#FFC727"/>
<path opacity="0.7" d="M363.679 280.822L294.756 241.134L213.28 288.212L282.204 327.888L363.679 280.822Z" fill="white"/>
<path d="M282.204 384.981L363.679 337.915V280.822L282.204 327.888V384.981Z" fill="#FFC727"/>
<path opacity="0.6" d="M282.204 384.981L363.679 337.915V280.822L282.204 327.888V384.981Z" fill="white"/>
<path d="M293.251 363.031C292.943 363.031 292.647 362.957 292.388 362.809C291.71 362.415 291.315 361.54 291.315 360.431V353.423V353.41V352.893L291.673 352.955L297.172 349.727V357.561C297.172 359.557 295.976 361.799 294.46 362.686C294.053 362.907 293.646 363.031 293.251 363.031ZM292.203 353.928V360.419C292.203 361.207 292.437 361.799 292.832 362.033C293.227 362.267 293.695 362.082 294.028 361.897C295.261 361.183 296.297 359.187 296.297 357.537V356.958H294.262L293.855 354.211L292.203 353.928ZM295.027 356.083H296.297V351.242L293.017 353.164L294.644 353.447L295.027 356.083Z" fill="#455A64"/>
<path d="M294.25 368.623C294.003 368.623 293.806 368.426 293.806 368.179V362.292C293.806 362.045 294.003 361.848 294.25 361.848C294.497 361.848 294.694 362.045 294.694 362.292V368.179C294.694 368.426 294.497 368.623 294.25 368.623Z" fill="#455A64"/>
<path d="M291.685 370.089C291.537 370.089 291.389 370.015 291.303 369.867C291.18 369.658 291.254 369.387 291.463 369.263L296.592 366.307C296.802 366.184 297.073 366.258 297.197 366.467C297.32 366.677 297.246 366.948 297.036 367.071L291.907 370.027C291.833 370.076 291.759 370.089 291.685 370.089Z" fill="#455A64"/>
<path d="M309.946 359.951C309.773 359.951 309.613 359.914 309.465 359.828C309.132 359.631 308.935 359.249 308.935 358.769V357.561C308.935 357.315 309.132 357.118 309.378 357.118C309.625 357.118 309.822 357.315 309.822 357.561V358.769C309.822 358.953 309.872 359.04 309.909 359.064C309.946 359.077 310.044 359.077 310.192 358.99C310.587 358.756 311.018 357.882 311.018 356.995V349.161C311.018 348.914 311.216 348.717 311.462 348.717C311.709 348.717 311.906 348.914 311.906 349.161V356.995C311.906 358.14 311.364 359.323 310.648 359.742C310.414 359.877 310.18 359.951 309.946 359.951Z" fill="#455A64"/>
<path d="M305.297 353.102V352.339C305.297 348.742 307.825 344.357 310.944 342.571C312.535 341.659 314.064 341.524 315.223 342.189C316.394 342.866 317.035 344.246 317.035 346.081V346.34L305.297 353.102ZM313.595 342.644C312.929 342.644 312.177 342.879 311.388 343.322C308.75 344.849 306.555 348.397 306.222 351.538L316.148 345.81C316.098 344.431 315.617 343.42 314.779 342.94C314.434 342.743 314.027 342.644 313.595 342.644Z" fill="#455A64"/>
<path d="M325.802 350.922C325.555 350.922 325.358 350.725 325.358 350.479V335.476C325.358 335.229 325.555 335.032 325.802 335.032C326.048 335.032 326.246 335.229 326.246 335.476V350.479C326.246 350.725 326.048 350.922 325.802 350.922Z" fill="#455A64"/>
<path d="M324.519 338.888C324.458 338.888 324.396 338.875 324.347 338.851C324.125 338.752 324.026 338.494 324.113 338.272L325.678 334.65L327.429 336.671C327.59 336.855 327.565 337.126 327.38 337.286C327.195 337.447 326.911 337.422 326.751 337.237L325.913 336.276L324.902 338.617C324.852 338.789 324.68 338.888 324.519 338.888Z" fill="#455A64"/>
<path d="M329.883 348.594C329.636 348.594 329.439 348.397 329.439 348.151V333.148C329.439 332.901 329.636 332.704 329.883 332.704C330.129 332.704 330.327 332.901 330.327 333.148V348.151C330.327 348.397 330.129 348.594 329.883 348.594Z" fill="#455A64"/>
<path d="M328.601 336.56C328.539 336.56 328.477 336.547 328.428 336.523C328.206 336.424 328.107 336.165 328.194 335.944L329.76 332.322L331.51 334.342C331.671 334.527 331.646 334.798 331.461 334.958C331.276 335.118 330.993 335.094 330.832 334.909L329.994 333.948L328.983 336.289C328.933 336.461 328.761 336.56 328.601 336.56Z" fill="#455A64"/>
<path d="M282.204 384.981L213.28 345.305V288.212L282.204 327.888V384.981Z" fill="#FFC727"/>
<path opacity="0.4" d="M282.204 384.981L213.28 345.305V288.212L282.204 327.888V384.981Z" fill="white"/>
<path d="M222.651 320.744L247.631 335.155C248.248 335.513 248.753 336.387 248.753 337.102V354.445C248.753 355.874 247.742 356.453 246.497 355.738L221.517 341.327C220.9 340.969 220.395 340.095 220.395 339.38V322.037C220.407 320.608 221.418 320.029 222.651 320.744Z" fill="#FAFAFA"/>
<path d="M222.034 323.441L222.885 323.934V339.245L222.034 338.752V323.441Z" fill="#455A64"/>
<path d="M225.499 325.437L226.954 326.299V341.61L225.499 340.748V325.437Z" fill="#455A64"/>
<path d="M228.951 327.432L229.802 327.913V343.236L228.951 342.743V327.432Z" fill="#455A64"/>
<path d="M231.565 328.91L233.266 329.908V345.231L231.565 344.221V328.91Z" fill="#455A64"/>
<path d="M235.868 331.423L236.719 331.904V347.215L235.868 346.734V331.423Z" fill="#455A64"/>
<path d="M238.359 332.827L240.184 333.899V349.21L238.359 348.138V332.827Z" fill="#455A64"/>
<path d="M242.797 335.402L243.648 335.895V351.206L242.797 350.725V335.402Z" fill="#455A64"/>
<path d="M244.771 336.535L245.19 336.769V352.092L244.771 351.846V336.535Z" fill="#455A64"/>
<path d="M241.219 334.576L241.638 334.823V350.134L241.219 349.887V334.576Z" fill="#455A64"/>
<path d="M234.241 330.499L234.672 330.746V346.057L234.241 345.81V330.499Z" fill="#455A64"/>
<path d="M230.431 328.307L230.85 328.553V343.864L230.431 343.618V328.307Z" fill="#455A64"/>
<path d="M227.693 326.792L228.113 327.038V342.349L227.693 342.103V326.792Z" fill="#455A64"/>
<path d="M223.97 324.537L224.401 324.784L224.389 340.095L223.97 339.848V324.537Z" fill="#455A64"/>
<path d="M246.25 337.397L247.101 337.89V353.201L246.25 352.721V337.397Z" fill="#455A64"/>
<path d="M241.737 314.548L248.235 318.292V308.229L241.737 304.484V314.548Z" fill="#37474F"/>
<path d="M248.235 308.229L329.71 261.162L323.225 257.418L241.737 304.484L248.235 308.229Z" fill="#455A64"/>
<path d="M388.437 431.653C396.193 436.125 408.781 436.125 416.537 431.653C424.292 427.182 424.292 419.914 416.537 415.443C408.781 410.972 396.193 410.972 388.437 415.443C380.669 419.914 380.669 427.182 388.437 431.653Z" fill="#37474F"/>
<path d="M419.237 422.858H419.261V389.391H385.7V422.858H385.724C385.589 425.433 387.204 428.044 390.619 430.002C397.166 433.784 407.795 433.784 414.354 430.002C417.757 428.032 419.385 425.433 419.237 422.858Z" fill="#EBEBEB"/>
<path d="M390.619 396.227C397.166 400.009 407.795 400.009 414.354 396.227C420.901 392.446 420.901 386.324 414.354 382.542C407.807 378.76 397.179 378.76 390.619 382.542C384.072 386.311 384.072 392.446 390.619 396.227Z" fill="#FAFAFA"/>
<path d="M391.347 395.66C397.499 399.134 407.474 399.134 413.627 395.66C419.779 392.187 419.779 386.557 413.627 383.096C407.474 379.623 397.499 379.623 391.347 383.096C385.194 386.57 385.194 392.199 391.347 395.66Z" fill="#EBEBEB"/>
<path d="M413.627 384.722C407.474 381.249 397.499 381.249 391.347 384.722C388.634 386.25 387.13 388.196 386.797 390.191C387.117 392.187 388.634 394.133 391.347 395.66C397.499 399.134 407.474 399.134 413.627 395.66C416.339 394.133 417.843 392.187 418.176 390.191C417.843 388.196 416.339 386.25 413.627 384.722Z" fill="#F5F5F5"/>
<path d="M385.712 417.192C385.688 419.68 387.327 422.181 390.632 424.09C397.179 427.872 407.807 427.872 414.367 424.09C417.646 422.205 419.286 419.717 419.286 417.241V394.835C419.286 397.311 417.646 399.787 414.367 401.684C407.82 405.465 397.191 405.465 390.632 401.684C387.327 399.787 385.7 397.286 385.712 394.786V417.192Z" fill="#FFC727"/>
<path opacity="0.3" d="M385.712 417.192C385.688 419.68 387.327 422.181 390.632 424.09C397.179 427.872 407.807 427.872 414.367 424.09C417.646 422.205 419.286 419.717 419.286 417.241V394.835C419.286 397.311 417.646 399.787 414.367 401.684C407.82 405.465 397.191 405.465 390.632 401.684C387.327 399.787 385.7 397.286 385.712 394.786V417.192Z" fill="black"/>
<path opacity="0.1" d="M409.36 431.986C403.196 433.575 395.687 432.934 390.632 430.003C387.216 428.044 385.601 425.445 385.737 422.846H385.712V389.378C385.712 391.854 387.352 394.343 390.632 396.227C391.149 396.523 393.381 397.89 397.499 398.617V426.923C397.487 429.719 401.593 433.057 409.36 431.986Z" fill="black"/>
<path d="M406.315 395.353L404.54 394.33C403.097 393.493 402.702 392.372 403.676 391.805C404.651 391.251 406.599 391.473 408.041 392.298L409.817 393.32C411.259 394.158 411.654 395.279 410.68 395.845C409.718 396.412 407.758 396.178 406.315 395.353Z" fill="#E0E0E0"/>
<path d="M404.453 393.357C404.983 393.665 405.834 393.665 406.364 393.357C406.895 393.049 406.895 392.556 406.364 392.249C405.834 391.941 404.983 391.941 404.453 392.249C403.923 392.556 403.923 393.049 404.453 393.357Z" fill="#F5F5F5"/>
<path d="M407.98 395.266C408.51 395.574 409.361 395.574 409.891 395.266C410.421 394.958 410.421 394.466 409.891 394.158C409.361 393.85 408.51 393.85 407.98 394.158C407.449 394.466 407.449 394.958 407.98 395.266Z" fill="#F5F5F5"/>
<path d="M363.568 446.003C371.323 450.475 383.912 450.475 391.668 446.003C399.423 441.532 399.423 434.264 391.668 429.793C383.912 425.322 371.323 425.322 363.568 429.793C355.8 434.264 355.8 441.52 363.568 446.003Z" fill="#37474F"/>
<path d="M394.368 437.196H394.392V403.729H360.831V437.196H360.855C360.72 439.77 362.335 442.382 365.75 444.353C372.297 448.134 382.926 448.134 389.485 444.353C392.888 442.382 394.516 439.77 394.368 437.196Z" fill="#EBEBEB"/>
<path d="M365.75 410.565C372.297 414.347 382.926 414.347 389.485 410.565C396.032 406.783 396.032 400.661 389.485 396.88C382.938 393.098 372.31 393.098 365.75 396.88C359.203 400.661 359.203 406.783 365.75 410.565Z" fill="#FAFAFA"/>
<path d="M366.478 410.011C372.63 413.484 382.605 413.484 388.758 410.011C394.91 406.537 394.91 400.908 388.758 397.447C382.605 393.973 372.63 393.973 366.478 397.447C360.325 400.908 360.325 406.537 366.478 410.011Z" fill="#EBEBEB"/>
<path d="M388.757 399.06C382.605 395.586 372.63 395.586 366.477 399.06C363.765 400.587 362.261 402.534 361.928 404.529C362.248 406.525 363.765 408.471 366.477 409.998C372.63 413.472 382.605 413.472 388.757 409.998C391.47 408.471 392.974 406.525 393.307 404.529C392.974 402.546 391.47 400.6 388.757 399.06Z" fill="#F5F5F5"/>
<path d="M360.843 431.542C360.818 434.03 362.458 436.531 365.763 438.44C372.31 442.222 382.938 442.222 389.497 438.44C392.777 436.555 394.417 434.067 394.417 431.591V409.185C394.417 411.661 392.777 414.137 389.497 416.034C382.95 419.816 372.322 419.816 365.763 416.034C362.458 414.137 360.831 411.637 360.843 409.136V431.542Z" fill="#FFC727"/>
<path opacity="0.3" d="M360.843 431.542C360.818 434.03 362.458 436.531 365.763 438.44C372.31 442.222 382.938 442.222 389.497 438.44C392.777 436.555 394.417 434.067 394.417 431.591V409.185C394.417 411.661 392.777 414.137 389.497 416.034C382.95 419.816 372.322 419.816 365.763 416.034C362.458 414.137 360.831 411.637 360.843 409.136V431.542Z" fill="black"/>
<path opacity="0.1" d="M384.491 446.324C378.326 447.913 370.818 447.272 365.762 444.34C362.347 442.382 360.732 439.783 360.867 437.184H360.843V403.716C360.843 406.192 362.483 408.68 365.762 410.565C366.28 410.861 368.512 412.228 372.63 412.955V441.261C372.618 444.057 376.724 447.395 384.491 446.324Z" fill="black"/>
<path d="M381.446 409.69L379.67 408.668C378.228 407.83 377.833 406.71 378.807 406.143C379.781 405.589 381.729 405.81 383.172 406.636L384.948 407.658C386.39 408.496 386.785 409.617 385.811 410.183C384.849 410.75 382.888 410.528 381.446 409.69Z" fill="#E0E0E0"/>
<path d="M379.584 407.707C380.114 408.015 380.965 408.015 381.495 407.707C382.025 407.399 382.025 406.907 381.495 406.599C380.965 406.291 380.114 406.291 379.584 406.599C379.054 406.907 379.054 407.399 379.584 407.707Z" fill="#F5F5F5"/>
<path d="M383.111 409.604C383.641 409.912 384.491 409.912 385.022 409.604C385.552 409.296 385.552 408.804 385.022 408.496C384.491 408.188 383.641 408.188 383.111 408.496C382.58 408.804 382.58 409.296 383.111 409.604Z" fill="#F5F5F5"/>
<path d="M352.742 463.704C363.719 463.704 372.618 458.57 372.618 452.236C372.618 445.903 363.719 440.768 352.742 440.768C341.765 440.768 332.867 445.903 332.867 452.236C332.867 458.57 341.765 463.704 352.742 463.704Z" fill="#37474F"/>
<path d="M369.498 451.546H369.523V418.067H335.961V451.534H335.986C335.85 454.109 337.466 456.72 340.881 458.691C347.428 462.472 358.056 462.472 364.616 458.691C368.019 456.72 369.646 454.121 369.498 451.546Z" fill="#EBEBEB"/>
<path d="M340.881 424.915C347.428 428.697 358.056 428.697 364.616 424.915C371.163 421.134 371.163 415.012 364.616 411.23C358.069 407.449 347.44 407.449 340.881 411.23C334.334 414.999 334.334 421.134 340.881 424.915Z" fill="#FAFAFA"/>
<path d="M341.609 424.349C347.761 427.822 357.736 427.822 363.889 424.349C370.041 420.875 370.041 415.246 363.889 411.784C357.736 408.311 347.761 408.311 341.609 411.784C335.456 415.258 335.456 420.887 341.609 424.349Z" fill="#EBEBEB"/>
<path d="M363.888 413.41C357.736 409.937 347.761 409.937 341.608 413.41C338.896 414.938 337.391 416.884 337.059 418.88C337.379 420.875 338.896 422.821 341.608 424.349C347.761 427.822 357.736 427.822 363.888 424.349C366.601 422.821 368.105 420.875 368.438 418.88C368.105 416.884 366.601 414.938 363.888 413.41Z" fill="#F5F5F5"/>
<path d="M335.974 445.88C335.949 448.368 337.589 450.869 340.894 452.778C347.441 456.56 358.069 456.56 364.628 452.778C367.908 450.894 369.548 448.405 369.548 445.929V423.523C369.548 425.999 367.908 428.475 364.628 430.372C358.081 434.154 347.453 434.154 340.894 430.372C337.589 428.475 335.962 425.975 335.974 423.474V445.88Z" fill="#FFC727"/>
<path opacity="0.3" d="M335.974 445.88C335.949 448.368 337.589 450.869 340.894 452.778C347.441 456.56 358.069 456.56 364.628 452.778C367.908 450.894 369.548 448.405 369.548 445.929V423.523C369.548 425.999 367.908 428.475 364.628 430.372C358.081 434.154 347.453 434.154 340.894 430.372C337.589 428.475 335.962 425.975 335.974 423.474V445.88Z" fill="black"/>
<path d="M356.577 424.041L354.801 423.018C353.359 422.181 352.964 421.06 353.938 420.493C354.912 419.939 356.86 420.161 358.303 420.986L360.078 422.008C361.521 422.846 361.916 423.967 360.942 424.534C359.98 425.1 358.019 424.866 356.577 424.041Z" fill="#E0E0E0"/>
<path d="M354.715 422.045C355.245 422.353 356.096 422.353 356.626 422.045C357.156 421.737 357.156 421.245 356.626 420.937C356.096 420.629 355.245 420.629 354.715 420.937C354.185 421.245 354.185 421.737 354.715 422.045Z" fill="#F5F5F5"/>
<path d="M358.241 423.955C358.772 424.262 359.622 424.262 360.153 423.955C360.683 423.647 360.683 423.154 360.153 422.846C359.622 422.538 358.772 422.538 358.241 422.846C357.711 423.154 357.711 423.647 358.241 423.955Z" fill="#F5F5F5"/>
<path opacity="0.1" d="M359.622 460.674C353.457 462.263 345.948 461.622 340.893 458.691C337.478 456.732 335.863 454.133 335.998 451.534H335.974V418.067C335.974 420.543 337.614 423.031 340.893 424.915C341.411 425.211 343.643 426.578 347.761 427.305V455.611C347.749 458.408 351.867 461.746 359.622 460.674Z" fill="black"/>
<path d="M313.83 474.692C321.585 479.163 334.174 479.163 341.929 474.692C349.685 470.22 349.685 462.953 341.929 458.481C334.174 454.01 321.585 454.01 313.83 458.481C306.062 462.953 306.062 470.208 313.83 474.692Z" fill="#37474F"/>
<path d="M344.629 465.885H344.654V432.417H311.092V465.885H311.117C310.981 468.459 312.597 471.07 316.012 473.041C322.559 476.823 333.187 476.823 339.747 473.041C343.15 471.07 344.777 468.459 344.629 465.885Z" fill="#EBEBEB"/>
<path d="M327.873 442.099C337.141 442.099 344.654 437.764 344.654 432.417C344.654 427.07 337.141 422.735 327.873 422.735C318.605 422.735 311.092 427.07 311.092 432.417C311.092 437.764 318.605 442.099 327.873 442.099Z" fill="#FAFAFA"/>
<path d="M316.739 438.699C322.892 442.173 332.867 442.173 339.019 438.699C345.172 435.225 345.172 429.596 339.019 426.135C332.867 422.661 322.892 422.661 316.739 426.135C310.587 429.596 310.587 435.225 316.739 438.699Z" fill="#EBEBEB"/>
<path d="M339.019 427.761C332.867 424.287 322.892 424.287 316.739 427.761C314.027 429.288 312.522 431.234 312.189 433.23C312.51 435.225 314.027 437.172 316.739 438.699C322.892 442.173 332.867 442.173 339.019 438.699C341.732 437.172 343.236 435.225 343.569 433.23C343.236 431.234 341.732 429.288 339.019 427.761Z" fill="#F5F5F5"/>
<path d="M311.105 460.231C311.08 462.719 312.72 465.219 316.024 467.129C322.571 470.91 333.2 470.91 339.759 467.129C343.039 465.244 344.679 462.756 344.679 460.28V437.874C344.679 440.35 343.039 442.826 339.759 444.722C333.212 448.504 322.584 448.504 316.024 444.722C312.72 442.826 311.092 440.325 311.105 437.824V460.231Z" fill="#FFC727"/>
<path opacity="0.3" d="M311.105 460.231C311.08 462.719 312.72 465.219 316.024 467.129C322.571 470.91 333.2 470.91 339.759 467.129C343.039 465.244 344.679 462.756 344.679 460.28V437.874C344.679 440.35 343.039 442.826 339.759 444.722C333.212 448.504 322.584 448.504 316.024 444.722C312.72 442.826 311.092 440.325 311.105 437.824V460.231Z" fill="black"/>
<path opacity="0.1" d="M334.753 475.024C328.588 476.613 321.079 475.973 316.024 473.041C312.609 471.083 310.994 468.484 311.129 465.885H311.104V432.417C311.104 434.893 312.744 437.381 316.024 439.266C316.542 439.561 318.774 440.929 322.892 441.655V469.962C322.879 472.758 326.985 476.084 334.753 475.024Z" fill="black"/>
<path d="M331.708 438.379L329.932 437.356C328.49 436.519 328.095 435.398 329.069 434.831C330.043 434.277 331.991 434.499 333.434 435.324L335.209 436.346C336.652 437.184 337.046 438.305 336.072 438.871C335.111 439.438 333.15 439.216 331.708 438.379Z" fill="#E0E0E0"/>
<path d="M330.795 436.617C331.544 436.617 332.152 436.27 332.152 435.841C332.152 435.413 331.544 435.065 330.795 435.065C330.046 435.065 329.439 435.413 329.439 435.841C329.439 436.27 330.046 436.617 330.795 436.617Z" fill="#F5F5F5"/>
<path d="M333.372 438.292C333.902 438.6 334.753 438.6 335.283 438.292C335.814 437.984 335.814 437.492 335.283 437.184C334.753 436.876 333.902 436.876 333.372 437.184C332.842 437.492 332.842 437.984 333.372 438.292Z" fill="#F5F5F5"/>
<path d="M413.085 445.893C420.84 450.364 433.429 450.364 441.184 445.893C448.94 441.421 448.94 434.154 441.184 429.682C433.429 425.211 420.84 425.211 413.085 429.682C405.329 434.154 405.329 441.409 413.085 445.893Z" fill="#37474F"/>
<path d="M443.897 437.085H443.922V403.618H410.36V437.085H410.385C410.249 439.66 411.864 442.271 415.279 444.242C421.827 448.024 432.455 448.024 439.014 444.242C442.417 442.271 444.032 439.672 443.897 437.085Z" fill="#EBEBEB"/>
<path d="M415.279 410.454C421.826 414.236 432.454 414.236 439.014 410.454C445.561 406.673 445.561 400.551 439.014 396.769C432.467 392.988 421.838 392.988 415.279 396.769C408.72 400.551 408.72 406.685 415.279 410.454Z" fill="#FAFAFA"/>
<path d="M416.007 409.9C422.159 413.374 432.134 413.374 438.286 409.9C444.439 406.426 444.439 400.797 438.286 397.336C432.134 393.862 422.159 393.862 416.007 397.336C409.854 400.797 409.854 406.426 416.007 409.9Z" fill="#EBEBEB"/>
<path d="M438.287 398.962C432.134 395.488 422.159 395.488 416.007 398.962C413.294 400.489 411.79 402.435 411.457 404.431C411.778 406.426 413.294 408.373 416.007 409.9C422.159 413.374 432.134 413.374 438.287 409.9C440.999 408.373 442.503 406.426 442.836 404.431C442.503 402.435 440.987 400.489 438.287 398.962Z" fill="#F5F5F5"/>
<path d="M410.36 431.432C410.335 433.92 411.975 436.42 415.279 438.33C421.826 442.111 432.455 442.111 439.014 438.33C442.294 436.445 443.934 433.957 443.934 431.481V409.075C443.934 411.551 442.294 414.027 439.014 415.924C432.467 419.705 421.839 419.705 415.279 415.924C411.975 414.027 410.347 411.526 410.36 409.026V431.432Z" fill="#FFC727"/>
<path opacity="0.3" d="M410.36 431.432C410.335 433.92 411.975 436.42 415.279 438.33C421.826 442.111 432.455 442.111 439.014 438.33C442.294 436.445 443.934 433.957 443.934 431.481V409.075C443.934 411.551 442.294 414.027 439.014 415.924C432.467 419.705 421.839 419.705 415.279 415.924C411.975 414.027 410.347 411.526 410.36 409.026V431.432Z" fill="black"/>
<path opacity="0.1" d="M434.008 446.225C427.843 447.814 420.335 447.174 415.279 444.242C411.864 442.284 410.249 439.684 410.385 437.085H410.36V403.618C410.36 406.094 412 408.582 415.279 410.467C415.797 410.762 418.029 412.13 422.147 412.856V441.163C422.147 443.959 426.253 447.285 434.008 446.225Z" fill="black"/>
<path d="M430.975 409.58L429.2 408.558C427.757 407.72 427.363 406.599 428.337 406.032C429.311 405.478 431.259 405.7 432.701 406.525L434.477 407.547C435.919 408.385 436.314 409.506 435.34 410.073C434.378 410.639 432.418 410.418 430.975 409.58Z" fill="#E0E0E0"/>
<path d="M429.113 407.597C429.644 407.905 430.494 407.905 431.025 407.597C431.555 407.289 431.555 406.796 431.025 406.488C430.494 406.18 429.644 406.18 429.113 406.488C428.583 406.796 428.583 407.289 429.113 407.597Z" fill="#F5F5F5"/>
<path d="M432.64 409.494C433.17 409.802 434.021 409.802 434.551 409.494C435.081 409.186 435.081 408.693 434.551 408.385C434.021 408.077 433.17 408.077 432.64 408.385C432.11 408.705 432.11 409.198 432.64 409.494Z" fill="#F5F5F5"/>
<path d="M402.272 463.593C413.249 463.593 422.147 458.459 422.147 452.126C422.147 445.792 413.249 440.658 402.272 440.658C391.295 440.658 382.396 445.792 382.396 452.126C382.396 458.459 391.295 463.593 402.272 463.593Z" fill="#37474F"/>
<path d="M419.028 451.436H419.053V417.968H385.491V451.436H385.516C385.38 454.01 386.995 456.622 390.411 458.592C396.958 462.374 407.586 462.374 414.146 458.592C417.549 456.622 419.164 454.01 419.028 451.436Z" fill="#EBEBEB"/>
<path d="M390.411 424.805C396.958 428.586 407.586 428.586 414.146 424.805C420.693 421.023 420.693 414.901 414.146 411.12C407.599 407.338 396.97 407.338 390.411 411.12C383.851 414.901 383.851 421.023 390.411 424.805Z" fill="#FAFAFA"/>
<path d="M391.138 424.25C397.29 427.724 407.265 427.724 413.418 424.25C419.57 420.777 419.57 415.148 413.418 411.686C407.265 408.213 397.29 408.213 391.138 411.686C384.985 415.148 384.985 420.777 391.138 424.25Z" fill="#EBEBEB"/>
<path d="M413.418 413.3C407.265 409.826 397.291 409.826 391.138 413.3C388.426 414.827 386.921 416.773 386.588 418.769C386.909 420.764 388.426 422.711 391.138 424.238C397.291 427.712 407.265 427.712 413.418 424.238C416.131 422.711 417.635 420.764 417.968 418.769C417.635 416.773 416.118 414.827 413.418 413.3Z" fill="#F5F5F5"/>
<path d="M385.491 445.77C385.466 448.258 387.106 450.758 390.411 452.668C396.958 456.449 407.586 456.449 414.145 452.668C417.425 450.783 419.065 448.295 419.065 445.819V423.413C419.065 425.889 417.425 428.365 414.145 430.261C407.598 434.043 396.97 434.043 390.411 430.261C387.106 428.365 385.479 425.864 385.491 423.364V445.77Z" fill="#FFC727"/>
<path opacity="0.3" d="M385.491 445.77C385.466 448.258 387.106 450.758 390.411 452.668C396.958 456.449 407.586 456.449 414.145 452.668C417.425 450.783 419.065 448.295 419.065 445.819V423.413C419.065 425.889 417.425 428.365 414.145 430.261C407.598 434.043 396.97 434.043 390.411 430.261C387.106 428.365 385.479 425.864 385.491 423.364V445.77Z" fill="black"/>
<path opacity="0.1" d="M409.14 460.563C402.975 462.152 395.466 461.512 390.411 458.58C386.995 456.622 385.38 454.023 385.516 451.424H385.491V417.956C385.491 420.432 387.131 422.92 390.411 424.805C390.929 425.1 393.16 426.468 397.278 427.194V455.501C397.278 458.297 401.384 461.635 409.14 460.563Z" fill="black"/>
<path d="M406.107 423.93L404.331 422.908C402.888 422.07 402.494 420.949 403.468 420.383C404.442 419.828 406.39 420.05 407.833 420.875L409.608 421.898C411.051 422.735 411.445 423.856 410.471 424.423C409.51 424.99 407.549 424.768 406.107 423.93Z" fill="#E0E0E0"/>
<path d="M404.245 421.935C404.775 422.243 405.626 422.243 406.156 421.935C406.686 421.627 406.686 421.134 406.156 420.826C405.626 420.518 404.775 420.518 404.245 420.826C403.715 421.134 403.715 421.639 404.245 421.935Z" fill="#F5F5F5"/>
<path d="M407.771 423.844C408.301 424.152 409.152 424.152 409.682 423.844C410.212 423.536 410.212 423.043 409.682 422.735C409.152 422.427 408.301 422.427 407.771 422.735C407.241 423.043 407.241 423.536 407.771 423.844Z" fill="#F5F5F5"/>
<path d="M363.346 474.581C371.102 479.052 383.691 479.052 391.446 474.581C399.201 470.109 399.201 462.842 391.446 458.371C383.691 453.899 371.102 453.899 363.346 458.371C355.591 462.842 355.591 470.097 363.346 474.581Z" fill="#37474F"/>
<path d="M394.159 465.774H394.183V432.306H360.622V465.774H360.646C360.511 468.348 362.126 470.959 365.541 472.93C372.088 476.712 382.717 476.712 389.276 472.93C392.679 470.959 394.294 468.36 394.159 465.774Z" fill="#EBEBEB"/>
<path d="M365.541 439.143C372.088 442.924 382.716 442.924 389.276 439.143C395.823 435.361 395.823 429.239 389.276 425.458C382.728 421.676 372.1 421.676 365.541 425.458C358.981 429.239 358.981 435.373 365.541 439.143Z" fill="#FAFAFA"/>
<path d="M366.268 438.588C372.421 442.062 382.396 442.062 388.548 438.588C394.701 435.115 394.701 429.485 388.548 426.024C382.396 422.551 372.421 422.551 366.268 426.024C360.116 429.485 360.116 435.115 366.268 438.588Z" fill="#EBEBEB"/>
<path d="M388.548 427.65C382.396 424.177 372.421 424.177 366.268 427.65C363.556 429.178 362.052 431.124 361.719 433.119C362.039 435.115 363.556 437.061 366.268 438.588C372.421 442.062 382.396 442.062 388.548 438.588C391.261 437.061 392.765 435.115 393.098 433.119C392.765 431.124 391.249 429.178 388.548 427.65Z" fill="#F5F5F5"/>
<path d="M360.621 460.12C360.597 462.608 362.237 465.109 365.541 467.018C372.088 470.8 382.716 470.8 389.276 467.018C392.556 465.133 394.195 462.645 394.195 460.169V437.763C394.195 440.239 392.556 442.715 389.276 444.612C382.729 448.393 372.1 448.393 365.541 444.612C362.237 442.715 360.609 440.214 360.621 437.714V460.12Z" fill="#FFC727"/>
<path opacity="0.3" d="M360.621 460.12C360.597 462.608 362.237 465.109 365.541 467.018C372.088 470.8 382.716 470.8 389.276 467.018C392.556 465.133 394.195 462.645 394.195 460.169V437.763C394.195 440.239 392.556 442.715 389.276 444.612C382.729 448.393 372.1 448.393 365.541 444.612C362.237 442.715 360.609 440.214 360.621 437.714V460.12Z" fill="black"/>
<path d="M381.237 438.28L379.461 437.258C378.019 436.42 377.624 435.299 378.598 434.733C379.572 434.179 381.521 434.4 382.963 435.226L384.739 436.248C386.181 437.086 386.576 438.206 385.602 438.773C384.64 439.327 382.68 439.106 381.237 438.28Z" fill="#E0E0E0"/>
<path d="M379.375 436.285C379.905 436.593 380.756 436.593 381.286 436.285C381.816 435.977 381.816 435.484 381.286 435.176C380.756 434.868 379.905 434.868 379.375 435.176C378.845 435.484 378.845 435.977 379.375 436.285Z" fill="#F5F5F5"/>
<path d="M382.902 438.182C383.432 438.49 384.283 438.49 384.813 438.182C385.343 437.874 385.343 437.381 384.813 437.073C384.283 436.765 383.432 436.765 382.902 437.073C382.371 437.394 382.371 437.886 382.902 438.182Z" fill="#F5F5F5"/>
<path opacity="0.1" d="M384.282 474.913C378.117 476.502 370.609 475.862 365.553 472.93C362.138 470.972 360.523 468.373 360.658 465.774H360.634V432.306C360.634 434.782 362.274 437.27 365.553 439.155C366.071 439.45 368.303 440.818 372.421 441.545V469.851C372.409 472.647 376.515 475.985 384.282 474.913Z" fill="black"/>
<path d="M338.477 488.919C346.233 493.39 358.821 493.39 366.577 488.919C374.332 484.448 374.332 477.18 366.577 472.709C358.821 468.237 346.233 468.237 338.477 472.709C330.722 477.192 330.722 484.448 338.477 488.919Z" fill="#37474F"/>
<path d="M369.289 480.124H369.314V446.644H335.752V480.112H335.777C335.641 482.686 337.257 485.298 340.672 487.268C347.219 491.05 357.847 491.05 364.407 487.268C367.81 485.31 369.425 482.699 369.289 480.124Z" fill="#EBEBEB"/>
<path d="M340.672 453.493C347.219 457.275 357.847 457.275 364.406 453.493C370.954 449.711 370.954 443.589 364.406 439.808C357.859 436.026 347.231 436.026 340.672 439.808C334.112 443.589 334.112 449.711 340.672 453.493Z" fill="#FAFAFA"/>
<path d="M341.399 452.939C347.552 456.412 357.526 456.412 363.679 452.939C369.832 449.465 369.832 443.836 363.679 440.375C357.526 436.901 347.552 436.901 341.399 440.375C335.247 443.836 335.247 449.465 341.399 452.939Z" fill="#EBEBEB"/>
<path d="M363.679 441.988C357.527 438.514 347.552 438.514 341.399 441.988C338.687 443.515 337.183 445.462 336.85 447.457C337.17 449.453 338.687 451.399 341.399 452.926C347.552 456.4 357.527 456.4 363.679 452.926C366.392 451.399 367.896 449.453 368.229 447.457C367.896 445.462 366.379 443.515 363.679 441.988Z" fill="#F5F5F5"/>
<path d="M335.752 474.47C335.728 476.959 337.367 479.459 340.672 481.368C347.219 485.15 357.847 485.15 364.407 481.368C367.686 479.484 369.326 476.995 369.326 474.52V452.113C369.326 454.589 367.686 457.065 364.407 458.962C357.86 462.744 347.231 462.744 340.672 458.962C337.367 457.065 335.74 454.565 335.752 452.064V474.47Z" fill="#FFC727"/>
<path opacity="0.3" d="M335.752 474.47C335.728 476.959 337.367 479.459 340.672 481.368C347.219 485.15 357.847 485.15 364.407 481.368C367.686 479.484 369.326 476.995 369.326 474.52V452.113C369.326 454.589 367.686 457.065 364.407 458.962C357.86 462.744 347.231 462.744 340.672 458.962C337.367 457.065 335.74 454.565 335.752 452.064V474.47Z" fill="black"/>
<path opacity="0.1" d="M359.401 489.252C353.236 490.841 345.727 490.2 340.672 487.268C337.257 485.31 335.641 482.711 335.777 480.112H335.752V446.644C335.752 449.12 337.392 451.608 340.672 453.493C341.19 453.789 343.422 455.156 347.54 455.883V484.189C347.54 486.985 351.646 490.323 359.401 489.252Z" fill="black"/>
<path d="M356.368 452.618L354.592 451.596C353.15 450.758 352.755 449.638 353.729 449.071C354.703 448.517 356.651 448.738 358.094 449.564L359.869 450.586C361.312 451.424 361.707 452.545 360.733 453.111C359.771 453.678 357.81 453.456 356.368 452.618Z" fill="#E0E0E0"/>
<path d="M355.455 450.857C356.204 450.857 356.812 450.51 356.812 450.081C356.812 449.652 356.204 449.305 355.455 449.305C354.706 449.305 354.099 449.652 354.099 450.081C354.099 450.51 354.706 450.857 355.455 450.857Z" fill="#F5F5F5"/>
<path d="M358.032 452.532C358.563 452.84 359.413 452.84 359.944 452.532C360.474 452.224 360.474 451.732 359.944 451.424C359.413 451.116 358.563 451.116 358.032 451.424C357.502 451.732 357.502 452.224 358.032 452.532Z" fill="#F5F5F5"/>
<path d="M32.1929 474.901L116.763 426.123L223.095 487.453L138.525 536.232L32.1929 474.901Z" fill="black"/>
<path d="M116.763 426.123V342.706L30.479 392.47L102.67 434.252L116.763 426.123Z" fill="#37474F"/>
<path d="M116.763 342.706V426.123L152.618 446.804L224.809 405.022L116.763 342.706Z" fill="#263238"/>
<path d="M30.479 392.47V473.916L138.525 536.231V454.934L30.479 392.47Z" fill="#263238"/>
<path d="M138.525 454.934V536.231L224.809 486.455V405.022L138.525 454.934Z" fill="#37474F"/>
<path d="M138.525 454.934L140.226 533.127L202.899 499.106L138.525 536.231V454.934Z" fill="#455A64"/>
<path d="M148.845 510.081C148.525 510.081 148.229 510.007 147.957 509.847C147.255 509.44 146.848 508.553 146.848 507.408V500.202V500.19V499.66L147.218 499.721L152.865 496.408V504.451C152.865 506.496 151.644 508.812 150.078 509.711C149.659 509.958 149.24 510.081 148.845 510.081ZM147.76 500.732V507.395C147.76 508.208 147.994 508.812 148.414 509.058C148.82 509.292 149.301 509.108 149.634 508.923C150.892 508.196 151.965 506.139 151.965 504.451V503.86H149.868L149.462 501.039L147.76 500.732ZM150.658 502.949H151.965V497.972L148.586 499.955L150.251 500.251L150.658 502.949Z" fill="#E0E0E0"/>
<path d="M149.856 515.821C149.61 515.821 149.4 515.624 149.4 515.365V509.317C149.4 509.071 149.597 508.861 149.856 508.861C150.103 508.861 150.312 509.058 150.312 509.317V515.365C150.312 515.612 150.115 515.821 149.856 515.821Z" fill="#E0E0E0"/>
<path d="M147.23 517.336C147.069 517.336 146.922 517.25 146.835 517.114C146.712 516.892 146.786 516.622 146.996 516.498L152.26 513.468C152.47 513.333 152.754 513.407 152.877 513.628C153 513.85 152.926 514.121 152.717 514.244L147.452 517.274C147.39 517.311 147.304 517.336 147.23 517.336Z" fill="#E0E0E0"/>
<path d="M165.983 506.915C165.811 506.915 165.638 506.878 165.49 506.792C165.145 506.595 164.948 506.201 164.948 505.708V504.464C164.948 504.218 165.145 504.008 165.404 504.008C165.663 504.008 165.86 504.205 165.86 504.464V505.708C165.86 505.893 165.909 505.992 165.946 506.016C165.983 506.041 166.094 506.028 166.242 505.942C166.637 505.708 167.081 504.809 167.081 503.897V495.854C167.081 495.608 167.278 495.398 167.537 495.398C167.784 495.398 167.993 495.595 167.993 495.854V503.897C167.993 505.08 167.438 506.287 166.711 506.718C166.464 506.841 166.218 506.915 165.983 506.915Z" fill="#E0E0E0"/>
<path d="M161.212 499.882V499.093C161.212 495.398 163.813 490.902 167.007 489.054C168.647 488.118 170.213 487.97 171.396 488.66C172.592 489.35 173.258 490.767 173.258 492.651V492.91L161.212 499.882ZM169.719 489.141C169.029 489.141 168.265 489.375 167.463 489.843C164.751 491.407 162.494 495.053 162.161 498.28L172.346 492.405C172.296 490.988 171.803 489.941 170.94 489.449C170.595 489.252 170.176 489.141 169.719 489.141Z" fill="#E0E0E0"/>
<path d="M182.271 497.64C182.025 497.64 181.815 497.443 181.815 497.184V481.775C181.815 481.528 182.012 481.319 182.271 481.319C182.53 481.319 182.727 481.516 182.727 481.775V497.184C182.715 497.443 182.518 497.64 182.271 497.64Z" fill="#E0E0E0"/>
<path d="M180.94 485.297C180.878 485.297 180.816 485.285 180.755 485.26C180.52 485.162 180.422 484.891 180.52 484.669L182.136 480.949L183.936 483.031C184.096 483.216 184.084 483.499 183.886 483.671C183.689 483.832 183.406 483.819 183.245 483.622L182.395 482.637L181.359 485.039C181.285 485.187 181.112 485.297 180.94 485.297Z" fill="#E0E0E0"/>
<path d="M186.463 495.25C186.216 495.25 186.007 495.053 186.007 494.795V479.385C186.007 479.139 186.204 478.929 186.463 478.929C186.71 478.929 186.919 479.126 186.919 479.385V494.795C186.907 495.053 186.71 495.25 186.463 495.25Z" fill="#E0E0E0"/>
<path d="M185.132 482.908C185.07 482.908 185.008 482.895 184.947 482.871C184.712 482.772 184.614 482.501 184.712 482.28L186.328 478.56L188.128 480.641C188.288 480.826 188.276 481.109 188.078 481.282C187.881 481.442 187.598 481.43 187.437 481.233L186.586 480.247L185.551 482.649C185.477 482.797 185.304 482.908 185.132 482.908Z" fill="#E0E0E0"/>
<path d="M48.9739 450.29L72.5238 463.877C73.1033 464.209 73.5841 465.047 73.5841 465.712V482.07C73.5841 483.413 72.6347 483.967 71.4634 483.29L47.9135 469.703C47.334 469.37 46.8531 468.545 46.8531 467.868V451.51C46.8408 450.167 47.8025 449.613 48.9739 450.29Z" fill="#FAFAFA"/>
<path d="M48.3818 452.828L49.1833 453.296V467.732L48.3818 467.264V452.828Z" fill="#455A64"/>
<path d="M51.6494 454.712L53.0303 455.525V469.962L51.6494 469.149V454.712Z" fill="#455A64"/>
<path d="M54.9043 456.584L55.7057 457.053V471.489L54.9043 471.033V456.584Z" fill="#455A64"/>
<path d="M57.3701 457.989L58.973 458.937V473.374L57.3701 472.425V457.989Z" fill="#455A64"/>
<path d="M61.4268 460.354L62.2282 460.81V475.246L61.4268 474.79V460.354Z" fill="#455A64"/>
<path d="M63.7817 461.672L65.4956 462.694V477.131L63.7817 476.108V461.672Z" fill="#455A64"/>
<path d="M67.9492 464.111L68.7507 464.579V479.015L67.9492 478.547V464.111Z" fill="#455A64"/>
<path d="M69.811 465.17L70.2179 465.404V479.841L69.811 479.607V465.17Z" fill="#455A64"/>
<path d="M66.4697 463.323L66.8643 463.557V477.993L66.4697 477.759V463.323Z" fill="#455A64"/>
<path d="M59.8979 459.479L60.2925 459.713V474.15L59.8979 473.916V459.479Z" fill="#455A64"/>
<path d="M56.2974 457.422L56.7042 457.644L56.6919 472.08L56.2974 471.859V457.422Z" fill="#455A64"/>
<path d="M53.7085 455.993L54.1154 456.227V470.664L53.7085 470.43V455.993Z" fill="#455A64"/>
<path d="M50.2065 453.862L50.6134 454.096V468.533L50.2065 468.299V453.862Z" fill="#455A64"/>
<path d="M71.2168 465.995L72.0182 466.451V480.888L71.2168 480.432V465.995Z" fill="#455A64"/>
<path d="M116.763 342.706L30.479 392.47L138.525 454.934L224.809 405.022L116.763 342.706Z" fill="#455A64"/>
<path opacity="0.1" d="M30.479 392.47L138.525 451.842L224.809 405.022L138.525 454.934L30.479 392.47Z" fill="white"/>
<path d="M66.2847 371.813L174.392 434.178L187.684 426.492L79.5885 364.152L66.2847 371.813Z" fill="#FFC727"/>
<path d="M187.684 426.492V443.368L186.081 442.456L184.404 445.326L182.739 444.353L181.075 447.26L179.398 446.275L177.733 449.157L176.057 448.209L174.392 451.091V434.179L187.684 426.492Z" fill="#FFC727"/>
<path opacity="0.25" d="M187.684 426.492V443.368L186.081 442.456L184.404 445.326L182.739 444.353L181.075 447.26L179.398 446.275L177.733 449.157L176.057 448.209L174.392 451.091V434.179L187.684 426.492Z" fill="black"/>
<path opacity="0.1" d="M112.583 348.102L37.3345 391.51L132.015 446.299L207.264 402.756L112.583 348.102Z" fill="black"/>
<path d="M51.6494 393.641L114.544 357.266L194.502 403.409L131.608 439.685L51.6494 393.641Z" fill="black"/>
<path d="M114.544 349.543V277.853L50.1821 314.979L112.497 350.959L114.544 349.543Z" fill="#37474F"/>
<path d="M114.543 277.853V349.543L133.852 360.703L195.969 324.747L114.543 277.853Z" fill="#263238"/>
<path d="M50.1821 314.979V392.791L131.608 439.685V361.996L50.1821 314.979Z" fill="#263238"/>
<path d="M131.608 361.996V439.685L195.969 402.559V324.747L131.608 361.996Z" fill="#37474F"/>
<path d="M131.608 361.996L133.075 437.012L186.993 407.732L131.608 439.685V361.996Z" fill="#455A64"/>
<path d="M140.485 417.18C140.214 417.18 139.955 417.118 139.721 416.983C139.117 416.638 138.771 415.862 138.771 414.876V408.68V408.668V408.212L139.092 408.274L143.962 405.416V412.339C143.962 414.1 142.914 416.083 141.57 416.86C141.188 417.069 140.831 417.18 140.485 417.18ZM139.548 409.136V414.876C139.548 415.578 139.758 416.096 140.115 416.305C140.473 416.502 140.88 416.354 141.176 416.194C142.261 415.566 143.186 413.805 143.186 412.339V411.834H141.385L141.028 409.407L139.548 409.136ZM142.051 411.046H143.173V406.771L140.276 408.471L141.718 408.73L142.051 411.046Z" fill="#E0E0E0"/>
<path d="M141.361 422.119C141.151 422.119 140.966 421.947 140.966 421.725V416.515C140.966 416.305 141.139 416.12 141.361 416.12C141.57 416.12 141.755 416.293 141.755 416.515V421.725C141.755 421.947 141.583 422.119 141.361 422.119Z" fill="#E0E0E0"/>
<path d="M139.092 423.425C138.957 423.425 138.821 423.351 138.759 423.228C138.648 423.043 138.71 422.809 138.907 422.698L143.445 420.087C143.63 419.976 143.864 420.037 143.975 420.235C144.086 420.419 144.024 420.653 143.827 420.764L139.29 423.376C139.228 423.413 139.166 423.425 139.092 423.425Z" fill="#E0E0E0"/>
<path d="M155.244 414.458C155.096 414.458 154.948 414.421 154.813 414.347C154.517 414.174 154.344 413.829 154.344 413.411V412.339C154.344 412.13 154.517 411.945 154.739 411.945C154.948 411.945 155.133 412.117 155.133 412.339V413.411C155.133 413.571 155.183 413.657 155.207 413.669C155.244 413.682 155.331 413.682 155.466 413.608C155.811 413.411 156.194 412.635 156.194 411.846V404.924C156.194 404.714 156.366 404.53 156.588 404.53C156.798 404.53 156.983 404.702 156.983 404.924V411.846C156.983 412.856 156.502 413.903 155.873 414.273C155.651 414.396 155.442 414.458 155.244 414.458Z" fill="#E0E0E0"/>
<path d="M151.126 408.41V407.732C151.126 404.554 153.358 400.686 156.12 399.097C157.525 398.284 158.869 398.174 159.905 398.765C160.94 399.356 161.508 400.575 161.508 402.201V402.423L151.126 408.41ZM158.45 399.159C157.858 399.159 157.192 399.356 156.502 399.763C154.159 401.105 152.223 404.246 151.94 407.03L160.706 401.967C160.657 400.748 160.238 399.849 159.498 399.43C159.202 399.257 158.844 399.159 158.45 399.159Z" fill="#E0E0E0"/>
<path d="M169.251 406.476C169.041 406.476 168.856 406.303 168.856 406.081V392.815C168.856 392.606 169.029 392.421 169.251 392.421C169.461 392.421 169.646 392.593 169.646 392.815V406.081C169.633 406.303 169.461 406.476 169.251 406.476Z" fill="#E0E0E0"/>
<path d="M168.104 395.845C168.055 395.845 168.006 395.833 167.944 395.808C167.747 395.722 167.66 395.488 167.747 395.291L169.14 392.088L170.694 393.874C170.842 394.035 170.817 394.281 170.657 394.429C170.484 394.564 170.25 394.552 170.102 394.392L169.362 393.542L168.462 395.611C168.4 395.759 168.252 395.845 168.104 395.845Z" fill="#E0E0E0"/>
<path d="M172.852 404.419C172.642 404.419 172.457 404.246 172.457 404.024V390.758C172.457 390.549 172.63 390.364 172.852 390.364C173.061 390.364 173.246 390.536 173.246 390.758V404.024C173.246 404.246 173.074 404.419 172.852 404.419Z" fill="#E0E0E0"/>
<path d="M171.717 393.801C171.668 393.801 171.619 393.788 171.557 393.764C171.36 393.677 171.273 393.443 171.36 393.246L172.753 390.044L174.306 391.83C174.454 391.99 174.43 392.236 174.269 392.384C174.097 392.52 173.863 392.507 173.715 392.347L172.975 391.497L172.075 393.567C172.013 393.702 171.865 393.801 171.717 393.801Z" fill="#E0E0E0"/>
<path d="M114.544 277.853L50.1821 314.979L131.608 361.996L195.97 324.747L114.544 277.853Z" fill="#455A64"/>
<path opacity="0.1" d="M50.1821 314.979L131.3 359.225L195.97 324.747L131.608 361.996L50.1821 314.979Z" fill="white"/>
<path d="M78.7871 298.473L160.275 345.416L171.704 338.802L90.2292 291.883L78.7871 298.473Z" fill="#FFC727"/>
<path d="M171.705 338.802V353.324L170.324 352.536L168.893 355.012L167.451 354.162L166.021 356.675L164.578 355.825L163.148 358.301L161.705 357.488L160.275 359.964V345.416L171.705 338.802Z" fill="#FFC727"/>
<path opacity="0.25" d="M171.705 338.802V353.324L170.324 352.536L168.893 355.012L167.451 354.162L166.021 356.675L164.578 355.825L163.148 358.301L161.705 357.488L160.275 359.964V345.416L171.705 338.802Z" fill="black"/>
<path d="M63.3629 373.87L86.9128 387.457C87.4923 387.79 87.9732 388.627 87.9732 389.292V405.65C87.9732 406.993 87.0238 407.547 85.8524 406.87L62.3026 393.283C61.7231 392.951 61.2422 392.113 61.2422 391.448V375.09C61.2422 373.747 62.2039 373.205 63.3629 373.87Z" fill="#FAFAFA"/>
<path d="M62.7832 376.42L63.5846 376.888V391.325L62.7832 390.857V376.42Z" fill="#455A64"/>
<path d="M66.0381 378.305L67.419 379.118V393.554L66.0381 392.741V378.305Z" fill="#455A64"/>
<path d="M69.3057 380.177L70.1071 380.645V395.082L69.3057 394.613V380.177Z" fill="#455A64"/>
<path d="M71.7593 381.569L73.3745 382.53V396.966L71.7593 396.006V381.569Z" fill="#455A64"/>
<path d="M75.8281 383.946L76.6296 384.402V398.839L75.8281 398.383V383.946Z" fill="#455A64"/>
<path d="M78.1831 385.264L79.897 386.287V400.723L78.1831 399.701V385.264Z" fill="#455A64"/>
<path d="M82.3506 387.703L83.152 388.171V402.608L82.3506 402.14V387.703Z" fill="#455A64"/>
<path d="M84.2124 388.763L84.6193 388.997V403.433L84.2124 403.199V388.763Z" fill="#455A64"/>
<path d="M80.8711 386.915L81.2657 387.149V401.586L80.8711 401.352V386.915Z" fill="#455A64"/>
<path d="M74.2993 383.072L74.6939 383.306V397.742L74.2993 397.508V383.072Z" fill="#455A64"/>
<path d="M70.6987 381.015L71.0933 381.236V395.673L70.6987 395.451V381.015Z" fill="#455A64"/>
<path d="M68.1099 379.586L68.5167 379.82V394.256L68.1099 394.022V379.586Z" fill="#455A64"/>
<path d="M64.6079 377.455L65.0025 377.689V392.125L64.6079 391.891V377.455Z" fill="#455A64"/>
<path d="M85.6182 389.588L86.4196 390.044V404.48L85.6182 404.024V389.588Z" fill="#455A64"/>
<path d="M231.862 174.888L42.5381 284.086V110.503L231.862 1.30566V174.888Z" fill="white"/>
<path d="M42.5379 285.392C42.316 285.392 42.0817 285.33 41.8844 285.219C41.4776 284.985 41.231 284.554 41.231 284.086V110.503C41.231 110.035 41.4776 109.604 41.8844 109.37L231.208 0.172477C231.615 -0.0615614 232.108 -0.0615614 232.515 0.172477C232.922 0.406516 233.169 0.837639 233.169 1.2934V174.876C233.169 175.344 232.922 175.775 232.515 176.009L43.1914 285.219C42.9818 285.33 42.7599 285.392 42.5379 285.392ZM43.8325 111.255V281.832L230.555 174.137V3.55988L43.8325 111.255Z" fill="#E0E0E0"/>
<path d="M145.553 68.9059L141.275 71.3694V173.201L145.553 170.737V68.9059ZM65.0889 253.648L67.222 252.417V114.014L65.0766 115.245V253.648H65.0889ZM75.8775 109.111L71.599 111.575V213.406L75.8775 210.943V109.111ZM99.8342 216.498C99.2301 216.03 98.5273 215.833 97.7135 215.882C96.8998 215.944 96.0367 216.239 95.1119 216.769C94.0762 217.373 93.2625 218.025 92.683 218.74C92.1035 219.454 91.7212 219.972 91.5363 220.28L92.1158 210.314L100.069 205.72C100.475 205.486 100.685 205.055 100.685 204.426V203.749C100.685 203.121 100.475 202.924 100.069 203.158L91.0308 208.368C90.6609 208.578 90.4636 209.021 90.4143 209.699L89.5882 224.123C89.5759 224.394 89.6252 224.578 89.7608 224.689C89.8841 224.8 90.0444 224.8 90.2047 224.702L90.7102 224.418C91.0061 224.246 91.265 223.963 91.4993 223.556C91.7336 223.15 91.9925 222.706 92.3007 222.213C92.609 221.721 92.9789 221.228 93.4104 220.698C93.842 220.181 94.4091 219.713 95.1119 219.306C95.8024 218.912 96.4436 218.703 97.0354 218.666C97.6395 218.629 98.1574 218.789 98.6013 219.134C99.0451 219.467 99.4027 219.996 99.6493 220.723C99.9082 221.45 100.044 222.361 100.044 223.47C100.044 224.665 99.9206 225.798 99.6493 226.87C99.3904 227.941 99.0451 228.927 98.6013 229.801C98.1574 230.688 97.6395 231.464 97.0354 232.129C96.4436 232.794 95.7901 233.336 95.1119 233.731C94.6064 234.014 94.1256 234.211 93.6324 234.31C93.1392 234.408 92.6953 234.371 92.2761 234.199C91.8569 234.026 91.4993 233.694 91.1911 233.226C90.8828 232.745 90.6609 232.08 90.5129 231.23C90.4389 230.848 90.3403 230.626 90.217 230.59C90.0937 230.54 89.9704 230.565 89.8225 230.651L89.2923 230.959C89.1197 231.058 88.984 231.205 88.8731 231.415C88.7621 231.624 88.7128 231.846 88.7374 232.092C88.7498 233.078 88.91 233.952 89.206 234.716C89.5019 235.492 89.9088 236.083 90.4513 236.502C90.9815 236.933 91.6473 237.155 92.4117 237.155C93.1885 237.167 94.0886 236.872 95.0996 236.293C96.0243 235.763 96.8874 235.049 97.7012 234.174C98.515 233.287 99.2178 232.252 99.8219 231.07C100.426 229.887 100.895 228.582 101.252 227.141C101.597 225.699 101.782 224.135 101.782 222.472C101.782 220.908 101.61 219.639 101.252 218.654C100.907 217.68 100.426 216.954 99.8342 216.498ZM84.1754 215.044C83.6206 214.429 82.9301 214.059 82.104 213.96C81.2902 213.85 80.3162 214.108 79.2065 214.749C78.0968 215.389 77.1351 216.239 76.309 217.299C75.4829 218.358 74.8048 219.504 74.2623 220.76C73.7074 222.016 73.3005 223.297 73.0416 224.615C72.7704 225.946 72.6347 227.202 72.6347 228.385C72.6347 229.579 72.7704 230.688 73.0416 231.698C73.3129 232.721 73.7197 233.521 74.2623 234.137C74.8048 234.741 75.4829 235.11 76.309 235.221C77.1351 235.32 78.0968 235.061 79.2065 234.42C79.8477 234.051 80.4518 233.583 81.0067 233.041L76.6296 245.038C76.5926 245.112 76.5679 245.211 76.5309 245.309C76.5063 245.408 76.494 245.531 76.494 245.667C76.494 245.925 76.5433 246.11 76.6419 246.245C76.7405 246.369 76.8762 246.381 77.0488 246.295L77.6036 245.975C77.8626 245.827 78.0475 245.605 78.1585 245.334C78.2694 245.063 78.3681 244.829 78.4667 244.632L84.1754 228.927C84.348 228.483 84.5206 227.978 84.7056 227.387C84.8905 226.796 85.0632 226.155 85.2358 225.465C85.4084 224.763 85.544 224.036 85.655 223.26C85.766 222.484 85.8276 221.671 85.8276 220.809C85.8276 219.614 85.692 218.518 85.4207 217.496C85.1495 216.486 84.7302 215.673 84.1754 215.044ZM83.6822 225.034C83.4233 226.081 83.0781 227.042 82.6342 227.917C82.1903 228.803 81.6725 229.579 81.0806 230.257C80.4888 230.934 79.8723 231.464 79.2188 231.834C78.5777 232.203 77.9612 232.388 77.3694 232.388C76.7899 232.388 76.272 232.191 75.8281 231.821C75.3843 231.452 75.0267 230.897 74.7678 230.146C74.5089 229.395 74.3856 228.471 74.3856 227.362C74.3856 226.254 74.5089 225.17 74.7678 224.123C75.0267 223.063 75.3843 222.09 75.8281 221.203C76.272 220.316 76.7899 219.54 77.3694 218.863C77.9489 218.185 78.5654 217.656 79.2188 217.286C79.86 216.917 80.4888 216.732 81.0806 216.72C81.6725 216.72 82.1903 216.904 82.6342 217.274C83.0781 217.644 83.4356 218.21 83.6822 218.974C83.9411 219.725 84.0768 220.661 84.0768 221.77C84.0644 222.916 83.9411 223.987 83.6822 225.034ZM100.056 197.467L102.189 196.235V94.4038L100.044 95.6355L100.056 197.467ZM60.2433 256.432L62.3763 255.201V116.798L60.231 118.029V256.432H60.2433ZM110.709 89.0086L106.431 91.4721V193.291L110.709 190.828V89.0086ZM115.999 86.0892L113.853 87.321V189.152L115.986 187.921L115.999 86.0892ZM83.4849 104.64L81.3396 105.872V207.691L83.4726 206.459L83.4849 104.64ZM96.3942 97.3477L89.021 101.523V203.343L96.3942 199.167V97.3477ZM193.43 41.1908L191.284 42.4226V144.254L193.417 143.022L193.43 41.1908ZM187.524 152.704L176.821 158.875C176.415 159.109 176.217 159.553 176.217 160.206V160.846C176.217 161.474 176.427 161.671 176.821 161.437L186.278 155.981L179.152 186.061C179.115 186.258 179.09 186.393 179.09 186.479C179.09 186.738 179.139 186.923 179.25 187.046C179.349 187.169 179.485 187.194 179.645 187.095L180.224 186.763C180.434 186.64 180.582 186.43 180.681 186.135C180.779 185.827 180.866 185.543 180.952 185.272L187.968 155.648C188.042 155.315 188.091 155.044 188.116 154.81C188.153 154.576 188.165 154.293 188.165 153.96V153.32C188.165 152.667 187.943 152.458 187.524 152.704ZM168.166 193.722L170.299 192.491V54.9991L168.154 56.2308V193.722H168.166ZM186.044 147.284L188.177 146.052V44.221L186.032 45.4528L186.044 147.284ZM180.385 48.8032L176.106 51.2668V153.098L180.385 150.635V48.8032ZM202.332 171.452L193.047 176.81L199.533 162.915C200.556 160.883 201.308 159.035 201.814 157.385C202.319 155.734 202.566 154.022 202.566 152.261C202.566 151.152 202.455 150.13 202.245 149.206C202.036 148.27 201.691 147.555 201.222 147.025C200.754 146.496 200.149 146.213 199.41 146.151C198.67 146.089 197.77 146.373 196.722 146.976C195.674 147.58 194.761 148.38 194.009 149.378C193.257 150.376 192.628 151.435 192.147 152.593C191.654 153.739 191.284 154.909 191.05 156.104C190.816 157.299 190.68 158.382 190.655 159.356C190.655 159.898 190.853 160.058 191.235 159.824L191.79 159.503C191.901 159.442 192.024 159.294 192.172 159.06C192.308 158.826 192.394 158.518 192.431 158.161C192.579 156.227 193.01 154.49 193.738 152.95C194.465 151.411 195.452 150.277 196.734 149.538C198.066 148.775 199.089 148.725 199.78 149.403C200.482 150.08 200.828 151.374 200.828 153.271C200.828 153.923 200.791 154.552 200.717 155.143C200.643 155.746 200.507 156.375 200.322 157.028C200.125 157.693 199.866 158.419 199.533 159.208C199.2 159.996 198.781 160.908 198.263 161.955L191.075 177.143C190.816 177.66 190.631 178.079 190.532 178.411C190.434 178.744 190.384 179.052 190.384 179.323V179.963C190.384 180.592 190.594 180.789 191.001 180.555L202.369 174.001C202.788 173.755 203.01 173.324 203.01 172.696V172.055C202.961 171.415 202.751 171.218 202.332 171.452ZM116.911 196.555C116.405 195.767 115.727 195.299 114.889 195.139C114.05 194.979 113.002 195.274 111.745 195.989C110.487 196.716 109.439 197.639 108.601 198.76C107.762 199.881 107.084 201.138 106.566 202.517C106.048 203.897 105.679 205.363 105.457 206.915C105.235 208.467 105.111 210.031 105.099 211.595C105.062 214.059 105.062 216.449 105.099 218.764C105.111 220.316 105.235 221.745 105.481 223.014C105.716 224.307 106.073 225.342 106.591 226.13C107.096 226.907 107.775 227.387 108.613 227.547C109.451 227.707 110.5 227.412 111.757 226.697C113.015 225.97 114.063 225.047 114.901 223.926C115.74 222.805 116.418 221.548 116.923 220.181C117.429 218.801 117.799 217.348 118.021 215.796C118.243 214.256 118.378 212.679 118.415 211.103C118.452 208.75 118.452 206.36 118.415 203.934C118.403 202.382 118.28 200.965 118.033 199.672C117.786 198.378 117.417 197.344 116.911 196.555ZM116.64 211.891C116.603 214.847 116.184 217.385 115.394 219.516C114.605 221.659 113.385 223.199 111.732 224.147C110.093 225.096 108.872 224.96 108.083 223.741C107.281 222.521 106.875 220.464 106.838 217.557C106.813 216.35 106.801 215.229 106.801 214.182C106.801 213.148 106.813 212.027 106.838 210.819C106.875 207.925 107.294 205.4 108.083 203.232C108.872 201.064 110.093 199.512 111.732 198.563C113.36 197.627 114.581 197.775 115.382 199.019C116.184 200.263 116.603 202.308 116.64 205.166C116.652 206.348 116.677 207.457 116.677 208.491C116.677 209.514 116.664 210.659 116.64 211.891ZM199.373 139.672L203.651 137.208V35.3768L199.373 37.8403V139.672ZM209.434 32.051V169.924L213.712 167.461V29.5874L209.434 32.051ZM132.397 184.509L121.695 190.68C121.288 190.914 121.091 191.357 121.091 192.01V192.651C121.091 193.279 121.3 193.476 121.695 193.242L131.152 187.785L124.025 217.865C123.988 218.062 123.964 218.198 123.964 218.284C123.964 218.543 124.013 218.727 124.124 218.851C124.223 218.974 124.358 218.998 124.518 218.9L125.098 218.567C125.308 218.444 125.456 218.235 125.554 217.939C125.653 217.631 125.739 217.348 125.825 217.077L132.841 187.453C132.915 187.12 132.964 186.849 132.989 186.615C133.026 186.381 133.038 186.098 133.038 185.765V185.124C133.038 184.472 132.816 184.262 132.397 184.509ZM133.075 178.005L135.208 176.773V74.9539L133.075 76.1857V178.005ZM153.814 165.81L162.963 160.686V58.8545L153.802 63.9787V165.81H153.814ZM128.131 78.9572L119.562 83.7612V185.593L128.131 180.789V78.9572ZM157.488 170.035L156.958 170.343C156.835 170.417 156.712 170.503 156.601 170.589C156.49 170.676 156.366 170.836 156.243 171.058L150.337 181.454C150.189 181.712 150.103 181.959 150.09 182.217C150.078 182.464 150.127 182.673 150.226 182.833L150.534 183.252C150.769 183.597 151.065 183.486 151.397 182.932L156.354 174.186V199.598C156.354 200.226 156.564 200.423 156.97 200.189L157.501 199.881C157.908 199.647 158.117 199.216 158.117 198.588V170.614C158.093 169.998 157.895 169.801 157.488 170.035ZM147.205 203.256L137.921 208.615L144.406 194.72C145.43 192.688 146.182 190.84 146.687 189.189C147.193 187.539 147.44 185.827 147.44 184.065C147.44 182.957 147.329 181.934 147.119 181.01C146.909 180.074 146.564 179.36 146.096 178.83C145.627 178.3 145.023 178.017 144.283 177.956C143.543 177.894 142.643 178.177 141.595 178.781C140.547 179.384 139.635 180.185 138.883 181.183C138.131 182.181 137.502 183.24 137.021 184.398C136.528 185.543 136.158 186.713 135.924 187.908C135.689 189.103 135.554 190.187 135.529 191.16C135.529 191.702 135.726 191.862 136.108 191.628L136.663 191.308C136.774 191.246 136.898 191.099 137.046 190.865C137.181 190.631 137.267 190.323 137.304 189.965C137.452 188.031 137.884 186.295 138.611 184.755C139.339 183.215 140.325 182.082 141.608 181.343C142.939 180.579 143.963 180.53 144.653 181.207C145.356 181.885 145.701 183.178 145.701 185.075C145.701 185.728 145.664 186.356 145.59 186.948C145.516 187.551 145.38 188.179 145.196 188.844C144.998 189.51 144.739 190.236 144.406 191.025C144.074 191.813 143.654 192.725 143.136 193.772L135.948 208.959C135.689 209.477 135.504 209.896 135.406 210.228C135.307 210.561 135.258 210.869 135.258 211.14V211.78C135.258 212.408 135.467 212.606 135.874 212.371L147.242 205.818C147.661 205.572 147.883 205.141 147.883 204.513V203.872C147.834 203.219 147.625 203.01 147.205 203.256Z" fill="#455A64"/>
</svg>
