<svg width="511" height="317" viewBox="0 0 511 317" fill="none" xmlns="http://www.w3.org/2000/svg">
<g clip-path="url(#clip0_310_3934)">
<path d="M304.804 221.264C304.804 221.264 313.824 215.642 317.233 216.018L336.768 220.572C336.768 220.572 338.442 222.401 335.051 224.084C331.711 225.741 327.363 223.349 327.363 223.349L322.606 224.016L325.886 226.758L338.844 230.74C338.844 230.74 348.232 233.397 347.096 234.781C345.959 236.165 343.132 236.327 339.083 235.183C335.034 234.038 329.892 232.585 329.892 232.585C329.892 232.585 328.286 232.235 330.866 234.038C333.454 235.84 344.832 238.626 346.327 239.369C347.822 240.112 351.913 240.736 351.469 243.069C351.025 245.401 345.9 243.521 345.9 243.521L329.072 239.617C329.072 239.617 335.718 242.488 336.845 243.017C337.973 243.547 341.654 244.564 343.619 245.546C345.584 246.529 346.523 247.828 346.301 248.861C345.891 250.724 344.174 250.519 344.174 250.519L329.935 245.632C329.935 245.632 323.477 243.06 323.041 243.146C322.606 243.24 325.561 245.991 325.561 245.991L330.105 248.315C330.105 248.315 336.666 250.51 336.683 252.33C336.7 254.15 335.333 254.082 335.333 254.082L323.374 249.955L310.023 243.188L300.021 237.054C300.021 237.054 301.823 229.996 301.481 229.689C301.157 229.381 304.804 221.264 304.804 221.264Z" fill="#FFBE9D"/>
<path d="M309.485 234.516C309.451 234.379 310.732 234.046 312.705 233.337C314.619 232.619 317.429 231.363 318.873 228.569C319.513 227.348 319.753 225.998 319.522 224.836L319.436 224.409L319.906 224.349C321.973 224.084 323.913 223.631 325.219 223.452C326.543 223.238 327.363 223.221 327.363 223.332C327.363 223.409 326.62 223.588 325.322 223.939C323.998 224.255 322.255 224.802 319.932 225.16L320.316 224.673C320.624 226.023 320.368 227.604 319.642 228.963C318.856 230.483 317.634 231.645 316.396 232.397C315.157 233.166 313.927 233.602 312.902 233.909C310.818 234.499 309.502 234.619 309.485 234.516Z" fill="#EB996E"/>
<path d="M125.9 307.405L124.312 248.434L227.704 250.434L241.781 305.184L125.9 307.405Z" fill="#263238"/>
<path d="M177.348 83.6459L169.575 91.0108C169.575 91.0108 140.507 98.2391 135.433 103.314C130.35 108.398 127.702 186.729 128.044 192.146C128.386 197.563 128.027 244.641 128.027 244.641C128.027 244.641 126.318 262.592 128.027 263.608C129.735 264.625 162.332 265.061 178.587 265.403C194.842 265.744 229.309 266.693 231.342 265.001C233.375 263.309 226.294 228.194 226.294 228.194L223.475 212.003L224.347 183.688L230.292 144.736L234.691 104.433C234.691 104.433 222.843 97.3249 217.086 95.9664C211.329 94.6079 177.348 83.6459 177.348 83.6459Z" fill="#455A64"/>
<path d="M263.068 196.734L247.274 130.39C246.018 125.127 244.207 120.009 241.841 115.139C239.389 110.107 236.357 104.613 234.691 104.425C224.894 103.297 219.794 133.21 219.794 133.21V171.137L229.045 212.216C230.463 218.522 235.118 223.597 241.277 225.553L303.967 245.512L311.228 214.386L263.068 196.734Z" fill="#455A64"/>
<path d="M151.082 97.3847C151.082 97.3847 127.259 100.751 119.571 118.933C119.571 118.933 95.7641 211.618 99.7447 223.828C103.725 236.037 134.502 283.149 134.502 283.149L161.486 268.897C161.486 268.897 135.117 214.156 135.117 208.124C135.109 202.092 151.082 97.3847 151.082 97.3847Z" fill="#455A64"/>
<path d="M161.477 268.897C161.469 268.897 161.418 268.803 161.324 268.598C161.221 268.376 161.093 268.086 160.922 267.71C160.572 266.906 160.068 265.753 159.419 264.292C158.12 261.293 156.267 256.987 153.969 251.672C149.399 240.984 143.104 226.254 136.15 209.978C135.834 209.226 135.51 208.482 135.219 207.79L135.202 207.748V207.714C135.27 206.594 135.493 205.552 135.698 204.51C135.928 203.476 136.15 202.442 136.398 201.425C136.876 199.392 137.389 197.401 137.893 195.444C138.918 191.54 139.9 187.78 140.84 184.2C142.728 177.049 144.41 170.615 145.786 165.216C147.161 159.816 148.203 155.441 148.921 152.417C149.271 150.921 149.536 149.759 149.732 148.939C149.826 148.563 149.894 148.264 149.954 148.034C150.005 147.829 150.04 147.726 150.04 147.726C150.048 147.726 150.031 147.837 149.997 148.042C149.954 148.264 149.894 148.572 149.818 148.956C149.647 149.777 149.399 150.956 149.091 152.459C148.417 155.493 147.434 159.884 146.093 165.293C144.761 170.701 143.112 177.143 141.241 184.303C140.31 187.883 139.336 191.651 138.329 195.555C137.833 197.512 137.321 199.503 136.842 201.528C136.381 203.544 135.834 205.646 135.655 207.705L135.638 207.62C135.937 208.312 136.253 209.055 136.569 209.807C143.479 226.1 149.732 240.847 154.268 251.553C156.506 256.884 158.317 261.208 159.581 264.224C160.196 265.702 160.674 266.864 161.008 267.675C161.161 268.06 161.281 268.35 161.366 268.581C161.443 268.786 161.486 268.897 161.477 268.897Z" fill="#263238"/>
<path d="M230.164 137.755C230.181 137.755 230.181 137.943 230.164 138.293C230.147 138.695 230.121 139.199 230.087 139.831C229.993 141.224 229.873 143.138 229.72 145.487C229.378 150.264 228.968 156.86 228.208 164.131C227.439 171.401 226.371 177.938 225.551 182.654C225.141 185.012 224.791 186.917 224.535 188.233C224.406 188.848 224.312 189.352 224.227 189.745C224.15 190.087 224.107 190.267 224.09 190.267C224.073 190.267 224.09 190.079 224.142 189.728C224.201 189.335 224.27 188.831 224.364 188.199C224.577 186.823 224.876 184.927 225.244 182.603C225.978 177.878 227.003 171.342 227.763 164.088C228.515 156.834 228.976 150.238 229.404 145.462C229.617 143.121 229.788 141.207 229.916 139.814C229.984 139.191 230.036 138.678 230.078 138.285C230.121 137.935 230.147 137.755 230.164 137.755Z" fill="#263238"/>
<path d="M138.056 281.269L140.729 286.199C140.729 286.199 153.978 281.149 160.282 272.64L158.539 270.965L138.056 281.269Z" fill="#FFBE9D"/>
<path d="M164.186 267.821C164.211 267.838 163.938 268.282 163.425 269.077C163.169 269.478 162.853 269.957 162.443 270.495C162.033 271.025 161.606 271.666 161.042 272.298C160.495 272.947 159.906 273.665 159.214 274.374C158.548 275.117 157.771 275.844 156.959 276.612C155.302 278.116 153.38 279.671 151.236 281.107C149.075 282.533 146.914 283.713 144.889 284.678C142.856 285.618 140.986 286.37 139.38 286.899C138.585 287.19 137.851 287.395 137.201 287.592C136.561 287.788 135.997 287.933 135.536 288.044C134.622 288.267 134.109 288.378 134.101 288.352C134.092 288.326 134.588 288.155 135.493 287.882C135.946 287.745 136.492 287.583 137.125 287.361C137.757 287.147 138.483 286.925 139.269 286.618C140.849 286.054 142.702 285.276 144.71 284.319C146.7 283.337 148.844 282.158 150.98 280.748C153.115 279.329 155.02 277.8 156.677 276.322C157.489 275.57 158.266 274.852 158.941 274.126C159.641 273.434 160.239 272.733 160.794 272.101C161.367 271.486 161.811 270.862 162.238 270.35C162.665 269.837 162.998 269.367 163.272 268.983C163.835 268.222 164.16 267.804 164.186 267.821Z" fill="#455A64"/>
<path d="M150.724 130.476C150.621 130.459 150.98 128.912 150.903 126.383C150.877 125.751 150.843 125.067 150.724 124.332C150.655 123.598 150.459 122.82 150.288 122.009C149.869 120.402 149.246 118.668 148.366 116.959C147.452 115.267 146.376 113.772 145.282 112.516C144.71 111.918 144.18 111.32 143.608 110.85C143.07 110.337 142.523 109.919 142.011 109.543C139.969 108.056 138.491 107.475 138.534 107.381C138.543 107.356 138.91 107.501 139.568 107.783C139.901 107.919 140.294 108.107 140.729 108.372C141.165 108.629 141.686 108.893 142.199 109.286C142.728 109.654 143.301 110.064 143.856 110.568C144.445 111.038 144.992 111.636 145.59 112.243C146.717 113.507 147.828 115.02 148.759 116.745C149.664 118.488 150.279 120.257 150.689 121.906C150.852 122.735 151.031 123.529 151.091 124.281C151.193 125.033 151.21 125.734 151.219 126.375C151.253 127.015 151.176 127.596 151.142 128.1C151.116 128.604 151.048 129.04 150.971 129.391C150.843 130.1 150.749 130.484 150.724 130.476Z" fill="#263238"/>
<path d="M147.136 156.005C147.11 156.125 139.243 154.331 129.582 152.007C119.913 149.674 112.097 147.692 112.131 147.572C112.157 147.453 120.015 149.247 129.685 151.571C139.354 153.903 147.162 155.886 147.136 156.005Z" fill="white"/>
<path d="M228.473 151.109C228.473 151.229 210.774 151.631 188.949 152.007C167.116 152.383 149.417 152.579 149.408 152.459C149.408 152.34 167.099 151.938 188.941 151.562C210.774 151.186 228.473 150.981 228.473 151.109Z" fill="white"/>
<path d="M253.791 155.544C253.791 155.578 253.45 155.646 252.835 155.749C252.211 155.851 251.314 155.988 250.195 156.142C247.957 156.449 244.865 156.817 241.448 157.159C238.023 157.492 234.914 157.731 232.667 157.868C231.539 157.936 230.634 157.979 230.002 157.996C229.37 158.013 229.02 158.013 229.02 157.979C229.02 157.945 229.361 157.893 229.993 157.825C230.711 157.748 231.599 157.663 232.65 157.552C234.999 157.329 238.04 157.039 241.414 156.714C244.78 156.373 247.829 156.065 250.17 155.826C251.22 155.723 252.109 155.646 252.826 155.578C253.441 155.527 253.791 155.518 253.791 155.544Z" fill="white"/>
<path d="M135.852 204.219C135.834 204.339 128.249 203.348 118.904 202.006C109.559 200.665 102 199.477 102.017 199.357C102.034 199.238 109.619 200.229 118.964 201.57C128.309 202.912 135.869 204.099 135.852 204.219Z" fill="white"/>
<path d="M222.1 211.131C222.109 211.251 203.761 212.618 181.124 214.181C158.48 215.745 140.123 216.907 140.114 216.787C140.106 216.668 158.445 215.301 181.09 213.737C203.727 212.174 222.092 211.012 222.1 211.131Z" fill="white"/>
<path d="M261.385 197.802C261.402 197.828 261.035 198.161 260.343 198.734C259.591 199.357 258.601 200.169 257.413 201.16C254.936 203.202 251.519 206.039 247.795 209.234C244.071 212.43 240.756 215.377 238.356 217.514C237.203 218.547 236.246 219.393 235.511 220.043C234.837 220.641 234.452 220.957 234.435 220.931C234.418 220.905 234.76 220.547 235.392 219.914C236.033 219.282 236.964 218.376 238.142 217.274C240.483 215.07 243.78 212.088 247.504 208.884C251.229 205.689 254.68 202.886 257.217 200.904C258.481 199.913 259.515 199.118 260.241 198.589C260.958 198.067 261.368 197.777 261.385 197.802Z" fill="white"/>
<path d="M154.234 257.91C154.243 257.935 153.859 258.115 153.15 258.422C152.355 258.747 151.347 259.166 150.134 259.67C147.512 260.746 144.035 262.173 140.191 263.745C136.356 265.351 132.897 266.804 130.274 267.906C129.061 268.41 128.053 268.829 127.267 269.162C126.55 269.453 126.157 269.598 126.14 269.572C126.131 269.547 126.507 269.342 127.199 269.008C127.891 268.667 128.899 268.197 130.155 267.624C132.657 266.479 136.142 264.95 140.029 263.344C143.907 261.737 147.452 260.345 150.032 259.379C151.322 258.892 152.372 258.516 153.098 258.268C153.816 258.004 154.226 257.884 154.234 257.91Z" fill="white"/>
<path d="M297.227 210.67C297.261 210.678 297.193 211.114 297.056 211.9C296.92 212.686 296.698 213.814 296.39 215.207C295.775 217.992 294.801 221.811 293.477 225.946C292.145 230.09 290.727 233.764 289.608 236.387C289.052 237.694 288.574 238.745 288.232 239.463C287.891 240.181 287.686 240.574 287.66 240.557C287.634 240.548 287.78 240.13 288.079 239.386C288.403 238.566 288.822 237.515 289.326 236.259C290.368 233.61 291.735 229.937 293.067 225.801C294.391 221.674 295.408 217.881 296.1 215.121C296.424 213.805 296.698 212.703 296.903 211.849C297.073 211.088 297.193 210.661 297.227 210.67Z" fill="white"/>
<path d="M176.982 99.7599C176.982 99.7941 176.495 99.8881 175.615 100.033C174.659 100.196 173.394 100.418 171.865 100.674C168.705 101.229 164.357 102.075 159.599 103.22C154.841 104.374 150.587 105.613 147.521 106.561C146.043 107.022 144.821 107.407 143.899 107.706C143.045 107.979 142.566 108.116 142.558 108.082C142.549 108.048 143.002 107.86 143.848 107.535C144.685 107.21 145.906 106.775 147.435 106.253C150.476 105.22 154.739 103.938 159.505 102.776C164.272 101.623 168.645 100.828 171.831 100.349C173.42 100.11 174.71 99.9393 175.607 99.8453C176.478 99.7685 176.973 99.7343 176.982 99.7599Z" fill="white"/>
<path d="M241.662 18.7285C247.991 24.1881 244.446 32.7492 243.174 41.0113C241.901 49.2733 243.387 58.3385 243.72 66.6946C243.9 71.1118 244.984 75.6743 243.549 79.8609C242.046 84.2354 238.125 87.2258 235.084 90.7033C232.035 94.1807 229.754 99.3583 232.154 103.314C230.847 103.827 229.293 103.605 228.174 102.759C227.14 104.596 224.62 105.143 222.596 104.553C220.571 103.964 218.931 102.511 217.36 101.093C217.12 102.605 215.284 103.425 213.789 103.118C212.286 102.81 211.09 101.716 210.014 100.623C208.937 99.5378 207.835 98.3758 206.392 97.8631C203.188 96.7268 199.447 99.1618 196.338 97.7777C192.075 95.8809 192.477 88.5074 188.069 86.9866C185.993 86.2775 183.764 87.2515 181.577 87.4907C179.39 87.7299 177.058 85.8075 177.357 83.6288C173.607 85.1924 168.781 85.9442 164.972 84.543C166.21 83.569 166.834 81.8687 166.526 80.3223C163.759 80.8093 160.854 80.4504 158.283 79.3141C160.615 78.7502 162.665 77.1183 163.741 74.9823C161.392 75.3668 158.881 74.4696 157.301 72.6925C162.05 72.7352 165.373 67.8224 166.364 63.1744C167.363 58.5265 167.013 53.5539 168.909 49.1964C170.968 44.4545 175.376 41.148 178.049 36.7222C181.782 30.5534 181.885 22.6844 185.746 16.5925C188.274 12.6024 190.692 9.20191 194.51 6.43364C199.345 2.9306 202.112 1.11927 208.083 1.19616C213.089 1.26452 221.648 2.65719 225.919 5.27166C233.504 9.9196 241.559 15.1058 244.933 23.3422" fill="#263238"/>
<path d="M185.515 55.3396C185.156 48.7351 184.84 42.0964 185.618 35.5346C186.404 28.9728 188.351 22.428 192.169 17.0282C192.75 16.208 197.243 10.8851 198.183 11.2354C198.858 11.4832 195.569 16.695 195.757 17.3871C197.559 23.9831 196.637 31.0831 194.356 37.5339C192.075 43.976 189.128 49.5297 185.515 55.3396Z" fill="#263238"/>
<path d="M201.301 122.453C191.452 119.608 172.916 100.324 175.547 90.4128L191.367 30.7926C195.108 14.6359 207.622 3.3578 223.664 7.54436L225.125 8.01429C239.817 12.7818 248.385 28.0329 244.814 43.0704C241.491 57.0484 237.647 72.4532 235.187 79.7327C230.096 94.8044 214.199 92.2497 214.199 92.2497C214.165 92.2412 213.166 95.7869 211.919 100.29C209.126 110.389 203.214 120.3 201.301 122.453Z" fill="#FFBE9D"/>
<path d="M214.208 92.2412C214.208 92.2412 204.487 89.7036 196.397 80.0232C196.397 80.0232 197.448 92.9418 212.986 96.4705L214.208 92.2412Z" fill="#EB996E"/>
<path d="M188.975 42.4039C188.753 42.2074 179.578 35.9532 176.555 46.4111C173.531 56.8604 184.644 57.749 184.755 57.4499C184.857 57.1509 188.975 42.4039 188.975 42.4039Z" fill="#FFBE9D"/>
<path d="M182.705 52.5628C182.671 52.5201 182.483 52.6397 182.141 52.6909C181.8 52.7422 181.262 52.6909 180.775 52.3235C179.784 51.5973 179.365 49.5724 179.861 47.6756C180.108 46.7187 180.57 45.8643 181.125 45.2149C181.663 44.5399 182.312 44.1555 182.902 44.2153C183.491 44.2494 183.79 44.6937 183.833 45.027C183.884 45.3602 183.764 45.5481 183.816 45.5823C183.841 45.6165 184.089 45.4712 184.132 45.0184C184.149 44.7963 184.098 44.5143 183.91 44.2409C183.722 43.9675 183.38 43.7539 182.979 43.6855C182.159 43.5061 181.219 44.0358 180.604 44.7535C179.946 45.4627 179.408 46.4111 179.126 47.4876C178.579 49.6151 179.092 51.8963 180.476 52.7678C181.159 53.1694 181.834 53.1267 182.218 52.9729C182.611 52.8105 182.731 52.5884 182.705 52.5628Z" fill="#EB996E"/>
<path d="M242.909 23.8036C244.866 23.3422 241.312 16.4216 237.682 13.3714C232.181 8.74907 223.058 4.29764 216.788 4.32327C209.245 4.3489 202.463 6.20296 197.167 11.5857C191.88 16.9684 188.48 24.0172 186.652 31.3394C186.097 33.5694 185.678 35.9447 186.336 38.1576C187.147 40.8831 189.548 43.1302 188.531 46.2915C188.155 47.4449 188.164 48.718 188.728 49.7945C190.077 52.3748 192.956 51.1103 194.57 49.4955C198.021 46.0351 199.653 41.2078 201.165 36.5598C202.241 33.2618 203.334 29.8784 203.292 26.4095C203.266 24.5213 202.907 22.6416 202.984 20.7534C203.061 18.8652 203.685 16.8659 205.188 15.7295C205.436 15.5416 205.812 15.328 206.281 15.1058C209.98 13.3372 214.345 13.7217 217.702 16.0798C223.015 19.8221 232.223 25.7602 235.41 24.4957C240.005 22.6758 241.432 21.0525 241.432 21.0525L242.909 23.8036Z" fill="#263238"/>
<path d="M188.761 43.8393C188.769 44.0444 188.778 44.2665 188.769 44.5058C188.769 44.4972 188.761 44.258 188.761 43.8393Z" fill="#FFC727"/>
<path d="M185.976 40.8831C185.976 40.8831 188.573 39.3708 188.761 43.8393C188.718 38.0807 189.752 -3.50304 229.617 7.58709C229.617 7.58709 216.753 -0.0939817 205.657 3.28945C205.657 3.28945 184.695 6.35675 185.976 40.8831Z" fill="#455A64"/>
<path d="M212.055 84.6797C212.14 84.8421 213.259 84.3636 214.293 83.3127C215.335 82.2703 215.805 81.151 215.642 81.0656C215.471 80.9631 214.78 81.8687 213.814 82.8342C212.849 83.8082 211.961 84.5088 212.055 84.6797Z" fill="#263238"/>
<path d="M209.894 83.6374C210.031 83.7655 210.954 82.9538 211.936 81.8431C212.927 80.7238 213.61 79.7157 213.473 79.596C213.337 79.4679 212.414 80.2796 211.432 81.3903C210.441 82.501 209.758 83.5092 209.894 83.6374Z" fill="#263238"/>
<path d="M208.579 82.2618C208.758 82.3216 209.253 81.339 209.698 80.0745C210.133 78.8014 210.347 77.7249 210.176 77.6651C209.996 77.6053 209.501 78.5793 209.057 79.8524C208.613 81.1169 208.408 82.202 208.579 82.2618Z" fill="#263238"/>
<path d="M206.589 81.8773C206.785 81.8346 206.597 80.5786 206.853 79.0834C207.092 77.5796 207.665 76.4518 207.494 76.3493C207.357 76.2382 206.443 77.3148 206.178 78.9723C205.905 80.6299 206.426 81.9371 206.589 81.8773Z" fill="#263238"/>
<path d="M203.795 80.2027C203.991 80.1685 203.906 78.9467 204.094 77.4771C204.265 76.0076 204.632 74.837 204.452 74.7601C204.29 74.6832 203.607 75.811 203.419 77.3917C203.222 78.9809 203.615 80.2454 203.795 80.2027Z" fill="#263238"/>
<path d="M217.129 215.993C217.138 216.001 217.027 216.095 216.805 216.258C216.54 216.446 216.215 216.676 215.831 216.95C214.977 217.548 213.73 218.385 212.175 219.41C209.066 221.452 204.718 224.186 199.815 227.032C194.903 229.885 190.376 232.312 187.07 233.995C185.413 234.841 184.063 235.507 183.124 235.952C182.688 236.148 182.329 236.319 182.039 236.456C181.791 236.567 181.654 236.618 181.646 236.601C181.637 236.584 181.757 236.507 181.996 236.37C182.278 236.216 182.628 236.02 183.047 235.789C184.021 235.268 185.336 234.559 186.925 233.704C190.196 231.944 194.698 229.475 199.593 226.63C204.487 223.785 208.861 221.093 212.013 219.128C213.542 218.171 214.797 217.377 215.737 216.787C216.147 216.54 216.48 216.334 216.762 216.164C216.993 216.052 217.121 215.984 217.129 215.993Z" fill="#263238"/>
<path d="M263.034 196.632C263.111 196.76 260.087 198.213 257.131 201.015C254.15 203.8 252.519 206.731 252.399 206.646C252.356 206.62 252.698 205.859 253.433 204.723C254.167 203.587 255.32 202.109 256.824 200.69C258.327 199.272 259.882 198.213 261.052 197.546C262.231 196.88 263.017 196.581 263.034 196.632Z" fill="#263238"/>
<path d="M262.163 185.533C262.163 185.533 231.813 189.13 220.589 198.102C218.829 199.511 217.18 201.152 215.66 202.903C208.579 211.046 204.427 221.333 203.445 232.081L199.379 276.724L199.703 284.097C200.216 295.606 209.672 304.688 221.195 304.731L346.609 305.611C346.609 305.611 363.087 287.216 358.773 258.704C357.756 251.989 356.133 228.988 349.778 214.839C346.421 207.355 341.279 198.11 327.697 194.496L296.023 185.533H262.163Z" fill="#263238"/>
<path d="M233.727 221.845C233.692 221.854 233.607 221.495 233.47 220.846C233.334 220.196 233.129 219.265 232.838 218.12C232.266 215.83 231.318 212.712 229.9 209.405C228.473 206.107 226.85 203.271 225.577 201.288C224.945 200.297 224.407 199.503 224.031 198.964C223.655 198.418 223.459 198.11 223.485 198.093C223.51 198.076 223.749 198.349 224.168 198.862C224.595 199.375 225.167 200.144 225.842 201.118C227.192 203.066 228.875 205.902 230.31 209.226C231.745 212.558 232.65 215.719 233.146 218.043C233.393 219.205 233.564 220.145 233.641 220.803C233.718 221.478 233.752 221.845 233.727 221.845Z" fill="#455A64"/>
<path d="M238.989 272.776C238.869 272.793 237.528 263.036 235.99 250.98C234.461 238.925 233.317 229.142 233.436 229.125C233.556 229.108 234.897 238.865 236.435 250.921C237.964 262.976 239.108 272.759 238.989 272.776Z" fill="#455A64"/>
<path d="M233.436 225.682C233.41 225.733 232.581 225.417 231.3 224.776C230.019 224.135 228.293 223.153 226.499 221.888C224.706 220.624 223.202 219.333 222.169 218.342C221.135 217.351 220.554 216.676 220.597 216.633C220.648 216.582 221.297 217.18 222.382 218.103C223.467 219.026 224.988 220.273 226.764 221.521C228.541 222.768 230.224 223.785 231.454 224.494C232.684 225.203 233.47 225.622 233.436 225.682Z" fill="#455A64"/>
<path d="M314.704 233.944C314.67 233.944 314.67 233.405 314.704 232.423C314.713 231.927 314.738 231.329 314.824 230.637C314.901 229.945 314.952 229.15 315.123 228.288C315.268 227.416 315.43 226.468 315.695 225.468C315.909 224.451 316.259 223.4 316.601 222.29C317.361 220.085 318.36 217.727 319.667 215.378C321 213.045 322.503 210.96 323.989 209.166C324.767 208.295 325.484 207.457 326.236 206.748C326.954 206.005 327.68 205.372 328.346 204.8C328.995 204.202 329.653 203.749 330.2 203.322C330.746 202.886 331.25 202.553 331.669 202.297C332.497 201.767 332.959 201.485 332.976 201.511C332.993 201.536 332.557 201.869 331.771 202.442C331.37 202.724 330.891 203.074 330.362 203.518C329.824 203.963 329.192 204.433 328.559 205.039C327.91 205.62 327.201 206.261 326.501 207.013C325.766 207.731 325.066 208.568 324.306 209.439C322.853 211.225 321.376 213.293 320.06 215.6C318.77 217.924 317.762 220.256 316.994 222.426C316.643 223.52 316.285 224.562 316.063 225.562C315.781 226.553 315.601 227.484 315.447 228.347C315.26 229.202 315.183 229.988 315.089 230.671C314.978 231.355 314.926 231.953 314.901 232.44C314.79 233.405 314.739 233.944 314.704 233.944Z" fill="#455A64"/>
<path d="M302.216 285.216C302.216 285.216 302.046 284.669 302.122 283.644C302.191 282.653 302.695 281.021 304.369 279.97L304.335 279.996C306.966 277.185 311.322 273.545 317.191 271.05L317.062 271.23C317.233 269.623 317.413 267.957 317.541 266.24C318.122 258.909 318.045 252.245 317.797 247.435C317.686 245.025 317.515 243.086 317.421 241.744C317.37 241.112 317.327 240.599 317.293 240.198C317.267 239.848 317.267 239.66 317.276 239.651C317.293 239.651 317.327 239.83 317.378 240.181C317.43 240.582 317.498 241.086 317.592 241.719C317.746 243.06 317.959 245 318.113 247.409C318.438 252.228 318.566 258.918 317.985 266.266C317.857 267.983 317.677 269.658 317.498 271.272L317.481 271.401L317.361 271.452C311.553 273.904 307.205 277.458 304.54 280.192L304.523 280.209L304.497 280.227C303.728 280.662 303.173 281.329 302.831 281.944C302.481 282.568 302.336 283.174 302.268 283.67C302.148 284.661 302.259 285.216 302.216 285.216Z" fill="#455A64"/>
<path d="M337.99 281.602C337.921 281.645 337.264 280.415 335.837 278.706C334.419 277.005 332.155 274.861 329.14 273.306C327.637 272.537 326.133 271.93 324.715 271.58C323.297 271.213 321.982 271.084 320.871 271.076C318.651 271.059 317.284 271.332 317.267 271.247C317.258 271.221 317.6 271.127 318.215 271.016C318.83 270.905 319.735 270.785 320.863 270.76C321.99 270.734 323.349 270.837 324.801 271.187C326.261 271.529 327.799 272.127 329.337 272.913C332.42 274.502 334.701 276.732 336.076 278.509C336.768 279.398 337.255 280.175 337.563 280.722C337.87 281.269 338.015 281.594 337.99 281.602Z" fill="#455A64"/>
<path d="M337.383 269.922C337.349 269.999 336.341 269.521 334.607 269.094C333.744 268.863 332.694 268.701 331.523 268.564C330.353 268.461 329.055 268.41 327.697 268.47C324.972 268.59 322.537 269.077 320.812 269.521C319.078 269.965 318.036 270.35 318.01 270.281C318.001 270.256 318.249 270.128 318.71 269.931C319.172 269.726 319.864 269.478 320.726 269.213C322.452 268.684 324.912 268.145 327.68 268.017C329.063 267.966 330.379 268.017 331.575 268.154C332.762 268.316 333.83 268.513 334.693 268.786C335.128 268.897 335.513 269.051 335.854 269.179C336.196 269.299 336.478 269.418 336.7 269.538C337.153 269.76 337.392 269.897 337.383 269.922Z" fill="#455A64"/>
<path d="M313.603 134.927C311.1 124.298 306.624 113.439 297.817 106.98C289.967 101.229 278.529 99.0337 268.825 99.7599C264.05 100.119 258.72 102.503 254.629 104.997C249.016 108.415 246.813 115.054 244.25 121.103C239.116 133.218 240.338 149.366 244.224 153.741L294.964 178.467C303.643 173.58 313.047 167.01 315.072 157.253C316.456 150.605 315.157 141.532 313.603 134.927Z" fill="#263238"/>
<path d="M294.393 116.07L262.702 107.825C252.545 106.681 245.695 119.155 244.986 129.356C244.191 140.694 243.679 154.561 244.96 163.028C247.548 180.057 260.575 184.106 260.575 184.106C260.583 184.047 260.609 198.896 260.669 203.954L275.446 248.998L296.477 203.954L299.714 122.179C299.791 119.069 297.485 116.412 294.393 116.07Z" fill="#FFBE9D"/>
<path d="M260.532 184.235L260.626 188.472C277.642 190.181 283.348 178.314 283.348 178.314C271.97 185.046 260.532 184.235 260.532 184.235Z" fill="#EB996E"/>
<path d="M295.127 142.882C295.358 142.77 304.6 139.84 304.515 149.341C304.43 158.833 294.914 156.791 294.905 156.518C294.888 156.244 295.127 142.882 295.127 142.882Z" fill="#FFBE9D"/>
<path d="M297.834 152.946C297.877 152.921 297.997 153.066 298.279 153.194C298.552 153.322 299.022 153.408 299.517 153.228C300.525 152.869 301.379 151.28 301.448 149.572C301.482 148.709 301.303 147.88 301.004 147.196C300.722 146.496 300.277 146.009 299.773 145.915C299.27 145.795 298.911 146.094 298.791 146.359C298.663 146.624 298.723 146.812 298.672 146.829C298.646 146.855 298.467 146.667 298.552 146.274C298.595 146.086 298.706 145.863 298.928 145.684C299.158 145.505 299.492 145.411 299.842 145.453C300.576 145.513 301.226 146.188 301.559 146.94C301.926 147.692 302.148 148.623 302.105 149.589C302.029 151.502 301.029 153.28 299.654 153.673C298.988 153.844 298.432 153.638 298.142 153.408C297.852 153.169 297.8 152.963 297.834 152.946Z" fill="#EB996E"/>
<path d="M300.969 156.108C301.012 156.065 301.379 156.509 301.328 157.355C301.294 157.757 301.157 158.312 300.653 158.688C300.141 159.055 299.432 159.047 298.834 158.816C298.236 158.594 297.689 158.107 297.57 157.5C297.441 156.919 297.612 156.398 297.826 156.039C298.296 155.305 298.894 155.236 298.885 155.287C298.928 155.356 298.441 155.544 298.116 156.202C297.962 156.518 297.869 156.962 297.988 157.389C298.091 157.816 298.492 158.175 298.988 158.363C299.483 158.56 300.038 158.551 300.388 158.321C300.747 158.09 300.909 157.663 300.978 157.312C301.123 156.586 300.901 156.133 300.969 156.108Z" fill="#263238"/>
<path d="M244.217 132.048C245.498 129.297 247.984 127.289 250.623 125.785C253.263 124.281 256.116 123.188 258.738 121.667C264.76 118.164 269.407 112.354 271.491 105.707C266.819 103.297 261.002 103.571 256.286 105.903C251.571 108.236 247.949 112.465 245.78 117.258C243.61 122.051 242.824 127.383 242.884 132.637" fill="#263238"/>
<path d="M297.305 113.524C290.283 106.851 277.018 103.169 267.869 106.296C269.227 114.293 275.258 123.264 280.563 129.399C285.901 135.568 289.122 146.376 300.739 142.702C301.542 142.446 302.456 143.181 303.173 142.753C303.788 142.395 304.079 141.668 304.292 140.993C307.367 131.518 304.531 120.394 297.305 113.524Z" fill="#263238"/>
<path d="M244.746 143.591C244.746 143.591 244.139 143.762 243.08 143.497C242.03 143.249 240.552 142.429 239.433 140.814C238.28 139.208 237.767 136.798 237.989 134.252C238.092 132.971 238.322 131.655 238.655 130.305C238.963 128.955 239.382 127.579 239.851 126.195C241.79 120.633 244.763 116.122 247.249 113.2C248.479 111.722 249.598 110.645 250.367 109.893C250.734 109.568 251.041 109.304 251.298 109.081C251.511 108.902 251.631 108.808 251.639 108.825C251.665 108.851 251.255 109.278 250.495 110.03C249.769 110.816 248.684 111.918 247.505 113.413C245.113 116.369 242.217 120.855 240.304 126.349C239.843 127.724 239.416 129.074 239.108 130.416C238.775 131.74 238.536 133.039 238.425 134.286C238.186 136.764 238.638 139.071 239.706 140.626C240.748 142.198 242.124 143.027 243.123 143.317C244.139 143.633 244.754 143.531 244.746 143.591Z" fill="#263238"/>
<path d="M325.229 114.592C325.195 110.141 323.973 105.519 320.941 102.255C316.729 97.7264 309.366 96.7097 303.891 99.5805C298.415 102.46 295.11 108.817 295.477 114.985C295.844 121.163 299.688 126.913 305.044 130.006L308.956 129.561C312.886 131.629 318.036 130.168 321.069 126.913C324.101 123.666 325.263 119.035 325.229 114.592Z" fill="#263238"/>
<path d="M301.302 111.978C301.311 111.986 301.242 112.097 301.106 112.294C300.96 112.49 300.764 112.798 300.448 113.148C299.858 113.875 298.902 114.849 297.569 115.865C296.237 116.882 294.486 117.899 292.384 118.634C290.291 119.377 287.831 119.804 285.26 119.676C282.689 119.522 280.289 118.83 278.29 117.856C276.283 116.891 274.651 115.694 273.438 114.533C272.217 113.379 271.379 112.294 270.867 111.516C270.594 111.132 270.431 110.807 270.312 110.594C270.192 110.38 270.132 110.26 270.149 110.252C270.243 110.184 271.191 112.072 273.652 114.302C274.873 115.413 276.496 116.557 278.469 117.489C280.442 118.411 282.783 119.078 285.286 119.232C287.797 119.351 290.197 118.95 292.256 118.249C294.323 117.549 296.057 116.583 297.39 115.609C300.063 113.678 301.217 111.901 301.302 111.978Z" fill="white"/>
<path d="M305.855 124.905C305.864 124.913 305.753 125.025 305.539 125.23C305.309 125.418 305.01 125.751 304.548 126.067C303.66 126.768 302.234 127.622 300.312 128.288C298.398 128.972 295.972 129.356 293.282 129.237C290.599 129.109 287.669 128.434 284.876 127.075C282.1 125.691 279.742 123.863 277.838 121.983C275.933 120.103 274.455 118.189 273.319 116.515C272.183 114.84 271.371 113.422 270.85 112.431C270.577 111.935 270.398 111.542 270.269 111.269C270.141 111.004 270.081 110.859 270.099 110.85C270.116 110.841 270.201 110.97 270.355 111.226C270.534 111.525 270.748 111.892 271.013 112.345C271.585 113.311 272.431 114.703 273.584 116.335C274.737 117.967 276.232 119.847 278.128 121.684C280.016 123.529 282.348 125.307 285.073 126.674C287.806 128.006 290.676 128.681 293.299 128.827C295.93 128.963 298.313 128.622 300.209 127.989C302.105 127.374 303.532 126.58 304.437 125.93C305.36 125.289 305.83 124.871 305.855 124.905Z" fill="white"/>
<path d="M321.428 110.406C321.453 110.423 321.308 110.628 321.018 110.987C320.744 111.346 320.283 111.833 319.676 112.379C319.079 112.935 318.293 113.524 317.37 114.097C316.439 114.652 315.371 115.182 314.192 115.601C313.005 116.002 311.835 116.258 310.767 116.395C309.691 116.515 308.717 116.54 307.897 116.481C307.086 116.421 306.428 116.327 305.984 116.216C305.539 116.113 305.3 116.045 305.309 116.011C305.326 115.934 306.308 116.13 307.914 116.164C309.511 116.199 311.741 115.976 314.056 115.173C316.362 114.362 318.25 113.157 319.48 112.14C320.719 111.123 321.368 110.354 321.428 110.406Z" fill="white"/>
<path d="M324.964 116.369C324.981 116.361 325.101 116.626 325.084 117.138C325.075 117.643 324.887 118.394 324.349 119.129C323.819 119.881 322.923 120.539 321.846 121.035C320.77 121.522 319.548 121.94 318.224 122.239C315.568 122.846 313.074 122.786 311.331 122.53C310.451 122.41 309.759 122.239 309.281 122.111C308.811 121.966 308.546 121.872 308.555 121.846C308.572 121.769 309.631 122.06 311.365 122.222C313.099 122.393 315.534 122.393 318.13 121.803C320.693 121.197 323.059 120.308 324.101 118.941C324.631 118.275 324.853 117.591 324.913 117.121C324.981 116.643 324.93 116.369 324.964 116.369Z" fill="white"/>
<path d="M303.498 289.984C303.498 290.001 303.335 290.018 303.028 290.027C302.72 290.035 302.259 290.069 301.678 290.044C300.499 290.035 298.8 289.924 296.724 289.565C292.598 288.873 286.909 286.934 281.827 282.944C276.736 278.945 273.498 273.887 271.849 270.042C271.012 268.111 270.491 266.488 270.209 265.343C270.047 264.779 269.979 264.326 269.91 264.027C269.851 263.728 269.825 263.566 269.842 263.557C269.876 263.549 270.039 264.181 270.38 265.292C270.713 266.411 271.277 268.009 272.14 269.905C273.848 273.69 277.086 278.646 282.108 282.585C287.131 286.523 292.709 288.489 296.792 289.249C298.842 289.642 300.525 289.804 301.695 289.864C302.848 289.933 303.498 289.941 303.498 289.984Z" fill="#455A64"/>
<path d="M263.504 287.216C263.495 287.224 263.367 287.156 263.128 287.011C262.846 286.831 262.513 286.609 262.103 286.344C261.163 285.72 259.89 284.875 258.353 283.849C255.175 281.764 250.776 278.877 245.565 276.365C240.355 273.844 235.272 272.4 231.522 271.879C229.652 271.606 228.114 271.495 227.055 271.469C225.996 271.435 225.406 271.435 225.406 271.401C225.406 271.384 225.551 271.366 225.833 271.349C226.115 271.332 226.525 271.298 227.063 271.298C228.131 271.272 229.677 271.332 231.574 271.571C235.366 272.024 240.517 273.434 245.77 275.972C251.024 278.501 255.406 281.448 258.541 283.601C260.104 284.687 261.36 285.584 262.214 286.207C262.607 286.498 262.931 286.746 263.196 286.942C263.401 287.104 263.512 287.207 263.504 287.216Z" fill="#455A64"/>
<path d="M306.453 285.003L248.146 287.959L252.656 305.132L330.379 305.491L306.453 285.003Z" fill="#FFBE9D"/>
<path d="M250.845 287.822C250.845 287.822 232.001 278.407 229.669 278.33C227.884 278.27 217.531 280.022 212.765 280.85C210.937 281.166 209.544 282.858 209.843 284.687C209.86 284.806 209.886 284.917 209.929 285.02C210.595 286.899 212.56 287.036 212.56 287.036C212.56 287.036 210.194 288.121 210.561 290.821C210.928 293.521 214.285 293.598 214.285 293.598C214.285 293.598 214.114 293.769 213.884 294.085C212.372 296.136 213.747 299.058 216.284 299.246L217.804 299.357C217.804 299.357 215.942 300.484 216.25 302.33C216.848 305.867 224.928 305.337 224.928 305.337L252.656 305.141L250.845 287.822Z" fill="#FFBE9D"/>
<path d="M213.969 276.365C214.234 277.518 214.891 279.97 217.053 280.79L227.978 278.689C227.978 278.689 219.367 277.108 217.992 275.895C217.514 275.468 216.856 274.946 216.19 274.596C215.02 273.998 213.678 275.092 213.969 276.365Z" fill="#FFBE9D"/>
<path d="M222.785 279.372C222.819 279.56 220.606 280.124 217.822 280.491C215.054 280.859 212.799 281.098 212.756 280.902C212.722 280.714 214.934 280.15 217.719 279.782C220.487 279.406 222.75 279.167 222.785 279.372Z" fill="#EB996E"/>
<path d="M221.247 285.883C221.299 286.071 219.411 286.703 216.985 286.985C214.559 287.267 212.577 287.079 212.577 286.891C212.577 286.686 214.525 286.549 216.899 286.276C219.274 286.002 221.196 285.686 221.247 285.883Z" fill="#EB996E"/>
<path d="M226.722 284.251C226.902 284.328 226.782 284.96 226.218 285.456C225.663 285.951 225.022 285.994 224.963 285.806C224.894 285.618 225.304 285.31 225.74 284.917C226.184 284.533 226.534 284.165 226.722 284.251Z" fill="#EB996E"/>
<path d="M223.519 292.667C223.536 292.863 221.426 293.273 218.812 293.589C216.198 293.897 214.054 293.991 214.02 293.794C213.986 293.598 216.096 293.188 218.727 292.872C221.358 292.556 223.502 292.47 223.519 292.667Z" fill="#EB996E"/>
<path d="M229.354 288.771C229.439 288.728 229.644 288.924 229.764 289.352C229.883 289.762 229.875 290.42 229.533 291.026C229.191 291.633 228.627 291.975 228.209 292.086C227.782 292.205 227.508 292.128 227.5 292.034C227.466 291.838 228.397 291.573 228.901 290.667C229.422 289.779 229.166 288.839 229.354 288.771Z" fill="#EB996E"/>
<path d="M226.219 299.228C226.227 299.425 224.297 299.639 221.922 299.707C219.539 299.775 217.608 299.664 217.6 299.468C217.591 299.271 219.522 299.058 221.896 298.989C224.279 298.921 226.21 299.032 226.219 299.228Z" fill="#EB996E"/>
<path d="M231.822 294.828C231.908 294.803 232.087 295.025 232.138 295.452C232.198 295.879 232.087 296.477 231.779 297.033C231.122 298.126 230.276 298.622 230.156 298.502C229.986 298.357 230.618 297.597 231.156 296.682C231.694 295.76 231.643 294.888 231.822 294.828Z" fill="#EB996E"/>
<path d="M176.418 295.794C172.591 293.974 159.821 289.001 159.821 289.001L153.577 246.273L128.139 250.092C128.139 250.092 142.942 304.543 146.888 304.919C150.835 305.286 173.565 304.953 173.565 304.953L180.962 304.842C180.98 304.825 179.1 297.067 176.418 295.794Z" fill="#9B6E65"/>
<path d="M158.728 303.56C158.745 303.603 158.284 303.859 157.455 304.03C156.626 304.201 155.431 304.235 154.175 303.911C152.919 303.569 151.894 302.945 151.271 302.381C150.638 301.817 150.365 301.364 150.399 301.339C150.451 301.288 150.809 301.663 151.467 302.133C152.116 302.612 153.107 303.159 154.294 303.475C155.482 303.791 156.609 303.808 157.412 303.714C158.215 303.637 158.702 303.492 158.728 303.56Z" fill="#704C45"/>
<path d="M173.403 304.765C173.343 304.808 172.813 303.928 171.84 302.62C171.344 301.98 170.721 301.228 169.875 300.587C169.038 299.938 167.944 299.493 166.774 299.075C164.382 298.272 162.358 297.161 160.948 296.315C159.539 295.469 158.693 294.897 158.728 294.845C158.762 294.786 159.659 295.273 161.102 296.042C162.554 296.81 164.553 297.861 166.928 298.656C168.107 299.075 169.26 299.553 170.131 300.262C171.011 300.954 171.626 301.757 172.096 302.432C172.566 303.116 172.89 303.706 173.104 304.107C173.326 304.517 173.428 304.748 173.403 304.765Z" fill="#704C45"/>
<path d="M99.019 105.185L89.5972 111.67C89.5972 111.67 77.8946 110.961 69.4039 113.858C64.6972 115.464 58.9912 117.403 52.8153 123.658C47.169 129.373 43.0945 136.456 40.9932 144.223L29.6579 238.942L12.3945 305.782H127.267V221.205L138.261 182.406C138.261 182.406 135.408 177.938 135.493 176.143C135.587 174.358 141.994 133.013 141.994 133.013L128.899 117.343L99.019 105.185Z" fill="#FFC727"/>
<path d="M140.448 131.048C140.448 131.048 146.948 134.081 148.537 145.436C150.126 156.791 161.64 244.427 161.64 244.427C161.64 244.427 148.921 247.358 137.313 248.716L122.697 251.194L122.33 192.599L140.448 131.048Z" fill="#FFC727"/>
<g opacity="0.2">
<path d="M53.0889 303.125C72.6074 279.714 75.6825 245.76 95.4487 222.554C91.4169 224.819 87.3851 227.083 83.3533 229.347C85.4973 209.175 87.5559 188.199 80.8077 169.069C77.2286 214.694 67.6958 259.849 52.5166 303.031" fill="black"/>
</g>
<path d="M84.4121 132.877C83.9679 169.009 82.3108 205.116 79.4492 241.138C79.3125 242.898 78.5523 246.375 77.6041 249.4C76.7158 252.219 73.914 253.971 70.9926 253.527L47.4252 249.972C43.3251 249.28 41.7704 248.733 40.5404 246.085C39.6947 244.265 39.353 242.248 39.4043 240.241C40.3183 207.987 37.4994 190.899 39.4384 160.405" fill="#FFC727"/>
<path d="M39.4381 160.406C39.4381 160.406 39.4381 160.619 39.4296 161.038C39.4125 161.465 39.3869 162.08 39.3527 162.883C39.2673 164.498 39.1562 166.89 39.0623 169.966C38.9598 173.042 38.8914 176.81 38.8743 181.185C38.8829 185.559 38.9512 190.54 39.105 196.043C39.4039 207.047 39.9848 220.154 39.7371 234.721C39.6944 236.541 39.6602 238.387 39.6175 240.249C39.5662 242.086 39.8567 243.957 40.5913 245.683C40.9671 246.538 41.4284 247.375 42.1203 247.973C42.8037 248.588 43.7006 248.93 44.6231 249.178C46.4767 249.673 48.4328 249.896 50.389 250.203C54.3012 250.793 58.2903 251.391 62.3307 252.006C64.3551 252.314 66.3881 252.621 68.4382 252.929C69.4547 253.074 70.5054 253.262 71.5048 253.373C72.5042 253.433 73.5293 253.236 74.4347 252.783C75.3402 252.331 76.1175 251.647 76.6813 250.81C77.2536 249.981 77.5013 248.981 77.7917 247.982C78.3555 245.991 78.8253 243.992 79.1243 241.984C79.5001 237.934 79.7735 233.893 80.0724 229.954C80.6448 222.051 81.1487 214.429 81.5844 207.158C82.4386 192.625 83.028 179.527 83.4209 168.522C83.8224 157.518 84.0359 148.615 84.1726 142.455C84.2409 139.387 84.2922 137.003 84.3264 135.363C84.3434 134.56 84.3605 133.945 84.3776 133.518C84.3947 133.099 84.4118 132.894 84.4118 132.894C84.4118 132.894 84.4203 133.107 84.4289 133.526C84.4289 133.953 84.4289 134.568 84.4289 135.372C84.4118 137.003 84.3862 139.396 84.3605 142.463C84.2751 148.623 84.1043 157.535 83.7455 168.539C83.3867 179.544 82.84 192.651 82.0029 207.184C81.5844 214.455 81.0889 222.085 80.5166 229.988C80.2177 233.944 79.9529 237.951 79.5685 242.052C79.2695 244.094 78.7911 246.111 78.2274 248.11C77.9369 249.092 77.6807 250.152 77.0571 251.066C76.4592 251.972 75.6135 252.707 74.6397 253.194C73.6659 253.681 72.564 253.894 71.4877 253.826C70.4114 253.715 69.412 253.527 68.3784 253.382C66.3284 253.074 64.2953 252.766 62.2709 252.459C58.2305 251.844 54.2414 251.245 50.3292 250.656C48.373 250.348 46.4255 250.126 44.5121 249.614C43.5724 249.357 42.5986 248.99 41.8384 248.315C41.0696 247.648 40.5827 246.751 40.1983 245.871C39.4381 244.086 39.1391 242.146 39.1989 240.258C39.2416 238.395 39.2843 236.558 39.3271 234.738C39.5919 220.188 39.0452 207.081 38.7889 196.077C38.6522 190.574 38.6095 185.593 38.6266 181.21C38.6693 176.836 38.7633 173.068 38.8914 169.992C39.011 166.916 39.1477 164.524 39.2673 162.909C39.3185 162.106 39.3612 161.499 39.3954 161.072C39.4125 160.619 39.4381 160.406 39.4381 160.406Z" fill="#263238"/>
<path d="M127.259 253.287C127.25 253.287 127.25 253.193 127.25 253.014C127.25 252.809 127.259 252.544 127.267 252.211C127.293 251.476 127.327 250.451 127.37 249.135C127.421 246.461 127.754 242.607 128.309 237.865C128.659 235.499 128.95 232.901 129.505 230.142C129.77 228.757 129.992 227.322 130.308 225.861C130.624 224.4 130.949 222.896 131.282 221.35C132.666 215.19 134.434 208.474 136.082 201.382C139.516 187.225 140.721 174.016 140.456 164.481C140.371 162.106 140.294 159.944 140.225 158.047C140.123 156.159 139.935 154.536 139.832 153.203C139.73 151.895 139.644 150.87 139.585 150.135C139.559 149.802 139.542 149.537 139.533 149.341C139.525 149.161 139.525 149.067 139.533 149.067C139.542 149.067 139.559 149.161 139.585 149.332C139.61 149.537 139.644 149.794 139.679 150.127C139.756 150.853 139.867 151.878 140.012 153.186C140.14 154.518 140.353 156.133 140.473 158.03C140.558 159.927 140.661 162.088 140.772 164.472C141.114 174.024 139.961 187.293 136.518 201.476C134.869 208.576 133.084 215.284 131.683 221.427C131.35 222.965 131.017 224.468 130.701 225.929C130.385 227.39 130.146 228.817 129.881 230.193C129.317 232.944 129.01 235.533 128.642 237.891C128.044 242.624 127.669 246.469 127.566 249.135C127.489 250.442 127.421 251.467 127.378 252.202C127.352 252.535 127.335 252.8 127.318 252.997C127.284 253.202 127.267 253.287 127.259 253.287Z" fill="#263238"/>
<path d="M126.448 195.752C126.456 195.76 126.345 195.897 126.114 196.145C125.85 196.418 125.517 196.777 125.098 197.204C124.218 198.119 122.903 199.417 121.254 200.989C117.957 204.134 113.259 208.329 107.792 212.626C102.325 216.924 97.1314 220.504 93.2961 222.956C91.3826 224.186 89.8109 225.152 88.709 225.793C88.1879 226.092 87.7694 226.331 87.4362 226.527C87.1458 226.69 86.9835 226.767 86.975 226.758C86.9664 226.741 87.1116 226.639 87.385 226.451C87.7096 226.237 88.1111 225.972 88.6065 225.647C89.6742 224.964 91.2203 223.956 93.1081 222.691C96.8922 220.171 102.043 216.557 107.501 212.276C112.951 207.987 117.675 203.843 121.023 200.759C122.698 199.221 124.039 197.956 124.961 197.076C125.397 196.666 125.756 196.341 126.029 196.077C126.302 195.854 126.439 195.735 126.448 195.752Z" fill="#263238"/>
<g opacity="0.2">
<path d="M140.149 177.416C137.347 203.433 128.079 231.859 127.268 248.272C130.941 236.575 135.587 225.4 139.004 213.626C142.421 201.852 143.95 189.07 140.149 177.416Z" fill="black"/>
</g>
<path d="M157.079 26.1191C159.001 25.4441 160.573 23.8463 161.213 21.9069C161.854 19.9759 161.546 17.7545 160.402 16.0627C159.513 14.747 158.172 13.773 157.369 12.3974C156.703 11.261 156.464 9.92815 156.02 8.68927C154.593 4.70776 150.997 1.67463 146.923 0.54682C142.848 -0.58099 138.381 0.0854435 134.605 1.99076C133.102 2.75118 131.632 3.70811 129.958 3.85335C128.335 3.99006 126.763 3.34071 125.166 3.04167C121.365 2.34106 117.248 3.79355 114.736 6.73269C112.225 9.67183 111.43 13.9695 112.72 17.6178C108.338 18.3525 104.793 22.5135 104.768 26.9564C104.742 31.3993 108.236 35.6029 112.609 36.389C115.309 36.876 118.068 36.1754 120.741 35.5602C131.573 33.0653 142.694 31.8179 153.807 31.8606" fill="#263238"/>
<path d="M100.983 84.6797C96.8918 77.9043 95.2945 69.6593 96.5587 61.8416C97.8229 54.0238 101.001 44.5912 107.023 39.4563C104.4 35.1586 106.596 31.3993 109.859 27.5715C113.122 23.7353 117.982 21.6249 122.842 20.3262C130.086 18.3953 137.731 17.9852 145.137 19.1471C151.176 20.0955 158.958 22.7014 158.907 27.1785C158.856 31.8435 155.524 33.2789 155.524 33.2789C155.524 33.2789 161.128 36.1497 165.33 42.1818C171.378 50.854 172.847 58.6803 170.233 66.5664C167.62 74.4525 164.621 80.3992 158.753 84.5516" fill="#FFC727"/>
<path d="M152.073 93.0956C153.013 92.4633 154.277 91.9592 155.464 91.8567L155.242 91.7883C155.464 91.7798 155.678 91.8054 155.9 91.8311C156.754 91.8311 157.548 92.0617 158.129 92.6598L158.104 92.6513C159.248 93.4117 160.145 94.5908 160.461 95.9407C161.025 98.2818 160 100.862 158.138 102.383C156.523 103.707 154.149 104.271 152.286 103.323C150.569 102.451 149.613 100.486 149.527 98.5637C149.425 96.4619 150.33 94.2661 152.073 93.0956Z" fill="#455A64"/>
<path d="M98.583 111.465L108.082 48.7863C108.671 45.6421 111.558 43.4719 114.736 43.7881L148.4 42.3185C158.872 43.3523 163.075 57.3816 161.597 67.7968C159.957 79.3739 157.497 93.4373 154.379 101.682C148.118 118.266 134.528 117.728 134.528 117.728C134.536 117.668 131.982 129.604 130.624 135.816L123.679 160.405L98.583 111.465Z" fill="#EB996E"/>
<path d="M149.69 47.6841C149.69 47.6841 133.682 44.0102 117.649 59.5432C107.082 69.779 102.188 84.4234 102.188 84.4234L102.094 54.5364L109.525 42.515L121.962 38.6104L143.275 41.9255L150.382 47.5645" fill="#FFC727"/>
<path d="M117.897 42.4467C144.796 41.7546 163.434 54.6048 162.896 75.4693L170.926 63.3795L161.043 44.4972L147.29 37.5937L117 35.7823L117.897 42.4467Z" fill="#FFC727"/>
<path d="M98.6686 81.7406C99.6851 81.0571 101.035 80.5188 102.316 80.4077L102.077 80.3394C102.316 80.3308 102.547 80.3565 102.777 80.3821C103.7 80.3821 104.554 80.6299 105.178 81.2707L105.152 81.2621C106.391 82.0823 107.347 83.3554 107.689 84.7993C108.295 87.3198 107.194 90.0881 105.186 91.7371C103.444 93.1639 100.89 93.7706 98.8822 92.7453C97.0371 91.8054 96.012 89.6865 95.9095 87.6274C95.8156 85.3632 96.7894 82.9966 98.6686 81.7406Z" fill="#455A64"/>
<path d="M106.672 73.8972C106.655 73.9314 106.237 73.7605 105.622 73.2393C105.024 72.7096 104.246 71.7783 103.776 70.3941C103.307 69.0356 103.204 67.1389 104.067 65.3703C104.468 64.4988 105.007 63.6785 105.348 62.7814C105.716 61.9014 105.741 60.9103 105.212 60.0901C104.69 59.2613 103.836 58.6632 103.05 57.9968C102.247 57.356 101.547 56.5443 101.103 55.6813C100.189 53.9555 100.035 52.1441 100.232 50.7173C100.419 49.2733 100.975 48.2053 101.427 47.5474C101.88 46.881 102.256 46.6247 102.273 46.6418C102.418 46.7187 101.009 48.0088 100.736 50.7771C100.607 52.127 100.812 53.8017 101.684 55.3652C102.119 56.1513 102.717 56.8433 103.503 57.4585C104.263 58.0993 105.177 58.7059 105.818 59.7141C106.493 60.7223 106.425 62.0723 105.997 63.0292C105.596 64.0203 105.049 64.8405 104.656 65.6522C103.845 67.2414 103.879 68.9502 104.255 70.2403C104.631 71.5476 105.297 72.4703 105.809 73.0342C106.348 73.5896 106.706 73.8374 106.672 73.8972Z" fill="white"/>
<path d="M109.653 38.1063C109.79 38.1832 108.492 39.3794 108.03 41.9426C107.8 43.1985 107.842 44.7792 108.449 46.3427C109.013 47.9405 110.414 49.2221 111.763 50.7771C112.421 51.5631 113.027 52.4261 113.318 53.4172C113.617 54.4083 113.523 55.4421 113.267 56.3051C112.746 58.0395 111.9 59.3894 111.738 60.6454C111.533 61.9014 111.797 62.9523 112.19 63.5247C112.583 64.1143 113.002 64.2595 112.959 64.3193C112.951 64.345 112.848 64.3193 112.66 64.2424C112.481 64.157 112.216 63.9947 111.968 63.6956C111.447 63.1061 111.071 61.9527 111.234 60.5856C111.353 59.1758 112.19 57.7575 112.626 56.1342C112.848 55.3225 112.908 54.4595 112.643 53.6222C112.395 52.7764 111.849 51.9903 111.217 51.2385C109.944 49.7689 108.432 48.3506 107.834 46.582C107.21 44.8646 107.227 43.1729 107.535 41.8486C107.817 40.5157 108.389 39.5417 108.833 38.9436C109.286 38.3285 109.636 38.0892 109.653 38.1063Z" fill="white"/>
<path d="M125.055 54.1263C125.08 54.152 124.798 54.3485 124.32 54.1434C124.098 54.0409 123.85 53.8358 123.679 53.5197C123.5 53.2036 123.449 52.7593 123.534 52.3406C123.671 51.4606 124.346 50.666 124.576 49.7774C124.833 48.8974 124.209 47.9405 123.312 47.2228C122.398 46.5136 121.416 45.6336 120.972 44.6083C120.493 43.6086 120.34 42.6005 120.374 41.7802C120.451 40.1056 121.125 39.2512 121.168 39.3025C121.288 39.3452 120.818 40.2509 120.878 41.7802C120.912 42.5321 121.1 43.4378 121.561 44.3093C122.005 45.2149 122.791 45.907 123.773 46.676C124.243 47.069 124.705 47.5389 124.995 48.1113C125.302 48.6667 125.388 49.3759 125.208 49.9483C124.85 51.0761 124.175 51.7426 124.021 52.4517C123.808 53.1438 124.132 53.682 124.457 53.9127C124.781 54.1349 125.046 54.0665 125.055 54.1263Z" fill="white"/>
<path d="M132.905 41.2505C132.93 41.2163 133.084 41.242 133.238 41.4641C133.391 41.6777 133.477 42.0793 133.332 42.5236C133.195 42.9678 132.853 43.3609 132.631 43.7624C132.409 44.164 132.298 44.6681 132.307 45.2064C132.332 46.3086 132.853 47.2484 133.212 47.9234C133.588 48.5984 133.827 49.0426 133.742 49.1025C133.665 49.1537 133.298 48.8376 132.794 48.2053C132.315 47.5816 131.632 46.5649 131.589 45.2235C131.572 44.5656 131.734 43.9162 132.059 43.4207C132.384 42.9422 132.708 42.6346 132.853 42.3356C133.186 41.7033 132.853 41.3103 132.905 41.2505Z" fill="white"/>
<path d="M160.487 37.3715C160.522 37.4057 160.385 37.6364 160.06 38.0038C159.744 38.3712 159.223 38.8411 158.711 39.4819C158.181 40.1141 157.856 41.0027 157.933 42.1049C157.967 43.1814 158.284 44.4716 157.985 45.8557C157.711 47.2142 157.019 48.4018 156.165 49.2306C155.311 50.0765 154.312 50.5464 153.457 50.7856C151.715 51.247 150.604 50.854 150.638 50.7942C150.647 50.666 151.732 50.8625 153.304 50.3072C154.072 50.0252 154.952 49.5467 155.695 48.7692C156.438 48.0003 157.045 46.9323 157.284 45.719C157.549 44.5143 157.284 43.3011 157.276 42.122C157.216 40.9344 157.686 39.7895 158.326 39.1658C158.941 38.5079 159.505 38.1148 159.872 37.8073C160.248 37.5082 160.453 37.3373 160.487 37.3715Z" fill="white"/>
<path d="M170.114 51.9476C170.19 52.0843 169.242 52.2979 168.661 53.4941C168.371 54.1092 167.884 54.8269 167.474 55.6044C167.047 56.399 166.637 57.3389 165.936 58.2189C164.467 60.0302 162.204 60.3976 160.811 60.1755C159.359 59.9534 158.667 59.2955 158.718 59.2442C158.778 59.1331 159.53 59.5945 160.863 59.6714C162.152 59.7568 164.126 59.3296 165.381 57.7661C166.005 56.9886 166.432 56.0829 166.902 55.2798C167.389 54.451 167.876 53.8358 168.234 53.2292C168.61 52.614 169.14 52.221 169.516 52.0843C169.874 51.9305 170.096 51.9049 170.114 51.9476Z" fill="white"/>
<path d="M168.764 69.5739C168.841 69.6252 168.696 70.0182 168.218 70.471C167.748 70.9239 166.902 71.4023 165.869 71.4536C164.835 71.5049 163.938 71.1033 163.434 70.7017C162.913 70.2916 162.734 69.9157 162.802 69.8559C162.93 69.7021 164.083 70.8213 165.834 70.7359C167.586 70.659 168.628 69.4372 168.764 69.5739Z" fill="white"/>
<path d="M145.829 31.5701C145.872 31.6898 145.001 31.9375 144.053 32.903C143.122 33.8343 142.139 35.6542 142.575 37.6535C142.788 38.6275 143.207 39.7382 142.925 40.7806C142.669 41.7973 142.02 42.4894 141.473 42.9593C140.32 43.8821 139.448 44.1127 139.414 44.0444C139.355 43.9419 140.149 43.5318 141.131 42.5834C141.601 42.1049 142.114 41.4556 142.284 40.6353C142.489 39.8151 142.131 38.9009 141.883 37.7987C141.635 36.6709 141.815 35.526 142.199 34.6289C142.592 33.7232 143.147 33.0055 143.711 32.5356C144.847 31.5701 145.829 31.5018 145.829 31.5701Z" fill="white"/>
<path d="M127.079 40.4645C126.908 40.3448 127.754 38.9351 128.181 36.9956C128.625 35.0646 128.463 33.4242 128.676 33.39C128.856 33.3387 129.36 35.0561 128.881 37.1494C128.412 39.2512 127.216 40.5841 127.079 40.4645Z" fill="white"/>
<path d="M115.539 36.2779C115.514 36.2266 115.727 36.1326 115.949 35.8165C116.172 35.5175 116.402 34.9877 116.402 34.3128C116.445 32.9286 115.428 31.1515 114.711 28.9984C114.361 27.9048 114.198 26.7855 114.301 25.7688C114.386 24.752 114.771 23.8549 115.258 23.2568C115.736 22.6416 116.325 22.317 116.752 22.2144C117.188 22.1205 117.427 22.2144 117.419 22.2572C117.419 22.317 117.188 22.3255 116.838 22.4793C116.496 22.6416 116.043 22.9749 115.668 23.5559C114.848 24.6837 114.702 26.7342 115.394 28.7762C116.061 30.8268 117.077 32.715 116.915 34.3384C116.838 35.133 116.488 35.714 116.163 36.0045C115.821 36.3121 115.548 36.3206 115.539 36.2779Z" fill="white"/>
<path d="M133.478 32.0486C133.452 32.0059 133.623 31.8521 133.956 31.6043C134.255 31.3565 134.827 31.0148 134.99 30.4338C135.118 29.8784 134.733 29.0069 134.264 28.238C133.777 27.4348 133.068 26.6488 132.393 25.7175C131.752 24.7862 131.086 23.7865 131.154 22.616C131.265 21.5053 131.872 20.7363 132.342 20.1553C133.35 19.019 134.11 18.5063 134.17 18.5661C134.255 18.643 133.606 19.3095 132.743 20.4715C132.342 21.0525 131.863 21.8043 131.812 22.6587C131.769 23.479 132.35 24.4273 132.974 25.2988C134.272 27.0247 135.818 28.7677 135.477 30.5876C135.118 31.442 134.443 31.647 134.11 31.8435C133.717 32.0144 133.503 32.0913 133.478 32.0486Z" fill="white"/>
<path d="M149.929 32.621C149.887 32.5185 150.724 32.3476 151.185 31.2796C151.416 30.7585 151.501 30.092 151.356 29.3401C151.228 28.5883 150.895 27.7766 150.561 26.888C150.228 25.9994 149.972 25.0681 150.023 24.1796C150.075 23.2397 150.561 22.5562 150.98 22.0777C151.851 21.061 152.834 21.0439 152.799 21.1635C152.808 21.249 152.056 21.4113 151.373 22.3939C151.04 22.8638 150.681 23.4875 150.681 24.2052C150.664 24.9485 150.903 25.7773 151.228 26.6402C151.552 27.5032 151.894 28.3747 151.996 29.2376C152.125 30.092 151.962 30.9379 151.621 31.5103C151.287 32.0999 150.826 32.4416 150.485 32.5698C150.143 32.6979 149.938 32.6638 149.929 32.621Z" fill="white"/>
<path d="M155.533 33.2704C155.524 33.3217 154.815 33.1935 153.559 32.9372C152.312 32.6467 150.476 32.3391 148.212 32.0059C143.685 31.3907 137.313 31.0831 130.419 32.2707C123.534 33.4498 117.546 35.6115 113.267 37.2604C111.234 38.0721 109.534 38.7471 108.218 39.2768C107.031 39.7553 106.356 40.0031 106.339 39.9604C106.322 39.9176 106.946 39.5844 108.107 39.0205C109.261 38.4566 110.96 37.6876 113.079 36.7905C117.316 35.0219 123.329 32.7578 130.3 31.5616C137.27 30.3569 143.736 30.7499 148.28 31.5018C150.553 31.9033 152.381 32.2964 153.619 32.6638C154.866 33.0141 155.55 33.2277 155.533 33.2704Z" fill="#263238"/>
<path d="M111.78 40.4388C111.78 40.4474 111.84 40.4388 111.96 40.4217C112.105 40.3961 112.276 40.3619 112.481 40.3192C112.72 40.2679 113.002 40.2081 113.326 40.1483C113.668 40.0971 114.052 40.0373 114.488 39.9689C116.231 39.7211 118.802 39.499 121.945 39.7809C125.089 40.0287 128.796 40.7891 132.751 42.1476C134.724 42.8226 136.757 43.6514 138.841 44.5656C140.917 45.4883 143.044 46.4965 145.145 47.6756C153.662 52.2466 159.445 59.4663 161.469 65.413C162.52 68.3863 162.759 70.9666 162.844 72.7267C162.896 73.6067 162.887 74.2987 162.879 74.7601C162.879 74.9737 162.879 75.1446 162.879 75.2899C162.879 75.4095 162.887 75.4693 162.896 75.4693C162.904 75.4693 162.913 75.4095 162.921 75.2899C162.93 75.1446 162.947 74.9737 162.955 74.7601C162.99 74.2902 163.024 73.6067 162.998 72.7181C162.955 70.9495 162.768 68.3436 161.734 65.319C159.752 59.2613 153.935 51.922 145.342 47.3168C143.223 46.1291 141.088 45.1124 138.995 44.1982C136.902 43.284 134.861 42.4552 132.862 41.7888C128.881 40.4474 125.131 39.7126 121.962 39.4904C118.785 39.2427 116.205 39.5161 114.454 39.8151C114.027 39.9005 113.634 39.9689 113.292 40.0373C112.968 40.1227 112.694 40.191 112.455 40.2509C112.25 40.3107 112.079 40.3534 111.943 40.3876C111.84 40.4046 111.78 40.4303 111.78 40.4388Z" fill="#263238"/>
<path d="M145.248 47.6329C145.248 47.6158 145.06 47.5816 144.684 47.5389C144.317 47.4791 143.762 47.4364 143.053 47.4107C141.635 47.368 139.559 47.4876 137.09 48.0772C132.153 49.2477 125.636 52.3406 119.853 57.5354C116.94 60.1071 114.574 62.9608 112.472 65.5668C110.388 68.1898 108.637 70.6505 107.296 72.8121C105.946 74.9566 105.024 76.8021 104.46 78.1008C104.178 78.7502 103.973 79.2628 103.862 79.6217C103.742 79.972 103.683 80.1599 103.691 80.1685C103.708 80.177 103.785 79.9976 103.939 79.6558C104.076 79.3141 104.306 78.81 104.605 78.1777C105.212 76.9047 106.168 75.1019 107.544 72.983C108.902 70.8555 110.67 68.4205 112.763 65.8231C114.873 63.2343 117.23 60.4147 120.118 57.8601C125.841 52.708 132.281 49.6065 137.15 48.3762C139.593 47.7525 141.635 47.5902 143.044 47.5816C143.745 47.5902 144.3 47.5987 144.667 47.6329C145.052 47.6414 145.248 47.6414 145.248 47.6329Z" fill="#263238"/>
<path d="M0 302.808C0 302.808 5.22771 301.091 8.58472 300.126C10.4383 299.596 18.1091 296.195 22.773 295.324C26.6681 294.589 37.4567 289.078 39.1309 287.95C40.8052 286.823 47.4167 249.972 47.4167 249.972L72.3594 253.732C72.3594 253.732 59.0594 289.266 58.2223 292.667C57.3852 296.067 54.2247 304.833 54.2247 304.833H0V302.808Z" fill="#9B6E65"/>
<path d="M43.6837 304.005C43.6751 303.928 44.5037 303.859 45.7081 303.347C46.904 302.851 48.4672 301.817 49.5179 300.134C50.5685 298.451 50.8077 296.588 50.7308 295.298C50.6625 293.991 50.355 293.213 50.4318 293.188C50.4575 293.179 50.56 293.359 50.6966 293.709C50.8333 294.059 50.97 294.589 51.0469 295.264C51.2177 296.597 51.0127 298.571 49.9022 300.356C48.7832 302.142 47.1005 303.193 45.8277 303.62C45.1871 303.842 44.6489 303.953 44.2731 303.987C43.8887 304.047 43.6837 304.039 43.6837 304.005Z" fill="#704C45"/>
<path d="M40.4119 302.185C40.4204 302.202 40.241 302.279 39.9079 302.407C39.5662 302.535 39.0452 302.68 38.3703 302.808C37.0036 303.056 34.9877 302.979 32.5361 302.937C31.3146 302.945 29.965 302.996 28.5983 303.415C27.2316 303.817 25.8648 304.577 24.2931 305.098C21.1497 306.149 17.246 305.987 13.7864 304.304L13.2568 304.047L13.8292 303.893C13.9914 303.851 14.1623 303.8 14.3331 303.757C16.1526 303.227 17.8524 302.441 19.3558 301.476C20.8763 300.527 22.132 299.322 23.3962 298.229C25.899 295.973 28.7435 294.726 31.1438 293.974C33.5526 293.213 35.5686 292.846 36.9524 292.59C37.6101 292.479 38.1397 292.393 38.5497 292.325C38.917 292.274 39.1135 292.248 39.1135 292.265C39.1135 292.282 38.9256 292.333 38.5668 292.41C38.1568 292.496 37.6357 292.615 36.9865 292.761C35.6198 293.068 33.621 293.478 31.2463 294.273C28.8802 295.059 26.1211 296.306 23.6695 298.536C22.431 299.63 21.1497 300.86 19.6035 301.843C18.066 302.834 16.332 303.646 14.4698 304.193C14.2904 304.244 14.1196 304.287 13.9573 304.338L14 303.919C17.3485 305.56 21.1411 305.73 24.1821 304.731C25.7111 304.235 27.0863 303.483 28.5129 303.082C29.9394 302.663 31.3232 302.638 32.5532 302.646C35.0219 302.732 37.0036 302.86 38.3618 302.663C39.6944 302.458 40.3948 302.142 40.4119 302.185Z" fill="#704C45"/>
<path d="M408.667 239.617L394.171 273.178L380.726 316.393L511 317L508.787 235.157L444.756 228.621L408.667 239.617Z" fill="#263238"/>
<path d="M339.033 244.777C339.033 244.777 328.535 248.768 320.334 251.185C312.134 253.603 297.467 262.643 297.467 262.643C297.467 262.643 282.579 276.083 283.091 277.843C283.604 279.603 285.397 280.474 287.661 278.663C289.925 276.843 301.098 270.239 301.098 270.239C301.098 270.239 301.815 273.972 304.241 274.408C306.658 274.844 307.923 274.237 307.923 274.237C307.923 274.237 308.914 277.749 310.656 278.894C312.399 280.039 314.005 280.329 314.005 280.329C314.005 280.329 313.936 282.26 316.311 282.961C318.686 283.661 320.932 283.507 320.932 283.507C320.932 283.507 328.714 278.791 329.953 276.51C331.191 274.237 332.703 271.17 332.703 271.17L335.915 269.564L345.781 267.889L339.033 244.777Z" fill="#C78976"/>
<path d="M328.201 262.523C328.201 262.523 327.936 263.002 327.236 263.711C326.552 264.437 325.391 265.343 323.768 266.155C322.145 266.975 320.035 267.675 317.558 267.906C316.328 268.009 314.995 268.017 313.645 267.744C312.296 267.479 310.903 266.983 309.673 266.112L309.93 265.762C310.869 266.454 311.8 267.223 312.68 268.094C313.124 268.538 313.551 269 313.919 269.538C314.295 270.085 314.534 270.717 314.662 271.375C314.969 272.973 314.534 274.639 313.594 275.843L313.492 275.972L313.338 275.912C311.783 275.297 310.408 274.442 309.144 273.571C307.88 272.699 306.718 271.794 305.633 270.922C304.548 270.042 303.523 269.256 302.558 268.444C301.627 267.547 301.277 266.283 301.413 265.223C301.482 264.685 301.678 264.215 301.857 263.788C302.037 263.352 302.225 262.959 302.404 262.592C302.771 261.857 303.13 261.25 303.438 260.772C303.745 260.293 304.01 259.935 304.198 259.695C304.386 259.456 304.488 259.345 304.497 259.354C304.506 259.362 304.42 259.49 304.258 259.747C304.095 259.994 303.856 260.37 303.566 260.857C303.284 261.344 302.942 261.959 302.601 262.694C302.43 263.062 302.259 263.463 302.088 263.89C301.926 264.326 301.738 264.77 301.695 265.266C301.584 266.249 301.926 267.402 302.789 268.205C303.711 268.957 304.779 269.769 305.864 270.623C306.957 271.477 308.119 272.375 309.374 273.229C310.63 274.083 311.98 274.912 313.483 275.502L313.235 275.57C314.09 274.468 314.5 272.921 314.218 271.452C314.098 270.854 313.876 270.273 313.543 269.786C313.201 269.29 312.783 268.829 312.356 268.402C311.493 267.547 310.57 266.787 309.656 266.103L309.904 265.753C311.074 266.59 312.398 267.069 313.697 267.334C315.004 267.616 316.293 267.616 317.506 267.53C319.924 267.325 322.017 266.676 323.623 265.898C325.237 265.129 326.407 264.275 327.108 263.6C327.859 262.942 328.167 262.498 328.201 262.523Z" fill="#925B4C"/>
<path d="M314.166 273.52C314.149 273.451 314.662 273.323 315.448 273.007C316.217 272.691 317.31 272.204 318.232 271.358C318.685 270.931 319.001 270.427 319.112 269.923C319.215 269.427 319.095 268.94 318.916 268.598C318.531 267.872 317.933 267.821 317.959 267.752C317.959 267.727 318.104 267.701 318.352 267.769C318.591 267.838 318.941 268.051 319.189 268.436C319.437 268.82 319.625 269.376 319.514 269.999C319.411 270.615 319.035 271.204 318.54 271.674C317.523 272.597 316.379 273.033 315.55 273.297C314.722 273.554 314.175 273.579 314.166 273.52Z" fill="#925B4C"/>
<path d="M316.354 279.483C316.319 279.423 317.08 279.005 318.25 278.253C318.831 277.877 319.514 277.416 320.249 276.86C320.966 276.296 321.812 275.707 322.47 274.938C322.794 274.553 323.051 274.118 323.145 273.673C323.238 273.229 323.17 272.785 322.991 272.4C322.623 271.623 321.914 271.161 321.282 270.973C320.642 270.777 320.078 270.777 319.694 270.777C319.309 270.785 319.096 270.811 319.087 270.777C319.079 270.751 319.284 270.666 319.676 270.606C320.069 270.546 320.659 270.495 321.368 270.666C322.068 270.828 322.905 271.315 323.358 272.221C323.589 272.665 323.683 273.22 323.572 273.767C323.461 274.314 323.17 274.801 322.811 275.228C322.077 276.074 321.231 276.647 320.488 277.202C319.728 277.74 319.019 278.185 318.412 278.526C317.191 279.21 316.379 279.526 316.354 279.483Z" fill="#925B4C"/>
<path d="M326.715 278.791C326.655 278.748 326.98 278.364 327.083 277.638C327.202 276.937 327.014 275.809 326.16 275.134C325.28 274.476 324.144 274.588 323.503 274.887C322.829 275.177 322.547 275.587 322.487 275.536C322.444 275.527 322.641 275.006 323.367 274.596C324.05 274.195 325.366 273.981 326.433 274.775C327.476 275.613 327.612 276.937 327.399 277.698C327.177 278.509 326.732 278.834 326.715 278.791Z" fill="#925B4C"/>
<path d="M391.336 290.052L388.602 294.102L368.153 294.059L342.125 304.551H409.368C409.94 303.842 411.691 301.159 411.691 301.159C406.967 298.588 391.336 290.052 391.336 290.052Z" fill="#C78976"/>
<path d="M484.511 165.609C469.836 141.848 438.282 112.807 435.599 111.474C432.917 110.132 389.789 107.424 389.789 107.424L355.723 131.595L344.413 148.504C342.867 153.314 340.151 160.73 341.39 165.626L342.44 173.965L377.975 196.905L395.648 207.218L405.489 221.179L404.703 244.487L418.626 241.838C418.626 241.838 440.067 243.957 460.619 244.461C481.171 244.965 509.437 238.438 509.437 238.438C509.437 238.438 500.886 192.112 484.511 165.609Z" fill="#E0E0E0"/>
<path d="M402.551 148.341L414.612 215.275L389.593 289.112L414.612 302.766C414.612 302.766 432.482 271.315 440.52 252.288C448.558 233.26 451.497 222.631 451.497 222.631C451.497 222.631 451.463 150.289 448.891 141.95C446.32 133.611 437.838 117.079 428.903 117.976C419.968 118.856 398.886 128.032 402.551 148.341Z" fill="#E0E0E0"/>
<path d="M342.441 173.965L363.992 226.758C363.992 226.758 362.19 229.543 361.395 232.97L334.548 246.273L342.441 271.691C342.441 271.691 375.977 260.55 380.726 257.987C385.475 255.423 399.177 245.658 401.551 237.746C403.926 229.834 390.763 201.767 390.763 201.767L342.441 173.965Z" fill="#E0E0E0"/>
<path d="M395.649 207.227C395.641 207.244 395.487 207.167 395.188 207.004C394.855 206.816 394.428 206.577 393.915 206.287C392.813 205.654 391.224 204.732 389.285 203.553C387.346 202.374 385.048 200.947 382.563 199.246C381.324 198.392 380.043 197.469 378.762 196.444C377.506 195.402 376.199 194.325 374.866 193.214C369.579 188.78 364.787 184.773 361.268 181.817C359.576 180.373 358.192 179.185 357.176 178.322C356.732 177.929 356.364 177.604 356.083 177.357C355.835 177.135 355.707 177.006 355.715 176.998C355.724 176.989 355.869 177.083 356.134 177.288C356.433 177.528 356.817 177.827 357.287 178.194C358.321 179.031 359.739 180.176 361.464 181.577C365.009 184.499 369.818 188.472 375.148 192.873C376.481 193.983 377.779 195.06 379.035 196.102C380.299 197.127 381.572 198.05 382.793 198.913C385.254 200.622 387.526 202.083 389.448 203.296C391.335 204.475 392.882 205.441 394.001 206.15C394.505 206.466 394.915 206.731 395.231 206.936C395.512 207.107 395.658 207.209 395.649 207.227Z" fill="#263238"/>
<path d="M398.143 110.508C398.143 110.508 398.886 111.286 399.792 112.995C400.688 114.686 401.637 117.395 401.705 120.855C401.731 122.581 401.534 124.478 401.03 126.443C400.501 128.408 399.663 130.424 398.493 132.381C396.161 136.311 392.531 139.942 388.106 142.779C383.69 145.616 378.77 147.299 374.191 147.401C369.596 147.581 365.538 145.992 362.779 143.958C359.96 141.925 358.406 139.472 357.654 137.712C357.44 137.277 357.321 136.867 357.21 136.516C357.081 136.166 357.013 135.858 356.962 135.611C356.919 135.388 356.876 135.2 356.842 135.047C356.817 134.919 356.808 134.85 356.817 134.85C356.876 134.833 357.022 135.901 357.808 137.636C358.593 139.344 360.165 141.728 362.958 143.693C365.7 145.658 369.672 147.188 374.174 146.983C378.667 146.855 383.502 145.197 387.858 142.395C392.223 139.592 395.819 136.012 398.126 132.159C399.288 130.236 400.125 128.254 400.663 126.332C401.175 124.401 401.389 122.538 401.38 120.838C401.346 117.429 400.458 114.746 399.621 113.046C399.416 112.619 399.219 112.243 399.023 111.927C398.843 111.61 398.681 111.337 398.536 111.132C398.408 110.944 398.305 110.782 398.22 110.654C398.169 110.577 398.143 110.517 398.143 110.508Z" fill="#263238"/>
<path d="M388.866 141.361C388.746 141.412 388.123 140.028 387.072 138.498C386.03 136.969 384.954 135.893 385.048 135.799C385.116 135.713 386.363 136.662 387.44 138.242C388.533 139.823 388.977 141.327 388.866 141.361Z" fill="#263238"/>
<path d="M396.998 133.757C396.896 133.842 395.879 132.56 394.137 131.663C392.411 130.741 390.771 130.638 390.788 130.501C390.771 130.39 392.505 130.296 394.342 131.27C396.187 132.227 397.101 133.714 396.998 133.757Z" fill="#263238"/>
<path d="M401.449 124.683C401.406 124.802 400.151 124.418 398.57 124.204C396.99 123.974 395.675 123.999 395.666 123.871C395.649 123.76 396.99 123.529 398.63 123.76C400.279 123.991 401.5 124.58 401.449 124.683Z" fill="#263238"/>
<path d="M400.68 114.131C400.688 114.259 399.509 114.439 398.1 114.84C396.69 115.233 395.589 115.703 395.529 115.592C395.469 115.489 396.52 114.823 397.98 114.413C399.441 113.994 400.68 114.011 400.68 114.131Z" fill="#263238"/>
<path d="M375.097 146.487C374.994 146.538 374.422 145.342 374.439 143.744C374.439 142.147 375.028 140.959 375.131 141.01C375.259 141.053 374.883 142.241 374.883 143.744C374.866 145.248 375.216 146.444 375.097 146.487Z" fill="#263238"/>
<path d="M361.327 143.779C361.233 143.702 361.78 142.899 362.557 142.002C363.326 141.096 364.026 140.429 364.12 140.515C364.214 140.592 363.667 141.386 362.89 142.292C362.121 143.198 361.421 143.864 361.327 143.779Z" fill="#263238"/>
<path d="M448.891 141.942C448.891 141.942 448.934 142.061 448.994 142.301C449.053 142.54 449.164 142.899 449.233 143.377C449.421 144.334 449.591 145.769 449.779 147.649C450.138 151.408 450.454 156.936 450.728 163.994C451.257 178.1 451.607 198.298 451.684 222.623V222.648L451.676 222.674C449.873 228.8 447.593 235.08 445.09 241.548C442.561 248.007 439.845 254.689 436.625 261.387C430.218 274.793 422.77 288.668 414.8 302.868L414.689 303.056L414.492 302.954C413.766 302.552 412.972 302.125 412.177 301.689C404.447 297.468 396.853 293.325 389.473 289.292L389.311 289.206L389.37 289.027C398.749 261.396 407.326 236.122 414.433 215.207L414.424 215.292C410.777 194.863 407.787 178.134 405.711 166.497C404.686 160.687 403.883 156.15 403.337 153.057C403.072 151.52 402.867 150.34 402.73 149.537C402.593 148.743 402.542 148.333 402.542 148.333C402.542 148.333 402.636 148.734 402.781 149.529C402.935 150.332 403.149 151.502 403.439 153.04C404.011 156.133 404.84 160.662 405.908 166.463C408.026 178.091 411.067 194.821 414.774 215.232L414.783 215.275L414.766 215.318C407.684 236.242 399.142 261.524 389.789 289.164L389.686 288.899C397.075 292.932 404.661 297.075 412.391 301.288C413.185 301.723 413.971 302.151 414.706 302.552L414.407 302.638C422.377 288.446 429.825 274.579 436.232 261.191C439.452 254.509 442.168 247.836 444.705 241.385C447.217 234.926 449.506 228.646 451.3 222.554L451.291 222.606C451.257 198.281 450.958 178.091 450.497 163.985C450.266 156.936 449.976 151.408 449.651 147.649C449.48 145.769 449.327 144.334 449.156 143.377C449.096 142.89 448.994 142.54 448.942 142.301C448.917 142.061 448.891 141.942 448.891 141.942Z" fill="#263238"/>
<path d="M432.619 123.743C432.576 123.828 431.149 122.871 428.57 122.026C426.016 121.171 422.189 120.573 418.131 121.402C414.065 122.239 410.794 124.29 408.778 126.084C406.736 127.878 405.805 129.314 405.728 129.262C405.711 129.245 405.925 128.878 406.378 128.263C406.83 127.648 407.556 126.793 408.564 125.853C410.555 123.974 413.878 121.829 418.038 120.975C422.197 120.129 426.101 120.795 428.664 121.735C429.962 122.205 430.962 122.701 431.619 123.094C432.294 123.47 432.636 123.726 432.619 123.743Z" fill="#263238"/>
<g opacity="0.3">
<path d="M442.775 246.99C442.912 246.631 443.04 246.281 443.177 245.922C443.1 245.974 443.032 246.025 442.955 246.076L442.775 246.99Z" fill="black"/>
<path d="M456.272 199.921C455.195 188.951 453.777 177.98 450.924 167.335C448.516 185.824 453.256 204.774 450.087 223.144C448.738 230.97 445.987 238.481 443.177 245.914C450.164 241.343 454.375 233.346 456.041 225.16C457.724 216.89 457.1 208.329 456.272 199.921Z" fill="black"/>
</g>
<g opacity="0.3">
<path d="M392.762 205.492L363.096 183.098C363.429 191.446 369.776 198.298 376.379 203.424C382.981 208.551 391.951 214.446 398.212 219.983C396.145 215.369 394.829 210.106 392.762 205.492Z" fill="black"/>
</g>
<path d="M405.831 164.541C405.839 164.549 405.677 164.746 405.352 165.105C405.028 165.463 404.541 165.993 403.892 166.651C402.593 167.95 400.706 169.881 397.921 171.701C396.529 172.598 394.888 173.443 392.984 173.939C391.087 174.418 388.909 174.494 386.765 173.922C384.612 173.367 382.545 172.282 380.529 171.034C378.496 169.795 376.506 168.351 374.294 167.198C372.09 166.044 369.749 165.199 367.417 165.13C365.077 165.028 362.907 165.925 361.165 167.172C359.396 168.411 357.944 169.889 356.492 171.188C355.049 172.487 353.605 173.631 352.093 174.358C350.598 175.11 349.052 175.4 347.72 175.272C346.387 175.169 345.294 174.725 344.516 174.204C343.73 173.683 343.278 173.085 343.047 172.666C342.808 172.239 342.748 171.991 342.748 171.991C342.774 171.982 342.868 172.222 343.124 172.623C343.38 173.025 343.841 173.589 344.619 174.067C345.379 174.554 346.455 174.956 347.745 175.033C349.035 175.135 350.513 174.836 351.956 174.084C353.417 173.358 354.826 172.23 356.244 170.923C357.671 169.624 359.123 168.121 360.925 166.848C361.822 166.215 362.822 165.634 363.924 165.25C365.017 164.857 366.221 164.669 367.434 164.703C369.869 164.763 372.269 165.634 374.507 166.805C376.762 167.975 378.753 169.428 380.769 170.667C382.776 171.906 384.8 172.982 386.885 173.529C387.927 173.802 388.969 173.956 389.985 173.931C391.002 173.948 391.984 173.794 392.915 173.58C394.769 173.11 396.392 172.299 397.776 171.436C400.543 169.676 402.465 167.787 403.798 166.531C404.43 165.908 404.934 165.412 405.31 165.045C405.634 164.703 405.822 164.532 405.831 164.541Z" fill="white"/>
<path d="M449.164 159.354C449.173 159.363 449.053 159.483 448.805 159.696C448.549 159.893 448.156 160.175 447.575 160.405C446.448 160.901 444.569 161.149 442.425 160.559C437.983 159.534 434.028 154.091 427.374 152.861C425.776 152.459 424.162 152.331 422.607 152.254C421.052 152.263 419.549 152.34 418.14 152.596C415.312 153.066 412.878 153.997 410.964 155.006C407.103 157.039 405.412 159.278 405.327 159.158C405.318 159.149 405.421 159.021 405.643 158.782C405.899 158.509 406.224 158.175 406.616 157.757C407.078 157.364 407.633 156.851 408.333 156.321C408.692 156.074 409.077 155.8 409.478 155.518C409.88 155.228 410.349 154.997 410.828 154.724C412.75 153.664 415.218 152.69 418.08 152.186C419.506 151.913 421.044 151.819 422.624 151.81C424.205 151.878 425.853 152.007 427.485 152.417C429.133 152.758 430.662 153.382 432.106 154.031C432.798 154.425 433.498 154.775 434.139 155.176C434.779 155.586 435.386 156.014 435.975 156.432C438.299 158.133 440.426 159.653 442.519 160.234C444.594 160.841 446.405 160.653 447.524 160.217C448.66 159.833 449.13 159.303 449.164 159.354Z" fill="white"/>
<path d="M471.357 147.367C471.374 147.41 470.964 147.589 470.332 148.076C469.708 148.563 468.888 149.409 468.214 150.665C467.522 151.913 466.983 153.536 466.599 155.399C466.18 157.253 465.864 159.354 464.968 161.422C464.071 163.49 462.525 165.13 460.85 166.121C459.193 167.155 457.459 167.599 456.007 167.753C454.546 167.881 453.35 167.71 452.573 167.48C452.172 167.394 451.881 167.258 451.685 167.189C451.488 167.112 451.386 167.061 451.386 167.053C451.403 167.01 451.821 167.164 452.607 167.317C453.385 167.488 454.555 167.608 455.973 167.446C457.374 167.258 459.048 166.796 460.637 165.78C462.243 164.805 463.695 163.233 464.558 161.251C465.42 159.26 465.753 157.176 466.198 155.313C466.616 153.442 467.197 151.776 467.94 150.511C468.675 149.238 469.555 148.392 470.229 147.94C470.571 147.709 470.853 147.555 471.049 147.478C471.246 147.393 471.348 147.359 471.357 147.367Z" fill="white"/>
<path d="M371.373 189.677C371.407 189.686 371.339 190.002 371.202 190.583C371.134 190.873 371.048 191.224 370.894 191.625C370.749 192.018 370.612 192.488 370.373 192.967C370.151 193.454 369.912 193.992 369.587 194.522C369.297 195.077 368.904 195.632 368.503 196.213C367.657 197.341 366.623 198.52 365.368 199.563C364.103 200.605 362.771 201.417 361.507 202.04C360.217 202.621 359.012 203.048 357.962 203.262C357.449 203.399 356.962 203.45 356.544 203.51C356.125 203.578 355.758 203.595 355.468 203.604C354.87 203.621 354.545 203.612 354.545 203.587C354.536 203.493 355.86 203.484 357.893 202.963C358.91 202.715 360.08 202.271 361.336 201.681C362.566 201.049 363.864 200.246 365.094 199.229C366.324 198.204 367.341 197.068 368.187 195.974C368.588 195.41 368.981 194.88 369.28 194.342C369.613 193.821 369.869 193.308 370.1 192.838C370.997 190.942 371.279 189.651 371.373 189.677Z" fill="white"/>
<path d="M505.541 260.379C505.55 260.413 505.046 260.498 504.14 260.627C503.688 260.704 503.132 260.772 502.483 260.797C501.834 260.832 501.091 260.909 500.271 260.866C499.451 260.857 498.554 260.84 497.589 260.738C496.623 260.678 495.607 260.498 494.531 260.328C492.404 259.909 490.089 259.268 487.765 258.32C485.45 257.346 483.366 256.158 481.564 254.945C480.684 254.304 479.838 253.715 479.112 253.074C478.361 252.467 477.711 251.843 477.131 251.271C476.524 250.716 476.054 250.135 475.619 249.656C475.174 249.178 474.833 248.733 474.568 248.357C474.021 247.623 473.731 247.213 473.756 247.187C473.782 247.17 474.115 247.546 474.705 248.246C474.995 248.597 475.354 249.024 475.807 249.485C476.259 249.947 476.738 250.511 477.353 251.04C477.942 251.596 478.6 252.202 479.351 252.783C480.078 253.407 480.923 253.979 481.795 254.603C483.588 255.782 485.655 256.944 487.936 257.901C490.234 258.841 492.506 259.482 494.608 259.917C495.667 260.097 496.666 260.293 497.623 260.37C498.571 260.498 499.459 260.533 500.271 260.558C501.082 260.618 501.817 260.558 502.466 260.55C503.115 260.55 503.671 260.507 504.123 260.456C505.029 260.379 505.533 260.345 505.541 260.379Z" fill="#455A64"/>
<path d="M437.06 303.526C436.941 303.5 438.769 295.025 441.152 284.61C443.527 274.186 445.551 265.762 445.671 265.787C445.79 265.813 443.962 274.28 441.579 284.704C439.204 295.127 437.18 303.552 437.06 303.526Z" fill="#455A64"/>
<path d="M396.28 120.436C396.4 118.787 396.101 117.138 395.417 115.635L369.501 58.8768C363.462 42.5748 348.94 32.51 332.813 39.0034L331.361 39.6869C316.72 46.5991 309.835 63.6016 315.549 78.7587C320.863 92.8563 326.919 108.355 330.447 115.601C337.75 130.595 353.946 125.819 353.946 125.819L356.961 131.595C356.961 131.595 360.122 142.48 373.635 140.951C384.022 139.78 391.718 129.69 394.725 125.076C395.631 123.692 396.16 122.094 396.28 120.436Z" fill="#C78976"/>
<path d="M353.81 125.862C353.81 125.862 363.71 121.889 370.834 110.748C370.834 110.748 371.312 123.794 355.62 129.544L353.81 125.862Z" fill="#925B4C"/>
<path d="M313.739 71.1545C313.739 71.1545 313.261 59.8337 316.771 55.4763C321.025 50.2046 326.253 55.1345 330.814 51.1872C335.376 47.2399 339.425 42.1903 346.711 43.7197C354.689 45.3943 353.408 49.8116 356.927 56.3307C371.21 82.7659 379.786 88.1059 375.156 74.6576C374.652 73.188 378.009 70.2403 375.788 64.0459C372.909 56.0231 368.809 46.5649 364.53 41.934C360.925 38.0294 356.808 36.0899 350.47 34.8083C340.458 32.7919 330.234 37.474 323.656 41.4299C317.087 45.3943 307.52 59.6287 313.739 71.1545Z" fill="#263238"/>
<path d="M374.003 74.7003C372.995 72.3251 374.14 69.5397 376.557 68.6682C379.495 67.6088 383.382 67.7284 385.936 73.6238C390.472 84.0902 379.034 86.4911 378.88 86.2006C378.786 86.004 375.865 79.1005 374.003 74.7003Z" fill="#C78976"/>
<path d="M379.461 81.2707C379.495 81.2194 379.7 81.3219 380.067 81.3305C380.426 81.339 380.981 81.2109 381.443 80.7666C382.374 79.878 382.545 77.7249 381.776 75.811C381.392 74.8456 380.794 74.0253 380.136 73.4187C379.487 72.795 378.761 72.4703 378.154 72.6156C377.548 72.7266 377.291 73.2307 377.291 73.5811C377.274 73.9314 377.437 74.1108 377.385 74.1535C377.368 74.1962 377.086 74.0766 376.984 73.6067C376.941 73.376 376.95 73.077 377.112 72.7694C377.274 72.4532 377.599 72.1884 378 72.0688C378.829 71.7783 379.88 72.2055 380.606 72.8634C381.383 73.5127 382.066 74.4269 382.502 75.5035C383.348 77.6395 383.126 80.083 381.802 81.1767C381.152 81.6893 380.435 81.732 380.016 81.621C379.589 81.5184 379.435 81.3048 379.461 81.2707Z" fill="#925B4C"/>
<path d="M364.376 54.8184C363.471 56.3649 362.497 57.9797 360.96 58.8939C359.422 59.8166 357.141 59.7568 356.116 58.2873C355.655 57.6294 355.441 56.7152 354.707 56.3819C353.836 55.9889 352.887 56.681 352.067 57.1851C349.223 58.9195 345.148 58.2445 343.013 55.6899C342.791 57.1936 340.98 57.9882 339.476 57.7917C337.964 57.5952 336.649 56.7237 335.248 56.1171C333.856 55.5105 332.147 55.1772 330.875 56.0146C330.166 56.4845 329.662 57.2705 328.867 57.5696C327.458 58.0908 326.048 56.8177 325.211 55.5703C324.374 54.3228 323.469 52.8276 321.982 52.6397C320.599 52.4602 319.411 53.5026 318.25 54.2801C317.088 55.0491 315.345 55.519 314.448 54.451C313.979 53.8871 313.936 53.084 314.03 52.3663C314.44 49.0768 317.412 46.3 320.718 46.112C320.12 42.2245 322.051 38.0721 325.408 36.0301C328.765 33.9881 333.343 34.1846 336.512 36.5086C337.759 33.5011 340.536 31.1771 343.713 30.4765C346.891 29.7759 350.385 30.7157 352.776 32.9201C354.972 31.0746 358.286 30.6986 360.849 31.9973C363.403 33.296 365.051 36.201 364.855 39.0632C367.204 39.2512 369.664 40.3363 370.706 42.4552C371.748 44.5741 370.68 47.6756 368.357 48.0943C369.971 49.3673 370.364 51.9391 369.186 53.6308C368.015 55.3225 365.47 55.8608 363.71 54.7842" fill="#263238"/>
<path d="M321.359 49.504C321.35 49.5126 321.384 49.5724 321.453 49.692C321.521 49.8116 321.624 49.991 321.777 50.2132C322.093 50.6404 322.623 51.2555 323.46 51.8451C324.297 52.4175 325.45 52.9985 326.894 53.2036C328.32 53.4343 330.063 53.289 331.686 52.4175L331.404 52.2723C331.498 53.3061 332.087 54.3228 332.959 55.0235C333.813 55.7497 334.855 56.2538 335.923 56.7237C336.461 56.9373 336.982 57.2449 337.631 57.3645C338.263 57.4756 338.93 57.3987 339.553 57.2022C340.783 56.8006 341.928 55.8266 342.312 54.4425L341.877 54.5108C343.107 56.4332 345.242 57.937 347.685 58.3129C349.001 58.5607 350.419 58.4154 351.597 57.8259C352.785 57.2534 353.733 56.3734 354.587 55.519L354.254 55.5275C355.416 56.5443 356.782 57.2364 358.2 57.561C359.593 57.8857 361.173 57.7234 362.258 56.8433C364.445 55.1772 365.111 52.3919 364.53 50.3328L364.351 50.5549C365.871 50.6404 367.195 50.0936 368.135 49.4015C369.1 48.7094 369.706 47.8636 370.082 47.1288C370.458 46.3855 370.586 45.7532 370.638 45.326C370.672 44.8988 370.663 44.6681 370.646 44.6681C370.578 44.651 370.672 45.6165 369.911 47.0433C369.519 47.7354 368.912 48.5385 367.972 49.1793C367.05 49.8201 365.786 50.3157 364.368 50.2132L364.12 50.1961L364.18 50.4353C364.692 52.3663 364.026 54.9893 361.985 56.5101C361.002 57.2962 359.61 57.4329 358.286 57.1253C356.962 56.8177 355.655 56.1513 354.57 55.1858L354.399 55.032L354.237 55.1943C353.391 56.0402 352.477 56.869 351.375 57.3987C350.282 57.9455 349.009 58.0737 347.762 57.843C345.456 57.4841 343.457 56.0829 342.278 54.263L341.979 53.8017L341.834 54.3314C341.518 55.5019 340.51 56.399 339.399 56.7664C338.844 56.9544 338.255 57.0227 337.7 56.9288C337.161 56.8433 336.632 56.5528 336.085 56.3307C335.026 55.8779 334.018 55.3908 333.215 54.7159C332.395 54.0665 331.874 53.1694 331.771 52.2467L331.737 51.9647L331.49 52.1014C329.969 52.9473 328.303 53.1181 326.928 52.9216C325.536 52.7507 324.4 52.221 323.571 51.6913C321.905 50.5549 321.427 49.4442 321.359 49.504Z" fill="#455A64"/>
<path d="M335.897 87.7214C335.828 87.7299 335.828 86.7217 335.265 85.03C334.709 83.3725 333.403 80.9716 330.729 79.2372C329.405 78.3913 327.765 77.7078 325.92 77.5198C324.083 77.3404 322.05 77.5455 320.162 78.434C319.206 78.8442 318.3 79.4252 317.48 80.1429C316.652 80.8435 315.908 81.6893 315.319 82.6548C314.089 84.5516 313.5 86.9268 313.645 89.3191C313.841 91.7114 314.764 93.9756 316.25 95.6759C316.968 96.5474 317.822 97.2821 318.744 97.8546C319.658 98.4441 320.641 98.8884 321.64 99.1618C323.639 99.7684 325.681 99.6745 327.474 99.2387C329.277 98.7859 330.797 97.8802 331.993 96.8549C334.393 94.7531 335.342 92.1985 335.658 90.4811C335.974 88.7296 335.828 87.7214 335.897 87.7214C335.914 87.7214 335.931 87.9692 335.957 88.4391C335.974 88.6783 335.982 88.9688 335.948 89.3106C335.931 89.6523 335.914 90.0539 335.82 90.4982C335.555 92.2497 334.633 94.8898 332.198 97.0771C330.985 98.1451 329.422 99.102 327.568 99.5805C325.723 100.05 323.605 100.153 321.529 99.5378C320.487 99.2644 319.47 98.803 318.514 98.1964C317.557 97.6068 316.669 96.8464 315.917 95.9407C314.371 94.1721 313.397 91.814 313.201 89.3277C313.047 86.8414 313.67 84.3721 314.952 82.3985C315.567 81.3988 316.336 80.5188 317.207 79.8011C318.061 79.0663 319.001 78.4682 320 78.041C321.965 77.1354 324.075 76.9388 325.971 77.1354C327.876 77.349 329.559 78.0667 330.908 78.9552C333.633 80.7751 334.923 83.2614 335.436 84.9531C335.589 85.3803 335.658 85.7734 335.726 86.1151C335.803 86.4569 335.837 86.7474 335.854 86.9781C335.897 87.4736 335.914 87.7214 335.897 87.7214Z" fill="#263238"/>
<path d="M362.446 75.0933C362.377 75.1019 362.377 74.0937 361.814 72.402C361.258 70.7444 359.951 68.3436 357.278 66.6091C355.954 65.7633 354.314 65.0798 352.469 64.8918C350.632 64.7124 348.599 64.9174 346.711 65.806C345.755 66.2161 344.849 66.7971 344.029 67.5148C343.2 68.2154 342.457 69.0613 341.868 70.0267C340.638 71.9321 340.048 74.2987 340.194 76.6911C340.39 79.0834 341.313 81.3476 342.799 83.0478C343.517 83.9193 344.371 84.6541 345.293 85.2265C346.207 85.8161 347.19 86.2604 348.189 86.5338C350.188 87.1404 352.229 87.0464 354.023 86.6107C355.826 86.1578 357.346 85.2522 358.542 84.2269C360.942 82.1251 361.89 79.5704 362.206 77.8531C362.514 76.093 362.377 75.0933 362.446 75.0933C362.463 75.0933 362.48 75.3411 362.505 75.811C362.522 76.0503 362.531 76.3408 362.497 76.6825C362.48 77.0243 362.463 77.4259 362.369 77.8701C362.104 79.6217 361.181 82.2618 358.747 84.449C357.534 85.517 355.971 86.474 354.117 86.9524C352.272 87.4223 350.154 87.5249 348.078 86.9097C347.036 86.6363 346.019 86.1749 345.063 85.5683C344.106 84.9788 343.218 84.2183 342.466 83.3127C340.92 81.5441 339.946 79.1859 339.749 76.6996C339.596 74.2133 340.219 71.7441 341.501 69.7704C342.116 68.7708 342.884 67.8907 343.756 67.173C344.61 66.4383 345.55 65.8402 346.549 65.413C348.514 64.5073 350.623 64.3108 352.52 64.5073C354.425 64.7209 356.107 65.4386 357.457 66.3272C360.182 68.1471 361.472 70.6334 361.984 72.3251C362.138 72.7523 362.206 73.1453 362.275 73.4871C362.352 73.8288 362.386 74.1193 362.403 74.35C362.446 74.8456 362.454 75.0933 362.446 75.0933Z" fill="#263238"/>
<path d="M340.211 79.1517C340.211 79.2884 338.511 79.0321 336.717 79.9207C334.898 80.7751 334.052 82.2703 333.941 82.1934C333.898 82.1678 334.035 81.7662 334.445 81.2109C334.855 80.6555 335.573 79.9891 336.521 79.5277C337.477 79.0663 338.443 78.9211 339.126 78.9381C339.809 78.9552 340.219 79.1005 340.211 79.1517Z" fill="#263238"/>
<path d="M373.465 71.5647C373.465 71.6843 370.851 71.8552 367.631 71.9321C364.402 72.0175 361.788 71.9833 361.788 71.8552C361.788 71.7355 364.393 71.5647 367.622 71.4878C370.851 71.4109 373.465 71.445 373.465 71.5647Z" fill="#263238"/>
<path d="M283.817 299.408H335.445C336.863 299.408 338.016 300.561 338.016 301.98C338.016 303.398 336.863 304.551 335.445 304.551H283.817C282.399 304.551 281.246 303.398 281.246 301.98C281.246 300.561 282.399 299.408 283.817 299.408Z" fill="#E0E0E0"/>
<path d="M292.06 304.56H194.399L184.755 238.592C184.243 235.191 186.874 232.124 190.316 232.124L276.052 232.824C278.837 232.824 281.494 234.157 281.912 236.908L292.06 304.56Z" fill="#E0E0E0"/>
<path d="M242.192 267.539C242.192 270.503 239.791 272.904 236.827 272.904C233.863 272.904 231.463 270.503 231.463 267.539C231.463 264.574 233.863 262.173 236.827 262.173C239.791 262.173 242.192 264.574 242.192 267.539Z" fill="white"/>
<path d="M287.815 303.979C287.695 303.996 284.961 288.087 281.716 268.436C278.47 248.776 275.941 232.833 276.061 232.816C276.18 232.799 278.914 248.708 282.16 268.367C285.397 288.01 287.934 303.962 287.815 303.979Z" fill="#263238"/>
</g>
<defs>
<clipPath id="clip0_310_3934">
<rect width="511" height="317" fill="white"/>
</clipPath>
</defs>
</svg>
