<svg width="355" height="485" viewBox="0 0 355 485" fill="none" xmlns="http://www.w3.org/2000/svg">
<g clip-path="url(#clip0_315_7410)">
<path d="M309.842 81.4942C311.17 79.9381 312.695 78.601 314.347 77.4714L313.712 71.9155L322.457 68.8609L325.437 73.5984C327.436 73.4485 329.457 73.5523 331.468 73.9326L334.945 69.5525L343.297 73.5638L342.049 79.0044C343.609 80.33 344.949 81.8515 346.081 83.4999L351.649 82.8659L354.711 91.5916L349.963 94.5655C350.113 96.5597 350.009 98.5769 349.628 100.583L354.017 104.052L349.997 112.386L344.545 111.141C343.216 112.697 341.691 114.034 340.039 115.164L340.675 120.72L331.93 123.774L328.949 119.037C326.951 119.187 324.929 119.083 322.919 118.703L319.442 123.083L311.089 119.071L312.337 113.631C310.777 112.305 309.437 110.784 308.305 109.135L302.737 109.769L299.676 101.044L304.424 98.0697C304.274 96.0756 304.378 94.0584 304.759 92.0527L300.369 88.5832L304.389 80.2493L309.842 81.4942ZM315.918 90.9116C312.926 97.1245 315.549 104.571 321.764 107.568C327.99 110.553 335.453 107.937 338.457 101.735C341.449 95.5223 338.826 88.076 332.611 85.079C326.385 82.0936 318.91 84.6986 315.918 90.9116Z" fill="#F5F5F5"/>
<path d="M101.705 118.426C112.957 111.648 124.925 106.496 137.274 103.003L144.598 67.8696L204.092 66.8322L212.653 101.689C225.118 104.755 237.27 109.47 248.753 115.855L278.824 96.1908L321.625 137.434L302.991 168.095C309.795 179.322 314.948 191.275 318.448 203.597L353.659 210.905L354.699 270.268L319.765 278.809C316.692 291.247 311.967 303.361 305.567 314.819L325.275 344.823L283.953 387.53L253.213 368.937C241.961 375.715 229.981 380.856 217.632 384.36L210.308 419.493L150.814 420.531L142.253 385.674C129.789 382.608 117.636 377.882 106.164 371.507L76.0938 391.172L33.2928 349.929L51.9265 319.257C45.1338 308.03 39.97 296.088 36.4696 283.754L1.25845 276.446L0.21875 217.083L35.1527 208.542C38.2256 196.105 42.962 183.979 49.3504 172.533L29.6423 142.528L70.9646 99.8217L101.705 118.426ZM119.715 188.059C88.9283 219.884 89.8178 270.579 121.714 301.298C153.609 332.017 204.416 331.129 235.203 299.304C265.989 267.478 265.1 216.784 233.204 186.065C201.32 155.346 150.513 156.234 119.715 188.059Z" fill="#EBEBEB"/>
<path d="M119.716 188.059C119.716 188.059 120.906 186.757 123.355 184.463C125.804 182.169 129.628 178.976 135.023 175.553C137.749 173.893 140.834 172.118 144.392 170.55C147.938 168.959 151.889 167.426 156.279 166.262C165.024 163.876 175.479 162.643 186.869 163.945C192.553 164.579 198.433 165.893 204.325 167.979C210.205 170.054 216.12 172.867 221.722 176.59C227.337 180.29 232.709 184.785 237.468 190.134C239.894 192.762 242.089 195.678 244.192 198.687C246.248 201.741 248.131 204.969 249.817 208.346C256.483 221.879 259.533 238.143 257.28 254.465C256.76 258.545 255.836 262.603 254.669 266.614C253.503 270.625 251.978 274.579 250.129 278.394C246.49 286.071 241.465 293.206 235.435 299.511C229.335 305.747 222.358 311.015 214.803 314.923C211.048 316.905 207.144 318.565 203.158 319.868C199.184 321.182 195.152 322.242 191.086 322.899C174.82 325.723 158.416 323.245 144.623 317.078C141.18 315.51 137.876 313.758 134.746 311.81C131.65 309.816 128.658 307.73 125.943 305.402C120.421 300.837 115.719 295.638 111.815 290.175C107.887 284.723 104.86 278.925 102.573 273.127C100.285 267.329 98.7605 261.508 97.9288 255.859C96.219 244.552 97.097 234.085 99.1764 225.279C100.193 220.864 101.591 216.864 103.058 213.28C104.502 209.672 106.177 206.536 107.737 203.759C110.971 198.26 114.033 194.341 116.251 191.817C118.457 189.292 119.716 188.059 119.716 188.059C119.716 188.059 119.427 188.393 118.861 189.039C118.307 189.696 117.394 190.595 116.343 191.898C114.171 194.445 111.133 198.376 107.945 203.874C106.397 206.652 104.745 209.787 103.324 213.383C101.868 216.968 100.505 220.956 99.4999 225.36C97.4667 234.132 96.6234 244.563 98.3447 255.802C99.188 261.415 100.724 267.202 103 272.965C105.288 278.717 108.291 284.48 112.207 289.886C116.089 295.316 120.768 300.48 126.266 304.998C128.97 307.315 131.95 309.378 135.023 311.349C138.131 313.286 141.411 315.015 144.842 316.571C158.543 322.68 174.832 325.124 190.982 322.311C195.014 321.654 199.022 320.594 202.962 319.291C206.913 317.989 210.783 316.352 214.514 314.381C222.023 310.508 228.931 305.286 234.996 299.085C240.98 292.826 245.971 285.748 249.586 278.129C251.435 274.337 252.937 270.418 254.103 266.441C255.27 262.464 256.183 258.441 256.703 254.384C258.944 238.189 255.929 222.04 249.332 208.588C247.657 205.234 245.797 202.018 243.753 198.986C241.662 195.99 239.49 193.096 237.087 190.48C232.362 185.154 227.025 180.682 221.457 176.993C215.9 173.282 210.032 170.481 204.186 168.406C198.341 166.331 192.484 165.006 186.835 164.36C175.514 163.034 165.105 164.233 156.383 166.573C152.005 167.726 148.065 169.224 144.53 170.804C140.972 172.348 137.888 174.1 135.162 175.749C129.767 179.126 125.931 182.284 123.459 184.543C122.188 185.638 121.322 186.584 120.687 187.16C120.051 187.759 119.716 188.059 119.716 188.059Z" fill="#263238"/>
<path d="M101.705 118.426C101.128 118.08 90.985 111.982 70.9072 99.914L71.0228 99.9024C60.5102 110.784 46.6014 125.192 29.7351 142.655L29.7582 142.471C35.7307 151.554 42.3732 161.651 49.4894 172.463L49.5472 172.556L49.501 172.648C43.5862 183.252 38.6188 195.344 35.3379 208.623L35.3148 208.738L35.1993 208.761C24.3171 211.424 12.5338 214.317 0.27692 217.326L0.438652 217.118C0.773666 235.803 1.13179 255.641 1.50146 276.481L1.31662 276.25C12.2104 278.51 24.2247 280.999 36.5278 283.547L36.678 283.581L36.7242 283.731C40.005 295.293 45.1458 307.592 52.1695 319.164L52.2504 319.303L52.1695 319.441C46.3934 328.951 40.0281 339.429 33.5358 350.114L33.4896 349.78C46.9364 362.724 61.4344 376.695 76.3021 391.011L75.9556 390.976C85.3129 384.855 95.6059 378.124 106.014 371.312L106.165 371.219L106.315 371.3C116.908 377.202 129.292 382.25 142.335 385.432L142.508 385.478L142.554 385.651C145.234 396.567 148.169 408.474 151.126 420.508L150.837 420.289C169.667 419.954 189.861 419.597 210.331 419.24L210.042 419.482C212.353 408.382 214.86 396.405 217.366 384.348L217.401 384.175L217.574 384.129C229.415 380.787 241.672 375.623 253.051 368.753L253.086 368.73L253.248 368.637L253.398 368.73C263.714 374.966 273.961 381.167 284.138 387.322L283.769 387.368C297.724 372.948 311.506 358.701 325.091 344.662L325.056 345.031C318.425 334.933 311.852 324.928 305.36 315.026L305.267 314.877L305.36 314.715C311.737 303.304 316.473 291.166 319.534 278.775L319.581 278.602L319.754 278.556C331.572 275.662 343.193 272.827 354.688 270.014L354.468 270.303C354.11 250.038 353.775 230.247 353.429 210.94L353.648 211.205C341.703 208.727 329.966 206.283 318.437 203.885L318.275 203.851L318.229 203.689C314.613 190.987 309.357 179.057 302.807 168.245L302.726 168.106L302.807 167.968C309.195 157.456 315.399 147.266 321.452 137.307L321.487 137.618C306.434 123.106 292.225 109.4 278.697 96.3637L278.986 96.3868C268.404 103.303 258.481 109.781 248.916 116.04L248.812 116.109L248.696 116.04C236.612 109.32 224.494 104.801 212.653 101.874L212.538 101.839L212.514 101.724C209.407 89.0558 206.611 77.6443 203.977 66.8667L204.151 67.0051C181.069 67.397 161.431 67.7197 144.657 68.0079L144.784 67.9041C141.838 81.9783 139.424 93.4936 137.413 103.026L137.402 103.084L137.344 103.095C124.729 106.692 115.892 110.876 110.162 113.781C107.297 115.245 105.206 116.443 103.82 117.227C102.387 118.046 101.705 118.426 101.705 118.426C101.844 118.345 102.422 117.988 103.75 117.193C105.136 116.397 107.216 115.175 110.069 113.7C115.788 110.761 124.625 106.542 137.252 102.911L137.182 102.98C139.158 93.4359 141.549 81.9092 144.472 67.835L144.495 67.7312H144.599C161.373 67.42 181.012 67.0627 204.093 66.6477H204.232L204.266 66.786C206.923 77.552 209.73 88.9635 212.849 101.631L212.699 101.482C224.575 104.409 236.728 108.928 248.858 115.66L248.638 115.671C258.204 109.412 268.127 102.911 278.697 95.9949L278.847 95.8911L278.974 96.0179C292.502 109.043 306.723 122.737 321.787 137.238L321.926 137.376L321.822 137.549C315.78 147.508 309.588 157.698 303.199 168.222V167.956C309.773 178.803 315.064 190.779 318.691 203.516L318.483 203.332C330.012 205.718 341.749 208.162 353.694 210.64L353.914 210.686V210.905C354.26 230.201 354.607 250.004 354.965 270.268V270.498L354.745 270.556C343.263 273.369 331.629 276.216 319.823 279.109L320.031 278.902C316.97 291.339 312.21 303.523 305.81 314.992L305.799 314.692C312.303 324.594 318.876 334.599 325.507 344.696L325.634 344.892L325.472 345.065C311.887 359.105 298.105 373.352 284.15 387.783L283.988 387.956L283.78 387.829C273.603 381.674 263.356 375.473 253.04 369.237H253.352L253.317 369.26C241.903 376.164 229.589 381.34 217.701 384.694L217.909 384.464C215.391 396.521 212.896 408.497 210.574 419.597L210.527 419.828H210.285C189.814 420.185 169.633 420.531 150.791 420.865H150.56L150.502 420.635C147.545 408.601 144.622 396.693 141.942 385.778L142.15 385.985C129.05 382.781 116.619 377.709 105.991 371.784L106.292 371.773C95.8716 378.585 85.5901 385.305 76.2213 391.437L76.0364 391.564L75.8747 391.414C61.0185 377.098 46.5205 363.128 33.0737 350.171L32.9235 350.022L33.039 349.837C39.5314 339.163 45.9082 328.674 51.6843 319.176V319.441C44.6375 307.834 39.4852 295.477 36.2044 283.881L36.3892 284.054C24.0861 281.495 12.0833 278.994 1.17799 276.734L0.993159 276.7V276.515C0.63504 255.687 0.288473 235.849 -0.0234375 217.153V216.98L0.138294 216.934C12.3952 213.937 24.19 211.067 35.0722 208.404L34.9221 208.554C38.2144 195.24 43.2166 183.126 49.1544 172.498L49.166 172.682C42.0729 161.859 35.4419 151.75 29.481 142.667L29.4116 142.563L29.4925 142.471C46.3819 125.042 60.3254 110.668 70.861 99.7987L70.9188 99.7411L70.9881 99.7756C91.0197 111.925 101.139 118.08 101.705 118.426Z" fill="#263238"/>
<path d="M129.605 62.8208C136.547 54.3602 147.43 49.8417 158.312 48.5622C162.886 48.0205 165.821 48.8158 170.268 50.0146C174.716 51.2134 178.736 53.5994 181.393 57.3572C184.547 61.8295 187.192 66.8322 187.793 72.2613C188.405 77.8402 189.018 83.4538 188.602 89.0558C188.174 94.6578 186.661 100.294 183.357 104.836L169.078 107.314C161.2 107.579 153.206 107.844 145.523 106.046C137.841 104.248 130.379 100.133 126.266 93.4129C120.548 84.0647 122.662 71.2815 129.605 62.8208Z" fill="#263238"/>
<path d="M178.562 113.101C178.539 113.135 178.793 113.446 179.417 113.85C180.029 114.242 181.034 114.68 182.363 114.841C183.668 114.979 185.332 114.807 186.903 113.919C188.485 113.054 189.768 111.383 190.311 109.4C190.842 107.418 190.576 105.32 189.652 103.787C188.751 102.231 187.399 101.251 186.198 100.709C184.973 100.179 183.888 100.052 183.16 100.087C182.42 100.121 182.039 100.26 182.051 100.306C182.039 100.479 183.714 100.121 185.944 101.251C187.018 101.816 188.208 102.761 188.982 104.167C189.768 105.551 189.987 107.395 189.513 109.181C189.028 110.957 187.896 112.444 186.533 113.25C185.158 114.069 183.657 114.299 182.444 114.242C179.902 114.103 178.631 112.951 178.562 113.101Z" fill="#F0C63D"/>
<path d="M116.031 102.484C116.389 99.2685 118.075 96.1101 120.859 94.4733C123.643 92.825 127.548 92.9979 129.87 95.2572L132.111 97.9198C135.623 99.4183 137.841 103.407 137.414 107.187C136.986 110.98 134.064 114.322 130.413 115.429C126.763 116.547 122.569 115.464 119.773 112.859C116.978 110.265 115.615 106.277 116.031 102.484Z" fill="#263238"/>
<path d="M118.861 112.086C118.965 112.04 117.971 111.13 118.087 109.251C118.202 107.429 119.531 105.043 121.356 102.853C123.216 100.652 125.399 99.1532 127.074 98.2772C128.749 97.3781 129.893 97.0553 129.858 96.9401C129.847 96.8709 128.634 97.0323 126.855 97.8391C125.076 98.6114 122.754 100.121 120.824 102.404C119.854 103.545 119.08 104.744 118.514 105.908C117.936 107.061 117.59 108.236 117.59 109.239C117.59 110.253 117.913 111.037 118.225 111.498C118.56 111.959 118.826 112.121 118.861 112.086Z" fill="#455A64"/>
<path d="M125.769 116.293C126 116.282 125.03 111.971 126.404 106.888C127.698 101.781 130.667 98.4962 130.471 98.3809C130.413 98.3233 129.604 99.061 128.588 100.49C127.571 101.92 126.416 104.11 125.734 106.715C125.053 109.32 124.983 111.787 125.168 113.527C125.341 115.279 125.688 116.317 125.769 116.293Z" fill="#455A64"/>
<path d="M169.078 130.402C168.985 125.4 168.87 121.308 168.87 121.331C168.87 121.331 180.514 120.051 183.726 105.17C185.32 97.77 185.62 85.5055 185.54 75.4657C185.47 66.4287 177.753 54.1181 166.571 54.072L161.603 53.4957L142.577 61.0457C139.827 61.184 137.644 63.3972 137.552 66.1406L137.471 130.69L156.474 177.985L168.558 156.441L169.078 130.402Z" fill="#A8605D"/>
<path d="M137.506 87.3498L140.117 90.0471C151.369 79.3041 173.364 52.3891 172.14 53.9913C172.14 53.9913 164.435 50.833 156.059 52.2508C147.695 53.6686 131.823 57.8528 132.065 67.6967C132.308 77.5405 137.506 87.3498 137.506 87.3498Z" fill="#263238"/>
<path d="M129.985 95.8565C130.043 95.8565 130.031 95.0036 130.089 93.482C130.135 91.9605 130.354 89.7474 130.944 87.0962C132.076 81.7824 135.172 74.7049 140.648 68.3998C146.123 62.0947 152.442 57.7721 157.098 54.925C159.431 53.4957 161.372 52.4237 162.724 51.686C164.064 50.9483 164.815 50.5333 164.792 50.4872C164.78 50.4642 164.584 50.5448 164.214 50.7062C163.844 50.8676 163.301 51.1097 162.608 51.4439C161.222 52.1125 159.235 53.1268 156.855 54.4985C152.119 57.2534 145.684 61.5529 140.128 67.9387C134.583 74.3246 131.487 81.5749 130.47 86.9809C129.939 89.6897 129.788 91.9259 129.823 93.4705C129.812 94.2428 129.892 94.8422 129.904 95.2456C129.927 95.6491 129.962 95.8681 129.985 95.8565Z" fill="#455A64"/>
<path d="M158.323 49.8878C158.312 49.8648 158.104 49.9339 157.723 50.0838C157.342 50.2336 156.775 50.4642 156.071 50.7869C154.65 51.4209 152.605 52.4007 150.156 53.7608C147.719 55.121 144.865 56.8615 141.862 59.017C138.87 61.184 135.6 63.6623 132.793 66.9474C131.395 68.5842 130.228 70.3594 129.362 72.2152C128.507 74.071 127.976 75.9729 127.687 77.8172C127.098 81.5057 127.352 84.8831 127.71 87.6495C128.091 90.4274 128.588 92.6291 128.946 94.1391C129.131 94.8998 129.281 95.4877 129.397 95.8796C129.512 96.2715 129.582 96.479 129.605 96.479C129.651 96.4675 129.501 95.6145 129.212 94.0929C128.935 92.5599 128.507 90.3468 128.195 87.5919C127.895 84.8485 127.71 81.5173 128.311 77.9324C128.611 76.1458 129.143 74.3015 129.974 72.5149C130.818 70.7282 131.95 69.0107 133.313 67.42C136.051 64.2156 139.274 61.7489 142.22 59.5588C145.189 57.3917 147.984 55.6166 150.387 54.2104C152.79 52.8041 154.788 51.7667 156.175 51.052C157.561 50.3143 158.347 49.9339 158.323 49.8878Z" fill="#455A64"/>
<path d="M137.311 87.6034C137.345 87.638 137.819 87.1769 138.651 86.3124C139.563 85.3441 140.719 84.0992 142.116 82.6123C145.016 79.4655 148.978 75.0968 153.334 70.2326C157.689 65.3683 161.593 60.942 164.401 57.7145C165.729 56.1699 166.827 54.8789 167.693 53.8646C168.455 52.9424 168.871 52.4237 168.837 52.3891C168.802 52.3546 168.328 52.8156 167.497 53.6801C166.584 54.6484 165.429 55.8933 164.043 57.3802C161.143 60.527 157.169 64.8957 152.825 69.76C148.47 74.6243 144.565 79.0505 141.758 82.278C140.441 83.8226 139.332 85.1136 138.466 86.128C137.68 87.0501 137.276 87.5688 137.311 87.6034Z" fill="#455A64"/>
<path d="M139.736 91.6839C139.794 90.5658 138.65 87.857 137.552 87.6264C134.618 87.004 129.281 86.9464 128.819 94.4388C128.184 104.675 138.615 103.199 138.65 102.899C138.673 102.669 139.528 95.5453 139.736 91.6839Z" fill="#A8605D"/>
<path d="M136.432 98.6806C136.386 98.646 136.247 98.7959 135.935 98.9111C135.635 99.0264 135.115 99.084 134.595 98.8535C133.532 98.3924 132.735 96.6173 132.793 94.773C132.828 93.8394 133.07 92.9633 133.451 92.2487C133.81 91.5225 134.329 91.0268 134.884 90.9577C135.438 90.8655 135.797 91.2113 135.912 91.511C136.028 91.8106 135.958 92.0066 136.005 92.0297C136.028 92.0527 136.236 91.8683 136.178 91.4418C136.143 91.2343 136.039 90.9922 135.808 90.7732C135.577 90.5542 135.219 90.439 134.838 90.4505C134.041 90.462 133.29 91.1421 132.874 91.9259C132.412 92.7097 132.111 93.6895 132.077 94.7384C132.019 96.8017 132.955 98.7959 134.41 99.3146C135.115 99.5451 135.739 99.3607 136.062 99.1417C136.397 98.9227 136.467 98.7037 136.432 98.6806Z" fill="#844949"/>
<path d="M137.748 113.965C137.771 114 137.517 114.311 136.893 114.714C136.281 115.106 135.276 115.544 133.948 115.706C132.642 115.844 130.979 115.671 129.407 114.783C127.825 113.919 126.543 112.248 126 110.265C125.468 108.282 125.734 106.185 126.658 104.651C127.559 103.095 128.911 102.116 130.112 101.574C131.337 101.044 132.423 100.917 133.15 100.951C133.89 100.986 134.271 101.124 134.259 101.17C134.271 101.343 132.596 100.986 130.366 102.116C129.292 102.68 128.102 103.626 127.328 105.032C126.543 106.415 126.323 108.259 126.797 110.046C127.282 111.821 128.414 113.308 129.777 114.115C131.152 114.933 132.654 115.164 133.867 115.106C136.408 114.968 137.679 113.815 137.748 113.965Z" fill="#F0C63D"/>
<path d="M195.475 416.3L191.882 385.34L163.129 393.374L170.384 423.067L195.475 416.3Z" fill="#A8605D"/>
<path d="M195.799 416.208L200.662 452.299L212.758 479.732C213.624 481.715 212.642 484.009 210.609 484.746C209.465 485.161 208.206 485 207.213 484.308C200.882 479.917 177.662 463.618 177.454 460.955C177.211 457.878 169.795 423.228 169.795 423.228L195.799 416.208Z" fill="#F0C63D"/>
<g opacity="0.6">
<path d="M210.597 484.746L177.061 458.535L177.303 460.056C177.511 461.37 178.181 462.58 179.186 463.445C181.901 465.773 189.537 472.021 207.096 484.331C208.113 485.035 209.441 485.196 210.597 484.746Z" fill="white"/>
</g>
<g opacity="0.6">
<path d="M182.63 445.763C183.635 446.247 184.143 447.561 183.704 448.575C183.265 449.59 181.925 450.12 180.92 449.659C179.915 449.198 179.245 447.63 179.8 446.674C180.354 445.705 181.96 445.175 182.826 445.867" fill="white"/>
</g>
<path d="M199.876 470.326C200.095 470.396 200.615 468.378 202.591 467.03C204.532 465.624 206.599 465.808 206.611 465.589C206.623 465.497 206.126 465.289 205.271 465.301C204.416 465.312 203.215 465.623 202.129 466.384C201.043 467.145 200.35 468.171 200.049 468.978C199.749 469.773 199.784 470.315 199.876 470.326Z" fill="#263238"/>
<path d="M203.203 474.741C203.4 474.868 204.37 473.519 206.149 472.689C207.917 471.825 209.58 471.917 209.592 471.687C209.661 471.491 207.813 470.995 205.803 471.975C203.781 472.92 203.007 474.672 203.203 474.741Z" fill="#263238"/>
<path d="M194.123 464.909C194.319 465.047 195.798 462.972 198.455 461.439C201.089 459.872 203.631 459.595 203.607 459.353C203.631 459.157 200.881 459.076 198.051 460.748C195.209 462.396 193.927 464.84 194.123 464.909Z" fill="#263238"/>
<path d="M191.72 454.062C191.848 454.258 193.707 453.117 196.284 452.621C198.848 452.08 201.008 452.414 201.055 452.183C201.124 451.987 198.883 451.273 196.122 451.837C193.361 452.379 191.582 453.912 191.72 454.062Z" fill="#263238"/>
<path d="M190.024 443.504C190.174 443.688 191.976 442.178 194.737 441.878C197.486 441.51 199.612 442.547 199.705 442.328C199.751 442.247 199.289 441.855 198.376 441.51C197.475 441.164 196.112 440.91 194.633 441.095C193.154 441.279 191.895 441.844 191.098 442.397C190.313 442.939 189.966 443.435 190.024 443.504Z" fill="#263238"/>
<path d="M194.354 439.873C194.4 439.861 194.4 439.366 194.192 438.501C193.973 437.648 193.522 436.403 192.54 435.112C192.044 434.501 191.501 433.706 190.426 433.395C189.883 433.233 189.156 433.441 188.809 433.983C188.463 434.513 188.416 435.124 188.497 435.7C188.902 437.982 191.212 439.873 193.834 439.804C196.468 439.677 198.571 437.844 199.287 435.712C199.426 435.17 199.483 434.513 199.114 433.948C198.744 433.383 197.97 433.245 197.473 433.418C196.434 433.74 195.844 434.467 195.29 435.02C194.204 436.207 193.603 437.383 193.268 438.201C192.933 439.031 192.864 439.515 192.91 439.527C193.049 439.596 193.546 437.613 195.694 435.4C196.249 434.882 196.873 434.236 197.623 434.052C197.993 433.959 198.34 434.052 198.525 434.34C198.709 434.605 198.709 435.066 198.571 435.504C197.958 437.256 196.029 438.928 193.811 438.997C191.605 439.089 189.572 437.418 189.225 435.585C189.156 435.147 189.202 434.674 189.398 434.374C189.595 434.075 189.93 433.948 190.288 434.04C191.039 434.213 191.628 434.893 192.113 435.458C194.031 437.867 194.204 439.942 194.354 439.873Z" fill="#263238"/>
<path d="M284.936 241.958C259.544 237.348 207.224 250.108 207.224 250.108L196.042 237.324L137.079 237.348L126.844 261.289L154.754 302.762L161.235 327.21C161.235 327.21 188.845 322.853 187.678 322.991C186.511 323.13 205.376 319.084 206.531 318.934C252.578 312.663 277.127 293.31 290.862 279.605C304.921 265.565 294.594 243.71 284.936 241.958Z" fill="#263238"/>
<path d="M166.075 331.175C165.937 330.345 165.578 328.121 164.828 323.556C164.423 321.113 163.915 318.15 163.268 314.727C162.945 313.021 162.575 311.199 162.147 309.275C161.928 308.318 161.685 307.338 161.408 306.335C161.269 305.84 161.119 305.332 160.934 304.825C160.738 304.318 160.576 303.811 160.16 303.315L160.08 303.684C171.031 299.811 184.709 294.682 199.299 288.549C208.264 284.746 216.732 280.896 224.171 276.896C227.88 274.879 231.368 272.85 234.372 270.579C237.399 268.343 240.09 266.118 242.62 264.182C247.622 260.24 252.162 257.692 255.559 256.609C256.391 256.286 257.165 256.113 257.823 255.94C258.481 255.744 259.048 255.652 259.521 255.571C259.96 255.491 260.307 255.433 260.572 255.375C260.803 255.329 260.931 255.306 260.931 255.295C260.931 255.283 260.803 255.295 260.572 255.318C260.307 255.352 259.949 255.398 259.51 255.456C259.036 255.514 258.458 255.594 257.8 255.767C257.13 255.929 256.344 256.09 255.501 256.39C253.78 256.897 251.77 257.796 249.552 259.029C247.334 260.274 244.942 261.911 242.401 263.848C239.848 265.773 237.145 267.986 234.118 270.187C231.126 272.435 227.649 274.429 223.94 276.423C216.501 280.388 208.044 284.215 199.091 288.019C184.513 294.151 170.846 299.315 159.941 303.246L159.641 303.361L159.872 303.626C160.16 303.961 160.368 304.479 160.542 304.964C160.727 305.448 160.877 305.955 161.015 306.439C161.304 307.43 161.535 308.398 161.766 309.355C162.217 311.257 162.586 313.078 162.933 314.784C163.615 318.196 164.158 321.159 164.597 323.591C165.047 326 165.394 327.89 165.648 329.216C165.775 329.861 165.879 330.357 165.96 330.68C166.006 331.014 166.075 331.175 166.075 331.175Z" fill="#455A64"/>
<path d="M129.766 242.062L129.246 249.866C129.246 249.866 122.638 262.349 122.026 273.542C121.68 280.043 121.529 289.621 121.472 296.503C121.426 302.047 122.962 307.488 125.908 312.191L143.329 328.363L154.13 368.119L168.05 416.197L196.873 408.75L192.657 307.741C192.553 293.944 186.245 277.772 178.355 260.989L175.64 238.777L129.766 242.062Z" fill="#263238"/>
<path d="M196.872 394.423C196.861 394.423 196.838 394.273 196.815 393.996C196.792 393.662 196.757 393.247 196.711 392.728C196.63 391.553 196.526 389.927 196.399 387.864C196.156 383.576 195.821 377.467 195.394 369.963C194.62 354.782 193.569 333.919 192.402 310.877C192.032 305.113 192.171 299.431 190.946 294.174C189.803 288.895 187.677 284.054 185.089 279.812C182.455 275.605 179.29 272.02 175.917 269.161C172.52 266.326 168.974 264.159 165.531 262.614C158.658 259.467 152.466 258.614 148.272 258.395C146.158 258.303 144.518 258.338 143.397 258.395C142.877 258.418 142.461 258.442 142.126 258.465C141.838 258.476 141.688 258.476 141.688 258.453C141.688 258.453 144.01 257.992 148.272 258.073C152.5 258.199 158.762 258.96 165.762 262.084C169.251 263.617 172.879 265.784 176.344 268.643C179.798 271.524 183.021 275.144 185.725 279.42C188.37 283.708 190.542 288.63 191.72 294.002C192.979 299.396 192.841 305.102 193.222 310.842C194.296 333.896 195.267 354.759 195.971 369.94C196.283 377.455 196.537 383.565 196.711 387.852C196.78 389.916 196.826 391.553 196.872 392.728C196.884 393.247 196.884 393.662 196.896 393.996C196.896 394.273 196.896 394.423 196.872 394.423Z" fill="#455A64"/>
<path d="M176.864 331.314C176.656 331.21 178.447 327.06 180.85 322.023C183.264 316.986 185.378 312.998 185.586 313.09C185.794 313.194 184.003 317.343 181.6 322.38C179.186 327.418 177.06 331.417 176.864 331.314Z" fill="#455A64"/>
<path d="M156.752 317.562C156.972 317.482 157.884 319.418 158.786 321.885C159.698 324.352 160.253 326.415 160.045 326.496C159.825 326.576 158.913 324.64 158.012 322.173C157.099 319.706 156.533 317.643 156.752 317.562Z" fill="#455A64"/>
<path d="M142.278 305.632C142.301 305.632 142.336 305.909 142.382 306.439C142.417 307.061 142.463 307.822 142.521 308.744C142.636 310.877 142.786 313.735 142.971 317.216C143.087 324.398 145.236 334.069 147.696 344.731C150.203 355.382 152.744 364.949 154.801 371.819C155.806 375.254 156.73 378.009 157.377 379.899C158.058 381.778 158.44 382.827 158.382 382.85C158.359 382.861 158.22 382.619 158.001 382.135C157.781 381.651 157.446 380.948 157.077 380.014C156.337 378.147 155.321 375.415 154.246 371.992C152.04 365.156 149.394 355.589 146.887 344.927C144.438 334.288 142.359 324.478 142.394 317.251C142.255 313.666 142.209 310.761 142.197 308.756C142.209 307.834 142.209 307.073 142.209 306.439C142.232 305.909 142.255 305.632 142.278 305.632Z" fill="#455A64"/>
<path d="M207.606 255.894C207.675 256.032 205.988 256.736 203.724 258.511C201.448 260.263 198.676 263.214 196.7 267.133C194.713 271.052 193.859 274.994 193.466 277.841C193.073 280.7 193.062 282.509 192.923 282.509C192.865 282.509 192.807 282.06 192.773 281.241C192.738 280.423 192.75 279.236 192.877 277.772C193.119 274.867 193.905 270.787 195.95 266.752C197.994 262.718 200.94 259.709 203.366 258.038C204.579 257.197 205.63 256.632 206.393 256.298C207.144 255.963 207.583 255.848 207.606 255.894Z" fill="#455A64"/>
<path d="M250.788 253.692C250.938 253.888 248.374 255.986 245.821 259.122C243.245 262.245 241.708 265.173 241.477 265.058C241.281 264.977 242.528 261.807 245.174 258.591C247.808 255.375 250.673 253.52 250.788 253.692Z" fill="#455A64"/>
<path d="M182.457 275.582C182.318 275.57 182.503 273.53 182.364 270.245C182.272 266.96 181.764 262.453 180.863 257.508C179.95 252.678 179.118 248.321 178.46 244.84C177.871 241.589 177.559 239.572 177.674 239.549C177.79 239.526 178.298 241.509 179.037 244.725C179.754 247.952 180.782 252.39 181.683 257.358C182.584 262.326 183.011 266.914 182.954 270.233C182.942 271.893 182.838 273.23 182.734 274.152C182.607 275.086 182.515 275.593 182.457 275.582Z" fill="#455A64"/>
<path d="M182.353 241.497C182.33 241.451 182.492 241.301 182.884 241.197C183.266 241.094 183.878 241.082 184.536 241.416C185.172 241.716 185.888 242.512 185.876 243.56C185.876 244.563 185.264 245.681 184.097 246.096C182.954 246.511 181.694 245.946 181.163 245.105C180.562 244.275 180.62 243.215 181.001 242.592C181.359 241.947 181.891 241.624 182.26 241.497C182.642 241.37 182.861 241.416 182.873 241.463C182.931 241.578 182.006 241.751 181.533 242.846C181.313 243.364 181.336 244.079 181.787 244.667C182.214 245.255 183.046 245.601 183.832 245.324C184.582 245.07 185.091 244.264 185.114 243.549C185.16 242.834 184.733 242.246 184.247 241.935C183.219 241.267 182.376 241.624 182.353 241.497Z" fill="#455A64"/>
<path d="M185.553 133.929C185.553 133.929 204.29 140.511 206.347 152.211C208.403 163.911 217.991 205.949 217.991 205.949L274.62 213.268L268.036 228.541C268.036 228.541 204.36 231.757 201.402 228.541C198.433 225.325 185.553 133.929 185.553 133.929Z" fill="#F0C63D"/>
<path d="M128.161 242.488C129.998 234.085 131.315 230.604 131.315 230.604L121.831 159.012L115.234 135.174L136.444 129.446C144.23 141.399 167.092 142.367 170.396 129.446L185.541 133.941C185.541 133.941 207.837 174.204 206.797 188.267C205.654 203.689 210.575 228.622 210.575 228.622C210.575 228.622 211.118 236.84 205.4 240.69L128.161 242.488Z" fill="#F0C63D"/>
<path d="M115.233 135.105C115.233 135.105 103.3 141.295 100.481 152.983C98.4481 161.398 96.0221 213.752 100.481 222.858C104.94 231.953 108.441 237.728 118.052 239.353C127.664 240.978 186.834 238.558 186.834 238.558L190.011 215.758L126.832 206.364C126.832 206.364 125.249 159.461 124.556 156.211" fill="#F0C63D"/>
<path d="M136.443 129.446C136.443 129.446 135.415 124.604 136.443 124.143C137.471 123.694 170.753 125.054 170.973 126.183C171.204 127.325 170.973 131.071 170.973 131.071C170.973 131.071 167.334 140.039 158.97 140.719C150.618 141.399 136.894 132.685 136.443 129.446Z" fill="#F0C63D"/>
<path d="M197.139 218.663L213.589 217.452L221.479 222.789L228.272 231.918C228.272 231.918 227.336 233.405 225.442 232.691L227.972 235.745C227.972 235.745 227.013 237.705 224.806 236.667L226.366 239.077C226.366 239.077 223.397 240.137 221.653 237.428C219.908 234.719 216.373 230.916 216.373 230.916L210.354 228.933L216.223 234.754L219.469 239.918C219.469 239.918 218.88 241.543 217.69 240.794C216.5 240.045 213.219 235.987 213.219 235.987L206.311 231.584C206.311 231.584 201.413 233.797 199.9 233.82C198.375 233.843 193.442 230.697 193.442 230.697L188.74 233.797L189.999 217.464L197.139 218.663Z" fill="#A8605D"/>
<path d="M227.971 235.757C227.902 235.803 227.139 234.915 225.961 233.428C224.783 231.941 223.189 229.867 221.456 227.538C220.878 226.766 220.324 226.017 219.804 225.302L219.885 225.383C217.978 224.219 216.35 223.204 215.194 222.455C214.039 221.706 213.381 221.233 213.415 221.175C213.45 221.118 214.189 221.475 215.391 222.132C216.592 222.789 218.267 223.746 220.185 224.876L220.231 224.899L220.266 224.945C220.797 225.648 221.352 226.397 221.941 227.169C223.674 229.486 225.21 231.607 226.308 233.163C227.394 234.719 228.04 235.699 227.971 235.757Z" fill="#844949"/>
<path d="M225.996 238.512C225.926 238.558 225.256 237.728 224.24 236.345C223.223 234.961 221.837 233.025 220.347 230.858C219.838 230.109 219.342 229.383 218.868 228.702L218.984 228.806C215.391 227.066 212.803 225.717 212.872 225.59C212.93 225.463 215.61 226.605 219.238 228.276L219.307 228.311L219.353 228.38C219.827 229.06 220.324 229.774 220.843 230.524C222.334 232.691 223.651 234.662 224.586 236.114C225.522 237.543 226.065 238.454 225.996 238.512Z" fill="#844949"/>
<path d="M127.767 239.641C127.767 239.63 127.86 239.63 128.056 239.618C128.276 239.607 128.553 239.595 128.899 239.584C129.673 239.561 130.771 239.538 132.192 239.492C135.103 239.434 139.296 239.342 144.599 239.238C155.262 239.053 170.349 238.8 188.116 238.512L187.839 238.765C188.416 231.619 189.052 223.85 189.722 215.746L189.976 216.069C185.089 215.343 179.972 214.582 174.762 213.81C157.237 211.193 140.798 208.738 126.797 206.64L126.566 206.606L126.577 206.375C127.178 191.333 126.67 178.769 125.954 169.997C125.607 165.616 125.226 162.17 124.96 159.83C124.821 158.677 124.717 157.79 124.648 157.156C124.613 156.868 124.59 156.649 124.579 156.464C124.567 156.314 124.556 156.234 124.567 156.234C124.579 156.234 124.59 156.314 124.613 156.464C124.648 156.637 124.683 156.868 124.729 157.144C124.821 157.778 124.949 158.666 125.122 159.807C125.445 162.147 125.861 165.582 126.254 169.974C127.051 178.745 127.64 191.333 127.086 206.398L126.866 206.133C140.867 208.196 157.318 210.628 174.843 213.222C180.053 213.994 185.17 214.755 190.045 215.481L190.323 215.527L190.299 215.804C189.629 223.907 188.971 231.676 188.382 238.811L188.359 239.065H188.105C170.337 239.272 155.262 239.457 144.587 239.584C139.285 239.63 135.091 239.664 132.18 239.687C130.759 239.687 129.662 239.687 128.888 239.687C128.53 239.687 128.252 239.676 128.045 239.676C127.871 239.653 127.767 239.641 127.767 239.641Z" fill="#263238"/>
<path d="M170.984 126.183C171.019 126.183 171.1 126.771 171.134 127.832C171.146 128.362 171.157 129.019 171.111 129.78C171.042 130.541 171.053 131.405 170.591 132.362C169.921 133.238 168.905 133.641 167.819 133.987C166.721 134.298 165.543 134.517 164.295 134.725C161.8 135.14 159.027 135.382 156.105 135.359C150.259 135.336 145.038 134.229 141.399 133.088C139.574 132.523 138.153 131.797 137.309 131.128C136.882 130.794 136.593 130.494 136.408 130.287C136.235 130.068 136.143 129.941 136.166 129.93C136.2 129.895 136.581 130.345 137.459 130.944C138.326 131.543 139.712 132.177 141.526 132.685C145.165 133.71 150.34 134.736 156.116 134.759C159.004 134.782 161.742 134.563 164.214 134.171C165.451 133.976 166.629 133.78 167.68 133.503C168.211 133.353 168.697 133.18 169.147 132.95C169.367 132.834 169.575 132.708 169.771 132.569C169.979 132.431 170.141 132.293 170.233 132.131C170.626 131.37 170.684 130.46 170.776 129.734C170.845 128.984 170.88 128.339 170.903 127.82C170.938 126.771 170.938 126.195 170.984 126.183Z" fill="#263238"/>
<path d="M141.884 132.984C141.78 133.088 140.428 131.359 140.174 128.765C139.897 126.172 140.879 124.201 141.006 124.293C141.179 124.351 140.509 126.276 140.775 128.708C141.006 131.14 142.046 132.904 141.884 132.984Z" fill="#263238"/>
<path d="M148.734 124.316C148.908 124.351 148.515 126.598 148.596 129.388C148.654 132.177 149.162 134.402 148.989 134.437C148.85 134.483 148.053 132.27 147.995 129.399C147.914 126.529 148.584 124.27 148.734 124.316Z" fill="#263238"/>
<path d="M157.376 134.898C157.215 134.898 157.111 132.65 157.145 129.872C157.18 127.094 157.353 124.858 157.515 124.858C157.677 124.858 157.781 127.106 157.746 129.884C157.711 132.661 157.538 134.909 157.376 134.898Z" fill="#263238"/>
<path d="M166.814 125.688C166.952 125.665 167.391 127.67 167.033 130.16C166.675 132.65 165.705 134.46 165.566 134.391C165.393 134.321 166.097 132.466 166.432 130.079C166.791 127.693 166.629 125.711 166.814 125.688Z" fill="#263238"/>
<path d="M195.891 197.742C195.856 197.742 195.891 197.165 196.018 196.128C196.145 195.09 196.364 193.603 196.641 191.771C197.196 188.105 197.947 182.999 197.277 177.374C196.676 171.749 195.267 166.792 194.273 163.219C193.788 161.513 193.384 160.095 193.06 158.989C192.783 157.986 192.644 157.433 192.679 157.409C192.714 157.398 192.933 157.928 193.28 158.908C193.626 159.888 194.123 161.317 194.678 163.092C195.775 166.642 197.265 171.61 197.878 177.305C198.559 183.01 197.727 188.197 197.069 191.84C196.745 193.58 196.468 195.033 196.26 196.174C196.052 197.177 195.937 197.742 195.891 197.742Z" fill="#263238"/>
<path d="M285.467 193.281L262.547 243.86C261.6 245.958 258.712 247.652 256.413 247.687L150.664 247.549C150.93 245.336 152.79 243.653 155.019 243.607L195.14 242.731L215.68 193.546C216.338 191.978 217.863 190.952 219.573 190.941L283.607 190.457C285.086 190.434 286.068 191.944 285.467 193.281Z" fill="#E0E0E0"/>
<path d="M285.468 193.281C285.468 193.281 285.595 193.096 285.664 192.693C285.722 192.301 285.676 191.598 285.098 190.998C284.821 190.699 284.382 190.468 283.874 190.399C283.365 190.364 282.834 190.388 282.233 190.388C281.055 190.388 279.692 190.388 278.155 190.388C271.986 190.411 263.022 190.445 251.793 190.491C246.167 190.526 239.975 190.56 233.286 190.595C229.936 190.618 226.459 190.63 222.878 190.653C221.977 190.653 221.076 190.664 220.163 190.664C219.274 190.63 218.211 190.756 217.379 191.264C216.524 191.748 215.831 192.531 215.45 193.454C215.092 194.318 214.722 195.194 214.352 196.07C208.461 210.133 201.899 225.809 194.875 242.604L195.164 242.408C188.163 242.558 180.92 242.719 173.481 242.869C169.761 242.95 165.995 243.03 162.183 243.111C160.276 243.157 158.37 243.192 156.441 243.238L154.997 243.272C154.477 243.284 153.969 243.388 153.484 243.572C152.513 243.929 151.658 244.609 151.092 245.474C150.688 246.108 150.445 246.823 150.365 247.503L150.318 247.871H150.688C174.07 247.895 196.319 247.918 216.547 247.929C226.655 247.929 236.267 247.941 245.243 247.941C247.484 247.941 249.702 247.941 251.862 247.941C252.948 247.941 254.023 247.941 255.086 247.941C255.628 247.929 256.137 247.952 256.68 247.929C257.234 247.895 257.766 247.779 258.285 247.618C260.296 246.938 262.155 245.566 262.941 243.618C263.761 241.797 264.558 240.022 265.344 238.281C271.594 224.391 276.642 213.153 280.142 205.372C281.864 201.499 283.215 198.479 284.128 196.416C284.567 195.402 284.913 194.629 285.144 194.076C285.364 193.557 285.468 193.281 285.468 193.281C285.468 193.281 285.329 193.534 285.075 194.053C284.821 194.595 284.463 195.356 283.989 196.358C283.042 198.41 281.667 201.407 279.888 205.269C276.342 213.038 271.224 224.242 264.905 238.097C264.119 239.826 263.311 241.601 262.479 243.422C261.751 245.22 260.007 246.5 258.112 247.134C257.153 247.48 256.148 247.433 255.062 247.422C254 247.422 252.925 247.41 251.839 247.41C249.668 247.399 247.461 247.399 245.22 247.387C236.232 247.364 226.632 247.341 216.524 247.318C196.296 247.284 174.047 247.249 150.676 247.203L151 247.572C151.069 246.984 151.289 246.361 151.635 245.82C152.121 245.07 152.86 244.483 153.703 244.171C154.119 244.022 154.57 243.929 155.009 243.918L156.453 243.883C158.37 243.837 160.288 243.803 162.194 243.756C165.995 243.676 169.772 243.584 173.492 243.503C180.932 243.341 188.187 243.18 195.176 243.019H195.384L195.464 242.834C202.465 226.028 208.992 210.352 214.861 196.278C215.23 195.402 215.588 194.526 215.947 193.661C216.282 192.843 216.894 192.163 217.645 191.725C218.419 191.275 219.251 191.16 220.175 191.183C221.087 191.171 221.988 191.171 222.889 191.16C226.482 191.125 229.959 191.091 233.298 191.068C239.987 190.998 246.179 190.941 251.805 190.895C263.033 190.768 271.986 190.676 278.167 190.607C279.703 190.583 281.066 190.572 282.245 190.549C282.834 190.549 283.388 190.514 283.862 190.537C284.336 190.595 284.752 190.802 285.017 191.079C285.583 191.644 285.653 192.312 285.607 192.693C285.549 193.085 285.445 193.269 285.468 193.281Z" fill="#263238"/>
<path d="M197.116 248.114C197.139 248.125 197.243 247.929 197.428 247.56C197.636 247.122 197.89 246.58 198.19 245.923C198.86 244.402 199.773 242.35 200.87 239.86C203.1 234.731 206.138 227.619 209.407 219.735C212.677 211.839 215.553 204.669 217.552 199.436C218.545 196.819 219.342 194.699 219.85 193.223C220.082 192.543 220.278 191.978 220.428 191.517C220.555 191.125 220.613 190.918 220.59 190.906C220.567 190.895 220.474 191.091 220.301 191.471C220.116 191.921 219.885 192.474 219.608 193.131C218.984 194.675 218.141 196.75 217.113 199.263C214.952 204.519 212.03 211.631 208.795 219.481C205.549 227.331 202.615 234.42 200.443 239.676C199.415 242.2 198.583 244.275 197.947 245.82C197.693 246.488 197.474 247.042 197.301 247.503C197.162 247.906 197.093 248.102 197.116 248.114Z" fill="#455A64"/>
<path d="M238.578 217.798C238.578 219.608 240.045 221.072 241.859 221.072C243.673 221.072 245.14 219.608 245.14 217.798C245.14 215.988 243.673 214.525 241.859 214.525C240.045 214.525 238.578 215.988 238.578 217.798Z" fill="white"/>
<path d="M271.074 225.475C271.074 225.475 274.563 224.772 275.498 224.057C276.434 223.343 277.012 222.04 276.769 221.233C276.527 220.426 276.527 220.426 276.527 220.426C276.527 220.426 279.241 218.075 278.883 216.173C278.883 216.173 281.529 213.971 280.628 211.908C280.628 211.908 283.054 210.386 282.245 208.888C281.436 207.389 279.299 206.525 278.017 206.467C276.735 206.41 272.68 205.545 272.31 206.168C272.31 206.168 271.317 207.816 272.148 208.485C272.98 209.153 273.384 209.464 273.384 209.464C273.384 209.464 269.745 208.588 269.214 209.314C268.683 210.041 268.059 211.597 269.491 212.334C269.491 212.334 268.047 212.565 268.024 213.441C268.013 214.317 268.128 215.458 269.064 215.792C270 216.127 270.912 216.542 270.912 216.542C270.912 216.542 269.41 216.334 269.399 217.118C269.376 217.902 269.018 218.536 269.953 219.423C270.889 220.311 272.599 222.201 272.599 222.201L271.074 225.475Z" fill="#A8605D"/>
<path d="M270.959 216.611C270.959 216.657 271.375 216.645 272.033 216.761C272.68 216.876 273.57 217.153 274.378 217.729C275.199 218.305 275.753 219.055 276.077 219.619C276.4 220.196 276.527 220.599 276.573 220.576C276.608 220.565 276.562 220.138 276.273 219.516C275.996 218.893 275.43 218.086 274.563 217.464C273.697 216.853 272.738 216.588 272.056 216.53C271.375 216.473 270.959 216.576 270.959 216.611Z" fill="#844949"/>
<path d="M278.941 215.977C278.964 215.954 278.56 215.539 277.809 214.986C277.058 214.444 275.938 213.775 274.609 213.268C273.281 212.761 272.01 212.507 271.086 212.404C270.162 212.311 269.584 212.346 269.584 212.381C269.572 212.484 271.883 212.542 274.505 213.568C277.128 214.559 278.884 216.058 278.941 215.977Z" fill="#844949"/>
<path d="M280.604 211.816C280.65 211.747 279.16 210.813 277.103 210.144C275.059 209.464 273.303 209.314 273.303 209.395C273.291 209.487 275.001 209.764 277.011 210.444C279.021 211.101 280.569 211.896 280.604 211.816Z" fill="#844949"/>
<path d="M318.414 2.14397H227.926V135.082H236.659L244.619 150.632L254.796 135.082H318.414V2.14397Z" fill="#FAFAFA"/>
<path d="M318.414 2.14398C318.414 2.14398 318.426 2.33993 318.426 2.7549C318.426 3.18139 318.437 3.7923 318.437 4.58765C318.449 6.22445 318.46 8.63354 318.472 11.7573C318.483 18.0624 318.518 27.2608 318.541 38.9259C318.576 62.3252 318.622 95.5914 318.68 135.071V135.347H318.403C298.891 135.359 277.381 135.359 254.784 135.37L255.039 135.232C251.816 140.165 248.361 145.445 244.873 150.793L244.595 151.231L244.364 150.77C241.869 145.906 239.212 140.696 236.532 135.451L236.405 135.209L236.671 135.37C233.725 135.37 230.802 135.37 227.937 135.37H227.637V135.071C227.66 84.7793 227.683 38.6723 227.694 2.13245V1.89039H227.937C255.616 1.94802 278.259 1.9826 293.993 2.01718C301.825 2.04024 307.936 2.06329 312.107 2.07482C314.163 2.08634 315.746 2.09787 316.82 2.09787C317.883 2.13245 318.414 2.14398 318.414 2.14398C318.414 2.14398 317.848 2.1555 316.774 2.16703C315.688 2.17856 314.094 2.17856 312.014 2.19008C307.832 2.20161 301.698 2.22466 293.843 2.24772C278.143 2.2823 255.547 2.31688 227.926 2.37451L228.168 2.13245C228.18 38.6723 228.203 84.7793 228.226 135.071L227.926 134.771C230.79 134.771 233.713 134.771 236.659 134.771H236.844L236.925 134.932L237.052 135.174C239.732 140.419 242.4 145.618 244.884 150.493L244.364 150.47C247.865 145.122 251.319 139.843 254.542 134.921L254.634 134.782H254.796C277.392 134.794 298.902 134.805 318.414 134.805L318.148 135.071C318.206 95.6606 318.252 62.4635 318.287 39.0988C318.322 27.4106 318.345 18.1892 318.356 11.8726C318.368 8.72576 318.379 6.29361 318.391 4.64528C318.403 3.83841 318.403 3.21597 318.403 2.77795C318.403 2.36299 318.414 2.14398 318.414 2.14398Z" fill="#263238"/>
<path d="M253.238 113.239H252.949C251.586 113.239 250.488 112.132 250.488 110.784V27.6758C250.488 26.3156 251.597 25.2206 252.949 25.2206H253.238C254.601 25.2206 255.698 26.3271 255.698 27.6758V110.784C255.71 112.144 254.601 113.239 253.238 113.239Z" fill="#E0E0E0"/>
<path d="M253.237 113.239C253.202 113.181 253.965 113.343 254.878 112.524C255.952 111.706 255.524 109.746 255.582 107.476C255.559 102.83 255.524 96.1678 255.49 87.9492C255.467 79.696 255.455 69.8867 255.421 58.9824C255.421 53.5303 255.409 47.813 255.397 41.8767C255.397 38.9143 255.397 35.8943 255.397 32.8282C255.397 31.2952 255.397 29.7506 255.397 28.206C255.397 27.8025 255.421 27.4452 255.328 27.1225C255.247 26.7882 255.074 26.477 254.843 26.2234C254.369 25.6932 253.711 25.4511 252.948 25.4972C252.255 25.4972 251.574 25.843 251.181 26.4078C250.973 26.6845 250.857 27.0187 250.8 27.353C250.753 27.6758 250.788 28.1022 250.777 28.4826C250.777 30.0387 250.777 31.5833 250.777 33.1164C250.777 36.1825 250.777 39.2025 250.777 42.1649C250.765 48.1012 250.765 53.8184 250.753 59.2706C250.73 70.1634 250.707 79.9842 250.684 88.2374C250.649 96.4559 250.615 103.118 250.592 107.764C250.58 108.916 250.569 109.931 250.569 110.83C250.58 111.694 251.042 112.363 251.516 112.709C251.989 113.066 252.463 113.17 252.763 113.204C253.075 113.227 253.237 113.227 253.237 113.239C253.237 113.239 253.075 113.273 252.763 113.262C252.452 113.25 251.966 113.17 251.447 112.801C250.95 112.455 250.418 111.763 250.395 110.83C250.384 109.942 250.372 108.916 250.361 107.764C250.338 103.118 250.303 96.4559 250.268 88.2374C250.245 79.9842 250.234 70.1634 250.199 59.2706C250.199 53.8184 250.187 48.1012 250.176 42.1649C250.176 39.2025 250.176 36.1825 250.176 33.1164C250.176 31.5833 250.176 30.0387 250.176 28.4826C250.187 28.0792 250.153 27.7334 250.21 27.2723C250.268 26.8458 250.43 26.4193 250.696 26.062C251.204 25.3358 252.07 24.8863 252.96 24.8978C253.769 24.8286 254.739 25.1514 255.305 25.8199C255.605 26.1427 255.813 26.5461 255.917 26.9611C256.033 27.3991 255.998 27.8256 256.01 28.1945C256.01 29.7506 256.01 31.2952 256.01 32.8167C256.01 35.8828 256.01 38.9028 256.01 41.8652C255.998 47.79 255.998 53.5188 255.987 58.9709C255.963 69.8637 255.94 79.673 255.917 87.9377C255.883 96.1562 255.848 102.819 255.825 107.464C255.813 108.617 255.802 109.631 255.802 110.53C255.848 111.441 255.444 112.201 254.97 112.605C253.976 113.446 253.202 113.216 253.237 113.239Z" fill="#263238"/>
<path d="M273.314 113.239H273.025C271.662 113.239 270.564 112.132 270.564 110.784V27.6758C270.564 26.3156 271.673 25.2206 273.025 25.2206H273.314C274.677 25.2206 275.775 26.3271 275.775 27.6758V110.784C275.775 112.144 274.677 113.239 273.314 113.239Z" fill="#E0E0E0"/>
<path d="M273.313 113.239C273.279 113.181 274.053 113.343 274.954 112.524C276.028 111.706 275.601 109.746 275.658 107.476C275.635 102.83 275.601 96.1678 275.566 87.9492C275.543 79.696 275.531 69.8867 275.497 58.9824C275.497 53.5303 275.485 47.813 275.474 41.8767C275.474 38.9143 275.474 35.8943 275.474 32.8282C275.474 31.2952 275.474 29.7506 275.474 28.206C275.474 27.8025 275.497 27.4452 275.404 27.1225C275.323 26.7882 275.15 26.477 274.919 26.2234C274.445 25.6932 273.787 25.4511 273.024 25.4972C272.331 25.4972 271.65 25.843 271.257 26.4078C271.049 26.6845 270.934 27.0187 270.876 27.353C270.83 27.6758 270.864 28.1022 270.853 28.4826C270.853 30.0387 270.853 31.5833 270.853 33.1164C270.853 36.1825 270.853 39.2025 270.853 42.1649C270.841 48.1012 270.841 53.8184 270.83 59.2706C270.806 70.1634 270.783 79.9842 270.76 88.2374C270.726 96.4559 270.691 103.118 270.668 107.764C270.656 108.916 270.645 109.931 270.645 110.83C270.656 111.694 271.118 112.363 271.592 112.709C272.066 113.066 272.539 113.17 272.84 113.204C273.152 113.227 273.313 113.227 273.313 113.239C273.313 113.239 273.152 113.273 272.84 113.262C272.528 113.25 272.043 113.17 271.523 112.801C271.026 112.455 270.495 111.763 270.471 110.83C270.46 109.942 270.448 108.916 270.437 107.764C270.414 103.118 270.379 96.4559 270.344 88.2374C270.321 79.9842 270.31 70.1634 270.275 59.2706C270.275 53.8184 270.264 48.1012 270.252 42.1649C270.252 39.2025 270.252 36.1825 270.252 33.1164C270.252 31.5833 270.252 30.0387 270.252 28.4826C270.264 28.0792 270.229 27.7334 270.287 27.2723C270.344 26.8458 270.506 26.4193 270.772 26.062C271.28 25.3358 272.147 24.8863 273.036 24.8978C273.845 24.8286 274.815 25.1514 275.381 25.8199C275.682 26.1427 275.889 26.5461 275.993 26.9611C276.109 27.3991 276.074 27.8256 276.086 28.1945C276.086 29.7506 276.086 31.2952 276.086 32.8167C276.086 35.8828 276.086 38.9028 276.086 41.8652C276.074 47.79 276.074 53.5188 276.063 58.9709C276.04 69.8637 276.017 79.673 275.993 87.9377C275.959 96.1562 275.924 102.819 275.901 107.464C275.889 108.617 275.878 109.631 275.878 110.53C275.924 111.441 275.52 112.201 275.046 112.605C274.053 113.446 273.267 113.216 273.313 113.239Z" fill="#263238"/>
<path d="M293.38 113.239H293.091C291.728 113.239 290.631 112.132 290.631 110.784V27.6758C290.631 26.3156 291.74 25.2206 293.091 25.2206H293.38C294.743 25.2206 295.841 26.3271 295.841 27.6758V110.784C295.852 112.144 294.743 113.239 293.38 113.239Z" fill="#E0E0E0"/>
<path d="M293.38 113.239C293.345 113.181 294.107 113.343 295.02 112.524C296.094 111.706 295.667 109.746 295.725 107.476C295.702 102.83 295.667 96.1678 295.632 87.9492C295.609 79.696 295.598 69.8867 295.563 58.9824C295.563 53.5303 295.552 47.813 295.54 41.8767C295.54 38.9143 295.54 35.8943 295.54 32.8282C295.54 31.2952 295.54 29.7506 295.54 28.206C295.54 27.8025 295.563 27.4452 295.471 27.1225C295.39 26.7882 295.217 26.477 294.985 26.2234C294.512 25.6932 293.853 25.4511 293.091 25.4972C292.398 25.4972 291.716 25.843 291.323 26.4078C291.115 26.6845 291 27.0187 290.942 27.353C290.896 27.6758 290.931 28.1022 290.919 28.4826C290.919 30.0387 290.919 31.5833 290.919 33.1164C290.919 36.1825 290.919 39.2025 290.919 42.1649C290.908 48.1012 290.908 53.8184 290.896 59.2706C290.873 70.1634 290.85 79.9842 290.827 88.2374C290.792 96.4559 290.757 103.118 290.734 107.764C290.723 108.916 290.711 109.931 290.711 110.83C290.723 111.694 291.185 112.363 291.658 112.709C292.132 113.066 292.606 113.17 292.906 113.204C293.218 113.227 293.38 113.227 293.38 113.239C293.38 113.239 293.218 113.273 292.906 113.262C292.594 113.25 292.109 113.17 291.589 112.801C291.092 112.455 290.561 111.763 290.538 110.83C290.526 109.942 290.515 108.916 290.503 107.764C290.48 103.118 290.445 96.4559 290.411 88.2374C290.388 79.9842 290.376 70.1634 290.341 59.2706C290.341 53.8184 290.33 48.1012 290.318 42.1649C290.318 39.2025 290.318 36.1825 290.318 33.1164C290.318 31.5833 290.318 30.0387 290.318 28.4826C290.33 28.0792 290.295 27.7334 290.353 27.2723C290.411 26.8458 290.573 26.4193 290.838 26.062C291.347 25.3358 292.213 24.8863 293.102 24.8978C293.911 24.8286 294.881 25.1514 295.448 25.8199C295.748 26.1427 295.956 26.5461 296.06 26.9611C296.175 27.3991 296.141 27.8256 296.152 28.1945C296.152 29.7506 296.152 31.2952 296.152 32.8167C296.152 35.8828 296.152 38.9028 296.152 41.8652C296.141 47.79 296.141 53.5188 296.129 58.9709C296.106 69.8637 296.083 79.673 296.06 87.9377C296.025 96.1562 295.991 102.819 295.967 107.464C295.956 108.617 295.944 109.631 295.944 110.53C295.99 111.441 295.586 112.201 295.113 112.605C294.119 113.446 293.345 113.216 293.38 113.239Z" fill="#263238"/>
<path d="M253.04 66.4748H251.527C248.881 66.4748 246.732 64.3309 246.732 61.6912V61.1379C246.732 58.4983 248.881 56.3543 251.527 56.3543H253.04C255.685 56.3543 257.834 58.4983 257.834 61.1379V61.6912C257.834 64.3309 255.685 66.4748 253.04 66.4748Z" fill="#F0C63D"/>
<path d="M274.423 85.5632H272.909C270.264 85.5632 268.115 83.4192 268.115 80.7795V80.2263C268.115 77.5866 270.264 75.4426 272.909 75.4426H274.423C277.068 75.4426 279.217 77.5866 279.217 80.2263V80.7795C279.217 83.4192 277.068 85.5632 274.423 85.5632Z" fill="#F0C63D"/>
<path d="M293.763 49.5881H292.249C289.604 49.5881 287.455 47.4441 287.455 44.8045V44.2512C287.455 41.6116 289.604 39.4676 292.249 39.4676H293.763C296.408 39.4676 298.557 41.6116 298.557 44.2512V44.8045C298.568 47.4441 296.42 49.5881 293.763 49.5881Z" fill="#F0C63D"/>
<path d="M113.697 40.8624C112.83 17.5668 93.2147 -0.622445 69.8677 0.242062C46.5206 1.09504 28.2912 20.679 29.1461 43.9746C30.0009 67.2702 49.6282 85.4594 72.9752 84.5949C81.6047 84.2721 89.5411 81.3905 96.0681 76.7106V76.7221L111.409 82.3702L106.119 66.544C111.202 59.2937 114.043 50.3835 113.697 40.8624Z" fill="#FAFAFA"/>
<path d="M113.696 40.8624C113.696 40.8624 113.72 41.0237 113.731 41.3234C113.743 41.6577 113.754 42.1073 113.777 42.6951C113.766 43.9054 113.743 45.7036 113.454 48.0205C112.865 52.6081 111.224 59.4896 106.28 66.6362L106.303 66.4748C107.874 71.1432 109.665 76.4685 111.629 82.2895L111.767 82.716L111.34 82.5547C106.638 80.8372 101.474 78.9352 95.9869 76.9296L95.8599 76.8835L95.8252 76.7567V76.7452L96.2064 76.8835C91.5162 80.2608 85.8325 82.8659 79.5365 84.0877C77.9654 84.3874 76.3597 84.6064 74.7308 84.7447C73.102 84.8946 71.45 84.8254 69.7749 84.8024C69.359 84.7908 68.9432 84.8024 68.5157 84.7793L67.2681 84.641C66.4248 84.5488 65.593 84.445 64.7381 84.3528C63.8948 84.2491 63.0631 84.007 62.2313 83.8456C61.3995 83.6382 60.5331 83.5344 59.7129 83.2463C58.0725 82.6814 56.3743 82.255 54.7801 81.4827C53.9715 81.1253 53.1513 80.7911 52.3542 80.4107C51.5802 79.9842 50.8062 79.5462 50.0206 79.1082L48.8538 78.4511L47.7448 77.6904C47.0055 77.1832 46.2661 76.6645 45.5152 76.1458C44.8221 75.5579 44.129 74.9816 43.4243 74.3937L42.373 73.5062L41.4142 72.5264C40.7788 71.8694 40.1203 71.2239 39.485 70.5438C38.9074 69.8291 38.3182 69.1029 37.7406 68.3767C37.4518 68.0079 37.1399 67.6621 36.8742 67.2817L36.1002 66.1175C35.5919 65.3337 35.0374 64.5729 34.5753 63.7545C33.7204 62.0831 32.7269 60.4579 32.0915 58.6712C31.7565 57.7837 31.3175 56.9307 31.0634 56.0085C30.7861 55.0979 30.5204 54.1758 30.2432 53.2536C27.7826 43.7095 28.6143 33.5544 32.5421 25.1053C34.4597 20.875 36.9781 16.9904 40.0164 13.6938C43.0777 10.4202 46.5665 7.69987 50.2516 5.54437C53.9599 3.37734 57.9339 1.99413 61.8616 1.02588C62.8551 0.841451 63.8486 0.645496 64.8306 0.461068C65.8125 0.242059 66.806 0.253586 67.7879 0.138319C69.7403 -0.11527 71.681 -2.50898e-06 73.5872 0.023051C81.2116 0.403434 88.0736 2.89321 93.5841 6.22445C99.106 9.61332 103.23 13.9243 106.164 18.097C106.858 19.1805 107.585 20.1834 108.163 21.2208C108.717 22.2697 109.249 23.2841 109.757 24.2638C110.219 25.2551 110.577 26.2464 110.959 27.1686C111.132 27.6296 111.351 28.0792 111.49 28.5287C111.629 28.9898 111.756 29.4278 111.883 29.8658C112.137 30.7303 112.368 31.5487 112.599 32.3095C112.749 33.0933 112.888 33.831 113.015 34.5111C113.142 35.1912 113.258 35.8136 113.361 36.39C113.442 36.9663 113.454 37.4966 113.5 37.9691C113.569 38.9028 113.616 39.6059 113.662 40.1131C113.696 40.6088 113.696 40.8624 113.696 40.8624C113.696 40.8624 113.65 40.6203 113.604 40.1362C113.558 39.629 113.477 38.9259 113.385 38.0037C113.327 37.5311 113.304 37.0009 113.211 36.4246C113.096 35.8482 112.969 35.2258 112.842 34.5572C112.703 33.8771 112.564 33.151 112.403 32.3787C112.172 31.6179 111.929 30.811 111.663 29.958C111.536 29.5316 111.398 29.0935 111.259 28.6325C111.12 28.1829 110.901 27.7449 110.716 27.2838C110.323 26.3732 109.965 25.3935 109.503 24.4137C108.995 23.457 108.452 22.4541 107.897 21.4052C107.308 20.3793 106.58 19.388 105.899 18.316C102.953 14.1894 98.8519 9.93607 93.3761 6.60483C87.9004 3.33123 81.1077 0.899085 73.5756 0.541755C71.6926 0.530228 69.7749 0.414961 67.8457 0.680076C66.8869 0.795344 65.8934 0.783817 64.9345 1.00283C63.9641 1.18725 62.9938 1.37168 62.0003 1.56764C58.1303 2.53588 54.2025 3.90757 50.5405 6.05155C46.9015 8.184 43.4589 10.8813 40.4438 14.1088C37.4518 17.3708 34.968 21.1977 33.085 25.3704C29.2266 33.7158 28.4064 43.7095 30.8323 53.1268C31.098 54.0375 31.3753 54.9365 31.641 55.8356C31.8952 56.7462 32.3226 57.5877 32.6576 58.4637C33.293 60.2273 34.2634 61.8295 35.1067 63.4779C35.5688 64.2847 36.1117 65.034 36.6085 65.8063L37.3709 66.959C37.6251 67.3393 37.937 67.6736 38.2258 68.0425C38.8034 68.7571 39.381 69.4718 39.9471 70.1749C40.5824 70.8319 41.2178 71.4774 41.8532 72.1229L42.8005 73.0912L43.8286 73.9672C44.5217 74.5436 45.2033 75.1199 45.8849 75.6962C46.6242 76.2034 47.352 76.7106 48.0798 77.2178L49.1773 77.9785L50.3325 78.624C51.1065 79.0505 51.869 79.477 52.6314 79.9035C53.417 80.2839 54.2256 80.6066 55.0227 80.964C56.5823 81.7363 58.2689 82.1512 59.8862 82.7045C60.6949 82.9927 61.5382 83.0964 62.3699 83.3039C63.2017 83.4653 64.0104 83.6958 64.8421 83.8111C65.6739 83.9033 66.5056 84.007 67.3374 84.0992L68.5735 84.2376C68.9894 84.2606 69.4052 84.2606 69.8096 84.2606C71.4615 84.2721 73.0904 84.3528 74.6962 84.203C76.3019 84.0762 77.8961 83.8572 79.4441 83.569C85.6592 82.3818 91.2852 79.8228 95.9292 76.4916L96.2295 76.2841L96.3104 76.6414V76.653L96.1602 76.48C101.636 78.5088 106.8 80.4222 111.49 82.1512L111.213 82.4279C109.284 76.5953 107.516 71.2584 105.968 66.5901L105.945 66.5094L105.991 66.4402C110.936 59.3743 112.622 52.562 113.269 47.9974C113.593 45.6921 113.639 43.9054 113.685 42.6951C113.685 42.1073 113.685 41.6577 113.685 41.3234C113.685 41.0237 113.696 40.8624 113.696 40.8624Z" fill="#263238"/>
<path d="M54.6423 18.4543L59.448 22.408L60.3145 25.4972L74.8125 41.1044L73.2183 42.6375L59.0899 27.0533L56.017 25.7047L52.3203 20.656L54.6423 18.4543Z" fill="#E0E0E0"/>
<path d="M54.6418 18.4543C54.6418 18.4774 54.4338 18.6964 54.0642 19.0883C53.6367 19.5148 53.0938 20.0681 52.4237 20.7482L52.4353 20.5753C53.3941 21.8547 54.6764 23.5492 56.1898 25.5779L56.1089 25.5087C57.0562 25.9237 58.1074 26.3617 59.2049 26.8343L59.2511 26.8573L59.2858 26.8919C63.0864 31.0531 67.9037 36.3439 73.1484 42.1073L73.4488 42.4415L73.0214 42.43C73.5643 41.9113 74.0957 41.3926 74.6156 40.8969L74.604 41.3119C68.955 35.1797 63.9067 29.6929 60.1753 25.647L60.1406 25.6125L60.1291 25.5664C59.8287 24.4252 59.5515 23.3993 59.2973 22.4657L59.3551 22.5579C57.9226 21.3245 56.7674 20.3332 55.901 19.607C55.5313 19.2843 55.2309 19.0076 54.9768 18.7886C54.7457 18.5811 54.6418 18.4774 54.6418 18.4543C54.6418 18.4198 55.0808 18.754 55.9241 19.3995C56.8251 20.1142 58.0497 21.0709 59.563 22.2697L59.6092 22.3043L59.6208 22.3619C59.8865 23.2956 60.1868 24.3099 60.5219 25.4511L60.4641 25.3589C64.2301 29.3702 69.3362 34.8223 75.0314 40.8969L75.2278 41.116L75.0199 41.3234C74.5001 41.8306 73.9571 42.3378 73.4257 42.8565L73.2062 43.0755L72.9983 42.845L72.6979 42.5107C67.4878 36.7243 62.6937 31.3989 58.9276 27.2147L59.0085 27.2723C57.911 26.7767 56.8829 26.3156 55.9356 25.8891L55.8779 25.866L55.8432 25.8199C54.3761 23.7567 53.1515 22.0276 52.2158 20.7251L52.1465 20.6329L52.2273 20.5637C52.9667 19.9067 53.5559 19.3765 54.0179 18.9615C54.4338 18.6042 54.6418 18.4313 54.6418 18.4543Z" fill="#263238"/>
<path d="M75.4702 36.8511L76.9719 38.4302C76.9719 38.4302 76.5907 39.2832 77.1683 39.848C77.7459 40.4128 78.6701 40.2399 78.6701 40.2399L93.2375 56.2506C94.6931 57.8528 94.566 60.3426 92.9371 61.7834L92.0707 62.5442C90.4765 63.9505 88.0505 63.8237 86.6181 62.256L71.9929 46.3491C71.9929 46.3491 72.2817 45.3809 71.4962 44.8621C70.7106 44.3434 70.1561 44.574 70.1561 44.574L68.7814 43.0179C68.2616 42.43 68.3078 41.5309 68.8854 41.0007L73.437 36.7819C74.0146 36.2517 74.9272 36.2747 75.4702 36.8511Z" fill="#F0C63D"/>
<g opacity="0.3">
<path d="M91.6895 58.1525L78.081 43.3521C77.8037 43.0525 77.8268 42.5914 78.1272 42.3147C78.4276 42.0381 78.8897 42.0612 79.1669 42.3608L92.787 57.1612C93.0642 57.4609 93.0411 57.922 92.7408 58.1986C92.4289 58.4753 91.9668 58.4522 91.6895 58.1525Z" fill="black"/>
</g>
<g opacity="0.3">
<path d="M89.7382 59.9507L76.1181 45.1503C75.8409 44.8506 75.864 44.3896 76.1643 44.1129C76.4647 43.8363 76.9268 43.8593 77.204 44.159L90.8241 58.9594C91.1014 59.2591 91.0782 59.7201 90.7779 59.9968C90.4775 60.2619 90.0154 60.2504 89.7382 59.9507Z" fill="black"/>
</g>
<g opacity="0.3">
<path d="M87.6348 61.8757L74.0263 47.0638C73.7491 46.7641 73.7722 46.303 74.0725 46.0264C74.3729 45.7497 74.835 45.7728 75.1122 46.0725L88.7207 60.8843C88.998 61.184 88.9749 61.6451 88.6745 61.9218C88.3742 62.1869 87.9121 62.1638 87.6348 61.8757Z" fill="black"/>
</g>
<path d="M76.972 38.4302C76.9951 38.4533 75.4818 39.8365 73.5872 41.5309C71.7042 43.2253 70.1562 44.5855 70.1331 44.5625C70.11 44.5394 71.6233 43.1562 73.5179 41.4618C75.4124 39.7673 76.9604 38.4072 76.972 38.4302Z" fill="#263238"/>
<path d="M78.681 40.263C78.7041 40.286 77.2139 41.6692 75.3655 43.3521C73.5172 45.0351 71.9923 46.3837 71.9807 46.3606C71.9576 46.3376 73.4479 44.9544 75.3078 43.2715C77.1446 41.5886 78.6695 40.2399 78.681 40.263Z" fill="#263238"/>
<path d="M72.7327 45.4846C72.7211 45.4846 72.6634 45.3578 72.5594 45.1618C72.4554 44.9659 72.2706 44.7238 72.0164 44.4933C71.7623 44.2743 71.485 44.1244 71.2771 44.0438C71.0692 43.9631 70.9305 43.9285 70.9421 43.917C70.9421 43.9054 71.0807 43.9054 71.3117 43.9746C71.5312 44.0438 71.82 44.1821 72.0857 44.4126C72.3515 44.6431 72.5363 44.9083 72.6287 45.1157C72.7211 45.3347 72.7442 45.4846 72.7327 45.4846Z" fill="#263238"/>
<path d="M73.3225 44.793C73.2994 44.8045 73.0106 44.4126 72.6063 43.9861C72.1904 43.5596 71.8207 43.2484 71.8323 43.2254C71.8438 43.2023 72.2597 43.4789 72.6756 43.917C73.0915 44.355 73.3456 44.7815 73.3225 44.793Z" fill="#263238"/>
<path d="M73.9563 44.3089C73.9332 44.3319 73.5866 43.9631 73.1707 43.502C72.7549 43.0409 72.4429 42.649 72.466 42.626C72.4892 42.6029 72.8357 42.9718 73.2516 43.4328C73.6675 43.9054 73.9794 44.2973 73.9563 44.3089Z" fill="#263238"/>
<path d="M74.7198 43.5596C74.6967 43.5827 74.3271 43.2599 73.9112 42.8219C73.4953 42.3839 73.1949 41.992 73.218 41.9689C73.2411 41.9459 73.5762 42.3147 73.9805 42.7528C74.3964 43.1908 74.7429 43.5366 74.7198 43.5596Z" fill="#263238"/>
<path d="M75.321 42.8796C75.3095 42.9026 74.882 42.6951 74.5008 42.2571C74.1196 41.8191 73.9694 41.3695 73.9925 41.358C74.0156 41.3465 74.2005 41.7615 74.5701 42.1879C74.9514 42.6144 75.3441 42.8565 75.321 42.8796Z" fill="#263238"/>
<path d="M76.3375 42.2341C76.3259 42.2571 75.8407 42.0496 75.4017 41.5655C74.9627 41.0929 74.7895 40.5857 74.8126 40.5857C74.8357 40.5742 75.0436 41.0468 75.4826 41.4963C75.8985 41.9574 76.3606 42.1995 76.3375 42.2341Z" fill="#263238"/>
<path d="M76.6834 41.3004C76.6834 41.3234 76.2675 41.1621 75.944 40.7586C75.6206 40.3552 75.5513 39.9172 75.5744 39.9172C75.609 39.9056 75.7015 40.3091 76.0134 40.6895C76.3368 41.0814 76.6949 41.2658 76.6834 41.3004Z" fill="#263238"/>
<path d="M78.0226 40.9085C78.0226 40.92 77.8724 40.9315 77.6413 40.8969C77.4103 40.8508 77.0984 40.7356 76.8211 40.505C76.5439 40.2745 76.3706 39.9863 76.2897 39.7673C76.2089 39.5483 76.1973 39.3985 76.2089 39.3985C76.2204 39.3985 76.2551 39.5368 76.359 39.7327C76.4515 39.9402 76.6247 40.2053 76.8904 40.4243C77.1562 40.6434 77.445 40.7702 77.6645 40.8278C77.8839 40.8739 78.0226 40.8854 78.0226 40.9085Z" fill="#263238"/>
<path d="M96.9117 22.6616L96.4843 22.189L90.997 27.8717L85.9949 22.8806L91.2742 17.4169L90.8468 16.9443C89.3797 16.6677 85.2902 16.7023 82.0671 20.3332C78.8902 23.918 80.5306 28.644 80.5306 28.644L74.6621 34.5572L79.7451 39.3063L85.6367 33.4968C85.6367 33.4968 91.1356 35.1797 94.659 31.3067C97.8705 27.791 96.9117 22.6616 96.9117 22.6616Z" fill="#263238"/>
<path d="M70.6287 47.7554L65.5573 43.0179L58.9841 49.5074C58.9841 49.5074 52.9423 48.3087 49.9618 51.6975C47.3279 54.683 47.0391 58.4061 47.2124 59.8239C47.2586 60.2158 47.7091 60.3426 47.7091 60.3426L53.6239 55.1325L58.626 60.1236L52.8614 65.1147L53.3466 65.5873C53.3466 65.5873 58.5104 67.2356 62.5537 62.671C65.7306 59.0862 64.0902 54.3602 64.0902 54.3602L70.6287 47.7554Z" fill="#263238"/>
<path d="M96.484 22.189L90.5692 27.3991L85.5671 22.408L90.8465 16.9443C90.8465 16.9443 85.6826 15.296 81.6393 19.8606C78.4625 23.4454 80.1029 28.1714 80.1029 28.1714L74.2344 34.0846L79.3174 38.8337L85.209 33.0242C85.209 33.0242 90.7079 34.7071 94.2313 30.8341C97.4428 27.3184 96.484 22.189 96.484 22.189Z" fill="#455A64"/>
<path d="M70.1443 47.2828L65.0729 42.5453L58.4997 49.0348C58.4997 49.0348 52.4578 47.8361 49.4774 51.2249C46.1272 55.0172 47.2247 59.87 47.2247 59.87L53.1394 54.6599L58.1415 59.651L52.8622 65.1147C52.8622 65.1147 58.026 66.763 62.0693 62.1984C65.2462 58.6136 63.6057 53.8876 63.6057 53.8876L70.1443 47.2828Z" fill="#455A64"/>
</g>
<defs>
<clipPath id="clip0_315_7410">
<rect width="355" height="485" fill="white"/>
</clipPath>
</defs>
</svg>
