<svg width="566" height="568" viewBox="0 0 566 568" fill="none" xmlns="http://www.w3.org/2000/svg">
<g clip-path="url(#clip0_342_6409)">
<path d="M289.069 375.635H251.768C244.739 375.635 239.047 369.933 239.047 362.893V325.541C239.047 318.501 244.739 312.799 251.768 312.799H289.056C296.085 312.799 301.777 318.501 301.777 325.541V362.893C301.79 369.933 296.098 375.635 289.069 375.635Z" fill="#E0E0E0"/>
<path d="M256.533 359.525C256.162 359.525 255.805 359.379 255.554 359.114C255.011 358.57 255.011 357.682 255.554 357.138L263.006 349.673C258.982 344.648 259.379 337.223 263.933 332.648C266.342 330.235 269.545 328.909 272.947 328.909C276.349 328.909 279.552 330.235 281.961 332.648C286.925 337.634 286.925 345.735 281.961 350.707C279.552 353.12 276.349 354.446 272.947 354.446C270.008 354.446 267.255 353.478 264.965 351.635L257.513 359.1C257.261 359.379 256.904 359.525 256.533 359.525ZM272.947 331.694C270.286 331.694 267.785 332.728 265.905 334.611C264.025 336.493 262.993 338.999 262.993 341.664C262.993 344.33 264.025 346.836 265.905 348.718C267.785 350.601 270.286 351.635 272.947 351.635C275.608 351.635 278.109 350.601 279.989 348.718C281.869 346.836 282.901 344.33 282.901 341.664C282.901 338.999 281.869 336.493 279.989 334.611C278.109 332.741 275.608 331.694 272.947 331.694Z" fill="white"/>
<path d="M547.64 96.1163H515.58C507.995 96.1163 501.84 89.9508 501.84 82.3532V50.2393C501.84 42.6285 507.995 36.4762 515.58 36.4762H547.64C555.238 36.4762 561.38 42.6417 561.38 50.2393V82.3532C561.38 89.9508 555.238 96.1163 547.64 96.1163Z" fill="#E0E0E0"/>
<path d="M534.058 76.6252C534.058 78.0174 532.919 79.1312 531.543 79.1312C530.153 79.1312 529.041 77.9909 529.041 76.612C529.041 75.2197 530.179 74.106 531.556 74.106C532.946 74.106 534.058 75.233 534.058 76.6252Z" fill="white"/>
<path d="M526.527 73.3899C529.28 70.4861 533.768 70.4066 536.587 73.2573C537.871 74.5567 539.87 72.5546 538.586 71.2684C534.707 67.3569 528.34 67.3702 524.528 71.3878C523.297 72.7004 525.283 74.7158 526.527 73.3899Z" fill="white"/>
<path d="M518.015 61.6952C521.827 58.3937 526.381 56.312 531.49 56.2987C536.547 56.2855 541.537 58.0887 545.23 61.5626C546.554 62.809 548.566 60.8201 547.229 59.5738C542.993 55.5827 537.301 53.448 531.49 53.4612C525.626 53.4745 520.397 55.8744 516.016 59.6798C514.639 60.8732 516.638 62.8753 518.015 61.6952Z" fill="white"/>
<path d="M521.377 68.1791C523.931 65.4079 527.519 63.6709 531.304 63.5914C535.196 63.4985 538.955 65.1029 541.656 67.8874C542.926 69.1868 544.925 67.1979 543.654 65.8985C540.451 62.5969 535.911 60.6478 531.304 60.7539C526.804 60.8599 522.436 62.8488 519.378 66.1637C518.147 67.5028 520.132 69.5182 521.377 68.1791Z" fill="white"/>
<path d="M452.454 296.557C452.639 296.557 452.798 303.239 452.798 311.486C452.798 319.734 452.639 326.416 452.454 326.416C452.268 326.416 452.109 319.734 452.109 311.486C452.109 303.239 452.255 296.557 452.454 296.557Z" fill="#263238"/>
<path d="M340.309 137.26C340.124 137.26 339.965 126.122 339.965 112.385C339.965 98.6489 340.124 87.5111 340.309 87.5111C340.494 87.5111 340.653 98.6489 340.653 112.385C340.653 126.122 340.494 137.26 340.309 137.26Z" fill="#263238"/>
<path d="M301.921 196.237C301.921 196.263 301.604 196.29 301.008 196.303C300.333 196.317 299.459 196.343 298.374 196.37C296.005 196.396 292.735 196.436 288.711 196.476C280.478 196.502 269.239 196.542 256.823 196.582C255.261 196.582 253.726 196.582 252.217 196.582C251.462 196.582 250.694 196.595 249.913 196.489C249.146 196.356 248.391 196.184 247.703 195.852C244.87 194.606 243.043 191.981 242.236 189.369C241.826 188.043 241.653 186.69 241.667 185.378C241.68 184.105 241.693 182.858 241.706 181.652C241.733 179.252 241.773 177.011 241.799 174.969C241.879 170.938 241.931 167.65 241.971 165.29C242.011 164.203 242.037 163.327 242.051 162.665C242.077 162.068 242.104 161.75 242.13 161.75C242.156 161.75 242.17 162.068 242.196 162.665C242.209 163.341 242.223 164.216 242.249 165.303C242.262 167.677 242.276 170.952 242.289 174.982C242.289 177.038 242.289 179.265 242.289 181.665C242.355 184.065 242.011 186.677 242.858 189.183C243.652 191.663 245.386 194.115 247.994 195.243C248.629 195.547 249.331 195.707 250.032 195.826C250.734 195.919 251.475 195.905 252.243 195.905C253.765 195.905 255.301 195.905 256.85 195.905C269.266 195.945 280.504 195.985 288.737 196.012C292.761 196.051 296.044 196.091 298.4 196.118C299.486 196.144 300.359 196.171 301.035 196.184C301.604 196.184 301.921 196.21 301.921 196.237Z" fill="#263238"/>
<path d="M364.612 87.2326H311.426C303.828 87.2326 297.686 81.067 297.686 73.4695V20.1938C297.686 12.5962 303.841 6.43066 311.426 6.43066H364.612C372.21 6.43066 378.352 12.5962 378.352 20.1938V73.4695C378.352 81.067 372.197 87.2326 364.612 87.2326Z" fill="white"/>
<path d="M364.613 87.2326C364.613 87.1663 365.672 87.2458 367.604 86.8215C369.497 86.3707 372.396 85.2702 374.871 82.4062C376.102 81.0007 377.174 79.1444 377.73 76.9301C378.366 74.7291 378.128 72.1966 378.167 69.505C378.154 64.1217 378.141 57.9827 378.114 51.2204C378.101 44.445 378.088 37.0198 378.075 29.051C378.075 27.0621 378.075 25.0334 378.061 22.9782C378.035 20.9098 378.167 18.8281 377.611 16.8259C376.618 12.7951 373.508 9.20186 369.404 7.65053C368.398 7.23949 367.313 7.01409 366.214 6.85497C365.129 6.73564 363.99 6.7489 362.839 6.7489C360.549 6.7489 358.232 6.7489 355.889 6.7489C351.203 6.7489 346.425 6.7489 341.554 6.76216C331.825 6.76216 321.738 6.76216 311.426 6.77542C308.911 6.80194 306.41 7.49142 304.318 8.8306C303.272 9.49357 302.293 10.2891 301.485 11.2173C300.651 12.1189 299.95 13.1531 299.42 14.2669C298.851 15.3542 298.507 16.5475 298.256 17.7276C298.031 18.9342 298.017 20.1275 298.017 21.3871C298.017 23.8666 298.017 26.3328 298.017 28.7593C298.004 38.5048 298.004 47.9189 297.991 56.8821C297.991 61.3638 297.978 65.7261 297.978 69.9823C298.017 72.1038 297.832 74.212 298.242 76.1744C298.653 78.15 299.5 79.993 300.665 81.5444C302.981 84.7001 306.608 86.6094 310.209 86.9011C313.849 87.0337 317.436 86.9541 320.798 86.9807C334.313 87.0204 345.247 87.0602 352.845 87.0867C356.604 87.1133 359.543 87.1398 361.555 87.153C362.534 87.1663 363.289 87.1796 363.818 87.1928C364.348 87.2061 364.613 87.2326 364.613 87.2326C364.613 87.2326 364.348 87.2591 363.845 87.2724C363.302 87.2856 362.561 87.2856 361.581 87.3121C359.569 87.3254 356.631 87.3519 352.871 87.3784C345.273 87.405 334.34 87.4447 320.825 87.4845C317.436 87.458 313.915 87.5641 310.182 87.4447C306.423 87.153 302.65 85.1641 300.228 81.8891C299.01 80.2715 298.11 78.3489 297.686 76.2804C297.263 74.1987 297.435 72.0773 297.395 69.969C297.395 65.7261 297.382 61.3505 297.382 56.8689C297.382 47.9056 297.369 38.5048 297.355 28.746C297.355 26.3063 297.355 23.8533 297.355 21.3739C297.355 20.154 297.355 18.8413 297.607 17.595C297.858 16.3486 298.229 15.1022 298.825 13.9487C299.381 12.7951 300.122 11.7079 300.996 10.7532C301.856 9.77201 302.875 8.93668 303.974 8.2472C306.185 6.82846 308.805 6.11246 311.453 6.08594C321.778 6.08594 331.851 6.08594 341.58 6.0992C346.451 6.0992 351.23 6.0992 355.916 6.11246C358.259 6.11246 360.575 6.11246 362.865 6.11246C364.004 6.11246 365.155 6.0992 366.32 6.23179C367.458 6.3909 368.597 6.62957 369.656 7.06712C373.945 8.68475 377.188 12.4636 378.22 16.6801C378.803 18.8016 378.657 20.9496 378.67 22.9915C378.67 25.0467 378.67 27.0753 378.657 29.0642C378.644 37.033 378.631 44.4582 378.617 51.2337C378.604 58.0092 378.578 64.135 378.564 69.5182C378.511 72.1833 378.736 74.7556 378.061 77.023C377.479 79.2903 376.354 81.1731 375.083 82.5918C372.528 85.4956 369.563 86.5564 367.644 86.9674C366.664 87.153 365.897 87.2458 365.394 87.2326C364.864 87.2458 364.613 87.2326 364.613 87.2326Z" fill="#263238"/>
<path d="M464.207 114.971H411.021C403.436 114.971 397.281 108.805 397.281 101.208V47.9322C397.281 40.3214 403.436 34.1691 411.021 34.1691H464.207C471.805 34.1691 477.947 40.3346 477.947 47.9322V101.208C477.961 108.805 471.805 114.971 464.207 114.971Z" fill="white"/>
<path d="M464.208 114.971C464.208 114.905 465.267 114.984 467.2 114.56C469.093 114.109 471.992 113.009 474.467 110.145C475.698 108.739 476.77 106.883 477.326 104.669C477.961 102.468 477.723 99.935 477.763 97.2434C477.75 91.8601 477.736 85.7211 477.71 78.9589C477.697 72.1834 477.683 64.7582 477.67 56.7894C477.67 54.8005 477.67 52.7718 477.657 50.7166C477.631 48.6482 477.763 46.5665 477.207 44.5643C476.214 40.5335 473.104 36.9403 469 35.3889C467.994 34.9779 466.909 34.7525 465.81 34.5934C464.724 34.474 463.586 34.4873 462.435 34.4873C460.145 34.4873 457.828 34.4873 455.485 34.4873C450.799 34.4873 446.021 34.4873 441.149 34.5006C431.42 34.5006 421.334 34.5006 411.022 34.5138C408.507 34.5403 406.005 35.2298 403.914 36.569C402.868 37.232 401.889 38.0275 401.081 38.9557C400.247 39.8573 399.546 40.8915 399.016 42.0053C398.447 43.0926 398.103 44.2859 397.851 45.466C397.626 46.6726 397.613 47.8659 397.613 49.1255C397.613 51.605 397.613 54.0712 397.613 56.4977C397.6 66.2432 397.6 75.6573 397.587 84.6205C397.587 89.1022 397.573 93.4645 397.573 97.7207C397.613 99.8422 397.428 101.95 397.838 103.913C398.248 105.888 399.096 107.731 400.26 109.283C402.59 112.438 406.204 114.348 409.804 114.64C413.444 114.772 417.032 114.693 420.394 114.719C433.909 114.759 444.843 114.799 452.441 114.825C456.2 114.852 459.139 114.878 461.151 114.891C462.13 114.905 462.885 114.918 463.414 114.931C463.957 114.944 464.208 114.971 464.208 114.971C464.208 114.971 463.944 114.997 463.44 115.011C462.898 115.024 462.157 115.024 461.177 115.051C459.165 115.064 456.226 115.09 452.467 115.117C444.869 115.143 433.935 115.183 420.42 115.223C417.032 115.196 413.511 115.302 409.778 115.183C406.019 114.891 402.246 112.903 399.824 109.628C398.606 108.01 397.706 106.087 397.282 104.019C396.859 101.937 397.031 99.8157 396.991 97.7074C396.991 93.4645 396.978 89.0889 396.978 84.6073C396.978 75.644 396.964 66.2432 396.951 56.4844C396.951 54.0447 396.951 51.5917 396.951 49.1123C396.951 47.8924 396.951 46.5797 397.203 45.3334C397.454 44.087 397.825 42.8406 398.42 41.6871C398.99 40.5335 399.718 39.4463 400.591 38.4916C401.452 37.5104 402.471 36.6751 403.57 35.9856C405.78 34.5669 408.401 33.8509 411.049 33.8243C421.373 33.8243 431.447 33.8243 441.176 33.8376C446.047 33.8376 450.826 33.8376 455.512 33.8509C457.855 33.8509 460.171 33.8509 462.461 33.8509C463.599 33.8509 464.751 33.8376 465.916 33.9702C467.054 34.1293 468.193 34.368 469.252 34.8055C473.54 36.4232 476.783 40.202 477.816 44.4185C478.398 46.54 478.253 48.688 478.266 50.7299C478.266 52.7851 478.266 54.8137 478.253 56.8026C478.239 64.7714 478.226 72.1966 478.213 78.9721C478.2 85.7476 478.173 91.8734 478.16 97.2566C478.107 99.9217 478.332 102.494 477.657 104.761C477.075 107.029 475.949 108.911 474.679 110.33C472.124 113.234 469.159 114.295 467.24 114.706C466.26 114.891 465.492 114.984 464.989 114.971C464.473 114.984 464.208 114.971 464.208 114.971Z" fill="#263238"/>
<path d="M551.955 212.546H498.769C491.171 212.546 485.029 206.38 485.029 198.783V145.507C485.029 137.896 491.184 131.744 498.769 131.744H551.955C559.553 131.744 565.695 137.909 565.695 145.507V198.783C565.695 206.38 559.54 212.546 551.955 212.546Z" fill="white"/>
<path d="M551.956 212.546C551.956 212.48 553.015 212.559 554.948 212.135C556.841 211.684 559.74 210.583 562.215 207.719C563.446 206.314 564.518 204.458 565.074 202.243C565.71 200.042 565.471 197.51 565.511 194.818C565.498 189.435 565.484 183.296 565.458 176.534C565.445 169.758 565.432 162.333 565.418 154.364C565.418 152.375 565.418 150.347 565.405 148.291C565.379 146.223 565.511 144.141 564.955 142.139C563.962 138.108 560.852 134.515 556.748 132.964C555.742 132.553 554.657 132.327 553.558 132.168C552.473 132.049 551.334 132.062 550.183 132.062C547.893 132.062 545.576 132.062 543.233 132.062C538.547 132.062 533.769 132.062 528.897 132.075C519.168 132.075 509.082 132.075 498.77 132.089C496.255 132.115 493.753 132.805 491.662 134.144C490.616 134.807 489.637 135.602 488.829 136.531C487.995 137.432 487.294 138.466 486.764 139.58C486.195 140.667 485.851 141.861 485.599 143.041C485.374 144.247 485.361 145.441 485.361 146.7C485.361 149.18 485.361 151.646 485.361 154.072C485.348 163.818 485.348 173.232 485.335 182.195C485.335 186.677 485.321 191.039 485.321 195.296C485.361 197.417 485.176 199.525 485.586 201.488C485.996 203.463 486.844 205.306 488.008 206.858C490.338 210.013 493.952 211.923 497.552 212.214C501.192 212.347 504.78 212.267 508.142 212.294C521.657 212.334 532.591 212.373 540.189 212.4C543.948 212.426 546.887 212.453 548.899 212.466C549.878 212.48 550.633 212.493 551.162 212.506C551.692 212.519 551.956 212.546 551.956 212.546C551.956 212.546 551.692 212.572 551.189 212.586C550.646 212.599 549.905 212.599 548.925 212.625C546.913 212.639 543.974 212.665 540.215 212.692C532.617 212.718 521.683 212.758 508.168 212.798C504.78 212.771 501.259 212.877 497.526 212.758C493.767 212.466 489.994 210.477 487.572 207.202C486.354 205.585 485.454 203.662 485.03 201.594C484.607 199.512 484.779 197.39 484.739 195.282C484.739 191.039 484.726 186.664 484.726 182.182C484.726 173.219 484.712 163.818 484.699 154.059C484.699 151.62 484.699 149.167 484.699 146.687C484.699 145.467 484.699 144.155 484.951 142.908C485.202 141.662 485.573 140.415 486.169 139.262C486.738 138.108 487.466 137.021 488.339 136.066C489.2 135.085 490.219 134.25 491.318 133.56C493.528 132.142 496.149 131.426 498.797 131.399C509.121 131.399 519.195 131.399 528.924 131.412C533.795 131.412 538.574 131.412 543.26 131.426C545.603 131.426 547.919 131.426 550.209 131.426C551.347 131.426 552.499 131.412 553.664 131.545C554.802 131.704 555.941 131.943 557 132.38C561.288 133.998 564.531 137.777 565.564 141.993C566.146 144.115 566.001 146.263 566.014 148.305C566.014 150.36 566.014 152.389 566.001 154.377C565.987 162.346 565.974 169.771 565.961 176.547C565.948 183.322 565.921 189.448 565.908 194.831C565.855 197.497 566.08 200.069 565.405 202.336C564.823 204.604 563.698 206.486 562.427 207.905C559.872 210.809 556.907 211.87 554.988 212.281C554.008 212.466 553.24 212.559 552.737 212.546C552.208 212.559 551.956 212.546 551.956 212.546Z" fill="#263238"/>
<path d="M254.493 155.372H201.306C193.708 155.372 187.566 149.206 187.566 141.609V88.3332C187.566 80.7224 193.722 74.5701 201.306 74.5701H254.493C262.091 74.5701 268.233 80.7356 268.233 88.3332V141.609C268.233 149.206 262.077 155.372 254.493 155.372Z" fill="white"/>
<path d="M254.493 155.372C254.493 155.306 255.552 155.385 257.485 154.961C259.378 154.51 262.277 153.41 264.752 150.546C265.983 149.14 267.055 147.284 267.611 145.07C268.247 142.869 268.008 140.336 268.048 137.644C268.035 132.261 268.022 126.122 267.995 119.36C267.982 112.584 267.969 105.159 267.955 97.1904C267.955 95.2015 267.955 93.1728 267.942 91.1176C267.916 89.0492 268.048 86.9675 267.492 84.9653C266.499 80.9345 263.389 77.3413 259.285 75.7899C258.279 75.3789 257.194 75.1535 256.095 74.9944C255.01 74.875 253.871 74.8883 252.72 74.8883C250.43 74.8883 248.113 74.8883 245.77 74.8883C241.084 74.8883 236.306 74.8883 231.435 74.9016C221.705 74.9016 211.619 74.9016 201.307 74.9148C198.792 74.9413 196.29 75.6308 194.199 76.97C193.153 77.633 192.174 78.4285 191.366 79.3567C190.532 80.2583 189.831 81.2925 189.301 82.4063C188.732 83.4936 188.388 84.6869 188.136 85.867C187.911 87.0736 187.898 88.2669 187.898 89.5265C187.898 92.006 187.898 94.4722 187.898 96.8987C187.885 106.644 187.885 116.058 187.872 125.022C187.872 129.503 187.858 133.865 187.858 138.122C187.898 140.243 187.713 142.351 188.123 144.314C188.534 146.289 189.381 148.132 190.546 149.697C192.875 152.853 196.489 154.762 200.089 155.054C203.73 155.186 207.317 155.107 210.679 155.133C224.194 155.173 235.128 155.213 242.726 155.239C246.485 155.266 249.424 155.292 251.436 155.306C252.415 155.319 253.17 155.332 253.699 155.345C254.229 155.345 254.493 155.372 254.493 155.372C254.493 155.372 254.229 155.399 253.726 155.412C253.183 155.425 252.442 155.425 251.462 155.452C249.45 155.465 246.512 155.491 242.752 155.518C235.154 155.544 224.22 155.584 210.705 155.624C207.317 155.597 203.796 155.703 200.063 155.584C196.304 155.292 192.531 153.304 190.109 150.029C188.891 148.411 187.991 146.488 187.567 144.42C187.144 142.338 187.316 140.217 187.276 138.108C187.276 133.865 187.263 129.49 187.263 125.008C187.263 116.045 187.25 106.644 187.236 96.8854C187.236 94.4457 187.236 91.9927 187.236 89.5133C187.236 88.2934 187.236 86.9808 187.488 85.7344C187.739 84.488 188.11 83.2416 188.706 82.0881C189.275 80.9345 190.003 79.8473 190.876 78.8926C191.737 77.9114 192.756 77.0761 193.855 76.3866C196.065 74.9679 198.686 74.2519 201.334 74.2253C211.659 74.2253 221.732 74.2253 231.461 74.2386C236.332 74.2386 241.111 74.2386 245.797 74.2519C248.14 74.2519 250.456 74.2519 252.746 74.2519C253.885 74.2519 255.036 74.2386 256.201 74.3712C257.339 74.5303 258.478 74.769 259.537 75.2065C263.826 76.8242 267.069 80.603 268.101 84.8195C268.683 86.941 268.538 89.089 268.551 91.1309C268.551 93.1861 268.551 95.2147 268.538 97.2036C268.525 105.172 268.511 112.598 268.498 119.373C268.485 126.149 268.458 132.274 268.445 137.658C268.392 140.323 268.617 142.895 267.942 145.162C267.36 147.43 266.235 149.313 264.964 150.731C262.409 153.635 259.444 154.696 257.525 155.107C256.545 155.292 255.777 155.385 255.274 155.372C254.745 155.385 254.493 155.372 254.493 155.372Z" fill="#263238"/>
<path d="M486.896 173.789C486.896 173.975 477.736 174.134 466.445 174.134C455.141 174.134 445.994 173.975 445.994 173.789C445.994 173.603 455.154 173.444 466.445 173.444C477.736 173.444 486.896 173.59 486.896 173.789Z" fill="#263238"/>
<path d="M210.601 131.068H200.422V138.877H210.601V131.068Z" fill="#FFC727"/>
<path d="M223.48 113.062H213.301V138.877H223.48V113.062Z" fill="#FFC727"/>
<path d="M237.644 124.173H227.465V138.864H237.644V124.173Z" fill="#FFC727"/>
<path d="M251.16 105.57H240.98V138.864H251.16V105.57Z" fill="#FFC727"/>
<path d="M204.83 123.019C202.037 123.019 199.76 120.739 199.76 117.941C199.76 115.143 202.037 112.863 204.83 112.863C207.623 112.863 209.899 115.143 209.899 117.941C209.886 120.752 207.623 123.019 204.83 123.019ZM204.83 114.202C202.765 114.202 201.083 115.886 201.083 117.954C201.083 120.023 202.765 121.707 204.83 121.707C206.894 121.707 208.576 120.023 208.576 117.954C208.562 115.886 206.894 114.202 204.83 114.202Z" fill="#FFC727"/>
<path d="M219.39 103.714C216.597 103.714 214.32 101.433 214.32 98.6355C214.32 95.8378 216.597 93.5573 219.39 93.5573C222.183 93.5573 224.46 95.8378 224.46 98.6355C224.447 101.433 222.183 103.714 219.39 103.714ZM219.39 94.8832C217.325 94.8832 215.644 96.5671 215.644 98.6355C215.644 100.704 217.325 102.388 219.39 102.388C221.455 102.388 223.136 100.704 223.136 98.6355C223.123 96.5671 221.455 94.8832 219.39 94.8832Z" fill="#FFC727"/>
<path d="M232.562 115.939C229.769 115.939 227.492 113.658 227.492 110.861C227.492 108.063 229.769 105.782 232.562 105.782C235.355 105.782 237.632 108.063 237.632 110.861C237.618 113.672 235.355 115.939 232.562 115.939ZM232.562 107.122C230.497 107.122 228.816 108.805 228.816 110.874C228.816 112.942 230.497 114.626 232.562 114.626C234.627 114.626 236.308 112.942 236.308 110.874C236.308 108.805 234.627 107.122 232.562 107.122Z" fill="#FFC727"/>
<path d="M246.632 98.2113C243.839 98.2113 241.562 95.9307 241.562 93.133C241.562 90.3353 243.839 88.0547 246.632 88.0547C249.425 88.0547 251.702 90.3353 251.702 93.133C251.702 95.9307 249.425 98.2113 246.632 98.2113ZM246.632 89.3806C244.567 89.3806 242.886 91.0645 242.886 93.133C242.886 95.2014 244.567 96.8853 246.632 96.8853C248.697 96.8853 250.378 95.2014 250.378 93.133C250.378 91.0645 248.697 89.3806 246.632 89.3806Z" fill="#FFC727"/>
<path d="M243.091 95.9882L234.916 107.638L235.999 108.401L244.173 96.7506L243.091 95.9882Z" fill="#FFC727"/>
<path d="M223.257 101.718L222.301 102.634L228.522 109.15L229.479 108.234L223.257 101.718Z" fill="#FFC727"/>
<path d="M215.905 102.033L206.732 113.868L207.778 114.681L216.95 102.846L215.905 102.033Z" fill="#FFC727"/>
<path d="M247.491 156.327C247.491 158.461 245.77 160.185 243.639 160.185C241.508 160.185 239.787 158.461 239.787 156.327C239.787 154.192 241.508 152.468 243.639 152.468C245.77 152.468 247.491 154.192 247.491 156.327Z" fill="#263238"/>
<path d="M344.095 87.2326C344.095 89.3673 342.374 91.091 340.243 91.091C338.111 91.091 336.391 89.3673 336.391 87.2326C336.391 85.0978 338.111 83.3741 340.243 83.3741C342.374 83.3741 344.095 85.0978 344.095 87.2326Z" fill="#263238"/>
<path d="M488.591 173.789C488.591 175.924 486.87 177.647 484.739 177.647C482.608 177.647 480.887 175.924 480.887 173.789C480.887 171.654 482.608 169.931 484.739 169.931C486.87 169.917 488.591 171.654 488.591 173.789Z" fill="#263238"/>
<path d="M442.485 115.541C442.485 117.676 440.764 119.4 438.633 119.4C436.502 119.4 434.781 117.676 434.781 115.541C434.781 113.406 436.502 111.683 438.633 111.683C440.751 111.683 442.485 113.406 442.485 115.541Z" fill="#263238"/>
<path d="M259.036 52.7453H234.217C226.619 52.7453 220.477 46.5798 220.477 38.9822V14.1078C220.477 6.49702 226.632 0.344727 234.217 0.344727H259.036C266.634 0.344727 272.776 6.51028 272.776 14.1078V38.9689C272.789 46.5798 266.634 52.7453 259.036 52.7453Z" fill="white"/>
<path d="M259.035 52.7453C259.035 52.7055 259.684 52.7188 260.901 52.5332C262.106 52.3608 263.919 51.9365 265.918 50.7299C267.891 49.5366 270.101 47.5344 271.425 44.4848C272.087 42.9732 272.51 41.2363 272.55 39.3667C272.576 37.4839 272.55 35.4685 272.55 33.3735C272.537 29.1704 272.523 24.5561 272.51 19.6104C272.51 18.3773 272.51 17.1177 272.497 15.8448C272.484 14.5587 272.537 13.2725 272.312 12.0129C272.126 10.74 271.729 9.48037 271.147 8.28703C270.578 7.0937 269.823 5.96667 268.883 4.98548C267.057 2.98333 264.528 1.55133 261.749 0.954666C260.359 0.676222 258.929 0.676222 257.433 0.689481C255.951 0.689481 254.455 0.689481 252.946 0.689481C246.91 0.689481 240.649 0.689481 234.242 0.702741C231.118 0.716 228.06 1.82978 225.704 3.77889C223.361 5.728 221.746 8.44615 221.124 11.3367C220.82 12.7819 220.82 14.2404 220.82 15.7387C220.82 17.2238 220.82 18.6956 220.82 20.1541C220.82 23.0711 220.807 25.9086 220.807 28.693C220.807 31.4775 220.793 34.1824 220.793 36.821C220.793 38.1469 220.754 39.4463 220.899 40.6661C221.032 41.9125 221.402 43.0926 221.826 44.2196C223.719 48.7145 227.862 51.6448 231.926 52.2945C233.951 52.6392 235.976 52.4801 237.856 52.5332C239.749 52.5464 241.522 52.5464 243.204 52.5597C246.526 52.5862 249.398 52.5995 251.755 52.6127C254.071 52.6392 255.885 52.6658 257.155 52.679C257.751 52.6923 258.214 52.7055 258.558 52.7188C258.876 52.7188 259.035 52.7321 259.035 52.7453C259.035 52.7586 258.876 52.7718 258.558 52.7851C258.201 52.7984 257.738 52.8116 257.155 52.8249C255.871 52.8381 254.058 52.8647 251.755 52.8912C249.398 52.9044 246.526 52.931 243.204 52.9442C241.536 52.9575 239.749 52.9575 237.856 52.9707C235.963 52.931 233.964 53.1166 231.833 52.7718C227.624 52.1354 223.295 49.1255 221.296 44.445C220.846 43.265 220.449 42.0318 220.304 40.7324C220.145 39.433 220.184 38.1204 220.171 36.8077C220.171 34.1691 220.158 31.4642 220.158 28.6798C220.158 25.8953 220.145 23.0446 220.145 20.1408C220.145 18.6823 220.145 17.2105 220.145 15.7255C220.131 14.2537 220.131 12.7024 220.449 11.1776C221.098 8.14118 222.792 5.29044 225.254 3.23526C227.73 1.19333 230.946 0.0132593 234.229 0C240.636 0 246.883 0 252.933 0.0132593C254.442 0.0132593 255.938 0.0132593 257.42 0.0132593C258.889 0.0132593 260.412 0.0132593 261.868 0.304963C264.78 0.928148 267.427 2.4397 269.333 4.54792C270.313 5.58215 271.094 6.76222 271.69 8.00859C272.298 9.25496 272.709 10.5676 272.894 11.9068C273.132 13.246 273.066 14.5719 273.079 15.8316C273.079 17.1044 273.079 18.3641 273.066 19.5972C273.053 24.5429 273.04 29.1438 273.026 33.3603C273.013 35.4685 273.026 37.4574 272.987 39.3667C272.921 41.2893 272.471 43.0793 271.782 44.6174C270.392 47.7333 268.089 49.762 266.064 50.9421C264.012 52.1354 262.159 52.5332 260.928 52.6525C259.697 52.7984 259.035 52.7453 259.035 52.7453Z" fill="#263238"/>
<path d="M248.894 26.2664C251.118 25.325 252.706 23.0311 252.719 20.313C252.733 16.7595 250.046 13.869 246.723 13.8425C243.401 13.8292 240.687 16.6932 240.674 20.2467C240.661 22.9913 242.262 25.3117 244.513 26.2531C235.247 27.6586 235.657 37.7489 235.657 37.7489L257.577 37.855C257.591 37.8682 258.094 27.6586 248.894 26.2664Z" fill="#455A64"/>
<path d="M257.618 37.8949H257.591L235.631 37.7888V37.7623C235.631 37.7358 235.538 35.2033 236.584 32.5249C237.193 30.947 238.08 29.6476 239.205 28.6267C240.582 27.3803 242.329 26.5847 244.407 26.2533C242.117 25.2456 240.648 22.8987 240.648 20.2601C240.661 18.5364 241.296 16.9055 242.435 15.6989C243.573 14.4923 245.095 13.8293 246.697 13.8293C246.71 13.8293 246.71 13.8293 246.724 13.8293C250.059 13.8426 252.773 16.7596 252.76 20.3264C252.746 22.9385 251.277 25.2588 249.014 26.2665C251.065 26.598 252.799 27.3936 254.15 28.6532C255.261 29.6742 256.122 31.0001 256.718 32.5912C257.737 35.2961 257.618 37.8551 257.618 37.8816V37.8949ZM235.697 37.7358L257.551 37.8419C257.565 37.5369 257.604 35.137 256.651 32.6045C256.056 31.0266 255.195 29.7139 254.097 28.693C252.72 27.4201 250.973 26.6245 248.881 26.3063L248.762 26.293L248.868 26.2533C251.171 25.2853 252.667 22.965 252.68 20.3264C252.693 16.7994 250.02 13.9089 246.71 13.8956C246.697 13.8956 246.697 13.8956 246.684 13.8956C245.095 13.8956 243.6 14.5586 242.475 15.7519C241.336 16.9585 240.701 18.5629 240.701 20.2733C240.688 22.9385 242.183 25.2853 244.526 26.2533L244.632 26.293L244.513 26.3063C242.408 26.6245 240.635 27.4201 239.231 28.6797C238.12 29.6874 237.246 30.9868 236.637 32.5514C235.671 35.0574 235.697 37.4308 235.697 37.7358Z" fill="#263238"/>
<path d="M536.163 296.557H504.103C496.518 296.557 490.363 290.391 490.363 282.793V250.679C490.363 243.069 496.518 236.916 504.103 236.916H536.163C543.748 236.916 549.903 243.082 549.903 250.679V282.793C549.916 290.391 543.761 296.557 536.163 296.557Z" fill="white"/>
<path d="M536.164 296.557C536.164 296.504 536.918 296.543 538.321 296.305C539.711 296.053 541.789 295.496 544 293.931C546.171 292.393 548.434 289.715 549.335 285.976C549.811 284.133 549.692 282.064 549.705 279.863C549.692 277.675 549.692 275.355 549.679 272.929C549.665 268.062 549.652 262.745 549.639 257.031C549.639 255.599 549.639 254.153 549.626 252.668C549.599 251.183 549.692 249.698 549.387 248.24C548.832 245.323 547.296 242.472 544.887 240.457C542.504 238.415 539.327 237.221 536.031 237.248C532.669 237.248 529.241 237.248 525.746 237.261C518.757 237.261 511.53 237.261 504.13 237.274C500.503 237.248 496.982 238.786 494.533 241.332C492.058 243.851 490.708 247.312 490.721 250.733C490.708 257.733 490.708 264.482 490.695 270.913C490.695 274.122 490.681 277.264 490.681 280.314C490.695 281.839 490.615 283.35 490.827 284.769C491.012 286.201 491.449 287.58 492.085 288.826C493.316 291.346 495.314 293.335 497.565 294.621C499.841 295.894 502.356 296.424 504.752 296.358C514.429 296.397 522.278 296.437 527.745 296.464C530.432 296.49 532.524 296.517 533.993 296.53C534.681 296.543 535.224 296.557 535.621 296.57C535.978 296.543 536.164 296.543 536.164 296.557C536.164 296.57 535.978 296.583 535.608 296.596C535.211 296.61 534.668 296.61 533.98 296.636C532.51 296.649 530.419 296.676 527.732 296.702C522.265 296.729 514.415 296.769 504.739 296.808C502.29 296.901 499.656 296.358 497.287 295.058C494.931 293.732 492.839 291.677 491.555 289.052C490.893 287.752 490.43 286.32 490.231 284.822C490.006 283.311 490.073 281.799 490.059 280.287C490.059 277.238 490.046 274.109 490.046 270.887C490.046 264.456 490.033 257.707 490.02 250.706C490.006 247.126 491.423 243.466 494.017 240.828C496.585 238.163 500.291 236.532 504.104 236.558C511.503 236.558 518.744 236.558 525.72 236.572C529.214 236.572 532.643 236.572 536.005 236.585C539.446 236.572 542.795 237.831 545.271 239.966C547.799 242.088 549.387 245.084 549.957 248.134C550.274 249.672 550.168 251.21 550.195 252.668C550.195 254.14 550.195 255.599 550.182 257.031C550.168 262.745 550.155 268.076 550.142 272.929C550.129 275.355 550.129 277.675 550.116 279.863C550.089 282.038 550.208 284.146 549.692 286.068C548.739 289.9 546.383 292.619 544.146 294.143C541.882 295.708 539.751 296.225 538.335 296.437C537.62 296.557 537.077 296.557 536.706 296.57C536.362 296.57 536.164 296.57 536.164 296.557Z" fill="#263238"/>
<path d="M264.368 283.191H232.308C224.71 283.191 218.568 277.026 218.568 269.428V237.314C218.568 229.703 224.724 223.551 232.308 223.551H264.368C271.966 223.551 278.108 229.717 278.108 237.314V269.428C278.108 277.026 271.953 283.191 264.368 283.191Z" fill="white"/>
<path d="M264.369 283.191C264.369 283.138 265.123 283.178 266.526 282.939C267.916 282.687 269.995 282.13 272.205 280.566C274.376 279.028 276.639 276.349 277.54 272.61C278.029 270.767 277.897 268.699 277.91 266.498C277.897 264.31 277.897 261.99 277.884 259.563C277.871 254.697 277.857 249.38 277.844 243.665C277.844 242.233 277.844 240.788 277.831 239.303C277.804 237.818 277.897 236.333 277.593 234.874C277.037 231.957 275.501 229.107 273.092 227.091C270.709 225.049 267.532 223.856 264.236 223.883C260.874 223.883 257.446 223.883 253.951 223.896C246.962 223.896 239.735 223.896 232.335 223.909C228.708 223.883 225.187 225.421 222.739 227.966C220.263 230.486 218.913 233.946 218.926 237.367C218.913 244.368 218.913 251.117 218.9 257.548C218.9 260.757 218.887 263.899 218.887 266.949C218.9 268.473 218.82 269.972 219.032 271.404C219.217 272.836 219.654 274.215 220.29 275.461C221.521 277.98 223.519 279.969 225.77 281.255C228.047 282.528 230.562 283.059 232.957 282.992C242.634 283.032 250.483 283.072 255.95 283.098C258.637 283.125 260.742 283.151 262.198 283.165C262.886 283.178 263.429 283.191 263.826 283.204C264.17 283.165 264.369 283.178 264.369 283.191C264.369 283.204 264.183 283.218 263.813 283.231C263.416 283.244 262.873 283.244 262.185 283.271C260.715 283.284 258.624 283.311 255.937 283.337C250.47 283.364 242.62 283.403 232.944 283.443C230.495 283.536 227.861 282.992 225.492 281.693C223.136 280.367 221.044 278.312 219.76 275.686C219.098 274.387 218.635 272.955 218.436 271.457C218.211 269.945 218.278 268.434 218.264 266.922C218.264 263.872 218.251 260.743 218.251 257.521C218.251 251.091 218.238 244.342 218.225 237.341C218.211 233.761 219.628 230.101 222.222 227.463C224.79 224.797 228.497 223.167 232.309 223.193C239.708 223.193 246.949 223.193 253.925 223.206C257.419 223.206 260.848 223.206 264.21 223.22C267.652 223.206 271.001 224.466 273.476 226.601C276.004 228.722 277.593 231.719 278.162 234.768C278.479 236.306 278.374 237.845 278.4 239.303C278.4 240.775 278.4 242.233 278.387 243.665C278.374 249.38 278.36 254.71 278.347 259.563C278.334 261.99 278.334 264.31 278.321 266.498C278.294 268.672 278.413 270.781 277.897 272.703C276.944 276.535 274.588 279.253 272.351 280.778C270.087 282.343 267.956 282.86 266.54 283.072C265.825 283.191 265.282 283.191 264.912 283.204C264.554 283.204 264.369 283.204 264.369 283.191Z" fill="#263238"/>
<path d="M250.92 253.053C253.462 251.992 255.262 249.367 255.275 246.277C255.289 242.233 252.231 238.932 248.445 238.918C244.659 238.905 241.575 242.167 241.562 246.211C241.549 249.327 243.362 251.979 245.93 253.053C235.38 254.644 235.857 266.14 235.857 266.14L260.822 266.259C260.808 266.259 261.378 254.644 250.92 253.053Z" fill="#FFC727"/>
<path d="M334.975 57.1474C333.479 57.1474 331.97 56.922 330.474 56.4314C322.757 53.9387 318.508 45.6119 320.997 37.8817C323.485 30.1516 331.798 25.8954 339.515 28.3881C343.261 29.5947 346.293 32.1935 348.093 35.6939C349.88 39.1944 350.211 43.1854 348.993 46.9378C346.968 53.1696 341.183 57.1474 334.975 57.1474ZM334.988 30.3239C329.892 30.3239 325.153 33.5857 323.498 38.6905C321.46 45.0285 324.941 51.857 331.269 53.8989C337.596 55.9408 344.413 52.4536 346.451 46.1157C348.49 39.7778 345.009 32.9493 338.681 30.9073C337.463 30.5096 336.219 30.3239 334.988 30.3239Z" fill="#263238"/>
<path d="M354.434 65.9913C354.076 65.9913 353.719 65.8455 353.454 65.567L342.52 53.647C342.031 53.1033 342.057 52.268 342.6 51.7774C343.143 51.2868 343.976 51.3133 344.466 51.857L355.4 63.777C355.89 64.3207 355.863 65.156 355.321 65.6466C355.082 65.872 354.765 65.9913 354.434 65.9913Z" fill="#263238"/>
<path d="M526.395 196.688C512.867 196.688 501.867 185.669 501.867 172.118C501.867 158.567 512.867 147.549 526.395 147.549C539.924 147.549 550.923 158.567 550.923 172.118C550.923 185.669 539.924 196.688 526.395 196.688ZM526.395 148.862C513.595 148.862 503.191 159.297 503.191 172.105C503.191 184.927 513.608 195.349 526.395 195.349C539.182 195.349 549.6 184.914 549.6 172.105C549.6 159.297 539.195 148.862 526.395 148.862Z" fill="#FFC727"/>
<path d="M525.653 196.608C525.521 196.542 522.41 194.778 519.366 190.814C516.559 187.168 513.29 180.869 513.621 171.614C513.965 162.373 517.46 156.353 520.345 152.919C523.482 149.193 526.514 147.668 526.646 147.602L527.228 148.795C527.109 148.848 515.567 154.775 514.945 171.667C514.322 188.547 526.183 195.388 526.302 195.455L525.653 196.608Z" fill="#FFC727"/>
<path d="M526.739 196.595L526.038 195.468C526.157 195.402 537.634 188.069 537.011 171.164C536.389 154.285 525.336 148.862 525.23 148.809L525.786 147.615C526.276 147.841 537.673 153.396 538.335 171.124C538.997 188.812 526.859 196.515 526.739 196.595Z" fill="#FFC727"/>
<path d="M526.713 164.322C516.772 164.322 510.379 160.941 506.752 158.103L507.573 157.056C511.028 159.761 517.156 162.983 526.727 162.983C535.979 162.983 541.843 159.774 545.126 157.082L545.96 158.103C542.505 160.954 536.363 164.322 526.713 164.322Z" fill="#FFC727"/>
<path d="M545.178 186.438C541.723 183.813 535.581 180.684 526.024 180.684C516.772 180.684 510.908 183.8 507.612 186.412L506.791 185.378C510.246 182.633 516.388 179.358 526.024 179.358C535.952 179.358 542.359 182.633 545.986 185.391L545.178 186.438Z" fill="#FFC727"/>
<path d="M550.288 171.522H503.111V172.848H550.288V171.522Z" fill="#FFC727"/>
<path d="M447.848 358.623H414.279V392.249H447.848V358.623Z" fill="#E0E0E0"/>
<path d="M490.882 360.665H456.307V363.542H490.882V360.665Z" fill="#E0E0E0"/>
<path d="M490.882 367.321H456.307V370.198H490.882V367.321Z" fill="#E0E0E0"/>
<path d="M490.882 373.964H456.307V376.841H490.882V373.964Z" fill="#E0E0E0"/>
<path d="M490.882 380.62H456.307V383.497H490.882V380.62Z" fill="#E0E0E0"/>
<path d="M490.882 387.263H456.307V390.14H490.882V387.263Z" fill="#E0E0E0"/>
<path d="M497.129 349.501H405.449V336.228C405.449 331.137 409.566 327.013 414.649 327.013H487.796C492.946 327.013 497.129 331.203 497.129 336.361V349.501Z" fill="#E0E0E0"/>
<path d="M488.578 407.828C488.564 407.749 489.782 407.934 491.821 407.112C492.827 406.701 493.992 405.945 495.024 404.725C496.043 403.519 496.89 401.782 496.983 399.713C496.957 391.334 496.93 379.241 496.89 364.311C496.877 356.833 496.864 348.652 496.851 339.861C496.851 338.761 496.851 337.66 496.851 336.533C496.877 335.406 496.824 334.332 496.48 333.271C495.858 331.163 494.336 329.307 492.324 328.273C491.318 327.756 490.206 327.437 489.067 327.358C487.929 327.291 486.698 327.344 485.507 327.331C483.098 327.331 480.662 327.331 478.2 327.344C458.464 327.358 436.768 327.358 414.001 327.371C412.624 327.358 411.274 327.702 410.069 328.339C408.878 329.002 407.845 329.93 407.117 331.07C406.402 332.211 405.913 333.51 405.833 334.849C405.767 336.188 405.82 337.62 405.794 338.999C405.794 344.555 405.794 350.031 405.794 355.414C405.78 366.168 405.78 376.55 405.767 386.441C405.767 388.907 405.767 391.347 405.754 393.76C405.754 394.967 405.754 396.16 405.754 397.353C405.767 398.547 405.674 399.727 405.926 400.814C406.363 403.042 407.753 405.004 409.593 406.184C410.506 406.781 411.538 407.192 412.597 407.391C413.643 407.603 414.742 407.536 415.854 407.55C424.63 407.563 432.797 407.576 440.263 407.589C455.168 407.629 467.24 407.669 475.619 407.696C479.775 407.722 483.005 407.749 485.229 407.762C486.314 407.775 487.135 407.788 487.73 407.802C488.286 407.802 488.578 407.828 488.578 407.828C488.578 407.828 488.286 407.855 487.73 407.868C487.148 407.881 486.314 407.881 485.229 407.908C483.005 407.921 479.775 407.948 475.619 407.974C467.253 408.001 455.181 408.04 440.263 408.08C432.797 408.093 424.617 408.107 415.854 408.12C414.768 408.107 413.643 408.186 412.491 407.961C411.353 407.749 410.254 407.311 409.275 406.675C407.303 405.402 405.82 403.307 405.344 400.92C405.079 399.714 405.185 398.507 405.158 397.327C405.158 396.134 405.158 394.94 405.158 393.734C405.158 391.32 405.158 388.881 405.145 386.414C405.145 376.523 405.132 366.154 405.118 355.388C405.118 350.005 405.118 344.528 405.118 338.973C405.132 337.567 405.079 336.215 405.158 334.77C405.251 333.311 405.767 331.892 406.548 330.659C407.342 329.426 408.467 328.418 409.751 327.702C411.049 327.013 412.531 326.642 414.014 326.655C436.781 326.668 458.477 326.668 478.213 326.682C480.675 326.682 483.111 326.682 485.52 326.695C486.738 326.708 487.889 326.668 489.12 326.735C490.338 326.827 491.543 327.172 492.615 327.729C494.773 328.843 496.387 330.845 497.049 333.099C497.407 334.213 497.46 335.433 497.433 336.533C497.433 337.647 497.433 338.761 497.433 339.861C497.42 348.652 497.407 356.833 497.393 364.311C497.354 379.268 497.354 391.36 497.261 399.727C497.155 401.862 496.255 403.625 495.196 404.858C494.124 406.078 492.919 406.834 491.887 407.232C490.854 407.656 490.007 407.735 489.451 407.815C488.869 407.841 488.578 407.828 488.578 407.828Z" fill="#263238"/>
<path d="M456.305 327.013C456.305 329.148 454.585 330.871 452.454 330.871C450.322 330.871 448.602 329.148 448.602 327.013C448.602 324.878 450.322 323.155 452.454 323.155C454.585 323.155 456.305 324.878 456.305 327.013Z" fill="#263238"/>
<path d="M505.547 277.079C508.525 278.988 512.073 280.115 515.885 280.115C528.394 280.115 535.476 269.521 535.039 260.027C536.349 259.073 537.501 257.893 538.401 256.527C537.196 257.057 535.886 257.429 534.536 257.588C535.926 256.752 536.998 255.426 537.501 253.848C536.204 254.618 534.761 255.188 533.225 255.493C531.994 254.18 530.247 253.358 528.301 253.358C523.946 253.358 520.756 257.429 521.736 261.645C516.136 261.367 511.173 258.675 507.85 254.591C506.09 257.627 506.937 261.592 509.942 263.607C508.83 263.568 507.797 263.263 506.884 262.759C506.818 265.888 509.055 268.818 512.284 269.468C511.331 269.733 510.299 269.786 509.24 269.587C510.1 272.266 512.589 274.215 515.541 274.281C512.682 276.509 509.121 277.503 505.547 277.079Z" fill="#455A64"/>
<path d="M468.127 77.7523C470.165 84.8593 465.532 91.8071 458.265 91.8071H420.037C413.842 91.8071 408.997 85.8139 410.771 79.781C410.863 79.4628 410.969 79.1445 411.102 78.8396C412.836 74.6231 417.667 71.9978 422.075 72.8729C423.134 65.103 429.806 58.5131 437.456 57.6645C445.107 56.8159 453.01 61.8147 455.671 69.1736C455.671 69.1736 465.519 68.6432 468.127 77.7523Z" fill="#FFC727"/>
<path d="M435.789 98.6091V83.9045H430.044C429.369 83.9045 428.972 83.1488 429.369 82.5919L438.834 69.2133C439.164 68.7492 439.853 68.7492 440.184 69.2133L449.635 82.4858C450.032 83.0427 449.635 83.7985 448.96 83.7985H443.361V98.6091H435.789Z" fill="white"/>
<path d="M469.899 293.308L452.625 232.382H301.591L281.907 293.096C280.716 296.782 283.416 300.561 287.242 300.561H356.22L359.013 297.763H391.589L394.382 300.561H464.485C468.244 300.574 470.931 296.941 469.899 293.308Z" fill="#E0E0E0"/>
<g opacity="0.3">
<path d="M469.899 293.308L452.625 232.382H301.591L281.907 293.096C280.716 296.782 283.416 300.561 287.242 300.561H356.22L359.013 297.763H391.589L394.382 300.561H464.485C468.244 300.574 470.931 296.941 469.899 293.308Z" fill="black"/>
</g>
<path d="M301.525 230.817V141.437C301.525 137.896 304.371 135.019 307.892 135.019H446.682C450.203 135.019 453.049 137.896 453.049 141.437V230.817H301.525Z" fill="#E0E0E0"/>
<path d="M443.889 143.863H310.686V223.352H443.889V143.863Z" fill="white"/>
<path d="M443.89 223.352C443.89 223.352 443.876 222.848 443.863 221.907C443.85 220.939 443.85 219.547 443.837 217.73C443.823 214.057 443.797 208.687 443.771 201.806C443.731 188.03 443.691 168.194 443.625 143.876L443.89 144.141C407.965 144.168 361.41 144.194 310.699 144.221H310.686L311.03 143.876C311.017 172.026 311.017 198.902 311.004 223.365L310.686 223.047C349.709 223.114 382.96 223.167 406.482 223.206C418.25 223.246 427.582 223.273 433.988 223.299C437.179 223.312 439.641 223.326 441.322 223.339C442.142 223.352 442.778 223.352 443.215 223.352C443.665 223.339 443.89 223.352 443.89 223.352C443.89 223.352 443.691 223.365 443.268 223.365C442.831 223.365 442.209 223.379 441.401 223.379C439.733 223.392 437.298 223.405 434.134 223.418C427.741 223.445 418.435 223.472 406.694 223.511C383.119 223.551 349.788 223.604 310.686 223.67H310.368V223.352C310.355 198.889 310.355 172.026 310.342 143.863V143.518H310.686H310.699C361.41 143.545 407.965 143.571 443.89 143.598H444.154V143.863C444.101 168.26 444.049 188.149 444.009 201.965C443.982 208.833 443.956 214.177 443.943 217.836C443.929 219.64 443.916 221.005 443.916 221.96C443.903 222.888 443.89 223.352 443.89 223.352Z" fill="#263238"/>
<path d="M379.743 139.673C379.743 141.012 378.645 142.086 377.295 142.086C375.944 142.086 374.846 141.012 374.846 139.673C374.846 138.334 375.944 137.26 377.295 137.26C378.645 137.26 379.743 138.347 379.743 139.673Z" fill="#263238"/>
<path d="M469.899 291.054L452.625 230.128H301.591L281.907 290.842C280.716 294.528 283.416 298.307 287.242 298.307H356.22L359.013 295.509H391.589L394.382 298.307H464.485C468.244 298.32 470.931 294.7 469.899 291.054Z" fill="#E0E0E0"/>
<path d="M441.903 234.039L310.275 233.588C308.898 233.588 307.68 234.331 307.296 235.431L296.746 265.411C296.177 267.041 297.647 268.672 299.712 268.672H452.029C454.081 268.672 455.551 267.055 454.995 265.424L444.855 235.882C444.484 234.808 443.28 234.052 441.903 234.039Z" fill="#EBEBEB"/>
<g opacity="0.1">
<path d="M401.027 291.571H349.071C346.94 291.571 345.378 289.37 345.921 287.103L348.86 274.798C349.23 273.234 350.527 272.133 352.01 272.133H398.419C399.928 272.133 401.252 273.273 401.596 274.891L404.203 287.196C404.68 289.436 403.118 291.571 401.027 291.571Z" fill="black"/>
</g>
<path d="M400.855 243.533L399.505 237.261C399.412 236.824 399.028 236.519 398.592 236.519H390.491C389.921 236.519 389.485 237.023 389.564 237.593L390.464 243.878C390.53 244.342 390.927 244.686 391.391 244.686L399.955 244.673C400.537 244.66 400.974 244.103 400.855 243.533Z" fill="#263238"/>
<path d="M376.433 243.679L375.85 237.367C375.811 236.89 375.4 236.519 374.924 236.519H366.637C366.108 236.519 365.684 236.956 365.698 237.487L365.936 243.811C365.949 244.315 366.373 244.713 366.876 244.713L375.506 244.7C376.049 244.7 376.486 244.222 376.433 243.679Z" fill="#263238"/>
<path d="M389.273 243.612L388.373 237.327C388.306 236.863 387.909 236.519 387.446 236.519H377.915C377.359 236.519 376.936 236.996 376.989 237.54L377.571 243.838C377.611 244.315 378.021 244.686 378.498 244.686L388.346 244.673C388.929 244.673 389.365 244.169 389.273 243.612Z" fill="#263238"/>
<path d="M328.845 243.771L330.129 238.043C330.301 237.261 329.705 236.505 328.898 236.505H321.048C320.492 236.505 319.989 236.877 319.844 237.42L318.202 243.162C317.977 243.97 318.573 244.766 319.407 244.766L327.614 244.753C328.209 244.766 328.712 244.355 328.845 243.771Z" fill="#263238"/>
<path d="M443.186 243.334L440.804 237.115C440.671 236.757 440.314 236.519 439.93 236.519H424.522C423.874 236.519 423.423 237.168 423.649 237.778L425.965 244.01C426.097 244.381 426.455 244.62 426.839 244.62L442.313 244.594C442.975 244.607 443.425 243.944 443.186 243.334Z" fill="#263238"/>
<path d="M363.644 236.519H354.683C354.18 236.519 353.77 236.916 353.743 237.407L353.439 243.745C353.412 244.275 353.836 244.726 354.378 244.726L363.869 244.713C364.399 244.713 364.822 244.275 364.796 243.745L364.558 237.42C364.558 236.916 364.147 236.519 363.644 236.519Z" fill="#263238"/>
<path d="M317.264 236.519H311.016C310.486 236.519 310.01 236.85 309.838 237.354L307.773 243.109C307.482 243.931 308.091 244.792 308.951 244.792L315.622 244.779C316.178 244.779 316.681 244.408 316.827 243.864L318.468 238.123C318.707 237.314 318.098 236.519 317.264 236.519Z" fill="#263238"/>
<path d="M340.427 243.931L341.261 237.566C341.341 237.009 340.904 236.505 340.335 236.505H332.366C331.929 236.505 331.545 236.81 331.453 237.235L330.023 243.599C329.891 244.182 330.341 244.739 330.937 244.739L339.501 244.726C339.977 244.739 340.375 244.395 340.427 243.931Z" fill="#263238"/>
<path d="M342.427 237.327L341.593 243.679C341.514 244.236 341.951 244.739 342.52 244.739L351.389 244.726C351.892 244.726 352.302 244.328 352.315 243.838L352.62 237.5C352.646 236.969 352.223 236.519 351.68 236.519H343.341C342.891 236.519 342.493 236.863 342.427 237.327Z" fill="#263238"/>
<path d="M413.033 243.44L411.18 237.182C411.061 236.784 410.703 236.505 410.28 236.505H401.636C401.04 236.505 400.59 237.062 400.722 237.632L402.073 243.904C402.165 244.342 402.549 244.647 402.986 244.647L412.119 244.633C412.768 244.647 413.205 244.037 413.033 243.44Z" fill="#263238"/>
<path d="M424.535 243.36L422.218 237.115C422.086 236.744 421.728 236.505 421.345 236.505H413.416C412.793 236.505 412.343 237.102 412.516 237.712L414.369 243.97C414.488 244.368 414.845 244.647 415.269 244.647L423.674 244.633C424.31 244.62 424.76 243.97 424.535 243.36Z" fill="#263238"/>
<path d="M364.002 246.132H354.233C353.73 246.132 353.32 246.529 353.293 247.02L352.976 253.557C352.949 254.087 353.373 254.538 353.916 254.538L364.24 254.525C364.77 254.525 365.194 254.087 365.167 253.557L364.929 247.033C364.916 246.529 364.505 246.132 364.002 246.132Z" fill="#263238"/>
<path d="M428.188 253.186L425.792 246.755C425.66 246.384 425.302 246.145 424.918 246.145H416.261C415.639 246.145 415.189 246.742 415.361 247.351L417.267 253.795C417.386 254.193 417.744 254.472 418.167 254.472L427.314 254.458C427.963 254.445 428.413 253.795 428.188 253.186Z" fill="#263238"/>
<path d="M415.945 253.265L414.039 246.808C413.92 246.41 413.563 246.132 413.139 246.132H403.728C403.132 246.132 402.682 246.688 402.814 247.259L404.204 253.729C404.297 254.167 404.681 254.472 405.117 254.472L415.045 254.458C415.667 254.472 416.117 253.862 415.945 253.265Z" fill="#263238"/>
<path d="M341.249 254.564L350.925 254.551C351.428 254.551 351.839 254.153 351.852 253.663L352.17 247.113C352.196 246.582 351.773 246.132 351.23 246.132H342.096C341.633 246.132 341.236 246.476 341.17 246.94L340.309 253.504C340.243 254.061 340.68 254.564 341.249 254.564Z" fill="#263238"/>
<path d="M367.233 254.525L376.393 254.511C376.949 254.511 377.373 254.034 377.32 253.49L376.724 246.98C376.684 246.503 376.274 246.132 375.797 246.132H366.995C366.465 246.132 366.042 246.569 366.055 247.1L366.293 253.623C366.32 254.127 366.73 254.525 367.233 254.525Z" fill="#263238"/>
<path d="M377.876 247.166L378.471 253.663C378.511 254.14 378.921 254.511 379.398 254.511L389.749 254.498C390.318 254.498 390.755 253.994 390.676 253.424L389.749 246.94C389.683 246.476 389.286 246.132 388.823 246.132H378.802C378.26 246.145 377.836 246.609 377.876 247.166Z" fill="#263238"/>
<path d="M402.971 253.345L401.582 246.874C401.489 246.45 401.105 246.132 400.668 246.132H391.866C391.296 246.132 390.86 246.635 390.939 247.206L391.866 253.689C391.932 254.153 392.329 254.498 392.792 254.498L402.071 254.485C402.654 254.485 403.091 253.928 402.971 253.345Z" fill="#263238"/>
<path d="M327.151 246.132H307.64C307.256 246.132 306.912 246.37 306.766 246.728L304.225 253.345C303.986 253.955 304.437 254.618 305.098 254.618L325.682 254.591C326.119 254.591 326.503 254.286 326.595 253.862L328.065 247.285C328.197 246.688 327.747 246.132 327.151 246.132Z" fill="#263238"/>
<path d="M328.752 254.578L338.23 254.564C338.693 254.564 339.09 254.22 339.156 253.756L340.017 247.192C340.096 246.635 339.659 246.132 339.09 246.132H330.234C329.798 246.132 329.414 246.437 329.321 246.861L327.852 253.437C327.706 254.021 328.156 254.578 328.752 254.578Z" fill="#263238"/>
<path d="M439.825 254.432L445.927 254.419C446.589 254.419 447.039 253.742 446.788 253.133L444.22 246.728C444.074 246.37 443.73 246.145 443.359 246.145H437.747C437.111 246.145 436.661 246.768 436.86 247.365L438.938 253.782C439.07 254.18 439.428 254.432 439.825 254.432Z" fill="#263238"/>
<path d="M437.574 253.212L435.496 246.795C435.377 246.41 435.006 246.145 434.609 246.145H428.11C427.461 246.145 427.011 246.795 427.236 247.405L429.619 253.835C429.751 254.207 430.109 254.445 430.493 254.445L436.674 254.432C437.323 254.432 437.773 253.822 437.574 253.212Z" fill="#263238"/>
<path d="M340.349 265.583L349.946 265.596C350.7 265.596 351.322 265.013 351.349 264.257L351.68 257.428C351.719 256.62 351.084 255.957 350.277 255.957H341.249C340.547 255.957 339.952 256.487 339.859 257.19L338.972 264.005C338.84 264.84 339.489 265.583 340.349 265.583Z" fill="#263238"/>
<path d="M447.157 255.957H432.424C431.445 255.957 430.77 256.938 431.101 257.853L433.695 264.814C433.894 265.371 434.423 265.729 435.006 265.729L449.871 265.755C450.863 265.755 451.539 264.761 451.181 263.833L448.454 256.845C448.269 256.315 447.74 255.957 447.157 255.957Z" fill="#263238"/>
<path d="M327.032 257.057L325.509 263.846C325.311 264.721 325.986 265.556 326.886 265.57L336.377 265.583C337.079 265.583 337.687 265.053 337.78 264.35L338.667 257.548C338.773 256.699 338.124 255.957 337.277 255.957H328.422C327.747 255.957 327.177 256.407 327.032 257.057Z" fill="#263238"/>
<path d="M314.153 256.978L312.154 263.992C311.929 264.774 312.512 265.543 313.319 265.543L323.009 265.556C323.578 265.556 324.067 265.159 324.2 264.602L325.802 257.455C325.974 256.686 325.391 255.97 324.597 255.97L315.305 256.089C314.762 256.103 314.299 256.461 314.153 256.978Z" fill="#263238"/>
<path d="M405.05 257.654L406.546 264.575C406.692 265.225 407.261 265.689 407.923 265.689L417.745 265.702C418.685 265.702 419.36 264.801 419.095 263.886L417.043 256.951C416.871 256.355 416.315 255.943 415.693 255.943H406.427C405.527 255.957 404.852 256.779 405.05 257.654Z" fill="#263238"/>
<path d="M352.803 257.296L352.472 264.138C352.433 264.947 353.068 265.609 353.876 265.609L403.885 265.689C404.785 265.689 405.447 264.867 405.262 263.979L403.766 257.057C403.62 256.408 403.051 255.943 402.389 255.943H354.207C353.452 255.957 352.843 256.54 352.803 257.296Z" fill="#263238"/>
<path d="M303.219 256.686L300.518 264.018C300.253 264.748 300.783 265.517 301.564 265.517L309.691 265.53C310.194 265.53 310.631 265.198 310.764 264.721L312.855 257.375C313.054 256.659 312.524 255.957 311.783 255.957H304.251C303.801 255.957 303.377 256.248 303.219 256.686Z" fill="#263238"/>
<path d="M418.447 257.76L420.498 264.708C420.67 265.304 421.226 265.715 421.849 265.715L430.823 265.729C431.803 265.729 432.491 264.748 432.147 263.833L429.566 256.872C429.367 256.315 428.838 255.957 428.242 255.957H419.797C418.857 255.957 418.182 256.858 418.447 257.76Z" fill="#263238"/>
<path d="M453.168 230.366C453.168 230.552 419.308 230.711 377.558 230.711C335.783 230.711 301.936 230.552 301.936 230.366C301.936 230.181 335.783 230.022 377.558 230.022C419.308 230.022 453.168 230.167 453.168 230.366Z" fill="#263238"/>
<path d="M348 166.695C349.403 165.529 350.939 164.574 352.567 163.845L352.845 158.859L360.986 157.494L362.878 162.121C364.652 162.293 366.413 162.691 368.12 163.328L371.84 160L378.564 164.799L376.632 169.4C377.797 170.806 378.75 172.344 379.478 173.975L384.455 174.253L385.818 182.408L381.198 184.304C381.026 186.08 380.629 187.844 379.994 189.554L383.316 193.28L378.525 200.016L373.931 198.08C372.528 199.247 370.993 200.202 369.365 200.931L369.087 205.916L360.946 207.282L359.053 202.655C357.279 202.482 355.519 202.084 353.811 201.448L350.092 204.776L343.367 199.976L345.3 195.375C344.135 193.97 343.182 192.432 342.454 190.801L337.477 190.522L336.113 182.368L340.733 180.472C340.905 178.695 341.302 176.932 341.938 175.221L338.615 171.495L343.407 164.76L348 166.695ZM353.97 176.932C351.124 180.923 352.051 186.465 356.035 189.302C360.019 192.153 365.552 191.225 368.385 187.234C371.218 183.243 370.304 177.701 366.32 174.863C362.349 172.026 356.816 172.954 353.97 176.932Z" fill="#F5F5F5"/>
<path d="M392.86 187.459C393.813 186.677 394.846 186.027 395.944 185.524L396.13 182.142L401.636 181.214L402.92 184.344C404.125 184.45 405.316 184.728 406.468 185.166L408.983 182.912L413.536 186.16L412.226 189.276C413.02 190.231 413.655 191.265 414.158 192.365L417.534 192.551L418.46 198.067L415.337 199.353C415.231 200.56 414.953 201.753 414.516 202.906L416.766 205.426L413.523 209.987L410.412 208.674C409.459 209.47 408.427 210.106 407.328 210.61L407.13 213.991L401.623 214.919L400.339 211.79C399.134 211.684 397.943 211.406 396.792 210.968L394.276 213.222L389.723 209.974L391.033 206.858C390.239 205.903 389.604 204.869 389.101 203.768L385.725 203.583L384.799 198.067L387.923 196.781C388.029 195.574 388.307 194.381 388.743 193.227L386.493 190.708L389.736 186.147L392.86 187.459ZM396.911 194.394C394.991 197.099 395.613 200.838 398.314 202.774C401.014 204.696 404.747 204.073 406.68 201.368C408.599 198.664 407.977 194.924 405.276 192.989C402.576 191.066 398.83 191.702 396.911 194.394Z" fill="#F5F5F5"/>
<path d="M390.266 155.173C391.113 154.47 392.026 153.9 393.006 153.463L393.178 150.466L398.062 149.644L399.201 152.415C400.259 152.521 401.318 152.76 402.338 153.144L404.562 151.156L408.586 154.033L407.434 156.791C408.135 157.639 408.705 158.554 409.142 159.535L412.133 159.708L412.954 164.6L410.187 165.741C410.095 166.802 409.843 167.862 409.459 168.883L411.445 171.111L408.572 175.142L405.819 173.988C404.972 174.691 404.059 175.261 403.079 175.698L402.907 178.695L398.022 179.517L396.884 176.746C395.825 176.64 394.766 176.401 393.747 176.017L391.523 178.006L387.499 175.128L388.651 172.37C387.949 171.522 387.38 170.607 386.943 169.626L383.952 169.453L383.131 164.561L385.897 163.42C386.003 162.36 386.242 161.299 386.625 160.278L384.64 158.05L387.512 154.02L390.266 155.173ZM393.853 161.312C392.145 163.699 392.701 167.027 395.097 168.724C397.48 170.435 400.802 169.878 402.497 167.478C404.204 165.091 403.648 161.763 401.252 160.066C398.87 158.369 395.56 158.926 393.853 161.312Z" fill="#F5F5F5"/>
<path d="M91.7584 162.32C85.7091 158.594 84.1339 149.777 87.2843 143.399C90.4347 137.021 97.2782 133.083 104.267 131.85C114.394 130.06 125.288 133.507 132.555 140.787C136.486 144.725 139.689 149.883 144.971 151.633C149.604 153.171 154.687 151.646 159.532 152.203C166.031 152.945 171.67 157.493 175.072 163.089C178.487 168.684 179.956 175.248 180.817 181.745C181.611 187.711 182.167 194.261 186.376 198.557C190.48 202.747 196.86 203.556 201.93 206.513C211.46 212.068 214.717 226.123 208.628 235.312C206.682 238.242 203.876 240.947 203.69 244.461C203.531 247.67 205.636 250.494 206.655 253.543C209.263 261.393 202.962 270.86 194.716 271.457C190.559 271.762 186.072 270.197 182.365 272.12C178.686 274.029 177.375 278.524 175.045 281.958C170.479 288.72 160.763 291.385 153.39 287.898C150.306 286.44 147.38 284 143.978 284.278C140.59 284.557 137.955 287.5 134.62 288.203C130.251 289.118 126.055 285.949 123.408 282.369C120.761 278.789 118.881 274.546 115.506 271.629C111.084 267.81 104.956 266.935 99.4093 265.119C87.1784 261.101 76.8535 251.568 71.8764 239.674C66.8861 227.781 67.3097 213.739 73.0016 202.164" fill="#263238"/>
<path d="M156.341 239.913C157.572 238.547 159.332 237.274 161.159 236.638L160.788 236.625C161.132 236.532 161.477 236.479 161.834 236.439C163.171 236.108 164.508 236.147 165.646 236.85H165.607C167.698 237.593 169.564 239.091 170.597 241.067C172.397 244.514 171.815 248.956 169.498 252.085C167.486 254.803 164.005 256.62 160.709 255.864C157.691 255.174 155.414 252.469 154.514 249.499C153.521 246.238 154.064 242.445 156.341 239.913Z" fill="#455A64"/>
<path d="M78.3222 306.859L70.2477 189.806C69.93 184.648 73.5966 180.114 78.6929 179.345L130.754 163.752C147.538 161.233 159.637 181.546 161.437 198.451C163.436 217.226 165.13 240.231 163.502 254.379C160.233 282.82 137.081 287.461 137.081 287.461C137.068 287.368 137.333 316.366 137.65 326.642L144.56 358.384L78.3222 306.859Z" fill="#FFBF9D"/>
<path d="M136.91 285.538C136.91 285.538 119.689 287.474 100.402 276.959C100.402 276.959 108.874 297.856 136.989 293.997L136.91 285.538Z" fill="#FF9A6C"/>
<path d="M180.207 190.323C178.83 186.107 176.355 182.103 172.608 179.742C170.557 178.443 168.187 177.674 166.268 176.176C162.138 172.94 161.119 167.212 158.524 162.651C155.189 156.764 148.861 152.694 142.137 152.097C136.538 151.606 130.806 153.37 125.326 152.07C121.289 151.116 117.728 148.543 113.638 147.827C105.669 146.435 98.3623 152.256 92.6836 158.024C92.7498 163.725 97.3298 167.464 101.751 171.058C106.172 174.651 112.208 176.149 117.794 175.049C122.123 174.187 126.848 171.919 130.647 174.187C134.632 176.56 134.883 182.527 138.431 185.523C143.5 189.806 151.416 185.603 157.796 187.393C162.734 188.785 165.871 193.439 169.193 197.351C172.516 201.262 177.453 204.948 182.351 203.41C181.967 198.995 181.583 194.54 180.207 190.323Z" fill="#263238"/>
<path d="M120.178 167.106C116.604 166.138 109.27 163.937 107.325 160.861C103.076 154.205 95.6893 149.71 88.2236 150.241C80.758 150.758 73.6629 156.777 72.2466 164.706C63.2057 164.905 54.4561 170.726 50.2467 179.358C49.7172 180.432 49.2672 181.559 48.8833 182.699C46.1433 187.711 45.6932 193.943 47.8111 199.26C49.0951 202.469 51.2395 206.022 49.6378 209.072C47.9964 212.175 43.7474 212.334 40.4381 213.527C34.6933 215.609 31.0531 222.291 32.4297 228.258C32.9195 230.393 33.9785 232.527 33.5681 234.675C33.1313 236.916 31.2517 238.521 29.8088 240.297C26.2216 244.686 25.1891 251.024 27.1879 256.328C29.1867 261.632 34.1373 265.715 39.7233 266.644C42.2648 267.068 45.0049 266.922 47.2287 268.248C49.7702 269.759 50.9086 272.783 52.722 275.116C56.1901 279.598 62.6233 281.52 67.9843 279.651C69.0697 279.28 70.0757 278.709 71.0155 278.073C72.7496 280.407 75.4367 281.958 79.9902 281.892L78.0708 222.318C78.6533 223.564 79.7652 224.678 81.7243 225.089C91.3078 227.118 92.4065 207.388 90.2092 202.071C93.6243 198.942 97.0659 195.786 99.6471 191.835C102.228 187.897 104.386 177.223 103.764 172.437C107.152 172.596 121.753 167.531 120.178 167.106Z" fill="#263238"/>
<path d="M80.744 227.118C80.3469 221.072 72.9342 219.878 67.732 222.994C64.8728 224.705 62.7284 228.086 63.0858 234.516C64.0389 251.647 81.022 247.153 81.022 246.662C81.022 246.357 81.194 234.211 80.744 227.118Z" fill="#FFBF9D"/>
<path d="M75.4363 240.457C75.3569 240.404 75.1451 240.682 74.6553 240.947C74.1788 241.199 73.3448 241.398 72.4315 241.12C70.5915 240.549 68.9104 237.765 68.6457 234.689C68.5133 233.137 68.7648 231.626 69.2414 230.366C69.6914 229.08 70.4592 228.165 71.3593 227.953C72.2594 227.688 72.9212 228.205 73.1595 228.669C73.411 229.133 73.3316 229.478 73.4243 229.504C73.4772 229.544 73.7816 229.199 73.5963 228.497C73.5037 228.165 73.2786 227.767 72.8683 227.463C72.4447 227.144 71.8226 227.012 71.2004 227.118C69.89 227.277 68.7648 228.563 68.2354 229.942C67.6265 231.334 67.322 233.031 67.4676 234.782C67.7721 238.229 69.7179 241.358 72.2329 241.942C73.4507 242.194 74.4435 241.769 74.9333 241.332C75.4363 240.881 75.5025 240.483 75.4363 240.457Z" fill="#FF9A6C"/>
<path d="M96.5365 162.824C96.6688 163.009 94.8157 163.341 93.161 165.741C91.5064 168.101 90.924 172.582 92.0756 177.621L92.1683 178.059L91.7447 178.165C87.5221 179.278 82.9156 182.726 80.8639 188.056C80.3741 189.369 80.0564 190.827 80.0432 192.246C80.0564 193.704 80.3344 195.216 80.6389 196.767C80.9433 198.319 81.2742 199.923 81.3669 201.634C81.5125 203.304 81.0889 205.253 80.0829 206.712C78.0047 209.987 74.6028 211.631 71.6774 213.222C68.6726 214.773 65.9061 216.351 63.8014 218.552C59.5259 222.888 57.6727 228.444 57.6198 233.018C57.5271 237.646 58.8773 241.279 60.0289 243.586C61.1937 245.906 62.1733 247.007 62.0806 247.086C62.0542 247.113 61.7894 246.848 61.3394 246.33C60.9025 245.787 60.2672 244.978 59.6185 243.811C58.3081 241.531 56.7858 237.831 56.7726 233.018C56.7196 228.258 58.5596 222.397 63.0204 217.783C65.2046 215.436 68.1696 213.726 71.1347 212.188C74.0469 210.597 77.2502 208.966 79.0637 206.075C80.9168 203.45 80.03 200.056 79.474 196.993C79.1828 195.428 78.8783 193.864 78.8783 192.246C78.9181 190.602 79.2755 189.09 79.8182 187.658C82.0949 181.93 87.0323 178.39 91.5329 177.29L91.2152 177.833C90.1298 172.556 90.8578 167.915 92.7639 165.449C93.6773 164.229 94.6965 163.553 95.4113 163.221C96.1394 162.916 96.5232 162.784 96.5365 162.824Z" fill="#455A64"/>
<path d="M69.1368 246.967C70.3678 245.601 72.1283 244.328 73.955 243.692L73.5844 243.679C73.9286 243.573 74.2727 243.533 74.6301 243.48C75.9671 243.148 77.304 243.188 78.4424 243.891H78.4027C80.4941 244.633 82.3605 246.132 83.393 248.107C85.1932 251.555 84.6108 255.996 82.2943 259.126C80.2823 261.844 76.801 263.66 73.505 262.905C70.4869 262.215 68.2102 259.51 67.3101 256.54C66.3305 253.292 66.8733 249.499 69.1368 246.967Z" fill="#455A64"/>
<path d="M317.238 376.258L328.9 371.776C328.9 371.776 332.077 361.58 334.195 358.597C336.313 355.6 347.577 346.451 348.226 346.199C348.888 345.947 356.287 329.333 359.65 329.877C363.025 330.421 365.341 332.794 364.402 337.302C363.462 341.81 355.996 350.813 358.061 352.298C360.126 353.797 363.502 354.34 363.502 354.34C363.502 354.34 364.415 349.156 367.261 347.485C370.094 345.815 373.337 348.586 373.337 348.586L373.429 350.813L376.236 348.241C376.236 348.241 379.187 337.833 383.648 337.886C383.648 337.886 385.395 334.014 388.056 331.946C390.081 330.368 393.073 331.269 393.986 333.682L385.965 357.257L363.899 381.601C363.899 381.601 353.561 385.579 350.926 386.799C348.292 388.019 336.326 396.319 331.044 398.083C325.75 399.859 319.608 402.551 319.608 402.551L317.238 376.258Z" fill="#FFBF9D"/>
<path d="M348.186 368.992C348.186 368.846 346.598 368.621 344.004 368.568C341.436 368.554 337.623 368.7 334.023 370.769C332.223 371.79 330.833 373.275 329.88 374.76C328.913 376.245 328.331 377.716 327.907 378.95C327.087 381.429 326.822 383.02 326.954 383.06C327.113 383.113 327.669 381.601 328.662 379.241C329.668 376.934 331.27 373.633 334.592 371.75C337.888 369.854 341.502 369.549 344.03 369.376C346.571 369.231 348.186 369.164 348.186 368.992Z" fill="#FF9A6C"/>
<path d="M358.378 352.882C358.55 352.63 357.346 351.543 355.466 350.986C353.587 350.416 351.985 350.668 351.998 350.973C351.998 351.291 353.441 351.556 355.148 352.073C356.843 352.577 358.193 353.16 358.378 352.882Z" fill="#FF9A6C"/>
<path d="M383.369 357.297C383.224 357.271 383.422 355.361 383.886 352.179C384.349 348.997 385.064 344.555 385.95 339.45L386.281 340.113C385.5 339.755 384.561 339.198 383.872 338.973C383.118 338.734 382.284 338.867 381.516 339.278C380.259 339.928 379.411 341.253 378.789 342.579C378.194 343.932 377.664 345.351 377.346 346.663C376.711 349.395 376.287 351.914 375.89 354.022C375.136 358.252 374.646 360.864 374.461 360.837C374.289 360.811 374.461 358.159 374.99 353.89C375.268 351.755 375.599 349.222 376.195 346.398C376.513 344.94 377.016 343.547 377.651 342.062C378.313 340.63 379.239 339.039 380.934 338.151C381.9 337.62 383.144 337.422 384.23 337.766C385.342 338.151 385.99 338.615 386.851 339.013L387.274 339.212L387.182 339.676C386.228 344.767 385.355 349.196 384.68 352.325C383.991 355.467 383.515 357.324 383.369 357.297Z" fill="#FF9A6C"/>
<path d="M354.394 377.411C354.341 377.398 354.381 377.053 354.5 376.404C354.646 375.767 354.924 374.826 355.453 373.699C356.472 371.432 358.378 368.435 361.238 365.253L361.118 365.465C362.641 360.943 361.251 354.38 365.354 348.533C366.387 347.326 368.028 346.544 369.603 346.637C371.179 346.703 372.529 347.273 373.72 348.082L374.011 348.281L373.972 348.652C373.151 355.269 372.396 360.997 371.801 365.054C371.655 367.096 370.874 368.727 370.318 369.668C369.749 370.649 369.325 371.113 369.272 371.074C369.206 371.034 369.498 370.49 369.948 369.482C370.384 368.435 370.993 367.016 371.033 364.921C371.404 360.837 371.999 355.123 372.741 348.52L372.992 349.09C372.039 348.453 370.781 347.949 369.564 347.923C368.333 347.87 367.168 348.427 366.307 349.395C365.315 350.469 364.825 351.914 364.401 353.359C363.991 354.804 363.7 356.263 363.475 357.695C363.223 359.14 363.157 360.466 362.998 361.885C362.8 363.277 362.508 364.563 362.138 365.796L362.098 365.916L362.005 366.009C359.146 369.005 357.147 371.882 355.996 373.991C354.804 376.072 354.54 377.451 354.394 377.411Z" fill="#FF9A6C"/>
<path d="M70.8047 303.982C71.5062 302.961 76.1921 293.905 76.1921 293.905L102.746 316.83C102.746 316.83 128.769 338.668 128.769 337.249L132.926 316.246L138.035 297.14L147.579 311.593C147.579 311.593 177.574 370.503 177.574 371.219C177.574 371.922 196.146 432.901 196.146 432.901L192.148 457.617L191.672 545.194L135.732 542.834L124.679 525.173L105.644 412.867L70.8047 303.982Z" fill="white"/>
<path d="M140.589 527.877H200.182L209.62 568H117.98L140.589 527.877Z" fill="#263238"/>
<path d="M138.71 510.945C136.831 482.186 137.625 427.916 126.625 399.607C115.625 371.299 71.5063 301.741 71.5063 301.741L60.6785 318.607L32.2852 329.28L70.8048 485.713C70.8048 485.713 55.9661 520.717 48.8976 541.163C46.7929 547.276 43.9337 557.644 40.8098 568H138.3C139.187 545.247 139.597 524.536 138.71 510.945Z" fill="#FFC727"/>
<path d="M325.405 367.653L250.246 409.499L198.158 335.048C198.013 334.863 197.867 334.65 197.708 334.438C191.778 326.576 185.954 317.93 176.37 315.769L174.914 315.438L177.707 404.553C177.707 404.553 214.744 445.445 235.5 462.35C241.681 467.389 257.354 464.233 264.82 460.109C294.735 443.575 345.817 401.172 345.817 401.172L325.405 367.653Z" fill="#FFC727"/>
<path d="M199.654 486.389C199.654 486.389 205.134 443.854 206.921 433.167C216.319 377.252 174.914 315.451 174.914 315.451L155.985 312.309L139.65 298.797L146.865 318.978C146.865 318.978 170.585 385.447 175.298 406.675C180.01 427.903 182.366 493.178 183.094 491.613C183.531 490.685 186.377 531.02 189.964 568H230.138L199.654 486.389Z" fill="#FFC727"/>
<path d="M196.159 439.027C196.133 439.027 196.133 438.55 196.173 437.648C196.226 436.654 196.292 435.341 196.384 433.697C196.437 432.835 196.504 431.88 196.557 430.846C196.557 429.799 196.557 428.658 196.57 427.452C196.57 425.012 196.623 422.241 196.384 419.178C195.829 406.953 193.194 390.061 187.092 372.36C184.802 365.704 182.3 359.366 179.547 353.77L179.534 353.744V353.73C176.847 347.379 173.683 341.744 170.824 336.745C167.951 331.747 165.304 327.384 163.08 323.778C160.883 320.251 159.109 317.413 157.838 315.371C157.269 314.443 156.806 313.701 156.435 313.117C156.118 312.6 155.972 312.335 155.985 312.309C156.012 312.295 156.197 312.534 156.554 313.025C156.938 313.581 157.441 314.297 158.077 315.199C159.387 317.108 161.254 319.906 163.544 323.473C165.834 327.04 168.547 331.362 171.472 336.361C174.385 341.36 177.588 346.968 180.341 353.399L180.328 353.359C183.134 359.008 185.663 365.359 187.953 372.055C194.094 389.835 196.636 406.847 197.033 419.152C197.232 422.228 197.126 425.012 197.073 427.452C197.046 428.672 197.02 429.799 196.993 430.86C196.901 431.894 196.808 432.848 196.742 433.71C196.583 435.354 196.451 436.667 196.358 437.648C196.252 438.563 196.186 439.027 196.159 439.027Z" fill="#263238"/>
<path d="M128.279 337.581C128.253 337.62 127.895 337.461 127.22 337.117C126.439 336.706 125.486 336.202 124.348 335.605C121.74 334.16 118.298 332.25 114.235 329.996L114.83 329.691C114.34 334.239 113.507 339.556 112.673 345.218C112.342 347.525 112.024 349.779 111.759 351.927L111.653 352.763L111.018 352.219C105.617 347.605 100.905 343.561 97.5825 340.63C96.0205 339.238 94.7233 338.085 93.6908 337.17C92.7907 336.348 92.3141 335.87 92.3539 335.83C92.3936 335.791 92.9363 336.175 93.8894 336.931C94.9615 337.793 96.325 338.88 97.9531 340.193C101.381 342.99 106.16 346.968 111.6 351.543L110.872 351.834C111.124 349.673 111.428 347.406 111.773 345.099C112.606 339.424 113.48 334.12 114.049 329.612L114.129 329.002L114.645 329.307C118.643 331.667 122.031 333.682 124.586 335.194C125.671 335.87 126.585 336.427 127.339 336.904C127.975 337.315 128.306 337.541 128.279 337.581Z" fill="#263238"/>
<path d="M143.728 311.606C143.794 311.606 143.82 312.468 143.807 314.006C143.781 315.729 143.741 317.917 143.688 320.529C143.556 326.032 143.291 333.643 142.96 342.036C142.947 342.248 142.947 342.447 142.933 342.646L142.88 344.117L142.099 342.884C138.287 336.878 134.806 331.375 132.053 327.013L132.688 326.933C131.576 329.983 130.649 332.542 129.935 334.518C129.26 336.308 128.849 337.289 128.783 337.276C128.717 337.249 128.995 336.228 129.564 334.398C130.199 332.396 131.033 329.811 132.026 326.721L132.251 326.019L132.661 326.642C135.468 330.964 139.015 336.427 142.894 342.394L142.046 342.619C142.06 342.42 142.06 342.208 142.073 342.009C142.417 333.616 142.775 326.005 143.079 320.516C143.238 317.904 143.383 315.716 143.489 314.006C143.569 312.441 143.661 311.592 143.728 311.606Z" fill="#263238"/>
<path d="M32.2849 329.28C29.9684 330.726 27.7711 332.423 25.6929 334.359C20.3981 339.318 16.5991 345.629 14.2032 352.484C11.5293 360.161 8.86866 369.589 7.31993 375.542L0.132255 484.732C-0.50312 494.424 1.05884 504.143 4.71225 513.147L26.9768 568H74.9741L49.0694 494.61L57.9381 413.649L32.2849 329.28Z" fill="#FFC727"/>
<path d="M61.8555 316.79L72.4053 348.506H83.6568L76.35 353.16L134.076 463.65" fill="#FFC727"/>
<path d="M134.077 463.65C134.064 463.663 133.971 463.53 133.825 463.265C133.653 462.96 133.428 462.562 133.164 462.085C132.568 460.985 131.734 459.46 130.688 457.524C128.531 453.48 125.486 447.739 121.727 440.685C114.208 426.365 103.883 406.701 92.4731 384.969C86.5958 373.699 81.0098 362.972 75.993 353.346L75.8077 353.001L76.1386 352.789C78.6669 351.185 81.1025 349.647 83.4454 348.162L83.6572 348.904C79.6729 348.891 75.9268 348.878 72.4058 348.864H72.1411L72.0616 348.626C68.9112 338.933 66.33 331.004 64.5033 325.422C63.6429 322.717 62.9678 320.582 62.4781 319.044C62.2663 318.355 62.1074 317.811 61.9751 317.374C61.8692 316.989 61.8162 316.803 61.8427 316.79C61.8559 316.79 61.9353 316.976 62.081 317.334C62.2398 317.758 62.4383 318.302 62.6766 318.978C63.2061 320.49 63.9474 322.611 64.8872 325.289C66.7801 330.845 69.4539 338.734 72.7367 348.387L72.3926 348.135C75.9136 348.122 79.6597 348.109 83.644 348.095H85.0206L83.8558 348.838C81.5128 350.336 79.0905 351.901 76.5754 353.505L76.721 352.948C81.7643 362.574 87.3636 373.275 93.2673 384.545C104.585 406.317 114.83 426.033 122.283 440.38C125.936 447.5 128.888 453.281 130.979 457.352C131.959 459.314 132.74 460.865 133.309 461.992C133.547 462.483 133.733 462.881 133.892 463.212C134.024 463.504 134.09 463.65 134.077 463.65Z" fill="#263238"/>
<path d="M40.5586 344.74C54.6163 360.877 60.5729 383.789 56.1385 404.739L40.5586 344.74Z" fill="#FFC727"/>
<path d="M56.1374 404.752C55.9521 404.712 56.7463 401.199 57.0773 395.417C57.2626 392.527 57.2229 389.08 56.9317 385.274C56.5743 381.469 55.9389 377.319 54.8535 373.049C53.7283 368.793 52.2722 364.842 50.7235 361.354C49.1351 357.894 47.4937 354.857 45.9185 352.431C42.821 347.552 40.4251 344.86 40.5708 344.741C40.6237 344.701 41.2326 345.351 42.3048 346.584C42.8475 347.194 43.4961 347.949 44.1712 348.891C44.8595 349.819 45.6935 350.853 46.4612 352.086C48.1158 354.499 49.8366 357.523 51.4913 361.01C53.0929 364.523 54.5887 368.514 55.7403 372.824C56.839 377.146 57.4611 381.363 57.7788 385.208C58.0303 389.066 58.0039 392.553 57.7259 395.457C57.6597 396.916 57.4214 398.215 57.2758 399.369C57.1435 400.522 56.9449 401.503 56.7596 402.299C56.4154 403.89 56.1904 404.765 56.1374 404.752Z" fill="#263238"/>
<path d="M74.9751 568C74.9618 568 74.9089 567.881 74.803 567.629C74.6971 567.35 74.5515 566.992 74.3794 566.528C74.0088 565.521 73.4793 564.102 72.8174 562.285C71.4673 558.546 69.5479 553.216 67.1785 546.639C62.4661 533.354 55.9535 515.029 48.7394 494.716L48.7129 494.637L48.7261 494.557C48.7923 493.987 48.8585 493.377 48.9247 492.767C51.3603 470.929 53.5576 451.159 55.1593 436.8C55.98 429.679 56.6551 423.898 57.1316 419.841C57.3699 417.879 57.5684 416.341 57.7008 415.24C57.767 414.75 57.8199 414.352 57.8596 414.047C57.8994 413.782 57.9258 413.636 57.9391 413.636C57.9523 413.636 57.9523 413.782 57.9258 414.047C57.8994 414.352 57.8729 414.75 57.8332 415.253C57.7273 416.354 57.5817 417.905 57.3964 419.868C56.9728 423.925 56.3771 429.706 55.6491 436.839C54.1003 451.212 51.9692 470.982 49.613 492.833C49.5468 493.443 49.4806 494.053 49.4145 494.623L49.4012 494.477C56.5359 514.817 62.9691 533.168 67.6418 546.467C69.9318 553.083 71.7849 558.44 73.0822 562.192C73.6911 564.022 74.1808 565.454 74.525 566.475C74.6706 566.939 74.7897 567.311 74.8824 567.589C74.9486 567.867 74.9883 568 74.9751 568Z" fill="#263238"/>
<path d="M187.542 343.799C187.542 343.799 191.129 349.143 195.338 358.65C196.45 360.997 197.377 363.688 198.515 366.512C199.468 369.403 200.606 372.466 201.48 375.794C202.473 379.082 203.241 382.596 204.061 386.242C204.392 388.085 204.736 389.942 205.081 391.851C205.438 393.747 205.637 395.696 205.914 397.658C207.927 413.384 207.397 427.81 206.444 438.112C206.153 440.685 205.901 443.005 205.663 445.06C205.451 447.102 205.12 448.852 204.922 450.284C204.697 451.663 204.525 452.764 204.392 453.573C204.26 454.328 204.18 454.713 204.167 454.713C204.141 454.713 204.18 454.315 204.26 453.546C204.353 452.724 204.485 451.624 204.657 450.231C204.816 448.799 205.107 447.049 205.292 444.994C205.491 442.939 205.716 440.605 205.967 438.046C206.788 427.744 207.238 413.384 205.239 397.711C204.948 395.762 204.75 393.826 204.405 391.93C204.061 390.048 203.73 388.178 203.399 386.348C202.592 382.728 201.837 379.215 200.871 375.94C200.024 372.625 198.912 369.575 197.986 366.685C196.874 363.861 195.987 361.169 194.901 358.822C194.385 357.642 193.895 356.502 193.445 355.441C192.969 354.38 192.466 353.399 192.016 352.471C191.116 350.628 190.361 349.023 189.646 347.764C188.984 346.531 188.455 345.55 188.071 344.82C187.7 344.184 187.515 343.813 187.542 343.799Z" fill="#263238"/>
<path d="M250.987 432.729C250.921 432.756 250.285 431.549 249.61 429.467C248.922 427.386 248.273 424.389 248.114 421.034C247.969 417.667 248.366 414.63 248.856 412.495C249.346 410.347 249.875 409.088 249.941 409.114C250.047 409.141 249.69 410.454 249.332 412.588C248.962 414.723 248.657 417.706 248.803 421.008C248.948 424.309 249.518 427.253 250.074 429.335C250.616 431.43 251.093 432.689 250.987 432.729Z" fill="#263238"/>
</g>
<defs>
<clipPath id="clip0_342_6409">
<rect width="566" height="568" fill="white"/>
</clipPath>
</defs>
</svg>
