<svg width="586" height="473" viewBox="0 0 586 473" fill="none" xmlns="http://www.w3.org/2000/svg">
<g clip-path="url(#clip0_345_8216)">
<path d="M293 472.985C454.819 472.985 586 465.331 586 455.889C586 446.447 454.819 438.792 293 438.792C131.181 438.792 0 446.447 0 455.889C0 465.331 131.181 472.985 293 472.985Z" fill="#F5F5F5"/>
<path d="M410.297 6.04106V453.789C410.297 457.474 407.335 460.329 403.647 460.329H195.152C193.489 460.329 192.039 459.71 190.981 458.652C189.878 457.58 189.213 456.055 189.213 454.333V5.49737C189.213 2.56745 191.374 0.0151027 194.306 0.0151027H253.528C255.19 0.0151027 256.717 1.10249 257.336 2.67317L259.799 8.69913C260.419 10.2547 261.93 11.3421 263.608 11.3421H336.068C337.745 11.3421 339.257 10.3 339.876 8.74444L342.339 2.67317C342.959 1.10249 344.47 0 346.147 0H404.509C407.712 0 410.297 2.80909 410.297 6.04106Z" fill="#FFC800"/>
<path opacity="0.6" d="M216.695 18.0312H219.777V13.9233H216.695V18.0312Z" fill="white"/>
<path opacity="0.6" d="M211.669 18.0361H214.752V12.569H211.669V18.0361Z" fill="white"/>
<path opacity="0.6" d="M206.659 18.041H209.742V11.1995H206.659V18.041Z" fill="white"/>
<path opacity="0.6" d="M201.634 18.0308H204.717V9.81492H201.634V18.0308Z" fill="white"/>
<path opacity="0.6" d="M382.069 12.4297H380.24V16.5376H382.069V12.4297Z" fill="white"/>
<path opacity="0.6" d="M383.328 18.0405L397.881 18.0405V10.9423L383.328 10.9423V18.0405Z" fill="white"/>
<g opacity="0.1">
<path d="M288.678 11.327L225.028 249.586V249.602L224.317 252.275V252.29L223.169 256.579V256.594L222.443 259.267L189.213 383.683V233.109L251.488 0H253.513C255.19 0 256.702 1.08739 257.321 2.65807L259.769 8.69913C260.389 10.2547 261.915 11.327 263.577 11.327H288.678Z" fill="white"/>
<path d="M410.296 133.009V283.598L370.598 432.193L369.646 435.817L363.087 460.329H322.875L329.418 435.833L330.461 431.891L335.72 412.197L336.778 408.27L338.893 400.387L339.936 396.445L342.037 388.576L343.079 384.635L376.174 260.778V260.763L377.7 255.039V255.024L410.296 133.009Z" fill="white"/>
<path d="M310.469 11.3271L247.227 248.107L246.849 249.526L243.389 262.499L243.011 263.919L190.997 458.653C189.893 457.58 189.229 456.04 189.229 454.318V431.407L233.974 263.904L234.352 262.484L237.812 249.511L238.19 248.091L301.433 11.3271H310.469Z" fill="white"/>
</g>
<path opacity="0.3" d="M410.297 29.1934H189.213V440.514H410.297V29.1934Z" fill="white"/>
<path d="M367.758 209.927C372.004 209.927 375.465 206.484 375.465 202.225V80.739C375.465 76.4951 372.019 73.0366 367.758 73.0366C363.511 73.0366 360.051 76.48 360.051 80.739V202.24C360.051 206.484 363.496 209.927 367.758 209.927Z" fill="#FFC800"/>
<path opacity="0.3" d="M367.759 206.907C365.175 206.907 363.074 204.807 363.074 202.225V80.7389C363.074 78.1564 365.175 76.0571 367.759 76.0571C370.343 76.0571 372.443 78.1564 372.443 80.7389V202.24C372.428 204.822 370.343 206.907 367.759 206.907Z" fill="black"/>
<path d="M378.781 94.4873C379.769 88.4028 375.635 82.6699 369.547 81.6824C363.459 80.695 357.722 84.8269 356.734 90.9113C355.746 96.9958 359.881 102.729 365.969 103.716C372.057 104.704 377.793 100.572 378.781 94.4873Z" fill="#FFC800"/>
<path d="M322.424 209.927C326.67 209.927 330.131 206.484 330.131 202.225V80.739C330.131 76.4951 326.685 73.0366 322.424 73.0366C318.177 73.0366 314.717 76.48 314.717 80.739V202.24C314.717 206.484 318.162 209.927 322.424 209.927Z" fill="#FFC800"/>
<path opacity="0.3" d="M322.423 206.907C319.839 206.907 317.738 204.807 317.738 202.225V80.7389C317.738 78.1564 319.839 76.0571 322.423 76.0571C325.007 76.0571 327.108 78.1564 327.108 80.7389V202.24C327.092 204.822 325.007 206.907 322.423 206.907Z" fill="black"/>
<path d="M333.447 185.105C334.435 179.02 330.301 173.288 324.213 172.3C318.125 171.313 312.388 175.445 311.4 181.529C310.412 187.613 314.547 193.346 320.635 194.334C326.723 195.321 332.459 191.189 333.447 185.105Z" fill="#FFC800"/>
<path d="M277.088 209.927C281.334 209.927 284.795 206.484 284.795 202.225V80.739C284.795 76.4951 281.349 73.0366 277.088 73.0366C272.841 73.0366 269.381 76.48 269.381 80.739V202.24C269.381 206.484 272.826 209.927 277.088 209.927Z" fill="#FFC800"/>
<path opacity="0.3" d="M277.087 206.907C274.503 206.907 272.402 204.807 272.402 202.225V80.7389C272.402 78.1564 274.503 76.0571 277.087 76.0571C279.671 76.0571 281.772 78.1564 281.772 80.7389V202.24C281.756 204.822 279.671 206.907 277.087 206.907Z" fill="black"/>
<path d="M288.111 124.694C289.099 118.609 284.965 112.876 278.877 111.889C272.789 110.901 267.052 115.033 266.064 121.118C265.076 127.202 269.211 132.935 275.299 133.923C281.387 134.91 287.123 130.778 288.111 124.694Z" fill="#FFC800"/>
<path d="M231.754 209.927C236 209.927 239.461 206.484 239.461 202.225V80.739C239.461 76.4951 236.015 73.0366 231.754 73.0366C227.507 73.0366 224.047 76.48 224.047 80.739V202.24C224.047 206.484 227.492 209.927 231.754 209.927Z" fill="#FFC800"/>
<path opacity="0.3" d="M231.753 206.907C229.169 206.907 227.068 204.807 227.068 202.225V80.7389C227.068 78.1564 229.169 76.0571 231.753 76.0571C234.337 76.0571 236.438 78.1564 236.438 80.7389V202.24C236.422 204.822 234.337 206.907 231.753 206.907Z" fill="black"/>
<path d="M242.775 170.003C243.763 163.919 239.629 158.186 233.541 157.199C227.453 156.211 221.717 160.343 220.728 166.427C219.74 172.512 223.875 178.245 229.963 179.232C236.051 180.22 241.787 176.088 242.775 170.003Z" fill="#FFC800"/>
<path opacity="0.6" d="M378.781 94.4873C379.769 88.4028 375.635 82.6699 369.547 81.6824C363.459 80.695 357.722 84.8269 356.734 90.9113C355.746 96.9958 359.881 102.729 365.969 103.716C372.057 104.704 377.793 100.572 378.781 94.4873Z" fill="white"/>
<path opacity="0.6" d="M367.758 100.841C363.27 100.841 359.613 97.1859 359.613 92.7004C359.613 88.2149 363.27 84.5601 367.758 84.5601C372.247 84.5601 375.904 88.2149 375.904 92.7004C375.904 97.1859 372.247 100.841 367.758 100.841Z" fill="white"/>
<path opacity="0.6" d="M333.447 185.105C334.435 179.02 330.301 173.288 324.213 172.3C318.125 171.313 312.388 175.445 311.4 181.529C310.412 187.613 314.547 193.346 320.635 194.334C326.723 195.321 332.459 191.189 333.447 185.105Z" fill="white"/>
<path opacity="0.6" d="M322.423 191.456C317.934 191.456 314.277 187.802 314.277 183.316C314.277 178.831 317.934 175.176 322.423 175.176C326.911 175.176 330.568 178.831 330.568 183.316C330.568 187.817 326.911 191.456 322.423 191.456Z" fill="white"/>
<path opacity="0.6" d="M288.111 124.694C289.099 118.609 284.965 112.876 278.877 111.889C272.789 110.901 267.052 115.033 266.064 121.118C265.076 127.202 269.211 132.935 275.299 133.923C281.387 134.91 287.123 130.778 288.111 124.694Z" fill="white"/>
<path opacity="0.6" d="M277.089 131.046C272.6 131.046 268.943 127.391 268.943 122.905C268.943 118.42 272.6 114.765 277.089 114.765C281.577 114.765 285.234 118.42 285.234 122.905C285.234 127.391 281.577 131.046 277.089 131.046Z" fill="white"/>
<path opacity="0.6" d="M242.775 170.003C243.763 163.919 239.629 158.186 233.541 157.199C227.453 156.211 221.717 160.343 220.728 166.427C219.74 172.512 223.875 178.245 229.963 179.232C236.051 180.22 241.787 176.088 242.775 170.003Z" fill="white"/>
<path opacity="0.6" d="M231.753 176.354C227.264 176.354 223.607 172.699 223.607 168.214C223.607 163.728 227.264 160.073 231.753 160.073C236.241 160.073 239.898 163.728 239.898 168.214C239.898 172.699 236.241 176.354 231.753 176.354Z" fill="white"/>
<path d="M395.457 424.354H204.052C201.755 424.354 199.896 422.497 199.896 420.201V241.552C199.896 239.256 201.755 237.398 204.052 237.398H395.457C397.753 237.398 399.612 239.256 399.612 241.552V420.201C399.612 422.497 397.753 424.354 395.457 424.354Z" fill="#FFC800"/>
<path opacity="0.3" d="M395.457 424.354H204.052C201.755 424.354 199.896 422.497 199.896 420.201V241.552C199.896 239.256 201.755 237.398 204.052 237.398H395.457C397.753 237.398 399.612 239.256 399.612 241.552V420.201C399.612 422.497 397.753 424.354 395.457 424.354Z" fill="black"/>
<path opacity="0.6" d="M281.727 358.582V374.652L290.008 375.437C291.126 380.828 293.257 385.827 296.188 390.283L290.869 396.701L302.248 408.074L308.671 402.758C313.129 405.672 318.131 407.817 323.525 408.935L324.311 417.211H340.39L341.176 408.935C346.571 407.817 351.573 405.687 356.031 402.758L362.453 408.074L373.817 396.701L368.498 390.283C371.414 385.827 373.56 380.828 374.678 375.437L382.96 374.652V358.582L374.678 357.797C373.56 352.405 371.429 347.406 368.498 342.951L373.817 336.532L362.453 325.175L356.031 330.491C351.573 327.577 346.571 325.432 341.176 324.314L340.39 316.038H324.296L323.51 324.314C318.115 325.432 313.113 327.561 308.656 330.491L302.233 325.175L290.854 336.532L296.173 342.951C293.257 347.406 291.111 352.405 289.993 357.797L281.727 358.582ZM332.336 344.869C344.364 344.869 354.111 354.61 354.111 366.632C354.111 378.654 344.364 388.395 332.336 388.395C320.307 388.395 310.56 378.654 310.56 366.632C310.575 354.61 320.322 344.869 332.336 344.869Z" fill="white"/>
<path opacity="0.4" d="M216.551 312.429V325.024L223.034 325.628C223.91 329.857 225.588 333.769 227.869 337.258L223.699 342.287L232.614 351.197L237.647 347.029C241.137 349.309 245.066 350.986 249.283 351.862L249.887 358.341H262.49L263.095 351.862C267.326 350.986 271.24 349.309 274.731 347.029L279.763 351.197L288.679 342.287L284.508 337.258C286.79 333.769 288.467 329.842 289.344 325.628L295.827 325.024V312.429L289.344 311.825C288.467 307.596 286.79 303.684 284.508 300.196L288.679 295.166L279.763 286.256L274.731 290.424C271.24 288.144 267.311 286.467 263.095 285.591L262.49 279.112H249.887L249.283 285.591C245.051 286.467 241.137 288.144 237.647 290.424L232.614 286.256L223.699 295.166L227.869 300.196C225.588 303.684 223.91 307.611 223.034 311.825L216.551 312.429ZM256.219 301.676C265.633 301.676 273.28 309.303 273.28 318.727C273.28 328.151 265.649 335.777 256.219 335.777C246.804 335.777 239.158 328.151 239.158 318.727C239.158 309.318 246.789 301.676 256.219 301.676Z" fill="white"/>
<path opacity="0.2" d="M286.836 273.539V284.111L292.291 284.625C293.032 288.174 294.437 291.466 296.356 294.396L292.85 298.625L300.331 306.101L304.562 302.597C307.494 304.515 310.788 305.919 314.339 306.66L314.853 312.112H325.431L325.945 306.66C329.496 305.919 332.791 304.515 335.722 302.597L339.953 306.101L347.434 298.625L343.928 294.396C345.847 291.466 347.252 288.174 347.993 284.625L353.448 284.111V273.539L347.993 273.026C347.252 269.477 345.847 266.184 343.928 263.254L347.434 259.026L339.953 251.55L335.722 255.054C332.791 253.136 329.496 251.731 325.945 250.991L325.431 245.539H314.853L314.339 250.991C310.788 251.731 307.494 253.136 304.562 255.054L300.331 251.55L292.85 259.026L296.356 263.254C294.437 266.184 293.032 269.477 292.291 273.026L286.836 273.539ZM320.142 264.523C328.061 264.523 334.468 270.942 334.468 278.84C334.468 286.754 328.045 293.158 320.142 293.158C312.224 293.158 305.816 286.739 305.816 278.84C305.816 270.927 312.239 264.523 320.142 264.523Z" fill="white"/>
<path opacity="0.6" d="M268.353 315.479L259.467 306.599L247.332 309.846L244.068 321.974L252.954 330.854L265.104 327.607L268.353 315.479Z" fill="white"/>
<path opacity="0.8" d="M334.301 351.182L319.945 357.208L317.98 372.643L330.387 382.052L344.743 376.041L346.693 360.606L334.301 351.182Z" fill="white"/>
<path opacity="0.4" d="M329.071 283.991V273.691L320.141 268.541L311.225 273.691V283.991L320.141 289.141L329.071 283.991Z" fill="white"/>
<path d="M536.585 186.11L552.663 199.159C552.663 199.159 556.592 199.234 557.832 200.533C559.071 201.832 563.816 211.467 563.136 212.781C562.456 214.095 554.522 216.693 552.86 215.137C551.182 213.582 548.281 204.656 548.341 203.704L527.805 189.931L536.585 186.11Z" fill="#B97964"/>
<path d="M545.501 191.849L541.905 199.687C541.905 199.687 519.796 189.342 515.006 183.316C513.782 181.761 512.089 179.284 510.261 176.46C507.254 171.793 503.853 166.175 501.496 162.233C499.743 159.288 498.564 157.279 498.564 157.279L511.077 137.555C513.812 139.654 522.184 173.364 523.68 175.176C525.176 176.988 545.501 191.849 545.501 191.849Z" fill="#263238"/>
<path opacity="0.2" d="M510.261 176.459C507.254 171.793 503.854 166.175 501.496 162.233L507.314 147.885C507.314 147.885 510.472 164.347 510.261 176.459Z" fill="black"/>
<path d="M408.348 111.261L391.393 99.2243C391.393 99.2243 389.383 95.8564 387.63 95.4184C385.892 94.9804 375.163 95.6299 374.347 96.8683C373.531 98.1067 375.208 106.277 377.384 106.957C379.56 107.636 388.763 105.749 389.564 105.235L406.776 117.121L408.348 111.261Z" fill="#B97964"/>
<path d="M542.116 449.183L532.626 450.845L528.743 437.932L525.191 426.061L536.132 422.24L539.306 436.497L542.116 449.183Z" fill="#B97964"/>
<path opacity="0.2" d="M539.352 436.799L528.789 438.188L525.207 426.197L536.133 422.3L539.352 436.799Z" fill="black"/>
<path d="M478.783 449.409H469.157L467.57 436.497L466.135 424.445L477.574 422.708L478.224 436.874L478.783 449.409Z" fill="#B97964"/>
<path opacity="0.2" d="M478.224 437.72L467.57 437.252L466.135 424.823L477.574 422.89L478.224 437.72Z" fill="black"/>
<path d="M540.242 426.424L524.647 429.172C508.916 389.981 497.718 357.284 489.815 330.144C485.553 315.495 482.183 302.476 479.629 290.923L480.279 333.572V429.791H464.548C426.028 247.049 453.32 204.566 453.32 204.566L499.41 196.863C501.163 203.735 502.493 214.971 503.264 222.719L505.349 237.988L523.362 330.975L540.242 426.424Z" fill="#FFC800"/>
<path d="M522.215 427.254L541.558 420.835L541.286 429.066L525.298 434.156L522.215 427.254Z" fill="#FFC800"/>
<path opacity="0.6" d="M522.215 427.254L541.558 420.835L541.286 429.066L525.298 434.156L522.215 427.254Z" fill="white"/>
<path d="M462.492 428.145L482.666 425.185L480.974 433.25L464.336 435.485L462.492 428.145Z" fill="#FFC800"/>
<path opacity="0.6" d="M462.492 428.145L482.666 425.185L480.974 433.25L464.336 435.485L462.492 428.145Z" fill="white"/>
<path opacity="0.2" d="M491.945 337.318C491.22 334.886 490.449 332.5 489.754 330.144C485.901 316.854 483.317 304.892 480.294 294.169V294.139L478.723 274.385C478.723 274.385 488.575 252.682 484.888 237.414C485.236 238.274 491.749 254.918 489.195 271.546C489.195 271.53 487.956 301.524 491.945 337.318Z" fill="black"/>
<path d="M493.261 117.725C493.14 117.816 492.989 117.891 492.853 117.952C490.979 118.949 488.879 119.855 486.582 120.066C480.144 120.701 476.004 119.281 473.586 116.094C473.571 116.094 473.571 116.094 473.571 116.094C470.231 111.352 470.231 103.725 471.954 94.7542C472.739 90.6311 473.797 87.0971 475.308 84.439C475.324 84.4088 475.339 84.3031 475.354 84.288C475.429 84.1823 475.49 84.0313 475.565 83.9256C477.787 80.2254 480.96 78.0506 485.63 77.5673C487.247 77.4012 489.045 77.4314 491.055 77.658C508.735 79.7723 508.101 109.419 493.261 117.725Z" fill="#B97964"/>
<path opacity="0.2" d="M492.869 117.952C490.995 118.949 488.925 119.598 486.628 119.824C480.19 120.459 476.065 118.843 473.662 115.611C476.639 116.683 480.734 117.484 484.981 116.155C487.655 115.324 490.376 116.275 492.869 117.952Z" fill="black"/>
<path d="M494.183 132.405C495.77 137.344 489.438 140.032 489.438 140.032C478.301 136.513 475.762 131.031 475.762 131.031C484.224 125.503 480.356 112.621 480.356 112.621L482.26 113.33L495.241 114.569C495.241 114.569 492.369 121.697 492.052 123.283C492.052 123.298 492.037 123.313 492.037 123.328C490.435 131.635 494.183 132.405 494.183 132.405Z" fill="#B97964"/>
<path d="M475.323 84.3333C475.323 84.3333 472.739 96.5816 483.786 103.423C483.786 103.423 487.155 116.925 494.545 118.073C504.625 119.628 515.414 106.413 513.812 91.3107C511.727 71.7377 483.136 66.4366 475.323 84.3333Z" fill="#263238"/>
<path d="M478.301 99.0884C478.558 97.1553 480.537 94.1197 483.469 94.9503C486.522 95.8112 487.247 103.695 479.389 104.405C478.255 104.51 477.757 103.121 478.301 99.0884Z" fill="#B97964"/>
<path d="M468.129 447.597H478.874C479.327 447.597 479.735 447.914 479.826 448.368L482.032 458.335C482.213 459.226 481.654 460.102 480.763 460.299C480.642 460.329 480.521 460.329 480.4 460.329C476.003 460.253 475.64 459.982 470.124 459.982C466.724 459.982 456.448 460.344 451.748 460.344C447.049 460.344 446.429 455.707 448.363 455.269C456.992 453.397 463.49 450.784 466.256 448.307C466.769 447.839 467.434 447.582 468.129 447.597Z" fill="#263238"/>
<path d="M464.427 449.561C463.671 449.621 462.901 449.425 462.281 448.987C461.858 448.64 461.647 448.096 461.722 447.567C461.707 447.25 461.888 446.963 462.175 446.827C463.415 446.193 467.026 448.413 467.434 448.67C467.525 448.715 467.585 448.821 467.555 448.927C467.54 449.032 467.465 449.123 467.359 449.153C466.407 449.395 465.424 449.531 464.427 449.561ZM462.765 447.235C462.644 447.22 462.523 447.25 462.417 447.311C462.342 447.311 462.266 447.416 462.251 447.628C462.206 447.99 462.342 448.338 462.614 448.579C463.868 449.153 465.288 449.214 466.603 448.776C465.424 448.02 464.125 447.507 462.765 447.235Z" fill="#FFC800"/>
<path d="M467.299 449.153H467.178C466.03 448.534 463.793 446.057 464.02 444.879C464.095 444.471 464.458 444.184 464.881 444.184C465.289 444.124 465.697 444.26 466 444.531C467.299 445.589 467.571 448.806 467.586 448.957C467.586 449.047 467.541 449.138 467.465 449.198C467.39 449.198 467.329 449.183 467.299 449.153ZM465.047 444.622H464.927C464.579 444.622 464.564 444.818 464.549 444.894C464.413 445.619 465.833 447.492 466.982 448.352C466.906 447.084 466.438 445.86 465.652 444.849C465.471 444.698 465.259 444.622 465.047 444.622Z" fill="#FFC800"/>
<path d="M532.264 447.597H543.009C543.462 447.597 543.87 447.914 543.961 448.368L546.167 458.335C546.348 459.226 545.789 460.102 544.897 460.299C544.777 460.329 544.656 460.329 544.535 460.329C540.137 460.253 539.775 459.982 534.259 459.982C530.859 459.982 520.583 460.344 515.883 460.344C511.183 460.344 510.564 455.707 512.498 455.269C521.127 453.397 527.625 450.784 530.39 448.307C530.889 447.839 531.569 447.582 532.264 447.597Z" fill="#263238"/>
<path d="M528.562 449.561C527.806 449.621 527.036 449.425 526.416 448.987C525.993 448.64 525.781 448.096 525.857 447.567C525.842 447.25 526.023 446.963 526.31 446.827C527.549 446.193 531.161 448.413 531.569 448.67C531.66 448.715 531.72 448.821 531.69 448.927C531.675 449.032 531.599 449.123 531.494 449.153C530.526 449.395 529.544 449.531 528.562 449.561ZM526.884 447.235C526.764 447.22 526.643 447.25 526.537 447.311C526.461 447.311 526.386 447.416 526.371 447.628C526.325 447.99 526.461 448.338 526.733 448.579C527.988 449.153 529.408 449.214 530.723 448.776C529.559 448.02 528.26 447.507 526.884 447.235Z" fill="#FFC800"/>
<path d="M531.418 449.153H531.297C530.149 448.534 527.912 446.057 528.139 444.879C528.215 444.471 528.577 444.184 529 444.184C529.408 444.124 529.816 444.26 530.119 444.531C531.418 445.589 531.69 448.806 531.705 448.957C531.705 449.047 531.66 449.138 531.585 449.198C531.509 449.198 531.464 449.183 531.418 449.153ZM529.167 444.622H529.046C528.698 444.622 528.683 444.818 528.668 444.894C528.532 445.619 529.952 447.492 531.101 448.352C531.025 447.084 530.557 445.86 529.771 444.849C529.605 444.698 529.393 444.622 529.167 444.622Z" fill="#FFC800"/>
<path d="M453.351 204.732C453.351 204.732 444.556 151.193 459.668 127.195C459.668 127.195 489.846 125.322 511.078 137.57C511.078 137.57 502.298 161.402 500.998 204.732H453.351Z" fill="#263238"/>
<path opacity="0.2" d="M450.585 163.758C449.935 156.494 452.036 149.501 452.398 143.339C457.944 138.718 462.327 132.027 462.327 132.027C462.327 132.027 465.092 153.715 450.585 163.758Z" fill="black"/>
<path d="M463.4 127.089C463.4 127.089 433.494 123.585 428.99 121.697C426.18 120.519 404.192 106.157 404.192 106.157L399.039 113.829C399.039 113.829 421.525 131.982 425.333 134.066C434.249 138.96 454.287 145.862 454.287 145.862C454.287 145.862 466.407 137.465 463.4 127.089Z" fill="#263238"/>
<path d="M507.314 81.66C507.314 81.66 517.575 72.9457 527.761 78.428C537.946 83.9103 526.083 105.039 529.06 111.518C532.037 117.997 538.49 117.514 530.345 121.773C522.199 126.032 530.088 129.566 530.088 129.566C530.088 129.566 522.804 132.042 522.199 126.032C521.595 120.021 518.966 115.067 516.608 114.04C514.251 113.013 520.613 101.626 518.406 95.9924C516.2 90.3591 509.808 90.8424 509.808 90.8424L507.314 81.66Z" fill="#263238"/>
<path d="M491.055 77.6579C491.055 77.6579 478.119 69.5478 472.029 75.317C462.63 84.2125 476.034 96.9893 490.224 103.045L491.055 77.6579Z" fill="#263238"/>
<path d="M216.733 241.356L110.739 123.404C114.502 115.113 113.762 105.1 108.17 97.4578C101.975 88.9852 91.8952 85.5267 82.526 87.2635C81.1206 87.5202 80.5312 89.1966 81.4833 90.2538L95.386 105.719C95.93 106.323 96.1113 107.169 95.8545 107.939L92.8472 117.167C92.5903 117.937 91.9556 118.511 91.1547 118.692L81.6646 120.701C80.8637 120.867 80.0477 120.595 79.5036 119.991L65.6009 104.526C64.6489 103.469 62.911 103.876 62.503 105.251C60.0096 113.587 61.7776 122.966 68.0188 129.913C75.1212 137.812 85.9714 140.289 95.4313 137.132L201.425 255.084C197.662 263.375 198.402 273.389 203.994 281.03C210.189 289.503 220.269 292.962 229.638 291.225C231.043 290.968 231.633 289.292 230.681 288.234L216.778 272.769C216.234 272.165 216.053 271.319 216.31 270.549L219.317 261.322C219.574 260.551 220.208 259.977 221.009 259.796L230.499 257.788C231.3 257.621 232.116 257.893 232.66 258.497L246.563 273.962C247.515 275.02 249.253 274.612 249.661 273.238C252.154 264.901 250.386 255.522 244.145 248.575C237.058 240.691 226.208 238.214 216.733 241.356Z" fill="#FFC800"/>
<path opacity="0.7" d="M216.733 241.356L110.739 123.404C114.502 115.113 113.762 105.1 108.17 97.4578C101.975 88.9852 91.8952 85.5267 82.526 87.2635C81.1206 87.5202 80.5312 89.1966 81.4833 90.2538L95.386 105.719C95.93 106.323 96.1113 107.169 95.8545 107.939L92.8472 117.167C92.5903 117.937 91.9556 118.511 91.1547 118.692L81.6646 120.701C80.8637 120.867 80.0477 120.595 79.5036 119.991L65.6009 104.526C64.6489 103.469 62.911 103.876 62.503 105.251C60.0096 113.587 61.7776 122.966 68.0188 129.913C75.1212 137.812 85.9714 140.289 95.4313 137.132L201.425 255.084C197.662 263.375 198.402 273.389 203.994 281.03C210.189 289.503 220.269 292.962 229.638 291.225C231.043 290.968 231.633 289.292 230.681 288.234L216.778 272.769C216.234 272.165 216.053 271.319 216.31 270.549L219.317 261.322C219.574 260.551 220.208 259.977 221.009 259.796L230.499 257.788C231.3 257.621 232.116 257.893 232.66 258.497L246.563 273.962C247.515 275.02 249.253 274.612 249.661 273.238C252.154 264.901 250.386 255.522 244.145 248.575C237.058 240.691 226.208 238.214 216.733 241.356Z" fill="white"/>
<path d="M96.9731 102.366C96.9731 102.366 65.5106 106.489 61.4305 112.107C57.3503 117.711 57.1237 122.921 75.7261 128.252L81.1663 124.295C81.1663 124.295 73.4443 121.35 74.3661 119.538C75.2728 117.726 96.9731 118.405 96.9731 118.405V102.366Z" fill="#E4897B"/>
<path d="M108.805 101.958L104.423 117.242L97.0635 118.36L81.6496 120.701L81.1963 114.539L80.3047 102.366C80.3047 102.366 95.4466 99.3154 108.805 101.958Z" fill="#FFC800"/>
<path opacity="0.2" d="M101.037 108.422L97.0626 118.36L81.6487 120.701L81.1953 114.539C89.0232 108.453 101.037 108.422 101.037 108.422Z" fill="black"/>
<path d="M98 449.078L110.256 450.361L110.875 443.263L112.553 423.947L100.297 422.648L98.4382 443.988L98 449.078Z" fill="#E4897B"/>
<path d="M36.8281 447.522H48.7059L48.8117 444.834L48.8268 444.502L49.4312 427.285L49.4464 426.937L49.6881 420.337H37.7953L36.8281 447.522Z" fill="#E4897B"/>
<path opacity="0.2" d="M100.296 422.648L98.4375 443.988L110.874 443.263L112.552 423.947L100.296 422.648Z" fill="black"/>
<path opacity="0.2" d="M36.9043 446.012H36.9194L48.8123 444.502H48.8274L49.447 427.889H49.4319L37.5239 428.84L36.9194 445.498L36.9043 446.012Z" fill="black"/>
<path d="M50.3528 446.812H35.9211C35.4376 446.812 35.0144 447.159 34.9087 447.628L32.5664 458.2C32.3699 459.151 32.9744 460.072 33.9113 460.269C34.0322 460.299 34.1682 460.314 34.3042 460.314C38.9737 460.238 42.3738 459.951 48.2371 459.951C51.8488 459.951 62.7443 460.329 67.7312 460.329C72.718 460.329 73.3678 455.406 71.3278 454.952C62.1701 452.959 55.2792 450.195 52.3475 447.567C51.8035 447.069 51.0932 446.797 50.3528 446.812Z" fill="#263238"/>
<path d="M111.556 446.435H97.1243C96.6407 446.435 96.2176 446.782 96.1118 447.25L93.7695 457.822C93.573 458.774 94.1775 459.695 95.1144 459.891C95.2353 459.921 95.3713 459.936 95.5073 459.936C100.177 459.861 103.577 459.574 109.44 459.574C113.052 459.574 123.947 459.952 128.934 459.952C133.921 459.952 134.571 455.028 132.531 454.575C123.373 452.581 116.482 449.818 113.551 447.19C113.007 446.691 112.296 446.42 111.556 446.435Z" fill="#263238"/>
<path d="M113.685 441.481H96.2611C96.2611 441.481 91.2591 290.938 72.4149 240.314C74.727 334.448 52.5279 442.991 52.5279 442.991H35.3158C35.3158 442.991 43.1889 358.009 43.1889 320.841C43.1889 254.978 25.1154 222.81 42.7205 180.205H105.766C121.18 273.162 127.134 338.783 113.685 441.481Z" fill="#263238"/>
<path d="M115.635 436.573L114.789 441.481H94.1914V436.95L115.635 436.573Z" fill="#FFC800"/>
<path d="M54.5087 438.46L52.529 442.991H35.2564L34.123 438.46H54.5087Z" fill="#FFC800"/>
<path d="M160.049 107.486C159.581 107.863 159.112 108.211 158.644 108.528C155.773 110.461 152.478 111.352 149.26 111.322C148.413 111.322 147.567 111.246 146.736 111.11C142.354 110.401 138.364 107.909 136.052 103.906C135.1 102.29 134.42 100.388 134.133 98.2581C132.924 89.8912 137.185 84.4089 143.638 74.5771C144.998 72.4325 146.827 70.6353 149.003 69.3516C156.634 64.7906 166.517 67.2825 171.066 74.8943C177.533 85.5416 168.406 100.508 160.049 107.486Z" fill="#E4897B"/>
<path opacity="0.2" d="M149.258 111.322C148.412 111.322 147.566 111.246 146.735 111.11C142.352 110.4 138.363 107.908 136.051 103.906C138.061 102.577 140.116 101.958 140.116 101.958C140.116 101.958 146.402 105.265 149.258 111.322Z" fill="black"/>
<path d="M121.182 109.494C122.708 117.166 135.251 124.038 135.251 124.038C135.251 124.038 143.804 127.361 143.955 124.038C140.283 120.247 139.693 116.789 140.721 113.663C141.31 111.85 142.459 110.159 143.834 108.573C144.544 107.727 145.345 106.927 146.161 106.157L139.799 85.2998C136.565 93.5459 129.433 107.878 121.182 109.494Z" fill="#E4897B"/>
<path d="M176.324 76.3441C175.04 69.1703 171.413 68.8532 171.413 68.8532C171.065 63.1444 157.586 57.3752 148.775 59.2177C139.965 61.0753 133.936 68.8683 131.533 76.0269C128.012 86.4478 130.143 99.4059 130.143 99.4059C137.275 104.843 144.71 105.84 146.977 101.807C149.244 97.7748 154.82 96.4004 154.82 96.4004C158.22 99.3454 163.6 96.4306 163.6 96.4306C163.6 96.4306 169.69 94.3314 170.748 88.3809C171.775 82.4154 177.397 82.3852 176.324 76.3441Z" fill="#263238"/>
<path d="M154.533 93.0176C153.581 95.4944 153.581 97.8354 154.563 99.542C155.877 101.777 159.157 100.01 160.97 96.9745C162.572 94.2711 163.887 89.7554 161.484 88.6982C159.081 87.626 155.741 89.982 154.533 93.0176Z" fill="#E4897B"/>
<path d="M156.074 59.1573C169.327 55.2004 179.996 76.9482 179.467 88.4716C179.044 97.8352 169.206 96.7025 169.206 96.7025C169.206 96.7025 174.631 96.34 174.118 89.7704C174.118 89.7704 171.76 97.8201 166.486 92.5342C161.212 87.2483 167.453 74.6526 167.453 74.6526L156.074 59.1573Z" fill="#263238"/>
<path opacity="0.2" d="M70.9655 301.857C68.6383 278.372 64.3012 258.392 64.3012 258.392C46.4544 235.979 56.2014 215.289 56.2014 215.289C58.589 229.681 72.4162 240.314 72.4162 240.314C72.9149 260.566 72.2802 281.483 70.9655 301.857Z" fill="black"/>
<path d="M121.166 106.051C121.166 106.051 125.004 103.211 132.077 107.395C139.149 111.578 141.476 119.583 141.476 119.583L121.166 106.051Z" fill="#FFC800"/>
<path d="M112.553 209.927C112.553 209.927 112.553 173.182 150.997 128.705C150.997 128.705 133.74 104.616 108.805 101.958C108.805 101.958 62.7753 117.755 37.7051 185.007L112.553 209.927Z" fill="#FFC800"/>
<path opacity="0.6" d="M150.997 128.705C146.932 133.417 143.29 138.038 140.041 142.539C133.619 151.434 128.692 159.862 124.93 167.534C112.568 192.695 112.568 209.927 112.568 209.927L37.7051 185.007C62.7753 117.74 108.805 101.958 108.805 101.958C133.74 104.631 150.997 128.705 150.997 128.705Z" fill="white"/>
<path d="M113.021 204.656C112.855 205.894 112.749 206.921 112.688 207.737L38.7168 182.349C39.0795 181.398 39.4573 180.461 39.8351 179.54L113.021 204.656Z" fill="#FFC800"/>
<path d="M114.32 197.18C114.094 198.253 113.882 199.249 113.716 200.186C88.0863 190.293 58.9057 179.253 42.3887 173.545C42.7967 172.608 43.2198 171.702 43.6429 170.796C62.0641 177.139 93.9497 189.312 114.32 197.18Z" fill="#FFC800"/>
<path d="M116.269 189.598C115.967 190.61 115.695 191.592 115.438 192.528C95.0977 183.739 64.4361 170.826 46.5137 164.906C46.9821 163.984 47.4506 163.093 47.9191 162.202C66.1739 168.273 96.1555 180.884 116.269 189.598Z" fill="#FFC800"/>
<path d="M118.793 181.851C118.445 182.848 118.097 183.814 117.78 184.751C97.9234 175.176 69.4379 162.082 51.1074 156.494C51.6212 155.587 52.1501 154.696 52.679 153.835C71.3268 159.605 99.1927 172.397 118.793 181.851Z" fill="#FFC800"/>
<path d="M121.921 174.043C121.498 174.994 121.105 175.931 120.743 176.867C101.747 166.718 75.3774 153.669 56.1855 148.308C56.7749 147.417 57.3794 146.526 57.9838 145.665C77.4325 151.268 103.213 164.015 121.921 174.043Z" fill="#FFC800"/>
<path d="M125.61 166.144C125.141 167.08 124.688 168.017 124.25 168.938C106.388 158.411 82.088 145.589 61.8535 140.333C62.5184 139.442 63.1833 138.582 63.8634 137.721C84.249 143.248 108.02 155.768 125.61 166.144Z" fill="#FFC800"/>
<path d="M129.855 158.26C129.326 159.182 128.827 160.088 128.329 160.979C111.751 150.286 89.3707 137.842 68.1992 132.525C68.9548 131.65 69.7104 130.804 70.4962 129.973C91.6827 135.546 113.549 147.704 129.855 158.26Z" fill="#FFC800"/>
<path d="M134.57 150.543C134.011 151.389 133.482 152.235 132.953 153.08C117.72 142.373 97.1382 130.396 75.332 124.944C76.1934 124.098 77.0397 123.283 77.8859 122.498C99.3898 128.237 119.549 140.002 134.57 150.543Z" fill="#FFC800"/>
<path d="M139.829 142.825C139.24 143.656 138.665 144.472 138.091 145.272C124.264 134.715 105.405 123.268 83.4473 117.589C84.4446 116.773 85.4118 115.988 86.3638 115.248C107.807 121.214 126.213 132.435 139.829 142.825Z" fill="#FFC800"/>
<path d="M145.587 135.229C144.953 136.03 144.333 136.815 143.729 137.615C131.337 127.376 114.231 116.517 92.7871 110.582C93.9507 109.796 95.069 109.086 96.1419 108.422C116.83 114.599 133.407 125.201 145.587 135.229Z" fill="#FFC800"/>
<path d="M150.996 128.705C150.588 129.173 150.195 129.641 149.802 130.109C138.952 120.428 123.825 110.34 103.832 104.133C105.691 103.211 107.096 102.622 107.927 102.29C123.931 107.712 136.745 115.55 146.689 123.539C146.689 123.539 146.704 123.539 146.704 123.555C149.484 126.59 150.996 128.705 150.996 128.705Z" fill="#FFC800"/>
<path opacity="0.2" d="M140.042 142.539C133.619 151.434 128.693 159.861 124.93 167.534C124.446 148.172 138.893 137.615 138.893 137.615L140.042 142.539Z" fill="black"/>
<path d="M150.997 140.077V186.624L169.025 219.049L176.445 227.31C176.445 227.31 167.771 232.656 165.383 229.228C162.995 225.785 160.608 219.049 160.608 219.049C160.608 219.049 142.685 194.99 139.89 189.251C137.079 183.497 136.066 148.761 136.066 148.761L150.997 140.077Z" fill="#E4897B"/>
<path d="M150.997 128.72C153.838 136.574 153.808 163.335 153.808 163.335L133.679 165.103L132.062 154.531C132.062 154.531 132.214 144.956 138.984 135.486C143.608 129.037 150.997 128.72 150.997 128.72Z" fill="#FFC800"/>
</g>
<defs>
<clipPath id="clip0_345_8216">
<rect width="586" height="473" fill="white"/>
</clipPath>
</defs>
</svg>
