<svg width="54" height="83" viewBox="0 0 54 83" fill="none" xmlns="http://www.w3.org/2000/svg">
<path d="M3.42289 82.9771C3.29399 82.8936 3.17076 82.8013 3.03618 82.7284C1.98468 82.1581 1.46662 81.0986 1.72118 80.0326C1.99601 78.8816 2.8935 78.1372 4.11686 78.1242C6.22391 78.1023 8.33095 78.1169 10.4388 78.1145C10.5726 78.1145 10.7063 78.0959 10.909 78.0813C11.3833 76.0716 11.8616 74.0563 12.3342 72.0393C15.9306 56.7169 19.5204 41.3928 23.1394 26.076C23.3024 25.385 23.1743 25.0537 22.5825 24.6576C20.049 22.9606 18.8102 19.6898 19.5147 16.7729C20.2565 13.6988 22.8427 11.3084 25.8391 10.9261C29.073 10.513 32.0905 12.0148 33.6001 14.7883C35.5385 18.3516 34.4991 22.554 31.0844 24.8164C30.6555 25.1007 30.6037 25.3769 30.7074 25.8168C34.671 42.6588 38.6281 59.5017 42.5876 76.3446C42.723 76.9197 42.8633 77.4932 43.0149 78.1194C45.3051 78.1194 47.5719 78.1023 49.8379 78.1266C51.0126 78.1388 51.9498 78.9124 52.1987 79.9848C52.4524 81.08 51.9457 82.1549 50.921 82.7033C50.7596 82.7892 50.604 82.8855 50.4459 82.9763C34.7707 82.9771 19.0964 82.9771 3.42289 82.9771ZM37.9893 78.0772C37.1494 74.5018 36.3184 70.9644 35.4671 67.3412C29.4014 70.9271 23.454 74.4426 17.3055 78.0772C24.3377 78.0772 31.1225 78.0772 37.9893 78.0772ZM20.9132 56.7727C19.6866 62.0071 18.49 67.1152 17.2934 72.2224C17.3574 72.254 17.4206 72.2847 17.4847 72.3163C22.3871 69.4197 27.2887 66.523 32.3013 63.5616C28.4634 61.2741 24.7617 59.0675 20.9132 56.7727ZM22.9676 48.0471C25.3049 46.6766 27.4905 45.4081 29.6527 44.0983C29.8092 44.0035 29.8789 43.5928 29.8303 43.362C29.5352 41.9663 29.1963 40.5811 28.8688 39.1919C28.2607 36.6112 27.6502 34.0305 27.0406 31.4497C26.983 31.4457 26.9255 31.4416 26.8679 31.4376C25.5805 36.9174 24.2939 42.3972 22.9676 48.0471ZM24.1082 53.0191C27.2603 54.8951 30.2494 56.6739 33.4071 58.5532C32.6224 55.2183 31.8878 52.0948 31.1347 48.8977C28.7674 50.286 26.5023 51.6153 24.1082 53.0191ZM29.6989 18.4334C29.6924 16.9195 28.4942 15.7231 26.9741 15.7141C25.4273 15.7052 24.1763 16.9421 24.1885 18.4682C24.2007 19.949 25.4443 21.1948 26.9279 21.2134C28.4407 21.2328 29.7054 19.9635 29.6989 18.4334Z" fill="#595959"/>
<path d="M54 18.4153C53.8298 24.7165 51.8459 30.3259 47.9724 35.2703C47.0433 36.4554 45.6229 36.6498 44.4644 35.7831C43.434 35.0119 43.2167 33.5255 44.0818 32.3891C45.8621 30.0489 47.3068 27.5386 48.0972 24.697C50.0567 17.649 48.8755 11.1526 44.5901 5.2216C44.3217 4.8506 44.021 4.5023 43.7437 4.13698C42.7976 2.8863 42.9192 1.40152 44.0331 0.547749C45.1746 -0.327079 46.5617 -0.0800144 47.5873 1.16176C50.5107 4.69995 52.4888 8.69986 53.3433 13.2117C53.6676 14.9265 53.7868 16.6802 54 18.4153Z" fill="#595959"/>
<path d="M8.05283 0C9.37997 0.094773 10.1258 0.51679 10.5596 1.39081C11.0103 2.29804 10.8603 3.15099 10.2944 3.97965C9.27781 5.46767 8.10472 6.88604 7.32644 8.49394C3.51446 16.3706 4.14276 23.9768 9.00055 31.2435C9.28511 31.6688 9.61995 32.0616 9.9037 32.4877C10.6577 33.6209 10.4379 35.0749 9.41644 35.8056C8.27901 36.6197 6.89837 36.4649 6.01793 35.3682C4.00898 32.8644 2.46946 30.0973 1.4585 27.0468C-0.779068 20.2928 -0.461276 13.6352 2.54485 7.20923C3.58337 4.98895 5.11722 2.98818 6.5384 0.966356C6.90809 0.439839 7.70341 0.213037 8.05283 0Z" fill="#595959"/>
<path d="M44.2488 18.1385C44.2512 22.0185 43.1519 25.564 40.8429 28.715C39.9803 29.892 38.5883 30.1196 37.4112 29.325C36.3443 28.6049 36.0573 27.1144 36.8672 25.9528C38.1903 24.0549 39.0448 21.9926 39.288 19.6913C39.6228 16.5185 38.7829 13.6591 36.9337 11.0791C36.7764 10.8596 36.607 10.649 36.4602 10.423C35.7144 9.27439 35.9422 7.88602 36.9985 7.10758C38.05 6.3332 39.4899 6.49116 40.3395 7.53852C42.4644 10.159 43.7307 13.1512 44.1158 16.5071C44.1774 17.0434 44.2042 17.5828 44.2488 18.1385Z" fill="#595959"/>
<path d="M9.59564 18.5106C9.70185 14.5034 10.9398 10.9296 13.3833 7.76968C14.3391 6.53358 15.8089 6.26547 16.9318 7.12328C18.0368 7.96652 18.224 9.42537 17.2933 10.6412C15.2884 13.26 14.3294 16.1859 14.6026 19.4794C14.7891 21.7264 15.5998 23.7523 16.8158 25.6534C17.1969 26.2488 17.4677 27.0459 17.4417 27.7384C17.4036 28.7591 16.6837 29.429 15.6679 29.693C14.6018 29.9709 13.7424 29.6039 13.1028 28.755C11.6046 26.7664 10.5831 24.5461 10.0894 22.1088C9.85019 20.9237 9.75616 19.7103 9.59564 18.5106Z" fill="#595959"/>
</svg>
