<svg width="6" height="5" viewBox="0 0 6 5" fill="none" xmlns="http://www.w3.org/2000/svg">
<g clip-path="url(#clip0_477_296)">
<path d="M2.22224 3.61022C2.24663 3.56882 2.26351 3.52925 2.28883 3.49957C3.21979 2.40657 4.15138 1.31431 5.0836 0.222417C5.2868 -0.0157481 5.52282 -0.064114 5.74134 0.0839147C6.01957 0.272248 6.0849 0.699113 5.87951 0.988575C5.85419 1.02448 5.82606 1.05783 5.79792 1.0908C4.74285 2.319 3.68746 3.54683 2.63177 4.77467C2.38011 5.06743 2.11001 5.07475 1.84992 4.79702C1.30034 4.2104 0.751394 3.62268 0.200568 3.03716C0.0367581 2.86312 -0.036081 2.65426 0.0167508 2.39925C0.0992809 2.00096 0.521622 1.82618 0.794534 2.0922C1.08745 2.37799 1.36224 2.68981 1.64453 2.99099C1.83085 3.18959 2.01592 3.38891 2.22224 3.61022Z" fill="white"/>
</g>
<defs>
<clipPath id="clip0_477_296">
<rect width="6" height="5" fill="white"/>
</clipPath>
</defs>
</svg>
