<svg width="88" height="88" viewBox="0 0 88 88" fill="none" xmlns="http://www.w3.org/2000/svg">
<path d="M0 0C29.3333 0 58.6667 0 88 0C88 29.3333 88 58.6667 88 88C58.6667 88 29.3333 88 0 88C0 58.6667 0 29.3333 0 0ZM60.736 68.6102C61.1692 68.6102 61.506 68.6102 61.8429 68.6102C68.1312 68.6102 74.4196 68.6148 80.7079 68.6079C84.7848 68.6033 87.2644 66.1077 87.269 62.0148C87.2735 58.3206 87.269 54.6265 87.269 50.9323C87.269 37.3565 87.2735 23.7806 87.2667 10.2048C87.2644 6.27687 84.7527 3.72854 80.8454 3.72854C56.3773 3.71938 31.9092 3.71938 7.44104 3.72854C3.51771 3.73083 1.01979 6.26083 1.01979 10.1842C1.0175 27.5115 1.0175 44.8387 1.02208 62.166C1.02208 62.6519 1.02667 63.1446 1.11604 63.619C1.68896 66.644 4.08146 68.5942 7.28521 68.6033C13.8302 68.6217 20.3775 68.6102 26.9225 68.6102C27.2571 68.6102 27.5894 68.6102 27.9606 68.6102C27.9606 70.9981 27.9606 73.276 27.9606 75.6479C26.4092 75.6479 24.9012 75.6456 23.3956 75.6479C22.0779 75.6525 20.916 76.0696 20.0131 77.0504C18.7275 78.446 18.4044 80.0869 19.1285 81.824C19.8825 83.6344 21.3331 84.5602 23.3017 84.5625C32.764 84.5717 42.224 84.5671 51.6862 84.5671C56.1733 84.5671 60.6627 84.5854 65.1498 84.5556C67.3865 84.5419 69.245 82.7727 69.4558 80.5544C69.6712 78.2856 68.1588 76.1956 65.9175 75.7831C65.1108 75.6342 64.2698 75.6685 63.4448 75.6502C62.5442 75.6296 61.6412 75.6456 60.7337 75.6456C60.736 73.2508 60.736 70.9935 60.736 68.6102Z" fill="white"/>
<path d="M60.736 68.6102C60.736 70.9936 60.736 73.2509 60.736 75.6479C61.6458 75.6479 62.5465 75.6319 63.4471 75.6525C64.2721 75.6708 65.1154 75.6388 65.9198 75.7854C68.161 76.1979 69.6735 78.2879 69.4581 80.5567C69.2473 82.775 67.3887 84.5442 65.1521 84.5579C60.665 84.5854 56.1756 84.5694 51.6885 84.5694C42.2263 84.5694 32.7663 84.574 23.304 84.5648C21.3354 84.5625 19.8848 83.6367 19.1308 81.8263C18.4067 80.0869 18.7298 78.4484 20.0154 77.0527C20.9183 76.0719 22.0802 75.6548 23.3979 75.6502C24.9035 75.6456 26.4115 75.6502 27.9629 75.6502C27.9629 73.2783 27.9629 71.0004 27.9629 68.6125C27.5917 68.6125 27.2571 68.6125 26.9248 68.6125C20.3798 68.6125 13.8325 68.6263 7.2875 68.6056C4.08375 68.5965 1.69125 66.6463 1.11833 63.6213C1.02895 63.1469 1.02437 62.6542 1.02437 62.1683C1.0175 44.8388 1.0175 27.5115 1.01979 10.1842C1.01979 6.26085 3.5177 3.73085 7.44333 3.72855C31.9115 3.71939 56.3796 3.71939 80.8477 3.72855C84.755 3.73085 87.2667 6.27918 87.269 10.2048C87.2758 23.7806 87.2713 37.3565 87.2713 50.9323C87.2713 54.6265 87.2758 58.3206 87.2713 62.0148C87.2667 66.1077 84.7848 68.6034 80.7102 68.6079C74.4219 68.6148 68.1335 68.6102 61.8452 68.6102C61.506 68.6102 61.1692 68.6102 60.736 68.6102ZM85.2912 52.3165C85.2912 51.959 85.2912 51.7046 85.2912 51.4502C85.2912 37.675 85.2935 23.8975 85.289 10.1223C85.289 7.30585 83.6252 5.67418 80.7835 5.67189C56.3727 5.6673 31.9619 5.66272 7.55104 5.65814C4.57416 5.65814 2.94937 7.29439 2.94937 10.2896C2.94708 23.98 2.94708 37.6704 2.94937 51.3608C2.94937 51.6656 2.97458 51.9704 2.99062 52.3165C30.4356 52.3165 57.8073 52.3165 85.2912 52.3165ZM2.98833 54.3515C2.97458 54.6723 2.94937 54.9519 2.94937 55.2315C2.94708 57.4658 2.94708 59.6979 2.94708 61.9323C2.94937 65.0238 4.57187 66.6554 7.64729 66.6554C15.1915 66.6577 22.7356 66.6554 30.2798 66.6554C46.9975 66.6554 63.7152 66.6554 80.4352 66.6554C80.7492 66.6554 81.0654 66.6669 81.3771 66.6463C83.5267 66.4996 85.2179 64.884 85.2638 62.8009C85.3233 60.0829 85.2821 57.3604 85.2798 54.6402C85.2798 54.5394 85.2179 54.4363 85.1904 54.3515C57.7775 54.3515 30.4104 54.3515 2.98833 54.3515ZM44.1535 77.644C39.5542 77.644 34.9525 77.644 30.3531 77.644C27.9812 77.644 25.6117 77.6188 23.2398 77.6623C21.631 77.6921 20.5608 78.964 20.7602 80.4971C20.9252 81.7759 21.9817 82.6444 23.4369 82.6444C37.2373 82.649 51.0377 82.6467 64.8404 82.6467C65.0398 82.6467 65.2415 82.6375 65.4363 82.6009C66.6256 82.3671 67.4827 81.3817 67.5285 80.2084C67.5721 79.1198 66.8135 78.0358 65.741 77.7631C65.2804 77.6463 64.7785 77.6508 64.2973 77.6486C57.5827 77.6417 50.8681 77.644 44.1535 77.644ZM58.6873 68.6652C49.115 68.6652 39.5908 68.6652 30.0644 68.6652C30.0644 71.0188 30.0644 73.315 30.0644 75.5929C39.6435 75.5929 49.1471 75.5929 58.6873 75.5929C58.6873 73.2669 58.6873 70.9913 58.6873 68.6652Z" fill="#FF7C5A"/>
<path d="M26.7667 27.1586C26.7667 28.8475 26.7804 30.5388 26.7644 32.2277C26.7346 35.3696 24.2069 37.7988 20.9985 37.7896C17.804 37.7782 15.2831 35.3284 15.2671 32.1842C15.2488 28.6894 15.2717 25.1969 15.2556 21.7021C15.2533 20.9917 15.4046 20.4211 16.2158 20.3477C16.8392 20.2905 17.1921 20.7854 17.1944 21.67C17.199 25.1075 17.1829 28.5427 17.2012 31.9802C17.2173 34.9227 20.1346 36.7125 22.7746 35.4109C24.1656 34.7234 24.8371 33.573 24.8371 32.0238C24.8371 28.7009 24.8371 25.3802 24.8371 22.0573C24.8371 21.8282 24.8394 21.599 24.8417 21.3698C24.8463 20.7488 25.1808 20.3707 25.7744 20.3615C26.416 20.3523 26.7621 20.7511 26.7644 21.4042C26.7667 23.32 26.7644 25.2405 26.7667 27.1586Z" fill="#FF7C5A"/>
<path d="M66.7517 27.1427C66.7517 28.8317 66.7677 30.5229 66.7471 32.2119C66.7104 35.3721 64.201 37.7944 60.9996 37.7875C57.8027 37.7806 55.2704 35.3377 55.2498 32.1935C55.2269 28.6437 55.2475 25.0917 55.2429 21.5396C55.2429 20.9644 55.4194 20.4533 56.0289 20.4029C56.3567 20.3754 56.8219 20.5862 57.0212 20.8452C57.2137 21.0973 57.1885 21.551 57.1885 21.9154C57.2 25.2658 57.1794 28.6162 57.2 31.9667C57.2183 34.7533 59.7529 36.5156 62.3608 35.5829C63.8894 35.0375 64.8106 33.7679 64.8175 32.1179C64.8312 28.7675 64.8221 25.4171 64.8221 22.0667C64.8221 21.8375 64.8244 21.6083 64.8244 21.3792C64.8267 20.7604 65.1521 20.3731 65.7456 20.3571C66.3827 20.3387 66.7425 20.7237 66.7425 21.386C66.7448 23.3042 66.7425 25.2246 66.7425 27.1427C66.7494 27.1427 66.7494 27.1427 66.7517 27.1427Z" fill="#FF7C5A"/>
<path d="M34.6431 31.0748C33.9969 32.2711 33.4446 33.2977 32.8923 34.3244C32.4454 35.154 32.0008 35.9858 31.5517 36.8154C31.0635 37.7161 30.541 38.0048 29.9727 37.6358C29.2233 37.1477 29.4708 36.5404 29.81 35.9171C30.8183 34.0586 31.7465 32.1542 32.8396 30.3461C33.4354 29.3606 33.4056 28.6044 32.8258 27.6327C31.7281 25.7948 30.7702 23.8744 29.7596 21.9838C29.3448 21.2069 29.4227 20.5996 29.9979 20.3521C30.7404 20.0336 31.1621 20.4392 31.4944 21.0694C32.505 22.9783 33.5385 24.8736 34.6408 26.9246C34.941 26.37 35.1679 25.9529 35.3925 25.5336C36.1235 24.1746 36.8546 22.8156 37.5856 21.4567C38.1952 20.3269 38.649 20.0244 39.2769 20.3361C39.9163 20.6523 39.9323 21.2183 39.3273 22.3458C38.2754 24.3098 37.2442 26.2875 36.151 28.2286C35.8256 28.8061 35.8508 29.2346 36.1648 29.7983C37.306 31.8425 38.3969 33.9188 39.4992 35.9858C39.9506 36.8315 39.8704 37.3883 39.2425 37.6656C38.4588 38.0117 38.0921 37.4983 37.7735 36.9048C36.7652 35.0188 35.7523 33.1373 34.6431 31.0748Z" fill="#FF7C5A"/>
<path d="M53.1575 16.4589C53.0337 16.8553 52.9673 17.1028 52.8779 17.3435C49.9125 25.3597 46.9425 33.3737 43.9748 41.3899C43.9542 41.4426 43.9381 41.4976 43.9175 41.5526C43.7044 42.1576 43.3285 42.5953 42.6433 42.3707C41.9077 42.1301 41.8642 41.5366 42.1025 40.8926C42.8725 38.8003 43.6517 36.7103 44.4217 34.618C46.6079 28.6918 48.7942 22.7632 50.9804 16.837C51.0789 16.5689 51.1317 16.2068 51.331 16.0739C51.6473 15.8585 52.0987 15.6476 52.4379 15.7164C52.7312 15.7737 52.9444 16.2228 53.1575 16.4589Z" fill="#FF7C5A"/>
<path d="M73.0217 28.9505C73.0217 31.7234 73.024 34.4963 73.0194 37.2692C73.0194 37.5534 73.0698 37.8994 72.9323 38.1057C72.7306 38.4013 72.3685 38.7909 72.0912 38.7794C71.759 38.7657 71.4015 38.4082 71.1333 38.1263C71.0096 37.9957 71.0485 37.6909 71.0485 37.464C71.044 31.8334 71.044 26.2005 71.0485 20.5698C71.0485 20.3155 71.0142 19.9832 71.154 19.8273C71.3923 19.5569 71.759 19.2315 72.0637 19.2384C72.3662 19.2476 72.7352 19.589 72.9254 19.8823C73.0744 20.1115 73.0194 20.4896 73.0194 20.8013C73.024 23.5192 73.0217 26.2348 73.0217 28.9505Z" fill="#FF7C5A"/>
<path d="M56.7715 60.5139C56.7554 62.2761 55.2727 63.7382 53.5219 63.7199C51.7642 63.6993 50.309 62.212 50.3296 60.4566C50.3502 58.6874 51.8261 57.2345 53.5792 57.2551C55.3392 57.2711 56.7875 58.7516 56.7715 60.5139ZM54.8052 60.5207C54.8258 59.8195 54.2873 59.2534 53.5861 59.2374C52.8688 59.2213 52.3233 59.737 52.305 60.4497C52.2867 61.1624 52.8046 61.7101 53.515 61.7284C54.23 61.7468 54.7846 61.2266 54.8052 60.5207Z" fill="#FF7C5A"/>
<path d="M31.5173 60.523C31.5012 58.7286 32.9015 57.278 34.6775 57.2528C36.4375 57.2276 37.9065 58.6736 37.9225 60.4451C37.9385 62.2257 36.5246 63.6878 34.7577 63.7198C33 63.7496 31.5356 62.3036 31.5173 60.523ZM34.705 59.2373C34.0106 59.2442 33.4629 59.7896 33.4583 60.4771C33.4537 61.1646 33.9946 61.7169 34.689 61.7307C35.4108 61.7444 36.009 61.1578 35.9883 60.4519C35.9654 59.7782 35.3879 59.2305 34.705 59.2373Z" fill="#FF7C5A"/>
<path d="M47.3527 60.5207C47.3367 62.2876 45.8608 63.7428 44.1077 63.7176C42.3363 63.6924 40.9246 62.2326 40.9429 60.4473C40.9613 58.6644 42.4165 57.2276 44.181 57.2528C45.9433 57.2757 47.3665 58.7446 47.3527 60.5207ZM44.1398 59.2373C43.4431 59.2396 42.8954 59.7759 42.8863 60.468C42.8771 61.1578 43.411 61.7123 44.1031 61.7307C44.8273 61.749 45.4254 61.1692 45.4117 60.4634C45.3979 59.7874 44.825 59.2351 44.1398 59.2373Z" fill="#FF7C5A"/>
</svg>
