<svg width="34" height="32" viewBox="0 0 34 32" fill="none" xmlns="http://www.w3.org/2000/svg">
<path d="M33.0116 15.9772C33.0116 20.189 33.0116 24.3549 33.0116 28.5666C33.0116 31.3592 32.4103 32.0001 29.6816 32.0001C21.2178 32.0001 12.7541 32.0001 4.29033 32.0001C1.56158 32.0001 0.960327 31.3592 0.960327 28.6124C0.960327 20.2347 0.960327 11.8571 0.960327 3.47937C0.960327 0.686814 1.56158 0.0458984 4.29033 0.0458984C12.7541 0.0458984 21.2178 0.0458984 29.6816 0.0458984C32.4103 0.0458984 33.0116 0.686814 33.0116 3.4336C33.0116 7.59955 33.0116 11.8113 33.0116 15.9772ZM28.5253 27.3306C28.5253 23.8056 28.7103 20.4179 28.4791 17.0302C28.1553 12.8184 25.7041 11.1246 21.5416 11.8571C20.5241 12.0402 19.5991 12.6353 18.6278 13.0931C18.6741 12.91 18.6741 12.6811 18.7203 12.498C17.0553 12.3149 15.3441 12.1317 13.6328 11.9944C13.6328 17.4422 13.6328 22.3864 13.6328 27.2848C15.3441 27.2848 16.9166 27.2848 18.5816 27.2848C18.5816 26.1861 18.5816 25.2705 18.5816 24.3549C18.6278 22.3864 18.5353 20.3721 18.7203 18.4036C18.8128 16.9844 19.5991 16.023 21.2641 16.023C22.8828 16.023 23.3916 17.0759 23.5303 18.3578C23.6228 19.1818 23.6228 20.0516 23.6228 20.8757C23.6228 22.9815 23.6228 25.0874 23.6228 27.3306C25.3803 27.3306 26.8603 27.3306 28.5253 27.3306ZM10.4878 27.3764C10.4878 22.1575 10.4878 17.2133 10.4878 12.2233C8.82283 12.2233 7.29658 12.2233 5.81658 12.2233C5.81658 17.3964 5.81658 22.3864 5.81658 27.3764C7.43533 27.3764 8.91533 27.3764 10.4878 27.3764ZM7.62033 10.0716C9.74783 10.0716 11.1816 8.74404 11.0428 7.23331C10.9041 5.58524 9.93283 4.57809 8.22158 4.53231C6.60283 4.48653 5.16908 5.85992 5.30783 7.37065C5.44658 9.01872 6.37158 10.0259 7.62033 10.0716Z" fill="white"/>
</svg>
