<svg width="1917" height="968" viewBox="0 0 1917 968" fill="none" xmlns="http://www.w3.org/2000/svg">
<path d="M2274 59.1808V-31H1070.07C1261.28 -28.9153 1686.18 -4.81012 1732.93 78.391C1746.86 103.185 1747.68 121.896 1738.7 136.322C1678.5 232.965 1449.35 238.045 1227.6 323.243C883.114 455.593 984.728 616.3 696.082 698.392C426.871 774.96 220.144 631.42 8.71038 741.38C6.02277 742.78 3.38844 744.204 0.777786 745.641V967.414H2274V543.818C2239.71 507.501 2219.45 479.18 2222.19 439.905C2235.48 249.124 2025.99 269.86 2016.17 164.795C2008.49 82.8007 2163.96 56.5369 2274 59.1808Z" fill="#CFD4D9"/>
<path d="M2274 16.8129V-31H893.568C1076.02 -28.9153 1725.54 -41.6544 1767.63 102.607C1770.64 112.892 1769.89 123.851 1764.61 137.293C1709.43 277.838 1443.13 264.073 1164.48 425.22C935.812 557.459 949.369 670.229 734.247 720.584C596.19 752.898 462.526 744.158 462.526 744.158C307.876 734.044 203.876 685.408 73.953 724.744C40.2395 734.95 15.3051 747.897 0.777786 756.268V967.414C590.963 967.414 2274 967.414 2274 967.414V583.718C2247.97 569.458 2214.8 546.629 2196.11 512.581C2169.93 464.902 2198.62 443.473 2190.41 398.873C2170.49 290.711 1975.14 272.268 1968.12 163.136C1966.32 135.065 1977.87 114.861 1981.42 109.055C2039.1 14.9594 2259.35 16.5772 2274 16.8129Z" fill="#EBEFF2"/>
</svg>
