<svg width="646" height="652" viewBox="0 0 646 652" fill="none" xmlns="http://www.w3.org/2000/svg">
<g clip-path="url(#clip0_362_13361)">
<path d="M552.709 533.938V615.43H634.326V533.938H552.709ZM558.877 609.29V540.098H628.157V609.29H558.877Z" fill="#EBEBEB"/>
<path d="M590.154 391.481H351.368V629.963H590.154V391.481Z" fill="#455A64"/>
<path d="M397.382 629.963H530.23C530.788 624.898 510.441 517.068 486.534 482.421C483.822 478.493 460.598 475.619 452.07 485.418C406.904 537.224 396.306 628.722 397.382 629.963Z" fill="#263238"/>
<path d="M489.701 491.372C493.468 501.13 507.688 535.343 515.43 559.882C520.625 576.358 522.592 590.188 523.73 593.806C523.73 593.806 484.505 581.216 475.667 581.196C462.067 581.154 440.25 609.538 445.591 613.094C454.015 618.676 494.11 637.694 526.152 643.669C543.56 646.915 576.368 624.815 573.781 607.243C570.138 582.581 525.531 517.585 508.558 499.145C499.719 489.574 485.105 479.485 489.701 491.372Z" fill="#EB9481"/>
<path d="M576.161 612.453C575.333 630.211 553.081 645.178 540.186 645.964C517.934 647.307 451.179 627.896 451.179 627.896L477.136 577.971C477.136 577.971 522.571 593.372 523.709 593.806V593.785C523.316 592.462 512.118 550.455 507.109 536.522C506.839 535.757 506.529 534.971 506.239 534.144C504.79 530.279 502.824 525.193 500.65 519.694L500.63 519.653C499.429 516.614 498.146 513.43 496.883 510.288V510.267C491.398 496.665 486.058 483.703 486.058 483.703C493.696 484.964 501.251 488.974 513.649 501.977C526.007 514.939 577.506 583.16 576.161 612.453Z" fill="#263238"/>
<path d="M468.463 617.084C470.306 613.549 472.189 610.034 474.052 606.499C475.874 603.047 477.716 599.595 479.579 596.163C481.504 592.607 483.512 589.052 485.085 585.33C485.105 585.268 485.023 585.206 484.961 585.268C482.622 588.349 480.697 591.739 478.792 595.088C476.805 598.561 474.859 602.055 472.955 605.548C471.071 608.98 469.271 612.453 467.47 615.926C465.628 619.503 463.785 623.224 462.461 627.027C462.398 627.172 462.626 627.338 462.709 627.172C464.862 623.968 466.683 620.495 468.463 617.084Z" fill="#37474F"/>
<path d="M537.599 601.166L523.73 593.827L523.709 593.806V593.785C523.316 592.462 512.118 550.455 507.109 536.522C506.84 535.757 506.529 534.971 506.239 534.144C504.79 530.279 502.824 525.193 500.651 519.694L537.599 601.166Z" fill="#37474F"/>
<path d="M549.086 607.264C545.236 604.391 541.076 601.827 536.895 599.45C534.804 598.272 532.672 597.176 530.478 596.204C528.139 595.171 525.676 594.406 523.357 593.372C523.171 593.289 523.047 593.558 523.233 593.641C525.407 594.612 527.456 595.977 529.547 597.114C531.72 598.292 533.893 599.45 536.108 600.587C540.434 602.799 544.678 605.156 548.983 607.43C549.066 607.492 549.169 607.326 549.086 607.264Z" fill="#37474F"/>
<path d="M538.985 596.494C535.508 596.535 514.478 590.933 511.414 593.806C492.764 611.378 486.865 607.843 482.891 610.117C452.152 627.771 411.106 648.527 396.451 648.672C374.22 648.858 365.382 630.232 369.066 612.618C376.373 577.826 423.339 509.998 444.597 491.972C455.858 482.421 454.968 496.83 450.31 512.459C447.578 521.637 442.796 535.281 437.911 548.657C433.585 560.585 422.139 591.057 421.952 591.759V591.78C421.932 591.821 421.911 591.842 421.911 591.863C421.89 591.945 421.973 591.966 422.159 591.904C423.132 591.718 449.42 579.356 475.853 572.554C485.168 570.156 504.563 566.745 511.518 569.846C515.657 571.686 515.72 574.146 515.72 574.146C515.72 574.146 519.031 573.836 522.53 576.73C524.848 578.632 525.572 581.34 525.572 581.34C525.572 581.34 529.195 581.857 531.078 583.945C533.335 586.447 533.521 589.093 533.521 589.093C538.468 590.457 538.985 596.494 538.985 596.494Z" fill="#EB9481"/>
<path d="M507.916 573.464C505.122 573.505 502.369 573.919 499.616 574.394C499.429 574.436 499.429 574.725 499.636 574.704C502.348 574.415 505.08 574.353 507.792 574.25C510.503 574.167 513.236 574.105 515.947 574.146C515.968 574.146 515.968 574.125 515.947 574.125C513.256 573.671 510.669 573.423 507.916 573.464Z" fill="#263238"/>
<path d="M525.51 581.216C520.687 579.893 516.858 579.17 510.814 579.914C510.628 579.934 510.628 580.224 510.835 580.224C516.568 579.872 520.315 580.451 525.51 581.32C525.572 581.34 525.572 581.237 525.51 581.216Z" fill="#263238"/>
<path d="M533.521 588.989C528.698 587.004 524.972 586.384 519.632 586.384C519.445 586.384 519.383 586.653 519.57 586.674C524.703 587.17 528.47 587.893 533.459 589.196C533.562 589.237 533.624 589.03 533.521 588.989Z" fill="#263238"/>
<path d="M474.59 572.906C472.272 573.216 469.974 573.877 467.718 574.436C465.317 575.035 462.916 575.676 460.556 576.461C455.837 578.012 451.262 579.872 446.729 581.94C446.564 582.022 446.646 582.291 446.833 582.229C451.428 580.617 456.085 579.108 460.743 577.64C463.04 576.916 465.296 576.151 467.573 575.407C469.912 574.642 472.355 574.063 474.652 573.195C474.797 573.133 474.756 572.885 474.59 572.906Z" fill="#263238"/>
<path d="M456.189 577.888C461.053 576.234 463.247 576.234 463.247 576.234L490.901 622.872C490.901 622.872 414.728 650.264 399.08 651.855C383.431 653.468 365.651 641.147 365.34 621.549C364.926 593.992 409.926 527.777 432.571 502.184C442.941 490.442 455.05 481.925 458.134 483.847C461.777 486.121 455.154 500.861 451.676 511.88C445.239 532.201 422.159 591.946 422.159 591.946C422.159 591.946 450.393 579.852 456.189 577.888Z" fill="#263238"/>
<path d="M463.019 576.193C458.735 576.441 440.168 582.891 431.081 586.798C422.014 590.685 413.3 595.295 405.103 600.814C400.467 603.936 396.078 607.326 391.732 610.841C391.587 610.965 391.752 611.192 391.897 611.089C399.887 605.383 408.436 600.277 417.088 595.605C425.699 590.953 434.455 586.55 443.583 582.994C448.778 580.968 457.7 577.95 462.792 576.606C464.22 576.255 463.144 576.172 463.019 576.193Z" fill="#37474F"/>
<path d="M444.742 535.405C443.583 537.266 442.403 539.126 441.41 541.111C441.368 541.194 441.327 541.297 441.265 541.38C442.734 536.894 444.142 532.408 445.487 527.901C445.57 527.632 445.115 527.467 445.011 527.736C438.47 544.295 432.385 561.06 426.506 577.847C424.85 582.539 423.401 587.294 421.911 592.028C421.849 592.194 422.118 592.276 422.201 592.111C424.002 588.038 425.802 584.007 427.458 579.852C429.114 575.717 430.625 571.521 432.178 567.345C434.889 560.047 437.456 552.709 439.94 545.328C440.726 544.047 441.513 542.744 442.238 541.442C443.314 539.519 444.183 537.514 445.073 535.509C445.177 535.343 444.866 535.199 444.742 535.405Z" fill="#37474F"/>
<path d="M472.396 612.722C470.368 609.29 468.381 605.838 466.352 602.385C464.365 599.016 462.419 595.625 460.473 592.235C458.466 588.721 456.52 585.144 454.16 581.857C454.119 581.795 454.015 581.837 454.036 581.919C455.423 585.516 457.286 588.948 459.107 592.338C461.012 595.853 462.957 599.346 464.903 602.82C466.828 606.231 468.815 609.6 470.823 612.949C472.893 616.402 475.066 619.937 477.612 623.058C477.716 623.182 477.944 623.079 477.881 622.914C476.329 619.42 474.342 616.009 472.396 612.722Z" fill="#37474F"/>
<path d="M492.019 622.976C489.721 618.448 486.161 614.024 483.512 609.724C483.408 609.559 483.16 609.724 483.263 609.89C485.664 613.921 487.858 618.262 490.156 622.376C479.703 626.697 468.587 630.542 457.907 634.304C446.957 638.191 435.924 641.85 424.767 645.075C418.516 646.873 412.265 648.817 405.973 650.47C405.579 650.574 405.683 650.905 406.097 650.822C417.398 648.693 428.493 645.426 439.443 641.974C450.6 638.439 461.612 634.49 472.582 630.397C478.751 628.082 492.205 623.348 492.019 622.976Z" fill="#37474F"/>
<path d="M473.886 572.927C459.501 576.606 442.941 582.663 435.531 585.558C435.324 585.62 435.158 585.702 434.972 585.764C428.431 588.328 424.395 590.23 423.422 590.395C423.339 590.354 423.277 590.292 423.215 590.271V590.25C422.532 589.754 421.87 589.382 421.186 589.134C419.344 588.473 401.646 586.26 402.081 580.782C402.516 575.366 409.719 575.697 410.795 575.779C409.657 575.531 400.032 573.278 403.178 568.482C405.393 565.092 414.894 565.588 415.867 565.629C414.894 565.319 406.076 562.445 409.098 557.546C411.272 554.052 421.89 554.507 423.111 554.714C422.118 554.342 414.252 553.019 417.916 548.801C420.462 545.866 440.457 548.843 449.358 553.287C462.585 559.882 473.886 572.927 473.886 572.927Z" fill="#EB9481"/>
<path d="M435.531 585.578C435.324 585.64 435.158 585.723 434.972 585.785C431.909 583.408 420.276 577.268 411.168 576.089C410.609 576.007 410.568 575.697 411.168 575.717C422.428 576.213 432.55 582.849 435.531 585.578Z" fill="#263238"/>
<path d="M416.301 566.001C428.907 568.503 434.599 571.273 445.425 578.157C445.57 578.26 445.756 578.033 445.611 577.929C435.51 570.384 429.238 566.642 416.426 565.691C415.825 565.629 415.722 565.877 416.301 566.001Z" fill="#263238"/>
<path d="M423.505 554.983C435.593 558.187 441.968 560.978 451.697 568.833C451.925 569.019 452.214 568.73 451.987 568.523C442.817 559.634 434.889 556.12 423.608 554.631C422.863 554.549 422.739 554.776 423.505 554.983Z" fill="#263238"/>
<path d="M484.029 506.567C476.867 509.13 462.978 499.352 456.955 490.814C456.541 490.235 456.748 483.537 456.624 475.413C456.52 470.472 456.292 464.994 455.734 459.991L487.983 464.043C487.983 464.043 486.078 474.875 487.134 483.579C487.238 484.302 487.383 484.984 487.59 485.605C487.61 485.687 487.652 485.811 487.672 485.935C488.728 489.76 490.943 504.086 484.029 506.567Z" fill="#EB9481"/>
<path d="M487.651 485.935C487.714 486.142 487.776 486.369 487.817 486.638C468.505 485.832 461.177 477.335 456.416 469.211C456.272 466.11 456.065 462.968 455.713 459.991L487.962 464.043C487.962 464.043 486.058 474.875 487.113 483.579C487.196 484.302 487.362 484.964 487.569 485.605C487.589 485.687 487.61 485.811 487.651 485.935Z" fill="#263238"/>
<path d="M442.507 426.211C440.747 437.768 451.324 468.88 460.246 474.855C473.203 483.496 492.04 481.739 498.808 466.73C505.37 452.177 490.881 411.885 481.131 406.717C466.766 399.068 445.094 409.136 442.507 426.211Z" fill="#EB9481"/>
<path opacity="0.2" d="M445.901 448.125C447.723 446.636 450.041 438.987 451.097 435.824C452.215 432.537 448.903 419.224 447.826 415.276C445.094 418.356 443.19 422.098 442.507 426.336C441.741 431.152 443.252 439.69 445.901 448.125Z" fill="#263238"/>
<path d="M476.391 419.1C474.839 422.428 471.713 424.827 468.029 425.261C464.448 425.695 460.37 424.31 458.176 421.333C458.114 421.25 457.969 421.353 458.031 421.436C460.37 424.599 464.075 426.687 468.111 426.108C471.879 425.571 475.315 422.78 476.619 419.204C476.681 419.038 476.453 418.935 476.391 419.1Z" fill="#263238"/>
<path d="M458.507 396.877C452.608 398.717 448.095 403.554 447.081 408.226C446.46 411.058 446.998 413.601 448.116 416.02C448.157 416.123 448.364 416.04 448.323 415.937C446.833 412.009 447.495 406.882 450.993 402.83C454.367 398.944 459.604 396.546 464.882 396.98C467.635 397.207 470.098 398.2 471.692 399.833C471.879 400.019 472.272 399.75 472.106 399.564C469.457 396.298 463.847 395.202 458.507 396.877Z" fill="#263238"/>
<path d="M496.697 399.833C494.917 397.187 492.164 395.264 489.1 394.396C484.816 393.197 480.779 394.706 476.805 396.298C476.702 396.339 476.764 396.505 476.867 396.463C480.241 395.119 483.76 393.962 487.424 394.685C490.425 395.264 493.24 396.877 495.186 399.233C499.201 404.153 498.932 411.74 494.461 416.288C491.936 418.852 488.314 420.32 484.712 420.196C484.567 420.196 484.526 420.402 484.671 420.423C491.315 420.816 497.608 416.04 498.663 409.404C499.201 406.117 498.56 402.603 496.697 399.833Z" fill="#263238"/>
<path d="M442.444 432.827C442.444 432.827 433.792 423.793 436.773 416.309C438.47 412.071 447.474 410.025 447.474 410.025C447.474 410.025 448.903 404.112 455.775 400.37C462.73 396.567 472.789 398.427 472.789 398.427C472.789 398.427 478.709 392.411 486.389 394.313C497.09 396.98 499.905 411.327 491.895 418.439C486.285 423.441 475.811 420.175 475.811 420.175C474.984 420.526 467.76 428.237 458.983 422.325C458.983 422.325 454.967 428.589 449.234 426.604C449.192 426.604 448.137 432.103 442.444 432.827Z" fill="#263238"/>
<path d="M453.187 451.246C453.187 451.246 444.245 442.15 440.002 445.499C435.759 448.848 443.686 462.885 449.524 464.001C455.361 465.118 456.499 459.743 456.499 459.743L453.187 451.246Z" fill="#EB9481"/>
<path d="M442.362 449.469C442.279 449.469 442.279 449.593 442.362 449.613C446.481 450.523 449.11 453.748 451.159 457.221C449.772 455.981 448.075 455.464 446.398 457.159C446.315 457.242 446.439 457.386 446.543 457.345C448.075 456.745 449.254 456.828 450.538 457.903C451.449 458.668 452.152 459.722 452.856 460.653C453.105 460.963 453.684 460.673 453.498 460.301C453.477 460.28 453.477 460.239 453.456 460.218C452.691 455.319 447.723 449.076 442.362 449.469Z" fill="#263238"/>
<path d="M487.548 485.253L480.696 504.21L456.685 481.594L450.434 489.388C450.434 489.388 474.466 525.875 474.549 524.18L481.607 507.89L493.095 518.598L491.129 490.669L487.548 485.253Z" fill="#EBEBEB"/>
<path d="M492.888 504.706C492.412 500.096 492.06 495.465 491.357 490.876C491.336 490.711 491.067 490.649 491.046 490.835C490.28 495.321 492.205 512.913 492.35 517.13C492.329 517.11 492.309 517.089 492.309 517.089C491.833 516.634 481.69 507.683 481.587 507.828C480.013 510.432 474.839 522.299 474.487 523.374C470.678 517.585 456.168 496.54 451.718 491.083C451.593 490.917 451.345 491.062 451.449 491.248C454.843 497.388 474.073 525.73 474.363 525.648C474.549 525.792 481.007 511.156 481.731 508.427C483.47 510.391 493.758 520.541 493.758 519.839C493.82 515.249 493.364 509.316 492.888 504.706Z" fill="#263238"/>
<path d="M334.892 272.426H90.683V524.242H334.892V272.426Z" fill="#FFC727"/>
<path d="M31.1315 347.613V477.108H160.791V347.613H31.1315ZM40.9222 467.35V357.412H151V467.35H40.9222Z" fill="#455A64"/>
<path d="M251.764 343.251C258.181 341.722 274.843 346.084 280.515 354.58C286.187 363.077 285.938 376.989 283.102 378.395C280.267 379.801 267.971 378.933 259.485 374.426C250.998 369.919 248.597 344.016 251.764 343.251Z" fill="#263238"/>
<path d="M251.743 343.293C251.536 343.251 251.495 342.9 251.743 342.879C257.373 342.652 263.459 344.45 268.861 345.918C273.208 347.096 277.7 348.523 281.239 351.417C284.8 354.311 286.683 358.177 286.911 362.746C287.159 367.707 286.559 373.723 284.179 378.168C284.117 378.292 283.868 378.271 283.91 378.085C286.373 368.658 288.463 357.164 279.025 350.9C271.014 345.608 260.851 345.133 251.743 343.293Z" fill="#263238"/>
<path d="M282.13 375.976C287.78 376.617 302.601 387.098 305.209 397.766C307.838 408.433 299.372 424.392 296.64 425.57C293.887 426.769 281.281 416.681 277.1 409.218C274.305 404.215 276.354 398.324 277.493 392.453C279.19 383.811 281.26 375.873 282.13 375.976Z" fill="#263238"/>
<path d="M273.705 407.937C271.863 397.063 277.886 386.168 281.447 376.245C281.488 376.142 281.653 376.183 281.633 376.287C279.708 385.775 274.14 394.355 274.14 404.236C274.14 410.107 276.272 415.834 281.157 419.348C285.4 422.408 290.699 423.751 295.584 425.384C295.915 425.488 295.708 425.963 295.377 425.881C285.648 422.883 275.609 419.162 273.705 407.937Z" fill="#263238"/>
<path d="M283.371 376.969C283.082 376.845 283.268 376.39 283.558 376.514C291.63 380.173 301.359 385.569 305.789 393.61C310.57 402.314 306.058 411.596 302.042 419.575C302.001 419.679 301.835 419.617 301.877 419.513C305.83 411.41 309.991 401.342 304.567 392.866C299.91 385.569 290.989 380.545 283.371 376.969Z" fill="#263238"/>
<path d="M295.998 425.302C292.459 427.617 287.636 434.563 287.16 442.212C286.332 455.277 281.219 453.251 267.516 458.089C255.925 462.182 254.745 475.723 261.762 481.635C261.762 481.635 257.249 473.821 264.846 469.004C273.933 463.236 296.826 471.071 306.368 456.456C318.684 437.54 295.998 425.302 295.998 425.302Z" fill="#263238"/>
<path d="M291.548 431.752C291.693 431.566 291.361 431.318 291.217 431.504C289.768 433.323 288.629 435.287 287.925 437.478C286.994 440.331 287.242 443.266 286.518 446.14C284.676 453.458 276.127 454.058 270 455.133C261.782 456.559 255.635 462.285 256.007 471.051C256.007 471.175 256.214 471.175 256.214 471.051C256.09 465.593 258.864 460.322 263.728 457.675C268.365 455.153 273.933 455.67 278.838 453.954C282.192 452.776 285.462 450.977 286.725 447.463C287.408 445.54 287.408 443.411 287.677 441.427C288.112 437.768 289.395 434.749 291.548 431.752Z" fill="#263238"/>
<path d="M298.316 426.646C298.234 426.583 298.13 426.728 298.213 426.79C303.367 430.945 308.811 435.08 310.86 441.716C313.054 448.848 310.032 456.518 304.754 461.5C298.834 467.082 291.713 465.407 284.407 464.745C279.128 464.27 273.767 464.187 268.861 466.461C268.717 466.523 268.82 466.771 268.986 466.73C276.976 464.001 284.738 465.676 292.914 466.172C299.6 466.565 304.526 463.753 308.252 458.234C316.449 446.016 309.411 433.757 298.316 426.646Z" fill="#263238"/>
<path d="M256.608 337.298C258.367 335.003 261.907 337.773 260.147 340.068C258.388 342.362 254.848 339.592 256.608 337.298Z" fill="#FFC727"/>
<path d="M254.931 341.101C256.69 338.807 260.23 341.577 258.47 343.871C256.711 346.187 253.171 343.417 254.931 341.101Z" fill="#FFC727"/>
<path d="M252.592 344.616C254.351 342.321 257.891 345.091 256.131 347.386C254.372 349.681 250.832 346.931 252.592 344.616Z" fill="#FFC727"/>
<path d="M249.88 347.696C251.64 345.401 255.179 348.172 253.42 350.466C251.66 352.782 248.121 350.011 249.88 347.696Z" fill="#FFC727"/>
<path d="M246.61 350.342C248.369 348.047 251.909 350.817 250.149 353.112C248.39 355.407 244.85 352.637 246.61 350.342Z" fill="#FFC727"/>
<path d="M243.05 352.265C244.809 349.97 248.349 352.74 246.589 355.035C244.85 357.329 241.311 354.559 243.05 352.265Z" fill="#FFC727"/>
<path d="M239.676 393.941C229.968 405.869 177.992 443.515 134.151 442.812C119.248 442.564 77.8496 379.057 70.1909 354.911C64.7056 337.566 101.571 328.801 112.003 331.323C125.002 334.445 150.359 388.938 155.368 389.29C170.251 390.323 195.835 381.351 227.256 378.189C243.36 376.514 247.169 384.742 239.676 393.941Z" fill="#AD6359"/>
<path d="M71.6191 358.88C68.8454 352.844 55.8256 319.312 54.77 310.671C53.7143 302.03 52.4724 276.954 59.0133 275.486C65.5542 273.997 66.5064 281.316 66.5064 281.316C66.5064 281.316 67.6656 270.649 74.3928 269.76C81.12 268.871 82.2171 280.303 82.2171 280.303C82.2171 280.303 84.2042 269.429 90.9728 269.015C97.7414 268.602 96.9135 280.282 96.9135 280.282C96.9135 280.282 98.2589 270.256 103.993 272.261C110.865 274.68 106.29 292.872 108.153 302.319C108.588 304.469 119.91 345.174 119.91 345.174L71.6191 358.88Z" fill="#AD6359"/>
<path d="M96.9548 279.269C93.6223 292.665 94.4709 299.094 98.735 311.994C98.8177 312.242 98.4659 312.428 98.3417 312.18C93.022 299.921 90.7658 292.004 96.3131 279.083C96.6029 278.442 97.1204 278.628 96.9548 279.269Z" fill="#263238"/>
<path d="M82.5068 279.228C80.2506 293.43 81.12 300.417 84.5975 314.268C84.6389 314.454 84.3284 314.558 84.2456 314.372C79.7125 301.079 77.6425 293.12 81.7617 279.228C81.948 278.587 82.5896 278.566 82.5068 279.228Z" fill="#263238"/>
<path d="M66.7134 282.019C65.5335 295.931 66.1545 303.642 71.2465 316.646C71.3707 316.956 70.936 317.162 70.7704 316.852C64.2916 304.097 63.4429 294.484 66.2787 282.019C66.4857 281.171 66.7962 281.13 66.7134 282.019Z" fill="#263238"/>
<path d="M129.101 351.479C129.101 351.479 131.026 334.3 130.198 326.568C129.37 318.837 115.688 291.135 109.519 293.74C101.571 297.11 106.311 314.661 109.768 322.951C109.768 322.951 91.3661 330.744 92.0492 344.058C92.7323 357.392 129.101 351.479 129.101 351.479Z" fill="#AD6359"/>
<path d="M107.636 295.394C102.606 303.704 107.843 314.289 110.575 322.579C110.782 323.199 110.347 323.592 109.83 323.654C102.337 327.437 92.8564 334.941 91.6145 343.706C91.5731 343.954 91.2005 343.954 91.2005 343.686C91.2626 334.114 99.9562 325.969 108.422 322.351C105.483 313.896 100.701 303.043 107.511 295.332C107.594 295.29 107.677 295.332 107.636 295.394Z" fill="#263238"/>
<path d="M177.557 385.031L195.648 426.873C195.648 426.873 223.013 413.87 239.655 397.063C256.297 380.235 237.813 374.633 221.688 377.072C205.563 379.512 177.557 385.031 177.557 385.031Z" fill="#EBEBEB"/>
<path d="M239.655 397.063C223.013 413.87 195.648 426.873 195.648 426.873L190.142 414.159L245.264 382.24C247.293 385.589 246.175 390.468 239.655 397.063Z" fill="#C7C7C7"/>
<path d="M202.479 421.002C193.558 404.216 188.28 388.318 186.851 385.093C186.789 384.948 187.038 384.845 187.1 385.011C188.342 388.256 196.932 406.014 202.769 420.899C202.831 421.085 202.562 421.167 202.479 421.002Z" fill="#263238"/>
<path d="M198.194 467.64L190.763 524.242H309.37C309.37 524.242 293.68 418.087 268.344 385.507C255.676 369.196 238.703 369.63 226.697 382.096C224.089 384.804 197.573 422.614 192.916 438.222C188.838 452.011 198.194 467.64 198.194 467.64Z" fill="#EBEBEB"/>
<path d="M232.721 387.76L225.228 407.833C222.744 414.531 220.363 421.25 218.107 427.989C215.996 434.77 213.45 441.53 214.464 448.455C215.209 455.339 217.755 462.141 221.191 468.177L221.357 468.467L221.315 468.756C220.28 477.749 219.08 486.721 217.962 495.713C216.824 504.706 215.602 513.678 214.34 522.65C215.106 513.616 215.913 504.603 216.803 495.589C217.714 486.576 218.542 477.563 219.535 468.57L219.659 469.149C215.996 462.844 213.326 456.001 212.415 448.703C211.98 445.086 212.249 441.261 213.201 437.747C214.112 434.232 215.209 430.821 216.368 427.431C218.666 420.65 221.377 414.014 224.089 407.42C226.801 400.763 229.699 394.231 232.721 387.76Z" fill="#263238"/>
<path d="M216.161 413.89C216.016 414.841 216.596 415.772 217.465 415.937C218.335 416.102 219.163 415.462 219.308 414.511C219.452 413.56 218.873 412.629 218.004 412.464C217.155 412.299 216.327 412.939 216.161 413.89Z" fill="#263238"/>
<path d="M208.979 433.447C208.834 434.398 209.413 435.328 210.283 435.493C211.152 435.659 211.98 435.018 212.125 434.067C212.27 433.116 211.69 432.186 210.821 432.02C209.952 431.834 209.144 432.475 208.979 433.447Z" fill="#263238"/>
<path d="M208.068 453.376C207.923 454.327 208.503 455.257 209.372 455.422C210.241 455.588 211.069 454.947 211.214 453.996C211.359 453.045 210.78 452.115 209.91 451.949C209.061 451.763 208.233 452.404 208.068 453.376Z" fill="#263238"/>
<path d="M213.615 469.872C213.47 470.823 214.05 471.754 214.919 471.919C215.789 472.084 216.617 471.443 216.762 470.493C216.906 469.542 216.327 468.611 215.457 468.446C214.609 468.26 213.781 468.901 213.615 469.872Z" fill="#263238"/>
<path d="M211.463 487.878C211.318 488.829 211.897 489.76 212.767 489.925C213.636 490.09 214.464 489.45 214.609 488.499C214.754 487.548 214.174 486.617 213.305 486.452C212.435 486.266 211.607 486.907 211.463 487.878Z" fill="#263238"/>
<path d="M209.496 505.657C209.351 506.608 209.931 507.538 210.8 507.704C211.67 507.869 212.498 507.228 212.642 506.277C212.787 505.326 212.208 504.396 211.338 504.231C210.49 504.065 209.662 504.706 209.496 505.657Z" fill="#263238"/>
<path d="M233.279 586.24C239.241 590.292 249.301 572.43 252.737 568.606C256.152 564.761 257.622 564.885 257.435 567.82L265.218 536.956C261.182 540.077 252.633 546.817 248.079 551.22C241.952 557.153 227.277 582.188 233.279 586.24Z" fill="#AD6359"/>
<path d="M277.99 390.034C303.326 410.438 335.264 446.326 341.764 469.521C346.794 487.424 321.582 549.628 314.068 564.14C310.798 570.466 267.412 551.199 265.487 543.84C263.583 536.46 293.825 482.896 294.135 477.211C294.446 471.526 274.657 433.984 261.161 408.598C244.85 377.837 256.442 372.689 277.99 390.034Z" fill="#AD6359"/>
<path d="M237.523 603.956C241.518 608.298 249.611 603.047 249.611 603.047C249.611 603.047 242.429 611.915 248.038 615.368C253.689 618.82 261.348 611.233 261.348 611.233C261.348 611.233 255.179 619.75 261.037 622.789C266.916 625.828 274.471 619.213 274.471 619.213C274.471 619.213 274.057 622.479 279.17 622.769C286.497 623.182 296.95 611.316 300.945 603.853C304.94 596.37 314.027 565.98 315.331 561.308L267.433 535.302C267.433 535.302 266.584 535.943 265.218 536.997L257.435 567.862C257.311 569.784 251.826 581.63 249.839 585.02C245.326 592.69 233.052 599.078 237.523 603.956Z" fill="#AD6359"/>
<path d="M249.86 602.613C260.602 594.488 263.894 589.072 268.551 576.668C268.634 576.42 269.027 576.503 268.944 576.772C265.487 589.341 262.341 596.721 250.211 603.15C249.632 603.46 249.342 602.985 249.86 602.613Z" fill="#263238"/>
<path d="M260.809 611.481C271.221 602.075 274.843 596.225 280.681 583.594C280.763 583.408 281.074 583.532 281.012 583.718C276.313 596.597 273.001 603.874 261.368 611.916C260.851 612.288 260.333 611.895 260.809 611.481Z" fill="#263238"/>
<path d="M274.512 619.006C283.93 609.166 288.194 602.944 292.272 589.94C292.376 589.63 292.831 589.754 292.748 590.064C289.871 603.708 284.613 611.523 274.823 619.254C274.16 619.792 273.912 619.627 274.512 619.006Z" fill="#263238"/>
<path d="M273.229 445.871L309.784 418.604C309.784 418.604 290.782 395.016 270.559 382.757C250.315 370.478 249.135 389.745 255.241 404.836C261.368 419.948 273.229 445.871 273.229 445.871Z" fill="#EBEBEB"/>
<path d="M302.498 413.332C288.215 425.901 273.953 434.708 271.138 436.837C271.014 436.941 270.849 436.713 270.993 436.61C273.871 434.667 289.167 422.18 302.332 413.084C302.498 412.981 302.642 413.208 302.498 413.332Z" fill="#263238"/>
<path d="M266.812 430.408C264.577 425.426 261.534 418.149 259.029 413.291C258.988 413.229 258.884 413.27 258.905 413.332C259.899 416.164 261.016 418.976 262.196 421.767C262.093 421.622 262.01 421.477 261.927 421.333C261.016 420.03 260.064 418.749 259.05 417.508C259.009 417.467 258.946 417.529 258.967 417.57C259.733 418.997 260.561 420.361 261.472 421.705C262.031 422.532 262.631 423.359 263.21 424.165C263.852 425.633 265.322 429.292 265.963 430.739C267.04 433.199 272.297 447.029 272.525 446.884C272.856 446.657 274.823 445.313 276.21 444.135C276.396 443.99 276.106 443.659 275.94 443.804C275.299 444.341 273.643 445.458 273.374 445.665C272.173 443.163 271.2 440.517 270.124 437.954C269.027 435.473 267.93 432.93 266.812 430.408Z" fill="#263238"/>
<path d="M251.412 377.651C250.791 379.76 239.883 393.032 230.175 392.06C227.008 391.729 228.001 374.405 228.001 374.405L227.774 373.103L224.71 354.952L246.506 342.569L249.653 340.936C249.653 340.936 250.17 345.96 250.729 352.203C250.75 352.492 250.791 352.782 250.812 353.092C250.853 353.443 250.894 353.774 250.915 354.105C251.019 355.035 251.101 355.986 251.184 356.937C251.246 357.66 251.308 358.363 251.35 359.128C251.412 359.893 251.433 360.637 251.495 361.402C251.888 368.989 251.66 376.762 251.412 377.651Z" fill="#AD6359"/>
<path d="M250.75 352.223C244.85 366.219 233.135 371.428 227.774 373.103L224.71 354.952L246.506 342.569L249.653 340.936C249.673 340.957 250.17 345.98 250.75 352.223Z" fill="#263238"/>
<path d="M201.962 323.033C195.4 354.642 213.615 362.146 220.446 363.552C226.635 364.834 247.914 368.39 257.705 337.628C267.516 306.867 254.869 293.823 240.855 290.143C226.821 286.463 208.523 291.404 201.962 323.033Z" fill="#AD6359"/>
<path d="M226.055 294.133C226.055 294.133 224.337 298.826 225.662 302.443C228.394 309.906 237.192 308.852 239.862 311.953C242.366 314.868 240.876 320.243 243.132 323.137C246.237 327.127 251.081 326.155 251.412 328.677C251.743 331.199 252.633 339.2 255.697 340.502C258.76 341.804 278.197 290.949 236.881 288.655C236.881 288.655 231.458 285.822 222.268 289.378C212.125 293.327 206.412 308.79 206.412 308.79C206.412 308.79 206.64 308.583 208.171 307.487C210.324 305.937 211.256 304.387 212.808 303.394C215.271 301.823 216.451 302.629 218.997 301.12C222.847 298.867 226.055 294.133 226.055 294.133Z" fill="#263238"/>
<path d="M226.904 291.921C226.076 293.905 225.455 295.993 225.103 298.081C224.731 300.169 224.648 302.361 225.393 304.283C226.159 306.144 227.918 307.529 229.761 308.397C231.644 309.307 233.797 309.72 235.805 310.754C236.798 311.312 237.75 312.015 238.371 313.09C238.972 314.144 239.137 315.281 239.282 316.356C239.51 318.506 239.758 320.635 241.021 322.268C242.263 323.902 244.209 324.997 246.32 325.101C248.39 325.307 250.75 324.935 252.675 326.052C250.646 325.101 248.473 325.638 246.279 325.597C244.043 325.597 241.828 324.501 240.4 322.744C238.868 320.966 238.62 318.547 238.351 316.48C238.206 315.426 238.02 314.392 237.523 313.565C237.047 312.759 236.219 312.118 235.329 311.643C233.528 310.671 231.354 310.216 229.347 309.224C228.353 308.728 227.38 308.108 226.573 307.343C225.766 306.598 225 305.648 224.648 304.552C223.903 302.381 224.13 300.087 224.607 297.978C225.124 295.869 225.911 293.843 226.904 291.921Z" fill="#263238"/>
<path d="M225.931 293.719C225.352 295.642 224.482 297.482 223.406 299.198C222.33 300.913 220.777 302.464 218.852 303.332C217.879 303.766 216.803 303.952 215.892 304.159C215.023 304.387 214.071 304.821 213.532 305.441C212.932 306.144 212.332 307.053 211.504 307.694C210.676 308.335 209.724 308.769 208.751 308.976C209.662 308.562 210.51 308.046 211.173 307.322C211.877 306.64 212.311 305.813 212.912 304.945C213.615 303.994 214.609 303.58 215.644 303.25C216.658 302.96 217.59 302.815 218.438 302.423C220.156 301.637 221.584 300.314 222.744 298.743C223.923 297.172 224.938 295.456 225.931 293.719Z" fill="#263238"/>
<path d="M249.218 335.995C249.218 335.995 257.705 327.085 261.865 330.269C266.005 333.432 258.574 347.097 252.964 348.254C247.355 349.433 246.154 344.264 246.154 344.264L249.218 335.995Z" fill="#AD6359"/>
<path d="M259.63 334.114C259.712 334.114 259.712 334.238 259.63 334.259C255.676 335.21 253.192 338.352 251.267 341.722C252.592 340.523 254.206 339.985 255.862 341.577C255.945 341.66 255.842 341.804 255.738 341.763C254.269 341.205 253.13 341.308 251.909 342.362C251.039 343.107 250.377 344.14 249.715 345.05C249.487 345.36 248.907 345.091 249.094 344.719C249.114 344.698 249.114 344.657 249.135 344.636C249.756 339.902 254.455 333.825 259.63 334.114Z" fill="#263238"/>
<path d="M227.753 375.832L232.327 390.551L251.515 373.95L256.069 380.152C256.069 380.152 236.405 407.399 236.384 406.097L231.499 393.342L222.309 401.197L224.731 379.801L227.753 375.832Z" fill="#EBEBEB"/>
<path d="M222.951 390.53C223.468 387.016 223.903 383.439 224.586 379.945C224.607 379.821 224.814 379.78 224.834 379.925C225.269 383.398 223.199 396.856 222.971 400.101C222.992 400.081 222.992 400.081 223.013 400.06C223.406 399.709 231.499 393.176 231.561 393.3C232.679 395.347 236.281 404.649 236.509 405.497C239.613 401.176 251.474 385.465 255.076 381.434C255.179 381.31 255.366 381.434 255.283 381.579C252.468 386.189 236.757 407.358 236.529 407.275C236.384 407.378 231.913 395.926 231.437 393.796C230.03 395.243 221.791 402.706 221.812 402.189C221.874 398.613 222.433 394.065 222.951 390.53Z" fill="#263238"/>
<path d="M619.195 107.127H351.368V374.612H619.195V107.127Z" fill="#DBDBDB"/>
<path d="M465.565 39.3403V219.545H646V39.3403H465.565ZM636.209 209.767H475.356V49.1186H636.209V209.767Z" fill="#263238"/>
<path d="M439.94 266.059C441.099 266.142 446.522 266.514 454.429 267.072C457.431 262.152 461.094 253.366 460.266 240.673C460.121 238.564 464.53 250.823 461.777 267.589C477.074 268.664 497.897 270.09 516.092 271.186C516.775 264.095 517.727 257.563 517.727 257.563C518.121 262.71 519.011 267.382 520.066 271.434C522.55 271.6 524.993 271.724 527.332 271.848C527.311 260.808 530.064 241.686 530.064 241.686C531.099 255.123 534.887 265.977 537.681 272.406C549.231 272.964 556.849 273.129 556.393 272.571C539.813 251.754 553.164 240.797 548.983 222.936C543.974 201.539 525.903 197.343 527.166 181.507C528.16 168.608 530.851 145.268 514.747 139.5C514.747 139.5 502.12 124.368 480.903 131.417C454.636 140.12 463.04 180.391 460.908 188.412C457.865 199.865 452.173 203.689 447.454 216.693C442.631 229.861 448.323 238.998 448.592 248.095C448.82 257.17 437.042 265.914 439.94 266.059Z" fill="#263238"/>
<path d="M557.014 269.739C554.841 266.059 552.937 262.193 551.922 258.183C550.784 254.193 551.55 250.183 552.523 246.069C553.495 241.975 554.655 237.779 555.234 233.417C555.772 229.055 555.814 224.445 554.572 220.062C553.392 215.659 551.074 211.628 548.134 208.299C545.236 204.93 541.842 202.16 538.592 199.431C535.363 196.681 532.155 193.952 529.795 190.521C527.394 187.151 526.007 183.037 525.697 178.758C525.324 183.017 526.276 187.503 528.47 191.348C530.644 195.213 533.79 198.376 536.895 201.312C540 204.268 543.146 207.1 545.733 210.305C548.3 213.488 550.308 217.065 551.301 220.951C552.295 224.838 552.44 228.931 551.964 233.045C551.529 237.159 550.577 241.293 549.832 245.552C549.48 247.681 549.149 249.852 549.107 252.105C549.066 254.358 549.521 256.674 550.266 258.741C551.84 262.834 554.199 266.493 557.014 269.739Z" fill="#263238"/>
<path d="M465.607 145.557C463.371 150.353 462.378 155.625 461.384 160.814C460.494 166.023 459.852 171.254 459.273 176.484L458.362 184.278C458.052 186.882 457.617 189.322 456.83 191.699C455.319 196.475 452.421 200.568 449.172 204.723C447.599 206.832 445.984 209.023 444.639 211.421C443.293 213.819 442.196 216.362 441.409 219.008C440.706 221.675 440.209 224.3 439.898 227.008C439.588 229.696 439.609 232.487 439.981 235.195C440.333 237.903 440.975 240.487 441.492 243.009C442.03 245.531 442.32 248.095 442.362 250.637C442.507 255.681 439.629 260.581 435.407 263.682C440.043 261.222 443.583 256.281 443.997 250.72C444.204 248.012 444.038 245.324 443.686 242.658C443.355 239.991 442.796 237.448 442.631 234.926C442.237 229.923 443.107 224.776 444.514 219.959C445.301 217.581 446.274 215.287 447.536 213.116C448.778 210.945 450.31 208.899 451.904 206.811C453.477 204.723 455.112 202.573 456.52 200.216C457.927 197.88 459.149 195.338 459.935 192.691C460.701 190.045 461.115 187.275 461.343 184.65C461.612 182.004 461.777 179.378 461.943 176.753C462.295 171.502 462.564 166.272 463.061 161.062C463.495 155.811 464.116 150.602 465.607 145.557Z" fill="#263238"/>
<path d="M591.975 367.273C591.934 366.963 591.872 366.653 591.81 366.343C591.892 366.736 591.954 367.108 591.996 367.501C591.996 367.439 591.996 367.356 591.975 367.273Z" fill="#FFC727"/>
<path d="M540.145 376.431C540.31 376.535 540.496 376.617 540.683 376.721L540.765 376.576L540.786 376.555C540.6 376.514 540.414 376.473 540.227 376.431C540.186 376.452 540.165 376.452 540.145 376.431Z" fill="#FFC727"/>
<path d="M466.083 231.722C433.544 268.271 394.153 343.665 402.971 358.074C412.803 374.116 459.749 322.062 458.134 319.705C456.768 317.7 472.024 272.612 483.098 239.639C494.172 206.687 474.135 222.688 466.083 231.722Z" fill="#D3766A"/>
<path d="M466.083 231.722C433.544 268.271 394.153 343.665 402.971 358.074C412.803 374.116 459.749 322.062 458.134 319.705C456.768 317.7 472.024 272.612 483.098 239.639C494.172 206.687 474.135 222.688 466.083 231.722Z" fill="#455A64"/>
<path d="M470.471 277.471C467.304 287.083 464.386 296.117 462.171 303.332C457.141 303.56 442.445 302.753 427.148 288.076C431.743 279.931 436.711 271.765 441.844 263.971C445.694 268.002 455.009 275.879 470.471 277.471Z" fill="#EBEBEB"/>
<path d="M434.703 374.736L442.879 319.436C442.879 319.436 429.777 296.593 437.373 280.199C441.203 271.889 467.511 231.329 481.669 221.054C494.958 211.421 513.174 220.207 519.363 228.579C537.164 252.684 545.837 296.055 555.772 374.715H434.703V374.736Z" fill="#455A64"/>
<path d="M458.528 246.565C455.837 250.244 453.229 253.986 450.662 257.749C451.366 256.281 452.07 254.813 452.753 253.345C452.794 253.242 452.649 253.159 452.587 253.263C451.635 255.103 450.745 256.984 449.896 258.865C446.46 263.93 443.148 269.077 439.919 274.287C438.553 276.499 437.311 278.752 436.38 281.192C435.49 283.548 434.931 286.029 434.641 288.531C434.351 291.032 434.33 293.554 434.517 296.055C434.724 298.64 435.034 301.203 435.614 303.725C436.276 306.578 437.166 309.431 438.325 312.118C438.884 313.441 439.505 314.764 440.147 316.046C440.747 317.224 441.968 319.602 441.948 319.705C441.699 321.028 441.451 321.958 441.285 323.075C441.12 324.212 440.933 325.349 440.768 326.486C440.416 328.76 437.477 350.838 437.146 353.112C436.483 357.619 435.924 362.126 435.345 366.653C435.014 369.258 434.848 371.863 434.496 374.447C434.475 374.55 434.641 374.591 434.662 374.488C435.034 372.235 435.593 370.002 436.007 367.769C436.421 365.516 436.835 363.263 437.249 361.009C438.098 356.461 441.389 332.067 442.113 327.499C442.32 326.238 442.507 324.977 442.714 323.716C442.9 322.455 443.252 320.78 443.19 319.498C443.19 319.498 439.133 311.188 437.559 305.337C436.897 302.898 436.214 300.335 435.945 297.813C435.676 295.332 435.655 292.83 435.862 290.35C436.069 287.869 436.525 285.388 437.29 283.011C438.077 280.551 439.215 278.277 440.478 276.023C443.128 271.331 445.943 266.721 448.799 262.131C452.028 256.942 455.299 251.774 458.652 246.668C458.735 246.565 458.59 246.503 458.528 246.565Z" fill="#263238"/>
<path d="M402.992 358.074C411.292 368.72 432.447 369.733 485.478 377.258C492.805 378.292 514.126 328.574 506.343 327.044C496.552 325.142 458.114 319.85 455.257 319.808C431.122 319.56 397.341 350.859 402.992 358.074Z" fill="#D3766A"/>
<path d="M495.703 325.225C495.703 325.225 518.121 327.416 529.526 332.212C544.823 338.641 555.358 350.466 559.478 355.697C568.088 366.612 581.336 398.903 572.684 404.34C564.859 409.26 552.978 375.542 552.978 375.542C552.978 375.542 570.759 407.916 560.243 412.113C549.728 416.309 538.157 376.39 538.157 376.39C538.157 376.39 555.69 410.066 544.16 412.671C535.446 414.635 522.943 379.078 522.943 379.078C522.943 379.078 537.805 408.123 528.926 410.542C519.114 413.208 505.515 381.103 505.515 381.103C481.918 383.439 469.726 374.922 461.777 367.831C459.852 366.116 495.703 325.225 495.703 325.225Z" fill="#D3766A"/>
<path d="M547.555 363.966C549.79 367.687 552.067 371.449 553.951 375.356C555.834 379.264 557.594 383.253 559.105 387.326C562.81 397.311 563.576 404.133 563.493 403.719C561.299 393.859 554.758 379.76 552.854 375.832C550.97 371.925 549.273 367.935 547.41 364.028C547.368 363.924 547.513 363.883 547.555 363.966Z" fill="#263238"/>
<path d="M533.293 370.519C535.922 375.398 538.737 380.152 541.159 385.155C543.56 390.137 545.423 395.058 547.472 400.184C547.637 400.577 547.368 400.536 547.182 400.143C544.926 395.099 542.442 390.613 540.103 385.589C537.785 380.587 535.653 375.46 533.148 370.56C533.127 370.498 533.252 370.436 533.293 370.519Z" fill="#263238"/>
<path d="M520.025 373.93C524.434 381.186 527.497 389.248 530.333 397.228C530.478 397.621 530.147 397.538 529.981 397.125C526.711 389.31 524.185 383.171 519.797 374.075C519.714 373.951 519.942 373.785 520.025 373.93Z" fill="#263238"/>
<path d="M512.635 325.597L468.981 376.907C468.981 376.907 409.347 372.772 402.495 357.082C395.623 341.391 441.037 318.527 455.174 319.746C469.312 320.987 512.635 325.597 512.635 325.597Z" fill="#455A64"/>
<path d="M432.198 326.548C435.634 324.212 445.363 318.651 455.174 319.746C455.278 319.767 455.299 319.912 455.174 319.912C447.143 320.16 435.8 324.687 432.281 326.672C432.198 326.734 432.116 326.61 432.198 326.548Z" fill="#263238"/>
<path d="M459.749 368.038C476.909 349.887 492.185 328.222 495.103 324.625C495.248 324.46 494.958 324.253 494.813 324.439C492.122 328.119 471.982 350.983 459.418 367.831C459.294 368.017 459.583 368.204 459.749 368.038Z" fill="#263238"/>
<path d="M414.488 256.021L395.143 350.673L467.931 365.512L487.277 270.86L414.488 256.021Z" fill="#FFC727"/>
<path d="M469.444 262.202L434.953 255.13L432.805 265.58L467.296 272.651L469.444 262.202Z" fill="#EBEBEB"/>
<path d="M461.591 260.602L457.348 259.733L458.321 254.917L448.013 252.787L447.019 257.604L442.776 256.736L444.576 247.97L463.454 251.836L461.591 260.602Z" fill="#EBEBEB"/>
<path d="M528.077 240.073C563.141 284.644 576.368 364.689 556.911 370.932C539.13 376.638 466 358.363 444.204 350.962C437.808 348.792 457.575 299.115 464.406 301.41C472.686 304.201 517.913 314.909 518.783 314.93C520.666 314.971 510.607 265.687 506.301 243.36C500.299 212.248 514.912 223.328 528.077 240.073Z" fill="#D3766A"/>
<path d="M405.952 282.742C402.247 286.939 405.248 291.9 405.248 291.9C405.248 291.9 400.922 293.058 398.728 296.738C396.202 300.955 401.729 306.764 401.729 306.764C401.729 306.764 397.589 308.831 395.664 312.966C393.656 317.245 398.397 323.881 398.397 323.881C398.397 323.881 395.602 327.912 396.492 332.688C398.024 340.833 409.802 345.443 417.274 348.461C424.747 351.479 448.737 353.03 453.291 353.795L473.058 306.102C473.058 306.102 443.438 283.073 434.144 280.778C426.34 278.835 410.112 278.029 405.952 282.742Z" fill="#D3766A"/>
<path d="M405.89 291.259C414.687 291.321 423.008 293.988 431.453 296.179C431.64 296.221 431.557 296.531 431.37 296.469C423.008 294.195 414.273 293.616 405.828 291.673C405.6 291.611 405.662 291.259 405.89 291.259Z" fill="#263238"/>
<path d="M402.143 306.185C404.13 306.268 406.097 306.991 407.98 307.591C410.009 308.232 412.037 308.893 414.045 309.596C418.061 311.002 422.056 312.49 425.989 314.103C426.154 314.165 426.092 314.454 425.906 314.392C421.89 313.007 417.875 311.663 413.797 310.444C411.768 309.823 409.719 309.245 407.67 308.645C405.765 308.108 403.716 307.694 401.978 306.743C401.729 306.599 401.833 306.164 402.143 306.185Z" fill="#263238"/>
<path d="M398.562 323.922C400.301 323.922 402.143 324.853 403.758 325.452C405.579 326.134 407.401 326.796 409.222 327.457C412.865 328.78 416.529 330.083 420.214 331.282C420.4 331.344 420.317 331.633 420.131 331.571C416.364 330.393 412.596 329.256 408.85 328.016C407.008 327.416 405.165 326.796 403.344 326.176C401.791 325.638 399.784 325.163 398.5 324.088C398.417 324.026 398.479 323.922 398.562 323.922Z" fill="#263238"/>
<path d="M518.141 312.904C518.7 312.573 508.206 265.005 504.666 240.177C501.147 215.349 512.242 217.747 528.222 238.957C545.34 261.697 575.788 323.219 565.232 368.782C561.817 383.543 455.982 362.87 455.982 362.87L470.243 302.113C470.264 302.113 517.272 313.421 518.141 312.904Z" fill="#455A64"/>
<path d="M561.278 308.397C544.015 313.462 525.303 310.878 517.665 309.451C516.568 303.477 513.877 290.536 511.145 276.561C529.277 278.566 541.593 275.982 548.321 273.729C553.226 284.334 557.821 296.159 561.278 308.397Z" fill="#EBEBEB"/>
<path d="M469.85 356.627C476.288 335.478 479.848 312.263 480.738 308.273C480.779 308.087 480.469 308.046 480.427 308.232C479.744 312.201 472.81 338.29 469.498 356.585C469.477 356.792 469.788 356.833 469.85 356.627Z" fill="#263238"/>
<path d="M538.033 319.932C535.984 319.581 481.959 304.386 470.14 302.547C469.954 302.526 470.119 301.906 470.305 301.926C506.612 308.314 536.439 318.01 538.716 318.919C541.469 320.015 541.842 320.594 538.033 319.932Z" fill="#263238"/>
<path d="M517.624 313.4C517.665 313.296 514.063 295.084 513.422 293.947C512.759 292.768 511.352 290.143 510.772 288.923C509.613 286.463 508.578 283.941 507.502 281.46C507.419 281.254 507.73 281.088 507.812 281.295C508.971 283.714 510.338 286.008 511.724 288.303C512.408 289.419 513.091 290.556 513.794 291.673C513.856 291.755 510.462 273.873 510.006 270.731C509.965 270.504 510.213 270.442 510.296 270.628C511.31 273.791 518.39 309.596 519.362 313.545C519.362 313.545 518.7 313.545 517.624 313.4Z" fill="#263238"/>
<path d="M477.799 366.632C474.28 365.661 460.142 363.366 456.685 362.89C457.017 361.65 458.031 356.585 457.927 355.159C457.927 355.014 457.72 354.952 457.638 355.055C456.83 356.234 455.464 362.456 455.05 363.924C454.967 364.193 474.093 366.612 477.757 366.798C477.861 366.818 477.902 366.674 477.799 366.632Z" fill="#263238"/>
<path d="M473.059 225.499C473.059 225.499 474.487 239.474 486.078 241.645C497.691 243.815 519.363 228.6 519.363 228.6C519.363 228.6 510.648 216.899 494.917 216.858C479.786 216.837 473.059 225.499 473.059 225.499Z" fill="#D3766A"/>
<path d="M506.364 221.592C505.743 223.701 494.772 236.931 485.064 235.918C481.897 235.587 482.953 218.264 482.953 218.264L482.746 216.961L479.765 198.811L501.623 186.51L504.77 184.898C504.77 184.898 505.267 189.921 505.805 196.185C505.825 196.474 505.867 196.764 505.887 197.074C505.929 197.425 505.97 197.756 505.991 198.087C506.094 199.017 506.177 199.968 506.239 200.919C506.301 201.643 506.364 202.346 506.384 203.11C506.446 203.875 506.467 204.62 506.529 205.384C506.902 212.93 506.612 220.703 506.364 221.592Z" fill="#D3766A"/>
<path d="M505.805 196.164C499.843 210.139 488.107 215.307 482.746 216.961L479.765 198.811L501.623 186.51L504.77 184.898C504.77 184.877 505.267 189.901 505.805 196.164Z" fill="#263238"/>
<path d="M458.755 164.928C450.248 196.082 467.967 204.682 474.694 206.501C480.8 208.155 501.81 213.013 513.484 182.913C525.158 152.813 513.36 139.004 499.595 134.477C485.83 129.97 467.263 133.774 458.755 164.928Z" fill="#D3766A"/>
<path d="M511.766 182.396C508.433 181.218 502.306 169.414 506.715 153.02C506.715 153.02 503.776 168.008 504.252 170.489C504.749 172.949 500.837 163.853 504.211 150.581C504.211 150.581 495.393 153.744 488.686 153.702C481.959 153.661 478.171 152.503 477.861 151.945C477.55 151.366 487.527 151.118 490.818 148.968C490.818 148.968 472.065 151.904 464.261 150.312C463.351 150.126 467.511 131.707 481.525 127.386C495.517 123.065 511.828 136.73 515.45 143.015C515.45 143.015 521.101 145.537 525.013 156.1C528.926 166.602 515.347 183.657 511.766 182.396Z" fill="#263238"/>
<path d="M506.943 183.079C506.943 183.079 515.678 174.417 519.735 177.704C523.792 180.991 515.947 194.428 510.317 195.42C504.666 196.433 503.631 191.224 503.631 191.224L506.943 183.079Z" fill="#D3766A"/>
<path d="M517.396 181.507C517.479 181.507 517.479 181.632 517.396 181.652C513.422 182.479 510.835 185.559 508.827 188.867C510.172 187.689 511.807 187.213 513.422 188.867C513.505 188.95 513.38 189.094 513.277 189.053C511.807 188.454 510.669 188.516 509.427 189.549C508.537 190.273 507.854 191.286 507.15 192.175C506.922 192.464 506.343 192.195 506.55 191.823C506.57 191.803 506.591 191.761 506.591 191.741C507.357 187.006 512.221 181.053 517.396 181.507Z" fill="#263238"/>
<path d="M540.207 376.452C540.393 376.493 540.558 376.535 540.745 376.597L540.765 376.576C540.579 376.535 540.393 376.493 540.207 376.452Z" fill="#D3766A"/>
<path d="M591.81 366.343C591.892 366.736 591.954 367.108 591.996 367.501C591.975 367.418 591.975 367.356 591.975 367.273C591.934 366.963 591.872 366.674 591.81 366.343Z" fill="#FFC727"/>
<path d="M591.81 366.343C591.892 366.736 591.954 367.108 591.996 367.501C591.975 367.418 591.975 367.356 591.975 367.273C591.934 366.963 591.872 366.674 591.81 366.343Z" fill="#FFC727"/>
<path d="M537.764 382.075C538.344 382.22 538.882 382.364 539.441 382.488C538.882 382.344 538.323 382.199 537.764 382.075Z" fill="#FFC727"/>
<path d="M591.81 366.343C591.892 366.736 591.954 367.108 591.996 367.501C591.975 367.418 591.975 367.356 591.975 367.273C591.934 366.963 591.872 366.674 591.81 366.343Z" fill="#DBDBDB"/>
<path d="M0 20.8175V102.31H81.6168V20.8175H0ZM6.16835 96.1492V26.9573H75.4484V96.1492H6.16835Z" fill="#EBEBEB"/>
<path d="M334.892 0H57.999V254.668H334.892V0Z" fill="#37474F"/>
<path d="M245.906 126.29C279.646 160.442 322.079 232.28 314.172 246.854C305.354 263.082 258.388 215.204 258.553 212.413C258.698 210.305 242.159 166.664 229.636 134.931C217.113 103.199 237.564 117.856 245.906 126.29Z" fill="#F7A9A0"/>
<path d="M258.243 212.455C256.814 207.782 234.314 150.25 227.898 132.037C221.46 113.845 227.422 108.202 245.782 124.884C264.142 141.547 304.381 197.239 313.572 226.781C322.41 255.247 307.734 255.247 288.381 242.12C272.525 231.391 258.243 212.455 258.243 212.455Z" fill="#FFC727"/>
<path opacity="0.1" d="M242.594 126.766C242.408 128.089 241.973 129.288 241.456 130.446C240.897 131.603 240.297 132.72 239.406 133.712C239.593 132.389 240.027 131.19 240.545 130.032C241.104 128.895 241.725 127.758 242.594 126.766ZM298.233 205.901C297.716 207.059 297.261 208.258 297.095 209.581C297.985 208.589 298.606 207.472 299.144 206.315C299.662 205.157 300.117 203.958 300.283 202.635C299.393 203.627 298.792 204.744 298.233 205.901ZM278.342 175.657C277.824 176.815 277.369 178.014 277.203 179.337C278.093 178.344 278.714 177.228 279.252 176.07C279.77 174.913 280.225 173.714 280.391 172.391C279.501 173.404 278.9 174.52 278.342 175.657ZM257.684 168.07C256.525 167.553 255.324 167.098 253.999 166.933C254.993 167.822 256.111 168.442 257.27 168.98C258.429 169.496 259.63 169.951 260.954 170.117C259.961 169.248 258.843 168.628 257.684 168.07ZM276.313 198.645C275.154 198.128 273.953 197.674 272.629 197.508C273.622 198.397 274.74 199.017 275.899 199.555C277.058 200.072 278.259 200.526 279.584 200.692C278.59 199.803 277.451 199.203 276.313 198.645ZM261.161 146.281C260.002 145.764 258.802 145.309 257.477 145.144C258.47 146.033 259.588 146.653 260.747 147.19C261.906 147.707 263.107 148.162 264.432 148.327C263.438 147.459 262.32 146.839 261.161 146.281ZM249.611 187.11C250.066 188.309 250.605 189.466 251.412 190.521C251.329 189.198 250.977 187.957 250.543 186.758C250.087 185.58 249.549 184.402 248.742 183.347C248.825 184.67 249.197 185.911 249.611 187.11ZM288.588 223.535C289.043 224.734 289.581 225.892 290.388 226.946C290.306 225.623 289.954 224.383 289.519 223.184C289.064 221.985 288.526 220.827 287.718 219.773C287.801 221.096 288.153 222.336 288.588 223.535ZM262.341 217.395C262.3 217.395 262.279 217.416 262.258 217.416C262.486 217.685 262.693 217.954 262.941 218.222C264.059 217.788 265.135 217.271 266.108 216.527C264.784 216.61 263.542 216.982 262.341 217.395ZM308.521 239.143C309.721 238.688 310.881 238.151 311.936 237.345C310.612 237.427 309.37 237.779 308.169 238.213C306.989 238.668 305.809 239.205 304.754 240.011C306.078 239.929 307.32 239.577 308.521 239.143ZM239.241 154.819C238.392 155.15 237.585 155.501 236.798 155.956C236.86 156.121 236.923 156.307 236.985 156.473C237.875 156.328 238.744 156.059 239.572 155.749C240.773 155.294 241.932 154.757 243.008 153.951C241.663 154.033 240.441 154.405 239.241 154.819Z" fill="black"/>
<path d="M254.206 254.731H125.954C125.954 254.731 146.343 154.261 195.524 110.765C201.61 105.39 215.313 106.61 224.255 111.054C227.442 112.646 238.91 128.668 242.201 143.821C245.451 158.953 254.579 254.276 254.206 254.731Z" fill="#FFC727"/>
<path d="M243.319 150.085C244.333 153.475 245.161 156.969 245.844 160.504C245.844 160.359 245.864 160.235 245.864 160.09C245.906 158.106 245.927 156.101 246.134 154.116C246.154 154.013 246.32 153.992 246.32 154.095C246.61 156.059 246.589 158.126 246.485 160.111C246.423 161.062 246.382 162.013 246.299 162.943C246.568 164.535 246.817 166.106 247.003 167.677C247.376 170.675 248.39 181.797 248.473 184.009C248.493 184.484 247.955 184.546 247.831 184.071C247.231 181.838 245.637 170.365 245.119 167.409C244.146 161.744 243.443 155.852 243.091 150.105C243.091 149.981 243.277 149.981 243.319 150.085Z" fill="#263238"/>
<path opacity="0.1" d="M203.576 136.999C203.39 138.322 202.955 139.521 202.438 140.679C201.879 141.836 201.279 142.953 200.389 143.945C200.575 142.622 201.009 141.423 201.527 140.265C202.065 139.128 202.686 137.991 203.576 136.999ZM186.189 188.019C185.671 189.177 185.216 190.376 185.05 191.699C185.94 190.707 186.561 189.59 187.1 188.433C187.617 187.275 188.073 186.076 188.238 184.753C187.348 185.745 186.748 186.862 186.189 188.019ZM144.521 206.294C144.004 207.452 143.549 208.651 143.383 209.974C144.273 208.982 144.894 207.865 145.432 206.708C145.95 205.55 146.405 204.351 146.571 203.028C145.701 204.02 145.08 205.136 144.521 206.294ZM175.156 238.999C174.639 240.156 174.183 241.355 174.018 242.678C174.908 241.686 175.529 240.57 176.067 239.412C176.584 238.254 177.04 237.055 177.205 235.732C176.315 236.725 175.694 237.841 175.156 238.999ZM228.622 175.802C228.105 176.959 227.649 178.158 227.484 179.481C228.374 178.489 228.995 177.373 229.533 176.215C230.05 175.057 230.506 173.858 230.671 172.535C229.802 173.528 229.181 174.644 228.622 175.802ZM245.471 210.511C244.954 211.669 244.498 212.868 244.333 214.191C245.223 213.199 245.844 212.083 246.382 210.925C246.9 209.767 247.355 208.568 247.52 207.245C246.63 208.237 246.03 209.354 245.471 210.511ZM204.715 235.505C204.197 236.662 203.742 237.862 203.576 239.185C204.466 238.192 205.087 237.076 205.625 235.918C206.143 234.761 206.598 233.562 206.764 232.239C205.874 233.251 205.253 234.368 204.715 235.505ZM165.635 167.843C165.117 169 164.662 170.199 164.496 171.522C165.386 170.53 166.007 169.414 166.545 168.256C167.063 167.098 167.518 165.899 167.684 164.576C166.794 165.569 166.173 166.706 165.635 167.843ZM214.112 156.431C212.953 155.914 211.752 155.46 210.428 155.294C211.421 156.183 212.539 156.803 213.698 157.341C214.857 157.858 216.058 158.313 217.383 158.478C216.389 157.589 215.271 156.989 214.112 156.431ZM222.205 197.653C221.046 197.136 219.846 196.681 218.521 196.516C219.515 197.405 220.632 198.025 221.791 198.562C222.951 199.079 224.151 199.534 225.476 199.699C224.482 198.811 223.365 198.211 222.205 197.653ZM146.778 241.335C145.619 240.818 144.418 240.363 143.093 240.198C144.087 241.086 145.205 241.707 146.364 242.244C147.523 242.761 148.723 243.216 150.048 243.381C149.055 242.492 147.937 241.872 146.778 241.335ZM223.53 249.686C222.371 249.17 221.15 248.715 219.825 248.549C220.819 249.438 221.957 250.038 223.095 250.596C223.365 250.72 223.613 250.823 223.882 250.947C224.565 250.989 225.248 251.051 225.931 251.071C225.186 250.493 224.358 250.058 223.53 249.686ZM175.612 207.969C174.452 207.452 173.252 206.997 171.927 206.832C172.921 207.721 174.038 208.341 175.198 208.878C176.357 209.395 177.557 209.85 178.882 210.015C177.889 209.126 176.771 208.506 175.612 207.969ZM214.112 119.944C212.953 119.427 211.752 118.972 210.428 118.807C211.421 119.696 212.539 120.316 213.698 120.853C214.857 121.37 216.058 121.825 217.383 121.99C216.389 121.101 215.271 120.481 214.112 119.944ZM222.433 139.066C222.888 140.265 223.427 141.423 224.234 142.477C224.151 141.154 223.799 139.914 223.365 138.715C222.909 137.536 222.371 136.358 221.564 135.304C221.647 136.627 221.998 137.867 222.433 139.066ZM242.801 234.409C243.256 235.608 243.795 236.766 244.602 237.82C244.519 236.497 244.167 235.257 243.733 234.058C243.277 232.859 242.739 231.701 241.932 230.647C242.015 231.97 242.366 233.21 242.801 234.409ZM187.783 163.026C188.238 164.225 188.776 165.383 189.584 166.437C189.501 165.114 189.149 163.874 188.714 162.674C188.259 161.475 187.721 160.318 186.913 159.263C186.996 160.607 187.348 161.827 187.783 163.026ZM203.618 204.992C204.073 206.191 204.611 207.348 205.418 208.403C205.336 207.08 204.984 205.839 204.549 204.64C204.094 203.462 203.555 202.284 202.748 201.229C202.831 202.573 203.183 203.793 203.618 204.992ZM130.115 254.214C130.115 254.4 130.136 254.565 130.156 254.751H130.487C130.363 254.565 130.239 254.379 130.115 254.214ZM166.214 254.048C165.738 252.849 165.221 251.692 164.413 250.617C164.496 251.96 164.848 253.18 165.283 254.379C165.324 254.503 165.386 254.627 165.428 254.731H166.463C166.38 254.503 166.297 254.276 166.214 254.048ZM158.845 224.466C159.301 225.665 159.839 226.822 160.646 227.877C160.563 226.553 160.211 225.313 159.777 224.114C159.321 222.915 158.783 221.757 157.976 220.703C158.059 222.026 158.431 223.267 158.845 224.466ZM189.915 125.691C190.37 126.89 190.908 128.048 191.716 129.102C191.633 127.779 191.281 126.538 190.846 125.339C190.391 124.14 189.853 122.983 189.045 121.928C189.128 123.272 189.48 124.492 189.915 125.691ZM224.234 222.502C225.434 222.047 226.594 221.509 227.649 220.703C226.325 220.786 225.083 221.137 223.882 221.571C222.682 222.026 221.522 222.564 220.467 223.37C221.791 223.287 223.033 222.915 224.234 222.502ZM190.66 253.345C191.86 252.891 193.02 252.353 194.075 251.547C192.751 251.63 191.509 251.981 190.308 252.415C189.107 252.87 187.948 253.407 186.893 254.214C188.217 254.131 189.459 253.78 190.66 253.345ZM133.551 225.416C133.468 225.706 133.365 226.016 133.282 226.285C133.882 225.975 134.482 225.644 135.021 225.21C134.524 225.251 134.027 225.313 133.551 225.416ZM162.82 189.88C164.02 189.425 165.179 188.888 166.235 188.081C164.91 188.164 163.668 188.516 162.468 188.95C161.267 189.404 160.108 189.942 159.052 190.748C160.398 190.665 161.619 190.314 162.82 189.88ZM189.749 223.825C190.95 223.37 192.109 222.832 193.165 222.026C191.84 222.109 190.598 222.46 189.397 222.894C188.197 223.349 187.038 223.887 185.982 224.693C187.307 224.61 188.549 224.259 189.749 223.825ZM205.729 175.14C206.929 174.685 208.089 174.148 209.144 173.342C207.82 173.424 206.578 173.776 205.377 174.21C204.197 174.665 203.017 175.202 201.962 176.008C203.307 175.926 204.528 175.554 205.729 175.14ZM239.572 155.749C240.773 155.294 241.932 154.757 242.987 153.951C241.663 154.033 240.421 154.385 239.22 154.819C238.04 155.274 236.86 155.811 235.805 156.617C237.15 156.535 238.371 156.183 239.572 155.749ZM179.068 144.42C180.269 143.966 181.428 143.428 182.484 142.622C181.159 142.705 179.917 143.056 178.716 143.49C177.537 143.945 176.357 144.482 175.301 145.289C176.626 145.206 177.868 144.855 179.068 144.42Z" fill="black"/>
<path d="M84.4525 71.2799C84.1835 65.1194 85.4254 36.8183 87.5367 29.0247C89.648 21.231 97.3481 -0.78554 103.496 0.227428C109.643 1.2404 107.905 7.8557 107.905 7.8557C107.905 7.8557 112.624 -0.93025 118.73 0.661557C124.816 2.23269 121.773 12.4451 121.773 12.4451C121.773 12.4451 127.279 3.78315 133.261 5.78841C139.223 7.79368 134.441 17.5512 134.441 17.5512C134.441 17.5512 139.119 9.40616 143.321 13.1066C148.392 17.5719 138.084 31.6501 136.407 40.4361C136.035 42.4413 131.543 81.4302 131.543 81.4302L84.4525 71.2799Z" fill="#F7A9A0"/>
<path d="M134.834 16.7243C127.279 27.0814 125.768 32.9111 124.919 45.5009C124.899 45.7489 124.526 45.7696 124.526 45.5215C124.236 33.1178 125.064 25.5309 134.338 16.3315C134.793 15.8767 135.186 16.2281 134.834 16.7243Z" fill="#263238"/>
<path d="M122.394 11.6388C115.481 23.0916 113.783 29.3968 111.941 42.524C111.92 42.7101 111.589 42.6894 111.61 42.5033C112.355 29.4795 113.369 21.9132 121.773 11.3908C122.146 10.8946 122.705 11.1013 122.394 11.6388Z" fill="#263238"/>
<path d="M107.843 8.51725C101.964 20.0734 99.7906 26.9161 99.625 39.8986C99.625 40.2087 99.1696 40.2293 99.1489 39.9193C98.0312 26.6887 100.66 18.1094 107.47 8.37254C107.925 7.71101 108.194 7.7937 107.843 8.51725Z" fill="#263238"/>
<path d="M131.15 89.4927C131.15 89.4927 142.866 78.4948 146.943 72.5203C151.021 66.5459 158.017 38.7203 152.077 36.8804C144.418 34.4823 137.215 49.7595 134.669 57.6979C134.669 57.6979 116.95 52.1576 109.416 61.9978C101.84 71.8381 131.15 89.4927 131.15 89.4927Z" fill="#F7A9A0"/>
<path d="M149.738 36.9011C141.189 39.7539 138.498 50.4004 135.455 57.9047C135.228 58.4835 134.689 58.4835 134.275 58.2354C126.7 56.4162 115.481 56.0441 109.312 61.4811C109.126 61.6465 108.878 61.3984 109.043 61.2123C114.86 54.473 125.913 53.9355 134.089 56.4576C137.091 48.7053 140.258 38.1415 149.717 36.7977C149.779 36.8184 149.8 36.8804 149.738 36.9011Z" fill="#263238"/>
<path d="M202.603 125.753C194.903 139.066 150.4 180.102 111.589 187.213C106.332 188.185 86.2741 183.947 82.0928 170.654C74.6204 147.004 80.6025 98.1752 84.4111 68.7785C85.1563 63.0315 138.519 74.8356 137.132 83.6009C135.6 93.3171 129.887 128.978 130.757 129.371C133.944 130.838 168.056 116.14 190.453 111.323C206.329 107.912 208.544 115.499 202.603 125.753Z" fill="#F7A9A0"/>
<path d="M76.8766 83.3322L137.67 96.4801C137.67 96.4801 132.143 127.51 133.22 127.324C134.296 127.138 176.957 111.613 193.413 109.979C209.869 108.346 209.869 115.561 201.527 129.122C193.185 142.684 138.539 188.102 111.61 188.081C97.907 188.081 85.1563 179.316 82.6724 175.119C74.9723 162.116 76.8766 83.3322 76.8766 83.3322Z" fill="#455A64"/>
<path d="M76.8766 83.3322L137.67 96.4801C137.67 96.4801 132.143 127.51 133.22 127.324C134.296 127.138 176.957 111.613 193.413 109.979C209.869 108.346 209.869 115.561 201.527 129.122C193.185 142.684 138.539 188.102 111.61 188.081C97.907 188.081 85.1563 179.316 82.6724 175.119C74.9723 162.116 76.8766 83.3322 76.8766 83.3322Z" fill="#FFC727"/>
<path opacity="0.1" d="M164.02 126.559C163.523 127.717 163.068 128.916 162.882 130.239C163.772 129.246 164.393 128.13 164.931 126.972C165.448 125.794 165.904 124.616 166.069 123.272C165.2 124.285 164.579 125.422 164.02 126.559ZM115.708 180.763C115.191 181.921 114.756 183.12 114.57 184.443C115.46 183.451 116.06 182.334 116.619 181.177C117.136 180.019 117.571 178.82 117.757 177.497C116.867 178.489 116.267 179.626 115.708 180.763ZM79.8987 143.593C79.3812 144.751 78.9258 145.95 78.7603 147.273C79.6503 146.281 80.2713 145.165 80.8095 144.007C81.327 142.849 81.7616 141.65 81.9479 140.327C81.0579 141.319 80.4369 142.456 79.8987 143.593ZM132.847 143.759C132.33 144.916 131.874 146.115 131.709 147.439C132.599 146.446 133.22 145.33 133.758 144.172C134.275 143.015 134.71 141.816 134.896 140.492C133.986 141.485 133.385 142.601 132.847 143.759ZM106.207 159.057C105.69 160.214 105.234 161.413 105.069 162.736C105.959 161.744 106.58 160.628 107.118 159.47C107.636 158.312 108.091 157.113 108.257 155.79C107.366 156.783 106.746 157.899 106.207 159.057ZM108.546 121.722C108.029 122.879 107.594 124.078 107.408 125.401C108.298 124.409 108.898 123.293 109.457 122.135C109.975 120.977 110.409 119.778 110.596 118.455C109.705 119.448 109.105 120.585 108.546 121.722ZM81.4925 93.9786C80.9751 95.1363 80.5404 96.3353 80.3541 97.6584C81.2442 96.6661 81.8651 95.5498 82.4033 94.3921C82.9208 93.2137 83.3762 92.0354 83.5418 90.6917C82.6517 91.7046 82.0514 92.8416 81.4925 93.9786ZM190.846 125.339C190.391 124.161 189.853 122.983 189.045 121.928C189.128 123.251 189.48 124.492 189.915 125.691C190.391 126.869 190.908 128.047 191.716 129.102C191.633 127.779 191.26 126.538 190.846 125.339ZM154.83 150.167C154.354 148.989 153.836 147.811 153.029 146.756C153.112 148.079 153.464 149.32 153.898 150.519C154.354 151.697 154.871 152.875 155.699 153.93C155.616 152.607 155.264 151.387 154.83 150.167ZM127.776 122.197C127.32 121.019 126.782 119.861 125.975 118.786C126.058 120.109 126.41 121.349 126.844 122.548C127.32 123.727 127.838 124.905 128.645 125.959C128.562 124.636 128.211 123.417 127.776 122.197ZM124.278 162.674C123.822 161.496 123.284 160.318 122.477 159.263C122.56 160.586 122.912 161.827 123.346 163.026C123.822 164.204 124.34 165.383 125.147 166.437C125.064 165.114 124.712 163.873 124.278 162.674ZM89.6066 158.312C89.1512 157.134 88.6131 155.956 87.8058 154.901C87.8886 156.224 88.2405 157.444 88.6752 158.664C89.1305 159.842 89.6687 161.021 90.476 162.075C90.3725 160.731 90.0206 159.511 89.6066 158.312ZM100.536 101.09C100.08 99.9117 99.5422 98.7334 98.7349 97.6584C98.8177 99.0021 99.1696 100.222 99.6043 101.421C100.08 102.599 100.598 103.757 101.405 104.832C101.322 103.509 100.95 102.289 100.536 101.09ZM96.4373 133.567C95.9613 132.368 95.4438 131.21 94.6365 130.135C94.7193 131.458 95.0712 132.699 95.5059 133.898C95.9613 135.097 96.4994 136.255 97.3067 137.33C97.2239 135.986 96.872 134.745 96.4373 133.567ZM178.716 143.49C177.537 143.966 176.357 144.482 175.301 145.289C176.626 145.206 177.847 144.854 179.068 144.42C180.248 143.966 181.428 143.428 182.484 142.622C181.159 142.704 179.917 143.056 178.716 143.49ZM114.384 142.002C113.204 142.477 112.024 142.994 110.968 143.8C112.293 143.717 113.514 143.366 114.735 142.932C115.915 142.477 117.095 141.94 118.151 141.133C116.826 141.216 115.584 141.588 114.384 142.002ZM120.469 103.84C119.289 104.315 118.109 104.832 117.054 105.638C118.378 105.555 119.6 105.204 120.821 104.77C122.001 104.315 123.181 103.798 124.236 102.971C122.891 103.054 121.67 103.426 120.469 103.84ZM85.9429 115.83C84.763 116.285 83.5832 116.822 82.5275 117.628C83.8522 117.546 85.0942 117.194 86.2947 116.76C87.4746 116.305 88.6545 115.768 89.7101 114.962C88.3647 115.044 87.1434 115.396 85.9429 115.83ZM143.342 167.595C142.162 168.07 140.982 168.587 139.926 169.393C141.251 169.31 142.472 168.959 143.694 168.525C144.873 168.07 146.053 167.533 147.109 166.726C145.784 166.809 144.542 167.16 143.342 167.595ZM97.1204 177.683C95.9406 178.138 94.7607 178.675 93.705 179.481C95.0298 179.399 96.2717 179.047 97.4723 178.613C98.6521 178.158 99.832 177.621 100.888 176.815C99.5629 176.897 98.321 177.249 97.1204 177.683ZM146.943 126.29C145.763 126.766 144.584 127.283 143.528 128.089C144.853 128.006 146.074 127.655 147.295 127.221C148.475 126.766 149.655 126.249 150.711 125.422C149.365 125.505 148.144 125.877 146.943 126.29Z" fill="black"/>
<path d="M133.717 127.593C133.385 132.244 132.309 136.813 131.295 141.34C130.26 145.93 128.832 150.374 127.465 154.86C127.445 154.964 127.279 154.902 127.3 154.798C128.48 150.291 129.308 145.681 130.322 141.133C131.315 136.585 132.019 131.975 133.178 127.489C133.261 127.179 133.737 127.303 133.717 127.593Z" fill="#263238"/>
<path d="M134.11 107.912C127.072 106.155 119.931 104.791 112.81 103.447C105.669 102.103 98.528 100.718 91.3661 99.5397C87.309 98.8782 83.2727 98.196 79.195 97.6585C79.0915 97.6378 79.0294 97.8238 79.1536 97.8445C86.1913 99.6017 93.3118 101.007 100.432 102.393C107.553 103.798 114.715 105.121 121.877 106.382C125.913 107.085 129.97 107.726 134.048 108.264C134.234 108.305 134.317 107.974 134.11 107.912Z" fill="#263238"/>
<path d="M154.188 169.951C155.306 168.959 156.548 168.132 157.728 167.202C158.866 166.313 160.025 165.424 161.164 164.535C163.503 162.736 165.862 160.938 168.201 159.139C172.879 155.522 177.475 151.8 182.111 148.121C184.761 146.033 187.369 143.903 189.977 141.754C190.08 141.671 190.225 141.816 190.122 141.919C186.934 144.916 183.705 147.893 180.393 150.746C180.807 150.539 181.242 150.353 181.656 150.147C182.918 149.506 184.181 148.824 185.423 148.141C185.527 148.079 185.609 148.245 185.506 148.307C184.347 149.134 183.125 149.878 181.863 150.539C181.242 150.87 180.621 151.18 179.979 151.47C179.669 151.614 179.358 151.759 179.048 151.863H179.027C178.282 152.503 177.516 153.144 176.75 153.764C172.155 157.486 167.477 161.103 162.675 164.556C161.35 165.507 160.004 166.458 158.659 167.346C157.21 168.297 155.844 169.331 154.333 170.158C154.209 170.22 154.084 170.055 154.188 169.951Z" fill="#263238"/>
<path d="M214.547 141.443L221.647 130.673L228.332 139.728L225.6 147.749L218.024 147.914L214.547 141.443Z" fill="#263238"/>
<path d="M218.024 147.914L205.439 231.515L218.231 260.974L229.761 230.585L225.6 147.749L218.024 147.914Z" fill="#263238"/>
<path d="M224.193 129.887C216.803 131.686 204.032 120.461 198.94 111.344C198.588 110.724 199.519 104.088 200.264 96.0046C200.699 91.0844 201.051 85.6061 201.03 80.5826L232.658 88.0455C232.658 88.0455 229.616 98.6093 229.74 107.375C229.761 108.098 229.843 108.78 229.968 109.442C229.988 109.545 230.009 109.649 230.009 109.793C230.671 113.659 231.334 128.151 224.193 129.887Z" fill="#F7A9A0"/>
<path d="M203.245 81.0787C204.197 87.7354 208.73 109.649 226.759 109.938C227.939 109.959 229.036 109.897 230.009 109.752C229.988 109.628 229.968 109.525 229.968 109.421C229.823 108.76 229.74 108.077 229.74 107.354C229.636 98.5886 232.658 88.0248 232.658 88.0248L203.245 81.0787Z" fill="#263238"/>
<path d="M193.744 45.2941C191.322 56.7262 200.078 88.397 208.647 94.8675C221.067 104.253 239.986 103.571 247.624 88.9758C255.014 74.8356 242.884 33.7794 233.445 28.0323C219.515 19.5978 197.304 28.3838 193.744 45.2941Z" fill="#F7A9A0"/>
<g opacity="0.2">
<path d="M225.31 49.222C226.449 49.0979 227.608 49.0152 228.726 48.7258C229.864 48.4364 230.92 47.9196 232.058 47.6508C234.232 47.134 236.384 47.3407 238.661 47.6095C238.848 47.6302 238.848 47.7542 238.661 47.7335C236.343 47.5268 234.004 47.5268 231.768 48.2917C229.906 48.9532 228.208 49.4907 226.221 49.6147C221.833 49.9248 217.59 50.7931 214.112 53.646C214.091 53.6666 214.05 53.6253 214.091 53.6046C217.196 50.9378 221.274 49.6768 225.31 49.222Z" fill="black"/>
<path d="M224.565 46.2244C225.662 46.1003 226.739 46.0176 227.815 45.7489C228.891 45.4802 229.906 44.984 230.982 44.7359C233.031 44.2605 235.08 44.4465 237.233 44.6946C237.419 44.7153 237.419 44.8393 237.233 44.8186C235.039 44.6326 232.824 44.6119 230.692 45.3561C228.912 45.9763 227.318 46.4931 225.414 46.6172C221.253 46.9066 217.217 47.7335 213.926 50.4416C213.905 50.4623 213.884 50.421 213.905 50.4003C216.886 47.8575 220.736 46.6585 224.565 46.2244Z" fill="black"/>
</g>
<path d="M196.89 72.5823C196.89 72.5823 185.816 54.3282 186.831 43.785C187.286 39.0096 193.806 35.8053 193.806 35.8053C193.806 35.8053 191.86 29.9963 197.222 24.9521C202.872 19.6392 216.555 20.8175 216.555 20.8175C216.555 20.8175 225.414 8.02106 237.957 13.0859C250.501 18.1507 242.346 32.353 242.346 32.353C242.346 32.353 246.962 38.8649 235.722 43.9918C224.772 48.9739 202.396 44.0951 202.396 44.0951C202.396 44.0951 204.218 55.5479 202.065 67.2487C201.216 71.5693 196.89 72.5823 196.89 72.5823Z" fill="#A6A6A6"/>
<path d="M218.687 20.9622C215.913 19.7632 212.87 19.3497 209.869 19.3497C207.198 19.3497 204.446 19.6805 201.92 20.5901C197.408 22.2026 193.392 25.5309 192.647 30.4924C192.274 32.9731 192.916 35.4125 194.406 37.4178C194.468 37.5005 194.593 37.3971 194.531 37.3144C191.633 33.738 193.144 28.1564 196.145 25.1381C199.54 21.7478 204.715 20.4454 209.372 20.2387C212.497 20.1146 215.582 20.5901 218.624 21.2103C218.79 21.2723 218.852 21.0449 218.687 20.9622Z" fill="#A6A6A6"/>
<path d="M246.92 19.1017C245.885 15.5873 242.863 13.334 239.489 12.259C235.639 11.0393 231.375 11.2667 227.608 12.6724C223.758 14.1195 220.467 16.7036 217.9 19.8666C217.838 19.9286 217.962 20.032 218.024 19.9699C222.744 14.3883 230.112 11.2253 237.419 12.7551C240.69 13.4373 243.94 15.1118 245.451 18.2334C246.837 21.0863 246.548 24.7247 245.181 27.5362C243.484 31.0092 240.359 33.6347 237.129 35.6193C237.047 35.6606 237.109 35.7846 237.192 35.7433C240.338 34.0481 243.256 31.9188 245.223 28.8799C247.065 26.0477 247.893 22.43 246.92 19.1017Z" fill="#A6A6A6"/>
<path d="M202.955 70.9078C202.955 70.9078 194.551 61.3156 190.122 64.4165C185.692 67.5174 192.792 81.9884 198.567 83.4355C204.321 84.8826 205.791 79.5904 205.791 79.5904L202.955 70.9078Z" fill="#F7A9A0"/>
<path d="M192.254 68.5097C192.171 68.5097 192.15 68.6337 192.233 68.6544C196.29 69.8121 198.733 73.1818 200.575 76.7581C199.271 75.4558 197.594 74.8356 195.835 76.4067C195.752 76.4894 195.855 76.6341 195.959 76.5928C197.511 76.0759 198.691 76.2207 199.912 77.3783C200.782 78.2052 201.423 79.2802 202.065 80.2519C202.293 80.5826 202.893 80.3345 202.707 79.9418C202.686 79.9211 202.686 79.8797 202.665 79.8591C202.231 74.9389 197.636 68.427 192.254 68.5097Z" fill="#263238"/>
<path d="M221.357 75.3317C217.031 75.9105 212.704 73.5125 211.007 69.2952C208.999 64.2924 211.442 58.6074 216.43 56.6021C221.44 54.5969 227.132 57.0363 229.14 62.0184C231.147 67.0006 228.705 72.7063 223.716 74.6909C222.93 75.0216 222.143 75.2283 221.357 75.3317ZM218.956 57.2843C218.273 57.367 217.589 57.5531 216.927 57.8218C212.601 59.5583 210.49 64.4785 212.228 68.8198C213.967 73.1404 218.894 75.249 223.22 73.5125C227.546 71.776 229.657 66.8559 227.918 62.5352C226.449 58.8555 222.702 56.7882 218.956 57.2843Z" fill="#455A64"/>
<path d="M243.049 69.6881C239.344 70.1842 235.474 66.8352 234.232 61.8944C233.59 59.4137 233.714 56.8709 234.542 54.783C235.411 52.6123 236.943 51.1446 238.868 50.6484C240.793 50.1523 242.842 50.7104 244.643 52.2195C246.382 53.6666 247.686 55.8373 248.328 58.318C249.653 63.5276 247.562 68.5717 243.691 69.564C243.463 69.6261 243.256 69.6674 243.049 69.6881ZM239.676 51.8474C239.51 51.8681 239.344 51.9094 239.179 51.9508C237.668 52.3229 236.446 53.5219 235.743 55.2998C234.997 57.1397 234.915 59.393 235.474 61.605C236.633 66.1117 240.152 69.1506 243.339 68.3237C246.527 67.5174 248.183 63.1761 247.044 58.6695C246.486 56.4368 245.326 54.5142 243.795 53.2532C242.491 52.1368 241.042 51.6614 239.676 51.8474Z" fill="#455A64"/>
<path d="M229.098 63.1968L228.043 62.4319C229.181 60.8607 232.079 58.4007 235.018 60.2819L234.314 61.3776C231.665 59.7031 229.202 63.0521 229.098 63.1968Z" fill="#455A64"/>
<path d="M187.534 76.3447L186.272 76.0553C186.417 75.4558 187.7 70.2255 190.411 69.0678C192.937 67.9722 210.303 65.2641 211.049 65.14L211.256 66.4217C206.267 67.1866 192.895 69.3986 190.929 70.2462C189.128 71.0111 187.866 74.8976 187.534 76.3447Z" fill="#455A64"/>
<path d="M229.988 109.07L221.15 127.179L199.685 102.124L192.626 109.194C192.626 109.194 212.622 148.017 212.891 146.343L221.647 130.88L231.934 142.766L232.969 114.796L229.988 109.07Z" fill="#EBEBEB"/>
<path d="M233.217 128.978C233.238 124.347 233.383 119.696 233.176 115.065C233.176 114.899 232.928 114.817 232.865 115.003C231.644 119.385 231.665 137.081 231.375 141.299C231.354 141.278 231.334 141.257 231.334 141.257C230.899 140.74 221.771 130.776 221.667 130.921C219.825 133.34 213.408 144.606 212.953 145.64C209.786 139.479 197.594 117.008 193.765 111.116C193.661 110.951 193.392 111.054 193.475 111.261C196.207 117.732 212.311 147.955 212.58 147.893C212.767 148.059 220.736 134.187 221.75 131.541C223.261 133.691 232.41 144.854 232.493 144.172C233.01 139.562 233.197 133.608 233.217 128.978Z" fill="#263238"/>
<path d="M314.172 246.854C306.575 257.707 285.917 259.775 234.356 269.863C227.215 271.269 203.804 223.618 211.359 221.737C220.86 219.359 258.243 212.227 261.037 212.041C284.634 210.553 319.326 239.495 314.172 246.854Z" fill="#F7A9A0"/>
<path d="M221.667 219.38C221.667 219.38 199.83 222.667 188.88 227.959C174.225 235.029 164.496 247.164 160.729 252.477C152.863 263.599 141.52 295.932 150.276 300.81C158.204 305.234 168.119 271.6 168.119 271.6C168.119 271.6 152.346 304.221 162.861 307.798C173.376 311.374 182.67 271.682 182.67 271.682C182.67 271.682 167.208 305.565 178.654 307.529C187.286 309.017 197.739 273.543 197.739 273.543C197.739 273.543 184.657 302.754 193.475 304.676C203.224 306.785 214.919 274.659 214.919 274.659C238.164 275.755 249.673 266.783 257.104 259.423C258.864 257.625 221.667 219.38 221.667 219.38Z" fill="#F7A9A0"/>
<path d="M172.838 259.981C170.851 263.744 168.802 267.548 167.146 271.476C165.49 275.403 163.979 279.393 162.716 283.466C159.59 293.43 159.197 300.169 159.259 299.756C160.915 289.978 166.608 275.838 168.243 271.91C169.899 267.982 171.348 263.992 172.983 260.064C173.045 259.94 172.9 259.899 172.838 259.981Z" fill="#263238"/>
<path d="M187.162 265.667C184.823 270.587 182.339 275.383 180.207 280.406C178.096 285.409 176.543 290.329 174.784 295.456C174.639 295.849 174.908 295.787 175.053 295.394C177.019 290.329 179.213 285.823 181.242 280.778C183.25 275.755 185.092 270.628 187.286 265.708C187.307 265.646 187.203 265.605 187.162 265.667Z" fill="#263238"/>
<path d="M200.326 268.354C196.373 275.693 193.786 283.735 191.426 291.694C191.302 292.086 191.633 291.983 191.778 291.59C194.593 283.776 196.746 277.615 200.596 268.499C200.637 268.354 200.409 268.189 200.326 268.354Z" fill="#263238"/>
<path d="M217.113 219.38L262.279 269.615C262.279 269.615 307.962 259.134 314.689 247.433C319.119 239.722 284.738 208.527 258.76 212.165L217.113 219.38Z" fill="#FFC727"/>
<path opacity="0.1" d="M257.208 250.741C257.021 252.064 256.587 253.263 256.069 254.42C255.51 255.578 254.91 256.694 254.02 257.687C254.206 256.364 254.641 255.165 255.158 254.007C255.717 252.849 256.338 251.733 257.208 250.741ZM288.588 247.929C288.07 249.087 287.615 250.286 287.449 251.609C288.339 250.617 288.96 249.5 289.498 248.343C290.016 247.185 290.471 245.986 290.637 244.663C289.767 245.655 289.146 246.772 288.588 247.929ZM266.212 237.365C265.053 236.849 263.852 236.394 262.527 236.228C263.521 237.117 264.639 237.737 265.798 238.275C266.957 238.792 268.158 239.247 269.482 239.412C268.489 238.523 267.371 237.924 266.212 237.365ZM288.588 223.535C289.043 224.734 289.581 225.892 290.388 226.946C290.306 225.623 289.954 224.383 289.519 223.184C289.064 221.985 288.525 220.827 287.718 219.773C287.801 221.096 288.153 222.336 288.588 223.535ZM242.801 234.409C243.256 235.608 243.795 236.766 244.602 237.82C244.519 236.497 244.167 235.257 243.733 234.058C243.277 232.859 242.739 231.701 241.932 230.647C242.014 231.97 242.366 233.21 242.801 234.409ZM224.234 222.502C225.434 222.047 226.594 221.509 227.649 220.703C226.325 220.786 225.083 221.137 223.882 221.571C222.681 222.026 221.522 222.564 220.467 223.37C221.791 223.287 223.033 222.915 224.234 222.502ZM262.693 218.346C263.894 217.892 265.053 217.354 266.108 216.548C264.784 216.631 263.542 216.982 262.341 217.416C261.161 217.871 259.981 218.408 258.926 219.215C260.271 219.132 261.492 218.76 262.693 218.346ZM276.934 262.504C278.135 262.049 279.294 261.511 280.349 260.705C279.025 260.788 277.783 261.139 276.582 261.573C275.402 262.028 274.222 262.566 273.167 263.372C274.491 263.289 275.733 262.938 276.934 262.504ZM310.881 237.469C309.949 237.634 309.059 237.903 308.169 238.213C306.968 238.688 305.809 239.205 304.733 240.011C306.078 239.929 307.3 239.557 308.5 239.143C309.432 238.792 310.322 238.399 311.17 237.862C311.088 237.737 310.984 237.593 310.881 237.469Z" fill="black"/>
<path d="M289.747 220.372C285.566 217.333 273.767 210.284 258.739 212.165C258.615 212.186 258.595 212.393 258.739 212.393C270.083 212.083 285.379 217.995 289.643 220.558C289.747 220.62 289.85 220.434 289.747 220.372Z" fill="#263238"/>
<path d="M274.636 261.222C269.958 255.433 264.991 249.893 260.002 244.374C255.014 238.854 250.025 233.314 244.892 227.918C241.994 224.858 239.117 221.799 236.095 218.843C236.012 218.76 235.867 218.884 235.95 218.967C240.607 224.755 245.575 230.316 250.522 235.856C255.49 241.417 260.499 246.916 265.57 252.395C268.427 255.475 271.345 258.514 274.367 261.47C274.491 261.594 274.761 261.387 274.636 261.222Z" fill="#263238"/>
<path d="M217.031 218.739C219.784 217.83 222.64 217.354 225.497 216.817C228.353 216.279 231.21 215.804 234.066 215.349C239.758 214.439 251.722 211.855 262.238 211.876C262.362 211.876 261.762 212.434 261.637 212.434C256.628 212.165 220.756 219.298 217.796 219.504C217.921 219.69 218.024 219.897 218.107 220.104C218.169 220.248 218.024 220.435 217.859 220.331C217.486 220.083 217.217 219.773 216.886 219.504C216.617 219.256 216.658 218.843 217.031 218.739Z" fill="#263238"/>
</g>
<defs>
<clipPath id="clip0_362_13361">
<rect width="646" height="652" fill="white"/>
</clipPath>
</defs>
</svg>
